M48
;DRILL file {KiCad 4.0.7} date 2018 April 15, Sunday 00:02:09
;FORMAT={-:-/ absolute / inch / decimal}
FMAT,2
INCH,TZ
T1C0.012
T2C0.020
T3C0.028
T4C0.047
%
G90
G05
M72
T1
X4.66Y-3.06
X4.675Y-4.26
X4.6887Y-3.3911
X4.7Y-3.985
X4.725Y-2.505
X4.79Y-2.6
X4.795Y-2.705
X4.795Y-2.825
X4.795Y-2.845
X4.8003Y-3.228
X4.805Y-2.29
X4.8058Y-3.8952
X4.8122Y-3.5188
X4.8186Y-3.3664
X4.8214Y-3.5491
X4.822Y-3.5822
X4.8226Y-3.6129
X4.825Y-3.645
X4.8322Y-3.055
X4.835Y-3.005
X4.8525Y-3.715
X4.8534Y-3.8953
X4.855Y-4.1098
X4.86Y-2.605
X4.865Y-3.34
X4.8828Y-3.075
X4.885Y-3.66
X4.89Y-3.395
X4.89Y-3.7275
X4.89Y-3.9
X4.9Y-4.15
X4.9019Y-3.7853
X4.9217Y-4.1283
X4.935Y-2.4
X4.95Y-4.11
X4.9545Y-3.407
X4.965Y-2.4
X4.9661Y-3.0765
X4.975Y-3.315
X4.9851Y-3.405
X4.99Y-2.4
X4.99Y-3.03
X4.9941Y-2.745
X4.9943Y-2.8799
X4.9947Y-3.0656
X4.995Y-3.51
X4.9972Y-3.435
X5.03Y-3.71
X5.0327Y-3.929
X5.04Y-4.205
X5.045Y-2.38
X5.0497Y-3.8329
X5.06Y-3.24
X5.0622Y-3.805
X5.0636Y-3.3763
X5.0717Y-3.9404
X5.075Y-3.75
X5.0806Y-3.3406
X5.085Y-2.55
X5.085Y-2.59
X5.0872Y-3.49
X5.0906Y-3.5394
X5.095Y-2.805
X5.0992Y-3.0397
X5.1Y-2.71
X5.1022Y-3.3685
X5.1047Y-2.9773
X5.105Y-2.76
X5.105Y-2.87
X5.105Y-2.8352
X5.1063Y-2.9409
X5.1063Y-3.0079
X5.11Y-3.935
X5.115Y-4.2948
X5.115Y-4.385
X5.1197Y-3.7673
X5.125Y-4.325
X5.1401Y-3.9407
X5.1402Y-4.2
X5.145Y-2.76
X5.1462Y-2.784
X5.1596Y-3.8146
X5.165Y-4.425
X5.17Y-2.76
X5.17Y-2.785
X5.175Y-4.1652
X5.175Y-4.2348
X5.1798Y-3.935
X5.18Y-2.42
X5.1853Y-3.8312
X5.1994Y-3.73
X5.2019Y-4.0878
X5.2047Y-4.0197
X5.2098Y-4.2
X5.21Y-3.94
X5.225Y-4.5
X5.235Y-3.73
X5.235Y-2.655
X5.2375Y-3.3825
X5.2379Y-3.7756
X5.2509Y-2.7141
X5.2509Y-3.1991
X5.254Y-3.5038
X5.26Y-2.655
X5.2637Y-3.211
X5.265Y-2.7
X5.275Y-3.145
X5.275Y-3.775
X5.2756Y-4.0197
X5.2772Y-3.5505
X5.28Y-2.325
X5.285Y-2.655
X5.29Y-3.16
X5.2924Y-2.8533
X5.2945Y-3.0458
X5.2947Y-3.0764
X5.295Y-3.33
X5.2953Y-2.8228
X5.2956Y-3.107
X5.2992Y-2.8858
X5.2992Y-2.9646
X5.2992Y-2.9961
X5.3028Y-3.5244
X5.3031Y-2.9331
X5.3037Y-2.7934
X5.305Y-3.175
X5.31Y-3.7924
X5.3143Y-3.5879
X5.32Y-3.655
X5.32Y-4.465
X5.3209Y-3.6178
X5.33Y-2.44
X5.33Y-2.5
X5.33Y-2.535
X5.335Y-4.485
X5.345Y-3.865
X5.345Y-4.25
X5.3474Y-3.91
X5.3543Y-3.6139
X5.355Y-4.505
X5.371Y-4.068
X5.4147Y-3.1599
X5.42Y-4.335
X5.425Y-3.9788
X5.4307Y-4.1312
X5.4308Y-3.1863
X5.435Y-3.435
X5.4446Y-3.831
X5.445Y-4.45
X5.4459Y-3.8701
X5.45Y-3.96
X5.455Y-3.7185
X5.455Y-3.675
X5.455Y-3.78
X5.455Y-4.33
X5.455Y-3.6094
X5.4556Y-3.7491
X5.456Y-3.644
X5.465Y-3.91
X5.47Y-4.345
X5.48Y-2.6278
X5.485Y-4.36
X5.4861Y-3.5739
X5.51Y-2.82
X5.515Y-2.975
X5.52Y-2.9426
X5.525Y-3.145
X5.53Y-2.885
X5.54Y-2.3
X5.5413Y-2.9134
X5.545Y-2.8
X5.595Y-3.14
X5.62Y-3.14
X5.64Y-2.2
X5.64Y-2.225
X5.64Y-2.25
X5.64Y-2.275
X5.64Y-2.3
X5.64Y-2.325
X5.64Y-2.81
X5.64Y-2.8345
X5.64Y-2.859
X5.645Y-3.115
X5.645Y-3.14
X5.65Y-3.0292
X5.6645Y-2.81
X5.6645Y-2.8345
X5.6645Y-2.859
X5.6645Y-2.8835
X5.665Y-2.2
X5.665Y-2.225
X5.665Y-2.25
X5.665Y-2.275
X5.665Y-2.3
X5.665Y-2.325
X5.665Y-2.66
X5.67Y-3.115
X5.67Y-3.14
X5.689Y-2.8345
X5.689Y-2.859
X5.689Y-2.8835
X5.69Y-2.2
X5.69Y-2.225
X5.69Y-2.25
X5.69Y-2.275
X5.69Y-2.3
X5.69Y-2.325
X5.695Y-3.115
X5.695Y-3.14
X5.7135Y-2.8345
X5.7135Y-2.859
X5.7135Y-2.8835
X5.715Y-2.2
X5.715Y-2.225
X5.715Y-2.25
X5.715Y-2.275
X5.715Y-2.3
X5.715Y-2.325
X5.72Y-3.115
X5.72Y-3.14
X5.738Y-2.81
X5.738Y-2.8345
X5.738Y-2.859
X5.738Y-2.8835
X5.74Y-2.2
X5.74Y-2.225
X5.74Y-2.25
X5.74Y-2.275
X5.74Y-2.3
X5.74Y-2.325
X5.745Y-3.115
X5.745Y-3.14
X5.7625Y-2.81
X5.7625Y-2.8345
X5.7625Y-2.859
X5.7625Y-2.8835
X5.765Y-2.2
X5.765Y-2.225
X5.765Y-2.25
X5.765Y-2.275
X5.765Y-2.3
X5.765Y-2.325
X5.77Y-3.115
X5.77Y-3.14
X5.787Y-2.81
X5.787Y-2.8345
X5.787Y-2.859
X5.787Y-2.8835
X5.79Y-2.2
X5.79Y-2.225
X5.79Y-2.25
X5.79Y-2.275
X5.79Y-2.3
X5.79Y-2.325
X5.795Y-3.115
X5.795Y-3.14
X5.8115Y-2.81
X5.8115Y-2.8345
X5.8115Y-2.859
X5.8115Y-2.8835
X5.82Y-3.115
X5.82Y-3.14
X5.836Y-2.81
X5.836Y-2.8345
X5.836Y-2.859
X5.836Y-2.8835
X5.865Y-2.52
X5.865Y-2.543
X5.865Y-2.566
X5.865Y-2.589
X5.865Y-2.612
X5.865Y-2.635
X5.865Y-2.658
X5.888Y-2.52
X5.888Y-2.543
X5.888Y-2.566
X5.888Y-2.589
X5.888Y-2.612
X5.888Y-2.635
X5.888Y-2.658
X5.911Y-2.52
X5.911Y-2.543
X5.911Y-2.566
X5.911Y-2.589
X5.911Y-2.612
X5.911Y-2.635
X5.911Y-2.658
X5.934Y-2.52
X5.934Y-2.543
X5.934Y-2.566
X5.934Y-2.589
X5.934Y-2.612
X5.934Y-2.635
X5.934Y-2.658
X5.957Y-2.52
X5.957Y-2.543
X5.957Y-2.566
X5.957Y-2.589
X5.957Y-2.612
X5.957Y-2.635
X5.957Y-2.658
X5.98Y-2.52
X5.98Y-2.543
X5.98Y-2.566
X5.98Y-2.589
X5.98Y-2.612
X5.98Y-2.635
X5.98Y-2.658
X6.003Y-2.52
X6.003Y-2.543
X6.003Y-2.566
X6.003Y-2.589
X6.003Y-2.612
X6.003Y-2.635
X6.003Y-2.658
X6.005Y-2.425
X6.026Y-2.52
X6.026Y-2.543
X6.026Y-2.566
X6.026Y-2.589
X6.026Y-2.612
X6.026Y-2.635
X6.026Y-2.658
X6.035Y-2.42
X6.049Y-2.52
X6.049Y-2.543
X6.049Y-2.566
X6.049Y-2.589
X6.049Y-2.612
X6.049Y-2.635
X6.049Y-2.658
X6.085Y-3.14
X6.09Y-3.03
X6.11Y-2.81
X6.11Y-2.8345
X6.11Y-2.859
X6.11Y-2.8835
X6.11Y-3.14
X6.12Y-2.2
X6.12Y-2.225
X6.12Y-2.25
X6.12Y-2.275
X6.12Y-2.3
X6.12Y-2.325
X6.1345Y-2.81
X6.1345Y-2.8345
X6.1345Y-2.859
X6.1345Y-2.8835
X6.135Y-2.665
X6.135Y-3.115
X6.135Y-3.14
X6.145Y-2.2
X6.145Y-2.225
X6.145Y-2.25
X6.145Y-2.275
X6.145Y-2.3
X6.145Y-2.325
X6.159Y-2.81
X6.159Y-2.8345
X6.159Y-2.859
X6.159Y-2.8835
X6.16Y-3.115
X6.16Y-3.14
X6.17Y-2.2
X6.17Y-2.225
X6.17Y-2.25
X6.17Y-2.275
X6.17Y-2.3
X6.17Y-2.325
X6.1835Y-2.8345
X6.1835Y-2.859
X6.1835Y-2.8835
X6.185Y-3.115
X6.185Y-3.14
X6.195Y-2.2
X6.195Y-2.225
X6.195Y-2.25
X6.195Y-2.275
X6.195Y-2.3
X6.195Y-2.325
X6.208Y-2.8345
X6.208Y-2.859
X6.208Y-2.8835
X6.21Y-3.115
X6.21Y-3.14
X6.22Y-2.2
X6.22Y-2.225
X6.22Y-2.25
X6.22Y-2.275
X6.22Y-2.3
X6.22Y-2.325
X6.2325Y-2.81
X6.2325Y-2.8345
X6.2325Y-2.859
X6.2325Y-2.8835
X6.235Y-3.115
X6.235Y-3.14
X6.245Y-2.2
X6.245Y-2.225
X6.245Y-2.25
X6.245Y-2.275
X6.245Y-2.3
X6.245Y-2.325
X6.257Y-2.81
X6.257Y-2.8345
X6.257Y-2.859
X6.257Y-2.8835
X6.26Y-3.115
X6.26Y-3.14
X6.265Y-2.66
X6.27Y-2.2
X6.27Y-2.225
X6.27Y-2.25
X6.27Y-2.275
X6.27Y-2.3
X6.27Y-2.325
X6.2815Y-2.81
X6.2815Y-2.8345
X6.2815Y-2.859
X6.2815Y-2.8835
X6.285Y-3.115
X6.285Y-3.14
X6.306Y-2.81
X6.306Y-2.8345
X6.306Y-2.859
X6.306Y-2.8835
X6.31Y-3.115
X6.31Y-3.14
X6.355Y-2.52
X6.355Y-2.543
X6.355Y-2.566
X6.355Y-2.589
X6.355Y-2.612
X6.355Y-2.635
X6.355Y-2.658
X6.378Y-2.52
X6.378Y-2.543
X6.378Y-2.566
X6.378Y-2.589
X6.378Y-2.612
X6.378Y-2.635
X6.378Y-2.658
X6.401Y-2.52
X6.401Y-2.543
X6.401Y-2.566
X6.401Y-2.589
X6.401Y-2.612
X6.401Y-2.635
X6.401Y-2.658
X6.424Y-2.52
X6.424Y-2.543
X6.424Y-2.566
X6.424Y-2.589
X6.424Y-2.612
X6.424Y-2.635
X6.424Y-2.658
X6.447Y-2.52
X6.447Y-2.543
X6.447Y-2.566
X6.447Y-2.589
X6.447Y-2.612
X6.447Y-2.635
X6.447Y-2.658
X6.47Y-2.52
X6.47Y-2.543
X6.47Y-2.566
X6.47Y-2.589
X6.47Y-2.612
X6.47Y-2.635
X6.47Y-2.658
X6.493Y-2.52
X6.493Y-2.543
X6.493Y-2.566
X6.493Y-2.589
X6.493Y-2.612
X6.493Y-2.635
X6.493Y-2.658
X6.5Y-2.425
X6.516Y-2.52
X6.516Y-2.543
X6.516Y-2.566
X6.516Y-2.589
X6.516Y-2.612
X6.516Y-2.635
X6.516Y-2.658
X6.539Y-2.52
X6.539Y-2.543
X6.539Y-2.566
X6.539Y-2.589
X6.539Y-2.612
X6.539Y-2.635
X6.539Y-2.658
X6.54Y-2.42
X6.6Y-3.115
X6.6Y-3.14
X6.62Y-2.66
X6.625Y-2.2
X6.625Y-2.225
X6.625Y-2.25
X6.625Y-2.275
X6.625Y-2.3
X6.625Y-2.325
X6.625Y-2.81
X6.625Y-2.8345
X6.625Y-2.859
X6.625Y-2.8835
X6.625Y-3.115
X6.625Y-3.14
X6.6495Y-2.81
X6.6495Y-2.8345
X6.6495Y-2.859
X6.6495Y-2.8835
X6.65Y-2.2
X6.65Y-2.225
X6.65Y-2.25
X6.65Y-2.275
X6.65Y-2.3
X6.65Y-2.325
X6.65Y-3.115
X6.65Y-3.14
X6.674Y-2.81
X6.674Y-2.8345
X6.674Y-2.859
X6.674Y-2.8835
X6.675Y-2.2
X6.675Y-2.225
X6.675Y-2.25
X6.675Y-2.275
X6.675Y-2.3
X6.675Y-2.325
X6.675Y-3.115
X6.675Y-3.14
X6.6985Y-2.8345
X6.6985Y-2.859
X6.6985Y-2.8835
X6.7Y-2.2
X6.7Y-2.225
X6.7Y-2.25
X6.7Y-2.275
X6.7Y-2.3
X6.7Y-2.325
X6.7Y-3.115
X6.7Y-3.14
X6.723Y-2.8345
X6.723Y-2.859
X6.723Y-2.8835
X6.725Y-2.2
X6.725Y-2.225
X6.725Y-2.25
X6.725Y-2.275
X6.725Y-2.3
X6.725Y-2.325
X6.725Y-3.115
X6.725Y-3.14
X6.7475Y-2.81
X6.7475Y-2.8345
X6.7475Y-2.859
X6.7475Y-2.8835
X6.75Y-2.2
X6.75Y-2.225
X6.75Y-2.25
X6.75Y-2.275
X6.75Y-2.3
X6.75Y-2.325
X6.75Y-3.115
X6.75Y-3.14
X6.772Y-2.81
X6.772Y-2.8345
X6.772Y-2.859
X6.772Y-2.8835
X6.775Y-2.2
X6.775Y-2.225
X6.775Y-2.25
X6.775Y-2.275
X6.775Y-2.3
X6.775Y-2.325
X6.775Y-3.115
X6.775Y-3.14
X6.7965Y-2.81
X6.7965Y-2.8345
X6.7965Y-2.859
X6.8Y-3.14
X6.821Y-2.81
X6.821Y-2.8345
X6.821Y-2.859
X6.825Y-3.14
T3
X4.6163Y-4.345
X4.645Y-2.6349
X4.645Y-2.7137
X4.645Y-2.7924
X4.645Y-2.8712
X4.645Y-2.95
X4.645Y-4.015
X4.645Y-4.0938
X4.645Y-4.1726
X4.6458Y-3.1284
X4.6458Y-3.2071
X4.6458Y-3.2858
X4.6458Y-3.3646
X4.6458Y-3.4435
X4.6458Y-3.5222
X4.6458Y-3.601
X4.6458Y-3.6798
X4.695Y-4.345
X4.7738Y-4.345
X4.8526Y-4.345
X5.0037Y-2.285
X5.0825Y-2.285
X5.1613Y-2.285
X5.24Y-2.285
X5.3188Y-2.285
X5.3976Y-2.285
T4
X5.6811Y-3.2244
X5.878Y-3.2244
X6.5433Y-3.2244
X6.7402Y-3.2244
T2
X4.98Y-4.2257G85X4.98Y-4.2533
G05
X4.98Y-4.4462G85X4.98Y-4.4738
G05
X5.0646Y-4.3281G85X5.0646Y-4.3714
G05
T0
M30
