%TF.GenerationSoftware,KiCad,Pcbnew,4.0.7*%
%TF.CreationDate,2018-05-01T19:05:30+08:00*%
%TF.ProjectId,VESC_6,564553435F362E6B696361645F706362,rev?*%
%TF.FileFunction,Soldermask,Top*%
%FSLAX46Y46*%
G04 Gerber Fmt 4.6, Leading zero omitted, Abs format (unit mm)*
G04 Created by KiCad (PCBNEW 4.0.7) date 2018 May 01, Tuesday 19:05:30*
%MOMM*%
%LPD*%
G01*
G04 APERTURE LIST*
%ADD10C,0.100000*%
%ADD11O,0.300000X0.850000*%
%ADD12O,0.850000X0.300000*%
%ADD13R,1.699260X1.198880*%
%ADD14O,1.699260X1.198880*%
%ADD15R,1.000000X2.500000*%
%ADD16R,1.501140X0.299720*%
%ADD17R,3.599180X7.000240*%
%ADD18R,0.700000X1.300000*%
%ADD19R,1.100000X0.850000*%
%ADD20R,1.100000X1.700000*%
%ADD21R,1.300000X0.700000*%
%ADD22R,0.850000X1.100000*%
%ADD23R,1.700000X1.100000*%
%ADD24C,3.000000*%
%ADD25R,1.198880X1.699260*%
%ADD26O,1.198880X1.699260*%
%ADD27R,0.350000X0.650000*%
%ADD28R,1.200000X0.775000*%
%ADD29C,0.900000*%
%ADD30O,1.100000X1.800000*%
%ADD31O,1.100000X2.200000*%
%ADD32R,5.000000X4.000000*%
%ADD33R,0.800000X0.750000*%
%ADD34R,0.750000X0.800000*%
%ADD35R,0.900000X0.500000*%
%ADD36R,0.500000X0.900000*%
%ADD37R,2.500000X1.000000*%
%ADD38R,1.180000X4.700000*%
%ADD39R,1.950000X1.500000*%
%ADD40R,2.400000X2.400000*%
%ADD41C,2.400000*%
%ADD42R,0.304800X1.193800*%
%ADD43R,1.193800X0.304800*%
%ADD44R,2.500000X2.300000*%
%ADD45R,6.000000X5.000000*%
G04 APERTURE END LIST*
D10*
D11*
X120334000Y-83726000D03*
X120834000Y-83726000D03*
X121334000Y-83726000D03*
X121834000Y-83726000D03*
X122334000Y-83726000D03*
X122834000Y-83726000D03*
D12*
X123534000Y-83026000D03*
X123534000Y-82526000D03*
X123534000Y-82026000D03*
X123534000Y-81526000D03*
X123534000Y-81026000D03*
X123534000Y-80526000D03*
D11*
X122834000Y-79826000D03*
X122334000Y-79826000D03*
X121834000Y-79826000D03*
X121334000Y-79826000D03*
X120834000Y-79826000D03*
X120334000Y-79826000D03*
D12*
X119634000Y-80526000D03*
X119634000Y-81026000D03*
X119634000Y-81526000D03*
X119634000Y-82026000D03*
X119634000Y-82526000D03*
X119634000Y-83026000D03*
D13*
X117983000Y-105984040D03*
D14*
X117983000Y-101981000D03*
X117983000Y-103982520D03*
D15*
X133453000Y-83947000D03*
X130453000Y-83947000D03*
D10*
G36*
X127675008Y-107506662D02*
X128205338Y-108036992D01*
X127639652Y-108602678D01*
X127109322Y-108072348D01*
X127675008Y-107506662D01*
X127675008Y-107506662D01*
G37*
G36*
X126614348Y-108567322D02*
X127144678Y-109097652D01*
X126578992Y-109663338D01*
X126048662Y-109133008D01*
X126614348Y-108567322D01*
X126614348Y-108567322D01*
G37*
G36*
X136230992Y-107250338D02*
X135700662Y-106720008D01*
X136266348Y-106154322D01*
X136796678Y-106684652D01*
X136230992Y-107250338D01*
X136230992Y-107250338D01*
G37*
G36*
X137291652Y-106189678D02*
X136761322Y-105659348D01*
X137327008Y-105093662D01*
X137857338Y-105623992D01*
X137291652Y-106189678D01*
X137291652Y-106189678D01*
G37*
G36*
X136151909Y-104130695D02*
X136788305Y-104767091D01*
X136434751Y-105120645D01*
X135798355Y-104484249D01*
X136151909Y-104130695D01*
X136151909Y-104130695D01*
G37*
G36*
X135091249Y-105191355D02*
X135727645Y-105827751D01*
X135374091Y-106181305D01*
X134737695Y-105544909D01*
X135091249Y-105191355D01*
X135091249Y-105191355D01*
G37*
D16*
X136080500Y-76852780D03*
X136080500Y-76352400D03*
X136080500Y-75852020D03*
X136080500Y-75351640D03*
X136080500Y-74851260D03*
X136080500Y-74353420D03*
X136080500Y-73853040D03*
X136080500Y-73352660D03*
X136080500Y-72852280D03*
X136080500Y-72351900D03*
X136080500Y-71851520D03*
X136080500Y-81351120D03*
X136080500Y-80853280D03*
X136080500Y-80352900D03*
X128079500Y-75852020D03*
X136080500Y-79352140D03*
X136080500Y-78851760D03*
X136080500Y-78351380D03*
X136080500Y-77853540D03*
X136080500Y-77353160D03*
X128079500Y-73352660D03*
X128079500Y-73853040D03*
X128079500Y-74353420D03*
X128079500Y-74851260D03*
X128079500Y-75351640D03*
X136080500Y-79852520D03*
X128079500Y-76352400D03*
X128079500Y-76852780D03*
X128079500Y-77353160D03*
X128079500Y-77853540D03*
X128079500Y-78351380D03*
X128079500Y-78851760D03*
X128079500Y-79352140D03*
X128079500Y-67853560D03*
X128079500Y-68351400D03*
X128079500Y-68851780D03*
X128079500Y-69352160D03*
X128079500Y-69852540D03*
X128079500Y-70352920D03*
X128079500Y-70853300D03*
X128079500Y-71351140D03*
X128079500Y-71851520D03*
X128079500Y-72351900D03*
X128079500Y-72852280D03*
X128079500Y-79852520D03*
X128079500Y-80352900D03*
X128079500Y-80853280D03*
X128079500Y-81351120D03*
X136080500Y-71351140D03*
X136080500Y-70853300D03*
X136080500Y-70352920D03*
X136080500Y-69852540D03*
X136080500Y-69352160D03*
X136080500Y-68851780D03*
X136080500Y-68351400D03*
X136080500Y-67853560D03*
D17*
X132080000Y-74549000D03*
D10*
G36*
X133357909Y-107813695D02*
X133994305Y-108450091D01*
X133640751Y-108803645D01*
X133004355Y-108167249D01*
X133357909Y-107813695D01*
X133357909Y-107813695D01*
G37*
G36*
X132297249Y-108874355D02*
X132933645Y-109510751D01*
X132580091Y-109864305D01*
X131943695Y-109227909D01*
X132297249Y-108874355D01*
X132297249Y-108874355D01*
G37*
G36*
X134152008Y-101918662D02*
X134682338Y-102448992D01*
X134116652Y-103014678D01*
X133586322Y-102484348D01*
X134152008Y-101918662D01*
X134152008Y-101918662D01*
G37*
G36*
X133091348Y-102979322D02*
X133621678Y-103509652D01*
X133055992Y-104075338D01*
X132525662Y-103545008D01*
X133091348Y-102979322D01*
X133091348Y-102979322D01*
G37*
D18*
X166334000Y-76200000D03*
D19*
X167734000Y-75625000D03*
X167734000Y-76775000D03*
X170534000Y-76775000D03*
X170534000Y-75625000D03*
X167734000Y-74475000D03*
X170534000Y-74475000D03*
X167734000Y-77925000D03*
X170534000Y-77925000D03*
D20*
X164084000Y-76200000D03*
X164084000Y-74000000D03*
X164084000Y-78400000D03*
X173384000Y-76200000D03*
X173384000Y-78400000D03*
X173384000Y-74000000D03*
D21*
X170393000Y-67567000D03*
D22*
X169818000Y-66167000D03*
X170968000Y-66167000D03*
X170968000Y-63367000D03*
X169818000Y-63367000D03*
X168668000Y-66167000D03*
X168668000Y-63367000D03*
X172118000Y-66167000D03*
X172118000Y-63367000D03*
D23*
X170393000Y-69817000D03*
X168193000Y-69817000D03*
X172593000Y-69817000D03*
X170393000Y-60517000D03*
X172593000Y-60517000D03*
X168193000Y-60517000D03*
D18*
X144334000Y-76200000D03*
D19*
X145734000Y-75625000D03*
X145734000Y-76775000D03*
X148534000Y-76775000D03*
X148534000Y-75625000D03*
X145734000Y-74475000D03*
X148534000Y-74475000D03*
X145734000Y-77925000D03*
X148534000Y-77925000D03*
D20*
X142084000Y-76200000D03*
X142084000Y-74000000D03*
X142084000Y-78400000D03*
X151384000Y-76200000D03*
X151384000Y-78400000D03*
X151384000Y-74000000D03*
D24*
X151384000Y-58039000D03*
X164084000Y-58039000D03*
D10*
G36*
X135772305Y-109989909D02*
X135135909Y-110626305D01*
X134782355Y-110272751D01*
X135418751Y-109636355D01*
X135772305Y-109989909D01*
X135772305Y-109989909D01*
G37*
G36*
X134711645Y-108929249D02*
X134075249Y-109565645D01*
X133721695Y-109212091D01*
X134358091Y-108575695D01*
X134711645Y-108929249D01*
X134711645Y-108929249D01*
G37*
G36*
X132453091Y-111870905D02*
X131816695Y-111234509D01*
X132170249Y-110880955D01*
X132806645Y-111517351D01*
X132453091Y-111870905D01*
X132453091Y-111870905D01*
G37*
G36*
X133513751Y-110810245D02*
X132877355Y-110173849D01*
X133230909Y-109820295D01*
X133867305Y-110456691D01*
X133513751Y-110810245D01*
X133513751Y-110810245D01*
G37*
D25*
X123256040Y-110363000D03*
D26*
X119253000Y-110363000D03*
X121254520Y-110363000D03*
X117254020Y-110363000D03*
D25*
X127093980Y-58039000D03*
D26*
X131097020Y-58039000D03*
X129095500Y-58039000D03*
X133096000Y-58039000D03*
X135097520Y-58039000D03*
X137099040Y-58039000D03*
D14*
X118003300Y-81459440D03*
X118003300Y-83458420D03*
X118003300Y-85459940D03*
D13*
X118003300Y-93466020D03*
D14*
X118003300Y-89462980D03*
X118003300Y-91464500D03*
X118003300Y-87464000D03*
X118003300Y-79460460D03*
D13*
X117983000Y-74930000D03*
D14*
X117983000Y-70926960D03*
X117983000Y-72928480D03*
X117983000Y-68927980D03*
X117983000Y-66926460D03*
D27*
X123946000Y-99916500D03*
X123296000Y-99916500D03*
X122646000Y-99916500D03*
X121996000Y-99916500D03*
X121996000Y-103016500D03*
X122646000Y-103016500D03*
X123296000Y-103016500D03*
X123946000Y-103016500D03*
D28*
X122371000Y-101854000D03*
X123571000Y-101854000D03*
X122371000Y-101079000D03*
X123571000Y-101079000D03*
D10*
G36*
X129890482Y-104177400D02*
X130102614Y-103965268D01*
X130618802Y-104481456D01*
X130406670Y-104693588D01*
X129890482Y-104177400D01*
X129890482Y-104177400D01*
G37*
G36*
X129536929Y-104530954D02*
X129749061Y-104318822D01*
X130265249Y-104835010D01*
X130053117Y-105047142D01*
X129536929Y-104530954D01*
X129536929Y-104530954D01*
G37*
G36*
X129183375Y-104884507D02*
X129395507Y-104672375D01*
X129911695Y-105188563D01*
X129699563Y-105400695D01*
X129183375Y-104884507D01*
X129183375Y-104884507D01*
G37*
G36*
X128829822Y-105238061D02*
X129041954Y-105025929D01*
X129558142Y-105542117D01*
X129346010Y-105754249D01*
X128829822Y-105238061D01*
X128829822Y-105238061D01*
G37*
G36*
X128476268Y-105591614D02*
X128688400Y-105379482D01*
X129204588Y-105895670D01*
X128992456Y-106107802D01*
X128476268Y-105591614D01*
X128476268Y-105591614D01*
G37*
G36*
X128688400Y-107472518D02*
X128476268Y-107260386D01*
X128992456Y-106744198D01*
X129204588Y-106956330D01*
X128688400Y-107472518D01*
X128688400Y-107472518D01*
G37*
G36*
X129041954Y-107826071D02*
X128829822Y-107613939D01*
X129346010Y-107097751D01*
X129558142Y-107309883D01*
X129041954Y-107826071D01*
X129041954Y-107826071D01*
G37*
G36*
X129395507Y-108179625D02*
X129183375Y-107967493D01*
X129699563Y-107451305D01*
X129911695Y-107663437D01*
X129395507Y-108179625D01*
X129395507Y-108179625D01*
G37*
G36*
X129749061Y-108533178D02*
X129536929Y-108321046D01*
X130053117Y-107804858D01*
X130265249Y-108016990D01*
X129749061Y-108533178D01*
X129749061Y-108533178D01*
G37*
G36*
X130102614Y-108886732D02*
X129890482Y-108674600D01*
X130406670Y-108158412D01*
X130618802Y-108370544D01*
X130102614Y-108886732D01*
X130102614Y-108886732D01*
G37*
G36*
X131255198Y-108370544D02*
X131467330Y-108158412D01*
X131983518Y-108674600D01*
X131771386Y-108886732D01*
X131255198Y-108370544D01*
X131255198Y-108370544D01*
G37*
G36*
X131608751Y-108016990D02*
X131820883Y-107804858D01*
X132337071Y-108321046D01*
X132124939Y-108533178D01*
X131608751Y-108016990D01*
X131608751Y-108016990D01*
G37*
G36*
X131962305Y-107663437D02*
X132174437Y-107451305D01*
X132690625Y-107967493D01*
X132478493Y-108179625D01*
X131962305Y-107663437D01*
X131962305Y-107663437D01*
G37*
G36*
X132315858Y-107309883D02*
X132527990Y-107097751D01*
X133044178Y-107613939D01*
X132832046Y-107826071D01*
X132315858Y-107309883D01*
X132315858Y-107309883D01*
G37*
G36*
X132669412Y-106956330D02*
X132881544Y-106744198D01*
X133397732Y-107260386D01*
X133185600Y-107472518D01*
X132669412Y-106956330D01*
X132669412Y-106956330D01*
G37*
G36*
X132881544Y-106107802D02*
X132669412Y-105895670D01*
X133185600Y-105379482D01*
X133397732Y-105591614D01*
X132881544Y-106107802D01*
X132881544Y-106107802D01*
G37*
G36*
X132527990Y-105754249D02*
X132315858Y-105542117D01*
X132832046Y-105025929D01*
X133044178Y-105238061D01*
X132527990Y-105754249D01*
X132527990Y-105754249D01*
G37*
G36*
X132174437Y-105400695D02*
X131962305Y-105188563D01*
X132478493Y-104672375D01*
X132690625Y-104884507D01*
X132174437Y-105400695D01*
X132174437Y-105400695D01*
G37*
G36*
X131820883Y-105047142D02*
X131608751Y-104835010D01*
X132124939Y-104318822D01*
X132337071Y-104530954D01*
X131820883Y-105047142D01*
X131820883Y-105047142D01*
G37*
G36*
X131467330Y-104693588D02*
X131255198Y-104481456D01*
X131771386Y-103965268D01*
X131983518Y-104177400D01*
X131467330Y-104693588D01*
X131467330Y-104693588D01*
G37*
G36*
X130053117Y-107309883D02*
X130937000Y-106426000D01*
X131820883Y-107309883D01*
X130937000Y-108193766D01*
X130053117Y-107309883D01*
X130053117Y-107309883D01*
G37*
G36*
X130937000Y-106426000D02*
X131820883Y-105542117D01*
X132704766Y-106426000D01*
X131820883Y-107309883D01*
X130937000Y-106426000D01*
X130937000Y-106426000D01*
G37*
G36*
X129169234Y-106426000D02*
X130053117Y-105542117D01*
X130937000Y-106426000D01*
X130053117Y-107309883D01*
X129169234Y-106426000D01*
X129169234Y-106426000D01*
G37*
G36*
X130053117Y-105542117D02*
X130937000Y-104658234D01*
X131820883Y-105542117D01*
X130937000Y-106426000D01*
X130053117Y-105542117D01*
X130053117Y-105542117D01*
G37*
D29*
X118896000Y-59487000D03*
X121896000Y-59487000D03*
D21*
X145087000Y-67551000D03*
D22*
X144512000Y-66151000D03*
X145662000Y-66151000D03*
X145662000Y-63351000D03*
X144512000Y-63351000D03*
X143362000Y-66151000D03*
X143362000Y-63351000D03*
X146812000Y-66151000D03*
X146812000Y-63351000D03*
D23*
X145087000Y-69801000D03*
X142887000Y-69801000D03*
X147287000Y-69801000D03*
X145087000Y-60501000D03*
X147287000Y-60501000D03*
X142887000Y-60501000D03*
D18*
X155321000Y-76200000D03*
D19*
X156721000Y-75625000D03*
X156721000Y-76775000D03*
X159521000Y-76775000D03*
X159521000Y-75625000D03*
X156721000Y-74475000D03*
X159521000Y-74475000D03*
X156721000Y-77925000D03*
X159521000Y-77925000D03*
D20*
X153071000Y-76200000D03*
X153071000Y-74000000D03*
X153071000Y-78400000D03*
X162371000Y-76200000D03*
X162371000Y-78400000D03*
X162371000Y-74000000D03*
D21*
X157734000Y-67551000D03*
D22*
X157159000Y-66151000D03*
X158309000Y-66151000D03*
X158309000Y-63351000D03*
X157159000Y-63351000D03*
X156009000Y-66151000D03*
X156009000Y-63351000D03*
X159459000Y-66151000D03*
X159459000Y-63351000D03*
D23*
X157734000Y-69801000D03*
X155534000Y-69801000D03*
X159934000Y-69801000D03*
X157734000Y-60501000D03*
X159934000Y-60501000D03*
X155534000Y-60501000D03*
D30*
X126238000Y-107176000D03*
X126238000Y-112776000D03*
D31*
X128388000Y-109976000D03*
D32*
X151384000Y-65786000D03*
X164084000Y-65786000D03*
D33*
X133120000Y-100266500D03*
X134620000Y-100266500D03*
D34*
X123888500Y-90285000D03*
X123888500Y-88785000D03*
X127762000Y-85840000D03*
X127762000Y-84340000D03*
X120142000Y-91174000D03*
X120142000Y-89674000D03*
D33*
X123265500Y-98044000D03*
X124765500Y-98044000D03*
D34*
X138811000Y-88162000D03*
X138811000Y-89662000D03*
D33*
X124244800Y-72974200D03*
X122744800Y-72974200D03*
X124244800Y-74422000D03*
X122744800Y-74422000D03*
X125870400Y-70104000D03*
X124370400Y-70104000D03*
D34*
X124968000Y-78728000D03*
X124968000Y-77228000D03*
D33*
X124345000Y-67183000D03*
X125845000Y-67183000D03*
D34*
X125984000Y-74561000D03*
X125984000Y-76061000D03*
X126619000Y-80911000D03*
X126619000Y-82411000D03*
D33*
X140323000Y-63754000D03*
X138823000Y-63754000D03*
D34*
X137922000Y-71386000D03*
X137922000Y-72886000D03*
X137922000Y-74180000D03*
X137922000Y-75680000D03*
X137922000Y-76974000D03*
X137922000Y-78474000D03*
D33*
X140069000Y-70231000D03*
X138569000Y-70231000D03*
X137299000Y-62230000D03*
X138799000Y-62230000D03*
D34*
X120396000Y-97802000D03*
X120396000Y-99302000D03*
X120396000Y-102096000D03*
X120396000Y-100596000D03*
D33*
X124130500Y-87122000D03*
X122630500Y-87122000D03*
D10*
G36*
X134071992Y-105218338D02*
X133541662Y-104688008D01*
X134107348Y-104122322D01*
X134637678Y-104652652D01*
X134071992Y-105218338D01*
X134071992Y-105218338D01*
G37*
G36*
X135132652Y-104157678D02*
X134602322Y-103627348D01*
X135168008Y-103061662D01*
X135698338Y-103591992D01*
X135132652Y-104157678D01*
X135132652Y-104157678D01*
G37*
D33*
X135317800Y-56083200D03*
X136817800Y-56083200D03*
D34*
X124714000Y-82169000D03*
X124714000Y-80669000D03*
X119507000Y-76974000D03*
X119507000Y-78474000D03*
D33*
X122301000Y-78613000D03*
X120801000Y-78613000D03*
X121007000Y-85217000D03*
X119507000Y-85217000D03*
D34*
X124714000Y-83336000D03*
X124714000Y-84836000D03*
D35*
X122732800Y-71108000D03*
X122732800Y-69608000D03*
X122732800Y-68517200D03*
X122732800Y-67017200D03*
D36*
X124370400Y-68630800D03*
X125870400Y-68630800D03*
X124370400Y-71577200D03*
X125870400Y-71577200D03*
X124345000Y-65735200D03*
X125845000Y-65735200D03*
X119519000Y-108204000D03*
X121019000Y-108204000D03*
X134100000Y-56134000D03*
X132600000Y-56134000D03*
X124579300Y-56305700D03*
X123079300Y-56305700D03*
X124575000Y-57912000D03*
X123075000Y-57912000D03*
X124575000Y-59563000D03*
X123075000Y-59563000D03*
D37*
X138811000Y-68556000D03*
X138811000Y-65556000D03*
D38*
X129794000Y-62103000D03*
X133104000Y-62103000D03*
D10*
G36*
X116702299Y-61862494D02*
X115429506Y-60589701D01*
X117197273Y-58821934D01*
X118470066Y-60094727D01*
X116702299Y-61862494D01*
X116702299Y-61862494D01*
G37*
G36*
X119530727Y-59034066D02*
X118257934Y-57761273D01*
X120025701Y-55993506D01*
X121298494Y-57266299D01*
X119530727Y-59034066D01*
X119530727Y-59034066D01*
G37*
D39*
X137182000Y-60198000D03*
X139932000Y-60198000D03*
D10*
G36*
X131937182Y-112859736D02*
X132290736Y-112506182D01*
X132715000Y-112930446D01*
X132361446Y-113284000D01*
X131937182Y-112859736D01*
X131937182Y-112859736D01*
G37*
G36*
X132715000Y-113637554D02*
X133068554Y-113284000D01*
X133492818Y-113708264D01*
X133139264Y-114061818D01*
X132715000Y-113637554D01*
X132715000Y-113637554D01*
G37*
G36*
X132699182Y-112097736D02*
X133052736Y-111744182D01*
X133477000Y-112168446D01*
X133123446Y-112522000D01*
X132699182Y-112097736D01*
X132699182Y-112097736D01*
G37*
G36*
X133477000Y-112875554D02*
X133830554Y-112522000D01*
X134254818Y-112946264D01*
X133901264Y-113299818D01*
X133477000Y-112875554D01*
X133477000Y-112875554D01*
G37*
G36*
X137175818Y-111549264D02*
X136822264Y-111902818D01*
X136398000Y-111478554D01*
X136751554Y-111125000D01*
X137175818Y-111549264D01*
X137175818Y-111549264D01*
G37*
G36*
X136398000Y-110771446D02*
X136044446Y-111125000D01*
X135620182Y-110700736D01*
X135973736Y-110347182D01*
X136398000Y-110771446D01*
X136398000Y-110771446D01*
G37*
G36*
X137370736Y-112537818D02*
X137017182Y-112184264D01*
X137441446Y-111760000D01*
X137795000Y-112113554D01*
X137370736Y-112537818D01*
X137370736Y-112537818D01*
G37*
G36*
X138148554Y-111760000D02*
X137795000Y-111406446D01*
X138219264Y-110982182D01*
X138572818Y-111335736D01*
X138148554Y-111760000D01*
X138148554Y-111760000D01*
G37*
D35*
X140335000Y-76339000D03*
X140335000Y-77839000D03*
X140335000Y-79133000D03*
X140335000Y-80633000D03*
D40*
X170942000Y-81915000D03*
D41*
X165942000Y-81915000D03*
D40*
X144526000Y-81915000D03*
D41*
X149526000Y-81915000D03*
D42*
X135195000Y-87214001D03*
X134695001Y-87214001D03*
X134195000Y-87214001D03*
X133695001Y-87214001D03*
X133194999Y-87214001D03*
X132695000Y-87214001D03*
X132195001Y-87214001D03*
X131695000Y-87214001D03*
X131195000Y-87214001D03*
X130694999Y-87214001D03*
X130195000Y-87214001D03*
X129695001Y-87214001D03*
X129194999Y-87214001D03*
X128695000Y-87214001D03*
X128194999Y-87214001D03*
X127695000Y-87214001D03*
D43*
X125695001Y-89214000D03*
X125695001Y-89713999D03*
X125695001Y-90214000D03*
X125695001Y-90713999D03*
X125695001Y-91214001D03*
X125695001Y-91714000D03*
X125695001Y-92213999D03*
X125695001Y-92714000D03*
X125695001Y-93214000D03*
X125695001Y-93714001D03*
X125695001Y-94214000D03*
X125695001Y-94713999D03*
X125695001Y-95214001D03*
X125695001Y-95714000D03*
X125695001Y-96214001D03*
X125695001Y-96714000D03*
D42*
X127695000Y-98713999D03*
X128194999Y-98713999D03*
X128695000Y-98713999D03*
X129194999Y-98713999D03*
X129695001Y-98713999D03*
X130195000Y-98713999D03*
X130694999Y-98713999D03*
X131195000Y-98713999D03*
X131695000Y-98713999D03*
X132195001Y-98713999D03*
X132695000Y-98713999D03*
X133194999Y-98713999D03*
X133695001Y-98713999D03*
X134195000Y-98713999D03*
X134695001Y-98713999D03*
X135195000Y-98713999D03*
D43*
X137194999Y-96714000D03*
X137194999Y-96214001D03*
X137194999Y-95714000D03*
X137194999Y-95214001D03*
X137194999Y-94713999D03*
X137194999Y-94214000D03*
X137194999Y-93714001D03*
X137194999Y-93214000D03*
X137194999Y-92714000D03*
X137194999Y-92213999D03*
X137194999Y-91714000D03*
X137194999Y-91214001D03*
X137194999Y-90713999D03*
X137194999Y-90214000D03*
X137194999Y-89713999D03*
X137194999Y-89214000D03*
D44*
X126229000Y-62865000D03*
X121929000Y-62865000D03*
D45*
X157734000Y-83693000D03*
M02*
