%TF.GenerationSoftware,KiCad,Pcbnew,4.0.7*%
%TF.CreationDate,2018-04-14T17:05:36+08:00*%
%TF.ProjectId,VESC_6,564553435F362E6B696361645F706362,rev?*%
%TF.FileFunction,Legend,Top*%
%FSLAX46Y46*%
G04 Gerber Fmt 4.6, Leading zero omitted, Abs format (unit mm)*
G04 Created by KiCad (PCBNEW 4.0.7) date 2018 April 14, Saturday 17:05:36*
%MOMM*%
%LPD*%
G01*
G04 APERTURE LIST*
%ADD10C,0.100000*%
%ADD11C,0.101600*%
%ADD12C,0.152400*%
%ADD13C,0.150000*%
%ADD14C,0.127000*%
%ADD15C,0.120000*%
%ADD16C,0.300000*%
%ADD17R,1.800860X1.300480*%
%ADD18O,1.800860X1.300480*%
%ADD19R,1.101600X2.601600*%
%ADD20R,1.602740X0.401320*%
%ADD21R,3.700780X7.101840*%
%ADD22R,0.801600X1.401600*%
%ADD23R,1.201600X0.951600*%
%ADD24R,1.201600X1.801600*%
%ADD25R,1.401600X0.801600*%
%ADD26R,0.951600X1.201600*%
%ADD27R,1.801600X1.201600*%
%ADD28C,3.101600*%
%ADD29R,1.300480X1.800860*%
%ADD30O,1.300480X1.800860*%
%ADD31R,0.451600X0.751600*%
%ADD32R,1.301600X0.876600*%
%ADD33C,1.001600*%
%ADD34O,1.201600X1.901600*%
%ADD35O,1.201600X2.301600*%
%ADD36O,0.401600X0.951600*%
%ADD37O,0.951600X0.401600*%
%ADD38R,5.101600X4.101600*%
%ADD39R,0.901600X0.851600*%
%ADD40R,0.851600X0.901600*%
%ADD41R,1.001600X0.601600*%
%ADD42R,0.601600X1.001600*%
%ADD43R,2.601600X1.101600*%
%ADD44R,1.281600X4.801600*%
%ADD45R,2.051600X1.601600*%
%ADD46R,7.101600X6.101600*%
%ADD47R,2.501600X2.501600*%
%ADD48C,2.501600*%
%ADD49R,1.351600X1.321600*%
%ADD50C,0.254000*%
G04 APERTURE END LIST*
D10*
D11*
X115424857Y-87962619D02*
X115497428Y-87986810D01*
X115618381Y-87986810D01*
X115666762Y-87962619D01*
X115690952Y-87938429D01*
X115715143Y-87890048D01*
X115715143Y-87841667D01*
X115690952Y-87793286D01*
X115666762Y-87769095D01*
X115618381Y-87744905D01*
X115521619Y-87720714D01*
X115473238Y-87696524D01*
X115449047Y-87672333D01*
X115424857Y-87623952D01*
X115424857Y-87575571D01*
X115449047Y-87527190D01*
X115473238Y-87503000D01*
X115521619Y-87478810D01*
X115642571Y-87478810D01*
X115715143Y-87503000D01*
X116223143Y-87938429D02*
X116198953Y-87962619D01*
X116126381Y-87986810D01*
X116078000Y-87986810D01*
X116005429Y-87962619D01*
X115957048Y-87914238D01*
X115932857Y-87865857D01*
X115908667Y-87769095D01*
X115908667Y-87696524D01*
X115932857Y-87599762D01*
X115957048Y-87551381D01*
X116005429Y-87503000D01*
X116078000Y-87478810D01*
X116126381Y-87478810D01*
X116198953Y-87503000D01*
X116223143Y-87527190D01*
X116440857Y-87986810D02*
X116440857Y-87478810D01*
X116731143Y-87986810D02*
X116513429Y-87696524D01*
X116731143Y-87478810D02*
X116440857Y-87769095D01*
X115461143Y-86565619D02*
X115533714Y-86589810D01*
X115654667Y-86589810D01*
X115703048Y-86565619D01*
X115727238Y-86541429D01*
X115751429Y-86493048D01*
X115751429Y-86444667D01*
X115727238Y-86396286D01*
X115703048Y-86372095D01*
X115654667Y-86347905D01*
X115557905Y-86323714D01*
X115509524Y-86299524D01*
X115485333Y-86275333D01*
X115461143Y-86226952D01*
X115461143Y-86178571D01*
X115485333Y-86130190D01*
X115509524Y-86106000D01*
X115557905Y-86081810D01*
X115678857Y-86081810D01*
X115751429Y-86106000D01*
X115969143Y-86589810D02*
X115969143Y-86081810D01*
X116090096Y-86081810D01*
X116162667Y-86106000D01*
X116211048Y-86154381D01*
X116235239Y-86202762D01*
X116259429Y-86299524D01*
X116259429Y-86372095D01*
X116235239Y-86468857D01*
X116211048Y-86517238D01*
X116162667Y-86565619D01*
X116090096Y-86589810D01*
X115969143Y-86589810D01*
X116452953Y-86444667D02*
X116694858Y-86444667D01*
X116404572Y-86589810D02*
X116573905Y-86081810D01*
X116743239Y-86589810D01*
X115449047Y-85319810D02*
X115449047Y-84811810D01*
X115739333Y-85319810D01*
X115739333Y-84811810D01*
X115957047Y-85295619D02*
X116029618Y-85319810D01*
X116150571Y-85319810D01*
X116198952Y-85295619D01*
X116223142Y-85271429D01*
X116247333Y-85223048D01*
X116247333Y-85174667D01*
X116223142Y-85126286D01*
X116198952Y-85102095D01*
X116150571Y-85077905D01*
X116053809Y-85053714D01*
X116005428Y-85029524D01*
X115981237Y-85005333D01*
X115957047Y-84956952D01*
X115957047Y-84908571D01*
X115981237Y-84860190D01*
X116005428Y-84836000D01*
X116053809Y-84811810D01*
X116174761Y-84811810D01*
X116247333Y-84836000D01*
X116440857Y-85295619D02*
X116513428Y-85319810D01*
X116634381Y-85319810D01*
X116682762Y-85295619D01*
X116706952Y-85271429D01*
X116731143Y-85223048D01*
X116731143Y-85174667D01*
X116706952Y-85126286D01*
X116682762Y-85102095D01*
X116634381Y-85077905D01*
X116537619Y-85053714D01*
X116489238Y-85029524D01*
X116465047Y-85005333D01*
X116440857Y-84956952D01*
X116440857Y-84908571D01*
X116465047Y-84860190D01*
X116489238Y-84836000D01*
X116537619Y-84811810D01*
X116658571Y-84811810D01*
X116731143Y-84836000D01*
X115473238Y-84533619D02*
X115545809Y-84557810D01*
X115666762Y-84557810D01*
X115715143Y-84533619D01*
X115739333Y-84509429D01*
X115763524Y-84461048D01*
X115763524Y-84412667D01*
X115739333Y-84364286D01*
X115715143Y-84340095D01*
X115666762Y-84315905D01*
X115570000Y-84291714D01*
X115521619Y-84267524D01*
X115497428Y-84243333D01*
X115473238Y-84194952D01*
X115473238Y-84146571D01*
X115497428Y-84098190D01*
X115521619Y-84074000D01*
X115570000Y-84049810D01*
X115690952Y-84049810D01*
X115763524Y-84074000D01*
X116271524Y-84509429D02*
X116247334Y-84533619D01*
X116174762Y-84557810D01*
X116126381Y-84557810D01*
X116053810Y-84533619D01*
X116005429Y-84485238D01*
X115981238Y-84436857D01*
X115957048Y-84340095D01*
X115957048Y-84267524D01*
X115981238Y-84170762D01*
X116005429Y-84122381D01*
X116053810Y-84074000D01*
X116126381Y-84049810D01*
X116174762Y-84049810D01*
X116247334Y-84074000D01*
X116271524Y-84098190D01*
X116731143Y-84557810D02*
X116489238Y-84557810D01*
X116489238Y-84049810D01*
X115993333Y-83795810D02*
X115824000Y-83553905D01*
X115703047Y-83795810D02*
X115703047Y-83287810D01*
X115896571Y-83287810D01*
X115944952Y-83312000D01*
X115969143Y-83336190D01*
X115993333Y-83384571D01*
X115993333Y-83457143D01*
X115969143Y-83505524D01*
X115944952Y-83529714D01*
X115896571Y-83553905D01*
X115703047Y-83553905D01*
X116162666Y-83287810D02*
X116501333Y-83795810D01*
X116501333Y-83287810D02*
X116162666Y-83795810D01*
X115461143Y-81872667D02*
X115703048Y-81872667D01*
X115412762Y-82017810D02*
X115582095Y-81509810D01*
X115751429Y-82017810D01*
X115920762Y-82017810D02*
X115920762Y-81509810D01*
X116041715Y-81509810D01*
X116114286Y-81534000D01*
X116162667Y-81582381D01*
X116186858Y-81630762D01*
X116211048Y-81727524D01*
X116211048Y-81800095D01*
X116186858Y-81896857D01*
X116162667Y-81945238D01*
X116114286Y-81993619D01*
X116041715Y-82017810D01*
X115920762Y-82017810D01*
X116404572Y-81558190D02*
X116428762Y-81534000D01*
X116477143Y-81509810D01*
X116598096Y-81509810D01*
X116646477Y-81534000D01*
X116670667Y-81558190D01*
X116694858Y-81606571D01*
X116694858Y-81654952D01*
X116670667Y-81727524D01*
X116380381Y-82017810D01*
X116694858Y-82017810D01*
X127483810Y-112909048D02*
X127895048Y-112909048D01*
X127943429Y-112884857D01*
X127967619Y-112860667D01*
X127991810Y-112812286D01*
X127991810Y-112715524D01*
X127967619Y-112667143D01*
X127943429Y-112642952D01*
X127895048Y-112618762D01*
X127483810Y-112618762D01*
X127967619Y-112401048D02*
X127991810Y-112328477D01*
X127991810Y-112207524D01*
X127967619Y-112159143D01*
X127943429Y-112134953D01*
X127895048Y-112110762D01*
X127846667Y-112110762D01*
X127798286Y-112134953D01*
X127774095Y-112159143D01*
X127749905Y-112207524D01*
X127725714Y-112304286D01*
X127701524Y-112352667D01*
X127677333Y-112376858D01*
X127628952Y-112401048D01*
X127580571Y-112401048D01*
X127532190Y-112376858D01*
X127508000Y-112352667D01*
X127483810Y-112304286D01*
X127483810Y-112183334D01*
X127508000Y-112110762D01*
X127725714Y-111723714D02*
X127749905Y-111651143D01*
X127774095Y-111626952D01*
X127822476Y-111602762D01*
X127895048Y-111602762D01*
X127943429Y-111626952D01*
X127967619Y-111651143D01*
X127991810Y-111699524D01*
X127991810Y-111893048D01*
X127483810Y-111893048D01*
X127483810Y-111723714D01*
X127508000Y-111675333D01*
X127532190Y-111651143D01*
X127580571Y-111626952D01*
X127628952Y-111626952D01*
X127677333Y-111651143D01*
X127701524Y-111675333D01*
X127725714Y-111723714D01*
X127725714Y-111893048D01*
X123063000Y-113290047D02*
X123038810Y-113338428D01*
X123038810Y-113411000D01*
X123063000Y-113483571D01*
X123111381Y-113531952D01*
X123159762Y-113556143D01*
X123256524Y-113580333D01*
X123329095Y-113580333D01*
X123425857Y-113556143D01*
X123474238Y-113531952D01*
X123522619Y-113483571D01*
X123546810Y-113411000D01*
X123546810Y-113362619D01*
X123522619Y-113290047D01*
X123498429Y-113265857D01*
X123329095Y-113265857D01*
X123329095Y-113362619D01*
X123546810Y-113048143D02*
X123038810Y-113048143D01*
X123546810Y-112757857D01*
X123038810Y-112757857D01*
X123546810Y-112515953D02*
X123038810Y-112515953D01*
X123038810Y-112395000D01*
X123063000Y-112322429D01*
X123111381Y-112274048D01*
X123159762Y-112249857D01*
X123256524Y-112225667D01*
X123329095Y-112225667D01*
X123425857Y-112249857D01*
X123474238Y-112274048D01*
X123522619Y-112322429D01*
X123546810Y-112395000D01*
X123546810Y-112515953D01*
X121466429Y-113435190D02*
X121490619Y-113459380D01*
X121514810Y-113531952D01*
X121514810Y-113580333D01*
X121490619Y-113652904D01*
X121442238Y-113701285D01*
X121393857Y-113725476D01*
X121297095Y-113749666D01*
X121224524Y-113749666D01*
X121127762Y-113725476D01*
X121079381Y-113701285D01*
X121031000Y-113652904D01*
X121006810Y-113580333D01*
X121006810Y-113531952D01*
X121031000Y-113459380D01*
X121055190Y-113435190D01*
X121369667Y-113241666D02*
X121369667Y-112999761D01*
X121514810Y-113290047D02*
X121006810Y-113120714D01*
X121514810Y-112951380D01*
X121514810Y-112782047D02*
X121006810Y-112782047D01*
X121514810Y-112491761D01*
X121006810Y-112491761D01*
X121514810Y-112007952D02*
X121514810Y-112249857D01*
X121006810Y-112249857D01*
X119434429Y-113495666D02*
X119458619Y-113519856D01*
X119482810Y-113592428D01*
X119482810Y-113640809D01*
X119458619Y-113713380D01*
X119410238Y-113761761D01*
X119361857Y-113785952D01*
X119265095Y-113810142D01*
X119192524Y-113810142D01*
X119095762Y-113785952D01*
X119047381Y-113761761D01*
X118999000Y-113713380D01*
X118974810Y-113640809D01*
X118974810Y-113592428D01*
X118999000Y-113519856D01*
X119023190Y-113495666D01*
X119337667Y-113302142D02*
X119337667Y-113060237D01*
X119482810Y-113350523D02*
X118974810Y-113181190D01*
X119482810Y-113011856D01*
X119482810Y-112842523D02*
X118974810Y-112842523D01*
X119482810Y-112552237D01*
X118974810Y-112552237D01*
X119482810Y-112310333D02*
X118974810Y-112310333D01*
X119216714Y-112310333D02*
X119216714Y-112020047D01*
X119482810Y-112020047D02*
X118974810Y-112020047D01*
X116942810Y-112999762D02*
X116942810Y-113241667D01*
X117184714Y-113265857D01*
X117160524Y-113241667D01*
X117136333Y-113193286D01*
X117136333Y-113072333D01*
X117160524Y-113023952D01*
X117184714Y-112999762D01*
X117233095Y-112975571D01*
X117354048Y-112975571D01*
X117402429Y-112999762D01*
X117426619Y-113023952D01*
X117450810Y-113072333D01*
X117450810Y-113193286D01*
X117426619Y-113241667D01*
X117402429Y-113265857D01*
X116942810Y-112830428D02*
X117450810Y-112661095D01*
X116942810Y-112491761D01*
X115690953Y-105791000D02*
X115642572Y-105766810D01*
X115570000Y-105766810D01*
X115497429Y-105791000D01*
X115449048Y-105839381D01*
X115424857Y-105887762D01*
X115400667Y-105984524D01*
X115400667Y-106057095D01*
X115424857Y-106153857D01*
X115449048Y-106202238D01*
X115497429Y-106250619D01*
X115570000Y-106274810D01*
X115618381Y-106274810D01*
X115690953Y-106250619D01*
X115715143Y-106226429D01*
X115715143Y-106057095D01*
X115618381Y-106057095D01*
X115932857Y-106274810D02*
X115932857Y-105766810D01*
X116223143Y-106274810D01*
X116223143Y-105766810D01*
X116465047Y-106274810D02*
X116465047Y-105766810D01*
X116586000Y-105766810D01*
X116658571Y-105791000D01*
X116706952Y-105839381D01*
X116731143Y-105887762D01*
X116755333Y-105984524D01*
X116755333Y-106057095D01*
X116731143Y-106153857D01*
X116706952Y-106202238D01*
X116658571Y-106250619D01*
X116586000Y-106274810D01*
X116465047Y-106274810D01*
X115461143Y-102186619D02*
X115533714Y-102210810D01*
X115654667Y-102210810D01*
X115703048Y-102186619D01*
X115727238Y-102162429D01*
X115751429Y-102114048D01*
X115751429Y-102065667D01*
X115727238Y-102017286D01*
X115703048Y-101993095D01*
X115654667Y-101968905D01*
X115557905Y-101944714D01*
X115509524Y-101920524D01*
X115485333Y-101896333D01*
X115461143Y-101847952D01*
X115461143Y-101799571D01*
X115485333Y-101751190D01*
X115509524Y-101727000D01*
X115557905Y-101702810D01*
X115678857Y-101702810D01*
X115751429Y-101727000D01*
X116259429Y-102210810D02*
X116090096Y-101968905D01*
X115969143Y-102210810D02*
X115969143Y-101702810D01*
X116162667Y-101702810D01*
X116211048Y-101727000D01*
X116235239Y-101751190D01*
X116259429Y-101799571D01*
X116259429Y-101872143D01*
X116235239Y-101920524D01*
X116211048Y-101944714D01*
X116162667Y-101968905D01*
X115969143Y-101968905D01*
X116404572Y-101702810D02*
X116573905Y-102210810D01*
X116743239Y-101702810D01*
X115981238Y-103734810D02*
X115739333Y-103734810D01*
X115715143Y-103976714D01*
X115739333Y-103952524D01*
X115787714Y-103928333D01*
X115908667Y-103928333D01*
X115957048Y-103952524D01*
X115981238Y-103976714D01*
X116005429Y-104025095D01*
X116005429Y-104146048D01*
X115981238Y-104194429D01*
X115957048Y-104218619D01*
X115908667Y-104242810D01*
X115787714Y-104242810D01*
X115739333Y-104218619D01*
X115715143Y-104194429D01*
X116150572Y-103734810D02*
X116319905Y-104242810D01*
X116489239Y-103734810D01*
X115981238Y-93193810D02*
X115739333Y-93193810D01*
X115715143Y-93435714D01*
X115739333Y-93411524D01*
X115787714Y-93387333D01*
X115908667Y-93387333D01*
X115957048Y-93411524D01*
X115981238Y-93435714D01*
X116005429Y-93484095D01*
X116005429Y-93605048D01*
X115981238Y-93653429D01*
X115957048Y-93677619D01*
X115908667Y-93701810D01*
X115787714Y-93701810D01*
X115739333Y-93677619D01*
X115715143Y-93653429D01*
X116150572Y-93193810D02*
X116319905Y-93701810D01*
X116489239Y-93193810D01*
X115328094Y-91288810D02*
X115642571Y-91288810D01*
X115473237Y-91482333D01*
X115545809Y-91482333D01*
X115594190Y-91506524D01*
X115618380Y-91530714D01*
X115642571Y-91579095D01*
X115642571Y-91700048D01*
X115618380Y-91748429D01*
X115594190Y-91772619D01*
X115545809Y-91796810D01*
X115400666Y-91796810D01*
X115352285Y-91772619D01*
X115328094Y-91748429D01*
X115860285Y-91748429D02*
X115884476Y-91772619D01*
X115860285Y-91796810D01*
X115836095Y-91772619D01*
X115860285Y-91748429D01*
X115860285Y-91796810D01*
X116053809Y-91288810D02*
X116368286Y-91288810D01*
X116198952Y-91482333D01*
X116271524Y-91482333D01*
X116319905Y-91506524D01*
X116344095Y-91530714D01*
X116368286Y-91579095D01*
X116368286Y-91700048D01*
X116344095Y-91748429D01*
X116319905Y-91772619D01*
X116271524Y-91796810D01*
X116126381Y-91796810D01*
X116078000Y-91772619D01*
X116053809Y-91748429D01*
X116513429Y-91288810D02*
X116682762Y-91796810D01*
X116852096Y-91288810D01*
X115690953Y-89281000D02*
X115642572Y-89256810D01*
X115570000Y-89256810D01*
X115497429Y-89281000D01*
X115449048Y-89329381D01*
X115424857Y-89377762D01*
X115400667Y-89474524D01*
X115400667Y-89547095D01*
X115424857Y-89643857D01*
X115449048Y-89692238D01*
X115497429Y-89740619D01*
X115570000Y-89764810D01*
X115618381Y-89764810D01*
X115690953Y-89740619D01*
X115715143Y-89716429D01*
X115715143Y-89547095D01*
X115618381Y-89547095D01*
X115932857Y-89764810D02*
X115932857Y-89256810D01*
X116223143Y-89764810D01*
X116223143Y-89256810D01*
X116465047Y-89764810D02*
X116465047Y-89256810D01*
X116586000Y-89256810D01*
X116658571Y-89281000D01*
X116706952Y-89329381D01*
X116731143Y-89377762D01*
X116755333Y-89474524D01*
X116755333Y-89547095D01*
X116731143Y-89643857D01*
X116706952Y-89692238D01*
X116658571Y-89740619D01*
X116586000Y-89764810D01*
X116465047Y-89764810D01*
X115449048Y-87206667D02*
X115690953Y-87206667D01*
X115400667Y-87351810D02*
X115570000Y-86843810D01*
X115739334Y-87351810D01*
X115908667Y-87351810D02*
X115908667Y-86843810D01*
X116029620Y-86843810D01*
X116102191Y-86868000D01*
X116150572Y-86916381D01*
X116174763Y-86964762D01*
X116198953Y-87061524D01*
X116198953Y-87134095D01*
X116174763Y-87230857D01*
X116150572Y-87279238D01*
X116102191Y-87327619D01*
X116029620Y-87351810D01*
X115908667Y-87351810D01*
X116706953Y-87303429D02*
X116682763Y-87327619D01*
X116610191Y-87351810D01*
X116561810Y-87351810D01*
X116489239Y-87327619D01*
X116440858Y-87279238D01*
X116416667Y-87230857D01*
X116392477Y-87134095D01*
X116392477Y-87061524D01*
X116416667Y-86964762D01*
X116440858Y-86916381D01*
X116489239Y-86868000D01*
X116561810Y-86843810D01*
X116610191Y-86843810D01*
X116682763Y-86868000D01*
X116706953Y-86892190D01*
X115690952Y-85446810D02*
X115981238Y-85446810D01*
X115836095Y-85954810D02*
X115836095Y-85446810D01*
X116102190Y-85446810D02*
X116440857Y-85954810D01*
X116440857Y-85446810D02*
X116102190Y-85954810D01*
X115406714Y-83160810D02*
X115406714Y-82652810D01*
X115576048Y-83015667D01*
X115745381Y-82652810D01*
X115745381Y-83160810D01*
X116084047Y-82652810D02*
X116180809Y-82652810D01*
X116229190Y-82677000D01*
X116277571Y-82725381D01*
X116301762Y-82822143D01*
X116301762Y-82991476D01*
X116277571Y-83088238D01*
X116229190Y-83136619D01*
X116180809Y-83160810D01*
X116084047Y-83160810D01*
X116035666Y-83136619D01*
X115987285Y-83088238D01*
X115963095Y-82991476D01*
X115963095Y-82822143D01*
X115987285Y-82725381D01*
X116035666Y-82677000D01*
X116084047Y-82652810D01*
X116495285Y-83136619D02*
X116567856Y-83160810D01*
X116688809Y-83160810D01*
X116737190Y-83136619D01*
X116761380Y-83112429D01*
X116785571Y-83064048D01*
X116785571Y-83015667D01*
X116761380Y-82967286D01*
X116737190Y-82943095D01*
X116688809Y-82918905D01*
X116592047Y-82894714D01*
X116543666Y-82870524D01*
X116519475Y-82846333D01*
X116495285Y-82797952D01*
X116495285Y-82749571D01*
X116519475Y-82701190D01*
X116543666Y-82677000D01*
X116592047Y-82652810D01*
X116712999Y-82652810D01*
X116785571Y-82677000D01*
X117003285Y-83160810D02*
X117003285Y-82652810D01*
X115406714Y-81255810D02*
X115406714Y-80747810D01*
X115576048Y-81110667D01*
X115745381Y-80747810D01*
X115745381Y-81255810D01*
X115987285Y-81255810D02*
X115987285Y-80747810D01*
X116205000Y-81231619D02*
X116277571Y-81255810D01*
X116398524Y-81255810D01*
X116446905Y-81231619D01*
X116471095Y-81207429D01*
X116495286Y-81159048D01*
X116495286Y-81110667D01*
X116471095Y-81062286D01*
X116446905Y-81038095D01*
X116398524Y-81013905D01*
X116301762Y-80989714D01*
X116253381Y-80965524D01*
X116229190Y-80941333D01*
X116205000Y-80892952D01*
X116205000Y-80844571D01*
X116229190Y-80796190D01*
X116253381Y-80772000D01*
X116301762Y-80747810D01*
X116422714Y-80747810D01*
X116495286Y-80772000D01*
X116809762Y-80747810D02*
X116906524Y-80747810D01*
X116954905Y-80772000D01*
X117003286Y-80820381D01*
X117027477Y-80917143D01*
X117027477Y-81086476D01*
X117003286Y-81183238D01*
X116954905Y-81231619D01*
X116906524Y-81255810D01*
X116809762Y-81255810D01*
X116761381Y-81231619D01*
X116713000Y-81183238D01*
X116688810Y-81086476D01*
X116688810Y-80917143D01*
X116713000Y-80820381D01*
X116761381Y-80772000D01*
X116809762Y-80747810D01*
X115257943Y-79662867D02*
X115499848Y-79662867D01*
X115209562Y-79808010D02*
X115378895Y-79300010D01*
X115548229Y-79808010D01*
X115717562Y-79808010D02*
X115717562Y-79300010D01*
X115838515Y-79300010D01*
X115911086Y-79324200D01*
X115959467Y-79372581D01*
X115983658Y-79420962D01*
X116007848Y-79517724D01*
X116007848Y-79590295D01*
X115983658Y-79687057D01*
X115959467Y-79735438D01*
X115911086Y-79783819D01*
X115838515Y-79808010D01*
X115717562Y-79808010D01*
X116177181Y-79300010D02*
X116491658Y-79300010D01*
X116322324Y-79493533D01*
X116394896Y-79493533D01*
X116443277Y-79517724D01*
X116467467Y-79541914D01*
X116491658Y-79590295D01*
X116491658Y-79711248D01*
X116467467Y-79759629D01*
X116443277Y-79783819D01*
X116394896Y-79808010D01*
X116249753Y-79808010D01*
X116201372Y-79783819D01*
X116177181Y-79759629D01*
X115672809Y-75286810D02*
X115503476Y-75044905D01*
X115382523Y-75286810D02*
X115382523Y-74778810D01*
X115576047Y-74778810D01*
X115624428Y-74803000D01*
X115648619Y-74827190D01*
X115672809Y-74875571D01*
X115672809Y-74948143D01*
X115648619Y-74996524D01*
X115624428Y-75020714D01*
X115576047Y-75044905D01*
X115382523Y-75044905D01*
X115866333Y-75262619D02*
X115938904Y-75286810D01*
X116059857Y-75286810D01*
X116108238Y-75262619D01*
X116132428Y-75238429D01*
X116156619Y-75190048D01*
X116156619Y-75141667D01*
X116132428Y-75093286D01*
X116108238Y-75069095D01*
X116059857Y-75044905D01*
X115963095Y-75020714D01*
X115914714Y-74996524D01*
X115890523Y-74972333D01*
X115866333Y-74923952D01*
X115866333Y-74875571D01*
X115890523Y-74827190D01*
X115914714Y-74803000D01*
X115963095Y-74778810D01*
X116084047Y-74778810D01*
X116156619Y-74803000D01*
X116301762Y-74778810D02*
X116592048Y-74778810D01*
X116446905Y-75286810D02*
X116446905Y-74778810D01*
X115811905Y-73254810D02*
X115811905Y-72746810D01*
X116150572Y-72746810D02*
X116247334Y-72746810D01*
X116295715Y-72771000D01*
X116344096Y-72819381D01*
X116368287Y-72916143D01*
X116368287Y-73085476D01*
X116344096Y-73182238D01*
X116295715Y-73230619D01*
X116247334Y-73254810D01*
X116150572Y-73254810D01*
X116102191Y-73230619D01*
X116053810Y-73182238D01*
X116029620Y-73085476D01*
X116029620Y-72916143D01*
X116053810Y-72819381D01*
X116102191Y-72771000D01*
X116150572Y-72746810D01*
X115690953Y-70739000D02*
X115642572Y-70714810D01*
X115570000Y-70714810D01*
X115497429Y-70739000D01*
X115449048Y-70787381D01*
X115424857Y-70835762D01*
X115400667Y-70932524D01*
X115400667Y-71005095D01*
X115424857Y-71101857D01*
X115449048Y-71150238D01*
X115497429Y-71198619D01*
X115570000Y-71222810D01*
X115618381Y-71222810D01*
X115690953Y-71198619D01*
X115715143Y-71174429D01*
X115715143Y-71005095D01*
X115618381Y-71005095D01*
X115932857Y-71222810D02*
X115932857Y-70714810D01*
X116223143Y-71222810D01*
X116223143Y-70714810D01*
X116465047Y-71222810D02*
X116465047Y-70714810D01*
X116586000Y-70714810D01*
X116658571Y-70739000D01*
X116706952Y-70787381D01*
X116731143Y-70835762D01*
X116755333Y-70932524D01*
X116755333Y-71005095D01*
X116731143Y-71101857D01*
X116706952Y-71150238D01*
X116658571Y-71198619D01*
X116586000Y-71222810D01*
X116465047Y-71222810D01*
X115775619Y-69142429D02*
X115751429Y-69166619D01*
X115678857Y-69190810D01*
X115630476Y-69190810D01*
X115557905Y-69166619D01*
X115509524Y-69118238D01*
X115485333Y-69069857D01*
X115461143Y-68973095D01*
X115461143Y-68900524D01*
X115485333Y-68803762D01*
X115509524Y-68755381D01*
X115557905Y-68707000D01*
X115630476Y-68682810D01*
X115678857Y-68682810D01*
X115751429Y-68707000D01*
X115775619Y-68731190D01*
X116235238Y-69190810D02*
X115993333Y-69190810D01*
X115993333Y-68682810D01*
X116404571Y-69190810D02*
X116404571Y-68682810D01*
X116694857Y-69190810D02*
X116477143Y-68900524D01*
X116694857Y-68682810D02*
X116404571Y-68973095D01*
X115400667Y-66650810D02*
X115570000Y-67158810D01*
X115739334Y-66650810D01*
X116198953Y-67110429D02*
X116174763Y-67134619D01*
X116102191Y-67158810D01*
X116053810Y-67158810D01*
X115981239Y-67134619D01*
X115932858Y-67086238D01*
X115908667Y-67037857D01*
X115884477Y-66941095D01*
X115884477Y-66868524D01*
X115908667Y-66771762D01*
X115932858Y-66723381D01*
X115981239Y-66675000D01*
X116053810Y-66650810D01*
X116102191Y-66650810D01*
X116174763Y-66675000D01*
X116198953Y-66699190D01*
X116706953Y-67110429D02*
X116682763Y-67134619D01*
X116610191Y-67158810D01*
X116561810Y-67158810D01*
X116489239Y-67134619D01*
X116440858Y-67086238D01*
X116416667Y-67037857D01*
X116392477Y-66941095D01*
X116392477Y-66868524D01*
X116416667Y-66771762D01*
X116440858Y-66723381D01*
X116489239Y-66675000D01*
X116561810Y-66650810D01*
X116610191Y-66650810D01*
X116682763Y-66675000D01*
X116706953Y-66699190D01*
D12*
X126314200Y-87833200D02*
X126314200Y-88988736D01*
X126314200Y-98094800D02*
X127469736Y-98094800D01*
X136575800Y-98094800D02*
X136575800Y-96939264D01*
X136575800Y-87833200D02*
X135420264Y-87833200D01*
X127469736Y-87833200D02*
X126314200Y-87833200D01*
X126314200Y-96939264D02*
X126314200Y-98094800D01*
X135420264Y-98094800D02*
X136575800Y-98094800D01*
X136575800Y-88988736D02*
X136575800Y-87833200D01*
X127771200Y-86113100D02*
G75*
G03X127771200Y-86113100I-76200J0D01*
G01*
D13*
X130953000Y-85422000D02*
X132953000Y-85422000D01*
X132953000Y-82472000D02*
X130953000Y-82472000D01*
X136615249Y-106249223D02*
X137110223Y-105754249D01*
X137958751Y-106602777D02*
X137463777Y-107097751D01*
X134456249Y-104217223D02*
X134951223Y-103722249D01*
X135799751Y-104570777D02*
X135304777Y-105065751D01*
X135440150Y-105286256D02*
X136147256Y-104579150D01*
X137101850Y-105533744D02*
X136394744Y-106240850D01*
D14*
X129080260Y-67152520D02*
X129080260Y-82151220D01*
X135079740Y-82151220D02*
X135079740Y-67152520D01*
X135079740Y-82151220D02*
X129080260Y-82151220D01*
X129080260Y-67152520D02*
X135079740Y-67152520D01*
X130129478Y-67668140D02*
G75*
G03X130129478Y-67668140I-406598J0D01*
G01*
D15*
X132642614Y-108965721D02*
X133349721Y-108258614D01*
X134311386Y-109220279D02*
X133604279Y-109927386D01*
D13*
X134783751Y-103427777D02*
X134288777Y-103922751D01*
X133440249Y-103074223D02*
X133935223Y-102579249D01*
D15*
X163587960Y-72928840D02*
X164710640Y-72928840D01*
X172534000Y-72706000D02*
X164934000Y-72706000D01*
X172757360Y-72928840D02*
X172534000Y-72706000D01*
X164710640Y-72928840D02*
X164934000Y-72706000D01*
X172534000Y-79776000D02*
X164934000Y-79776000D01*
X172757360Y-79553160D02*
X172534000Y-79776000D01*
X164710640Y-79553160D02*
X164934000Y-79776000D01*
X167080840Y-70219040D02*
X167080840Y-69096360D01*
X166858000Y-61273000D02*
X166858000Y-68873000D01*
X167080840Y-61049640D02*
X166858000Y-61273000D01*
X167080840Y-69096360D02*
X166858000Y-68873000D01*
X173928000Y-61273000D02*
X173928000Y-68873000D01*
X173705160Y-61049640D02*
X173928000Y-61273000D01*
X173705160Y-69096360D02*
X173928000Y-68873000D01*
X141587960Y-72887840D02*
X142710640Y-72887840D01*
X150534000Y-72665000D02*
X142934000Y-72665000D01*
X150757360Y-72887840D02*
X150534000Y-72665000D01*
X142710640Y-72887840D02*
X142934000Y-72665000D01*
X150534000Y-79735000D02*
X142934000Y-79735000D01*
X150757360Y-79512160D02*
X150534000Y-79735000D01*
X142710640Y-79512160D02*
X142934000Y-79735000D01*
X135255279Y-109147614D02*
X135962386Y-109854721D01*
X135000721Y-110816386D02*
X134293614Y-110109279D01*
X134184386Y-111226879D02*
X133477279Y-111933986D01*
X132515614Y-110972321D02*
X133222721Y-110265214D01*
D13*
X121346000Y-100241500D02*
X121346000Y-102691500D01*
X124596000Y-99516500D02*
X124596000Y-102691500D01*
X134485559Y-106680000D02*
X133937551Y-107228008D01*
X128404441Y-106680000D02*
X128952449Y-106131992D01*
X131445000Y-109720559D02*
X131993008Y-109172551D01*
X131445000Y-103639441D02*
X131993008Y-104187449D01*
X128404441Y-106680000D02*
X128952449Y-107228008D01*
X131445000Y-109720559D02*
X130896992Y-109172551D01*
X134485559Y-106680000D02*
X133937551Y-106131992D01*
D15*
X141774840Y-70313040D02*
X141774840Y-69190360D01*
X141552000Y-61367000D02*
X141552000Y-68967000D01*
X141774840Y-61143640D02*
X141552000Y-61367000D01*
X141774840Y-69190360D02*
X141552000Y-68967000D01*
X148622000Y-61367000D02*
X148622000Y-68967000D01*
X148399160Y-61143640D02*
X148622000Y-61367000D01*
X148399160Y-69190360D02*
X148622000Y-68967000D01*
X152574960Y-72887840D02*
X153697640Y-72887840D01*
X161521000Y-72665000D02*
X153921000Y-72665000D01*
X161744360Y-72887840D02*
X161521000Y-72665000D01*
X153697640Y-72887840D02*
X153921000Y-72665000D01*
X161521000Y-79735000D02*
X153921000Y-79735000D01*
X161744360Y-79512160D02*
X161521000Y-79735000D01*
X153697640Y-79512160D02*
X153921000Y-79735000D01*
X154093840Y-70313040D02*
X154093840Y-69190360D01*
X153871000Y-61367000D02*
X153871000Y-68967000D01*
X154093840Y-61143640D02*
X153871000Y-61367000D01*
X154093840Y-69190360D02*
X153871000Y-68967000D01*
X160941000Y-61367000D02*
X160941000Y-68967000D01*
X160718160Y-61143640D02*
X160941000Y-61367000D01*
X160718160Y-69190360D02*
X160941000Y-68967000D01*
D13*
X119643000Y-79638000D02*
X120168000Y-79638000D01*
X123943000Y-83938000D02*
X123418000Y-83938000D01*
X123943000Y-79638000D02*
X123418000Y-79638000D01*
X119643000Y-83938000D02*
X119643000Y-83413000D01*
X123943000Y-83938000D02*
X123943000Y-83413000D01*
X123943000Y-79638000D02*
X123943000Y-80163000D01*
X119643000Y-79638000D02*
X119643000Y-80163000D01*
X148584000Y-68086000D02*
X148584000Y-63486000D01*
X148584000Y-63486000D02*
X154184000Y-63486000D01*
X154184000Y-63486000D02*
X154184000Y-68086000D01*
X154184000Y-68086000D02*
X148584000Y-68086000D01*
X160903000Y-68086000D02*
X160903000Y-63486000D01*
X160903000Y-63486000D02*
X166503000Y-63486000D01*
X166503000Y-63486000D02*
X166503000Y-68086000D01*
X166503000Y-68086000D02*
X160903000Y-68086000D01*
X133520000Y-99666500D02*
X134220000Y-99666500D01*
X134220000Y-100866500D02*
X133520000Y-100866500D01*
X123288500Y-89885000D02*
X123288500Y-89185000D01*
X124488500Y-89185000D02*
X124488500Y-89885000D01*
X127162000Y-85440000D02*
X127162000Y-84740000D01*
X128362000Y-84740000D02*
X128362000Y-85440000D01*
X119542000Y-90774000D02*
X119542000Y-90074000D01*
X120742000Y-90074000D02*
X120742000Y-90774000D01*
X123665500Y-97444000D02*
X124365500Y-97444000D01*
X124365500Y-98644000D02*
X123665500Y-98644000D01*
X139411000Y-88562000D02*
X139411000Y-89262000D01*
X138211000Y-89262000D02*
X138211000Y-88562000D01*
X123844800Y-73574200D02*
X123144800Y-73574200D01*
X123144800Y-72374200D02*
X123844800Y-72374200D01*
X123844800Y-75022000D02*
X123144800Y-75022000D01*
X123144800Y-73822000D02*
X123844800Y-73822000D01*
X125470400Y-70704000D02*
X124770400Y-70704000D01*
X124770400Y-69504000D02*
X125470400Y-69504000D01*
X124622000Y-78328000D02*
X124622000Y-77628000D01*
X125822000Y-77628000D02*
X125822000Y-78328000D01*
X124745000Y-66583000D02*
X125445000Y-66583000D01*
X125445000Y-67783000D02*
X124745000Y-67783000D01*
X126584000Y-74961000D02*
X126584000Y-75661000D01*
X125384000Y-75661000D02*
X125384000Y-74961000D01*
X127219000Y-81323000D02*
X127219000Y-82023000D01*
X126019000Y-82023000D02*
X126019000Y-81323000D01*
X139923000Y-64354000D02*
X139223000Y-64354000D01*
X139223000Y-63154000D02*
X139923000Y-63154000D01*
X138522000Y-72040000D02*
X138522000Y-72740000D01*
X137322000Y-72740000D02*
X137322000Y-72040000D01*
X138522000Y-74580000D02*
X138522000Y-75280000D01*
X137322000Y-75280000D02*
X137322000Y-74580000D01*
X138522000Y-77069200D02*
X138522000Y-77769200D01*
X137322000Y-77769200D02*
X137322000Y-77069200D01*
X139669000Y-70831000D02*
X138969000Y-70831000D01*
X138969000Y-69631000D02*
X139669000Y-69631000D01*
X137699000Y-61630000D02*
X138399000Y-61630000D01*
X138399000Y-62830000D02*
X137699000Y-62830000D01*
X120996000Y-98202000D02*
X120996000Y-98902000D01*
X119796000Y-98902000D02*
X119796000Y-98202000D01*
X119846800Y-101772200D02*
X119846800Y-101072200D01*
X121046800Y-101072200D02*
X121046800Y-101772200D01*
X123730500Y-87722000D02*
X123030500Y-87722000D01*
X123030500Y-86522000D02*
X123730500Y-86522000D01*
X128306751Y-109142777D02*
X127811777Y-109637751D01*
X126963249Y-108789223D02*
X127458223Y-108294249D01*
X135717800Y-55483200D02*
X136417800Y-55483200D01*
X136417800Y-56683200D02*
X135717800Y-56683200D01*
X124368000Y-81757000D02*
X124368000Y-81057000D01*
X125568000Y-81057000D02*
X125568000Y-81757000D01*
X120234000Y-77247000D02*
X120234000Y-77947000D01*
X119034000Y-77947000D02*
X119034000Y-77247000D01*
X122016000Y-79086000D02*
X121316000Y-79086000D01*
X121316000Y-77886000D02*
X122016000Y-77886000D01*
X120746000Y-85817000D02*
X120046000Y-85817000D01*
X120046000Y-84617000D02*
X120746000Y-84617000D01*
X125568000Y-83724000D02*
X125568000Y-84424000D01*
X124368000Y-84424000D02*
X124368000Y-83724000D01*
X123407800Y-69858000D02*
X123407800Y-70858000D01*
X122057800Y-70858000D02*
X122057800Y-69858000D01*
X123407800Y-67267200D02*
X123407800Y-68267200D01*
X122057800Y-68267200D02*
X122057800Y-67267200D01*
X125620400Y-69305800D02*
X124620400Y-69305800D01*
X124620400Y-67955800D02*
X125620400Y-67955800D01*
X125620400Y-72252200D02*
X124620400Y-72252200D01*
X124620400Y-70902200D02*
X125620400Y-70902200D01*
X125595000Y-66410200D02*
X124595000Y-66410200D01*
X124595000Y-65060200D02*
X125595000Y-65060200D01*
X120769000Y-108879000D02*
X119769000Y-108879000D01*
X119769000Y-107529000D02*
X120769000Y-107529000D01*
X132850000Y-55459000D02*
X133850000Y-55459000D01*
X133850000Y-56809000D02*
X132850000Y-56809000D01*
X123329300Y-55630700D02*
X124329300Y-55630700D01*
X124329300Y-56980700D02*
X123329300Y-56980700D01*
X123325000Y-57237000D02*
X124325000Y-57237000D01*
X124325000Y-58587000D02*
X123325000Y-58587000D01*
X123325000Y-58888000D02*
X124325000Y-58888000D01*
X124325000Y-60238000D02*
X123325000Y-60238000D01*
X137336000Y-66056000D02*
X137336000Y-68056000D01*
X140286000Y-68056000D02*
X140286000Y-66056000D01*
X129082000Y-64943000D02*
X129082000Y-59263000D01*
X134562000Y-64943000D02*
X129082000Y-64943000D01*
X134562000Y-59263000D02*
X134562000Y-64943000D01*
X129082000Y-59263000D02*
X134562000Y-59263000D01*
D16*
X134822000Y-65103000D02*
X133822000Y-65103000D01*
X128822000Y-65103000D02*
X129822000Y-65103000D01*
X134822000Y-59103000D02*
X133822000Y-59103000D01*
X128822000Y-59103000D02*
X129822000Y-59103000D01*
X134822000Y-65103000D02*
X134822000Y-59103000D01*
X128822000Y-59103000D02*
X128822000Y-65103000D01*
D15*
X114793111Y-60165437D02*
X117126563Y-62498889D01*
X117126563Y-62498889D02*
X120944940Y-58680513D01*
X114793111Y-60165437D02*
X118611487Y-56347060D01*
X135907000Y-59148000D02*
X140157000Y-59148000D01*
X135907000Y-61248000D02*
X140157000Y-61248000D01*
X135907000Y-59148000D02*
X135907000Y-61248000D01*
X133732117Y-113382437D02*
X133378563Y-113028883D01*
X132713883Y-113693563D02*
X133067437Y-114047117D01*
X134494117Y-112620437D02*
X134140563Y-112266883D01*
X133475883Y-112931563D02*
X133829437Y-113285117D01*
X136269883Y-111661563D02*
X136623437Y-112015117D01*
X137288117Y-111350437D02*
X136934563Y-110996883D01*
X138020437Y-111631883D02*
X137666883Y-111985437D01*
X138331563Y-112650117D02*
X138685117Y-112296563D01*
D13*
X139660000Y-77589000D02*
X139660000Y-76589000D01*
X141010000Y-76589000D02*
X141010000Y-77589000D01*
X139660000Y-80383000D02*
X139660000Y-79383000D01*
X141010000Y-79383000D02*
X141010000Y-80383000D01*
X153924000Y-87249000D02*
X153924000Y-80645000D01*
X161544000Y-87249000D02*
X153924000Y-87249000D01*
X161544000Y-80645000D02*
X161544000Y-87249000D01*
X153924000Y-80645000D02*
X161544000Y-80645000D01*
D10*
X142000000Y-81000000D02*
X142000000Y-82800000D01*
D15*
X141100000Y-81900000D02*
X142900000Y-81900000D01*
D10*
X173500000Y-82800000D02*
X173500000Y-81000000D01*
D15*
X174400000Y-81900000D02*
X172600000Y-81900000D01*
X125898000Y-63865000D02*
X125898000Y-61865000D01*
X125898000Y-61865000D02*
X122048000Y-61865000D01*
X125898000Y-63865000D02*
X122048000Y-63865000D01*
D11*
X131166810Y-93224048D02*
X131578048Y-93224048D01*
X131626429Y-93199857D01*
X131650619Y-93175667D01*
X131674810Y-93127286D01*
X131674810Y-93030524D01*
X131650619Y-92982143D01*
X131626429Y-92957952D01*
X131578048Y-92933762D01*
X131166810Y-92933762D01*
X131674810Y-92425762D02*
X131674810Y-92716048D01*
X131674810Y-92570905D02*
X131166810Y-92570905D01*
X131239381Y-92619286D01*
X131287762Y-92667667D01*
X131311952Y-92716048D01*
X138657568Y-105365881D02*
X138657568Y-105400091D01*
X138623358Y-105468513D01*
X138589147Y-105502723D01*
X138520726Y-105536933D01*
X138452305Y-105536933D01*
X138400989Y-105519828D01*
X138315463Y-105468512D01*
X138264148Y-105417196D01*
X138212831Y-105331670D01*
X138195727Y-105280354D01*
X138195727Y-105211933D01*
X138229937Y-105143513D01*
X138264148Y-105109302D01*
X138332569Y-105075091D01*
X138366779Y-105075091D01*
X138760200Y-104852723D02*
X138999674Y-105092197D01*
X138537831Y-104801408D02*
X138708884Y-105143512D01*
X138931252Y-104921144D01*
X139033884Y-104647460D02*
X138982568Y-104664565D01*
X138948358Y-104664565D01*
X138897042Y-104647460D01*
X138879937Y-104630354D01*
X138862831Y-104579039D01*
X138862832Y-104544828D01*
X138879937Y-104493513D01*
X138948358Y-104425092D01*
X138999674Y-104407986D01*
X139033884Y-104407986D01*
X139085200Y-104425091D01*
X139102305Y-104442197D01*
X139119410Y-104493513D01*
X139119410Y-104527723D01*
X139102305Y-104579039D01*
X139033884Y-104647460D01*
X139016779Y-104698775D01*
X139016779Y-104732986D01*
X139033884Y-104784302D01*
X139102305Y-104852723D01*
X139153621Y-104869829D01*
X139187831Y-104869828D01*
X139239147Y-104852723D01*
X139307569Y-104784302D01*
X139324673Y-104732986D01*
X139324673Y-104698776D01*
X139307569Y-104647460D01*
X139239147Y-104579039D01*
X139187831Y-104561934D01*
X139153621Y-104561933D01*
X139102305Y-104579039D01*
X136422368Y-103356211D02*
X136422368Y-103390421D01*
X136388158Y-103458843D01*
X136353947Y-103493053D01*
X136285526Y-103527263D01*
X136217105Y-103527263D01*
X136165789Y-103510158D01*
X136080263Y-103458842D01*
X136028948Y-103407526D01*
X135977631Y-103322000D01*
X135960527Y-103270684D01*
X135960527Y-103202263D01*
X135994737Y-103133843D01*
X136028948Y-103099632D01*
X136097369Y-103065421D01*
X136131579Y-103065421D01*
X136422368Y-102706212D02*
X136251316Y-102877264D01*
X136405263Y-103065421D01*
X136405263Y-103031211D01*
X136422368Y-102979895D01*
X136507894Y-102894368D01*
X136559211Y-102877263D01*
X136593420Y-102877263D01*
X136644737Y-102894368D01*
X136730263Y-102979895D01*
X136747368Y-103031211D01*
X136747368Y-103065421D01*
X136730263Y-103116737D01*
X136644737Y-103202264D01*
X136593420Y-103219369D01*
X136559211Y-103219369D01*
X136559211Y-102569369D02*
X136781579Y-102347001D01*
X136798684Y-102603579D01*
X136850000Y-102552263D01*
X136901316Y-102535158D01*
X136935526Y-102535158D01*
X136986842Y-102552263D01*
X137072369Y-102637790D01*
X137089473Y-102689106D01*
X137089473Y-102723316D01*
X137072369Y-102774632D01*
X136969737Y-102877263D01*
X136918421Y-102894368D01*
X136884210Y-102894369D01*
X137704250Y-104428751D02*
X137413461Y-104377435D01*
X137498987Y-104634015D02*
X137139776Y-104274804D01*
X137276619Y-104137962D01*
X137327934Y-104120857D01*
X137362145Y-104120856D01*
X137413460Y-104137962D01*
X137464776Y-104189278D01*
X137481882Y-104240593D01*
X137481881Y-104274804D01*
X137464776Y-104326120D01*
X137327934Y-104462962D01*
X137464776Y-103949805D02*
X137687145Y-103727436D01*
X137704249Y-103984015D01*
X137755565Y-103932698D01*
X137806882Y-103915593D01*
X137841091Y-103915593D01*
X137892408Y-103932698D01*
X137977934Y-104018225D01*
X137995039Y-104069541D01*
X137995039Y-104103751D01*
X137977934Y-104155067D01*
X137875303Y-104257699D01*
X137823986Y-104274804D01*
X137789776Y-104274804D01*
X138046355Y-103676120D02*
X137995039Y-103693225D01*
X137960829Y-103693225D01*
X137909513Y-103676120D01*
X137892408Y-103659014D01*
X137875302Y-103607699D01*
X137875303Y-103573488D01*
X137892408Y-103522173D01*
X137960829Y-103453752D01*
X138012145Y-103436646D01*
X138046355Y-103436646D01*
X138097671Y-103453751D01*
X138114776Y-103470857D01*
X138131881Y-103522173D01*
X138131881Y-103556383D01*
X138114776Y-103607699D01*
X138046355Y-103676120D01*
X138029250Y-103727435D01*
X138029250Y-103761646D01*
X138046355Y-103812962D01*
X138114776Y-103881383D01*
X138166092Y-103898489D01*
X138200302Y-103898488D01*
X138251618Y-103881383D01*
X138320040Y-103812962D01*
X138337144Y-103761646D01*
X138337144Y-103727436D01*
X138320040Y-103676120D01*
X138251618Y-103607699D01*
X138200302Y-103590594D01*
X138166092Y-103590593D01*
X138114776Y-103607699D01*
X130531810Y-74936048D02*
X130943048Y-74936048D01*
X130991429Y-74911857D01*
X131015619Y-74887667D01*
X131039810Y-74839286D01*
X131039810Y-74742524D01*
X131015619Y-74694143D01*
X130991429Y-74669952D01*
X130943048Y-74645762D01*
X130531810Y-74645762D01*
X130531810Y-74452239D02*
X130531810Y-74137762D01*
X130725333Y-74307096D01*
X130725333Y-74234524D01*
X130749524Y-74186143D01*
X130773714Y-74161953D01*
X130822095Y-74137762D01*
X130943048Y-74137762D01*
X130991429Y-74161953D01*
X131015619Y-74186143D01*
X131039810Y-74234524D01*
X131039810Y-74379667D01*
X131015619Y-74428048D01*
X130991429Y-74452239D01*
X134671832Y-108096168D02*
X134500779Y-108267220D01*
X134141569Y-107908010D01*
X134398147Y-107651432D02*
X134620516Y-107429063D01*
X134637620Y-107685641D01*
X134688937Y-107634325D01*
X134740253Y-107617220D01*
X134774462Y-107617220D01*
X134825779Y-107634325D01*
X134911305Y-107719852D01*
X134928410Y-107771168D01*
X134928410Y-107805378D01*
X134911305Y-107856694D01*
X134808674Y-107959326D01*
X134757358Y-107976431D01*
X134723147Y-107976431D01*
X135406368Y-102213211D02*
X135406368Y-102247421D01*
X135372158Y-102315843D01*
X135337947Y-102350053D01*
X135269526Y-102384263D01*
X135201105Y-102384263D01*
X135149789Y-102367158D01*
X135064263Y-102315842D01*
X135012948Y-102264526D01*
X134961631Y-102179000D01*
X134944527Y-102127684D01*
X134944527Y-102059263D01*
X134978737Y-101990843D01*
X135012948Y-101956632D01*
X135081369Y-101922421D01*
X135115579Y-101922421D01*
X135509000Y-101700053D02*
X135748474Y-101939527D01*
X135286631Y-101648738D02*
X135457684Y-101990842D01*
X135680052Y-101768474D01*
X135953737Y-101734263D02*
X136022158Y-101665842D01*
X136039263Y-101614526D01*
X136039263Y-101580316D01*
X136022157Y-101494790D01*
X135970842Y-101409263D01*
X135834000Y-101272421D01*
X135782684Y-101255316D01*
X135748474Y-101255316D01*
X135697158Y-101272422D01*
X135628737Y-101340843D01*
X135611632Y-101392158D01*
X135611631Y-101426369D01*
X135628737Y-101477684D01*
X135714263Y-101563211D01*
X135765579Y-101580316D01*
X135799789Y-101580316D01*
X135851105Y-101563211D01*
X135919526Y-101494790D01*
X135936631Y-101443474D01*
X135936631Y-101409264D01*
X135919526Y-101357948D01*
X168734619Y-81177190D02*
X168686238Y-81153000D01*
X168637857Y-81104619D01*
X168565286Y-81032048D01*
X168516905Y-81007857D01*
X168468524Y-81007857D01*
X168492714Y-81128810D02*
X168444333Y-81104619D01*
X168395952Y-81056238D01*
X168371762Y-80959476D01*
X168371762Y-80790143D01*
X168395952Y-80693381D01*
X168444333Y-80645000D01*
X168492714Y-80620810D01*
X168589476Y-80620810D01*
X168637857Y-80645000D01*
X168686238Y-80693381D01*
X168710429Y-80790143D01*
X168710429Y-80959476D01*
X168686238Y-81056238D01*
X168637857Y-81104619D01*
X168589476Y-81128810D01*
X168492714Y-81128810D01*
X169170047Y-80620810D02*
X168928142Y-80620810D01*
X168903952Y-80862714D01*
X168928142Y-80838524D01*
X168976523Y-80814333D01*
X169097476Y-80814333D01*
X169145857Y-80838524D01*
X169170047Y-80862714D01*
X169194238Y-80911095D01*
X169194238Y-81032048D01*
X169170047Y-81080429D01*
X169145857Y-81104619D01*
X169097476Y-81128810D01*
X168976523Y-81128810D01*
X168928142Y-81104619D01*
X168903952Y-81080429D01*
X174776190Y-61819381D02*
X174752000Y-61867762D01*
X174703619Y-61916143D01*
X174631048Y-61988714D01*
X174606857Y-62037095D01*
X174606857Y-62085476D01*
X174727810Y-62061286D02*
X174703619Y-62109667D01*
X174655238Y-62158048D01*
X174558476Y-62182238D01*
X174389143Y-62182238D01*
X174292381Y-62158048D01*
X174244000Y-62109667D01*
X174219810Y-62061286D01*
X174219810Y-61964524D01*
X174244000Y-61916143D01*
X174292381Y-61867762D01*
X174389143Y-61843571D01*
X174558476Y-61843571D01*
X174655238Y-61867762D01*
X174703619Y-61916143D01*
X174727810Y-61964524D01*
X174727810Y-62061286D01*
X174219810Y-61408143D02*
X174219810Y-61504905D01*
X174244000Y-61553286D01*
X174268190Y-61577477D01*
X174340762Y-61625858D01*
X174437524Y-61650048D01*
X174631048Y-61650048D01*
X174679429Y-61625858D01*
X174703619Y-61601667D01*
X174727810Y-61553286D01*
X174727810Y-61456524D01*
X174703619Y-61408143D01*
X174679429Y-61383953D01*
X174631048Y-61359762D01*
X174510095Y-61359762D01*
X174461714Y-61383953D01*
X174437524Y-61408143D01*
X174413333Y-61456524D01*
X174413333Y-61553286D01*
X174437524Y-61601667D01*
X174461714Y-61625858D01*
X174510095Y-61650048D01*
X146763619Y-81177190D02*
X146715238Y-81153000D01*
X146666857Y-81104619D01*
X146594286Y-81032048D01*
X146545905Y-81007857D01*
X146497524Y-81007857D01*
X146521714Y-81128810D02*
X146473333Y-81104619D01*
X146424952Y-81056238D01*
X146400762Y-80959476D01*
X146400762Y-80790143D01*
X146424952Y-80693381D01*
X146473333Y-80645000D01*
X146521714Y-80620810D01*
X146618476Y-80620810D01*
X146666857Y-80645000D01*
X146715238Y-80693381D01*
X146739429Y-80790143D01*
X146739429Y-80959476D01*
X146715238Y-81056238D01*
X146666857Y-81104619D01*
X146618476Y-81128810D01*
X146521714Y-81128810D01*
X147223238Y-81128810D02*
X146932952Y-81128810D01*
X147078095Y-81128810D02*
X147078095Y-80620810D01*
X147029714Y-80693381D01*
X146981333Y-80741762D01*
X146932952Y-80765952D01*
X135794630Y-109068632D02*
X135623578Y-108897579D01*
X135982788Y-108538369D01*
X136307788Y-109102842D02*
X136068314Y-109342316D01*
X136359104Y-108880473D02*
X136016999Y-109051526D01*
X136239367Y-109273894D01*
X132385832Y-112388769D02*
X132214779Y-112559821D01*
X131855569Y-112200611D01*
X132317411Y-111738769D02*
X132146358Y-111909822D01*
X132300305Y-112097979D01*
X132300305Y-112063769D01*
X132317410Y-112012453D01*
X132402937Y-111926926D01*
X132454253Y-111909821D01*
X132488462Y-111909821D01*
X132539779Y-111926926D01*
X132625305Y-112012453D01*
X132642410Y-112063769D01*
X132642410Y-112097979D01*
X132625305Y-112149295D01*
X132539779Y-112234822D01*
X132488462Y-112251927D01*
X132454253Y-112251927D01*
X125242810Y-101853548D02*
X125654048Y-101853548D01*
X125702429Y-101829357D01*
X125726619Y-101805167D01*
X125750810Y-101756786D01*
X125750810Y-101660024D01*
X125726619Y-101611643D01*
X125702429Y-101587452D01*
X125654048Y-101563262D01*
X125242810Y-101563262D01*
X125412143Y-101103643D02*
X125750810Y-101103643D01*
X125218619Y-101224596D02*
X125581476Y-101345548D01*
X125581476Y-101031072D01*
X128688606Y-104216974D02*
X128979395Y-104507763D01*
X129030711Y-104524868D01*
X129064921Y-104524868D01*
X129116237Y-104507763D01*
X129184658Y-104439342D01*
X129201763Y-104388026D01*
X129201764Y-104353816D01*
X129184658Y-104302500D01*
X128893869Y-104011711D01*
X129270184Y-103943290D02*
X129218868Y-103960395D01*
X129184657Y-103960396D01*
X129133342Y-103943290D01*
X129116236Y-103926184D01*
X129099131Y-103874869D01*
X129099131Y-103840658D01*
X129116237Y-103789343D01*
X129184658Y-103720922D01*
X129235974Y-103703816D01*
X129270183Y-103703816D01*
X129321500Y-103720921D01*
X129338605Y-103738027D01*
X129355710Y-103789343D01*
X129355710Y-103823553D01*
X129338605Y-103874869D01*
X129270184Y-103943290D01*
X129253078Y-103994605D01*
X129253078Y-104028817D01*
X129270184Y-104080132D01*
X129338605Y-104148553D01*
X129389921Y-104165659D01*
X129424131Y-104165658D01*
X129475447Y-104148553D01*
X129543868Y-104080132D01*
X129560973Y-104028816D01*
X129560973Y-103994606D01*
X129543868Y-103943290D01*
X129475447Y-103874869D01*
X129424131Y-103857764D01*
X129389921Y-103857763D01*
X129338605Y-103874869D01*
X149503190Y-61976881D02*
X149479000Y-62025262D01*
X149430619Y-62073643D01*
X149358048Y-62146214D01*
X149333857Y-62194595D01*
X149333857Y-62242976D01*
X149454810Y-62218786D02*
X149430619Y-62267167D01*
X149382238Y-62315548D01*
X149285476Y-62339738D01*
X149116143Y-62339738D01*
X149019381Y-62315548D01*
X148971000Y-62267167D01*
X148946810Y-62218786D01*
X148946810Y-62122024D01*
X148971000Y-62073643D01*
X149019381Y-62025262D01*
X149116143Y-62001071D01*
X149285476Y-62001071D01*
X149382238Y-62025262D01*
X149430619Y-62073643D01*
X149454810Y-62122024D01*
X149454810Y-62218786D01*
X148995190Y-61807548D02*
X148971000Y-61783358D01*
X148946810Y-61734977D01*
X148946810Y-61614024D01*
X148971000Y-61565643D01*
X148995190Y-61541453D01*
X149043571Y-61517262D01*
X149091952Y-61517262D01*
X149164524Y-61541453D01*
X149454810Y-61831739D01*
X149454810Y-61517262D01*
X153621619Y-80542190D02*
X153573238Y-80518000D01*
X153524857Y-80469619D01*
X153452286Y-80397048D01*
X153403905Y-80372857D01*
X153355524Y-80372857D01*
X153379714Y-80493810D02*
X153331333Y-80469619D01*
X153282952Y-80421238D01*
X153258762Y-80324476D01*
X153258762Y-80155143D01*
X153282952Y-80058381D01*
X153331333Y-80010000D01*
X153379714Y-79985810D01*
X153476476Y-79985810D01*
X153524857Y-80010000D01*
X153573238Y-80058381D01*
X153597429Y-80155143D01*
X153597429Y-80324476D01*
X153573238Y-80421238D01*
X153524857Y-80469619D01*
X153476476Y-80493810D01*
X153379714Y-80493810D01*
X153766761Y-79985810D02*
X154081238Y-79985810D01*
X153911904Y-80179333D01*
X153984476Y-80179333D01*
X154032857Y-80203524D01*
X154057047Y-80227714D01*
X154081238Y-80276095D01*
X154081238Y-80397048D01*
X154057047Y-80445429D01*
X154032857Y-80469619D01*
X153984476Y-80493810D01*
X153839333Y-80493810D01*
X153790952Y-80469619D01*
X153766761Y-80445429D01*
X161822190Y-61976881D02*
X161798000Y-62025262D01*
X161749619Y-62073643D01*
X161677048Y-62146214D01*
X161652857Y-62194595D01*
X161652857Y-62242976D01*
X161773810Y-62218786D02*
X161749619Y-62267167D01*
X161701238Y-62315548D01*
X161604476Y-62339738D01*
X161435143Y-62339738D01*
X161338381Y-62315548D01*
X161290000Y-62267167D01*
X161265810Y-62218786D01*
X161265810Y-62122024D01*
X161290000Y-62073643D01*
X161338381Y-62025262D01*
X161435143Y-62001071D01*
X161604476Y-62001071D01*
X161701238Y-62025262D01*
X161749619Y-62073643D01*
X161773810Y-62122024D01*
X161773810Y-62218786D01*
X161435143Y-61565643D02*
X161773810Y-61565643D01*
X161241619Y-61686596D02*
X161604476Y-61807548D01*
X161604476Y-61493072D01*
X118139810Y-82416953D02*
X118551048Y-82416953D01*
X118599429Y-82392762D01*
X118623619Y-82368572D01*
X118647810Y-82320191D01*
X118647810Y-82223429D01*
X118623619Y-82175048D01*
X118599429Y-82150857D01*
X118551048Y-82126667D01*
X118139810Y-82126667D01*
X118647810Y-81618667D02*
X118647810Y-81908953D01*
X118647810Y-81763810D02*
X118139810Y-81763810D01*
X118212381Y-81812191D01*
X118260762Y-81860572D01*
X118284952Y-81908953D01*
X118139810Y-81304191D02*
X118139810Y-81255810D01*
X118164000Y-81207429D01*
X118188190Y-81183238D01*
X118236571Y-81159048D01*
X118333333Y-81134857D01*
X118454286Y-81134857D01*
X118551048Y-81159048D01*
X118599429Y-81183238D01*
X118623619Y-81207429D01*
X118647810Y-81255810D01*
X118647810Y-81304191D01*
X118623619Y-81352572D01*
X118599429Y-81376762D01*
X118551048Y-81400953D01*
X118454286Y-81425143D01*
X118333333Y-81425143D01*
X118236571Y-81400953D01*
X118188190Y-81376762D01*
X118164000Y-81352572D01*
X118139810Y-81304191D01*
X135563333Y-100447929D02*
X135539143Y-100472119D01*
X135466571Y-100496310D01*
X135418190Y-100496310D01*
X135345619Y-100472119D01*
X135297238Y-100423738D01*
X135273047Y-100375357D01*
X135248857Y-100278595D01*
X135248857Y-100206024D01*
X135273047Y-100109262D01*
X135297238Y-100060881D01*
X135345619Y-100012500D01*
X135418190Y-99988310D01*
X135466571Y-99988310D01*
X135539143Y-100012500D01*
X135563333Y-100036690D01*
X135998762Y-100157643D02*
X135998762Y-100496310D01*
X135877809Y-99964119D02*
X135756857Y-100326976D01*
X136071333Y-100326976D01*
X123053929Y-89619667D02*
X123078119Y-89643857D01*
X123102310Y-89716429D01*
X123102310Y-89764810D01*
X123078119Y-89837381D01*
X123029738Y-89885762D01*
X122981357Y-89909953D01*
X122884595Y-89934143D01*
X122812024Y-89934143D01*
X122715262Y-89909953D01*
X122666881Y-89885762D01*
X122618500Y-89837381D01*
X122594310Y-89764810D01*
X122594310Y-89716429D01*
X122618500Y-89643857D01*
X122642690Y-89619667D01*
X122594310Y-89160048D02*
X122594310Y-89401953D01*
X122836214Y-89426143D01*
X122812024Y-89401953D01*
X122787833Y-89353572D01*
X122787833Y-89232619D01*
X122812024Y-89184238D01*
X122836214Y-89160048D01*
X122884595Y-89135857D01*
X123005548Y-89135857D01*
X123053929Y-89160048D01*
X123078119Y-89184238D01*
X123102310Y-89232619D01*
X123102310Y-89353572D01*
X123078119Y-89401953D01*
X123053929Y-89426143D01*
X126927429Y-85428667D02*
X126951619Y-85452857D01*
X126975810Y-85525429D01*
X126975810Y-85573810D01*
X126951619Y-85646381D01*
X126903238Y-85694762D01*
X126854857Y-85718953D01*
X126758095Y-85743143D01*
X126685524Y-85743143D01*
X126588762Y-85718953D01*
X126540381Y-85694762D01*
X126492000Y-85646381D01*
X126467810Y-85573810D01*
X126467810Y-85525429D01*
X126492000Y-85452857D01*
X126516190Y-85428667D01*
X126467810Y-84993238D02*
X126467810Y-85090000D01*
X126492000Y-85138381D01*
X126516190Y-85162572D01*
X126588762Y-85210953D01*
X126685524Y-85235143D01*
X126879048Y-85235143D01*
X126927429Y-85210953D01*
X126951619Y-85186762D01*
X126975810Y-85138381D01*
X126975810Y-85041619D01*
X126951619Y-84993238D01*
X126927429Y-84969048D01*
X126879048Y-84944857D01*
X126758095Y-84944857D01*
X126709714Y-84969048D01*
X126685524Y-84993238D01*
X126661333Y-85041619D01*
X126661333Y-85138381D01*
X126685524Y-85186762D01*
X126709714Y-85210953D01*
X126758095Y-85235143D01*
X120323429Y-92286667D02*
X120347619Y-92310857D01*
X120371810Y-92383429D01*
X120371810Y-92431810D01*
X120347619Y-92504381D01*
X120299238Y-92552762D01*
X120250857Y-92576953D01*
X120154095Y-92601143D01*
X120081524Y-92601143D01*
X119984762Y-92576953D01*
X119936381Y-92552762D01*
X119888000Y-92504381D01*
X119863810Y-92431810D01*
X119863810Y-92383429D01*
X119888000Y-92310857D01*
X119912190Y-92286667D01*
X120371810Y-92044762D02*
X120371810Y-91948000D01*
X120347619Y-91899619D01*
X120323429Y-91875429D01*
X120250857Y-91827048D01*
X120154095Y-91802857D01*
X119960571Y-91802857D01*
X119912190Y-91827048D01*
X119888000Y-91851238D01*
X119863810Y-91899619D01*
X119863810Y-91996381D01*
X119888000Y-92044762D01*
X119912190Y-92068953D01*
X119960571Y-92093143D01*
X120081524Y-92093143D01*
X120129905Y-92068953D01*
X120154095Y-92044762D01*
X120178286Y-91996381D01*
X120178286Y-91899619D01*
X120154095Y-91851238D01*
X120129905Y-91827048D01*
X120081524Y-91802857D01*
X123688928Y-97209429D02*
X123664738Y-97233619D01*
X123592166Y-97257810D01*
X123543785Y-97257810D01*
X123471214Y-97233619D01*
X123422833Y-97185238D01*
X123398642Y-97136857D01*
X123374452Y-97040095D01*
X123374452Y-96967524D01*
X123398642Y-96870762D01*
X123422833Y-96822381D01*
X123471214Y-96774000D01*
X123543785Y-96749810D01*
X123592166Y-96749810D01*
X123664738Y-96774000D01*
X123688928Y-96798190D01*
X124172738Y-97257810D02*
X123882452Y-97257810D01*
X124027595Y-97257810D02*
X124027595Y-96749810D01*
X123979214Y-96822381D01*
X123930833Y-96870762D01*
X123882452Y-96894952D01*
X124656548Y-97257810D02*
X124366262Y-97257810D01*
X124511405Y-97257810D02*
X124511405Y-96749810D01*
X124463024Y-96822381D01*
X124414643Y-96870762D01*
X124366262Y-96894952D01*
X138484428Y-87442429D02*
X138460238Y-87466619D01*
X138387666Y-87490810D01*
X138339285Y-87490810D01*
X138266714Y-87466619D01*
X138218333Y-87418238D01*
X138194142Y-87369857D01*
X138169952Y-87273095D01*
X138169952Y-87200524D01*
X138194142Y-87103762D01*
X138218333Y-87055381D01*
X138266714Y-87007000D01*
X138339285Y-86982810D01*
X138387666Y-86982810D01*
X138460238Y-87007000D01*
X138484428Y-87031190D01*
X138968238Y-87490810D02*
X138677952Y-87490810D01*
X138823095Y-87490810D02*
X138823095Y-86982810D01*
X138774714Y-87055381D01*
X138726333Y-87103762D01*
X138677952Y-87127952D01*
X139161762Y-87031190D02*
X139185952Y-87007000D01*
X139234333Y-86982810D01*
X139355286Y-86982810D01*
X139403667Y-87007000D01*
X139427857Y-87031190D01*
X139452048Y-87079571D01*
X139452048Y-87127952D01*
X139427857Y-87200524D01*
X139137571Y-87490810D01*
X139452048Y-87490810D01*
X120704428Y-73079429D02*
X120680238Y-73103619D01*
X120607666Y-73127810D01*
X120559285Y-73127810D01*
X120486714Y-73103619D01*
X120438333Y-73055238D01*
X120414142Y-73006857D01*
X120389952Y-72910095D01*
X120389952Y-72837524D01*
X120414142Y-72740762D01*
X120438333Y-72692381D01*
X120486714Y-72644000D01*
X120559285Y-72619810D01*
X120607666Y-72619810D01*
X120680238Y-72644000D01*
X120704428Y-72668190D01*
X121188238Y-73127810D02*
X120897952Y-73127810D01*
X121043095Y-73127810D02*
X121043095Y-72619810D01*
X120994714Y-72692381D01*
X120946333Y-72740762D01*
X120897952Y-72764952D01*
X121623667Y-72789143D02*
X121623667Y-73127810D01*
X121502714Y-72595619D02*
X121381762Y-72958476D01*
X121696238Y-72958476D01*
X120704428Y-74654229D02*
X120680238Y-74678419D01*
X120607666Y-74702610D01*
X120559285Y-74702610D01*
X120486714Y-74678419D01*
X120438333Y-74630038D01*
X120414142Y-74581657D01*
X120389952Y-74484895D01*
X120389952Y-74412324D01*
X120414142Y-74315562D01*
X120438333Y-74267181D01*
X120486714Y-74218800D01*
X120559285Y-74194610D01*
X120607666Y-74194610D01*
X120680238Y-74218800D01*
X120704428Y-74242990D01*
X121188238Y-74702610D02*
X120897952Y-74702610D01*
X121043095Y-74702610D02*
X121043095Y-74194610D01*
X120994714Y-74267181D01*
X120946333Y-74315562D01*
X120897952Y-74339752D01*
X121647857Y-74194610D02*
X121405952Y-74194610D01*
X121381762Y-74436514D01*
X121405952Y-74412324D01*
X121454333Y-74388133D01*
X121575286Y-74388133D01*
X121623667Y-74412324D01*
X121647857Y-74436514D01*
X121672048Y-74484895D01*
X121672048Y-74605848D01*
X121647857Y-74654229D01*
X121623667Y-74678419D01*
X121575286Y-74702610D01*
X121454333Y-74702610D01*
X121405952Y-74678419D01*
X121381762Y-74654229D01*
X119561428Y-70285429D02*
X119537238Y-70309619D01*
X119464666Y-70333810D01*
X119416285Y-70333810D01*
X119343714Y-70309619D01*
X119295333Y-70261238D01*
X119271142Y-70212857D01*
X119246952Y-70116095D01*
X119246952Y-70043524D01*
X119271142Y-69946762D01*
X119295333Y-69898381D01*
X119343714Y-69850000D01*
X119416285Y-69825810D01*
X119464666Y-69825810D01*
X119537238Y-69850000D01*
X119561428Y-69874190D01*
X120045238Y-70333810D02*
X119754952Y-70333810D01*
X119900095Y-70333810D02*
X119900095Y-69825810D01*
X119851714Y-69898381D01*
X119803333Y-69946762D01*
X119754952Y-69970952D01*
X120480667Y-69825810D02*
X120383905Y-69825810D01*
X120335524Y-69850000D01*
X120311333Y-69874190D01*
X120262952Y-69946762D01*
X120238762Y-70043524D01*
X120238762Y-70237048D01*
X120262952Y-70285429D01*
X120287143Y-70309619D01*
X120335524Y-70333810D01*
X120432286Y-70333810D01*
X120480667Y-70309619D01*
X120504857Y-70285429D01*
X120529048Y-70237048D01*
X120529048Y-70116095D01*
X120504857Y-70067714D01*
X120480667Y-70043524D01*
X120432286Y-70019333D01*
X120335524Y-70019333D01*
X120287143Y-70043524D01*
X120262952Y-70067714D01*
X120238762Y-70116095D01*
X124260429Y-78304572D02*
X124284619Y-78328762D01*
X124308810Y-78401334D01*
X124308810Y-78449715D01*
X124284619Y-78522286D01*
X124236238Y-78570667D01*
X124187857Y-78594858D01*
X124091095Y-78619048D01*
X124018524Y-78619048D01*
X123921762Y-78594858D01*
X123873381Y-78570667D01*
X123825000Y-78522286D01*
X123800810Y-78449715D01*
X123800810Y-78401334D01*
X123825000Y-78328762D01*
X123849190Y-78304572D01*
X124308810Y-77820762D02*
X124308810Y-78111048D01*
X124308810Y-77965905D02*
X123800810Y-77965905D01*
X123873381Y-78014286D01*
X123921762Y-78062667D01*
X123945952Y-78111048D01*
X123800810Y-77651429D02*
X123800810Y-77312762D01*
X124308810Y-77530476D01*
X119561428Y-67364429D02*
X119537238Y-67388619D01*
X119464666Y-67412810D01*
X119416285Y-67412810D01*
X119343714Y-67388619D01*
X119295333Y-67340238D01*
X119271142Y-67291857D01*
X119246952Y-67195095D01*
X119246952Y-67122524D01*
X119271142Y-67025762D01*
X119295333Y-66977381D01*
X119343714Y-66929000D01*
X119416285Y-66904810D01*
X119464666Y-66904810D01*
X119537238Y-66929000D01*
X119561428Y-66953190D01*
X120045238Y-67412810D02*
X119754952Y-67412810D01*
X119900095Y-67412810D02*
X119900095Y-66904810D01*
X119851714Y-66977381D01*
X119803333Y-67025762D01*
X119754952Y-67049952D01*
X120335524Y-67122524D02*
X120287143Y-67098333D01*
X120262952Y-67074143D01*
X120238762Y-67025762D01*
X120238762Y-67001571D01*
X120262952Y-66953190D01*
X120287143Y-66929000D01*
X120335524Y-66904810D01*
X120432286Y-66904810D01*
X120480667Y-66929000D01*
X120504857Y-66953190D01*
X120529048Y-67001571D01*
X120529048Y-67025762D01*
X120504857Y-67074143D01*
X120480667Y-67098333D01*
X120432286Y-67122524D01*
X120335524Y-67122524D01*
X120287143Y-67146714D01*
X120262952Y-67170905D01*
X120238762Y-67219286D01*
X120238762Y-67316048D01*
X120262952Y-67364429D01*
X120287143Y-67388619D01*
X120335524Y-67412810D01*
X120432286Y-67412810D01*
X120480667Y-67388619D01*
X120504857Y-67364429D01*
X120529048Y-67316048D01*
X120529048Y-67219286D01*
X120504857Y-67170905D01*
X120480667Y-67146714D01*
X120432286Y-67122524D01*
X119942429Y-75637572D02*
X119966619Y-75661762D01*
X119990810Y-75734334D01*
X119990810Y-75782715D01*
X119966619Y-75855286D01*
X119918238Y-75903667D01*
X119869857Y-75927858D01*
X119773095Y-75952048D01*
X119700524Y-75952048D01*
X119603762Y-75927858D01*
X119555381Y-75903667D01*
X119507000Y-75855286D01*
X119482810Y-75782715D01*
X119482810Y-75734334D01*
X119507000Y-75661762D01*
X119531190Y-75637572D01*
X119990810Y-75153762D02*
X119990810Y-75444048D01*
X119990810Y-75298905D02*
X119482810Y-75298905D01*
X119555381Y-75347286D01*
X119603762Y-75395667D01*
X119627952Y-75444048D01*
X119990810Y-74911857D02*
X119990810Y-74815095D01*
X119966619Y-74766714D01*
X119942429Y-74742524D01*
X119869857Y-74694143D01*
X119773095Y-74669952D01*
X119579571Y-74669952D01*
X119531190Y-74694143D01*
X119507000Y-74718333D01*
X119482810Y-74766714D01*
X119482810Y-74863476D01*
X119507000Y-74911857D01*
X119531190Y-74936048D01*
X119579571Y-74960238D01*
X119700524Y-74960238D01*
X119748905Y-74936048D01*
X119773095Y-74911857D01*
X119797286Y-74863476D01*
X119797286Y-74766714D01*
X119773095Y-74718333D01*
X119748905Y-74694143D01*
X119700524Y-74669952D01*
X126292428Y-80064429D02*
X126268238Y-80088619D01*
X126195666Y-80112810D01*
X126147285Y-80112810D01*
X126074714Y-80088619D01*
X126026333Y-80040238D01*
X126002142Y-79991857D01*
X125977952Y-79895095D01*
X125977952Y-79822524D01*
X126002142Y-79725762D01*
X126026333Y-79677381D01*
X126074714Y-79629000D01*
X126147285Y-79604810D01*
X126195666Y-79604810D01*
X126268238Y-79629000D01*
X126292428Y-79653190D01*
X126485952Y-79653190D02*
X126510142Y-79629000D01*
X126558523Y-79604810D01*
X126679476Y-79604810D01*
X126727857Y-79629000D01*
X126752047Y-79653190D01*
X126776238Y-79701571D01*
X126776238Y-79749952D01*
X126752047Y-79822524D01*
X126461761Y-80112810D01*
X126776238Y-80112810D01*
X127090714Y-79604810D02*
X127139095Y-79604810D01*
X127187476Y-79629000D01*
X127211667Y-79653190D01*
X127235857Y-79701571D01*
X127260048Y-79798333D01*
X127260048Y-79919286D01*
X127235857Y-80016048D01*
X127211667Y-80064429D01*
X127187476Y-80088619D01*
X127139095Y-80112810D01*
X127090714Y-80112810D01*
X127042333Y-80088619D01*
X127018143Y-80064429D01*
X126993952Y-80016048D01*
X126969762Y-79919286D01*
X126969762Y-79798333D01*
X126993952Y-79701571D01*
X127018143Y-79653190D01*
X127042333Y-79629000D01*
X127090714Y-79604810D01*
X136960428Y-63935429D02*
X136936238Y-63959619D01*
X136863666Y-63983810D01*
X136815285Y-63983810D01*
X136742714Y-63959619D01*
X136694333Y-63911238D01*
X136670142Y-63862857D01*
X136645952Y-63766095D01*
X136645952Y-63693524D01*
X136670142Y-63596762D01*
X136694333Y-63548381D01*
X136742714Y-63500000D01*
X136815285Y-63475810D01*
X136863666Y-63475810D01*
X136936238Y-63500000D01*
X136960428Y-63524190D01*
X137153952Y-63524190D02*
X137178142Y-63500000D01*
X137226523Y-63475810D01*
X137347476Y-63475810D01*
X137395857Y-63500000D01*
X137420047Y-63524190D01*
X137444238Y-63572571D01*
X137444238Y-63620952D01*
X137420047Y-63693524D01*
X137129761Y-63983810D01*
X137444238Y-63983810D01*
X137637762Y-63524190D02*
X137661952Y-63500000D01*
X137710333Y-63475810D01*
X137831286Y-63475810D01*
X137879667Y-63500000D01*
X137903857Y-63524190D01*
X137928048Y-63572571D01*
X137928048Y-63620952D01*
X137903857Y-63693524D01*
X137613571Y-63983810D01*
X137928048Y-63983810D01*
X139246429Y-72970572D02*
X139270619Y-72994762D01*
X139294810Y-73067334D01*
X139294810Y-73115715D01*
X139270619Y-73188286D01*
X139222238Y-73236667D01*
X139173857Y-73260858D01*
X139077095Y-73285048D01*
X139004524Y-73285048D01*
X138907762Y-73260858D01*
X138859381Y-73236667D01*
X138811000Y-73188286D01*
X138786810Y-73115715D01*
X138786810Y-73067334D01*
X138811000Y-72994762D01*
X138835190Y-72970572D01*
X138835190Y-72777048D02*
X138811000Y-72752858D01*
X138786810Y-72704477D01*
X138786810Y-72583524D01*
X138811000Y-72535143D01*
X138835190Y-72510953D01*
X138883571Y-72486762D01*
X138931952Y-72486762D01*
X139004524Y-72510953D01*
X139294810Y-72801239D01*
X139294810Y-72486762D01*
X138786810Y-72317429D02*
X138786810Y-72002952D01*
X138980333Y-72172286D01*
X138980333Y-72099714D01*
X139004524Y-72051333D01*
X139028714Y-72027143D01*
X139077095Y-72002952D01*
X139198048Y-72002952D01*
X139246429Y-72027143D01*
X139270619Y-72051333D01*
X139294810Y-72099714D01*
X139294810Y-72244857D01*
X139270619Y-72293238D01*
X139246429Y-72317429D01*
X139246429Y-75256572D02*
X139270619Y-75280762D01*
X139294810Y-75353334D01*
X139294810Y-75401715D01*
X139270619Y-75474286D01*
X139222238Y-75522667D01*
X139173857Y-75546858D01*
X139077095Y-75571048D01*
X139004524Y-75571048D01*
X138907762Y-75546858D01*
X138859381Y-75522667D01*
X138811000Y-75474286D01*
X138786810Y-75401715D01*
X138786810Y-75353334D01*
X138811000Y-75280762D01*
X138835190Y-75256572D01*
X138835190Y-75063048D02*
X138811000Y-75038858D01*
X138786810Y-74990477D01*
X138786810Y-74869524D01*
X138811000Y-74821143D01*
X138835190Y-74796953D01*
X138883571Y-74772762D01*
X138931952Y-74772762D01*
X139004524Y-74796953D01*
X139294810Y-75087239D01*
X139294810Y-74772762D01*
X138956143Y-74337333D02*
X139294810Y-74337333D01*
X138762619Y-74458286D02*
X139125476Y-74579238D01*
X139125476Y-74264762D01*
X138103429Y-79828572D02*
X138127619Y-79852762D01*
X138151810Y-79925334D01*
X138151810Y-79973715D01*
X138127619Y-80046286D01*
X138079238Y-80094667D01*
X138030857Y-80118858D01*
X137934095Y-80143048D01*
X137861524Y-80143048D01*
X137764762Y-80118858D01*
X137716381Y-80094667D01*
X137668000Y-80046286D01*
X137643810Y-79973715D01*
X137643810Y-79925334D01*
X137668000Y-79852762D01*
X137692190Y-79828572D01*
X137692190Y-79635048D02*
X137668000Y-79610858D01*
X137643810Y-79562477D01*
X137643810Y-79441524D01*
X137668000Y-79393143D01*
X137692190Y-79368953D01*
X137740571Y-79344762D01*
X137788952Y-79344762D01*
X137861524Y-79368953D01*
X138151810Y-79659239D01*
X138151810Y-79344762D01*
X137643810Y-78885143D02*
X137643810Y-79127048D01*
X137885714Y-79151238D01*
X137861524Y-79127048D01*
X137837333Y-79078667D01*
X137837333Y-78957714D01*
X137861524Y-78909333D01*
X137885714Y-78885143D01*
X137934095Y-78860952D01*
X138055048Y-78860952D01*
X138103429Y-78885143D01*
X138127619Y-78909333D01*
X138151810Y-78957714D01*
X138151810Y-79078667D01*
X138127619Y-79127048D01*
X138103429Y-79151238D01*
X138992428Y-71555429D02*
X138968238Y-71579619D01*
X138895666Y-71603810D01*
X138847285Y-71603810D01*
X138774714Y-71579619D01*
X138726333Y-71531238D01*
X138702142Y-71482857D01*
X138677952Y-71386095D01*
X138677952Y-71313524D01*
X138702142Y-71216762D01*
X138726333Y-71168381D01*
X138774714Y-71120000D01*
X138847285Y-71095810D01*
X138895666Y-71095810D01*
X138968238Y-71120000D01*
X138992428Y-71144190D01*
X139185952Y-71144190D02*
X139210142Y-71120000D01*
X139258523Y-71095810D01*
X139379476Y-71095810D01*
X139427857Y-71120000D01*
X139452047Y-71144190D01*
X139476238Y-71192571D01*
X139476238Y-71240952D01*
X139452047Y-71313524D01*
X139161761Y-71603810D01*
X139476238Y-71603810D01*
X139766524Y-71313524D02*
X139718143Y-71289333D01*
X139693952Y-71265143D01*
X139669762Y-71216762D01*
X139669762Y-71192571D01*
X139693952Y-71144190D01*
X139718143Y-71120000D01*
X139766524Y-71095810D01*
X139863286Y-71095810D01*
X139911667Y-71120000D01*
X139935857Y-71144190D01*
X139960048Y-71192571D01*
X139960048Y-71216762D01*
X139935857Y-71265143D01*
X139911667Y-71289333D01*
X139863286Y-71313524D01*
X139766524Y-71313524D01*
X139718143Y-71337714D01*
X139693952Y-71361905D01*
X139669762Y-71410286D01*
X139669762Y-71507048D01*
X139693952Y-71555429D01*
X139718143Y-71579619D01*
X139766524Y-71603810D01*
X139863286Y-71603810D01*
X139911667Y-71579619D01*
X139935857Y-71555429D01*
X139960048Y-71507048D01*
X139960048Y-71410286D01*
X139935857Y-71361905D01*
X139911667Y-71337714D01*
X139863286Y-71313524D01*
X135690428Y-62411429D02*
X135666238Y-62435619D01*
X135593666Y-62459810D01*
X135545285Y-62459810D01*
X135472714Y-62435619D01*
X135424333Y-62387238D01*
X135400142Y-62338857D01*
X135375952Y-62242095D01*
X135375952Y-62169524D01*
X135400142Y-62072762D01*
X135424333Y-62024381D01*
X135472714Y-61976000D01*
X135545285Y-61951810D01*
X135593666Y-61951810D01*
X135666238Y-61976000D01*
X135690428Y-62000190D01*
X135859761Y-61951810D02*
X136174238Y-61951810D01*
X136004904Y-62145333D01*
X136077476Y-62145333D01*
X136125857Y-62169524D01*
X136150047Y-62193714D01*
X136174238Y-62242095D01*
X136174238Y-62363048D01*
X136150047Y-62411429D01*
X136125857Y-62435619D01*
X136077476Y-62459810D01*
X135932333Y-62459810D01*
X135883952Y-62435619D01*
X135859761Y-62411429D01*
X136658048Y-62459810D02*
X136367762Y-62459810D01*
X136512905Y-62459810D02*
X136512905Y-61951810D01*
X136464524Y-62024381D01*
X136416143Y-62072762D01*
X136367762Y-62096952D01*
X120577429Y-96846572D02*
X120601619Y-96870762D01*
X120625810Y-96943334D01*
X120625810Y-96991715D01*
X120601619Y-97064286D01*
X120553238Y-97112667D01*
X120504857Y-97136858D01*
X120408095Y-97161048D01*
X120335524Y-97161048D01*
X120238762Y-97136858D01*
X120190381Y-97112667D01*
X120142000Y-97064286D01*
X120117810Y-96991715D01*
X120117810Y-96943334D01*
X120142000Y-96870762D01*
X120166190Y-96846572D01*
X120117810Y-96677239D02*
X120117810Y-96362762D01*
X120311333Y-96532096D01*
X120311333Y-96459524D01*
X120335524Y-96411143D01*
X120359714Y-96386953D01*
X120408095Y-96362762D01*
X120529048Y-96362762D01*
X120577429Y-96386953D01*
X120601619Y-96411143D01*
X120625810Y-96459524D01*
X120625810Y-96604667D01*
X120601619Y-96653048D01*
X120577429Y-96677239D01*
X120117810Y-96193429D02*
X120117810Y-95878952D01*
X120311333Y-96048286D01*
X120311333Y-95975714D01*
X120335524Y-95927333D01*
X120359714Y-95903143D01*
X120408095Y-95878952D01*
X120529048Y-95878952D01*
X120577429Y-95903143D01*
X120601619Y-95927333D01*
X120625810Y-95975714D01*
X120625810Y-96120857D01*
X120601619Y-96169238D01*
X120577429Y-96193429D01*
X119561429Y-101672572D02*
X119585619Y-101696762D01*
X119609810Y-101769334D01*
X119609810Y-101817715D01*
X119585619Y-101890286D01*
X119537238Y-101938667D01*
X119488857Y-101962858D01*
X119392095Y-101987048D01*
X119319524Y-101987048D01*
X119222762Y-101962858D01*
X119174381Y-101938667D01*
X119126000Y-101890286D01*
X119101810Y-101817715D01*
X119101810Y-101769334D01*
X119126000Y-101696762D01*
X119150190Y-101672572D01*
X119101810Y-101503239D02*
X119101810Y-101188762D01*
X119295333Y-101358096D01*
X119295333Y-101285524D01*
X119319524Y-101237143D01*
X119343714Y-101212953D01*
X119392095Y-101188762D01*
X119513048Y-101188762D01*
X119561429Y-101212953D01*
X119585619Y-101237143D01*
X119609810Y-101285524D01*
X119609810Y-101430667D01*
X119585619Y-101479048D01*
X119561429Y-101503239D01*
X119271143Y-100753333D02*
X119609810Y-100753333D01*
X119077619Y-100874286D02*
X119440476Y-100995238D01*
X119440476Y-100680762D01*
X122482428Y-86287429D02*
X122458238Y-86311619D01*
X122385666Y-86335810D01*
X122337285Y-86335810D01*
X122264714Y-86311619D01*
X122216333Y-86263238D01*
X122192142Y-86214857D01*
X122167952Y-86118095D01*
X122167952Y-86045524D01*
X122192142Y-85948762D01*
X122216333Y-85900381D01*
X122264714Y-85852000D01*
X122337285Y-85827810D01*
X122385666Y-85827810D01*
X122458238Y-85852000D01*
X122482428Y-85876190D01*
X122651761Y-85827810D02*
X122966238Y-85827810D01*
X122796904Y-86021333D01*
X122869476Y-86021333D01*
X122917857Y-86045524D01*
X122942047Y-86069714D01*
X122966238Y-86118095D01*
X122966238Y-86239048D01*
X122942047Y-86287429D01*
X122917857Y-86311619D01*
X122869476Y-86335810D01*
X122724333Y-86335810D01*
X122675952Y-86311619D01*
X122651761Y-86287429D01*
X123401667Y-85827810D02*
X123304905Y-85827810D01*
X123256524Y-85852000D01*
X123232333Y-85876190D01*
X123183952Y-85948762D01*
X123159762Y-86045524D01*
X123159762Y-86239048D01*
X123183952Y-86287429D01*
X123208143Y-86311619D01*
X123256524Y-86335810D01*
X123353286Y-86335810D01*
X123401667Y-86311619D01*
X123425857Y-86287429D01*
X123450048Y-86239048D01*
X123450048Y-86118095D01*
X123425857Y-86069714D01*
X123401667Y-86045524D01*
X123353286Y-86021333D01*
X123256524Y-86021333D01*
X123208143Y-86045524D01*
X123183952Y-86069714D01*
X123159762Y-86118095D01*
X126135368Y-110722211D02*
X126135368Y-110756421D01*
X126101158Y-110824843D01*
X126066947Y-110859053D01*
X125998526Y-110893263D01*
X125930105Y-110893263D01*
X125878789Y-110876158D01*
X125793263Y-110824842D01*
X125741948Y-110773526D01*
X125690631Y-110688000D01*
X125673527Y-110636684D01*
X125673527Y-110568263D01*
X125707737Y-110499843D01*
X125741948Y-110465632D01*
X125810369Y-110431421D01*
X125844579Y-110431421D01*
X126135368Y-110072212D02*
X125964316Y-110243264D01*
X126118263Y-110431421D01*
X126118263Y-110397211D01*
X126135368Y-110345895D01*
X126220894Y-110260368D01*
X126272211Y-110243263D01*
X126306420Y-110243263D01*
X126357737Y-110260368D01*
X126443263Y-110345895D01*
X126460368Y-110397211D01*
X126460368Y-110431421D01*
X126443263Y-110482737D01*
X126357737Y-110568264D01*
X126306420Y-110585369D01*
X126272211Y-110585369D01*
X126374842Y-109832738D02*
X126409053Y-109798527D01*
X126460368Y-109781422D01*
X126494579Y-109781421D01*
X126545894Y-109798527D01*
X126631421Y-109849842D01*
X126716947Y-109935369D01*
X126768263Y-110020895D01*
X126785369Y-110072211D01*
X126785368Y-110106421D01*
X126768263Y-110157738D01*
X126734052Y-110191948D01*
X126682736Y-110209053D01*
X126648526Y-110209053D01*
X126597210Y-110191948D01*
X126511684Y-110140632D01*
X126426158Y-110055105D01*
X126374841Y-109969579D01*
X126357737Y-109918263D01*
X126357737Y-109884053D01*
X126374842Y-109832738D01*
X137849428Y-56315429D02*
X137825238Y-56339619D01*
X137752666Y-56363810D01*
X137704285Y-56363810D01*
X137631714Y-56339619D01*
X137583333Y-56291238D01*
X137559142Y-56242857D01*
X137534952Y-56146095D01*
X137534952Y-56073524D01*
X137559142Y-55976762D01*
X137583333Y-55928381D01*
X137631714Y-55880000D01*
X137704285Y-55855810D01*
X137752666Y-55855810D01*
X137825238Y-55880000D01*
X137849428Y-55904190D01*
X138309047Y-55855810D02*
X138067142Y-55855810D01*
X138042952Y-56097714D01*
X138067142Y-56073524D01*
X138115523Y-56049333D01*
X138236476Y-56049333D01*
X138284857Y-56073524D01*
X138309047Y-56097714D01*
X138333238Y-56146095D01*
X138333238Y-56267048D01*
X138309047Y-56315429D01*
X138284857Y-56339619D01*
X138236476Y-56363810D01*
X138115523Y-56363810D01*
X138067142Y-56339619D01*
X138042952Y-56315429D01*
X138623524Y-56073524D02*
X138575143Y-56049333D01*
X138550952Y-56025143D01*
X138526762Y-55976762D01*
X138526762Y-55952571D01*
X138550952Y-55904190D01*
X138575143Y-55880000D01*
X138623524Y-55855810D01*
X138720286Y-55855810D01*
X138768667Y-55880000D01*
X138792857Y-55904190D01*
X138817048Y-55952571D01*
X138817048Y-55976762D01*
X138792857Y-56025143D01*
X138768667Y-56049333D01*
X138720286Y-56073524D01*
X138623524Y-56073524D01*
X138575143Y-56097714D01*
X138550952Y-56121905D01*
X138526762Y-56170286D01*
X138526762Y-56267048D01*
X138550952Y-56315429D01*
X138575143Y-56339619D01*
X138623524Y-56363810D01*
X138720286Y-56363810D01*
X138768667Y-56339619D01*
X138792857Y-56315429D01*
X138817048Y-56267048D01*
X138817048Y-56170286D01*
X138792857Y-56121905D01*
X138768667Y-56097714D01*
X138720286Y-56073524D01*
X124641428Y-79925429D02*
X124617238Y-79949619D01*
X124544666Y-79973810D01*
X124496285Y-79973810D01*
X124423714Y-79949619D01*
X124375333Y-79901238D01*
X124351142Y-79852857D01*
X124326952Y-79756095D01*
X124326952Y-79683524D01*
X124351142Y-79586762D01*
X124375333Y-79538381D01*
X124423714Y-79490000D01*
X124496285Y-79465810D01*
X124544666Y-79465810D01*
X124617238Y-79490000D01*
X124641428Y-79514190D01*
X125101047Y-79465810D02*
X124859142Y-79465810D01*
X124834952Y-79707714D01*
X124859142Y-79683524D01*
X124907523Y-79659333D01*
X125028476Y-79659333D01*
X125076857Y-79683524D01*
X125101047Y-79707714D01*
X125125238Y-79756095D01*
X125125238Y-79877048D01*
X125101047Y-79925429D01*
X125076857Y-79949619D01*
X125028476Y-79973810D01*
X124907523Y-79973810D01*
X124859142Y-79949619D01*
X124834952Y-79925429D01*
X125367143Y-79973810D02*
X125463905Y-79973810D01*
X125512286Y-79949619D01*
X125536476Y-79925429D01*
X125584857Y-79852857D01*
X125609048Y-79756095D01*
X125609048Y-79562571D01*
X125584857Y-79514190D01*
X125560667Y-79490000D01*
X125512286Y-79465810D01*
X125415524Y-79465810D01*
X125367143Y-79490000D01*
X125342952Y-79514190D01*
X125318762Y-79562571D01*
X125318762Y-79683524D01*
X125342952Y-79731905D01*
X125367143Y-79756095D01*
X125415524Y-79780286D01*
X125512286Y-79780286D01*
X125560667Y-79756095D01*
X125584857Y-79731905D01*
X125609048Y-79683524D01*
X118672429Y-77923572D02*
X118696619Y-77947762D01*
X118720810Y-78020334D01*
X118720810Y-78068715D01*
X118696619Y-78141286D01*
X118648238Y-78189667D01*
X118599857Y-78213858D01*
X118503095Y-78238048D01*
X118430524Y-78238048D01*
X118333762Y-78213858D01*
X118285381Y-78189667D01*
X118237000Y-78141286D01*
X118212810Y-78068715D01*
X118212810Y-78020334D01*
X118237000Y-77947762D01*
X118261190Y-77923572D01*
X118212810Y-77488143D02*
X118212810Y-77584905D01*
X118237000Y-77633286D01*
X118261190Y-77657477D01*
X118333762Y-77705858D01*
X118430524Y-77730048D01*
X118624048Y-77730048D01*
X118672429Y-77705858D01*
X118696619Y-77681667D01*
X118720810Y-77633286D01*
X118720810Y-77536524D01*
X118696619Y-77488143D01*
X118672429Y-77463953D01*
X118624048Y-77439762D01*
X118503095Y-77439762D01*
X118454714Y-77463953D01*
X118430524Y-77488143D01*
X118406333Y-77536524D01*
X118406333Y-77633286D01*
X118430524Y-77681667D01*
X118454714Y-77705858D01*
X118503095Y-77730048D01*
X118212810Y-77125286D02*
X118212810Y-77076905D01*
X118237000Y-77028524D01*
X118261190Y-77004333D01*
X118309571Y-76980143D01*
X118406333Y-76955952D01*
X118527286Y-76955952D01*
X118624048Y-76980143D01*
X118672429Y-77004333D01*
X118696619Y-77028524D01*
X118720810Y-77076905D01*
X118720810Y-77125286D01*
X118696619Y-77173667D01*
X118672429Y-77197857D01*
X118624048Y-77222048D01*
X118527286Y-77246238D01*
X118406333Y-77246238D01*
X118309571Y-77222048D01*
X118261190Y-77197857D01*
X118237000Y-77173667D01*
X118212810Y-77125286D01*
X121339428Y-77575229D02*
X121315238Y-77599419D01*
X121242666Y-77623610D01*
X121194285Y-77623610D01*
X121121714Y-77599419D01*
X121073333Y-77551038D01*
X121049142Y-77502657D01*
X121024952Y-77405895D01*
X121024952Y-77333324D01*
X121049142Y-77236562D01*
X121073333Y-77188181D01*
X121121714Y-77139800D01*
X121194285Y-77115610D01*
X121242666Y-77115610D01*
X121315238Y-77139800D01*
X121339428Y-77163990D01*
X121774857Y-77115610D02*
X121678095Y-77115610D01*
X121629714Y-77139800D01*
X121605523Y-77163990D01*
X121557142Y-77236562D01*
X121532952Y-77333324D01*
X121532952Y-77526848D01*
X121557142Y-77575229D01*
X121581333Y-77599419D01*
X121629714Y-77623610D01*
X121726476Y-77623610D01*
X121774857Y-77599419D01*
X121799047Y-77575229D01*
X121823238Y-77526848D01*
X121823238Y-77405895D01*
X121799047Y-77357514D01*
X121774857Y-77333324D01*
X121726476Y-77309133D01*
X121629714Y-77309133D01*
X121581333Y-77333324D01*
X121557142Y-77357514D01*
X121532952Y-77405895D01*
X122307048Y-77623610D02*
X122016762Y-77623610D01*
X122161905Y-77623610D02*
X122161905Y-77115610D01*
X122113524Y-77188181D01*
X122065143Y-77236562D01*
X122016762Y-77260752D01*
X120069428Y-86541429D02*
X120045238Y-86565619D01*
X119972666Y-86589810D01*
X119924285Y-86589810D01*
X119851714Y-86565619D01*
X119803333Y-86517238D01*
X119779142Y-86468857D01*
X119754952Y-86372095D01*
X119754952Y-86299524D01*
X119779142Y-86202762D01*
X119803333Y-86154381D01*
X119851714Y-86106000D01*
X119924285Y-86081810D01*
X119972666Y-86081810D01*
X120045238Y-86106000D01*
X120069428Y-86130190D01*
X120504857Y-86081810D02*
X120408095Y-86081810D01*
X120359714Y-86106000D01*
X120335523Y-86130190D01*
X120287142Y-86202762D01*
X120262952Y-86299524D01*
X120262952Y-86493048D01*
X120287142Y-86541429D01*
X120311333Y-86565619D01*
X120359714Y-86589810D01*
X120456476Y-86589810D01*
X120504857Y-86565619D01*
X120529047Y-86541429D01*
X120553238Y-86493048D01*
X120553238Y-86372095D01*
X120529047Y-86323714D01*
X120504857Y-86299524D01*
X120456476Y-86275333D01*
X120359714Y-86275333D01*
X120311333Y-86299524D01*
X120287142Y-86323714D01*
X120262952Y-86372095D01*
X120746762Y-86130190D02*
X120770952Y-86106000D01*
X120819333Y-86081810D01*
X120940286Y-86081810D01*
X120988667Y-86106000D01*
X121012857Y-86130190D01*
X121037048Y-86178571D01*
X121037048Y-86226952D01*
X121012857Y-86299524D01*
X120722571Y-86589810D01*
X121037048Y-86589810D01*
X126292429Y-84527572D02*
X126316619Y-84551762D01*
X126340810Y-84624334D01*
X126340810Y-84672715D01*
X126316619Y-84745286D01*
X126268238Y-84793667D01*
X126219857Y-84817858D01*
X126123095Y-84842048D01*
X126050524Y-84842048D01*
X125953762Y-84817858D01*
X125905381Y-84793667D01*
X125857000Y-84745286D01*
X125832810Y-84672715D01*
X125832810Y-84624334D01*
X125857000Y-84551762D01*
X125881190Y-84527572D01*
X125832810Y-84092143D02*
X125832810Y-84188905D01*
X125857000Y-84237286D01*
X125881190Y-84261477D01*
X125953762Y-84309858D01*
X126050524Y-84334048D01*
X126244048Y-84334048D01*
X126292429Y-84309858D01*
X126316619Y-84285667D01*
X126340810Y-84237286D01*
X126340810Y-84140524D01*
X126316619Y-84092143D01*
X126292429Y-84067953D01*
X126244048Y-84043762D01*
X126123095Y-84043762D01*
X126074714Y-84067953D01*
X126050524Y-84092143D01*
X126026333Y-84140524D01*
X126026333Y-84237286D01*
X126050524Y-84285667D01*
X126074714Y-84309858D01*
X126123095Y-84334048D01*
X125832810Y-83874429D02*
X125832810Y-83559952D01*
X126026333Y-83729286D01*
X126026333Y-83656714D01*
X126050524Y-83608333D01*
X126074714Y-83584143D01*
X126123095Y-83559952D01*
X126244048Y-83559952D01*
X126292429Y-83584143D01*
X126316619Y-83608333D01*
X126340810Y-83656714D01*
X126340810Y-83801857D01*
X126316619Y-83850238D01*
X126292429Y-83874429D01*
X121768810Y-70684572D02*
X121526905Y-70853905D01*
X121768810Y-70974858D02*
X121260810Y-70974858D01*
X121260810Y-70781334D01*
X121285000Y-70732953D01*
X121309190Y-70708762D01*
X121357571Y-70684572D01*
X121430143Y-70684572D01*
X121478524Y-70708762D01*
X121502714Y-70732953D01*
X121526905Y-70781334D01*
X121526905Y-70974858D01*
X121768810Y-70200762D02*
X121768810Y-70491048D01*
X121768810Y-70345905D02*
X121260810Y-70345905D01*
X121333381Y-70394286D01*
X121381762Y-70442667D01*
X121405952Y-70491048D01*
X121260810Y-69886286D02*
X121260810Y-69837905D01*
X121285000Y-69789524D01*
X121309190Y-69765333D01*
X121357571Y-69741143D01*
X121454333Y-69716952D01*
X121575286Y-69716952D01*
X121672048Y-69741143D01*
X121720429Y-69765333D01*
X121744619Y-69789524D01*
X121768810Y-69837905D01*
X121768810Y-69886286D01*
X121744619Y-69934667D01*
X121720429Y-69958857D01*
X121672048Y-69983048D01*
X121575286Y-70007238D01*
X121454333Y-70007238D01*
X121357571Y-69983048D01*
X121309190Y-69958857D01*
X121285000Y-69934667D01*
X121260810Y-69886286D01*
X121768810Y-68144572D02*
X121526905Y-68313905D01*
X121768810Y-68434858D02*
X121260810Y-68434858D01*
X121260810Y-68241334D01*
X121285000Y-68192953D01*
X121309190Y-68168762D01*
X121357571Y-68144572D01*
X121430143Y-68144572D01*
X121478524Y-68168762D01*
X121502714Y-68192953D01*
X121526905Y-68241334D01*
X121526905Y-68434858D01*
X121768810Y-67660762D02*
X121768810Y-67951048D01*
X121768810Y-67805905D02*
X121260810Y-67805905D01*
X121333381Y-67854286D01*
X121381762Y-67902667D01*
X121405952Y-67951048D01*
X121768810Y-67176952D02*
X121768810Y-67467238D01*
X121768810Y-67322095D02*
X121260810Y-67322095D01*
X121333381Y-67370476D01*
X121381762Y-67418857D01*
X121405952Y-67467238D01*
X119561428Y-68911410D02*
X119392095Y-68669505D01*
X119271142Y-68911410D02*
X119271142Y-68403410D01*
X119464666Y-68403410D01*
X119513047Y-68427600D01*
X119537238Y-68451790D01*
X119561428Y-68500171D01*
X119561428Y-68572743D01*
X119537238Y-68621124D01*
X119513047Y-68645314D01*
X119464666Y-68669505D01*
X119271142Y-68669505D01*
X120045238Y-68911410D02*
X119754952Y-68911410D01*
X119900095Y-68911410D02*
X119900095Y-68403410D01*
X119851714Y-68475981D01*
X119803333Y-68524362D01*
X119754952Y-68548552D01*
X120238762Y-68451790D02*
X120262952Y-68427600D01*
X120311333Y-68403410D01*
X120432286Y-68403410D01*
X120480667Y-68427600D01*
X120504857Y-68451790D01*
X120529048Y-68500171D01*
X120529048Y-68548552D01*
X120504857Y-68621124D01*
X120214571Y-68911410D01*
X120529048Y-68911410D01*
X119561428Y-71857810D02*
X119392095Y-71615905D01*
X119271142Y-71857810D02*
X119271142Y-71349810D01*
X119464666Y-71349810D01*
X119513047Y-71374000D01*
X119537238Y-71398190D01*
X119561428Y-71446571D01*
X119561428Y-71519143D01*
X119537238Y-71567524D01*
X119513047Y-71591714D01*
X119464666Y-71615905D01*
X119271142Y-71615905D01*
X120045238Y-71857810D02*
X119754952Y-71857810D01*
X119900095Y-71857810D02*
X119900095Y-71349810D01*
X119851714Y-71422381D01*
X119803333Y-71470762D01*
X119754952Y-71494952D01*
X120214571Y-71349810D02*
X120529048Y-71349810D01*
X120359714Y-71543333D01*
X120432286Y-71543333D01*
X120480667Y-71567524D01*
X120504857Y-71591714D01*
X120529048Y-71640095D01*
X120529048Y-71761048D01*
X120504857Y-71809429D01*
X120480667Y-71833619D01*
X120432286Y-71857810D01*
X120287143Y-71857810D01*
X120238762Y-71833619D01*
X120214571Y-71809429D01*
X122812628Y-66015810D02*
X122643295Y-65773905D01*
X122522342Y-66015810D02*
X122522342Y-65507810D01*
X122715866Y-65507810D01*
X122764247Y-65532000D01*
X122788438Y-65556190D01*
X122812628Y-65604571D01*
X122812628Y-65677143D01*
X122788438Y-65725524D01*
X122764247Y-65749714D01*
X122715866Y-65773905D01*
X122522342Y-65773905D01*
X123296438Y-66015810D02*
X123006152Y-66015810D01*
X123151295Y-66015810D02*
X123151295Y-65507810D01*
X123102914Y-65580381D01*
X123054533Y-65628762D01*
X123006152Y-65652952D01*
X123731867Y-65677143D02*
X123731867Y-66015810D01*
X123610914Y-65483619D02*
X123489962Y-65846476D01*
X123804438Y-65846476D01*
X117656428Y-107798810D02*
X117487095Y-107556905D01*
X117366142Y-107798810D02*
X117366142Y-107290810D01*
X117559666Y-107290810D01*
X117608047Y-107315000D01*
X117632238Y-107339190D01*
X117656428Y-107387571D01*
X117656428Y-107460143D01*
X117632238Y-107508524D01*
X117608047Y-107532714D01*
X117559666Y-107556905D01*
X117366142Y-107556905D01*
X117849952Y-107339190D02*
X117874142Y-107315000D01*
X117922523Y-107290810D01*
X118043476Y-107290810D01*
X118091857Y-107315000D01*
X118116047Y-107339190D01*
X118140238Y-107387571D01*
X118140238Y-107435952D01*
X118116047Y-107508524D01*
X117825761Y-107798810D01*
X118140238Y-107798810D01*
X118309571Y-107290810D02*
X118624048Y-107290810D01*
X118454714Y-107484333D01*
X118527286Y-107484333D01*
X118575667Y-107508524D01*
X118599857Y-107532714D01*
X118624048Y-107581095D01*
X118624048Y-107702048D01*
X118599857Y-107750429D01*
X118575667Y-107774619D01*
X118527286Y-107798810D01*
X118382143Y-107798810D01*
X118333762Y-107774619D01*
X118309571Y-107750429D01*
X131067628Y-56414610D02*
X130898295Y-56172705D01*
X130777342Y-56414610D02*
X130777342Y-55906610D01*
X130970866Y-55906610D01*
X131019247Y-55930800D01*
X131043438Y-55954990D01*
X131067628Y-56003371D01*
X131067628Y-56075943D01*
X131043438Y-56124324D01*
X131019247Y-56148514D01*
X130970866Y-56172705D01*
X130777342Y-56172705D01*
X131236961Y-55906610D02*
X131551438Y-55906610D01*
X131382104Y-56100133D01*
X131454676Y-56100133D01*
X131503057Y-56124324D01*
X131527247Y-56148514D01*
X131551438Y-56196895D01*
X131551438Y-56317848D01*
X131527247Y-56366229D01*
X131503057Y-56390419D01*
X131454676Y-56414610D01*
X131309533Y-56414610D01*
X131261152Y-56390419D01*
X131236961Y-56366229D01*
X131793343Y-56414610D02*
X131890105Y-56414610D01*
X131938486Y-56390419D01*
X131962676Y-56366229D01*
X132011057Y-56293657D01*
X132035248Y-56196895D01*
X132035248Y-56003371D01*
X132011057Y-55954990D01*
X131986867Y-55930800D01*
X131938486Y-55906610D01*
X131841724Y-55906610D01*
X131793343Y-55930800D01*
X131769152Y-55954990D01*
X131744962Y-56003371D01*
X131744962Y-56124324D01*
X131769152Y-56172705D01*
X131793343Y-56196895D01*
X131841724Y-56221086D01*
X131938486Y-56221086D01*
X131986867Y-56196895D01*
X132011057Y-56172705D01*
X132035248Y-56124324D01*
X122530810Y-56714572D02*
X122288905Y-56883905D01*
X122530810Y-57004858D02*
X122022810Y-57004858D01*
X122022810Y-56811334D01*
X122047000Y-56762953D01*
X122071190Y-56738762D01*
X122119571Y-56714572D01*
X122192143Y-56714572D01*
X122240524Y-56738762D01*
X122264714Y-56762953D01*
X122288905Y-56811334D01*
X122288905Y-57004858D01*
X122192143Y-56279143D02*
X122530810Y-56279143D01*
X121998619Y-56400096D02*
X122361476Y-56521048D01*
X122361476Y-56206572D01*
X122071190Y-56037238D02*
X122047000Y-56013048D01*
X122022810Y-55964667D01*
X122022810Y-55843714D01*
X122047000Y-55795333D01*
X122071190Y-55771143D01*
X122119571Y-55746952D01*
X122167952Y-55746952D01*
X122240524Y-55771143D01*
X122530810Y-56061429D01*
X122530810Y-55746952D01*
X122526510Y-58193872D02*
X122284605Y-58363205D01*
X122526510Y-58484158D02*
X122018510Y-58484158D01*
X122018510Y-58290634D01*
X122042700Y-58242253D01*
X122066890Y-58218062D01*
X122115271Y-58193872D01*
X122187843Y-58193872D01*
X122236224Y-58218062D01*
X122260414Y-58242253D01*
X122284605Y-58290634D01*
X122284605Y-58484158D01*
X122187843Y-57758443D02*
X122526510Y-57758443D01*
X121994319Y-57879396D02*
X122357176Y-58000348D01*
X122357176Y-57685872D01*
X122018510Y-57540729D02*
X122018510Y-57226252D01*
X122212033Y-57395586D01*
X122212033Y-57323014D01*
X122236224Y-57274633D01*
X122260414Y-57250443D01*
X122308795Y-57226252D01*
X122429748Y-57226252D01*
X122478129Y-57250443D01*
X122502319Y-57274633D01*
X122526510Y-57323014D01*
X122526510Y-57468157D01*
X122502319Y-57516538D01*
X122478129Y-57540729D01*
X125403428Y-59792810D02*
X125234095Y-59550905D01*
X125113142Y-59792810D02*
X125113142Y-59284810D01*
X125306666Y-59284810D01*
X125355047Y-59309000D01*
X125379238Y-59333190D01*
X125403428Y-59381571D01*
X125403428Y-59454143D01*
X125379238Y-59502524D01*
X125355047Y-59526714D01*
X125306666Y-59550905D01*
X125113142Y-59550905D01*
X125838857Y-59454143D02*
X125838857Y-59792810D01*
X125717904Y-59260619D02*
X125596952Y-59623476D01*
X125911428Y-59623476D01*
X126322667Y-59454143D02*
X126322667Y-59792810D01*
X126201714Y-59260619D02*
X126080762Y-59623476D01*
X126395238Y-59623476D01*
X132372333Y-59157810D02*
X132130428Y-59157810D01*
X132130428Y-58649810D01*
X132517476Y-58698190D02*
X132541666Y-58674000D01*
X132590047Y-58649810D01*
X132711000Y-58649810D01*
X132759381Y-58674000D01*
X132783571Y-58698190D01*
X132807762Y-58746571D01*
X132807762Y-58794952D01*
X132783571Y-58867524D01*
X132493285Y-59157810D01*
X132807762Y-59157810D01*
X116737368Y-57831632D02*
X116378158Y-57472422D01*
X116463685Y-57386895D01*
X116532105Y-57352685D01*
X116600526Y-57352685D01*
X116651842Y-57369789D01*
X116737368Y-57421106D01*
X116788684Y-57472421D01*
X116840000Y-57557947D01*
X116857105Y-57609263D01*
X116857105Y-57677684D01*
X116822895Y-57746105D01*
X116737368Y-57831632D01*
X116908421Y-56942159D02*
X116737368Y-57113212D01*
X116891315Y-57301368D01*
X116891315Y-57267159D01*
X116908420Y-57215842D01*
X116993947Y-57130316D01*
X117045263Y-57113211D01*
X117079473Y-57113211D01*
X117130789Y-57130316D01*
X117216316Y-57215842D01*
X117233421Y-57267159D01*
X117233421Y-57301368D01*
X117216316Y-57352685D01*
X117130789Y-57438211D01*
X117079473Y-57455316D01*
X117045263Y-57455316D01*
X138230428Y-57829429D02*
X138206238Y-57853619D01*
X138133666Y-57877810D01*
X138085285Y-57877810D01*
X138012714Y-57853619D01*
X137964333Y-57805238D01*
X137940142Y-57756857D01*
X137915952Y-57660095D01*
X137915952Y-57587524D01*
X137940142Y-57490762D01*
X137964333Y-57442381D01*
X138012714Y-57394000D01*
X138085285Y-57369810D01*
X138133666Y-57369810D01*
X138206238Y-57394000D01*
X138230428Y-57418190D01*
X138399761Y-57369810D02*
X138714238Y-57369810D01*
X138544904Y-57563333D01*
X138617476Y-57563333D01*
X138665857Y-57587524D01*
X138690047Y-57611714D01*
X138714238Y-57660095D01*
X138714238Y-57781048D01*
X138690047Y-57829429D01*
X138665857Y-57853619D01*
X138617476Y-57877810D01*
X138472333Y-57877810D01*
X138423952Y-57853619D01*
X138399761Y-57829429D01*
X138907762Y-57418190D02*
X138931952Y-57394000D01*
X138980333Y-57369810D01*
X139101286Y-57369810D01*
X139149667Y-57394000D01*
X139173857Y-57418190D01*
X139198048Y-57466571D01*
X139198048Y-57514952D01*
X139173857Y-57587524D01*
X138883571Y-57877810D01*
X139198048Y-57877810D01*
X131593788Y-113435368D02*
X131559578Y-113435368D01*
X131491156Y-113401158D01*
X131456946Y-113366947D01*
X131422736Y-113298526D01*
X131422736Y-113230105D01*
X131439841Y-113178789D01*
X131491157Y-113093263D01*
X131542473Y-113041948D01*
X131627999Y-112990631D01*
X131679315Y-112973527D01*
X131747736Y-112973527D01*
X131816156Y-113007737D01*
X131850367Y-113041948D01*
X131884578Y-113110369D01*
X131884578Y-113144579D01*
X132243787Y-113435368D02*
X132072735Y-113264316D01*
X131884578Y-113418263D01*
X131918788Y-113418263D01*
X131970104Y-113435368D01*
X132055631Y-113520894D01*
X132072736Y-113572211D01*
X132072736Y-113606420D01*
X132055631Y-113657737D01*
X131970104Y-113743263D01*
X131918788Y-113760368D01*
X131884578Y-113760368D01*
X131833262Y-113743263D01*
X131747735Y-113657737D01*
X131730630Y-113606420D01*
X131730630Y-113572211D01*
X132585893Y-113777474D02*
X132414840Y-113606421D01*
X132226683Y-113760368D01*
X132260893Y-113760368D01*
X132312209Y-113777473D01*
X132397736Y-113863000D01*
X132414841Y-113914316D01*
X132414841Y-113948526D01*
X132397736Y-113999842D01*
X132312209Y-114085369D01*
X132260893Y-114102473D01*
X132226683Y-114102473D01*
X132175367Y-114085369D01*
X132089840Y-113999842D01*
X132072736Y-113948526D01*
X132072736Y-113914316D01*
X134514789Y-114070368D02*
X134480579Y-114070368D01*
X134412157Y-114036158D01*
X134377947Y-114001947D01*
X134343737Y-113933526D01*
X134343737Y-113865105D01*
X134360842Y-113813789D01*
X134412158Y-113728263D01*
X134463474Y-113676948D01*
X134549000Y-113625631D01*
X134600316Y-113608527D01*
X134668737Y-113608527D01*
X134737157Y-113642737D01*
X134771368Y-113676948D01*
X134805579Y-113745369D01*
X134805579Y-113779579D01*
X135164788Y-114070368D02*
X134993736Y-113899316D01*
X134805579Y-114053263D01*
X134839789Y-114053263D01*
X134891105Y-114070368D01*
X134976632Y-114155894D01*
X134993737Y-114207211D01*
X134993737Y-114241420D01*
X134976632Y-114292737D01*
X134891105Y-114378263D01*
X134839789Y-114395368D01*
X134805579Y-114395368D01*
X134754263Y-114378263D01*
X134668736Y-114292737D01*
X134651631Y-114241420D01*
X134651631Y-114207211D01*
X135370052Y-114515105D02*
X135130579Y-114754579D01*
X135421368Y-114292737D02*
X135079263Y-114463789D01*
X135301631Y-114686157D01*
X137054789Y-110768368D02*
X137020579Y-110768368D01*
X136952157Y-110734158D01*
X136917947Y-110699947D01*
X136883737Y-110631526D01*
X136883737Y-110563105D01*
X136900842Y-110511789D01*
X136952158Y-110426263D01*
X137003474Y-110374948D01*
X137089000Y-110323631D01*
X137140316Y-110306527D01*
X137208737Y-110306527D01*
X137277157Y-110340737D01*
X137311368Y-110374948D01*
X137345579Y-110443369D01*
X137345579Y-110477579D01*
X137704788Y-110768368D02*
X137533736Y-110597316D01*
X137345579Y-110751263D01*
X137379789Y-110751263D01*
X137431105Y-110768368D01*
X137516632Y-110853894D01*
X137533737Y-110905211D01*
X137533737Y-110939420D01*
X137516632Y-110990737D01*
X137431105Y-111076263D01*
X137379789Y-111093368D01*
X137345579Y-111093368D01*
X137294263Y-111076263D01*
X137208736Y-110990737D01*
X137191631Y-110939420D01*
X137191631Y-110905211D01*
X138029789Y-111093369D02*
X137961368Y-111024948D01*
X137910052Y-111007842D01*
X137875842Y-111007841D01*
X137790315Y-111024947D01*
X137704789Y-111076263D01*
X137567947Y-111213105D01*
X137550841Y-111264421D01*
X137550842Y-111298631D01*
X137567947Y-111349947D01*
X137636368Y-111418369D01*
X137687684Y-111435473D01*
X137721894Y-111435473D01*
X137773210Y-111418369D01*
X137858737Y-111332842D01*
X137875842Y-111281526D01*
X137875842Y-111247316D01*
X137858737Y-111196000D01*
X137790316Y-111127579D01*
X137739000Y-111110474D01*
X137704789Y-111110473D01*
X137653474Y-111127579D01*
X138835368Y-113135211D02*
X138835368Y-113169421D01*
X138801158Y-113237843D01*
X138766947Y-113272053D01*
X138698526Y-113306263D01*
X138630105Y-113306263D01*
X138578789Y-113289158D01*
X138493263Y-113237842D01*
X138441948Y-113186526D01*
X138390631Y-113101000D01*
X138373527Y-113049684D01*
X138373527Y-112981263D01*
X138407737Y-112912843D01*
X138441948Y-112878632D01*
X138510369Y-112844421D01*
X138544579Y-112844421D01*
X138835368Y-112485212D02*
X138664316Y-112656264D01*
X138818263Y-112844421D01*
X138818263Y-112810211D01*
X138835368Y-112758895D01*
X138920894Y-112673368D01*
X138972211Y-112656263D01*
X139006420Y-112656263D01*
X139057737Y-112673368D01*
X139143263Y-112758895D01*
X139160368Y-112810211D01*
X139160368Y-112844421D01*
X139143263Y-112895737D01*
X139057737Y-112981264D01*
X139006420Y-112998369D01*
X138972211Y-112998369D01*
X138972211Y-112348369D02*
X139211684Y-112108896D01*
X139416947Y-112622053D01*
X140945810Y-75510572D02*
X140703905Y-75679905D01*
X140945810Y-75800858D02*
X140437810Y-75800858D01*
X140437810Y-75607334D01*
X140462000Y-75558953D01*
X140486190Y-75534762D01*
X140534571Y-75510572D01*
X140607143Y-75510572D01*
X140655524Y-75534762D01*
X140679714Y-75558953D01*
X140703905Y-75607334D01*
X140703905Y-75800858D01*
X140486190Y-75317048D02*
X140462000Y-75292858D01*
X140437810Y-75244477D01*
X140437810Y-75123524D01*
X140462000Y-75075143D01*
X140486190Y-75050953D01*
X140534571Y-75026762D01*
X140582952Y-75026762D01*
X140655524Y-75050953D01*
X140945810Y-75341239D01*
X140945810Y-75026762D01*
X140437810Y-74857429D02*
X140437810Y-74518762D01*
X140945810Y-74736476D01*
X140564810Y-82114572D02*
X140322905Y-82283905D01*
X140564810Y-82404858D02*
X140056810Y-82404858D01*
X140056810Y-82211334D01*
X140081000Y-82162953D01*
X140105190Y-82138762D01*
X140153571Y-82114572D01*
X140226143Y-82114572D01*
X140274524Y-82138762D01*
X140298714Y-82162953D01*
X140322905Y-82211334D01*
X140322905Y-82404858D01*
X140105190Y-81921048D02*
X140081000Y-81896858D01*
X140056810Y-81848477D01*
X140056810Y-81727524D01*
X140081000Y-81679143D01*
X140105190Y-81654953D01*
X140153571Y-81630762D01*
X140201952Y-81630762D01*
X140274524Y-81654953D01*
X140564810Y-81945239D01*
X140564810Y-81630762D01*
X140274524Y-81340476D02*
X140250333Y-81388857D01*
X140226143Y-81413048D01*
X140177762Y-81437238D01*
X140153571Y-81437238D01*
X140105190Y-81413048D01*
X140081000Y-81388857D01*
X140056810Y-81340476D01*
X140056810Y-81243714D01*
X140081000Y-81195333D01*
X140105190Y-81171143D01*
X140153571Y-81146952D01*
X140177762Y-81146952D01*
X140226143Y-81171143D01*
X140250333Y-81195333D01*
X140274524Y-81243714D01*
X140274524Y-81340476D01*
X140298714Y-81388857D01*
X140322905Y-81413048D01*
X140371286Y-81437238D01*
X140468048Y-81437238D01*
X140516429Y-81413048D01*
X140540619Y-81388857D01*
X140564810Y-81340476D01*
X140564810Y-81243714D01*
X140540619Y-81195333D01*
X140516429Y-81171143D01*
X140468048Y-81146952D01*
X140371286Y-81146952D01*
X140322905Y-81171143D01*
X140298714Y-81195333D01*
X140274524Y-81243714D01*
X146739428Y-83366429D02*
X146715238Y-83390619D01*
X146642666Y-83414810D01*
X146594285Y-83414810D01*
X146521714Y-83390619D01*
X146473333Y-83342238D01*
X146449142Y-83293857D01*
X146424952Y-83197095D01*
X146424952Y-83124524D01*
X146449142Y-83027762D01*
X146473333Y-82979381D01*
X146521714Y-82931000D01*
X146594285Y-82906810D01*
X146642666Y-82906810D01*
X146715238Y-82931000D01*
X146739428Y-82955190D01*
X147174857Y-83076143D02*
X147174857Y-83414810D01*
X147053904Y-82882619D02*
X146932952Y-83245476D01*
X147247428Y-83245476D01*
X147658667Y-82906810D02*
X147561905Y-82906810D01*
X147513524Y-82931000D01*
X147489333Y-82955190D01*
X147440952Y-83027762D01*
X147416762Y-83124524D01*
X147416762Y-83318048D01*
X147440952Y-83366429D01*
X147465143Y-83390619D01*
X147513524Y-83414810D01*
X147610286Y-83414810D01*
X147658667Y-83390619D01*
X147682857Y-83366429D01*
X147707048Y-83318048D01*
X147707048Y-83197095D01*
X147682857Y-83148714D01*
X147658667Y-83124524D01*
X147610286Y-83100333D01*
X147513524Y-83100333D01*
X147465143Y-83124524D01*
X147440952Y-83148714D01*
X147416762Y-83197095D01*
X168329428Y-83366429D02*
X168305238Y-83390619D01*
X168232666Y-83414810D01*
X168184285Y-83414810D01*
X168111714Y-83390619D01*
X168063333Y-83342238D01*
X168039142Y-83293857D01*
X168014952Y-83197095D01*
X168014952Y-83124524D01*
X168039142Y-83027762D01*
X168063333Y-82979381D01*
X168111714Y-82931000D01*
X168184285Y-82906810D01*
X168232666Y-82906810D01*
X168305238Y-82931000D01*
X168329428Y-82955190D01*
X168764857Y-83076143D02*
X168764857Y-83414810D01*
X168643904Y-82882619D02*
X168522952Y-83245476D01*
X168837428Y-83245476D01*
X168982571Y-82906810D02*
X169321238Y-82906810D01*
X169103524Y-83414810D01*
X123450047Y-64999810D02*
X123450047Y-64491810D01*
X123571000Y-64491810D01*
X123643571Y-64516000D01*
X123691952Y-64564381D01*
X123716143Y-64612762D01*
X123740333Y-64709524D01*
X123740333Y-64782095D01*
X123716143Y-64878857D01*
X123691952Y-64927238D01*
X123643571Y-64975619D01*
X123571000Y-64999810D01*
X123450047Y-64999810D01*
X124175762Y-64661143D02*
X124175762Y-64999810D01*
X124054809Y-64467619D02*
X123933857Y-64830476D01*
X124248333Y-64830476D01*
%LPC*%
D17*
X117983000Y-105984040D03*
D18*
X117983000Y-101981000D03*
X117983000Y-103982520D03*
D19*
X133453000Y-83947000D03*
X130453000Y-83947000D03*
D10*
G36*
X136738992Y-107576180D02*
X136136820Y-106974008D01*
X136774348Y-106336480D01*
X137376520Y-106938652D01*
X136738992Y-107576180D01*
X136738992Y-107576180D01*
G37*
G36*
X137799652Y-106515520D02*
X137197480Y-105913348D01*
X137835008Y-105275820D01*
X138437180Y-105877992D01*
X137799652Y-106515520D01*
X137799652Y-106515520D01*
G37*
G36*
X134579992Y-105544180D02*
X133977820Y-104942008D01*
X134615348Y-104304480D01*
X135217520Y-104906652D01*
X134579992Y-105544180D01*
X134579992Y-105544180D01*
G37*
G36*
X135640652Y-104483520D02*
X135038480Y-103881348D01*
X135676008Y-103243820D01*
X136278180Y-103845992D01*
X135640652Y-104483520D01*
X135640652Y-104483520D01*
G37*
G36*
X136659909Y-104312853D02*
X137368147Y-105021091D01*
X136942751Y-105446487D01*
X136234513Y-104738249D01*
X136659909Y-104312853D01*
X136659909Y-104312853D01*
G37*
G36*
X135599249Y-105373513D02*
X136307487Y-106081751D01*
X135882091Y-106507147D01*
X135173853Y-105798909D01*
X135599249Y-105373513D01*
X135599249Y-105373513D01*
G37*
D20*
X136080500Y-76852780D03*
X136080500Y-76352400D03*
X136080500Y-75852020D03*
X136080500Y-75351640D03*
X136080500Y-74851260D03*
X136080500Y-74353420D03*
X136080500Y-73853040D03*
X136080500Y-73352660D03*
X136080500Y-72852280D03*
X136080500Y-72351900D03*
X136080500Y-71851520D03*
X136080500Y-81351120D03*
X136080500Y-80853280D03*
X136080500Y-80352900D03*
X128079500Y-75852020D03*
X136080500Y-79352140D03*
X136080500Y-78851760D03*
X136080500Y-78351380D03*
X136080500Y-77853540D03*
X136080500Y-77353160D03*
X128079500Y-73352660D03*
X128079500Y-73853040D03*
X128079500Y-74353420D03*
X128079500Y-74851260D03*
X128079500Y-75351640D03*
X136080500Y-79852520D03*
X128079500Y-76352400D03*
X128079500Y-76852780D03*
X128079500Y-77353160D03*
X128079500Y-77853540D03*
X128079500Y-78351380D03*
X128079500Y-78851760D03*
X128079500Y-79352140D03*
X128079500Y-67853560D03*
X128079500Y-68351400D03*
X128079500Y-68851780D03*
X128079500Y-69352160D03*
X128079500Y-69852540D03*
X128079500Y-70352920D03*
X128079500Y-70853300D03*
X128079500Y-71351140D03*
X128079500Y-71851520D03*
X128079500Y-72351900D03*
X128079500Y-72852280D03*
X128079500Y-79852520D03*
X128079500Y-80352900D03*
X128079500Y-80853280D03*
X128079500Y-81351120D03*
X136080500Y-71351140D03*
X136080500Y-70853300D03*
X136080500Y-70352920D03*
X136080500Y-69852540D03*
X136080500Y-69352160D03*
X136080500Y-68851780D03*
X136080500Y-68351400D03*
X136080500Y-67853560D03*
D21*
X132080000Y-74549000D03*
D10*
G36*
X133865909Y-107995853D02*
X134574147Y-108704091D01*
X134148751Y-109129487D01*
X133440513Y-108421249D01*
X133865909Y-107995853D01*
X133865909Y-107995853D01*
G37*
G36*
X132805249Y-109056513D02*
X133513487Y-109764751D01*
X133088091Y-110190147D01*
X132379853Y-109481909D01*
X132805249Y-109056513D01*
X132805249Y-109056513D01*
G37*
G36*
X134660008Y-102100820D02*
X135262180Y-102702992D01*
X134624652Y-103340520D01*
X134022480Y-102738348D01*
X134660008Y-102100820D01*
X134660008Y-102100820D01*
G37*
G36*
X133599348Y-103161480D02*
X134201520Y-103763652D01*
X133563992Y-104401180D01*
X132961820Y-103799008D01*
X133599348Y-103161480D01*
X133599348Y-103161480D01*
G37*
D22*
X166334000Y-76241000D03*
D23*
X167734000Y-75666000D03*
X167734000Y-76816000D03*
X170534000Y-76816000D03*
X170534000Y-75666000D03*
X167734000Y-74516000D03*
X170534000Y-74516000D03*
X167734000Y-77966000D03*
X170534000Y-77966000D03*
D24*
X164084000Y-76241000D03*
X164084000Y-74041000D03*
X164084000Y-78441000D03*
X173384000Y-76241000D03*
X173384000Y-78441000D03*
X173384000Y-74041000D03*
D25*
X170393000Y-67473000D03*
D26*
X169818000Y-66073000D03*
X170968000Y-66073000D03*
X170968000Y-63273000D03*
X169818000Y-63273000D03*
X168668000Y-66073000D03*
X168668000Y-63273000D03*
X172118000Y-66073000D03*
X172118000Y-63273000D03*
D27*
X170393000Y-69723000D03*
X168193000Y-69723000D03*
X172593000Y-69723000D03*
X170393000Y-60423000D03*
X172593000Y-60423000D03*
X168193000Y-60423000D03*
D22*
X144334000Y-76200000D03*
D23*
X145734000Y-75625000D03*
X145734000Y-76775000D03*
X148534000Y-76775000D03*
X148534000Y-75625000D03*
X145734000Y-74475000D03*
X148534000Y-74475000D03*
X145734000Y-77925000D03*
X148534000Y-77925000D03*
D24*
X142084000Y-76200000D03*
X142084000Y-74000000D03*
X142084000Y-78400000D03*
X151384000Y-76200000D03*
X151384000Y-78400000D03*
X151384000Y-74000000D03*
D28*
X151257000Y-58039000D03*
X163830000Y-58039000D03*
D10*
G36*
X136225147Y-110370909D02*
X135516909Y-111079147D01*
X135091513Y-110653751D01*
X135799751Y-109945513D01*
X136225147Y-110370909D01*
X136225147Y-110370909D01*
G37*
G36*
X135164487Y-109310249D02*
X134456249Y-110018487D01*
X134030853Y-109593091D01*
X134739091Y-108884853D01*
X135164487Y-109310249D01*
X135164487Y-109310249D01*
G37*
G36*
X132961091Y-112196747D02*
X132252853Y-111488509D01*
X132678249Y-111063113D01*
X133386487Y-111771351D01*
X132961091Y-112196747D01*
X132961091Y-112196747D01*
G37*
G36*
X134021751Y-111136087D02*
X133313513Y-110427849D01*
X133738909Y-110002453D01*
X134447147Y-110710691D01*
X134021751Y-111136087D01*
X134021751Y-111136087D01*
G37*
D29*
X123256040Y-110363000D03*
D30*
X119253000Y-110363000D03*
X121254520Y-110363000D03*
X117254020Y-110363000D03*
D29*
X127093980Y-58039000D03*
D30*
X131097020Y-58039000D03*
X129095500Y-58039000D03*
X133096000Y-58039000D03*
X135097520Y-58039000D03*
X137099040Y-58039000D03*
D18*
X118003300Y-81459440D03*
X118003300Y-83458420D03*
X118003300Y-85459940D03*
D17*
X118003300Y-93466020D03*
D18*
X118003300Y-89462980D03*
X118003300Y-91464500D03*
X118003300Y-87464000D03*
X118003300Y-79460460D03*
D17*
X117983000Y-74930000D03*
D18*
X117983000Y-70926960D03*
X117983000Y-72928480D03*
X117983000Y-68927980D03*
X117983000Y-66926460D03*
D31*
X123946000Y-99916500D03*
X123296000Y-99916500D03*
X122646000Y-99916500D03*
X121996000Y-99916500D03*
X121996000Y-103016500D03*
X122646000Y-103016500D03*
X123296000Y-103016500D03*
X123946000Y-103016500D03*
D32*
X122371000Y-101854000D03*
X123571000Y-101854000D03*
X122371000Y-101079000D03*
X123571000Y-101079000D03*
D10*
G36*
X130326640Y-104431400D02*
X130610614Y-104147426D01*
X131198644Y-104735456D01*
X130914670Y-105019430D01*
X130326640Y-104431400D01*
X130326640Y-104431400D01*
G37*
G36*
X129973087Y-104784954D02*
X130257061Y-104500980D01*
X130845091Y-105089010D01*
X130561117Y-105372984D01*
X129973087Y-104784954D01*
X129973087Y-104784954D01*
G37*
G36*
X129619533Y-105138507D02*
X129903507Y-104854533D01*
X130491537Y-105442563D01*
X130207563Y-105726537D01*
X129619533Y-105138507D01*
X129619533Y-105138507D01*
G37*
G36*
X129265980Y-105492061D02*
X129549954Y-105208087D01*
X130137984Y-105796117D01*
X129854010Y-106080091D01*
X129265980Y-105492061D01*
X129265980Y-105492061D01*
G37*
G36*
X128912426Y-105845614D02*
X129196400Y-105561640D01*
X129784430Y-106149670D01*
X129500456Y-106433644D01*
X128912426Y-105845614D01*
X128912426Y-105845614D01*
G37*
G36*
X129196400Y-107798360D02*
X128912426Y-107514386D01*
X129500456Y-106926356D01*
X129784430Y-107210330D01*
X129196400Y-107798360D01*
X129196400Y-107798360D01*
G37*
G36*
X129549954Y-108151913D02*
X129265980Y-107867939D01*
X129854010Y-107279909D01*
X130137984Y-107563883D01*
X129549954Y-108151913D01*
X129549954Y-108151913D01*
G37*
G36*
X129903507Y-108505467D02*
X129619533Y-108221493D01*
X130207563Y-107633463D01*
X130491537Y-107917437D01*
X129903507Y-108505467D01*
X129903507Y-108505467D01*
G37*
G36*
X130257061Y-108859020D02*
X129973087Y-108575046D01*
X130561117Y-107987016D01*
X130845091Y-108270990D01*
X130257061Y-108859020D01*
X130257061Y-108859020D01*
G37*
G36*
X130610614Y-109212574D02*
X130326640Y-108928600D01*
X130914670Y-108340570D01*
X131198644Y-108624544D01*
X130610614Y-109212574D01*
X130610614Y-109212574D01*
G37*
G36*
X131691356Y-108624544D02*
X131975330Y-108340570D01*
X132563360Y-108928600D01*
X132279386Y-109212574D01*
X131691356Y-108624544D01*
X131691356Y-108624544D01*
G37*
G36*
X132044909Y-108270990D02*
X132328883Y-107987016D01*
X132916913Y-108575046D01*
X132632939Y-108859020D01*
X132044909Y-108270990D01*
X132044909Y-108270990D01*
G37*
G36*
X132398463Y-107917437D02*
X132682437Y-107633463D01*
X133270467Y-108221493D01*
X132986493Y-108505467D01*
X132398463Y-107917437D01*
X132398463Y-107917437D01*
G37*
G36*
X132752016Y-107563883D02*
X133035990Y-107279909D01*
X133624020Y-107867939D01*
X133340046Y-108151913D01*
X132752016Y-107563883D01*
X132752016Y-107563883D01*
G37*
G36*
X133105570Y-107210330D02*
X133389544Y-106926356D01*
X133977574Y-107514386D01*
X133693600Y-107798360D01*
X133105570Y-107210330D01*
X133105570Y-107210330D01*
G37*
G36*
X133389544Y-106433644D02*
X133105570Y-106149670D01*
X133693600Y-105561640D01*
X133977574Y-105845614D01*
X133389544Y-106433644D01*
X133389544Y-106433644D01*
G37*
G36*
X133035990Y-106080091D02*
X132752016Y-105796117D01*
X133340046Y-105208087D01*
X133624020Y-105492061D01*
X133035990Y-106080091D01*
X133035990Y-106080091D01*
G37*
G36*
X132682437Y-105726537D02*
X132398463Y-105442563D01*
X132986493Y-104854533D01*
X133270467Y-105138507D01*
X132682437Y-105726537D01*
X132682437Y-105726537D01*
G37*
G36*
X132328883Y-105372984D02*
X132044909Y-105089010D01*
X132632939Y-104500980D01*
X132916913Y-104784954D01*
X132328883Y-105372984D01*
X132328883Y-105372984D01*
G37*
G36*
X131975330Y-105019430D02*
X131691356Y-104735456D01*
X132279386Y-104147426D01*
X132563360Y-104431400D01*
X131975330Y-105019430D01*
X131975330Y-105019430D01*
G37*
G36*
X130489274Y-107563883D02*
X131445000Y-106608157D01*
X132400726Y-107563883D01*
X131445000Y-108519609D01*
X130489274Y-107563883D01*
X130489274Y-107563883D01*
G37*
G36*
X131373157Y-106680000D02*
X132328883Y-105724274D01*
X133284609Y-106680000D01*
X132328883Y-107635726D01*
X131373157Y-106680000D01*
X131373157Y-106680000D01*
G37*
G36*
X129605391Y-106680000D02*
X130561117Y-105724274D01*
X131516843Y-106680000D01*
X130561117Y-107635726D01*
X129605391Y-106680000D01*
X129605391Y-106680000D01*
G37*
G36*
X130489274Y-105796117D02*
X131445000Y-104840391D01*
X132400726Y-105796117D01*
X131445000Y-106751843D01*
X130489274Y-105796117D01*
X130489274Y-105796117D01*
G37*
D33*
X118896000Y-59487000D03*
X121896000Y-59487000D03*
D25*
X145087000Y-67567000D03*
D26*
X144512000Y-66167000D03*
X145662000Y-66167000D03*
X145662000Y-63367000D03*
X144512000Y-63367000D03*
X143362000Y-66167000D03*
X143362000Y-63367000D03*
X146812000Y-66167000D03*
X146812000Y-63367000D03*
D27*
X145087000Y-69817000D03*
X142887000Y-69817000D03*
X147287000Y-69817000D03*
X145087000Y-60517000D03*
X147287000Y-60517000D03*
X142887000Y-60517000D03*
D22*
X155321000Y-76200000D03*
D23*
X156721000Y-75625000D03*
X156721000Y-76775000D03*
X159521000Y-76775000D03*
X159521000Y-75625000D03*
X156721000Y-74475000D03*
X159521000Y-74475000D03*
X156721000Y-77925000D03*
X159521000Y-77925000D03*
D24*
X153071000Y-76200000D03*
X153071000Y-74000000D03*
X153071000Y-78400000D03*
X162371000Y-76200000D03*
X162371000Y-78400000D03*
X162371000Y-74000000D03*
D25*
X157406000Y-67567000D03*
D26*
X156831000Y-66167000D03*
X157981000Y-66167000D03*
X157981000Y-63367000D03*
X156831000Y-63367000D03*
X155681000Y-66167000D03*
X155681000Y-63367000D03*
X159131000Y-66167000D03*
X159131000Y-63367000D03*
D27*
X157406000Y-69817000D03*
X155206000Y-69817000D03*
X159606000Y-69817000D03*
X157406000Y-60517000D03*
X159606000Y-60517000D03*
X155206000Y-60517000D03*
D34*
X126492000Y-107684000D03*
X126492000Y-113284000D03*
D35*
X128642000Y-110484000D03*
D36*
X120543000Y-83738000D03*
X121043000Y-83738000D03*
X121543000Y-83738000D03*
X122043000Y-83738000D03*
X122543000Y-83738000D03*
X123043000Y-83738000D03*
D37*
X123743000Y-83038000D03*
X123743000Y-82538000D03*
X123743000Y-82038000D03*
X123743000Y-81538000D03*
X123743000Y-81038000D03*
X123743000Y-80538000D03*
D36*
X123043000Y-79838000D03*
X122543000Y-79838000D03*
X122043000Y-79838000D03*
X121543000Y-79838000D03*
X121043000Y-79838000D03*
X120543000Y-79838000D03*
D37*
X119843000Y-80538000D03*
X119843000Y-81038000D03*
X119843000Y-81538000D03*
X119843000Y-82038000D03*
X119843000Y-82538000D03*
X119843000Y-83038000D03*
D38*
X151384000Y-65786000D03*
X163703000Y-65786000D03*
D39*
X133120000Y-100266500D03*
X134620000Y-100266500D03*
D40*
X123888500Y-90285000D03*
X123888500Y-88785000D03*
X127762000Y-85840000D03*
X127762000Y-84340000D03*
X120142000Y-91174000D03*
X120142000Y-89674000D03*
D39*
X123265500Y-98044000D03*
X124765500Y-98044000D03*
D40*
X138811000Y-88162000D03*
X138811000Y-89662000D03*
D39*
X124244800Y-72974200D03*
X122744800Y-72974200D03*
X124244800Y-74422000D03*
X122744800Y-74422000D03*
X125870400Y-70104000D03*
X124370400Y-70104000D03*
D40*
X125222000Y-78728000D03*
X125222000Y-77228000D03*
D39*
X124345000Y-67183000D03*
X125845000Y-67183000D03*
D40*
X125984000Y-74561000D03*
X125984000Y-76061000D03*
X126619000Y-80923000D03*
X126619000Y-82423000D03*
D39*
X140323000Y-63754000D03*
X138823000Y-63754000D03*
D40*
X137922000Y-71640000D03*
X137922000Y-73140000D03*
X137922000Y-74180000D03*
X137922000Y-75680000D03*
X137922000Y-76669200D03*
X137922000Y-78169200D03*
D39*
X140069000Y-70231000D03*
X138569000Y-70231000D03*
X137299000Y-62230000D03*
X138799000Y-62230000D03*
D40*
X120396000Y-97802000D03*
X120396000Y-99302000D03*
X120446800Y-102172200D03*
X120446800Y-100672200D03*
D39*
X124130500Y-87122000D03*
X122630500Y-87122000D03*
D10*
G36*
X128183008Y-107815820D02*
X128785180Y-108417992D01*
X128147652Y-109055520D01*
X127545480Y-108453348D01*
X128183008Y-107815820D01*
X128183008Y-107815820D01*
G37*
G36*
X127122348Y-108876480D02*
X127724520Y-109478652D01*
X127086992Y-110116180D01*
X126484820Y-109514008D01*
X127122348Y-108876480D01*
X127122348Y-108876480D01*
G37*
D39*
X135317800Y-56083200D03*
X136817800Y-56083200D03*
D40*
X124968000Y-82157000D03*
X124968000Y-80657000D03*
X119634000Y-76847000D03*
X119634000Y-78347000D03*
D39*
X122416000Y-78486000D03*
X120916000Y-78486000D03*
X121146000Y-85217000D03*
X119646000Y-85217000D03*
D40*
X124968000Y-83324000D03*
X124968000Y-84824000D03*
D41*
X122732800Y-71108000D03*
X122732800Y-69608000D03*
X122732800Y-68517200D03*
X122732800Y-67017200D03*
D42*
X124370400Y-68630800D03*
X125870400Y-68630800D03*
X124370400Y-71577200D03*
X125870400Y-71577200D03*
X124345000Y-65735200D03*
X125845000Y-65735200D03*
X119519000Y-108204000D03*
X121019000Y-108204000D03*
X134100000Y-56134000D03*
X132600000Y-56134000D03*
X124579300Y-56305700D03*
X123079300Y-56305700D03*
X124575000Y-57912000D03*
X123075000Y-57912000D03*
X124575000Y-59563000D03*
X123075000Y-59563000D03*
D43*
X138811000Y-68556000D03*
X138811000Y-65556000D03*
D44*
X130167000Y-62103000D03*
X133477000Y-62103000D03*
D10*
G36*
X116702299Y-61934336D02*
X115357664Y-60589701D01*
X117197273Y-58750092D01*
X118541908Y-60094727D01*
X116702299Y-61934336D01*
X116702299Y-61934336D01*
G37*
G36*
X119530727Y-59105908D02*
X118186092Y-57761273D01*
X120025701Y-55921664D01*
X121370336Y-57266299D01*
X119530727Y-59105908D01*
X119530727Y-59105908D01*
G37*
D45*
X137182000Y-60198000D03*
X139932000Y-60198000D03*
D10*
G36*
X132373340Y-113113736D02*
X132798736Y-112688340D01*
X133294842Y-113184446D01*
X132869446Y-113609842D01*
X132373340Y-113113736D01*
X132373340Y-113113736D01*
G37*
G36*
X133151158Y-113891554D02*
X133576554Y-113466158D01*
X134072660Y-113962264D01*
X133647264Y-114387660D01*
X133151158Y-113891554D01*
X133151158Y-113891554D01*
G37*
G36*
X133135340Y-112351736D02*
X133560736Y-111926340D01*
X134056842Y-112422446D01*
X133631446Y-112847842D01*
X133135340Y-112351736D01*
X133135340Y-112351736D01*
G37*
G36*
X133913158Y-113129554D02*
X134338554Y-112704158D01*
X134834660Y-113200264D01*
X134409264Y-113625660D01*
X133913158Y-113129554D01*
X133913158Y-113129554D01*
G37*
G36*
X137628660Y-111930264D02*
X137203264Y-112355660D01*
X136707158Y-111859554D01*
X137132554Y-111434158D01*
X137628660Y-111930264D01*
X137628660Y-111930264D01*
G37*
G36*
X136850842Y-111152446D02*
X136425446Y-111577842D01*
X135929340Y-111081736D01*
X136354736Y-110656340D01*
X136850842Y-111152446D01*
X136850842Y-111152446D01*
G37*
G36*
X137751736Y-112990660D02*
X137326340Y-112565264D01*
X137822446Y-112069158D01*
X138247842Y-112494554D01*
X137751736Y-112990660D01*
X137751736Y-112990660D01*
G37*
G36*
X138529554Y-112212842D02*
X138104158Y-111787446D01*
X138600264Y-111291340D01*
X139025660Y-111716736D01*
X138529554Y-112212842D01*
X138529554Y-112212842D01*
G37*
D41*
X140335000Y-76339000D03*
X140335000Y-77839000D03*
X140335000Y-79133000D03*
X140335000Y-80633000D03*
D46*
X157734000Y-83947000D03*
D47*
X144300000Y-81900000D03*
D48*
X149300000Y-81900000D03*
D47*
X171200000Y-81900000D03*
D48*
X166200000Y-81900000D03*
D49*
X125173000Y-62865000D03*
X122223000Y-62865000D03*
D50*
G36*
X153289000Y-79756000D02*
X153299006Y-79805410D01*
X153331853Y-79851123D01*
X156537432Y-82686827D01*
X155439700Y-83894331D01*
X151130000Y-79954034D01*
X151130000Y-73279000D01*
X153289000Y-73279000D01*
X153289000Y-79756000D01*
X153289000Y-79756000D01*
G37*
X153289000Y-79756000D02*
X153299006Y-79805410D01*
X153331853Y-79851123D01*
X156537432Y-82686827D01*
X155439700Y-83894331D01*
X151130000Y-79954034D01*
X151130000Y-73279000D01*
X153289000Y-73279000D01*
X153289000Y-79756000D01*
G36*
X164592000Y-79950298D02*
X160295618Y-83510157D01*
X159303485Y-82187313D01*
X162135335Y-79724835D01*
X162166054Y-79684863D01*
X162179000Y-79629000D01*
X162179000Y-73279000D01*
X164592000Y-73279000D01*
X164592000Y-79950298D01*
X164592000Y-79950298D01*
G37*
X164592000Y-79950298D02*
X160295618Y-83510157D01*
X159303485Y-82187313D01*
X162135335Y-79724835D01*
X162166054Y-79684863D01*
X162179000Y-79629000D01*
X162179000Y-73279000D01*
X164592000Y-73279000D01*
X164592000Y-79950298D01*
M02*
