%TF.GenerationSoftware,KiCad,Pcbnew,4.0.7*%
%TF.CreationDate,2018-04-27T13:56:46+08:00*%
%TF.ProjectId,VESC_6,564553435F362E6B696361645F706362,rev?*%
%TF.FileFunction,Legend,Top*%
%FSLAX46Y46*%
G04 Gerber Fmt 4.6, Leading zero omitted, Abs format (unit mm)*
G04 Created by KiCad (PCBNEW 4.0.7) date 2018 April 27, Friday 13:56:46*
%MOMM*%
%LPD*%
G01*
G04 APERTURE LIST*
%ADD10C,0.100000*%
%ADD11C,0.203200*%
%ADD12C,0.101600*%
%ADD13C,0.150000*%
%ADD14C,0.127000*%
%ADD15C,0.120000*%
%ADD16C,0.300000*%
%ADD17C,0.152400*%
%ADD18O,0.300000X0.850000*%
%ADD19O,0.850000X0.300000*%
%ADD20R,1.699260X1.198880*%
%ADD21O,1.699260X1.198880*%
%ADD22R,1.000000X2.500000*%
%ADD23R,1.501140X0.299720*%
%ADD24R,3.599180X7.000240*%
%ADD25R,0.700000X1.300000*%
%ADD26R,1.100000X0.850000*%
%ADD27R,1.100000X1.700000*%
%ADD28R,1.300000X0.700000*%
%ADD29R,0.850000X1.100000*%
%ADD30R,1.700000X1.100000*%
%ADD31C,3.000000*%
%ADD32R,1.198880X1.699260*%
%ADD33O,1.198880X1.699260*%
%ADD34R,0.350000X0.650000*%
%ADD35R,1.200000X0.775000*%
%ADD36C,0.900000*%
%ADD37O,1.100000X1.800000*%
%ADD38O,1.100000X2.200000*%
%ADD39R,5.000000X4.000000*%
%ADD40R,0.800000X0.750000*%
%ADD41R,0.750000X0.800000*%
%ADD42R,0.900000X0.500000*%
%ADD43R,0.500000X0.900000*%
%ADD44R,2.500000X1.000000*%
%ADD45R,1.180000X4.700000*%
%ADD46R,1.950000X1.500000*%
%ADD47R,2.400000X2.400000*%
%ADD48C,2.400000*%
%ADD49R,0.304800X1.193800*%
%ADD50R,1.193800X0.304800*%
%ADD51R,2.500000X2.300000*%
%ADD52R,6.000000X5.000000*%
G04 APERTURE END LIST*
D10*
D11*
X153543000Y-81788000D02*
X153543000Y-82804000D01*
X153035000Y-82296000D02*
X154051000Y-82296000D01*
D12*
X138684000Y-58039000D02*
X141097000Y-58039000D01*
X139573000Y-58039000D02*
X139573000Y-57531000D01*
X140335000Y-58039000D02*
X140335000Y-57531000D01*
X138811000Y-58039000D02*
X138811000Y-57531000D01*
X138049000Y-58039000D02*
X138811000Y-58039000D01*
X138811000Y-58039000D02*
X138049000Y-58039000D01*
X141097000Y-58039000D02*
X141097000Y-57531000D01*
X140818810Y-56744809D02*
X141326810Y-56575476D01*
X140818810Y-56406142D01*
X141133286Y-56236809D02*
X141133286Y-55849761D01*
X141326810Y-56043285D02*
X140939762Y-56043285D01*
X140056810Y-57180238D02*
X140056810Y-56889952D01*
X140564810Y-57035095D02*
X140056810Y-57035095D01*
X140298714Y-56720619D02*
X140298714Y-56551285D01*
X140564810Y-56478714D02*
X140564810Y-56720619D01*
X140056810Y-56720619D01*
X140056810Y-56478714D01*
X140564810Y-56261000D02*
X140056810Y-56261000D01*
X140419667Y-56091666D01*
X140056810Y-55922333D01*
X140564810Y-55922333D01*
X140564810Y-55680429D02*
X140056810Y-55680429D01*
X140056810Y-55486905D01*
X140081000Y-55438524D01*
X140105190Y-55414333D01*
X140153571Y-55390143D01*
X140226143Y-55390143D01*
X140274524Y-55414333D01*
X140298714Y-55438524D01*
X140322905Y-55486905D01*
X140322905Y-55680429D01*
X139802810Y-56648048D02*
X139294810Y-56648048D01*
X139536714Y-56648048D02*
X139536714Y-56357762D01*
X139802810Y-56357762D02*
X139294810Y-56357762D01*
X139802810Y-55849762D02*
X139802810Y-56140048D01*
X139802810Y-55994905D02*
X139294810Y-55994905D01*
X139367381Y-56043286D01*
X139415762Y-56091667D01*
X139439952Y-56140048D01*
X139040810Y-56648048D02*
X138532810Y-56648048D01*
X138774714Y-56648048D02*
X138774714Y-56357762D01*
X139040810Y-56357762D02*
X138532810Y-56357762D01*
X138581190Y-56140048D02*
X138557000Y-56115858D01*
X138532810Y-56067477D01*
X138532810Y-55946524D01*
X138557000Y-55898143D01*
X138581190Y-55873953D01*
X138629571Y-55849762D01*
X138677952Y-55849762D01*
X138750524Y-55873953D01*
X139040810Y-56164239D01*
X139040810Y-55849762D01*
X129388810Y-56394048D02*
X128880810Y-56394048D01*
X129122714Y-56394048D02*
X129122714Y-56103762D01*
X129388810Y-56103762D02*
X128880810Y-56103762D01*
X128880810Y-55910239D02*
X128880810Y-55595762D01*
X129074333Y-55765096D01*
X129074333Y-55692524D01*
X129098524Y-55644143D01*
X129122714Y-55619953D01*
X129171095Y-55595762D01*
X129292048Y-55595762D01*
X129340429Y-55619953D01*
X129364619Y-55644143D01*
X129388810Y-55692524D01*
X129388810Y-55837667D01*
X129364619Y-55886048D01*
X129340429Y-55910239D01*
X126873000Y-56394047D02*
X126848810Y-56442428D01*
X126848810Y-56515000D01*
X126873000Y-56587571D01*
X126921381Y-56635952D01*
X126969762Y-56660143D01*
X127066524Y-56684333D01*
X127139095Y-56684333D01*
X127235857Y-56660143D01*
X127284238Y-56635952D01*
X127332619Y-56587571D01*
X127356810Y-56515000D01*
X127356810Y-56466619D01*
X127332619Y-56394047D01*
X127308429Y-56369857D01*
X127139095Y-56369857D01*
X127139095Y-56466619D01*
X127356810Y-56152143D02*
X126848810Y-56152143D01*
X127356810Y-55861857D01*
X126848810Y-55861857D01*
X127356810Y-55619953D02*
X126848810Y-55619953D01*
X126848810Y-55499000D01*
X126873000Y-55426429D01*
X126921381Y-55378048D01*
X126969762Y-55353857D01*
X127066524Y-55329667D01*
X127139095Y-55329667D01*
X127235857Y-55353857D01*
X127284238Y-55378048D01*
X127332619Y-55426429D01*
X127356810Y-55499000D01*
X127356810Y-55619953D01*
X115424857Y-87962619D02*
X115497428Y-87986810D01*
X115618381Y-87986810D01*
X115666762Y-87962619D01*
X115690952Y-87938429D01*
X115715143Y-87890048D01*
X115715143Y-87841667D01*
X115690952Y-87793286D01*
X115666762Y-87769095D01*
X115618381Y-87744905D01*
X115521619Y-87720714D01*
X115473238Y-87696524D01*
X115449047Y-87672333D01*
X115424857Y-87623952D01*
X115424857Y-87575571D01*
X115449047Y-87527190D01*
X115473238Y-87503000D01*
X115521619Y-87478810D01*
X115642571Y-87478810D01*
X115715143Y-87503000D01*
X116223143Y-87938429D02*
X116198953Y-87962619D01*
X116126381Y-87986810D01*
X116078000Y-87986810D01*
X116005429Y-87962619D01*
X115957048Y-87914238D01*
X115932857Y-87865857D01*
X115908667Y-87769095D01*
X115908667Y-87696524D01*
X115932857Y-87599762D01*
X115957048Y-87551381D01*
X116005429Y-87503000D01*
X116078000Y-87478810D01*
X116126381Y-87478810D01*
X116198953Y-87503000D01*
X116223143Y-87527190D01*
X116440857Y-87986810D02*
X116440857Y-87478810D01*
X116731143Y-87986810D02*
X116513429Y-87696524D01*
X116731143Y-87478810D02*
X116440857Y-87769095D01*
X115461143Y-86565619D02*
X115533714Y-86589810D01*
X115654667Y-86589810D01*
X115703048Y-86565619D01*
X115727238Y-86541429D01*
X115751429Y-86493048D01*
X115751429Y-86444667D01*
X115727238Y-86396286D01*
X115703048Y-86372095D01*
X115654667Y-86347905D01*
X115557905Y-86323714D01*
X115509524Y-86299524D01*
X115485333Y-86275333D01*
X115461143Y-86226952D01*
X115461143Y-86178571D01*
X115485333Y-86130190D01*
X115509524Y-86106000D01*
X115557905Y-86081810D01*
X115678857Y-86081810D01*
X115751429Y-86106000D01*
X115969143Y-86589810D02*
X115969143Y-86081810D01*
X116090096Y-86081810D01*
X116162667Y-86106000D01*
X116211048Y-86154381D01*
X116235239Y-86202762D01*
X116259429Y-86299524D01*
X116259429Y-86372095D01*
X116235239Y-86468857D01*
X116211048Y-86517238D01*
X116162667Y-86565619D01*
X116090096Y-86589810D01*
X115969143Y-86589810D01*
X116452953Y-86444667D02*
X116694858Y-86444667D01*
X116404572Y-86589810D02*
X116573905Y-86081810D01*
X116743239Y-86589810D01*
X115449047Y-85319810D02*
X115449047Y-84811810D01*
X115739333Y-85319810D01*
X115739333Y-84811810D01*
X115957047Y-85295619D02*
X116029618Y-85319810D01*
X116150571Y-85319810D01*
X116198952Y-85295619D01*
X116223142Y-85271429D01*
X116247333Y-85223048D01*
X116247333Y-85174667D01*
X116223142Y-85126286D01*
X116198952Y-85102095D01*
X116150571Y-85077905D01*
X116053809Y-85053714D01*
X116005428Y-85029524D01*
X115981237Y-85005333D01*
X115957047Y-84956952D01*
X115957047Y-84908571D01*
X115981237Y-84860190D01*
X116005428Y-84836000D01*
X116053809Y-84811810D01*
X116174761Y-84811810D01*
X116247333Y-84836000D01*
X116440857Y-85295619D02*
X116513428Y-85319810D01*
X116634381Y-85319810D01*
X116682762Y-85295619D01*
X116706952Y-85271429D01*
X116731143Y-85223048D01*
X116731143Y-85174667D01*
X116706952Y-85126286D01*
X116682762Y-85102095D01*
X116634381Y-85077905D01*
X116537619Y-85053714D01*
X116489238Y-85029524D01*
X116465047Y-85005333D01*
X116440857Y-84956952D01*
X116440857Y-84908571D01*
X116465047Y-84860190D01*
X116489238Y-84836000D01*
X116537619Y-84811810D01*
X116658571Y-84811810D01*
X116731143Y-84836000D01*
X115473238Y-84533619D02*
X115545809Y-84557810D01*
X115666762Y-84557810D01*
X115715143Y-84533619D01*
X115739333Y-84509429D01*
X115763524Y-84461048D01*
X115763524Y-84412667D01*
X115739333Y-84364286D01*
X115715143Y-84340095D01*
X115666762Y-84315905D01*
X115570000Y-84291714D01*
X115521619Y-84267524D01*
X115497428Y-84243333D01*
X115473238Y-84194952D01*
X115473238Y-84146571D01*
X115497428Y-84098190D01*
X115521619Y-84074000D01*
X115570000Y-84049810D01*
X115690952Y-84049810D01*
X115763524Y-84074000D01*
X116271524Y-84509429D02*
X116247334Y-84533619D01*
X116174762Y-84557810D01*
X116126381Y-84557810D01*
X116053810Y-84533619D01*
X116005429Y-84485238D01*
X115981238Y-84436857D01*
X115957048Y-84340095D01*
X115957048Y-84267524D01*
X115981238Y-84170762D01*
X116005429Y-84122381D01*
X116053810Y-84074000D01*
X116126381Y-84049810D01*
X116174762Y-84049810D01*
X116247334Y-84074000D01*
X116271524Y-84098190D01*
X116731143Y-84557810D02*
X116489238Y-84557810D01*
X116489238Y-84049810D01*
X115993333Y-83795810D02*
X115824000Y-83553905D01*
X115703047Y-83795810D02*
X115703047Y-83287810D01*
X115896571Y-83287810D01*
X115944952Y-83312000D01*
X115969143Y-83336190D01*
X115993333Y-83384571D01*
X115993333Y-83457143D01*
X115969143Y-83505524D01*
X115944952Y-83529714D01*
X115896571Y-83553905D01*
X115703047Y-83553905D01*
X116162666Y-83287810D02*
X116501333Y-83795810D01*
X116501333Y-83287810D02*
X116162666Y-83795810D01*
X115461143Y-81872667D02*
X115703048Y-81872667D01*
X115412762Y-82017810D02*
X115582095Y-81509810D01*
X115751429Y-82017810D01*
X115920762Y-82017810D02*
X115920762Y-81509810D01*
X116041715Y-81509810D01*
X116114286Y-81534000D01*
X116162667Y-81582381D01*
X116186858Y-81630762D01*
X116211048Y-81727524D01*
X116211048Y-81800095D01*
X116186858Y-81896857D01*
X116162667Y-81945238D01*
X116114286Y-81993619D01*
X116041715Y-82017810D01*
X115920762Y-82017810D01*
X116404572Y-81558190D02*
X116428762Y-81534000D01*
X116477143Y-81509810D01*
X116598096Y-81509810D01*
X116646477Y-81534000D01*
X116670667Y-81558190D01*
X116694858Y-81606571D01*
X116694858Y-81654952D01*
X116670667Y-81727524D01*
X116380381Y-82017810D01*
X116694858Y-82017810D01*
X127229810Y-112401048D02*
X127641048Y-112401048D01*
X127689429Y-112376857D01*
X127713619Y-112352667D01*
X127737810Y-112304286D01*
X127737810Y-112207524D01*
X127713619Y-112159143D01*
X127689429Y-112134952D01*
X127641048Y-112110762D01*
X127229810Y-112110762D01*
X127713619Y-111893048D02*
X127737810Y-111820477D01*
X127737810Y-111699524D01*
X127713619Y-111651143D01*
X127689429Y-111626953D01*
X127641048Y-111602762D01*
X127592667Y-111602762D01*
X127544286Y-111626953D01*
X127520095Y-111651143D01*
X127495905Y-111699524D01*
X127471714Y-111796286D01*
X127447524Y-111844667D01*
X127423333Y-111868858D01*
X127374952Y-111893048D01*
X127326571Y-111893048D01*
X127278190Y-111868858D01*
X127254000Y-111844667D01*
X127229810Y-111796286D01*
X127229810Y-111675334D01*
X127254000Y-111602762D01*
X127471714Y-111215714D02*
X127495905Y-111143143D01*
X127520095Y-111118952D01*
X127568476Y-111094762D01*
X127641048Y-111094762D01*
X127689429Y-111118952D01*
X127713619Y-111143143D01*
X127737810Y-111191524D01*
X127737810Y-111385048D01*
X127229810Y-111385048D01*
X127229810Y-111215714D01*
X127254000Y-111167333D01*
X127278190Y-111143143D01*
X127326571Y-111118952D01*
X127374952Y-111118952D01*
X127423333Y-111143143D01*
X127447524Y-111167333D01*
X127471714Y-111215714D01*
X127471714Y-111385048D01*
X123063000Y-113290047D02*
X123038810Y-113338428D01*
X123038810Y-113411000D01*
X123063000Y-113483571D01*
X123111381Y-113531952D01*
X123159762Y-113556143D01*
X123256524Y-113580333D01*
X123329095Y-113580333D01*
X123425857Y-113556143D01*
X123474238Y-113531952D01*
X123522619Y-113483571D01*
X123546810Y-113411000D01*
X123546810Y-113362619D01*
X123522619Y-113290047D01*
X123498429Y-113265857D01*
X123329095Y-113265857D01*
X123329095Y-113362619D01*
X123546810Y-113048143D02*
X123038810Y-113048143D01*
X123546810Y-112757857D01*
X123038810Y-112757857D01*
X123546810Y-112515953D02*
X123038810Y-112515953D01*
X123038810Y-112395000D01*
X123063000Y-112322429D01*
X123111381Y-112274048D01*
X123159762Y-112249857D01*
X123256524Y-112225667D01*
X123329095Y-112225667D01*
X123425857Y-112249857D01*
X123474238Y-112274048D01*
X123522619Y-112322429D01*
X123546810Y-112395000D01*
X123546810Y-112515953D01*
X121466429Y-113435190D02*
X121490619Y-113459380D01*
X121514810Y-113531952D01*
X121514810Y-113580333D01*
X121490619Y-113652904D01*
X121442238Y-113701285D01*
X121393857Y-113725476D01*
X121297095Y-113749666D01*
X121224524Y-113749666D01*
X121127762Y-113725476D01*
X121079381Y-113701285D01*
X121031000Y-113652904D01*
X121006810Y-113580333D01*
X121006810Y-113531952D01*
X121031000Y-113459380D01*
X121055190Y-113435190D01*
X121369667Y-113241666D02*
X121369667Y-112999761D01*
X121514810Y-113290047D02*
X121006810Y-113120714D01*
X121514810Y-112951380D01*
X121514810Y-112782047D02*
X121006810Y-112782047D01*
X121514810Y-112491761D01*
X121006810Y-112491761D01*
X121514810Y-112007952D02*
X121514810Y-112249857D01*
X121006810Y-112249857D01*
X119434429Y-113495666D02*
X119458619Y-113519856D01*
X119482810Y-113592428D01*
X119482810Y-113640809D01*
X119458619Y-113713380D01*
X119410238Y-113761761D01*
X119361857Y-113785952D01*
X119265095Y-113810142D01*
X119192524Y-113810142D01*
X119095762Y-113785952D01*
X119047381Y-113761761D01*
X118999000Y-113713380D01*
X118974810Y-113640809D01*
X118974810Y-113592428D01*
X118999000Y-113519856D01*
X119023190Y-113495666D01*
X119337667Y-113302142D02*
X119337667Y-113060237D01*
X119482810Y-113350523D02*
X118974810Y-113181190D01*
X119482810Y-113011856D01*
X119482810Y-112842523D02*
X118974810Y-112842523D01*
X119482810Y-112552237D01*
X118974810Y-112552237D01*
X119482810Y-112310333D02*
X118974810Y-112310333D01*
X119216714Y-112310333D02*
X119216714Y-112020047D01*
X119482810Y-112020047D02*
X118974810Y-112020047D01*
X116942810Y-112999762D02*
X116942810Y-113241667D01*
X117184714Y-113265857D01*
X117160524Y-113241667D01*
X117136333Y-113193286D01*
X117136333Y-113072333D01*
X117160524Y-113023952D01*
X117184714Y-112999762D01*
X117233095Y-112975571D01*
X117354048Y-112975571D01*
X117402429Y-112999762D01*
X117426619Y-113023952D01*
X117450810Y-113072333D01*
X117450810Y-113193286D01*
X117426619Y-113241667D01*
X117402429Y-113265857D01*
X116942810Y-112830428D02*
X117450810Y-112661095D01*
X116942810Y-112491761D01*
X115690953Y-105791000D02*
X115642572Y-105766810D01*
X115570000Y-105766810D01*
X115497429Y-105791000D01*
X115449048Y-105839381D01*
X115424857Y-105887762D01*
X115400667Y-105984524D01*
X115400667Y-106057095D01*
X115424857Y-106153857D01*
X115449048Y-106202238D01*
X115497429Y-106250619D01*
X115570000Y-106274810D01*
X115618381Y-106274810D01*
X115690953Y-106250619D01*
X115715143Y-106226429D01*
X115715143Y-106057095D01*
X115618381Y-106057095D01*
X115932857Y-106274810D02*
X115932857Y-105766810D01*
X116223143Y-106274810D01*
X116223143Y-105766810D01*
X116465047Y-106274810D02*
X116465047Y-105766810D01*
X116586000Y-105766810D01*
X116658571Y-105791000D01*
X116706952Y-105839381D01*
X116731143Y-105887762D01*
X116755333Y-105984524D01*
X116755333Y-106057095D01*
X116731143Y-106153857D01*
X116706952Y-106202238D01*
X116658571Y-106250619D01*
X116586000Y-106274810D01*
X116465047Y-106274810D01*
X115461143Y-102186619D02*
X115533714Y-102210810D01*
X115654667Y-102210810D01*
X115703048Y-102186619D01*
X115727238Y-102162429D01*
X115751429Y-102114048D01*
X115751429Y-102065667D01*
X115727238Y-102017286D01*
X115703048Y-101993095D01*
X115654667Y-101968905D01*
X115557905Y-101944714D01*
X115509524Y-101920524D01*
X115485333Y-101896333D01*
X115461143Y-101847952D01*
X115461143Y-101799571D01*
X115485333Y-101751190D01*
X115509524Y-101727000D01*
X115557905Y-101702810D01*
X115678857Y-101702810D01*
X115751429Y-101727000D01*
X116259429Y-102210810D02*
X116090096Y-101968905D01*
X115969143Y-102210810D02*
X115969143Y-101702810D01*
X116162667Y-101702810D01*
X116211048Y-101727000D01*
X116235239Y-101751190D01*
X116259429Y-101799571D01*
X116259429Y-101872143D01*
X116235239Y-101920524D01*
X116211048Y-101944714D01*
X116162667Y-101968905D01*
X115969143Y-101968905D01*
X116404572Y-101702810D02*
X116573905Y-102210810D01*
X116743239Y-101702810D01*
X115981238Y-103734810D02*
X115739333Y-103734810D01*
X115715143Y-103976714D01*
X115739333Y-103952524D01*
X115787714Y-103928333D01*
X115908667Y-103928333D01*
X115957048Y-103952524D01*
X115981238Y-103976714D01*
X116005429Y-104025095D01*
X116005429Y-104146048D01*
X115981238Y-104194429D01*
X115957048Y-104218619D01*
X115908667Y-104242810D01*
X115787714Y-104242810D01*
X115739333Y-104218619D01*
X115715143Y-104194429D01*
X116150572Y-103734810D02*
X116319905Y-104242810D01*
X116489239Y-103734810D01*
X115981238Y-93193810D02*
X115739333Y-93193810D01*
X115715143Y-93435714D01*
X115739333Y-93411524D01*
X115787714Y-93387333D01*
X115908667Y-93387333D01*
X115957048Y-93411524D01*
X115981238Y-93435714D01*
X116005429Y-93484095D01*
X116005429Y-93605048D01*
X115981238Y-93653429D01*
X115957048Y-93677619D01*
X115908667Y-93701810D01*
X115787714Y-93701810D01*
X115739333Y-93677619D01*
X115715143Y-93653429D01*
X116150572Y-93193810D02*
X116319905Y-93701810D01*
X116489239Y-93193810D01*
X115328094Y-91288810D02*
X115642571Y-91288810D01*
X115473237Y-91482333D01*
X115545809Y-91482333D01*
X115594190Y-91506524D01*
X115618380Y-91530714D01*
X115642571Y-91579095D01*
X115642571Y-91700048D01*
X115618380Y-91748429D01*
X115594190Y-91772619D01*
X115545809Y-91796810D01*
X115400666Y-91796810D01*
X115352285Y-91772619D01*
X115328094Y-91748429D01*
X115860285Y-91748429D02*
X115884476Y-91772619D01*
X115860285Y-91796810D01*
X115836095Y-91772619D01*
X115860285Y-91748429D01*
X115860285Y-91796810D01*
X116053809Y-91288810D02*
X116368286Y-91288810D01*
X116198952Y-91482333D01*
X116271524Y-91482333D01*
X116319905Y-91506524D01*
X116344095Y-91530714D01*
X116368286Y-91579095D01*
X116368286Y-91700048D01*
X116344095Y-91748429D01*
X116319905Y-91772619D01*
X116271524Y-91796810D01*
X116126381Y-91796810D01*
X116078000Y-91772619D01*
X116053809Y-91748429D01*
X116513429Y-91288810D02*
X116682762Y-91796810D01*
X116852096Y-91288810D01*
X115690953Y-89281000D02*
X115642572Y-89256810D01*
X115570000Y-89256810D01*
X115497429Y-89281000D01*
X115449048Y-89329381D01*
X115424857Y-89377762D01*
X115400667Y-89474524D01*
X115400667Y-89547095D01*
X115424857Y-89643857D01*
X115449048Y-89692238D01*
X115497429Y-89740619D01*
X115570000Y-89764810D01*
X115618381Y-89764810D01*
X115690953Y-89740619D01*
X115715143Y-89716429D01*
X115715143Y-89547095D01*
X115618381Y-89547095D01*
X115932857Y-89764810D02*
X115932857Y-89256810D01*
X116223143Y-89764810D01*
X116223143Y-89256810D01*
X116465047Y-89764810D02*
X116465047Y-89256810D01*
X116586000Y-89256810D01*
X116658571Y-89281000D01*
X116706952Y-89329381D01*
X116731143Y-89377762D01*
X116755333Y-89474524D01*
X116755333Y-89547095D01*
X116731143Y-89643857D01*
X116706952Y-89692238D01*
X116658571Y-89740619D01*
X116586000Y-89764810D01*
X116465047Y-89764810D01*
X115449048Y-87206667D02*
X115690953Y-87206667D01*
X115400667Y-87351810D02*
X115570000Y-86843810D01*
X115739334Y-87351810D01*
X115908667Y-87351810D02*
X115908667Y-86843810D01*
X116029620Y-86843810D01*
X116102191Y-86868000D01*
X116150572Y-86916381D01*
X116174763Y-86964762D01*
X116198953Y-87061524D01*
X116198953Y-87134095D01*
X116174763Y-87230857D01*
X116150572Y-87279238D01*
X116102191Y-87327619D01*
X116029620Y-87351810D01*
X115908667Y-87351810D01*
X116706953Y-87303429D02*
X116682763Y-87327619D01*
X116610191Y-87351810D01*
X116561810Y-87351810D01*
X116489239Y-87327619D01*
X116440858Y-87279238D01*
X116416667Y-87230857D01*
X116392477Y-87134095D01*
X116392477Y-87061524D01*
X116416667Y-86964762D01*
X116440858Y-86916381D01*
X116489239Y-86868000D01*
X116561810Y-86843810D01*
X116610191Y-86843810D01*
X116682763Y-86868000D01*
X116706953Y-86892190D01*
X115690952Y-85446810D02*
X115981238Y-85446810D01*
X115836095Y-85954810D02*
X115836095Y-85446810D01*
X116102190Y-85446810D02*
X116440857Y-85954810D01*
X116440857Y-85446810D02*
X116102190Y-85954810D01*
X115406714Y-83160810D02*
X115406714Y-82652810D01*
X115576048Y-83015667D01*
X115745381Y-82652810D01*
X115745381Y-83160810D01*
X116084047Y-82652810D02*
X116180809Y-82652810D01*
X116229190Y-82677000D01*
X116277571Y-82725381D01*
X116301762Y-82822143D01*
X116301762Y-82991476D01*
X116277571Y-83088238D01*
X116229190Y-83136619D01*
X116180809Y-83160810D01*
X116084047Y-83160810D01*
X116035666Y-83136619D01*
X115987285Y-83088238D01*
X115963095Y-82991476D01*
X115963095Y-82822143D01*
X115987285Y-82725381D01*
X116035666Y-82677000D01*
X116084047Y-82652810D01*
X116495285Y-83136619D02*
X116567856Y-83160810D01*
X116688809Y-83160810D01*
X116737190Y-83136619D01*
X116761380Y-83112429D01*
X116785571Y-83064048D01*
X116785571Y-83015667D01*
X116761380Y-82967286D01*
X116737190Y-82943095D01*
X116688809Y-82918905D01*
X116592047Y-82894714D01*
X116543666Y-82870524D01*
X116519475Y-82846333D01*
X116495285Y-82797952D01*
X116495285Y-82749571D01*
X116519475Y-82701190D01*
X116543666Y-82677000D01*
X116592047Y-82652810D01*
X116712999Y-82652810D01*
X116785571Y-82677000D01*
X117003285Y-83160810D02*
X117003285Y-82652810D01*
X115406714Y-81255810D02*
X115406714Y-80747810D01*
X115576048Y-81110667D01*
X115745381Y-80747810D01*
X115745381Y-81255810D01*
X115987285Y-81255810D02*
X115987285Y-80747810D01*
X116205000Y-81231619D02*
X116277571Y-81255810D01*
X116398524Y-81255810D01*
X116446905Y-81231619D01*
X116471095Y-81207429D01*
X116495286Y-81159048D01*
X116495286Y-81110667D01*
X116471095Y-81062286D01*
X116446905Y-81038095D01*
X116398524Y-81013905D01*
X116301762Y-80989714D01*
X116253381Y-80965524D01*
X116229190Y-80941333D01*
X116205000Y-80892952D01*
X116205000Y-80844571D01*
X116229190Y-80796190D01*
X116253381Y-80772000D01*
X116301762Y-80747810D01*
X116422714Y-80747810D01*
X116495286Y-80772000D01*
X116809762Y-80747810D02*
X116906524Y-80747810D01*
X116954905Y-80772000D01*
X117003286Y-80820381D01*
X117027477Y-80917143D01*
X117027477Y-81086476D01*
X117003286Y-81183238D01*
X116954905Y-81231619D01*
X116906524Y-81255810D01*
X116809762Y-81255810D01*
X116761381Y-81231619D01*
X116713000Y-81183238D01*
X116688810Y-81086476D01*
X116688810Y-80917143D01*
X116713000Y-80820381D01*
X116761381Y-80772000D01*
X116809762Y-80747810D01*
X115461143Y-79586667D02*
X115703048Y-79586667D01*
X115412762Y-79731810D02*
X115582095Y-79223810D01*
X115751429Y-79731810D01*
X115920762Y-79731810D02*
X115920762Y-79223810D01*
X116041715Y-79223810D01*
X116114286Y-79248000D01*
X116162667Y-79296381D01*
X116186858Y-79344762D01*
X116211048Y-79441524D01*
X116211048Y-79514095D01*
X116186858Y-79610857D01*
X116162667Y-79659238D01*
X116114286Y-79707619D01*
X116041715Y-79731810D01*
X115920762Y-79731810D01*
X116380381Y-79223810D02*
X116694858Y-79223810D01*
X116525524Y-79417333D01*
X116598096Y-79417333D01*
X116646477Y-79441524D01*
X116670667Y-79465714D01*
X116694858Y-79514095D01*
X116694858Y-79635048D01*
X116670667Y-79683429D01*
X116646477Y-79707619D01*
X116598096Y-79731810D01*
X116452953Y-79731810D01*
X116404572Y-79707619D01*
X116380381Y-79683429D01*
X115672809Y-75286810D02*
X115503476Y-75044905D01*
X115382523Y-75286810D02*
X115382523Y-74778810D01*
X115576047Y-74778810D01*
X115624428Y-74803000D01*
X115648619Y-74827190D01*
X115672809Y-74875571D01*
X115672809Y-74948143D01*
X115648619Y-74996524D01*
X115624428Y-75020714D01*
X115576047Y-75044905D01*
X115382523Y-75044905D01*
X115866333Y-75262619D02*
X115938904Y-75286810D01*
X116059857Y-75286810D01*
X116108238Y-75262619D01*
X116132428Y-75238429D01*
X116156619Y-75190048D01*
X116156619Y-75141667D01*
X116132428Y-75093286D01*
X116108238Y-75069095D01*
X116059857Y-75044905D01*
X115963095Y-75020714D01*
X115914714Y-74996524D01*
X115890523Y-74972333D01*
X115866333Y-74923952D01*
X115866333Y-74875571D01*
X115890523Y-74827190D01*
X115914714Y-74803000D01*
X115963095Y-74778810D01*
X116084047Y-74778810D01*
X116156619Y-74803000D01*
X116301762Y-74778810D02*
X116592048Y-74778810D01*
X116446905Y-75286810D02*
X116446905Y-74778810D01*
X115811905Y-73254810D02*
X115811905Y-72746810D01*
X116150572Y-72746810D02*
X116247334Y-72746810D01*
X116295715Y-72771000D01*
X116344096Y-72819381D01*
X116368287Y-72916143D01*
X116368287Y-73085476D01*
X116344096Y-73182238D01*
X116295715Y-73230619D01*
X116247334Y-73254810D01*
X116150572Y-73254810D01*
X116102191Y-73230619D01*
X116053810Y-73182238D01*
X116029620Y-73085476D01*
X116029620Y-72916143D01*
X116053810Y-72819381D01*
X116102191Y-72771000D01*
X116150572Y-72746810D01*
X115690953Y-70739000D02*
X115642572Y-70714810D01*
X115570000Y-70714810D01*
X115497429Y-70739000D01*
X115449048Y-70787381D01*
X115424857Y-70835762D01*
X115400667Y-70932524D01*
X115400667Y-71005095D01*
X115424857Y-71101857D01*
X115449048Y-71150238D01*
X115497429Y-71198619D01*
X115570000Y-71222810D01*
X115618381Y-71222810D01*
X115690953Y-71198619D01*
X115715143Y-71174429D01*
X115715143Y-71005095D01*
X115618381Y-71005095D01*
X115932857Y-71222810D02*
X115932857Y-70714810D01*
X116223143Y-71222810D01*
X116223143Y-70714810D01*
X116465047Y-71222810D02*
X116465047Y-70714810D01*
X116586000Y-70714810D01*
X116658571Y-70739000D01*
X116706952Y-70787381D01*
X116731143Y-70835762D01*
X116755333Y-70932524D01*
X116755333Y-71005095D01*
X116731143Y-71101857D01*
X116706952Y-71150238D01*
X116658571Y-71198619D01*
X116586000Y-71222810D01*
X116465047Y-71222810D01*
X115775619Y-69142429D02*
X115751429Y-69166619D01*
X115678857Y-69190810D01*
X115630476Y-69190810D01*
X115557905Y-69166619D01*
X115509524Y-69118238D01*
X115485333Y-69069857D01*
X115461143Y-68973095D01*
X115461143Y-68900524D01*
X115485333Y-68803762D01*
X115509524Y-68755381D01*
X115557905Y-68707000D01*
X115630476Y-68682810D01*
X115678857Y-68682810D01*
X115751429Y-68707000D01*
X115775619Y-68731190D01*
X116235238Y-69190810D02*
X115993333Y-69190810D01*
X115993333Y-68682810D01*
X116404571Y-69190810D02*
X116404571Y-68682810D01*
X116694857Y-69190810D02*
X116477143Y-68900524D01*
X116694857Y-68682810D02*
X116404571Y-68973095D01*
X115400667Y-66650810D02*
X115570000Y-67158810D01*
X115739334Y-66650810D01*
X116198953Y-67110429D02*
X116174763Y-67134619D01*
X116102191Y-67158810D01*
X116053810Y-67158810D01*
X115981239Y-67134619D01*
X115932858Y-67086238D01*
X115908667Y-67037857D01*
X115884477Y-66941095D01*
X115884477Y-66868524D01*
X115908667Y-66771762D01*
X115932858Y-66723381D01*
X115981239Y-66675000D01*
X116053810Y-66650810D01*
X116102191Y-66650810D01*
X116174763Y-66675000D01*
X116198953Y-66699190D01*
X116706953Y-67110429D02*
X116682763Y-67134619D01*
X116610191Y-67158810D01*
X116561810Y-67158810D01*
X116489239Y-67134619D01*
X116440858Y-67086238D01*
X116416667Y-67037857D01*
X116392477Y-66941095D01*
X116392477Y-66868524D01*
X116416667Y-66771762D01*
X116440858Y-66723381D01*
X116489239Y-66675000D01*
X116561810Y-66650810D01*
X116610191Y-66650810D01*
X116682763Y-66675000D01*
X116706953Y-66699190D01*
D13*
X119434000Y-79626000D02*
X119959000Y-79626000D01*
X123734000Y-83926000D02*
X123209000Y-83926000D01*
X123734000Y-79626000D02*
X123209000Y-79626000D01*
X119434000Y-83926000D02*
X119434000Y-83401000D01*
X123734000Y-83926000D02*
X123734000Y-83401000D01*
X123734000Y-79626000D02*
X123734000Y-80151000D01*
X119434000Y-79626000D02*
X119434000Y-80151000D01*
X130953000Y-85422000D02*
X132953000Y-85422000D01*
X132953000Y-82472000D02*
X130953000Y-82472000D01*
X127798751Y-108761777D02*
X127303777Y-109256751D01*
X126455249Y-108408223D02*
X126950223Y-107913249D01*
X136107249Y-105995223D02*
X136602223Y-105500249D01*
X137450751Y-106348777D02*
X136955777Y-106843751D01*
X134932150Y-105032256D02*
X135639256Y-104325150D01*
X136593850Y-105279744D02*
X135886744Y-105986850D01*
D14*
X129080260Y-67152520D02*
X129080260Y-82151220D01*
X135079740Y-82151220D02*
X135079740Y-67152520D01*
X135079740Y-82151220D02*
X129080260Y-82151220D01*
X129080260Y-67152520D02*
X135079740Y-67152520D01*
X130129478Y-67668140D02*
G75*
G03X130129478Y-67668140I-406598J0D01*
G01*
D15*
X132134614Y-108711721D02*
X132841721Y-108004614D01*
X133803386Y-108966279D02*
X133096279Y-109673386D01*
D13*
X134275751Y-103173777D02*
X133780777Y-103668751D01*
X132932249Y-102820223D02*
X133427223Y-102325249D01*
D15*
X163587960Y-72887840D02*
X164710640Y-72887840D01*
X172534000Y-72665000D02*
X164934000Y-72665000D01*
X172757360Y-72887840D02*
X172534000Y-72665000D01*
X164710640Y-72887840D02*
X164934000Y-72665000D01*
X172534000Y-79735000D02*
X164934000Y-79735000D01*
X172757360Y-79512160D02*
X172534000Y-79735000D01*
X164710640Y-79512160D02*
X164934000Y-79735000D01*
X167080840Y-70313040D02*
X167080840Y-69190360D01*
X166858000Y-61367000D02*
X166858000Y-68967000D01*
X167080840Y-61143640D02*
X166858000Y-61367000D01*
X167080840Y-69190360D02*
X166858000Y-68967000D01*
X173928000Y-61367000D02*
X173928000Y-68967000D01*
X173705160Y-61143640D02*
X173928000Y-61367000D01*
X173705160Y-69190360D02*
X173928000Y-68967000D01*
X141587960Y-72887840D02*
X142710640Y-72887840D01*
X150534000Y-72665000D02*
X142934000Y-72665000D01*
X150757360Y-72887840D02*
X150534000Y-72665000D01*
X142710640Y-72887840D02*
X142934000Y-72665000D01*
X150534000Y-79735000D02*
X142934000Y-79735000D01*
X150757360Y-79512160D02*
X150534000Y-79735000D01*
X142710640Y-79512160D02*
X142934000Y-79735000D01*
X134874279Y-108766614D02*
X135581386Y-109473721D01*
X134619721Y-110435386D02*
X133912614Y-109728279D01*
X133676386Y-110972879D02*
X132969279Y-111679986D01*
X132007614Y-110718321D02*
X132714721Y-110011214D01*
D13*
X121346000Y-100241500D02*
X121346000Y-102691500D01*
X124596000Y-99516500D02*
X124596000Y-102691500D01*
X133977559Y-106426000D02*
X133429551Y-106974008D01*
X127896441Y-106426000D02*
X128444449Y-105877992D01*
X130937000Y-109466559D02*
X131485008Y-108918551D01*
X130937000Y-103385441D02*
X131485008Y-103933449D01*
X127896441Y-106426000D02*
X128444449Y-106974008D01*
X130937000Y-109466559D02*
X130388992Y-108918551D01*
X133977559Y-106426000D02*
X133429551Y-105877992D01*
D15*
X141774840Y-70297040D02*
X141774840Y-69174360D01*
X141552000Y-61351000D02*
X141552000Y-68951000D01*
X141774840Y-61127640D02*
X141552000Y-61351000D01*
X141774840Y-69174360D02*
X141552000Y-68951000D01*
X148622000Y-61351000D02*
X148622000Y-68951000D01*
X148399160Y-61127640D02*
X148622000Y-61351000D01*
X148399160Y-69174360D02*
X148622000Y-68951000D01*
X152574960Y-72887840D02*
X153697640Y-72887840D01*
X161521000Y-72665000D02*
X153921000Y-72665000D01*
X161744360Y-72887840D02*
X161521000Y-72665000D01*
X153697640Y-72887840D02*
X153921000Y-72665000D01*
X161521000Y-79735000D02*
X153921000Y-79735000D01*
X161744360Y-79512160D02*
X161521000Y-79735000D01*
X153697640Y-79512160D02*
X153921000Y-79735000D01*
X154421840Y-70297040D02*
X154421840Y-69174360D01*
X154199000Y-61351000D02*
X154199000Y-68951000D01*
X154421840Y-61127640D02*
X154199000Y-61351000D01*
X154421840Y-69174360D02*
X154199000Y-68951000D01*
X161269000Y-61351000D02*
X161269000Y-68951000D01*
X161046160Y-61127640D02*
X161269000Y-61351000D01*
X161046160Y-69174360D02*
X161269000Y-68951000D01*
D13*
X148584000Y-68086000D02*
X148584000Y-63486000D01*
X148584000Y-63486000D02*
X154184000Y-63486000D01*
X154184000Y-63486000D02*
X154184000Y-68086000D01*
X154184000Y-68086000D02*
X148584000Y-68086000D01*
X161284000Y-68086000D02*
X161284000Y-63486000D01*
X161284000Y-63486000D02*
X166884000Y-63486000D01*
X166884000Y-63486000D02*
X166884000Y-68086000D01*
X166884000Y-68086000D02*
X161284000Y-68086000D01*
X133520000Y-99666500D02*
X134220000Y-99666500D01*
X134220000Y-100866500D02*
X133520000Y-100866500D01*
X123288500Y-89885000D02*
X123288500Y-89185000D01*
X124488500Y-89185000D02*
X124488500Y-89885000D01*
X127162000Y-85440000D02*
X127162000Y-84740000D01*
X128362000Y-84740000D02*
X128362000Y-85440000D01*
X119542000Y-90774000D02*
X119542000Y-90074000D01*
X120742000Y-90074000D02*
X120742000Y-90774000D01*
X123665500Y-97444000D02*
X124365500Y-97444000D01*
X124365500Y-98644000D02*
X123665500Y-98644000D01*
X139411000Y-88562000D02*
X139411000Y-89262000D01*
X138211000Y-89262000D02*
X138211000Y-88562000D01*
X123844800Y-73574200D02*
X123144800Y-73574200D01*
X123144800Y-72374200D02*
X123844800Y-72374200D01*
X123844800Y-75022000D02*
X123144800Y-75022000D01*
X123144800Y-73822000D02*
X123844800Y-73822000D01*
X125470400Y-70704000D02*
X124770400Y-70704000D01*
X124770400Y-69504000D02*
X125470400Y-69504000D01*
X124622000Y-78328000D02*
X124622000Y-77628000D01*
X125822000Y-77628000D02*
X125822000Y-78328000D01*
X124745000Y-66583000D02*
X125445000Y-66583000D01*
X125445000Y-67783000D02*
X124745000Y-67783000D01*
X126584000Y-74961000D02*
X126584000Y-75661000D01*
X125384000Y-75661000D02*
X125384000Y-74961000D01*
X127219000Y-81311000D02*
X127219000Y-82011000D01*
X126019000Y-82011000D02*
X126019000Y-81311000D01*
X139923000Y-64354000D02*
X139223000Y-64354000D01*
X139223000Y-63154000D02*
X139923000Y-63154000D01*
X138522000Y-71786000D02*
X138522000Y-72486000D01*
X137322000Y-72486000D02*
X137322000Y-71786000D01*
X138522000Y-74580000D02*
X138522000Y-75280000D01*
X137322000Y-75280000D02*
X137322000Y-74580000D01*
X138522000Y-77374000D02*
X138522000Y-78074000D01*
X137322000Y-78074000D02*
X137322000Y-77374000D01*
X139669000Y-70831000D02*
X138969000Y-70831000D01*
X138969000Y-69631000D02*
X139669000Y-69631000D01*
X137699000Y-61630000D02*
X138399000Y-61630000D01*
X138399000Y-62830000D02*
X137699000Y-62830000D01*
X120996000Y-98202000D02*
X120996000Y-98902000D01*
X119796000Y-98902000D02*
X119796000Y-98202000D01*
X119796000Y-101696000D02*
X119796000Y-100996000D01*
X120996000Y-100996000D02*
X120996000Y-101696000D01*
X123730500Y-87722000D02*
X123030500Y-87722000D01*
X123030500Y-86522000D02*
X123730500Y-86522000D01*
X133948249Y-103963223D02*
X134443223Y-103468249D01*
X135291751Y-104316777D02*
X134796777Y-104811751D01*
X135717800Y-55483200D02*
X136417800Y-55483200D01*
X136417800Y-56683200D02*
X135717800Y-56683200D01*
X124114000Y-81769000D02*
X124114000Y-81069000D01*
X125314000Y-81069000D02*
X125314000Y-81769000D01*
X120107000Y-77374000D02*
X120107000Y-78074000D01*
X118907000Y-78074000D02*
X118907000Y-77374000D01*
X121901000Y-79213000D02*
X121201000Y-79213000D01*
X121201000Y-78013000D02*
X121901000Y-78013000D01*
X120607000Y-85817000D02*
X119907000Y-85817000D01*
X119907000Y-84617000D02*
X120607000Y-84617000D01*
X125314000Y-83736000D02*
X125314000Y-84436000D01*
X124114000Y-84436000D02*
X124114000Y-83736000D01*
X123407800Y-69858000D02*
X123407800Y-70858000D01*
X122057800Y-70858000D02*
X122057800Y-69858000D01*
X123407800Y-67267200D02*
X123407800Y-68267200D01*
X122057800Y-68267200D02*
X122057800Y-67267200D01*
X125620400Y-69305800D02*
X124620400Y-69305800D01*
X124620400Y-67955800D02*
X125620400Y-67955800D01*
X125620400Y-72252200D02*
X124620400Y-72252200D01*
X124620400Y-70902200D02*
X125620400Y-70902200D01*
X125595000Y-66410200D02*
X124595000Y-66410200D01*
X124595000Y-65060200D02*
X125595000Y-65060200D01*
X120769000Y-108879000D02*
X119769000Y-108879000D01*
X119769000Y-107529000D02*
X120769000Y-107529000D01*
X132850000Y-55459000D02*
X133850000Y-55459000D01*
X133850000Y-56809000D02*
X132850000Y-56809000D01*
X123329300Y-55630700D02*
X124329300Y-55630700D01*
X124329300Y-56980700D02*
X123329300Y-56980700D01*
X123325000Y-57237000D02*
X124325000Y-57237000D01*
X124325000Y-58587000D02*
X123325000Y-58587000D01*
X123325000Y-58888000D02*
X124325000Y-58888000D01*
X124325000Y-60238000D02*
X123325000Y-60238000D01*
X137336000Y-66056000D02*
X137336000Y-68056000D01*
X140286000Y-68056000D02*
X140286000Y-66056000D01*
X128709000Y-64943000D02*
X128709000Y-59263000D01*
X134189000Y-64943000D02*
X128709000Y-64943000D01*
X134189000Y-59263000D02*
X134189000Y-64943000D01*
X128709000Y-59263000D02*
X134189000Y-59263000D01*
D16*
X134449000Y-65103000D02*
X133449000Y-65103000D01*
X128449000Y-65103000D02*
X129449000Y-65103000D01*
X134449000Y-59103000D02*
X133449000Y-59103000D01*
X128449000Y-59103000D02*
X129449000Y-59103000D01*
X134449000Y-65103000D02*
X134449000Y-59103000D01*
X128449000Y-59103000D02*
X128449000Y-65103000D01*
D15*
X114793111Y-60165437D02*
X117126563Y-62498889D01*
X117126563Y-62498889D02*
X120944940Y-58680513D01*
X114793111Y-60165437D02*
X118611487Y-56347060D01*
X135907000Y-59148000D02*
X140157000Y-59148000D01*
X135907000Y-61248000D02*
X140157000Y-61248000D01*
X135907000Y-59148000D02*
X135907000Y-61248000D01*
X133224117Y-113128437D02*
X132870563Y-112774883D01*
X132205883Y-113439563D02*
X132559437Y-113793117D01*
X133986117Y-112366437D02*
X133632563Y-112012883D01*
X132967883Y-112677563D02*
X133321437Y-113031117D01*
X135888883Y-111280563D02*
X136242437Y-111634117D01*
X136907117Y-110969437D02*
X136553563Y-110615883D01*
X137639437Y-111250883D02*
X137285883Y-111604437D01*
X137950563Y-112269117D02*
X138304117Y-111915563D01*
D13*
X139660000Y-77589000D02*
X139660000Y-76589000D01*
X141010000Y-76589000D02*
X141010000Y-77589000D01*
X139660000Y-80383000D02*
X139660000Y-79383000D01*
X141010000Y-79383000D02*
X141010000Y-80383000D01*
D10*
X168148000Y-81915000D02*
X167640000Y-81915000D01*
X147320000Y-81915000D02*
X147828000Y-81915000D01*
D17*
X126314200Y-87833200D02*
X126314200Y-88988736D01*
X126314200Y-98094800D02*
X127469736Y-98094800D01*
X136575800Y-98094800D02*
X136575800Y-96939264D01*
X136575800Y-87833200D02*
X135420264Y-87833200D01*
X127469736Y-87833200D02*
X126314200Y-87833200D01*
X126314200Y-96939264D02*
X126314200Y-98094800D01*
X135420264Y-98094800D02*
X136575800Y-98094800D01*
X136575800Y-88988736D02*
X136575800Y-87833200D01*
X135636000Y-87757000D02*
X135636000Y-86601464D01*
D15*
X127629000Y-65015000D02*
X127629000Y-60715000D01*
X127629000Y-60715000D02*
X121929000Y-60715000D01*
X127629000Y-65015000D02*
X121929000Y-65015000D01*
D13*
X154434000Y-80893000D02*
X161034000Y-80893000D01*
X161034000Y-80893000D02*
X161034000Y-86493000D01*
X161034000Y-86493000D02*
X154434000Y-86493000D01*
X154434000Y-86493000D02*
X154434000Y-80893000D01*
D12*
X121006810Y-82531953D02*
X121418048Y-82531953D01*
X121466429Y-82507762D01*
X121490619Y-82483572D01*
X121514810Y-82435191D01*
X121514810Y-82338429D01*
X121490619Y-82290048D01*
X121466429Y-82265857D01*
X121418048Y-82241667D01*
X121006810Y-82241667D01*
X121514810Y-81733667D02*
X121514810Y-82023953D01*
X121514810Y-81878810D02*
X121006810Y-81878810D01*
X121079381Y-81927191D01*
X121127762Y-81975572D01*
X121151952Y-82023953D01*
X121006810Y-81419191D02*
X121006810Y-81370810D01*
X121031000Y-81322429D01*
X121055190Y-81298238D01*
X121103571Y-81274048D01*
X121200333Y-81249857D01*
X121321286Y-81249857D01*
X121418048Y-81274048D01*
X121466429Y-81298238D01*
X121490619Y-81322429D01*
X121514810Y-81370810D01*
X121514810Y-81419191D01*
X121490619Y-81467572D01*
X121466429Y-81491762D01*
X121418048Y-81515953D01*
X121321286Y-81540143D01*
X121200333Y-81540143D01*
X121103571Y-81515953D01*
X121055190Y-81491762D01*
X121031000Y-81467572D01*
X121006810Y-81419191D01*
X125500368Y-110595211D02*
X125500368Y-110629421D01*
X125466158Y-110697843D01*
X125431947Y-110732053D01*
X125363526Y-110766263D01*
X125295105Y-110766263D01*
X125243789Y-110749158D01*
X125158263Y-110697842D01*
X125106948Y-110646526D01*
X125055631Y-110561000D01*
X125038527Y-110509684D01*
X125038527Y-110441263D01*
X125072737Y-110372843D01*
X125106948Y-110338632D01*
X125175369Y-110304421D01*
X125209579Y-110304421D01*
X125603000Y-110082053D02*
X125842474Y-110321527D01*
X125380631Y-110030738D02*
X125551684Y-110372842D01*
X125774052Y-110150474D01*
X125876684Y-109876790D02*
X125825368Y-109893895D01*
X125791158Y-109893895D01*
X125739842Y-109876790D01*
X125722737Y-109859684D01*
X125705631Y-109808369D01*
X125705632Y-109774158D01*
X125722737Y-109722843D01*
X125791158Y-109654422D01*
X125842474Y-109637316D01*
X125876684Y-109637316D01*
X125928000Y-109654421D01*
X125945105Y-109671527D01*
X125962210Y-109722843D01*
X125962210Y-109757053D01*
X125945105Y-109808369D01*
X125876684Y-109876790D01*
X125859579Y-109928105D01*
X125859579Y-109962316D01*
X125876684Y-110013632D01*
X125945105Y-110082053D01*
X125996421Y-110099159D01*
X126030631Y-110099158D01*
X126081947Y-110082053D01*
X126150369Y-110013632D01*
X126167473Y-109962316D01*
X126167473Y-109928106D01*
X126150369Y-109876790D01*
X126081947Y-109808369D01*
X126030631Y-109791264D01*
X125996421Y-109791263D01*
X125945105Y-109808369D01*
X138200368Y-105007211D02*
X138200368Y-105041421D01*
X138166158Y-105109843D01*
X138131947Y-105144053D01*
X138063526Y-105178263D01*
X137995105Y-105178263D01*
X137943789Y-105161158D01*
X137858263Y-105109842D01*
X137806948Y-105058526D01*
X137755631Y-104973000D01*
X137738527Y-104921684D01*
X137738527Y-104853263D01*
X137772737Y-104784843D01*
X137806948Y-104750632D01*
X137875369Y-104716421D01*
X137909579Y-104716421D01*
X138200368Y-104357212D02*
X138029316Y-104528264D01*
X138183263Y-104716421D01*
X138183263Y-104682211D01*
X138200368Y-104630895D01*
X138285894Y-104545368D01*
X138337211Y-104528263D01*
X138371420Y-104528263D01*
X138422737Y-104545368D01*
X138508263Y-104630895D01*
X138525368Y-104682211D01*
X138525368Y-104716421D01*
X138508263Y-104767737D01*
X138422737Y-104853264D01*
X138371420Y-104870369D01*
X138337211Y-104870369D01*
X138337211Y-104220369D02*
X138559579Y-103998001D01*
X138576684Y-104254579D01*
X138628000Y-104203263D01*
X138679316Y-104186158D01*
X138713526Y-104186158D01*
X138764842Y-104203263D01*
X138850369Y-104288790D01*
X138867473Y-104340106D01*
X138867473Y-104374316D01*
X138850369Y-104425632D01*
X138747737Y-104528263D01*
X138696421Y-104545368D01*
X138662210Y-104545369D01*
X137218579Y-104025421D02*
X136927790Y-103974105D01*
X137013316Y-104230685D02*
X136654105Y-103871474D01*
X136790948Y-103734632D01*
X136842263Y-103717527D01*
X136876474Y-103717526D01*
X136927789Y-103734632D01*
X136979105Y-103785948D01*
X136996211Y-103837263D01*
X136996210Y-103871474D01*
X136979105Y-103922790D01*
X136842263Y-104059632D01*
X136979105Y-103546475D02*
X137201474Y-103324106D01*
X137218578Y-103580685D01*
X137269894Y-103529368D01*
X137321211Y-103512263D01*
X137355420Y-103512263D01*
X137406737Y-103529368D01*
X137492263Y-103614895D01*
X137509368Y-103666211D01*
X137509368Y-103700421D01*
X137492263Y-103751737D01*
X137389632Y-103854369D01*
X137338315Y-103871474D01*
X137304105Y-103871474D01*
X137560684Y-103272790D02*
X137509368Y-103289895D01*
X137475158Y-103289895D01*
X137423842Y-103272790D01*
X137406737Y-103255684D01*
X137389631Y-103204369D01*
X137389632Y-103170158D01*
X137406737Y-103118843D01*
X137475158Y-103050422D01*
X137526474Y-103033316D01*
X137560684Y-103033316D01*
X137612000Y-103050421D01*
X137629105Y-103067527D01*
X137646210Y-103118843D01*
X137646210Y-103153053D01*
X137629105Y-103204369D01*
X137560684Y-103272790D01*
X137543579Y-103324105D01*
X137543579Y-103358316D01*
X137560684Y-103409632D01*
X137629105Y-103478053D01*
X137680421Y-103495159D01*
X137714631Y-103495158D01*
X137765947Y-103478053D01*
X137834369Y-103409632D01*
X137851473Y-103358316D01*
X137851473Y-103324106D01*
X137834369Y-103272790D01*
X137765947Y-103204369D01*
X137714631Y-103187264D01*
X137680421Y-103187263D01*
X137629105Y-103204369D01*
X131801810Y-74936048D02*
X132213048Y-74936048D01*
X132261429Y-74911857D01*
X132285619Y-74887667D01*
X132309810Y-74839286D01*
X132309810Y-74742524D01*
X132285619Y-74694143D01*
X132261429Y-74669952D01*
X132213048Y-74645762D01*
X131801810Y-74645762D01*
X131801810Y-74452239D02*
X131801810Y-74137762D01*
X131995333Y-74307096D01*
X131995333Y-74234524D01*
X132019524Y-74186143D01*
X132043714Y-74161953D01*
X132092095Y-74137762D01*
X132213048Y-74137762D01*
X132261429Y-74161953D01*
X132285619Y-74186143D01*
X132309810Y-74234524D01*
X132309810Y-74379667D01*
X132285619Y-74428048D01*
X132261429Y-74452239D01*
X134163832Y-107842168D02*
X133992779Y-108013220D01*
X133633569Y-107654010D01*
X133890147Y-107397432D02*
X134112516Y-107175063D01*
X134129620Y-107431641D01*
X134180937Y-107380325D01*
X134232253Y-107363220D01*
X134266462Y-107363220D01*
X134317779Y-107380325D01*
X134403305Y-107465852D01*
X134420410Y-107517168D01*
X134420410Y-107551378D01*
X134403305Y-107602694D01*
X134300674Y-107705326D01*
X134249358Y-107722431D01*
X134215147Y-107722431D01*
X135025368Y-101832211D02*
X135025368Y-101866421D01*
X134991158Y-101934843D01*
X134956947Y-101969053D01*
X134888526Y-102003263D01*
X134820105Y-102003263D01*
X134768789Y-101986158D01*
X134683263Y-101934842D01*
X134631948Y-101883526D01*
X134580631Y-101798000D01*
X134563527Y-101746684D01*
X134563527Y-101678263D01*
X134597737Y-101609843D01*
X134631948Y-101575632D01*
X134700369Y-101541421D01*
X134734579Y-101541421D01*
X135128000Y-101319053D02*
X135367474Y-101558527D01*
X134905631Y-101267738D02*
X135076684Y-101609842D01*
X135299052Y-101387474D01*
X135572737Y-101353263D02*
X135641158Y-101284842D01*
X135658263Y-101233526D01*
X135658263Y-101199316D01*
X135641157Y-101113790D01*
X135589842Y-101028263D01*
X135453000Y-100891421D01*
X135401684Y-100874316D01*
X135367474Y-100874316D01*
X135316158Y-100891422D01*
X135247737Y-100959843D01*
X135230632Y-101011158D01*
X135230631Y-101045369D01*
X135247737Y-101096684D01*
X135333263Y-101182211D01*
X135384579Y-101199316D01*
X135418789Y-101199316D01*
X135470105Y-101182211D01*
X135538526Y-101113790D01*
X135555631Y-101062474D01*
X135555631Y-101028264D01*
X135538526Y-100976948D01*
X168734619Y-81136190D02*
X168686238Y-81112000D01*
X168637857Y-81063619D01*
X168565286Y-80991048D01*
X168516905Y-80966857D01*
X168468524Y-80966857D01*
X168492714Y-81087810D02*
X168444333Y-81063619D01*
X168395952Y-81015238D01*
X168371762Y-80918476D01*
X168371762Y-80749143D01*
X168395952Y-80652381D01*
X168444333Y-80604000D01*
X168492714Y-80579810D01*
X168589476Y-80579810D01*
X168637857Y-80604000D01*
X168686238Y-80652381D01*
X168710429Y-80749143D01*
X168710429Y-80918476D01*
X168686238Y-81015238D01*
X168637857Y-81063619D01*
X168589476Y-81087810D01*
X168492714Y-81087810D01*
X169170047Y-80579810D02*
X168928142Y-80579810D01*
X168903952Y-80821714D01*
X168928142Y-80797524D01*
X168976523Y-80773333D01*
X169097476Y-80773333D01*
X169145857Y-80797524D01*
X169170047Y-80821714D01*
X169194238Y-80870095D01*
X169194238Y-80991048D01*
X169170047Y-81039429D01*
X169145857Y-81063619D01*
X169097476Y-81087810D01*
X168976523Y-81087810D01*
X168928142Y-81063619D01*
X168903952Y-81039429D01*
X174776190Y-61913381D02*
X174752000Y-61961762D01*
X174703619Y-62010143D01*
X174631048Y-62082714D01*
X174606857Y-62131095D01*
X174606857Y-62179476D01*
X174727810Y-62155286D02*
X174703619Y-62203667D01*
X174655238Y-62252048D01*
X174558476Y-62276238D01*
X174389143Y-62276238D01*
X174292381Y-62252048D01*
X174244000Y-62203667D01*
X174219810Y-62155286D01*
X174219810Y-62058524D01*
X174244000Y-62010143D01*
X174292381Y-61961762D01*
X174389143Y-61937571D01*
X174558476Y-61937571D01*
X174655238Y-61961762D01*
X174703619Y-62010143D01*
X174727810Y-62058524D01*
X174727810Y-62155286D01*
X174219810Y-61502143D02*
X174219810Y-61598905D01*
X174244000Y-61647286D01*
X174268190Y-61671477D01*
X174340762Y-61719858D01*
X174437524Y-61744048D01*
X174631048Y-61744048D01*
X174679429Y-61719858D01*
X174703619Y-61695667D01*
X174727810Y-61647286D01*
X174727810Y-61550524D01*
X174703619Y-61502143D01*
X174679429Y-61477953D01*
X174631048Y-61453762D01*
X174510095Y-61453762D01*
X174461714Y-61477953D01*
X174437524Y-61502143D01*
X174413333Y-61550524D01*
X174413333Y-61647286D01*
X174437524Y-61695667D01*
X174461714Y-61719858D01*
X174510095Y-61744048D01*
X146763619Y-81177190D02*
X146715238Y-81153000D01*
X146666857Y-81104619D01*
X146594286Y-81032048D01*
X146545905Y-81007857D01*
X146497524Y-81007857D01*
X146521714Y-81128810D02*
X146473333Y-81104619D01*
X146424952Y-81056238D01*
X146400762Y-80959476D01*
X146400762Y-80790143D01*
X146424952Y-80693381D01*
X146473333Y-80645000D01*
X146521714Y-80620810D01*
X146618476Y-80620810D01*
X146666857Y-80645000D01*
X146715238Y-80693381D01*
X146739429Y-80790143D01*
X146739429Y-80959476D01*
X146715238Y-81056238D01*
X146666857Y-81104619D01*
X146618476Y-81128810D01*
X146521714Y-81128810D01*
X147223238Y-81128810D02*
X146932952Y-81128810D01*
X147078095Y-81128810D02*
X147078095Y-80620810D01*
X147029714Y-80693381D01*
X146981333Y-80741762D01*
X146932952Y-80765952D01*
X135413630Y-108687632D02*
X135242578Y-108516579D01*
X135601788Y-108157369D01*
X135926788Y-108721842D02*
X135687314Y-108961316D01*
X135978104Y-108499473D02*
X135635999Y-108670526D01*
X135858367Y-108892894D01*
X131674632Y-112236369D02*
X131503579Y-112407421D01*
X131144369Y-112048211D01*
X131606211Y-111586369D02*
X131435158Y-111757422D01*
X131589105Y-111945579D01*
X131589105Y-111911369D01*
X131606210Y-111860053D01*
X131691737Y-111774526D01*
X131743053Y-111757421D01*
X131777262Y-111757421D01*
X131828579Y-111774526D01*
X131914105Y-111860053D01*
X131931210Y-111911369D01*
X131931210Y-111945579D01*
X131914105Y-111996895D01*
X131828579Y-112082422D01*
X131777262Y-112099527D01*
X131743053Y-112099527D01*
X124943810Y-101853548D02*
X125355048Y-101853548D01*
X125403429Y-101829357D01*
X125427619Y-101805167D01*
X125451810Y-101756786D01*
X125451810Y-101660024D01*
X125427619Y-101611643D01*
X125403429Y-101587452D01*
X125355048Y-101563262D01*
X124943810Y-101563262D01*
X125113143Y-101103643D02*
X125451810Y-101103643D01*
X124919619Y-101224596D02*
X125282476Y-101345548D01*
X125282476Y-101031072D01*
X128421606Y-104522974D02*
X128712395Y-104813763D01*
X128763711Y-104830868D01*
X128797921Y-104830868D01*
X128849237Y-104813763D01*
X128917658Y-104745342D01*
X128934763Y-104694026D01*
X128934764Y-104659816D01*
X128917658Y-104608500D01*
X128626869Y-104317711D01*
X129003184Y-104249290D02*
X128951868Y-104266395D01*
X128917657Y-104266396D01*
X128866342Y-104249290D01*
X128849236Y-104232184D01*
X128832131Y-104180869D01*
X128832131Y-104146658D01*
X128849237Y-104095343D01*
X128917658Y-104026922D01*
X128968974Y-104009816D01*
X129003183Y-104009816D01*
X129054500Y-104026921D01*
X129071605Y-104044027D01*
X129088710Y-104095343D01*
X129088710Y-104129553D01*
X129071605Y-104180869D01*
X129003184Y-104249290D01*
X128986078Y-104300605D01*
X128986078Y-104334817D01*
X129003184Y-104386132D01*
X129071605Y-104454553D01*
X129122921Y-104471659D01*
X129157131Y-104471658D01*
X129208447Y-104454553D01*
X129276868Y-104386132D01*
X129293973Y-104334816D01*
X129293973Y-104300606D01*
X129276868Y-104249290D01*
X129208447Y-104180869D01*
X129157131Y-104163764D01*
X129122921Y-104163763D01*
X129071605Y-104180869D01*
X149503190Y-61960881D02*
X149479000Y-62009262D01*
X149430619Y-62057643D01*
X149358048Y-62130214D01*
X149333857Y-62178595D01*
X149333857Y-62226976D01*
X149454810Y-62202786D02*
X149430619Y-62251167D01*
X149382238Y-62299548D01*
X149285476Y-62323738D01*
X149116143Y-62323738D01*
X149019381Y-62299548D01*
X148971000Y-62251167D01*
X148946810Y-62202786D01*
X148946810Y-62106024D01*
X148971000Y-62057643D01*
X149019381Y-62009262D01*
X149116143Y-61985071D01*
X149285476Y-61985071D01*
X149382238Y-62009262D01*
X149430619Y-62057643D01*
X149454810Y-62106024D01*
X149454810Y-62202786D01*
X148995190Y-61791548D02*
X148971000Y-61767358D01*
X148946810Y-61718977D01*
X148946810Y-61598024D01*
X148971000Y-61549643D01*
X148995190Y-61525453D01*
X149043571Y-61501262D01*
X149091952Y-61501262D01*
X149164524Y-61525453D01*
X149454810Y-61815739D01*
X149454810Y-61501262D01*
X153494619Y-81177190D02*
X153446238Y-81153000D01*
X153397857Y-81104619D01*
X153325286Y-81032048D01*
X153276905Y-81007857D01*
X153228524Y-81007857D01*
X153252714Y-81128810D02*
X153204333Y-81104619D01*
X153155952Y-81056238D01*
X153131762Y-80959476D01*
X153131762Y-80790143D01*
X153155952Y-80693381D01*
X153204333Y-80645000D01*
X153252714Y-80620810D01*
X153349476Y-80620810D01*
X153397857Y-80645000D01*
X153446238Y-80693381D01*
X153470429Y-80790143D01*
X153470429Y-80959476D01*
X153446238Y-81056238D01*
X153397857Y-81104619D01*
X153349476Y-81128810D01*
X153252714Y-81128810D01*
X153639761Y-80620810D02*
X153954238Y-80620810D01*
X153784904Y-80814333D01*
X153857476Y-80814333D01*
X153905857Y-80838524D01*
X153930047Y-80862714D01*
X153954238Y-80911095D01*
X153954238Y-81032048D01*
X153930047Y-81080429D01*
X153905857Y-81104619D01*
X153857476Y-81128810D01*
X153712333Y-81128810D01*
X153663952Y-81104619D01*
X153639761Y-81080429D01*
X162150190Y-61960881D02*
X162126000Y-62009262D01*
X162077619Y-62057643D01*
X162005048Y-62130214D01*
X161980857Y-62178595D01*
X161980857Y-62226976D01*
X162101810Y-62202786D02*
X162077619Y-62251167D01*
X162029238Y-62299548D01*
X161932476Y-62323738D01*
X161763143Y-62323738D01*
X161666381Y-62299548D01*
X161618000Y-62251167D01*
X161593810Y-62202786D01*
X161593810Y-62106024D01*
X161618000Y-62057643D01*
X161666381Y-62009262D01*
X161763143Y-61985071D01*
X161932476Y-61985071D01*
X162029238Y-62009262D01*
X162077619Y-62057643D01*
X162101810Y-62106024D01*
X162101810Y-62202786D01*
X161763143Y-61549643D02*
X162101810Y-61549643D01*
X161569619Y-61670596D02*
X161932476Y-61791548D01*
X161932476Y-61477072D01*
X135563333Y-100447929D02*
X135539143Y-100472119D01*
X135466571Y-100496310D01*
X135418190Y-100496310D01*
X135345619Y-100472119D01*
X135297238Y-100423738D01*
X135273047Y-100375357D01*
X135248857Y-100278595D01*
X135248857Y-100206024D01*
X135273047Y-100109262D01*
X135297238Y-100060881D01*
X135345619Y-100012500D01*
X135418190Y-99988310D01*
X135466571Y-99988310D01*
X135539143Y-100012500D01*
X135563333Y-100036690D01*
X135998762Y-100157643D02*
X135998762Y-100496310D01*
X135877809Y-99964119D02*
X135756857Y-100326976D01*
X136071333Y-100326976D01*
X123053929Y-89619667D02*
X123078119Y-89643857D01*
X123102310Y-89716429D01*
X123102310Y-89764810D01*
X123078119Y-89837381D01*
X123029738Y-89885762D01*
X122981357Y-89909953D01*
X122884595Y-89934143D01*
X122812024Y-89934143D01*
X122715262Y-89909953D01*
X122666881Y-89885762D01*
X122618500Y-89837381D01*
X122594310Y-89764810D01*
X122594310Y-89716429D01*
X122618500Y-89643857D01*
X122642690Y-89619667D01*
X122594310Y-89160048D02*
X122594310Y-89401953D01*
X122836214Y-89426143D01*
X122812024Y-89401953D01*
X122787833Y-89353572D01*
X122787833Y-89232619D01*
X122812024Y-89184238D01*
X122836214Y-89160048D01*
X122884595Y-89135857D01*
X123005548Y-89135857D01*
X123053929Y-89160048D01*
X123078119Y-89184238D01*
X123102310Y-89232619D01*
X123102310Y-89353572D01*
X123078119Y-89401953D01*
X123053929Y-89426143D01*
X126927429Y-85428667D02*
X126951619Y-85452857D01*
X126975810Y-85525429D01*
X126975810Y-85573810D01*
X126951619Y-85646381D01*
X126903238Y-85694762D01*
X126854857Y-85718953D01*
X126758095Y-85743143D01*
X126685524Y-85743143D01*
X126588762Y-85718953D01*
X126540381Y-85694762D01*
X126492000Y-85646381D01*
X126467810Y-85573810D01*
X126467810Y-85525429D01*
X126492000Y-85452857D01*
X126516190Y-85428667D01*
X126467810Y-84993238D02*
X126467810Y-85090000D01*
X126492000Y-85138381D01*
X126516190Y-85162572D01*
X126588762Y-85210953D01*
X126685524Y-85235143D01*
X126879048Y-85235143D01*
X126927429Y-85210953D01*
X126951619Y-85186762D01*
X126975810Y-85138381D01*
X126975810Y-85041619D01*
X126951619Y-84993238D01*
X126927429Y-84969048D01*
X126879048Y-84944857D01*
X126758095Y-84944857D01*
X126709714Y-84969048D01*
X126685524Y-84993238D01*
X126661333Y-85041619D01*
X126661333Y-85138381D01*
X126685524Y-85186762D01*
X126709714Y-85210953D01*
X126758095Y-85235143D01*
X120323429Y-92286667D02*
X120347619Y-92310857D01*
X120371810Y-92383429D01*
X120371810Y-92431810D01*
X120347619Y-92504381D01*
X120299238Y-92552762D01*
X120250857Y-92576953D01*
X120154095Y-92601143D01*
X120081524Y-92601143D01*
X119984762Y-92576953D01*
X119936381Y-92552762D01*
X119888000Y-92504381D01*
X119863810Y-92431810D01*
X119863810Y-92383429D01*
X119888000Y-92310857D01*
X119912190Y-92286667D01*
X120371810Y-92044762D02*
X120371810Y-91948000D01*
X120347619Y-91899619D01*
X120323429Y-91875429D01*
X120250857Y-91827048D01*
X120154095Y-91802857D01*
X119960571Y-91802857D01*
X119912190Y-91827048D01*
X119888000Y-91851238D01*
X119863810Y-91899619D01*
X119863810Y-91996381D01*
X119888000Y-92044762D01*
X119912190Y-92068953D01*
X119960571Y-92093143D01*
X120081524Y-92093143D01*
X120129905Y-92068953D01*
X120154095Y-92044762D01*
X120178286Y-91996381D01*
X120178286Y-91899619D01*
X120154095Y-91851238D01*
X120129905Y-91827048D01*
X120081524Y-91802857D01*
X123498428Y-97082429D02*
X123474238Y-97106619D01*
X123401666Y-97130810D01*
X123353285Y-97130810D01*
X123280714Y-97106619D01*
X123232333Y-97058238D01*
X123208142Y-97009857D01*
X123183952Y-96913095D01*
X123183952Y-96840524D01*
X123208142Y-96743762D01*
X123232333Y-96695381D01*
X123280714Y-96647000D01*
X123353285Y-96622810D01*
X123401666Y-96622810D01*
X123474238Y-96647000D01*
X123498428Y-96671190D01*
X123982238Y-97130810D02*
X123691952Y-97130810D01*
X123837095Y-97130810D02*
X123837095Y-96622810D01*
X123788714Y-96695381D01*
X123740333Y-96743762D01*
X123691952Y-96767952D01*
X124466048Y-97130810D02*
X124175762Y-97130810D01*
X124320905Y-97130810D02*
X124320905Y-96622810D01*
X124272524Y-96695381D01*
X124224143Y-96743762D01*
X124175762Y-96767952D01*
X138484428Y-87442429D02*
X138460238Y-87466619D01*
X138387666Y-87490810D01*
X138339285Y-87490810D01*
X138266714Y-87466619D01*
X138218333Y-87418238D01*
X138194142Y-87369857D01*
X138169952Y-87273095D01*
X138169952Y-87200524D01*
X138194142Y-87103762D01*
X138218333Y-87055381D01*
X138266714Y-87007000D01*
X138339285Y-86982810D01*
X138387666Y-86982810D01*
X138460238Y-87007000D01*
X138484428Y-87031190D01*
X138968238Y-87490810D02*
X138677952Y-87490810D01*
X138823095Y-87490810D02*
X138823095Y-86982810D01*
X138774714Y-87055381D01*
X138726333Y-87103762D01*
X138677952Y-87127952D01*
X139161762Y-87031190D02*
X139185952Y-87007000D01*
X139234333Y-86982810D01*
X139355286Y-86982810D01*
X139403667Y-87007000D01*
X139427857Y-87031190D01*
X139452048Y-87079571D01*
X139452048Y-87127952D01*
X139427857Y-87200524D01*
X139137571Y-87490810D01*
X139452048Y-87490810D01*
X120704428Y-73079429D02*
X120680238Y-73103619D01*
X120607666Y-73127810D01*
X120559285Y-73127810D01*
X120486714Y-73103619D01*
X120438333Y-73055238D01*
X120414142Y-73006857D01*
X120389952Y-72910095D01*
X120389952Y-72837524D01*
X120414142Y-72740762D01*
X120438333Y-72692381D01*
X120486714Y-72644000D01*
X120559285Y-72619810D01*
X120607666Y-72619810D01*
X120680238Y-72644000D01*
X120704428Y-72668190D01*
X121188238Y-73127810D02*
X120897952Y-73127810D01*
X121043095Y-73127810D02*
X121043095Y-72619810D01*
X120994714Y-72692381D01*
X120946333Y-72740762D01*
X120897952Y-72764952D01*
X121623667Y-72789143D02*
X121623667Y-73127810D01*
X121502714Y-72595619D02*
X121381762Y-72958476D01*
X121696238Y-72958476D01*
X120704428Y-74654229D02*
X120680238Y-74678419D01*
X120607666Y-74702610D01*
X120559285Y-74702610D01*
X120486714Y-74678419D01*
X120438333Y-74630038D01*
X120414142Y-74581657D01*
X120389952Y-74484895D01*
X120389952Y-74412324D01*
X120414142Y-74315562D01*
X120438333Y-74267181D01*
X120486714Y-74218800D01*
X120559285Y-74194610D01*
X120607666Y-74194610D01*
X120680238Y-74218800D01*
X120704428Y-74242990D01*
X121188238Y-74702610D02*
X120897952Y-74702610D01*
X121043095Y-74702610D02*
X121043095Y-74194610D01*
X120994714Y-74267181D01*
X120946333Y-74315562D01*
X120897952Y-74339752D01*
X121647857Y-74194610D02*
X121405952Y-74194610D01*
X121381762Y-74436514D01*
X121405952Y-74412324D01*
X121454333Y-74388133D01*
X121575286Y-74388133D01*
X121623667Y-74412324D01*
X121647857Y-74436514D01*
X121672048Y-74484895D01*
X121672048Y-74605848D01*
X121647857Y-74654229D01*
X121623667Y-74678419D01*
X121575286Y-74702610D01*
X121454333Y-74702610D01*
X121405952Y-74678419D01*
X121381762Y-74654229D01*
X119561428Y-70285429D02*
X119537238Y-70309619D01*
X119464666Y-70333810D01*
X119416285Y-70333810D01*
X119343714Y-70309619D01*
X119295333Y-70261238D01*
X119271142Y-70212857D01*
X119246952Y-70116095D01*
X119246952Y-70043524D01*
X119271142Y-69946762D01*
X119295333Y-69898381D01*
X119343714Y-69850000D01*
X119416285Y-69825810D01*
X119464666Y-69825810D01*
X119537238Y-69850000D01*
X119561428Y-69874190D01*
X120045238Y-70333810D02*
X119754952Y-70333810D01*
X119900095Y-70333810D02*
X119900095Y-69825810D01*
X119851714Y-69898381D01*
X119803333Y-69946762D01*
X119754952Y-69970952D01*
X120480667Y-69825810D02*
X120383905Y-69825810D01*
X120335524Y-69850000D01*
X120311333Y-69874190D01*
X120262952Y-69946762D01*
X120238762Y-70043524D01*
X120238762Y-70237048D01*
X120262952Y-70285429D01*
X120287143Y-70309619D01*
X120335524Y-70333810D01*
X120432286Y-70333810D01*
X120480667Y-70309619D01*
X120504857Y-70285429D01*
X120529048Y-70237048D01*
X120529048Y-70116095D01*
X120504857Y-70067714D01*
X120480667Y-70043524D01*
X120432286Y-70019333D01*
X120335524Y-70019333D01*
X120287143Y-70043524D01*
X120262952Y-70067714D01*
X120238762Y-70116095D01*
X124260429Y-77415572D02*
X124284619Y-77439762D01*
X124308810Y-77512334D01*
X124308810Y-77560715D01*
X124284619Y-77633286D01*
X124236238Y-77681667D01*
X124187857Y-77705858D01*
X124091095Y-77730048D01*
X124018524Y-77730048D01*
X123921762Y-77705858D01*
X123873381Y-77681667D01*
X123825000Y-77633286D01*
X123800810Y-77560715D01*
X123800810Y-77512334D01*
X123825000Y-77439762D01*
X123849190Y-77415572D01*
X124308810Y-76931762D02*
X124308810Y-77222048D01*
X124308810Y-77076905D02*
X123800810Y-77076905D01*
X123873381Y-77125286D01*
X123921762Y-77173667D01*
X123945952Y-77222048D01*
X123800810Y-76762429D02*
X123800810Y-76423762D01*
X124308810Y-76641476D01*
X119561428Y-67364429D02*
X119537238Y-67388619D01*
X119464666Y-67412810D01*
X119416285Y-67412810D01*
X119343714Y-67388619D01*
X119295333Y-67340238D01*
X119271142Y-67291857D01*
X119246952Y-67195095D01*
X119246952Y-67122524D01*
X119271142Y-67025762D01*
X119295333Y-66977381D01*
X119343714Y-66929000D01*
X119416285Y-66904810D01*
X119464666Y-66904810D01*
X119537238Y-66929000D01*
X119561428Y-66953190D01*
X120045238Y-67412810D02*
X119754952Y-67412810D01*
X119900095Y-67412810D02*
X119900095Y-66904810D01*
X119851714Y-66977381D01*
X119803333Y-67025762D01*
X119754952Y-67049952D01*
X120335524Y-67122524D02*
X120287143Y-67098333D01*
X120262952Y-67074143D01*
X120238762Y-67025762D01*
X120238762Y-67001571D01*
X120262952Y-66953190D01*
X120287143Y-66929000D01*
X120335524Y-66904810D01*
X120432286Y-66904810D01*
X120480667Y-66929000D01*
X120504857Y-66953190D01*
X120529048Y-67001571D01*
X120529048Y-67025762D01*
X120504857Y-67074143D01*
X120480667Y-67098333D01*
X120432286Y-67122524D01*
X120335524Y-67122524D01*
X120287143Y-67146714D01*
X120262952Y-67170905D01*
X120238762Y-67219286D01*
X120238762Y-67316048D01*
X120262952Y-67364429D01*
X120287143Y-67388619D01*
X120335524Y-67412810D01*
X120432286Y-67412810D01*
X120480667Y-67388619D01*
X120504857Y-67364429D01*
X120529048Y-67316048D01*
X120529048Y-67219286D01*
X120504857Y-67170905D01*
X120480667Y-67146714D01*
X120432286Y-67122524D01*
X119942429Y-75637572D02*
X119966619Y-75661762D01*
X119990810Y-75734334D01*
X119990810Y-75782715D01*
X119966619Y-75855286D01*
X119918238Y-75903667D01*
X119869857Y-75927858D01*
X119773095Y-75952048D01*
X119700524Y-75952048D01*
X119603762Y-75927858D01*
X119555381Y-75903667D01*
X119507000Y-75855286D01*
X119482810Y-75782715D01*
X119482810Y-75734334D01*
X119507000Y-75661762D01*
X119531190Y-75637572D01*
X119990810Y-75153762D02*
X119990810Y-75444048D01*
X119990810Y-75298905D02*
X119482810Y-75298905D01*
X119555381Y-75347286D01*
X119603762Y-75395667D01*
X119627952Y-75444048D01*
X119990810Y-74911857D02*
X119990810Y-74815095D01*
X119966619Y-74766714D01*
X119942429Y-74742524D01*
X119869857Y-74694143D01*
X119773095Y-74669952D01*
X119579571Y-74669952D01*
X119531190Y-74694143D01*
X119507000Y-74718333D01*
X119482810Y-74766714D01*
X119482810Y-74863476D01*
X119507000Y-74911857D01*
X119531190Y-74936048D01*
X119579571Y-74960238D01*
X119700524Y-74960238D01*
X119748905Y-74936048D01*
X119773095Y-74911857D01*
X119797286Y-74863476D01*
X119797286Y-74766714D01*
X119773095Y-74718333D01*
X119748905Y-74694143D01*
X119700524Y-74669952D01*
X126292428Y-80052429D02*
X126268238Y-80076619D01*
X126195666Y-80100810D01*
X126147285Y-80100810D01*
X126074714Y-80076619D01*
X126026333Y-80028238D01*
X126002142Y-79979857D01*
X125977952Y-79883095D01*
X125977952Y-79810524D01*
X126002142Y-79713762D01*
X126026333Y-79665381D01*
X126074714Y-79617000D01*
X126147285Y-79592810D01*
X126195666Y-79592810D01*
X126268238Y-79617000D01*
X126292428Y-79641190D01*
X126485952Y-79641190D02*
X126510142Y-79617000D01*
X126558523Y-79592810D01*
X126679476Y-79592810D01*
X126727857Y-79617000D01*
X126752047Y-79641190D01*
X126776238Y-79689571D01*
X126776238Y-79737952D01*
X126752047Y-79810524D01*
X126461761Y-80100810D01*
X126776238Y-80100810D01*
X127090714Y-79592810D02*
X127139095Y-79592810D01*
X127187476Y-79617000D01*
X127211667Y-79641190D01*
X127235857Y-79689571D01*
X127260048Y-79786333D01*
X127260048Y-79907286D01*
X127235857Y-80004048D01*
X127211667Y-80052429D01*
X127187476Y-80076619D01*
X127139095Y-80100810D01*
X127090714Y-80100810D01*
X127042333Y-80076619D01*
X127018143Y-80052429D01*
X126993952Y-80004048D01*
X126969762Y-79907286D01*
X126969762Y-79786333D01*
X126993952Y-79689571D01*
X127018143Y-79641190D01*
X127042333Y-79617000D01*
X127090714Y-79592810D01*
X136960428Y-63935429D02*
X136936238Y-63959619D01*
X136863666Y-63983810D01*
X136815285Y-63983810D01*
X136742714Y-63959619D01*
X136694333Y-63911238D01*
X136670142Y-63862857D01*
X136645952Y-63766095D01*
X136645952Y-63693524D01*
X136670142Y-63596762D01*
X136694333Y-63548381D01*
X136742714Y-63500000D01*
X136815285Y-63475810D01*
X136863666Y-63475810D01*
X136936238Y-63500000D01*
X136960428Y-63524190D01*
X137153952Y-63524190D02*
X137178142Y-63500000D01*
X137226523Y-63475810D01*
X137347476Y-63475810D01*
X137395857Y-63500000D01*
X137420047Y-63524190D01*
X137444238Y-63572571D01*
X137444238Y-63620952D01*
X137420047Y-63693524D01*
X137129761Y-63983810D01*
X137444238Y-63983810D01*
X137637762Y-63524190D02*
X137661952Y-63500000D01*
X137710333Y-63475810D01*
X137831286Y-63475810D01*
X137879667Y-63500000D01*
X137903857Y-63524190D01*
X137928048Y-63572571D01*
X137928048Y-63620952D01*
X137903857Y-63693524D01*
X137613571Y-63983810D01*
X137928048Y-63983810D01*
X139246429Y-72970572D02*
X139270619Y-72994762D01*
X139294810Y-73067334D01*
X139294810Y-73115715D01*
X139270619Y-73188286D01*
X139222238Y-73236667D01*
X139173857Y-73260858D01*
X139077095Y-73285048D01*
X139004524Y-73285048D01*
X138907762Y-73260858D01*
X138859381Y-73236667D01*
X138811000Y-73188286D01*
X138786810Y-73115715D01*
X138786810Y-73067334D01*
X138811000Y-72994762D01*
X138835190Y-72970572D01*
X138835190Y-72777048D02*
X138811000Y-72752858D01*
X138786810Y-72704477D01*
X138786810Y-72583524D01*
X138811000Y-72535143D01*
X138835190Y-72510953D01*
X138883571Y-72486762D01*
X138931952Y-72486762D01*
X139004524Y-72510953D01*
X139294810Y-72801239D01*
X139294810Y-72486762D01*
X138786810Y-72317429D02*
X138786810Y-72002952D01*
X138980333Y-72172286D01*
X138980333Y-72099714D01*
X139004524Y-72051333D01*
X139028714Y-72027143D01*
X139077095Y-72002952D01*
X139198048Y-72002952D01*
X139246429Y-72027143D01*
X139270619Y-72051333D01*
X139294810Y-72099714D01*
X139294810Y-72244857D01*
X139270619Y-72293238D01*
X139246429Y-72317429D01*
X139246429Y-75256572D02*
X139270619Y-75280762D01*
X139294810Y-75353334D01*
X139294810Y-75401715D01*
X139270619Y-75474286D01*
X139222238Y-75522667D01*
X139173857Y-75546858D01*
X139077095Y-75571048D01*
X139004524Y-75571048D01*
X138907762Y-75546858D01*
X138859381Y-75522667D01*
X138811000Y-75474286D01*
X138786810Y-75401715D01*
X138786810Y-75353334D01*
X138811000Y-75280762D01*
X138835190Y-75256572D01*
X138835190Y-75063048D02*
X138811000Y-75038858D01*
X138786810Y-74990477D01*
X138786810Y-74869524D01*
X138811000Y-74821143D01*
X138835190Y-74796953D01*
X138883571Y-74772762D01*
X138931952Y-74772762D01*
X139004524Y-74796953D01*
X139294810Y-75087239D01*
X139294810Y-74772762D01*
X138956143Y-74337333D02*
X139294810Y-74337333D01*
X138762619Y-74458286D02*
X139125476Y-74579238D01*
X139125476Y-74264762D01*
X138484429Y-80133372D02*
X138508619Y-80157562D01*
X138532810Y-80230134D01*
X138532810Y-80278515D01*
X138508619Y-80351086D01*
X138460238Y-80399467D01*
X138411857Y-80423658D01*
X138315095Y-80447848D01*
X138242524Y-80447848D01*
X138145762Y-80423658D01*
X138097381Y-80399467D01*
X138049000Y-80351086D01*
X138024810Y-80278515D01*
X138024810Y-80230134D01*
X138049000Y-80157562D01*
X138073190Y-80133372D01*
X138073190Y-79939848D02*
X138049000Y-79915658D01*
X138024810Y-79867277D01*
X138024810Y-79746324D01*
X138049000Y-79697943D01*
X138073190Y-79673753D01*
X138121571Y-79649562D01*
X138169952Y-79649562D01*
X138242524Y-79673753D01*
X138532810Y-79964039D01*
X138532810Y-79649562D01*
X138024810Y-79189943D02*
X138024810Y-79431848D01*
X138266714Y-79456038D01*
X138242524Y-79431848D01*
X138218333Y-79383467D01*
X138218333Y-79262514D01*
X138242524Y-79214133D01*
X138266714Y-79189943D01*
X138315095Y-79165752D01*
X138436048Y-79165752D01*
X138484429Y-79189943D01*
X138508619Y-79214133D01*
X138532810Y-79262514D01*
X138532810Y-79383467D01*
X138508619Y-79431848D01*
X138484429Y-79456038D01*
X138992428Y-71555429D02*
X138968238Y-71579619D01*
X138895666Y-71603810D01*
X138847285Y-71603810D01*
X138774714Y-71579619D01*
X138726333Y-71531238D01*
X138702142Y-71482857D01*
X138677952Y-71386095D01*
X138677952Y-71313524D01*
X138702142Y-71216762D01*
X138726333Y-71168381D01*
X138774714Y-71120000D01*
X138847285Y-71095810D01*
X138895666Y-71095810D01*
X138968238Y-71120000D01*
X138992428Y-71144190D01*
X139185952Y-71144190D02*
X139210142Y-71120000D01*
X139258523Y-71095810D01*
X139379476Y-71095810D01*
X139427857Y-71120000D01*
X139452047Y-71144190D01*
X139476238Y-71192571D01*
X139476238Y-71240952D01*
X139452047Y-71313524D01*
X139161761Y-71603810D01*
X139476238Y-71603810D01*
X139766524Y-71313524D02*
X139718143Y-71289333D01*
X139693952Y-71265143D01*
X139669762Y-71216762D01*
X139669762Y-71192571D01*
X139693952Y-71144190D01*
X139718143Y-71120000D01*
X139766524Y-71095810D01*
X139863286Y-71095810D01*
X139911667Y-71120000D01*
X139935857Y-71144190D01*
X139960048Y-71192571D01*
X139960048Y-71216762D01*
X139935857Y-71265143D01*
X139911667Y-71289333D01*
X139863286Y-71313524D01*
X139766524Y-71313524D01*
X139718143Y-71337714D01*
X139693952Y-71361905D01*
X139669762Y-71410286D01*
X139669762Y-71507048D01*
X139693952Y-71555429D01*
X139718143Y-71579619D01*
X139766524Y-71603810D01*
X139863286Y-71603810D01*
X139911667Y-71579619D01*
X139935857Y-71555429D01*
X139960048Y-71507048D01*
X139960048Y-71410286D01*
X139935857Y-71361905D01*
X139911667Y-71337714D01*
X139863286Y-71313524D01*
X135690428Y-62792429D02*
X135666238Y-62816619D01*
X135593666Y-62840810D01*
X135545285Y-62840810D01*
X135472714Y-62816619D01*
X135424333Y-62768238D01*
X135400142Y-62719857D01*
X135375952Y-62623095D01*
X135375952Y-62550524D01*
X135400142Y-62453762D01*
X135424333Y-62405381D01*
X135472714Y-62357000D01*
X135545285Y-62332810D01*
X135593666Y-62332810D01*
X135666238Y-62357000D01*
X135690428Y-62381190D01*
X135859761Y-62332810D02*
X136174238Y-62332810D01*
X136004904Y-62526333D01*
X136077476Y-62526333D01*
X136125857Y-62550524D01*
X136150047Y-62574714D01*
X136174238Y-62623095D01*
X136174238Y-62744048D01*
X136150047Y-62792429D01*
X136125857Y-62816619D01*
X136077476Y-62840810D01*
X135932333Y-62840810D01*
X135883952Y-62816619D01*
X135859761Y-62792429D01*
X136658048Y-62840810D02*
X136367762Y-62840810D01*
X136512905Y-62840810D02*
X136512905Y-62332810D01*
X136464524Y-62405381D01*
X136416143Y-62453762D01*
X136367762Y-62477952D01*
X120577429Y-96846572D02*
X120601619Y-96870762D01*
X120625810Y-96943334D01*
X120625810Y-96991715D01*
X120601619Y-97064286D01*
X120553238Y-97112667D01*
X120504857Y-97136858D01*
X120408095Y-97161048D01*
X120335524Y-97161048D01*
X120238762Y-97136858D01*
X120190381Y-97112667D01*
X120142000Y-97064286D01*
X120117810Y-96991715D01*
X120117810Y-96943334D01*
X120142000Y-96870762D01*
X120166190Y-96846572D01*
X120117810Y-96677239D02*
X120117810Y-96362762D01*
X120311333Y-96532096D01*
X120311333Y-96459524D01*
X120335524Y-96411143D01*
X120359714Y-96386953D01*
X120408095Y-96362762D01*
X120529048Y-96362762D01*
X120577429Y-96386953D01*
X120601619Y-96411143D01*
X120625810Y-96459524D01*
X120625810Y-96604667D01*
X120601619Y-96653048D01*
X120577429Y-96677239D01*
X120117810Y-96193429D02*
X120117810Y-95878952D01*
X120311333Y-96048286D01*
X120311333Y-95975714D01*
X120335524Y-95927333D01*
X120359714Y-95903143D01*
X120408095Y-95878952D01*
X120529048Y-95878952D01*
X120577429Y-95903143D01*
X120601619Y-95927333D01*
X120625810Y-95975714D01*
X120625810Y-96120857D01*
X120601619Y-96169238D01*
X120577429Y-96193429D01*
X119510629Y-101596372D02*
X119534819Y-101620562D01*
X119559010Y-101693134D01*
X119559010Y-101741515D01*
X119534819Y-101814086D01*
X119486438Y-101862467D01*
X119438057Y-101886658D01*
X119341295Y-101910848D01*
X119268724Y-101910848D01*
X119171962Y-101886658D01*
X119123581Y-101862467D01*
X119075200Y-101814086D01*
X119051010Y-101741515D01*
X119051010Y-101693134D01*
X119075200Y-101620562D01*
X119099390Y-101596372D01*
X119051010Y-101427039D02*
X119051010Y-101112562D01*
X119244533Y-101281896D01*
X119244533Y-101209324D01*
X119268724Y-101160943D01*
X119292914Y-101136753D01*
X119341295Y-101112562D01*
X119462248Y-101112562D01*
X119510629Y-101136753D01*
X119534819Y-101160943D01*
X119559010Y-101209324D01*
X119559010Y-101354467D01*
X119534819Y-101402848D01*
X119510629Y-101427039D01*
X119220343Y-100677133D02*
X119559010Y-100677133D01*
X119026819Y-100798086D02*
X119389676Y-100919038D01*
X119389676Y-100604562D01*
X122482428Y-86287429D02*
X122458238Y-86311619D01*
X122385666Y-86335810D01*
X122337285Y-86335810D01*
X122264714Y-86311619D01*
X122216333Y-86263238D01*
X122192142Y-86214857D01*
X122167952Y-86118095D01*
X122167952Y-86045524D01*
X122192142Y-85948762D01*
X122216333Y-85900381D01*
X122264714Y-85852000D01*
X122337285Y-85827810D01*
X122385666Y-85827810D01*
X122458238Y-85852000D01*
X122482428Y-85876190D01*
X122651761Y-85827810D02*
X122966238Y-85827810D01*
X122796904Y-86021333D01*
X122869476Y-86021333D01*
X122917857Y-86045524D01*
X122942047Y-86069714D01*
X122966238Y-86118095D01*
X122966238Y-86239048D01*
X122942047Y-86287429D01*
X122917857Y-86311619D01*
X122869476Y-86335810D01*
X122724333Y-86335810D01*
X122675952Y-86311619D01*
X122651761Y-86287429D01*
X123401667Y-85827810D02*
X123304905Y-85827810D01*
X123256524Y-85852000D01*
X123232333Y-85876190D01*
X123183952Y-85948762D01*
X123159762Y-86045524D01*
X123159762Y-86239048D01*
X123183952Y-86287429D01*
X123208143Y-86311619D01*
X123256524Y-86335810D01*
X123353286Y-86335810D01*
X123401667Y-86311619D01*
X123425857Y-86287429D01*
X123450048Y-86239048D01*
X123450048Y-86118095D01*
X123425857Y-86069714D01*
X123401667Y-86045524D01*
X123353286Y-86021333D01*
X123256524Y-86021333D01*
X123208143Y-86045524D01*
X123183952Y-86069714D01*
X123159762Y-86118095D01*
X136168368Y-102848211D02*
X136168368Y-102882421D01*
X136134158Y-102950843D01*
X136099947Y-102985053D01*
X136031526Y-103019263D01*
X135963105Y-103019263D01*
X135911789Y-103002158D01*
X135826263Y-102950842D01*
X135774948Y-102899526D01*
X135723631Y-102814000D01*
X135706527Y-102762684D01*
X135706527Y-102694263D01*
X135740737Y-102625843D01*
X135774948Y-102591632D01*
X135843369Y-102557421D01*
X135877579Y-102557421D01*
X136168368Y-102198212D02*
X135997316Y-102369264D01*
X136151263Y-102557421D01*
X136151263Y-102523211D01*
X136168368Y-102471895D01*
X136253894Y-102386368D01*
X136305211Y-102369263D01*
X136339420Y-102369263D01*
X136390737Y-102386368D01*
X136476263Y-102471895D01*
X136493368Y-102523211D01*
X136493368Y-102557421D01*
X136476263Y-102608737D01*
X136390737Y-102694264D01*
X136339420Y-102711369D01*
X136305211Y-102711369D01*
X136407842Y-101958738D02*
X136442053Y-101924527D01*
X136493368Y-101907422D01*
X136527579Y-101907421D01*
X136578894Y-101924527D01*
X136664421Y-101975842D01*
X136749947Y-102061369D01*
X136801263Y-102146895D01*
X136818369Y-102198211D01*
X136818368Y-102232421D01*
X136801263Y-102283738D01*
X136767052Y-102317948D01*
X136715736Y-102335053D01*
X136681526Y-102335053D01*
X136630210Y-102317948D01*
X136544684Y-102266632D01*
X136459158Y-102181105D01*
X136407841Y-102095579D01*
X136390737Y-102044263D01*
X136390737Y-102010053D01*
X136407842Y-101958738D01*
X137976429Y-56460572D02*
X138000619Y-56484762D01*
X138024810Y-56557334D01*
X138024810Y-56605715D01*
X138000619Y-56678286D01*
X137952238Y-56726667D01*
X137903857Y-56750858D01*
X137807095Y-56775048D01*
X137734524Y-56775048D01*
X137637762Y-56750858D01*
X137589381Y-56726667D01*
X137541000Y-56678286D01*
X137516810Y-56605715D01*
X137516810Y-56557334D01*
X137541000Y-56484762D01*
X137565190Y-56460572D01*
X137516810Y-56000953D02*
X137516810Y-56242858D01*
X137758714Y-56267048D01*
X137734524Y-56242858D01*
X137710333Y-56194477D01*
X137710333Y-56073524D01*
X137734524Y-56025143D01*
X137758714Y-56000953D01*
X137807095Y-55976762D01*
X137928048Y-55976762D01*
X137976429Y-56000953D01*
X138000619Y-56025143D01*
X138024810Y-56073524D01*
X138024810Y-56194477D01*
X138000619Y-56242858D01*
X137976429Y-56267048D01*
X137734524Y-55686476D02*
X137710333Y-55734857D01*
X137686143Y-55759048D01*
X137637762Y-55783238D01*
X137613571Y-55783238D01*
X137565190Y-55759048D01*
X137541000Y-55734857D01*
X137516810Y-55686476D01*
X137516810Y-55589714D01*
X137541000Y-55541333D01*
X137565190Y-55517143D01*
X137613571Y-55492952D01*
X137637762Y-55492952D01*
X137686143Y-55517143D01*
X137710333Y-55541333D01*
X137734524Y-55589714D01*
X137734524Y-55686476D01*
X137758714Y-55734857D01*
X137782905Y-55759048D01*
X137831286Y-55783238D01*
X137928048Y-55783238D01*
X137976429Y-55759048D01*
X138000619Y-55734857D01*
X138024810Y-55686476D01*
X138024810Y-55589714D01*
X138000619Y-55541333D01*
X137976429Y-55517143D01*
X137928048Y-55492952D01*
X137831286Y-55492952D01*
X137782905Y-55517143D01*
X137758714Y-55541333D01*
X137734524Y-55589714D01*
X124387428Y-79937429D02*
X124363238Y-79961619D01*
X124290666Y-79985810D01*
X124242285Y-79985810D01*
X124169714Y-79961619D01*
X124121333Y-79913238D01*
X124097142Y-79864857D01*
X124072952Y-79768095D01*
X124072952Y-79695524D01*
X124097142Y-79598762D01*
X124121333Y-79550381D01*
X124169714Y-79502000D01*
X124242285Y-79477810D01*
X124290666Y-79477810D01*
X124363238Y-79502000D01*
X124387428Y-79526190D01*
X124847047Y-79477810D02*
X124605142Y-79477810D01*
X124580952Y-79719714D01*
X124605142Y-79695524D01*
X124653523Y-79671333D01*
X124774476Y-79671333D01*
X124822857Y-79695524D01*
X124847047Y-79719714D01*
X124871238Y-79768095D01*
X124871238Y-79889048D01*
X124847047Y-79937429D01*
X124822857Y-79961619D01*
X124774476Y-79985810D01*
X124653523Y-79985810D01*
X124605142Y-79961619D01*
X124580952Y-79937429D01*
X125113143Y-79985810D02*
X125209905Y-79985810D01*
X125258286Y-79961619D01*
X125282476Y-79937429D01*
X125330857Y-79864857D01*
X125355048Y-79768095D01*
X125355048Y-79574571D01*
X125330857Y-79526190D01*
X125306667Y-79502000D01*
X125258286Y-79477810D01*
X125161524Y-79477810D01*
X125113143Y-79502000D01*
X125088952Y-79526190D01*
X125064762Y-79574571D01*
X125064762Y-79695524D01*
X125088952Y-79743905D01*
X125113143Y-79768095D01*
X125161524Y-79792286D01*
X125258286Y-79792286D01*
X125306667Y-79768095D01*
X125330857Y-79743905D01*
X125355048Y-79695524D01*
X118545429Y-78050572D02*
X118569619Y-78074762D01*
X118593810Y-78147334D01*
X118593810Y-78195715D01*
X118569619Y-78268286D01*
X118521238Y-78316667D01*
X118472857Y-78340858D01*
X118376095Y-78365048D01*
X118303524Y-78365048D01*
X118206762Y-78340858D01*
X118158381Y-78316667D01*
X118110000Y-78268286D01*
X118085810Y-78195715D01*
X118085810Y-78147334D01*
X118110000Y-78074762D01*
X118134190Y-78050572D01*
X118085810Y-77615143D02*
X118085810Y-77711905D01*
X118110000Y-77760286D01*
X118134190Y-77784477D01*
X118206762Y-77832858D01*
X118303524Y-77857048D01*
X118497048Y-77857048D01*
X118545429Y-77832858D01*
X118569619Y-77808667D01*
X118593810Y-77760286D01*
X118593810Y-77663524D01*
X118569619Y-77615143D01*
X118545429Y-77590953D01*
X118497048Y-77566762D01*
X118376095Y-77566762D01*
X118327714Y-77590953D01*
X118303524Y-77615143D01*
X118279333Y-77663524D01*
X118279333Y-77760286D01*
X118303524Y-77808667D01*
X118327714Y-77832858D01*
X118376095Y-77857048D01*
X118085810Y-77252286D02*
X118085810Y-77203905D01*
X118110000Y-77155524D01*
X118134190Y-77131333D01*
X118182571Y-77107143D01*
X118279333Y-77082952D01*
X118400286Y-77082952D01*
X118497048Y-77107143D01*
X118545429Y-77131333D01*
X118569619Y-77155524D01*
X118593810Y-77203905D01*
X118593810Y-77252286D01*
X118569619Y-77300667D01*
X118545429Y-77324857D01*
X118497048Y-77349048D01*
X118400286Y-77373238D01*
X118279333Y-77373238D01*
X118182571Y-77349048D01*
X118134190Y-77324857D01*
X118110000Y-77300667D01*
X118085810Y-77252286D01*
X121224428Y-77702229D02*
X121200238Y-77726419D01*
X121127666Y-77750610D01*
X121079285Y-77750610D01*
X121006714Y-77726419D01*
X120958333Y-77678038D01*
X120934142Y-77629657D01*
X120909952Y-77532895D01*
X120909952Y-77460324D01*
X120934142Y-77363562D01*
X120958333Y-77315181D01*
X121006714Y-77266800D01*
X121079285Y-77242610D01*
X121127666Y-77242610D01*
X121200238Y-77266800D01*
X121224428Y-77290990D01*
X121659857Y-77242610D02*
X121563095Y-77242610D01*
X121514714Y-77266800D01*
X121490523Y-77290990D01*
X121442142Y-77363562D01*
X121417952Y-77460324D01*
X121417952Y-77653848D01*
X121442142Y-77702229D01*
X121466333Y-77726419D01*
X121514714Y-77750610D01*
X121611476Y-77750610D01*
X121659857Y-77726419D01*
X121684047Y-77702229D01*
X121708238Y-77653848D01*
X121708238Y-77532895D01*
X121684047Y-77484514D01*
X121659857Y-77460324D01*
X121611476Y-77436133D01*
X121514714Y-77436133D01*
X121466333Y-77460324D01*
X121442142Y-77484514D01*
X121417952Y-77532895D01*
X122192048Y-77750610D02*
X121901762Y-77750610D01*
X122046905Y-77750610D02*
X122046905Y-77242610D01*
X121998524Y-77315181D01*
X121950143Y-77363562D01*
X121901762Y-77387752D01*
X119930428Y-86541429D02*
X119906238Y-86565619D01*
X119833666Y-86589810D01*
X119785285Y-86589810D01*
X119712714Y-86565619D01*
X119664333Y-86517238D01*
X119640142Y-86468857D01*
X119615952Y-86372095D01*
X119615952Y-86299524D01*
X119640142Y-86202762D01*
X119664333Y-86154381D01*
X119712714Y-86106000D01*
X119785285Y-86081810D01*
X119833666Y-86081810D01*
X119906238Y-86106000D01*
X119930428Y-86130190D01*
X120365857Y-86081810D02*
X120269095Y-86081810D01*
X120220714Y-86106000D01*
X120196523Y-86130190D01*
X120148142Y-86202762D01*
X120123952Y-86299524D01*
X120123952Y-86493048D01*
X120148142Y-86541429D01*
X120172333Y-86565619D01*
X120220714Y-86589810D01*
X120317476Y-86589810D01*
X120365857Y-86565619D01*
X120390047Y-86541429D01*
X120414238Y-86493048D01*
X120414238Y-86372095D01*
X120390047Y-86323714D01*
X120365857Y-86299524D01*
X120317476Y-86275333D01*
X120220714Y-86275333D01*
X120172333Y-86299524D01*
X120148142Y-86323714D01*
X120123952Y-86372095D01*
X120607762Y-86130190D02*
X120631952Y-86106000D01*
X120680333Y-86081810D01*
X120801286Y-86081810D01*
X120849667Y-86106000D01*
X120873857Y-86130190D01*
X120898048Y-86178571D01*
X120898048Y-86226952D01*
X120873857Y-86299524D01*
X120583571Y-86589810D01*
X120898048Y-86589810D01*
X126038429Y-84539572D02*
X126062619Y-84563762D01*
X126086810Y-84636334D01*
X126086810Y-84684715D01*
X126062619Y-84757286D01*
X126014238Y-84805667D01*
X125965857Y-84829858D01*
X125869095Y-84854048D01*
X125796524Y-84854048D01*
X125699762Y-84829858D01*
X125651381Y-84805667D01*
X125603000Y-84757286D01*
X125578810Y-84684715D01*
X125578810Y-84636334D01*
X125603000Y-84563762D01*
X125627190Y-84539572D01*
X125578810Y-84104143D02*
X125578810Y-84200905D01*
X125603000Y-84249286D01*
X125627190Y-84273477D01*
X125699762Y-84321858D01*
X125796524Y-84346048D01*
X125990048Y-84346048D01*
X126038429Y-84321858D01*
X126062619Y-84297667D01*
X126086810Y-84249286D01*
X126086810Y-84152524D01*
X126062619Y-84104143D01*
X126038429Y-84079953D01*
X125990048Y-84055762D01*
X125869095Y-84055762D01*
X125820714Y-84079953D01*
X125796524Y-84104143D01*
X125772333Y-84152524D01*
X125772333Y-84249286D01*
X125796524Y-84297667D01*
X125820714Y-84321858D01*
X125869095Y-84346048D01*
X125578810Y-83886429D02*
X125578810Y-83571952D01*
X125772333Y-83741286D01*
X125772333Y-83668714D01*
X125796524Y-83620333D01*
X125820714Y-83596143D01*
X125869095Y-83571952D01*
X125990048Y-83571952D01*
X126038429Y-83596143D01*
X126062619Y-83620333D01*
X126086810Y-83668714D01*
X126086810Y-83813857D01*
X126062619Y-83862238D01*
X126038429Y-83886429D01*
X121768810Y-70684572D02*
X121526905Y-70853905D01*
X121768810Y-70974858D02*
X121260810Y-70974858D01*
X121260810Y-70781334D01*
X121285000Y-70732953D01*
X121309190Y-70708762D01*
X121357571Y-70684572D01*
X121430143Y-70684572D01*
X121478524Y-70708762D01*
X121502714Y-70732953D01*
X121526905Y-70781334D01*
X121526905Y-70974858D01*
X121768810Y-70200762D02*
X121768810Y-70491048D01*
X121768810Y-70345905D02*
X121260810Y-70345905D01*
X121333381Y-70394286D01*
X121381762Y-70442667D01*
X121405952Y-70491048D01*
X121260810Y-69886286D02*
X121260810Y-69837905D01*
X121285000Y-69789524D01*
X121309190Y-69765333D01*
X121357571Y-69741143D01*
X121454333Y-69716952D01*
X121575286Y-69716952D01*
X121672048Y-69741143D01*
X121720429Y-69765333D01*
X121744619Y-69789524D01*
X121768810Y-69837905D01*
X121768810Y-69886286D01*
X121744619Y-69934667D01*
X121720429Y-69958857D01*
X121672048Y-69983048D01*
X121575286Y-70007238D01*
X121454333Y-70007238D01*
X121357571Y-69983048D01*
X121309190Y-69958857D01*
X121285000Y-69934667D01*
X121260810Y-69886286D01*
X121768810Y-68144572D02*
X121526905Y-68313905D01*
X121768810Y-68434858D02*
X121260810Y-68434858D01*
X121260810Y-68241334D01*
X121285000Y-68192953D01*
X121309190Y-68168762D01*
X121357571Y-68144572D01*
X121430143Y-68144572D01*
X121478524Y-68168762D01*
X121502714Y-68192953D01*
X121526905Y-68241334D01*
X121526905Y-68434858D01*
X121768810Y-67660762D02*
X121768810Y-67951048D01*
X121768810Y-67805905D02*
X121260810Y-67805905D01*
X121333381Y-67854286D01*
X121381762Y-67902667D01*
X121405952Y-67951048D01*
X121768810Y-67176952D02*
X121768810Y-67467238D01*
X121768810Y-67322095D02*
X121260810Y-67322095D01*
X121333381Y-67370476D01*
X121381762Y-67418857D01*
X121405952Y-67467238D01*
X119561428Y-68911410D02*
X119392095Y-68669505D01*
X119271142Y-68911410D02*
X119271142Y-68403410D01*
X119464666Y-68403410D01*
X119513047Y-68427600D01*
X119537238Y-68451790D01*
X119561428Y-68500171D01*
X119561428Y-68572743D01*
X119537238Y-68621124D01*
X119513047Y-68645314D01*
X119464666Y-68669505D01*
X119271142Y-68669505D01*
X120045238Y-68911410D02*
X119754952Y-68911410D01*
X119900095Y-68911410D02*
X119900095Y-68403410D01*
X119851714Y-68475981D01*
X119803333Y-68524362D01*
X119754952Y-68548552D01*
X120238762Y-68451790D02*
X120262952Y-68427600D01*
X120311333Y-68403410D01*
X120432286Y-68403410D01*
X120480667Y-68427600D01*
X120504857Y-68451790D01*
X120529048Y-68500171D01*
X120529048Y-68548552D01*
X120504857Y-68621124D01*
X120214571Y-68911410D01*
X120529048Y-68911410D01*
X119561428Y-71857810D02*
X119392095Y-71615905D01*
X119271142Y-71857810D02*
X119271142Y-71349810D01*
X119464666Y-71349810D01*
X119513047Y-71374000D01*
X119537238Y-71398190D01*
X119561428Y-71446571D01*
X119561428Y-71519143D01*
X119537238Y-71567524D01*
X119513047Y-71591714D01*
X119464666Y-71615905D01*
X119271142Y-71615905D01*
X120045238Y-71857810D02*
X119754952Y-71857810D01*
X119900095Y-71857810D02*
X119900095Y-71349810D01*
X119851714Y-71422381D01*
X119803333Y-71470762D01*
X119754952Y-71494952D01*
X120214571Y-71349810D02*
X120529048Y-71349810D01*
X120359714Y-71543333D01*
X120432286Y-71543333D01*
X120480667Y-71567524D01*
X120504857Y-71591714D01*
X120529048Y-71640095D01*
X120529048Y-71761048D01*
X120504857Y-71809429D01*
X120480667Y-71833619D01*
X120432286Y-71857810D01*
X120287143Y-71857810D01*
X120238762Y-71833619D01*
X120214571Y-71809429D01*
X122812628Y-66015810D02*
X122643295Y-65773905D01*
X122522342Y-66015810D02*
X122522342Y-65507810D01*
X122715866Y-65507810D01*
X122764247Y-65532000D01*
X122788438Y-65556190D01*
X122812628Y-65604571D01*
X122812628Y-65677143D01*
X122788438Y-65725524D01*
X122764247Y-65749714D01*
X122715866Y-65773905D01*
X122522342Y-65773905D01*
X123296438Y-66015810D02*
X123006152Y-66015810D01*
X123151295Y-66015810D02*
X123151295Y-65507810D01*
X123102914Y-65580381D01*
X123054533Y-65628762D01*
X123006152Y-65652952D01*
X123731867Y-65677143D02*
X123731867Y-66015810D01*
X123610914Y-65483619D02*
X123489962Y-65846476D01*
X123804438Y-65846476D01*
X117656428Y-107798810D02*
X117487095Y-107556905D01*
X117366142Y-107798810D02*
X117366142Y-107290810D01*
X117559666Y-107290810D01*
X117608047Y-107315000D01*
X117632238Y-107339190D01*
X117656428Y-107387571D01*
X117656428Y-107460143D01*
X117632238Y-107508524D01*
X117608047Y-107532714D01*
X117559666Y-107556905D01*
X117366142Y-107556905D01*
X117849952Y-107339190D02*
X117874142Y-107315000D01*
X117922523Y-107290810D01*
X118043476Y-107290810D01*
X118091857Y-107315000D01*
X118116047Y-107339190D01*
X118140238Y-107387571D01*
X118140238Y-107435952D01*
X118116047Y-107508524D01*
X117825761Y-107798810D01*
X118140238Y-107798810D01*
X118309571Y-107290810D02*
X118624048Y-107290810D01*
X118454714Y-107484333D01*
X118527286Y-107484333D01*
X118575667Y-107508524D01*
X118599857Y-107532714D01*
X118624048Y-107581095D01*
X118624048Y-107702048D01*
X118599857Y-107750429D01*
X118575667Y-107774619D01*
X118527286Y-107798810D01*
X118382143Y-107798810D01*
X118333762Y-107774619D01*
X118309571Y-107750429D01*
X131067628Y-56414610D02*
X130898295Y-56172705D01*
X130777342Y-56414610D02*
X130777342Y-55906610D01*
X130970866Y-55906610D01*
X131019247Y-55930800D01*
X131043438Y-55954990D01*
X131067628Y-56003371D01*
X131067628Y-56075943D01*
X131043438Y-56124324D01*
X131019247Y-56148514D01*
X130970866Y-56172705D01*
X130777342Y-56172705D01*
X131236961Y-55906610D02*
X131551438Y-55906610D01*
X131382104Y-56100133D01*
X131454676Y-56100133D01*
X131503057Y-56124324D01*
X131527247Y-56148514D01*
X131551438Y-56196895D01*
X131551438Y-56317848D01*
X131527247Y-56366229D01*
X131503057Y-56390419D01*
X131454676Y-56414610D01*
X131309533Y-56414610D01*
X131261152Y-56390419D01*
X131236961Y-56366229D01*
X131793343Y-56414610D02*
X131890105Y-56414610D01*
X131938486Y-56390419D01*
X131962676Y-56366229D01*
X132011057Y-56293657D01*
X132035248Y-56196895D01*
X132035248Y-56003371D01*
X132011057Y-55954990D01*
X131986867Y-55930800D01*
X131938486Y-55906610D01*
X131841724Y-55906610D01*
X131793343Y-55930800D01*
X131769152Y-55954990D01*
X131744962Y-56003371D01*
X131744962Y-56124324D01*
X131769152Y-56172705D01*
X131793343Y-56196895D01*
X131841724Y-56221086D01*
X131938486Y-56221086D01*
X131986867Y-56196895D01*
X132011057Y-56172705D01*
X132035248Y-56124324D01*
X122530810Y-56714572D02*
X122288905Y-56883905D01*
X122530810Y-57004858D02*
X122022810Y-57004858D01*
X122022810Y-56811334D01*
X122047000Y-56762953D01*
X122071190Y-56738762D01*
X122119571Y-56714572D01*
X122192143Y-56714572D01*
X122240524Y-56738762D01*
X122264714Y-56762953D01*
X122288905Y-56811334D01*
X122288905Y-57004858D01*
X122192143Y-56279143D02*
X122530810Y-56279143D01*
X121998619Y-56400096D02*
X122361476Y-56521048D01*
X122361476Y-56206572D01*
X122071190Y-56037238D02*
X122047000Y-56013048D01*
X122022810Y-55964667D01*
X122022810Y-55843714D01*
X122047000Y-55795333D01*
X122071190Y-55771143D01*
X122119571Y-55746952D01*
X122167952Y-55746952D01*
X122240524Y-55771143D01*
X122530810Y-56061429D01*
X122530810Y-55746952D01*
X122526510Y-58193872D02*
X122284605Y-58363205D01*
X122526510Y-58484158D02*
X122018510Y-58484158D01*
X122018510Y-58290634D01*
X122042700Y-58242253D01*
X122066890Y-58218062D01*
X122115271Y-58193872D01*
X122187843Y-58193872D01*
X122236224Y-58218062D01*
X122260414Y-58242253D01*
X122284605Y-58290634D01*
X122284605Y-58484158D01*
X122187843Y-57758443D02*
X122526510Y-57758443D01*
X121994319Y-57879396D02*
X122357176Y-58000348D01*
X122357176Y-57685872D01*
X122018510Y-57540729D02*
X122018510Y-57226252D01*
X122212033Y-57395586D01*
X122212033Y-57323014D01*
X122236224Y-57274633D01*
X122260414Y-57250443D01*
X122308795Y-57226252D01*
X122429748Y-57226252D01*
X122478129Y-57250443D01*
X122502319Y-57274633D01*
X122526510Y-57323014D01*
X122526510Y-57468157D01*
X122502319Y-57516538D01*
X122478129Y-57540729D01*
X125403428Y-59792810D02*
X125234095Y-59550905D01*
X125113142Y-59792810D02*
X125113142Y-59284810D01*
X125306666Y-59284810D01*
X125355047Y-59309000D01*
X125379238Y-59333190D01*
X125403428Y-59381571D01*
X125403428Y-59454143D01*
X125379238Y-59502524D01*
X125355047Y-59526714D01*
X125306666Y-59550905D01*
X125113142Y-59550905D01*
X125838857Y-59454143D02*
X125838857Y-59792810D01*
X125717904Y-59260619D02*
X125596952Y-59623476D01*
X125911428Y-59623476D01*
X126322667Y-59454143D02*
X126322667Y-59792810D01*
X126201714Y-59260619D02*
X126080762Y-59623476D01*
X126395238Y-59623476D01*
X131368333Y-62332810D02*
X131126428Y-62332810D01*
X131126428Y-61824810D01*
X131513476Y-61873190D02*
X131537666Y-61849000D01*
X131586047Y-61824810D01*
X131707000Y-61824810D01*
X131755381Y-61849000D01*
X131779571Y-61873190D01*
X131803762Y-61921571D01*
X131803762Y-61969952D01*
X131779571Y-62042524D01*
X131489285Y-62332810D01*
X131803762Y-62332810D01*
X116737368Y-57831632D02*
X116378158Y-57472422D01*
X116463685Y-57386895D01*
X116532105Y-57352685D01*
X116600526Y-57352685D01*
X116651842Y-57369789D01*
X116737368Y-57421106D01*
X116788684Y-57472421D01*
X116840000Y-57557947D01*
X116857105Y-57609263D01*
X116857105Y-57677684D01*
X116822895Y-57746105D01*
X116737368Y-57831632D01*
X116908421Y-56942159D02*
X116737368Y-57113212D01*
X116891315Y-57301368D01*
X116891315Y-57267159D01*
X116908420Y-57215842D01*
X116993947Y-57130316D01*
X117045263Y-57113211D01*
X117079473Y-57113211D01*
X117130789Y-57130316D01*
X117216316Y-57215842D01*
X117233421Y-57267159D01*
X117233421Y-57301368D01*
X117216316Y-57352685D01*
X117130789Y-57438211D01*
X117079473Y-57455316D01*
X117045263Y-57455316D01*
X138484428Y-58855429D02*
X138460238Y-58879619D01*
X138387666Y-58903810D01*
X138339285Y-58903810D01*
X138266714Y-58879619D01*
X138218333Y-58831238D01*
X138194142Y-58782857D01*
X138169952Y-58686095D01*
X138169952Y-58613524D01*
X138194142Y-58516762D01*
X138218333Y-58468381D01*
X138266714Y-58420000D01*
X138339285Y-58395810D01*
X138387666Y-58395810D01*
X138460238Y-58420000D01*
X138484428Y-58444190D01*
X138653761Y-58395810D02*
X138968238Y-58395810D01*
X138798904Y-58589333D01*
X138871476Y-58589333D01*
X138919857Y-58613524D01*
X138944047Y-58637714D01*
X138968238Y-58686095D01*
X138968238Y-58807048D01*
X138944047Y-58855429D01*
X138919857Y-58879619D01*
X138871476Y-58903810D01*
X138726333Y-58903810D01*
X138677952Y-58879619D01*
X138653761Y-58855429D01*
X139161762Y-58444190D02*
X139185952Y-58420000D01*
X139234333Y-58395810D01*
X139355286Y-58395810D01*
X139403667Y-58420000D01*
X139427857Y-58444190D01*
X139452048Y-58492571D01*
X139452048Y-58540952D01*
X139427857Y-58613524D01*
X139137571Y-58903810D01*
X139452048Y-58903810D01*
X131085788Y-113308368D02*
X131051578Y-113308368D01*
X130983156Y-113274158D01*
X130948946Y-113239947D01*
X130914736Y-113171526D01*
X130914736Y-113103105D01*
X130931841Y-113051789D01*
X130983157Y-112966263D01*
X131034473Y-112914948D01*
X131119999Y-112863631D01*
X131171315Y-112846527D01*
X131239736Y-112846527D01*
X131308156Y-112880737D01*
X131342367Y-112914948D01*
X131376578Y-112983369D01*
X131376578Y-113017579D01*
X131735787Y-113308368D02*
X131564735Y-113137316D01*
X131376578Y-113291263D01*
X131410788Y-113291263D01*
X131462104Y-113308368D01*
X131547631Y-113393894D01*
X131564736Y-113445211D01*
X131564736Y-113479420D01*
X131547631Y-113530737D01*
X131462104Y-113616263D01*
X131410788Y-113633368D01*
X131376578Y-113633368D01*
X131325262Y-113616263D01*
X131239735Y-113530737D01*
X131222630Y-113479420D01*
X131222630Y-113445211D01*
X132077893Y-113650474D02*
X131906840Y-113479421D01*
X131718683Y-113633368D01*
X131752893Y-113633368D01*
X131804209Y-113650473D01*
X131889736Y-113736000D01*
X131906841Y-113787316D01*
X131906841Y-113821526D01*
X131889736Y-113872842D01*
X131804209Y-113958369D01*
X131752893Y-113975473D01*
X131718683Y-113975473D01*
X131667367Y-113958369D01*
X131581840Y-113872842D01*
X131564736Y-113821526D01*
X131564736Y-113787316D01*
X134006789Y-113816368D02*
X133972579Y-113816368D01*
X133904157Y-113782158D01*
X133869947Y-113747947D01*
X133835737Y-113679526D01*
X133835737Y-113611105D01*
X133852842Y-113559789D01*
X133904158Y-113474263D01*
X133955474Y-113422948D01*
X134041000Y-113371631D01*
X134092316Y-113354527D01*
X134160737Y-113354527D01*
X134229157Y-113388737D01*
X134263368Y-113422948D01*
X134297579Y-113491369D01*
X134297579Y-113525579D01*
X134656788Y-113816368D02*
X134485736Y-113645316D01*
X134297579Y-113799263D01*
X134331789Y-113799263D01*
X134383105Y-113816368D01*
X134468632Y-113901894D01*
X134485737Y-113953211D01*
X134485737Y-113987420D01*
X134468632Y-114038737D01*
X134383105Y-114124263D01*
X134331789Y-114141368D01*
X134297579Y-114141368D01*
X134246263Y-114124263D01*
X134160736Y-114038737D01*
X134143631Y-113987420D01*
X134143631Y-113953211D01*
X134862052Y-114261105D02*
X134622579Y-114500579D01*
X134913368Y-114038737D02*
X134571263Y-114209789D01*
X134793631Y-114432157D01*
X136673789Y-110387368D02*
X136639579Y-110387368D01*
X136571157Y-110353158D01*
X136536947Y-110318947D01*
X136502737Y-110250526D01*
X136502737Y-110182105D01*
X136519842Y-110130789D01*
X136571158Y-110045263D01*
X136622474Y-109993948D01*
X136708000Y-109942631D01*
X136759316Y-109925527D01*
X136827737Y-109925527D01*
X136896157Y-109959737D01*
X136930368Y-109993948D01*
X136964579Y-110062369D01*
X136964579Y-110096579D01*
X137323788Y-110387368D02*
X137152736Y-110216316D01*
X136964579Y-110370263D01*
X136998789Y-110370263D01*
X137050105Y-110387368D01*
X137135632Y-110472894D01*
X137152737Y-110524211D01*
X137152737Y-110558420D01*
X137135632Y-110609737D01*
X137050105Y-110695263D01*
X136998789Y-110712368D01*
X136964579Y-110712368D01*
X136913263Y-110695263D01*
X136827736Y-110609737D01*
X136810631Y-110558420D01*
X136810631Y-110524211D01*
X137648789Y-110712369D02*
X137580368Y-110643948D01*
X137529052Y-110626842D01*
X137494842Y-110626841D01*
X137409315Y-110643947D01*
X137323789Y-110695263D01*
X137186947Y-110832105D01*
X137169841Y-110883421D01*
X137169842Y-110917631D01*
X137186947Y-110968947D01*
X137255368Y-111037369D01*
X137306684Y-111054473D01*
X137340894Y-111054473D01*
X137392210Y-111037369D01*
X137477737Y-110951842D01*
X137494842Y-110900526D01*
X137494842Y-110866316D01*
X137477737Y-110815000D01*
X137409316Y-110746579D01*
X137358000Y-110729474D01*
X137323789Y-110729473D01*
X137272474Y-110746579D01*
X138708368Y-112500211D02*
X138708368Y-112534421D01*
X138674158Y-112602843D01*
X138639947Y-112637053D01*
X138571526Y-112671263D01*
X138503105Y-112671263D01*
X138451789Y-112654158D01*
X138366263Y-112602842D01*
X138314948Y-112551526D01*
X138263631Y-112466000D01*
X138246527Y-112414684D01*
X138246527Y-112346263D01*
X138280737Y-112277843D01*
X138314948Y-112243632D01*
X138383369Y-112209421D01*
X138417579Y-112209421D01*
X138708368Y-111850212D02*
X138537316Y-112021264D01*
X138691263Y-112209421D01*
X138691263Y-112175211D01*
X138708368Y-112123895D01*
X138793894Y-112038368D01*
X138845211Y-112021263D01*
X138879420Y-112021263D01*
X138930737Y-112038368D01*
X139016263Y-112123895D01*
X139033368Y-112175211D01*
X139033368Y-112209421D01*
X139016263Y-112260737D01*
X138930737Y-112346264D01*
X138879420Y-112363369D01*
X138845211Y-112363369D01*
X138845211Y-111713369D02*
X139084684Y-111473896D01*
X139289947Y-111987053D01*
X140945810Y-75510572D02*
X140703905Y-75679905D01*
X140945810Y-75800858D02*
X140437810Y-75800858D01*
X140437810Y-75607334D01*
X140462000Y-75558953D01*
X140486190Y-75534762D01*
X140534571Y-75510572D01*
X140607143Y-75510572D01*
X140655524Y-75534762D01*
X140679714Y-75558953D01*
X140703905Y-75607334D01*
X140703905Y-75800858D01*
X140486190Y-75317048D02*
X140462000Y-75292858D01*
X140437810Y-75244477D01*
X140437810Y-75123524D01*
X140462000Y-75075143D01*
X140486190Y-75050953D01*
X140534571Y-75026762D01*
X140582952Y-75026762D01*
X140655524Y-75050953D01*
X140945810Y-75341239D01*
X140945810Y-75026762D01*
X140437810Y-74857429D02*
X140437810Y-74518762D01*
X140945810Y-74736476D01*
X140564810Y-82114572D02*
X140322905Y-82283905D01*
X140564810Y-82404858D02*
X140056810Y-82404858D01*
X140056810Y-82211334D01*
X140081000Y-82162953D01*
X140105190Y-82138762D01*
X140153571Y-82114572D01*
X140226143Y-82114572D01*
X140274524Y-82138762D01*
X140298714Y-82162953D01*
X140322905Y-82211334D01*
X140322905Y-82404858D01*
X140105190Y-81921048D02*
X140081000Y-81896858D01*
X140056810Y-81848477D01*
X140056810Y-81727524D01*
X140081000Y-81679143D01*
X140105190Y-81654953D01*
X140153571Y-81630762D01*
X140201952Y-81630762D01*
X140274524Y-81654953D01*
X140564810Y-81945239D01*
X140564810Y-81630762D01*
X140274524Y-81340476D02*
X140250333Y-81388857D01*
X140226143Y-81413048D01*
X140177762Y-81437238D01*
X140153571Y-81437238D01*
X140105190Y-81413048D01*
X140081000Y-81388857D01*
X140056810Y-81340476D01*
X140056810Y-81243714D01*
X140081000Y-81195333D01*
X140105190Y-81171143D01*
X140153571Y-81146952D01*
X140177762Y-81146952D01*
X140226143Y-81171143D01*
X140250333Y-81195333D01*
X140274524Y-81243714D01*
X140274524Y-81340476D01*
X140298714Y-81388857D01*
X140322905Y-81413048D01*
X140371286Y-81437238D01*
X140468048Y-81437238D01*
X140516429Y-81413048D01*
X140540619Y-81388857D01*
X140564810Y-81340476D01*
X140564810Y-81243714D01*
X140540619Y-81195333D01*
X140516429Y-81171143D01*
X140468048Y-81146952D01*
X140371286Y-81146952D01*
X140322905Y-81171143D01*
X140298714Y-81195333D01*
X140274524Y-81243714D01*
X131166810Y-93351048D02*
X131578048Y-93351048D01*
X131626429Y-93326857D01*
X131650619Y-93302667D01*
X131674810Y-93254286D01*
X131674810Y-93157524D01*
X131650619Y-93109143D01*
X131626429Y-93084952D01*
X131578048Y-93060762D01*
X131166810Y-93060762D01*
X131674810Y-92552762D02*
X131674810Y-92843048D01*
X131674810Y-92697905D02*
X131166810Y-92697905D01*
X131239381Y-92746286D01*
X131287762Y-92794667D01*
X131311952Y-92843048D01*
X120656047Y-65253810D02*
X120656047Y-64745810D01*
X120777000Y-64745810D01*
X120849571Y-64770000D01*
X120897952Y-64818381D01*
X120922143Y-64866762D01*
X120946333Y-64963524D01*
X120946333Y-65036095D01*
X120922143Y-65132857D01*
X120897952Y-65181238D01*
X120849571Y-65229619D01*
X120777000Y-65253810D01*
X120656047Y-65253810D01*
X121381762Y-64915143D02*
X121381762Y-65253810D01*
X121260809Y-64721619D02*
X121139857Y-65084476D01*
X121454333Y-65084476D01*
%LPC*%
D18*
X120334000Y-83726000D03*
X120834000Y-83726000D03*
X121334000Y-83726000D03*
X121834000Y-83726000D03*
X122334000Y-83726000D03*
X122834000Y-83726000D03*
D19*
X123534000Y-83026000D03*
X123534000Y-82526000D03*
X123534000Y-82026000D03*
X123534000Y-81526000D03*
X123534000Y-81026000D03*
X123534000Y-80526000D03*
D18*
X122834000Y-79826000D03*
X122334000Y-79826000D03*
X121834000Y-79826000D03*
X121334000Y-79826000D03*
X120834000Y-79826000D03*
X120334000Y-79826000D03*
D19*
X119634000Y-80526000D03*
X119634000Y-81026000D03*
X119634000Y-81526000D03*
X119634000Y-82026000D03*
X119634000Y-82526000D03*
X119634000Y-83026000D03*
D20*
X117983000Y-105984040D03*
D21*
X117983000Y-101981000D03*
X117983000Y-103982520D03*
D22*
X133453000Y-83947000D03*
X130453000Y-83947000D03*
D10*
G36*
X127675008Y-107506662D02*
X128205338Y-108036992D01*
X127639652Y-108602678D01*
X127109322Y-108072348D01*
X127675008Y-107506662D01*
X127675008Y-107506662D01*
G37*
G36*
X126614348Y-108567322D02*
X127144678Y-109097652D01*
X126578992Y-109663338D01*
X126048662Y-109133008D01*
X126614348Y-108567322D01*
X126614348Y-108567322D01*
G37*
G36*
X136230992Y-107250338D02*
X135700662Y-106720008D01*
X136266348Y-106154322D01*
X136796678Y-106684652D01*
X136230992Y-107250338D01*
X136230992Y-107250338D01*
G37*
G36*
X137291652Y-106189678D02*
X136761322Y-105659348D01*
X137327008Y-105093662D01*
X137857338Y-105623992D01*
X137291652Y-106189678D01*
X137291652Y-106189678D01*
G37*
G36*
X136151909Y-104130695D02*
X136788305Y-104767091D01*
X136434751Y-105120645D01*
X135798355Y-104484249D01*
X136151909Y-104130695D01*
X136151909Y-104130695D01*
G37*
G36*
X135091249Y-105191355D02*
X135727645Y-105827751D01*
X135374091Y-106181305D01*
X134737695Y-105544909D01*
X135091249Y-105191355D01*
X135091249Y-105191355D01*
G37*
D23*
X136080500Y-76852780D03*
X136080500Y-76352400D03*
X136080500Y-75852020D03*
X136080500Y-75351640D03*
X136080500Y-74851260D03*
X136080500Y-74353420D03*
X136080500Y-73853040D03*
X136080500Y-73352660D03*
X136080500Y-72852280D03*
X136080500Y-72351900D03*
X136080500Y-71851520D03*
X136080500Y-81351120D03*
X136080500Y-80853280D03*
X136080500Y-80352900D03*
X128079500Y-75852020D03*
X136080500Y-79352140D03*
X136080500Y-78851760D03*
X136080500Y-78351380D03*
X136080500Y-77853540D03*
X136080500Y-77353160D03*
X128079500Y-73352660D03*
X128079500Y-73853040D03*
X128079500Y-74353420D03*
X128079500Y-74851260D03*
X128079500Y-75351640D03*
X136080500Y-79852520D03*
X128079500Y-76352400D03*
X128079500Y-76852780D03*
X128079500Y-77353160D03*
X128079500Y-77853540D03*
X128079500Y-78351380D03*
X128079500Y-78851760D03*
X128079500Y-79352140D03*
X128079500Y-67853560D03*
X128079500Y-68351400D03*
X128079500Y-68851780D03*
X128079500Y-69352160D03*
X128079500Y-69852540D03*
X128079500Y-70352920D03*
X128079500Y-70853300D03*
X128079500Y-71351140D03*
X128079500Y-71851520D03*
X128079500Y-72351900D03*
X128079500Y-72852280D03*
X128079500Y-79852520D03*
X128079500Y-80352900D03*
X128079500Y-80853280D03*
X128079500Y-81351120D03*
X136080500Y-71351140D03*
X136080500Y-70853300D03*
X136080500Y-70352920D03*
X136080500Y-69852540D03*
X136080500Y-69352160D03*
X136080500Y-68851780D03*
X136080500Y-68351400D03*
X136080500Y-67853560D03*
D24*
X132080000Y-74549000D03*
D10*
G36*
X133357909Y-107813695D02*
X133994305Y-108450091D01*
X133640751Y-108803645D01*
X133004355Y-108167249D01*
X133357909Y-107813695D01*
X133357909Y-107813695D01*
G37*
G36*
X132297249Y-108874355D02*
X132933645Y-109510751D01*
X132580091Y-109864305D01*
X131943695Y-109227909D01*
X132297249Y-108874355D01*
X132297249Y-108874355D01*
G37*
G36*
X134152008Y-101918662D02*
X134682338Y-102448992D01*
X134116652Y-103014678D01*
X133586322Y-102484348D01*
X134152008Y-101918662D01*
X134152008Y-101918662D01*
G37*
G36*
X133091348Y-102979322D02*
X133621678Y-103509652D01*
X133055992Y-104075338D01*
X132525662Y-103545008D01*
X133091348Y-102979322D01*
X133091348Y-102979322D01*
G37*
D25*
X166334000Y-76200000D03*
D26*
X167734000Y-75625000D03*
X167734000Y-76775000D03*
X170534000Y-76775000D03*
X170534000Y-75625000D03*
X167734000Y-74475000D03*
X170534000Y-74475000D03*
X167734000Y-77925000D03*
X170534000Y-77925000D03*
D27*
X164084000Y-76200000D03*
X164084000Y-74000000D03*
X164084000Y-78400000D03*
X173384000Y-76200000D03*
X173384000Y-78400000D03*
X173384000Y-74000000D03*
D28*
X170393000Y-67567000D03*
D29*
X169818000Y-66167000D03*
X170968000Y-66167000D03*
X170968000Y-63367000D03*
X169818000Y-63367000D03*
X168668000Y-66167000D03*
X168668000Y-63367000D03*
X172118000Y-66167000D03*
X172118000Y-63367000D03*
D30*
X170393000Y-69817000D03*
X168193000Y-69817000D03*
X172593000Y-69817000D03*
X170393000Y-60517000D03*
X172593000Y-60517000D03*
X168193000Y-60517000D03*
D25*
X144334000Y-76200000D03*
D26*
X145734000Y-75625000D03*
X145734000Y-76775000D03*
X148534000Y-76775000D03*
X148534000Y-75625000D03*
X145734000Y-74475000D03*
X148534000Y-74475000D03*
X145734000Y-77925000D03*
X148534000Y-77925000D03*
D27*
X142084000Y-76200000D03*
X142084000Y-74000000D03*
X142084000Y-78400000D03*
X151384000Y-76200000D03*
X151384000Y-78400000D03*
X151384000Y-74000000D03*
D31*
X151384000Y-58039000D03*
X164084000Y-58039000D03*
D10*
G36*
X135772305Y-109989909D02*
X135135909Y-110626305D01*
X134782355Y-110272751D01*
X135418751Y-109636355D01*
X135772305Y-109989909D01*
X135772305Y-109989909D01*
G37*
G36*
X134711645Y-108929249D02*
X134075249Y-109565645D01*
X133721695Y-109212091D01*
X134358091Y-108575695D01*
X134711645Y-108929249D01*
X134711645Y-108929249D01*
G37*
G36*
X132453091Y-111870905D02*
X131816695Y-111234509D01*
X132170249Y-110880955D01*
X132806645Y-111517351D01*
X132453091Y-111870905D01*
X132453091Y-111870905D01*
G37*
G36*
X133513751Y-110810245D02*
X132877355Y-110173849D01*
X133230909Y-109820295D01*
X133867305Y-110456691D01*
X133513751Y-110810245D01*
X133513751Y-110810245D01*
G37*
D32*
X123256040Y-110363000D03*
D33*
X119253000Y-110363000D03*
X121254520Y-110363000D03*
X117254020Y-110363000D03*
D32*
X127093980Y-58039000D03*
D33*
X131097020Y-58039000D03*
X129095500Y-58039000D03*
X133096000Y-58039000D03*
X135097520Y-58039000D03*
X137099040Y-58039000D03*
D21*
X118003300Y-81459440D03*
X118003300Y-83458420D03*
X118003300Y-85459940D03*
D20*
X118003300Y-93466020D03*
D21*
X118003300Y-89462980D03*
X118003300Y-91464500D03*
X118003300Y-87464000D03*
X118003300Y-79460460D03*
D20*
X117983000Y-74930000D03*
D21*
X117983000Y-70926960D03*
X117983000Y-72928480D03*
X117983000Y-68927980D03*
X117983000Y-66926460D03*
D34*
X123946000Y-99916500D03*
X123296000Y-99916500D03*
X122646000Y-99916500D03*
X121996000Y-99916500D03*
X121996000Y-103016500D03*
X122646000Y-103016500D03*
X123296000Y-103016500D03*
X123946000Y-103016500D03*
D35*
X122371000Y-101854000D03*
X123571000Y-101854000D03*
X122371000Y-101079000D03*
X123571000Y-101079000D03*
D10*
G36*
X129890482Y-104177400D02*
X130102614Y-103965268D01*
X130618802Y-104481456D01*
X130406670Y-104693588D01*
X129890482Y-104177400D01*
X129890482Y-104177400D01*
G37*
G36*
X129536929Y-104530954D02*
X129749061Y-104318822D01*
X130265249Y-104835010D01*
X130053117Y-105047142D01*
X129536929Y-104530954D01*
X129536929Y-104530954D01*
G37*
G36*
X129183375Y-104884507D02*
X129395507Y-104672375D01*
X129911695Y-105188563D01*
X129699563Y-105400695D01*
X129183375Y-104884507D01*
X129183375Y-104884507D01*
G37*
G36*
X128829822Y-105238061D02*
X129041954Y-105025929D01*
X129558142Y-105542117D01*
X129346010Y-105754249D01*
X128829822Y-105238061D01*
X128829822Y-105238061D01*
G37*
G36*
X128476268Y-105591614D02*
X128688400Y-105379482D01*
X129204588Y-105895670D01*
X128992456Y-106107802D01*
X128476268Y-105591614D01*
X128476268Y-105591614D01*
G37*
G36*
X128688400Y-107472518D02*
X128476268Y-107260386D01*
X128992456Y-106744198D01*
X129204588Y-106956330D01*
X128688400Y-107472518D01*
X128688400Y-107472518D01*
G37*
G36*
X129041954Y-107826071D02*
X128829822Y-107613939D01*
X129346010Y-107097751D01*
X129558142Y-107309883D01*
X129041954Y-107826071D01*
X129041954Y-107826071D01*
G37*
G36*
X129395507Y-108179625D02*
X129183375Y-107967493D01*
X129699563Y-107451305D01*
X129911695Y-107663437D01*
X129395507Y-108179625D01*
X129395507Y-108179625D01*
G37*
G36*
X129749061Y-108533178D02*
X129536929Y-108321046D01*
X130053117Y-107804858D01*
X130265249Y-108016990D01*
X129749061Y-108533178D01*
X129749061Y-108533178D01*
G37*
G36*
X130102614Y-108886732D02*
X129890482Y-108674600D01*
X130406670Y-108158412D01*
X130618802Y-108370544D01*
X130102614Y-108886732D01*
X130102614Y-108886732D01*
G37*
G36*
X131255198Y-108370544D02*
X131467330Y-108158412D01*
X131983518Y-108674600D01*
X131771386Y-108886732D01*
X131255198Y-108370544D01*
X131255198Y-108370544D01*
G37*
G36*
X131608751Y-108016990D02*
X131820883Y-107804858D01*
X132337071Y-108321046D01*
X132124939Y-108533178D01*
X131608751Y-108016990D01*
X131608751Y-108016990D01*
G37*
G36*
X131962305Y-107663437D02*
X132174437Y-107451305D01*
X132690625Y-107967493D01*
X132478493Y-108179625D01*
X131962305Y-107663437D01*
X131962305Y-107663437D01*
G37*
G36*
X132315858Y-107309883D02*
X132527990Y-107097751D01*
X133044178Y-107613939D01*
X132832046Y-107826071D01*
X132315858Y-107309883D01*
X132315858Y-107309883D01*
G37*
G36*
X132669412Y-106956330D02*
X132881544Y-106744198D01*
X133397732Y-107260386D01*
X133185600Y-107472518D01*
X132669412Y-106956330D01*
X132669412Y-106956330D01*
G37*
G36*
X132881544Y-106107802D02*
X132669412Y-105895670D01*
X133185600Y-105379482D01*
X133397732Y-105591614D01*
X132881544Y-106107802D01*
X132881544Y-106107802D01*
G37*
G36*
X132527990Y-105754249D02*
X132315858Y-105542117D01*
X132832046Y-105025929D01*
X133044178Y-105238061D01*
X132527990Y-105754249D01*
X132527990Y-105754249D01*
G37*
G36*
X132174437Y-105400695D02*
X131962305Y-105188563D01*
X132478493Y-104672375D01*
X132690625Y-104884507D01*
X132174437Y-105400695D01*
X132174437Y-105400695D01*
G37*
G36*
X131820883Y-105047142D02*
X131608751Y-104835010D01*
X132124939Y-104318822D01*
X132337071Y-104530954D01*
X131820883Y-105047142D01*
X131820883Y-105047142D01*
G37*
G36*
X131467330Y-104693588D02*
X131255198Y-104481456D01*
X131771386Y-103965268D01*
X131983518Y-104177400D01*
X131467330Y-104693588D01*
X131467330Y-104693588D01*
G37*
G36*
X130053117Y-107309883D02*
X130937000Y-106426000D01*
X131820883Y-107309883D01*
X130937000Y-108193766D01*
X130053117Y-107309883D01*
X130053117Y-107309883D01*
G37*
G36*
X130937000Y-106426000D02*
X131820883Y-105542117D01*
X132704766Y-106426000D01*
X131820883Y-107309883D01*
X130937000Y-106426000D01*
X130937000Y-106426000D01*
G37*
G36*
X129169234Y-106426000D02*
X130053117Y-105542117D01*
X130937000Y-106426000D01*
X130053117Y-107309883D01*
X129169234Y-106426000D01*
X129169234Y-106426000D01*
G37*
G36*
X130053117Y-105542117D02*
X130937000Y-104658234D01*
X131820883Y-105542117D01*
X130937000Y-106426000D01*
X130053117Y-105542117D01*
X130053117Y-105542117D01*
G37*
D36*
X118896000Y-59487000D03*
X121896000Y-59487000D03*
D28*
X145087000Y-67551000D03*
D29*
X144512000Y-66151000D03*
X145662000Y-66151000D03*
X145662000Y-63351000D03*
X144512000Y-63351000D03*
X143362000Y-66151000D03*
X143362000Y-63351000D03*
X146812000Y-66151000D03*
X146812000Y-63351000D03*
D30*
X145087000Y-69801000D03*
X142887000Y-69801000D03*
X147287000Y-69801000D03*
X145087000Y-60501000D03*
X147287000Y-60501000D03*
X142887000Y-60501000D03*
D25*
X155321000Y-76200000D03*
D26*
X156721000Y-75625000D03*
X156721000Y-76775000D03*
X159521000Y-76775000D03*
X159521000Y-75625000D03*
X156721000Y-74475000D03*
X159521000Y-74475000D03*
X156721000Y-77925000D03*
X159521000Y-77925000D03*
D27*
X153071000Y-76200000D03*
X153071000Y-74000000D03*
X153071000Y-78400000D03*
X162371000Y-76200000D03*
X162371000Y-78400000D03*
X162371000Y-74000000D03*
D28*
X157734000Y-67551000D03*
D29*
X157159000Y-66151000D03*
X158309000Y-66151000D03*
X158309000Y-63351000D03*
X157159000Y-63351000D03*
X156009000Y-66151000D03*
X156009000Y-63351000D03*
X159459000Y-66151000D03*
X159459000Y-63351000D03*
D30*
X157734000Y-69801000D03*
X155534000Y-69801000D03*
X159934000Y-69801000D03*
X157734000Y-60501000D03*
X159934000Y-60501000D03*
X155534000Y-60501000D03*
D37*
X126238000Y-107176000D03*
X126238000Y-112776000D03*
D38*
X128388000Y-109976000D03*
D39*
X151384000Y-65786000D03*
X164084000Y-65786000D03*
D40*
X133120000Y-100266500D03*
X134620000Y-100266500D03*
D41*
X123888500Y-90285000D03*
X123888500Y-88785000D03*
X127762000Y-85840000D03*
X127762000Y-84340000D03*
X120142000Y-91174000D03*
X120142000Y-89674000D03*
D40*
X123265500Y-98044000D03*
X124765500Y-98044000D03*
D41*
X138811000Y-88162000D03*
X138811000Y-89662000D03*
D40*
X124244800Y-72974200D03*
X122744800Y-72974200D03*
X124244800Y-74422000D03*
X122744800Y-74422000D03*
X125870400Y-70104000D03*
X124370400Y-70104000D03*
D41*
X125222000Y-78728000D03*
X125222000Y-77228000D03*
D40*
X124345000Y-67183000D03*
X125845000Y-67183000D03*
D41*
X125984000Y-74561000D03*
X125984000Y-76061000D03*
X126619000Y-80911000D03*
X126619000Y-82411000D03*
D40*
X140323000Y-63754000D03*
X138823000Y-63754000D03*
D41*
X137922000Y-71386000D03*
X137922000Y-72886000D03*
X137922000Y-74180000D03*
X137922000Y-75680000D03*
X137922000Y-76974000D03*
X137922000Y-78474000D03*
D40*
X140069000Y-70231000D03*
X138569000Y-70231000D03*
X137299000Y-62230000D03*
X138799000Y-62230000D03*
D41*
X120396000Y-97802000D03*
X120396000Y-99302000D03*
X120396000Y-102096000D03*
X120396000Y-100596000D03*
D40*
X124130500Y-87122000D03*
X122630500Y-87122000D03*
D10*
G36*
X134071992Y-105218338D02*
X133541662Y-104688008D01*
X134107348Y-104122322D01*
X134637678Y-104652652D01*
X134071992Y-105218338D01*
X134071992Y-105218338D01*
G37*
G36*
X135132652Y-104157678D02*
X134602322Y-103627348D01*
X135168008Y-103061662D01*
X135698338Y-103591992D01*
X135132652Y-104157678D01*
X135132652Y-104157678D01*
G37*
D40*
X135317800Y-56083200D03*
X136817800Y-56083200D03*
D41*
X124714000Y-82169000D03*
X124714000Y-80669000D03*
X119507000Y-76974000D03*
X119507000Y-78474000D03*
D40*
X122301000Y-78613000D03*
X120801000Y-78613000D03*
X121007000Y-85217000D03*
X119507000Y-85217000D03*
D41*
X124714000Y-83336000D03*
X124714000Y-84836000D03*
D42*
X122732800Y-71108000D03*
X122732800Y-69608000D03*
X122732800Y-68517200D03*
X122732800Y-67017200D03*
D43*
X124370400Y-68630800D03*
X125870400Y-68630800D03*
X124370400Y-71577200D03*
X125870400Y-71577200D03*
X124345000Y-65735200D03*
X125845000Y-65735200D03*
X119519000Y-108204000D03*
X121019000Y-108204000D03*
X134100000Y-56134000D03*
X132600000Y-56134000D03*
X124579300Y-56305700D03*
X123079300Y-56305700D03*
X124575000Y-57912000D03*
X123075000Y-57912000D03*
X124575000Y-59563000D03*
X123075000Y-59563000D03*
D44*
X138811000Y-68556000D03*
X138811000Y-65556000D03*
D45*
X129794000Y-62103000D03*
X133104000Y-62103000D03*
D10*
G36*
X116702299Y-61862494D02*
X115429506Y-60589701D01*
X117197273Y-58821934D01*
X118470066Y-60094727D01*
X116702299Y-61862494D01*
X116702299Y-61862494D01*
G37*
G36*
X119530727Y-59034066D02*
X118257934Y-57761273D01*
X120025701Y-55993506D01*
X121298494Y-57266299D01*
X119530727Y-59034066D01*
X119530727Y-59034066D01*
G37*
D46*
X137182000Y-60198000D03*
X139932000Y-60198000D03*
D10*
G36*
X131937182Y-112859736D02*
X132290736Y-112506182D01*
X132715000Y-112930446D01*
X132361446Y-113284000D01*
X131937182Y-112859736D01*
X131937182Y-112859736D01*
G37*
G36*
X132715000Y-113637554D02*
X133068554Y-113284000D01*
X133492818Y-113708264D01*
X133139264Y-114061818D01*
X132715000Y-113637554D01*
X132715000Y-113637554D01*
G37*
G36*
X132699182Y-112097736D02*
X133052736Y-111744182D01*
X133477000Y-112168446D01*
X133123446Y-112522000D01*
X132699182Y-112097736D01*
X132699182Y-112097736D01*
G37*
G36*
X133477000Y-112875554D02*
X133830554Y-112522000D01*
X134254818Y-112946264D01*
X133901264Y-113299818D01*
X133477000Y-112875554D01*
X133477000Y-112875554D01*
G37*
G36*
X137175818Y-111549264D02*
X136822264Y-111902818D01*
X136398000Y-111478554D01*
X136751554Y-111125000D01*
X137175818Y-111549264D01*
X137175818Y-111549264D01*
G37*
G36*
X136398000Y-110771446D02*
X136044446Y-111125000D01*
X135620182Y-110700736D01*
X135973736Y-110347182D01*
X136398000Y-110771446D01*
X136398000Y-110771446D01*
G37*
G36*
X137370736Y-112537818D02*
X137017182Y-112184264D01*
X137441446Y-111760000D01*
X137795000Y-112113554D01*
X137370736Y-112537818D01*
X137370736Y-112537818D01*
G37*
G36*
X138148554Y-111760000D02*
X137795000Y-111406446D01*
X138219264Y-110982182D01*
X138572818Y-111335736D01*
X138148554Y-111760000D01*
X138148554Y-111760000D01*
G37*
D42*
X140335000Y-76339000D03*
X140335000Y-77839000D03*
X140335000Y-79133000D03*
X140335000Y-80633000D03*
D47*
X170942000Y-81915000D03*
D48*
X165942000Y-81915000D03*
D47*
X144526000Y-81915000D03*
D48*
X149526000Y-81915000D03*
D49*
X135195000Y-87214001D03*
X134695001Y-87214001D03*
X134195000Y-87214001D03*
X133695001Y-87214001D03*
X133194999Y-87214001D03*
X132695000Y-87214001D03*
X132195001Y-87214001D03*
X131695000Y-87214001D03*
X131195000Y-87214001D03*
X130694999Y-87214001D03*
X130195000Y-87214001D03*
X129695001Y-87214001D03*
X129194999Y-87214001D03*
X128695000Y-87214001D03*
X128194999Y-87214001D03*
X127695000Y-87214001D03*
D50*
X125695001Y-89214000D03*
X125695001Y-89713999D03*
X125695001Y-90214000D03*
X125695001Y-90713999D03*
X125695001Y-91214001D03*
X125695001Y-91714000D03*
X125695001Y-92213999D03*
X125695001Y-92714000D03*
X125695001Y-93214000D03*
X125695001Y-93714001D03*
X125695001Y-94214000D03*
X125695001Y-94713999D03*
X125695001Y-95214001D03*
X125695001Y-95714000D03*
X125695001Y-96214001D03*
X125695001Y-96714000D03*
D49*
X127695000Y-98713999D03*
X128194999Y-98713999D03*
X128695000Y-98713999D03*
X129194999Y-98713999D03*
X129695001Y-98713999D03*
X130195000Y-98713999D03*
X130694999Y-98713999D03*
X131195000Y-98713999D03*
X131695000Y-98713999D03*
X132195001Y-98713999D03*
X132695000Y-98713999D03*
X133194999Y-98713999D03*
X133695001Y-98713999D03*
X134195000Y-98713999D03*
X134695001Y-98713999D03*
X135195000Y-98713999D03*
D50*
X137194999Y-96714000D03*
X137194999Y-96214001D03*
X137194999Y-95714000D03*
X137194999Y-95214001D03*
X137194999Y-94713999D03*
X137194999Y-94214000D03*
X137194999Y-93714001D03*
X137194999Y-93214000D03*
X137194999Y-92714000D03*
X137194999Y-92213999D03*
X137194999Y-91714000D03*
X137194999Y-91214001D03*
X137194999Y-90713999D03*
X137194999Y-90214000D03*
X137194999Y-89713999D03*
X137194999Y-89214000D03*
D51*
X126229000Y-62865000D03*
X121929000Y-62865000D03*
D52*
X157734000Y-83693000D03*
M02*
