%TF.GenerationSoftware,KiCad,Pcbnew,4.0.7*%
%TF.CreationDate,2018-04-27T21:38:04+08:00*%
%TF.ProjectId,VESC_6,564553435F362E6B696361645F706362,rev?*%
%TF.FileFunction,Paste,Bot*%
%FSLAX46Y46*%
G04 Gerber Fmt 4.6, Leading zero omitted, Abs format (unit mm)*
G04 Created by KiCad (PCBNEW 4.0.7) date 2018 April 27, Friday 21:38:04*
%MOMM*%
%LPD*%
G01*
G04 APERTURE LIST*
%ADD10C,0.100000*%
%ADD11R,0.800000X0.750000*%
%ADD12R,2.000000X1.300000*%
%ADD13R,0.450000X1.450000*%
%ADD14R,1.300000X0.700000*%
%ADD15R,1.060000X0.650000*%
%ADD16R,0.700000X1.500000*%
%ADD17R,1.000000X0.800000*%
%ADD18R,0.800000X0.800000*%
%ADD19R,1.500000X0.450000*%
%ADD20R,5.000000X4.000000*%
%ADD21R,0.750000X0.800000*%
%ADD22R,0.900000X0.500000*%
%ADD23R,0.500000X0.900000*%
%ADD24R,2.500000X1.000000*%
%ADD25R,1.950000X1.500000*%
%ADD26R,0.600000X2.700000*%
%ADD27R,2.300000X2.700000*%
%ADD28R,6.000000X5.000000*%
%ADD29C,0.254000*%
G04 APERTURE END LIST*
D10*
D11*
X135624000Y-97028000D03*
X134124000Y-97028000D03*
D12*
X136525000Y-90247320D03*
X132525000Y-90247320D03*
X132525000Y-87847320D03*
X136525000Y-87847320D03*
D10*
G36*
X130763571Y-111282611D02*
X129844332Y-110363372D01*
X131258545Y-108949159D01*
X132177784Y-109868398D01*
X130763571Y-111282611D01*
X130763571Y-111282611D01*
G37*
G36*
X133591998Y-108454184D02*
X132672759Y-107534945D01*
X134086972Y-106120732D01*
X135006211Y-107039971D01*
X133591998Y-108454184D01*
X133591998Y-108454184D01*
G37*
G36*
X135289055Y-110151241D02*
X134369816Y-109232002D01*
X135784029Y-107817789D01*
X136703268Y-108737028D01*
X135289055Y-110151241D01*
X135289055Y-110151241D01*
G37*
G36*
X132460628Y-112979668D02*
X131541389Y-112060429D01*
X132955602Y-110646216D01*
X133874841Y-111565455D01*
X132460628Y-112979668D01*
X132460628Y-112979668D01*
G37*
D13*
X137455000Y-63713000D03*
X138105000Y-63713000D03*
X138755000Y-63713000D03*
X139405000Y-63713000D03*
X139405000Y-68113000D03*
X138755000Y-68113000D03*
X138105000Y-68113000D03*
X137455000Y-68113000D03*
D14*
X121500000Y-79173000D03*
X121500000Y-81073000D03*
D15*
X125700000Y-79173000D03*
X125700000Y-80123000D03*
X125700000Y-81073000D03*
X123500000Y-81073000D03*
X123500000Y-79173000D03*
D16*
X118146000Y-61247000D03*
X121146000Y-61247000D03*
X122646000Y-61247000D03*
D17*
X116746000Y-58387000D03*
X124046000Y-58387000D03*
X124046000Y-60597000D03*
X116746000Y-60597000D03*
D18*
X138307300Y-102241700D03*
X138307300Y-103841700D03*
X136779000Y-102273200D03*
X136779000Y-103873200D03*
X135255000Y-102273200D03*
X135255000Y-103873200D03*
D13*
X134502800Y-65903200D03*
X133852800Y-65903200D03*
X133202800Y-65903200D03*
X132552800Y-65903200D03*
X132552800Y-61503200D03*
X133202800Y-61503200D03*
X133852800Y-61503200D03*
X134502800Y-61503200D03*
X129105300Y-67427200D03*
X128455300Y-67427200D03*
X127805300Y-67427200D03*
X127155300Y-67427200D03*
X127155300Y-63027200D03*
X127805300Y-63027200D03*
X128455300Y-63027200D03*
X129105300Y-63027200D03*
D19*
X126488000Y-109976000D03*
X126488000Y-110626000D03*
X126488000Y-109326000D03*
X126488000Y-111276000D03*
X126488000Y-108676000D03*
D10*
G36*
X137311191Y-113381693D02*
X136568728Y-114124156D01*
X135013093Y-112568521D01*
X135755556Y-111826058D01*
X137311191Y-113381693D01*
X137311191Y-113381693D01*
G37*
G36*
X139008246Y-113028140D02*
X138301140Y-113735246D01*
X137558678Y-112992784D01*
X138265784Y-112285678D01*
X139008246Y-113028140D01*
X139008246Y-113028140D01*
G37*
G36*
X139397156Y-111295728D02*
X138654693Y-112038191D01*
X137099058Y-110482556D01*
X137841521Y-109740093D01*
X139397156Y-111295728D01*
X139397156Y-111295728D01*
G37*
D20*
X145114500Y-57404000D03*
X157734000Y-57404000D03*
X170434000Y-57404000D03*
D11*
X122022300Y-95389700D03*
X120522300Y-95389700D03*
D21*
X138607800Y-88353200D03*
X138607800Y-89853200D03*
D11*
X127242000Y-96202500D03*
X125742000Y-96202500D03*
D21*
X133032500Y-98449000D03*
X133032500Y-99949000D03*
X130556000Y-89777000D03*
X130556000Y-88277000D03*
X127300000Y-81927000D03*
X127300000Y-83427000D03*
X132334000Y-92036200D03*
X132334000Y-93536200D03*
X129286000Y-92036200D03*
X129286000Y-93536200D03*
X135890000Y-68441000D03*
X135890000Y-66941000D03*
X130937000Y-62928500D03*
X130937000Y-64428500D03*
X125539500Y-64476500D03*
X125539500Y-65976500D03*
X126238000Y-92036200D03*
X126238000Y-93536200D03*
D10*
G36*
X131126338Y-113197008D02*
X130596008Y-113727338D01*
X130030322Y-113161652D01*
X130560652Y-112631322D01*
X131126338Y-113197008D01*
X131126338Y-113197008D01*
G37*
G36*
X130065678Y-112136348D02*
X129535348Y-112666678D01*
X128969662Y-112100992D01*
X129499992Y-111570662D01*
X130065678Y-112136348D01*
X130065678Y-112136348D01*
G37*
G36*
X136462662Y-107020992D02*
X136992992Y-106490662D01*
X137558678Y-107056348D01*
X137028348Y-107586678D01*
X136462662Y-107020992D01*
X136462662Y-107020992D01*
G37*
G36*
X137523322Y-108081652D02*
X138053652Y-107551322D01*
X138619338Y-108117008D01*
X138089008Y-108647338D01*
X137523322Y-108081652D01*
X137523322Y-108081652D01*
G37*
D11*
X122821000Y-82042000D03*
X124321000Y-82042000D03*
D22*
X130048000Y-104128000D03*
X130048000Y-102628000D03*
X128270000Y-102628000D03*
X128270000Y-104128000D03*
X126496300Y-102616000D03*
X126496300Y-104116000D03*
D23*
X122035000Y-96837500D03*
X120535000Y-96837500D03*
X136791000Y-105410000D03*
X138291000Y-105410000D03*
X132396800Y-104978200D03*
X133896800Y-104978200D03*
X132396800Y-103378000D03*
X133896800Y-103378000D03*
D22*
X132900000Y-84500000D03*
X132900000Y-83000000D03*
X131303800Y-84511200D03*
X131303800Y-83011200D03*
D23*
X131085500Y-72263000D03*
X132585500Y-72263000D03*
X131085500Y-73723500D03*
X132585500Y-73723500D03*
X131085500Y-75247500D03*
X132585500Y-75247500D03*
X131085500Y-76771500D03*
X132585500Y-76771500D03*
X131085500Y-78295500D03*
X132585500Y-78295500D03*
X131085500Y-79819500D03*
X132585500Y-79819500D03*
D22*
X123621800Y-88543700D03*
X123621800Y-90043700D03*
D10*
G36*
X122500805Y-88082409D02*
X121864409Y-88718805D01*
X121510855Y-88365251D01*
X122147251Y-87728855D01*
X122500805Y-88082409D01*
X122500805Y-88082409D01*
G37*
G36*
X121440145Y-87021749D02*
X120803749Y-87658145D01*
X120450195Y-87304591D01*
X121086591Y-86668195D01*
X121440145Y-87021749D01*
X121440145Y-87021749D01*
G37*
D24*
X143383000Y-78081000D03*
X143383000Y-75081000D03*
X146685000Y-78081000D03*
X146685000Y-75081000D03*
X159385000Y-78081000D03*
X159385000Y-75081000D03*
X156083000Y-78081000D03*
X156083000Y-75081000D03*
X168783000Y-78081000D03*
X168783000Y-75081000D03*
X171958000Y-78081000D03*
X171958000Y-75081000D03*
D25*
X122125000Y-83527000D03*
X124875000Y-83527000D03*
D23*
X139041000Y-71310500D03*
X137541000Y-71310500D03*
X139040300Y-72847200D03*
X137540300Y-72847200D03*
X139053000Y-74358500D03*
X137553000Y-74358500D03*
X139053000Y-75882500D03*
X137553000Y-75882500D03*
X139053000Y-77406500D03*
X137553000Y-77406500D03*
X139053000Y-78930500D03*
X137553000Y-78930500D03*
D22*
X133858000Y-93536200D03*
X133858000Y-92036200D03*
X130810000Y-93536200D03*
X130810000Y-92036200D03*
X127762000Y-93536200D03*
X127762000Y-92036200D03*
D26*
X157734000Y-69555000D03*
X157734000Y-61255000D03*
D27*
X155784000Y-69555000D03*
X159684000Y-61255000D03*
X159684000Y-69555000D03*
X155784000Y-61255000D03*
D26*
X145116000Y-69555000D03*
X145116000Y-61255000D03*
D27*
X143166000Y-69555000D03*
X147066000Y-61255000D03*
X147066000Y-69555000D03*
X143166000Y-61255000D03*
D26*
X170434000Y-69555000D03*
X170434000Y-61255000D03*
D27*
X168484000Y-69555000D03*
X172384000Y-61255000D03*
X172384000Y-69555000D03*
X168484000Y-61255000D03*
D28*
X157734000Y-83693000D03*
D29*
G36*
X152400000Y-79756000D02*
X152410006Y-79805410D01*
X152438447Y-79847035D01*
X152460635Y-79864280D01*
X156287887Y-82210015D01*
X154910398Y-84391039D01*
X150241000Y-80458915D01*
X150241000Y-63881000D01*
X152400000Y-63881000D01*
X152400000Y-79756000D01*
X152400000Y-79756000D01*
G37*
X152400000Y-79756000D02*
X152410006Y-79805410D01*
X152438447Y-79847035D01*
X152460635Y-79864280D01*
X156287887Y-82210015D01*
X154910398Y-84391039D01*
X150241000Y-80458915D01*
X150241000Y-63881000D01*
X152400000Y-63881000D01*
X152400000Y-79756000D01*
G36*
X165227000Y-80459271D02*
X160305854Y-84642245D01*
X158923953Y-82339077D01*
X163006824Y-79864610D01*
X163043894Y-79830444D01*
X163064750Y-79784547D01*
X163068000Y-79756000D01*
X163068000Y-63819118D01*
X165227000Y-63819118D01*
X165227000Y-80459271D01*
X165227000Y-80459271D01*
G37*
X165227000Y-80459271D02*
X160305854Y-84642245D01*
X158923953Y-82339077D01*
X163006824Y-79864610D01*
X163043894Y-79830444D01*
X163064750Y-79784547D01*
X163068000Y-79756000D01*
X163068000Y-63819118D01*
X165227000Y-63819118D01*
X165227000Y-80459271D01*
M02*
