%TF.GenerationSoftware,KiCad,Pcbnew,4.0.7*%
%TF.CreationDate,2018-04-14T17:05:36+08:00*%
%TF.ProjectId,VESC_6,564553435F362E6B696361645F706362,rev?*%
%TF.FileFunction,Copper,L2,Inr,Signal*%
%FSLAX46Y46*%
G04 Gerber Fmt 4.6, Leading zero omitted, Abs format (unit mm)*
G04 Created by KiCad (PCBNEW 4.0.7) date 2018 April 14, Saturday 17:05:36*
%MOMM*%
%LPD*%
G01*
G04 APERTURE LIST*
%ADD10C,0.100000*%
%ADD11C,0.600000*%
%ADD12R,1.699260X1.198880*%
%ADD13O,1.699260X1.198880*%
%ADD14R,1.198880X1.699260*%
%ADD15O,1.198880X1.699260*%
%ADD16O,1.100000X1.800000*%
%ADD17O,1.100000X2.200000*%
%ADD18R,2.400000X2.400000*%
%ADD19C,2.400000*%
%ADD20C,0.500000*%
%ADD21C,0.203200*%
%ADD22C,0.508000*%
%ADD23C,1.016000*%
%ADD24C,0.254000*%
G04 APERTURE END LIST*
D10*
D11*
X147828000Y-79121000D03*
X147193000Y-79121000D03*
X146558000Y-79121000D03*
X145923000Y-79121000D03*
X145288000Y-79121000D03*
X144653000Y-79121000D03*
X144018000Y-79121000D03*
X143383000Y-79121000D03*
X147828000Y-79756000D03*
X147193000Y-79756000D03*
X146558000Y-79756000D03*
X145923000Y-79756000D03*
X145288000Y-79756000D03*
X144653000Y-79756000D03*
X144018000Y-79756000D03*
X143383000Y-79756000D03*
X142748000Y-79756000D03*
D12*
X117983000Y-105984040D03*
D13*
X117983000Y-101981000D03*
X117983000Y-103982520D03*
D11*
X143256000Y-72618600D03*
X154559000Y-79756000D03*
X172008800Y-73240900D03*
X171386500Y-73240900D03*
X170764200Y-73240900D03*
X170141900Y-73240900D03*
X169519600Y-73240900D03*
X168897300Y-73240900D03*
X168275000Y-73240900D03*
X173253400Y-72618600D03*
X172631100Y-72618600D03*
X172008800Y-72618600D03*
X171386500Y-72618600D03*
X170764200Y-72618600D03*
X170141900Y-72618600D03*
X169519600Y-72618600D03*
X168897300Y-72618600D03*
X168275000Y-72618600D03*
X173253400Y-71996300D03*
X172631100Y-71996300D03*
X172008800Y-71996300D03*
X171386500Y-71996300D03*
X170764200Y-71996300D03*
X170141900Y-71996300D03*
X169519600Y-71996300D03*
X168897300Y-71996300D03*
X168275000Y-71996300D03*
X173253400Y-71374000D03*
X172631100Y-71374000D03*
X172008800Y-71374000D03*
X171386500Y-71374000D03*
X169519600Y-71374000D03*
X168897300Y-71374000D03*
X160172400Y-73240900D03*
X159550100Y-73240900D03*
X158927800Y-73240900D03*
X158305500Y-73240900D03*
X157683200Y-73240900D03*
X157060900Y-73240900D03*
X156438600Y-73240900D03*
X155816300Y-73240900D03*
X155194000Y-73240900D03*
X160172400Y-72618600D03*
X159550100Y-72618600D03*
X158927800Y-72618600D03*
X158305500Y-72618600D03*
X157683200Y-72618600D03*
X157060900Y-72618600D03*
X156438600Y-72618600D03*
X155816300Y-72618600D03*
X155194000Y-72618600D03*
X160172400Y-71996300D03*
X159550100Y-71996300D03*
X158927800Y-71996300D03*
X158305500Y-71996300D03*
X157683200Y-71996300D03*
X157060900Y-71996300D03*
X156438600Y-71996300D03*
X155816300Y-71996300D03*
X155194000Y-71996300D03*
X160172400Y-71374000D03*
X159550100Y-71374000D03*
X158927800Y-71374000D03*
X158305500Y-71374000D03*
X156438600Y-71374000D03*
X155816300Y-71374000D03*
X148234400Y-73240900D03*
X147612100Y-73240900D03*
X146989800Y-73240900D03*
X146367500Y-73240900D03*
X145745200Y-73240900D03*
X145122900Y-73240900D03*
X144500600Y-73240900D03*
X143878300Y-73240900D03*
X148234400Y-72618600D03*
X147612100Y-72618600D03*
X146989800Y-72618600D03*
X146367500Y-72618600D03*
X145745200Y-72618600D03*
X145122900Y-72618600D03*
X144500600Y-72618600D03*
X143878300Y-72618600D03*
X148234400Y-71996300D03*
X147612100Y-71996300D03*
X146989800Y-71996300D03*
X146367500Y-71996300D03*
X145745200Y-71996300D03*
X145122900Y-71996300D03*
X144500600Y-71996300D03*
X143878300Y-71996300D03*
X143256000Y-71996300D03*
X148234400Y-71374000D03*
X147612100Y-71374000D03*
X146989800Y-71374000D03*
X146367500Y-71374000D03*
X145745200Y-71374000D03*
X143878300Y-71374000D03*
X173355000Y-79756000D03*
X172720000Y-79756000D03*
X172085000Y-79756000D03*
X171450000Y-79756000D03*
X170815000Y-79756000D03*
X170180000Y-79756000D03*
X169545000Y-79756000D03*
X168910000Y-79756000D03*
X168275000Y-79756000D03*
X167640000Y-79756000D03*
X172085000Y-79121000D03*
X171450000Y-79121000D03*
X170815000Y-79121000D03*
X170180000Y-79121000D03*
X169545000Y-79121000D03*
X168910000Y-79121000D03*
X168275000Y-79121000D03*
X160274000Y-79756000D03*
X159639000Y-79756000D03*
X159004000Y-79756000D03*
X158369000Y-79756000D03*
X157734000Y-79756000D03*
X157099000Y-79756000D03*
X156464000Y-79756000D03*
X155829000Y-79756000D03*
X155194000Y-79756000D03*
X160274000Y-79121000D03*
X159639000Y-79121000D03*
X159004000Y-79121000D03*
X158369000Y-79121000D03*
X157734000Y-79121000D03*
X157099000Y-79121000D03*
X156464000Y-79121000D03*
X155829000Y-79121000D03*
X142113000Y-79756000D03*
X168275000Y-71374000D03*
X167640000Y-79121000D03*
X155194000Y-71374000D03*
X143256000Y-71374000D03*
D14*
X123256040Y-110363000D03*
D15*
X119253000Y-110363000D03*
X121254520Y-110363000D03*
X117254020Y-110363000D03*
D14*
X127093980Y-58039000D03*
D15*
X131097020Y-58039000D03*
X129095500Y-58039000D03*
X133096000Y-58039000D03*
X135097520Y-58039000D03*
X137099040Y-58039000D03*
D13*
X118003300Y-81459440D03*
X118003300Y-83458420D03*
X118003300Y-85459940D03*
D12*
X118003300Y-93466020D03*
D13*
X118003300Y-89462980D03*
X118003300Y-91464500D03*
X118003300Y-87464000D03*
X118003300Y-79460460D03*
D12*
X117983000Y-74930000D03*
D13*
X117983000Y-70926960D03*
X117983000Y-72928480D03*
X117983000Y-68927980D03*
X117983000Y-66926460D03*
D16*
X126492000Y-107684000D03*
X126492000Y-113284000D03*
D17*
X128642000Y-110484000D03*
D18*
X144300000Y-81900000D03*
D19*
X149300000Y-81900000D03*
D18*
X171200000Y-81900000D03*
D19*
X166200000Y-81900000D03*
D11*
X138581702Y-92558292D03*
X126111004Y-60960000D03*
X126746000Y-60960000D03*
X125349000Y-60960002D03*
X137668000Y-110109000D03*
X138557000Y-109982000D03*
X139319000Y-110744000D03*
X136017000Y-114427000D03*
X129214590Y-88646000D03*
X124023410Y-78105000D03*
X119093726Y-86134085D03*
X118364000Y-77724000D03*
X132127284Y-103830410D03*
X134984271Y-91133140D03*
X128580937Y-96647473D03*
X122809012Y-76327000D03*
X137940817Y-104932011D03*
X136424331Y-103327201D03*
X121926647Y-81989990D03*
X140716000Y-58420000D03*
X133985000Y-79882994D03*
X134365994Y-80264000D03*
X134747000Y-80645000D03*
X126873000Y-89154000D03*
X138049000Y-87249000D03*
X132334000Y-100076000D03*
X131191000Y-112395000D03*
X123444000Y-66167000D03*
X126365008Y-84201000D03*
X123571000Y-84836000D03*
X132328883Y-106680000D03*
X131445000Y-107563883D03*
X130561117Y-106680000D03*
X131445000Y-105796117D03*
X135763000Y-107950000D03*
X132715000Y-114300000D03*
X138938000Y-110363000D03*
X135509000Y-113919000D03*
X135128000Y-113411000D03*
X129921000Y-111379000D03*
X130714318Y-70712908D03*
X134239000Y-67437000D03*
X126851128Y-69723000D03*
X131318000Y-70739000D03*
X131318000Y-70104000D03*
X130683000Y-70104000D03*
X133604000Y-67437000D03*
X132969000Y-67437000D03*
X166090600Y-67513200D03*
X165506400Y-67513200D03*
X164922200Y-67513200D03*
X164338000Y-67513200D03*
X163753800Y-67513200D03*
X163169600Y-67513200D03*
X162585400Y-67513200D03*
X162001200Y-67513200D03*
X161417000Y-67513200D03*
X166090600Y-66929000D03*
X165506400Y-66929000D03*
X164922200Y-66929000D03*
X164338000Y-66929000D03*
X163753800Y-66929000D03*
X163169600Y-66929000D03*
X162585400Y-66929000D03*
X162001200Y-66929000D03*
X161417000Y-66929000D03*
X166090600Y-66344800D03*
X165506400Y-66344800D03*
X164922200Y-66344800D03*
X164338000Y-66344800D03*
X163753800Y-66344800D03*
X163169600Y-66344800D03*
X162585400Y-66344800D03*
X162001200Y-66344800D03*
X161417000Y-66344800D03*
X166090600Y-65760600D03*
X165506400Y-65760600D03*
X164922200Y-65760600D03*
X164338000Y-65760600D03*
X163753800Y-65760600D03*
X163169600Y-65760600D03*
X162585400Y-65760600D03*
X162001200Y-65760600D03*
X161417000Y-65760600D03*
X166090600Y-65176400D03*
X165506400Y-65176400D03*
X164922200Y-65176400D03*
X164338000Y-65176400D03*
X163753800Y-65176400D03*
X163169600Y-65176400D03*
X162585400Y-65176400D03*
X162001200Y-65176400D03*
X161417000Y-65176400D03*
X166090600Y-64592200D03*
X165506400Y-64592200D03*
X164922200Y-64592200D03*
X164338000Y-64592200D03*
X163753800Y-64592200D03*
X163169600Y-64592200D03*
X162585400Y-64592200D03*
X162001200Y-64592200D03*
X161417000Y-64592200D03*
X166090600Y-64008000D03*
X165506400Y-64008000D03*
X164922200Y-64008000D03*
X164338000Y-64008000D03*
X163753800Y-64008000D03*
X163169600Y-64008000D03*
X162585400Y-64008000D03*
X162001200Y-64008000D03*
X153644600Y-67513200D03*
X153060400Y-67513200D03*
X152476200Y-67513200D03*
X151892000Y-67513200D03*
X151307800Y-67513200D03*
X150723600Y-67513200D03*
X150139400Y-67513200D03*
X149555200Y-67513200D03*
X148971000Y-67513200D03*
X153644600Y-66929000D03*
X153060400Y-66929000D03*
X152476200Y-66929000D03*
X151892000Y-66929000D03*
X151307800Y-66929000D03*
X150723600Y-66929000D03*
X150139400Y-66929000D03*
X149555200Y-66929000D03*
X148971000Y-66929000D03*
X153644600Y-66344800D03*
X153060400Y-66344800D03*
X152476200Y-66344800D03*
X151892000Y-66344800D03*
X151307800Y-66344800D03*
X150723600Y-66344800D03*
X150139400Y-66344800D03*
X149555200Y-66344800D03*
X148971000Y-66344800D03*
X153644600Y-65760600D03*
X153060400Y-65760600D03*
X152476200Y-65760600D03*
X151892000Y-65760600D03*
X151307800Y-65760600D03*
X150723600Y-65760600D03*
X150139400Y-65760600D03*
X149555200Y-65760600D03*
X148971000Y-65760600D03*
X153644600Y-65176400D03*
X153060400Y-65176400D03*
X152476200Y-65176400D03*
X151892000Y-65176400D03*
X151307800Y-65176400D03*
X150723600Y-65176400D03*
X150139400Y-65176400D03*
X149555200Y-65176400D03*
X148971000Y-65176400D03*
X153644600Y-64592200D03*
X153060400Y-64592200D03*
X152476200Y-64592200D03*
X151892000Y-64592200D03*
X151307800Y-64592200D03*
X150723600Y-64592200D03*
X150139400Y-64592200D03*
X149555200Y-64592200D03*
X148971000Y-64592200D03*
X153644600Y-64008000D03*
X153060400Y-64008000D03*
X152476200Y-64008000D03*
X151892000Y-64008000D03*
X151307800Y-64008000D03*
X150723600Y-64008000D03*
X150139400Y-64008000D03*
X149555200Y-64008000D03*
X161417000Y-64008000D03*
X148971000Y-64008000D03*
X134692207Y-89520203D03*
X124507646Y-96145686D03*
X120015000Y-63627000D03*
X122737590Y-77597008D03*
X122393203Y-85505793D03*
X119380000Y-101218998D03*
X134112004Y-59055000D03*
X138430004Y-100584000D03*
X122228895Y-89377113D03*
X123277192Y-98940964D03*
X132200000Y-102100000D03*
X134713678Y-70952124D03*
X135763000Y-98171000D03*
X128016000Y-106807000D03*
X134042040Y-90182550D03*
X133043063Y-95900811D03*
X128524000Y-82296000D03*
X133450855Y-88995734D03*
X121793000Y-72263004D03*
X121793000Y-71755000D03*
X135382000Y-61976000D03*
X134427517Y-72474427D03*
X140749855Y-74001586D03*
X134600000Y-75300000D03*
X134485829Y-78140634D03*
X137941176Y-80930960D03*
X133698802Y-81558354D03*
X133372352Y-68938648D03*
X133372352Y-81257648D03*
X133731000Y-68580000D03*
X133032500Y-85915500D03*
X129595535Y-85560076D03*
X134493000Y-84582000D03*
X140334994Y-79883000D03*
X129046526Y-84850526D03*
X124206000Y-86233000D03*
X128614820Y-85758290D03*
X130175000Y-109854994D03*
X129920129Y-109087771D03*
X138303000Y-113030000D03*
X121666000Y-66040000D03*
X124079000Y-92964000D03*
X123317000Y-104389210D03*
X118745000Y-108204000D03*
X130558014Y-100094865D03*
X131566771Y-99948129D03*
X129794008Y-99949000D03*
X122047000Y-58166000D03*
X122493788Y-91766540D03*
X122555000Y-92583000D03*
X122463692Y-90148282D03*
X122479122Y-90988866D03*
X135825200Y-99314464D03*
X138293492Y-97306553D03*
X133985010Y-95885000D03*
X134873999Y-96327726D03*
X129540000Y-68834000D03*
X121793000Y-68707000D03*
X129300000Y-89900000D03*
X125844423Y-86538710D03*
X126620590Y-86488157D03*
X126928579Y-87249000D03*
X147066000Y-59055000D03*
X146431000Y-59055000D03*
X145796000Y-59055000D03*
X145161000Y-59055000D03*
X144526000Y-59055000D03*
X143891000Y-59055000D03*
X143256000Y-59055000D03*
X147066000Y-58420000D03*
X146431000Y-58420000D03*
X145796000Y-58420000D03*
X145161000Y-58420000D03*
X144526000Y-58420000D03*
X143891000Y-58420000D03*
X143256000Y-58420000D03*
X147066000Y-57785000D03*
X146431000Y-57785000D03*
X145796000Y-57785000D03*
X145161000Y-57785000D03*
X144526000Y-57785000D03*
X143891000Y-57785000D03*
X143256000Y-57785000D03*
X147066000Y-57150000D03*
X146431000Y-57150000D03*
X145796000Y-57150000D03*
X145161000Y-57150000D03*
X144526000Y-57150000D03*
X143891000Y-57150000D03*
X143256000Y-57150000D03*
X147066000Y-56515000D03*
X146431000Y-56515000D03*
X145796000Y-56515000D03*
X145161000Y-56515000D03*
X144526000Y-56515000D03*
X143891000Y-56515000D03*
X143256000Y-56515000D03*
X147066000Y-55880000D03*
X146431000Y-55880000D03*
X145796000Y-55880000D03*
X145161000Y-55880000D03*
X144526000Y-55880000D03*
X143891000Y-55880000D03*
X143256000Y-55880000D03*
X134500000Y-71700000D03*
X134600000Y-73300000D03*
X159258000Y-59055000D03*
X158623000Y-59055000D03*
X157988000Y-59055000D03*
X157353000Y-59055000D03*
X156718000Y-59055000D03*
X156083000Y-59055000D03*
X155448000Y-59055000D03*
X159258000Y-58420000D03*
X158623000Y-58420000D03*
X157988000Y-58420000D03*
X157353000Y-58420000D03*
X156718000Y-58420000D03*
X156083000Y-58420000D03*
X155448000Y-58420000D03*
X159258000Y-57785000D03*
X158623000Y-57785000D03*
X157988000Y-57785000D03*
X157353000Y-57785000D03*
X156718000Y-57785000D03*
X156083000Y-57785000D03*
X155448000Y-57785000D03*
X159258000Y-57150000D03*
X158623000Y-57150000D03*
X157988000Y-57150000D03*
X157353000Y-57150000D03*
X156718000Y-57150000D03*
X156083000Y-57150000D03*
X155448000Y-57150000D03*
X159258000Y-56515000D03*
X158623000Y-56515000D03*
X157988000Y-56515000D03*
X157353000Y-56515000D03*
X156718000Y-56515000D03*
X156083000Y-56515000D03*
X155448000Y-56515000D03*
X159258000Y-55880000D03*
X158623000Y-55880000D03*
X157988000Y-55880000D03*
X157353000Y-55880000D03*
X156718000Y-55880000D03*
X156083000Y-55880000D03*
X155448000Y-55880000D03*
X134700000Y-74500000D03*
X134600000Y-76100000D03*
X172085000Y-59055000D03*
X171450000Y-59055000D03*
X170815000Y-59055000D03*
X170180000Y-59055000D03*
X169545000Y-59055000D03*
X168910000Y-59055000D03*
X168275000Y-59055000D03*
X172085000Y-58420000D03*
X171450000Y-58420000D03*
X170815000Y-58420000D03*
X170180000Y-58420000D03*
X169545000Y-58420000D03*
X168910000Y-58420000D03*
X168275000Y-58420000D03*
X172085000Y-57785000D03*
X171450000Y-57785000D03*
X170815000Y-57785000D03*
X170180000Y-57785000D03*
X169545000Y-57785000D03*
X168910000Y-57785000D03*
X168275000Y-57785000D03*
X172085000Y-57150000D03*
X171450000Y-57150000D03*
X170815000Y-57150000D03*
X170180000Y-57150000D03*
X169545000Y-57150000D03*
X168910000Y-57150000D03*
X168275000Y-57150000D03*
X172085000Y-56515000D03*
X171450000Y-56515000D03*
X170815000Y-56515000D03*
X170180000Y-56515000D03*
X169545000Y-56515000D03*
X168910000Y-56515000D03*
X168275000Y-56515000D03*
X172085000Y-55880000D03*
X171450000Y-55880000D03*
X170815000Y-55880000D03*
X170180000Y-55880000D03*
X169545000Y-55880000D03*
X168910000Y-55880000D03*
X168275000Y-55880000D03*
X134479669Y-77362846D03*
X134508640Y-78918112D03*
X132968996Y-94742000D03*
X139192000Y-66746410D03*
X131572000Y-61468000D03*
X132064185Y-94742000D03*
X127761989Y-94234000D03*
X128143000Y-60452000D03*
X128261410Y-97356622D03*
X129700000Y-76400000D03*
X127829595Y-99796570D03*
X126746000Y-76962000D03*
X126139606Y-78144180D03*
X128821949Y-100085191D03*
X131054153Y-96891145D03*
X129413000Y-71247000D03*
X126854055Y-73149890D03*
X138557000Y-96012000D03*
X129667000Y-72898004D03*
X138572108Y-95226476D03*
X129667887Y-72014226D03*
X138556532Y-94448820D03*
X124459996Y-105410000D03*
X135128000Y-92836988D03*
X135149836Y-91893126D03*
X125009996Y-104860004D03*
X125730000Y-104394000D03*
X136000000Y-91793411D03*
X137795584Y-101062658D03*
X123253500Y-94361004D03*
X134000000Y-102099998D03*
X124206000Y-94678500D03*
X131707514Y-97313176D03*
X129659229Y-75623258D03*
X130041223Y-95688320D03*
X129520590Y-77207915D03*
X126865581Y-77864982D03*
X128905000Y-95250000D03*
X129700000Y-74700000D03*
X138557000Y-93345000D03*
X129667000Y-70104000D03*
X138557002Y-91678189D03*
X122066590Y-98937863D03*
X138326856Y-98301010D03*
X138811000Y-99313998D03*
X124206000Y-99060000D03*
X139347708Y-90776298D03*
X135382000Y-64388996D03*
D20*
X153289000Y-61468000D03*
D11*
X135382000Y-63500000D03*
D20*
X152527000Y-61595000D03*
D11*
X129159000Y-65786000D03*
D20*
X166116000Y-61468006D03*
D11*
X129159000Y-64770002D03*
D20*
X165100000Y-61595000D03*
D11*
X140462000Y-73279000D03*
X143891000Y-67564000D03*
X143510000Y-76941379D03*
X139954000Y-71628000D03*
X140208000Y-74742611D03*
X154686010Y-76962000D03*
X155829000Y-67691000D03*
X140081000Y-75565000D03*
D20*
X159131000Y-67564000D03*
D11*
X140843000Y-71120000D03*
X137534607Y-80262276D03*
X168148000Y-67564000D03*
D21*
X117983000Y-65659000D02*
X119715001Y-63926999D01*
X117983000Y-66926460D02*
X117983000Y-65659000D01*
X119715001Y-63926999D02*
X120015000Y-63627000D01*
D22*
X117983000Y-66926460D02*
X117732810Y-66926460D01*
X117732810Y-66926460D02*
X116205000Y-68454270D01*
X116205000Y-68454270D02*
X116205000Y-89916390D01*
X116205000Y-89916390D02*
X117753110Y-91464500D01*
X117753110Y-91464500D02*
X118003300Y-91464500D01*
D21*
X130429000Y-91186000D02*
X130429000Y-91371494D01*
X130428957Y-91185957D02*
X130429000Y-91186000D01*
X130428957Y-84200957D02*
X130428957Y-91185957D01*
X133548406Y-95395468D02*
X133043063Y-95900811D01*
X130429000Y-91371494D02*
X133548406Y-94490900D01*
X128524000Y-82296000D02*
X130428957Y-84200957D01*
X133548406Y-94490900D02*
X133548406Y-95395468D01*
D22*
X129057422Y-63116765D02*
X125755422Y-66418764D01*
X125755422Y-66418764D02*
X125755422Y-68300582D01*
X134241235Y-63116765D02*
X129057422Y-63116765D01*
X135382000Y-61976000D02*
X134241235Y-63116765D01*
X125755422Y-68300582D02*
X121793000Y-72263004D01*
X154433314Y-74001586D02*
X140749855Y-74001586D01*
X155194000Y-73240900D02*
X154433314Y-74001586D01*
X165744278Y-75771622D02*
X168275000Y-73240900D01*
X143100514Y-75771622D02*
X165744278Y-75771622D01*
X137941176Y-80930960D02*
X143100514Y-75771622D01*
D23*
X133372352Y-68938648D02*
X132969000Y-69342000D01*
X132969000Y-69342000D02*
X132969000Y-80854296D01*
X132969000Y-80854296D02*
X133372352Y-81257648D01*
X133372352Y-81257648D02*
X134414704Y-82300000D01*
X134414704Y-82300000D02*
X140712000Y-82300000D01*
X140712000Y-82300000D02*
X141351000Y-81661000D01*
X141351000Y-80645000D02*
X142496000Y-79500000D01*
X141351000Y-81661000D02*
X141351000Y-80645000D01*
X142496000Y-79500000D02*
X147900000Y-79500000D01*
X133731000Y-68580000D02*
X133372352Y-68938648D01*
D21*
X124206000Y-86233000D02*
X124505999Y-85933001D01*
X124505999Y-85933001D02*
X124505999Y-84917001D01*
X124505999Y-84917001D02*
X125984000Y-83439000D01*
X125984000Y-83439000D02*
X127635000Y-83439000D01*
X127635000Y-83439000D02*
X129046526Y-84850526D01*
X121666000Y-66040000D02*
X121666000Y-61595000D01*
X121666000Y-61595000D02*
X127127000Y-56134000D01*
X127127000Y-56134000D02*
X134245350Y-56134000D01*
X134245350Y-56134000D02*
X135097520Y-56986170D01*
X135097520Y-56986170D02*
X135097520Y-58039000D01*
X122559790Y-104389210D02*
X123317000Y-104389210D01*
X118745000Y-108204000D02*
X122559790Y-104389210D01*
X119633967Y-85924671D02*
X119633967Y-74329257D01*
X128716398Y-98297978D02*
X128697342Y-98317034D01*
X125730000Y-92020704D02*
X119633967Y-85924671D01*
X125730000Y-96221556D02*
X125730000Y-92020704D01*
X127825478Y-98317034D02*
X125730000Y-96221556D01*
X128697342Y-98317034D02*
X127825478Y-98317034D01*
X135825200Y-99314464D02*
X134808714Y-98297978D01*
X119633967Y-74329257D02*
X118233190Y-72928480D01*
X134808714Y-98297978D02*
X128716398Y-98297978D01*
X118233190Y-72928480D02*
X117983000Y-72928480D01*
X134647851Y-97916967D02*
X128558579Y-97916967D01*
X120014978Y-85766852D02*
X120014978Y-70709768D01*
X128558579Y-97916967D02*
X128539523Y-97936023D01*
X138293492Y-97306553D02*
X135258265Y-97306553D01*
X127983297Y-97936023D02*
X126111011Y-96063737D01*
X135258265Y-97306553D02*
X134647851Y-97916967D01*
X126111011Y-91862885D02*
X120014978Y-85766852D01*
X118233190Y-68927980D02*
X117983000Y-68927980D01*
X120014978Y-70709768D02*
X118233190Y-68927980D01*
X126111011Y-96063737D02*
X126111011Y-91862885D01*
X128539523Y-97936023D02*
X127983297Y-97936023D01*
X121158011Y-74167989D02*
X128579590Y-66746410D01*
X129717616Y-93853000D02*
X121158011Y-85293395D01*
X132968996Y-94742000D02*
X132079996Y-93853000D01*
X132079996Y-93853000D02*
X129717616Y-93853000D01*
X121158011Y-85293395D02*
X121158011Y-74167989D01*
X128579590Y-66746410D02*
X139192000Y-66746410D01*
X130067786Y-94742000D02*
X132064185Y-94742000D01*
X131572000Y-61468000D02*
X129951830Y-61468000D01*
X129951830Y-61468000D02*
X125222011Y-66197819D01*
X125222011Y-67340819D02*
X120777000Y-71785830D01*
X120777000Y-71785830D02*
X120777000Y-85451214D01*
X125222011Y-66197819D02*
X125222011Y-67340819D01*
X120777000Y-85451214D02*
X130067786Y-94742000D01*
X120903989Y-71120011D02*
X120903978Y-71120011D01*
X120395989Y-85609033D02*
X127761989Y-92975033D01*
X124841000Y-67183000D02*
X120903989Y-71120011D01*
X124841000Y-66040000D02*
X124841000Y-67183000D01*
X127761989Y-92975033D02*
X127761989Y-94234000D01*
X128143000Y-62738000D02*
X124841000Y-66040000D01*
X120395989Y-71628000D02*
X120395989Y-85609033D01*
X128143000Y-60452000D02*
X128143000Y-62738000D01*
X120903978Y-71120011D02*
X120395989Y-71628000D01*
X131190978Y-90870318D02*
X131191022Y-90870362D01*
X136174830Y-96012000D02*
X138557000Y-96012000D01*
X130048000Y-74041000D02*
X131190978Y-75183978D01*
X126854055Y-73149890D02*
X127745165Y-74041000D01*
X131191022Y-90870362D02*
X131191022Y-91028192D01*
X131190978Y-75183978D02*
X131190978Y-90870318D01*
X127745165Y-74041000D02*
X130048000Y-74041000D01*
X131191022Y-91028192D02*
X136174830Y-96012000D01*
X131571989Y-74802993D02*
X129667000Y-72898004D01*
X131571989Y-90712499D02*
X131571989Y-74802993D01*
X138572108Y-95226476D02*
X136085966Y-95226476D01*
X136085966Y-95226476D02*
X131571989Y-90712499D01*
X131953000Y-90554680D02*
X131953000Y-74299339D01*
X135847140Y-94448820D02*
X131953000Y-90554680D01*
X138556532Y-94448820D02*
X135847140Y-94448820D01*
X131953000Y-74299339D02*
X129667887Y-72014226D01*
X135734242Y-103124000D02*
X137795584Y-101062658D01*
X121031000Y-103124000D02*
X135734242Y-103124000D01*
X120142000Y-102235000D02*
X121031000Y-103124000D01*
X123253500Y-94361004D02*
X120142000Y-97472504D01*
X120142000Y-97472504D02*
X120142000Y-102235000D01*
X133399998Y-102700000D02*
X134000000Y-102099998D01*
X121496000Y-102700000D02*
X133399998Y-102700000D01*
X120732094Y-101936094D02*
X121496000Y-102700000D01*
X120732094Y-98152406D02*
X120732094Y-101936094D01*
X124206000Y-94678500D02*
X120732094Y-98152406D01*
X139151509Y-93939509D02*
X139151509Y-96306491D01*
X139151509Y-96306491D02*
X138866599Y-96591401D01*
X130809967Y-75809967D02*
X129700000Y-74700000D01*
X138557000Y-93345000D02*
X139151509Y-93939509D01*
X130809967Y-91028137D02*
X130809967Y-75809967D01*
X130810011Y-91186011D02*
X130810011Y-91028181D01*
X130810011Y-91028181D02*
X130809967Y-91028137D01*
X138866599Y-96591401D02*
X136215401Y-96591401D01*
X136215401Y-96591401D02*
X130810011Y-91186011D01*
X122960453Y-98044000D02*
X122066590Y-98937863D01*
X128855161Y-98698045D02*
X127667659Y-98698045D01*
X128874217Y-98678989D02*
X128855161Y-98698045D01*
X136678867Y-99948999D02*
X135602222Y-99948999D01*
X135602222Y-99948999D02*
X134332213Y-98678989D01*
X138326856Y-98301010D02*
X136678867Y-99948999D01*
X127013614Y-98044000D02*
X122960453Y-98044000D01*
X134332213Y-98678989D02*
X128874217Y-98678989D01*
X127667659Y-98698045D02*
X127013614Y-98044000D01*
X134174394Y-99060000D02*
X135444403Y-100330010D01*
X124206000Y-99060000D02*
X127490784Y-99060000D01*
X127509840Y-99079056D02*
X129012980Y-99079056D01*
X129012980Y-99079056D02*
X129032036Y-99060000D01*
X129032036Y-99060000D02*
X134174394Y-99060000D01*
X137794988Y-100330010D02*
X138811000Y-99313998D01*
X127490784Y-99060000D02*
X127509840Y-99079056D01*
X135444403Y-100330010D02*
X137794988Y-100330010D01*
X137413996Y-62357000D02*
X135382000Y-64388996D01*
X152753553Y-62357000D02*
X137413996Y-62357000D01*
X153289000Y-61821553D02*
X152753553Y-62357000D01*
X153289000Y-61468000D02*
X153289000Y-61821553D01*
X137287000Y-61595000D02*
X135382000Y-63500000D01*
X152527000Y-61595000D02*
X137287000Y-61595000D01*
X138049000Y-65786000D02*
X129159000Y-65786000D01*
X140589000Y-63246000D02*
X138049000Y-65786000D01*
X166116000Y-61468006D02*
X164338006Y-63246000D01*
X164338006Y-63246000D02*
X140589000Y-63246000D01*
X129458999Y-65070001D02*
X129159000Y-64770002D01*
X137875999Y-65070001D02*
X129458999Y-65070001D01*
X140081011Y-62864989D02*
X137875999Y-65070001D01*
X163830011Y-62864989D02*
X140081011Y-62864989D01*
X165100000Y-61595000D02*
X163830011Y-62864989D01*
D22*
X137534607Y-80262276D02*
X142711072Y-75085811D01*
X142711072Y-75085811D02*
X164309189Y-75085811D01*
X164309189Y-75085811D02*
X167259000Y-72136000D01*
X167259000Y-72136000D02*
X167259000Y-68453000D01*
X167259000Y-68453000D02*
X168148000Y-67564000D01*
D24*
G36*
X142679013Y-55493741D02*
X142575118Y-55743946D01*
X142574882Y-56014865D01*
X142650403Y-56197641D01*
X142575118Y-56378946D01*
X142574882Y-56649865D01*
X142650403Y-56832641D01*
X142575118Y-57013946D01*
X142574882Y-57284865D01*
X142650403Y-57467641D01*
X142575118Y-57648946D01*
X142574882Y-57919865D01*
X142650403Y-58102641D01*
X142575118Y-58283946D01*
X142574882Y-58554865D01*
X142650403Y-58737641D01*
X142575118Y-58918946D01*
X142574882Y-59189865D01*
X142678339Y-59440252D01*
X142869741Y-59631987D01*
X143119946Y-59735882D01*
X143390865Y-59736118D01*
X143573641Y-59660597D01*
X143754946Y-59735882D01*
X144025865Y-59736118D01*
X144208641Y-59660597D01*
X144389946Y-59735882D01*
X144660865Y-59736118D01*
X144843641Y-59660597D01*
X145024946Y-59735882D01*
X145295865Y-59736118D01*
X145478641Y-59660597D01*
X145659946Y-59735882D01*
X145930865Y-59736118D01*
X146113641Y-59660597D01*
X146294946Y-59735882D01*
X146565865Y-59736118D01*
X146748641Y-59660597D01*
X146929946Y-59735882D01*
X147200865Y-59736118D01*
X147451252Y-59632661D01*
X147642987Y-59441259D01*
X147746882Y-59191054D01*
X147747118Y-58920135D01*
X147671597Y-58737359D01*
X147746882Y-58556054D01*
X147747007Y-58411513D01*
X149375674Y-58411513D01*
X149661436Y-59103109D01*
X150190108Y-59632704D01*
X150881204Y-59919673D01*
X151629513Y-59920326D01*
X152321109Y-59634564D01*
X152850704Y-59105892D01*
X153137673Y-58414796D01*
X153138326Y-57666487D01*
X152852564Y-56974891D01*
X152323892Y-56445296D01*
X151632796Y-56158327D01*
X150884487Y-56157674D01*
X150192891Y-56443436D01*
X149663296Y-56972108D01*
X149376327Y-57663204D01*
X149375674Y-58411513D01*
X147747007Y-58411513D01*
X147747118Y-58285135D01*
X147671597Y-58102359D01*
X147746882Y-57921054D01*
X147747118Y-57650135D01*
X147671597Y-57467359D01*
X147746882Y-57286054D01*
X147747118Y-57015135D01*
X147671597Y-56832359D01*
X147746882Y-56651054D01*
X147747118Y-56380135D01*
X147671597Y-56197359D01*
X147746882Y-56016054D01*
X147747118Y-55745135D01*
X147643661Y-55494748D01*
X147604980Y-55456000D01*
X154908820Y-55456000D01*
X154871013Y-55493741D01*
X154767118Y-55743946D01*
X154766882Y-56014865D01*
X154842403Y-56197641D01*
X154767118Y-56378946D01*
X154766882Y-56649865D01*
X154842403Y-56832641D01*
X154767118Y-57013946D01*
X154766882Y-57284865D01*
X154842403Y-57467641D01*
X154767118Y-57648946D01*
X154766882Y-57919865D01*
X154842403Y-58102641D01*
X154767118Y-58283946D01*
X154766882Y-58554865D01*
X154842403Y-58737641D01*
X154767118Y-58918946D01*
X154766882Y-59189865D01*
X154870339Y-59440252D01*
X155061741Y-59631987D01*
X155311946Y-59735882D01*
X155582865Y-59736118D01*
X155765641Y-59660597D01*
X155946946Y-59735882D01*
X156217865Y-59736118D01*
X156400641Y-59660597D01*
X156581946Y-59735882D01*
X156852865Y-59736118D01*
X157035641Y-59660597D01*
X157216946Y-59735882D01*
X157487865Y-59736118D01*
X157670641Y-59660597D01*
X157851946Y-59735882D01*
X158122865Y-59736118D01*
X158305641Y-59660597D01*
X158486946Y-59735882D01*
X158757865Y-59736118D01*
X158940641Y-59660597D01*
X159121946Y-59735882D01*
X159392865Y-59736118D01*
X159643252Y-59632661D01*
X159834987Y-59441259D01*
X159938882Y-59191054D01*
X159939118Y-58920135D01*
X159863597Y-58737359D01*
X159938882Y-58556054D01*
X159939007Y-58411513D01*
X161948674Y-58411513D01*
X162234436Y-59103109D01*
X162763108Y-59632704D01*
X163454204Y-59919673D01*
X164202513Y-59920326D01*
X164894109Y-59634564D01*
X165423704Y-59105892D01*
X165710673Y-58414796D01*
X165711326Y-57666487D01*
X165425564Y-56974891D01*
X164896892Y-56445296D01*
X164205796Y-56158327D01*
X163457487Y-56157674D01*
X162765891Y-56443436D01*
X162236296Y-56972108D01*
X161949327Y-57663204D01*
X161948674Y-58411513D01*
X159939007Y-58411513D01*
X159939118Y-58285135D01*
X159863597Y-58102359D01*
X159938882Y-57921054D01*
X159939118Y-57650135D01*
X159863597Y-57467359D01*
X159938882Y-57286054D01*
X159939118Y-57015135D01*
X159863597Y-56832359D01*
X159938882Y-56651054D01*
X159939118Y-56380135D01*
X159863597Y-56197359D01*
X159938882Y-56016054D01*
X159939118Y-55745135D01*
X159835661Y-55494748D01*
X159796980Y-55456000D01*
X167735820Y-55456000D01*
X167698013Y-55493741D01*
X167594118Y-55743946D01*
X167593882Y-56014865D01*
X167669403Y-56197641D01*
X167594118Y-56378946D01*
X167593882Y-56649865D01*
X167669403Y-56832641D01*
X167594118Y-57013946D01*
X167593882Y-57284865D01*
X167669403Y-57467641D01*
X167594118Y-57648946D01*
X167593882Y-57919865D01*
X167669403Y-58102641D01*
X167594118Y-58283946D01*
X167593882Y-58554865D01*
X167669403Y-58737641D01*
X167594118Y-58918946D01*
X167593882Y-59189865D01*
X167697339Y-59440252D01*
X167888741Y-59631987D01*
X168138946Y-59735882D01*
X168409865Y-59736118D01*
X168592641Y-59660597D01*
X168773946Y-59735882D01*
X169044865Y-59736118D01*
X169227641Y-59660597D01*
X169408946Y-59735882D01*
X169679865Y-59736118D01*
X169862641Y-59660597D01*
X170043946Y-59735882D01*
X170314865Y-59736118D01*
X170497641Y-59660597D01*
X170678946Y-59735882D01*
X170949865Y-59736118D01*
X171132641Y-59660597D01*
X171313946Y-59735882D01*
X171584865Y-59736118D01*
X171767641Y-59660597D01*
X171948946Y-59735882D01*
X172219865Y-59736118D01*
X172470252Y-59632661D01*
X172661987Y-59441259D01*
X172765882Y-59191054D01*
X172766118Y-58920135D01*
X172690597Y-58737359D01*
X172765882Y-58556054D01*
X172766118Y-58285135D01*
X172690597Y-58102359D01*
X172765882Y-57921054D01*
X172766118Y-57650135D01*
X172690597Y-57467359D01*
X172765882Y-57286054D01*
X172766118Y-57015135D01*
X172690597Y-56832359D01*
X172765882Y-56651054D01*
X172766118Y-56380135D01*
X172690597Y-56197359D01*
X172765882Y-56016054D01*
X172766118Y-55745135D01*
X172662661Y-55494748D01*
X172623980Y-55456000D01*
X172955088Y-55456000D01*
X173587445Y-55581784D01*
X174085456Y-55914544D01*
X174418216Y-56412555D01*
X174544000Y-57044911D01*
X174544000Y-83544000D01*
X167051485Y-83544000D01*
X167194435Y-83484788D01*
X167317570Y-83197175D01*
X166200000Y-82079605D01*
X165082430Y-83197175D01*
X165205565Y-83484788D01*
X165360970Y-83544000D01*
X162800000Y-83544000D01*
X162755950Y-83552762D01*
X162711039Y-83552762D01*
X162328356Y-83628882D01*
X162163977Y-83696970D01*
X161839553Y-83913743D01*
X161713743Y-84039553D01*
X161496971Y-84363976D01*
X161496970Y-84363977D01*
X161428882Y-84528356D01*
X161352762Y-84911039D01*
X161352762Y-84955950D01*
X161344000Y-85000000D01*
X161344000Y-87544000D01*
X154056000Y-87544000D01*
X154056000Y-85000000D01*
X154047238Y-84955950D01*
X154047238Y-84911039D01*
X153971118Y-84528356D01*
X153903030Y-84363977D01*
X153903029Y-84363976D01*
X153686257Y-84039553D01*
X153560447Y-83913743D01*
X153236023Y-83696970D01*
X153071644Y-83628882D01*
X152688961Y-83552762D01*
X152644050Y-83552762D01*
X152600000Y-83544000D01*
X150151485Y-83544000D01*
X150294435Y-83484788D01*
X150417570Y-83197175D01*
X149300000Y-82079605D01*
X148182430Y-83197175D01*
X148305565Y-83484788D01*
X148460970Y-83544000D01*
X140000000Y-83544000D01*
X139825496Y-83578711D01*
X139677559Y-83677559D01*
X139578711Y-83825496D01*
X139544000Y-84000000D01*
X139544000Y-90120429D01*
X139483762Y-90095416D01*
X139212843Y-90095180D01*
X138962456Y-90198637D01*
X138770721Y-90390039D01*
X138666826Y-90640244D01*
X138666590Y-90911163D01*
X138704074Y-91001882D01*
X138693056Y-90997307D01*
X138422137Y-90997071D01*
X138171750Y-91100528D01*
X137980015Y-91291930D01*
X137876120Y-91542135D01*
X137875884Y-91813054D01*
X137979341Y-92063441D01*
X138046302Y-92130518D01*
X138004715Y-92172033D01*
X137900820Y-92422238D01*
X137900584Y-92693157D01*
X138001470Y-92937321D01*
X137980013Y-92958741D01*
X137876118Y-93208946D01*
X137875882Y-93479865D01*
X137979339Y-93730252D01*
X138145596Y-93896798D01*
X138076054Y-93966220D01*
X136047039Y-93966220D01*
X135500668Y-93419849D01*
X135513252Y-93414649D01*
X135704987Y-93223247D01*
X135808882Y-92973042D01*
X135809118Y-92702123D01*
X135705661Y-92451736D01*
X135632056Y-92378003D01*
X135863946Y-92474293D01*
X136134865Y-92474529D01*
X136385252Y-92371072D01*
X136576987Y-92179670D01*
X136680882Y-91929465D01*
X136681118Y-91658546D01*
X136577661Y-91408159D01*
X136386259Y-91216424D01*
X136136054Y-91112529D01*
X135865135Y-91112293D01*
X135614748Y-91215750D01*
X135520621Y-91309714D01*
X135285890Y-91212244D01*
X135014971Y-91212008D01*
X134764584Y-91315465D01*
X134572849Y-91506867D01*
X134468954Y-91757072D01*
X134468718Y-92027991D01*
X134572175Y-92278378D01*
X134647788Y-92354122D01*
X134551013Y-92450729D01*
X134545302Y-92464483D01*
X132435600Y-90354780D01*
X132435600Y-89130599D01*
X132769737Y-89130599D01*
X132873194Y-89380986D01*
X133064596Y-89572721D01*
X133314801Y-89676616D01*
X133584701Y-89676851D01*
X133465053Y-89796291D01*
X133361158Y-90046496D01*
X133360922Y-90317415D01*
X133464379Y-90567802D01*
X133655781Y-90759537D01*
X133905986Y-90863432D01*
X134176905Y-90863668D01*
X134427292Y-90760211D01*
X134619027Y-90568809D01*
X134722922Y-90318604D01*
X134723024Y-90201230D01*
X134827072Y-90201321D01*
X135077459Y-90097864D01*
X135269194Y-89906462D01*
X135373089Y-89656257D01*
X135373325Y-89385338D01*
X135269868Y-89134951D01*
X135078466Y-88943216D01*
X134828261Y-88839321D01*
X134557342Y-88839085D01*
X134306955Y-88942542D01*
X134131749Y-89117443D01*
X134131973Y-88860869D01*
X134028516Y-88610482D01*
X133837114Y-88418747D01*
X133586909Y-88314852D01*
X133315990Y-88314616D01*
X133065603Y-88418073D01*
X132873868Y-88609475D01*
X132769973Y-88859680D01*
X132769737Y-89130599D01*
X132435600Y-89130599D01*
X132435600Y-86254190D01*
X132454839Y-86300752D01*
X132646241Y-86492487D01*
X132896446Y-86596382D01*
X133167365Y-86596618D01*
X133417752Y-86493161D01*
X133609487Y-86301759D01*
X133713382Y-86051554D01*
X133713618Y-85780635D01*
X133610161Y-85530248D01*
X133418759Y-85338513D01*
X133168554Y-85234618D01*
X132897635Y-85234382D01*
X132647248Y-85337839D01*
X132455513Y-85529241D01*
X132435600Y-85577196D01*
X132435600Y-84716865D01*
X133811882Y-84716865D01*
X133915339Y-84967252D01*
X134106741Y-85158987D01*
X134356946Y-85262882D01*
X134627865Y-85263118D01*
X134878252Y-85159661D01*
X135069987Y-84968259D01*
X135173882Y-84718054D01*
X135174118Y-84447135D01*
X135070661Y-84196748D01*
X134879259Y-84005013D01*
X134629054Y-83901118D01*
X134358135Y-83900882D01*
X134107748Y-84004339D01*
X133916013Y-84195741D01*
X133812118Y-84445946D01*
X133811882Y-84716865D01*
X132435600Y-84716865D01*
X132435600Y-81578132D01*
X133786086Y-82928618D01*
X134074498Y-83121329D01*
X134414704Y-83189000D01*
X140712000Y-83189000D01*
X141052206Y-83121329D01*
X141340618Y-82928618D01*
X141979618Y-82289618D01*
X142172329Y-82001206D01*
X142240000Y-81661000D01*
X142240000Y-81013236D01*
X142816176Y-80437060D01*
X142818533Y-80437062D01*
X142742141Y-80548866D01*
X142711536Y-80700000D01*
X142711536Y-83100000D01*
X142738103Y-83241190D01*
X142821546Y-83370865D01*
X142948866Y-83457859D01*
X143100000Y-83488464D01*
X145500000Y-83488464D01*
X145641190Y-83461897D01*
X145770865Y-83378454D01*
X145857859Y-83251134D01*
X145888464Y-83100000D01*
X145888464Y-81587734D01*
X147455293Y-81587734D01*
X147476214Y-82317443D01*
X147715212Y-82894435D01*
X148002825Y-83017570D01*
X149120395Y-81900000D01*
X149479605Y-81900000D01*
X150597175Y-83017570D01*
X150884788Y-82894435D01*
X151144707Y-82212266D01*
X151126802Y-81587734D01*
X164355293Y-81587734D01*
X164376214Y-82317443D01*
X164615212Y-82894435D01*
X164902825Y-83017570D01*
X166020395Y-81900000D01*
X166379605Y-81900000D01*
X167497175Y-83017570D01*
X167784788Y-82894435D01*
X168044707Y-82212266D01*
X168023786Y-81482557D01*
X167784788Y-80905565D01*
X167497175Y-80782430D01*
X166379605Y-81900000D01*
X166020395Y-81900000D01*
X164902825Y-80782430D01*
X164615212Y-80905565D01*
X164355293Y-81587734D01*
X151126802Y-81587734D01*
X151123786Y-81482557D01*
X150884788Y-80905565D01*
X150597175Y-80782430D01*
X149479605Y-81900000D01*
X149120395Y-81900000D01*
X148002825Y-80782430D01*
X147715212Y-80905565D01*
X147455293Y-81587734D01*
X145888464Y-81587734D01*
X145888464Y-80700000D01*
X145870180Y-80602825D01*
X148182430Y-80602825D01*
X149300000Y-81720395D01*
X150417570Y-80602825D01*
X165082430Y-80602825D01*
X166200000Y-81720395D01*
X167317570Y-80602825D01*
X167194435Y-80315212D01*
X166512266Y-80055293D01*
X165782557Y-80076214D01*
X165205565Y-80315212D01*
X165082430Y-80602825D01*
X150417570Y-80602825D01*
X150294435Y-80315212D01*
X149612266Y-80055293D01*
X148882557Y-80076214D01*
X148305565Y-80315212D01*
X148182430Y-80602825D01*
X145870180Y-80602825D01*
X145861897Y-80558810D01*
X145782160Y-80434895D01*
X145786946Y-80436882D01*
X146057865Y-80437118D01*
X146174320Y-80389000D01*
X146306634Y-80389000D01*
X146421946Y-80436882D01*
X146692865Y-80437118D01*
X146809320Y-80389000D01*
X146941634Y-80389000D01*
X147056946Y-80436882D01*
X147327865Y-80437118D01*
X147444320Y-80389000D01*
X147576634Y-80389000D01*
X147691946Y-80436882D01*
X147962865Y-80437118D01*
X148213252Y-80333661D01*
X148221972Y-80324956D01*
X148240206Y-80321329D01*
X148528618Y-80128618D01*
X148687479Y-79890865D01*
X153877882Y-79890865D01*
X153981339Y-80141252D01*
X154172741Y-80332987D01*
X154422946Y-80436882D01*
X154693865Y-80437118D01*
X154876641Y-80361597D01*
X155057946Y-80436882D01*
X155328865Y-80437118D01*
X155511641Y-80361597D01*
X155692946Y-80436882D01*
X155963865Y-80437118D01*
X156146641Y-80361597D01*
X156327946Y-80436882D01*
X156598865Y-80437118D01*
X156781641Y-80361597D01*
X156962946Y-80436882D01*
X157233865Y-80437118D01*
X157416641Y-80361597D01*
X157597946Y-80436882D01*
X157868865Y-80437118D01*
X158051641Y-80361597D01*
X158232946Y-80436882D01*
X158503865Y-80437118D01*
X158686641Y-80361597D01*
X158867946Y-80436882D01*
X159138865Y-80437118D01*
X159321641Y-80361597D01*
X159502946Y-80436882D01*
X159773865Y-80437118D01*
X159956641Y-80361597D01*
X160137946Y-80436882D01*
X160408865Y-80437118D01*
X160659252Y-80333661D01*
X160850987Y-80142259D01*
X160954882Y-79892054D01*
X160955118Y-79621135D01*
X160879597Y-79438359D01*
X160954882Y-79257054D01*
X160954883Y-79255865D01*
X166958882Y-79255865D01*
X167034403Y-79438641D01*
X166959118Y-79619946D01*
X166958882Y-79890865D01*
X167062339Y-80141252D01*
X167253741Y-80332987D01*
X167503946Y-80436882D01*
X167774865Y-80437118D01*
X167957641Y-80361597D01*
X168138946Y-80436882D01*
X168409865Y-80437118D01*
X168592641Y-80361597D01*
X168773946Y-80436882D01*
X169044865Y-80437118D01*
X169227641Y-80361597D01*
X169408946Y-80436882D01*
X169679865Y-80437118D01*
X169749917Y-80408173D01*
X169729135Y-80421546D01*
X169642141Y-80548866D01*
X169611536Y-80700000D01*
X169611536Y-83100000D01*
X169638103Y-83241190D01*
X169721546Y-83370865D01*
X169848866Y-83457859D01*
X170000000Y-83488464D01*
X172400000Y-83488464D01*
X172541190Y-83461897D01*
X172670865Y-83378454D01*
X172757859Y-83251134D01*
X172788464Y-83100000D01*
X172788464Y-80700000D01*
X172761897Y-80558810D01*
X172683495Y-80436969D01*
X172854865Y-80437118D01*
X173037641Y-80361597D01*
X173218946Y-80436882D01*
X173489865Y-80437118D01*
X173740252Y-80333661D01*
X173931987Y-80142259D01*
X174035882Y-79892054D01*
X174036118Y-79621135D01*
X173932661Y-79370748D01*
X173741259Y-79179013D01*
X173491054Y-79075118D01*
X173220135Y-79074882D01*
X173037359Y-79150403D01*
X172856054Y-79075118D01*
X172766041Y-79075040D01*
X172766118Y-78986135D01*
X172662661Y-78735748D01*
X172471259Y-78544013D01*
X172221054Y-78440118D01*
X171950135Y-78439882D01*
X171767359Y-78515403D01*
X171586054Y-78440118D01*
X171315135Y-78439882D01*
X171132359Y-78515403D01*
X170951054Y-78440118D01*
X170680135Y-78439882D01*
X170497359Y-78515403D01*
X170316054Y-78440118D01*
X170045135Y-78439882D01*
X169862359Y-78515403D01*
X169681054Y-78440118D01*
X169410135Y-78439882D01*
X169227359Y-78515403D01*
X169046054Y-78440118D01*
X168775135Y-78439882D01*
X168592359Y-78515403D01*
X168411054Y-78440118D01*
X168140135Y-78439882D01*
X167957359Y-78515403D01*
X167776054Y-78440118D01*
X167505135Y-78439882D01*
X167254748Y-78543339D01*
X167063013Y-78734741D01*
X166959118Y-78984946D01*
X166958882Y-79255865D01*
X160954883Y-79255865D01*
X160955118Y-78986135D01*
X160851661Y-78735748D01*
X160660259Y-78544013D01*
X160410054Y-78440118D01*
X160139135Y-78439882D01*
X159956359Y-78515403D01*
X159775054Y-78440118D01*
X159504135Y-78439882D01*
X159321359Y-78515403D01*
X159140054Y-78440118D01*
X158869135Y-78439882D01*
X158686359Y-78515403D01*
X158505054Y-78440118D01*
X158234135Y-78439882D01*
X158051359Y-78515403D01*
X157870054Y-78440118D01*
X157599135Y-78439882D01*
X157416359Y-78515403D01*
X157235054Y-78440118D01*
X156964135Y-78439882D01*
X156781359Y-78515403D01*
X156600054Y-78440118D01*
X156329135Y-78439882D01*
X156146359Y-78515403D01*
X155965054Y-78440118D01*
X155694135Y-78439882D01*
X155443748Y-78543339D01*
X155252013Y-78734741D01*
X155148118Y-78984946D01*
X155148040Y-79074959D01*
X155059135Y-79074882D01*
X154876359Y-79150403D01*
X154695054Y-79075118D01*
X154424135Y-79074882D01*
X154173748Y-79178339D01*
X153982013Y-79369741D01*
X153878118Y-79619946D01*
X153877882Y-79890865D01*
X148687479Y-79890865D01*
X148721329Y-79840206D01*
X148789000Y-79500000D01*
X148721329Y-79159794D01*
X148528618Y-78871382D01*
X148436184Y-78809619D01*
X148405661Y-78735748D01*
X148214259Y-78544013D01*
X147964054Y-78440118D01*
X147693135Y-78439882D01*
X147510359Y-78515403D01*
X147329054Y-78440118D01*
X147058135Y-78439882D01*
X146875359Y-78515403D01*
X146694054Y-78440118D01*
X146423135Y-78439882D01*
X146240359Y-78515403D01*
X146059054Y-78440118D01*
X145788135Y-78439882D01*
X145605359Y-78515403D01*
X145424054Y-78440118D01*
X145153135Y-78439882D01*
X144970359Y-78515403D01*
X144789054Y-78440118D01*
X144518135Y-78439882D01*
X144335359Y-78515403D01*
X144154054Y-78440118D01*
X143883135Y-78439882D01*
X143700359Y-78515403D01*
X143519054Y-78440118D01*
X143248135Y-78439882D01*
X142997748Y-78543339D01*
X142929969Y-78611000D01*
X142496000Y-78611000D01*
X142155795Y-78678670D01*
X141867382Y-78871382D01*
X141008661Y-79730103D01*
X140912655Y-79497748D01*
X140721253Y-79306013D01*
X140539585Y-79230577D01*
X142829000Y-76941162D01*
X142828882Y-77076244D01*
X142932339Y-77326631D01*
X143123741Y-77518366D01*
X143373946Y-77622261D01*
X143644865Y-77622497D01*
X143895252Y-77519040D01*
X144086987Y-77327638D01*
X144190882Y-77077433D01*
X144191118Y-76806514D01*
X144087661Y-76556127D01*
X143938416Y-76406622D01*
X154278436Y-76406622D01*
X154109023Y-76575741D01*
X154005128Y-76825946D01*
X154004892Y-77096865D01*
X154108349Y-77347252D01*
X154299751Y-77538987D01*
X154549956Y-77642882D01*
X154820875Y-77643118D01*
X155071262Y-77539661D01*
X155262997Y-77348259D01*
X155366892Y-77098054D01*
X155367128Y-76827135D01*
X155263671Y-76576748D01*
X155093840Y-76406622D01*
X165744278Y-76406622D01*
X165987282Y-76358286D01*
X166193291Y-76220635D01*
X168549676Y-73864250D01*
X168586275Y-73849127D01*
X168761246Y-73921782D01*
X169032165Y-73922018D01*
X169208575Y-73849127D01*
X169383546Y-73921782D01*
X169654465Y-73922018D01*
X169830875Y-73849127D01*
X170005846Y-73921782D01*
X170276765Y-73922018D01*
X170453175Y-73849127D01*
X170628146Y-73921782D01*
X170899065Y-73922018D01*
X171075475Y-73849127D01*
X171250446Y-73921782D01*
X171521365Y-73922018D01*
X171697775Y-73849127D01*
X171872746Y-73921782D01*
X172143665Y-73922018D01*
X172394052Y-73818561D01*
X172585787Y-73627159D01*
X172689682Y-73376954D01*
X172689749Y-73299652D01*
X172765965Y-73299718D01*
X172942375Y-73226827D01*
X173117346Y-73299482D01*
X173388265Y-73299718D01*
X173638652Y-73196261D01*
X173830387Y-73004859D01*
X173934282Y-72754654D01*
X173934518Y-72483735D01*
X173861627Y-72307325D01*
X173934282Y-72132354D01*
X173934518Y-71861435D01*
X173861627Y-71685025D01*
X173934282Y-71510054D01*
X173934518Y-71239135D01*
X173831061Y-70988748D01*
X173639659Y-70797013D01*
X173389454Y-70693118D01*
X173118535Y-70692882D01*
X172942125Y-70765773D01*
X172767154Y-70693118D01*
X172496235Y-70692882D01*
X172319825Y-70765773D01*
X172144854Y-70693118D01*
X171873935Y-70692882D01*
X171697525Y-70765773D01*
X171522554Y-70693118D01*
X171251635Y-70692882D01*
X171001248Y-70796339D01*
X170809513Y-70987741D01*
X170705618Y-71237946D01*
X170705551Y-71315248D01*
X170629335Y-71315182D01*
X170452925Y-71388073D01*
X170277954Y-71315418D01*
X170200652Y-71315351D01*
X170200718Y-71239135D01*
X170097261Y-70988748D01*
X169905859Y-70797013D01*
X169655654Y-70693118D01*
X169384735Y-70692882D01*
X169208325Y-70765773D01*
X169033354Y-70693118D01*
X168762435Y-70692882D01*
X168586025Y-70765773D01*
X168411054Y-70693118D01*
X168140135Y-70692882D01*
X167894000Y-70794582D01*
X167894000Y-68716026D01*
X168422676Y-68187350D01*
X168533252Y-68141661D01*
X168724987Y-67950259D01*
X168828882Y-67700054D01*
X168829118Y-67429135D01*
X168725661Y-67178748D01*
X168534259Y-66987013D01*
X168284054Y-66883118D01*
X168013135Y-66882882D01*
X167762748Y-66986339D01*
X167571013Y-67177741D01*
X167524700Y-67289274D01*
X166809987Y-68003987D01*
X166672336Y-68209996D01*
X166624000Y-68453000D01*
X166624000Y-71872974D01*
X164046163Y-74450811D01*
X154882010Y-74450811D01*
X154882327Y-74450599D01*
X155468675Y-73864250D01*
X155505275Y-73849127D01*
X155680246Y-73921782D01*
X155951165Y-73922018D01*
X156127575Y-73849127D01*
X156302546Y-73921782D01*
X156573465Y-73922018D01*
X156749875Y-73849127D01*
X156924846Y-73921782D01*
X157195765Y-73922018D01*
X157372175Y-73849127D01*
X157547146Y-73921782D01*
X157818065Y-73922018D01*
X157994475Y-73849127D01*
X158169446Y-73921782D01*
X158440365Y-73922018D01*
X158616775Y-73849127D01*
X158791746Y-73921782D01*
X159062665Y-73922018D01*
X159239075Y-73849127D01*
X159414046Y-73921782D01*
X159684965Y-73922018D01*
X159861375Y-73849127D01*
X160036346Y-73921782D01*
X160307265Y-73922018D01*
X160557652Y-73818561D01*
X160749387Y-73627159D01*
X160853282Y-73376954D01*
X160853518Y-73106035D01*
X160780627Y-72929625D01*
X160853282Y-72754654D01*
X160853518Y-72483735D01*
X160780627Y-72307325D01*
X160853282Y-72132354D01*
X160853518Y-71861435D01*
X160780627Y-71685025D01*
X160853282Y-71510054D01*
X160853518Y-71239135D01*
X160750061Y-70988748D01*
X160558659Y-70797013D01*
X160308454Y-70693118D01*
X160037535Y-70692882D01*
X159861125Y-70765773D01*
X159686154Y-70693118D01*
X159415235Y-70692882D01*
X159238825Y-70765773D01*
X159063854Y-70693118D01*
X158792935Y-70692882D01*
X158616525Y-70765773D01*
X158441554Y-70693118D01*
X158170635Y-70692882D01*
X157920248Y-70796339D01*
X157728513Y-70987741D01*
X157624618Y-71237946D01*
X157624551Y-71315248D01*
X157548335Y-71315182D01*
X157371925Y-71388073D01*
X157196954Y-71315418D01*
X157119652Y-71315351D01*
X157119718Y-71239135D01*
X157016261Y-70988748D01*
X156824859Y-70797013D01*
X156574654Y-70693118D01*
X156303735Y-70692882D01*
X156127325Y-70765773D01*
X155952354Y-70693118D01*
X155681435Y-70692882D01*
X155505025Y-70765773D01*
X155330054Y-70693118D01*
X155059135Y-70692882D01*
X154808748Y-70796339D01*
X154617013Y-70987741D01*
X154513118Y-71237946D01*
X154512882Y-71508865D01*
X154585773Y-71685275D01*
X154513118Y-71860246D01*
X154512882Y-72131165D01*
X154585773Y-72307575D01*
X154513118Y-72482546D01*
X154512882Y-72753465D01*
X154585773Y-72929875D01*
X154570700Y-72966175D01*
X154170288Y-73366586D01*
X148915291Y-73366586D01*
X148915518Y-73106035D01*
X148842627Y-72929625D01*
X148915282Y-72754654D01*
X148915518Y-72483735D01*
X148842627Y-72307325D01*
X148915282Y-72132354D01*
X148915518Y-71861435D01*
X148842627Y-71685025D01*
X148915282Y-71510054D01*
X148915518Y-71239135D01*
X148812061Y-70988748D01*
X148620659Y-70797013D01*
X148370454Y-70693118D01*
X148099535Y-70692882D01*
X147923125Y-70765773D01*
X147748154Y-70693118D01*
X147477235Y-70692882D01*
X147300825Y-70765773D01*
X147125854Y-70693118D01*
X146854935Y-70692882D01*
X146678525Y-70765773D01*
X146503554Y-70693118D01*
X146232635Y-70692882D01*
X146056225Y-70765773D01*
X145881254Y-70693118D01*
X145610335Y-70692882D01*
X145359948Y-70796339D01*
X145168213Y-70987741D01*
X145064318Y-71237946D01*
X145064251Y-71315248D01*
X144988035Y-71315182D01*
X144811625Y-71388073D01*
X144636654Y-71315418D01*
X144559352Y-71315351D01*
X144559418Y-71239135D01*
X144455961Y-70988748D01*
X144264559Y-70797013D01*
X144014354Y-70693118D01*
X143743435Y-70692882D01*
X143567025Y-70765773D01*
X143392054Y-70693118D01*
X143121135Y-70692882D01*
X142870748Y-70796339D01*
X142679013Y-70987741D01*
X142575118Y-71237946D01*
X142574882Y-71508865D01*
X142647773Y-71685275D01*
X142575118Y-71860246D01*
X142574882Y-72131165D01*
X142647773Y-72307575D01*
X142575118Y-72482546D01*
X142574882Y-72753465D01*
X142678339Y-73003852D01*
X142869741Y-73195587D01*
X143119946Y-73299482D01*
X143197248Y-73299549D01*
X143197190Y-73366586D01*
X141142924Y-73366586D01*
X141143118Y-73144135D01*
X141039661Y-72893748D01*
X140848259Y-72702013D01*
X140598054Y-72598118D01*
X140327135Y-72597882D01*
X140076748Y-72701339D01*
X139885013Y-72892741D01*
X139781118Y-73142946D01*
X139780882Y-73413865D01*
X139884339Y-73664252D01*
X140073760Y-73854003D01*
X140068973Y-73865532D01*
X140068801Y-74063284D01*
X139822748Y-74164950D01*
X139631013Y-74356352D01*
X139527118Y-74606557D01*
X139526882Y-74877476D01*
X139608332Y-75074603D01*
X139504013Y-75178741D01*
X139400118Y-75428946D01*
X139399882Y-75699865D01*
X139503339Y-75950252D01*
X139694741Y-76141987D01*
X139944946Y-76245882D01*
X140215865Y-76246118D01*
X140466252Y-76142661D01*
X140657987Y-75951259D01*
X140761882Y-75701054D01*
X140762118Y-75430135D01*
X140680668Y-75233008D01*
X140784987Y-75128870D01*
X140888882Y-74878665D01*
X140889054Y-74680913D01*
X140996335Y-74636586D01*
X142262376Y-74636586D01*
X142262059Y-74636798D01*
X137259931Y-79638926D01*
X137149355Y-79684615D01*
X136957620Y-79876017D01*
X136853725Y-80126222D01*
X136853489Y-80397141D01*
X136956946Y-80647528D01*
X137148348Y-80839263D01*
X137260215Y-80885715D01*
X137260058Y-81065825D01*
X137363515Y-81316212D01*
X137458138Y-81411000D01*
X134782940Y-81411000D01*
X133858000Y-80486060D01*
X133858000Y-79126740D01*
X133930979Y-79303364D01*
X134122381Y-79495099D01*
X134372586Y-79598994D01*
X134643505Y-79599230D01*
X134893892Y-79495773D01*
X135085627Y-79304371D01*
X135189522Y-79054166D01*
X135189758Y-78783247D01*
X135086301Y-78532860D01*
X135067965Y-78514492D01*
X135166711Y-78276688D01*
X135166947Y-78005769D01*
X135063490Y-77755382D01*
X135056823Y-77748703D01*
X135160551Y-77498900D01*
X135160787Y-77227981D01*
X135057330Y-76977594D01*
X134865928Y-76785859D01*
X134794836Y-76756339D01*
X134985252Y-76677661D01*
X135176987Y-76486259D01*
X135280882Y-76236054D01*
X135281118Y-75965135D01*
X135177661Y-75714748D01*
X135163080Y-75700142D01*
X135176987Y-75686259D01*
X135280882Y-75436054D01*
X135281118Y-75165135D01*
X135198332Y-74964777D01*
X135276987Y-74886259D01*
X135380882Y-74636054D01*
X135381118Y-74365135D01*
X135277661Y-74114748D01*
X135086259Y-73923013D01*
X134981136Y-73879362D01*
X134985252Y-73877661D01*
X135176987Y-73686259D01*
X135280882Y-73436054D01*
X135281118Y-73165135D01*
X135177661Y-72914748D01*
X135039518Y-72776364D01*
X135108399Y-72610481D01*
X135108635Y-72339562D01*
X135025295Y-72137862D01*
X135076987Y-72086259D01*
X135180882Y-71836054D01*
X135180945Y-71762865D01*
X139272882Y-71762865D01*
X139376339Y-72013252D01*
X139567741Y-72204987D01*
X139817946Y-72308882D01*
X140088865Y-72309118D01*
X140339252Y-72205661D01*
X140530987Y-72014259D01*
X140632437Y-71769943D01*
X140706946Y-71800882D01*
X140977865Y-71801118D01*
X141228252Y-71697661D01*
X141419987Y-71506259D01*
X141523882Y-71256054D01*
X141524118Y-70985135D01*
X141420661Y-70734748D01*
X141229259Y-70543013D01*
X140979054Y-70439118D01*
X140708135Y-70438882D01*
X140457748Y-70542339D01*
X140266013Y-70733741D01*
X140164563Y-70978057D01*
X140090054Y-70947118D01*
X139819135Y-70946882D01*
X139568748Y-71050339D01*
X139377013Y-71241741D01*
X139273118Y-71491946D01*
X139272882Y-71762865D01*
X135180945Y-71762865D01*
X135181118Y-71565135D01*
X135146777Y-71482022D01*
X135290665Y-71338383D01*
X135394560Y-71088178D01*
X135394796Y-70817259D01*
X135291339Y-70566872D01*
X135099937Y-70375137D01*
X134849732Y-70271242D01*
X134578813Y-70271006D01*
X134328426Y-70374463D01*
X134136691Y-70565865D01*
X134032796Y-70816070D01*
X134032560Y-71086989D01*
X134066901Y-71170102D01*
X133923013Y-71313741D01*
X133858000Y-71470308D01*
X133858000Y-69710236D01*
X134359618Y-69208618D01*
X134552329Y-68920205D01*
X134620000Y-68580000D01*
X134552329Y-68239795D01*
X134359618Y-67951382D01*
X134071205Y-67758671D01*
X133770541Y-67698865D01*
X143209882Y-67698865D01*
X143313339Y-67949252D01*
X143504741Y-68140987D01*
X143754946Y-68244882D01*
X144025865Y-68245118D01*
X144276252Y-68141661D01*
X144467987Y-67950259D01*
X144519640Y-67825865D01*
X155147882Y-67825865D01*
X155251339Y-68076252D01*
X155442741Y-68267987D01*
X155692946Y-68371882D01*
X155963865Y-68372118D01*
X156214252Y-68268661D01*
X156405987Y-68077259D01*
X156509882Y-67827054D01*
X156510002Y-67688963D01*
X158499891Y-67688963D01*
X158595752Y-67920966D01*
X158773101Y-68098624D01*
X159004936Y-68194890D01*
X159255963Y-68195109D01*
X159487966Y-68099248D01*
X159665624Y-67921899D01*
X159761890Y-67690064D01*
X159762109Y-67439037D01*
X159666248Y-67207034D01*
X159488899Y-67029376D01*
X159257064Y-66933110D01*
X159006037Y-66932891D01*
X158774034Y-67028752D01*
X158596376Y-67206101D01*
X158500110Y-67437936D01*
X158499891Y-67688963D01*
X156510002Y-67688963D01*
X156510118Y-67556135D01*
X156406661Y-67305748D01*
X156215259Y-67114013D01*
X155965054Y-67010118D01*
X155694135Y-67009882D01*
X155443748Y-67113339D01*
X155252013Y-67304741D01*
X155148118Y-67554946D01*
X155147882Y-67825865D01*
X144519640Y-67825865D01*
X144571882Y-67700054D01*
X144572118Y-67429135D01*
X144468661Y-67178748D01*
X144277259Y-66987013D01*
X144027054Y-66883118D01*
X143756135Y-66882882D01*
X143505748Y-66986339D01*
X143314013Y-67177741D01*
X143210118Y-67427946D01*
X143209882Y-67698865D01*
X133770541Y-67698865D01*
X133731000Y-67691000D01*
X133390795Y-67758671D01*
X133102382Y-67951382D01*
X132340382Y-68713382D01*
X132147671Y-69001794D01*
X132080000Y-69342000D01*
X132080000Y-73743839D01*
X130348889Y-72012728D01*
X130349005Y-71879361D01*
X130245548Y-71628974D01*
X130066319Y-71449433D01*
X130093882Y-71383054D01*
X130094118Y-71112135D01*
X129990661Y-70861748D01*
X129881370Y-70752267D01*
X130052252Y-70681661D01*
X130243987Y-70490259D01*
X130347882Y-70240054D01*
X130348118Y-69969135D01*
X130244661Y-69718748D01*
X130053259Y-69527013D01*
X129850172Y-69442683D01*
X129925252Y-69411661D01*
X130116987Y-69220259D01*
X130220882Y-68970054D01*
X130221118Y-68699135D01*
X130117661Y-68448748D01*
X129926259Y-68257013D01*
X129676054Y-68153118D01*
X129405135Y-68152882D01*
X129154748Y-68256339D01*
X128963013Y-68447741D01*
X128859118Y-68697946D01*
X128858882Y-68968865D01*
X128962339Y-69219252D01*
X129153741Y-69410987D01*
X129356828Y-69495317D01*
X129281748Y-69526339D01*
X129090013Y-69717741D01*
X128986118Y-69967946D01*
X128985882Y-70238865D01*
X129089339Y-70489252D01*
X129198630Y-70598733D01*
X129027748Y-70669339D01*
X128836013Y-70860741D01*
X128732118Y-71110946D01*
X128731882Y-71381865D01*
X128835339Y-71632252D01*
X129014568Y-71811793D01*
X128987005Y-71878172D01*
X128986769Y-72149091D01*
X129090226Y-72399478D01*
X129146253Y-72455603D01*
X129090013Y-72511745D01*
X128986118Y-72761950D01*
X128985882Y-73032869D01*
X129089339Y-73283256D01*
X129280741Y-73474991D01*
X129481611Y-73558400D01*
X127945065Y-73558400D01*
X127535057Y-73148392D01*
X127535173Y-73015025D01*
X127431716Y-72764638D01*
X127240314Y-72572903D01*
X126990109Y-72469008D01*
X126719190Y-72468772D01*
X126468803Y-72572229D01*
X126277068Y-72763631D01*
X126173173Y-73013836D01*
X126172937Y-73284755D01*
X126276394Y-73535142D01*
X126467796Y-73726877D01*
X126718001Y-73830772D01*
X126852554Y-73830889D01*
X127403915Y-74382250D01*
X127560482Y-74486864D01*
X127745165Y-74523600D01*
X129035871Y-74523600D01*
X129019118Y-74563946D01*
X129018882Y-74834865D01*
X129122339Y-75085252D01*
X129178199Y-75141209D01*
X129082242Y-75236999D01*
X128978347Y-75487204D01*
X128978111Y-75758123D01*
X129081568Y-76008510D01*
X129112372Y-76039367D01*
X129019118Y-76263946D01*
X129018882Y-76534865D01*
X129080794Y-76684704D01*
X128943603Y-76821656D01*
X128839708Y-77071861D01*
X128839472Y-77342780D01*
X128942929Y-77593167D01*
X129134331Y-77784902D01*
X129384536Y-77888797D01*
X129655455Y-77889033D01*
X129905842Y-77785576D01*
X130097577Y-77594174D01*
X130201472Y-77343969D01*
X130201708Y-77073050D01*
X130139796Y-76923211D01*
X130276987Y-76786259D01*
X130327367Y-76664931D01*
X130327367Y-83416867D01*
X129205002Y-82294502D01*
X129205118Y-82161135D01*
X129101661Y-81910748D01*
X128910259Y-81719013D01*
X128660054Y-81615118D01*
X128389135Y-81614882D01*
X128138748Y-81718339D01*
X127947013Y-81909741D01*
X127843118Y-82159946D01*
X127842882Y-82430865D01*
X127946339Y-82681252D01*
X128137741Y-82872987D01*
X128387946Y-82976882D01*
X128522499Y-82976999D01*
X129946357Y-84400857D01*
X129946357Y-84968374D01*
X129731589Y-84879194D01*
X129727502Y-84879190D01*
X129727644Y-84715661D01*
X129624187Y-84465274D01*
X129432785Y-84273539D01*
X129182580Y-84169644D01*
X129048027Y-84169527D01*
X127976250Y-83097750D01*
X127819683Y-82993136D01*
X127635000Y-82956400D01*
X125984000Y-82956400D01*
X125799317Y-82993136D01*
X125642750Y-83097750D01*
X124164749Y-84575751D01*
X124060135Y-84732318D01*
X124023399Y-84917001D01*
X124023399Y-85571606D01*
X123820748Y-85655339D01*
X123629013Y-85846741D01*
X123525118Y-86096946D01*
X123524882Y-86367865D01*
X123628339Y-86618252D01*
X123819741Y-86809987D01*
X124069946Y-86913882D01*
X124340865Y-86914118D01*
X124591252Y-86810661D01*
X124728576Y-86673575D01*
X125163305Y-86673575D01*
X125266762Y-86923962D01*
X125458164Y-87115697D01*
X125708369Y-87219592D01*
X125979288Y-87219828D01*
X126229675Y-87116371D01*
X126258027Y-87088068D01*
X126247697Y-87112946D01*
X126247461Y-87383865D01*
X126350918Y-87634252D01*
X126542320Y-87825987D01*
X126792525Y-87929882D01*
X127063444Y-87930118D01*
X127313831Y-87826661D01*
X127505566Y-87635259D01*
X127609461Y-87385054D01*
X127609697Y-87114135D01*
X127506240Y-86863748D01*
X127314838Y-86672013D01*
X127286508Y-86660249D01*
X127301472Y-86624211D01*
X127301708Y-86353292D01*
X127198251Y-86102905D01*
X127006849Y-85911170D01*
X126756644Y-85807275D01*
X126485725Y-85807039D01*
X126235338Y-85910496D01*
X126197729Y-85948040D01*
X125980477Y-85857828D01*
X125709558Y-85857592D01*
X125459171Y-85961049D01*
X125267436Y-86152451D01*
X125163541Y-86402656D01*
X125163305Y-86673575D01*
X124728576Y-86673575D01*
X124782987Y-86619259D01*
X124886882Y-86369054D01*
X124887016Y-86214734D01*
X124951863Y-86117684D01*
X124958806Y-86082780D01*
X124988600Y-85933001D01*
X124988599Y-85932996D01*
X124988599Y-85116901D01*
X126183900Y-83921600D01*
X127435100Y-83921600D01*
X128365524Y-84852024D01*
X128365408Y-84985391D01*
X128414505Y-85104215D01*
X128229568Y-85180629D01*
X128037833Y-85372031D01*
X127933938Y-85622236D01*
X127933702Y-85893155D01*
X128037159Y-86143542D01*
X128228561Y-86335277D01*
X128478766Y-86439172D01*
X128749685Y-86439408D01*
X129000072Y-86335951D01*
X129191807Y-86144549D01*
X129199134Y-86126903D01*
X129209276Y-86137063D01*
X129459481Y-86240958D01*
X129730400Y-86241194D01*
X129946357Y-86151963D01*
X129946357Y-89681006D01*
X129877661Y-89514748D01*
X129686259Y-89323013D01*
X129436054Y-89219118D01*
X129165135Y-89218882D01*
X128914748Y-89322339D01*
X128723013Y-89513741D01*
X128619118Y-89763946D01*
X128618882Y-90034865D01*
X128722339Y-90285252D01*
X128913741Y-90476987D01*
X129163946Y-90580882D01*
X129434865Y-90581118D01*
X129685252Y-90477661D01*
X129876987Y-90286259D01*
X129946357Y-90119199D01*
X129946357Y-91185957D01*
X129946400Y-91186173D01*
X129946400Y-91371494D01*
X129983136Y-91556177D01*
X130087750Y-91712744D01*
X131745406Y-93370400D01*
X129917515Y-93370400D01*
X122673809Y-86126693D01*
X122778455Y-86083454D01*
X122970190Y-85892052D01*
X123074085Y-85641847D01*
X123074321Y-85370928D01*
X122970864Y-85120541D01*
X122779462Y-84928806D01*
X122529257Y-84824911D01*
X122258338Y-84824675D01*
X122007951Y-84928132D01*
X121816216Y-85119534D01*
X121772332Y-85225216D01*
X121640611Y-85093495D01*
X121640611Y-78279045D01*
X125458488Y-78279045D01*
X125561945Y-78529432D01*
X125753347Y-78721167D01*
X126003552Y-78825062D01*
X126274471Y-78825298D01*
X126524858Y-78721841D01*
X126709480Y-78537540D01*
X126729527Y-78545864D01*
X127000446Y-78546100D01*
X127250833Y-78442643D01*
X127442568Y-78251241D01*
X127546463Y-78001036D01*
X127546699Y-77730117D01*
X127443242Y-77479730D01*
X127317484Y-77353753D01*
X127322987Y-77348259D01*
X127426882Y-77098054D01*
X127427118Y-76827135D01*
X127323661Y-76576748D01*
X127132259Y-76385013D01*
X126882054Y-76281118D01*
X126611135Y-76280882D01*
X126360748Y-76384339D01*
X126169013Y-76575741D01*
X126065118Y-76825946D01*
X126064882Y-77096865D01*
X126168339Y-77347252D01*
X126290218Y-77469343D01*
X126275660Y-77463298D01*
X126004741Y-77463062D01*
X125754354Y-77566519D01*
X125562619Y-77757921D01*
X125458724Y-78008126D01*
X125458488Y-78279045D01*
X121640611Y-78279045D01*
X121640611Y-77731873D01*
X122056472Y-77731873D01*
X122159929Y-77982260D01*
X122351331Y-78173995D01*
X122601536Y-78277890D01*
X122872455Y-78278126D01*
X123122842Y-78174669D01*
X123314577Y-77983267D01*
X123418472Y-77733062D01*
X123418708Y-77462143D01*
X123315251Y-77211756D01*
X123123849Y-77020021D01*
X122873644Y-76916126D01*
X122602725Y-76915890D01*
X122352338Y-77019347D01*
X122160603Y-77210749D01*
X122056708Y-77460954D01*
X122056472Y-77731873D01*
X121640611Y-77731873D01*
X121640611Y-74367889D01*
X128779490Y-67229010D01*
X138711518Y-67229010D01*
X138805741Y-67323397D01*
X139055946Y-67427292D01*
X139326865Y-67427528D01*
X139577252Y-67324071D01*
X139768987Y-67132669D01*
X139872882Y-66882464D01*
X139873118Y-66611545D01*
X139769661Y-66361158D01*
X139578259Y-66169423D01*
X139328054Y-66065528D01*
X139057135Y-66065292D01*
X138806748Y-66168749D01*
X138711522Y-66263810D01*
X138073081Y-66263810D01*
X138233683Y-66231864D01*
X138390250Y-66127250D01*
X140788899Y-63728600D01*
X164338006Y-63728600D01*
X164522689Y-63691864D01*
X164679256Y-63587250D01*
X166167455Y-62099051D01*
X166240963Y-62099115D01*
X166472966Y-62003254D01*
X166650624Y-61825905D01*
X166746890Y-61594070D01*
X166747109Y-61343043D01*
X166651248Y-61111040D01*
X166473899Y-60933382D01*
X166242064Y-60837116D01*
X165991037Y-60836897D01*
X165759034Y-60932758D01*
X165581376Y-61110107D01*
X165559687Y-61162341D01*
X165457899Y-61060376D01*
X165226064Y-60964110D01*
X164975037Y-60963891D01*
X164743034Y-61059752D01*
X164565376Y-61237101D01*
X164469110Y-61468936D01*
X164469045Y-61543456D01*
X163630111Y-62382389D01*
X153410663Y-62382389D01*
X153630247Y-62162805D01*
X153630250Y-62162803D01*
X153734864Y-62006236D01*
X153757632Y-61891777D01*
X153823624Y-61825899D01*
X153919890Y-61594064D01*
X153920109Y-61343037D01*
X153824248Y-61111034D01*
X153646899Y-60933376D01*
X153415064Y-60837110D01*
X153164037Y-60836891D01*
X152932034Y-60932752D01*
X152827898Y-61036707D01*
X152653064Y-60964110D01*
X152402037Y-60963891D01*
X152170034Y-61059752D01*
X152117294Y-61112400D01*
X137287000Y-61112400D01*
X137102317Y-61149136D01*
X136945750Y-61253750D01*
X136045439Y-62154061D01*
X136062882Y-62112054D01*
X136063118Y-61841135D01*
X135959661Y-61590748D01*
X135768259Y-61399013D01*
X135518054Y-61295118D01*
X135247135Y-61294882D01*
X134996748Y-61398339D01*
X134805013Y-61589741D01*
X134758700Y-61701274D01*
X133978209Y-62481765D01*
X129620565Y-62481765D01*
X130151730Y-61950600D01*
X131091518Y-61950600D01*
X131185741Y-62044987D01*
X131435946Y-62148882D01*
X131706865Y-62149118D01*
X131957252Y-62045661D01*
X132148987Y-61854259D01*
X132252882Y-61604054D01*
X132253118Y-61333135D01*
X132149661Y-61082748D01*
X131958259Y-60891013D01*
X131708054Y-60787118D01*
X131437135Y-60786882D01*
X131186748Y-60890339D01*
X131091522Y-60985400D01*
X129951830Y-60985400D01*
X129767147Y-61022136D01*
X129610580Y-61126750D01*
X128625600Y-62111730D01*
X128625600Y-60932482D01*
X128719987Y-60838259D01*
X128823882Y-60588054D01*
X128824118Y-60317135D01*
X128720661Y-60066748D01*
X128529259Y-59875013D01*
X128279054Y-59771118D01*
X128008135Y-59770882D01*
X127757748Y-59874339D01*
X127566013Y-60065741D01*
X127462118Y-60315946D01*
X127461882Y-60586865D01*
X127565339Y-60837252D01*
X127660400Y-60932478D01*
X127660400Y-62538100D01*
X124499750Y-65698750D01*
X124395136Y-65855317D01*
X124358400Y-66040000D01*
X124358400Y-66983101D01*
X122456439Y-68885062D01*
X122473882Y-68843054D01*
X122474118Y-68572135D01*
X122370661Y-68321748D01*
X122179259Y-68130013D01*
X121929054Y-68026118D01*
X121658135Y-68025882D01*
X121407748Y-68129339D01*
X121216013Y-68320741D01*
X121112118Y-68570946D01*
X121111882Y-68841865D01*
X121215339Y-69092252D01*
X121406741Y-69283987D01*
X121656946Y-69387882D01*
X121927865Y-69388118D01*
X121971350Y-69370151D01*
X120562761Y-70778739D01*
X120562728Y-70778761D01*
X120497578Y-70843911D01*
X120497578Y-70709773D01*
X120497579Y-70709768D01*
X120460842Y-70525085D01*
X120356228Y-70368518D01*
X119184307Y-69196597D01*
X119237739Y-68927980D01*
X119163107Y-68552782D01*
X118950575Y-68234704D01*
X118632497Y-68022172D01*
X118257299Y-67947540D01*
X117708701Y-67947540D01*
X117585187Y-67972109D01*
X117660069Y-67897227D01*
X117708701Y-67906900D01*
X118257299Y-67906900D01*
X118632497Y-67832268D01*
X118950575Y-67619736D01*
X119163107Y-67301658D01*
X119237739Y-66926460D01*
X119163107Y-66551262D01*
X118950575Y-66233184D01*
X118863295Y-66174865D01*
X120984882Y-66174865D01*
X121088339Y-66425252D01*
X121279741Y-66616987D01*
X121529946Y-66720882D01*
X121800865Y-66721118D01*
X122051252Y-66617661D01*
X122242987Y-66426259D01*
X122346882Y-66176054D01*
X122347118Y-65905135D01*
X122243661Y-65654748D01*
X122148600Y-65559522D01*
X122148600Y-61794900D01*
X125859540Y-58083960D01*
X125859540Y-58166002D01*
X126018288Y-58166002D01*
X125859540Y-58324750D01*
X125859540Y-59014940D01*
X125956213Y-59248329D01*
X126134842Y-59426957D01*
X126368231Y-59523630D01*
X126808230Y-59523630D01*
X126966980Y-59364880D01*
X126966980Y-58166000D01*
X126946980Y-58166000D01*
X126946980Y-57912000D01*
X126966980Y-57912000D01*
X126966980Y-57892000D01*
X127220980Y-57892000D01*
X127220980Y-57912000D01*
X127240980Y-57912000D01*
X127240980Y-58166000D01*
X127220980Y-58166000D01*
X127220980Y-59364880D01*
X127379730Y-59523630D01*
X127819729Y-59523630D01*
X128053118Y-59426957D01*
X128231747Y-59248329D01*
X128328420Y-59014940D01*
X128328420Y-58896119D01*
X128402224Y-59006575D01*
X128720302Y-59219107D01*
X129095500Y-59293739D01*
X129470698Y-59219107D01*
X129788776Y-59006575D01*
X130001308Y-58688497D01*
X130075940Y-58313299D01*
X130075940Y-57764701D01*
X130116580Y-57764701D01*
X130116580Y-58313299D01*
X130191212Y-58688497D01*
X130403744Y-59006575D01*
X130721822Y-59219107D01*
X131097020Y-59293739D01*
X131472218Y-59219107D01*
X131790296Y-59006575D01*
X132002828Y-58688497D01*
X132077460Y-58313299D01*
X132077460Y-57764701D01*
X132002828Y-57389503D01*
X131790296Y-57071425D01*
X131472218Y-56858893D01*
X131097020Y-56784261D01*
X130721822Y-56858893D01*
X130403744Y-57071425D01*
X130191212Y-57389503D01*
X130116580Y-57764701D01*
X130075940Y-57764701D01*
X130001308Y-57389503D01*
X129788776Y-57071425D01*
X129470698Y-56858893D01*
X129095500Y-56784261D01*
X128720302Y-56858893D01*
X128402224Y-57071425D01*
X128328420Y-57181881D01*
X128328420Y-57063060D01*
X128231747Y-56829671D01*
X128053118Y-56651043D01*
X127969965Y-56616600D01*
X134045450Y-56616600D01*
X134461811Y-57032960D01*
X134404244Y-57071425D01*
X134191712Y-57389503D01*
X134117080Y-57764701D01*
X134117080Y-58313299D01*
X134129157Y-58374014D01*
X134064374Y-58373958D01*
X134076440Y-58313299D01*
X134076440Y-57764701D01*
X134001808Y-57389503D01*
X133789276Y-57071425D01*
X133471198Y-56858893D01*
X133096000Y-56784261D01*
X132720802Y-56858893D01*
X132402724Y-57071425D01*
X132190192Y-57389503D01*
X132115560Y-57764701D01*
X132115560Y-58313299D01*
X132190192Y-58688497D01*
X132402724Y-59006575D01*
X132720802Y-59219107D01*
X133096000Y-59293739D01*
X133445112Y-59224296D01*
X133534343Y-59440252D01*
X133725745Y-59631987D01*
X133975950Y-59735882D01*
X134246869Y-59736118D01*
X134497256Y-59632661D01*
X134688991Y-59441259D01*
X134776742Y-59229932D01*
X135097520Y-59293739D01*
X135472718Y-59219107D01*
X135790796Y-59006575D01*
X136003328Y-58688497D01*
X136077960Y-58313299D01*
X136077960Y-57764701D01*
X136118600Y-57764701D01*
X136118600Y-58313299D01*
X136193232Y-58688497D01*
X136405764Y-59006575D01*
X136723842Y-59219107D01*
X137099040Y-59293739D01*
X137474238Y-59219107D01*
X137792316Y-59006575D01*
X138004848Y-58688497D01*
X138079480Y-58313299D01*
X138079480Y-57764701D01*
X138004848Y-57389503D01*
X137792316Y-57071425D01*
X137474238Y-56858893D01*
X137099040Y-56784261D01*
X136723842Y-56858893D01*
X136405764Y-57071425D01*
X136193232Y-57389503D01*
X136118600Y-57764701D01*
X136077960Y-57764701D01*
X136003328Y-57389503D01*
X135790796Y-57071425D01*
X135567385Y-56922147D01*
X135543384Y-56801487D01*
X135438770Y-56644920D01*
X135438767Y-56644918D01*
X134586600Y-55792750D01*
X134430033Y-55688136D01*
X134245350Y-55651400D01*
X127127000Y-55651400D01*
X126942317Y-55688136D01*
X126785750Y-55792750D01*
X121324750Y-61253750D01*
X121220136Y-61410317D01*
X121183400Y-61595000D01*
X121183400Y-65559518D01*
X121089013Y-65653741D01*
X120985118Y-65903946D01*
X120984882Y-66174865D01*
X118863295Y-66174865D01*
X118632497Y-66020652D01*
X118465600Y-65987454D01*
X118465600Y-65858900D01*
X120016498Y-64308002D01*
X120149865Y-64308118D01*
X120400252Y-64204661D01*
X120591987Y-64013259D01*
X120695882Y-63763054D01*
X120696118Y-63492135D01*
X120592661Y-63241748D01*
X120401259Y-63050013D01*
X120151054Y-62946118D01*
X119880135Y-62945882D01*
X119629748Y-63049339D01*
X119438013Y-63240741D01*
X119334118Y-63490946D01*
X119334001Y-63625499D01*
X117641750Y-65317750D01*
X117537136Y-65474317D01*
X117500400Y-65659000D01*
X117500400Y-65987454D01*
X117333503Y-66020652D01*
X117015425Y-66233184D01*
X116802893Y-66551262D01*
X116728261Y-66926460D01*
X116745934Y-67015310D01*
X115755987Y-68005257D01*
X115618336Y-68211266D01*
X115570000Y-68454270D01*
X115570000Y-89916390D01*
X115618336Y-90159394D01*
X115755987Y-90365403D01*
X116766234Y-91375650D01*
X116748561Y-91464500D01*
X116823193Y-91839698D01*
X117035725Y-92157776D01*
X117353803Y-92370308D01*
X117729001Y-92444940D01*
X118277599Y-92444940D01*
X118652797Y-92370308D01*
X118970875Y-92157776D01*
X119183407Y-91839698D01*
X119258039Y-91464500D01*
X119183407Y-91089302D01*
X118970875Y-90771224D01*
X118721750Y-90604765D01*
X118796743Y-90585259D01*
X119184868Y-90291937D01*
X119431199Y-89872413D01*
X119446395Y-89780501D01*
X119321657Y-89589980D01*
X118130300Y-89589980D01*
X118130300Y-89609980D01*
X117876300Y-89609980D01*
X117876300Y-89589980D01*
X117856300Y-89589980D01*
X117856300Y-89335980D01*
X117876300Y-89335980D01*
X117876300Y-89315980D01*
X118130300Y-89315980D01*
X118130300Y-89335980D01*
X119321657Y-89335980D01*
X119446395Y-89145459D01*
X119431199Y-89053547D01*
X119184868Y-88634023D01*
X118796743Y-88340701D01*
X118724487Y-88321907D01*
X118970875Y-88157276D01*
X119183407Y-87839198D01*
X119258039Y-87464000D01*
X119183407Y-87088802D01*
X118970875Y-86770724D01*
X118652797Y-86558192D01*
X118277599Y-86483560D01*
X117729001Y-86483560D01*
X117353803Y-86558192D01*
X117035725Y-86770724D01*
X116840000Y-87063648D01*
X116840000Y-85860292D01*
X117035725Y-86153216D01*
X117353803Y-86365748D01*
X117729001Y-86440380D01*
X118277599Y-86440380D01*
X118652797Y-86365748D01*
X118970875Y-86153216D01*
X119151367Y-85883089D01*
X119151367Y-85924671D01*
X119188103Y-86109354D01*
X119292717Y-86265921D01*
X121834938Y-88808142D01*
X121651908Y-88990854D01*
X121548013Y-89241059D01*
X121547777Y-89511978D01*
X121651234Y-89762365D01*
X121817431Y-89928851D01*
X121782810Y-90012228D01*
X121782574Y-90283147D01*
X121886031Y-90533534D01*
X121928605Y-90576183D01*
X121902135Y-90602607D01*
X121798240Y-90852812D01*
X121798004Y-91123731D01*
X121901461Y-91374118D01*
X121914102Y-91386781D01*
X121812906Y-91630486D01*
X121812670Y-91901405D01*
X121916127Y-92151792D01*
X121973015Y-92208779D01*
X121874118Y-92446946D01*
X121873882Y-92717865D01*
X121977339Y-92968252D01*
X122168741Y-93159987D01*
X122418946Y-93263882D01*
X122689865Y-93264118D01*
X122940252Y-93160661D01*
X123002155Y-93098865D01*
X123397882Y-93098865D01*
X123501339Y-93349252D01*
X123692741Y-93540987D01*
X123942946Y-93644882D01*
X124213865Y-93645118D01*
X124464252Y-93541661D01*
X124655987Y-93350259D01*
X124759882Y-93100054D01*
X124760118Y-92829135D01*
X124656661Y-92578748D01*
X124465259Y-92387013D01*
X124215054Y-92283118D01*
X123944135Y-92282882D01*
X123693748Y-92386339D01*
X123502013Y-92577741D01*
X123398118Y-92827946D01*
X123397882Y-93098865D01*
X123002155Y-93098865D01*
X123131987Y-92969259D01*
X123235882Y-92719054D01*
X123236118Y-92448135D01*
X123132661Y-92197748D01*
X123075773Y-92140761D01*
X123174670Y-91902594D01*
X123174906Y-91631675D01*
X123071449Y-91381288D01*
X123058808Y-91368625D01*
X123160004Y-91124920D01*
X123160240Y-90854001D01*
X123056783Y-90603614D01*
X123014209Y-90560965D01*
X123040679Y-90534541D01*
X123144574Y-90284336D01*
X123144719Y-90117922D01*
X125247400Y-92220603D01*
X125247400Y-96221556D01*
X125284136Y-96406239D01*
X125388750Y-96562806D01*
X126387344Y-97561400D01*
X122960453Y-97561400D01*
X122775770Y-97598136D01*
X122619203Y-97702750D01*
X122065092Y-98256861D01*
X121931725Y-98256745D01*
X121681338Y-98360202D01*
X121489603Y-98551604D01*
X121385708Y-98801809D01*
X121385472Y-99072728D01*
X121488929Y-99323115D01*
X121680331Y-99514850D01*
X121930536Y-99618745D01*
X122201455Y-99618981D01*
X122451842Y-99515524D01*
X122643577Y-99324122D01*
X122671190Y-99257624D01*
X122699531Y-99326216D01*
X122890933Y-99517951D01*
X123141138Y-99621846D01*
X123412057Y-99622082D01*
X123662444Y-99518625D01*
X123682048Y-99499055D01*
X123819741Y-99636987D01*
X124069946Y-99740882D01*
X124340865Y-99741118D01*
X124591252Y-99637661D01*
X124686478Y-99542600D01*
X127197676Y-99542600D01*
X127148713Y-99660516D01*
X127148477Y-99931435D01*
X127251934Y-100181822D01*
X127443336Y-100373557D01*
X127693541Y-100477452D01*
X127964460Y-100477688D01*
X128206038Y-100377871D01*
X128244288Y-100470443D01*
X128435690Y-100662178D01*
X128685895Y-100766073D01*
X128956814Y-100766309D01*
X129207201Y-100662852D01*
X129376082Y-100494265D01*
X129407749Y-100525987D01*
X129657954Y-100629882D01*
X129928873Y-100630118D01*
X130071333Y-100571255D01*
X130171755Y-100671852D01*
X130421960Y-100775747D01*
X130692879Y-100775983D01*
X130943266Y-100672526D01*
X131135001Y-100481124D01*
X131135470Y-100479995D01*
X131180512Y-100525116D01*
X131430717Y-100629011D01*
X131701636Y-100629247D01*
X131952023Y-100525790D01*
X132143758Y-100334388D01*
X132247653Y-100084183D01*
X132247889Y-99813264D01*
X132144432Y-99562877D01*
X132124190Y-99542600D01*
X133974494Y-99542600D01*
X135103153Y-100671260D01*
X135259720Y-100775874D01*
X135444403Y-100812611D01*
X135444408Y-100812610D01*
X137162037Y-100812610D01*
X137114702Y-100926604D01*
X137114585Y-101061157D01*
X135534342Y-102641400D01*
X134421574Y-102641400D01*
X134576987Y-102486257D01*
X134680882Y-102236052D01*
X134681118Y-101965133D01*
X134577661Y-101714746D01*
X134386259Y-101523011D01*
X134136054Y-101419116D01*
X133865135Y-101418880D01*
X133614748Y-101522337D01*
X133423013Y-101713739D01*
X133319118Y-101963944D01*
X133319001Y-102098497D01*
X133200098Y-102217400D01*
X132880898Y-102217400D01*
X132881118Y-101965135D01*
X132777661Y-101714748D01*
X132586259Y-101523013D01*
X132336054Y-101419118D01*
X132065135Y-101418882D01*
X131814748Y-101522339D01*
X131623013Y-101713741D01*
X131519118Y-101963946D01*
X131518897Y-102217400D01*
X121695900Y-102217400D01*
X121214694Y-101736194D01*
X121214694Y-98352306D01*
X123286449Y-96280551D01*
X123826528Y-96280551D01*
X123929985Y-96530938D01*
X124121387Y-96722673D01*
X124371592Y-96826568D01*
X124642511Y-96826804D01*
X124892898Y-96723347D01*
X125084633Y-96531945D01*
X125188528Y-96281740D01*
X125188764Y-96010821D01*
X125085307Y-95760434D01*
X124893905Y-95568699D01*
X124643700Y-95464804D01*
X124372781Y-95464568D01*
X124122394Y-95568025D01*
X123930659Y-95759427D01*
X123826764Y-96009632D01*
X123826528Y-96280551D01*
X123286449Y-96280551D01*
X124207498Y-95359502D01*
X124340865Y-95359618D01*
X124591252Y-95256161D01*
X124782987Y-95064759D01*
X124886882Y-94814554D01*
X124887118Y-94543635D01*
X124783661Y-94293248D01*
X124592259Y-94101513D01*
X124342054Y-93997618D01*
X124071135Y-93997382D01*
X123873790Y-94078923D01*
X123831161Y-93975752D01*
X123639759Y-93784017D01*
X123389554Y-93680122D01*
X123118635Y-93679886D01*
X122868248Y-93783343D01*
X122676513Y-93974745D01*
X122572618Y-94224950D01*
X122572501Y-94359504D01*
X119800750Y-97131254D01*
X119696136Y-97287821D01*
X119659400Y-97472504D01*
X119659400Y-100597639D01*
X119516054Y-100538116D01*
X119245135Y-100537880D01*
X118994748Y-100641337D01*
X118803013Y-100832739D01*
X118699118Y-101082944D01*
X118699086Y-101119685D01*
X118632497Y-101075192D01*
X118257299Y-101000560D01*
X117708701Y-101000560D01*
X117333503Y-101075192D01*
X117015425Y-101287724D01*
X116802893Y-101605802D01*
X116728261Y-101981000D01*
X116802893Y-102356198D01*
X117015425Y-102674276D01*
X117333503Y-102886808D01*
X117708701Y-102961440D01*
X118257299Y-102961440D01*
X118632497Y-102886808D01*
X118950575Y-102674276D01*
X119163107Y-102356198D01*
X119237739Y-101981000D01*
X119219592Y-101889767D01*
X119243946Y-101899880D01*
X119514865Y-101900116D01*
X119659400Y-101840396D01*
X119659400Y-102235000D01*
X119696136Y-102419683D01*
X119800750Y-102576250D01*
X120689750Y-103465250D01*
X120846317Y-103569864D01*
X121031000Y-103606600D01*
X135734242Y-103606600D01*
X135918925Y-103569864D01*
X136075492Y-103465250D01*
X137797082Y-101743660D01*
X137930449Y-101743776D01*
X138180836Y-101640319D01*
X138372571Y-101448917D01*
X138448934Y-101265017D01*
X138564869Y-101265118D01*
X138815256Y-101161661D01*
X139006991Y-100970259D01*
X139110886Y-100720054D01*
X139111122Y-100449135D01*
X139007665Y-100198748D01*
X138816263Y-100007013D01*
X138805114Y-100002384D01*
X138812498Y-99995000D01*
X138945865Y-99995116D01*
X139196252Y-99891659D01*
X139387987Y-99700257D01*
X139491882Y-99450052D01*
X139492118Y-99179133D01*
X139388661Y-98928746D01*
X139197259Y-98737011D01*
X138947054Y-98633116D01*
X138926337Y-98633098D01*
X139007738Y-98437064D01*
X139007974Y-98166145D01*
X138904517Y-97915758D01*
X138776055Y-97787072D01*
X138870479Y-97692812D01*
X138974374Y-97442607D01*
X138974610Y-97171688D01*
X138929109Y-97061567D01*
X139051282Y-97037265D01*
X139207849Y-96932651D01*
X139492756Y-96647743D01*
X139492759Y-96647741D01*
X139544000Y-96571053D01*
X139544000Y-114544000D01*
X127254920Y-114544000D01*
X127538196Y-114204813D01*
X127677000Y-113761000D01*
X127677000Y-113411000D01*
X126619000Y-113411000D01*
X126619000Y-113431000D01*
X126365000Y-113431000D01*
X126365000Y-113411000D01*
X125307000Y-113411000D01*
X125307000Y-113761000D01*
X125445804Y-114204813D01*
X125729080Y-114544000D01*
X117044911Y-114544000D01*
X116412555Y-114418216D01*
X115914544Y-114085456D01*
X115581784Y-113587445D01*
X115497728Y-113164865D01*
X137621882Y-113164865D01*
X137725339Y-113415252D01*
X137916741Y-113606987D01*
X138166946Y-113710882D01*
X138437865Y-113711118D01*
X138688252Y-113607661D01*
X138879987Y-113416259D01*
X138983882Y-113166054D01*
X138984118Y-112895135D01*
X138880661Y-112644748D01*
X138689259Y-112453013D01*
X138439054Y-112349118D01*
X138168135Y-112348882D01*
X137917748Y-112452339D01*
X137726013Y-112643741D01*
X137622118Y-112893946D01*
X137621882Y-113164865D01*
X115497728Y-113164865D01*
X115456000Y-112955088D01*
X115456000Y-112807000D01*
X125307000Y-112807000D01*
X125307000Y-113157000D01*
X126365000Y-113157000D01*
X126365000Y-111915639D01*
X126619000Y-111915639D01*
X126619000Y-113157000D01*
X127677000Y-113157000D01*
X127677000Y-112807000D01*
X127538196Y-112363187D01*
X127240118Y-112006276D01*
X126828146Y-111790602D01*
X126801744Y-111790197D01*
X126619000Y-111915639D01*
X126365000Y-111915639D01*
X126182256Y-111790197D01*
X126155854Y-111790602D01*
X125743882Y-112006276D01*
X125445804Y-112363187D01*
X125307000Y-112807000D01*
X115456000Y-112807000D01*
X115456000Y-110088701D01*
X116273580Y-110088701D01*
X116273580Y-110637299D01*
X116348212Y-111012497D01*
X116560744Y-111330575D01*
X116878822Y-111543107D01*
X117254020Y-111617739D01*
X117629218Y-111543107D01*
X117947296Y-111330575D01*
X118159828Y-111012497D01*
X118234460Y-110637299D01*
X118234460Y-110088701D01*
X118272560Y-110088701D01*
X118272560Y-110637299D01*
X118347192Y-111012497D01*
X118559724Y-111330575D01*
X118877802Y-111543107D01*
X119253000Y-111617739D01*
X119628198Y-111543107D01*
X119946276Y-111330575D01*
X120158808Y-111012497D01*
X120233440Y-110637299D01*
X120233440Y-110088701D01*
X120274080Y-110088701D01*
X120274080Y-110637299D01*
X120348712Y-111012497D01*
X120561244Y-111330575D01*
X120879322Y-111543107D01*
X121254520Y-111617739D01*
X121629718Y-111543107D01*
X121947796Y-111330575D01*
X122021600Y-111220119D01*
X122021600Y-111338940D01*
X122118273Y-111572329D01*
X122296902Y-111750957D01*
X122530291Y-111847630D01*
X122970290Y-111847630D01*
X123129040Y-111688880D01*
X123129040Y-110490000D01*
X123383040Y-110490000D01*
X123383040Y-111688880D01*
X123541790Y-111847630D01*
X123981789Y-111847630D01*
X124215178Y-111750957D01*
X124393807Y-111572329D01*
X124490480Y-111338940D01*
X124490480Y-110648750D01*
X124452730Y-110611000D01*
X127457000Y-110611000D01*
X127457000Y-111161000D01*
X127595804Y-111604813D01*
X127893882Y-111961724D01*
X128305854Y-112177398D01*
X128332256Y-112177803D01*
X128515000Y-112052361D01*
X128515000Y-110611000D01*
X128769000Y-110611000D01*
X128769000Y-112052361D01*
X128951744Y-112177803D01*
X128978146Y-112177398D01*
X129390118Y-111961724D01*
X129688196Y-111604813D01*
X129827000Y-111161000D01*
X129827000Y-110611000D01*
X128769000Y-110611000D01*
X128515000Y-110611000D01*
X127457000Y-110611000D01*
X124452730Y-110611000D01*
X124331730Y-110490000D01*
X123383040Y-110490000D01*
X123129040Y-110490000D01*
X123109040Y-110490000D01*
X123109040Y-110236000D01*
X123129040Y-110236000D01*
X123129040Y-109037120D01*
X123383040Y-109037120D01*
X123383040Y-110236000D01*
X124331730Y-110236000D01*
X124490480Y-110077250D01*
X124490480Y-109807000D01*
X127457000Y-109807000D01*
X127457000Y-110357000D01*
X128515000Y-110357000D01*
X128515000Y-108915639D01*
X128769000Y-108915639D01*
X128769000Y-110357000D01*
X129713890Y-110357000D01*
X129788741Y-110431981D01*
X130038946Y-110535876D01*
X130309865Y-110536112D01*
X130560252Y-110432655D01*
X130751987Y-110241253D01*
X130855882Y-109991048D01*
X130856118Y-109720129D01*
X130752661Y-109469742D01*
X130573444Y-109290213D01*
X130601011Y-109223825D01*
X130601247Y-108952906D01*
X130497790Y-108702519D01*
X130306388Y-108510784D01*
X130056183Y-108406889D01*
X129785264Y-108406653D01*
X129534877Y-108510110D01*
X129343142Y-108701512D01*
X129247578Y-108931654D01*
X128978146Y-108790602D01*
X128951744Y-108790197D01*
X128769000Y-108915639D01*
X128515000Y-108915639D01*
X128332256Y-108790197D01*
X128305854Y-108790602D01*
X127893882Y-109006276D01*
X127595804Y-109363187D01*
X127457000Y-109807000D01*
X124490480Y-109807000D01*
X124490480Y-109387060D01*
X124393807Y-109153671D01*
X124215178Y-108975043D01*
X123981789Y-108878370D01*
X123541790Y-108878370D01*
X123383040Y-109037120D01*
X123129040Y-109037120D01*
X122970290Y-108878370D01*
X122530291Y-108878370D01*
X122296902Y-108975043D01*
X122118273Y-109153671D01*
X122021600Y-109387060D01*
X122021600Y-109505881D01*
X121947796Y-109395425D01*
X121629718Y-109182893D01*
X121254520Y-109108261D01*
X120879322Y-109182893D01*
X120561244Y-109395425D01*
X120348712Y-109713503D01*
X120274080Y-110088701D01*
X120233440Y-110088701D01*
X120158808Y-109713503D01*
X119946276Y-109395425D01*
X119628198Y-109182893D01*
X119253000Y-109108261D01*
X118877802Y-109182893D01*
X118559724Y-109395425D01*
X118347192Y-109713503D01*
X118272560Y-110088701D01*
X118234460Y-110088701D01*
X118159828Y-109713503D01*
X117947296Y-109395425D01*
X117629218Y-109182893D01*
X117254020Y-109108261D01*
X116878822Y-109182893D01*
X116560744Y-109395425D01*
X116348212Y-109713503D01*
X116273580Y-110088701D01*
X115456000Y-110088701D01*
X115456000Y-108338865D01*
X118063882Y-108338865D01*
X118167339Y-108589252D01*
X118358741Y-108780987D01*
X118608946Y-108884882D01*
X118879865Y-108885118D01*
X119130252Y-108781661D01*
X119321987Y-108590259D01*
X119425882Y-108340054D01*
X119425999Y-108205501D01*
X119820500Y-107811000D01*
X125307000Y-107811000D01*
X125307000Y-108161000D01*
X125445804Y-108604813D01*
X125743882Y-108961724D01*
X126155854Y-109177398D01*
X126182256Y-109177803D01*
X126365000Y-109052361D01*
X126365000Y-107811000D01*
X126619000Y-107811000D01*
X126619000Y-109052361D01*
X126801744Y-109177803D01*
X126828146Y-109177398D01*
X127240118Y-108961724D01*
X127538196Y-108604813D01*
X127677000Y-108161000D01*
X127677000Y-107811000D01*
X126619000Y-107811000D01*
X126365000Y-107811000D01*
X125307000Y-107811000D01*
X119820500Y-107811000D01*
X120424500Y-107207000D01*
X125307000Y-107207000D01*
X125307000Y-107557000D01*
X126365000Y-107557000D01*
X126365000Y-106315639D01*
X126619000Y-106315639D01*
X126619000Y-107557000D01*
X127677000Y-107557000D01*
X127677000Y-107403611D01*
X127879946Y-107487882D01*
X128150865Y-107488118D01*
X128401252Y-107384661D01*
X128592987Y-107193259D01*
X128696882Y-106943054D01*
X128697118Y-106672135D01*
X128593661Y-106421748D01*
X128402259Y-106230013D01*
X128152054Y-106126118D01*
X127881135Y-106125882D01*
X127630748Y-106229339D01*
X127439013Y-106420741D01*
X127376975Y-106570145D01*
X127240118Y-106406276D01*
X126828146Y-106190602D01*
X126801744Y-106190197D01*
X126619000Y-106315639D01*
X126365000Y-106315639D01*
X126182256Y-106190197D01*
X126155854Y-106190602D01*
X125743882Y-106406276D01*
X125445804Y-106763187D01*
X125307000Y-107207000D01*
X120424500Y-107207000D01*
X122086635Y-105544865D01*
X123778878Y-105544865D01*
X123882335Y-105795252D01*
X124073737Y-105986987D01*
X124323942Y-106090882D01*
X124594861Y-106091118D01*
X124845248Y-105987661D01*
X125036983Y-105796259D01*
X125140878Y-105546054D01*
X125140882Y-105541119D01*
X125144861Y-105541122D01*
X125395248Y-105437665D01*
X125586983Y-105246263D01*
X125658124Y-105074938D01*
X125864865Y-105075118D01*
X126115252Y-104971661D01*
X126306987Y-104780259D01*
X126410882Y-104530054D01*
X126411118Y-104259135D01*
X126307661Y-104008748D01*
X126116259Y-103817013D01*
X125866054Y-103713118D01*
X125595135Y-103712882D01*
X125344748Y-103816339D01*
X125153013Y-104007741D01*
X125081872Y-104179066D01*
X124875131Y-104178886D01*
X124624744Y-104282343D01*
X124433009Y-104473745D01*
X124329114Y-104723950D01*
X124329110Y-104728885D01*
X124325131Y-104728882D01*
X124074744Y-104832339D01*
X123883009Y-105023741D01*
X123779114Y-105273946D01*
X123778878Y-105544865D01*
X122086635Y-105544865D01*
X122759690Y-104871810D01*
X122836518Y-104871810D01*
X122930741Y-104966197D01*
X123180946Y-105070092D01*
X123451865Y-105070328D01*
X123702252Y-104966871D01*
X123893987Y-104775469D01*
X123997882Y-104525264D01*
X123998118Y-104254345D01*
X123894661Y-104003958D01*
X123703259Y-103812223D01*
X123453054Y-103708328D01*
X123182135Y-103708092D01*
X122931748Y-103811549D01*
X122836522Y-103906610D01*
X122559795Y-103906610D01*
X122559790Y-103906609D01*
X122375107Y-103943346D01*
X122218540Y-104047960D01*
X119404640Y-106861860D01*
X119467630Y-106709789D01*
X119467630Y-106269790D01*
X119308880Y-106111040D01*
X118110000Y-106111040D01*
X118110000Y-107059730D01*
X118268750Y-107218480D01*
X118958940Y-107218480D01*
X119111009Y-107155491D01*
X118743502Y-107522998D01*
X118610135Y-107522882D01*
X118359748Y-107626339D01*
X118168013Y-107817741D01*
X118064118Y-108067946D01*
X118063882Y-108338865D01*
X115456000Y-108338865D01*
X115456000Y-106269790D01*
X116498370Y-106269790D01*
X116498370Y-106709789D01*
X116595043Y-106943178D01*
X116773671Y-107121807D01*
X117007060Y-107218480D01*
X117697250Y-107218480D01*
X117856000Y-107059730D01*
X117856000Y-106111040D01*
X116657120Y-106111040D01*
X116498370Y-106269790D01*
X115456000Y-106269790D01*
X115456000Y-105258291D01*
X116498370Y-105258291D01*
X116498370Y-105698290D01*
X116657120Y-105857040D01*
X117856000Y-105857040D01*
X117856000Y-105837040D01*
X118110000Y-105837040D01*
X118110000Y-105857040D01*
X119308880Y-105857040D01*
X119467630Y-105698290D01*
X119467630Y-105258291D01*
X119370957Y-105024902D01*
X119192329Y-104846273D01*
X118958940Y-104749600D01*
X118840119Y-104749600D01*
X118950575Y-104675796D01*
X119163107Y-104357718D01*
X119237739Y-103982520D01*
X119163107Y-103607322D01*
X118950575Y-103289244D01*
X118632497Y-103076712D01*
X118257299Y-103002080D01*
X117708701Y-103002080D01*
X117333503Y-103076712D01*
X117015425Y-103289244D01*
X116802893Y-103607322D01*
X116728261Y-103982520D01*
X116802893Y-104357718D01*
X117015425Y-104675796D01*
X117125881Y-104749600D01*
X117007060Y-104749600D01*
X116773671Y-104846273D01*
X116595043Y-105024902D01*
X116498370Y-105258291D01*
X115456000Y-105258291D01*
X115456000Y-92866580D01*
X116765206Y-92866580D01*
X116765206Y-94065460D01*
X116791773Y-94206650D01*
X116875216Y-94336325D01*
X117002536Y-94423319D01*
X117153670Y-94453924D01*
X118852930Y-94453924D01*
X118994120Y-94427357D01*
X119123795Y-94343914D01*
X119210789Y-94216594D01*
X119241394Y-94065460D01*
X119241394Y-92866580D01*
X119214827Y-92725390D01*
X119131384Y-92595715D01*
X119004064Y-92508721D01*
X118852930Y-92478116D01*
X117153670Y-92478116D01*
X117012480Y-92504683D01*
X116882805Y-92588126D01*
X116795811Y-92715446D01*
X116765206Y-92866580D01*
X115456000Y-92866580D01*
X115456000Y-59651571D01*
X118064856Y-59651571D01*
X118191102Y-59957109D01*
X118424662Y-60191077D01*
X118729979Y-60317855D01*
X119060571Y-60318144D01*
X119366109Y-60191898D01*
X119600077Y-59958338D01*
X119726855Y-59653021D01*
X119726856Y-59651571D01*
X121064856Y-59651571D01*
X121191102Y-59957109D01*
X121424662Y-60191077D01*
X121729979Y-60317855D01*
X122060571Y-60318144D01*
X122366109Y-60191898D01*
X122600077Y-59958338D01*
X122726855Y-59653021D01*
X122727144Y-59322429D01*
X122600898Y-59016891D01*
X122367338Y-58782923D01*
X122352321Y-58776687D01*
X122432252Y-58743661D01*
X122623987Y-58552259D01*
X122727882Y-58302054D01*
X122728118Y-58031135D01*
X122624661Y-57780748D01*
X122433259Y-57589013D01*
X122183054Y-57485118D01*
X121912135Y-57484882D01*
X121661748Y-57588339D01*
X121470013Y-57779741D01*
X121366118Y-58029946D01*
X121365882Y-58300865D01*
X121469339Y-58551252D01*
X121619804Y-58701979D01*
X121425891Y-58782102D01*
X121191923Y-59015662D01*
X121065145Y-59320979D01*
X121064856Y-59651571D01*
X119726856Y-59651571D01*
X119727144Y-59322429D01*
X119600898Y-59016891D01*
X119367338Y-58782923D01*
X119062021Y-58656145D01*
X118731429Y-58655856D01*
X118425891Y-58782102D01*
X118191923Y-59015662D01*
X118065145Y-59320979D01*
X118064856Y-59651571D01*
X115456000Y-59651571D01*
X115456000Y-57044912D01*
X115581784Y-56412555D01*
X115914544Y-55914544D01*
X116412555Y-55581784D01*
X117044911Y-55456000D01*
X142716820Y-55456000D01*
X142679013Y-55493741D01*
X142679013Y-55493741D01*
G37*
X142679013Y-55493741D02*
X142575118Y-55743946D01*
X142574882Y-56014865D01*
X142650403Y-56197641D01*
X142575118Y-56378946D01*
X142574882Y-56649865D01*
X142650403Y-56832641D01*
X142575118Y-57013946D01*
X142574882Y-57284865D01*
X142650403Y-57467641D01*
X142575118Y-57648946D01*
X142574882Y-57919865D01*
X142650403Y-58102641D01*
X142575118Y-58283946D01*
X142574882Y-58554865D01*
X142650403Y-58737641D01*
X142575118Y-58918946D01*
X142574882Y-59189865D01*
X142678339Y-59440252D01*
X142869741Y-59631987D01*
X143119946Y-59735882D01*
X143390865Y-59736118D01*
X143573641Y-59660597D01*
X143754946Y-59735882D01*
X144025865Y-59736118D01*
X144208641Y-59660597D01*
X144389946Y-59735882D01*
X144660865Y-59736118D01*
X144843641Y-59660597D01*
X145024946Y-59735882D01*
X145295865Y-59736118D01*
X145478641Y-59660597D01*
X145659946Y-59735882D01*
X145930865Y-59736118D01*
X146113641Y-59660597D01*
X146294946Y-59735882D01*
X146565865Y-59736118D01*
X146748641Y-59660597D01*
X146929946Y-59735882D01*
X147200865Y-59736118D01*
X147451252Y-59632661D01*
X147642987Y-59441259D01*
X147746882Y-59191054D01*
X147747118Y-58920135D01*
X147671597Y-58737359D01*
X147746882Y-58556054D01*
X147747007Y-58411513D01*
X149375674Y-58411513D01*
X149661436Y-59103109D01*
X150190108Y-59632704D01*
X150881204Y-59919673D01*
X151629513Y-59920326D01*
X152321109Y-59634564D01*
X152850704Y-59105892D01*
X153137673Y-58414796D01*
X153138326Y-57666487D01*
X152852564Y-56974891D01*
X152323892Y-56445296D01*
X151632796Y-56158327D01*
X150884487Y-56157674D01*
X150192891Y-56443436D01*
X149663296Y-56972108D01*
X149376327Y-57663204D01*
X149375674Y-58411513D01*
X147747007Y-58411513D01*
X147747118Y-58285135D01*
X147671597Y-58102359D01*
X147746882Y-57921054D01*
X147747118Y-57650135D01*
X147671597Y-57467359D01*
X147746882Y-57286054D01*
X147747118Y-57015135D01*
X147671597Y-56832359D01*
X147746882Y-56651054D01*
X147747118Y-56380135D01*
X147671597Y-56197359D01*
X147746882Y-56016054D01*
X147747118Y-55745135D01*
X147643661Y-55494748D01*
X147604980Y-55456000D01*
X154908820Y-55456000D01*
X154871013Y-55493741D01*
X154767118Y-55743946D01*
X154766882Y-56014865D01*
X154842403Y-56197641D01*
X154767118Y-56378946D01*
X154766882Y-56649865D01*
X154842403Y-56832641D01*
X154767118Y-57013946D01*
X154766882Y-57284865D01*
X154842403Y-57467641D01*
X154767118Y-57648946D01*
X154766882Y-57919865D01*
X154842403Y-58102641D01*
X154767118Y-58283946D01*
X154766882Y-58554865D01*
X154842403Y-58737641D01*
X154767118Y-58918946D01*
X154766882Y-59189865D01*
X154870339Y-59440252D01*
X155061741Y-59631987D01*
X155311946Y-59735882D01*
X155582865Y-59736118D01*
X155765641Y-59660597D01*
X155946946Y-59735882D01*
X156217865Y-59736118D01*
X156400641Y-59660597D01*
X156581946Y-59735882D01*
X156852865Y-59736118D01*
X157035641Y-59660597D01*
X157216946Y-59735882D01*
X157487865Y-59736118D01*
X157670641Y-59660597D01*
X157851946Y-59735882D01*
X158122865Y-59736118D01*
X158305641Y-59660597D01*
X158486946Y-59735882D01*
X158757865Y-59736118D01*
X158940641Y-59660597D01*
X159121946Y-59735882D01*
X159392865Y-59736118D01*
X159643252Y-59632661D01*
X159834987Y-59441259D01*
X159938882Y-59191054D01*
X159939118Y-58920135D01*
X159863597Y-58737359D01*
X159938882Y-58556054D01*
X159939007Y-58411513D01*
X161948674Y-58411513D01*
X162234436Y-59103109D01*
X162763108Y-59632704D01*
X163454204Y-59919673D01*
X164202513Y-59920326D01*
X164894109Y-59634564D01*
X165423704Y-59105892D01*
X165710673Y-58414796D01*
X165711326Y-57666487D01*
X165425564Y-56974891D01*
X164896892Y-56445296D01*
X164205796Y-56158327D01*
X163457487Y-56157674D01*
X162765891Y-56443436D01*
X162236296Y-56972108D01*
X161949327Y-57663204D01*
X161948674Y-58411513D01*
X159939007Y-58411513D01*
X159939118Y-58285135D01*
X159863597Y-58102359D01*
X159938882Y-57921054D01*
X159939118Y-57650135D01*
X159863597Y-57467359D01*
X159938882Y-57286054D01*
X159939118Y-57015135D01*
X159863597Y-56832359D01*
X159938882Y-56651054D01*
X159939118Y-56380135D01*
X159863597Y-56197359D01*
X159938882Y-56016054D01*
X159939118Y-55745135D01*
X159835661Y-55494748D01*
X159796980Y-55456000D01*
X167735820Y-55456000D01*
X167698013Y-55493741D01*
X167594118Y-55743946D01*
X167593882Y-56014865D01*
X167669403Y-56197641D01*
X167594118Y-56378946D01*
X167593882Y-56649865D01*
X167669403Y-56832641D01*
X167594118Y-57013946D01*
X167593882Y-57284865D01*
X167669403Y-57467641D01*
X167594118Y-57648946D01*
X167593882Y-57919865D01*
X167669403Y-58102641D01*
X167594118Y-58283946D01*
X167593882Y-58554865D01*
X167669403Y-58737641D01*
X167594118Y-58918946D01*
X167593882Y-59189865D01*
X167697339Y-59440252D01*
X167888741Y-59631987D01*
X168138946Y-59735882D01*
X168409865Y-59736118D01*
X168592641Y-59660597D01*
X168773946Y-59735882D01*
X169044865Y-59736118D01*
X169227641Y-59660597D01*
X169408946Y-59735882D01*
X169679865Y-59736118D01*
X169862641Y-59660597D01*
X170043946Y-59735882D01*
X170314865Y-59736118D01*
X170497641Y-59660597D01*
X170678946Y-59735882D01*
X170949865Y-59736118D01*
X171132641Y-59660597D01*
X171313946Y-59735882D01*
X171584865Y-59736118D01*
X171767641Y-59660597D01*
X171948946Y-59735882D01*
X172219865Y-59736118D01*
X172470252Y-59632661D01*
X172661987Y-59441259D01*
X172765882Y-59191054D01*
X172766118Y-58920135D01*
X172690597Y-58737359D01*
X172765882Y-58556054D01*
X172766118Y-58285135D01*
X172690597Y-58102359D01*
X172765882Y-57921054D01*
X172766118Y-57650135D01*
X172690597Y-57467359D01*
X172765882Y-57286054D01*
X172766118Y-57015135D01*
X172690597Y-56832359D01*
X172765882Y-56651054D01*
X172766118Y-56380135D01*
X172690597Y-56197359D01*
X172765882Y-56016054D01*
X172766118Y-55745135D01*
X172662661Y-55494748D01*
X172623980Y-55456000D01*
X172955088Y-55456000D01*
X173587445Y-55581784D01*
X174085456Y-55914544D01*
X174418216Y-56412555D01*
X174544000Y-57044911D01*
X174544000Y-83544000D01*
X167051485Y-83544000D01*
X167194435Y-83484788D01*
X167317570Y-83197175D01*
X166200000Y-82079605D01*
X165082430Y-83197175D01*
X165205565Y-83484788D01*
X165360970Y-83544000D01*
X162800000Y-83544000D01*
X162755950Y-83552762D01*
X162711039Y-83552762D01*
X162328356Y-83628882D01*
X162163977Y-83696970D01*
X161839553Y-83913743D01*
X161713743Y-84039553D01*
X161496971Y-84363976D01*
X161496970Y-84363977D01*
X161428882Y-84528356D01*
X161352762Y-84911039D01*
X161352762Y-84955950D01*
X161344000Y-85000000D01*
X161344000Y-87544000D01*
X154056000Y-87544000D01*
X154056000Y-85000000D01*
X154047238Y-84955950D01*
X154047238Y-84911039D01*
X153971118Y-84528356D01*
X153903030Y-84363977D01*
X153903029Y-84363976D01*
X153686257Y-84039553D01*
X153560447Y-83913743D01*
X153236023Y-83696970D01*
X153071644Y-83628882D01*
X152688961Y-83552762D01*
X152644050Y-83552762D01*
X152600000Y-83544000D01*
X150151485Y-83544000D01*
X150294435Y-83484788D01*
X150417570Y-83197175D01*
X149300000Y-82079605D01*
X148182430Y-83197175D01*
X148305565Y-83484788D01*
X148460970Y-83544000D01*
X140000000Y-83544000D01*
X139825496Y-83578711D01*
X139677559Y-83677559D01*
X139578711Y-83825496D01*
X139544000Y-84000000D01*
X139544000Y-90120429D01*
X139483762Y-90095416D01*
X139212843Y-90095180D01*
X138962456Y-90198637D01*
X138770721Y-90390039D01*
X138666826Y-90640244D01*
X138666590Y-90911163D01*
X138704074Y-91001882D01*
X138693056Y-90997307D01*
X138422137Y-90997071D01*
X138171750Y-91100528D01*
X137980015Y-91291930D01*
X137876120Y-91542135D01*
X137875884Y-91813054D01*
X137979341Y-92063441D01*
X138046302Y-92130518D01*
X138004715Y-92172033D01*
X137900820Y-92422238D01*
X137900584Y-92693157D01*
X138001470Y-92937321D01*
X137980013Y-92958741D01*
X137876118Y-93208946D01*
X137875882Y-93479865D01*
X137979339Y-93730252D01*
X138145596Y-93896798D01*
X138076054Y-93966220D01*
X136047039Y-93966220D01*
X135500668Y-93419849D01*
X135513252Y-93414649D01*
X135704987Y-93223247D01*
X135808882Y-92973042D01*
X135809118Y-92702123D01*
X135705661Y-92451736D01*
X135632056Y-92378003D01*
X135863946Y-92474293D01*
X136134865Y-92474529D01*
X136385252Y-92371072D01*
X136576987Y-92179670D01*
X136680882Y-91929465D01*
X136681118Y-91658546D01*
X136577661Y-91408159D01*
X136386259Y-91216424D01*
X136136054Y-91112529D01*
X135865135Y-91112293D01*
X135614748Y-91215750D01*
X135520621Y-91309714D01*
X135285890Y-91212244D01*
X135014971Y-91212008D01*
X134764584Y-91315465D01*
X134572849Y-91506867D01*
X134468954Y-91757072D01*
X134468718Y-92027991D01*
X134572175Y-92278378D01*
X134647788Y-92354122D01*
X134551013Y-92450729D01*
X134545302Y-92464483D01*
X132435600Y-90354780D01*
X132435600Y-89130599D01*
X132769737Y-89130599D01*
X132873194Y-89380986D01*
X133064596Y-89572721D01*
X133314801Y-89676616D01*
X133584701Y-89676851D01*
X133465053Y-89796291D01*
X133361158Y-90046496D01*
X133360922Y-90317415D01*
X133464379Y-90567802D01*
X133655781Y-90759537D01*
X133905986Y-90863432D01*
X134176905Y-90863668D01*
X134427292Y-90760211D01*
X134619027Y-90568809D01*
X134722922Y-90318604D01*
X134723024Y-90201230D01*
X134827072Y-90201321D01*
X135077459Y-90097864D01*
X135269194Y-89906462D01*
X135373089Y-89656257D01*
X135373325Y-89385338D01*
X135269868Y-89134951D01*
X135078466Y-88943216D01*
X134828261Y-88839321D01*
X134557342Y-88839085D01*
X134306955Y-88942542D01*
X134131749Y-89117443D01*
X134131973Y-88860869D01*
X134028516Y-88610482D01*
X133837114Y-88418747D01*
X133586909Y-88314852D01*
X133315990Y-88314616D01*
X133065603Y-88418073D01*
X132873868Y-88609475D01*
X132769973Y-88859680D01*
X132769737Y-89130599D01*
X132435600Y-89130599D01*
X132435600Y-86254190D01*
X132454839Y-86300752D01*
X132646241Y-86492487D01*
X132896446Y-86596382D01*
X133167365Y-86596618D01*
X133417752Y-86493161D01*
X133609487Y-86301759D01*
X133713382Y-86051554D01*
X133713618Y-85780635D01*
X133610161Y-85530248D01*
X133418759Y-85338513D01*
X133168554Y-85234618D01*
X132897635Y-85234382D01*
X132647248Y-85337839D01*
X132455513Y-85529241D01*
X132435600Y-85577196D01*
X132435600Y-84716865D01*
X133811882Y-84716865D01*
X133915339Y-84967252D01*
X134106741Y-85158987D01*
X134356946Y-85262882D01*
X134627865Y-85263118D01*
X134878252Y-85159661D01*
X135069987Y-84968259D01*
X135173882Y-84718054D01*
X135174118Y-84447135D01*
X135070661Y-84196748D01*
X134879259Y-84005013D01*
X134629054Y-83901118D01*
X134358135Y-83900882D01*
X134107748Y-84004339D01*
X133916013Y-84195741D01*
X133812118Y-84445946D01*
X133811882Y-84716865D01*
X132435600Y-84716865D01*
X132435600Y-81578132D01*
X133786086Y-82928618D01*
X134074498Y-83121329D01*
X134414704Y-83189000D01*
X140712000Y-83189000D01*
X141052206Y-83121329D01*
X141340618Y-82928618D01*
X141979618Y-82289618D01*
X142172329Y-82001206D01*
X142240000Y-81661000D01*
X142240000Y-81013236D01*
X142816176Y-80437060D01*
X142818533Y-80437062D01*
X142742141Y-80548866D01*
X142711536Y-80700000D01*
X142711536Y-83100000D01*
X142738103Y-83241190D01*
X142821546Y-83370865D01*
X142948866Y-83457859D01*
X143100000Y-83488464D01*
X145500000Y-83488464D01*
X145641190Y-83461897D01*
X145770865Y-83378454D01*
X145857859Y-83251134D01*
X145888464Y-83100000D01*
X145888464Y-81587734D01*
X147455293Y-81587734D01*
X147476214Y-82317443D01*
X147715212Y-82894435D01*
X148002825Y-83017570D01*
X149120395Y-81900000D01*
X149479605Y-81900000D01*
X150597175Y-83017570D01*
X150884788Y-82894435D01*
X151144707Y-82212266D01*
X151126802Y-81587734D01*
X164355293Y-81587734D01*
X164376214Y-82317443D01*
X164615212Y-82894435D01*
X164902825Y-83017570D01*
X166020395Y-81900000D01*
X166379605Y-81900000D01*
X167497175Y-83017570D01*
X167784788Y-82894435D01*
X168044707Y-82212266D01*
X168023786Y-81482557D01*
X167784788Y-80905565D01*
X167497175Y-80782430D01*
X166379605Y-81900000D01*
X166020395Y-81900000D01*
X164902825Y-80782430D01*
X164615212Y-80905565D01*
X164355293Y-81587734D01*
X151126802Y-81587734D01*
X151123786Y-81482557D01*
X150884788Y-80905565D01*
X150597175Y-80782430D01*
X149479605Y-81900000D01*
X149120395Y-81900000D01*
X148002825Y-80782430D01*
X147715212Y-80905565D01*
X147455293Y-81587734D01*
X145888464Y-81587734D01*
X145888464Y-80700000D01*
X145870180Y-80602825D01*
X148182430Y-80602825D01*
X149300000Y-81720395D01*
X150417570Y-80602825D01*
X165082430Y-80602825D01*
X166200000Y-81720395D01*
X167317570Y-80602825D01*
X167194435Y-80315212D01*
X166512266Y-80055293D01*
X165782557Y-80076214D01*
X165205565Y-80315212D01*
X165082430Y-80602825D01*
X150417570Y-80602825D01*
X150294435Y-80315212D01*
X149612266Y-80055293D01*
X148882557Y-80076214D01*
X148305565Y-80315212D01*
X148182430Y-80602825D01*
X145870180Y-80602825D01*
X145861897Y-80558810D01*
X145782160Y-80434895D01*
X145786946Y-80436882D01*
X146057865Y-80437118D01*
X146174320Y-80389000D01*
X146306634Y-80389000D01*
X146421946Y-80436882D01*
X146692865Y-80437118D01*
X146809320Y-80389000D01*
X146941634Y-80389000D01*
X147056946Y-80436882D01*
X147327865Y-80437118D01*
X147444320Y-80389000D01*
X147576634Y-80389000D01*
X147691946Y-80436882D01*
X147962865Y-80437118D01*
X148213252Y-80333661D01*
X148221972Y-80324956D01*
X148240206Y-80321329D01*
X148528618Y-80128618D01*
X148687479Y-79890865D01*
X153877882Y-79890865D01*
X153981339Y-80141252D01*
X154172741Y-80332987D01*
X154422946Y-80436882D01*
X154693865Y-80437118D01*
X154876641Y-80361597D01*
X155057946Y-80436882D01*
X155328865Y-80437118D01*
X155511641Y-80361597D01*
X155692946Y-80436882D01*
X155963865Y-80437118D01*
X156146641Y-80361597D01*
X156327946Y-80436882D01*
X156598865Y-80437118D01*
X156781641Y-80361597D01*
X156962946Y-80436882D01*
X157233865Y-80437118D01*
X157416641Y-80361597D01*
X157597946Y-80436882D01*
X157868865Y-80437118D01*
X158051641Y-80361597D01*
X158232946Y-80436882D01*
X158503865Y-80437118D01*
X158686641Y-80361597D01*
X158867946Y-80436882D01*
X159138865Y-80437118D01*
X159321641Y-80361597D01*
X159502946Y-80436882D01*
X159773865Y-80437118D01*
X159956641Y-80361597D01*
X160137946Y-80436882D01*
X160408865Y-80437118D01*
X160659252Y-80333661D01*
X160850987Y-80142259D01*
X160954882Y-79892054D01*
X160955118Y-79621135D01*
X160879597Y-79438359D01*
X160954882Y-79257054D01*
X160954883Y-79255865D01*
X166958882Y-79255865D01*
X167034403Y-79438641D01*
X166959118Y-79619946D01*
X166958882Y-79890865D01*
X167062339Y-80141252D01*
X167253741Y-80332987D01*
X167503946Y-80436882D01*
X167774865Y-80437118D01*
X167957641Y-80361597D01*
X168138946Y-80436882D01*
X168409865Y-80437118D01*
X168592641Y-80361597D01*
X168773946Y-80436882D01*
X169044865Y-80437118D01*
X169227641Y-80361597D01*
X169408946Y-80436882D01*
X169679865Y-80437118D01*
X169749917Y-80408173D01*
X169729135Y-80421546D01*
X169642141Y-80548866D01*
X169611536Y-80700000D01*
X169611536Y-83100000D01*
X169638103Y-83241190D01*
X169721546Y-83370865D01*
X169848866Y-83457859D01*
X170000000Y-83488464D01*
X172400000Y-83488464D01*
X172541190Y-83461897D01*
X172670865Y-83378454D01*
X172757859Y-83251134D01*
X172788464Y-83100000D01*
X172788464Y-80700000D01*
X172761897Y-80558810D01*
X172683495Y-80436969D01*
X172854865Y-80437118D01*
X173037641Y-80361597D01*
X173218946Y-80436882D01*
X173489865Y-80437118D01*
X173740252Y-80333661D01*
X173931987Y-80142259D01*
X174035882Y-79892054D01*
X174036118Y-79621135D01*
X173932661Y-79370748D01*
X173741259Y-79179013D01*
X173491054Y-79075118D01*
X173220135Y-79074882D01*
X173037359Y-79150403D01*
X172856054Y-79075118D01*
X172766041Y-79075040D01*
X172766118Y-78986135D01*
X172662661Y-78735748D01*
X172471259Y-78544013D01*
X172221054Y-78440118D01*
X171950135Y-78439882D01*
X171767359Y-78515403D01*
X171586054Y-78440118D01*
X171315135Y-78439882D01*
X171132359Y-78515403D01*
X170951054Y-78440118D01*
X170680135Y-78439882D01*
X170497359Y-78515403D01*
X170316054Y-78440118D01*
X170045135Y-78439882D01*
X169862359Y-78515403D01*
X169681054Y-78440118D01*
X169410135Y-78439882D01*
X169227359Y-78515403D01*
X169046054Y-78440118D01*
X168775135Y-78439882D01*
X168592359Y-78515403D01*
X168411054Y-78440118D01*
X168140135Y-78439882D01*
X167957359Y-78515403D01*
X167776054Y-78440118D01*
X167505135Y-78439882D01*
X167254748Y-78543339D01*
X167063013Y-78734741D01*
X166959118Y-78984946D01*
X166958882Y-79255865D01*
X160954883Y-79255865D01*
X160955118Y-78986135D01*
X160851661Y-78735748D01*
X160660259Y-78544013D01*
X160410054Y-78440118D01*
X160139135Y-78439882D01*
X159956359Y-78515403D01*
X159775054Y-78440118D01*
X159504135Y-78439882D01*
X159321359Y-78515403D01*
X159140054Y-78440118D01*
X158869135Y-78439882D01*
X158686359Y-78515403D01*
X158505054Y-78440118D01*
X158234135Y-78439882D01*
X158051359Y-78515403D01*
X157870054Y-78440118D01*
X157599135Y-78439882D01*
X157416359Y-78515403D01*
X157235054Y-78440118D01*
X156964135Y-78439882D01*
X156781359Y-78515403D01*
X156600054Y-78440118D01*
X156329135Y-78439882D01*
X156146359Y-78515403D01*
X155965054Y-78440118D01*
X155694135Y-78439882D01*
X155443748Y-78543339D01*
X155252013Y-78734741D01*
X155148118Y-78984946D01*
X155148040Y-79074959D01*
X155059135Y-79074882D01*
X154876359Y-79150403D01*
X154695054Y-79075118D01*
X154424135Y-79074882D01*
X154173748Y-79178339D01*
X153982013Y-79369741D01*
X153878118Y-79619946D01*
X153877882Y-79890865D01*
X148687479Y-79890865D01*
X148721329Y-79840206D01*
X148789000Y-79500000D01*
X148721329Y-79159794D01*
X148528618Y-78871382D01*
X148436184Y-78809619D01*
X148405661Y-78735748D01*
X148214259Y-78544013D01*
X147964054Y-78440118D01*
X147693135Y-78439882D01*
X147510359Y-78515403D01*
X147329054Y-78440118D01*
X147058135Y-78439882D01*
X146875359Y-78515403D01*
X146694054Y-78440118D01*
X146423135Y-78439882D01*
X146240359Y-78515403D01*
X146059054Y-78440118D01*
X145788135Y-78439882D01*
X145605359Y-78515403D01*
X145424054Y-78440118D01*
X145153135Y-78439882D01*
X144970359Y-78515403D01*
X144789054Y-78440118D01*
X144518135Y-78439882D01*
X144335359Y-78515403D01*
X144154054Y-78440118D01*
X143883135Y-78439882D01*
X143700359Y-78515403D01*
X143519054Y-78440118D01*
X143248135Y-78439882D01*
X142997748Y-78543339D01*
X142929969Y-78611000D01*
X142496000Y-78611000D01*
X142155795Y-78678670D01*
X141867382Y-78871382D01*
X141008661Y-79730103D01*
X140912655Y-79497748D01*
X140721253Y-79306013D01*
X140539585Y-79230577D01*
X142829000Y-76941162D01*
X142828882Y-77076244D01*
X142932339Y-77326631D01*
X143123741Y-77518366D01*
X143373946Y-77622261D01*
X143644865Y-77622497D01*
X143895252Y-77519040D01*
X144086987Y-77327638D01*
X144190882Y-77077433D01*
X144191118Y-76806514D01*
X144087661Y-76556127D01*
X143938416Y-76406622D01*
X154278436Y-76406622D01*
X154109023Y-76575741D01*
X154005128Y-76825946D01*
X154004892Y-77096865D01*
X154108349Y-77347252D01*
X154299751Y-77538987D01*
X154549956Y-77642882D01*
X154820875Y-77643118D01*
X155071262Y-77539661D01*
X155262997Y-77348259D01*
X155366892Y-77098054D01*
X155367128Y-76827135D01*
X155263671Y-76576748D01*
X155093840Y-76406622D01*
X165744278Y-76406622D01*
X165987282Y-76358286D01*
X166193291Y-76220635D01*
X168549676Y-73864250D01*
X168586275Y-73849127D01*
X168761246Y-73921782D01*
X169032165Y-73922018D01*
X169208575Y-73849127D01*
X169383546Y-73921782D01*
X169654465Y-73922018D01*
X169830875Y-73849127D01*
X170005846Y-73921782D01*
X170276765Y-73922018D01*
X170453175Y-73849127D01*
X170628146Y-73921782D01*
X170899065Y-73922018D01*
X171075475Y-73849127D01*
X171250446Y-73921782D01*
X171521365Y-73922018D01*
X171697775Y-73849127D01*
X171872746Y-73921782D01*
X172143665Y-73922018D01*
X172394052Y-73818561D01*
X172585787Y-73627159D01*
X172689682Y-73376954D01*
X172689749Y-73299652D01*
X172765965Y-73299718D01*
X172942375Y-73226827D01*
X173117346Y-73299482D01*
X173388265Y-73299718D01*
X173638652Y-73196261D01*
X173830387Y-73004859D01*
X173934282Y-72754654D01*
X173934518Y-72483735D01*
X173861627Y-72307325D01*
X173934282Y-72132354D01*
X173934518Y-71861435D01*
X173861627Y-71685025D01*
X173934282Y-71510054D01*
X173934518Y-71239135D01*
X173831061Y-70988748D01*
X173639659Y-70797013D01*
X173389454Y-70693118D01*
X173118535Y-70692882D01*
X172942125Y-70765773D01*
X172767154Y-70693118D01*
X172496235Y-70692882D01*
X172319825Y-70765773D01*
X172144854Y-70693118D01*
X171873935Y-70692882D01*
X171697525Y-70765773D01*
X171522554Y-70693118D01*
X171251635Y-70692882D01*
X171001248Y-70796339D01*
X170809513Y-70987741D01*
X170705618Y-71237946D01*
X170705551Y-71315248D01*
X170629335Y-71315182D01*
X170452925Y-71388073D01*
X170277954Y-71315418D01*
X170200652Y-71315351D01*
X170200718Y-71239135D01*
X170097261Y-70988748D01*
X169905859Y-70797013D01*
X169655654Y-70693118D01*
X169384735Y-70692882D01*
X169208325Y-70765773D01*
X169033354Y-70693118D01*
X168762435Y-70692882D01*
X168586025Y-70765773D01*
X168411054Y-70693118D01*
X168140135Y-70692882D01*
X167894000Y-70794582D01*
X167894000Y-68716026D01*
X168422676Y-68187350D01*
X168533252Y-68141661D01*
X168724987Y-67950259D01*
X168828882Y-67700054D01*
X168829118Y-67429135D01*
X168725661Y-67178748D01*
X168534259Y-66987013D01*
X168284054Y-66883118D01*
X168013135Y-66882882D01*
X167762748Y-66986339D01*
X167571013Y-67177741D01*
X167524700Y-67289274D01*
X166809987Y-68003987D01*
X166672336Y-68209996D01*
X166624000Y-68453000D01*
X166624000Y-71872974D01*
X164046163Y-74450811D01*
X154882010Y-74450811D01*
X154882327Y-74450599D01*
X155468675Y-73864250D01*
X155505275Y-73849127D01*
X155680246Y-73921782D01*
X155951165Y-73922018D01*
X156127575Y-73849127D01*
X156302546Y-73921782D01*
X156573465Y-73922018D01*
X156749875Y-73849127D01*
X156924846Y-73921782D01*
X157195765Y-73922018D01*
X157372175Y-73849127D01*
X157547146Y-73921782D01*
X157818065Y-73922018D01*
X157994475Y-73849127D01*
X158169446Y-73921782D01*
X158440365Y-73922018D01*
X158616775Y-73849127D01*
X158791746Y-73921782D01*
X159062665Y-73922018D01*
X159239075Y-73849127D01*
X159414046Y-73921782D01*
X159684965Y-73922018D01*
X159861375Y-73849127D01*
X160036346Y-73921782D01*
X160307265Y-73922018D01*
X160557652Y-73818561D01*
X160749387Y-73627159D01*
X160853282Y-73376954D01*
X160853518Y-73106035D01*
X160780627Y-72929625D01*
X160853282Y-72754654D01*
X160853518Y-72483735D01*
X160780627Y-72307325D01*
X160853282Y-72132354D01*
X160853518Y-71861435D01*
X160780627Y-71685025D01*
X160853282Y-71510054D01*
X160853518Y-71239135D01*
X160750061Y-70988748D01*
X160558659Y-70797013D01*
X160308454Y-70693118D01*
X160037535Y-70692882D01*
X159861125Y-70765773D01*
X159686154Y-70693118D01*
X159415235Y-70692882D01*
X159238825Y-70765773D01*
X159063854Y-70693118D01*
X158792935Y-70692882D01*
X158616525Y-70765773D01*
X158441554Y-70693118D01*
X158170635Y-70692882D01*
X157920248Y-70796339D01*
X157728513Y-70987741D01*
X157624618Y-71237946D01*
X157624551Y-71315248D01*
X157548335Y-71315182D01*
X157371925Y-71388073D01*
X157196954Y-71315418D01*
X157119652Y-71315351D01*
X157119718Y-71239135D01*
X157016261Y-70988748D01*
X156824859Y-70797013D01*
X156574654Y-70693118D01*
X156303735Y-70692882D01*
X156127325Y-70765773D01*
X155952354Y-70693118D01*
X155681435Y-70692882D01*
X155505025Y-70765773D01*
X155330054Y-70693118D01*
X155059135Y-70692882D01*
X154808748Y-70796339D01*
X154617013Y-70987741D01*
X154513118Y-71237946D01*
X154512882Y-71508865D01*
X154585773Y-71685275D01*
X154513118Y-71860246D01*
X154512882Y-72131165D01*
X154585773Y-72307575D01*
X154513118Y-72482546D01*
X154512882Y-72753465D01*
X154585773Y-72929875D01*
X154570700Y-72966175D01*
X154170288Y-73366586D01*
X148915291Y-73366586D01*
X148915518Y-73106035D01*
X148842627Y-72929625D01*
X148915282Y-72754654D01*
X148915518Y-72483735D01*
X148842627Y-72307325D01*
X148915282Y-72132354D01*
X148915518Y-71861435D01*
X148842627Y-71685025D01*
X148915282Y-71510054D01*
X148915518Y-71239135D01*
X148812061Y-70988748D01*
X148620659Y-70797013D01*
X148370454Y-70693118D01*
X148099535Y-70692882D01*
X147923125Y-70765773D01*
X147748154Y-70693118D01*
X147477235Y-70692882D01*
X147300825Y-70765773D01*
X147125854Y-70693118D01*
X146854935Y-70692882D01*
X146678525Y-70765773D01*
X146503554Y-70693118D01*
X146232635Y-70692882D01*
X146056225Y-70765773D01*
X145881254Y-70693118D01*
X145610335Y-70692882D01*
X145359948Y-70796339D01*
X145168213Y-70987741D01*
X145064318Y-71237946D01*
X145064251Y-71315248D01*
X144988035Y-71315182D01*
X144811625Y-71388073D01*
X144636654Y-71315418D01*
X144559352Y-71315351D01*
X144559418Y-71239135D01*
X144455961Y-70988748D01*
X144264559Y-70797013D01*
X144014354Y-70693118D01*
X143743435Y-70692882D01*
X143567025Y-70765773D01*
X143392054Y-70693118D01*
X143121135Y-70692882D01*
X142870748Y-70796339D01*
X142679013Y-70987741D01*
X142575118Y-71237946D01*
X142574882Y-71508865D01*
X142647773Y-71685275D01*
X142575118Y-71860246D01*
X142574882Y-72131165D01*
X142647773Y-72307575D01*
X142575118Y-72482546D01*
X142574882Y-72753465D01*
X142678339Y-73003852D01*
X142869741Y-73195587D01*
X143119946Y-73299482D01*
X143197248Y-73299549D01*
X143197190Y-73366586D01*
X141142924Y-73366586D01*
X141143118Y-73144135D01*
X141039661Y-72893748D01*
X140848259Y-72702013D01*
X140598054Y-72598118D01*
X140327135Y-72597882D01*
X140076748Y-72701339D01*
X139885013Y-72892741D01*
X139781118Y-73142946D01*
X139780882Y-73413865D01*
X139884339Y-73664252D01*
X140073760Y-73854003D01*
X140068973Y-73865532D01*
X140068801Y-74063284D01*
X139822748Y-74164950D01*
X139631013Y-74356352D01*
X139527118Y-74606557D01*
X139526882Y-74877476D01*
X139608332Y-75074603D01*
X139504013Y-75178741D01*
X139400118Y-75428946D01*
X139399882Y-75699865D01*
X139503339Y-75950252D01*
X139694741Y-76141987D01*
X139944946Y-76245882D01*
X140215865Y-76246118D01*
X140466252Y-76142661D01*
X140657987Y-75951259D01*
X140761882Y-75701054D01*
X140762118Y-75430135D01*
X140680668Y-75233008D01*
X140784987Y-75128870D01*
X140888882Y-74878665D01*
X140889054Y-74680913D01*
X140996335Y-74636586D01*
X142262376Y-74636586D01*
X142262059Y-74636798D01*
X137259931Y-79638926D01*
X137149355Y-79684615D01*
X136957620Y-79876017D01*
X136853725Y-80126222D01*
X136853489Y-80397141D01*
X136956946Y-80647528D01*
X137148348Y-80839263D01*
X137260215Y-80885715D01*
X137260058Y-81065825D01*
X137363515Y-81316212D01*
X137458138Y-81411000D01*
X134782940Y-81411000D01*
X133858000Y-80486060D01*
X133858000Y-79126740D01*
X133930979Y-79303364D01*
X134122381Y-79495099D01*
X134372586Y-79598994D01*
X134643505Y-79599230D01*
X134893892Y-79495773D01*
X135085627Y-79304371D01*
X135189522Y-79054166D01*
X135189758Y-78783247D01*
X135086301Y-78532860D01*
X135067965Y-78514492D01*
X135166711Y-78276688D01*
X135166947Y-78005769D01*
X135063490Y-77755382D01*
X135056823Y-77748703D01*
X135160551Y-77498900D01*
X135160787Y-77227981D01*
X135057330Y-76977594D01*
X134865928Y-76785859D01*
X134794836Y-76756339D01*
X134985252Y-76677661D01*
X135176987Y-76486259D01*
X135280882Y-76236054D01*
X135281118Y-75965135D01*
X135177661Y-75714748D01*
X135163080Y-75700142D01*
X135176987Y-75686259D01*
X135280882Y-75436054D01*
X135281118Y-75165135D01*
X135198332Y-74964777D01*
X135276987Y-74886259D01*
X135380882Y-74636054D01*
X135381118Y-74365135D01*
X135277661Y-74114748D01*
X135086259Y-73923013D01*
X134981136Y-73879362D01*
X134985252Y-73877661D01*
X135176987Y-73686259D01*
X135280882Y-73436054D01*
X135281118Y-73165135D01*
X135177661Y-72914748D01*
X135039518Y-72776364D01*
X135108399Y-72610481D01*
X135108635Y-72339562D01*
X135025295Y-72137862D01*
X135076987Y-72086259D01*
X135180882Y-71836054D01*
X135180945Y-71762865D01*
X139272882Y-71762865D01*
X139376339Y-72013252D01*
X139567741Y-72204987D01*
X139817946Y-72308882D01*
X140088865Y-72309118D01*
X140339252Y-72205661D01*
X140530987Y-72014259D01*
X140632437Y-71769943D01*
X140706946Y-71800882D01*
X140977865Y-71801118D01*
X141228252Y-71697661D01*
X141419987Y-71506259D01*
X141523882Y-71256054D01*
X141524118Y-70985135D01*
X141420661Y-70734748D01*
X141229259Y-70543013D01*
X140979054Y-70439118D01*
X140708135Y-70438882D01*
X140457748Y-70542339D01*
X140266013Y-70733741D01*
X140164563Y-70978057D01*
X140090054Y-70947118D01*
X139819135Y-70946882D01*
X139568748Y-71050339D01*
X139377013Y-71241741D01*
X139273118Y-71491946D01*
X139272882Y-71762865D01*
X135180945Y-71762865D01*
X135181118Y-71565135D01*
X135146777Y-71482022D01*
X135290665Y-71338383D01*
X135394560Y-71088178D01*
X135394796Y-70817259D01*
X135291339Y-70566872D01*
X135099937Y-70375137D01*
X134849732Y-70271242D01*
X134578813Y-70271006D01*
X134328426Y-70374463D01*
X134136691Y-70565865D01*
X134032796Y-70816070D01*
X134032560Y-71086989D01*
X134066901Y-71170102D01*
X133923013Y-71313741D01*
X133858000Y-71470308D01*
X133858000Y-69710236D01*
X134359618Y-69208618D01*
X134552329Y-68920205D01*
X134620000Y-68580000D01*
X134552329Y-68239795D01*
X134359618Y-67951382D01*
X134071205Y-67758671D01*
X133770541Y-67698865D01*
X143209882Y-67698865D01*
X143313339Y-67949252D01*
X143504741Y-68140987D01*
X143754946Y-68244882D01*
X144025865Y-68245118D01*
X144276252Y-68141661D01*
X144467987Y-67950259D01*
X144519640Y-67825865D01*
X155147882Y-67825865D01*
X155251339Y-68076252D01*
X155442741Y-68267987D01*
X155692946Y-68371882D01*
X155963865Y-68372118D01*
X156214252Y-68268661D01*
X156405987Y-68077259D01*
X156509882Y-67827054D01*
X156510002Y-67688963D01*
X158499891Y-67688963D01*
X158595752Y-67920966D01*
X158773101Y-68098624D01*
X159004936Y-68194890D01*
X159255963Y-68195109D01*
X159487966Y-68099248D01*
X159665624Y-67921899D01*
X159761890Y-67690064D01*
X159762109Y-67439037D01*
X159666248Y-67207034D01*
X159488899Y-67029376D01*
X159257064Y-66933110D01*
X159006037Y-66932891D01*
X158774034Y-67028752D01*
X158596376Y-67206101D01*
X158500110Y-67437936D01*
X158499891Y-67688963D01*
X156510002Y-67688963D01*
X156510118Y-67556135D01*
X156406661Y-67305748D01*
X156215259Y-67114013D01*
X155965054Y-67010118D01*
X155694135Y-67009882D01*
X155443748Y-67113339D01*
X155252013Y-67304741D01*
X155148118Y-67554946D01*
X155147882Y-67825865D01*
X144519640Y-67825865D01*
X144571882Y-67700054D01*
X144572118Y-67429135D01*
X144468661Y-67178748D01*
X144277259Y-66987013D01*
X144027054Y-66883118D01*
X143756135Y-66882882D01*
X143505748Y-66986339D01*
X143314013Y-67177741D01*
X143210118Y-67427946D01*
X143209882Y-67698865D01*
X133770541Y-67698865D01*
X133731000Y-67691000D01*
X133390795Y-67758671D01*
X133102382Y-67951382D01*
X132340382Y-68713382D01*
X132147671Y-69001794D01*
X132080000Y-69342000D01*
X132080000Y-73743839D01*
X130348889Y-72012728D01*
X130349005Y-71879361D01*
X130245548Y-71628974D01*
X130066319Y-71449433D01*
X130093882Y-71383054D01*
X130094118Y-71112135D01*
X129990661Y-70861748D01*
X129881370Y-70752267D01*
X130052252Y-70681661D01*
X130243987Y-70490259D01*
X130347882Y-70240054D01*
X130348118Y-69969135D01*
X130244661Y-69718748D01*
X130053259Y-69527013D01*
X129850172Y-69442683D01*
X129925252Y-69411661D01*
X130116987Y-69220259D01*
X130220882Y-68970054D01*
X130221118Y-68699135D01*
X130117661Y-68448748D01*
X129926259Y-68257013D01*
X129676054Y-68153118D01*
X129405135Y-68152882D01*
X129154748Y-68256339D01*
X128963013Y-68447741D01*
X128859118Y-68697946D01*
X128858882Y-68968865D01*
X128962339Y-69219252D01*
X129153741Y-69410987D01*
X129356828Y-69495317D01*
X129281748Y-69526339D01*
X129090013Y-69717741D01*
X128986118Y-69967946D01*
X128985882Y-70238865D01*
X129089339Y-70489252D01*
X129198630Y-70598733D01*
X129027748Y-70669339D01*
X128836013Y-70860741D01*
X128732118Y-71110946D01*
X128731882Y-71381865D01*
X128835339Y-71632252D01*
X129014568Y-71811793D01*
X128987005Y-71878172D01*
X128986769Y-72149091D01*
X129090226Y-72399478D01*
X129146253Y-72455603D01*
X129090013Y-72511745D01*
X128986118Y-72761950D01*
X128985882Y-73032869D01*
X129089339Y-73283256D01*
X129280741Y-73474991D01*
X129481611Y-73558400D01*
X127945065Y-73558400D01*
X127535057Y-73148392D01*
X127535173Y-73015025D01*
X127431716Y-72764638D01*
X127240314Y-72572903D01*
X126990109Y-72469008D01*
X126719190Y-72468772D01*
X126468803Y-72572229D01*
X126277068Y-72763631D01*
X126173173Y-73013836D01*
X126172937Y-73284755D01*
X126276394Y-73535142D01*
X126467796Y-73726877D01*
X126718001Y-73830772D01*
X126852554Y-73830889D01*
X127403915Y-74382250D01*
X127560482Y-74486864D01*
X127745165Y-74523600D01*
X129035871Y-74523600D01*
X129019118Y-74563946D01*
X129018882Y-74834865D01*
X129122339Y-75085252D01*
X129178199Y-75141209D01*
X129082242Y-75236999D01*
X128978347Y-75487204D01*
X128978111Y-75758123D01*
X129081568Y-76008510D01*
X129112372Y-76039367D01*
X129019118Y-76263946D01*
X129018882Y-76534865D01*
X129080794Y-76684704D01*
X128943603Y-76821656D01*
X128839708Y-77071861D01*
X128839472Y-77342780D01*
X128942929Y-77593167D01*
X129134331Y-77784902D01*
X129384536Y-77888797D01*
X129655455Y-77889033D01*
X129905842Y-77785576D01*
X130097577Y-77594174D01*
X130201472Y-77343969D01*
X130201708Y-77073050D01*
X130139796Y-76923211D01*
X130276987Y-76786259D01*
X130327367Y-76664931D01*
X130327367Y-83416867D01*
X129205002Y-82294502D01*
X129205118Y-82161135D01*
X129101661Y-81910748D01*
X128910259Y-81719013D01*
X128660054Y-81615118D01*
X128389135Y-81614882D01*
X128138748Y-81718339D01*
X127947013Y-81909741D01*
X127843118Y-82159946D01*
X127842882Y-82430865D01*
X127946339Y-82681252D01*
X128137741Y-82872987D01*
X128387946Y-82976882D01*
X128522499Y-82976999D01*
X129946357Y-84400857D01*
X129946357Y-84968374D01*
X129731589Y-84879194D01*
X129727502Y-84879190D01*
X129727644Y-84715661D01*
X129624187Y-84465274D01*
X129432785Y-84273539D01*
X129182580Y-84169644D01*
X129048027Y-84169527D01*
X127976250Y-83097750D01*
X127819683Y-82993136D01*
X127635000Y-82956400D01*
X125984000Y-82956400D01*
X125799317Y-82993136D01*
X125642750Y-83097750D01*
X124164749Y-84575751D01*
X124060135Y-84732318D01*
X124023399Y-84917001D01*
X124023399Y-85571606D01*
X123820748Y-85655339D01*
X123629013Y-85846741D01*
X123525118Y-86096946D01*
X123524882Y-86367865D01*
X123628339Y-86618252D01*
X123819741Y-86809987D01*
X124069946Y-86913882D01*
X124340865Y-86914118D01*
X124591252Y-86810661D01*
X124728576Y-86673575D01*
X125163305Y-86673575D01*
X125266762Y-86923962D01*
X125458164Y-87115697D01*
X125708369Y-87219592D01*
X125979288Y-87219828D01*
X126229675Y-87116371D01*
X126258027Y-87088068D01*
X126247697Y-87112946D01*
X126247461Y-87383865D01*
X126350918Y-87634252D01*
X126542320Y-87825987D01*
X126792525Y-87929882D01*
X127063444Y-87930118D01*
X127313831Y-87826661D01*
X127505566Y-87635259D01*
X127609461Y-87385054D01*
X127609697Y-87114135D01*
X127506240Y-86863748D01*
X127314838Y-86672013D01*
X127286508Y-86660249D01*
X127301472Y-86624211D01*
X127301708Y-86353292D01*
X127198251Y-86102905D01*
X127006849Y-85911170D01*
X126756644Y-85807275D01*
X126485725Y-85807039D01*
X126235338Y-85910496D01*
X126197729Y-85948040D01*
X125980477Y-85857828D01*
X125709558Y-85857592D01*
X125459171Y-85961049D01*
X125267436Y-86152451D01*
X125163541Y-86402656D01*
X125163305Y-86673575D01*
X124728576Y-86673575D01*
X124782987Y-86619259D01*
X124886882Y-86369054D01*
X124887016Y-86214734D01*
X124951863Y-86117684D01*
X124958806Y-86082780D01*
X124988600Y-85933001D01*
X124988599Y-85932996D01*
X124988599Y-85116901D01*
X126183900Y-83921600D01*
X127435100Y-83921600D01*
X128365524Y-84852024D01*
X128365408Y-84985391D01*
X128414505Y-85104215D01*
X128229568Y-85180629D01*
X128037833Y-85372031D01*
X127933938Y-85622236D01*
X127933702Y-85893155D01*
X128037159Y-86143542D01*
X128228561Y-86335277D01*
X128478766Y-86439172D01*
X128749685Y-86439408D01*
X129000072Y-86335951D01*
X129191807Y-86144549D01*
X129199134Y-86126903D01*
X129209276Y-86137063D01*
X129459481Y-86240958D01*
X129730400Y-86241194D01*
X129946357Y-86151963D01*
X129946357Y-89681006D01*
X129877661Y-89514748D01*
X129686259Y-89323013D01*
X129436054Y-89219118D01*
X129165135Y-89218882D01*
X128914748Y-89322339D01*
X128723013Y-89513741D01*
X128619118Y-89763946D01*
X128618882Y-90034865D01*
X128722339Y-90285252D01*
X128913741Y-90476987D01*
X129163946Y-90580882D01*
X129434865Y-90581118D01*
X129685252Y-90477661D01*
X129876987Y-90286259D01*
X129946357Y-90119199D01*
X129946357Y-91185957D01*
X129946400Y-91186173D01*
X129946400Y-91371494D01*
X129983136Y-91556177D01*
X130087750Y-91712744D01*
X131745406Y-93370400D01*
X129917515Y-93370400D01*
X122673809Y-86126693D01*
X122778455Y-86083454D01*
X122970190Y-85892052D01*
X123074085Y-85641847D01*
X123074321Y-85370928D01*
X122970864Y-85120541D01*
X122779462Y-84928806D01*
X122529257Y-84824911D01*
X122258338Y-84824675D01*
X122007951Y-84928132D01*
X121816216Y-85119534D01*
X121772332Y-85225216D01*
X121640611Y-85093495D01*
X121640611Y-78279045D01*
X125458488Y-78279045D01*
X125561945Y-78529432D01*
X125753347Y-78721167D01*
X126003552Y-78825062D01*
X126274471Y-78825298D01*
X126524858Y-78721841D01*
X126709480Y-78537540D01*
X126729527Y-78545864D01*
X127000446Y-78546100D01*
X127250833Y-78442643D01*
X127442568Y-78251241D01*
X127546463Y-78001036D01*
X127546699Y-77730117D01*
X127443242Y-77479730D01*
X127317484Y-77353753D01*
X127322987Y-77348259D01*
X127426882Y-77098054D01*
X127427118Y-76827135D01*
X127323661Y-76576748D01*
X127132259Y-76385013D01*
X126882054Y-76281118D01*
X126611135Y-76280882D01*
X126360748Y-76384339D01*
X126169013Y-76575741D01*
X126065118Y-76825946D01*
X126064882Y-77096865D01*
X126168339Y-77347252D01*
X126290218Y-77469343D01*
X126275660Y-77463298D01*
X126004741Y-77463062D01*
X125754354Y-77566519D01*
X125562619Y-77757921D01*
X125458724Y-78008126D01*
X125458488Y-78279045D01*
X121640611Y-78279045D01*
X121640611Y-77731873D01*
X122056472Y-77731873D01*
X122159929Y-77982260D01*
X122351331Y-78173995D01*
X122601536Y-78277890D01*
X122872455Y-78278126D01*
X123122842Y-78174669D01*
X123314577Y-77983267D01*
X123418472Y-77733062D01*
X123418708Y-77462143D01*
X123315251Y-77211756D01*
X123123849Y-77020021D01*
X122873644Y-76916126D01*
X122602725Y-76915890D01*
X122352338Y-77019347D01*
X122160603Y-77210749D01*
X122056708Y-77460954D01*
X122056472Y-77731873D01*
X121640611Y-77731873D01*
X121640611Y-74367889D01*
X128779490Y-67229010D01*
X138711518Y-67229010D01*
X138805741Y-67323397D01*
X139055946Y-67427292D01*
X139326865Y-67427528D01*
X139577252Y-67324071D01*
X139768987Y-67132669D01*
X139872882Y-66882464D01*
X139873118Y-66611545D01*
X139769661Y-66361158D01*
X139578259Y-66169423D01*
X139328054Y-66065528D01*
X139057135Y-66065292D01*
X138806748Y-66168749D01*
X138711522Y-66263810D01*
X138073081Y-66263810D01*
X138233683Y-66231864D01*
X138390250Y-66127250D01*
X140788899Y-63728600D01*
X164338006Y-63728600D01*
X164522689Y-63691864D01*
X164679256Y-63587250D01*
X166167455Y-62099051D01*
X166240963Y-62099115D01*
X166472966Y-62003254D01*
X166650624Y-61825905D01*
X166746890Y-61594070D01*
X166747109Y-61343043D01*
X166651248Y-61111040D01*
X166473899Y-60933382D01*
X166242064Y-60837116D01*
X165991037Y-60836897D01*
X165759034Y-60932758D01*
X165581376Y-61110107D01*
X165559687Y-61162341D01*
X165457899Y-61060376D01*
X165226064Y-60964110D01*
X164975037Y-60963891D01*
X164743034Y-61059752D01*
X164565376Y-61237101D01*
X164469110Y-61468936D01*
X164469045Y-61543456D01*
X163630111Y-62382389D01*
X153410663Y-62382389D01*
X153630247Y-62162805D01*
X153630250Y-62162803D01*
X153734864Y-62006236D01*
X153757632Y-61891777D01*
X153823624Y-61825899D01*
X153919890Y-61594064D01*
X153920109Y-61343037D01*
X153824248Y-61111034D01*
X153646899Y-60933376D01*
X153415064Y-60837110D01*
X153164037Y-60836891D01*
X152932034Y-60932752D01*
X152827898Y-61036707D01*
X152653064Y-60964110D01*
X152402037Y-60963891D01*
X152170034Y-61059752D01*
X152117294Y-61112400D01*
X137287000Y-61112400D01*
X137102317Y-61149136D01*
X136945750Y-61253750D01*
X136045439Y-62154061D01*
X136062882Y-62112054D01*
X136063118Y-61841135D01*
X135959661Y-61590748D01*
X135768259Y-61399013D01*
X135518054Y-61295118D01*
X135247135Y-61294882D01*
X134996748Y-61398339D01*
X134805013Y-61589741D01*
X134758700Y-61701274D01*
X133978209Y-62481765D01*
X129620565Y-62481765D01*
X130151730Y-61950600D01*
X131091518Y-61950600D01*
X131185741Y-62044987D01*
X131435946Y-62148882D01*
X131706865Y-62149118D01*
X131957252Y-62045661D01*
X132148987Y-61854259D01*
X132252882Y-61604054D01*
X132253118Y-61333135D01*
X132149661Y-61082748D01*
X131958259Y-60891013D01*
X131708054Y-60787118D01*
X131437135Y-60786882D01*
X131186748Y-60890339D01*
X131091522Y-60985400D01*
X129951830Y-60985400D01*
X129767147Y-61022136D01*
X129610580Y-61126750D01*
X128625600Y-62111730D01*
X128625600Y-60932482D01*
X128719987Y-60838259D01*
X128823882Y-60588054D01*
X128824118Y-60317135D01*
X128720661Y-60066748D01*
X128529259Y-59875013D01*
X128279054Y-59771118D01*
X128008135Y-59770882D01*
X127757748Y-59874339D01*
X127566013Y-60065741D01*
X127462118Y-60315946D01*
X127461882Y-60586865D01*
X127565339Y-60837252D01*
X127660400Y-60932478D01*
X127660400Y-62538100D01*
X124499750Y-65698750D01*
X124395136Y-65855317D01*
X124358400Y-66040000D01*
X124358400Y-66983101D01*
X122456439Y-68885062D01*
X122473882Y-68843054D01*
X122474118Y-68572135D01*
X122370661Y-68321748D01*
X122179259Y-68130013D01*
X121929054Y-68026118D01*
X121658135Y-68025882D01*
X121407748Y-68129339D01*
X121216013Y-68320741D01*
X121112118Y-68570946D01*
X121111882Y-68841865D01*
X121215339Y-69092252D01*
X121406741Y-69283987D01*
X121656946Y-69387882D01*
X121927865Y-69388118D01*
X121971350Y-69370151D01*
X120562761Y-70778739D01*
X120562728Y-70778761D01*
X120497578Y-70843911D01*
X120497578Y-70709773D01*
X120497579Y-70709768D01*
X120460842Y-70525085D01*
X120356228Y-70368518D01*
X119184307Y-69196597D01*
X119237739Y-68927980D01*
X119163107Y-68552782D01*
X118950575Y-68234704D01*
X118632497Y-68022172D01*
X118257299Y-67947540D01*
X117708701Y-67947540D01*
X117585187Y-67972109D01*
X117660069Y-67897227D01*
X117708701Y-67906900D01*
X118257299Y-67906900D01*
X118632497Y-67832268D01*
X118950575Y-67619736D01*
X119163107Y-67301658D01*
X119237739Y-66926460D01*
X119163107Y-66551262D01*
X118950575Y-66233184D01*
X118863295Y-66174865D01*
X120984882Y-66174865D01*
X121088339Y-66425252D01*
X121279741Y-66616987D01*
X121529946Y-66720882D01*
X121800865Y-66721118D01*
X122051252Y-66617661D01*
X122242987Y-66426259D01*
X122346882Y-66176054D01*
X122347118Y-65905135D01*
X122243661Y-65654748D01*
X122148600Y-65559522D01*
X122148600Y-61794900D01*
X125859540Y-58083960D01*
X125859540Y-58166002D01*
X126018288Y-58166002D01*
X125859540Y-58324750D01*
X125859540Y-59014940D01*
X125956213Y-59248329D01*
X126134842Y-59426957D01*
X126368231Y-59523630D01*
X126808230Y-59523630D01*
X126966980Y-59364880D01*
X126966980Y-58166000D01*
X126946980Y-58166000D01*
X126946980Y-57912000D01*
X126966980Y-57912000D01*
X126966980Y-57892000D01*
X127220980Y-57892000D01*
X127220980Y-57912000D01*
X127240980Y-57912000D01*
X127240980Y-58166000D01*
X127220980Y-58166000D01*
X127220980Y-59364880D01*
X127379730Y-59523630D01*
X127819729Y-59523630D01*
X128053118Y-59426957D01*
X128231747Y-59248329D01*
X128328420Y-59014940D01*
X128328420Y-58896119D01*
X128402224Y-59006575D01*
X128720302Y-59219107D01*
X129095500Y-59293739D01*
X129470698Y-59219107D01*
X129788776Y-59006575D01*
X130001308Y-58688497D01*
X130075940Y-58313299D01*
X130075940Y-57764701D01*
X130116580Y-57764701D01*
X130116580Y-58313299D01*
X130191212Y-58688497D01*
X130403744Y-59006575D01*
X130721822Y-59219107D01*
X131097020Y-59293739D01*
X131472218Y-59219107D01*
X131790296Y-59006575D01*
X132002828Y-58688497D01*
X132077460Y-58313299D01*
X132077460Y-57764701D01*
X132002828Y-57389503D01*
X131790296Y-57071425D01*
X131472218Y-56858893D01*
X131097020Y-56784261D01*
X130721822Y-56858893D01*
X130403744Y-57071425D01*
X130191212Y-57389503D01*
X130116580Y-57764701D01*
X130075940Y-57764701D01*
X130001308Y-57389503D01*
X129788776Y-57071425D01*
X129470698Y-56858893D01*
X129095500Y-56784261D01*
X128720302Y-56858893D01*
X128402224Y-57071425D01*
X128328420Y-57181881D01*
X128328420Y-57063060D01*
X128231747Y-56829671D01*
X128053118Y-56651043D01*
X127969965Y-56616600D01*
X134045450Y-56616600D01*
X134461811Y-57032960D01*
X134404244Y-57071425D01*
X134191712Y-57389503D01*
X134117080Y-57764701D01*
X134117080Y-58313299D01*
X134129157Y-58374014D01*
X134064374Y-58373958D01*
X134076440Y-58313299D01*
X134076440Y-57764701D01*
X134001808Y-57389503D01*
X133789276Y-57071425D01*
X133471198Y-56858893D01*
X133096000Y-56784261D01*
X132720802Y-56858893D01*
X132402724Y-57071425D01*
X132190192Y-57389503D01*
X132115560Y-57764701D01*
X132115560Y-58313299D01*
X132190192Y-58688497D01*
X132402724Y-59006575D01*
X132720802Y-59219107D01*
X133096000Y-59293739D01*
X133445112Y-59224296D01*
X133534343Y-59440252D01*
X133725745Y-59631987D01*
X133975950Y-59735882D01*
X134246869Y-59736118D01*
X134497256Y-59632661D01*
X134688991Y-59441259D01*
X134776742Y-59229932D01*
X135097520Y-59293739D01*
X135472718Y-59219107D01*
X135790796Y-59006575D01*
X136003328Y-58688497D01*
X136077960Y-58313299D01*
X136077960Y-57764701D01*
X136118600Y-57764701D01*
X136118600Y-58313299D01*
X136193232Y-58688497D01*
X136405764Y-59006575D01*
X136723842Y-59219107D01*
X137099040Y-59293739D01*
X137474238Y-59219107D01*
X137792316Y-59006575D01*
X138004848Y-58688497D01*
X138079480Y-58313299D01*
X138079480Y-57764701D01*
X138004848Y-57389503D01*
X137792316Y-57071425D01*
X137474238Y-56858893D01*
X137099040Y-56784261D01*
X136723842Y-56858893D01*
X136405764Y-57071425D01*
X136193232Y-57389503D01*
X136118600Y-57764701D01*
X136077960Y-57764701D01*
X136003328Y-57389503D01*
X135790796Y-57071425D01*
X135567385Y-56922147D01*
X135543384Y-56801487D01*
X135438770Y-56644920D01*
X135438767Y-56644918D01*
X134586600Y-55792750D01*
X134430033Y-55688136D01*
X134245350Y-55651400D01*
X127127000Y-55651400D01*
X126942317Y-55688136D01*
X126785750Y-55792750D01*
X121324750Y-61253750D01*
X121220136Y-61410317D01*
X121183400Y-61595000D01*
X121183400Y-65559518D01*
X121089013Y-65653741D01*
X120985118Y-65903946D01*
X120984882Y-66174865D01*
X118863295Y-66174865D01*
X118632497Y-66020652D01*
X118465600Y-65987454D01*
X118465600Y-65858900D01*
X120016498Y-64308002D01*
X120149865Y-64308118D01*
X120400252Y-64204661D01*
X120591987Y-64013259D01*
X120695882Y-63763054D01*
X120696118Y-63492135D01*
X120592661Y-63241748D01*
X120401259Y-63050013D01*
X120151054Y-62946118D01*
X119880135Y-62945882D01*
X119629748Y-63049339D01*
X119438013Y-63240741D01*
X119334118Y-63490946D01*
X119334001Y-63625499D01*
X117641750Y-65317750D01*
X117537136Y-65474317D01*
X117500400Y-65659000D01*
X117500400Y-65987454D01*
X117333503Y-66020652D01*
X117015425Y-66233184D01*
X116802893Y-66551262D01*
X116728261Y-66926460D01*
X116745934Y-67015310D01*
X115755987Y-68005257D01*
X115618336Y-68211266D01*
X115570000Y-68454270D01*
X115570000Y-89916390D01*
X115618336Y-90159394D01*
X115755987Y-90365403D01*
X116766234Y-91375650D01*
X116748561Y-91464500D01*
X116823193Y-91839698D01*
X117035725Y-92157776D01*
X117353803Y-92370308D01*
X117729001Y-92444940D01*
X118277599Y-92444940D01*
X118652797Y-92370308D01*
X118970875Y-92157776D01*
X119183407Y-91839698D01*
X119258039Y-91464500D01*
X119183407Y-91089302D01*
X118970875Y-90771224D01*
X118721750Y-90604765D01*
X118796743Y-90585259D01*
X119184868Y-90291937D01*
X119431199Y-89872413D01*
X119446395Y-89780501D01*
X119321657Y-89589980D01*
X118130300Y-89589980D01*
X118130300Y-89609980D01*
X117876300Y-89609980D01*
X117876300Y-89589980D01*
X117856300Y-89589980D01*
X117856300Y-89335980D01*
X117876300Y-89335980D01*
X117876300Y-89315980D01*
X118130300Y-89315980D01*
X118130300Y-89335980D01*
X119321657Y-89335980D01*
X119446395Y-89145459D01*
X119431199Y-89053547D01*
X119184868Y-88634023D01*
X118796743Y-88340701D01*
X118724487Y-88321907D01*
X118970875Y-88157276D01*
X119183407Y-87839198D01*
X119258039Y-87464000D01*
X119183407Y-87088802D01*
X118970875Y-86770724D01*
X118652797Y-86558192D01*
X118277599Y-86483560D01*
X117729001Y-86483560D01*
X117353803Y-86558192D01*
X117035725Y-86770724D01*
X116840000Y-87063648D01*
X116840000Y-85860292D01*
X117035725Y-86153216D01*
X117353803Y-86365748D01*
X117729001Y-86440380D01*
X118277599Y-86440380D01*
X118652797Y-86365748D01*
X118970875Y-86153216D01*
X119151367Y-85883089D01*
X119151367Y-85924671D01*
X119188103Y-86109354D01*
X119292717Y-86265921D01*
X121834938Y-88808142D01*
X121651908Y-88990854D01*
X121548013Y-89241059D01*
X121547777Y-89511978D01*
X121651234Y-89762365D01*
X121817431Y-89928851D01*
X121782810Y-90012228D01*
X121782574Y-90283147D01*
X121886031Y-90533534D01*
X121928605Y-90576183D01*
X121902135Y-90602607D01*
X121798240Y-90852812D01*
X121798004Y-91123731D01*
X121901461Y-91374118D01*
X121914102Y-91386781D01*
X121812906Y-91630486D01*
X121812670Y-91901405D01*
X121916127Y-92151792D01*
X121973015Y-92208779D01*
X121874118Y-92446946D01*
X121873882Y-92717865D01*
X121977339Y-92968252D01*
X122168741Y-93159987D01*
X122418946Y-93263882D01*
X122689865Y-93264118D01*
X122940252Y-93160661D01*
X123002155Y-93098865D01*
X123397882Y-93098865D01*
X123501339Y-93349252D01*
X123692741Y-93540987D01*
X123942946Y-93644882D01*
X124213865Y-93645118D01*
X124464252Y-93541661D01*
X124655987Y-93350259D01*
X124759882Y-93100054D01*
X124760118Y-92829135D01*
X124656661Y-92578748D01*
X124465259Y-92387013D01*
X124215054Y-92283118D01*
X123944135Y-92282882D01*
X123693748Y-92386339D01*
X123502013Y-92577741D01*
X123398118Y-92827946D01*
X123397882Y-93098865D01*
X123002155Y-93098865D01*
X123131987Y-92969259D01*
X123235882Y-92719054D01*
X123236118Y-92448135D01*
X123132661Y-92197748D01*
X123075773Y-92140761D01*
X123174670Y-91902594D01*
X123174906Y-91631675D01*
X123071449Y-91381288D01*
X123058808Y-91368625D01*
X123160004Y-91124920D01*
X123160240Y-90854001D01*
X123056783Y-90603614D01*
X123014209Y-90560965D01*
X123040679Y-90534541D01*
X123144574Y-90284336D01*
X123144719Y-90117922D01*
X125247400Y-92220603D01*
X125247400Y-96221556D01*
X125284136Y-96406239D01*
X125388750Y-96562806D01*
X126387344Y-97561400D01*
X122960453Y-97561400D01*
X122775770Y-97598136D01*
X122619203Y-97702750D01*
X122065092Y-98256861D01*
X121931725Y-98256745D01*
X121681338Y-98360202D01*
X121489603Y-98551604D01*
X121385708Y-98801809D01*
X121385472Y-99072728D01*
X121488929Y-99323115D01*
X121680331Y-99514850D01*
X121930536Y-99618745D01*
X122201455Y-99618981D01*
X122451842Y-99515524D01*
X122643577Y-99324122D01*
X122671190Y-99257624D01*
X122699531Y-99326216D01*
X122890933Y-99517951D01*
X123141138Y-99621846D01*
X123412057Y-99622082D01*
X123662444Y-99518625D01*
X123682048Y-99499055D01*
X123819741Y-99636987D01*
X124069946Y-99740882D01*
X124340865Y-99741118D01*
X124591252Y-99637661D01*
X124686478Y-99542600D01*
X127197676Y-99542600D01*
X127148713Y-99660516D01*
X127148477Y-99931435D01*
X127251934Y-100181822D01*
X127443336Y-100373557D01*
X127693541Y-100477452D01*
X127964460Y-100477688D01*
X128206038Y-100377871D01*
X128244288Y-100470443D01*
X128435690Y-100662178D01*
X128685895Y-100766073D01*
X128956814Y-100766309D01*
X129207201Y-100662852D01*
X129376082Y-100494265D01*
X129407749Y-100525987D01*
X129657954Y-100629882D01*
X129928873Y-100630118D01*
X130071333Y-100571255D01*
X130171755Y-100671852D01*
X130421960Y-100775747D01*
X130692879Y-100775983D01*
X130943266Y-100672526D01*
X131135001Y-100481124D01*
X131135470Y-100479995D01*
X131180512Y-100525116D01*
X131430717Y-100629011D01*
X131701636Y-100629247D01*
X131952023Y-100525790D01*
X132143758Y-100334388D01*
X132247653Y-100084183D01*
X132247889Y-99813264D01*
X132144432Y-99562877D01*
X132124190Y-99542600D01*
X133974494Y-99542600D01*
X135103153Y-100671260D01*
X135259720Y-100775874D01*
X135444403Y-100812611D01*
X135444408Y-100812610D01*
X137162037Y-100812610D01*
X137114702Y-100926604D01*
X137114585Y-101061157D01*
X135534342Y-102641400D01*
X134421574Y-102641400D01*
X134576987Y-102486257D01*
X134680882Y-102236052D01*
X134681118Y-101965133D01*
X134577661Y-101714746D01*
X134386259Y-101523011D01*
X134136054Y-101419116D01*
X133865135Y-101418880D01*
X133614748Y-101522337D01*
X133423013Y-101713739D01*
X133319118Y-101963944D01*
X133319001Y-102098497D01*
X133200098Y-102217400D01*
X132880898Y-102217400D01*
X132881118Y-101965135D01*
X132777661Y-101714748D01*
X132586259Y-101523013D01*
X132336054Y-101419118D01*
X132065135Y-101418882D01*
X131814748Y-101522339D01*
X131623013Y-101713741D01*
X131519118Y-101963946D01*
X131518897Y-102217400D01*
X121695900Y-102217400D01*
X121214694Y-101736194D01*
X121214694Y-98352306D01*
X123286449Y-96280551D01*
X123826528Y-96280551D01*
X123929985Y-96530938D01*
X124121387Y-96722673D01*
X124371592Y-96826568D01*
X124642511Y-96826804D01*
X124892898Y-96723347D01*
X125084633Y-96531945D01*
X125188528Y-96281740D01*
X125188764Y-96010821D01*
X125085307Y-95760434D01*
X124893905Y-95568699D01*
X124643700Y-95464804D01*
X124372781Y-95464568D01*
X124122394Y-95568025D01*
X123930659Y-95759427D01*
X123826764Y-96009632D01*
X123826528Y-96280551D01*
X123286449Y-96280551D01*
X124207498Y-95359502D01*
X124340865Y-95359618D01*
X124591252Y-95256161D01*
X124782987Y-95064759D01*
X124886882Y-94814554D01*
X124887118Y-94543635D01*
X124783661Y-94293248D01*
X124592259Y-94101513D01*
X124342054Y-93997618D01*
X124071135Y-93997382D01*
X123873790Y-94078923D01*
X123831161Y-93975752D01*
X123639759Y-93784017D01*
X123389554Y-93680122D01*
X123118635Y-93679886D01*
X122868248Y-93783343D01*
X122676513Y-93974745D01*
X122572618Y-94224950D01*
X122572501Y-94359504D01*
X119800750Y-97131254D01*
X119696136Y-97287821D01*
X119659400Y-97472504D01*
X119659400Y-100597639D01*
X119516054Y-100538116D01*
X119245135Y-100537880D01*
X118994748Y-100641337D01*
X118803013Y-100832739D01*
X118699118Y-101082944D01*
X118699086Y-101119685D01*
X118632497Y-101075192D01*
X118257299Y-101000560D01*
X117708701Y-101000560D01*
X117333503Y-101075192D01*
X117015425Y-101287724D01*
X116802893Y-101605802D01*
X116728261Y-101981000D01*
X116802893Y-102356198D01*
X117015425Y-102674276D01*
X117333503Y-102886808D01*
X117708701Y-102961440D01*
X118257299Y-102961440D01*
X118632497Y-102886808D01*
X118950575Y-102674276D01*
X119163107Y-102356198D01*
X119237739Y-101981000D01*
X119219592Y-101889767D01*
X119243946Y-101899880D01*
X119514865Y-101900116D01*
X119659400Y-101840396D01*
X119659400Y-102235000D01*
X119696136Y-102419683D01*
X119800750Y-102576250D01*
X120689750Y-103465250D01*
X120846317Y-103569864D01*
X121031000Y-103606600D01*
X135734242Y-103606600D01*
X135918925Y-103569864D01*
X136075492Y-103465250D01*
X137797082Y-101743660D01*
X137930449Y-101743776D01*
X138180836Y-101640319D01*
X138372571Y-101448917D01*
X138448934Y-101265017D01*
X138564869Y-101265118D01*
X138815256Y-101161661D01*
X139006991Y-100970259D01*
X139110886Y-100720054D01*
X139111122Y-100449135D01*
X139007665Y-100198748D01*
X138816263Y-100007013D01*
X138805114Y-100002384D01*
X138812498Y-99995000D01*
X138945865Y-99995116D01*
X139196252Y-99891659D01*
X139387987Y-99700257D01*
X139491882Y-99450052D01*
X139492118Y-99179133D01*
X139388661Y-98928746D01*
X139197259Y-98737011D01*
X138947054Y-98633116D01*
X138926337Y-98633098D01*
X139007738Y-98437064D01*
X139007974Y-98166145D01*
X138904517Y-97915758D01*
X138776055Y-97787072D01*
X138870479Y-97692812D01*
X138974374Y-97442607D01*
X138974610Y-97171688D01*
X138929109Y-97061567D01*
X139051282Y-97037265D01*
X139207849Y-96932651D01*
X139492756Y-96647743D01*
X139492759Y-96647741D01*
X139544000Y-96571053D01*
X139544000Y-114544000D01*
X127254920Y-114544000D01*
X127538196Y-114204813D01*
X127677000Y-113761000D01*
X127677000Y-113411000D01*
X126619000Y-113411000D01*
X126619000Y-113431000D01*
X126365000Y-113431000D01*
X126365000Y-113411000D01*
X125307000Y-113411000D01*
X125307000Y-113761000D01*
X125445804Y-114204813D01*
X125729080Y-114544000D01*
X117044911Y-114544000D01*
X116412555Y-114418216D01*
X115914544Y-114085456D01*
X115581784Y-113587445D01*
X115497728Y-113164865D01*
X137621882Y-113164865D01*
X137725339Y-113415252D01*
X137916741Y-113606987D01*
X138166946Y-113710882D01*
X138437865Y-113711118D01*
X138688252Y-113607661D01*
X138879987Y-113416259D01*
X138983882Y-113166054D01*
X138984118Y-112895135D01*
X138880661Y-112644748D01*
X138689259Y-112453013D01*
X138439054Y-112349118D01*
X138168135Y-112348882D01*
X137917748Y-112452339D01*
X137726013Y-112643741D01*
X137622118Y-112893946D01*
X137621882Y-113164865D01*
X115497728Y-113164865D01*
X115456000Y-112955088D01*
X115456000Y-112807000D01*
X125307000Y-112807000D01*
X125307000Y-113157000D01*
X126365000Y-113157000D01*
X126365000Y-111915639D01*
X126619000Y-111915639D01*
X126619000Y-113157000D01*
X127677000Y-113157000D01*
X127677000Y-112807000D01*
X127538196Y-112363187D01*
X127240118Y-112006276D01*
X126828146Y-111790602D01*
X126801744Y-111790197D01*
X126619000Y-111915639D01*
X126365000Y-111915639D01*
X126182256Y-111790197D01*
X126155854Y-111790602D01*
X125743882Y-112006276D01*
X125445804Y-112363187D01*
X125307000Y-112807000D01*
X115456000Y-112807000D01*
X115456000Y-110088701D01*
X116273580Y-110088701D01*
X116273580Y-110637299D01*
X116348212Y-111012497D01*
X116560744Y-111330575D01*
X116878822Y-111543107D01*
X117254020Y-111617739D01*
X117629218Y-111543107D01*
X117947296Y-111330575D01*
X118159828Y-111012497D01*
X118234460Y-110637299D01*
X118234460Y-110088701D01*
X118272560Y-110088701D01*
X118272560Y-110637299D01*
X118347192Y-111012497D01*
X118559724Y-111330575D01*
X118877802Y-111543107D01*
X119253000Y-111617739D01*
X119628198Y-111543107D01*
X119946276Y-111330575D01*
X120158808Y-111012497D01*
X120233440Y-110637299D01*
X120233440Y-110088701D01*
X120274080Y-110088701D01*
X120274080Y-110637299D01*
X120348712Y-111012497D01*
X120561244Y-111330575D01*
X120879322Y-111543107D01*
X121254520Y-111617739D01*
X121629718Y-111543107D01*
X121947796Y-111330575D01*
X122021600Y-111220119D01*
X122021600Y-111338940D01*
X122118273Y-111572329D01*
X122296902Y-111750957D01*
X122530291Y-111847630D01*
X122970290Y-111847630D01*
X123129040Y-111688880D01*
X123129040Y-110490000D01*
X123383040Y-110490000D01*
X123383040Y-111688880D01*
X123541790Y-111847630D01*
X123981789Y-111847630D01*
X124215178Y-111750957D01*
X124393807Y-111572329D01*
X124490480Y-111338940D01*
X124490480Y-110648750D01*
X124452730Y-110611000D01*
X127457000Y-110611000D01*
X127457000Y-111161000D01*
X127595804Y-111604813D01*
X127893882Y-111961724D01*
X128305854Y-112177398D01*
X128332256Y-112177803D01*
X128515000Y-112052361D01*
X128515000Y-110611000D01*
X128769000Y-110611000D01*
X128769000Y-112052361D01*
X128951744Y-112177803D01*
X128978146Y-112177398D01*
X129390118Y-111961724D01*
X129688196Y-111604813D01*
X129827000Y-111161000D01*
X129827000Y-110611000D01*
X128769000Y-110611000D01*
X128515000Y-110611000D01*
X127457000Y-110611000D01*
X124452730Y-110611000D01*
X124331730Y-110490000D01*
X123383040Y-110490000D01*
X123129040Y-110490000D01*
X123109040Y-110490000D01*
X123109040Y-110236000D01*
X123129040Y-110236000D01*
X123129040Y-109037120D01*
X123383040Y-109037120D01*
X123383040Y-110236000D01*
X124331730Y-110236000D01*
X124490480Y-110077250D01*
X124490480Y-109807000D01*
X127457000Y-109807000D01*
X127457000Y-110357000D01*
X128515000Y-110357000D01*
X128515000Y-108915639D01*
X128769000Y-108915639D01*
X128769000Y-110357000D01*
X129713890Y-110357000D01*
X129788741Y-110431981D01*
X130038946Y-110535876D01*
X130309865Y-110536112D01*
X130560252Y-110432655D01*
X130751987Y-110241253D01*
X130855882Y-109991048D01*
X130856118Y-109720129D01*
X130752661Y-109469742D01*
X130573444Y-109290213D01*
X130601011Y-109223825D01*
X130601247Y-108952906D01*
X130497790Y-108702519D01*
X130306388Y-108510784D01*
X130056183Y-108406889D01*
X129785264Y-108406653D01*
X129534877Y-108510110D01*
X129343142Y-108701512D01*
X129247578Y-108931654D01*
X128978146Y-108790602D01*
X128951744Y-108790197D01*
X128769000Y-108915639D01*
X128515000Y-108915639D01*
X128332256Y-108790197D01*
X128305854Y-108790602D01*
X127893882Y-109006276D01*
X127595804Y-109363187D01*
X127457000Y-109807000D01*
X124490480Y-109807000D01*
X124490480Y-109387060D01*
X124393807Y-109153671D01*
X124215178Y-108975043D01*
X123981789Y-108878370D01*
X123541790Y-108878370D01*
X123383040Y-109037120D01*
X123129040Y-109037120D01*
X122970290Y-108878370D01*
X122530291Y-108878370D01*
X122296902Y-108975043D01*
X122118273Y-109153671D01*
X122021600Y-109387060D01*
X122021600Y-109505881D01*
X121947796Y-109395425D01*
X121629718Y-109182893D01*
X121254520Y-109108261D01*
X120879322Y-109182893D01*
X120561244Y-109395425D01*
X120348712Y-109713503D01*
X120274080Y-110088701D01*
X120233440Y-110088701D01*
X120158808Y-109713503D01*
X119946276Y-109395425D01*
X119628198Y-109182893D01*
X119253000Y-109108261D01*
X118877802Y-109182893D01*
X118559724Y-109395425D01*
X118347192Y-109713503D01*
X118272560Y-110088701D01*
X118234460Y-110088701D01*
X118159828Y-109713503D01*
X117947296Y-109395425D01*
X117629218Y-109182893D01*
X117254020Y-109108261D01*
X116878822Y-109182893D01*
X116560744Y-109395425D01*
X116348212Y-109713503D01*
X116273580Y-110088701D01*
X115456000Y-110088701D01*
X115456000Y-108338865D01*
X118063882Y-108338865D01*
X118167339Y-108589252D01*
X118358741Y-108780987D01*
X118608946Y-108884882D01*
X118879865Y-108885118D01*
X119130252Y-108781661D01*
X119321987Y-108590259D01*
X119425882Y-108340054D01*
X119425999Y-108205501D01*
X119820500Y-107811000D01*
X125307000Y-107811000D01*
X125307000Y-108161000D01*
X125445804Y-108604813D01*
X125743882Y-108961724D01*
X126155854Y-109177398D01*
X126182256Y-109177803D01*
X126365000Y-109052361D01*
X126365000Y-107811000D01*
X126619000Y-107811000D01*
X126619000Y-109052361D01*
X126801744Y-109177803D01*
X126828146Y-109177398D01*
X127240118Y-108961724D01*
X127538196Y-108604813D01*
X127677000Y-108161000D01*
X127677000Y-107811000D01*
X126619000Y-107811000D01*
X126365000Y-107811000D01*
X125307000Y-107811000D01*
X119820500Y-107811000D01*
X120424500Y-107207000D01*
X125307000Y-107207000D01*
X125307000Y-107557000D01*
X126365000Y-107557000D01*
X126365000Y-106315639D01*
X126619000Y-106315639D01*
X126619000Y-107557000D01*
X127677000Y-107557000D01*
X127677000Y-107403611D01*
X127879946Y-107487882D01*
X128150865Y-107488118D01*
X128401252Y-107384661D01*
X128592987Y-107193259D01*
X128696882Y-106943054D01*
X128697118Y-106672135D01*
X128593661Y-106421748D01*
X128402259Y-106230013D01*
X128152054Y-106126118D01*
X127881135Y-106125882D01*
X127630748Y-106229339D01*
X127439013Y-106420741D01*
X127376975Y-106570145D01*
X127240118Y-106406276D01*
X126828146Y-106190602D01*
X126801744Y-106190197D01*
X126619000Y-106315639D01*
X126365000Y-106315639D01*
X126182256Y-106190197D01*
X126155854Y-106190602D01*
X125743882Y-106406276D01*
X125445804Y-106763187D01*
X125307000Y-107207000D01*
X120424500Y-107207000D01*
X122086635Y-105544865D01*
X123778878Y-105544865D01*
X123882335Y-105795252D01*
X124073737Y-105986987D01*
X124323942Y-106090882D01*
X124594861Y-106091118D01*
X124845248Y-105987661D01*
X125036983Y-105796259D01*
X125140878Y-105546054D01*
X125140882Y-105541119D01*
X125144861Y-105541122D01*
X125395248Y-105437665D01*
X125586983Y-105246263D01*
X125658124Y-105074938D01*
X125864865Y-105075118D01*
X126115252Y-104971661D01*
X126306987Y-104780259D01*
X126410882Y-104530054D01*
X126411118Y-104259135D01*
X126307661Y-104008748D01*
X126116259Y-103817013D01*
X125866054Y-103713118D01*
X125595135Y-103712882D01*
X125344748Y-103816339D01*
X125153013Y-104007741D01*
X125081872Y-104179066D01*
X124875131Y-104178886D01*
X124624744Y-104282343D01*
X124433009Y-104473745D01*
X124329114Y-104723950D01*
X124329110Y-104728885D01*
X124325131Y-104728882D01*
X124074744Y-104832339D01*
X123883009Y-105023741D01*
X123779114Y-105273946D01*
X123778878Y-105544865D01*
X122086635Y-105544865D01*
X122759690Y-104871810D01*
X122836518Y-104871810D01*
X122930741Y-104966197D01*
X123180946Y-105070092D01*
X123451865Y-105070328D01*
X123702252Y-104966871D01*
X123893987Y-104775469D01*
X123997882Y-104525264D01*
X123998118Y-104254345D01*
X123894661Y-104003958D01*
X123703259Y-103812223D01*
X123453054Y-103708328D01*
X123182135Y-103708092D01*
X122931748Y-103811549D01*
X122836522Y-103906610D01*
X122559795Y-103906610D01*
X122559790Y-103906609D01*
X122375107Y-103943346D01*
X122218540Y-104047960D01*
X119404640Y-106861860D01*
X119467630Y-106709789D01*
X119467630Y-106269790D01*
X119308880Y-106111040D01*
X118110000Y-106111040D01*
X118110000Y-107059730D01*
X118268750Y-107218480D01*
X118958940Y-107218480D01*
X119111009Y-107155491D01*
X118743502Y-107522998D01*
X118610135Y-107522882D01*
X118359748Y-107626339D01*
X118168013Y-107817741D01*
X118064118Y-108067946D01*
X118063882Y-108338865D01*
X115456000Y-108338865D01*
X115456000Y-106269790D01*
X116498370Y-106269790D01*
X116498370Y-106709789D01*
X116595043Y-106943178D01*
X116773671Y-107121807D01*
X117007060Y-107218480D01*
X117697250Y-107218480D01*
X117856000Y-107059730D01*
X117856000Y-106111040D01*
X116657120Y-106111040D01*
X116498370Y-106269790D01*
X115456000Y-106269790D01*
X115456000Y-105258291D01*
X116498370Y-105258291D01*
X116498370Y-105698290D01*
X116657120Y-105857040D01*
X117856000Y-105857040D01*
X117856000Y-105837040D01*
X118110000Y-105837040D01*
X118110000Y-105857040D01*
X119308880Y-105857040D01*
X119467630Y-105698290D01*
X119467630Y-105258291D01*
X119370957Y-105024902D01*
X119192329Y-104846273D01*
X118958940Y-104749600D01*
X118840119Y-104749600D01*
X118950575Y-104675796D01*
X119163107Y-104357718D01*
X119237739Y-103982520D01*
X119163107Y-103607322D01*
X118950575Y-103289244D01*
X118632497Y-103076712D01*
X118257299Y-103002080D01*
X117708701Y-103002080D01*
X117333503Y-103076712D01*
X117015425Y-103289244D01*
X116802893Y-103607322D01*
X116728261Y-103982520D01*
X116802893Y-104357718D01*
X117015425Y-104675796D01*
X117125881Y-104749600D01*
X117007060Y-104749600D01*
X116773671Y-104846273D01*
X116595043Y-105024902D01*
X116498370Y-105258291D01*
X115456000Y-105258291D01*
X115456000Y-92866580D01*
X116765206Y-92866580D01*
X116765206Y-94065460D01*
X116791773Y-94206650D01*
X116875216Y-94336325D01*
X117002536Y-94423319D01*
X117153670Y-94453924D01*
X118852930Y-94453924D01*
X118994120Y-94427357D01*
X119123795Y-94343914D01*
X119210789Y-94216594D01*
X119241394Y-94065460D01*
X119241394Y-92866580D01*
X119214827Y-92725390D01*
X119131384Y-92595715D01*
X119004064Y-92508721D01*
X118852930Y-92478116D01*
X117153670Y-92478116D01*
X117012480Y-92504683D01*
X116882805Y-92588126D01*
X116795811Y-92715446D01*
X116765206Y-92866580D01*
X115456000Y-92866580D01*
X115456000Y-59651571D01*
X118064856Y-59651571D01*
X118191102Y-59957109D01*
X118424662Y-60191077D01*
X118729979Y-60317855D01*
X119060571Y-60318144D01*
X119366109Y-60191898D01*
X119600077Y-59958338D01*
X119726855Y-59653021D01*
X119726856Y-59651571D01*
X121064856Y-59651571D01*
X121191102Y-59957109D01*
X121424662Y-60191077D01*
X121729979Y-60317855D01*
X122060571Y-60318144D01*
X122366109Y-60191898D01*
X122600077Y-59958338D01*
X122726855Y-59653021D01*
X122727144Y-59322429D01*
X122600898Y-59016891D01*
X122367338Y-58782923D01*
X122352321Y-58776687D01*
X122432252Y-58743661D01*
X122623987Y-58552259D01*
X122727882Y-58302054D01*
X122728118Y-58031135D01*
X122624661Y-57780748D01*
X122433259Y-57589013D01*
X122183054Y-57485118D01*
X121912135Y-57484882D01*
X121661748Y-57588339D01*
X121470013Y-57779741D01*
X121366118Y-58029946D01*
X121365882Y-58300865D01*
X121469339Y-58551252D01*
X121619804Y-58701979D01*
X121425891Y-58782102D01*
X121191923Y-59015662D01*
X121065145Y-59320979D01*
X121064856Y-59651571D01*
X119726856Y-59651571D01*
X119727144Y-59322429D01*
X119600898Y-59016891D01*
X119367338Y-58782923D01*
X119062021Y-58656145D01*
X118731429Y-58655856D01*
X118425891Y-58782102D01*
X118191923Y-59015662D01*
X118065145Y-59320979D01*
X118064856Y-59651571D01*
X115456000Y-59651571D01*
X115456000Y-57044912D01*
X115581784Y-56412555D01*
X115914544Y-55914544D01*
X116412555Y-55581784D01*
X117044911Y-55456000D01*
X142716820Y-55456000D01*
X142679013Y-55493741D01*
G36*
X127279389Y-93174933D02*
X127279389Y-93753518D01*
X127185002Y-93847741D01*
X127081107Y-94097946D01*
X127080871Y-94368865D01*
X127184328Y-94619252D01*
X127375730Y-94810987D01*
X127625935Y-94914882D01*
X127896854Y-94915118D01*
X128147241Y-94811661D01*
X128338976Y-94620259D01*
X128442871Y-94370054D01*
X128443107Y-94099135D01*
X128339650Y-93848748D01*
X128244589Y-93753522D01*
X128244589Y-93601302D01*
X129725300Y-95082013D01*
X129655971Y-95110659D01*
X129586061Y-95180447D01*
X129586118Y-95115135D01*
X129482661Y-94864748D01*
X129291259Y-94673013D01*
X129041054Y-94569118D01*
X128770135Y-94568882D01*
X128519748Y-94672339D01*
X128328013Y-94863741D01*
X128224118Y-95113946D01*
X128223882Y-95384865D01*
X128327339Y-95635252D01*
X128518741Y-95826987D01*
X128768946Y-95930882D01*
X129039865Y-95931118D01*
X129290252Y-95827661D01*
X129360162Y-95757873D01*
X129360105Y-95823185D01*
X129463562Y-96073572D01*
X129654964Y-96265307D01*
X129905169Y-96369202D01*
X130176088Y-96369438D01*
X130426475Y-96265981D01*
X130618210Y-96074579D01*
X130722105Y-95824374D01*
X130722341Y-95553455D01*
X130618884Y-95303068D01*
X130540552Y-95224600D01*
X131583703Y-95224600D01*
X131677926Y-95318987D01*
X131928131Y-95422882D01*
X132199050Y-95423118D01*
X132449437Y-95319661D01*
X132516540Y-95252675D01*
X132582737Y-95318987D01*
X132638702Y-95342226D01*
X132466076Y-95514552D01*
X132362181Y-95764757D01*
X132361945Y-96035676D01*
X132465402Y-96286063D01*
X132656804Y-96477798D01*
X132907009Y-96581693D01*
X133177928Y-96581929D01*
X133428315Y-96478472D01*
X133521924Y-96385026D01*
X133598751Y-96461987D01*
X133848956Y-96565882D01*
X134119875Y-96566118D01*
X134218773Y-96525255D01*
X134296338Y-96712978D01*
X134487740Y-96904713D01*
X134737945Y-97008608D01*
X134873592Y-97008726D01*
X134447951Y-97434367D01*
X132388409Y-97434367D01*
X132388632Y-97178311D01*
X132285175Y-96927924D01*
X132093773Y-96736189D01*
X131843568Y-96632294D01*
X131683984Y-96632155D01*
X131631814Y-96505893D01*
X131440412Y-96314158D01*
X131190207Y-96210263D01*
X130919288Y-96210027D01*
X130668901Y-96313484D01*
X130477166Y-96504886D01*
X130373271Y-96755091D01*
X130373035Y-97026010D01*
X130476492Y-97276397D01*
X130634188Y-97434367D01*
X128942343Y-97434367D01*
X128942528Y-97221757D01*
X128839071Y-96971370D01*
X128647669Y-96779635D01*
X128397464Y-96675740D01*
X128126545Y-96675504D01*
X127876158Y-96778961D01*
X127692287Y-96962513D01*
X126593611Y-95863837D01*
X126593611Y-92489155D01*
X127279389Y-93174933D01*
X127279389Y-93174933D01*
G37*
X127279389Y-93174933D02*
X127279389Y-93753518D01*
X127185002Y-93847741D01*
X127081107Y-94097946D01*
X127080871Y-94368865D01*
X127184328Y-94619252D01*
X127375730Y-94810987D01*
X127625935Y-94914882D01*
X127896854Y-94915118D01*
X128147241Y-94811661D01*
X128338976Y-94620259D01*
X128442871Y-94370054D01*
X128443107Y-94099135D01*
X128339650Y-93848748D01*
X128244589Y-93753522D01*
X128244589Y-93601302D01*
X129725300Y-95082013D01*
X129655971Y-95110659D01*
X129586061Y-95180447D01*
X129586118Y-95115135D01*
X129482661Y-94864748D01*
X129291259Y-94673013D01*
X129041054Y-94569118D01*
X128770135Y-94568882D01*
X128519748Y-94672339D01*
X128328013Y-94863741D01*
X128224118Y-95113946D01*
X128223882Y-95384865D01*
X128327339Y-95635252D01*
X128518741Y-95826987D01*
X128768946Y-95930882D01*
X129039865Y-95931118D01*
X129290252Y-95827661D01*
X129360162Y-95757873D01*
X129360105Y-95823185D01*
X129463562Y-96073572D01*
X129654964Y-96265307D01*
X129905169Y-96369202D01*
X130176088Y-96369438D01*
X130426475Y-96265981D01*
X130618210Y-96074579D01*
X130722105Y-95824374D01*
X130722341Y-95553455D01*
X130618884Y-95303068D01*
X130540552Y-95224600D01*
X131583703Y-95224600D01*
X131677926Y-95318987D01*
X131928131Y-95422882D01*
X132199050Y-95423118D01*
X132449437Y-95319661D01*
X132516540Y-95252675D01*
X132582737Y-95318987D01*
X132638702Y-95342226D01*
X132466076Y-95514552D01*
X132362181Y-95764757D01*
X132361945Y-96035676D01*
X132465402Y-96286063D01*
X132656804Y-96477798D01*
X132907009Y-96581693D01*
X133177928Y-96581929D01*
X133428315Y-96478472D01*
X133521924Y-96385026D01*
X133598751Y-96461987D01*
X133848956Y-96565882D01*
X134119875Y-96566118D01*
X134218773Y-96525255D01*
X134296338Y-96712978D01*
X134487740Y-96904713D01*
X134737945Y-97008608D01*
X134873592Y-97008726D01*
X134447951Y-97434367D01*
X132388409Y-97434367D01*
X132388632Y-97178311D01*
X132285175Y-96927924D01*
X132093773Y-96736189D01*
X131843568Y-96632294D01*
X131683984Y-96632155D01*
X131631814Y-96505893D01*
X131440412Y-96314158D01*
X131190207Y-96210263D01*
X130919288Y-96210027D01*
X130668901Y-96313484D01*
X130477166Y-96504886D01*
X130373271Y-96755091D01*
X130373035Y-97026010D01*
X130476492Y-97276397D01*
X130634188Y-97434367D01*
X128942343Y-97434367D01*
X128942528Y-97221757D01*
X128839071Y-96971370D01*
X128647669Y-96779635D01*
X128397464Y-96675740D01*
X128126545Y-96675504D01*
X127876158Y-96778961D01*
X127692287Y-96962513D01*
X126593611Y-95863837D01*
X126593611Y-92489155D01*
X127279389Y-93174933D01*
G36*
X119151367Y-79037311D02*
X118970875Y-78767184D01*
X118652797Y-78554652D01*
X118277599Y-78480020D01*
X117729001Y-78480020D01*
X117353803Y-78554652D01*
X117035725Y-78767184D01*
X116840000Y-79060108D01*
X116840000Y-75777125D01*
X116854916Y-75800305D01*
X116982236Y-75887299D01*
X117133370Y-75917904D01*
X118832630Y-75917904D01*
X118973820Y-75891337D01*
X119103495Y-75807894D01*
X119151367Y-75737831D01*
X119151367Y-79037311D01*
X119151367Y-79037311D01*
G37*
X119151367Y-79037311D02*
X118970875Y-78767184D01*
X118652797Y-78554652D01*
X118277599Y-78480020D01*
X117729001Y-78480020D01*
X117353803Y-78554652D01*
X117035725Y-78767184D01*
X116840000Y-79060108D01*
X116840000Y-75777125D01*
X116854916Y-75800305D01*
X116982236Y-75887299D01*
X117133370Y-75917904D01*
X118832630Y-75917904D01*
X118973820Y-75891337D01*
X119103495Y-75807894D01*
X119151367Y-75737831D01*
X119151367Y-79037311D01*
G36*
X119532378Y-70909668D02*
X119532378Y-73545168D01*
X119184307Y-73197097D01*
X119237739Y-72928480D01*
X119163107Y-72553282D01*
X118950575Y-72235204D01*
X118701450Y-72068745D01*
X118776443Y-72049239D01*
X119164568Y-71755917D01*
X119410899Y-71336393D01*
X119426095Y-71244481D01*
X119301357Y-71053960D01*
X118110000Y-71053960D01*
X118110000Y-71073960D01*
X117856000Y-71073960D01*
X117856000Y-71053960D01*
X117836000Y-71053960D01*
X117836000Y-70799960D01*
X117856000Y-70799960D01*
X117856000Y-70779960D01*
X118110000Y-70779960D01*
X118110000Y-70799960D01*
X119301357Y-70799960D01*
X119349357Y-70726647D01*
X119532378Y-70909668D01*
X119532378Y-70909668D01*
G37*
X119532378Y-70909668D02*
X119532378Y-73545168D01*
X119184307Y-73197097D01*
X119237739Y-72928480D01*
X119163107Y-72553282D01*
X118950575Y-72235204D01*
X118701450Y-72068745D01*
X118776443Y-72049239D01*
X119164568Y-71755917D01*
X119410899Y-71336393D01*
X119426095Y-71244481D01*
X119301357Y-71053960D01*
X118110000Y-71053960D01*
X118110000Y-71073960D01*
X117856000Y-71073960D01*
X117856000Y-71053960D01*
X117836000Y-71053960D01*
X117836000Y-70799960D01*
X117856000Y-70799960D01*
X117856000Y-70779960D01*
X118110000Y-70779960D01*
X118110000Y-70799960D01*
X119301357Y-70799960D01*
X119349357Y-70726647D01*
X119532378Y-70909668D01*
M02*
