%TF.GenerationSoftware,KiCad,Pcbnew,4.0.7*%
%TF.CreationDate,2018-05-29T13:00:59+08:00*%
%TF.ProjectId,VESC_6,564553435F362E6B696361645F706362,A*%
%TF.FileFunction,Paste,Bot*%
%FSLAX46Y46*%
G04 Gerber Fmt 4.6, Leading zero omitted, Abs format (unit mm)*
G04 Created by KiCad (PCBNEW 4.0.7) date 2018 May 29, Tuesday 13:00:59*
%MOMM*%
%LPD*%
G01*
G04 APERTURE LIST*
%ADD10C,0.100000*%
%ADD11R,0.750000X0.800000*%
%ADD12R,0.800000X0.750000*%
%ADD13R,2.000000X1.300000*%
%ADD14R,0.450000X1.450000*%
%ADD15R,1.300000X0.700000*%
%ADD16R,1.060000X0.650000*%
%ADD17R,0.800000X0.800000*%
%ADD18R,1.500000X0.450000*%
%ADD19R,5.000000X4.000000*%
%ADD20R,0.900000X0.500000*%
%ADD21R,0.500000X0.900000*%
%ADD22R,2.500000X1.000000*%
%ADD23R,1.950000X1.500000*%
%ADD24R,6.000000X5.000000*%
%ADD25R,0.700000X1.500000*%
%ADD26R,1.000000X0.800000*%
%ADD27R,0.600000X2.700000*%
%ADD28R,2.300000X2.700000*%
%ADD29C,0.254000*%
G04 APERTURE END LIST*
D10*
D11*
X136779000Y-69203000D03*
X136779000Y-67703000D03*
D12*
X136005000Y-96774000D03*
X134505000Y-96774000D03*
D13*
X136906000Y-89993320D03*
X132906000Y-89993320D03*
X132906000Y-87593320D03*
X136906000Y-87593320D03*
D10*
G36*
X131017571Y-111282611D02*
X130098332Y-110363372D01*
X131512545Y-108949159D01*
X132431784Y-109868398D01*
X131017571Y-111282611D01*
X131017571Y-111282611D01*
G37*
G36*
X133845998Y-108454184D02*
X132926759Y-107534945D01*
X134340972Y-106120732D01*
X135260211Y-107039971D01*
X133845998Y-108454184D01*
X133845998Y-108454184D01*
G37*
G36*
X135543055Y-110151241D02*
X134623816Y-109232002D01*
X136038029Y-107817789D01*
X136957268Y-108737028D01*
X135543055Y-110151241D01*
X135543055Y-110151241D01*
G37*
G36*
X132714628Y-112979668D02*
X131795389Y-112060429D01*
X133209602Y-110646216D01*
X134128841Y-111565455D01*
X132714628Y-112979668D01*
X132714628Y-112979668D01*
G37*
D14*
X138090000Y-63586000D03*
X138740000Y-63586000D03*
X139390000Y-63586000D03*
X140040000Y-63586000D03*
X140040000Y-67986000D03*
X139390000Y-67986000D03*
X138740000Y-67986000D03*
X138090000Y-67986000D03*
D15*
X122047000Y-79300000D03*
X122047000Y-81200000D03*
D16*
X126335000Y-79300000D03*
X126335000Y-80250000D03*
X126335000Y-81200000D03*
X124135000Y-81200000D03*
X124135000Y-79300000D03*
D17*
X138561300Y-102241700D03*
X138561300Y-103841700D03*
X137033000Y-102273200D03*
X137033000Y-103873200D03*
X135509000Y-102273200D03*
X135509000Y-103873200D03*
D14*
X135518800Y-65395200D03*
X134868800Y-65395200D03*
X134218800Y-65395200D03*
X133568800Y-65395200D03*
X133568800Y-60995200D03*
X134218800Y-60995200D03*
X134868800Y-60995200D03*
X135518800Y-60995200D03*
X129740300Y-66538200D03*
X129090300Y-66538200D03*
X128440300Y-66538200D03*
X127790300Y-66538200D03*
X127790300Y-62138200D03*
X128440300Y-62138200D03*
X129090300Y-62138200D03*
X129740300Y-62138200D03*
D18*
X126742000Y-109976000D03*
X126742000Y-110626000D03*
X126742000Y-109326000D03*
X126742000Y-111276000D03*
X126742000Y-108676000D03*
D10*
G36*
X137565191Y-113381693D02*
X136822728Y-114124156D01*
X135267093Y-112568521D01*
X136009556Y-111826058D01*
X137565191Y-113381693D01*
X137565191Y-113381693D01*
G37*
G36*
X139262246Y-113028140D02*
X138555140Y-113735246D01*
X137812678Y-112992784D01*
X138519784Y-112285678D01*
X139262246Y-113028140D01*
X139262246Y-113028140D01*
G37*
G36*
X139651156Y-111295728D02*
X138908693Y-112038191D01*
X137353058Y-110482556D01*
X138095521Y-109740093D01*
X139651156Y-111295728D01*
X139651156Y-111295728D01*
G37*
D19*
X145114500Y-57531000D03*
X157734000Y-57531000D03*
X170434000Y-57531000D03*
D12*
X122403300Y-95135700D03*
X120903300Y-95135700D03*
D11*
X138988800Y-88099200D03*
X138988800Y-89599200D03*
D12*
X127623000Y-96012000D03*
X126123000Y-96012000D03*
D11*
X133477000Y-98195000D03*
X133477000Y-99695000D03*
X130937000Y-89523000D03*
X130937000Y-88023000D03*
X127889000Y-78752000D03*
X127889000Y-80252000D03*
X132715000Y-91782200D03*
X132715000Y-93282200D03*
X129667000Y-91782200D03*
X129667000Y-93282200D03*
X131953000Y-62420500D03*
X131953000Y-63920500D03*
X126174500Y-63587500D03*
X126174500Y-65087500D03*
X126619000Y-91782200D03*
X126619000Y-93282200D03*
D10*
G36*
X131380338Y-113197008D02*
X130850008Y-113727338D01*
X130284322Y-113161652D01*
X130814652Y-112631322D01*
X131380338Y-113197008D01*
X131380338Y-113197008D01*
G37*
G36*
X130319678Y-112136348D02*
X129789348Y-112666678D01*
X129223662Y-112100992D01*
X129753992Y-111570662D01*
X130319678Y-112136348D01*
X130319678Y-112136348D01*
G37*
G36*
X136716662Y-107020992D02*
X137246992Y-106490662D01*
X137812678Y-107056348D01*
X137282348Y-107586678D01*
X136716662Y-107020992D01*
X136716662Y-107020992D01*
G37*
G36*
X137777322Y-108081652D02*
X138307652Y-107551322D01*
X138873338Y-108117008D01*
X138343008Y-108647338D01*
X137777322Y-108081652D01*
X137777322Y-108081652D01*
G37*
D12*
X123456000Y-82550000D03*
X124956000Y-82550000D03*
D20*
X130302000Y-104128000D03*
X130302000Y-102628000D03*
X128524000Y-102628000D03*
X128524000Y-104128000D03*
X126750300Y-102616000D03*
X126750300Y-104116000D03*
D21*
X122416000Y-96583500D03*
X120916000Y-96583500D03*
X137045000Y-105410000D03*
X138545000Y-105410000D03*
X132650800Y-104978200D03*
X134150800Y-104978200D03*
X132650800Y-103378000D03*
X134150800Y-103378000D03*
D20*
X133281000Y-84119000D03*
X133281000Y-82619000D03*
X131684800Y-84130200D03*
X131684800Y-82630200D03*
D21*
X131466500Y-71882000D03*
X132966500Y-71882000D03*
X131466500Y-73342500D03*
X132966500Y-73342500D03*
X131466500Y-74866500D03*
X132966500Y-74866500D03*
X131466500Y-76390500D03*
X132966500Y-76390500D03*
X131466500Y-77914500D03*
X132966500Y-77914500D03*
X131466500Y-79438500D03*
X132966500Y-79438500D03*
D20*
X124002800Y-88289700D03*
X124002800Y-89789700D03*
D10*
G36*
X122881805Y-87828409D02*
X122245409Y-88464805D01*
X121891855Y-88111251D01*
X122528251Y-87474855D01*
X122881805Y-87828409D01*
X122881805Y-87828409D01*
G37*
G36*
X121821145Y-86767749D02*
X121184749Y-87404145D01*
X120831195Y-87050591D01*
X121467591Y-86414195D01*
X121821145Y-86767749D01*
X121821145Y-86767749D01*
G37*
D22*
X143383000Y-78398500D03*
X143383000Y-75398500D03*
X146685000Y-78398500D03*
X146685000Y-75398500D03*
X159385000Y-78398500D03*
X159385000Y-75398500D03*
X156083000Y-78398500D03*
X156083000Y-75398500D03*
X168783000Y-78398500D03*
X168783000Y-75398500D03*
X171958000Y-78398500D03*
X171958000Y-75398500D03*
D23*
X122853000Y-84201000D03*
X125603000Y-84201000D03*
D21*
X139422000Y-70929500D03*
X137922000Y-70929500D03*
X139421300Y-72466200D03*
X137921300Y-72466200D03*
X139434000Y-73977500D03*
X137934000Y-73977500D03*
X139434000Y-75501500D03*
X137934000Y-75501500D03*
X139434000Y-77025500D03*
X137934000Y-77025500D03*
X139434000Y-78549500D03*
X137934000Y-78549500D03*
D20*
X134239000Y-93282200D03*
X134239000Y-91782200D03*
X131191000Y-93282200D03*
X131191000Y-91782200D03*
X128143000Y-93282200D03*
X128143000Y-91782200D03*
D24*
X157734000Y-83693000D03*
D25*
X118146000Y-61242000D03*
X121146000Y-61242000D03*
X122646000Y-61242000D03*
D26*
X116746000Y-58392000D03*
X124046000Y-58392000D03*
X124046000Y-60592000D03*
X116746000Y-60592000D03*
D27*
X145116000Y-69682000D03*
X145116000Y-61382000D03*
D28*
X143166000Y-69682000D03*
X147066000Y-61382000D03*
X147066000Y-69682000D03*
X143166000Y-61382000D03*
D27*
X170434000Y-69682000D03*
X170434000Y-61382000D03*
D28*
X168484000Y-69682000D03*
X172384000Y-61382000D03*
X172384000Y-69682000D03*
X168484000Y-61382000D03*
D27*
X157734000Y-69682000D03*
X157734000Y-61382000D03*
D28*
X155784000Y-69682000D03*
X159684000Y-61382000D03*
X159684000Y-69682000D03*
X155784000Y-61382000D03*
D29*
G36*
X152400000Y-80010000D02*
X152410006Y-80059410D01*
X152438447Y-80101035D01*
X152465934Y-80121355D01*
X156284486Y-82215400D01*
X154905486Y-84398816D01*
X150241000Y-80961826D01*
X150241000Y-63881000D01*
X152400000Y-63881000D01*
X152400000Y-80010000D01*
X152400000Y-80010000D01*
G37*
X152400000Y-80010000D02*
X152410006Y-80059410D01*
X152438447Y-80101035D01*
X152465934Y-80121355D01*
X156284486Y-82215400D01*
X154905486Y-84398816D01*
X150241000Y-80961826D01*
X150241000Y-63881000D01*
X152400000Y-63881000D01*
X152400000Y-80010000D01*
G36*
X165227000Y-80962500D02*
X160310453Y-84649910D01*
X158926983Y-82344128D01*
X163001814Y-80121493D01*
X163040400Y-80089049D01*
X163063323Y-80044149D01*
X163068000Y-80010000D01*
X163068000Y-63881000D01*
X165227000Y-63881000D01*
X165227000Y-80962500D01*
X165227000Y-80962500D01*
G37*
X165227000Y-80962500D02*
X160310453Y-84649910D01*
X158926983Y-82344128D01*
X163001814Y-80121493D01*
X163040400Y-80089049D01*
X163063323Y-80044149D01*
X163068000Y-80010000D01*
X163068000Y-63881000D01*
X165227000Y-63881000D01*
X165227000Y-80962500D01*
M02*
