%TF.GenerationSoftware,KiCad,Pcbnew,4.0.7*%
%TF.CreationDate,2018-04-22T20:40:58+08:00*%
%TF.ProjectId,VESC_6,564553435F362E6B696361645F706362,rev?*%
%TF.FileFunction,Soldermask,Bot*%
%FSLAX46Y46*%
G04 Gerber Fmt 4.6, Leading zero omitted, Abs format (unit mm)*
G04 Created by KiCad (PCBNEW 4.0.7) date 2018 April 22, Sunday 20:40:58*
%MOMM*%
%LPD*%
G01*
G04 APERTURE LIST*
%ADD10C,0.100000*%
%ADD11R,0.800000X0.750000*%
%ADD12R,1.699260X1.198880*%
%ADD13O,1.699260X1.198880*%
%ADD14R,2.000000X1.300000*%
%ADD15R,0.450000X1.450000*%
%ADD16C,3.000000*%
%ADD17R,1.300000X0.700000*%
%ADD18R,1.198880X1.699260*%
%ADD19O,1.198880X1.699260*%
%ADD20R,1.060000X0.650000*%
%ADD21C,0.900000*%
%ADD22R,0.700000X1.500000*%
%ADD23R,1.000000X0.800000*%
%ADD24R,0.800000X0.800000*%
%ADD25R,1.500000X0.450000*%
%ADD26O,1.100000X1.800000*%
%ADD27O,1.100000X2.200000*%
%ADD28R,5.000000X4.000000*%
%ADD29R,0.750000X0.800000*%
%ADD30R,0.900000X0.500000*%
%ADD31R,0.500000X0.900000*%
%ADD32R,2.500000X1.000000*%
%ADD33R,1.950000X1.500000*%
%ADD34R,0.600000X2.700000*%
%ADD35R,2.300000X2.700000*%
%ADD36R,7.000000X6.000000*%
%ADD37R,2.400000X2.400000*%
%ADD38C,2.400000*%
%ADD39C,0.254000*%
G04 APERTURE END LIST*
D10*
D11*
X135624000Y-97028000D03*
X134124000Y-97028000D03*
D12*
X117983000Y-105984040D03*
D13*
X117983000Y-101981000D03*
X117983000Y-103982520D03*
D14*
X136525000Y-90247320D03*
X132525000Y-90247320D03*
X132525000Y-87847320D03*
X136525000Y-87847320D03*
D10*
G36*
X131144571Y-111790611D02*
X130225332Y-110871372D01*
X131639545Y-109457159D01*
X132558784Y-110376398D01*
X131144571Y-111790611D01*
X131144571Y-111790611D01*
G37*
G36*
X133972998Y-108962184D02*
X133053759Y-108042945D01*
X134467972Y-106628732D01*
X135387211Y-107547971D01*
X133972998Y-108962184D01*
X133972998Y-108962184D01*
G37*
G36*
X135670055Y-110659241D02*
X134750816Y-109740002D01*
X136165029Y-108325789D01*
X137084268Y-109245028D01*
X135670055Y-110659241D01*
X135670055Y-110659241D01*
G37*
G36*
X132841628Y-113487668D02*
X131922389Y-112568429D01*
X133336602Y-111154216D01*
X134255841Y-112073455D01*
X132841628Y-113487668D01*
X132841628Y-113487668D01*
G37*
D15*
X137455000Y-63713000D03*
X138105000Y-63713000D03*
X138755000Y-63713000D03*
X139405000Y-63713000D03*
X139405000Y-68113000D03*
X138755000Y-68113000D03*
X138105000Y-68113000D03*
X137455000Y-68113000D03*
D16*
X151257000Y-58039000D03*
X163830000Y-58039000D03*
D17*
X121500000Y-79173000D03*
X121500000Y-81073000D03*
D18*
X123256040Y-110363000D03*
D19*
X119253000Y-110363000D03*
X121254520Y-110363000D03*
X117254020Y-110363000D03*
D18*
X127093980Y-58039000D03*
D19*
X131097020Y-58039000D03*
X129095500Y-58039000D03*
X133096000Y-58039000D03*
X135097520Y-58039000D03*
X137099040Y-58039000D03*
D13*
X118003300Y-81459440D03*
X118003300Y-83458420D03*
X118003300Y-85459940D03*
D12*
X118003300Y-93466020D03*
D13*
X118003300Y-89462980D03*
X118003300Y-91464500D03*
X118003300Y-87464000D03*
X118003300Y-79460460D03*
D12*
X117983000Y-74930000D03*
D13*
X117983000Y-70926960D03*
X117983000Y-72928480D03*
X117983000Y-68927980D03*
X117983000Y-66926460D03*
D20*
X125700000Y-79173000D03*
X125700000Y-80123000D03*
X125700000Y-81073000D03*
X123500000Y-81073000D03*
X123500000Y-79173000D03*
D21*
X118896000Y-59487000D03*
X121896000Y-59487000D03*
D22*
X118146000Y-61247000D03*
X121146000Y-61247000D03*
X122646000Y-61247000D03*
D23*
X116746000Y-58387000D03*
X124046000Y-58387000D03*
X124046000Y-60597000D03*
X116746000Y-60597000D03*
D24*
X138815300Y-102495700D03*
X138815300Y-104095700D03*
X137287000Y-102527200D03*
X137287000Y-104127200D03*
X135763000Y-102527200D03*
X135763000Y-104127200D03*
D15*
X134502800Y-65903200D03*
X133852800Y-65903200D03*
X133202800Y-65903200D03*
X132552800Y-65903200D03*
X132552800Y-61503200D03*
X133202800Y-61503200D03*
X133852800Y-61503200D03*
X134502800Y-61503200D03*
X129105300Y-67427200D03*
X128455300Y-67427200D03*
X127805300Y-67427200D03*
X127155300Y-67427200D03*
X127155300Y-63027200D03*
X127805300Y-63027200D03*
X128455300Y-63027200D03*
X129105300Y-63027200D03*
D25*
X126742000Y-110484000D03*
X126742000Y-111134000D03*
X126742000Y-109834000D03*
X126742000Y-111784000D03*
X126742000Y-109184000D03*
D26*
X126492000Y-107684000D03*
X126492000Y-113284000D03*
D27*
X128642000Y-110484000D03*
D10*
G36*
X137565191Y-113762693D02*
X136822728Y-114505156D01*
X135267093Y-112949521D01*
X136009556Y-112207058D01*
X137565191Y-113762693D01*
X137565191Y-113762693D01*
G37*
G36*
X139262246Y-113409140D02*
X138555140Y-114116246D01*
X137812678Y-113373784D01*
X138519784Y-112666678D01*
X139262246Y-113409140D01*
X139262246Y-113409140D01*
G37*
G36*
X139651156Y-111676728D02*
X138908693Y-112419191D01*
X137353058Y-110863556D01*
X138095521Y-110121093D01*
X139651156Y-111676728D01*
X139651156Y-111676728D01*
G37*
D28*
X145241500Y-57404000D03*
X157353000Y-57404000D03*
X170180000Y-57404000D03*
D11*
X122022300Y-95389700D03*
X120522300Y-95389700D03*
D29*
X138607800Y-88353200D03*
X138607800Y-89853200D03*
D11*
X127242000Y-96202500D03*
X125742000Y-96202500D03*
D29*
X133032500Y-98449000D03*
X133032500Y-99949000D03*
X130556000Y-89777000D03*
X130556000Y-88277000D03*
X127300000Y-81927000D03*
X127300000Y-83427000D03*
X132334000Y-92036200D03*
X132334000Y-93536200D03*
X129286000Y-92036200D03*
X129286000Y-93536200D03*
X135890000Y-68441000D03*
X135890000Y-66941000D03*
X130937000Y-62928500D03*
X130937000Y-64428500D03*
X125539500Y-64476500D03*
X125539500Y-65976500D03*
X126238000Y-92036200D03*
X126238000Y-93536200D03*
D10*
G36*
X131507338Y-113705008D02*
X130977008Y-114235338D01*
X130411322Y-113669652D01*
X130941652Y-113139322D01*
X131507338Y-113705008D01*
X131507338Y-113705008D01*
G37*
G36*
X130446678Y-112644348D02*
X129916348Y-113174678D01*
X129350662Y-112608992D01*
X129880992Y-112078662D01*
X130446678Y-112644348D01*
X130446678Y-112644348D01*
G37*
G36*
X136843662Y-107528992D02*
X137373992Y-106998662D01*
X137939678Y-107564348D01*
X137409348Y-108094678D01*
X136843662Y-107528992D01*
X136843662Y-107528992D01*
G37*
G36*
X137904322Y-108589652D02*
X138434652Y-108059322D01*
X139000338Y-108625008D01*
X138470008Y-109155338D01*
X137904322Y-108589652D01*
X137904322Y-108589652D01*
G37*
D11*
X122821000Y-82042000D03*
X124321000Y-82042000D03*
D30*
X130683000Y-104382000D03*
X130683000Y-102882000D03*
X128905000Y-102882000D03*
X128905000Y-104382000D03*
X127131300Y-102870000D03*
X127131300Y-104370000D03*
D31*
X122035000Y-96837500D03*
X120535000Y-96837500D03*
X137299000Y-105664000D03*
X138799000Y-105664000D03*
X132904800Y-105232200D03*
X134404800Y-105232200D03*
X132904800Y-103632000D03*
X134404800Y-103632000D03*
D30*
X132900000Y-84500000D03*
X132900000Y-83000000D03*
X131303800Y-84511200D03*
X131303800Y-83011200D03*
D31*
X131085500Y-72263000D03*
X132585500Y-72263000D03*
X131085500Y-73723500D03*
X132585500Y-73723500D03*
X131085500Y-75247500D03*
X132585500Y-75247500D03*
X131085500Y-76771500D03*
X132585500Y-76771500D03*
X131085500Y-78295500D03*
X132585500Y-78295500D03*
X131085500Y-79819500D03*
X132585500Y-79819500D03*
D30*
X123621800Y-88543700D03*
X123621800Y-90043700D03*
D10*
G36*
X122500805Y-88082409D02*
X121864409Y-88718805D01*
X121510855Y-88365251D01*
X122147251Y-87728855D01*
X122500805Y-88082409D01*
X122500805Y-88082409D01*
G37*
G36*
X121440145Y-87021749D02*
X120803749Y-87658145D01*
X120450195Y-87304591D01*
X121086591Y-86668195D01*
X121440145Y-87021749D01*
X121440145Y-87021749D01*
G37*
D32*
X143383000Y-78081000D03*
X143383000Y-75081000D03*
X146685000Y-78105000D03*
X146685000Y-75105000D03*
X159131000Y-78081000D03*
X159131000Y-75081000D03*
X155829000Y-78105000D03*
X155829000Y-75105000D03*
X168783000Y-78081000D03*
X168783000Y-75081000D03*
X171958000Y-78081000D03*
X171958000Y-75081000D03*
D33*
X122125000Y-83527000D03*
X124875000Y-83527000D03*
D31*
X139041000Y-71310500D03*
X137541000Y-71310500D03*
X139040300Y-72847200D03*
X137540300Y-72847200D03*
X139053000Y-74358500D03*
X137553000Y-74358500D03*
X139053000Y-75882500D03*
X137553000Y-75882500D03*
X139053000Y-77406500D03*
X137553000Y-77406500D03*
X139053000Y-78930500D03*
X137553000Y-78930500D03*
D30*
X133858000Y-93536200D03*
X133858000Y-92036200D03*
X130810000Y-93536200D03*
X130810000Y-92036200D03*
X127762000Y-93536200D03*
X127762000Y-92036200D03*
D34*
X157543500Y-69555000D03*
X157543500Y-61255000D03*
D35*
X155593500Y-69555000D03*
X159493500Y-61255000D03*
X159493500Y-69555000D03*
X155593500Y-61255000D03*
D34*
X144862000Y-69532500D03*
X144862000Y-61232500D03*
D35*
X142912000Y-69532500D03*
X146812000Y-61232500D03*
X146812000Y-69532500D03*
X142912000Y-61232500D03*
D34*
X170307000Y-69555000D03*
X170307000Y-61255000D03*
D35*
X168357000Y-69555000D03*
X172257000Y-61255000D03*
X172257000Y-69555000D03*
X168357000Y-61255000D03*
D36*
X157700000Y-84300000D03*
D37*
X171200000Y-81900000D03*
D38*
X166200000Y-81900000D03*
D37*
X144300000Y-81900000D03*
D38*
X149300000Y-81900000D03*
D39*
G36*
X152400000Y-79756000D02*
X152410006Y-79805410D01*
X152442626Y-79850921D01*
X156917155Y-83828280D01*
X155196496Y-85663648D01*
X150241000Y-80088715D01*
X150241000Y-63881000D01*
X152400000Y-63881000D01*
X152400000Y-79756000D01*
X152400000Y-79756000D01*
G37*
X152400000Y-79756000D02*
X152410006Y-79805410D01*
X152442626Y-79850921D01*
X156917155Y-83828280D01*
X155196496Y-85663648D01*
X150241000Y-80088715D01*
X150241000Y-63881000D01*
X152400000Y-63881000D01*
X152400000Y-79756000D01*
G36*
X164846000Y-80596715D02*
X159890948Y-86171149D01*
X158413835Y-84580413D01*
X162654646Y-79840683D01*
X162680135Y-79797189D01*
X162687000Y-79756000D01*
X162687000Y-63881000D01*
X164846000Y-63881000D01*
X164846000Y-80596715D01*
X164846000Y-80596715D01*
G37*
X164846000Y-80596715D02*
X159890948Y-86171149D01*
X158413835Y-84580413D01*
X162654646Y-79840683D01*
X162680135Y-79797189D01*
X162687000Y-79756000D01*
X162687000Y-63881000D01*
X164846000Y-63881000D01*
X164846000Y-80596715D01*
M02*
