%TF.GenerationSoftware,KiCad,Pcbnew,(5.1.4-0)*%
%TF.CreationDate,2019-11-16T13:15:52+08:00*%
%TF.ProjectId,VESC_6,56455343-5f36-42e6-9b69-6361645f7063,A*%
%TF.SameCoordinates,Original*%
%TF.FileFunction,Copper,L2,Inr*%
%TF.FilePolarity,Positive*%
%FSLAX46Y46*%
G04 Gerber Fmt 4.6, Leading zero omitted, Abs format (unit mm)*
G04 Created by KiCad (PCBNEW (5.1.4-0)) date 2019-11-16 13:15:52*
%MOMM*%
%LPD*%
G04 APERTURE LIST*
%ADD10C,1.600000*%
%ADD11R,1.699260X1.198880*%
%ADD12O,1.699260X1.198880*%
%ADD13R,1.198880X1.699260*%
%ADD14O,1.198880X1.699260*%
%ADD15O,1.100000X1.800000*%
%ADD16O,1.100000X2.200000*%
%ADD17C,0.600000*%
%ADD18C,0.508000*%
%ADD19C,0.203200*%
%ADD20C,1.016000*%
%ADD21C,0.254000*%
G04 APERTURE END LIST*
D10*
X149726000Y-82169000D03*
X144726000Y-82169000D03*
X165842000Y-82169000D03*
X170842000Y-82169000D03*
D11*
X118000000Y-104203040D03*
D12*
X118000000Y-100200000D03*
X118000000Y-102201520D03*
D13*
X123184920Y-108458000D03*
D14*
X119181880Y-108458000D03*
X121183400Y-108458000D03*
X117182900Y-108458000D03*
D13*
X126846200Y-58000000D03*
D14*
X130849240Y-58000000D03*
X128847720Y-58000000D03*
X132848220Y-58000000D03*
X134849740Y-58000000D03*
X136851260Y-58000000D03*
D12*
X117983000Y-79298740D03*
X117983000Y-81297720D03*
X117983000Y-83299240D03*
D11*
X117983000Y-91305320D03*
D12*
X117983000Y-87302280D03*
X117983000Y-89303800D03*
X117983000Y-85303300D03*
X117983000Y-77299760D03*
D11*
X117983000Y-72803040D03*
D12*
X117983000Y-68800000D03*
X117983000Y-70801520D03*
X117983000Y-66801020D03*
X117983000Y-64799500D03*
D15*
X126750000Y-106300000D03*
X126750000Y-111900000D03*
D16*
X128900000Y-109100000D03*
D17*
X138962702Y-92304292D03*
X132842000Y-99822000D03*
X124206000Y-77978000D03*
X122809000Y-75565008D03*
X123952000Y-85471000D03*
X127254000Y-83947000D03*
X129285998Y-96418400D03*
X127508000Y-89027000D03*
X126746000Y-60198000D03*
X126111000Y-60198000D03*
X125476000Y-60197994D03*
X136144000Y-113538000D03*
X135636000Y-113030000D03*
X135153400Y-112572800D03*
X131318000Y-111252000D03*
X130759803Y-105862686D03*
X131064000Y-69977000D03*
X137541000Y-108966000D03*
X138607800Y-109016800D03*
X129595590Y-88392000D03*
X135365271Y-90879140D03*
X138067817Y-104043011D03*
X138430000Y-86741000D03*
X132455883Y-105791000D03*
X131572000Y-106674883D03*
X131572000Y-104907117D03*
X132969000Y-113157000D03*
X139065000Y-109474000D03*
X134874000Y-66800000D03*
X127232128Y-69342000D03*
X131699000Y-69977000D03*
X131699000Y-69342000D03*
X131064000Y-69342000D03*
X134239000Y-66800000D03*
X133604000Y-66802000D03*
X166471600Y-67640200D03*
X165887400Y-67640200D03*
X165303200Y-67640200D03*
X164719000Y-67640200D03*
X164134800Y-67640200D03*
X163550600Y-67640200D03*
X162966400Y-67640200D03*
X162382200Y-67640200D03*
X161798000Y-67640200D03*
X166471600Y-67056000D03*
X165887400Y-67056000D03*
X165303200Y-67056000D03*
X164719000Y-67056000D03*
X164134800Y-67056000D03*
X163550600Y-67056000D03*
X162966400Y-67056000D03*
X162382200Y-67056000D03*
X161798000Y-67056000D03*
X166471600Y-66471800D03*
X165887400Y-66471800D03*
X165303200Y-66471800D03*
X164719000Y-66471800D03*
X164134800Y-66471800D03*
X163550600Y-66471800D03*
X162966400Y-66471800D03*
X162382200Y-66471800D03*
X161798000Y-66471800D03*
X166471600Y-65887600D03*
X165887400Y-65887600D03*
X165303200Y-65887600D03*
X164719000Y-65887600D03*
X164134800Y-65887600D03*
X163550600Y-65887600D03*
X162966400Y-65887600D03*
X162382200Y-65887600D03*
X161798000Y-65887600D03*
X166471600Y-65303400D03*
X165887400Y-65303400D03*
X165303200Y-65303400D03*
X164719000Y-65303400D03*
X164134800Y-65303400D03*
X163550600Y-65303400D03*
X162966400Y-65303400D03*
X162382200Y-65303400D03*
X161798000Y-65303400D03*
X166471600Y-64719200D03*
X165887400Y-64719200D03*
X165303200Y-64719200D03*
X164719000Y-64719200D03*
X164134800Y-64719200D03*
X163550600Y-64719200D03*
X162966400Y-64719200D03*
X162382200Y-64719200D03*
X161798000Y-64719200D03*
X166471600Y-64135000D03*
X165887400Y-64135000D03*
X165303200Y-64135000D03*
X164719000Y-64135000D03*
X164134800Y-64135000D03*
X163550600Y-64135000D03*
X162966400Y-64135000D03*
X162382200Y-64135000D03*
X153644600Y-67640200D03*
X153060400Y-67640200D03*
X152476200Y-67640200D03*
X151892000Y-67640200D03*
X151307800Y-67640200D03*
X150723600Y-67640200D03*
X150139400Y-67640200D03*
X149555200Y-67640200D03*
X148971000Y-67640200D03*
X153644600Y-67056000D03*
X153060400Y-67056000D03*
X152476200Y-67056000D03*
X151892000Y-67056000D03*
X151307800Y-67056000D03*
X150723600Y-67056000D03*
X150139400Y-67056000D03*
X149555200Y-67056000D03*
X148971000Y-67056000D03*
X153644600Y-66471800D03*
X153060400Y-66471800D03*
X152476200Y-66471800D03*
X151892000Y-66471800D03*
X151307800Y-66471800D03*
X150723600Y-66471800D03*
X150139400Y-66471800D03*
X149555200Y-66471800D03*
X148971000Y-66471800D03*
X153644600Y-65887600D03*
X153060400Y-65887600D03*
X152476200Y-65887600D03*
X151892000Y-65887600D03*
X151307800Y-65887600D03*
X150723600Y-65887600D03*
X150139400Y-65887600D03*
X149555200Y-65887600D03*
X148971000Y-65887600D03*
X153644600Y-65303400D03*
X153060400Y-65303400D03*
X152476200Y-65303400D03*
X151892000Y-65303400D03*
X151307800Y-65303400D03*
X150723600Y-65303400D03*
X150139400Y-65303400D03*
X149555200Y-65303400D03*
X148971000Y-65303400D03*
X153644600Y-64719200D03*
X153060400Y-64719200D03*
X152476200Y-64719200D03*
X151892000Y-64719200D03*
X151307800Y-64719200D03*
X150723600Y-64719200D03*
X150139400Y-64719200D03*
X149555200Y-64719200D03*
X148971000Y-64719200D03*
X153644600Y-64135000D03*
X153060400Y-64135000D03*
X152476200Y-64135000D03*
X151892000Y-64135000D03*
X151307800Y-64135000D03*
X150723600Y-64135000D03*
X150139400Y-64135000D03*
X149555200Y-64135000D03*
X161798000Y-64135000D03*
X148971000Y-64135000D03*
X130175000Y-110363000D03*
X137795000Y-113284000D03*
X135635992Y-107061000D03*
X131560403Y-103483196D03*
X118999000Y-84201000D03*
X139472588Y-109982000D03*
X136574791Y-102438201D03*
X134620000Y-79756000D03*
X135128000Y-80264000D03*
X134112000Y-79248000D03*
X119253028Y-78359000D03*
X138430000Y-105664000D03*
X124841000Y-97155000D03*
X135073207Y-89012203D03*
X124460008Y-95891686D03*
X123698002Y-99233010D03*
X122428000Y-77089000D03*
X122936000Y-85598000D03*
X132970992Y-56087990D03*
X138557000Y-100203000D03*
X132080000Y-101473000D03*
X135043559Y-70650810D03*
X122609895Y-89123113D03*
X136144000Y-97917000D03*
X128016000Y-105663998D03*
X119500000Y-102000000D03*
X129332010Y-81915000D03*
X133477000Y-95631000D03*
X134423040Y-89928550D03*
X133832658Y-88565010D03*
X122047000Y-67310000D03*
X122174000Y-72136000D03*
X122174000Y-71374000D03*
X117000000Y-97500000D03*
X131700000Y-61400000D03*
X122428010Y-63881000D03*
X131699000Y-60706000D03*
X134801900Y-72182240D03*
X143000000Y-71500000D03*
X143624840Y-71500000D03*
X144249680Y-71500000D03*
X146124200Y-71500000D03*
X146749040Y-71500000D03*
X147373880Y-71500000D03*
X147998720Y-71500000D03*
X143000000Y-72124840D03*
X143624840Y-72124840D03*
X144249680Y-72124840D03*
X144874520Y-72124840D03*
X145499360Y-72124840D03*
X146124200Y-72124840D03*
X146749040Y-72124840D03*
X147373880Y-72124840D03*
X147998720Y-72124840D03*
X143000000Y-72749680D03*
X143624840Y-72749680D03*
X144249680Y-72749680D03*
X144874520Y-72749680D03*
X145499360Y-72749680D03*
X146124200Y-72749680D03*
X146749040Y-72749680D03*
X147373880Y-72749680D03*
X147998720Y-72749680D03*
X143624840Y-73374520D03*
X144249680Y-73374520D03*
X144874520Y-73374520D03*
X145499360Y-73374520D03*
X146124200Y-73374520D03*
X146749040Y-73374520D03*
X147373880Y-73374520D03*
X147998720Y-73374520D03*
X155575000Y-71501000D03*
X140843000Y-73660000D03*
X134981000Y-74919000D03*
X156197300Y-71501000D03*
X156819600Y-71501000D03*
X158686500Y-71501000D03*
X159308800Y-71501000D03*
X159931100Y-71501000D03*
X160553400Y-71501000D03*
X155575000Y-72123300D03*
X156197300Y-72123300D03*
X156819600Y-72123300D03*
X157441900Y-72123300D03*
X158064200Y-72123300D03*
X158686500Y-72123300D03*
X159308800Y-72123300D03*
X159931100Y-72123300D03*
X160553400Y-72123300D03*
X155575000Y-72745600D03*
X156197300Y-72745600D03*
X156819600Y-72745600D03*
X157441900Y-72745600D03*
X158064200Y-72745600D03*
X158686500Y-72745600D03*
X159308800Y-72745600D03*
X159931100Y-72745600D03*
X160553400Y-72745600D03*
X155575000Y-73367900D03*
X156197300Y-73367900D03*
X156819600Y-73367900D03*
X157441900Y-73367900D03*
X158064200Y-73367900D03*
X158686500Y-73367900D03*
X159308800Y-73367900D03*
X159931100Y-73367900D03*
X160553400Y-73367900D03*
X168275000Y-71501000D03*
X134866829Y-77759634D03*
X138322176Y-80549960D03*
X168897300Y-71501000D03*
X169519600Y-71501000D03*
X171386500Y-71501000D03*
X172008800Y-71501000D03*
X172631100Y-71501000D03*
X173253400Y-71501000D03*
X168275000Y-72123300D03*
X168897300Y-72123300D03*
X169519600Y-72123300D03*
X170141900Y-72123300D03*
X170764200Y-72123300D03*
X171386500Y-72123300D03*
X172008800Y-72123300D03*
X172631100Y-72123300D03*
X173253400Y-72123300D03*
X168275000Y-72745600D03*
X168897300Y-72745600D03*
X169519600Y-72745600D03*
X170141900Y-72745600D03*
X170764200Y-72745600D03*
X171386500Y-72745600D03*
X172008800Y-72745600D03*
X172631100Y-72745600D03*
X173253400Y-72745600D03*
X168275000Y-73367900D03*
X168897300Y-73367900D03*
X169519600Y-73367900D03*
X170141900Y-73367900D03*
X170764200Y-73367900D03*
X171386500Y-73367900D03*
X172008800Y-73367900D03*
X167513000Y-79375000D03*
X133731000Y-68580000D03*
X134391400Y-81508600D03*
X133834000Y-80957296D03*
X134162800Y-68148200D03*
X143383000Y-79375000D03*
X144018000Y-79375000D03*
X144653000Y-79375000D03*
X145288000Y-79375000D03*
X145923000Y-79375000D03*
X146558000Y-79375000D03*
X147193000Y-79375000D03*
X147828000Y-79375000D03*
X142113000Y-80010000D03*
X142748000Y-80010000D03*
X143383000Y-80010000D03*
X144018000Y-80010000D03*
X144653000Y-80010000D03*
X145288000Y-80010000D03*
X145923000Y-80010000D03*
X146558000Y-80010000D03*
X147193000Y-80010000D03*
X147828000Y-80010000D03*
X155448000Y-79375000D03*
X156083000Y-79375000D03*
X156718000Y-79375000D03*
X157353000Y-79375000D03*
X157988000Y-79375000D03*
X158623000Y-79375000D03*
X159258000Y-79375000D03*
X159893000Y-79375000D03*
X160528000Y-79375000D03*
X154813000Y-80010000D03*
X155448000Y-80010000D03*
X156083000Y-80010000D03*
X156718000Y-80010000D03*
X157353000Y-80010000D03*
X157988000Y-80010000D03*
X158623000Y-80010000D03*
X159258000Y-80010000D03*
X159893000Y-80010000D03*
X160528000Y-80010000D03*
X168148000Y-79375000D03*
X168783000Y-79375000D03*
X169418000Y-79375000D03*
X170053000Y-79375000D03*
X170688000Y-79375000D03*
X171323000Y-79375000D03*
X171958000Y-79375000D03*
X167513000Y-80010000D03*
X168148000Y-80010000D03*
X168783000Y-80010000D03*
X169418000Y-80010000D03*
X170053000Y-80010000D03*
X170688000Y-80010000D03*
X171323000Y-80010000D03*
X171958000Y-80010000D03*
X172593000Y-80010000D03*
X173228000Y-80010000D03*
X133413500Y-85661500D03*
X130175000Y-85343992D03*
X125222020Y-86233000D03*
X129541903Y-84702447D03*
X134874000Y-84201000D03*
X140334994Y-79883000D03*
X129332010Y-85424990D03*
X130556000Y-108839000D03*
X130047129Y-108198771D03*
X138049000Y-111887000D03*
X124154259Y-92800500D03*
X131058287Y-99840668D03*
X131953000Y-99822000D03*
X130175000Y-99822000D03*
X121920000Y-56388002D03*
X122874788Y-91512540D03*
X122936000Y-92329000D03*
X122844692Y-89894282D03*
X122860122Y-90734866D03*
X136398006Y-99060000D03*
X138674492Y-97052553D03*
X134366010Y-95631000D03*
X135254999Y-96073726D03*
X121873990Y-68326000D03*
X129921000Y-68453000D03*
X129681000Y-89646000D03*
X126225423Y-86284710D03*
X127001590Y-86234157D03*
X127309579Y-86995000D03*
X147039000Y-58647000D03*
X146404000Y-58647000D03*
X145769000Y-58647000D03*
X145134000Y-58647000D03*
X144499000Y-58647000D03*
X143864000Y-58647000D03*
X143229000Y-58647000D03*
X147039000Y-58012000D03*
X146404000Y-58012000D03*
X145769000Y-58012000D03*
X145134000Y-58012000D03*
X144499000Y-58012000D03*
X143864000Y-58012000D03*
X143229000Y-58012000D03*
X147039000Y-57377000D03*
X146404000Y-57377000D03*
X145769000Y-57377000D03*
X145134000Y-57377000D03*
X144499000Y-57377000D03*
X143864000Y-57377000D03*
X143229000Y-57377000D03*
X147039000Y-56742000D03*
X146404000Y-56742000D03*
X145769000Y-56742000D03*
X145134000Y-56742000D03*
X144499000Y-56742000D03*
X143864000Y-56742000D03*
X143229000Y-56742000D03*
X147039000Y-56107000D03*
X146404000Y-56107000D03*
X145769000Y-56107000D03*
X145134000Y-56107000D03*
X144499000Y-56107000D03*
X143864000Y-56107000D03*
X143229000Y-56107000D03*
X134859694Y-71406578D03*
X134983565Y-72918030D03*
X159639000Y-58647000D03*
X159004000Y-58647000D03*
X158369000Y-58647000D03*
X157734000Y-58647000D03*
X157099000Y-58647000D03*
X156464000Y-58647000D03*
X155829000Y-58647000D03*
X159639000Y-58012000D03*
X159004000Y-58012000D03*
X158369000Y-58012000D03*
X157734000Y-58012000D03*
X157099000Y-58012000D03*
X156464000Y-58012000D03*
X155829000Y-58012000D03*
X159639000Y-57377000D03*
X159004000Y-57377000D03*
X158369000Y-57377000D03*
X157734000Y-57377000D03*
X157099000Y-57377000D03*
X156464000Y-57377000D03*
X155829000Y-57377000D03*
X159639000Y-56742000D03*
X159004000Y-56742000D03*
X158369000Y-56742000D03*
X157734000Y-56742000D03*
X157099000Y-56742000D03*
X156464000Y-56742000D03*
X155829000Y-56742000D03*
X159639000Y-56107000D03*
X159004000Y-56107000D03*
X158369000Y-56107000D03*
X157734000Y-56107000D03*
X157099000Y-56107000D03*
X156464000Y-56107000D03*
X155829000Y-56107000D03*
X135081000Y-74119000D03*
X134981000Y-75719000D03*
X172339000Y-58647000D03*
X171704000Y-58647000D03*
X171069000Y-58647000D03*
X170434000Y-58647000D03*
X169799000Y-58647000D03*
X169164000Y-58647000D03*
X168529000Y-58647000D03*
X172339000Y-58012000D03*
X171704000Y-58012000D03*
X171069000Y-58012000D03*
X170434000Y-58012000D03*
X169799000Y-58012000D03*
X169164000Y-58012000D03*
X168529000Y-58012000D03*
X172339000Y-57377000D03*
X171704000Y-57377000D03*
X171069000Y-57377000D03*
X170434000Y-57377000D03*
X169799000Y-57377000D03*
X169164000Y-57377000D03*
X168529000Y-57377000D03*
X172339000Y-56742000D03*
X171704000Y-56742000D03*
X171069000Y-56742000D03*
X170434000Y-56742000D03*
X169799000Y-56742000D03*
X169164000Y-56742000D03*
X168529000Y-56742000D03*
X172339000Y-56107000D03*
X171704000Y-56107000D03*
X171069000Y-56107000D03*
X170434000Y-56107000D03*
X169799000Y-56107000D03*
X169164000Y-56107000D03*
X168529000Y-56107000D03*
X134860669Y-76981846D03*
X134889640Y-78537112D03*
X133538673Y-94492042D03*
X139953998Y-66848010D03*
X132786454Y-94474981D03*
X133858000Y-59182000D03*
X128142989Y-93980000D03*
X128285958Y-60513413D03*
X128642410Y-97102622D03*
X130081000Y-76019000D03*
X127127000Y-76453990D03*
X128397000Y-99822000D03*
X129307004Y-99825571D03*
X126352246Y-77474231D03*
X131435153Y-96637145D03*
X129794000Y-70866000D03*
X127235055Y-72768890D03*
X138938000Y-95758000D03*
X130048000Y-72517004D03*
X138953108Y-94972476D03*
X130048887Y-71633226D03*
X138937532Y-94194820D03*
X135509000Y-92582988D03*
X124413996Y-104775000D03*
X135682010Y-91686407D03*
X125222000Y-104140000D03*
X136419649Y-91538037D03*
X125857000Y-103251000D03*
X123825000Y-94234000D03*
X133350000Y-101473004D03*
X124714000Y-94488000D03*
X137805745Y-100594745D03*
X132088514Y-97059176D03*
X130040229Y-75242258D03*
X130699209Y-95223794D03*
X129901590Y-76826915D03*
X127127000Y-77343000D03*
X129286000Y-94996000D03*
X130081000Y-74319000D03*
X138938000Y-93091000D03*
X130048000Y-69723000D03*
X138938002Y-91424189D03*
X138707856Y-98047010D03*
X121920000Y-99060000D03*
X124841000Y-99233010D03*
X139065000Y-98933000D03*
X139449746Y-90260402D03*
X136017000Y-63754000D03*
X153416016Y-61595000D03*
X136017004Y-62865000D03*
X152527000Y-61849000D03*
X166116000Y-61595000D03*
X132100000Y-65481018D03*
X165227000Y-61849000D03*
X131464836Y-65077670D03*
X140335000Y-72842410D03*
X143510000Y-67691000D03*
X140589006Y-71247000D03*
X143510000Y-76941379D03*
X140600000Y-74500000D03*
X154584400Y-77063600D03*
X140300000Y-75300000D03*
X156083000Y-67691000D03*
X159766000Y-67691000D03*
X141224000Y-70612000D03*
X168783000Y-67691000D03*
X137915607Y-79881276D03*
D18*
X116205000Y-88646000D02*
X116205000Y-65405000D01*
X116810500Y-64799500D02*
X117983000Y-64799500D01*
X116205000Y-65405000D02*
X116810500Y-64799500D01*
X116862800Y-89303800D02*
X116205000Y-88646000D01*
X117983000Y-89303800D02*
X116862800Y-89303800D01*
D19*
X130784556Y-90918003D02*
X130784556Y-83367546D01*
X133477000Y-95631000D02*
X134092674Y-95015326D01*
X134092674Y-95015326D02*
X134092674Y-94226121D01*
X134092674Y-94226121D02*
X130784556Y-90918003D01*
X130784556Y-83367546D02*
X129332010Y-81915000D01*
D18*
X122809000Y-68961000D02*
X122809000Y-66548000D01*
D19*
X122809000Y-66548000D02*
X122047000Y-67310000D01*
D18*
X122174000Y-71374000D02*
X122174000Y-69596000D01*
X122174000Y-69596000D02*
X122809000Y-68961000D01*
D20*
X122174000Y-71374000D02*
X122174000Y-72136000D01*
D18*
X131700000Y-61400000D02*
X131700000Y-61848000D01*
X122809000Y-66548000D02*
X122809000Y-64261990D01*
X122809000Y-64261990D02*
X122428010Y-63881000D01*
D20*
X131700000Y-60707000D02*
X131699000Y-60706000D01*
X131700000Y-61848000D02*
X131700000Y-60707000D01*
D18*
X131699000Y-61849000D02*
X131699000Y-60706000D01*
X122174000Y-71374000D02*
X131699000Y-61849000D01*
X140843000Y-73660000D02*
X142113000Y-73660000D01*
X142748000Y-74295000D02*
X154647900Y-74295000D01*
X142113000Y-73660000D02*
X142748000Y-74295000D01*
X154647900Y-74295000D02*
X155575000Y-73367900D01*
X138322176Y-80549960D02*
X143100514Y-75771622D01*
X143100514Y-75771622D02*
X165871278Y-75771622D01*
X165871278Y-75771622D02*
X168275000Y-73367900D01*
D20*
X134795704Y-81919000D02*
X140204000Y-81919000D01*
X140204000Y-81919000D02*
X142367000Y-79756000D01*
X142367000Y-79756000D02*
X147955000Y-79756000D01*
X133350000Y-68961000D02*
X133731000Y-68580000D01*
X133350000Y-68961000D02*
X134162800Y-68148200D01*
X134795704Y-81919000D02*
X134795704Y-81912904D01*
X134795704Y-81912904D02*
X134391400Y-81508600D01*
X133350000Y-80473296D02*
X133834000Y-80957296D01*
X134795704Y-81919000D02*
X133350000Y-80473296D01*
X133096000Y-80219296D02*
X133350000Y-80473296D01*
X133096000Y-69215000D02*
X133096000Y-80219296D01*
X133350000Y-68961000D02*
X133096000Y-69215000D01*
D19*
X126752573Y-84702447D02*
X125222020Y-86233000D01*
X129541903Y-84702447D02*
X126752573Y-84702447D01*
X135381984Y-98043978D02*
X136398006Y-99060000D01*
X128187422Y-98043978D02*
X135381984Y-98043978D01*
X126111000Y-95967556D02*
X128187422Y-98043978D01*
X126111000Y-91766704D02*
X126111000Y-95967556D01*
X120142000Y-85797704D02*
X126111000Y-91766704D01*
X120142000Y-71882000D02*
X120142000Y-85797704D01*
X119061520Y-70801520D02*
X120142000Y-71882000D01*
X117983000Y-70801520D02*
X119061520Y-70801520D01*
X119125020Y-66801020D02*
X117983000Y-66801020D01*
X120497611Y-68173611D02*
X119125020Y-66801020D01*
X126492011Y-91608885D02*
X120497611Y-85614485D01*
X126492011Y-95809737D02*
X126492011Y-91608885D01*
X120497611Y-85614485D02*
X120497611Y-68173611D01*
X128345241Y-97662967D02*
X126492011Y-95809737D01*
X135028851Y-97662967D02*
X128345241Y-97662967D01*
X135639265Y-97052553D02*
X135028851Y-97662967D01*
X138674492Y-97052553D02*
X135639265Y-97052553D01*
X129413000Y-66040000D02*
X139145988Y-66040000D01*
X139145988Y-66040000D02*
X139953998Y-66848010D01*
X133052375Y-93920980D02*
X130369980Y-93920980D01*
X121564444Y-73888556D02*
X129413000Y-66040000D01*
X121564444Y-85115444D02*
X121564444Y-73888556D01*
X130369980Y-93920980D02*
X121564444Y-85115444D01*
X133538673Y-94407278D02*
X133052375Y-93920980D01*
X133538673Y-94492042D02*
X133538673Y-94407278D01*
X133477000Y-59563000D02*
X133858000Y-59182000D01*
X127660389Y-63220611D02*
X131318000Y-59563000D01*
X122199389Y-63220611D02*
X127660389Y-63220611D01*
X121208833Y-64211167D02*
X122199389Y-63220611D01*
X131318000Y-59563000D02*
X133477000Y-59563000D01*
X132786454Y-94474981D02*
X130415981Y-94474981D01*
X121208833Y-85267833D02*
X121208833Y-64211167D01*
X130415981Y-94474981D02*
X121208833Y-85267833D01*
X125934371Y-62865000D02*
X128285958Y-60513413D01*
X128142989Y-93980000D02*
X128142989Y-92721033D01*
X128142989Y-92721033D02*
X120853222Y-85431266D01*
X120853222Y-85431266D02*
X120853222Y-64058778D01*
X120853222Y-64058778D02*
X122047000Y-62865000D01*
X122047000Y-62865000D02*
X125934371Y-62865000D01*
X136630371Y-95758000D02*
X138938000Y-95758000D01*
X131495778Y-90623407D02*
X136630371Y-95758000D01*
X131495778Y-74726778D02*
X131495778Y-90623407D01*
X130429000Y-73660000D02*
X131495778Y-74726778D01*
X128126165Y-73660000D02*
X130429000Y-73660000D01*
X127235055Y-72768890D02*
X128126165Y-73660000D01*
X131851389Y-74320393D02*
X130048000Y-72517004D01*
X131851389Y-90474789D02*
X131851389Y-74320393D01*
X136349076Y-94972476D02*
X131851389Y-90474789D01*
X138953108Y-94972476D02*
X136349076Y-94972476D01*
X130048887Y-71633226D02*
X130348886Y-71933225D01*
X130348886Y-71933225D02*
X130353225Y-71933225D01*
X130353225Y-71933225D02*
X132207000Y-73787000D01*
X132207000Y-73787000D02*
X132207000Y-90297000D01*
X132207000Y-90297000D02*
X136104820Y-94194820D01*
X136104820Y-94194820D02*
X138937532Y-94194820D01*
X120396000Y-101219000D02*
X121666000Y-102489000D01*
X120396000Y-97663000D02*
X120396000Y-101219000D01*
X123825000Y-94234000D02*
X120396000Y-97663000D01*
X133049997Y-101773003D02*
X132334000Y-102489000D01*
X133050001Y-101773003D02*
X133049997Y-101773003D01*
X133350000Y-101473004D02*
X133050001Y-101773003D01*
X121666000Y-102489000D02*
X132334000Y-102489000D01*
X124714000Y-94488000D02*
X121031000Y-98171000D01*
X121295745Y-100594745D02*
X137805745Y-100594745D01*
X121031000Y-98171000D02*
X121031000Y-100330000D01*
X121031000Y-100330000D02*
X121295745Y-100594745D01*
X139532509Y-93685509D02*
X139532509Y-96052491D01*
X139532509Y-96052491D02*
X139247599Y-96337401D01*
X139247599Y-96337401D02*
X136706863Y-96337401D01*
X136706863Y-96337401D02*
X131140167Y-90770705D01*
X131140167Y-90770705D02*
X131140167Y-75378167D01*
X131140167Y-75378167D02*
X130081000Y-74319000D01*
X138938000Y-93091000D02*
X139532509Y-93685509D01*
X122555000Y-98425000D02*
X121920000Y-99060000D01*
X134713223Y-98425000D02*
X122555000Y-98425000D01*
X135983222Y-99694999D02*
X134713223Y-98425000D01*
X137059867Y-99694999D02*
X135983222Y-99694999D01*
X138707856Y-98047010D02*
X137059867Y-99694999D01*
X124841000Y-99233010D02*
X125268010Y-98806000D01*
X125268010Y-98806000D02*
X134493000Y-98806000D01*
X134493000Y-98806000D02*
X135763000Y-100076000D01*
X135763000Y-100076000D02*
X137287000Y-100076000D01*
X137287000Y-100076000D02*
X138430000Y-98933000D01*
X138430000Y-98933000D02*
X139065000Y-98933000D01*
X153416016Y-61595000D02*
X153416016Y-61948553D01*
X153416016Y-61948553D02*
X152880569Y-62484000D01*
X152880569Y-62484000D02*
X137287000Y-62484000D01*
X137287000Y-62484000D02*
X136017000Y-63754000D01*
X152527000Y-61849000D02*
X152273000Y-62103000D01*
X152273000Y-62103000D02*
X136779000Y-62103000D01*
X136779000Y-62103000D02*
X136017004Y-62864996D01*
X136017004Y-62864996D02*
X136017004Y-62865000D01*
X138176000Y-63246000D02*
X135940982Y-65481018D01*
X166116000Y-62019264D02*
X164889264Y-63246000D01*
X164889264Y-63246000D02*
X138176000Y-63246000D01*
X135940982Y-65481018D02*
X132100000Y-65481018D01*
X166116000Y-61595000D02*
X166116000Y-62019264D01*
X136186999Y-64600001D02*
X131942505Y-64600001D01*
X131942505Y-64600001D02*
X131464836Y-65077670D01*
X137922011Y-62864989D02*
X136186999Y-64600001D01*
X164211011Y-62864989D02*
X137922011Y-62864989D01*
X165227000Y-61849000D02*
X164211011Y-62864989D01*
D18*
X167386000Y-72009000D02*
X167386000Y-69088000D01*
X167386000Y-69088000D02*
X168783000Y-67691000D01*
X142711072Y-75085811D02*
X164309189Y-75085811D01*
X164309189Y-75085811D02*
X167386000Y-72009000D01*
X137915607Y-79881276D02*
X142711072Y-75085811D01*
D21*
G36*
X132648418Y-55484496D02*
G01*
X132536880Y-55559023D01*
X132442025Y-55653878D01*
X132367498Y-55765416D01*
X132316163Y-55889350D01*
X132289992Y-56020917D01*
X132289992Y-56155063D01*
X132316163Y-56286630D01*
X132367498Y-56410564D01*
X132442025Y-56522102D01*
X132536880Y-56616957D01*
X132648418Y-56691484D01*
X132772352Y-56742819D01*
X132903919Y-56768990D01*
X133038065Y-56768990D01*
X133169632Y-56742819D01*
X133293566Y-56691484D01*
X133405104Y-56616957D01*
X133499959Y-56522102D01*
X133574486Y-56410564D01*
X133625821Y-56286630D01*
X133651992Y-56155063D01*
X133651992Y-56020917D01*
X133625821Y-55889350D01*
X133574486Y-55765416D01*
X133499959Y-55653878D01*
X133405104Y-55559023D01*
X133293566Y-55484496D01*
X133224770Y-55456000D01*
X140873000Y-55456000D01*
X140873000Y-61620400D01*
X136802704Y-61620400D01*
X136778999Y-61618065D01*
X136755294Y-61620400D01*
X136755293Y-61620400D01*
X136684394Y-61627383D01*
X136593423Y-61654978D01*
X136509585Y-61699791D01*
X136436099Y-61760099D01*
X136420987Y-61778513D01*
X136015501Y-62184000D01*
X135949931Y-62184000D01*
X135818364Y-62210171D01*
X135694430Y-62261506D01*
X135582892Y-62336033D01*
X135488037Y-62430888D01*
X135413510Y-62542426D01*
X135362175Y-62666360D01*
X135336004Y-62797927D01*
X135336004Y-62932073D01*
X135362175Y-63063640D01*
X135413510Y-63187574D01*
X135488037Y-63299112D01*
X135498423Y-63309498D01*
X135488033Y-63319888D01*
X135413506Y-63431426D01*
X135362171Y-63555360D01*
X135336000Y-63686927D01*
X135336000Y-63821073D01*
X135362171Y-63952640D01*
X135413506Y-64076574D01*
X135440786Y-64117401D01*
X131966212Y-64117401D01*
X131942505Y-64115066D01*
X131847898Y-64124384D01*
X131756928Y-64151979D01*
X131673090Y-64196792D01*
X131599604Y-64257100D01*
X131584492Y-64275514D01*
X131463336Y-64396670D01*
X131397763Y-64396670D01*
X131266196Y-64422841D01*
X131142262Y-64474176D01*
X131030724Y-64548703D01*
X130935869Y-64643558D01*
X130861342Y-64755096D01*
X130810007Y-64879030D01*
X130783836Y-65010597D01*
X130783836Y-65144743D01*
X130810007Y-65276310D01*
X130861342Y-65400244D01*
X130935869Y-65511782D01*
X130981487Y-65557400D01*
X129436704Y-65557400D01*
X129412999Y-65555065D01*
X129389294Y-65557400D01*
X129389293Y-65557400D01*
X129318394Y-65564383D01*
X129227423Y-65591978D01*
X129143585Y-65636791D01*
X129070099Y-65697099D01*
X129054983Y-65715518D01*
X123063000Y-71707501D01*
X123063000Y-71383024D01*
X131705240Y-62740785D01*
X131874273Y-62724136D01*
X132041850Y-62673303D01*
X132196290Y-62590753D01*
X132331659Y-62479659D01*
X132442753Y-62344291D01*
X132525303Y-62189851D01*
X132576136Y-62022274D01*
X132589000Y-61891667D01*
X132589000Y-60750659D01*
X132593300Y-60706999D01*
X132589000Y-60663339D01*
X132589000Y-60663333D01*
X132576136Y-60532726D01*
X132568442Y-60507360D01*
X132554627Y-60461820D01*
X132525303Y-60365149D01*
X132442753Y-60210709D01*
X132331659Y-60075341D01*
X132297736Y-60047501D01*
X132296740Y-60046505D01*
X132295637Y-60045600D01*
X133453295Y-60045600D01*
X133477000Y-60047935D01*
X133500705Y-60045600D01*
X133500707Y-60045600D01*
X133571606Y-60038617D01*
X133662577Y-60011022D01*
X133746415Y-59966209D01*
X133819901Y-59905901D01*
X133835017Y-59887482D01*
X133859499Y-59863000D01*
X133925073Y-59863000D01*
X134056640Y-59836829D01*
X134180574Y-59785494D01*
X134292112Y-59710967D01*
X134386967Y-59616112D01*
X134461494Y-59504574D01*
X134512829Y-59380640D01*
X134539000Y-59249073D01*
X134539000Y-59180484D01*
X134657541Y-59216443D01*
X134849740Y-59235373D01*
X135041940Y-59216443D01*
X135226753Y-59160380D01*
X135397078Y-59069340D01*
X135546370Y-58946820D01*
X135668890Y-58797528D01*
X135759930Y-58627203D01*
X135815993Y-58442389D01*
X135830180Y-58298346D01*
X135830180Y-57701654D01*
X135870820Y-57701654D01*
X135870820Y-58298347D01*
X135885007Y-58442390D01*
X135941070Y-58627203D01*
X136032111Y-58797528D01*
X136154631Y-58946820D01*
X136303923Y-59069340D01*
X136474248Y-59160380D01*
X136659061Y-59216443D01*
X136851260Y-59235373D01*
X137043460Y-59216443D01*
X137228273Y-59160380D01*
X137398598Y-59069340D01*
X137547890Y-58946820D01*
X137670410Y-58797528D01*
X137761450Y-58627203D01*
X137817513Y-58442389D01*
X137831700Y-58298346D01*
X137831700Y-57701653D01*
X137817513Y-57557610D01*
X137761450Y-57372797D01*
X137670410Y-57202472D01*
X137547890Y-57053180D01*
X137398598Y-56930660D01*
X137228272Y-56839620D01*
X137043459Y-56783557D01*
X136851260Y-56764627D01*
X136659060Y-56783557D01*
X136474247Y-56839620D01*
X136303922Y-56930660D01*
X136154630Y-57053180D01*
X136032110Y-57202472D01*
X135941070Y-57372798D01*
X135885007Y-57557611D01*
X135870820Y-57701654D01*
X135830180Y-57701654D01*
X135830180Y-57701653D01*
X135815993Y-57557610D01*
X135759930Y-57372797D01*
X135668890Y-57202472D01*
X135546370Y-57053180D01*
X135397078Y-56930660D01*
X135226752Y-56839620D01*
X135041939Y-56783557D01*
X134849740Y-56764627D01*
X134657540Y-56783557D01*
X134472727Y-56839620D01*
X134302402Y-56930660D01*
X134153110Y-57053180D01*
X134030590Y-57202472D01*
X133939550Y-57372798D01*
X133883487Y-57557611D01*
X133869300Y-57701654D01*
X133869300Y-58298347D01*
X133883487Y-58442390D01*
X133901266Y-58501000D01*
X133796693Y-58501000D01*
X133814473Y-58442389D01*
X133828660Y-58298346D01*
X133828660Y-57701653D01*
X133814473Y-57557610D01*
X133758410Y-57372797D01*
X133667370Y-57202472D01*
X133544850Y-57053180D01*
X133395558Y-56930660D01*
X133225232Y-56839620D01*
X133040419Y-56783557D01*
X132848220Y-56764627D01*
X132656020Y-56783557D01*
X132471207Y-56839620D01*
X132300882Y-56930660D01*
X132151590Y-57053180D01*
X132029070Y-57202472D01*
X131938030Y-57372798D01*
X131881967Y-57557611D01*
X131867780Y-57701654D01*
X131867780Y-58298347D01*
X131881967Y-58442390D01*
X131938030Y-58627203D01*
X132029071Y-58797528D01*
X132151591Y-58946820D01*
X132300883Y-59069340D01*
X132321575Y-59080400D01*
X131375886Y-59080400D01*
X131396578Y-59069340D01*
X131545870Y-58946820D01*
X131668390Y-58797528D01*
X131759430Y-58627203D01*
X131815493Y-58442389D01*
X131829680Y-58298346D01*
X131829680Y-57701653D01*
X131815493Y-57557610D01*
X131759430Y-57372797D01*
X131668390Y-57202472D01*
X131545870Y-57053180D01*
X131396578Y-56930660D01*
X131226252Y-56839620D01*
X131041439Y-56783557D01*
X130849240Y-56764627D01*
X130657040Y-56783557D01*
X130472227Y-56839620D01*
X130301902Y-56930660D01*
X130152610Y-57053180D01*
X130030090Y-57202472D01*
X129939050Y-57372798D01*
X129882987Y-57557611D01*
X129868800Y-57701654D01*
X129868800Y-58298347D01*
X129882987Y-58442390D01*
X129939050Y-58627203D01*
X130030091Y-58797528D01*
X130152611Y-58946820D01*
X130301903Y-59069340D01*
X130472228Y-59160380D01*
X130657041Y-59216443D01*
X130849240Y-59235373D01*
X130972529Y-59223230D01*
X130959988Y-59238512D01*
X127460490Y-62738011D01*
X126743859Y-62738011D01*
X128287457Y-61194413D01*
X128353031Y-61194413D01*
X128484598Y-61168242D01*
X128608532Y-61116907D01*
X128720070Y-61042380D01*
X128814925Y-60947525D01*
X128889452Y-60835987D01*
X128940787Y-60712053D01*
X128966958Y-60580486D01*
X128966958Y-60446340D01*
X128940787Y-60314773D01*
X128889452Y-60190839D01*
X128814925Y-60079301D01*
X128720070Y-59984446D01*
X128608532Y-59909919D01*
X128484598Y-59858584D01*
X128353031Y-59832413D01*
X128218885Y-59832413D01*
X128087318Y-59858584D01*
X127963384Y-59909919D01*
X127851846Y-59984446D01*
X127756991Y-60079301D01*
X127682464Y-60190839D01*
X127631129Y-60314773D01*
X127604958Y-60446340D01*
X127604958Y-60511914D01*
X125734472Y-62382400D01*
X122070704Y-62382400D01*
X122046999Y-62380065D01*
X122023294Y-62382400D01*
X122023293Y-62382400D01*
X121952394Y-62389383D01*
X121861423Y-62416978D01*
X121777585Y-62461791D01*
X121777583Y-62461792D01*
X121777584Y-62461792D01*
X121722527Y-62506976D01*
X121704099Y-62522099D01*
X121688990Y-62540510D01*
X120528735Y-63700766D01*
X120510322Y-63715877D01*
X120495211Y-63734290D01*
X120495209Y-63734292D01*
X120450014Y-63789363D01*
X120405200Y-63873202D01*
X120377606Y-63964172D01*
X120368287Y-64058778D01*
X120370623Y-64082493D01*
X120370623Y-67364123D01*
X119483037Y-66476538D01*
X119467921Y-66458119D01*
X119394435Y-66397811D01*
X119310597Y-66352998D01*
X119219626Y-66325403D01*
X119148727Y-66318420D01*
X119148725Y-66318420D01*
X119125020Y-66316085D01*
X119101315Y-66318420D01*
X119086943Y-66318420D01*
X119052340Y-66253682D01*
X118929820Y-66104390D01*
X118780528Y-65981870D01*
X118610203Y-65890830D01*
X118425390Y-65834767D01*
X118281347Y-65820580D01*
X117684653Y-65820580D01*
X117540610Y-65834767D01*
X117355797Y-65890830D01*
X117185472Y-65981870D01*
X117036180Y-66104390D01*
X116913660Y-66253682D01*
X116840000Y-66391491D01*
X116840000Y-65668024D01*
X117025233Y-65482791D01*
X117036180Y-65496130D01*
X117185472Y-65618650D01*
X117355797Y-65709690D01*
X117540610Y-65765753D01*
X117684653Y-65779940D01*
X118281347Y-65779940D01*
X118425390Y-65765753D01*
X118610203Y-65709690D01*
X118780528Y-65618650D01*
X118929820Y-65496130D01*
X119052340Y-65346838D01*
X119143380Y-65176513D01*
X119199443Y-64991700D01*
X119218373Y-64799500D01*
X119199443Y-64607300D01*
X119143380Y-64422487D01*
X119052340Y-64252162D01*
X118929820Y-64102870D01*
X118780528Y-63980350D01*
X118610203Y-63889310D01*
X118425390Y-63833247D01*
X118281347Y-63819060D01*
X117684653Y-63819060D01*
X117540610Y-63833247D01*
X117355797Y-63889310D01*
X117185472Y-63980350D01*
X117036180Y-64102870D01*
X116985602Y-64164500D01*
X116841680Y-64164500D01*
X116810499Y-64161429D01*
X116779318Y-64164500D01*
X116779308Y-64164500D01*
X116686018Y-64173688D01*
X116566320Y-64209998D01*
X116494431Y-64248424D01*
X116456005Y-64268963D01*
X116411153Y-64305773D01*
X116359315Y-64348315D01*
X116339430Y-64372545D01*
X115778046Y-64933930D01*
X115753816Y-64953815D01*
X115733932Y-64978044D01*
X115674463Y-65050507D01*
X115615498Y-65160821D01*
X115600094Y-65211603D01*
X115580466Y-65276310D01*
X115579189Y-65280519D01*
X115566929Y-65405000D01*
X115570001Y-65436191D01*
X115570000Y-88614819D01*
X115566929Y-88646000D01*
X115570000Y-88677181D01*
X115570000Y-88677191D01*
X115579188Y-88770481D01*
X115615498Y-88890179D01*
X115674463Y-89000493D01*
X115753815Y-89097185D01*
X115778050Y-89117074D01*
X116391734Y-89730760D01*
X116411615Y-89754985D01*
X116435839Y-89774865D01*
X116435843Y-89774869D01*
X116508306Y-89834338D01*
X116618620Y-89893302D01*
X116738318Y-89929612D01*
X116831608Y-89938800D01*
X116831611Y-89938800D01*
X116862800Y-89941872D01*
X116893989Y-89938800D01*
X116985602Y-89938800D01*
X117036180Y-90000430D01*
X117185472Y-90122950D01*
X117355797Y-90213990D01*
X117540610Y-90270053D01*
X117684653Y-90284240D01*
X118281347Y-90284240D01*
X118425390Y-90270053D01*
X118610203Y-90213990D01*
X118780528Y-90122950D01*
X118929820Y-90000430D01*
X119052340Y-89851138D01*
X119143380Y-89680813D01*
X119199443Y-89496000D01*
X119218373Y-89303800D01*
X119199443Y-89111600D01*
X119143380Y-88926787D01*
X119052340Y-88756462D01*
X118929820Y-88607170D01*
X118780528Y-88484650D01*
X118712288Y-88448175D01*
X118776446Y-88424563D01*
X118984954Y-88297015D01*
X119164572Y-88131240D01*
X119308398Y-87933608D01*
X119410904Y-87711715D01*
X119426095Y-87619801D01*
X119301357Y-87429280D01*
X118110000Y-87429280D01*
X118110000Y-87449280D01*
X117856000Y-87449280D01*
X117856000Y-87429280D01*
X117836000Y-87429280D01*
X117836000Y-87175280D01*
X117856000Y-87175280D01*
X117856000Y-87155280D01*
X118110000Y-87155280D01*
X118110000Y-87175280D01*
X119301357Y-87175280D01*
X119426095Y-86984759D01*
X119410904Y-86892845D01*
X119308398Y-86670952D01*
X119164572Y-86473320D01*
X118984954Y-86307545D01*
X118776446Y-86179997D01*
X118715102Y-86157421D01*
X118780528Y-86122450D01*
X118929820Y-85999930D01*
X119052340Y-85850638D01*
X119143380Y-85680313D01*
X119199443Y-85495500D01*
X119218373Y-85303300D01*
X119199443Y-85111100D01*
X119143380Y-84926287D01*
X119052340Y-84755962D01*
X118929820Y-84606670D01*
X118780528Y-84484150D01*
X118610203Y-84393110D01*
X118425390Y-84337047D01*
X118281347Y-84322860D01*
X117684653Y-84322860D01*
X117540610Y-84337047D01*
X117355797Y-84393110D01*
X117185472Y-84484150D01*
X117036180Y-84606670D01*
X116913660Y-84755962D01*
X116840000Y-84893771D01*
X116840000Y-83708769D01*
X116913660Y-83846578D01*
X117036180Y-83995870D01*
X117185472Y-84118390D01*
X117355797Y-84209430D01*
X117540610Y-84265493D01*
X117684653Y-84279680D01*
X118281347Y-84279680D01*
X118425390Y-84265493D01*
X118610203Y-84209430D01*
X118780528Y-84118390D01*
X118929820Y-83995870D01*
X119052340Y-83846578D01*
X119143380Y-83676253D01*
X119199443Y-83491440D01*
X119218373Y-83299240D01*
X119199443Y-83107040D01*
X119143380Y-82922227D01*
X119052340Y-82751902D01*
X118929820Y-82602610D01*
X118780528Y-82480090D01*
X118610203Y-82389050D01*
X118425390Y-82332987D01*
X118281347Y-82318800D01*
X117684653Y-82318800D01*
X117540610Y-82332987D01*
X117355797Y-82389050D01*
X117185472Y-82480090D01*
X117036180Y-82602610D01*
X116913660Y-82751902D01*
X116840000Y-82889711D01*
X116840000Y-81707249D01*
X116913660Y-81845058D01*
X117036180Y-81994350D01*
X117185472Y-82116870D01*
X117355797Y-82207910D01*
X117540610Y-82263973D01*
X117684653Y-82278160D01*
X118281347Y-82278160D01*
X118425390Y-82263973D01*
X118610203Y-82207910D01*
X118780528Y-82116870D01*
X118929820Y-81994350D01*
X119052340Y-81845058D01*
X119143380Y-81674733D01*
X119199443Y-81489920D01*
X119218373Y-81297720D01*
X119199443Y-81105520D01*
X119143380Y-80920707D01*
X119052340Y-80750382D01*
X118929820Y-80601090D01*
X118780528Y-80478570D01*
X118610203Y-80387530D01*
X118425390Y-80331467D01*
X118281347Y-80317280D01*
X117684653Y-80317280D01*
X117540610Y-80331467D01*
X117355797Y-80387530D01*
X117185472Y-80478570D01*
X117036180Y-80601090D01*
X116913660Y-80750382D01*
X116840000Y-80888191D01*
X116840000Y-79708269D01*
X116913660Y-79846078D01*
X117036180Y-79995370D01*
X117185472Y-80117890D01*
X117355797Y-80208930D01*
X117540610Y-80264993D01*
X117684653Y-80279180D01*
X118281347Y-80279180D01*
X118425390Y-80264993D01*
X118610203Y-80208930D01*
X118780528Y-80117890D01*
X118929820Y-79995370D01*
X119052340Y-79846078D01*
X119143380Y-79675753D01*
X119199443Y-79490940D01*
X119218373Y-79298740D01*
X119199443Y-79106540D01*
X119143380Y-78921727D01*
X119052340Y-78751402D01*
X118929820Y-78602110D01*
X118780528Y-78479590D01*
X118610203Y-78388550D01*
X118425390Y-78332487D01*
X118281347Y-78318300D01*
X117684653Y-78318300D01*
X117540610Y-78332487D01*
X117355797Y-78388550D01*
X117185472Y-78479590D01*
X117036180Y-78602110D01*
X116913660Y-78751402D01*
X116840000Y-78889211D01*
X116840000Y-77709289D01*
X116913660Y-77847098D01*
X117036180Y-77996390D01*
X117185472Y-78118910D01*
X117355797Y-78209950D01*
X117540610Y-78266013D01*
X117684653Y-78280200D01*
X118281347Y-78280200D01*
X118425390Y-78266013D01*
X118610203Y-78209950D01*
X118780528Y-78118910D01*
X118929820Y-77996390D01*
X119052340Y-77847098D01*
X119143380Y-77676773D01*
X119199443Y-77491960D01*
X119218373Y-77299760D01*
X119199443Y-77107560D01*
X119143380Y-76922747D01*
X119052340Y-76752422D01*
X118929820Y-76603130D01*
X118780528Y-76480610D01*
X118610203Y-76389570D01*
X118425390Y-76333507D01*
X118281347Y-76319320D01*
X117684653Y-76319320D01*
X117540610Y-76333507D01*
X117355797Y-76389570D01*
X117185472Y-76480610D01*
X117036180Y-76603130D01*
X116913660Y-76752422D01*
X116840000Y-76890231D01*
X116840000Y-73645581D01*
X116862659Y-73673191D01*
X116920674Y-73720802D01*
X116986862Y-73756181D01*
X117058681Y-73777967D01*
X117133370Y-73785323D01*
X118832630Y-73785323D01*
X118907319Y-73777967D01*
X118979138Y-73756181D01*
X119045326Y-73720802D01*
X119103341Y-73673191D01*
X119150952Y-73615176D01*
X119186331Y-73548988D01*
X119208117Y-73477169D01*
X119215473Y-73402480D01*
X119215473Y-72203600D01*
X119208117Y-72128911D01*
X119186331Y-72057092D01*
X119150952Y-71990904D01*
X119103341Y-71932889D01*
X119045326Y-71885278D01*
X118979138Y-71849899D01*
X118907319Y-71828113D01*
X118832630Y-71820757D01*
X117133370Y-71820757D01*
X117058681Y-71828113D01*
X116986862Y-71849899D01*
X116920674Y-71885278D01*
X116862659Y-71932889D01*
X116840000Y-71960499D01*
X116840000Y-71211049D01*
X116913660Y-71348858D01*
X117036180Y-71498150D01*
X117185472Y-71620670D01*
X117355797Y-71711710D01*
X117540610Y-71767773D01*
X117684653Y-71781960D01*
X118281347Y-71781960D01*
X118425390Y-71767773D01*
X118610203Y-71711710D01*
X118780528Y-71620670D01*
X118929820Y-71498150D01*
X118995554Y-71418053D01*
X119659400Y-72081899D01*
X119659401Y-85773989D01*
X119657065Y-85797704D01*
X119666384Y-85892310D01*
X119693978Y-85983280D01*
X119738792Y-86067119D01*
X119765301Y-86099420D01*
X119799100Y-86140605D01*
X119817513Y-86155716D01*
X122223835Y-88562039D01*
X122175783Y-88594146D01*
X122080928Y-88689001D01*
X122006401Y-88800539D01*
X121955066Y-88924473D01*
X121928895Y-89056040D01*
X121928895Y-89190186D01*
X121955066Y-89321753D01*
X122006401Y-89445687D01*
X122080928Y-89557225D01*
X122175783Y-89652080D01*
X122200943Y-89668892D01*
X122189863Y-89695642D01*
X122163692Y-89827209D01*
X122163692Y-89961355D01*
X122189863Y-90092922D01*
X122241198Y-90216856D01*
X122314206Y-90326120D01*
X122256628Y-90412292D01*
X122205293Y-90536226D01*
X122179122Y-90667793D01*
X122179122Y-90801939D01*
X122205293Y-90933506D01*
X122256628Y-91057440D01*
X122308236Y-91134678D01*
X122271294Y-91189966D01*
X122219959Y-91313900D01*
X122193788Y-91445467D01*
X122193788Y-91579613D01*
X122219959Y-91711180D01*
X122271294Y-91835114D01*
X122345821Y-91946652D01*
X122361781Y-91962612D01*
X122332506Y-92006426D01*
X122281171Y-92130360D01*
X122255000Y-92261927D01*
X122255000Y-92396073D01*
X122281171Y-92527640D01*
X122332506Y-92651574D01*
X122407033Y-92763112D01*
X122501888Y-92857967D01*
X122613426Y-92932494D01*
X122737360Y-92983829D01*
X122868927Y-93010000D01*
X123003073Y-93010000D01*
X123134640Y-92983829D01*
X123258574Y-92932494D01*
X123370112Y-92857967D01*
X123464967Y-92763112D01*
X123473259Y-92750702D01*
X123473259Y-92867573D01*
X123499430Y-92999140D01*
X123550765Y-93123074D01*
X123625292Y-93234612D01*
X123720147Y-93329467D01*
X123831685Y-93403994D01*
X123955619Y-93455329D01*
X124087186Y-93481500D01*
X124221332Y-93481500D01*
X124352899Y-93455329D01*
X124476833Y-93403994D01*
X124588371Y-93329467D01*
X124683226Y-93234612D01*
X124757753Y-93123074D01*
X124809088Y-92999140D01*
X124835259Y-92867573D01*
X124835259Y-92733427D01*
X124809088Y-92601860D01*
X124757753Y-92477926D01*
X124683226Y-92366388D01*
X124588371Y-92271533D01*
X124476833Y-92197006D01*
X124352899Y-92145671D01*
X124221332Y-92119500D01*
X124087186Y-92119500D01*
X123955619Y-92145671D01*
X123831685Y-92197006D01*
X123720147Y-92271533D01*
X123625292Y-92366388D01*
X123617000Y-92378798D01*
X123617000Y-92261927D01*
X123590829Y-92130360D01*
X123539494Y-92006426D01*
X123464967Y-91894888D01*
X123449007Y-91878928D01*
X123478282Y-91835114D01*
X123529617Y-91711180D01*
X123555788Y-91579613D01*
X123555788Y-91445467D01*
X123529617Y-91313900D01*
X123478282Y-91189966D01*
X123426674Y-91112728D01*
X123463616Y-91057440D01*
X123514951Y-90933506D01*
X123541122Y-90801939D01*
X123541122Y-90667793D01*
X123514951Y-90536226D01*
X123463616Y-90412292D01*
X123390608Y-90303028D01*
X123448186Y-90216856D01*
X123499521Y-90092922D01*
X123525692Y-89961355D01*
X123525692Y-89863896D01*
X125628400Y-91966604D01*
X125628401Y-95943841D01*
X125626065Y-95967556D01*
X125635384Y-96062162D01*
X125662978Y-96153132D01*
X125707792Y-96236971D01*
X125747499Y-96285354D01*
X125768100Y-96310457D01*
X125786513Y-96325568D01*
X127403344Y-97942400D01*
X122578707Y-97942400D01*
X122555000Y-97940065D01*
X122460393Y-97949383D01*
X122369423Y-97976978D01*
X122285585Y-98021791D01*
X122285583Y-98021792D01*
X122285584Y-98021792D01*
X122231503Y-98066175D01*
X122212099Y-98082099D01*
X122196987Y-98100513D01*
X121918500Y-98379000D01*
X121852927Y-98379000D01*
X121721360Y-98405171D01*
X121597426Y-98456506D01*
X121513600Y-98512517D01*
X121513600Y-98370899D01*
X123803353Y-96081147D01*
X123805179Y-96090326D01*
X123856514Y-96214260D01*
X123931041Y-96325798D01*
X124025896Y-96420653D01*
X124137434Y-96495180D01*
X124261368Y-96546515D01*
X124392935Y-96572686D01*
X124527081Y-96572686D01*
X124658648Y-96546515D01*
X124782582Y-96495180D01*
X124894120Y-96420653D01*
X124988975Y-96325798D01*
X125063502Y-96214260D01*
X125114837Y-96090326D01*
X125141008Y-95958759D01*
X125141008Y-95824613D01*
X125114837Y-95693046D01*
X125063502Y-95569112D01*
X124988975Y-95457574D01*
X124894120Y-95362719D01*
X124782582Y-95288192D01*
X124658648Y-95236857D01*
X124649469Y-95235031D01*
X124715500Y-95169000D01*
X124781073Y-95169000D01*
X124912640Y-95142829D01*
X125036574Y-95091494D01*
X125148112Y-95016967D01*
X125242967Y-94922112D01*
X125317494Y-94810574D01*
X125368829Y-94686640D01*
X125395000Y-94555073D01*
X125395000Y-94420927D01*
X125368829Y-94289360D01*
X125317494Y-94165426D01*
X125242967Y-94053888D01*
X125148112Y-93959033D01*
X125036574Y-93884506D01*
X124912640Y-93833171D01*
X124781073Y-93807000D01*
X124646927Y-93807000D01*
X124515360Y-93833171D01*
X124406371Y-93878316D01*
X124353967Y-93799888D01*
X124259112Y-93705033D01*
X124147574Y-93630506D01*
X124023640Y-93579171D01*
X123892073Y-93553000D01*
X123757927Y-93553000D01*
X123626360Y-93579171D01*
X123502426Y-93630506D01*
X123390888Y-93705033D01*
X123296033Y-93799888D01*
X123221506Y-93911426D01*
X123170171Y-94035360D01*
X123144000Y-94166927D01*
X123144000Y-94232501D01*
X120071518Y-97304983D01*
X120053099Y-97320099D01*
X119992791Y-97393585D01*
X119947978Y-97477424D01*
X119920383Y-97568395D01*
X119917370Y-97598989D01*
X119911065Y-97663000D01*
X119913400Y-97686705D01*
X119913401Y-101195285D01*
X119911065Y-101219000D01*
X119920384Y-101313606D01*
X119947978Y-101404576D01*
X119992792Y-101488415D01*
X120035190Y-101540077D01*
X120053100Y-101561901D01*
X120071513Y-101577012D01*
X121307983Y-102813482D01*
X121323099Y-102831901D01*
X121396585Y-102892209D01*
X121480423Y-102937022D01*
X121571394Y-102964617D01*
X121642293Y-102971600D01*
X121642294Y-102971600D01*
X121665999Y-102973935D01*
X121689704Y-102971600D01*
X125235623Y-102971600D01*
X125202171Y-103052360D01*
X125176000Y-103183927D01*
X125176000Y-103318073D01*
X125202171Y-103449640D01*
X125206048Y-103459000D01*
X125154927Y-103459000D01*
X125023360Y-103485171D01*
X124899426Y-103536506D01*
X124787888Y-103611033D01*
X124693033Y-103705888D01*
X124618506Y-103817426D01*
X124567171Y-103941360D01*
X124541000Y-104072927D01*
X124541000Y-104105921D01*
X124481069Y-104094000D01*
X124346923Y-104094000D01*
X124215356Y-104120171D01*
X124091422Y-104171506D01*
X123979884Y-104246033D01*
X123885029Y-104340888D01*
X123810502Y-104452426D01*
X123759167Y-104576360D01*
X123732996Y-104707927D01*
X123732996Y-104842073D01*
X123759167Y-104973640D01*
X123810502Y-105097574D01*
X123885029Y-105209112D01*
X123979884Y-105303967D01*
X124091422Y-105378494D01*
X124215356Y-105429829D01*
X124346923Y-105456000D01*
X124481069Y-105456000D01*
X124612636Y-105429829D01*
X124736570Y-105378494D01*
X124848108Y-105303967D01*
X124942963Y-105209112D01*
X125017490Y-105097574D01*
X125068825Y-104973640D01*
X125094996Y-104842073D01*
X125094996Y-104809079D01*
X125154927Y-104821000D01*
X125289073Y-104821000D01*
X125420640Y-104794829D01*
X125544574Y-104743494D01*
X125656112Y-104668967D01*
X125750967Y-104574112D01*
X125825494Y-104462574D01*
X125876829Y-104338640D01*
X125903000Y-104207073D01*
X125903000Y-104072927D01*
X125876829Y-103941360D01*
X125872952Y-103932000D01*
X125924073Y-103932000D01*
X126055640Y-103905829D01*
X126179574Y-103854494D01*
X126291112Y-103779967D01*
X126385967Y-103685112D01*
X126460494Y-103573574D01*
X126511829Y-103449640D01*
X126538000Y-103318073D01*
X126538000Y-103183927D01*
X126511829Y-103052360D01*
X126478377Y-102971600D01*
X132310295Y-102971600D01*
X132334000Y-102973935D01*
X132357705Y-102971600D01*
X132357707Y-102971600D01*
X132428606Y-102964617D01*
X132519577Y-102937022D01*
X132603415Y-102892209D01*
X132676901Y-102831901D01*
X132692017Y-102813482D01*
X133351496Y-102154004D01*
X133417073Y-102154004D01*
X133548640Y-102127833D01*
X133672574Y-102076498D01*
X133784112Y-102001971D01*
X133878967Y-101907116D01*
X133953494Y-101795578D01*
X134004829Y-101671644D01*
X134031000Y-101540077D01*
X134031000Y-101405931D01*
X134004829Y-101274364D01*
X133953494Y-101150430D01*
X133904660Y-101077345D01*
X137325266Y-101077345D01*
X137371633Y-101123712D01*
X137483171Y-101198239D01*
X137607105Y-101249574D01*
X137738672Y-101275745D01*
X137872818Y-101275745D01*
X138004385Y-101249574D01*
X138128319Y-101198239D01*
X138239857Y-101123712D01*
X138334712Y-101028857D01*
X138409239Y-100917319D01*
X138428132Y-100871708D01*
X138489927Y-100884000D01*
X138624073Y-100884000D01*
X138755640Y-100857829D01*
X138879574Y-100806494D01*
X138991112Y-100731967D01*
X139085967Y-100637112D01*
X139160494Y-100525574D01*
X139211829Y-100401640D01*
X139238000Y-100270073D01*
X139238000Y-100135927D01*
X139211829Y-100004360D01*
X139160494Y-99880426D01*
X139085967Y-99768888D01*
X138991112Y-99674033D01*
X138879574Y-99599506D01*
X138755640Y-99548171D01*
X138624073Y-99522000D01*
X138523500Y-99522000D01*
X138607210Y-99438289D01*
X138630888Y-99461967D01*
X138742426Y-99536494D01*
X138866360Y-99587829D01*
X138997927Y-99614000D01*
X139132073Y-99614000D01*
X139263640Y-99587829D01*
X139387574Y-99536494D01*
X139499112Y-99461967D01*
X139544001Y-99417078D01*
X139544000Y-113873000D01*
X115294049Y-113873000D01*
X115208948Y-113803593D01*
X115127000Y-113704535D01*
X115127000Y-112027000D01*
X125565000Y-112027000D01*
X125565000Y-112377000D01*
X125612546Y-112605742D01*
X125703804Y-112820813D01*
X125835266Y-113013948D01*
X126001881Y-113177725D01*
X126197246Y-113305850D01*
X126413853Y-113393399D01*
X126440256Y-113393803D01*
X126623000Y-113268361D01*
X126623000Y-112027000D01*
X126877000Y-112027000D01*
X126877000Y-113268361D01*
X127059744Y-113393803D01*
X127086147Y-113393399D01*
X127302754Y-113305850D01*
X127498119Y-113177725D01*
X127664734Y-113013948D01*
X127796196Y-112820813D01*
X127887454Y-112605742D01*
X127935000Y-112377000D01*
X127935000Y-112027000D01*
X126877000Y-112027000D01*
X126623000Y-112027000D01*
X125565000Y-112027000D01*
X115127000Y-112027000D01*
X115127000Y-111819927D01*
X137368000Y-111819927D01*
X137368000Y-111954073D01*
X137394171Y-112085640D01*
X137445506Y-112209574D01*
X137520033Y-112321112D01*
X137614888Y-112415967D01*
X137726426Y-112490494D01*
X137850360Y-112541829D01*
X137981927Y-112568000D01*
X138116073Y-112568000D01*
X138247640Y-112541829D01*
X138371574Y-112490494D01*
X138483112Y-112415967D01*
X138577967Y-112321112D01*
X138652494Y-112209574D01*
X138703829Y-112085640D01*
X138730000Y-111954073D01*
X138730000Y-111819927D01*
X138703829Y-111688360D01*
X138652494Y-111564426D01*
X138577967Y-111452888D01*
X138483112Y-111358033D01*
X138371574Y-111283506D01*
X138247640Y-111232171D01*
X138116073Y-111206000D01*
X137981927Y-111206000D01*
X137850360Y-111232171D01*
X137726426Y-111283506D01*
X137614888Y-111358033D01*
X137520033Y-111452888D01*
X137445506Y-111564426D01*
X137394171Y-111688360D01*
X137368000Y-111819927D01*
X115127000Y-111819927D01*
X115127000Y-111423000D01*
X125565000Y-111423000D01*
X125565000Y-111773000D01*
X126623000Y-111773000D01*
X126623000Y-110531639D01*
X126877000Y-110531639D01*
X126877000Y-111773000D01*
X127935000Y-111773000D01*
X127935000Y-111423000D01*
X127887454Y-111194258D01*
X127796196Y-110979187D01*
X127664734Y-110786052D01*
X127498119Y-110622275D01*
X127302754Y-110494150D01*
X127086147Y-110406601D01*
X127059744Y-110406197D01*
X126877000Y-110531639D01*
X126623000Y-110531639D01*
X126440256Y-110406197D01*
X126413853Y-110406601D01*
X126197246Y-110494150D01*
X126001881Y-110622275D01*
X125835266Y-110786052D01*
X125703804Y-110979187D01*
X125612546Y-111194258D01*
X125565000Y-111423000D01*
X115127000Y-111423000D01*
X115127000Y-108159653D01*
X116202460Y-108159653D01*
X116202460Y-108756346D01*
X116216647Y-108900389D01*
X116272710Y-109085202D01*
X116363750Y-109255528D01*
X116486270Y-109404820D01*
X116635562Y-109527340D01*
X116805887Y-109618380D01*
X116990700Y-109674443D01*
X117182900Y-109693373D01*
X117375099Y-109674443D01*
X117559912Y-109618380D01*
X117730238Y-109527340D01*
X117879530Y-109404820D01*
X118002050Y-109255528D01*
X118093090Y-109085203D01*
X118149153Y-108900390D01*
X118163340Y-108756347D01*
X118163340Y-108159654D01*
X118163340Y-108159653D01*
X118201440Y-108159653D01*
X118201440Y-108756346D01*
X118215627Y-108900389D01*
X118271690Y-109085202D01*
X118362730Y-109255528D01*
X118485250Y-109404820D01*
X118634542Y-109527340D01*
X118804867Y-109618380D01*
X118989680Y-109674443D01*
X119181880Y-109693373D01*
X119374079Y-109674443D01*
X119558892Y-109618380D01*
X119729218Y-109527340D01*
X119878510Y-109404820D01*
X120001030Y-109255528D01*
X120092070Y-109085203D01*
X120148133Y-108900390D01*
X120162320Y-108756347D01*
X120162320Y-108159654D01*
X120162320Y-108159653D01*
X120202960Y-108159653D01*
X120202960Y-108756346D01*
X120217147Y-108900389D01*
X120273210Y-109085202D01*
X120364250Y-109255528D01*
X120486770Y-109404820D01*
X120636062Y-109527340D01*
X120806387Y-109618380D01*
X120991200Y-109674443D01*
X121183400Y-109693373D01*
X121375599Y-109674443D01*
X121560412Y-109618380D01*
X121730738Y-109527340D01*
X121880030Y-109404820D01*
X121948735Y-109321102D01*
X121959668Y-109432112D01*
X121995978Y-109551810D01*
X122054943Y-109662124D01*
X122134295Y-109758815D01*
X122230986Y-109838167D01*
X122341300Y-109897132D01*
X122460998Y-109933442D01*
X122585480Y-109945702D01*
X122899170Y-109942630D01*
X123057920Y-109783880D01*
X123057920Y-108585000D01*
X123311920Y-108585000D01*
X123311920Y-109783880D01*
X123470670Y-109942630D01*
X123784360Y-109945702D01*
X123908842Y-109933442D01*
X124028540Y-109897132D01*
X124138854Y-109838167D01*
X124235545Y-109758815D01*
X124314897Y-109662124D01*
X124373862Y-109551810D01*
X124410172Y-109432112D01*
X124422432Y-109307630D01*
X124421993Y-109227000D01*
X127715000Y-109227000D01*
X127715000Y-109777000D01*
X127762546Y-110005742D01*
X127853804Y-110220813D01*
X127985266Y-110413948D01*
X128151881Y-110577725D01*
X128347246Y-110705850D01*
X128563853Y-110793399D01*
X128590256Y-110793803D01*
X128773000Y-110668361D01*
X128773000Y-109227000D01*
X127715000Y-109227000D01*
X124421993Y-109227000D01*
X124419360Y-108743750D01*
X124260610Y-108585000D01*
X123311920Y-108585000D01*
X123057920Y-108585000D01*
X123037920Y-108585000D01*
X123037920Y-108423000D01*
X127715000Y-108423000D01*
X127715000Y-108973000D01*
X128773000Y-108973000D01*
X128773000Y-107531639D01*
X129027000Y-107531639D01*
X129027000Y-108973000D01*
X129047000Y-108973000D01*
X129047000Y-109227000D01*
X129027000Y-109227000D01*
X129027000Y-110668361D01*
X129209744Y-110793803D01*
X129236147Y-110793399D01*
X129452754Y-110705850D01*
X129648119Y-110577725D01*
X129814734Y-110413948D01*
X129946196Y-110220813D01*
X130037454Y-110005742D01*
X130085000Y-109777000D01*
X130085000Y-109331079D01*
X130121888Y-109367967D01*
X130233426Y-109442494D01*
X130357360Y-109493829D01*
X130488927Y-109520000D01*
X130623073Y-109520000D01*
X130754640Y-109493829D01*
X130878574Y-109442494D01*
X130990112Y-109367967D01*
X131084967Y-109273112D01*
X131159494Y-109161574D01*
X131210829Y-109037640D01*
X131237000Y-108906073D01*
X131237000Y-108771927D01*
X131210829Y-108640360D01*
X131159494Y-108516426D01*
X131084967Y-108404888D01*
X130990112Y-108310033D01*
X130878574Y-108235506D01*
X130754640Y-108184171D01*
X130728129Y-108178897D01*
X130728129Y-108131698D01*
X130701958Y-108000131D01*
X130650623Y-107876197D01*
X130576096Y-107764659D01*
X130481241Y-107669804D01*
X130369703Y-107595277D01*
X130245769Y-107543942D01*
X130114202Y-107517771D01*
X129980056Y-107517771D01*
X129848489Y-107543942D01*
X129724555Y-107595277D01*
X129662700Y-107636607D01*
X129648119Y-107622275D01*
X129452754Y-107494150D01*
X129236147Y-107406601D01*
X129209744Y-107406197D01*
X129027000Y-107531639D01*
X128773000Y-107531639D01*
X128590256Y-107406197D01*
X128563853Y-107406601D01*
X128347246Y-107494150D01*
X128151881Y-107622275D01*
X127985266Y-107786052D01*
X127853804Y-107979187D01*
X127762546Y-108194258D01*
X127715000Y-108423000D01*
X123037920Y-108423000D01*
X123037920Y-108331000D01*
X123057920Y-108331000D01*
X123057920Y-107132120D01*
X123311920Y-107132120D01*
X123311920Y-108331000D01*
X124260610Y-108331000D01*
X124419360Y-108172250D01*
X124422432Y-107608370D01*
X124410172Y-107483888D01*
X124373862Y-107364190D01*
X124314897Y-107253876D01*
X124235545Y-107157185D01*
X124138854Y-107077833D01*
X124028540Y-107018868D01*
X123908842Y-106982558D01*
X123784360Y-106970298D01*
X123470670Y-106973370D01*
X123311920Y-107132120D01*
X123057920Y-107132120D01*
X122899170Y-106973370D01*
X122585480Y-106970298D01*
X122460998Y-106982558D01*
X122341300Y-107018868D01*
X122230986Y-107077833D01*
X122134295Y-107157185D01*
X122054943Y-107253876D01*
X121995978Y-107364190D01*
X121959668Y-107483888D01*
X121948735Y-107594898D01*
X121880030Y-107511180D01*
X121730738Y-107388660D01*
X121560413Y-107297620D01*
X121375600Y-107241557D01*
X121183400Y-107222627D01*
X120991201Y-107241557D01*
X120806388Y-107297620D01*
X120636063Y-107388660D01*
X120486771Y-107511180D01*
X120364251Y-107660472D01*
X120273210Y-107830797D01*
X120217147Y-108015610D01*
X120202960Y-108159653D01*
X120162320Y-108159653D01*
X120148133Y-108015611D01*
X120092070Y-107830797D01*
X120001030Y-107660472D01*
X119878510Y-107511180D01*
X119729218Y-107388660D01*
X119558893Y-107297620D01*
X119374080Y-107241557D01*
X119181880Y-107222627D01*
X118989681Y-107241557D01*
X118804868Y-107297620D01*
X118634543Y-107388660D01*
X118485251Y-107511180D01*
X118362731Y-107660472D01*
X118271690Y-107830797D01*
X118215627Y-108015610D01*
X118201440Y-108159653D01*
X118163340Y-108159653D01*
X118149153Y-108015611D01*
X118093090Y-107830797D01*
X118002050Y-107660472D01*
X117879530Y-107511180D01*
X117730238Y-107388660D01*
X117559913Y-107297620D01*
X117375100Y-107241557D01*
X117182900Y-107222627D01*
X116990701Y-107241557D01*
X116805888Y-107297620D01*
X116635563Y-107388660D01*
X116486271Y-107511180D01*
X116363751Y-107660472D01*
X116272710Y-107830797D01*
X116216647Y-108015610D01*
X116202460Y-108159653D01*
X115127000Y-108159653D01*
X115127000Y-106427000D01*
X125565000Y-106427000D01*
X125565000Y-106777000D01*
X125612546Y-107005742D01*
X125703804Y-107220813D01*
X125835266Y-107413948D01*
X126001881Y-107577725D01*
X126197246Y-107705850D01*
X126413853Y-107793399D01*
X126440256Y-107793803D01*
X126623000Y-107668361D01*
X126623000Y-106427000D01*
X125565000Y-106427000D01*
X115127000Y-106427000D01*
X115127000Y-105823000D01*
X125565000Y-105823000D01*
X125565000Y-106173000D01*
X126623000Y-106173000D01*
X126623000Y-104931639D01*
X126877000Y-104931639D01*
X126877000Y-106173000D01*
X126897000Y-106173000D01*
X126897000Y-106427000D01*
X126877000Y-106427000D01*
X126877000Y-107668361D01*
X127059744Y-107793803D01*
X127086147Y-107793399D01*
X127302754Y-107705850D01*
X127498119Y-107577725D01*
X127664734Y-107413948D01*
X127796196Y-107220813D01*
X127887454Y-107005742D01*
X127935000Y-106777000D01*
X127935000Y-106342228D01*
X127948927Y-106344998D01*
X128083073Y-106344998D01*
X128214640Y-106318827D01*
X128338574Y-106267492D01*
X128450112Y-106192965D01*
X128544967Y-106098110D01*
X128619494Y-105986572D01*
X128670829Y-105862638D01*
X128697000Y-105731071D01*
X128697000Y-105596925D01*
X128670829Y-105465358D01*
X128619494Y-105341424D01*
X128544967Y-105229886D01*
X128450112Y-105135031D01*
X128338574Y-105060504D01*
X128214640Y-105009169D01*
X128083073Y-104982998D01*
X127948927Y-104982998D01*
X127817360Y-105009169D01*
X127693426Y-105060504D01*
X127600308Y-105122723D01*
X127498119Y-105022275D01*
X127302754Y-104894150D01*
X127086147Y-104806601D01*
X127059744Y-104806197D01*
X126877000Y-104931639D01*
X126623000Y-104931639D01*
X126440256Y-104806197D01*
X126413853Y-104806601D01*
X126197246Y-104894150D01*
X126001881Y-105022275D01*
X125835266Y-105186052D01*
X125703804Y-105379187D01*
X125612546Y-105594258D01*
X125565000Y-105823000D01*
X115127000Y-105823000D01*
X115127000Y-104802480D01*
X116512298Y-104802480D01*
X116524558Y-104926962D01*
X116560868Y-105046660D01*
X116619833Y-105156974D01*
X116699185Y-105253665D01*
X116795876Y-105333017D01*
X116906190Y-105391982D01*
X117025888Y-105428292D01*
X117150370Y-105440552D01*
X117714250Y-105437480D01*
X117873000Y-105278730D01*
X117873000Y-104330040D01*
X118127000Y-104330040D01*
X118127000Y-105278730D01*
X118285750Y-105437480D01*
X118849630Y-105440552D01*
X118974112Y-105428292D01*
X119093810Y-105391982D01*
X119204124Y-105333017D01*
X119300815Y-105253665D01*
X119380167Y-105156974D01*
X119439132Y-105046660D01*
X119475442Y-104926962D01*
X119487702Y-104802480D01*
X119484630Y-104488790D01*
X119325880Y-104330040D01*
X118127000Y-104330040D01*
X117873000Y-104330040D01*
X116674120Y-104330040D01*
X116515370Y-104488790D01*
X116512298Y-104802480D01*
X115127000Y-104802480D01*
X115127000Y-103603600D01*
X116512298Y-103603600D01*
X116515370Y-103917290D01*
X116674120Y-104076040D01*
X117873000Y-104076040D01*
X117873000Y-104056040D01*
X118127000Y-104056040D01*
X118127000Y-104076040D01*
X119325880Y-104076040D01*
X119484630Y-103917290D01*
X119487702Y-103603600D01*
X119475442Y-103479118D01*
X119439132Y-103359420D01*
X119380167Y-103249106D01*
X119300815Y-103152415D01*
X119204124Y-103073063D01*
X119093810Y-103014098D01*
X118974112Y-102977788D01*
X118863102Y-102966855D01*
X118946820Y-102898150D01*
X119069340Y-102748858D01*
X119155035Y-102588533D01*
X119177426Y-102603494D01*
X119301360Y-102654829D01*
X119432927Y-102681000D01*
X119567073Y-102681000D01*
X119698640Y-102654829D01*
X119822574Y-102603494D01*
X119934112Y-102528967D01*
X120028967Y-102434112D01*
X120103494Y-102322574D01*
X120154829Y-102198640D01*
X120181000Y-102067073D01*
X120181000Y-101932927D01*
X120154829Y-101801360D01*
X120103494Y-101677426D01*
X120028967Y-101565888D01*
X119934112Y-101471033D01*
X119822574Y-101396506D01*
X119698640Y-101345171D01*
X119567073Y-101319000D01*
X119432927Y-101319000D01*
X119301360Y-101345171D01*
X119177426Y-101396506D01*
X119065888Y-101471033D01*
X118985229Y-101551692D01*
X118946820Y-101504890D01*
X118797528Y-101382370D01*
X118627203Y-101291330D01*
X118442390Y-101235267D01*
X118298347Y-101221080D01*
X117701653Y-101221080D01*
X117557610Y-101235267D01*
X117372797Y-101291330D01*
X117202472Y-101382370D01*
X117053180Y-101504890D01*
X116930660Y-101654182D01*
X116839620Y-101824507D01*
X116783557Y-102009320D01*
X116764627Y-102201520D01*
X116783557Y-102393720D01*
X116839620Y-102578533D01*
X116930660Y-102748858D01*
X117053180Y-102898150D01*
X117136898Y-102966855D01*
X117025888Y-102977788D01*
X116906190Y-103014098D01*
X116795876Y-103073063D01*
X116699185Y-103152415D01*
X116619833Y-103249106D01*
X116560868Y-103359420D01*
X116524558Y-103479118D01*
X116512298Y-103603600D01*
X115127000Y-103603600D01*
X115127000Y-100200000D01*
X116764627Y-100200000D01*
X116783557Y-100392200D01*
X116839620Y-100577013D01*
X116930660Y-100747338D01*
X117053180Y-100896630D01*
X117202472Y-101019150D01*
X117372797Y-101110190D01*
X117557610Y-101166253D01*
X117701653Y-101180440D01*
X118298347Y-101180440D01*
X118442390Y-101166253D01*
X118627203Y-101110190D01*
X118797528Y-101019150D01*
X118946820Y-100896630D01*
X119069340Y-100747338D01*
X119160380Y-100577013D01*
X119216443Y-100392200D01*
X119235373Y-100200000D01*
X119216443Y-100007800D01*
X119160380Y-99822987D01*
X119069340Y-99652662D01*
X118946820Y-99503370D01*
X118797528Y-99380850D01*
X118627203Y-99289810D01*
X118442390Y-99233747D01*
X118298347Y-99219560D01*
X117701653Y-99219560D01*
X117557610Y-99233747D01*
X117372797Y-99289810D01*
X117202472Y-99380850D01*
X117053180Y-99503370D01*
X116930660Y-99652662D01*
X116839620Y-99822987D01*
X116783557Y-100007800D01*
X116764627Y-100200000D01*
X115127000Y-100200000D01*
X115127000Y-97432927D01*
X116319000Y-97432927D01*
X116319000Y-97567073D01*
X116345171Y-97698640D01*
X116396506Y-97822574D01*
X116471033Y-97934112D01*
X116565888Y-98028967D01*
X116677426Y-98103494D01*
X116801360Y-98154829D01*
X116932927Y-98181000D01*
X117067073Y-98181000D01*
X117198640Y-98154829D01*
X117322574Y-98103494D01*
X117434112Y-98028967D01*
X117528967Y-97934112D01*
X117603494Y-97822574D01*
X117654829Y-97698640D01*
X117681000Y-97567073D01*
X117681000Y-97432927D01*
X117654829Y-97301360D01*
X117603494Y-97177426D01*
X117528967Y-97065888D01*
X117434112Y-96971033D01*
X117322574Y-96896506D01*
X117198640Y-96845171D01*
X117067073Y-96819000D01*
X116932927Y-96819000D01*
X116801360Y-96845171D01*
X116677426Y-96896506D01*
X116565888Y-96971033D01*
X116471033Y-97065888D01*
X116396506Y-97177426D01*
X116345171Y-97301360D01*
X116319000Y-97432927D01*
X115127000Y-97432927D01*
X115127000Y-90705880D01*
X116750527Y-90705880D01*
X116750527Y-91904760D01*
X116757883Y-91979449D01*
X116779669Y-92051268D01*
X116815048Y-92117456D01*
X116862659Y-92175471D01*
X116920674Y-92223082D01*
X116986862Y-92258461D01*
X117058681Y-92280247D01*
X117133370Y-92287603D01*
X118832630Y-92287603D01*
X118907319Y-92280247D01*
X118979138Y-92258461D01*
X119045326Y-92223082D01*
X119103341Y-92175471D01*
X119150952Y-92117456D01*
X119186331Y-92051268D01*
X119208117Y-91979449D01*
X119215473Y-91904760D01*
X119215473Y-90705880D01*
X119208117Y-90631191D01*
X119186331Y-90559372D01*
X119150952Y-90493184D01*
X119103341Y-90435169D01*
X119045326Y-90387558D01*
X118979138Y-90352179D01*
X118907319Y-90330393D01*
X118832630Y-90323037D01*
X117133370Y-90323037D01*
X117058681Y-90330393D01*
X116986862Y-90352179D01*
X116920674Y-90387558D01*
X116862659Y-90435169D01*
X116815048Y-90493184D01*
X116779669Y-90559372D01*
X116757883Y-90631191D01*
X116750527Y-90705880D01*
X115127000Y-90705880D01*
X115127000Y-59410154D01*
X118065000Y-59410154D01*
X118065000Y-59573846D01*
X118096935Y-59734394D01*
X118159577Y-59885626D01*
X118250520Y-60021732D01*
X118366268Y-60137480D01*
X118502374Y-60228423D01*
X118653606Y-60291065D01*
X118814154Y-60323000D01*
X118977846Y-60323000D01*
X119138394Y-60291065D01*
X119289626Y-60228423D01*
X119425732Y-60137480D01*
X119541480Y-60021732D01*
X119632423Y-59885626D01*
X119695065Y-59734394D01*
X119727000Y-59573846D01*
X119727000Y-59410154D01*
X121065000Y-59410154D01*
X121065000Y-59573846D01*
X121096935Y-59734394D01*
X121159577Y-59885626D01*
X121250520Y-60021732D01*
X121366268Y-60137480D01*
X121502374Y-60228423D01*
X121653606Y-60291065D01*
X121814154Y-60323000D01*
X121977846Y-60323000D01*
X122138394Y-60291065D01*
X122289626Y-60228423D01*
X122425732Y-60137480D01*
X122541480Y-60021732D01*
X122632423Y-59885626D01*
X122695065Y-59734394D01*
X122727000Y-59573846D01*
X122727000Y-59410154D01*
X122695065Y-59249606D01*
X122632423Y-59098374D01*
X122541480Y-58962268D01*
X122428842Y-58849630D01*
X125608688Y-58849630D01*
X125620948Y-58974112D01*
X125657258Y-59093810D01*
X125716223Y-59204124D01*
X125795575Y-59300815D01*
X125892266Y-59380167D01*
X126002580Y-59439132D01*
X126122278Y-59475442D01*
X126246760Y-59487702D01*
X126560450Y-59484630D01*
X126719200Y-59325880D01*
X126719200Y-58127000D01*
X125770510Y-58127000D01*
X125611760Y-58285750D01*
X125608688Y-58849630D01*
X122428842Y-58849630D01*
X122425732Y-58846520D01*
X122289626Y-58755577D01*
X122138394Y-58692935D01*
X121977846Y-58661000D01*
X121814154Y-58661000D01*
X121653606Y-58692935D01*
X121502374Y-58755577D01*
X121366268Y-58846520D01*
X121250520Y-58962268D01*
X121159577Y-59098374D01*
X121096935Y-59249606D01*
X121065000Y-59410154D01*
X119727000Y-59410154D01*
X119695065Y-59249606D01*
X119632423Y-59098374D01*
X119541480Y-58962268D01*
X119425732Y-58846520D01*
X119289626Y-58755577D01*
X119138394Y-58692935D01*
X118977846Y-58661000D01*
X118814154Y-58661000D01*
X118653606Y-58692935D01*
X118502374Y-58755577D01*
X118366268Y-58846520D01*
X118250520Y-58962268D01*
X118159577Y-59098374D01*
X118096935Y-59249606D01*
X118065000Y-59410154D01*
X115127000Y-59410154D01*
X115127000Y-57150370D01*
X125608688Y-57150370D01*
X125611760Y-57714250D01*
X125770510Y-57873000D01*
X126719200Y-57873000D01*
X126719200Y-56674120D01*
X126973200Y-56674120D01*
X126973200Y-57873000D01*
X126993200Y-57873000D01*
X126993200Y-58127000D01*
X126973200Y-58127000D01*
X126973200Y-59325880D01*
X127131950Y-59484630D01*
X127445640Y-59487702D01*
X127570122Y-59475442D01*
X127689820Y-59439132D01*
X127800134Y-59380167D01*
X127896825Y-59300815D01*
X127976177Y-59204124D01*
X128035142Y-59093810D01*
X128071452Y-58974112D01*
X128082385Y-58863101D01*
X128151091Y-58946820D01*
X128300383Y-59069340D01*
X128470708Y-59160380D01*
X128655521Y-59216443D01*
X128847720Y-59235373D01*
X129039920Y-59216443D01*
X129224733Y-59160380D01*
X129395058Y-59069340D01*
X129544350Y-58946820D01*
X129666870Y-58797528D01*
X129757910Y-58627203D01*
X129813973Y-58442389D01*
X129828160Y-58298346D01*
X129828160Y-57701653D01*
X129813973Y-57557610D01*
X129757910Y-57372797D01*
X129666870Y-57202472D01*
X129544350Y-57053180D01*
X129395058Y-56930660D01*
X129224732Y-56839620D01*
X129039919Y-56783557D01*
X128847720Y-56764627D01*
X128655520Y-56783557D01*
X128470707Y-56839620D01*
X128300382Y-56930660D01*
X128151090Y-57053180D01*
X128082385Y-57136898D01*
X128071452Y-57025888D01*
X128035142Y-56906190D01*
X127976177Y-56795876D01*
X127896825Y-56699185D01*
X127800134Y-56619833D01*
X127689820Y-56560868D01*
X127570122Y-56524558D01*
X127445640Y-56512298D01*
X127131950Y-56515370D01*
X126973200Y-56674120D01*
X126719200Y-56674120D01*
X126560450Y-56515370D01*
X126246760Y-56512298D01*
X126122278Y-56524558D01*
X126002580Y-56560868D01*
X125892266Y-56619833D01*
X125795575Y-56699185D01*
X125716223Y-56795876D01*
X125657258Y-56906190D01*
X125620948Y-57025888D01*
X125608688Y-57150370D01*
X115127000Y-57150370D01*
X115127000Y-56320929D01*
X121239000Y-56320929D01*
X121239000Y-56455075D01*
X121265171Y-56586642D01*
X121316506Y-56710576D01*
X121391033Y-56822114D01*
X121485888Y-56916969D01*
X121597426Y-56991496D01*
X121721360Y-57042831D01*
X121852927Y-57069002D01*
X121987073Y-57069002D01*
X122118640Y-57042831D01*
X122242574Y-56991496D01*
X122354112Y-56916969D01*
X122448967Y-56822114D01*
X122523494Y-56710576D01*
X122574829Y-56586642D01*
X122601000Y-56455075D01*
X122601000Y-56320929D01*
X122574829Y-56189362D01*
X122523494Y-56065428D01*
X122448967Y-55953890D01*
X122354112Y-55859035D01*
X122242574Y-55784508D01*
X122118640Y-55733173D01*
X121987073Y-55707002D01*
X121852927Y-55707002D01*
X121721360Y-55733173D01*
X121597426Y-55784508D01*
X121485888Y-55859035D01*
X121391033Y-55953890D01*
X121316506Y-56065428D01*
X121265171Y-56189362D01*
X121239000Y-56320929D01*
X115127000Y-56320929D01*
X115127000Y-56294049D01*
X115196405Y-56208950D01*
X115578638Y-55892740D01*
X116015007Y-55656797D01*
X116488899Y-55510102D01*
X117003648Y-55456000D01*
X132717214Y-55456000D01*
X132648418Y-55484496D01*
X132648418Y-55484496D01*
G37*
X132648418Y-55484496D02*
X132536880Y-55559023D01*
X132442025Y-55653878D01*
X132367498Y-55765416D01*
X132316163Y-55889350D01*
X132289992Y-56020917D01*
X132289992Y-56155063D01*
X132316163Y-56286630D01*
X132367498Y-56410564D01*
X132442025Y-56522102D01*
X132536880Y-56616957D01*
X132648418Y-56691484D01*
X132772352Y-56742819D01*
X132903919Y-56768990D01*
X133038065Y-56768990D01*
X133169632Y-56742819D01*
X133293566Y-56691484D01*
X133405104Y-56616957D01*
X133499959Y-56522102D01*
X133574486Y-56410564D01*
X133625821Y-56286630D01*
X133651992Y-56155063D01*
X133651992Y-56020917D01*
X133625821Y-55889350D01*
X133574486Y-55765416D01*
X133499959Y-55653878D01*
X133405104Y-55559023D01*
X133293566Y-55484496D01*
X133224770Y-55456000D01*
X140873000Y-55456000D01*
X140873000Y-61620400D01*
X136802704Y-61620400D01*
X136778999Y-61618065D01*
X136755294Y-61620400D01*
X136755293Y-61620400D01*
X136684394Y-61627383D01*
X136593423Y-61654978D01*
X136509585Y-61699791D01*
X136436099Y-61760099D01*
X136420987Y-61778513D01*
X136015501Y-62184000D01*
X135949931Y-62184000D01*
X135818364Y-62210171D01*
X135694430Y-62261506D01*
X135582892Y-62336033D01*
X135488037Y-62430888D01*
X135413510Y-62542426D01*
X135362175Y-62666360D01*
X135336004Y-62797927D01*
X135336004Y-62932073D01*
X135362175Y-63063640D01*
X135413510Y-63187574D01*
X135488037Y-63299112D01*
X135498423Y-63309498D01*
X135488033Y-63319888D01*
X135413506Y-63431426D01*
X135362171Y-63555360D01*
X135336000Y-63686927D01*
X135336000Y-63821073D01*
X135362171Y-63952640D01*
X135413506Y-64076574D01*
X135440786Y-64117401D01*
X131966212Y-64117401D01*
X131942505Y-64115066D01*
X131847898Y-64124384D01*
X131756928Y-64151979D01*
X131673090Y-64196792D01*
X131599604Y-64257100D01*
X131584492Y-64275514D01*
X131463336Y-64396670D01*
X131397763Y-64396670D01*
X131266196Y-64422841D01*
X131142262Y-64474176D01*
X131030724Y-64548703D01*
X130935869Y-64643558D01*
X130861342Y-64755096D01*
X130810007Y-64879030D01*
X130783836Y-65010597D01*
X130783836Y-65144743D01*
X130810007Y-65276310D01*
X130861342Y-65400244D01*
X130935869Y-65511782D01*
X130981487Y-65557400D01*
X129436704Y-65557400D01*
X129412999Y-65555065D01*
X129389294Y-65557400D01*
X129389293Y-65557400D01*
X129318394Y-65564383D01*
X129227423Y-65591978D01*
X129143585Y-65636791D01*
X129070099Y-65697099D01*
X129054983Y-65715518D01*
X123063000Y-71707501D01*
X123063000Y-71383024D01*
X131705240Y-62740785D01*
X131874273Y-62724136D01*
X132041850Y-62673303D01*
X132196290Y-62590753D01*
X132331659Y-62479659D01*
X132442753Y-62344291D01*
X132525303Y-62189851D01*
X132576136Y-62022274D01*
X132589000Y-61891667D01*
X132589000Y-60750659D01*
X132593300Y-60706999D01*
X132589000Y-60663339D01*
X132589000Y-60663333D01*
X132576136Y-60532726D01*
X132568442Y-60507360D01*
X132554627Y-60461820D01*
X132525303Y-60365149D01*
X132442753Y-60210709D01*
X132331659Y-60075341D01*
X132297736Y-60047501D01*
X132296740Y-60046505D01*
X132295637Y-60045600D01*
X133453295Y-60045600D01*
X133477000Y-60047935D01*
X133500705Y-60045600D01*
X133500707Y-60045600D01*
X133571606Y-60038617D01*
X133662577Y-60011022D01*
X133746415Y-59966209D01*
X133819901Y-59905901D01*
X133835017Y-59887482D01*
X133859499Y-59863000D01*
X133925073Y-59863000D01*
X134056640Y-59836829D01*
X134180574Y-59785494D01*
X134292112Y-59710967D01*
X134386967Y-59616112D01*
X134461494Y-59504574D01*
X134512829Y-59380640D01*
X134539000Y-59249073D01*
X134539000Y-59180484D01*
X134657541Y-59216443D01*
X134849740Y-59235373D01*
X135041940Y-59216443D01*
X135226753Y-59160380D01*
X135397078Y-59069340D01*
X135546370Y-58946820D01*
X135668890Y-58797528D01*
X135759930Y-58627203D01*
X135815993Y-58442389D01*
X135830180Y-58298346D01*
X135830180Y-57701654D01*
X135870820Y-57701654D01*
X135870820Y-58298347D01*
X135885007Y-58442390D01*
X135941070Y-58627203D01*
X136032111Y-58797528D01*
X136154631Y-58946820D01*
X136303923Y-59069340D01*
X136474248Y-59160380D01*
X136659061Y-59216443D01*
X136851260Y-59235373D01*
X137043460Y-59216443D01*
X137228273Y-59160380D01*
X137398598Y-59069340D01*
X137547890Y-58946820D01*
X137670410Y-58797528D01*
X137761450Y-58627203D01*
X137817513Y-58442389D01*
X137831700Y-58298346D01*
X137831700Y-57701653D01*
X137817513Y-57557610D01*
X137761450Y-57372797D01*
X137670410Y-57202472D01*
X137547890Y-57053180D01*
X137398598Y-56930660D01*
X137228272Y-56839620D01*
X137043459Y-56783557D01*
X136851260Y-56764627D01*
X136659060Y-56783557D01*
X136474247Y-56839620D01*
X136303922Y-56930660D01*
X136154630Y-57053180D01*
X136032110Y-57202472D01*
X135941070Y-57372798D01*
X135885007Y-57557611D01*
X135870820Y-57701654D01*
X135830180Y-57701654D01*
X135830180Y-57701653D01*
X135815993Y-57557610D01*
X135759930Y-57372797D01*
X135668890Y-57202472D01*
X135546370Y-57053180D01*
X135397078Y-56930660D01*
X135226752Y-56839620D01*
X135041939Y-56783557D01*
X134849740Y-56764627D01*
X134657540Y-56783557D01*
X134472727Y-56839620D01*
X134302402Y-56930660D01*
X134153110Y-57053180D01*
X134030590Y-57202472D01*
X133939550Y-57372798D01*
X133883487Y-57557611D01*
X133869300Y-57701654D01*
X133869300Y-58298347D01*
X133883487Y-58442390D01*
X133901266Y-58501000D01*
X133796693Y-58501000D01*
X133814473Y-58442389D01*
X133828660Y-58298346D01*
X133828660Y-57701653D01*
X133814473Y-57557610D01*
X133758410Y-57372797D01*
X133667370Y-57202472D01*
X133544850Y-57053180D01*
X133395558Y-56930660D01*
X133225232Y-56839620D01*
X133040419Y-56783557D01*
X132848220Y-56764627D01*
X132656020Y-56783557D01*
X132471207Y-56839620D01*
X132300882Y-56930660D01*
X132151590Y-57053180D01*
X132029070Y-57202472D01*
X131938030Y-57372798D01*
X131881967Y-57557611D01*
X131867780Y-57701654D01*
X131867780Y-58298347D01*
X131881967Y-58442390D01*
X131938030Y-58627203D01*
X132029071Y-58797528D01*
X132151591Y-58946820D01*
X132300883Y-59069340D01*
X132321575Y-59080400D01*
X131375886Y-59080400D01*
X131396578Y-59069340D01*
X131545870Y-58946820D01*
X131668390Y-58797528D01*
X131759430Y-58627203D01*
X131815493Y-58442389D01*
X131829680Y-58298346D01*
X131829680Y-57701653D01*
X131815493Y-57557610D01*
X131759430Y-57372797D01*
X131668390Y-57202472D01*
X131545870Y-57053180D01*
X131396578Y-56930660D01*
X131226252Y-56839620D01*
X131041439Y-56783557D01*
X130849240Y-56764627D01*
X130657040Y-56783557D01*
X130472227Y-56839620D01*
X130301902Y-56930660D01*
X130152610Y-57053180D01*
X130030090Y-57202472D01*
X129939050Y-57372798D01*
X129882987Y-57557611D01*
X129868800Y-57701654D01*
X129868800Y-58298347D01*
X129882987Y-58442390D01*
X129939050Y-58627203D01*
X130030091Y-58797528D01*
X130152611Y-58946820D01*
X130301903Y-59069340D01*
X130472228Y-59160380D01*
X130657041Y-59216443D01*
X130849240Y-59235373D01*
X130972529Y-59223230D01*
X130959988Y-59238512D01*
X127460490Y-62738011D01*
X126743859Y-62738011D01*
X128287457Y-61194413D01*
X128353031Y-61194413D01*
X128484598Y-61168242D01*
X128608532Y-61116907D01*
X128720070Y-61042380D01*
X128814925Y-60947525D01*
X128889452Y-60835987D01*
X128940787Y-60712053D01*
X128966958Y-60580486D01*
X128966958Y-60446340D01*
X128940787Y-60314773D01*
X128889452Y-60190839D01*
X128814925Y-60079301D01*
X128720070Y-59984446D01*
X128608532Y-59909919D01*
X128484598Y-59858584D01*
X128353031Y-59832413D01*
X128218885Y-59832413D01*
X128087318Y-59858584D01*
X127963384Y-59909919D01*
X127851846Y-59984446D01*
X127756991Y-60079301D01*
X127682464Y-60190839D01*
X127631129Y-60314773D01*
X127604958Y-60446340D01*
X127604958Y-60511914D01*
X125734472Y-62382400D01*
X122070704Y-62382400D01*
X122046999Y-62380065D01*
X122023294Y-62382400D01*
X122023293Y-62382400D01*
X121952394Y-62389383D01*
X121861423Y-62416978D01*
X121777585Y-62461791D01*
X121777583Y-62461792D01*
X121777584Y-62461792D01*
X121722527Y-62506976D01*
X121704099Y-62522099D01*
X121688990Y-62540510D01*
X120528735Y-63700766D01*
X120510322Y-63715877D01*
X120495211Y-63734290D01*
X120495209Y-63734292D01*
X120450014Y-63789363D01*
X120405200Y-63873202D01*
X120377606Y-63964172D01*
X120368287Y-64058778D01*
X120370623Y-64082493D01*
X120370623Y-67364123D01*
X119483037Y-66476538D01*
X119467921Y-66458119D01*
X119394435Y-66397811D01*
X119310597Y-66352998D01*
X119219626Y-66325403D01*
X119148727Y-66318420D01*
X119148725Y-66318420D01*
X119125020Y-66316085D01*
X119101315Y-66318420D01*
X119086943Y-66318420D01*
X119052340Y-66253682D01*
X118929820Y-66104390D01*
X118780528Y-65981870D01*
X118610203Y-65890830D01*
X118425390Y-65834767D01*
X118281347Y-65820580D01*
X117684653Y-65820580D01*
X117540610Y-65834767D01*
X117355797Y-65890830D01*
X117185472Y-65981870D01*
X117036180Y-66104390D01*
X116913660Y-66253682D01*
X116840000Y-66391491D01*
X116840000Y-65668024D01*
X117025233Y-65482791D01*
X117036180Y-65496130D01*
X117185472Y-65618650D01*
X117355797Y-65709690D01*
X117540610Y-65765753D01*
X117684653Y-65779940D01*
X118281347Y-65779940D01*
X118425390Y-65765753D01*
X118610203Y-65709690D01*
X118780528Y-65618650D01*
X118929820Y-65496130D01*
X119052340Y-65346838D01*
X119143380Y-65176513D01*
X119199443Y-64991700D01*
X119218373Y-64799500D01*
X119199443Y-64607300D01*
X119143380Y-64422487D01*
X119052340Y-64252162D01*
X118929820Y-64102870D01*
X118780528Y-63980350D01*
X118610203Y-63889310D01*
X118425390Y-63833247D01*
X118281347Y-63819060D01*
X117684653Y-63819060D01*
X117540610Y-63833247D01*
X117355797Y-63889310D01*
X117185472Y-63980350D01*
X117036180Y-64102870D01*
X116985602Y-64164500D01*
X116841680Y-64164500D01*
X116810499Y-64161429D01*
X116779318Y-64164500D01*
X116779308Y-64164500D01*
X116686018Y-64173688D01*
X116566320Y-64209998D01*
X116494431Y-64248424D01*
X116456005Y-64268963D01*
X116411153Y-64305773D01*
X116359315Y-64348315D01*
X116339430Y-64372545D01*
X115778046Y-64933930D01*
X115753816Y-64953815D01*
X115733932Y-64978044D01*
X115674463Y-65050507D01*
X115615498Y-65160821D01*
X115600094Y-65211603D01*
X115580466Y-65276310D01*
X115579189Y-65280519D01*
X115566929Y-65405000D01*
X115570001Y-65436191D01*
X115570000Y-88614819D01*
X115566929Y-88646000D01*
X115570000Y-88677181D01*
X115570000Y-88677191D01*
X115579188Y-88770481D01*
X115615498Y-88890179D01*
X115674463Y-89000493D01*
X115753815Y-89097185D01*
X115778050Y-89117074D01*
X116391734Y-89730760D01*
X116411615Y-89754985D01*
X116435839Y-89774865D01*
X116435843Y-89774869D01*
X116508306Y-89834338D01*
X116618620Y-89893302D01*
X116738318Y-89929612D01*
X116831608Y-89938800D01*
X116831611Y-89938800D01*
X116862800Y-89941872D01*
X116893989Y-89938800D01*
X116985602Y-89938800D01*
X117036180Y-90000430D01*
X117185472Y-90122950D01*
X117355797Y-90213990D01*
X117540610Y-90270053D01*
X117684653Y-90284240D01*
X118281347Y-90284240D01*
X118425390Y-90270053D01*
X118610203Y-90213990D01*
X118780528Y-90122950D01*
X118929820Y-90000430D01*
X119052340Y-89851138D01*
X119143380Y-89680813D01*
X119199443Y-89496000D01*
X119218373Y-89303800D01*
X119199443Y-89111600D01*
X119143380Y-88926787D01*
X119052340Y-88756462D01*
X118929820Y-88607170D01*
X118780528Y-88484650D01*
X118712288Y-88448175D01*
X118776446Y-88424563D01*
X118984954Y-88297015D01*
X119164572Y-88131240D01*
X119308398Y-87933608D01*
X119410904Y-87711715D01*
X119426095Y-87619801D01*
X119301357Y-87429280D01*
X118110000Y-87429280D01*
X118110000Y-87449280D01*
X117856000Y-87449280D01*
X117856000Y-87429280D01*
X117836000Y-87429280D01*
X117836000Y-87175280D01*
X117856000Y-87175280D01*
X117856000Y-87155280D01*
X118110000Y-87155280D01*
X118110000Y-87175280D01*
X119301357Y-87175280D01*
X119426095Y-86984759D01*
X119410904Y-86892845D01*
X119308398Y-86670952D01*
X119164572Y-86473320D01*
X118984954Y-86307545D01*
X118776446Y-86179997D01*
X118715102Y-86157421D01*
X118780528Y-86122450D01*
X118929820Y-85999930D01*
X119052340Y-85850638D01*
X119143380Y-85680313D01*
X119199443Y-85495500D01*
X119218373Y-85303300D01*
X119199443Y-85111100D01*
X119143380Y-84926287D01*
X119052340Y-84755962D01*
X118929820Y-84606670D01*
X118780528Y-84484150D01*
X118610203Y-84393110D01*
X118425390Y-84337047D01*
X118281347Y-84322860D01*
X117684653Y-84322860D01*
X117540610Y-84337047D01*
X117355797Y-84393110D01*
X117185472Y-84484150D01*
X117036180Y-84606670D01*
X116913660Y-84755962D01*
X116840000Y-84893771D01*
X116840000Y-83708769D01*
X116913660Y-83846578D01*
X117036180Y-83995870D01*
X117185472Y-84118390D01*
X117355797Y-84209430D01*
X117540610Y-84265493D01*
X117684653Y-84279680D01*
X118281347Y-84279680D01*
X118425390Y-84265493D01*
X118610203Y-84209430D01*
X118780528Y-84118390D01*
X118929820Y-83995870D01*
X119052340Y-83846578D01*
X119143380Y-83676253D01*
X119199443Y-83491440D01*
X119218373Y-83299240D01*
X119199443Y-83107040D01*
X119143380Y-82922227D01*
X119052340Y-82751902D01*
X118929820Y-82602610D01*
X118780528Y-82480090D01*
X118610203Y-82389050D01*
X118425390Y-82332987D01*
X118281347Y-82318800D01*
X117684653Y-82318800D01*
X117540610Y-82332987D01*
X117355797Y-82389050D01*
X117185472Y-82480090D01*
X117036180Y-82602610D01*
X116913660Y-82751902D01*
X116840000Y-82889711D01*
X116840000Y-81707249D01*
X116913660Y-81845058D01*
X117036180Y-81994350D01*
X117185472Y-82116870D01*
X117355797Y-82207910D01*
X117540610Y-82263973D01*
X117684653Y-82278160D01*
X118281347Y-82278160D01*
X118425390Y-82263973D01*
X118610203Y-82207910D01*
X118780528Y-82116870D01*
X118929820Y-81994350D01*
X119052340Y-81845058D01*
X119143380Y-81674733D01*
X119199443Y-81489920D01*
X119218373Y-81297720D01*
X119199443Y-81105520D01*
X119143380Y-80920707D01*
X119052340Y-80750382D01*
X118929820Y-80601090D01*
X118780528Y-80478570D01*
X118610203Y-80387530D01*
X118425390Y-80331467D01*
X118281347Y-80317280D01*
X117684653Y-80317280D01*
X117540610Y-80331467D01*
X117355797Y-80387530D01*
X117185472Y-80478570D01*
X117036180Y-80601090D01*
X116913660Y-80750382D01*
X116840000Y-80888191D01*
X116840000Y-79708269D01*
X116913660Y-79846078D01*
X117036180Y-79995370D01*
X117185472Y-80117890D01*
X117355797Y-80208930D01*
X117540610Y-80264993D01*
X117684653Y-80279180D01*
X118281347Y-80279180D01*
X118425390Y-80264993D01*
X118610203Y-80208930D01*
X118780528Y-80117890D01*
X118929820Y-79995370D01*
X119052340Y-79846078D01*
X119143380Y-79675753D01*
X119199443Y-79490940D01*
X119218373Y-79298740D01*
X119199443Y-79106540D01*
X119143380Y-78921727D01*
X119052340Y-78751402D01*
X118929820Y-78602110D01*
X118780528Y-78479590D01*
X118610203Y-78388550D01*
X118425390Y-78332487D01*
X118281347Y-78318300D01*
X117684653Y-78318300D01*
X117540610Y-78332487D01*
X117355797Y-78388550D01*
X117185472Y-78479590D01*
X117036180Y-78602110D01*
X116913660Y-78751402D01*
X116840000Y-78889211D01*
X116840000Y-77709289D01*
X116913660Y-77847098D01*
X117036180Y-77996390D01*
X117185472Y-78118910D01*
X117355797Y-78209950D01*
X117540610Y-78266013D01*
X117684653Y-78280200D01*
X118281347Y-78280200D01*
X118425390Y-78266013D01*
X118610203Y-78209950D01*
X118780528Y-78118910D01*
X118929820Y-77996390D01*
X119052340Y-77847098D01*
X119143380Y-77676773D01*
X119199443Y-77491960D01*
X119218373Y-77299760D01*
X119199443Y-77107560D01*
X119143380Y-76922747D01*
X119052340Y-76752422D01*
X118929820Y-76603130D01*
X118780528Y-76480610D01*
X118610203Y-76389570D01*
X118425390Y-76333507D01*
X118281347Y-76319320D01*
X117684653Y-76319320D01*
X117540610Y-76333507D01*
X117355797Y-76389570D01*
X117185472Y-76480610D01*
X117036180Y-76603130D01*
X116913660Y-76752422D01*
X116840000Y-76890231D01*
X116840000Y-73645581D01*
X116862659Y-73673191D01*
X116920674Y-73720802D01*
X116986862Y-73756181D01*
X117058681Y-73777967D01*
X117133370Y-73785323D01*
X118832630Y-73785323D01*
X118907319Y-73777967D01*
X118979138Y-73756181D01*
X119045326Y-73720802D01*
X119103341Y-73673191D01*
X119150952Y-73615176D01*
X119186331Y-73548988D01*
X119208117Y-73477169D01*
X119215473Y-73402480D01*
X119215473Y-72203600D01*
X119208117Y-72128911D01*
X119186331Y-72057092D01*
X119150952Y-71990904D01*
X119103341Y-71932889D01*
X119045326Y-71885278D01*
X118979138Y-71849899D01*
X118907319Y-71828113D01*
X118832630Y-71820757D01*
X117133370Y-71820757D01*
X117058681Y-71828113D01*
X116986862Y-71849899D01*
X116920674Y-71885278D01*
X116862659Y-71932889D01*
X116840000Y-71960499D01*
X116840000Y-71211049D01*
X116913660Y-71348858D01*
X117036180Y-71498150D01*
X117185472Y-71620670D01*
X117355797Y-71711710D01*
X117540610Y-71767773D01*
X117684653Y-71781960D01*
X118281347Y-71781960D01*
X118425390Y-71767773D01*
X118610203Y-71711710D01*
X118780528Y-71620670D01*
X118929820Y-71498150D01*
X118995554Y-71418053D01*
X119659400Y-72081899D01*
X119659401Y-85773989D01*
X119657065Y-85797704D01*
X119666384Y-85892310D01*
X119693978Y-85983280D01*
X119738792Y-86067119D01*
X119765301Y-86099420D01*
X119799100Y-86140605D01*
X119817513Y-86155716D01*
X122223835Y-88562039D01*
X122175783Y-88594146D01*
X122080928Y-88689001D01*
X122006401Y-88800539D01*
X121955066Y-88924473D01*
X121928895Y-89056040D01*
X121928895Y-89190186D01*
X121955066Y-89321753D01*
X122006401Y-89445687D01*
X122080928Y-89557225D01*
X122175783Y-89652080D01*
X122200943Y-89668892D01*
X122189863Y-89695642D01*
X122163692Y-89827209D01*
X122163692Y-89961355D01*
X122189863Y-90092922D01*
X122241198Y-90216856D01*
X122314206Y-90326120D01*
X122256628Y-90412292D01*
X122205293Y-90536226D01*
X122179122Y-90667793D01*
X122179122Y-90801939D01*
X122205293Y-90933506D01*
X122256628Y-91057440D01*
X122308236Y-91134678D01*
X122271294Y-91189966D01*
X122219959Y-91313900D01*
X122193788Y-91445467D01*
X122193788Y-91579613D01*
X122219959Y-91711180D01*
X122271294Y-91835114D01*
X122345821Y-91946652D01*
X122361781Y-91962612D01*
X122332506Y-92006426D01*
X122281171Y-92130360D01*
X122255000Y-92261927D01*
X122255000Y-92396073D01*
X122281171Y-92527640D01*
X122332506Y-92651574D01*
X122407033Y-92763112D01*
X122501888Y-92857967D01*
X122613426Y-92932494D01*
X122737360Y-92983829D01*
X122868927Y-93010000D01*
X123003073Y-93010000D01*
X123134640Y-92983829D01*
X123258574Y-92932494D01*
X123370112Y-92857967D01*
X123464967Y-92763112D01*
X123473259Y-92750702D01*
X123473259Y-92867573D01*
X123499430Y-92999140D01*
X123550765Y-93123074D01*
X123625292Y-93234612D01*
X123720147Y-93329467D01*
X123831685Y-93403994D01*
X123955619Y-93455329D01*
X124087186Y-93481500D01*
X124221332Y-93481500D01*
X124352899Y-93455329D01*
X124476833Y-93403994D01*
X124588371Y-93329467D01*
X124683226Y-93234612D01*
X124757753Y-93123074D01*
X124809088Y-92999140D01*
X124835259Y-92867573D01*
X124835259Y-92733427D01*
X124809088Y-92601860D01*
X124757753Y-92477926D01*
X124683226Y-92366388D01*
X124588371Y-92271533D01*
X124476833Y-92197006D01*
X124352899Y-92145671D01*
X124221332Y-92119500D01*
X124087186Y-92119500D01*
X123955619Y-92145671D01*
X123831685Y-92197006D01*
X123720147Y-92271533D01*
X123625292Y-92366388D01*
X123617000Y-92378798D01*
X123617000Y-92261927D01*
X123590829Y-92130360D01*
X123539494Y-92006426D01*
X123464967Y-91894888D01*
X123449007Y-91878928D01*
X123478282Y-91835114D01*
X123529617Y-91711180D01*
X123555788Y-91579613D01*
X123555788Y-91445467D01*
X123529617Y-91313900D01*
X123478282Y-91189966D01*
X123426674Y-91112728D01*
X123463616Y-91057440D01*
X123514951Y-90933506D01*
X123541122Y-90801939D01*
X123541122Y-90667793D01*
X123514951Y-90536226D01*
X123463616Y-90412292D01*
X123390608Y-90303028D01*
X123448186Y-90216856D01*
X123499521Y-90092922D01*
X123525692Y-89961355D01*
X123525692Y-89863896D01*
X125628400Y-91966604D01*
X125628401Y-95943841D01*
X125626065Y-95967556D01*
X125635384Y-96062162D01*
X125662978Y-96153132D01*
X125707792Y-96236971D01*
X125747499Y-96285354D01*
X125768100Y-96310457D01*
X125786513Y-96325568D01*
X127403344Y-97942400D01*
X122578707Y-97942400D01*
X122555000Y-97940065D01*
X122460393Y-97949383D01*
X122369423Y-97976978D01*
X122285585Y-98021791D01*
X122285583Y-98021792D01*
X122285584Y-98021792D01*
X122231503Y-98066175D01*
X122212099Y-98082099D01*
X122196987Y-98100513D01*
X121918500Y-98379000D01*
X121852927Y-98379000D01*
X121721360Y-98405171D01*
X121597426Y-98456506D01*
X121513600Y-98512517D01*
X121513600Y-98370899D01*
X123803353Y-96081147D01*
X123805179Y-96090326D01*
X123856514Y-96214260D01*
X123931041Y-96325798D01*
X124025896Y-96420653D01*
X124137434Y-96495180D01*
X124261368Y-96546515D01*
X124392935Y-96572686D01*
X124527081Y-96572686D01*
X124658648Y-96546515D01*
X124782582Y-96495180D01*
X124894120Y-96420653D01*
X124988975Y-96325798D01*
X125063502Y-96214260D01*
X125114837Y-96090326D01*
X125141008Y-95958759D01*
X125141008Y-95824613D01*
X125114837Y-95693046D01*
X125063502Y-95569112D01*
X124988975Y-95457574D01*
X124894120Y-95362719D01*
X124782582Y-95288192D01*
X124658648Y-95236857D01*
X124649469Y-95235031D01*
X124715500Y-95169000D01*
X124781073Y-95169000D01*
X124912640Y-95142829D01*
X125036574Y-95091494D01*
X125148112Y-95016967D01*
X125242967Y-94922112D01*
X125317494Y-94810574D01*
X125368829Y-94686640D01*
X125395000Y-94555073D01*
X125395000Y-94420927D01*
X125368829Y-94289360D01*
X125317494Y-94165426D01*
X125242967Y-94053888D01*
X125148112Y-93959033D01*
X125036574Y-93884506D01*
X124912640Y-93833171D01*
X124781073Y-93807000D01*
X124646927Y-93807000D01*
X124515360Y-93833171D01*
X124406371Y-93878316D01*
X124353967Y-93799888D01*
X124259112Y-93705033D01*
X124147574Y-93630506D01*
X124023640Y-93579171D01*
X123892073Y-93553000D01*
X123757927Y-93553000D01*
X123626360Y-93579171D01*
X123502426Y-93630506D01*
X123390888Y-93705033D01*
X123296033Y-93799888D01*
X123221506Y-93911426D01*
X123170171Y-94035360D01*
X123144000Y-94166927D01*
X123144000Y-94232501D01*
X120071518Y-97304983D01*
X120053099Y-97320099D01*
X119992791Y-97393585D01*
X119947978Y-97477424D01*
X119920383Y-97568395D01*
X119917370Y-97598989D01*
X119911065Y-97663000D01*
X119913400Y-97686705D01*
X119913401Y-101195285D01*
X119911065Y-101219000D01*
X119920384Y-101313606D01*
X119947978Y-101404576D01*
X119992792Y-101488415D01*
X120035190Y-101540077D01*
X120053100Y-101561901D01*
X120071513Y-101577012D01*
X121307983Y-102813482D01*
X121323099Y-102831901D01*
X121396585Y-102892209D01*
X121480423Y-102937022D01*
X121571394Y-102964617D01*
X121642293Y-102971600D01*
X121642294Y-102971600D01*
X121665999Y-102973935D01*
X121689704Y-102971600D01*
X125235623Y-102971600D01*
X125202171Y-103052360D01*
X125176000Y-103183927D01*
X125176000Y-103318073D01*
X125202171Y-103449640D01*
X125206048Y-103459000D01*
X125154927Y-103459000D01*
X125023360Y-103485171D01*
X124899426Y-103536506D01*
X124787888Y-103611033D01*
X124693033Y-103705888D01*
X124618506Y-103817426D01*
X124567171Y-103941360D01*
X124541000Y-104072927D01*
X124541000Y-104105921D01*
X124481069Y-104094000D01*
X124346923Y-104094000D01*
X124215356Y-104120171D01*
X124091422Y-104171506D01*
X123979884Y-104246033D01*
X123885029Y-104340888D01*
X123810502Y-104452426D01*
X123759167Y-104576360D01*
X123732996Y-104707927D01*
X123732996Y-104842073D01*
X123759167Y-104973640D01*
X123810502Y-105097574D01*
X123885029Y-105209112D01*
X123979884Y-105303967D01*
X124091422Y-105378494D01*
X124215356Y-105429829D01*
X124346923Y-105456000D01*
X124481069Y-105456000D01*
X124612636Y-105429829D01*
X124736570Y-105378494D01*
X124848108Y-105303967D01*
X124942963Y-105209112D01*
X125017490Y-105097574D01*
X125068825Y-104973640D01*
X125094996Y-104842073D01*
X125094996Y-104809079D01*
X125154927Y-104821000D01*
X125289073Y-104821000D01*
X125420640Y-104794829D01*
X125544574Y-104743494D01*
X125656112Y-104668967D01*
X125750967Y-104574112D01*
X125825494Y-104462574D01*
X125876829Y-104338640D01*
X125903000Y-104207073D01*
X125903000Y-104072927D01*
X125876829Y-103941360D01*
X125872952Y-103932000D01*
X125924073Y-103932000D01*
X126055640Y-103905829D01*
X126179574Y-103854494D01*
X126291112Y-103779967D01*
X126385967Y-103685112D01*
X126460494Y-103573574D01*
X126511829Y-103449640D01*
X126538000Y-103318073D01*
X126538000Y-103183927D01*
X126511829Y-103052360D01*
X126478377Y-102971600D01*
X132310295Y-102971600D01*
X132334000Y-102973935D01*
X132357705Y-102971600D01*
X132357707Y-102971600D01*
X132428606Y-102964617D01*
X132519577Y-102937022D01*
X132603415Y-102892209D01*
X132676901Y-102831901D01*
X132692017Y-102813482D01*
X133351496Y-102154004D01*
X133417073Y-102154004D01*
X133548640Y-102127833D01*
X133672574Y-102076498D01*
X133784112Y-102001971D01*
X133878967Y-101907116D01*
X133953494Y-101795578D01*
X134004829Y-101671644D01*
X134031000Y-101540077D01*
X134031000Y-101405931D01*
X134004829Y-101274364D01*
X133953494Y-101150430D01*
X133904660Y-101077345D01*
X137325266Y-101077345D01*
X137371633Y-101123712D01*
X137483171Y-101198239D01*
X137607105Y-101249574D01*
X137738672Y-101275745D01*
X137872818Y-101275745D01*
X138004385Y-101249574D01*
X138128319Y-101198239D01*
X138239857Y-101123712D01*
X138334712Y-101028857D01*
X138409239Y-100917319D01*
X138428132Y-100871708D01*
X138489927Y-100884000D01*
X138624073Y-100884000D01*
X138755640Y-100857829D01*
X138879574Y-100806494D01*
X138991112Y-100731967D01*
X139085967Y-100637112D01*
X139160494Y-100525574D01*
X139211829Y-100401640D01*
X139238000Y-100270073D01*
X139238000Y-100135927D01*
X139211829Y-100004360D01*
X139160494Y-99880426D01*
X139085967Y-99768888D01*
X138991112Y-99674033D01*
X138879574Y-99599506D01*
X138755640Y-99548171D01*
X138624073Y-99522000D01*
X138523500Y-99522000D01*
X138607210Y-99438289D01*
X138630888Y-99461967D01*
X138742426Y-99536494D01*
X138866360Y-99587829D01*
X138997927Y-99614000D01*
X139132073Y-99614000D01*
X139263640Y-99587829D01*
X139387574Y-99536494D01*
X139499112Y-99461967D01*
X139544001Y-99417078D01*
X139544000Y-113873000D01*
X115294049Y-113873000D01*
X115208948Y-113803593D01*
X115127000Y-113704535D01*
X115127000Y-112027000D01*
X125565000Y-112027000D01*
X125565000Y-112377000D01*
X125612546Y-112605742D01*
X125703804Y-112820813D01*
X125835266Y-113013948D01*
X126001881Y-113177725D01*
X126197246Y-113305850D01*
X126413853Y-113393399D01*
X126440256Y-113393803D01*
X126623000Y-113268361D01*
X126623000Y-112027000D01*
X126877000Y-112027000D01*
X126877000Y-113268361D01*
X127059744Y-113393803D01*
X127086147Y-113393399D01*
X127302754Y-113305850D01*
X127498119Y-113177725D01*
X127664734Y-113013948D01*
X127796196Y-112820813D01*
X127887454Y-112605742D01*
X127935000Y-112377000D01*
X127935000Y-112027000D01*
X126877000Y-112027000D01*
X126623000Y-112027000D01*
X125565000Y-112027000D01*
X115127000Y-112027000D01*
X115127000Y-111819927D01*
X137368000Y-111819927D01*
X137368000Y-111954073D01*
X137394171Y-112085640D01*
X137445506Y-112209574D01*
X137520033Y-112321112D01*
X137614888Y-112415967D01*
X137726426Y-112490494D01*
X137850360Y-112541829D01*
X137981927Y-112568000D01*
X138116073Y-112568000D01*
X138247640Y-112541829D01*
X138371574Y-112490494D01*
X138483112Y-112415967D01*
X138577967Y-112321112D01*
X138652494Y-112209574D01*
X138703829Y-112085640D01*
X138730000Y-111954073D01*
X138730000Y-111819927D01*
X138703829Y-111688360D01*
X138652494Y-111564426D01*
X138577967Y-111452888D01*
X138483112Y-111358033D01*
X138371574Y-111283506D01*
X138247640Y-111232171D01*
X138116073Y-111206000D01*
X137981927Y-111206000D01*
X137850360Y-111232171D01*
X137726426Y-111283506D01*
X137614888Y-111358033D01*
X137520033Y-111452888D01*
X137445506Y-111564426D01*
X137394171Y-111688360D01*
X137368000Y-111819927D01*
X115127000Y-111819927D01*
X115127000Y-111423000D01*
X125565000Y-111423000D01*
X125565000Y-111773000D01*
X126623000Y-111773000D01*
X126623000Y-110531639D01*
X126877000Y-110531639D01*
X126877000Y-111773000D01*
X127935000Y-111773000D01*
X127935000Y-111423000D01*
X127887454Y-111194258D01*
X127796196Y-110979187D01*
X127664734Y-110786052D01*
X127498119Y-110622275D01*
X127302754Y-110494150D01*
X127086147Y-110406601D01*
X127059744Y-110406197D01*
X126877000Y-110531639D01*
X126623000Y-110531639D01*
X126440256Y-110406197D01*
X126413853Y-110406601D01*
X126197246Y-110494150D01*
X126001881Y-110622275D01*
X125835266Y-110786052D01*
X125703804Y-110979187D01*
X125612546Y-111194258D01*
X125565000Y-111423000D01*
X115127000Y-111423000D01*
X115127000Y-108159653D01*
X116202460Y-108159653D01*
X116202460Y-108756346D01*
X116216647Y-108900389D01*
X116272710Y-109085202D01*
X116363750Y-109255528D01*
X116486270Y-109404820D01*
X116635562Y-109527340D01*
X116805887Y-109618380D01*
X116990700Y-109674443D01*
X117182900Y-109693373D01*
X117375099Y-109674443D01*
X117559912Y-109618380D01*
X117730238Y-109527340D01*
X117879530Y-109404820D01*
X118002050Y-109255528D01*
X118093090Y-109085203D01*
X118149153Y-108900390D01*
X118163340Y-108756347D01*
X118163340Y-108159654D01*
X118163340Y-108159653D01*
X118201440Y-108159653D01*
X118201440Y-108756346D01*
X118215627Y-108900389D01*
X118271690Y-109085202D01*
X118362730Y-109255528D01*
X118485250Y-109404820D01*
X118634542Y-109527340D01*
X118804867Y-109618380D01*
X118989680Y-109674443D01*
X119181880Y-109693373D01*
X119374079Y-109674443D01*
X119558892Y-109618380D01*
X119729218Y-109527340D01*
X119878510Y-109404820D01*
X120001030Y-109255528D01*
X120092070Y-109085203D01*
X120148133Y-108900390D01*
X120162320Y-108756347D01*
X120162320Y-108159654D01*
X120162320Y-108159653D01*
X120202960Y-108159653D01*
X120202960Y-108756346D01*
X120217147Y-108900389D01*
X120273210Y-109085202D01*
X120364250Y-109255528D01*
X120486770Y-109404820D01*
X120636062Y-109527340D01*
X120806387Y-109618380D01*
X120991200Y-109674443D01*
X121183400Y-109693373D01*
X121375599Y-109674443D01*
X121560412Y-109618380D01*
X121730738Y-109527340D01*
X121880030Y-109404820D01*
X121948735Y-109321102D01*
X121959668Y-109432112D01*
X121995978Y-109551810D01*
X122054943Y-109662124D01*
X122134295Y-109758815D01*
X122230986Y-109838167D01*
X122341300Y-109897132D01*
X122460998Y-109933442D01*
X122585480Y-109945702D01*
X122899170Y-109942630D01*
X123057920Y-109783880D01*
X123057920Y-108585000D01*
X123311920Y-108585000D01*
X123311920Y-109783880D01*
X123470670Y-109942630D01*
X123784360Y-109945702D01*
X123908842Y-109933442D01*
X124028540Y-109897132D01*
X124138854Y-109838167D01*
X124235545Y-109758815D01*
X124314897Y-109662124D01*
X124373862Y-109551810D01*
X124410172Y-109432112D01*
X124422432Y-109307630D01*
X124421993Y-109227000D01*
X127715000Y-109227000D01*
X127715000Y-109777000D01*
X127762546Y-110005742D01*
X127853804Y-110220813D01*
X127985266Y-110413948D01*
X128151881Y-110577725D01*
X128347246Y-110705850D01*
X128563853Y-110793399D01*
X128590256Y-110793803D01*
X128773000Y-110668361D01*
X128773000Y-109227000D01*
X127715000Y-109227000D01*
X124421993Y-109227000D01*
X124419360Y-108743750D01*
X124260610Y-108585000D01*
X123311920Y-108585000D01*
X123057920Y-108585000D01*
X123037920Y-108585000D01*
X123037920Y-108423000D01*
X127715000Y-108423000D01*
X127715000Y-108973000D01*
X128773000Y-108973000D01*
X128773000Y-107531639D01*
X129027000Y-107531639D01*
X129027000Y-108973000D01*
X129047000Y-108973000D01*
X129047000Y-109227000D01*
X129027000Y-109227000D01*
X129027000Y-110668361D01*
X129209744Y-110793803D01*
X129236147Y-110793399D01*
X129452754Y-110705850D01*
X129648119Y-110577725D01*
X129814734Y-110413948D01*
X129946196Y-110220813D01*
X130037454Y-110005742D01*
X130085000Y-109777000D01*
X130085000Y-109331079D01*
X130121888Y-109367967D01*
X130233426Y-109442494D01*
X130357360Y-109493829D01*
X130488927Y-109520000D01*
X130623073Y-109520000D01*
X130754640Y-109493829D01*
X130878574Y-109442494D01*
X130990112Y-109367967D01*
X131084967Y-109273112D01*
X131159494Y-109161574D01*
X131210829Y-109037640D01*
X131237000Y-108906073D01*
X131237000Y-108771927D01*
X131210829Y-108640360D01*
X131159494Y-108516426D01*
X131084967Y-108404888D01*
X130990112Y-108310033D01*
X130878574Y-108235506D01*
X130754640Y-108184171D01*
X130728129Y-108178897D01*
X130728129Y-108131698D01*
X130701958Y-108000131D01*
X130650623Y-107876197D01*
X130576096Y-107764659D01*
X130481241Y-107669804D01*
X130369703Y-107595277D01*
X130245769Y-107543942D01*
X130114202Y-107517771D01*
X129980056Y-107517771D01*
X129848489Y-107543942D01*
X129724555Y-107595277D01*
X129662700Y-107636607D01*
X129648119Y-107622275D01*
X129452754Y-107494150D01*
X129236147Y-107406601D01*
X129209744Y-107406197D01*
X129027000Y-107531639D01*
X128773000Y-107531639D01*
X128590256Y-107406197D01*
X128563853Y-107406601D01*
X128347246Y-107494150D01*
X128151881Y-107622275D01*
X127985266Y-107786052D01*
X127853804Y-107979187D01*
X127762546Y-108194258D01*
X127715000Y-108423000D01*
X123037920Y-108423000D01*
X123037920Y-108331000D01*
X123057920Y-108331000D01*
X123057920Y-107132120D01*
X123311920Y-107132120D01*
X123311920Y-108331000D01*
X124260610Y-108331000D01*
X124419360Y-108172250D01*
X124422432Y-107608370D01*
X124410172Y-107483888D01*
X124373862Y-107364190D01*
X124314897Y-107253876D01*
X124235545Y-107157185D01*
X124138854Y-107077833D01*
X124028540Y-107018868D01*
X123908842Y-106982558D01*
X123784360Y-106970298D01*
X123470670Y-106973370D01*
X123311920Y-107132120D01*
X123057920Y-107132120D01*
X122899170Y-106973370D01*
X122585480Y-106970298D01*
X122460998Y-106982558D01*
X122341300Y-107018868D01*
X122230986Y-107077833D01*
X122134295Y-107157185D01*
X122054943Y-107253876D01*
X121995978Y-107364190D01*
X121959668Y-107483888D01*
X121948735Y-107594898D01*
X121880030Y-107511180D01*
X121730738Y-107388660D01*
X121560413Y-107297620D01*
X121375600Y-107241557D01*
X121183400Y-107222627D01*
X120991201Y-107241557D01*
X120806388Y-107297620D01*
X120636063Y-107388660D01*
X120486771Y-107511180D01*
X120364251Y-107660472D01*
X120273210Y-107830797D01*
X120217147Y-108015610D01*
X120202960Y-108159653D01*
X120162320Y-108159653D01*
X120148133Y-108015611D01*
X120092070Y-107830797D01*
X120001030Y-107660472D01*
X119878510Y-107511180D01*
X119729218Y-107388660D01*
X119558893Y-107297620D01*
X119374080Y-107241557D01*
X119181880Y-107222627D01*
X118989681Y-107241557D01*
X118804868Y-107297620D01*
X118634543Y-107388660D01*
X118485251Y-107511180D01*
X118362731Y-107660472D01*
X118271690Y-107830797D01*
X118215627Y-108015610D01*
X118201440Y-108159653D01*
X118163340Y-108159653D01*
X118149153Y-108015611D01*
X118093090Y-107830797D01*
X118002050Y-107660472D01*
X117879530Y-107511180D01*
X117730238Y-107388660D01*
X117559913Y-107297620D01*
X117375100Y-107241557D01*
X117182900Y-107222627D01*
X116990701Y-107241557D01*
X116805888Y-107297620D01*
X116635563Y-107388660D01*
X116486271Y-107511180D01*
X116363751Y-107660472D01*
X116272710Y-107830797D01*
X116216647Y-108015610D01*
X116202460Y-108159653D01*
X115127000Y-108159653D01*
X115127000Y-106427000D01*
X125565000Y-106427000D01*
X125565000Y-106777000D01*
X125612546Y-107005742D01*
X125703804Y-107220813D01*
X125835266Y-107413948D01*
X126001881Y-107577725D01*
X126197246Y-107705850D01*
X126413853Y-107793399D01*
X126440256Y-107793803D01*
X126623000Y-107668361D01*
X126623000Y-106427000D01*
X125565000Y-106427000D01*
X115127000Y-106427000D01*
X115127000Y-105823000D01*
X125565000Y-105823000D01*
X125565000Y-106173000D01*
X126623000Y-106173000D01*
X126623000Y-104931639D01*
X126877000Y-104931639D01*
X126877000Y-106173000D01*
X126897000Y-106173000D01*
X126897000Y-106427000D01*
X126877000Y-106427000D01*
X126877000Y-107668361D01*
X127059744Y-107793803D01*
X127086147Y-107793399D01*
X127302754Y-107705850D01*
X127498119Y-107577725D01*
X127664734Y-107413948D01*
X127796196Y-107220813D01*
X127887454Y-107005742D01*
X127935000Y-106777000D01*
X127935000Y-106342228D01*
X127948927Y-106344998D01*
X128083073Y-106344998D01*
X128214640Y-106318827D01*
X128338574Y-106267492D01*
X128450112Y-106192965D01*
X128544967Y-106098110D01*
X128619494Y-105986572D01*
X128670829Y-105862638D01*
X128697000Y-105731071D01*
X128697000Y-105596925D01*
X128670829Y-105465358D01*
X128619494Y-105341424D01*
X128544967Y-105229886D01*
X128450112Y-105135031D01*
X128338574Y-105060504D01*
X128214640Y-105009169D01*
X128083073Y-104982998D01*
X127948927Y-104982998D01*
X127817360Y-105009169D01*
X127693426Y-105060504D01*
X127600308Y-105122723D01*
X127498119Y-105022275D01*
X127302754Y-104894150D01*
X127086147Y-104806601D01*
X127059744Y-104806197D01*
X126877000Y-104931639D01*
X126623000Y-104931639D01*
X126440256Y-104806197D01*
X126413853Y-104806601D01*
X126197246Y-104894150D01*
X126001881Y-105022275D01*
X125835266Y-105186052D01*
X125703804Y-105379187D01*
X125612546Y-105594258D01*
X125565000Y-105823000D01*
X115127000Y-105823000D01*
X115127000Y-104802480D01*
X116512298Y-104802480D01*
X116524558Y-104926962D01*
X116560868Y-105046660D01*
X116619833Y-105156974D01*
X116699185Y-105253665D01*
X116795876Y-105333017D01*
X116906190Y-105391982D01*
X117025888Y-105428292D01*
X117150370Y-105440552D01*
X117714250Y-105437480D01*
X117873000Y-105278730D01*
X117873000Y-104330040D01*
X118127000Y-104330040D01*
X118127000Y-105278730D01*
X118285750Y-105437480D01*
X118849630Y-105440552D01*
X118974112Y-105428292D01*
X119093810Y-105391982D01*
X119204124Y-105333017D01*
X119300815Y-105253665D01*
X119380167Y-105156974D01*
X119439132Y-105046660D01*
X119475442Y-104926962D01*
X119487702Y-104802480D01*
X119484630Y-104488790D01*
X119325880Y-104330040D01*
X118127000Y-104330040D01*
X117873000Y-104330040D01*
X116674120Y-104330040D01*
X116515370Y-104488790D01*
X116512298Y-104802480D01*
X115127000Y-104802480D01*
X115127000Y-103603600D01*
X116512298Y-103603600D01*
X116515370Y-103917290D01*
X116674120Y-104076040D01*
X117873000Y-104076040D01*
X117873000Y-104056040D01*
X118127000Y-104056040D01*
X118127000Y-104076040D01*
X119325880Y-104076040D01*
X119484630Y-103917290D01*
X119487702Y-103603600D01*
X119475442Y-103479118D01*
X119439132Y-103359420D01*
X119380167Y-103249106D01*
X119300815Y-103152415D01*
X119204124Y-103073063D01*
X119093810Y-103014098D01*
X118974112Y-102977788D01*
X118863102Y-102966855D01*
X118946820Y-102898150D01*
X119069340Y-102748858D01*
X119155035Y-102588533D01*
X119177426Y-102603494D01*
X119301360Y-102654829D01*
X119432927Y-102681000D01*
X119567073Y-102681000D01*
X119698640Y-102654829D01*
X119822574Y-102603494D01*
X119934112Y-102528967D01*
X120028967Y-102434112D01*
X120103494Y-102322574D01*
X120154829Y-102198640D01*
X120181000Y-102067073D01*
X120181000Y-101932927D01*
X120154829Y-101801360D01*
X120103494Y-101677426D01*
X120028967Y-101565888D01*
X119934112Y-101471033D01*
X119822574Y-101396506D01*
X119698640Y-101345171D01*
X119567073Y-101319000D01*
X119432927Y-101319000D01*
X119301360Y-101345171D01*
X119177426Y-101396506D01*
X119065888Y-101471033D01*
X118985229Y-101551692D01*
X118946820Y-101504890D01*
X118797528Y-101382370D01*
X118627203Y-101291330D01*
X118442390Y-101235267D01*
X118298347Y-101221080D01*
X117701653Y-101221080D01*
X117557610Y-101235267D01*
X117372797Y-101291330D01*
X117202472Y-101382370D01*
X117053180Y-101504890D01*
X116930660Y-101654182D01*
X116839620Y-101824507D01*
X116783557Y-102009320D01*
X116764627Y-102201520D01*
X116783557Y-102393720D01*
X116839620Y-102578533D01*
X116930660Y-102748858D01*
X117053180Y-102898150D01*
X117136898Y-102966855D01*
X117025888Y-102977788D01*
X116906190Y-103014098D01*
X116795876Y-103073063D01*
X116699185Y-103152415D01*
X116619833Y-103249106D01*
X116560868Y-103359420D01*
X116524558Y-103479118D01*
X116512298Y-103603600D01*
X115127000Y-103603600D01*
X115127000Y-100200000D01*
X116764627Y-100200000D01*
X116783557Y-100392200D01*
X116839620Y-100577013D01*
X116930660Y-100747338D01*
X117053180Y-100896630D01*
X117202472Y-101019150D01*
X117372797Y-101110190D01*
X117557610Y-101166253D01*
X117701653Y-101180440D01*
X118298347Y-101180440D01*
X118442390Y-101166253D01*
X118627203Y-101110190D01*
X118797528Y-101019150D01*
X118946820Y-100896630D01*
X119069340Y-100747338D01*
X119160380Y-100577013D01*
X119216443Y-100392200D01*
X119235373Y-100200000D01*
X119216443Y-100007800D01*
X119160380Y-99822987D01*
X119069340Y-99652662D01*
X118946820Y-99503370D01*
X118797528Y-99380850D01*
X118627203Y-99289810D01*
X118442390Y-99233747D01*
X118298347Y-99219560D01*
X117701653Y-99219560D01*
X117557610Y-99233747D01*
X117372797Y-99289810D01*
X117202472Y-99380850D01*
X117053180Y-99503370D01*
X116930660Y-99652662D01*
X116839620Y-99822987D01*
X116783557Y-100007800D01*
X116764627Y-100200000D01*
X115127000Y-100200000D01*
X115127000Y-97432927D01*
X116319000Y-97432927D01*
X116319000Y-97567073D01*
X116345171Y-97698640D01*
X116396506Y-97822574D01*
X116471033Y-97934112D01*
X116565888Y-98028967D01*
X116677426Y-98103494D01*
X116801360Y-98154829D01*
X116932927Y-98181000D01*
X117067073Y-98181000D01*
X117198640Y-98154829D01*
X117322574Y-98103494D01*
X117434112Y-98028967D01*
X117528967Y-97934112D01*
X117603494Y-97822574D01*
X117654829Y-97698640D01*
X117681000Y-97567073D01*
X117681000Y-97432927D01*
X117654829Y-97301360D01*
X117603494Y-97177426D01*
X117528967Y-97065888D01*
X117434112Y-96971033D01*
X117322574Y-96896506D01*
X117198640Y-96845171D01*
X117067073Y-96819000D01*
X116932927Y-96819000D01*
X116801360Y-96845171D01*
X116677426Y-96896506D01*
X116565888Y-96971033D01*
X116471033Y-97065888D01*
X116396506Y-97177426D01*
X116345171Y-97301360D01*
X116319000Y-97432927D01*
X115127000Y-97432927D01*
X115127000Y-90705880D01*
X116750527Y-90705880D01*
X116750527Y-91904760D01*
X116757883Y-91979449D01*
X116779669Y-92051268D01*
X116815048Y-92117456D01*
X116862659Y-92175471D01*
X116920674Y-92223082D01*
X116986862Y-92258461D01*
X117058681Y-92280247D01*
X117133370Y-92287603D01*
X118832630Y-92287603D01*
X118907319Y-92280247D01*
X118979138Y-92258461D01*
X119045326Y-92223082D01*
X119103341Y-92175471D01*
X119150952Y-92117456D01*
X119186331Y-92051268D01*
X119208117Y-91979449D01*
X119215473Y-91904760D01*
X119215473Y-90705880D01*
X119208117Y-90631191D01*
X119186331Y-90559372D01*
X119150952Y-90493184D01*
X119103341Y-90435169D01*
X119045326Y-90387558D01*
X118979138Y-90352179D01*
X118907319Y-90330393D01*
X118832630Y-90323037D01*
X117133370Y-90323037D01*
X117058681Y-90330393D01*
X116986862Y-90352179D01*
X116920674Y-90387558D01*
X116862659Y-90435169D01*
X116815048Y-90493184D01*
X116779669Y-90559372D01*
X116757883Y-90631191D01*
X116750527Y-90705880D01*
X115127000Y-90705880D01*
X115127000Y-59410154D01*
X118065000Y-59410154D01*
X118065000Y-59573846D01*
X118096935Y-59734394D01*
X118159577Y-59885626D01*
X118250520Y-60021732D01*
X118366268Y-60137480D01*
X118502374Y-60228423D01*
X118653606Y-60291065D01*
X118814154Y-60323000D01*
X118977846Y-60323000D01*
X119138394Y-60291065D01*
X119289626Y-60228423D01*
X119425732Y-60137480D01*
X119541480Y-60021732D01*
X119632423Y-59885626D01*
X119695065Y-59734394D01*
X119727000Y-59573846D01*
X119727000Y-59410154D01*
X121065000Y-59410154D01*
X121065000Y-59573846D01*
X121096935Y-59734394D01*
X121159577Y-59885626D01*
X121250520Y-60021732D01*
X121366268Y-60137480D01*
X121502374Y-60228423D01*
X121653606Y-60291065D01*
X121814154Y-60323000D01*
X121977846Y-60323000D01*
X122138394Y-60291065D01*
X122289626Y-60228423D01*
X122425732Y-60137480D01*
X122541480Y-60021732D01*
X122632423Y-59885626D01*
X122695065Y-59734394D01*
X122727000Y-59573846D01*
X122727000Y-59410154D01*
X122695065Y-59249606D01*
X122632423Y-59098374D01*
X122541480Y-58962268D01*
X122428842Y-58849630D01*
X125608688Y-58849630D01*
X125620948Y-58974112D01*
X125657258Y-59093810D01*
X125716223Y-59204124D01*
X125795575Y-59300815D01*
X125892266Y-59380167D01*
X126002580Y-59439132D01*
X126122278Y-59475442D01*
X126246760Y-59487702D01*
X126560450Y-59484630D01*
X126719200Y-59325880D01*
X126719200Y-58127000D01*
X125770510Y-58127000D01*
X125611760Y-58285750D01*
X125608688Y-58849630D01*
X122428842Y-58849630D01*
X122425732Y-58846520D01*
X122289626Y-58755577D01*
X122138394Y-58692935D01*
X121977846Y-58661000D01*
X121814154Y-58661000D01*
X121653606Y-58692935D01*
X121502374Y-58755577D01*
X121366268Y-58846520D01*
X121250520Y-58962268D01*
X121159577Y-59098374D01*
X121096935Y-59249606D01*
X121065000Y-59410154D01*
X119727000Y-59410154D01*
X119695065Y-59249606D01*
X119632423Y-59098374D01*
X119541480Y-58962268D01*
X119425732Y-58846520D01*
X119289626Y-58755577D01*
X119138394Y-58692935D01*
X118977846Y-58661000D01*
X118814154Y-58661000D01*
X118653606Y-58692935D01*
X118502374Y-58755577D01*
X118366268Y-58846520D01*
X118250520Y-58962268D01*
X118159577Y-59098374D01*
X118096935Y-59249606D01*
X118065000Y-59410154D01*
X115127000Y-59410154D01*
X115127000Y-57150370D01*
X125608688Y-57150370D01*
X125611760Y-57714250D01*
X125770510Y-57873000D01*
X126719200Y-57873000D01*
X126719200Y-56674120D01*
X126973200Y-56674120D01*
X126973200Y-57873000D01*
X126993200Y-57873000D01*
X126993200Y-58127000D01*
X126973200Y-58127000D01*
X126973200Y-59325880D01*
X127131950Y-59484630D01*
X127445640Y-59487702D01*
X127570122Y-59475442D01*
X127689820Y-59439132D01*
X127800134Y-59380167D01*
X127896825Y-59300815D01*
X127976177Y-59204124D01*
X128035142Y-59093810D01*
X128071452Y-58974112D01*
X128082385Y-58863101D01*
X128151091Y-58946820D01*
X128300383Y-59069340D01*
X128470708Y-59160380D01*
X128655521Y-59216443D01*
X128847720Y-59235373D01*
X129039920Y-59216443D01*
X129224733Y-59160380D01*
X129395058Y-59069340D01*
X129544350Y-58946820D01*
X129666870Y-58797528D01*
X129757910Y-58627203D01*
X129813973Y-58442389D01*
X129828160Y-58298346D01*
X129828160Y-57701653D01*
X129813973Y-57557610D01*
X129757910Y-57372797D01*
X129666870Y-57202472D01*
X129544350Y-57053180D01*
X129395058Y-56930660D01*
X129224732Y-56839620D01*
X129039919Y-56783557D01*
X128847720Y-56764627D01*
X128655520Y-56783557D01*
X128470707Y-56839620D01*
X128300382Y-56930660D01*
X128151090Y-57053180D01*
X128082385Y-57136898D01*
X128071452Y-57025888D01*
X128035142Y-56906190D01*
X127976177Y-56795876D01*
X127896825Y-56699185D01*
X127800134Y-56619833D01*
X127689820Y-56560868D01*
X127570122Y-56524558D01*
X127445640Y-56512298D01*
X127131950Y-56515370D01*
X126973200Y-56674120D01*
X126719200Y-56674120D01*
X126560450Y-56515370D01*
X126246760Y-56512298D01*
X126122278Y-56524558D01*
X126002580Y-56560868D01*
X125892266Y-56619833D01*
X125795575Y-56699185D01*
X125716223Y-56795876D01*
X125657258Y-56906190D01*
X125620948Y-57025888D01*
X125608688Y-57150370D01*
X115127000Y-57150370D01*
X115127000Y-56320929D01*
X121239000Y-56320929D01*
X121239000Y-56455075D01*
X121265171Y-56586642D01*
X121316506Y-56710576D01*
X121391033Y-56822114D01*
X121485888Y-56916969D01*
X121597426Y-56991496D01*
X121721360Y-57042831D01*
X121852927Y-57069002D01*
X121987073Y-57069002D01*
X122118640Y-57042831D01*
X122242574Y-56991496D01*
X122354112Y-56916969D01*
X122448967Y-56822114D01*
X122523494Y-56710576D01*
X122574829Y-56586642D01*
X122601000Y-56455075D01*
X122601000Y-56320929D01*
X122574829Y-56189362D01*
X122523494Y-56065428D01*
X122448967Y-55953890D01*
X122354112Y-55859035D01*
X122242574Y-55784508D01*
X122118640Y-55733173D01*
X121987073Y-55707002D01*
X121852927Y-55707002D01*
X121721360Y-55733173D01*
X121597426Y-55784508D01*
X121485888Y-55859035D01*
X121391033Y-55953890D01*
X121316506Y-56065428D01*
X121265171Y-56189362D01*
X121239000Y-56320929D01*
X115127000Y-56320929D01*
X115127000Y-56294049D01*
X115196405Y-56208950D01*
X115578638Y-55892740D01*
X116015007Y-55656797D01*
X116488899Y-55510102D01*
X117003648Y-55456000D01*
X132717214Y-55456000D01*
X132648418Y-55484496D01*
G36*
X135116646Y-100112145D02*
G01*
X132569926Y-100112145D01*
X132607829Y-100020640D01*
X132634000Y-99889073D01*
X132634000Y-99754927D01*
X132607829Y-99623360D01*
X132556494Y-99499426D01*
X132481967Y-99387888D01*
X132387112Y-99293033D01*
X132380478Y-99288600D01*
X134293101Y-99288600D01*
X135116646Y-100112145D01*
X135116646Y-100112145D01*
G37*
X135116646Y-100112145D02*
X132569926Y-100112145D01*
X132607829Y-100020640D01*
X132634000Y-99889073D01*
X132634000Y-99754927D01*
X132607829Y-99623360D01*
X132556494Y-99499426D01*
X132481967Y-99387888D01*
X132387112Y-99293033D01*
X132380478Y-99288600D01*
X134293101Y-99288600D01*
X135116646Y-100112145D01*
G36*
X127660390Y-92920933D02*
G01*
X127660389Y-93499521D01*
X127614022Y-93545888D01*
X127539495Y-93657426D01*
X127488160Y-93781360D01*
X127461989Y-93912927D01*
X127461989Y-94047073D01*
X127488160Y-94178640D01*
X127539495Y-94302574D01*
X127614022Y-94414112D01*
X127708877Y-94508967D01*
X127820415Y-94583494D01*
X127944349Y-94634829D01*
X128075916Y-94661000D01*
X128210062Y-94661000D01*
X128341629Y-94634829D01*
X128465563Y-94583494D01*
X128577101Y-94508967D01*
X128671956Y-94414112D01*
X128746483Y-94302574D01*
X128797818Y-94178640D01*
X128823989Y-94047073D01*
X128823989Y-93912927D01*
X128797818Y-93781360D01*
X128746483Y-93657426D01*
X128671956Y-93545888D01*
X128625589Y-93499521D01*
X128625589Y-93367089D01*
X130057969Y-94799469D01*
X130073080Y-94817882D01*
X130123662Y-94859394D01*
X130095715Y-94901220D01*
X130044380Y-95025154D01*
X130018209Y-95156721D01*
X130018209Y-95290867D01*
X130044380Y-95422434D01*
X130095715Y-95546368D01*
X130170242Y-95657906D01*
X130265097Y-95752761D01*
X130376635Y-95827288D01*
X130500569Y-95878623D01*
X130632136Y-95904794D01*
X130766282Y-95904794D01*
X130897849Y-95878623D01*
X131021783Y-95827288D01*
X131133321Y-95752761D01*
X131228176Y-95657906D01*
X131302703Y-95546368D01*
X131354038Y-95422434D01*
X131380209Y-95290867D01*
X131380209Y-95156721D01*
X131354038Y-95025154D01*
X131326048Y-94957581D01*
X132305975Y-94957581D01*
X132352342Y-95003948D01*
X132463880Y-95078475D01*
X132587814Y-95129810D01*
X132719381Y-95155981D01*
X132853527Y-95155981D01*
X132985094Y-95129810D01*
X133036336Y-95108585D01*
X132948033Y-95196888D01*
X132873506Y-95308426D01*
X132822171Y-95432360D01*
X132796000Y-95563927D01*
X132796000Y-95698073D01*
X132822171Y-95829640D01*
X132873506Y-95953574D01*
X132948033Y-96065112D01*
X133042888Y-96159967D01*
X133154426Y-96234494D01*
X133278360Y-96285829D01*
X133409927Y-96312000D01*
X133544073Y-96312000D01*
X133675640Y-96285829D01*
X133799574Y-96234494D01*
X133911112Y-96159967D01*
X133921505Y-96149574D01*
X133931898Y-96159967D01*
X134043436Y-96234494D01*
X134167370Y-96285829D01*
X134298937Y-96312000D01*
X134433083Y-96312000D01*
X134564650Y-96285829D01*
X134599940Y-96271211D01*
X134600170Y-96272366D01*
X134651505Y-96396300D01*
X134726032Y-96507838D01*
X134820887Y-96602693D01*
X134932425Y-96677220D01*
X135056359Y-96728555D01*
X135187926Y-96754726D01*
X135254592Y-96754726D01*
X134828952Y-97180367D01*
X132758749Y-97180367D01*
X132769514Y-97126249D01*
X132769514Y-96992103D01*
X132743343Y-96860536D01*
X132692008Y-96736602D01*
X132617481Y-96625064D01*
X132522626Y-96530209D01*
X132411088Y-96455682D01*
X132287154Y-96404347D01*
X132155587Y-96378176D01*
X132064993Y-96378176D01*
X132038647Y-96314571D01*
X131964120Y-96203033D01*
X131869265Y-96108178D01*
X131757727Y-96033651D01*
X131633793Y-95982316D01*
X131502226Y-95956145D01*
X131368080Y-95956145D01*
X131236513Y-95982316D01*
X131112579Y-96033651D01*
X131001041Y-96108178D01*
X130906186Y-96203033D01*
X130831659Y-96314571D01*
X130780324Y-96438505D01*
X130754153Y-96570072D01*
X130754153Y-96704218D01*
X130780324Y-96835785D01*
X130831659Y-96959719D01*
X130906186Y-97071257D01*
X131001041Y-97166112D01*
X131022375Y-97180367D01*
X129321287Y-97180367D01*
X129323410Y-97169695D01*
X129323410Y-97035549D01*
X129297239Y-96903982D01*
X129245904Y-96780048D01*
X129171377Y-96668510D01*
X129076522Y-96573655D01*
X128964984Y-96499128D01*
X128841050Y-96447793D01*
X128709483Y-96421622D01*
X128575337Y-96421622D01*
X128443770Y-96447793D01*
X128319836Y-96499128D01*
X128208298Y-96573655D01*
X128113443Y-96668510D01*
X128081336Y-96716562D01*
X126974611Y-95609838D01*
X126974611Y-94928927D01*
X128605000Y-94928927D01*
X128605000Y-95063073D01*
X128631171Y-95194640D01*
X128682506Y-95318574D01*
X128757033Y-95430112D01*
X128851888Y-95524967D01*
X128963426Y-95599494D01*
X129087360Y-95650829D01*
X129218927Y-95677000D01*
X129353073Y-95677000D01*
X129484640Y-95650829D01*
X129608574Y-95599494D01*
X129720112Y-95524967D01*
X129814967Y-95430112D01*
X129889494Y-95318574D01*
X129940829Y-95194640D01*
X129967000Y-95063073D01*
X129967000Y-94928927D01*
X129940829Y-94797360D01*
X129889494Y-94673426D01*
X129814967Y-94561888D01*
X129720112Y-94467033D01*
X129608574Y-94392506D01*
X129484640Y-94341171D01*
X129353073Y-94315000D01*
X129218927Y-94315000D01*
X129087360Y-94341171D01*
X128963426Y-94392506D01*
X128851888Y-94467033D01*
X128757033Y-94561888D01*
X128682506Y-94673426D01*
X128631171Y-94797360D01*
X128605000Y-94928927D01*
X126974611Y-94928927D01*
X126974611Y-92235154D01*
X127660390Y-92920933D01*
X127660390Y-92920933D01*
G37*
X127660390Y-92920933D02*
X127660389Y-93499521D01*
X127614022Y-93545888D01*
X127539495Y-93657426D01*
X127488160Y-93781360D01*
X127461989Y-93912927D01*
X127461989Y-94047073D01*
X127488160Y-94178640D01*
X127539495Y-94302574D01*
X127614022Y-94414112D01*
X127708877Y-94508967D01*
X127820415Y-94583494D01*
X127944349Y-94634829D01*
X128075916Y-94661000D01*
X128210062Y-94661000D01*
X128341629Y-94634829D01*
X128465563Y-94583494D01*
X128577101Y-94508967D01*
X128671956Y-94414112D01*
X128746483Y-94302574D01*
X128797818Y-94178640D01*
X128823989Y-94047073D01*
X128823989Y-93912927D01*
X128797818Y-93781360D01*
X128746483Y-93657426D01*
X128671956Y-93545888D01*
X128625589Y-93499521D01*
X128625589Y-93367089D01*
X130057969Y-94799469D01*
X130073080Y-94817882D01*
X130123662Y-94859394D01*
X130095715Y-94901220D01*
X130044380Y-95025154D01*
X130018209Y-95156721D01*
X130018209Y-95290867D01*
X130044380Y-95422434D01*
X130095715Y-95546368D01*
X130170242Y-95657906D01*
X130265097Y-95752761D01*
X130376635Y-95827288D01*
X130500569Y-95878623D01*
X130632136Y-95904794D01*
X130766282Y-95904794D01*
X130897849Y-95878623D01*
X131021783Y-95827288D01*
X131133321Y-95752761D01*
X131228176Y-95657906D01*
X131302703Y-95546368D01*
X131354038Y-95422434D01*
X131380209Y-95290867D01*
X131380209Y-95156721D01*
X131354038Y-95025154D01*
X131326048Y-94957581D01*
X132305975Y-94957581D01*
X132352342Y-95003948D01*
X132463880Y-95078475D01*
X132587814Y-95129810D01*
X132719381Y-95155981D01*
X132853527Y-95155981D01*
X132985094Y-95129810D01*
X133036336Y-95108585D01*
X132948033Y-95196888D01*
X132873506Y-95308426D01*
X132822171Y-95432360D01*
X132796000Y-95563927D01*
X132796000Y-95698073D01*
X132822171Y-95829640D01*
X132873506Y-95953574D01*
X132948033Y-96065112D01*
X133042888Y-96159967D01*
X133154426Y-96234494D01*
X133278360Y-96285829D01*
X133409927Y-96312000D01*
X133544073Y-96312000D01*
X133675640Y-96285829D01*
X133799574Y-96234494D01*
X133911112Y-96159967D01*
X133921505Y-96149574D01*
X133931898Y-96159967D01*
X134043436Y-96234494D01*
X134167370Y-96285829D01*
X134298937Y-96312000D01*
X134433083Y-96312000D01*
X134564650Y-96285829D01*
X134599940Y-96271211D01*
X134600170Y-96272366D01*
X134651505Y-96396300D01*
X134726032Y-96507838D01*
X134820887Y-96602693D01*
X134932425Y-96677220D01*
X135056359Y-96728555D01*
X135187926Y-96754726D01*
X135254592Y-96754726D01*
X134828952Y-97180367D01*
X132758749Y-97180367D01*
X132769514Y-97126249D01*
X132769514Y-96992103D01*
X132743343Y-96860536D01*
X132692008Y-96736602D01*
X132617481Y-96625064D01*
X132522626Y-96530209D01*
X132411088Y-96455682D01*
X132287154Y-96404347D01*
X132155587Y-96378176D01*
X132064993Y-96378176D01*
X132038647Y-96314571D01*
X131964120Y-96203033D01*
X131869265Y-96108178D01*
X131757727Y-96033651D01*
X131633793Y-95982316D01*
X131502226Y-95956145D01*
X131368080Y-95956145D01*
X131236513Y-95982316D01*
X131112579Y-96033651D01*
X131001041Y-96108178D01*
X130906186Y-96203033D01*
X130831659Y-96314571D01*
X130780324Y-96438505D01*
X130754153Y-96570072D01*
X130754153Y-96704218D01*
X130780324Y-96835785D01*
X130831659Y-96959719D01*
X130906186Y-97071257D01*
X131001041Y-97166112D01*
X131022375Y-97180367D01*
X129321287Y-97180367D01*
X129323410Y-97169695D01*
X129323410Y-97035549D01*
X129297239Y-96903982D01*
X129245904Y-96780048D01*
X129171377Y-96668510D01*
X129076522Y-96573655D01*
X128964984Y-96499128D01*
X128841050Y-96447793D01*
X128709483Y-96421622D01*
X128575337Y-96421622D01*
X128443770Y-96447793D01*
X128319836Y-96499128D01*
X128208298Y-96573655D01*
X128113443Y-96668510D01*
X128081336Y-96716562D01*
X126974611Y-95609838D01*
X126974611Y-94928927D01*
X128605000Y-94928927D01*
X128605000Y-95063073D01*
X128631171Y-95194640D01*
X128682506Y-95318574D01*
X128757033Y-95430112D01*
X128851888Y-95524967D01*
X128963426Y-95599494D01*
X129087360Y-95650829D01*
X129218927Y-95677000D01*
X129353073Y-95677000D01*
X129484640Y-95650829D01*
X129608574Y-95599494D01*
X129720112Y-95524967D01*
X129814967Y-95430112D01*
X129889494Y-95318574D01*
X129940829Y-95194640D01*
X129967000Y-95063073D01*
X129967000Y-94928927D01*
X129940829Y-94797360D01*
X129889494Y-94673426D01*
X129814967Y-94561888D01*
X129720112Y-94467033D01*
X129608574Y-94392506D01*
X129484640Y-94341171D01*
X129353073Y-94315000D01*
X129218927Y-94315000D01*
X129087360Y-94341171D01*
X128963426Y-94392506D01*
X128851888Y-94467033D01*
X128757033Y-94561888D01*
X128682506Y-94673426D01*
X128631171Y-94797360D01*
X128605000Y-94928927D01*
X126974611Y-94928927D01*
X126974611Y-92235154D01*
X127660390Y-92920933D01*
G36*
X132690501Y-81071032D02*
G01*
X134136210Y-82516741D01*
X134137648Y-82518494D01*
X134164045Y-82550659D01*
X134299413Y-82661753D01*
X134453853Y-82744303D01*
X134519762Y-82764296D01*
X134621428Y-82795136D01*
X134652680Y-82798214D01*
X134795704Y-82812301D01*
X134839371Y-82808000D01*
X140160340Y-82808000D01*
X140204000Y-82812300D01*
X140247660Y-82808000D01*
X140247667Y-82808000D01*
X140378274Y-82795136D01*
X140545851Y-82744303D01*
X140700291Y-82661753D01*
X140835659Y-82550659D01*
X140863499Y-82516736D01*
X140873000Y-82507235D01*
X140873000Y-83054127D01*
X140751256Y-83066923D01*
X140710767Y-83075234D01*
X140670175Y-83082977D01*
X140664081Y-83084817D01*
X140664075Y-83084819D01*
X140477642Y-83142530D01*
X140439552Y-83158541D01*
X140401222Y-83174027D01*
X140395604Y-83177015D01*
X140395599Y-83177017D01*
X140395595Y-83177020D01*
X140223923Y-83269842D01*
X140189651Y-83292958D01*
X140155075Y-83315584D01*
X140150150Y-83319601D01*
X140150142Y-83319607D01*
X140150135Y-83319614D01*
X139999763Y-83444013D01*
X139970637Y-83473343D01*
X139941113Y-83502254D01*
X139937059Y-83507155D01*
X139937053Y-83507161D01*
X139937049Y-83507168D01*
X139813704Y-83658403D01*
X139790819Y-83692847D01*
X139767483Y-83726928D01*
X139764459Y-83732521D01*
X139764454Y-83732529D01*
X139764451Y-83732537D01*
X139672830Y-83904851D01*
X139657087Y-83943046D01*
X139640799Y-83981049D01*
X139638916Y-83987131D01*
X139582507Y-84173968D01*
X139574483Y-84214493D01*
X139565886Y-84254936D01*
X139565221Y-84261268D01*
X139546176Y-84455502D01*
X139546176Y-84455517D01*
X139544001Y-84477601D01*
X139544001Y-89584809D01*
X139516819Y-89579402D01*
X139382673Y-89579402D01*
X139251106Y-89605573D01*
X139127172Y-89656908D01*
X139015634Y-89731435D01*
X138920779Y-89826290D01*
X138846252Y-89937828D01*
X138794917Y-90061762D01*
X138768746Y-90193329D01*
X138768746Y-90327475D01*
X138794917Y-90459042D01*
X138846252Y-90582976D01*
X138920779Y-90694514D01*
X138969454Y-90743189D01*
X138870929Y-90743189D01*
X138739362Y-90769360D01*
X138615428Y-90820695D01*
X138503890Y-90895222D01*
X138409035Y-90990077D01*
X138334508Y-91101615D01*
X138283173Y-91225549D01*
X138257002Y-91357116D01*
X138257002Y-91491262D01*
X138283173Y-91622829D01*
X138334508Y-91746763D01*
X138409035Y-91858301D01*
X138428600Y-91877866D01*
X138359208Y-91981718D01*
X138307873Y-92105652D01*
X138281702Y-92237219D01*
X138281702Y-92371365D01*
X138307873Y-92502932D01*
X138359208Y-92626866D01*
X138394150Y-92679161D01*
X138334506Y-92768426D01*
X138283171Y-92892360D01*
X138257000Y-93023927D01*
X138257000Y-93158073D01*
X138283171Y-93289640D01*
X138334506Y-93413574D01*
X138409033Y-93525112D01*
X138503888Y-93619967D01*
X138537991Y-93642754D01*
X138503420Y-93665853D01*
X138457053Y-93712220D01*
X136304720Y-93712220D01*
X135794386Y-93201886D01*
X135831574Y-93186482D01*
X135943112Y-93111955D01*
X136037967Y-93017100D01*
X136112494Y-92905562D01*
X136163829Y-92781628D01*
X136190000Y-92650061D01*
X136190000Y-92515915D01*
X136163829Y-92384348D01*
X136112494Y-92260414D01*
X136092808Y-92230952D01*
X136116122Y-92215374D01*
X136162758Y-92168738D01*
X136221009Y-92192866D01*
X136352576Y-92219037D01*
X136486722Y-92219037D01*
X136618289Y-92192866D01*
X136742223Y-92141531D01*
X136853761Y-92067004D01*
X136948616Y-91972149D01*
X137023143Y-91860611D01*
X137074478Y-91736677D01*
X137100649Y-91605110D01*
X137100649Y-91470964D01*
X137074478Y-91339397D01*
X137023143Y-91215463D01*
X136948616Y-91103925D01*
X136853761Y-91009070D01*
X136742223Y-90934543D01*
X136618289Y-90883208D01*
X136486722Y-90857037D01*
X136352576Y-90857037D01*
X136221009Y-90883208D01*
X136097075Y-90934543D01*
X135985537Y-91009070D01*
X135938901Y-91055706D01*
X135880650Y-91031578D01*
X135749083Y-91005407D01*
X135614937Y-91005407D01*
X135483370Y-91031578D01*
X135359436Y-91082913D01*
X135247898Y-91157440D01*
X135153043Y-91252295D01*
X135078516Y-91363833D01*
X135027181Y-91487767D01*
X135001010Y-91619334D01*
X135001010Y-91753480D01*
X135027181Y-91885047D01*
X135078516Y-92008981D01*
X135098202Y-92038443D01*
X135074888Y-92054021D01*
X134980033Y-92148876D01*
X134905506Y-92260414D01*
X134890102Y-92297602D01*
X132689600Y-90097101D01*
X132689600Y-88497937D01*
X133151658Y-88497937D01*
X133151658Y-88632083D01*
X133177829Y-88763650D01*
X133229164Y-88887584D01*
X133303691Y-88999122D01*
X133398546Y-89093977D01*
X133510084Y-89168504D01*
X133634018Y-89219839D01*
X133765585Y-89246010D01*
X133899731Y-89246010D01*
X134031298Y-89219839D01*
X134155232Y-89168504D01*
X134266770Y-89093977D01*
X134361625Y-88999122D01*
X134392207Y-88953353D01*
X134392207Y-89079276D01*
X134418378Y-89210843D01*
X134433582Y-89247550D01*
X134355967Y-89247550D01*
X134224400Y-89273721D01*
X134100466Y-89325056D01*
X133988928Y-89399583D01*
X133894073Y-89494438D01*
X133819546Y-89605976D01*
X133768211Y-89729910D01*
X133742040Y-89861477D01*
X133742040Y-89995623D01*
X133768211Y-90127190D01*
X133819546Y-90251124D01*
X133894073Y-90362662D01*
X133988928Y-90457517D01*
X134100466Y-90532044D01*
X134224400Y-90583379D01*
X134355967Y-90609550D01*
X134490113Y-90609550D01*
X134621680Y-90583379D01*
X134745614Y-90532044D01*
X134857152Y-90457517D01*
X134952007Y-90362662D01*
X135026534Y-90251124D01*
X135077869Y-90127190D01*
X135104040Y-89995623D01*
X135104040Y-89861477D01*
X135077869Y-89729910D01*
X135062665Y-89693203D01*
X135140280Y-89693203D01*
X135271847Y-89667032D01*
X135395781Y-89615697D01*
X135507319Y-89541170D01*
X135602174Y-89446315D01*
X135676701Y-89334777D01*
X135728036Y-89210843D01*
X135754207Y-89079276D01*
X135754207Y-88945130D01*
X135728036Y-88813563D01*
X135676701Y-88689629D01*
X135602174Y-88578091D01*
X135507319Y-88483236D01*
X135395781Y-88408709D01*
X135271847Y-88357374D01*
X135140280Y-88331203D01*
X135006134Y-88331203D01*
X134874567Y-88357374D01*
X134750633Y-88408709D01*
X134639095Y-88483236D01*
X134544240Y-88578091D01*
X134513658Y-88623860D01*
X134513658Y-88497937D01*
X134487487Y-88366370D01*
X134436152Y-88242436D01*
X134361625Y-88130898D01*
X134266770Y-88036043D01*
X134155232Y-87961516D01*
X134031298Y-87910181D01*
X133899731Y-87884010D01*
X133765585Y-87884010D01*
X133634018Y-87910181D01*
X133510084Y-87961516D01*
X133398546Y-88036043D01*
X133303691Y-88130898D01*
X133229164Y-88242436D01*
X133177829Y-88366370D01*
X133151658Y-88497937D01*
X132689600Y-88497937D01*
X132689600Y-85594427D01*
X132732500Y-85594427D01*
X132732500Y-85728573D01*
X132758671Y-85860140D01*
X132810006Y-85984074D01*
X132884533Y-86095612D01*
X132979388Y-86190467D01*
X133090926Y-86264994D01*
X133214860Y-86316329D01*
X133346427Y-86342500D01*
X133480573Y-86342500D01*
X133612140Y-86316329D01*
X133736074Y-86264994D01*
X133847612Y-86190467D01*
X133942467Y-86095612D01*
X134016994Y-85984074D01*
X134068329Y-85860140D01*
X134094500Y-85728573D01*
X134094500Y-85594427D01*
X134068329Y-85462860D01*
X134016994Y-85338926D01*
X133942467Y-85227388D01*
X133847612Y-85132533D01*
X133736074Y-85058006D01*
X133612140Y-85006671D01*
X133480573Y-84980500D01*
X133346427Y-84980500D01*
X133214860Y-85006671D01*
X133090926Y-85058006D01*
X132979388Y-85132533D01*
X132884533Y-85227388D01*
X132810006Y-85338926D01*
X132758671Y-85462860D01*
X132732500Y-85594427D01*
X132689600Y-85594427D01*
X132689600Y-84133927D01*
X134193000Y-84133927D01*
X134193000Y-84268073D01*
X134219171Y-84399640D01*
X134270506Y-84523574D01*
X134345033Y-84635112D01*
X134439888Y-84729967D01*
X134551426Y-84804494D01*
X134675360Y-84855829D01*
X134806927Y-84882000D01*
X134941073Y-84882000D01*
X135072640Y-84855829D01*
X135196574Y-84804494D01*
X135308112Y-84729967D01*
X135402967Y-84635112D01*
X135477494Y-84523574D01*
X135528829Y-84399640D01*
X135555000Y-84268073D01*
X135555000Y-84133927D01*
X135528829Y-84002360D01*
X135477494Y-83878426D01*
X135402967Y-83766888D01*
X135308112Y-83672033D01*
X135196574Y-83597506D01*
X135072640Y-83546171D01*
X134941073Y-83520000D01*
X134806927Y-83520000D01*
X134675360Y-83546171D01*
X134551426Y-83597506D01*
X134439888Y-83672033D01*
X134345033Y-83766888D01*
X134270506Y-83878426D01*
X134219171Y-84002360D01*
X134193000Y-84133927D01*
X132689600Y-84133927D01*
X132689600Y-81070130D01*
X132690501Y-81071032D01*
X132690501Y-81071032D01*
G37*
X132690501Y-81071032D02*
X134136210Y-82516741D01*
X134137648Y-82518494D01*
X134164045Y-82550659D01*
X134299413Y-82661753D01*
X134453853Y-82744303D01*
X134519762Y-82764296D01*
X134621428Y-82795136D01*
X134652680Y-82798214D01*
X134795704Y-82812301D01*
X134839371Y-82808000D01*
X140160340Y-82808000D01*
X140204000Y-82812300D01*
X140247660Y-82808000D01*
X140247667Y-82808000D01*
X140378274Y-82795136D01*
X140545851Y-82744303D01*
X140700291Y-82661753D01*
X140835659Y-82550659D01*
X140863499Y-82516736D01*
X140873000Y-82507235D01*
X140873000Y-83054127D01*
X140751256Y-83066923D01*
X140710767Y-83075234D01*
X140670175Y-83082977D01*
X140664081Y-83084817D01*
X140664075Y-83084819D01*
X140477642Y-83142530D01*
X140439552Y-83158541D01*
X140401222Y-83174027D01*
X140395604Y-83177015D01*
X140395599Y-83177017D01*
X140395595Y-83177020D01*
X140223923Y-83269842D01*
X140189651Y-83292958D01*
X140155075Y-83315584D01*
X140150150Y-83319601D01*
X140150142Y-83319607D01*
X140150135Y-83319614D01*
X139999763Y-83444013D01*
X139970637Y-83473343D01*
X139941113Y-83502254D01*
X139937059Y-83507155D01*
X139937053Y-83507161D01*
X139937049Y-83507168D01*
X139813704Y-83658403D01*
X139790819Y-83692847D01*
X139767483Y-83726928D01*
X139764459Y-83732521D01*
X139764454Y-83732529D01*
X139764451Y-83732537D01*
X139672830Y-83904851D01*
X139657087Y-83943046D01*
X139640799Y-83981049D01*
X139638916Y-83987131D01*
X139582507Y-84173968D01*
X139574483Y-84214493D01*
X139565886Y-84254936D01*
X139565221Y-84261268D01*
X139546176Y-84455502D01*
X139546176Y-84455517D01*
X139544001Y-84477601D01*
X139544001Y-89584809D01*
X139516819Y-89579402D01*
X139382673Y-89579402D01*
X139251106Y-89605573D01*
X139127172Y-89656908D01*
X139015634Y-89731435D01*
X138920779Y-89826290D01*
X138846252Y-89937828D01*
X138794917Y-90061762D01*
X138768746Y-90193329D01*
X138768746Y-90327475D01*
X138794917Y-90459042D01*
X138846252Y-90582976D01*
X138920779Y-90694514D01*
X138969454Y-90743189D01*
X138870929Y-90743189D01*
X138739362Y-90769360D01*
X138615428Y-90820695D01*
X138503890Y-90895222D01*
X138409035Y-90990077D01*
X138334508Y-91101615D01*
X138283173Y-91225549D01*
X138257002Y-91357116D01*
X138257002Y-91491262D01*
X138283173Y-91622829D01*
X138334508Y-91746763D01*
X138409035Y-91858301D01*
X138428600Y-91877866D01*
X138359208Y-91981718D01*
X138307873Y-92105652D01*
X138281702Y-92237219D01*
X138281702Y-92371365D01*
X138307873Y-92502932D01*
X138359208Y-92626866D01*
X138394150Y-92679161D01*
X138334506Y-92768426D01*
X138283171Y-92892360D01*
X138257000Y-93023927D01*
X138257000Y-93158073D01*
X138283171Y-93289640D01*
X138334506Y-93413574D01*
X138409033Y-93525112D01*
X138503888Y-93619967D01*
X138537991Y-93642754D01*
X138503420Y-93665853D01*
X138457053Y-93712220D01*
X136304720Y-93712220D01*
X135794386Y-93201886D01*
X135831574Y-93186482D01*
X135943112Y-93111955D01*
X136037967Y-93017100D01*
X136112494Y-92905562D01*
X136163829Y-92781628D01*
X136190000Y-92650061D01*
X136190000Y-92515915D01*
X136163829Y-92384348D01*
X136112494Y-92260414D01*
X136092808Y-92230952D01*
X136116122Y-92215374D01*
X136162758Y-92168738D01*
X136221009Y-92192866D01*
X136352576Y-92219037D01*
X136486722Y-92219037D01*
X136618289Y-92192866D01*
X136742223Y-92141531D01*
X136853761Y-92067004D01*
X136948616Y-91972149D01*
X137023143Y-91860611D01*
X137074478Y-91736677D01*
X137100649Y-91605110D01*
X137100649Y-91470964D01*
X137074478Y-91339397D01*
X137023143Y-91215463D01*
X136948616Y-91103925D01*
X136853761Y-91009070D01*
X136742223Y-90934543D01*
X136618289Y-90883208D01*
X136486722Y-90857037D01*
X136352576Y-90857037D01*
X136221009Y-90883208D01*
X136097075Y-90934543D01*
X135985537Y-91009070D01*
X135938901Y-91055706D01*
X135880650Y-91031578D01*
X135749083Y-91005407D01*
X135614937Y-91005407D01*
X135483370Y-91031578D01*
X135359436Y-91082913D01*
X135247898Y-91157440D01*
X135153043Y-91252295D01*
X135078516Y-91363833D01*
X135027181Y-91487767D01*
X135001010Y-91619334D01*
X135001010Y-91753480D01*
X135027181Y-91885047D01*
X135078516Y-92008981D01*
X135098202Y-92038443D01*
X135074888Y-92054021D01*
X134980033Y-92148876D01*
X134905506Y-92260414D01*
X134890102Y-92297602D01*
X132689600Y-90097101D01*
X132689600Y-88497937D01*
X133151658Y-88497937D01*
X133151658Y-88632083D01*
X133177829Y-88763650D01*
X133229164Y-88887584D01*
X133303691Y-88999122D01*
X133398546Y-89093977D01*
X133510084Y-89168504D01*
X133634018Y-89219839D01*
X133765585Y-89246010D01*
X133899731Y-89246010D01*
X134031298Y-89219839D01*
X134155232Y-89168504D01*
X134266770Y-89093977D01*
X134361625Y-88999122D01*
X134392207Y-88953353D01*
X134392207Y-89079276D01*
X134418378Y-89210843D01*
X134433582Y-89247550D01*
X134355967Y-89247550D01*
X134224400Y-89273721D01*
X134100466Y-89325056D01*
X133988928Y-89399583D01*
X133894073Y-89494438D01*
X133819546Y-89605976D01*
X133768211Y-89729910D01*
X133742040Y-89861477D01*
X133742040Y-89995623D01*
X133768211Y-90127190D01*
X133819546Y-90251124D01*
X133894073Y-90362662D01*
X133988928Y-90457517D01*
X134100466Y-90532044D01*
X134224400Y-90583379D01*
X134355967Y-90609550D01*
X134490113Y-90609550D01*
X134621680Y-90583379D01*
X134745614Y-90532044D01*
X134857152Y-90457517D01*
X134952007Y-90362662D01*
X135026534Y-90251124D01*
X135077869Y-90127190D01*
X135104040Y-89995623D01*
X135104040Y-89861477D01*
X135077869Y-89729910D01*
X135062665Y-89693203D01*
X135140280Y-89693203D01*
X135271847Y-89667032D01*
X135395781Y-89615697D01*
X135507319Y-89541170D01*
X135602174Y-89446315D01*
X135676701Y-89334777D01*
X135728036Y-89210843D01*
X135754207Y-89079276D01*
X135754207Y-88945130D01*
X135728036Y-88813563D01*
X135676701Y-88689629D01*
X135602174Y-88578091D01*
X135507319Y-88483236D01*
X135395781Y-88408709D01*
X135271847Y-88357374D01*
X135140280Y-88331203D01*
X135006134Y-88331203D01*
X134874567Y-88357374D01*
X134750633Y-88408709D01*
X134639095Y-88483236D01*
X134544240Y-88578091D01*
X134513658Y-88623860D01*
X134513658Y-88497937D01*
X134487487Y-88366370D01*
X134436152Y-88242436D01*
X134361625Y-88130898D01*
X134266770Y-88036043D01*
X134155232Y-87961516D01*
X134031298Y-87910181D01*
X133899731Y-87884010D01*
X133765585Y-87884010D01*
X133634018Y-87910181D01*
X133510084Y-87961516D01*
X133398546Y-88036043D01*
X133303691Y-88130898D01*
X133229164Y-88242436D01*
X133177829Y-88366370D01*
X133151658Y-88497937D01*
X132689600Y-88497937D01*
X132689600Y-85594427D01*
X132732500Y-85594427D01*
X132732500Y-85728573D01*
X132758671Y-85860140D01*
X132810006Y-85984074D01*
X132884533Y-86095612D01*
X132979388Y-86190467D01*
X133090926Y-86264994D01*
X133214860Y-86316329D01*
X133346427Y-86342500D01*
X133480573Y-86342500D01*
X133612140Y-86316329D01*
X133736074Y-86264994D01*
X133847612Y-86190467D01*
X133942467Y-86095612D01*
X134016994Y-85984074D01*
X134068329Y-85860140D01*
X134094500Y-85728573D01*
X134094500Y-85594427D01*
X134068329Y-85462860D01*
X134016994Y-85338926D01*
X133942467Y-85227388D01*
X133847612Y-85132533D01*
X133736074Y-85058006D01*
X133612140Y-85006671D01*
X133480573Y-84980500D01*
X133346427Y-84980500D01*
X133214860Y-85006671D01*
X133090926Y-85058006D01*
X132979388Y-85132533D01*
X132884533Y-85227388D01*
X132810006Y-85338926D01*
X132758671Y-85462860D01*
X132732500Y-85594427D01*
X132689600Y-85594427D01*
X132689600Y-84133927D01*
X134193000Y-84133927D01*
X134193000Y-84268073D01*
X134219171Y-84399640D01*
X134270506Y-84523574D01*
X134345033Y-84635112D01*
X134439888Y-84729967D01*
X134551426Y-84804494D01*
X134675360Y-84855829D01*
X134806927Y-84882000D01*
X134941073Y-84882000D01*
X135072640Y-84855829D01*
X135196574Y-84804494D01*
X135308112Y-84729967D01*
X135402967Y-84635112D01*
X135477494Y-84523574D01*
X135528829Y-84399640D01*
X135555000Y-84268073D01*
X135555000Y-84133927D01*
X135528829Y-84002360D01*
X135477494Y-83878426D01*
X135402967Y-83766888D01*
X135308112Y-83672033D01*
X135196574Y-83597506D01*
X135072640Y-83546171D01*
X134941073Y-83520000D01*
X134806927Y-83520000D01*
X134675360Y-83546171D01*
X134551426Y-83597506D01*
X134439888Y-83672033D01*
X134345033Y-83766888D01*
X134270506Y-83878426D01*
X134219171Y-84002360D01*
X134193000Y-84133927D01*
X132689600Y-84133927D01*
X132689600Y-81070130D01*
X132690501Y-81071032D01*
G36*
X140873000Y-70027500D02*
G01*
X140789888Y-70083033D01*
X140695033Y-70177888D01*
X140620506Y-70289426D01*
X140569171Y-70413360D01*
X140543000Y-70544927D01*
X140543000Y-70566000D01*
X140521933Y-70566000D01*
X140390366Y-70592171D01*
X140266432Y-70643506D01*
X140154894Y-70718033D01*
X140060039Y-70812888D01*
X139985512Y-70924426D01*
X139934177Y-71048360D01*
X139908006Y-71179927D01*
X139908006Y-71314073D01*
X139934177Y-71445640D01*
X139985512Y-71569574D01*
X140060039Y-71681112D01*
X140154894Y-71775967D01*
X140266432Y-71850494D01*
X140390366Y-71901829D01*
X140521933Y-71928000D01*
X140656079Y-71928000D01*
X140787646Y-71901829D01*
X140873000Y-71866474D01*
X140873000Y-72421817D01*
X140863967Y-72408298D01*
X140769112Y-72313443D01*
X140657574Y-72238916D01*
X140533640Y-72187581D01*
X140402073Y-72161410D01*
X140267927Y-72161410D01*
X140136360Y-72187581D01*
X140012426Y-72238916D01*
X139900888Y-72313443D01*
X139806033Y-72408298D01*
X139731506Y-72519836D01*
X139680171Y-72643770D01*
X139654000Y-72775337D01*
X139654000Y-72909483D01*
X139680171Y-73041050D01*
X139731506Y-73164984D01*
X139806033Y-73276522D01*
X139900888Y-73371377D01*
X140012426Y-73445904D01*
X140136360Y-73497239D01*
X140179334Y-73505787D01*
X140162000Y-73592927D01*
X140162000Y-73727073D01*
X140188171Y-73858640D01*
X140219804Y-73935008D01*
X140165888Y-73971033D01*
X140071033Y-74065888D01*
X139996506Y-74177426D01*
X139945171Y-74301360D01*
X139919000Y-74432927D01*
X139919000Y-74567073D01*
X139945171Y-74698640D01*
X139951471Y-74713849D01*
X139865888Y-74771033D01*
X139771033Y-74865888D01*
X139696506Y-74977426D01*
X139645171Y-75101360D01*
X139619000Y-75232927D01*
X139619000Y-75367073D01*
X139645171Y-75498640D01*
X139696506Y-75622574D01*
X139771033Y-75734112D01*
X139865888Y-75828967D01*
X139977426Y-75903494D01*
X140101360Y-75954829D01*
X140232927Y-75981000D01*
X140367073Y-75981000D01*
X140498640Y-75954829D01*
X140622574Y-75903494D01*
X140734112Y-75828967D01*
X140828967Y-75734112D01*
X140873000Y-75668212D01*
X140873000Y-76025858D01*
X137640907Y-79257952D01*
X137593033Y-79277782D01*
X137481495Y-79352309D01*
X137386640Y-79447164D01*
X137312113Y-79558702D01*
X137260778Y-79682636D01*
X137234607Y-79814203D01*
X137234607Y-79948349D01*
X137260778Y-80079916D01*
X137312113Y-80203850D01*
X137386640Y-80315388D01*
X137481495Y-80410243D01*
X137593033Y-80484770D01*
X137641176Y-80504711D01*
X137641176Y-80617033D01*
X137667347Y-80748600D01*
X137718682Y-80872534D01*
X137793209Y-80984072D01*
X137839137Y-81030000D01*
X135170035Y-81030000D01*
X134989140Y-80849105D01*
X134955149Y-80821209D01*
X133985000Y-79851061D01*
X133985000Y-72115167D01*
X134120900Y-72115167D01*
X134120900Y-72249313D01*
X134147071Y-72380880D01*
X134198406Y-72504814D01*
X134272933Y-72616352D01*
X134342571Y-72685990D01*
X134328736Y-72719390D01*
X134302565Y-72850957D01*
X134302565Y-72985103D01*
X134328736Y-73116670D01*
X134380071Y-73240604D01*
X134454598Y-73352142D01*
X134549453Y-73446997D01*
X134660991Y-73521524D01*
X134715579Y-73544135D01*
X134646888Y-73590033D01*
X134552033Y-73684888D01*
X134477506Y-73796426D01*
X134426171Y-73920360D01*
X134400000Y-74051927D01*
X134400000Y-74186073D01*
X134426171Y-74317640D01*
X134477506Y-74441574D01*
X134484652Y-74452269D01*
X134452033Y-74484888D01*
X134377506Y-74596426D01*
X134326171Y-74720360D01*
X134300000Y-74851927D01*
X134300000Y-74986073D01*
X134326171Y-75117640D01*
X134377506Y-75241574D01*
X134429240Y-75319000D01*
X134377506Y-75396426D01*
X134326171Y-75520360D01*
X134300000Y-75651927D01*
X134300000Y-75786073D01*
X134326171Y-75917640D01*
X134377506Y-76041574D01*
X134452033Y-76153112D01*
X134546888Y-76247967D01*
X134658426Y-76322494D01*
X134666972Y-76326034D01*
X134662029Y-76327017D01*
X134538095Y-76378352D01*
X134426557Y-76452879D01*
X134331702Y-76547734D01*
X134257175Y-76659272D01*
X134205840Y-76783206D01*
X134179669Y-76914773D01*
X134179669Y-77048919D01*
X134205840Y-77180486D01*
X134257175Y-77304420D01*
X134304568Y-77375350D01*
X134263335Y-77437060D01*
X134212000Y-77560994D01*
X134185829Y-77692561D01*
X134185829Y-77826707D01*
X134212000Y-77958274D01*
X134263335Y-78082208D01*
X134318950Y-78165443D01*
X134286146Y-78214538D01*
X134234811Y-78338472D01*
X134208640Y-78470039D01*
X134208640Y-78604185D01*
X134234811Y-78735752D01*
X134286146Y-78859686D01*
X134360673Y-78971224D01*
X134455528Y-79066079D01*
X134567066Y-79140606D01*
X134691000Y-79191941D01*
X134822567Y-79218112D01*
X134956713Y-79218112D01*
X135088280Y-79191941D01*
X135212214Y-79140606D01*
X135323752Y-79066079D01*
X135418607Y-78971224D01*
X135493134Y-78859686D01*
X135544469Y-78735752D01*
X135570640Y-78604185D01*
X135570640Y-78470039D01*
X135544469Y-78338472D01*
X135493134Y-78214538D01*
X135437519Y-78131303D01*
X135470323Y-78082208D01*
X135521658Y-77958274D01*
X135547829Y-77826707D01*
X135547829Y-77692561D01*
X135521658Y-77560994D01*
X135470323Y-77437060D01*
X135422930Y-77366130D01*
X135464163Y-77304420D01*
X135515498Y-77180486D01*
X135541669Y-77048919D01*
X135541669Y-76914773D01*
X135515498Y-76783206D01*
X135464163Y-76659272D01*
X135389636Y-76547734D01*
X135294781Y-76452879D01*
X135183243Y-76378352D01*
X135174697Y-76374812D01*
X135179640Y-76373829D01*
X135303574Y-76322494D01*
X135415112Y-76247967D01*
X135509967Y-76153112D01*
X135584494Y-76041574D01*
X135635829Y-75917640D01*
X135662000Y-75786073D01*
X135662000Y-75651927D01*
X135635829Y-75520360D01*
X135584494Y-75396426D01*
X135532760Y-75319000D01*
X135584494Y-75241574D01*
X135635829Y-75117640D01*
X135662000Y-74986073D01*
X135662000Y-74851927D01*
X135635829Y-74720360D01*
X135584494Y-74596426D01*
X135577348Y-74585731D01*
X135609967Y-74553112D01*
X135684494Y-74441574D01*
X135735829Y-74317640D01*
X135762000Y-74186073D01*
X135762000Y-74051927D01*
X135735829Y-73920360D01*
X135684494Y-73796426D01*
X135609967Y-73684888D01*
X135515112Y-73590033D01*
X135403574Y-73515506D01*
X135348986Y-73492895D01*
X135417677Y-73446997D01*
X135512532Y-73352142D01*
X135587059Y-73240604D01*
X135638394Y-73116670D01*
X135664565Y-72985103D01*
X135664565Y-72850957D01*
X135638394Y-72719390D01*
X135587059Y-72595456D01*
X135512532Y-72483918D01*
X135442894Y-72414280D01*
X135456729Y-72380880D01*
X135482900Y-72249313D01*
X135482900Y-72115167D01*
X135456729Y-71983600D01*
X135405394Y-71859666D01*
X135390688Y-71837657D01*
X135463188Y-71729152D01*
X135514523Y-71605218D01*
X135540694Y-71473651D01*
X135540694Y-71339505D01*
X135514523Y-71207938D01*
X135495481Y-71161967D01*
X135572526Y-71084922D01*
X135647053Y-70973384D01*
X135698388Y-70849450D01*
X135724559Y-70717883D01*
X135724559Y-70583737D01*
X135698388Y-70452170D01*
X135647053Y-70328236D01*
X135572526Y-70216698D01*
X135477671Y-70121843D01*
X135366133Y-70047316D01*
X135242199Y-69995981D01*
X135110632Y-69969810D01*
X134976486Y-69969810D01*
X134844919Y-69995981D01*
X134720985Y-70047316D01*
X134609447Y-70121843D01*
X134514592Y-70216698D01*
X134440065Y-70328236D01*
X134388730Y-70452170D01*
X134362559Y-70583737D01*
X134362559Y-70717883D01*
X134388730Y-70849450D01*
X134407772Y-70895421D01*
X134330727Y-70972466D01*
X134256200Y-71084004D01*
X134204865Y-71207938D01*
X134178694Y-71339505D01*
X134178694Y-71473651D01*
X134204865Y-71605218D01*
X134256200Y-71729152D01*
X134270906Y-71751161D01*
X134198406Y-71859666D01*
X134147071Y-71983600D01*
X134120900Y-72115167D01*
X133985000Y-72115167D01*
X133985000Y-69583235D01*
X134167809Y-69400426D01*
X134822295Y-68745941D01*
X134905552Y-68644492D01*
X134988102Y-68490053D01*
X135038936Y-68322475D01*
X135056100Y-68148200D01*
X135038936Y-67973925D01*
X134988102Y-67806348D01*
X134905552Y-67651909D01*
X134794459Y-67516541D01*
X134659091Y-67405448D01*
X134504652Y-67322898D01*
X134337075Y-67272064D01*
X134162800Y-67254900D01*
X133988525Y-67272064D01*
X133820947Y-67322898D01*
X133666508Y-67405448D01*
X133565059Y-67488705D01*
X132690505Y-68363260D01*
X132498265Y-68555500D01*
X132464341Y-68583341D01*
X132353247Y-68718710D01*
X132270697Y-68873150D01*
X132244048Y-68961001D01*
X132238034Y-68980829D01*
X132219864Y-69040727D01*
X132207000Y-69171334D01*
X132207000Y-69171340D01*
X132202700Y-69215000D01*
X132207000Y-69258660D01*
X132207000Y-73104501D01*
X130729887Y-71627388D01*
X130729887Y-71566153D01*
X130703716Y-71434586D01*
X130652381Y-71310652D01*
X130577854Y-71199114D01*
X130482999Y-71104259D01*
X130443383Y-71077788D01*
X130448829Y-71064640D01*
X130475000Y-70933073D01*
X130475000Y-70798927D01*
X130448829Y-70667360D01*
X130397494Y-70543426D01*
X130322967Y-70431888D01*
X130262386Y-70371307D01*
X130370574Y-70326494D01*
X130482112Y-70251967D01*
X130576967Y-70157112D01*
X130651494Y-70045574D01*
X130702829Y-69921640D01*
X130729000Y-69790073D01*
X130729000Y-69655927D01*
X130702829Y-69524360D01*
X130651494Y-69400426D01*
X130576967Y-69288888D01*
X130482112Y-69194033D01*
X130370574Y-69119506D01*
X130246640Y-69068171D01*
X130225524Y-69063971D01*
X130243574Y-69056494D01*
X130355112Y-68981967D01*
X130449967Y-68887112D01*
X130524494Y-68775574D01*
X130575829Y-68651640D01*
X130602000Y-68520073D01*
X130602000Y-68385927D01*
X130575829Y-68254360D01*
X130524494Y-68130426D01*
X130449967Y-68018888D01*
X130355112Y-67924033D01*
X130243574Y-67849506D01*
X130119640Y-67798171D01*
X129988073Y-67772000D01*
X129853927Y-67772000D01*
X129722360Y-67798171D01*
X129598426Y-67849506D01*
X129486888Y-67924033D01*
X129392033Y-68018888D01*
X129317506Y-68130426D01*
X129266171Y-68254360D01*
X129240000Y-68385927D01*
X129240000Y-68520073D01*
X129266171Y-68651640D01*
X129317506Y-68775574D01*
X129392033Y-68887112D01*
X129486888Y-68981967D01*
X129598426Y-69056494D01*
X129722360Y-69107829D01*
X129743476Y-69112029D01*
X129725426Y-69119506D01*
X129613888Y-69194033D01*
X129519033Y-69288888D01*
X129444506Y-69400426D01*
X129393171Y-69524360D01*
X129367000Y-69655927D01*
X129367000Y-69790073D01*
X129393171Y-69921640D01*
X129444506Y-70045574D01*
X129519033Y-70157112D01*
X129579614Y-70217693D01*
X129471426Y-70262506D01*
X129359888Y-70337033D01*
X129265033Y-70431888D01*
X129190506Y-70543426D01*
X129139171Y-70667360D01*
X129113000Y-70798927D01*
X129113000Y-70933073D01*
X129139171Y-71064640D01*
X129190506Y-71188574D01*
X129265033Y-71300112D01*
X129359888Y-71394967D01*
X129399504Y-71421438D01*
X129394058Y-71434586D01*
X129367887Y-71566153D01*
X129367887Y-71700299D01*
X129394058Y-71831866D01*
X129445393Y-71955800D01*
X129519920Y-72067338D01*
X129527254Y-72074672D01*
X129519033Y-72082892D01*
X129444506Y-72194430D01*
X129393171Y-72318364D01*
X129367000Y-72449931D01*
X129367000Y-72584077D01*
X129393171Y-72715644D01*
X129444506Y-72839578D01*
X129519033Y-72951116D01*
X129613888Y-73045971D01*
X129725426Y-73120498D01*
X129849360Y-73171833D01*
X129877346Y-73177400D01*
X128326065Y-73177400D01*
X127916055Y-72767391D01*
X127916055Y-72701817D01*
X127889884Y-72570250D01*
X127838549Y-72446316D01*
X127764022Y-72334778D01*
X127669167Y-72239923D01*
X127557629Y-72165396D01*
X127433695Y-72114061D01*
X127302128Y-72087890D01*
X127167982Y-72087890D01*
X127036415Y-72114061D01*
X126912481Y-72165396D01*
X126800943Y-72239923D01*
X126706088Y-72334778D01*
X126631561Y-72446316D01*
X126580226Y-72570250D01*
X126554055Y-72701817D01*
X126554055Y-72835963D01*
X126580226Y-72967530D01*
X126631561Y-73091464D01*
X126706088Y-73203002D01*
X126800943Y-73297857D01*
X126912481Y-73372384D01*
X127036415Y-73423719D01*
X127167982Y-73449890D01*
X127233556Y-73449890D01*
X127768151Y-73984486D01*
X127783264Y-74002901D01*
X127856750Y-74063209D01*
X127914565Y-74094112D01*
X127940588Y-74108022D01*
X128031558Y-74135617D01*
X128126165Y-74144935D01*
X128149872Y-74142600D01*
X129421747Y-74142600D01*
X129400000Y-74251927D01*
X129400000Y-74386073D01*
X129426171Y-74517640D01*
X129477506Y-74641574D01*
X129552033Y-74753112D01*
X129559165Y-74760244D01*
X129511262Y-74808146D01*
X129436735Y-74919684D01*
X129385400Y-75043618D01*
X129359229Y-75175185D01*
X129359229Y-75309331D01*
X129385400Y-75440898D01*
X129436735Y-75564832D01*
X129501084Y-75661138D01*
X129477506Y-75696426D01*
X129426171Y-75820360D01*
X129400000Y-75951927D01*
X129400000Y-76086073D01*
X129426171Y-76217640D01*
X129461791Y-76303635D01*
X129372623Y-76392803D01*
X129298096Y-76504341D01*
X129246761Y-76628275D01*
X129220590Y-76759842D01*
X129220590Y-76893988D01*
X129246761Y-77025555D01*
X129298096Y-77149489D01*
X129372623Y-77261027D01*
X129467478Y-77355882D01*
X129579016Y-77430409D01*
X129702950Y-77481744D01*
X129834517Y-77507915D01*
X129968663Y-77507915D01*
X130100230Y-77481744D01*
X130224164Y-77430409D01*
X130335702Y-77355882D01*
X130430557Y-77261027D01*
X130505084Y-77149489D01*
X130556419Y-77025555D01*
X130582590Y-76893988D01*
X130582590Y-76759842D01*
X130556419Y-76628275D01*
X130520799Y-76542280D01*
X130609967Y-76453112D01*
X130657568Y-76381872D01*
X130657568Y-82558059D01*
X130013010Y-81913501D01*
X130013010Y-81847927D01*
X129986839Y-81716360D01*
X129935504Y-81592426D01*
X129860977Y-81480888D01*
X129766122Y-81386033D01*
X129654584Y-81311506D01*
X129530650Y-81260171D01*
X129399083Y-81234000D01*
X129264937Y-81234000D01*
X129133370Y-81260171D01*
X129009436Y-81311506D01*
X128897898Y-81386033D01*
X128803043Y-81480888D01*
X128728516Y-81592426D01*
X128677181Y-81716360D01*
X128651010Y-81847927D01*
X128651010Y-81982073D01*
X128677181Y-82113640D01*
X128728516Y-82237574D01*
X128803043Y-82349112D01*
X128897898Y-82443967D01*
X129009436Y-82518494D01*
X129133370Y-82569829D01*
X129264937Y-82596000D01*
X129330511Y-82596000D01*
X130301957Y-83567446D01*
X130301957Y-84674904D01*
X130242073Y-84662992D01*
X130222903Y-84662992D01*
X130222903Y-84635374D01*
X130196732Y-84503807D01*
X130145397Y-84379873D01*
X130070870Y-84268335D01*
X129976015Y-84173480D01*
X129864477Y-84098953D01*
X129740543Y-84047618D01*
X129608976Y-84021447D01*
X129474830Y-84021447D01*
X129343263Y-84047618D01*
X129219329Y-84098953D01*
X129107791Y-84173480D01*
X129061424Y-84219847D01*
X126776280Y-84219847D01*
X126752573Y-84217512D01*
X126657966Y-84226830D01*
X126615473Y-84239720D01*
X126566996Y-84254425D01*
X126483158Y-84299238D01*
X126409672Y-84359546D01*
X126394561Y-84377959D01*
X125220521Y-85552000D01*
X125154947Y-85552000D01*
X125023380Y-85578171D01*
X124899446Y-85629506D01*
X124787908Y-85704033D01*
X124693053Y-85798888D01*
X124618526Y-85910426D01*
X124567191Y-86034360D01*
X124541020Y-86165927D01*
X124541020Y-86300073D01*
X124567191Y-86431640D01*
X124618526Y-86555574D01*
X124693053Y-86667112D01*
X124787908Y-86761967D01*
X124899446Y-86836494D01*
X125023380Y-86887829D01*
X125154947Y-86914000D01*
X125289093Y-86914000D01*
X125420660Y-86887829D01*
X125544594Y-86836494D01*
X125656132Y-86761967D01*
X125697867Y-86720233D01*
X125791311Y-86813677D01*
X125902849Y-86888204D01*
X126026783Y-86939539D01*
X126158350Y-86965710D01*
X126292496Y-86965710D01*
X126424063Y-86939539D01*
X126547997Y-86888204D01*
X126650044Y-86820019D01*
X126628579Y-86927927D01*
X126628579Y-87062073D01*
X126654750Y-87193640D01*
X126706085Y-87317574D01*
X126780612Y-87429112D01*
X126875467Y-87523967D01*
X126987005Y-87598494D01*
X127110939Y-87649829D01*
X127242506Y-87676000D01*
X127376652Y-87676000D01*
X127508219Y-87649829D01*
X127632153Y-87598494D01*
X127743691Y-87523967D01*
X127838546Y-87429112D01*
X127913073Y-87317574D01*
X127964408Y-87193640D01*
X127990579Y-87062073D01*
X127990579Y-86927927D01*
X127964408Y-86796360D01*
X127913073Y-86672426D01*
X127838546Y-86560888D01*
X127743691Y-86466033D01*
X127660822Y-86410662D01*
X127682590Y-86301230D01*
X127682590Y-86167084D01*
X127656419Y-86035517D01*
X127605084Y-85911583D01*
X127530557Y-85800045D01*
X127435702Y-85705190D01*
X127324164Y-85630663D01*
X127200230Y-85579328D01*
X127068663Y-85553157D01*
X126934517Y-85553157D01*
X126802950Y-85579328D01*
X126679016Y-85630663D01*
X126575677Y-85699711D01*
X126547997Y-85681216D01*
X126483160Y-85654360D01*
X126952473Y-85185047D01*
X128694289Y-85185047D01*
X128677181Y-85226350D01*
X128651010Y-85357917D01*
X128651010Y-85492063D01*
X128677181Y-85623630D01*
X128728516Y-85747564D01*
X128803043Y-85859102D01*
X128897898Y-85953957D01*
X129009436Y-86028484D01*
X129133370Y-86079819D01*
X129264937Y-86105990D01*
X129399083Y-86105990D01*
X129530650Y-86079819D01*
X129654584Y-86028484D01*
X129766122Y-85953957D01*
X129804570Y-85915509D01*
X129852426Y-85947486D01*
X129976360Y-85998821D01*
X130107927Y-86024992D01*
X130242073Y-86024992D01*
X130301957Y-86013080D01*
X130301956Y-89365584D01*
X130284494Y-89323426D01*
X130209967Y-89211888D01*
X130115112Y-89117033D01*
X130003574Y-89042506D01*
X129879640Y-88991171D01*
X129748073Y-88965000D01*
X129613927Y-88965000D01*
X129482360Y-88991171D01*
X129358426Y-89042506D01*
X129246888Y-89117033D01*
X129152033Y-89211888D01*
X129077506Y-89323426D01*
X129026171Y-89447360D01*
X129000000Y-89578927D01*
X129000000Y-89713073D01*
X129026171Y-89844640D01*
X129077506Y-89968574D01*
X129152033Y-90080112D01*
X129246888Y-90174967D01*
X129358426Y-90249494D01*
X129482360Y-90300829D01*
X129613927Y-90327000D01*
X129748073Y-90327000D01*
X129879640Y-90300829D01*
X130003574Y-90249494D01*
X130115112Y-90174967D01*
X130209967Y-90080112D01*
X130284494Y-89968574D01*
X130301956Y-89926417D01*
X130301956Y-90894298D01*
X130299621Y-90918003D01*
X130301956Y-90941708D01*
X130301956Y-90941709D01*
X130308939Y-91012608D01*
X130336534Y-91103579D01*
X130381347Y-91187418D01*
X130441655Y-91260904D01*
X130460074Y-91276020D01*
X132622434Y-93438380D01*
X130569879Y-93438380D01*
X123303185Y-86171686D01*
X123370112Y-86126967D01*
X123464967Y-86032112D01*
X123539494Y-85920574D01*
X123590829Y-85796640D01*
X123617000Y-85665073D01*
X123617000Y-85530927D01*
X123590829Y-85399360D01*
X123539494Y-85275426D01*
X123464967Y-85163888D01*
X123370112Y-85069033D01*
X123258574Y-84994506D01*
X123134640Y-84943171D01*
X123003073Y-84917000D01*
X122868927Y-84917000D01*
X122737360Y-84943171D01*
X122613426Y-84994506D01*
X122501888Y-85069033D01*
X122407033Y-85163888D01*
X122362314Y-85230815D01*
X122047044Y-84915545D01*
X122047044Y-77653485D01*
X122105426Y-77692494D01*
X122229360Y-77743829D01*
X122360927Y-77770000D01*
X122495073Y-77770000D01*
X122626640Y-77743829D01*
X122750574Y-77692494D01*
X122862112Y-77617967D01*
X122956967Y-77523112D01*
X123031494Y-77411574D01*
X123033323Y-77407158D01*
X125671246Y-77407158D01*
X125671246Y-77541304D01*
X125697417Y-77672871D01*
X125748752Y-77796805D01*
X125823279Y-77908343D01*
X125918134Y-78003198D01*
X126029672Y-78077725D01*
X126153606Y-78129060D01*
X126285173Y-78155231D01*
X126419319Y-78155231D01*
X126550886Y-78129060D01*
X126674820Y-78077725D01*
X126786358Y-78003198D01*
X126831746Y-77957810D01*
X126928360Y-77997829D01*
X127059927Y-78024000D01*
X127194073Y-78024000D01*
X127325640Y-77997829D01*
X127449574Y-77946494D01*
X127561112Y-77871967D01*
X127655967Y-77777112D01*
X127730494Y-77665574D01*
X127781829Y-77541640D01*
X127808000Y-77410073D01*
X127808000Y-77275927D01*
X127781829Y-77144360D01*
X127730494Y-77020426D01*
X127655967Y-76908888D01*
X127645574Y-76898495D01*
X127655967Y-76888102D01*
X127730494Y-76776564D01*
X127781829Y-76652630D01*
X127808000Y-76521063D01*
X127808000Y-76386917D01*
X127781829Y-76255350D01*
X127730494Y-76131416D01*
X127655967Y-76019878D01*
X127561112Y-75925023D01*
X127449574Y-75850496D01*
X127325640Y-75799161D01*
X127194073Y-75772990D01*
X127059927Y-75772990D01*
X126928360Y-75799161D01*
X126804426Y-75850496D01*
X126692888Y-75925023D01*
X126598033Y-76019878D01*
X126523506Y-76131416D01*
X126472171Y-76255350D01*
X126446000Y-76386917D01*
X126446000Y-76521063D01*
X126472171Y-76652630D01*
X126523506Y-76776564D01*
X126552605Y-76820114D01*
X126550886Y-76819402D01*
X126419319Y-76793231D01*
X126285173Y-76793231D01*
X126153606Y-76819402D01*
X126029672Y-76870737D01*
X125918134Y-76945264D01*
X125823279Y-77040119D01*
X125748752Y-77151657D01*
X125697417Y-77275591D01*
X125671246Y-77407158D01*
X123033323Y-77407158D01*
X123082829Y-77287640D01*
X123109000Y-77156073D01*
X123109000Y-77021927D01*
X123082829Y-76890360D01*
X123031494Y-76766426D01*
X122956967Y-76654888D01*
X122862112Y-76560033D01*
X122750574Y-76485506D01*
X122626640Y-76434171D01*
X122495073Y-76408000D01*
X122360927Y-76408000D01*
X122229360Y-76434171D01*
X122105426Y-76485506D01*
X122047044Y-76524515D01*
X122047044Y-74088455D01*
X129612899Y-66522600D01*
X138946089Y-66522600D01*
X139272998Y-66849510D01*
X139272998Y-66915083D01*
X139299169Y-67046650D01*
X139350504Y-67170584D01*
X139425031Y-67282122D01*
X139519886Y-67376977D01*
X139631424Y-67451504D01*
X139755358Y-67502839D01*
X139886925Y-67529010D01*
X140021071Y-67529010D01*
X140152638Y-67502839D01*
X140276572Y-67451504D01*
X140388110Y-67376977D01*
X140482965Y-67282122D01*
X140557492Y-67170584D01*
X140608827Y-67046650D01*
X140634998Y-66915083D01*
X140634998Y-66780937D01*
X140608827Y-66649370D01*
X140557492Y-66525436D01*
X140482965Y-66413898D01*
X140388110Y-66319043D01*
X140276572Y-66244516D01*
X140152638Y-66193181D01*
X140021071Y-66167010D01*
X139955498Y-66167010D01*
X139504005Y-65715518D01*
X139488889Y-65697099D01*
X139415403Y-65636791D01*
X139331565Y-65591978D01*
X139240594Y-65564383D01*
X139169695Y-65557400D01*
X139169693Y-65557400D01*
X139145988Y-65555065D01*
X139122283Y-65557400D01*
X136547099Y-65557400D01*
X138375900Y-63728600D01*
X140873000Y-63728600D01*
X140873000Y-70027500D01*
X140873000Y-70027500D01*
G37*
X140873000Y-70027500D02*
X140789888Y-70083033D01*
X140695033Y-70177888D01*
X140620506Y-70289426D01*
X140569171Y-70413360D01*
X140543000Y-70544927D01*
X140543000Y-70566000D01*
X140521933Y-70566000D01*
X140390366Y-70592171D01*
X140266432Y-70643506D01*
X140154894Y-70718033D01*
X140060039Y-70812888D01*
X139985512Y-70924426D01*
X139934177Y-71048360D01*
X139908006Y-71179927D01*
X139908006Y-71314073D01*
X139934177Y-71445640D01*
X139985512Y-71569574D01*
X140060039Y-71681112D01*
X140154894Y-71775967D01*
X140266432Y-71850494D01*
X140390366Y-71901829D01*
X140521933Y-71928000D01*
X140656079Y-71928000D01*
X140787646Y-71901829D01*
X140873000Y-71866474D01*
X140873000Y-72421817D01*
X140863967Y-72408298D01*
X140769112Y-72313443D01*
X140657574Y-72238916D01*
X140533640Y-72187581D01*
X140402073Y-72161410D01*
X140267927Y-72161410D01*
X140136360Y-72187581D01*
X140012426Y-72238916D01*
X139900888Y-72313443D01*
X139806033Y-72408298D01*
X139731506Y-72519836D01*
X139680171Y-72643770D01*
X139654000Y-72775337D01*
X139654000Y-72909483D01*
X139680171Y-73041050D01*
X139731506Y-73164984D01*
X139806033Y-73276522D01*
X139900888Y-73371377D01*
X140012426Y-73445904D01*
X140136360Y-73497239D01*
X140179334Y-73505787D01*
X140162000Y-73592927D01*
X140162000Y-73727073D01*
X140188171Y-73858640D01*
X140219804Y-73935008D01*
X140165888Y-73971033D01*
X140071033Y-74065888D01*
X139996506Y-74177426D01*
X139945171Y-74301360D01*
X139919000Y-74432927D01*
X139919000Y-74567073D01*
X139945171Y-74698640D01*
X139951471Y-74713849D01*
X139865888Y-74771033D01*
X139771033Y-74865888D01*
X139696506Y-74977426D01*
X139645171Y-75101360D01*
X139619000Y-75232927D01*
X139619000Y-75367073D01*
X139645171Y-75498640D01*
X139696506Y-75622574D01*
X139771033Y-75734112D01*
X139865888Y-75828967D01*
X139977426Y-75903494D01*
X140101360Y-75954829D01*
X140232927Y-75981000D01*
X140367073Y-75981000D01*
X140498640Y-75954829D01*
X140622574Y-75903494D01*
X140734112Y-75828967D01*
X140828967Y-75734112D01*
X140873000Y-75668212D01*
X140873000Y-76025858D01*
X137640907Y-79257952D01*
X137593033Y-79277782D01*
X137481495Y-79352309D01*
X137386640Y-79447164D01*
X137312113Y-79558702D01*
X137260778Y-79682636D01*
X137234607Y-79814203D01*
X137234607Y-79948349D01*
X137260778Y-80079916D01*
X137312113Y-80203850D01*
X137386640Y-80315388D01*
X137481495Y-80410243D01*
X137593033Y-80484770D01*
X137641176Y-80504711D01*
X137641176Y-80617033D01*
X137667347Y-80748600D01*
X137718682Y-80872534D01*
X137793209Y-80984072D01*
X137839137Y-81030000D01*
X135170035Y-81030000D01*
X134989140Y-80849105D01*
X134955149Y-80821209D01*
X133985000Y-79851061D01*
X133985000Y-72115167D01*
X134120900Y-72115167D01*
X134120900Y-72249313D01*
X134147071Y-72380880D01*
X134198406Y-72504814D01*
X134272933Y-72616352D01*
X134342571Y-72685990D01*
X134328736Y-72719390D01*
X134302565Y-72850957D01*
X134302565Y-72985103D01*
X134328736Y-73116670D01*
X134380071Y-73240604D01*
X134454598Y-73352142D01*
X134549453Y-73446997D01*
X134660991Y-73521524D01*
X134715579Y-73544135D01*
X134646888Y-73590033D01*
X134552033Y-73684888D01*
X134477506Y-73796426D01*
X134426171Y-73920360D01*
X134400000Y-74051927D01*
X134400000Y-74186073D01*
X134426171Y-74317640D01*
X134477506Y-74441574D01*
X134484652Y-74452269D01*
X134452033Y-74484888D01*
X134377506Y-74596426D01*
X134326171Y-74720360D01*
X134300000Y-74851927D01*
X134300000Y-74986073D01*
X134326171Y-75117640D01*
X134377506Y-75241574D01*
X134429240Y-75319000D01*
X134377506Y-75396426D01*
X134326171Y-75520360D01*
X134300000Y-75651927D01*
X134300000Y-75786073D01*
X134326171Y-75917640D01*
X134377506Y-76041574D01*
X134452033Y-76153112D01*
X134546888Y-76247967D01*
X134658426Y-76322494D01*
X134666972Y-76326034D01*
X134662029Y-76327017D01*
X134538095Y-76378352D01*
X134426557Y-76452879D01*
X134331702Y-76547734D01*
X134257175Y-76659272D01*
X134205840Y-76783206D01*
X134179669Y-76914773D01*
X134179669Y-77048919D01*
X134205840Y-77180486D01*
X134257175Y-77304420D01*
X134304568Y-77375350D01*
X134263335Y-77437060D01*
X134212000Y-77560994D01*
X134185829Y-77692561D01*
X134185829Y-77826707D01*
X134212000Y-77958274D01*
X134263335Y-78082208D01*
X134318950Y-78165443D01*
X134286146Y-78214538D01*
X134234811Y-78338472D01*
X134208640Y-78470039D01*
X134208640Y-78604185D01*
X134234811Y-78735752D01*
X134286146Y-78859686D01*
X134360673Y-78971224D01*
X134455528Y-79066079D01*
X134567066Y-79140606D01*
X134691000Y-79191941D01*
X134822567Y-79218112D01*
X134956713Y-79218112D01*
X135088280Y-79191941D01*
X135212214Y-79140606D01*
X135323752Y-79066079D01*
X135418607Y-78971224D01*
X135493134Y-78859686D01*
X135544469Y-78735752D01*
X135570640Y-78604185D01*
X135570640Y-78470039D01*
X135544469Y-78338472D01*
X135493134Y-78214538D01*
X135437519Y-78131303D01*
X135470323Y-78082208D01*
X135521658Y-77958274D01*
X135547829Y-77826707D01*
X135547829Y-77692561D01*
X135521658Y-77560994D01*
X135470323Y-77437060D01*
X135422930Y-77366130D01*
X135464163Y-77304420D01*
X135515498Y-77180486D01*
X135541669Y-77048919D01*
X135541669Y-76914773D01*
X135515498Y-76783206D01*
X135464163Y-76659272D01*
X135389636Y-76547734D01*
X135294781Y-76452879D01*
X135183243Y-76378352D01*
X135174697Y-76374812D01*
X135179640Y-76373829D01*
X135303574Y-76322494D01*
X135415112Y-76247967D01*
X135509967Y-76153112D01*
X135584494Y-76041574D01*
X135635829Y-75917640D01*
X135662000Y-75786073D01*
X135662000Y-75651927D01*
X135635829Y-75520360D01*
X135584494Y-75396426D01*
X135532760Y-75319000D01*
X135584494Y-75241574D01*
X135635829Y-75117640D01*
X135662000Y-74986073D01*
X135662000Y-74851927D01*
X135635829Y-74720360D01*
X135584494Y-74596426D01*
X135577348Y-74585731D01*
X135609967Y-74553112D01*
X135684494Y-74441574D01*
X135735829Y-74317640D01*
X135762000Y-74186073D01*
X135762000Y-74051927D01*
X135735829Y-73920360D01*
X135684494Y-73796426D01*
X135609967Y-73684888D01*
X135515112Y-73590033D01*
X135403574Y-73515506D01*
X135348986Y-73492895D01*
X135417677Y-73446997D01*
X135512532Y-73352142D01*
X135587059Y-73240604D01*
X135638394Y-73116670D01*
X135664565Y-72985103D01*
X135664565Y-72850957D01*
X135638394Y-72719390D01*
X135587059Y-72595456D01*
X135512532Y-72483918D01*
X135442894Y-72414280D01*
X135456729Y-72380880D01*
X135482900Y-72249313D01*
X135482900Y-72115167D01*
X135456729Y-71983600D01*
X135405394Y-71859666D01*
X135390688Y-71837657D01*
X135463188Y-71729152D01*
X135514523Y-71605218D01*
X135540694Y-71473651D01*
X135540694Y-71339505D01*
X135514523Y-71207938D01*
X135495481Y-71161967D01*
X135572526Y-71084922D01*
X135647053Y-70973384D01*
X135698388Y-70849450D01*
X135724559Y-70717883D01*
X135724559Y-70583737D01*
X135698388Y-70452170D01*
X135647053Y-70328236D01*
X135572526Y-70216698D01*
X135477671Y-70121843D01*
X135366133Y-70047316D01*
X135242199Y-69995981D01*
X135110632Y-69969810D01*
X134976486Y-69969810D01*
X134844919Y-69995981D01*
X134720985Y-70047316D01*
X134609447Y-70121843D01*
X134514592Y-70216698D01*
X134440065Y-70328236D01*
X134388730Y-70452170D01*
X134362559Y-70583737D01*
X134362559Y-70717883D01*
X134388730Y-70849450D01*
X134407772Y-70895421D01*
X134330727Y-70972466D01*
X134256200Y-71084004D01*
X134204865Y-71207938D01*
X134178694Y-71339505D01*
X134178694Y-71473651D01*
X134204865Y-71605218D01*
X134256200Y-71729152D01*
X134270906Y-71751161D01*
X134198406Y-71859666D01*
X134147071Y-71983600D01*
X134120900Y-72115167D01*
X133985000Y-72115167D01*
X133985000Y-69583235D01*
X134167809Y-69400426D01*
X134822295Y-68745941D01*
X134905552Y-68644492D01*
X134988102Y-68490053D01*
X135038936Y-68322475D01*
X135056100Y-68148200D01*
X135038936Y-67973925D01*
X134988102Y-67806348D01*
X134905552Y-67651909D01*
X134794459Y-67516541D01*
X134659091Y-67405448D01*
X134504652Y-67322898D01*
X134337075Y-67272064D01*
X134162800Y-67254900D01*
X133988525Y-67272064D01*
X133820947Y-67322898D01*
X133666508Y-67405448D01*
X133565059Y-67488705D01*
X132690505Y-68363260D01*
X132498265Y-68555500D01*
X132464341Y-68583341D01*
X132353247Y-68718710D01*
X132270697Y-68873150D01*
X132244048Y-68961001D01*
X132238034Y-68980829D01*
X132219864Y-69040727D01*
X132207000Y-69171334D01*
X132207000Y-69171340D01*
X132202700Y-69215000D01*
X132207000Y-69258660D01*
X132207000Y-73104501D01*
X130729887Y-71627388D01*
X130729887Y-71566153D01*
X130703716Y-71434586D01*
X130652381Y-71310652D01*
X130577854Y-71199114D01*
X130482999Y-71104259D01*
X130443383Y-71077788D01*
X130448829Y-71064640D01*
X130475000Y-70933073D01*
X130475000Y-70798927D01*
X130448829Y-70667360D01*
X130397494Y-70543426D01*
X130322967Y-70431888D01*
X130262386Y-70371307D01*
X130370574Y-70326494D01*
X130482112Y-70251967D01*
X130576967Y-70157112D01*
X130651494Y-70045574D01*
X130702829Y-69921640D01*
X130729000Y-69790073D01*
X130729000Y-69655927D01*
X130702829Y-69524360D01*
X130651494Y-69400426D01*
X130576967Y-69288888D01*
X130482112Y-69194033D01*
X130370574Y-69119506D01*
X130246640Y-69068171D01*
X130225524Y-69063971D01*
X130243574Y-69056494D01*
X130355112Y-68981967D01*
X130449967Y-68887112D01*
X130524494Y-68775574D01*
X130575829Y-68651640D01*
X130602000Y-68520073D01*
X130602000Y-68385927D01*
X130575829Y-68254360D01*
X130524494Y-68130426D01*
X130449967Y-68018888D01*
X130355112Y-67924033D01*
X130243574Y-67849506D01*
X130119640Y-67798171D01*
X129988073Y-67772000D01*
X129853927Y-67772000D01*
X129722360Y-67798171D01*
X129598426Y-67849506D01*
X129486888Y-67924033D01*
X129392033Y-68018888D01*
X129317506Y-68130426D01*
X129266171Y-68254360D01*
X129240000Y-68385927D01*
X129240000Y-68520073D01*
X129266171Y-68651640D01*
X129317506Y-68775574D01*
X129392033Y-68887112D01*
X129486888Y-68981967D01*
X129598426Y-69056494D01*
X129722360Y-69107829D01*
X129743476Y-69112029D01*
X129725426Y-69119506D01*
X129613888Y-69194033D01*
X129519033Y-69288888D01*
X129444506Y-69400426D01*
X129393171Y-69524360D01*
X129367000Y-69655927D01*
X129367000Y-69790073D01*
X129393171Y-69921640D01*
X129444506Y-70045574D01*
X129519033Y-70157112D01*
X129579614Y-70217693D01*
X129471426Y-70262506D01*
X129359888Y-70337033D01*
X129265033Y-70431888D01*
X129190506Y-70543426D01*
X129139171Y-70667360D01*
X129113000Y-70798927D01*
X129113000Y-70933073D01*
X129139171Y-71064640D01*
X129190506Y-71188574D01*
X129265033Y-71300112D01*
X129359888Y-71394967D01*
X129399504Y-71421438D01*
X129394058Y-71434586D01*
X129367887Y-71566153D01*
X129367887Y-71700299D01*
X129394058Y-71831866D01*
X129445393Y-71955800D01*
X129519920Y-72067338D01*
X129527254Y-72074672D01*
X129519033Y-72082892D01*
X129444506Y-72194430D01*
X129393171Y-72318364D01*
X129367000Y-72449931D01*
X129367000Y-72584077D01*
X129393171Y-72715644D01*
X129444506Y-72839578D01*
X129519033Y-72951116D01*
X129613888Y-73045971D01*
X129725426Y-73120498D01*
X129849360Y-73171833D01*
X129877346Y-73177400D01*
X128326065Y-73177400D01*
X127916055Y-72767391D01*
X127916055Y-72701817D01*
X127889884Y-72570250D01*
X127838549Y-72446316D01*
X127764022Y-72334778D01*
X127669167Y-72239923D01*
X127557629Y-72165396D01*
X127433695Y-72114061D01*
X127302128Y-72087890D01*
X127167982Y-72087890D01*
X127036415Y-72114061D01*
X126912481Y-72165396D01*
X126800943Y-72239923D01*
X126706088Y-72334778D01*
X126631561Y-72446316D01*
X126580226Y-72570250D01*
X126554055Y-72701817D01*
X126554055Y-72835963D01*
X126580226Y-72967530D01*
X126631561Y-73091464D01*
X126706088Y-73203002D01*
X126800943Y-73297857D01*
X126912481Y-73372384D01*
X127036415Y-73423719D01*
X127167982Y-73449890D01*
X127233556Y-73449890D01*
X127768151Y-73984486D01*
X127783264Y-74002901D01*
X127856750Y-74063209D01*
X127914565Y-74094112D01*
X127940588Y-74108022D01*
X128031558Y-74135617D01*
X128126165Y-74144935D01*
X128149872Y-74142600D01*
X129421747Y-74142600D01*
X129400000Y-74251927D01*
X129400000Y-74386073D01*
X129426171Y-74517640D01*
X129477506Y-74641574D01*
X129552033Y-74753112D01*
X129559165Y-74760244D01*
X129511262Y-74808146D01*
X129436735Y-74919684D01*
X129385400Y-75043618D01*
X129359229Y-75175185D01*
X129359229Y-75309331D01*
X129385400Y-75440898D01*
X129436735Y-75564832D01*
X129501084Y-75661138D01*
X129477506Y-75696426D01*
X129426171Y-75820360D01*
X129400000Y-75951927D01*
X129400000Y-76086073D01*
X129426171Y-76217640D01*
X129461791Y-76303635D01*
X129372623Y-76392803D01*
X129298096Y-76504341D01*
X129246761Y-76628275D01*
X129220590Y-76759842D01*
X129220590Y-76893988D01*
X129246761Y-77025555D01*
X129298096Y-77149489D01*
X129372623Y-77261027D01*
X129467478Y-77355882D01*
X129579016Y-77430409D01*
X129702950Y-77481744D01*
X129834517Y-77507915D01*
X129968663Y-77507915D01*
X130100230Y-77481744D01*
X130224164Y-77430409D01*
X130335702Y-77355882D01*
X130430557Y-77261027D01*
X130505084Y-77149489D01*
X130556419Y-77025555D01*
X130582590Y-76893988D01*
X130582590Y-76759842D01*
X130556419Y-76628275D01*
X130520799Y-76542280D01*
X130609967Y-76453112D01*
X130657568Y-76381872D01*
X130657568Y-82558059D01*
X130013010Y-81913501D01*
X130013010Y-81847927D01*
X129986839Y-81716360D01*
X129935504Y-81592426D01*
X129860977Y-81480888D01*
X129766122Y-81386033D01*
X129654584Y-81311506D01*
X129530650Y-81260171D01*
X129399083Y-81234000D01*
X129264937Y-81234000D01*
X129133370Y-81260171D01*
X129009436Y-81311506D01*
X128897898Y-81386033D01*
X128803043Y-81480888D01*
X128728516Y-81592426D01*
X128677181Y-81716360D01*
X128651010Y-81847927D01*
X128651010Y-81982073D01*
X128677181Y-82113640D01*
X128728516Y-82237574D01*
X128803043Y-82349112D01*
X128897898Y-82443967D01*
X129009436Y-82518494D01*
X129133370Y-82569829D01*
X129264937Y-82596000D01*
X129330511Y-82596000D01*
X130301957Y-83567446D01*
X130301957Y-84674904D01*
X130242073Y-84662992D01*
X130222903Y-84662992D01*
X130222903Y-84635374D01*
X130196732Y-84503807D01*
X130145397Y-84379873D01*
X130070870Y-84268335D01*
X129976015Y-84173480D01*
X129864477Y-84098953D01*
X129740543Y-84047618D01*
X129608976Y-84021447D01*
X129474830Y-84021447D01*
X129343263Y-84047618D01*
X129219329Y-84098953D01*
X129107791Y-84173480D01*
X129061424Y-84219847D01*
X126776280Y-84219847D01*
X126752573Y-84217512D01*
X126657966Y-84226830D01*
X126615473Y-84239720D01*
X126566996Y-84254425D01*
X126483158Y-84299238D01*
X126409672Y-84359546D01*
X126394561Y-84377959D01*
X125220521Y-85552000D01*
X125154947Y-85552000D01*
X125023380Y-85578171D01*
X124899446Y-85629506D01*
X124787908Y-85704033D01*
X124693053Y-85798888D01*
X124618526Y-85910426D01*
X124567191Y-86034360D01*
X124541020Y-86165927D01*
X124541020Y-86300073D01*
X124567191Y-86431640D01*
X124618526Y-86555574D01*
X124693053Y-86667112D01*
X124787908Y-86761967D01*
X124899446Y-86836494D01*
X125023380Y-86887829D01*
X125154947Y-86914000D01*
X125289093Y-86914000D01*
X125420660Y-86887829D01*
X125544594Y-86836494D01*
X125656132Y-86761967D01*
X125697867Y-86720233D01*
X125791311Y-86813677D01*
X125902849Y-86888204D01*
X126026783Y-86939539D01*
X126158350Y-86965710D01*
X126292496Y-86965710D01*
X126424063Y-86939539D01*
X126547997Y-86888204D01*
X126650044Y-86820019D01*
X126628579Y-86927927D01*
X126628579Y-87062073D01*
X126654750Y-87193640D01*
X126706085Y-87317574D01*
X126780612Y-87429112D01*
X126875467Y-87523967D01*
X126987005Y-87598494D01*
X127110939Y-87649829D01*
X127242506Y-87676000D01*
X127376652Y-87676000D01*
X127508219Y-87649829D01*
X127632153Y-87598494D01*
X127743691Y-87523967D01*
X127838546Y-87429112D01*
X127913073Y-87317574D01*
X127964408Y-87193640D01*
X127990579Y-87062073D01*
X127990579Y-86927927D01*
X127964408Y-86796360D01*
X127913073Y-86672426D01*
X127838546Y-86560888D01*
X127743691Y-86466033D01*
X127660822Y-86410662D01*
X127682590Y-86301230D01*
X127682590Y-86167084D01*
X127656419Y-86035517D01*
X127605084Y-85911583D01*
X127530557Y-85800045D01*
X127435702Y-85705190D01*
X127324164Y-85630663D01*
X127200230Y-85579328D01*
X127068663Y-85553157D01*
X126934517Y-85553157D01*
X126802950Y-85579328D01*
X126679016Y-85630663D01*
X126575677Y-85699711D01*
X126547997Y-85681216D01*
X126483160Y-85654360D01*
X126952473Y-85185047D01*
X128694289Y-85185047D01*
X128677181Y-85226350D01*
X128651010Y-85357917D01*
X128651010Y-85492063D01*
X128677181Y-85623630D01*
X128728516Y-85747564D01*
X128803043Y-85859102D01*
X128897898Y-85953957D01*
X129009436Y-86028484D01*
X129133370Y-86079819D01*
X129264937Y-86105990D01*
X129399083Y-86105990D01*
X129530650Y-86079819D01*
X129654584Y-86028484D01*
X129766122Y-85953957D01*
X129804570Y-85915509D01*
X129852426Y-85947486D01*
X129976360Y-85998821D01*
X130107927Y-86024992D01*
X130242073Y-86024992D01*
X130301957Y-86013080D01*
X130301956Y-89365584D01*
X130284494Y-89323426D01*
X130209967Y-89211888D01*
X130115112Y-89117033D01*
X130003574Y-89042506D01*
X129879640Y-88991171D01*
X129748073Y-88965000D01*
X129613927Y-88965000D01*
X129482360Y-88991171D01*
X129358426Y-89042506D01*
X129246888Y-89117033D01*
X129152033Y-89211888D01*
X129077506Y-89323426D01*
X129026171Y-89447360D01*
X129000000Y-89578927D01*
X129000000Y-89713073D01*
X129026171Y-89844640D01*
X129077506Y-89968574D01*
X129152033Y-90080112D01*
X129246888Y-90174967D01*
X129358426Y-90249494D01*
X129482360Y-90300829D01*
X129613927Y-90327000D01*
X129748073Y-90327000D01*
X129879640Y-90300829D01*
X130003574Y-90249494D01*
X130115112Y-90174967D01*
X130209967Y-90080112D01*
X130284494Y-89968574D01*
X130301956Y-89926417D01*
X130301956Y-90894298D01*
X130299621Y-90918003D01*
X130301956Y-90941708D01*
X130301956Y-90941709D01*
X130308939Y-91012608D01*
X130336534Y-91103579D01*
X130381347Y-91187418D01*
X130441655Y-91260904D01*
X130460074Y-91276020D01*
X132622434Y-93438380D01*
X130569879Y-93438380D01*
X123303185Y-86171686D01*
X123370112Y-86126967D01*
X123464967Y-86032112D01*
X123539494Y-85920574D01*
X123590829Y-85796640D01*
X123617000Y-85665073D01*
X123617000Y-85530927D01*
X123590829Y-85399360D01*
X123539494Y-85275426D01*
X123464967Y-85163888D01*
X123370112Y-85069033D01*
X123258574Y-84994506D01*
X123134640Y-84943171D01*
X123003073Y-84917000D01*
X122868927Y-84917000D01*
X122737360Y-84943171D01*
X122613426Y-84994506D01*
X122501888Y-85069033D01*
X122407033Y-85163888D01*
X122362314Y-85230815D01*
X122047044Y-84915545D01*
X122047044Y-77653485D01*
X122105426Y-77692494D01*
X122229360Y-77743829D01*
X122360927Y-77770000D01*
X122495073Y-77770000D01*
X122626640Y-77743829D01*
X122750574Y-77692494D01*
X122862112Y-77617967D01*
X122956967Y-77523112D01*
X123031494Y-77411574D01*
X123033323Y-77407158D01*
X125671246Y-77407158D01*
X125671246Y-77541304D01*
X125697417Y-77672871D01*
X125748752Y-77796805D01*
X125823279Y-77908343D01*
X125918134Y-78003198D01*
X126029672Y-78077725D01*
X126153606Y-78129060D01*
X126285173Y-78155231D01*
X126419319Y-78155231D01*
X126550886Y-78129060D01*
X126674820Y-78077725D01*
X126786358Y-78003198D01*
X126831746Y-77957810D01*
X126928360Y-77997829D01*
X127059927Y-78024000D01*
X127194073Y-78024000D01*
X127325640Y-77997829D01*
X127449574Y-77946494D01*
X127561112Y-77871967D01*
X127655967Y-77777112D01*
X127730494Y-77665574D01*
X127781829Y-77541640D01*
X127808000Y-77410073D01*
X127808000Y-77275927D01*
X127781829Y-77144360D01*
X127730494Y-77020426D01*
X127655967Y-76908888D01*
X127645574Y-76898495D01*
X127655967Y-76888102D01*
X127730494Y-76776564D01*
X127781829Y-76652630D01*
X127808000Y-76521063D01*
X127808000Y-76386917D01*
X127781829Y-76255350D01*
X127730494Y-76131416D01*
X127655967Y-76019878D01*
X127561112Y-75925023D01*
X127449574Y-75850496D01*
X127325640Y-75799161D01*
X127194073Y-75772990D01*
X127059927Y-75772990D01*
X126928360Y-75799161D01*
X126804426Y-75850496D01*
X126692888Y-75925023D01*
X126598033Y-76019878D01*
X126523506Y-76131416D01*
X126472171Y-76255350D01*
X126446000Y-76386917D01*
X126446000Y-76521063D01*
X126472171Y-76652630D01*
X126523506Y-76776564D01*
X126552605Y-76820114D01*
X126550886Y-76819402D01*
X126419319Y-76793231D01*
X126285173Y-76793231D01*
X126153606Y-76819402D01*
X126029672Y-76870737D01*
X125918134Y-76945264D01*
X125823279Y-77040119D01*
X125748752Y-77151657D01*
X125697417Y-77275591D01*
X125671246Y-77407158D01*
X123033323Y-77407158D01*
X123082829Y-77287640D01*
X123109000Y-77156073D01*
X123109000Y-77021927D01*
X123082829Y-76890360D01*
X123031494Y-76766426D01*
X122956967Y-76654888D01*
X122862112Y-76560033D01*
X122750574Y-76485506D01*
X122626640Y-76434171D01*
X122495073Y-76408000D01*
X122360927Y-76408000D01*
X122229360Y-76434171D01*
X122105426Y-76485506D01*
X122047044Y-76524515D01*
X122047044Y-74088455D01*
X129612899Y-66522600D01*
X138946089Y-66522600D01*
X139272998Y-66849510D01*
X139272998Y-66915083D01*
X139299169Y-67046650D01*
X139350504Y-67170584D01*
X139425031Y-67282122D01*
X139519886Y-67376977D01*
X139631424Y-67451504D01*
X139755358Y-67502839D01*
X139886925Y-67529010D01*
X140021071Y-67529010D01*
X140152638Y-67502839D01*
X140276572Y-67451504D01*
X140388110Y-67376977D01*
X140482965Y-67282122D01*
X140557492Y-67170584D01*
X140608827Y-67046650D01*
X140634998Y-66915083D01*
X140634998Y-66780937D01*
X140608827Y-66649370D01*
X140557492Y-66525436D01*
X140482965Y-66413898D01*
X140388110Y-66319043D01*
X140276572Y-66244516D01*
X140152638Y-66193181D01*
X140021071Y-66167010D01*
X139955498Y-66167010D01*
X139504005Y-65715518D01*
X139488889Y-65697099D01*
X139415403Y-65636791D01*
X139331565Y-65591978D01*
X139240594Y-65564383D01*
X139169695Y-65557400D01*
X139169693Y-65557400D01*
X139145988Y-65555065D01*
X139122283Y-65557400D01*
X136547099Y-65557400D01*
X138375900Y-63728600D01*
X140873000Y-63728600D01*
X140873000Y-70027500D01*
G36*
X120015012Y-68373512D02*
G01*
X120015012Y-71072513D01*
X119419537Y-70477038D01*
X119404421Y-70458619D01*
X119330935Y-70398311D01*
X119247097Y-70353498D01*
X119156126Y-70325903D01*
X119087038Y-70319098D01*
X119052340Y-70254182D01*
X118929820Y-70104890D01*
X118780528Y-69982370D01*
X118712288Y-69945895D01*
X118776446Y-69922283D01*
X118984954Y-69794735D01*
X119164572Y-69628960D01*
X119308398Y-69431328D01*
X119410904Y-69209435D01*
X119426095Y-69117521D01*
X119301357Y-68927000D01*
X118110000Y-68927000D01*
X118110000Y-68947000D01*
X117856000Y-68947000D01*
X117856000Y-68927000D01*
X117836000Y-68927000D01*
X117836000Y-68673000D01*
X117856000Y-68673000D01*
X117856000Y-68653000D01*
X118110000Y-68653000D01*
X118110000Y-68673000D01*
X119301357Y-68673000D01*
X119426095Y-68482479D01*
X119410904Y-68390565D01*
X119308398Y-68168672D01*
X119164572Y-67971040D01*
X118984954Y-67805265D01*
X118776446Y-67677717D01*
X118715102Y-67655141D01*
X118780528Y-67620170D01*
X118929820Y-67497650D01*
X119024176Y-67382676D01*
X120015012Y-68373512D01*
X120015012Y-68373512D01*
G37*
X120015012Y-68373512D02*
X120015012Y-71072513D01*
X119419537Y-70477038D01*
X119404421Y-70458619D01*
X119330935Y-70398311D01*
X119247097Y-70353498D01*
X119156126Y-70325903D01*
X119087038Y-70319098D01*
X119052340Y-70254182D01*
X118929820Y-70104890D01*
X118780528Y-69982370D01*
X118712288Y-69945895D01*
X118776446Y-69922283D01*
X118984954Y-69794735D01*
X119164572Y-69628960D01*
X119308398Y-69431328D01*
X119410904Y-69209435D01*
X119426095Y-69117521D01*
X119301357Y-68927000D01*
X118110000Y-68927000D01*
X118110000Y-68947000D01*
X117856000Y-68947000D01*
X117856000Y-68927000D01*
X117836000Y-68927000D01*
X117836000Y-68673000D01*
X117856000Y-68673000D01*
X117856000Y-68653000D01*
X118110000Y-68653000D01*
X118110000Y-68673000D01*
X119301357Y-68673000D01*
X119426095Y-68482479D01*
X119410904Y-68390565D01*
X119308398Y-68168672D01*
X119164572Y-67971040D01*
X118984954Y-67805265D01*
X118776446Y-67677717D01*
X118715102Y-67655141D01*
X118780528Y-67620170D01*
X118929820Y-67497650D01*
X119024176Y-67382676D01*
X120015012Y-68373512D01*
M02*
