M48
;DRILL file {KiCad 4.0.7} date 2018 May 14, Monday 12:58:16
;FORMAT={-:-/ absolute / inch / decimal}
FMAT,2
INCH,TZ
T1C0.012
T2C0.020
T3C0.028
T4C0.047
%
G90
G05
M72
T1
X4.675Y-4.225
X4.6982Y-3.075
X4.6982Y-3.365
X4.715Y-4.045
X4.7982Y-2.69
X4.8008Y-3.904
X4.805Y-2.29
X4.805Y-2.65
X4.81Y-2.81
X4.81Y-2.84
X4.8272Y-3.5088
X4.8286Y-2.565
X4.83Y-3.34
X4.8364Y-3.5391
X4.837Y-3.5722
X4.8376Y-3.6029
X4.84Y-2.985
X4.84Y-3.05
X4.84Y-3.635
X4.865Y-4.1098
X4.87Y-3.8968
X4.875Y-3.71
X4.88Y-3.34
X4.885Y-3.405
X4.888Y-3.6536
X4.89Y-3.07
X4.89Y-4.15
X4.91Y-3.72
X4.915Y-3.8968
X4.9169Y-3.7753
X4.92Y-4.125
X4.935Y-2.525
X4.94Y-2.375
X4.9546Y-4.1032
X4.965Y-2.375
X4.9695Y-3.397
X4.9745Y-3.0502
X4.99Y-2.375
X5.0001Y-3.395
X5.005Y-3.01
X5.005Y-3.045
X5.005Y-3.31
X5.0091Y-2.73
X5.0093Y-2.8649
X5.0122Y-3.425
X5.02Y-3.505
X5.0329Y-2.3852
X5.035Y-4.185
X5.045Y-3.7
X5.055Y-3.93
X5.0647Y-3.8229
X5.09Y-3.796
X5.09Y-3.74
X5.0908Y-3.9301
X5.0918Y-3.225
X5.0918Y-3.3632
X5.1001Y-3.3347
X5.1022Y-3.48
X5.105Y-4.2848
X5.1056Y-3.5294
X5.11Y-2.79
X5.11Y-4.37
X5.1142Y-3.0247
X5.115Y-2.695
X5.1197Y-2.9623
X5.12Y-2.745
X5.12Y-2.855
X5.12Y-2.8202
X5.1213Y-2.9259
X5.1213Y-2.9929
X5.125Y-3.36
X5.125Y-3.93
X5.125Y-4.31
X5.133Y-4.1928
X5.1456Y-3.749
X5.155Y-2.415
X5.155Y-2.44
X5.155Y-2.565
X5.155Y-4.405
X5.155Y-2.535
X5.1598Y-3.9307
X5.16Y-2.745
X5.16Y-2.77
X5.165Y-4.1552
X5.165Y-4.2248
X5.17Y-4.0918
X5.1746Y-3.8046
X5.185Y-2.745
X5.185Y-2.77
X5.185Y-2.38
X5.1947Y-4.0097
X5.195Y-3.93
X5.1998Y-4.19
X5.2003Y-3.8212
X5.22Y-4.48
X5.225Y-3.93
X5.2278Y-3.7195
X5.23Y-4.01
X5.2351Y-2.2082
X5.2525Y-3.3725
X5.255Y-3.765
X5.2574Y-3.7202
X5.26Y-2.63
X5.265Y-2.7
X5.269Y-3.4938
X5.2691Y-3.1873
X5.282Y-2.683
X5.285Y-2.6299
X5.29Y-3.13
X5.29Y-3.765
X5.291Y-3.209
X5.2922Y-3.5405
X5.305Y-3.145
X5.3072Y-2.8418
X5.3094Y-2.8113
X5.3095Y-3.0308
X5.3097Y-3.0614
X5.31Y-2.6299
X5.31Y-3.315
X5.3106Y-3.092
X5.3142Y-2.9496
X5.3142Y-2.9811
X5.3143Y-2.8708
X5.316Y-4.452
X5.3167Y-2.7815
X5.3178Y-3.5144
X5.3181Y-2.9181
X5.32Y-3.16
X5.325Y-3.7824
X5.3293Y-3.5779
X5.335Y-3.645
X5.335Y-4.47
X5.34Y-4.23
X5.3418Y-3.6097
X5.355Y-2.51
X5.355Y-4.49
X5.355Y-2.475
X5.36Y-3.855
X5.361Y-4.058
X5.37Y-3.9
X5.3709Y-3.6039
X5.41Y-4.31
X5.415Y-3.985
X5.42Y-4.49
X5.4207Y-4.1212
X5.4297Y-3.1449
X5.44Y-4.435
X5.4458Y-3.1713
X5.45Y-3.425
X5.452Y-4.312
X5.455Y-3.945
X5.4596Y-3.821
X5.4609Y-3.8601
X5.47Y-3.7085
X5.47Y-3.665
X5.47Y-3.77
X5.47Y-4.33
X5.47Y-3.5994
X5.4706Y-3.7391
X5.471Y-3.634
X5.475Y-3.895
X5.49Y-4.35
X5.5Y-3.56
X5.51Y-2.63
X5.515Y-2.965
X5.52Y-2.93
X5.525Y-3.145
X5.525Y-2.865
X5.535Y-2.805
X5.545Y-2.9
X5.56Y-2.78
X5.595Y-3.14
X5.62Y-3.14
X5.63Y-2.81
X5.63Y-2.8345
X5.63Y-2.859
X5.635Y-2.205
X5.635Y-2.23
X5.635Y-2.255
X5.635Y-2.28
X5.635Y-2.305
X5.635Y-2.33
X5.645Y-3.115
X5.645Y-3.14
X5.65Y-2.665
X5.65Y-3.0292
X5.6545Y-2.81
X5.6545Y-2.8345
X5.6545Y-2.859
X5.6545Y-2.8835
X5.66Y-2.205
X5.66Y-2.23
X5.66Y-2.255
X5.66Y-2.28
X5.66Y-2.305
X5.66Y-2.33
X5.67Y-3.115
X5.67Y-3.14
X5.679Y-2.8345
X5.679Y-2.859
X5.679Y-2.8835
X5.68Y-2.81
X5.685Y-2.205
X5.685Y-2.23
X5.685Y-2.255
X5.685Y-2.28
X5.685Y-2.305
X5.685Y-2.33
X5.695Y-3.115
X5.695Y-3.14
X5.7035Y-2.8345
X5.7035Y-2.859
X5.7035Y-2.8835
X5.71Y-2.205
X5.71Y-2.23
X5.71Y-2.255
X5.71Y-2.28
X5.71Y-2.305
X5.71Y-2.33
X5.72Y-3.115
X5.72Y-3.14
X5.728Y-2.8345
X5.728Y-2.859
X5.728Y-2.8835
X5.735Y-2.205
X5.735Y-2.23
X5.735Y-2.255
X5.735Y-2.28
X5.735Y-2.305
X5.735Y-2.33
X5.745Y-3.115
X5.745Y-3.14
X5.7525Y-2.81
X5.7525Y-2.8345
X5.7525Y-2.859
X5.7525Y-2.8835
X5.76Y-2.205
X5.76Y-2.23
X5.76Y-2.255
X5.76Y-2.28
X5.76Y-2.305
X5.76Y-2.33
X5.77Y-3.115
X5.77Y-3.14
X5.777Y-2.81
X5.777Y-2.8345
X5.777Y-2.859
X5.777Y-2.8835
X5.785Y-2.205
X5.785Y-2.23
X5.785Y-2.255
X5.785Y-2.28
X5.785Y-2.305
X5.785Y-2.33
X5.795Y-3.115
X5.795Y-3.14
X5.8015Y-2.81
X5.8015Y-2.8345
X5.8015Y-2.859
X5.8015Y-2.8835
X5.82Y-3.115
X5.82Y-3.14
X5.826Y-2.81
X5.826Y-2.8345
X5.826Y-2.859
X5.826Y-2.8835
X5.865Y-2.525
X5.865Y-2.548
X5.865Y-2.571
X5.865Y-2.594
X5.865Y-2.617
X5.865Y-2.64
X5.865Y-2.663
X5.888Y-2.525
X5.888Y-2.548
X5.888Y-2.571
X5.888Y-2.594
X5.888Y-2.617
X5.888Y-2.64
X5.888Y-2.663
X5.911Y-2.525
X5.911Y-2.548
X5.911Y-2.571
X5.911Y-2.594
X5.911Y-2.617
X5.911Y-2.64
X5.911Y-2.663
X5.934Y-2.525
X5.934Y-2.548
X5.934Y-2.571
X5.934Y-2.594
X5.934Y-2.617
X5.934Y-2.64
X5.934Y-2.663
X5.957Y-2.525
X5.957Y-2.548
X5.957Y-2.571
X5.957Y-2.594
X5.957Y-2.617
X5.957Y-2.64
X5.957Y-2.663
X5.98Y-2.525
X5.98Y-2.548
X5.98Y-2.571
X5.98Y-2.594
X5.98Y-2.617
X5.98Y-2.64
X5.98Y-2.663
X6.003Y-2.525
X6.003Y-2.548
X6.003Y-2.571
X6.003Y-2.594
X6.003Y-2.617
X6.003Y-2.64
X6.003Y-2.663
X6.005Y-2.435
X6.026Y-2.525
X6.026Y-2.548
X6.026Y-2.571
X6.026Y-2.594
X6.026Y-2.617
X6.026Y-2.64
X6.026Y-2.663
X6.04Y-2.425
X6.049Y-2.525
X6.049Y-2.548
X6.049Y-2.571
X6.049Y-2.594
X6.049Y-2.617
X6.049Y-2.64
X6.049Y-2.663
X6.086Y-3.034
X6.095Y-3.115
X6.095Y-3.14
X6.12Y-3.115
X6.12Y-3.14
X6.125Y-2.81
X6.125Y-2.8345
X6.125Y-2.859
X6.125Y-2.8835
X6.135Y-2.205
X6.135Y-2.23
X6.135Y-2.255
X6.135Y-2.28
X6.135Y-2.305
X6.135Y-2.33
X6.145Y-2.665
X6.145Y-3.115
X6.145Y-3.14
X6.1495Y-2.81
X6.1495Y-2.8345
X6.1495Y-2.859
X6.1495Y-2.8835
X6.16Y-2.205
X6.16Y-2.23
X6.16Y-2.255
X6.16Y-2.28
X6.16Y-2.305
X6.16Y-2.33
X6.17Y-3.115
X6.17Y-3.14
X6.174Y-2.81
X6.174Y-2.8345
X6.174Y-2.859
X6.174Y-2.8835
X6.185Y-2.205
X6.185Y-2.23
X6.185Y-2.255
X6.185Y-2.28
X6.185Y-2.305
X6.185Y-2.33
X6.195Y-3.115
X6.195Y-3.14
X6.1985Y-2.8345
X6.1985Y-2.859
X6.1985Y-2.8835
X6.21Y-2.205
X6.21Y-2.23
X6.21Y-2.255
X6.21Y-2.28
X6.21Y-2.305
X6.21Y-2.33
X6.22Y-3.115
X6.22Y-3.14
X6.223Y-2.8345
X6.223Y-2.859
X6.223Y-2.8835
X6.235Y-2.205
X6.235Y-2.23
X6.235Y-2.255
X6.235Y-2.28
X6.235Y-2.305
X6.235Y-2.33
X6.245Y-3.115
X6.245Y-3.14
X6.2475Y-2.81
X6.2475Y-2.8345
X6.2475Y-2.859
X6.2475Y-2.8835
X6.26Y-2.205
X6.26Y-2.23
X6.26Y-2.255
X6.26Y-2.28
X6.26Y-2.305
X6.26Y-2.33
X6.27Y-3.115
X6.27Y-3.14
X6.272Y-2.81
X6.272Y-2.8345
X6.272Y-2.859
X6.272Y-2.8835
X6.285Y-2.205
X6.285Y-2.23
X6.285Y-2.255
X6.285Y-2.28
X6.285Y-2.305
X6.285Y-2.33
X6.29Y-2.665
X6.295Y-3.115
X6.295Y-3.14
X6.2965Y-2.81
X6.2965Y-2.8345
X6.2965Y-2.859
X6.2965Y-2.8835
X6.32Y-3.115
X6.32Y-3.14
X6.321Y-2.81
X6.321Y-2.8345
X6.321Y-2.859
X6.321Y-2.8835
X6.37Y-2.525
X6.37Y-2.548
X6.37Y-2.571
X6.37Y-2.594
X6.37Y-2.617
X6.37Y-2.64
X6.37Y-2.663
X6.393Y-2.525
X6.393Y-2.548
X6.393Y-2.571
X6.393Y-2.594
X6.393Y-2.617
X6.393Y-2.64
X6.393Y-2.663
X6.416Y-2.525
X6.416Y-2.548
X6.416Y-2.571
X6.416Y-2.594
X6.416Y-2.617
X6.416Y-2.64
X6.416Y-2.663
X6.439Y-2.525
X6.439Y-2.548
X6.439Y-2.571
X6.439Y-2.594
X6.439Y-2.617
X6.439Y-2.64
X6.439Y-2.663
X6.462Y-2.525
X6.462Y-2.548
X6.462Y-2.571
X6.462Y-2.594
X6.462Y-2.617
X6.462Y-2.64
X6.462Y-2.663
X6.485Y-2.525
X6.485Y-2.548
X6.485Y-2.571
X6.485Y-2.594
X6.485Y-2.617
X6.485Y-2.64
X6.485Y-2.663
X6.505Y-2.435
X6.508Y-2.525
X6.508Y-2.548
X6.508Y-2.571
X6.508Y-2.594
X6.508Y-2.617
X6.508Y-2.64
X6.508Y-2.663
X6.531Y-2.525
X6.531Y-2.548
X6.531Y-2.571
X6.531Y-2.594
X6.531Y-2.617
X6.531Y-2.64
X6.531Y-2.663
X6.54Y-2.425
X6.554Y-2.525
X6.554Y-2.548
X6.554Y-2.571
X6.554Y-2.594
X6.554Y-2.617
X6.554Y-2.64
X6.554Y-2.663
X6.595Y-3.115
X6.595Y-3.14
X6.62Y-3.115
X6.62Y-3.14
X6.625Y-2.81
X6.625Y-2.8345
X6.625Y-2.859
X6.625Y-2.8835
X6.635Y-2.205
X6.635Y-2.23
X6.635Y-2.255
X6.635Y-2.28
X6.635Y-2.305
X6.635Y-2.33
X6.645Y-2.665
X6.645Y-3.115
X6.645Y-3.14
X6.6495Y-2.81
X6.6495Y-2.8345
X6.6495Y-2.859
X6.6495Y-2.8835
X6.66Y-2.205
X6.66Y-2.23
X6.66Y-2.255
X6.66Y-2.28
X6.66Y-2.305
X6.66Y-2.33
X6.67Y-3.115
X6.67Y-3.14
X6.674Y-2.81
X6.674Y-2.8345
X6.674Y-2.859
X6.674Y-2.8835
X6.685Y-2.205
X6.685Y-2.23
X6.685Y-2.255
X6.685Y-2.28
X6.685Y-2.305
X6.685Y-2.33
X6.695Y-3.115
X6.695Y-3.14
X6.6985Y-2.8345
X6.6985Y-2.859
X6.6985Y-2.8835
X6.71Y-2.205
X6.71Y-2.23
X6.71Y-2.255
X6.71Y-2.28
X6.71Y-2.305
X6.71Y-2.33
X6.72Y-3.115
X6.72Y-3.14
X6.723Y-2.8345
X6.723Y-2.859
X6.723Y-2.8835
X6.735Y-2.205
X6.735Y-2.23
X6.735Y-2.255
X6.735Y-2.28
X6.735Y-2.305
X6.735Y-2.33
X6.745Y-3.115
X6.745Y-3.14
X6.7475Y-2.81
X6.7475Y-2.8345
X6.7475Y-2.859
X6.7475Y-2.8835
X6.76Y-2.205
X6.76Y-2.23
X6.76Y-2.255
X6.76Y-2.28
X6.76Y-2.305
X6.76Y-2.33
X6.77Y-3.115
X6.77Y-3.14
X6.772Y-2.81
X6.772Y-2.8345
X6.772Y-2.859
X6.772Y-2.8835
X6.785Y-2.205
X6.785Y-2.23
X6.785Y-2.255
X6.785Y-2.28
X6.785Y-2.305
X6.785Y-2.33
X6.795Y-3.14
X6.7965Y-2.81
X6.7965Y-2.8345
X6.7965Y-2.859
X6.82Y-3.14
X6.821Y-2.81
X6.821Y-2.8345
X6.821Y-2.859
T3
X4.6163Y-4.31
X4.645Y-2.5475
X4.645Y-2.6263
X4.645Y-2.705
X4.645Y-2.7838
X4.645Y-2.8626
X4.645Y-3.0363
X4.645Y-3.115
X4.645Y-3.1937
X4.645Y-3.2725
X4.645Y-3.3514
X4.645Y-3.4301
X4.645Y-3.5089
X4.645Y-3.5877
X4.645Y-3.99
X4.645Y-4.0688
X4.645Y-4.1476
X4.695Y-4.31
X4.7738Y-4.31
X4.8526Y-4.31
X4.996Y-2.285
X5.0748Y-2.285
X5.1536Y-2.285
X5.2323Y-2.285
X5.3111Y-2.285
X5.3899Y-2.285
T4
X5.69Y-3.225
X5.8869Y-3.225
X6.5331Y-3.225
X6.73Y-3.225
T2
X4.98Y-4.2057G85X4.98Y-4.2333
G05
X4.98Y-4.4262G85X4.98Y-4.4538
G05
X5.0646Y-4.3081G85X5.0646Y-4.3514
G05
T0
M30
