%TF.GenerationSoftware,KiCad,Pcbnew,4.0.7*%
%TF.CreationDate,2018-05-10T22:30:23+08:00*%
%TF.ProjectId,VESC_6,564553435F362E6B696361645F706362,A*%
%TF.FileFunction,Paste,Top*%
%FSLAX46Y46*%
G04 Gerber Fmt 4.6, Leading zero omitted, Abs format (unit mm)*
G04 Created by KiCad (PCBNEW 4.0.7) date 2018 May 10, Thursday 22:30:23*
%MOMM*%
%LPD*%
G01*
G04 APERTURE LIST*
%ADD10C,0.100000*%
%ADD11R,1.180000X4.700000*%
%ADD12R,1.000000X2.500000*%
%ADD13R,1.501140X0.299720*%
%ADD14R,3.599180X7.000240*%
%ADD15R,0.700000X1.300000*%
%ADD16R,1.100000X0.850000*%
%ADD17R,1.100000X1.700000*%
%ADD18R,1.300000X0.700000*%
%ADD19R,0.850000X1.100000*%
%ADD20R,1.700000X1.100000*%
%ADD21R,0.350000X0.650000*%
%ADD22R,0.720000X0.465000*%
%ADD23R,5.000000X4.000000*%
%ADD24R,0.800000X0.750000*%
%ADD25R,0.750000X0.800000*%
%ADD26R,0.900000X0.500000*%
%ADD27R,0.500000X0.900000*%
%ADD28R,2.500000X1.000000*%
%ADD29R,1.950000X1.500000*%
%ADD30R,0.304800X1.193800*%
%ADD31R,1.193800X0.304800*%
%ADD32R,2.500000X2.300000*%
%ADD33R,6.000000X5.000000*%
%ADD34O,0.200000X0.550000*%
%ADD35O,0.550000X0.200000*%
G04 APERTURE END LIST*
D10*
D11*
X129532000Y-62230000D03*
X132842000Y-62230000D03*
D12*
X133834000Y-83566000D03*
X130834000Y-83566000D03*
D10*
G36*
X127929008Y-107506662D02*
X128459338Y-108036992D01*
X127893652Y-108602678D01*
X127363322Y-108072348D01*
X127929008Y-107506662D01*
X127929008Y-107506662D01*
G37*
G36*
X126868348Y-108567322D02*
X127398678Y-109097652D01*
X126832992Y-109663338D01*
X126302662Y-109133008D01*
X126868348Y-108567322D01*
X126868348Y-108567322D01*
G37*
G36*
X136484992Y-107250338D02*
X135954662Y-106720008D01*
X136520348Y-106154322D01*
X137050678Y-106684652D01*
X136484992Y-107250338D01*
X136484992Y-107250338D01*
G37*
G36*
X137545652Y-106189678D02*
X137015322Y-105659348D01*
X137581008Y-105093662D01*
X138111338Y-105623992D01*
X137545652Y-106189678D01*
X137545652Y-106189678D01*
G37*
G36*
X136405909Y-104130695D02*
X137042305Y-104767091D01*
X136688751Y-105120645D01*
X136052355Y-104484249D01*
X136405909Y-104130695D01*
X136405909Y-104130695D01*
G37*
G36*
X135345249Y-105191355D02*
X135981645Y-105827751D01*
X135628091Y-106181305D01*
X134991695Y-105544909D01*
X135345249Y-105191355D01*
X135345249Y-105191355D01*
G37*
D13*
X136461500Y-76471780D03*
X136461500Y-75971400D03*
X136461500Y-75471020D03*
X136461500Y-74970640D03*
X136461500Y-74470260D03*
X136461500Y-73972420D03*
X136461500Y-73472040D03*
X136461500Y-72971660D03*
X136461500Y-72471280D03*
X136461500Y-71970900D03*
X136461500Y-71470520D03*
X136461500Y-80970120D03*
X136461500Y-80472280D03*
X136461500Y-79971900D03*
X128460500Y-75471020D03*
X136461500Y-78971140D03*
X136461500Y-78470760D03*
X136461500Y-77970380D03*
X136461500Y-77472540D03*
X136461500Y-76972160D03*
X128460500Y-72971660D03*
X128460500Y-73472040D03*
X128460500Y-73972420D03*
X128460500Y-74470260D03*
X128460500Y-74970640D03*
X136461500Y-79471520D03*
X128460500Y-75971400D03*
X128460500Y-76471780D03*
X128460500Y-76972160D03*
X128460500Y-77472540D03*
X128460500Y-77970380D03*
X128460500Y-78470760D03*
X128460500Y-78971140D03*
X128460500Y-67472560D03*
X128460500Y-67970400D03*
X128460500Y-68470780D03*
X128460500Y-68971160D03*
X128460500Y-69471540D03*
X128460500Y-69971920D03*
X128460500Y-70472300D03*
X128460500Y-70970140D03*
X128460500Y-71470520D03*
X128460500Y-71970900D03*
X128460500Y-72471280D03*
X128460500Y-79471520D03*
X128460500Y-79971900D03*
X128460500Y-80472280D03*
X128460500Y-80970120D03*
X136461500Y-70970140D03*
X136461500Y-70472300D03*
X136461500Y-69971920D03*
X136461500Y-69471540D03*
X136461500Y-68971160D03*
X136461500Y-68470780D03*
X136461500Y-67970400D03*
X136461500Y-67472560D03*
D14*
X132461000Y-74168000D03*
D10*
G36*
X133611909Y-107813695D02*
X134248305Y-108450091D01*
X133894751Y-108803645D01*
X133258355Y-108167249D01*
X133611909Y-107813695D01*
X133611909Y-107813695D01*
G37*
G36*
X132551249Y-108874355D02*
X133187645Y-109510751D01*
X132834091Y-109864305D01*
X132197695Y-109227909D01*
X132551249Y-108874355D01*
X132551249Y-108874355D01*
G37*
G36*
X134406008Y-101918662D02*
X134936338Y-102448992D01*
X134370652Y-103014678D01*
X133840322Y-102484348D01*
X134406008Y-101918662D01*
X134406008Y-101918662D01*
G37*
G36*
X133345348Y-102979322D02*
X133875678Y-103509652D01*
X133309992Y-104075338D01*
X132779662Y-103545008D01*
X133345348Y-102979322D01*
X133345348Y-102979322D01*
G37*
D15*
X166334000Y-76200000D03*
D16*
X167734000Y-75625000D03*
X167734000Y-76775000D03*
X170534000Y-76775000D03*
X170534000Y-75625000D03*
X167734000Y-74475000D03*
X170534000Y-74475000D03*
X167734000Y-77925000D03*
X170534000Y-77925000D03*
D17*
X164084000Y-76200000D03*
X164084000Y-74000000D03*
X164084000Y-78400000D03*
X173384000Y-76200000D03*
X173384000Y-78400000D03*
X173384000Y-74000000D03*
D18*
X170393000Y-67567000D03*
D19*
X169818000Y-66167000D03*
X170968000Y-66167000D03*
X170968000Y-63367000D03*
X169818000Y-63367000D03*
X168668000Y-66167000D03*
X168668000Y-63367000D03*
X172118000Y-66167000D03*
X172118000Y-63367000D03*
D20*
X170393000Y-69817000D03*
X168193000Y-69817000D03*
X172593000Y-69817000D03*
X170393000Y-60517000D03*
X172593000Y-60517000D03*
X168193000Y-60517000D03*
D15*
X144334000Y-76200000D03*
D16*
X145734000Y-75625000D03*
X145734000Y-76775000D03*
X148534000Y-76775000D03*
X148534000Y-75625000D03*
X145734000Y-74475000D03*
X148534000Y-74475000D03*
X145734000Y-77925000D03*
X148534000Y-77925000D03*
D17*
X142084000Y-76200000D03*
X142084000Y-74000000D03*
X142084000Y-78400000D03*
X151384000Y-76200000D03*
X151384000Y-78400000D03*
X151384000Y-74000000D03*
D10*
G36*
X136026305Y-109989909D02*
X135389909Y-110626305D01*
X135036355Y-110272751D01*
X135672751Y-109636355D01*
X136026305Y-109989909D01*
X136026305Y-109989909D01*
G37*
G36*
X134965645Y-108929249D02*
X134329249Y-109565645D01*
X133975695Y-109212091D01*
X134612091Y-108575695D01*
X134965645Y-108929249D01*
X134965645Y-108929249D01*
G37*
G36*
X132707091Y-111870905D02*
X132070695Y-111234509D01*
X132424249Y-110880955D01*
X133060645Y-111517351D01*
X132707091Y-111870905D01*
X132707091Y-111870905D01*
G37*
G36*
X133767751Y-110810245D02*
X133131355Y-110173849D01*
X133484909Y-109820295D01*
X134121305Y-110456691D01*
X133767751Y-110810245D01*
X133767751Y-110810245D01*
G37*
D21*
X124200000Y-99916500D03*
X123550000Y-99916500D03*
X122900000Y-99916500D03*
X122250000Y-99916500D03*
X122250000Y-103016500D03*
X122900000Y-103016500D03*
X123550000Y-103016500D03*
X124200000Y-103016500D03*
D22*
X122625000Y-101854000D03*
X123825000Y-101854000D03*
X122625000Y-101079000D03*
X123825000Y-101079000D03*
D10*
G36*
X130144482Y-104177400D02*
X130356614Y-103965268D01*
X130872802Y-104481456D01*
X130660670Y-104693588D01*
X130144482Y-104177400D01*
X130144482Y-104177400D01*
G37*
G36*
X129790929Y-104530954D02*
X130003061Y-104318822D01*
X130519249Y-104835010D01*
X130307117Y-105047142D01*
X129790929Y-104530954D01*
X129790929Y-104530954D01*
G37*
G36*
X129437375Y-104884507D02*
X129649507Y-104672375D01*
X130165695Y-105188563D01*
X129953563Y-105400695D01*
X129437375Y-104884507D01*
X129437375Y-104884507D01*
G37*
G36*
X129083822Y-105238061D02*
X129295954Y-105025929D01*
X129812142Y-105542117D01*
X129600010Y-105754249D01*
X129083822Y-105238061D01*
X129083822Y-105238061D01*
G37*
G36*
X128730268Y-105591614D02*
X128942400Y-105379482D01*
X129458588Y-105895670D01*
X129246456Y-106107802D01*
X128730268Y-105591614D01*
X128730268Y-105591614D01*
G37*
G36*
X128942400Y-107472518D02*
X128730268Y-107260386D01*
X129246456Y-106744198D01*
X129458588Y-106956330D01*
X128942400Y-107472518D01*
X128942400Y-107472518D01*
G37*
G36*
X129295954Y-107826071D02*
X129083822Y-107613939D01*
X129600010Y-107097751D01*
X129812142Y-107309883D01*
X129295954Y-107826071D01*
X129295954Y-107826071D01*
G37*
G36*
X129649507Y-108179625D02*
X129437375Y-107967493D01*
X129953563Y-107451305D01*
X130165695Y-107663437D01*
X129649507Y-108179625D01*
X129649507Y-108179625D01*
G37*
G36*
X130003061Y-108533178D02*
X129790929Y-108321046D01*
X130307117Y-107804858D01*
X130519249Y-108016990D01*
X130003061Y-108533178D01*
X130003061Y-108533178D01*
G37*
G36*
X130356614Y-108886732D02*
X130144482Y-108674600D01*
X130660670Y-108158412D01*
X130872802Y-108370544D01*
X130356614Y-108886732D01*
X130356614Y-108886732D01*
G37*
G36*
X131509198Y-108370544D02*
X131721330Y-108158412D01*
X132237518Y-108674600D01*
X132025386Y-108886732D01*
X131509198Y-108370544D01*
X131509198Y-108370544D01*
G37*
G36*
X131862751Y-108016990D02*
X132074883Y-107804858D01*
X132591071Y-108321046D01*
X132378939Y-108533178D01*
X131862751Y-108016990D01*
X131862751Y-108016990D01*
G37*
G36*
X132216305Y-107663437D02*
X132428437Y-107451305D01*
X132944625Y-107967493D01*
X132732493Y-108179625D01*
X132216305Y-107663437D01*
X132216305Y-107663437D01*
G37*
G36*
X132569858Y-107309883D02*
X132781990Y-107097751D01*
X133298178Y-107613939D01*
X133086046Y-107826071D01*
X132569858Y-107309883D01*
X132569858Y-107309883D01*
G37*
G36*
X132923412Y-106956330D02*
X133135544Y-106744198D01*
X133651732Y-107260386D01*
X133439600Y-107472518D01*
X132923412Y-106956330D01*
X132923412Y-106956330D01*
G37*
G36*
X133135544Y-106107802D02*
X132923412Y-105895670D01*
X133439600Y-105379482D01*
X133651732Y-105591614D01*
X133135544Y-106107802D01*
X133135544Y-106107802D01*
G37*
G36*
X132781990Y-105754249D02*
X132569858Y-105542117D01*
X133086046Y-105025929D01*
X133298178Y-105238061D01*
X132781990Y-105754249D01*
X132781990Y-105754249D01*
G37*
G36*
X132428437Y-105400695D02*
X132216305Y-105188563D01*
X132732493Y-104672375D01*
X132944625Y-104884507D01*
X132428437Y-105400695D01*
X132428437Y-105400695D01*
G37*
G36*
X132074883Y-105047142D02*
X131862751Y-104835010D01*
X132378939Y-104318822D01*
X132591071Y-104530954D01*
X132074883Y-105047142D01*
X132074883Y-105047142D01*
G37*
G36*
X131721330Y-104693588D02*
X131509198Y-104481456D01*
X132025386Y-103965268D01*
X132237518Y-104177400D01*
X131721330Y-104693588D01*
X131721330Y-104693588D01*
G37*
G36*
X130660670Y-107309883D02*
X131191000Y-106779553D01*
X131721330Y-107309883D01*
X131191000Y-107840213D01*
X130660670Y-107309883D01*
X130660670Y-107309883D01*
G37*
G36*
X131544553Y-106426000D02*
X132074883Y-105895670D01*
X132605213Y-106426000D01*
X132074883Y-106956330D01*
X131544553Y-106426000D01*
X131544553Y-106426000D01*
G37*
G36*
X129776787Y-106426000D02*
X130307117Y-105895670D01*
X130837447Y-106426000D01*
X130307117Y-106956330D01*
X129776787Y-106426000D01*
X129776787Y-106426000D01*
G37*
G36*
X130660670Y-105542117D02*
X131191000Y-105011787D01*
X131721330Y-105542117D01*
X131191000Y-106072447D01*
X130660670Y-105542117D01*
X130660670Y-105542117D01*
G37*
D18*
X145087000Y-67551000D03*
D19*
X144512000Y-66151000D03*
X145662000Y-66151000D03*
X145662000Y-63351000D03*
X144512000Y-63351000D03*
X143362000Y-66151000D03*
X143362000Y-63351000D03*
X146812000Y-66151000D03*
X146812000Y-63351000D03*
D20*
X145087000Y-69801000D03*
X142887000Y-69801000D03*
X147287000Y-69801000D03*
X145087000Y-60501000D03*
X147287000Y-60501000D03*
X142887000Y-60501000D03*
D15*
X155321000Y-76200000D03*
D16*
X156721000Y-75625000D03*
X156721000Y-76775000D03*
X159521000Y-76775000D03*
X159521000Y-75625000D03*
X156721000Y-74475000D03*
X159521000Y-74475000D03*
X156721000Y-77925000D03*
X159521000Y-77925000D03*
D17*
X153071000Y-76200000D03*
X153071000Y-74000000D03*
X153071000Y-78400000D03*
X162371000Y-76200000D03*
X162371000Y-78400000D03*
X162371000Y-74000000D03*
D18*
X157734000Y-67551000D03*
D19*
X157159000Y-66151000D03*
X158309000Y-66151000D03*
X158309000Y-63351000D03*
X157159000Y-63351000D03*
X156009000Y-66151000D03*
X156009000Y-63351000D03*
X159459000Y-66151000D03*
X159459000Y-63351000D03*
D20*
X157734000Y-69801000D03*
X155534000Y-69801000D03*
X159934000Y-69801000D03*
X157734000Y-60501000D03*
X159934000Y-60501000D03*
X155534000Y-60501000D03*
D23*
X151384000Y-65786000D03*
X164084000Y-65786000D03*
D24*
X133489000Y-100076000D03*
X134989000Y-100076000D03*
D25*
X124269500Y-90031000D03*
X124269500Y-88531000D03*
X128143000Y-85586000D03*
X128143000Y-84086000D03*
X120523000Y-88888000D03*
X120523000Y-87388000D03*
D24*
X123646500Y-97790000D03*
X125146500Y-97790000D03*
D25*
X139192000Y-87908000D03*
X139192000Y-89408000D03*
D24*
X124625800Y-72593200D03*
X123125800Y-72593200D03*
X124625800Y-74041000D03*
X123125800Y-74041000D03*
X126251400Y-69723000D03*
X124751400Y-69723000D03*
D25*
X125349000Y-78347000D03*
X125349000Y-76847000D03*
D24*
X124726000Y-66802000D03*
X126226000Y-66802000D03*
D25*
X126365000Y-74180000D03*
X126365000Y-75680000D03*
X127000000Y-80530000D03*
X127000000Y-82030000D03*
D24*
X140323000Y-63754000D03*
X138823000Y-63754000D03*
D25*
X138303000Y-71005000D03*
X138303000Y-72505000D03*
X138303000Y-73799000D03*
X138303000Y-75299000D03*
X138303000Y-76593000D03*
X138303000Y-78093000D03*
D24*
X140323000Y-69850000D03*
X138823000Y-69850000D03*
X137299000Y-62230000D03*
X138799000Y-62230000D03*
D25*
X120650000Y-97548000D03*
X120650000Y-99048000D03*
X120650000Y-102096000D03*
X120650000Y-100596000D03*
D24*
X124511500Y-87122000D03*
X123011500Y-87122000D03*
D10*
G36*
X134325992Y-105218338D02*
X133795662Y-104688008D01*
X134361348Y-104122322D01*
X134891678Y-104652652D01*
X134325992Y-105218338D01*
X134325992Y-105218338D01*
G37*
G36*
X135386652Y-104157678D02*
X134856322Y-103627348D01*
X135422008Y-103061662D01*
X135952338Y-103591992D01*
X135386652Y-104157678D01*
X135386652Y-104157678D01*
G37*
D24*
X134936800Y-56083200D03*
X136436800Y-56083200D03*
D25*
X124841000Y-80784000D03*
X124841000Y-82284000D03*
D24*
X122682000Y-78613000D03*
X121182000Y-78613000D03*
X121400000Y-84455000D03*
X119900000Y-84455000D03*
D26*
X123113800Y-70727000D03*
X123113800Y-69227000D03*
X123113800Y-68136200D03*
X123113800Y-66636200D03*
D27*
X124751400Y-68249800D03*
X126251400Y-68249800D03*
X124751400Y-71196200D03*
X126251400Y-71196200D03*
X124726000Y-65354200D03*
X126226000Y-65354200D03*
X119519000Y-107315000D03*
X121019000Y-107315000D03*
X133719000Y-56134000D03*
X132219000Y-56134000D03*
X124575000Y-56134000D03*
X123075000Y-56134000D03*
X124575000Y-57658000D03*
X123075000Y-57658000D03*
X124575000Y-59182000D03*
X123075000Y-59182000D03*
D28*
X139192000Y-68175000D03*
X139192000Y-65175000D03*
D10*
G36*
X116702299Y-61862494D02*
X115429506Y-60589701D01*
X117197273Y-58821934D01*
X118470066Y-60094727D01*
X116702299Y-61862494D01*
X116702299Y-61862494D01*
G37*
G36*
X119530727Y-59034066D02*
X118257934Y-57761273D01*
X120025701Y-55993506D01*
X121298494Y-57266299D01*
X119530727Y-59034066D01*
X119530727Y-59034066D01*
G37*
D29*
X137182000Y-60198000D03*
X139932000Y-60198000D03*
D10*
G36*
X132191182Y-112859736D02*
X132544736Y-112506182D01*
X132969000Y-112930446D01*
X132615446Y-113284000D01*
X132191182Y-112859736D01*
X132191182Y-112859736D01*
G37*
G36*
X132969000Y-113637554D02*
X133322554Y-113284000D01*
X133746818Y-113708264D01*
X133393264Y-114061818D01*
X132969000Y-113637554D01*
X132969000Y-113637554D01*
G37*
G36*
X132953182Y-112097736D02*
X133306736Y-111744182D01*
X133731000Y-112168446D01*
X133377446Y-112522000D01*
X132953182Y-112097736D01*
X132953182Y-112097736D01*
G37*
G36*
X133731000Y-112875554D02*
X134084554Y-112522000D01*
X134508818Y-112946264D01*
X134155264Y-113299818D01*
X133731000Y-112875554D01*
X133731000Y-112875554D01*
G37*
G36*
X137429818Y-111549264D02*
X137076264Y-111902818D01*
X136652000Y-111478554D01*
X137005554Y-111125000D01*
X137429818Y-111549264D01*
X137429818Y-111549264D01*
G37*
G36*
X136652000Y-110771446D02*
X136298446Y-111125000D01*
X135874182Y-110700736D01*
X136227736Y-110347182D01*
X136652000Y-110771446D01*
X136652000Y-110771446D01*
G37*
G36*
X137624736Y-112537818D02*
X137271182Y-112184264D01*
X137695446Y-111760000D01*
X138049000Y-112113554D01*
X137624736Y-112537818D01*
X137624736Y-112537818D01*
G37*
G36*
X138402554Y-111760000D02*
X138049000Y-111406446D01*
X138473264Y-110982182D01*
X138826818Y-111335736D01*
X138402554Y-111760000D01*
X138402554Y-111760000D01*
G37*
D26*
X140335000Y-76339000D03*
X140335000Y-77839000D03*
X140335000Y-79133000D03*
X140335000Y-80633000D03*
D30*
X135576000Y-86960001D03*
X135076001Y-86960001D03*
X134576000Y-86960001D03*
X134076001Y-86960001D03*
X133575999Y-86960001D03*
X133076000Y-86960001D03*
X132576001Y-86960001D03*
X132076000Y-86960001D03*
X131576000Y-86960001D03*
X131075999Y-86960001D03*
X130576000Y-86960001D03*
X130076001Y-86960001D03*
X129575999Y-86960001D03*
X129076000Y-86960001D03*
X128575999Y-86960001D03*
X128076000Y-86960001D03*
D31*
X126076001Y-88960000D03*
X126076001Y-89459999D03*
X126076001Y-89960000D03*
X126076001Y-90459999D03*
X126076001Y-90960001D03*
X126076001Y-91460000D03*
X126076001Y-91959999D03*
X126076001Y-92460000D03*
X126076001Y-92960000D03*
X126076001Y-93460001D03*
X126076001Y-93960000D03*
X126076001Y-94459999D03*
X126076001Y-94960001D03*
X126076001Y-95460000D03*
X126076001Y-95960001D03*
X126076001Y-96460000D03*
D30*
X128076000Y-98459999D03*
X128575999Y-98459999D03*
X129076000Y-98459999D03*
X129575999Y-98459999D03*
X130076001Y-98459999D03*
X130576000Y-98459999D03*
X131075999Y-98459999D03*
X131576000Y-98459999D03*
X132076000Y-98459999D03*
X132576001Y-98459999D03*
X133076000Y-98459999D03*
X133575999Y-98459999D03*
X134076001Y-98459999D03*
X134576000Y-98459999D03*
X135076001Y-98459999D03*
X135576000Y-98459999D03*
D31*
X137575999Y-96460000D03*
X137575999Y-95960001D03*
X137575999Y-95460000D03*
X137575999Y-94960001D03*
X137575999Y-94459999D03*
X137575999Y-93960000D03*
X137575999Y-93460001D03*
X137575999Y-92960000D03*
X137575999Y-92460000D03*
X137575999Y-91959999D03*
X137575999Y-91460000D03*
X137575999Y-90960001D03*
X137575999Y-90459999D03*
X137575999Y-89960000D03*
X137575999Y-89459999D03*
X137575999Y-88960000D03*
D32*
X126229000Y-62230000D03*
X121929000Y-62230000D03*
D33*
X157734000Y-83693000D03*
D34*
X120965000Y-83034000D03*
X121365000Y-83034000D03*
X121765000Y-83034000D03*
X122165000Y-83034000D03*
X122565000Y-83034000D03*
X122965000Y-83034000D03*
D35*
X123465000Y-82534000D03*
X123465000Y-82134000D03*
X123465000Y-81734000D03*
X123465000Y-81334000D03*
X123465000Y-80934000D03*
X123465000Y-80534000D03*
D34*
X122965000Y-80034000D03*
X122565000Y-80034000D03*
X122165000Y-80034000D03*
X121765000Y-80034000D03*
X121365000Y-80034000D03*
X120965000Y-80034000D03*
D35*
X120465000Y-80534000D03*
X120465000Y-80934000D03*
X120465000Y-81334000D03*
X120465000Y-81734000D03*
X120465000Y-82134000D03*
X120465000Y-82534000D03*
M02*
