%TF.GenerationSoftware,KiCad,Pcbnew,4.0.7*%
%TF.CreationDate,2018-04-14T17:05:36+08:00*%
%TF.ProjectId,VESC_6,564553435F362E6B696361645F706362,rev?*%
%TF.FileFunction,Soldermask,Bot*%
%FSLAX46Y46*%
G04 Gerber Fmt 4.6, Leading zero omitted, Abs format (unit mm)*
G04 Created by KiCad (PCBNEW 4.0.7) date 2018 April 14, Saturday 17:05:36*
%MOMM*%
%LPD*%
G01*
G04 APERTURE LIST*
%ADD10C,0.100000*%
%ADD11R,0.901600X0.851600*%
%ADD12R,1.800860X1.300480*%
%ADD13O,1.800860X1.300480*%
%ADD14R,2.101600X1.401600*%
%ADD15R,0.551600X1.551600*%
%ADD16C,3.101600*%
%ADD17R,1.401600X0.801600*%
%ADD18R,1.300480X1.800860*%
%ADD19O,1.300480X1.800860*%
%ADD20R,1.161600X0.751600*%
%ADD21C,1.001600*%
%ADD22R,0.801600X1.601600*%
%ADD23R,1.101600X0.901600*%
%ADD24R,0.901600X0.901600*%
%ADD25R,1.601600X0.551600*%
%ADD26O,1.201600X1.901600*%
%ADD27O,1.201600X2.301600*%
%ADD28R,5.101600X4.101600*%
%ADD29R,0.851600X0.901600*%
%ADD30R,1.001600X0.601600*%
%ADD31R,0.601600X1.001600*%
%ADD32R,2.601600X1.101600*%
%ADD33R,2.051600X1.601600*%
%ADD34R,0.701600X2.801600*%
%ADD35R,2.401600X2.801600*%
%ADD36R,7.101600X6.101600*%
%ADD37R,2.501600X2.501600*%
%ADD38C,2.501600*%
%ADD39C,0.254000*%
G04 APERTURE END LIST*
D10*
D11*
X135624000Y-97028000D03*
X134124000Y-97028000D03*
D12*
X117983000Y-105984040D03*
D13*
X117983000Y-101981000D03*
X117983000Y-103982520D03*
D14*
X136525000Y-90247320D03*
X132525000Y-90247320D03*
X132525000Y-87847320D03*
X136525000Y-87847320D03*
D10*
G36*
X131144571Y-111862453D02*
X130153490Y-110871372D01*
X131639545Y-109385317D01*
X132630626Y-110376398D01*
X131144571Y-111862453D01*
X131144571Y-111862453D01*
G37*
G36*
X133972998Y-109034026D02*
X132981917Y-108042945D01*
X134467972Y-106556890D01*
X135459053Y-107547971D01*
X133972998Y-109034026D01*
X133972998Y-109034026D01*
G37*
G36*
X135670055Y-110731083D02*
X134678974Y-109740002D01*
X136165029Y-108253947D01*
X137156110Y-109245028D01*
X135670055Y-110731083D01*
X135670055Y-110731083D01*
G37*
G36*
X132841628Y-113559510D02*
X131850547Y-112568429D01*
X133336602Y-111082374D01*
X134327683Y-112073455D01*
X132841628Y-113559510D01*
X132841628Y-113559510D01*
G37*
D15*
X137455000Y-63713000D03*
X138105000Y-63713000D03*
X138755000Y-63713000D03*
X139405000Y-63713000D03*
X139405000Y-68113000D03*
X138755000Y-68113000D03*
X138105000Y-68113000D03*
X137455000Y-68113000D03*
D16*
X151257000Y-58039000D03*
X163830000Y-58039000D03*
D17*
X121500000Y-79173000D03*
X121500000Y-81073000D03*
D18*
X123256040Y-110363000D03*
D19*
X119253000Y-110363000D03*
X121254520Y-110363000D03*
X117254020Y-110363000D03*
D18*
X127093980Y-58039000D03*
D19*
X131097020Y-58039000D03*
X129095500Y-58039000D03*
X133096000Y-58039000D03*
X135097520Y-58039000D03*
X137099040Y-58039000D03*
D13*
X118003300Y-81459440D03*
X118003300Y-83458420D03*
X118003300Y-85459940D03*
D12*
X118003300Y-93466020D03*
D13*
X118003300Y-89462980D03*
X118003300Y-91464500D03*
X118003300Y-87464000D03*
X118003300Y-79460460D03*
D12*
X117983000Y-74930000D03*
D13*
X117983000Y-70926960D03*
X117983000Y-72928480D03*
X117983000Y-68927980D03*
X117983000Y-66926460D03*
D20*
X125700000Y-79173000D03*
X125700000Y-80123000D03*
X125700000Y-81073000D03*
X123500000Y-81073000D03*
X123500000Y-79173000D03*
D21*
X118896000Y-59487000D03*
X121896000Y-59487000D03*
D22*
X118146000Y-61247000D03*
X121146000Y-61247000D03*
X122646000Y-61247000D03*
D23*
X116746000Y-58387000D03*
X124046000Y-58387000D03*
X124046000Y-60597000D03*
X116746000Y-60597000D03*
D24*
X138815300Y-102495700D03*
X138815300Y-104095700D03*
X137287000Y-102527200D03*
X137287000Y-104127200D03*
X135763000Y-102527200D03*
X135763000Y-104127200D03*
D15*
X134502800Y-65903200D03*
X133852800Y-65903200D03*
X133202800Y-65903200D03*
X132552800Y-65903200D03*
X132552800Y-61503200D03*
X133202800Y-61503200D03*
X133852800Y-61503200D03*
X134502800Y-61503200D03*
X129105300Y-67427200D03*
X128455300Y-67427200D03*
X127805300Y-67427200D03*
X127155300Y-67427200D03*
X127155300Y-63027200D03*
X127805300Y-63027200D03*
X128455300Y-63027200D03*
X129105300Y-63027200D03*
D25*
X126742000Y-110484000D03*
X126742000Y-111134000D03*
X126742000Y-109834000D03*
X126742000Y-111784000D03*
X126742000Y-109184000D03*
D26*
X126492000Y-107684000D03*
X126492000Y-113284000D03*
D27*
X128642000Y-110484000D03*
D10*
G36*
X137637033Y-113762693D02*
X136822728Y-114576998D01*
X135195251Y-112949521D01*
X136009556Y-112135216D01*
X137637033Y-113762693D01*
X137637033Y-113762693D01*
G37*
G36*
X139334088Y-113409140D02*
X138555140Y-114188088D01*
X137740836Y-113373784D01*
X138519784Y-112594836D01*
X139334088Y-113409140D01*
X139334088Y-113409140D01*
G37*
G36*
X139722998Y-111676728D02*
X138908693Y-112491033D01*
X137281216Y-110863556D01*
X138095521Y-110049251D01*
X139722998Y-111676728D01*
X139722998Y-111676728D01*
G37*
D28*
X145241500Y-57404000D03*
X157353000Y-57404000D03*
X170180000Y-57404000D03*
D11*
X122022300Y-95389700D03*
X120522300Y-95389700D03*
D29*
X138607800Y-88353200D03*
X138607800Y-89853200D03*
D11*
X127242000Y-96202500D03*
X125742000Y-96202500D03*
D29*
X133032500Y-98449000D03*
X133032500Y-99949000D03*
X130556000Y-89777000D03*
X130556000Y-88277000D03*
X127300000Y-81927000D03*
X127300000Y-83427000D03*
X132334000Y-92036200D03*
X132334000Y-93536200D03*
X129286000Y-92036200D03*
X129286000Y-93536200D03*
X136017000Y-68441000D03*
X136017000Y-66941000D03*
X130937000Y-62928500D03*
X130937000Y-64428500D03*
X125539500Y-64476500D03*
X125539500Y-65976500D03*
X126238000Y-92036200D03*
X126238000Y-93536200D03*
D10*
G36*
X131579180Y-113705008D02*
X130977008Y-114307180D01*
X130339480Y-113669652D01*
X130941652Y-113067480D01*
X131579180Y-113705008D01*
X131579180Y-113705008D01*
G37*
G36*
X130518520Y-112644348D02*
X129916348Y-113246520D01*
X129278820Y-112608992D01*
X129880992Y-112006820D01*
X130518520Y-112644348D01*
X130518520Y-112644348D01*
G37*
G36*
X136771820Y-107528992D02*
X137373992Y-106926820D01*
X138011520Y-107564348D01*
X137409348Y-108166520D01*
X136771820Y-107528992D01*
X136771820Y-107528992D01*
G37*
G36*
X137832480Y-108589652D02*
X138434652Y-107987480D01*
X139072180Y-108625008D01*
X138470008Y-109227180D01*
X137832480Y-108589652D01*
X137832480Y-108589652D01*
G37*
D11*
X122821000Y-82042000D03*
X124321000Y-82042000D03*
D30*
X130860800Y-104585200D03*
X130860800Y-103085200D03*
X129036300Y-103053700D03*
X129036300Y-104553700D03*
X127131300Y-103053700D03*
X127131300Y-104553700D03*
D31*
X122035000Y-96837500D03*
X120535000Y-96837500D03*
X137299000Y-105664000D03*
X138799000Y-105664000D03*
X132904800Y-105232200D03*
X134404800Y-105232200D03*
X132904800Y-103632000D03*
X134404800Y-103632000D03*
D30*
X132900000Y-84500000D03*
X132900000Y-83000000D03*
X131303800Y-84511200D03*
X131303800Y-83011200D03*
D31*
X131085500Y-72263000D03*
X132585500Y-72263000D03*
X131085500Y-73723500D03*
X132585500Y-73723500D03*
X131085500Y-75247500D03*
X132585500Y-75247500D03*
X131085500Y-76771500D03*
X132585500Y-76771500D03*
X131085500Y-78295500D03*
X132585500Y-78295500D03*
X131085500Y-79819500D03*
X132585500Y-79819500D03*
D30*
X123621800Y-88543700D03*
X123621800Y-90043700D03*
D10*
G36*
X122572647Y-88082409D02*
X121864409Y-88790647D01*
X121439013Y-88365251D01*
X122147251Y-87657013D01*
X122572647Y-88082409D01*
X122572647Y-88082409D01*
G37*
G36*
X121511987Y-87021749D02*
X120803749Y-87729987D01*
X120378353Y-87304591D01*
X121086591Y-86596353D01*
X121511987Y-87021749D01*
X121511987Y-87021749D01*
G37*
D32*
X143383000Y-78081000D03*
X143383000Y-75081000D03*
X146685000Y-78105000D03*
X146685000Y-75105000D03*
X159131000Y-78081000D03*
X159131000Y-75081000D03*
X155829000Y-78105000D03*
X155829000Y-75105000D03*
X168910000Y-77954000D03*
X168910000Y-74954000D03*
X172085000Y-77978000D03*
X172085000Y-74978000D03*
D33*
X122125000Y-83527000D03*
X124875000Y-83527000D03*
D31*
X139041000Y-71310500D03*
X137541000Y-71310500D03*
X139040300Y-72847200D03*
X137540300Y-72847200D03*
X139053000Y-74358500D03*
X137553000Y-74358500D03*
X139053000Y-75882500D03*
X137553000Y-75882500D03*
X139053000Y-77406500D03*
X137553000Y-77406500D03*
X139053000Y-78930500D03*
X137553000Y-78930500D03*
D30*
X133858000Y-93536200D03*
X133858000Y-92036200D03*
X130810000Y-93536200D03*
X130810000Y-92036200D03*
X127762000Y-93536200D03*
X127762000Y-92036200D03*
D34*
X157543500Y-69555000D03*
X157543500Y-61255000D03*
D35*
X155593500Y-69555000D03*
X159493500Y-61255000D03*
X159493500Y-69555000D03*
X155593500Y-61255000D03*
D34*
X144862000Y-69532500D03*
X144862000Y-61232500D03*
D35*
X142912000Y-69532500D03*
X146812000Y-61232500D03*
X146812000Y-69532500D03*
X142912000Y-61232500D03*
D34*
X170434000Y-69555000D03*
X170434000Y-61255000D03*
D35*
X168484000Y-69555000D03*
X172384000Y-61255000D03*
X172384000Y-69555000D03*
X168484000Y-61255000D03*
D36*
X157734000Y-83947000D03*
D37*
X144300000Y-81900000D03*
D38*
X149300000Y-81900000D03*
D37*
X171200000Y-81900000D03*
D38*
X166200000Y-81900000D03*
D39*
G36*
X152400000Y-79756000D02*
X152410006Y-79805410D01*
X152447015Y-79854648D01*
X157041195Y-83579659D01*
X155818841Y-84913136D01*
X150241000Y-80079008D01*
X150241000Y-63881000D01*
X152400000Y-63881000D01*
X152400000Y-79756000D01*
X152400000Y-79756000D01*
G37*
X152400000Y-79756000D02*
X152410006Y-79805410D01*
X152447015Y-79854648D01*
X157041195Y-83579659D01*
X155818841Y-84913136D01*
X150241000Y-80079008D01*
X150241000Y-63881000D01*
X152400000Y-63881000D01*
X152400000Y-79756000D01*
G36*
X164846000Y-80085211D02*
X159265546Y-85789675D01*
X157535811Y-83713993D01*
X162636595Y-79857303D01*
X162669973Y-79819522D01*
X162687000Y-79756000D01*
X162687000Y-63881000D01*
X164846000Y-63881000D01*
X164846000Y-80085211D01*
X164846000Y-80085211D01*
G37*
X164846000Y-80085211D02*
X159265546Y-85789675D01*
X157535811Y-83713993D01*
X162636595Y-79857303D01*
X162669973Y-79819522D01*
X162687000Y-79756000D01*
X162687000Y-63881000D01*
X164846000Y-63881000D01*
X164846000Y-80085211D01*
M02*
