M48
;DRILL file {KiCad 4.0.7} date 2018 May 01, Tuesday 01:07:59
;FORMAT={-:-/ absolute / inch / decimal}
FMAT,2
INCH,TZ
T1C0.012
T2C0.020
T3C0.028
T4C0.047
%
G90
G05
M72
T1
X4.63Y-3.07
X4.675Y-4.26
X4.685Y-2.455
X4.685Y-2.54
X4.6887Y-3.3911
X4.705Y-4.045
X4.705Y-2.475
X4.787Y-3.891
X4.7923Y-2.5997
X4.795Y-2.705
X4.795Y-2.825
X4.795Y-2.855
X4.8003Y-3.228
X4.805Y-2.29
X4.8122Y-3.5188
X4.8186Y-3.3664
X4.82Y-3.005
X4.8214Y-3.5491
X4.822Y-3.5822
X4.8226Y-3.6129
X4.825Y-3.065
X4.825Y-3.645
X4.85Y-2.565
X4.8534Y-3.8953
X4.855Y-4.1098
X4.86Y-3.72
X4.865Y-3.34
X4.873Y-3.6636
X4.875Y-3.085
X4.88Y-4.15
X4.89Y-3.395
X4.89Y-3.9
X4.895Y-3.73
X4.9019Y-3.7853
X4.91Y-4.125
X4.936Y-2.4
X4.9446Y-4.1032
X4.9545Y-3.407
X4.9595Y-3.0652
X4.963Y-2.4
X4.975Y-3.315
X4.9851Y-3.405
X4.99Y-2.4
X4.99Y-3.025
X4.99Y-3.06
X4.9941Y-2.745
X4.9943Y-2.8799
X4.995Y-3.51
X4.9972Y-3.435
X5.025Y-4.185
X5.03Y-3.71
X5.04Y-3.94
X5.045Y-2.38
X5.0497Y-3.8329
X5.06Y-3.24
X5.0622Y-3.805
X5.07Y-2.585
X5.07Y-3.3783
X5.0709Y-2.5476
X5.075Y-3.75
X5.0791Y-3.9396
X5.0806Y-3.3406
X5.0872Y-3.49
X5.0906Y-3.5394
X5.095Y-4.2848
X5.095Y-2.805
X5.0992Y-3.0397
X5.1Y-2.71
X5.1Y-4.37
X5.1047Y-2.9773
X5.105Y-2.76
X5.105Y-2.87
X5.105Y-2.8352
X5.1063Y-2.9409
X5.1063Y-3.0079
X5.11Y-3.375
X5.11Y-3.935
X5.115Y-4.31
X5.1197Y-3.7673
X5.123Y-4.1928
X5.1401Y-3.9407
X5.145Y-2.76
X5.145Y-2.785
X5.145Y-4.405
X5.155Y-4.1552
X5.155Y-4.2248
X5.1596Y-3.8146
X5.16Y-4.0918
X5.17Y-2.76
X5.17Y-2.785
X5.1798Y-3.935
X5.18Y-2.42
X5.1847Y-4.0097
X5.1853Y-3.8312
X5.1898Y-4.19
X5.1994Y-3.73
X5.21Y-3.94
X5.21Y-4.48
X5.23Y-4.01
X5.235Y-3.73
X5.235Y-2.655
X5.2375Y-3.3825
X5.2379Y-3.7756
X5.25Y-2.715
X5.254Y-3.5038
X5.2541Y-3.2023
X5.26Y-2.655
X5.267Y-2.698
X5.275Y-3.145
X5.275Y-3.775
X5.276Y-3.224
X5.2772Y-3.5505
X5.28Y-2.325
X5.285Y-2.655
X5.29Y-3.16
X5.2922Y-2.8568
X5.2944Y-2.8263
X5.2945Y-3.0458
X5.2947Y-3.0764
X5.295Y-3.33
X5.2956Y-3.107
X5.2992Y-2.9646
X5.2992Y-2.9961
X5.2994Y-2.8866
X5.3017Y-2.7965
X5.3028Y-3.5244
X5.3031Y-2.9331
X5.305Y-3.175
X5.306Y-4.452
X5.31Y-3.7924
X5.3143Y-3.5879
X5.32Y-3.62
X5.32Y-3.655
X5.325Y-4.47
X5.33Y-2.44
X5.33Y-2.5
X5.33Y-2.535
X5.33Y-4.23
X5.345Y-3.865
X5.345Y-4.49
X5.3474Y-3.91
X5.35Y-3.615
X5.351Y-4.058
X5.4Y-4.31
X5.405Y-3.985
X5.41Y-4.49
X5.4107Y-4.1212
X5.4147Y-3.1599
X5.43Y-4.435
X5.4308Y-3.1863
X5.435Y-3.435
X5.442Y-4.312
X5.4446Y-3.831
X5.445Y-3.97
X5.4459Y-3.8701
X5.455Y-3.7185
X5.455Y-3.675
X5.455Y-3.78
X5.455Y-3.6094
X5.4556Y-3.7491
X5.456Y-3.644
X5.46Y-3.905
X5.46Y-4.33
X5.48Y-2.6278
X5.48Y-4.35
X5.4868Y-3.5732
X5.515Y-2.825
X5.515Y-2.975
X5.52Y-2.8868
X5.52Y-2.9426
X5.525Y-3.145
X5.54Y-2.3
X5.5413Y-2.9134
X5.545Y-2.8
X5.595Y-3.14
X5.62Y-3.14
X5.63Y-2.81
X5.63Y-2.8345
X5.63Y-2.859
X5.635Y-2.2
X5.635Y-2.225
X5.635Y-2.25
X5.635Y-2.275
X5.635Y-2.3
X5.635Y-2.325
X5.645Y-3.115
X5.645Y-3.14
X5.65Y-3.0292
X5.6545Y-2.81
X5.6545Y-2.8345
X5.6545Y-2.859
X5.6545Y-2.8835
X5.66Y-2.2
X5.66Y-2.225
X5.66Y-2.25
X5.66Y-2.275
X5.66Y-2.3
X5.66Y-2.325
X5.665Y-2.66
X5.67Y-3.115
X5.67Y-3.14
X5.679Y-2.8345
X5.679Y-2.859
X5.679Y-2.8835
X5.68Y-2.81
X5.685Y-2.2
X5.685Y-2.225
X5.685Y-2.25
X5.685Y-2.275
X5.685Y-2.3
X5.685Y-2.325
X5.695Y-3.115
X5.695Y-3.14
X5.7035Y-2.8345
X5.7035Y-2.859
X5.7035Y-2.8835
X5.71Y-2.2
X5.71Y-2.225
X5.71Y-2.25
X5.71Y-2.275
X5.71Y-2.3
X5.71Y-2.325
X5.72Y-3.115
X5.72Y-3.14
X5.728Y-2.8345
X5.728Y-2.859
X5.728Y-2.8835
X5.735Y-2.2
X5.735Y-2.225
X5.735Y-2.25
X5.735Y-2.275
X5.735Y-2.3
X5.735Y-2.325
X5.745Y-3.115
X5.745Y-3.14
X5.7525Y-2.81
X5.7525Y-2.8345
X5.7525Y-2.859
X5.7525Y-2.8835
X5.76Y-2.2
X5.76Y-2.225
X5.76Y-2.25
X5.76Y-2.275
X5.76Y-2.3
X5.76Y-2.325
X5.77Y-3.115
X5.77Y-3.14
X5.777Y-2.81
X5.777Y-2.8345
X5.777Y-2.859
X5.777Y-2.8835
X5.785Y-2.2
X5.785Y-2.225
X5.785Y-2.25
X5.785Y-2.275
X5.785Y-2.3
X5.785Y-2.325
X5.795Y-3.115
X5.795Y-3.14
X5.8015Y-2.81
X5.8015Y-2.8345
X5.8015Y-2.859
X5.8015Y-2.8835
X5.82Y-3.115
X5.82Y-3.14
X5.826Y-2.81
X5.826Y-2.8345
X5.826Y-2.859
X5.826Y-2.8835
X5.865Y-2.52
X5.865Y-2.543
X5.865Y-2.566
X5.865Y-2.589
X5.865Y-2.612
X5.865Y-2.635
X5.865Y-2.658
X5.888Y-2.52
X5.888Y-2.543
X5.888Y-2.566
X5.888Y-2.589
X5.888Y-2.612
X5.888Y-2.635
X5.888Y-2.658
X5.911Y-2.52
X5.911Y-2.543
X5.911Y-2.566
X5.911Y-2.589
X5.911Y-2.612
X5.911Y-2.635
X5.911Y-2.658
X5.934Y-2.52
X5.934Y-2.543
X5.934Y-2.566
X5.934Y-2.589
X5.934Y-2.612
X5.934Y-2.635
X5.934Y-2.658
X5.957Y-2.52
X5.957Y-2.543
X5.957Y-2.566
X5.957Y-2.589
X5.957Y-2.612
X5.957Y-2.635
X5.957Y-2.658
X5.98Y-2.52
X5.98Y-2.543
X5.98Y-2.566
X5.98Y-2.589
X5.98Y-2.612
X5.98Y-2.635
X5.98Y-2.658
X6.003Y-2.52
X6.003Y-2.543
X6.003Y-2.566
X6.003Y-2.589
X6.003Y-2.612
X6.003Y-2.635
X6.003Y-2.658
X6.005Y-2.43
X6.026Y-2.52
X6.026Y-2.543
X6.026Y-2.566
X6.026Y-2.589
X6.026Y-2.612
X6.026Y-2.635
X6.026Y-2.658
X6.04Y-2.42
X6.049Y-2.52
X6.049Y-2.543
X6.049Y-2.566
X6.049Y-2.589
X6.049Y-2.612
X6.049Y-2.635
X6.049Y-2.658
X6.09Y-3.03
X6.095Y-3.115
X6.095Y-3.14
X6.12Y-3.115
X6.12Y-3.14
X6.125Y-2.81
X6.125Y-2.8345
X6.125Y-2.859
X6.125Y-2.8835
X6.135Y-2.2
X6.135Y-2.225
X6.135Y-2.25
X6.135Y-2.275
X6.135Y-2.3
X6.135Y-2.325
X6.145Y-2.66
X6.145Y-3.115
X6.145Y-3.14
X6.1495Y-2.81
X6.1495Y-2.8345
X6.1495Y-2.859
X6.1495Y-2.8835
X6.16Y-2.2
X6.16Y-2.225
X6.16Y-2.25
X6.16Y-2.275
X6.16Y-2.3
X6.16Y-2.325
X6.17Y-3.115
X6.17Y-3.14
X6.174Y-2.81
X6.174Y-2.8345
X6.174Y-2.859
X6.174Y-2.8835
X6.185Y-2.2
X6.185Y-2.225
X6.185Y-2.25
X6.185Y-2.275
X6.185Y-2.3
X6.185Y-2.325
X6.195Y-3.115
X6.195Y-3.14
X6.1985Y-2.8345
X6.1985Y-2.859
X6.1985Y-2.8835
X6.21Y-2.2
X6.21Y-2.225
X6.21Y-2.25
X6.21Y-2.275
X6.21Y-2.3
X6.21Y-2.325
X6.22Y-3.115
X6.22Y-3.14
X6.223Y-2.8345
X6.223Y-2.859
X6.223Y-2.8835
X6.235Y-2.2
X6.235Y-2.225
X6.235Y-2.25
X6.235Y-2.275
X6.235Y-2.3
X6.235Y-2.325
X6.245Y-3.115
X6.245Y-3.14
X6.2475Y-2.81
X6.2475Y-2.8345
X6.2475Y-2.859
X6.2475Y-2.8835
X6.26Y-2.2
X6.26Y-2.225
X6.26Y-2.25
X6.26Y-2.275
X6.26Y-2.3
X6.26Y-2.325
X6.27Y-3.115
X6.27Y-3.14
X6.272Y-2.81
X6.272Y-2.8345
X6.272Y-2.859
X6.272Y-2.8835
X6.285Y-2.2
X6.285Y-2.225
X6.285Y-2.25
X6.285Y-2.275
X6.285Y-2.3
X6.285Y-2.325
X6.29Y-2.665
X6.295Y-3.115
X6.295Y-3.14
X6.2965Y-2.81
X6.2965Y-2.8345
X6.2965Y-2.859
X6.2965Y-2.8835
X6.32Y-3.115
X6.32Y-3.14
X6.321Y-2.81
X6.321Y-2.8345
X6.321Y-2.859
X6.321Y-2.8835
X6.37Y-2.52
X6.37Y-2.543
X6.37Y-2.566
X6.37Y-2.589
X6.37Y-2.612
X6.37Y-2.635
X6.37Y-2.658
X6.393Y-2.52
X6.393Y-2.543
X6.393Y-2.566
X6.393Y-2.589
X6.393Y-2.612
X6.393Y-2.635
X6.393Y-2.658
X6.416Y-2.52
X6.416Y-2.543
X6.416Y-2.566
X6.416Y-2.589
X6.416Y-2.612
X6.416Y-2.635
X6.416Y-2.658
X6.439Y-2.52
X6.439Y-2.543
X6.439Y-2.566
X6.439Y-2.589
X6.439Y-2.612
X6.439Y-2.635
X6.439Y-2.658
X6.462Y-2.52
X6.462Y-2.543
X6.462Y-2.566
X6.462Y-2.589
X6.462Y-2.612
X6.462Y-2.635
X6.462Y-2.658
X6.485Y-2.52
X6.485Y-2.543
X6.485Y-2.566
X6.485Y-2.589
X6.485Y-2.612
X6.485Y-2.635
X6.485Y-2.658
X6.5Y-2.43
X6.508Y-2.52
X6.508Y-2.543
X6.508Y-2.566
X6.508Y-2.589
X6.508Y-2.612
X6.508Y-2.635
X6.508Y-2.658
X6.531Y-2.52
X6.531Y-2.543
X6.531Y-2.566
X6.531Y-2.589
X6.531Y-2.612
X6.531Y-2.635
X6.531Y-2.658
X6.535Y-2.42
X6.554Y-2.52
X6.554Y-2.543
X6.554Y-2.566
X6.554Y-2.589
X6.554Y-2.612
X6.554Y-2.635
X6.554Y-2.658
X6.595Y-3.115
X6.595Y-3.14
X6.62Y-3.115
X6.62Y-3.14
X6.625Y-2.81
X6.625Y-2.8345
X6.625Y-2.859
X6.625Y-2.8835
X6.635Y-2.2
X6.635Y-2.225
X6.635Y-2.25
X6.635Y-2.275
X6.635Y-2.3
X6.635Y-2.325
X6.645Y-2.66
X6.645Y-3.115
X6.645Y-3.14
X6.6495Y-2.81
X6.6495Y-2.8345
X6.6495Y-2.859
X6.6495Y-2.8835
X6.66Y-2.2
X6.66Y-2.225
X6.66Y-2.25
X6.66Y-2.275
X6.66Y-2.3
X6.66Y-2.325
X6.67Y-3.115
X6.67Y-3.14
X6.674Y-2.81
X6.674Y-2.8345
X6.674Y-2.859
X6.674Y-2.8835
X6.685Y-2.2
X6.685Y-2.225
X6.685Y-2.25
X6.685Y-2.275
X6.685Y-2.3
X6.685Y-2.325
X6.695Y-3.115
X6.695Y-3.14
X6.6985Y-2.8345
X6.6985Y-2.859
X6.6985Y-2.8835
X6.71Y-2.2
X6.71Y-2.225
X6.71Y-2.25
X6.71Y-2.275
X6.71Y-2.3
X6.71Y-2.325
X6.72Y-3.115
X6.72Y-3.14
X6.723Y-2.8345
X6.723Y-2.859
X6.723Y-2.8835
X6.735Y-2.2
X6.735Y-2.225
X6.735Y-2.25
X6.735Y-2.275
X6.735Y-2.3
X6.735Y-2.325
X6.745Y-3.115
X6.745Y-3.14
X6.7475Y-2.81
X6.7475Y-2.8345
X6.7475Y-2.859
X6.7475Y-2.8835
X6.76Y-2.2
X6.76Y-2.225
X6.76Y-2.25
X6.76Y-2.275
X6.76Y-2.3
X6.76Y-2.325
X6.77Y-3.115
X6.77Y-3.14
X6.772Y-2.81
X6.772Y-2.8345
X6.772Y-2.859
X6.772Y-2.8835
X6.785Y-2.2
X6.785Y-2.225
X6.785Y-2.25
X6.785Y-2.275
X6.785Y-2.3
X6.785Y-2.325
X6.795Y-3.14
X6.7965Y-2.81
X6.7965Y-2.8345
X6.7965Y-2.859
X6.82Y-3.14
X6.821Y-2.81
X6.821Y-2.8345
X6.821Y-2.859
T3
X4.6163Y-4.345
X4.645Y-2.6349
X4.645Y-2.7137
X4.645Y-2.7924
X4.645Y-2.8712
X4.645Y-2.95
X4.645Y-4.015
X4.645Y-4.0938
X4.645Y-4.1726
X4.6458Y-3.1284
X4.6458Y-3.2071
X4.6458Y-3.2858
X4.6458Y-3.3646
X4.6458Y-3.4435
X4.6458Y-3.5222
X4.6458Y-3.601
X4.6458Y-3.6798
X4.695Y-4.345
X4.7738Y-4.345
X4.8526Y-4.345
X5.0037Y-2.285
X5.0825Y-2.285
X5.1613Y-2.285
X5.24Y-2.285
X5.3188Y-2.285
X5.3976Y-2.285
T4
X5.69Y-3.225
X5.8869Y-3.225
X6.5331Y-3.225
X6.73Y-3.225
T2
X4.97Y-4.2057G85X4.97Y-4.2333
G05
X4.97Y-4.4262G85X4.97Y-4.4538
G05
X5.0546Y-4.3081G85X5.0546Y-4.3514
G05
T0
M30
