%TF.GenerationSoftware,KiCad,Pcbnew,4.0.7*%
%TF.CreationDate,2018-05-28T12:39:24+08:00*%
%TF.ProjectId,VESC_6,564553435F362E6B696361645F706362,A*%
%TF.FileFunction,Legend,Top*%
%FSLAX46Y46*%
G04 Gerber Fmt 4.6, Leading zero omitted, Abs format (unit mm)*
G04 Created by KiCad (PCBNEW 4.0.7) date 2018 May 28, Monday 12:39:24*
%MOMM*%
%LPD*%
G01*
G04 APERTURE LIST*
%ADD10C,0.100000*%
%ADD11C,0.203200*%
%ADD12C,0.200000*%
%ADD13C,0.101600*%
%ADD14C,0.150000*%
%ADD15C,0.300000*%
%ADD16C,0.127000*%
%ADD17C,0.120000*%
%ADD18C,0.152400*%
%ADD19R,0.750000X0.800000*%
%ADD20R,1.180000X4.700000*%
%ADD21R,1.699260X1.198880*%
%ADD22O,1.699260X1.198880*%
%ADD23R,1.000000X2.500000*%
%ADD24R,1.501140X0.299720*%
%ADD25R,3.599180X7.000240*%
%ADD26R,0.700000X1.300000*%
%ADD27R,1.100000X0.850000*%
%ADD28R,1.100000X1.700000*%
%ADD29R,1.300000X0.700000*%
%ADD30R,0.850000X1.100000*%
%ADD31R,1.700000X1.100000*%
%ADD32C,3.000000*%
%ADD33R,1.198880X1.699260*%
%ADD34O,1.198880X1.699260*%
%ADD35R,0.350000X0.650000*%
%ADD36R,1.200000X0.775000*%
%ADD37O,1.100000X1.800000*%
%ADD38O,1.100000X2.200000*%
%ADD39R,5.000000X4.000000*%
%ADD40R,0.800000X0.750000*%
%ADD41R,0.900000X0.500000*%
%ADD42R,0.500000X0.900000*%
%ADD43R,2.500000X1.000000*%
%ADD44R,1.950000X1.500000*%
%ADD45R,0.304800X1.193800*%
%ADD46R,1.193800X0.304800*%
%ADD47R,2.500000X2.300000*%
%ADD48R,6.000000X5.000000*%
%ADD49C,0.900000*%
%ADD50O,0.200000X0.550000*%
%ADD51O,0.550000X0.200000*%
%ADD52R,1.600000X1.600000*%
%ADD53C,1.600000*%
G04 APERTURE END LIST*
D10*
D11*
X170942000Y-85217000D02*
X170942000Y-86233000D01*
X170434000Y-85725000D02*
X171450000Y-85725000D01*
X144526000Y-85217000D02*
X144526000Y-86233000D01*
X144018000Y-85725000D02*
X145034000Y-85725000D01*
D10*
X165989000Y-82677000D02*
X165989000Y-84455000D01*
X170942000Y-82677000D02*
X170942000Y-84455000D01*
X149606000Y-82677000D02*
X149606000Y-84455000D01*
X144526000Y-82677000D02*
X144526000Y-84455000D01*
D12*
X136400000Y-59200000D02*
X136400000Y-61200000D01*
X136200000Y-59200000D02*
X136200000Y-61200000D01*
X136017000Y-59200000D02*
X136017000Y-61200000D01*
D10*
X120650000Y-82677000D02*
X120650000Y-82931000D01*
X120650000Y-82677000D02*
X120777000Y-82804000D01*
X120650000Y-82931000D02*
X120777000Y-82804000D01*
X130114000Y-103930000D02*
X129733000Y-103549000D01*
X124968000Y-99923600D02*
X125349000Y-99542600D01*
X125349000Y-99542600D02*
X125349000Y-100304600D01*
X125349000Y-100304600D02*
X124968000Y-99923600D01*
X135585200Y-86233000D02*
X135204200Y-85852000D01*
X135966200Y-85852000D02*
X135585200Y-86233000D01*
X135204200Y-85852000D02*
X135966200Y-85852000D01*
X124716540Y-62230000D02*
X124929900Y-62230000D01*
X124729240Y-61424820D02*
X124729240Y-63030100D01*
X124716540Y-62222380D02*
X123576080Y-61478160D01*
X123578620Y-63030100D02*
X124721620Y-62232540D01*
X123576080Y-61480700D02*
X123578620Y-63030100D01*
X123230640Y-62230000D02*
X123576080Y-62230000D01*
X117914420Y-59377580D02*
X117868700Y-59423300D01*
X118734840Y-58557160D02*
X118859300Y-58432700D01*
X118153180Y-58008520D02*
X119250460Y-59103260D01*
X119250460Y-59103260D02*
X117934740Y-59382660D01*
X118150640Y-58018680D02*
X117906800Y-59380120D01*
X117340380Y-58821320D02*
X118470680Y-59954160D01*
D11*
X153543000Y-81788000D02*
X153543000Y-82804000D01*
X153035000Y-82296000D02*
X154051000Y-82296000D01*
D13*
X138684000Y-58039000D02*
X141097000Y-58039000D01*
X139573000Y-58039000D02*
X139573000Y-57531000D01*
X140335000Y-58039000D02*
X140335000Y-57531000D01*
X138811000Y-58039000D02*
X138811000Y-57531000D01*
X138049000Y-58039000D02*
X138811000Y-58039000D01*
X138811000Y-58039000D02*
X138049000Y-58039000D01*
X141097000Y-58039000D02*
X141097000Y-57531000D01*
X140818810Y-56744809D02*
X141326810Y-56575476D01*
X140818810Y-56406142D01*
X141133286Y-56236809D02*
X141133286Y-55849761D01*
X141326810Y-56043285D02*
X140939762Y-56043285D01*
X140056810Y-57180238D02*
X140056810Y-56889952D01*
X140564810Y-57035095D02*
X140056810Y-57035095D01*
X140298714Y-56720619D02*
X140298714Y-56551285D01*
X140564810Y-56478714D02*
X140564810Y-56720619D01*
X140056810Y-56720619D01*
X140056810Y-56478714D01*
X140564810Y-56261000D02*
X140056810Y-56261000D01*
X140419667Y-56091666D01*
X140056810Y-55922333D01*
X140564810Y-55922333D01*
X140564810Y-55680429D02*
X140056810Y-55680429D01*
X140056810Y-55486905D01*
X140081000Y-55438524D01*
X140105190Y-55414333D01*
X140153571Y-55390143D01*
X140226143Y-55390143D01*
X140274524Y-55414333D01*
X140298714Y-55438524D01*
X140322905Y-55486905D01*
X140322905Y-55680429D01*
X139802810Y-56648048D02*
X139294810Y-56648048D01*
X139536714Y-56648048D02*
X139536714Y-56357762D01*
X139802810Y-56357762D02*
X139294810Y-56357762D01*
X139802810Y-55849762D02*
X139802810Y-56140048D01*
X139802810Y-55994905D02*
X139294810Y-55994905D01*
X139367381Y-56043286D01*
X139415762Y-56091667D01*
X139439952Y-56140048D01*
X139040810Y-56648048D02*
X138532810Y-56648048D01*
X138774714Y-56648048D02*
X138774714Y-56357762D01*
X139040810Y-56357762D02*
X138532810Y-56357762D01*
X138581190Y-56140048D02*
X138557000Y-56115858D01*
X138532810Y-56067477D01*
X138532810Y-55946524D01*
X138557000Y-55898143D01*
X138581190Y-55873953D01*
X138629571Y-55849762D01*
X138677952Y-55849762D01*
X138750524Y-55873953D01*
X139040810Y-56164239D01*
X139040810Y-55849762D01*
X129261810Y-56394048D02*
X128753810Y-56394048D01*
X128995714Y-56394048D02*
X128995714Y-56103762D01*
X129261810Y-56103762D02*
X128753810Y-56103762D01*
X128753810Y-55910239D02*
X128753810Y-55595762D01*
X128947333Y-55765096D01*
X128947333Y-55692524D01*
X128971524Y-55644143D01*
X128995714Y-55619953D01*
X129044095Y-55595762D01*
X129165048Y-55595762D01*
X129213429Y-55619953D01*
X129237619Y-55644143D01*
X129261810Y-55692524D01*
X129261810Y-55837667D01*
X129237619Y-55886048D01*
X129213429Y-55910239D01*
X126746000Y-56394047D02*
X126721810Y-56442428D01*
X126721810Y-56515000D01*
X126746000Y-56587571D01*
X126794381Y-56635952D01*
X126842762Y-56660143D01*
X126939524Y-56684333D01*
X127012095Y-56684333D01*
X127108857Y-56660143D01*
X127157238Y-56635952D01*
X127205619Y-56587571D01*
X127229810Y-56515000D01*
X127229810Y-56466619D01*
X127205619Y-56394047D01*
X127181429Y-56369857D01*
X127012095Y-56369857D01*
X127012095Y-56466619D01*
X127229810Y-56152143D02*
X126721810Y-56152143D01*
X127229810Y-55861857D01*
X126721810Y-55861857D01*
X127229810Y-55619953D02*
X126721810Y-55619953D01*
X126721810Y-55499000D01*
X126746000Y-55426429D01*
X126794381Y-55378048D01*
X126842762Y-55353857D01*
X126939524Y-55329667D01*
X127012095Y-55329667D01*
X127108857Y-55353857D01*
X127157238Y-55378048D01*
X127205619Y-55426429D01*
X127229810Y-55499000D01*
X127229810Y-55619953D01*
X115424857Y-85422619D02*
X115497428Y-85446810D01*
X115618381Y-85446810D01*
X115666762Y-85422619D01*
X115690952Y-85398429D01*
X115715143Y-85350048D01*
X115715143Y-85301667D01*
X115690952Y-85253286D01*
X115666762Y-85229095D01*
X115618381Y-85204905D01*
X115521619Y-85180714D01*
X115473238Y-85156524D01*
X115449047Y-85132333D01*
X115424857Y-85083952D01*
X115424857Y-85035571D01*
X115449047Y-84987190D01*
X115473238Y-84963000D01*
X115521619Y-84938810D01*
X115642571Y-84938810D01*
X115715143Y-84963000D01*
X116223143Y-85398429D02*
X116198953Y-85422619D01*
X116126381Y-85446810D01*
X116078000Y-85446810D01*
X116005429Y-85422619D01*
X115957048Y-85374238D01*
X115932857Y-85325857D01*
X115908667Y-85229095D01*
X115908667Y-85156524D01*
X115932857Y-85059762D01*
X115957048Y-85011381D01*
X116005429Y-84963000D01*
X116078000Y-84938810D01*
X116126381Y-84938810D01*
X116198953Y-84963000D01*
X116223143Y-84987190D01*
X116440857Y-85446810D02*
X116440857Y-84938810D01*
X116731143Y-85446810D02*
X116513429Y-85156524D01*
X116731143Y-84938810D02*
X116440857Y-85229095D01*
X115461143Y-83771619D02*
X115533714Y-83795810D01*
X115654667Y-83795810D01*
X115703048Y-83771619D01*
X115727238Y-83747429D01*
X115751429Y-83699048D01*
X115751429Y-83650667D01*
X115727238Y-83602286D01*
X115703048Y-83578095D01*
X115654667Y-83553905D01*
X115557905Y-83529714D01*
X115509524Y-83505524D01*
X115485333Y-83481333D01*
X115461143Y-83432952D01*
X115461143Y-83384571D01*
X115485333Y-83336190D01*
X115509524Y-83312000D01*
X115557905Y-83287810D01*
X115678857Y-83287810D01*
X115751429Y-83312000D01*
X115969143Y-83795810D02*
X115969143Y-83287810D01*
X116090096Y-83287810D01*
X116162667Y-83312000D01*
X116211048Y-83360381D01*
X116235239Y-83408762D01*
X116259429Y-83505524D01*
X116259429Y-83578095D01*
X116235239Y-83674857D01*
X116211048Y-83723238D01*
X116162667Y-83771619D01*
X116090096Y-83795810D01*
X115969143Y-83795810D01*
X116452953Y-83650667D02*
X116694858Y-83650667D01*
X116404572Y-83795810D02*
X116573905Y-83287810D01*
X116743239Y-83795810D01*
X115449047Y-82525810D02*
X115449047Y-82017810D01*
X115739333Y-82525810D01*
X115739333Y-82017810D01*
X115957047Y-82501619D02*
X116029618Y-82525810D01*
X116150571Y-82525810D01*
X116198952Y-82501619D01*
X116223142Y-82477429D01*
X116247333Y-82429048D01*
X116247333Y-82380667D01*
X116223142Y-82332286D01*
X116198952Y-82308095D01*
X116150571Y-82283905D01*
X116053809Y-82259714D01*
X116005428Y-82235524D01*
X115981237Y-82211333D01*
X115957047Y-82162952D01*
X115957047Y-82114571D01*
X115981237Y-82066190D01*
X116005428Y-82042000D01*
X116053809Y-82017810D01*
X116174761Y-82017810D01*
X116247333Y-82042000D01*
X116440857Y-82501619D02*
X116513428Y-82525810D01*
X116634381Y-82525810D01*
X116682762Y-82501619D01*
X116706952Y-82477429D01*
X116731143Y-82429048D01*
X116731143Y-82380667D01*
X116706952Y-82332286D01*
X116682762Y-82308095D01*
X116634381Y-82283905D01*
X116537619Y-82259714D01*
X116489238Y-82235524D01*
X116465047Y-82211333D01*
X116440857Y-82162952D01*
X116440857Y-82114571D01*
X116465047Y-82066190D01*
X116489238Y-82042000D01*
X116537619Y-82017810D01*
X116658571Y-82017810D01*
X116731143Y-82042000D01*
X115600238Y-81739619D02*
X115672809Y-81763810D01*
X115793762Y-81763810D01*
X115842143Y-81739619D01*
X115866333Y-81715429D01*
X115890524Y-81667048D01*
X115890524Y-81618667D01*
X115866333Y-81570286D01*
X115842143Y-81546095D01*
X115793762Y-81521905D01*
X115697000Y-81497714D01*
X115648619Y-81473524D01*
X115624428Y-81449333D01*
X115600238Y-81400952D01*
X115600238Y-81352571D01*
X115624428Y-81304190D01*
X115648619Y-81280000D01*
X115697000Y-81255810D01*
X115817952Y-81255810D01*
X115890524Y-81280000D01*
X116398524Y-81715429D02*
X116374334Y-81739619D01*
X116301762Y-81763810D01*
X116253381Y-81763810D01*
X116180810Y-81739619D01*
X116132429Y-81691238D01*
X116108238Y-81642857D01*
X116084048Y-81546095D01*
X116084048Y-81473524D01*
X116108238Y-81376762D01*
X116132429Y-81328381D01*
X116180810Y-81280000D01*
X116253381Y-81255810D01*
X116301762Y-81255810D01*
X116374334Y-81280000D01*
X116398524Y-81304190D01*
X116858143Y-81763810D02*
X116616238Y-81763810D01*
X116616238Y-81255810D01*
X115993333Y-81128810D02*
X115824000Y-80886905D01*
X115703047Y-81128810D02*
X115703047Y-80620810D01*
X115896571Y-80620810D01*
X115944952Y-80645000D01*
X115969143Y-80669190D01*
X115993333Y-80717571D01*
X115993333Y-80790143D01*
X115969143Y-80838524D01*
X115944952Y-80862714D01*
X115896571Y-80886905D01*
X115703047Y-80886905D01*
X116162666Y-80620810D02*
X116501333Y-81128810D01*
X116501333Y-80620810D02*
X116162666Y-81128810D01*
X115461143Y-79205667D02*
X115703048Y-79205667D01*
X115412762Y-79350810D02*
X115582095Y-78842810D01*
X115751429Y-79350810D01*
X115920762Y-79350810D02*
X115920762Y-78842810D01*
X116041715Y-78842810D01*
X116114286Y-78867000D01*
X116162667Y-78915381D01*
X116186858Y-78963762D01*
X116211048Y-79060524D01*
X116211048Y-79133095D01*
X116186858Y-79229857D01*
X116162667Y-79278238D01*
X116114286Y-79326619D01*
X116041715Y-79350810D01*
X115920762Y-79350810D01*
X116404572Y-78891190D02*
X116428762Y-78867000D01*
X116477143Y-78842810D01*
X116598096Y-78842810D01*
X116646477Y-78867000D01*
X116670667Y-78891190D01*
X116694858Y-78939571D01*
X116694858Y-78987952D01*
X116670667Y-79060524D01*
X116380381Y-79350810D01*
X116694858Y-79350810D01*
D12*
X140793500Y-84474500D02*
X153293500Y-84474500D01*
X153293500Y-114474500D02*
X140793500Y-114474500D01*
X140793500Y-114474500D02*
X140793500Y-84474500D01*
X153293500Y-84474500D02*
X153293500Y-114474500D01*
D13*
X127483810Y-112401048D02*
X127895048Y-112401048D01*
X127943429Y-112376857D01*
X127967619Y-112352667D01*
X127991810Y-112304286D01*
X127991810Y-112207524D01*
X127967619Y-112159143D01*
X127943429Y-112134952D01*
X127895048Y-112110762D01*
X127483810Y-112110762D01*
X127967619Y-111893048D02*
X127991810Y-111820477D01*
X127991810Y-111699524D01*
X127967619Y-111651143D01*
X127943429Y-111626953D01*
X127895048Y-111602762D01*
X127846667Y-111602762D01*
X127798286Y-111626953D01*
X127774095Y-111651143D01*
X127749905Y-111699524D01*
X127725714Y-111796286D01*
X127701524Y-111844667D01*
X127677333Y-111868858D01*
X127628952Y-111893048D01*
X127580571Y-111893048D01*
X127532190Y-111868858D01*
X127508000Y-111844667D01*
X127483810Y-111796286D01*
X127483810Y-111675334D01*
X127508000Y-111602762D01*
X127725714Y-111215714D02*
X127749905Y-111143143D01*
X127774095Y-111118952D01*
X127822476Y-111094762D01*
X127895048Y-111094762D01*
X127943429Y-111118952D01*
X127967619Y-111143143D01*
X127991810Y-111191524D01*
X127991810Y-111385048D01*
X127483810Y-111385048D01*
X127483810Y-111215714D01*
X127508000Y-111167333D01*
X127532190Y-111143143D01*
X127580571Y-111118952D01*
X127628952Y-111118952D01*
X127677333Y-111143143D01*
X127701524Y-111167333D01*
X127725714Y-111215714D01*
X127725714Y-111385048D01*
X123063000Y-112401047D02*
X123038810Y-112449428D01*
X123038810Y-112522000D01*
X123063000Y-112594571D01*
X123111381Y-112642952D01*
X123159762Y-112667143D01*
X123256524Y-112691333D01*
X123329095Y-112691333D01*
X123425857Y-112667143D01*
X123474238Y-112642952D01*
X123522619Y-112594571D01*
X123546810Y-112522000D01*
X123546810Y-112473619D01*
X123522619Y-112401047D01*
X123498429Y-112376857D01*
X123329095Y-112376857D01*
X123329095Y-112473619D01*
X123546810Y-112159143D02*
X123038810Y-112159143D01*
X123546810Y-111868857D01*
X123038810Y-111868857D01*
X123546810Y-111626953D02*
X123038810Y-111626953D01*
X123038810Y-111506000D01*
X123063000Y-111433429D01*
X123111381Y-111385048D01*
X123159762Y-111360857D01*
X123256524Y-111336667D01*
X123329095Y-111336667D01*
X123425857Y-111360857D01*
X123474238Y-111385048D01*
X123522619Y-111433429D01*
X123546810Y-111506000D01*
X123546810Y-111626953D01*
X121466429Y-112546190D02*
X121490619Y-112570380D01*
X121514810Y-112642952D01*
X121514810Y-112691333D01*
X121490619Y-112763904D01*
X121442238Y-112812285D01*
X121393857Y-112836476D01*
X121297095Y-112860666D01*
X121224524Y-112860666D01*
X121127762Y-112836476D01*
X121079381Y-112812285D01*
X121031000Y-112763904D01*
X121006810Y-112691333D01*
X121006810Y-112642952D01*
X121031000Y-112570380D01*
X121055190Y-112546190D01*
X121369667Y-112352666D02*
X121369667Y-112110761D01*
X121514810Y-112401047D02*
X121006810Y-112231714D01*
X121514810Y-112062380D01*
X121514810Y-111893047D02*
X121006810Y-111893047D01*
X121514810Y-111602761D01*
X121006810Y-111602761D01*
X121514810Y-111118952D02*
X121514810Y-111360857D01*
X121006810Y-111360857D01*
X119434429Y-112606666D02*
X119458619Y-112630856D01*
X119482810Y-112703428D01*
X119482810Y-112751809D01*
X119458619Y-112824380D01*
X119410238Y-112872761D01*
X119361857Y-112896952D01*
X119265095Y-112921142D01*
X119192524Y-112921142D01*
X119095762Y-112896952D01*
X119047381Y-112872761D01*
X118999000Y-112824380D01*
X118974810Y-112751809D01*
X118974810Y-112703428D01*
X118999000Y-112630856D01*
X119023190Y-112606666D01*
X119337667Y-112413142D02*
X119337667Y-112171237D01*
X119482810Y-112461523D02*
X118974810Y-112292190D01*
X119482810Y-112122856D01*
X119482810Y-111953523D02*
X118974810Y-111953523D01*
X119482810Y-111663237D01*
X118974810Y-111663237D01*
X119482810Y-111421333D02*
X118974810Y-111421333D01*
X119216714Y-111421333D02*
X119216714Y-111131047D01*
X119482810Y-111131047D02*
X118974810Y-111131047D01*
X116942810Y-112110762D02*
X116942810Y-112352667D01*
X117184714Y-112376857D01*
X117160524Y-112352667D01*
X117136333Y-112304286D01*
X117136333Y-112183333D01*
X117160524Y-112134952D01*
X117184714Y-112110762D01*
X117233095Y-112086571D01*
X117354048Y-112086571D01*
X117402429Y-112110762D01*
X117426619Y-112134952D01*
X117450810Y-112183333D01*
X117450810Y-112304286D01*
X117426619Y-112352667D01*
X117402429Y-112376857D01*
X116942810Y-111941428D02*
X117450810Y-111772095D01*
X116942810Y-111602761D01*
X115690953Y-105156000D02*
X115642572Y-105131810D01*
X115570000Y-105131810D01*
X115497429Y-105156000D01*
X115449048Y-105204381D01*
X115424857Y-105252762D01*
X115400667Y-105349524D01*
X115400667Y-105422095D01*
X115424857Y-105518857D01*
X115449048Y-105567238D01*
X115497429Y-105615619D01*
X115570000Y-105639810D01*
X115618381Y-105639810D01*
X115690953Y-105615619D01*
X115715143Y-105591429D01*
X115715143Y-105422095D01*
X115618381Y-105422095D01*
X115932857Y-105639810D02*
X115932857Y-105131810D01*
X116223143Y-105639810D01*
X116223143Y-105131810D01*
X116465047Y-105639810D02*
X116465047Y-105131810D01*
X116586000Y-105131810D01*
X116658571Y-105156000D01*
X116706952Y-105204381D01*
X116731143Y-105252762D01*
X116755333Y-105349524D01*
X116755333Y-105422095D01*
X116731143Y-105518857D01*
X116706952Y-105567238D01*
X116658571Y-105615619D01*
X116586000Y-105639810D01*
X116465047Y-105639810D01*
X115461143Y-101551619D02*
X115533714Y-101575810D01*
X115654667Y-101575810D01*
X115703048Y-101551619D01*
X115727238Y-101527429D01*
X115751429Y-101479048D01*
X115751429Y-101430667D01*
X115727238Y-101382286D01*
X115703048Y-101358095D01*
X115654667Y-101333905D01*
X115557905Y-101309714D01*
X115509524Y-101285524D01*
X115485333Y-101261333D01*
X115461143Y-101212952D01*
X115461143Y-101164571D01*
X115485333Y-101116190D01*
X115509524Y-101092000D01*
X115557905Y-101067810D01*
X115678857Y-101067810D01*
X115751429Y-101092000D01*
X116259429Y-101575810D02*
X116090096Y-101333905D01*
X115969143Y-101575810D02*
X115969143Y-101067810D01*
X116162667Y-101067810D01*
X116211048Y-101092000D01*
X116235239Y-101116190D01*
X116259429Y-101164571D01*
X116259429Y-101237143D01*
X116235239Y-101285524D01*
X116211048Y-101309714D01*
X116162667Y-101333905D01*
X115969143Y-101333905D01*
X116404572Y-101067810D02*
X116573905Y-101575810D01*
X116743239Y-101067810D01*
X115981238Y-103099810D02*
X115739333Y-103099810D01*
X115715143Y-103341714D01*
X115739333Y-103317524D01*
X115787714Y-103293333D01*
X115908667Y-103293333D01*
X115957048Y-103317524D01*
X115981238Y-103341714D01*
X116005429Y-103390095D01*
X116005429Y-103511048D01*
X115981238Y-103559429D01*
X115957048Y-103583619D01*
X115908667Y-103607810D01*
X115787714Y-103607810D01*
X115739333Y-103583619D01*
X115715143Y-103559429D01*
X116150572Y-103099810D02*
X116319905Y-103607810D01*
X116489239Y-103099810D01*
X115981238Y-90653810D02*
X115739333Y-90653810D01*
X115715143Y-90895714D01*
X115739333Y-90871524D01*
X115787714Y-90847333D01*
X115908667Y-90847333D01*
X115957048Y-90871524D01*
X115981238Y-90895714D01*
X116005429Y-90944095D01*
X116005429Y-91065048D01*
X115981238Y-91113429D01*
X115957048Y-91137619D01*
X115908667Y-91161810D01*
X115787714Y-91161810D01*
X115739333Y-91137619D01*
X115715143Y-91113429D01*
X116150572Y-90653810D02*
X116319905Y-91161810D01*
X116489239Y-90653810D01*
X115328094Y-88621810D02*
X115642571Y-88621810D01*
X115473237Y-88815333D01*
X115545809Y-88815333D01*
X115594190Y-88839524D01*
X115618380Y-88863714D01*
X115642571Y-88912095D01*
X115642571Y-89033048D01*
X115618380Y-89081429D01*
X115594190Y-89105619D01*
X115545809Y-89129810D01*
X115400666Y-89129810D01*
X115352285Y-89105619D01*
X115328094Y-89081429D01*
X115860285Y-89081429D02*
X115884476Y-89105619D01*
X115860285Y-89129810D01*
X115836095Y-89105619D01*
X115860285Y-89081429D01*
X115860285Y-89129810D01*
X116053809Y-88621810D02*
X116368286Y-88621810D01*
X116198952Y-88815333D01*
X116271524Y-88815333D01*
X116319905Y-88839524D01*
X116344095Y-88863714D01*
X116368286Y-88912095D01*
X116368286Y-89033048D01*
X116344095Y-89081429D01*
X116319905Y-89105619D01*
X116271524Y-89129810D01*
X116126381Y-89129810D01*
X116078000Y-89105619D01*
X116053809Y-89081429D01*
X116513429Y-88621810D02*
X116682762Y-89129810D01*
X116852096Y-88621810D01*
X115690953Y-86614000D02*
X115642572Y-86589810D01*
X115570000Y-86589810D01*
X115497429Y-86614000D01*
X115449048Y-86662381D01*
X115424857Y-86710762D01*
X115400667Y-86807524D01*
X115400667Y-86880095D01*
X115424857Y-86976857D01*
X115449048Y-87025238D01*
X115497429Y-87073619D01*
X115570000Y-87097810D01*
X115618381Y-87097810D01*
X115690953Y-87073619D01*
X115715143Y-87049429D01*
X115715143Y-86880095D01*
X115618381Y-86880095D01*
X115932857Y-87097810D02*
X115932857Y-86589810D01*
X116223143Y-87097810D01*
X116223143Y-86589810D01*
X116465047Y-87097810D02*
X116465047Y-86589810D01*
X116586000Y-86589810D01*
X116658571Y-86614000D01*
X116706952Y-86662381D01*
X116731143Y-86710762D01*
X116755333Y-86807524D01*
X116755333Y-86880095D01*
X116731143Y-86976857D01*
X116706952Y-87025238D01*
X116658571Y-87073619D01*
X116586000Y-87097810D01*
X116465047Y-87097810D01*
X115449048Y-84666667D02*
X115690953Y-84666667D01*
X115400667Y-84811810D02*
X115570000Y-84303810D01*
X115739334Y-84811810D01*
X115908667Y-84811810D02*
X115908667Y-84303810D01*
X116029620Y-84303810D01*
X116102191Y-84328000D01*
X116150572Y-84376381D01*
X116174763Y-84424762D01*
X116198953Y-84521524D01*
X116198953Y-84594095D01*
X116174763Y-84690857D01*
X116150572Y-84739238D01*
X116102191Y-84787619D01*
X116029620Y-84811810D01*
X115908667Y-84811810D01*
X116706953Y-84763429D02*
X116682763Y-84787619D01*
X116610191Y-84811810D01*
X116561810Y-84811810D01*
X116489239Y-84787619D01*
X116440858Y-84739238D01*
X116416667Y-84690857D01*
X116392477Y-84594095D01*
X116392477Y-84521524D01*
X116416667Y-84424762D01*
X116440858Y-84376381D01*
X116489239Y-84328000D01*
X116561810Y-84303810D01*
X116610191Y-84303810D01*
X116682763Y-84328000D01*
X116706953Y-84352190D01*
X115690952Y-82652810D02*
X115981238Y-82652810D01*
X115836095Y-83160810D02*
X115836095Y-82652810D01*
X116102190Y-82652810D02*
X116440857Y-83160810D01*
X116440857Y-82652810D02*
X116102190Y-83160810D01*
X115406714Y-80493810D02*
X115406714Y-79985810D01*
X115576048Y-80348667D01*
X115745381Y-79985810D01*
X115745381Y-80493810D01*
X116084047Y-79985810D02*
X116180809Y-79985810D01*
X116229190Y-80010000D01*
X116277571Y-80058381D01*
X116301762Y-80155143D01*
X116301762Y-80324476D01*
X116277571Y-80421238D01*
X116229190Y-80469619D01*
X116180809Y-80493810D01*
X116084047Y-80493810D01*
X116035666Y-80469619D01*
X115987285Y-80421238D01*
X115963095Y-80324476D01*
X115963095Y-80155143D01*
X115987285Y-80058381D01*
X116035666Y-80010000D01*
X116084047Y-79985810D01*
X116495285Y-80469619D02*
X116567856Y-80493810D01*
X116688809Y-80493810D01*
X116737190Y-80469619D01*
X116761380Y-80445429D01*
X116785571Y-80397048D01*
X116785571Y-80348667D01*
X116761380Y-80300286D01*
X116737190Y-80276095D01*
X116688809Y-80251905D01*
X116592047Y-80227714D01*
X116543666Y-80203524D01*
X116519475Y-80179333D01*
X116495285Y-80130952D01*
X116495285Y-80082571D01*
X116519475Y-80034190D01*
X116543666Y-80010000D01*
X116592047Y-79985810D01*
X116712999Y-79985810D01*
X116785571Y-80010000D01*
X117003285Y-80493810D02*
X117003285Y-79985810D01*
X115406714Y-78715810D02*
X115406714Y-78207810D01*
X115576048Y-78570667D01*
X115745381Y-78207810D01*
X115745381Y-78715810D01*
X115987285Y-78715810D02*
X115987285Y-78207810D01*
X116205000Y-78691619D02*
X116277571Y-78715810D01*
X116398524Y-78715810D01*
X116446905Y-78691619D01*
X116471095Y-78667429D01*
X116495286Y-78619048D01*
X116495286Y-78570667D01*
X116471095Y-78522286D01*
X116446905Y-78498095D01*
X116398524Y-78473905D01*
X116301762Y-78449714D01*
X116253381Y-78425524D01*
X116229190Y-78401333D01*
X116205000Y-78352952D01*
X116205000Y-78304571D01*
X116229190Y-78256190D01*
X116253381Y-78232000D01*
X116301762Y-78207810D01*
X116422714Y-78207810D01*
X116495286Y-78232000D01*
X116809762Y-78207810D02*
X116906524Y-78207810D01*
X116954905Y-78232000D01*
X117003286Y-78280381D01*
X117027477Y-78377143D01*
X117027477Y-78546476D01*
X117003286Y-78643238D01*
X116954905Y-78691619D01*
X116906524Y-78715810D01*
X116809762Y-78715810D01*
X116761381Y-78691619D01*
X116713000Y-78643238D01*
X116688810Y-78546476D01*
X116688810Y-78377143D01*
X116713000Y-78280381D01*
X116761381Y-78232000D01*
X116809762Y-78207810D01*
X115461143Y-76919667D02*
X115703048Y-76919667D01*
X115412762Y-77064810D02*
X115582095Y-76556810D01*
X115751429Y-77064810D01*
X115920762Y-77064810D02*
X115920762Y-76556810D01*
X116041715Y-76556810D01*
X116114286Y-76581000D01*
X116162667Y-76629381D01*
X116186858Y-76677762D01*
X116211048Y-76774524D01*
X116211048Y-76847095D01*
X116186858Y-76943857D01*
X116162667Y-76992238D01*
X116114286Y-77040619D01*
X116041715Y-77064810D01*
X115920762Y-77064810D01*
X116380381Y-76556810D02*
X116694858Y-76556810D01*
X116525524Y-76750333D01*
X116598096Y-76750333D01*
X116646477Y-76774524D01*
X116670667Y-76798714D01*
X116694858Y-76847095D01*
X116694858Y-76968048D01*
X116670667Y-77016429D01*
X116646477Y-77040619D01*
X116598096Y-77064810D01*
X116452953Y-77064810D01*
X116404572Y-77040619D01*
X116380381Y-77016429D01*
X115799809Y-72746810D02*
X115630476Y-72504905D01*
X115509523Y-72746810D02*
X115509523Y-72238810D01*
X115703047Y-72238810D01*
X115751428Y-72263000D01*
X115775619Y-72287190D01*
X115799809Y-72335571D01*
X115799809Y-72408143D01*
X115775619Y-72456524D01*
X115751428Y-72480714D01*
X115703047Y-72504905D01*
X115509523Y-72504905D01*
X115993333Y-72722619D02*
X116065904Y-72746810D01*
X116186857Y-72746810D01*
X116235238Y-72722619D01*
X116259428Y-72698429D01*
X116283619Y-72650048D01*
X116283619Y-72601667D01*
X116259428Y-72553286D01*
X116235238Y-72529095D01*
X116186857Y-72504905D01*
X116090095Y-72480714D01*
X116041714Y-72456524D01*
X116017523Y-72432333D01*
X115993333Y-72383952D01*
X115993333Y-72335571D01*
X116017523Y-72287190D01*
X116041714Y-72263000D01*
X116090095Y-72238810D01*
X116211047Y-72238810D01*
X116283619Y-72263000D01*
X116428762Y-72238810D02*
X116719048Y-72238810D01*
X116573905Y-72746810D02*
X116573905Y-72238810D01*
X115938905Y-70714810D02*
X115938905Y-70206810D01*
X116277572Y-70206810D02*
X116374334Y-70206810D01*
X116422715Y-70231000D01*
X116471096Y-70279381D01*
X116495287Y-70376143D01*
X116495287Y-70545476D01*
X116471096Y-70642238D01*
X116422715Y-70690619D01*
X116374334Y-70714810D01*
X116277572Y-70714810D01*
X116229191Y-70690619D01*
X116180810Y-70642238D01*
X116156620Y-70545476D01*
X116156620Y-70376143D01*
X116180810Y-70279381D01*
X116229191Y-70231000D01*
X116277572Y-70206810D01*
X115817953Y-68199000D02*
X115769572Y-68174810D01*
X115697000Y-68174810D01*
X115624429Y-68199000D01*
X115576048Y-68247381D01*
X115551857Y-68295762D01*
X115527667Y-68392524D01*
X115527667Y-68465095D01*
X115551857Y-68561857D01*
X115576048Y-68610238D01*
X115624429Y-68658619D01*
X115697000Y-68682810D01*
X115745381Y-68682810D01*
X115817953Y-68658619D01*
X115842143Y-68634429D01*
X115842143Y-68465095D01*
X115745381Y-68465095D01*
X116059857Y-68682810D02*
X116059857Y-68174810D01*
X116350143Y-68682810D01*
X116350143Y-68174810D01*
X116592047Y-68682810D02*
X116592047Y-68174810D01*
X116713000Y-68174810D01*
X116785571Y-68199000D01*
X116833952Y-68247381D01*
X116858143Y-68295762D01*
X116882333Y-68392524D01*
X116882333Y-68465095D01*
X116858143Y-68561857D01*
X116833952Y-68610238D01*
X116785571Y-68658619D01*
X116713000Y-68682810D01*
X116592047Y-68682810D01*
X115902619Y-66602429D02*
X115878429Y-66626619D01*
X115805857Y-66650810D01*
X115757476Y-66650810D01*
X115684905Y-66626619D01*
X115636524Y-66578238D01*
X115612333Y-66529857D01*
X115588143Y-66433095D01*
X115588143Y-66360524D01*
X115612333Y-66263762D01*
X115636524Y-66215381D01*
X115684905Y-66167000D01*
X115757476Y-66142810D01*
X115805857Y-66142810D01*
X115878429Y-66167000D01*
X115902619Y-66191190D01*
X116362238Y-66650810D02*
X116120333Y-66650810D01*
X116120333Y-66142810D01*
X116531571Y-66650810D02*
X116531571Y-66142810D01*
X116821857Y-66650810D02*
X116604143Y-66360524D01*
X116821857Y-66142810D02*
X116531571Y-66433095D01*
X115527667Y-64110810D02*
X115697000Y-64618810D01*
X115866334Y-64110810D01*
X116325953Y-64570429D02*
X116301763Y-64594619D01*
X116229191Y-64618810D01*
X116180810Y-64618810D01*
X116108239Y-64594619D01*
X116059858Y-64546238D01*
X116035667Y-64497857D01*
X116011477Y-64401095D01*
X116011477Y-64328524D01*
X116035667Y-64231762D01*
X116059858Y-64183381D01*
X116108239Y-64135000D01*
X116180810Y-64110810D01*
X116229191Y-64110810D01*
X116301763Y-64135000D01*
X116325953Y-64159190D01*
X116833953Y-64570429D02*
X116809763Y-64594619D01*
X116737191Y-64618810D01*
X116688810Y-64618810D01*
X116616239Y-64594619D01*
X116567858Y-64546238D01*
X116543667Y-64497857D01*
X116519477Y-64401095D01*
X116519477Y-64328524D01*
X116543667Y-64231762D01*
X116567858Y-64183381D01*
X116616239Y-64135000D01*
X116688810Y-64110810D01*
X116737191Y-64110810D01*
X116809763Y-64135000D01*
X116833953Y-64159190D01*
D12*
X174685500Y-84474500D02*
X174685500Y-114474500D01*
X174685500Y-114474500D02*
X162185500Y-114474500D01*
X162185500Y-114474500D02*
X162185500Y-84474500D01*
X162185500Y-84474500D02*
X174685500Y-84474500D01*
D14*
X119923000Y-88234000D02*
X119923000Y-87534000D01*
X121123000Y-87534000D02*
X121123000Y-88234000D01*
X128447000Y-65070000D02*
X128447000Y-59390000D01*
X133927000Y-65070000D02*
X128447000Y-65070000D01*
X133927000Y-59390000D02*
X133927000Y-65070000D01*
X128447000Y-59390000D02*
X133927000Y-59390000D01*
D15*
X134187000Y-65230000D02*
X133187000Y-65230000D01*
X128187000Y-65230000D02*
X129187000Y-65230000D01*
X134187000Y-59230000D02*
X133187000Y-59230000D01*
X128187000Y-59230000D02*
X129187000Y-59230000D01*
X134187000Y-65230000D02*
X134187000Y-59230000D01*
X128187000Y-59230000D02*
X128187000Y-65230000D01*
D14*
X131334000Y-85041000D02*
X133334000Y-85041000D01*
X133334000Y-82091000D02*
X131334000Y-82091000D01*
X128052751Y-108761777D02*
X127557777Y-109256751D01*
X126709249Y-108408223D02*
X127204223Y-107913249D01*
X136361249Y-105995223D02*
X136856223Y-105500249D01*
X137704751Y-106348777D02*
X137209777Y-106843751D01*
X135186150Y-105032256D02*
X135893256Y-104325150D01*
X136847850Y-105279744D02*
X136140744Y-105986850D01*
D16*
X129461260Y-66771520D02*
X129461260Y-81770220D01*
X135460740Y-81770220D02*
X135460740Y-66771520D01*
X135460740Y-81770220D02*
X129461260Y-81770220D01*
X129461260Y-66771520D02*
X135460740Y-66771520D01*
X130510478Y-67287140D02*
G75*
G03X130510478Y-67287140I-406598J0D01*
G01*
D17*
X132388614Y-108711721D02*
X133095721Y-108004614D01*
X134057386Y-108966279D02*
X133350279Y-109673386D01*
D14*
X134529751Y-103173777D02*
X134034777Y-103668751D01*
X133186249Y-102820223D02*
X133681223Y-102325249D01*
D17*
X163587960Y-73014840D02*
X164710640Y-73014840D01*
X172534000Y-72792000D02*
X164934000Y-72792000D01*
X172757360Y-73014840D02*
X172534000Y-72792000D01*
X164710640Y-73014840D02*
X164934000Y-72792000D01*
X172534000Y-79862000D02*
X164934000Y-79862000D01*
X172757360Y-79639160D02*
X172534000Y-79862000D01*
X164710640Y-79639160D02*
X164934000Y-79862000D01*
X167080840Y-70440040D02*
X167080840Y-69317360D01*
X166858000Y-61494000D02*
X166858000Y-69094000D01*
X167080840Y-61270640D02*
X166858000Y-61494000D01*
X167080840Y-69317360D02*
X166858000Y-69094000D01*
X173928000Y-61494000D02*
X173928000Y-69094000D01*
X173705160Y-61270640D02*
X173928000Y-61494000D01*
X173705160Y-69317360D02*
X173928000Y-69094000D01*
X141587960Y-73014840D02*
X142710640Y-73014840D01*
X150534000Y-72792000D02*
X142934000Y-72792000D01*
X150757360Y-73014840D02*
X150534000Y-72792000D01*
X142710640Y-73014840D02*
X142934000Y-72792000D01*
X150534000Y-79862000D02*
X142934000Y-79862000D01*
X150757360Y-79639160D02*
X150534000Y-79862000D01*
X142710640Y-79639160D02*
X142934000Y-79862000D01*
X135128279Y-108766614D02*
X135835386Y-109473721D01*
X134873721Y-110435386D02*
X134166614Y-109728279D01*
X133930386Y-110972879D02*
X133223279Y-111679986D01*
X132261614Y-110718321D02*
X132968721Y-110011214D01*
D14*
X121600000Y-100241500D02*
X121600000Y-102691500D01*
X124850000Y-99516500D02*
X124850000Y-102691500D01*
X134231559Y-106426000D02*
X133683551Y-106974008D01*
X128150441Y-106426000D02*
X128698449Y-105877992D01*
X131191000Y-109466559D02*
X131739008Y-108918551D01*
X131191000Y-103385441D02*
X131739008Y-103933449D01*
X128150441Y-106426000D02*
X128698449Y-106974008D01*
X131191000Y-109466559D02*
X130642992Y-108918551D01*
X134231559Y-106426000D02*
X133683551Y-105877992D01*
D17*
X141774840Y-70424040D02*
X141774840Y-69301360D01*
X141552000Y-61478000D02*
X141552000Y-69078000D01*
X141774840Y-61254640D02*
X141552000Y-61478000D01*
X141774840Y-69301360D02*
X141552000Y-69078000D01*
X148622000Y-61478000D02*
X148622000Y-69078000D01*
X148399160Y-61254640D02*
X148622000Y-61478000D01*
X148399160Y-69301360D02*
X148622000Y-69078000D01*
X152574960Y-73014840D02*
X153697640Y-73014840D01*
X161521000Y-72792000D02*
X153921000Y-72792000D01*
X161744360Y-73014840D02*
X161521000Y-72792000D01*
X153697640Y-73014840D02*
X153921000Y-72792000D01*
X161521000Y-79862000D02*
X153921000Y-79862000D01*
X161744360Y-79639160D02*
X161521000Y-79862000D01*
X153697640Y-79639160D02*
X153921000Y-79862000D01*
X154421840Y-70424040D02*
X154421840Y-69301360D01*
X154199000Y-61478000D02*
X154199000Y-69078000D01*
X154421840Y-61254640D02*
X154199000Y-61478000D01*
X154421840Y-69301360D02*
X154199000Y-69078000D01*
X161269000Y-61478000D02*
X161269000Y-69078000D01*
X161046160Y-61254640D02*
X161269000Y-61478000D01*
X161046160Y-69301360D02*
X161269000Y-69078000D01*
D14*
X148584000Y-68213000D02*
X148584000Y-63613000D01*
X148584000Y-63613000D02*
X154184000Y-63613000D01*
X154184000Y-63613000D02*
X154184000Y-68213000D01*
X154184000Y-68213000D02*
X148584000Y-68213000D01*
X161284000Y-68213000D02*
X161284000Y-63613000D01*
X161284000Y-63613000D02*
X166884000Y-63613000D01*
X166884000Y-63613000D02*
X166884000Y-68213000D01*
X166884000Y-68213000D02*
X161284000Y-68213000D01*
X133889000Y-99476000D02*
X134589000Y-99476000D01*
X134589000Y-100676000D02*
X133889000Y-100676000D01*
X123669500Y-89631000D02*
X123669500Y-88931000D01*
X124869500Y-88931000D02*
X124869500Y-89631000D01*
X127543000Y-85059000D02*
X127543000Y-84359000D01*
X128743000Y-84359000D02*
X128743000Y-85059000D01*
X124046500Y-97190000D02*
X124746500Y-97190000D01*
X124746500Y-98390000D02*
X124046500Y-98390000D01*
X139792000Y-88308000D02*
X139792000Y-89008000D01*
X138592000Y-89008000D02*
X138592000Y-88308000D01*
X124225800Y-73193200D02*
X123525800Y-73193200D01*
X123525800Y-71993200D02*
X124225800Y-71993200D01*
X124225800Y-74641000D02*
X123525800Y-74641000D01*
X123525800Y-73441000D02*
X124225800Y-73441000D01*
X125851400Y-70323000D02*
X125151400Y-70323000D01*
X125151400Y-69123000D02*
X125851400Y-69123000D01*
X124749000Y-77947000D02*
X124749000Y-77247000D01*
X125949000Y-77247000D02*
X125949000Y-77947000D01*
X125126000Y-66202000D02*
X125826000Y-66202000D01*
X125826000Y-67402000D02*
X125126000Y-67402000D01*
X126965000Y-74580000D02*
X126965000Y-75280000D01*
X125765000Y-75280000D02*
X125765000Y-74580000D01*
X127600000Y-80930000D02*
X127600000Y-81630000D01*
X126400000Y-81630000D02*
X126400000Y-80930000D01*
X139923000Y-64354000D02*
X139223000Y-64354000D01*
X139223000Y-63154000D02*
X139923000Y-63154000D01*
X138903000Y-71405000D02*
X138903000Y-72105000D01*
X137703000Y-72105000D02*
X137703000Y-71405000D01*
X138903000Y-74199000D02*
X138903000Y-74899000D01*
X137703000Y-74899000D02*
X137703000Y-74199000D01*
X138903000Y-76993000D02*
X138903000Y-77693000D01*
X137703000Y-77693000D02*
X137703000Y-76993000D01*
X139923000Y-70450000D02*
X139223000Y-70450000D01*
X139223000Y-69250000D02*
X139923000Y-69250000D01*
X137699000Y-61630000D02*
X138399000Y-61630000D01*
X138399000Y-62830000D02*
X137699000Y-62830000D01*
X121250000Y-97948000D02*
X121250000Y-98648000D01*
X120050000Y-98648000D02*
X120050000Y-97948000D01*
X120050000Y-101696000D02*
X120050000Y-100996000D01*
X121250000Y-100996000D02*
X121250000Y-101696000D01*
X124111500Y-87722000D02*
X123411500Y-87722000D01*
X123411500Y-86522000D02*
X124111500Y-86522000D01*
X134202249Y-103963223D02*
X134697223Y-103468249D01*
X135545751Y-104316777D02*
X135050777Y-104811751D01*
X135336800Y-55483200D02*
X136036800Y-55483200D01*
X136036800Y-56683200D02*
X135336800Y-56683200D01*
X125441000Y-80930000D02*
X125441000Y-81630000D01*
X124241000Y-81630000D02*
X124241000Y-80930000D01*
X122282000Y-78959000D02*
X121582000Y-78959000D01*
X121582000Y-77759000D02*
X122282000Y-77759000D01*
X121000000Y-84801000D02*
X120300000Y-84801000D01*
X120300000Y-83601000D02*
X121000000Y-83601000D01*
X123788800Y-69477000D02*
X123788800Y-70477000D01*
X122438800Y-70477000D02*
X122438800Y-69477000D01*
X123788800Y-66886200D02*
X123788800Y-67886200D01*
X122438800Y-67886200D02*
X122438800Y-66886200D01*
X126001400Y-68924800D02*
X125001400Y-68924800D01*
X125001400Y-67574800D02*
X126001400Y-67574800D01*
X126001400Y-71871200D02*
X125001400Y-71871200D01*
X125001400Y-70521200D02*
X126001400Y-70521200D01*
X125976000Y-66029200D02*
X124976000Y-66029200D01*
X124976000Y-64679200D02*
X125976000Y-64679200D01*
X120769000Y-107990000D02*
X119769000Y-107990000D01*
X119769000Y-106640000D02*
X120769000Y-106640000D01*
X132469000Y-55459000D02*
X133469000Y-55459000D01*
X133469000Y-56809000D02*
X132469000Y-56809000D01*
X123325000Y-55459000D02*
X124325000Y-55459000D01*
X124325000Y-56809000D02*
X123325000Y-56809000D01*
X123325000Y-56983000D02*
X124325000Y-56983000D01*
X124325000Y-58333000D02*
X123325000Y-58333000D01*
X123325000Y-58507000D02*
X124325000Y-58507000D01*
X124325000Y-59857000D02*
X123325000Y-59857000D01*
X137717000Y-65675000D02*
X137717000Y-67675000D01*
X140667000Y-67675000D02*
X140667000Y-65675000D01*
D17*
X114793111Y-60165437D02*
X117126563Y-62498889D01*
X117126563Y-62498889D02*
X120944940Y-58680513D01*
X114793111Y-60165437D02*
X118611487Y-56347060D01*
X135907000Y-59148000D02*
X140157000Y-59148000D01*
X135907000Y-61248000D02*
X140157000Y-61248000D01*
X135907000Y-59148000D02*
X135907000Y-61248000D01*
X133478117Y-113128437D02*
X133124563Y-112774883D01*
X132459883Y-113439563D02*
X132813437Y-113793117D01*
X134240117Y-112366437D02*
X133886563Y-112012883D01*
X133221883Y-112677563D02*
X133575437Y-113031117D01*
X136142883Y-111280563D02*
X136496437Y-111634117D01*
X137161117Y-110969437D02*
X136807563Y-110615883D01*
X137893437Y-111250883D02*
X137539883Y-111604437D01*
X138204563Y-112269117D02*
X138558117Y-111915563D01*
D14*
X139660000Y-77589000D02*
X139660000Y-76589000D01*
X141010000Y-76589000D02*
X141010000Y-77589000D01*
X139660000Y-80383000D02*
X139660000Y-79383000D01*
X141010000Y-79383000D02*
X141010000Y-80383000D01*
D18*
X126695200Y-87579200D02*
X126695200Y-88734736D01*
X126695200Y-97840800D02*
X127850736Y-97840800D01*
X136956800Y-97840800D02*
X136956800Y-96685264D01*
X136956800Y-87579200D02*
X135801264Y-87579200D01*
X127850736Y-87579200D02*
X126695200Y-87579200D01*
X126695200Y-96685264D02*
X126695200Y-97840800D01*
X135801264Y-97840800D02*
X136956800Y-97840800D01*
X136956800Y-88734736D02*
X136956800Y-87579200D01*
X136017000Y-87503000D02*
X136017000Y-86347464D01*
D17*
X127629000Y-64380000D02*
X127629000Y-60080000D01*
X127629000Y-60080000D02*
X121929000Y-60080000D01*
X127629000Y-64380000D02*
X121929000Y-64380000D01*
D14*
X154434000Y-80893000D02*
X161034000Y-80893000D01*
X161034000Y-80893000D02*
X161034000Y-86493000D01*
X161034000Y-86493000D02*
X154434000Y-86493000D01*
X154434000Y-86493000D02*
X154434000Y-80893000D01*
X123565000Y-82880000D02*
X123165000Y-82880000D01*
X123565000Y-82880000D02*
X123565000Y-82480000D01*
X123565000Y-79680000D02*
X123165000Y-79680000D01*
X123565000Y-79680000D02*
X123565000Y-80080000D01*
X120365000Y-79680000D02*
X120765000Y-79680000D01*
X120365000Y-79680000D02*
X120365000Y-80080000D01*
X120365000Y-82880000D02*
X120365000Y-82480000D01*
D10*
X147320000Y-82169000D02*
X147828000Y-82169000D01*
X168148000Y-82169000D02*
X167640000Y-82169000D01*
D13*
X120704429Y-89746667D02*
X120728619Y-89770857D01*
X120752810Y-89843429D01*
X120752810Y-89891810D01*
X120728619Y-89964381D01*
X120680238Y-90012762D01*
X120631857Y-90036953D01*
X120535095Y-90061143D01*
X120462524Y-90061143D01*
X120365762Y-90036953D01*
X120317381Y-90012762D01*
X120269000Y-89964381D01*
X120244810Y-89891810D01*
X120244810Y-89843429D01*
X120269000Y-89770857D01*
X120293190Y-89746667D01*
X120752810Y-89504762D02*
X120752810Y-89408000D01*
X120728619Y-89359619D01*
X120704429Y-89335429D01*
X120631857Y-89287048D01*
X120535095Y-89262857D01*
X120341571Y-89262857D01*
X120293190Y-89287048D01*
X120269000Y-89311238D01*
X120244810Y-89359619D01*
X120244810Y-89456381D01*
X120269000Y-89504762D01*
X120293190Y-89528953D01*
X120341571Y-89553143D01*
X120462524Y-89553143D01*
X120510905Y-89528953D01*
X120535095Y-89504762D01*
X120559286Y-89456381D01*
X120559286Y-89359619D01*
X120535095Y-89311238D01*
X120510905Y-89287048D01*
X120462524Y-89262857D01*
X131106333Y-62459810D02*
X130864428Y-62459810D01*
X130864428Y-61951810D01*
X131251476Y-62000190D02*
X131275666Y-61976000D01*
X131324047Y-61951810D01*
X131445000Y-61951810D01*
X131493381Y-61976000D01*
X131517571Y-62000190D01*
X131541762Y-62048571D01*
X131541762Y-62096952D01*
X131517571Y-62169524D01*
X131227285Y-62459810D01*
X131541762Y-62459810D01*
X132007428Y-83747429D02*
X131983238Y-83771619D01*
X131910666Y-83795810D01*
X131862285Y-83795810D01*
X131789714Y-83771619D01*
X131741333Y-83723238D01*
X131717142Y-83674857D01*
X131692952Y-83578095D01*
X131692952Y-83505524D01*
X131717142Y-83408762D01*
X131741333Y-83360381D01*
X131789714Y-83312000D01*
X131862285Y-83287810D01*
X131910666Y-83287810D01*
X131983238Y-83312000D01*
X132007428Y-83336190D01*
X132200952Y-83336190D02*
X132225142Y-83312000D01*
X132273523Y-83287810D01*
X132394476Y-83287810D01*
X132442857Y-83312000D01*
X132467047Y-83336190D01*
X132491238Y-83384571D01*
X132491238Y-83432952D01*
X132467047Y-83505524D01*
X132176761Y-83795810D01*
X132491238Y-83795810D01*
X132926667Y-83287810D02*
X132829905Y-83287810D01*
X132781524Y-83312000D01*
X132757333Y-83336190D01*
X132708952Y-83408762D01*
X132684762Y-83505524D01*
X132684762Y-83699048D01*
X132708952Y-83747429D01*
X132733143Y-83771619D01*
X132781524Y-83795810D01*
X132878286Y-83795810D01*
X132926667Y-83771619D01*
X132950857Y-83747429D01*
X132975048Y-83699048D01*
X132975048Y-83578095D01*
X132950857Y-83529714D01*
X132926667Y-83505524D01*
X132878286Y-83481333D01*
X132781524Y-83481333D01*
X132733143Y-83505524D01*
X132708952Y-83529714D01*
X132684762Y-83578095D01*
X125754368Y-110595211D02*
X125754368Y-110629421D01*
X125720158Y-110697843D01*
X125685947Y-110732053D01*
X125617526Y-110766263D01*
X125549105Y-110766263D01*
X125497789Y-110749158D01*
X125412263Y-110697842D01*
X125360948Y-110646526D01*
X125309631Y-110561000D01*
X125292527Y-110509684D01*
X125292527Y-110441263D01*
X125326737Y-110372843D01*
X125360948Y-110338632D01*
X125429369Y-110304421D01*
X125463579Y-110304421D01*
X125857000Y-110082053D02*
X126096474Y-110321527D01*
X125634631Y-110030738D02*
X125805684Y-110372842D01*
X126028052Y-110150474D01*
X126130684Y-109876790D02*
X126079368Y-109893895D01*
X126045158Y-109893895D01*
X125993842Y-109876790D01*
X125976737Y-109859684D01*
X125959631Y-109808369D01*
X125959632Y-109774158D01*
X125976737Y-109722843D01*
X126045158Y-109654422D01*
X126096474Y-109637316D01*
X126130684Y-109637316D01*
X126182000Y-109654421D01*
X126199105Y-109671527D01*
X126216210Y-109722843D01*
X126216210Y-109757053D01*
X126199105Y-109808369D01*
X126130684Y-109876790D01*
X126113579Y-109928105D01*
X126113579Y-109962316D01*
X126130684Y-110013632D01*
X126199105Y-110082053D01*
X126250421Y-110099159D01*
X126284631Y-110099158D01*
X126335947Y-110082053D01*
X126404369Y-110013632D01*
X126421473Y-109962316D01*
X126421473Y-109928106D01*
X126404369Y-109876790D01*
X126335947Y-109808369D01*
X126284631Y-109791264D01*
X126250421Y-109791263D01*
X126199105Y-109808369D01*
X138454368Y-105007211D02*
X138454368Y-105041421D01*
X138420158Y-105109843D01*
X138385947Y-105144053D01*
X138317526Y-105178263D01*
X138249105Y-105178263D01*
X138197789Y-105161158D01*
X138112263Y-105109842D01*
X138060948Y-105058526D01*
X138009631Y-104973000D01*
X137992527Y-104921684D01*
X137992527Y-104853263D01*
X138026737Y-104784843D01*
X138060948Y-104750632D01*
X138129369Y-104716421D01*
X138163579Y-104716421D01*
X138454368Y-104357212D02*
X138283316Y-104528264D01*
X138437263Y-104716421D01*
X138437263Y-104682211D01*
X138454368Y-104630895D01*
X138539894Y-104545368D01*
X138591211Y-104528263D01*
X138625420Y-104528263D01*
X138676737Y-104545368D01*
X138762263Y-104630895D01*
X138779368Y-104682211D01*
X138779368Y-104716421D01*
X138762263Y-104767737D01*
X138676737Y-104853264D01*
X138625420Y-104870369D01*
X138591211Y-104870369D01*
X138591211Y-104220369D02*
X138813579Y-103998001D01*
X138830684Y-104254579D01*
X138882000Y-104203263D01*
X138933316Y-104186158D01*
X138967526Y-104186158D01*
X139018842Y-104203263D01*
X139104369Y-104288790D01*
X139121473Y-104340106D01*
X139121473Y-104374316D01*
X139104369Y-104425632D01*
X139001737Y-104528263D01*
X138950421Y-104545368D01*
X138916210Y-104545369D01*
X137472579Y-104025421D02*
X137181790Y-103974105D01*
X137267316Y-104230685D02*
X136908105Y-103871474D01*
X137044948Y-103734632D01*
X137096263Y-103717527D01*
X137130474Y-103717526D01*
X137181789Y-103734632D01*
X137233105Y-103785948D01*
X137250211Y-103837263D01*
X137250210Y-103871474D01*
X137233105Y-103922790D01*
X137096263Y-104059632D01*
X137233105Y-103546475D02*
X137455474Y-103324106D01*
X137472578Y-103580685D01*
X137523894Y-103529368D01*
X137575211Y-103512263D01*
X137609420Y-103512263D01*
X137660737Y-103529368D01*
X137746263Y-103614895D01*
X137763368Y-103666211D01*
X137763368Y-103700421D01*
X137746263Y-103751737D01*
X137643632Y-103854369D01*
X137592315Y-103871474D01*
X137558105Y-103871474D01*
X137814684Y-103272790D02*
X137763368Y-103289895D01*
X137729158Y-103289895D01*
X137677842Y-103272790D01*
X137660737Y-103255684D01*
X137643631Y-103204369D01*
X137643632Y-103170158D01*
X137660737Y-103118843D01*
X137729158Y-103050422D01*
X137780474Y-103033316D01*
X137814684Y-103033316D01*
X137866000Y-103050421D01*
X137883105Y-103067527D01*
X137900210Y-103118843D01*
X137900210Y-103153053D01*
X137883105Y-103204369D01*
X137814684Y-103272790D01*
X137797579Y-103324105D01*
X137797579Y-103358316D01*
X137814684Y-103409632D01*
X137883105Y-103478053D01*
X137934421Y-103495159D01*
X137968631Y-103495158D01*
X138019947Y-103478053D01*
X138088369Y-103409632D01*
X138105473Y-103358316D01*
X138105473Y-103324106D01*
X138088369Y-103272790D01*
X138019947Y-103204369D01*
X137968631Y-103187264D01*
X137934421Y-103187263D01*
X137883105Y-103204369D01*
X132073952Y-79223810D02*
X132073952Y-79635048D01*
X132098143Y-79683429D01*
X132122333Y-79707619D01*
X132170714Y-79731810D01*
X132267476Y-79731810D01*
X132315857Y-79707619D01*
X132340048Y-79683429D01*
X132364238Y-79635048D01*
X132364238Y-79223810D01*
X132557761Y-79223810D02*
X132872238Y-79223810D01*
X132702904Y-79417333D01*
X132775476Y-79417333D01*
X132823857Y-79441524D01*
X132848047Y-79465714D01*
X132872238Y-79514095D01*
X132872238Y-79635048D01*
X132848047Y-79683429D01*
X132823857Y-79707619D01*
X132775476Y-79731810D01*
X132630333Y-79731810D01*
X132581952Y-79707619D01*
X132557761Y-79683429D01*
X134417832Y-107842168D02*
X134246779Y-108013220D01*
X133887569Y-107654010D01*
X134144147Y-107397432D02*
X134366516Y-107175063D01*
X134383620Y-107431641D01*
X134434937Y-107380325D01*
X134486253Y-107363220D01*
X134520462Y-107363220D01*
X134571779Y-107380325D01*
X134657305Y-107465852D01*
X134674410Y-107517168D01*
X134674410Y-107551378D01*
X134657305Y-107602694D01*
X134554674Y-107705326D01*
X134503358Y-107722431D01*
X134469147Y-107722431D01*
X135279368Y-101832211D02*
X135279368Y-101866421D01*
X135245158Y-101934843D01*
X135210947Y-101969053D01*
X135142526Y-102003263D01*
X135074105Y-102003263D01*
X135022789Y-101986158D01*
X134937263Y-101934842D01*
X134885948Y-101883526D01*
X134834631Y-101798000D01*
X134817527Y-101746684D01*
X134817527Y-101678263D01*
X134851737Y-101609843D01*
X134885948Y-101575632D01*
X134954369Y-101541421D01*
X134988579Y-101541421D01*
X135382000Y-101319053D02*
X135621474Y-101558527D01*
X135159631Y-101267738D02*
X135330684Y-101609842D01*
X135553052Y-101387474D01*
X135826737Y-101353263D02*
X135895158Y-101284842D01*
X135912263Y-101233526D01*
X135912263Y-101199316D01*
X135895157Y-101113790D01*
X135843842Y-101028263D01*
X135707000Y-100891421D01*
X135655684Y-100874316D01*
X135621474Y-100874316D01*
X135570158Y-100891422D01*
X135501737Y-100959843D01*
X135484632Y-101011158D01*
X135484631Y-101045369D01*
X135501737Y-101096684D01*
X135587263Y-101182211D01*
X135638579Y-101199316D01*
X135672789Y-101199316D01*
X135724105Y-101182211D01*
X135792526Y-101113790D01*
X135809631Y-101062474D01*
X135809631Y-101028264D01*
X135792526Y-100976948D01*
X168734619Y-81263190D02*
X168686238Y-81239000D01*
X168637857Y-81190619D01*
X168565286Y-81118048D01*
X168516905Y-81093857D01*
X168468524Y-81093857D01*
X168492714Y-81214810D02*
X168444333Y-81190619D01*
X168395952Y-81142238D01*
X168371762Y-81045476D01*
X168371762Y-80876143D01*
X168395952Y-80779381D01*
X168444333Y-80731000D01*
X168492714Y-80706810D01*
X168589476Y-80706810D01*
X168637857Y-80731000D01*
X168686238Y-80779381D01*
X168710429Y-80876143D01*
X168710429Y-81045476D01*
X168686238Y-81142238D01*
X168637857Y-81190619D01*
X168589476Y-81214810D01*
X168492714Y-81214810D01*
X169170047Y-80706810D02*
X168928142Y-80706810D01*
X168903952Y-80948714D01*
X168928142Y-80924524D01*
X168976523Y-80900333D01*
X169097476Y-80900333D01*
X169145857Y-80924524D01*
X169170047Y-80948714D01*
X169194238Y-80997095D01*
X169194238Y-81118048D01*
X169170047Y-81166429D01*
X169145857Y-81190619D01*
X169097476Y-81214810D01*
X168976523Y-81214810D01*
X168928142Y-81190619D01*
X168903952Y-81166429D01*
X174776190Y-62040381D02*
X174752000Y-62088762D01*
X174703619Y-62137143D01*
X174631048Y-62209714D01*
X174606857Y-62258095D01*
X174606857Y-62306476D01*
X174727810Y-62282286D02*
X174703619Y-62330667D01*
X174655238Y-62379048D01*
X174558476Y-62403238D01*
X174389143Y-62403238D01*
X174292381Y-62379048D01*
X174244000Y-62330667D01*
X174219810Y-62282286D01*
X174219810Y-62185524D01*
X174244000Y-62137143D01*
X174292381Y-62088762D01*
X174389143Y-62064571D01*
X174558476Y-62064571D01*
X174655238Y-62088762D01*
X174703619Y-62137143D01*
X174727810Y-62185524D01*
X174727810Y-62282286D01*
X174219810Y-61629143D02*
X174219810Y-61725905D01*
X174244000Y-61774286D01*
X174268190Y-61798477D01*
X174340762Y-61846858D01*
X174437524Y-61871048D01*
X174631048Y-61871048D01*
X174679429Y-61846858D01*
X174703619Y-61822667D01*
X174727810Y-61774286D01*
X174727810Y-61677524D01*
X174703619Y-61629143D01*
X174679429Y-61604953D01*
X174631048Y-61580762D01*
X174510095Y-61580762D01*
X174461714Y-61604953D01*
X174437524Y-61629143D01*
X174413333Y-61677524D01*
X174413333Y-61774286D01*
X174437524Y-61822667D01*
X174461714Y-61846858D01*
X174510095Y-61871048D01*
X146763619Y-81304190D02*
X146715238Y-81280000D01*
X146666857Y-81231619D01*
X146594286Y-81159048D01*
X146545905Y-81134857D01*
X146497524Y-81134857D01*
X146521714Y-81255810D02*
X146473333Y-81231619D01*
X146424952Y-81183238D01*
X146400762Y-81086476D01*
X146400762Y-80917143D01*
X146424952Y-80820381D01*
X146473333Y-80772000D01*
X146521714Y-80747810D01*
X146618476Y-80747810D01*
X146666857Y-80772000D01*
X146715238Y-80820381D01*
X146739429Y-80917143D01*
X146739429Y-81086476D01*
X146715238Y-81183238D01*
X146666857Y-81231619D01*
X146618476Y-81255810D01*
X146521714Y-81255810D01*
X147223238Y-81255810D02*
X146932952Y-81255810D01*
X147078095Y-81255810D02*
X147078095Y-80747810D01*
X147029714Y-80820381D01*
X146981333Y-80868762D01*
X146932952Y-80892952D01*
X135667630Y-108687632D02*
X135496578Y-108516579D01*
X135855788Y-108157369D01*
X136180788Y-108721842D02*
X135941314Y-108961316D01*
X136232104Y-108499473D02*
X135889999Y-108670526D01*
X136112367Y-108892894D01*
X131928632Y-112236369D02*
X131757579Y-112407421D01*
X131398369Y-112048211D01*
X131860211Y-111586369D02*
X131689158Y-111757422D01*
X131843105Y-111945579D01*
X131843105Y-111911369D01*
X131860210Y-111860053D01*
X131945737Y-111774526D01*
X131997053Y-111757421D01*
X132031262Y-111757421D01*
X132082579Y-111774526D01*
X132168105Y-111860053D01*
X132185210Y-111911369D01*
X132185210Y-111945579D01*
X132168105Y-111996895D01*
X132082579Y-112082422D01*
X132031262Y-112099527D01*
X131997053Y-112099527D01*
X125197810Y-101853548D02*
X125609048Y-101853548D01*
X125657429Y-101829357D01*
X125681619Y-101805167D01*
X125705810Y-101756786D01*
X125705810Y-101660024D01*
X125681619Y-101611643D01*
X125657429Y-101587452D01*
X125609048Y-101563262D01*
X125197810Y-101563262D01*
X125367143Y-101103643D02*
X125705810Y-101103643D01*
X125173619Y-101224596D02*
X125536476Y-101345548D01*
X125536476Y-101031072D01*
X128675606Y-104522974D02*
X128966395Y-104813763D01*
X129017711Y-104830868D01*
X129051921Y-104830868D01*
X129103237Y-104813763D01*
X129171658Y-104745342D01*
X129188763Y-104694026D01*
X129188764Y-104659816D01*
X129171658Y-104608500D01*
X128880869Y-104317711D01*
X129257184Y-104249290D02*
X129205868Y-104266395D01*
X129171657Y-104266396D01*
X129120342Y-104249290D01*
X129103236Y-104232184D01*
X129086131Y-104180869D01*
X129086131Y-104146658D01*
X129103237Y-104095343D01*
X129171658Y-104026922D01*
X129222974Y-104009816D01*
X129257183Y-104009816D01*
X129308500Y-104026921D01*
X129325605Y-104044027D01*
X129342710Y-104095343D01*
X129342710Y-104129553D01*
X129325605Y-104180869D01*
X129257184Y-104249290D01*
X129240078Y-104300605D01*
X129240078Y-104334817D01*
X129257184Y-104386132D01*
X129325605Y-104454553D01*
X129376921Y-104471659D01*
X129411131Y-104471658D01*
X129462447Y-104454553D01*
X129530868Y-104386132D01*
X129547973Y-104334816D01*
X129547973Y-104300606D01*
X129530868Y-104249290D01*
X129462447Y-104180869D01*
X129411131Y-104163764D01*
X129376921Y-104163763D01*
X129325605Y-104180869D01*
X149503190Y-62087881D02*
X149479000Y-62136262D01*
X149430619Y-62184643D01*
X149358048Y-62257214D01*
X149333857Y-62305595D01*
X149333857Y-62353976D01*
X149454810Y-62329786D02*
X149430619Y-62378167D01*
X149382238Y-62426548D01*
X149285476Y-62450738D01*
X149116143Y-62450738D01*
X149019381Y-62426548D01*
X148971000Y-62378167D01*
X148946810Y-62329786D01*
X148946810Y-62233024D01*
X148971000Y-62184643D01*
X149019381Y-62136262D01*
X149116143Y-62112071D01*
X149285476Y-62112071D01*
X149382238Y-62136262D01*
X149430619Y-62184643D01*
X149454810Y-62233024D01*
X149454810Y-62329786D01*
X148995190Y-61918548D02*
X148971000Y-61894358D01*
X148946810Y-61845977D01*
X148946810Y-61725024D01*
X148971000Y-61676643D01*
X148995190Y-61652453D01*
X149043571Y-61628262D01*
X149091952Y-61628262D01*
X149164524Y-61652453D01*
X149454810Y-61942739D01*
X149454810Y-61628262D01*
X153494619Y-81304190D02*
X153446238Y-81280000D01*
X153397857Y-81231619D01*
X153325286Y-81159048D01*
X153276905Y-81134857D01*
X153228524Y-81134857D01*
X153252714Y-81255810D02*
X153204333Y-81231619D01*
X153155952Y-81183238D01*
X153131762Y-81086476D01*
X153131762Y-80917143D01*
X153155952Y-80820381D01*
X153204333Y-80772000D01*
X153252714Y-80747810D01*
X153349476Y-80747810D01*
X153397857Y-80772000D01*
X153446238Y-80820381D01*
X153470429Y-80917143D01*
X153470429Y-81086476D01*
X153446238Y-81183238D01*
X153397857Y-81231619D01*
X153349476Y-81255810D01*
X153252714Y-81255810D01*
X153639761Y-80747810D02*
X153954238Y-80747810D01*
X153784904Y-80941333D01*
X153857476Y-80941333D01*
X153905857Y-80965524D01*
X153930047Y-80989714D01*
X153954238Y-81038095D01*
X153954238Y-81159048D01*
X153930047Y-81207429D01*
X153905857Y-81231619D01*
X153857476Y-81255810D01*
X153712333Y-81255810D01*
X153663952Y-81231619D01*
X153639761Y-81207429D01*
X162150190Y-62087881D02*
X162126000Y-62136262D01*
X162077619Y-62184643D01*
X162005048Y-62257214D01*
X161980857Y-62305595D01*
X161980857Y-62353976D01*
X162101810Y-62329786D02*
X162077619Y-62378167D01*
X162029238Y-62426548D01*
X161932476Y-62450738D01*
X161763143Y-62450738D01*
X161666381Y-62426548D01*
X161618000Y-62378167D01*
X161593810Y-62329786D01*
X161593810Y-62233024D01*
X161618000Y-62184643D01*
X161666381Y-62136262D01*
X161763143Y-62112071D01*
X161932476Y-62112071D01*
X162029238Y-62136262D01*
X162077619Y-62184643D01*
X162101810Y-62233024D01*
X162101810Y-62329786D01*
X161763143Y-61676643D02*
X162101810Y-61676643D01*
X161569619Y-61797596D02*
X161932476Y-61918548D01*
X161932476Y-61604072D01*
X135932333Y-100257429D02*
X135908143Y-100281619D01*
X135835571Y-100305810D01*
X135787190Y-100305810D01*
X135714619Y-100281619D01*
X135666238Y-100233238D01*
X135642047Y-100184857D01*
X135617857Y-100088095D01*
X135617857Y-100015524D01*
X135642047Y-99918762D01*
X135666238Y-99870381D01*
X135714619Y-99822000D01*
X135787190Y-99797810D01*
X135835571Y-99797810D01*
X135908143Y-99822000D01*
X135932333Y-99846190D01*
X136367762Y-99967143D02*
X136367762Y-100305810D01*
X136246809Y-99773619D02*
X136125857Y-100136476D01*
X136440333Y-100136476D01*
X123434929Y-89365667D02*
X123459119Y-89389857D01*
X123483310Y-89462429D01*
X123483310Y-89510810D01*
X123459119Y-89583381D01*
X123410738Y-89631762D01*
X123362357Y-89655953D01*
X123265595Y-89680143D01*
X123193024Y-89680143D01*
X123096262Y-89655953D01*
X123047881Y-89631762D01*
X122999500Y-89583381D01*
X122975310Y-89510810D01*
X122975310Y-89462429D01*
X122999500Y-89389857D01*
X123023690Y-89365667D01*
X122975310Y-88906048D02*
X122975310Y-89147953D01*
X123217214Y-89172143D01*
X123193024Y-89147953D01*
X123168833Y-89099572D01*
X123168833Y-88978619D01*
X123193024Y-88930238D01*
X123217214Y-88906048D01*
X123265595Y-88881857D01*
X123386548Y-88881857D01*
X123434929Y-88906048D01*
X123459119Y-88930238D01*
X123483310Y-88978619D01*
X123483310Y-89099572D01*
X123459119Y-89147953D01*
X123434929Y-89172143D01*
X127308429Y-85047667D02*
X127332619Y-85071857D01*
X127356810Y-85144429D01*
X127356810Y-85192810D01*
X127332619Y-85265381D01*
X127284238Y-85313762D01*
X127235857Y-85337953D01*
X127139095Y-85362143D01*
X127066524Y-85362143D01*
X126969762Y-85337953D01*
X126921381Y-85313762D01*
X126873000Y-85265381D01*
X126848810Y-85192810D01*
X126848810Y-85144429D01*
X126873000Y-85071857D01*
X126897190Y-85047667D01*
X126848810Y-84612238D02*
X126848810Y-84709000D01*
X126873000Y-84757381D01*
X126897190Y-84781572D01*
X126969762Y-84829953D01*
X127066524Y-84854143D01*
X127260048Y-84854143D01*
X127308429Y-84829953D01*
X127332619Y-84805762D01*
X127356810Y-84757381D01*
X127356810Y-84660619D01*
X127332619Y-84612238D01*
X127308429Y-84588048D01*
X127260048Y-84563857D01*
X127139095Y-84563857D01*
X127090714Y-84588048D01*
X127066524Y-84612238D01*
X127042333Y-84660619D01*
X127042333Y-84757381D01*
X127066524Y-84805762D01*
X127090714Y-84829953D01*
X127139095Y-84854143D01*
X123879428Y-96828429D02*
X123855238Y-96852619D01*
X123782666Y-96876810D01*
X123734285Y-96876810D01*
X123661714Y-96852619D01*
X123613333Y-96804238D01*
X123589142Y-96755857D01*
X123564952Y-96659095D01*
X123564952Y-96586524D01*
X123589142Y-96489762D01*
X123613333Y-96441381D01*
X123661714Y-96393000D01*
X123734285Y-96368810D01*
X123782666Y-96368810D01*
X123855238Y-96393000D01*
X123879428Y-96417190D01*
X124363238Y-96876810D02*
X124072952Y-96876810D01*
X124218095Y-96876810D02*
X124218095Y-96368810D01*
X124169714Y-96441381D01*
X124121333Y-96489762D01*
X124072952Y-96513952D01*
X124847048Y-96876810D02*
X124556762Y-96876810D01*
X124701905Y-96876810D02*
X124701905Y-96368810D01*
X124653524Y-96441381D01*
X124605143Y-96489762D01*
X124556762Y-96513952D01*
X138865428Y-87188429D02*
X138841238Y-87212619D01*
X138768666Y-87236810D01*
X138720285Y-87236810D01*
X138647714Y-87212619D01*
X138599333Y-87164238D01*
X138575142Y-87115857D01*
X138550952Y-87019095D01*
X138550952Y-86946524D01*
X138575142Y-86849762D01*
X138599333Y-86801381D01*
X138647714Y-86753000D01*
X138720285Y-86728810D01*
X138768666Y-86728810D01*
X138841238Y-86753000D01*
X138865428Y-86777190D01*
X139349238Y-87236810D02*
X139058952Y-87236810D01*
X139204095Y-87236810D02*
X139204095Y-86728810D01*
X139155714Y-86801381D01*
X139107333Y-86849762D01*
X139058952Y-86873952D01*
X139542762Y-86777190D02*
X139566952Y-86753000D01*
X139615333Y-86728810D01*
X139736286Y-86728810D01*
X139784667Y-86753000D01*
X139808857Y-86777190D01*
X139833048Y-86825571D01*
X139833048Y-86873952D01*
X139808857Y-86946524D01*
X139518571Y-87236810D01*
X139833048Y-87236810D01*
X121466428Y-72698429D02*
X121442238Y-72722619D01*
X121369666Y-72746810D01*
X121321285Y-72746810D01*
X121248714Y-72722619D01*
X121200333Y-72674238D01*
X121176142Y-72625857D01*
X121151952Y-72529095D01*
X121151952Y-72456524D01*
X121176142Y-72359762D01*
X121200333Y-72311381D01*
X121248714Y-72263000D01*
X121321285Y-72238810D01*
X121369666Y-72238810D01*
X121442238Y-72263000D01*
X121466428Y-72287190D01*
X121950238Y-72746810D02*
X121659952Y-72746810D01*
X121805095Y-72746810D02*
X121805095Y-72238810D01*
X121756714Y-72311381D01*
X121708333Y-72359762D01*
X121659952Y-72383952D01*
X122385667Y-72408143D02*
X122385667Y-72746810D01*
X122264714Y-72214619D02*
X122143762Y-72577476D01*
X122458238Y-72577476D01*
X121466428Y-74273229D02*
X121442238Y-74297419D01*
X121369666Y-74321610D01*
X121321285Y-74321610D01*
X121248714Y-74297419D01*
X121200333Y-74249038D01*
X121176142Y-74200657D01*
X121151952Y-74103895D01*
X121151952Y-74031324D01*
X121176142Y-73934562D01*
X121200333Y-73886181D01*
X121248714Y-73837800D01*
X121321285Y-73813610D01*
X121369666Y-73813610D01*
X121442238Y-73837800D01*
X121466428Y-73861990D01*
X121950238Y-74321610D02*
X121659952Y-74321610D01*
X121805095Y-74321610D02*
X121805095Y-73813610D01*
X121756714Y-73886181D01*
X121708333Y-73934562D01*
X121659952Y-73958752D01*
X122409857Y-73813610D02*
X122167952Y-73813610D01*
X122143762Y-74055514D01*
X122167952Y-74031324D01*
X122216333Y-74007133D01*
X122337286Y-74007133D01*
X122385667Y-74031324D01*
X122409857Y-74055514D01*
X122434048Y-74103895D01*
X122434048Y-74224848D01*
X122409857Y-74273229D01*
X122385667Y-74297419D01*
X122337286Y-74321610D01*
X122216333Y-74321610D01*
X122167952Y-74297419D01*
X122143762Y-74273229D01*
X119942428Y-69904429D02*
X119918238Y-69928619D01*
X119845666Y-69952810D01*
X119797285Y-69952810D01*
X119724714Y-69928619D01*
X119676333Y-69880238D01*
X119652142Y-69831857D01*
X119627952Y-69735095D01*
X119627952Y-69662524D01*
X119652142Y-69565762D01*
X119676333Y-69517381D01*
X119724714Y-69469000D01*
X119797285Y-69444810D01*
X119845666Y-69444810D01*
X119918238Y-69469000D01*
X119942428Y-69493190D01*
X120426238Y-69952810D02*
X120135952Y-69952810D01*
X120281095Y-69952810D02*
X120281095Y-69444810D01*
X120232714Y-69517381D01*
X120184333Y-69565762D01*
X120135952Y-69589952D01*
X120861667Y-69444810D02*
X120764905Y-69444810D01*
X120716524Y-69469000D01*
X120692333Y-69493190D01*
X120643952Y-69565762D01*
X120619762Y-69662524D01*
X120619762Y-69856048D01*
X120643952Y-69904429D01*
X120668143Y-69928619D01*
X120716524Y-69952810D01*
X120813286Y-69952810D01*
X120861667Y-69928619D01*
X120885857Y-69904429D01*
X120910048Y-69856048D01*
X120910048Y-69735095D01*
X120885857Y-69686714D01*
X120861667Y-69662524D01*
X120813286Y-69638333D01*
X120716524Y-69638333D01*
X120668143Y-69662524D01*
X120643952Y-69686714D01*
X120619762Y-69735095D01*
X124387429Y-77034572D02*
X124411619Y-77058762D01*
X124435810Y-77131334D01*
X124435810Y-77179715D01*
X124411619Y-77252286D01*
X124363238Y-77300667D01*
X124314857Y-77324858D01*
X124218095Y-77349048D01*
X124145524Y-77349048D01*
X124048762Y-77324858D01*
X124000381Y-77300667D01*
X123952000Y-77252286D01*
X123927810Y-77179715D01*
X123927810Y-77131334D01*
X123952000Y-77058762D01*
X123976190Y-77034572D01*
X124435810Y-76550762D02*
X124435810Y-76841048D01*
X124435810Y-76695905D02*
X123927810Y-76695905D01*
X124000381Y-76744286D01*
X124048762Y-76792667D01*
X124072952Y-76841048D01*
X123927810Y-76381429D02*
X123927810Y-76042762D01*
X124435810Y-76260476D01*
X119942428Y-66983429D02*
X119918238Y-67007619D01*
X119845666Y-67031810D01*
X119797285Y-67031810D01*
X119724714Y-67007619D01*
X119676333Y-66959238D01*
X119652142Y-66910857D01*
X119627952Y-66814095D01*
X119627952Y-66741524D01*
X119652142Y-66644762D01*
X119676333Y-66596381D01*
X119724714Y-66548000D01*
X119797285Y-66523810D01*
X119845666Y-66523810D01*
X119918238Y-66548000D01*
X119942428Y-66572190D01*
X120426238Y-67031810D02*
X120135952Y-67031810D01*
X120281095Y-67031810D02*
X120281095Y-66523810D01*
X120232714Y-66596381D01*
X120184333Y-66644762D01*
X120135952Y-66668952D01*
X120716524Y-66741524D02*
X120668143Y-66717333D01*
X120643952Y-66693143D01*
X120619762Y-66644762D01*
X120619762Y-66620571D01*
X120643952Y-66572190D01*
X120668143Y-66548000D01*
X120716524Y-66523810D01*
X120813286Y-66523810D01*
X120861667Y-66548000D01*
X120885857Y-66572190D01*
X120910048Y-66620571D01*
X120910048Y-66644762D01*
X120885857Y-66693143D01*
X120861667Y-66717333D01*
X120813286Y-66741524D01*
X120716524Y-66741524D01*
X120668143Y-66765714D01*
X120643952Y-66789905D01*
X120619762Y-66838286D01*
X120619762Y-66935048D01*
X120643952Y-66983429D01*
X120668143Y-67007619D01*
X120716524Y-67031810D01*
X120813286Y-67031810D01*
X120861667Y-67007619D01*
X120885857Y-66983429D01*
X120910048Y-66935048D01*
X120910048Y-66838286D01*
X120885857Y-66789905D01*
X120861667Y-66765714D01*
X120813286Y-66741524D01*
X126546429Y-73224572D02*
X126570619Y-73248762D01*
X126594810Y-73321334D01*
X126594810Y-73369715D01*
X126570619Y-73442286D01*
X126522238Y-73490667D01*
X126473857Y-73514858D01*
X126377095Y-73539048D01*
X126304524Y-73539048D01*
X126207762Y-73514858D01*
X126159381Y-73490667D01*
X126111000Y-73442286D01*
X126086810Y-73369715D01*
X126086810Y-73321334D01*
X126111000Y-73248762D01*
X126135190Y-73224572D01*
X126594810Y-72740762D02*
X126594810Y-73031048D01*
X126594810Y-72885905D02*
X126086810Y-72885905D01*
X126159381Y-72934286D01*
X126207762Y-72982667D01*
X126231952Y-73031048D01*
X126594810Y-72498857D02*
X126594810Y-72402095D01*
X126570619Y-72353714D01*
X126546429Y-72329524D01*
X126473857Y-72281143D01*
X126377095Y-72256952D01*
X126183571Y-72256952D01*
X126135190Y-72281143D01*
X126111000Y-72305333D01*
X126086810Y-72353714D01*
X126086810Y-72450476D01*
X126111000Y-72498857D01*
X126135190Y-72523048D01*
X126183571Y-72547238D01*
X126304524Y-72547238D01*
X126352905Y-72523048D01*
X126377095Y-72498857D01*
X126401286Y-72450476D01*
X126401286Y-72353714D01*
X126377095Y-72305333D01*
X126352905Y-72281143D01*
X126304524Y-72256952D01*
X126673428Y-79671429D02*
X126649238Y-79695619D01*
X126576666Y-79719810D01*
X126528285Y-79719810D01*
X126455714Y-79695619D01*
X126407333Y-79647238D01*
X126383142Y-79598857D01*
X126358952Y-79502095D01*
X126358952Y-79429524D01*
X126383142Y-79332762D01*
X126407333Y-79284381D01*
X126455714Y-79236000D01*
X126528285Y-79211810D01*
X126576666Y-79211810D01*
X126649238Y-79236000D01*
X126673428Y-79260190D01*
X126866952Y-79260190D02*
X126891142Y-79236000D01*
X126939523Y-79211810D01*
X127060476Y-79211810D01*
X127108857Y-79236000D01*
X127133047Y-79260190D01*
X127157238Y-79308571D01*
X127157238Y-79356952D01*
X127133047Y-79429524D01*
X126842761Y-79719810D01*
X127157238Y-79719810D01*
X127471714Y-79211810D02*
X127520095Y-79211810D01*
X127568476Y-79236000D01*
X127592667Y-79260190D01*
X127616857Y-79308571D01*
X127641048Y-79405333D01*
X127641048Y-79526286D01*
X127616857Y-79623048D01*
X127592667Y-79671429D01*
X127568476Y-79695619D01*
X127520095Y-79719810D01*
X127471714Y-79719810D01*
X127423333Y-79695619D01*
X127399143Y-79671429D01*
X127374952Y-79623048D01*
X127350762Y-79526286D01*
X127350762Y-79405333D01*
X127374952Y-79308571D01*
X127399143Y-79260190D01*
X127423333Y-79236000D01*
X127471714Y-79211810D01*
X136960428Y-63935429D02*
X136936238Y-63959619D01*
X136863666Y-63983810D01*
X136815285Y-63983810D01*
X136742714Y-63959619D01*
X136694333Y-63911238D01*
X136670142Y-63862857D01*
X136645952Y-63766095D01*
X136645952Y-63693524D01*
X136670142Y-63596762D01*
X136694333Y-63548381D01*
X136742714Y-63500000D01*
X136815285Y-63475810D01*
X136863666Y-63475810D01*
X136936238Y-63500000D01*
X136960428Y-63524190D01*
X137153952Y-63524190D02*
X137178142Y-63500000D01*
X137226523Y-63475810D01*
X137347476Y-63475810D01*
X137395857Y-63500000D01*
X137420047Y-63524190D01*
X137444238Y-63572571D01*
X137444238Y-63620952D01*
X137420047Y-63693524D01*
X137129761Y-63983810D01*
X137444238Y-63983810D01*
X137637762Y-63524190D02*
X137661952Y-63500000D01*
X137710333Y-63475810D01*
X137831286Y-63475810D01*
X137879667Y-63500000D01*
X137903857Y-63524190D01*
X137928048Y-63572571D01*
X137928048Y-63620952D01*
X137903857Y-63693524D01*
X137613571Y-63983810D01*
X137928048Y-63983810D01*
X139627429Y-72589572D02*
X139651619Y-72613762D01*
X139675810Y-72686334D01*
X139675810Y-72734715D01*
X139651619Y-72807286D01*
X139603238Y-72855667D01*
X139554857Y-72879858D01*
X139458095Y-72904048D01*
X139385524Y-72904048D01*
X139288762Y-72879858D01*
X139240381Y-72855667D01*
X139192000Y-72807286D01*
X139167810Y-72734715D01*
X139167810Y-72686334D01*
X139192000Y-72613762D01*
X139216190Y-72589572D01*
X139216190Y-72396048D02*
X139192000Y-72371858D01*
X139167810Y-72323477D01*
X139167810Y-72202524D01*
X139192000Y-72154143D01*
X139216190Y-72129953D01*
X139264571Y-72105762D01*
X139312952Y-72105762D01*
X139385524Y-72129953D01*
X139675810Y-72420239D01*
X139675810Y-72105762D01*
X139167810Y-71936429D02*
X139167810Y-71621952D01*
X139361333Y-71791286D01*
X139361333Y-71718714D01*
X139385524Y-71670333D01*
X139409714Y-71646143D01*
X139458095Y-71621952D01*
X139579048Y-71621952D01*
X139627429Y-71646143D01*
X139651619Y-71670333D01*
X139675810Y-71718714D01*
X139675810Y-71863857D01*
X139651619Y-71912238D01*
X139627429Y-71936429D01*
X139627429Y-74875572D02*
X139651619Y-74899762D01*
X139675810Y-74972334D01*
X139675810Y-75020715D01*
X139651619Y-75093286D01*
X139603238Y-75141667D01*
X139554857Y-75165858D01*
X139458095Y-75190048D01*
X139385524Y-75190048D01*
X139288762Y-75165858D01*
X139240381Y-75141667D01*
X139192000Y-75093286D01*
X139167810Y-75020715D01*
X139167810Y-74972334D01*
X139192000Y-74899762D01*
X139216190Y-74875572D01*
X139216190Y-74682048D02*
X139192000Y-74657858D01*
X139167810Y-74609477D01*
X139167810Y-74488524D01*
X139192000Y-74440143D01*
X139216190Y-74415953D01*
X139264571Y-74391762D01*
X139312952Y-74391762D01*
X139385524Y-74415953D01*
X139675810Y-74706239D01*
X139675810Y-74391762D01*
X139337143Y-73956333D02*
X139675810Y-73956333D01*
X139143619Y-74077286D02*
X139506476Y-74198238D01*
X139506476Y-73883762D01*
X138865429Y-79752372D02*
X138889619Y-79776562D01*
X138913810Y-79849134D01*
X138913810Y-79897515D01*
X138889619Y-79970086D01*
X138841238Y-80018467D01*
X138792857Y-80042658D01*
X138696095Y-80066848D01*
X138623524Y-80066848D01*
X138526762Y-80042658D01*
X138478381Y-80018467D01*
X138430000Y-79970086D01*
X138405810Y-79897515D01*
X138405810Y-79849134D01*
X138430000Y-79776562D01*
X138454190Y-79752372D01*
X138454190Y-79558848D02*
X138430000Y-79534658D01*
X138405810Y-79486277D01*
X138405810Y-79365324D01*
X138430000Y-79316943D01*
X138454190Y-79292753D01*
X138502571Y-79268562D01*
X138550952Y-79268562D01*
X138623524Y-79292753D01*
X138913810Y-79583039D01*
X138913810Y-79268562D01*
X138405810Y-78808943D02*
X138405810Y-79050848D01*
X138647714Y-79075038D01*
X138623524Y-79050848D01*
X138599333Y-79002467D01*
X138599333Y-78881514D01*
X138623524Y-78833133D01*
X138647714Y-78808943D01*
X138696095Y-78784752D01*
X138817048Y-78784752D01*
X138865429Y-78808943D01*
X138889619Y-78833133D01*
X138913810Y-78881514D01*
X138913810Y-79002467D01*
X138889619Y-79050848D01*
X138865429Y-79075038D01*
X139246428Y-71174429D02*
X139222238Y-71198619D01*
X139149666Y-71222810D01*
X139101285Y-71222810D01*
X139028714Y-71198619D01*
X138980333Y-71150238D01*
X138956142Y-71101857D01*
X138931952Y-71005095D01*
X138931952Y-70932524D01*
X138956142Y-70835762D01*
X138980333Y-70787381D01*
X139028714Y-70739000D01*
X139101285Y-70714810D01*
X139149666Y-70714810D01*
X139222238Y-70739000D01*
X139246428Y-70763190D01*
X139439952Y-70763190D02*
X139464142Y-70739000D01*
X139512523Y-70714810D01*
X139633476Y-70714810D01*
X139681857Y-70739000D01*
X139706047Y-70763190D01*
X139730238Y-70811571D01*
X139730238Y-70859952D01*
X139706047Y-70932524D01*
X139415761Y-71222810D01*
X139730238Y-71222810D01*
X140020524Y-70932524D02*
X139972143Y-70908333D01*
X139947952Y-70884143D01*
X139923762Y-70835762D01*
X139923762Y-70811571D01*
X139947952Y-70763190D01*
X139972143Y-70739000D01*
X140020524Y-70714810D01*
X140117286Y-70714810D01*
X140165667Y-70739000D01*
X140189857Y-70763190D01*
X140214048Y-70811571D01*
X140214048Y-70835762D01*
X140189857Y-70884143D01*
X140165667Y-70908333D01*
X140117286Y-70932524D01*
X140020524Y-70932524D01*
X139972143Y-70956714D01*
X139947952Y-70980905D01*
X139923762Y-71029286D01*
X139923762Y-71126048D01*
X139947952Y-71174429D01*
X139972143Y-71198619D01*
X140020524Y-71222810D01*
X140117286Y-71222810D01*
X140165667Y-71198619D01*
X140189857Y-71174429D01*
X140214048Y-71126048D01*
X140214048Y-71029286D01*
X140189857Y-70980905D01*
X140165667Y-70956714D01*
X140117286Y-70932524D01*
X135690428Y-62411429D02*
X135666238Y-62435619D01*
X135593666Y-62459810D01*
X135545285Y-62459810D01*
X135472714Y-62435619D01*
X135424333Y-62387238D01*
X135400142Y-62338857D01*
X135375952Y-62242095D01*
X135375952Y-62169524D01*
X135400142Y-62072762D01*
X135424333Y-62024381D01*
X135472714Y-61976000D01*
X135545285Y-61951810D01*
X135593666Y-61951810D01*
X135666238Y-61976000D01*
X135690428Y-62000190D01*
X135859761Y-61951810D02*
X136174238Y-61951810D01*
X136004904Y-62145333D01*
X136077476Y-62145333D01*
X136125857Y-62169524D01*
X136150047Y-62193714D01*
X136174238Y-62242095D01*
X136174238Y-62363048D01*
X136150047Y-62411429D01*
X136125857Y-62435619D01*
X136077476Y-62459810D01*
X135932333Y-62459810D01*
X135883952Y-62435619D01*
X135859761Y-62411429D01*
X136658048Y-62459810D02*
X136367762Y-62459810D01*
X136512905Y-62459810D02*
X136512905Y-61951810D01*
X136464524Y-62024381D01*
X136416143Y-62072762D01*
X136367762Y-62096952D01*
X120831429Y-96592572D02*
X120855619Y-96616762D01*
X120879810Y-96689334D01*
X120879810Y-96737715D01*
X120855619Y-96810286D01*
X120807238Y-96858667D01*
X120758857Y-96882858D01*
X120662095Y-96907048D01*
X120589524Y-96907048D01*
X120492762Y-96882858D01*
X120444381Y-96858667D01*
X120396000Y-96810286D01*
X120371810Y-96737715D01*
X120371810Y-96689334D01*
X120396000Y-96616762D01*
X120420190Y-96592572D01*
X120371810Y-96423239D02*
X120371810Y-96108762D01*
X120565333Y-96278096D01*
X120565333Y-96205524D01*
X120589524Y-96157143D01*
X120613714Y-96132953D01*
X120662095Y-96108762D01*
X120783048Y-96108762D01*
X120831429Y-96132953D01*
X120855619Y-96157143D01*
X120879810Y-96205524D01*
X120879810Y-96350667D01*
X120855619Y-96399048D01*
X120831429Y-96423239D01*
X120371810Y-95939429D02*
X120371810Y-95624952D01*
X120565333Y-95794286D01*
X120565333Y-95721714D01*
X120589524Y-95673333D01*
X120613714Y-95649143D01*
X120662095Y-95624952D01*
X120783048Y-95624952D01*
X120831429Y-95649143D01*
X120855619Y-95673333D01*
X120879810Y-95721714D01*
X120879810Y-95866857D01*
X120855619Y-95915238D01*
X120831429Y-95939429D01*
X119764629Y-101596372D02*
X119788819Y-101620562D01*
X119813010Y-101693134D01*
X119813010Y-101741515D01*
X119788819Y-101814086D01*
X119740438Y-101862467D01*
X119692057Y-101886658D01*
X119595295Y-101910848D01*
X119522724Y-101910848D01*
X119425962Y-101886658D01*
X119377581Y-101862467D01*
X119329200Y-101814086D01*
X119305010Y-101741515D01*
X119305010Y-101693134D01*
X119329200Y-101620562D01*
X119353390Y-101596372D01*
X119305010Y-101427039D02*
X119305010Y-101112562D01*
X119498533Y-101281896D01*
X119498533Y-101209324D01*
X119522724Y-101160943D01*
X119546914Y-101136753D01*
X119595295Y-101112562D01*
X119716248Y-101112562D01*
X119764629Y-101136753D01*
X119788819Y-101160943D01*
X119813010Y-101209324D01*
X119813010Y-101354467D01*
X119788819Y-101402848D01*
X119764629Y-101427039D01*
X119474343Y-100677133D02*
X119813010Y-100677133D01*
X119280819Y-100798086D02*
X119643676Y-100919038D01*
X119643676Y-100604562D01*
X122863428Y-86287429D02*
X122839238Y-86311619D01*
X122766666Y-86335810D01*
X122718285Y-86335810D01*
X122645714Y-86311619D01*
X122597333Y-86263238D01*
X122573142Y-86214857D01*
X122548952Y-86118095D01*
X122548952Y-86045524D01*
X122573142Y-85948762D01*
X122597333Y-85900381D01*
X122645714Y-85852000D01*
X122718285Y-85827810D01*
X122766666Y-85827810D01*
X122839238Y-85852000D01*
X122863428Y-85876190D01*
X123032761Y-85827810D02*
X123347238Y-85827810D01*
X123177904Y-86021333D01*
X123250476Y-86021333D01*
X123298857Y-86045524D01*
X123323047Y-86069714D01*
X123347238Y-86118095D01*
X123347238Y-86239048D01*
X123323047Y-86287429D01*
X123298857Y-86311619D01*
X123250476Y-86335810D01*
X123105333Y-86335810D01*
X123056952Y-86311619D01*
X123032761Y-86287429D01*
X123782667Y-85827810D02*
X123685905Y-85827810D01*
X123637524Y-85852000D01*
X123613333Y-85876190D01*
X123564952Y-85948762D01*
X123540762Y-86045524D01*
X123540762Y-86239048D01*
X123564952Y-86287429D01*
X123589143Y-86311619D01*
X123637524Y-86335810D01*
X123734286Y-86335810D01*
X123782667Y-86311619D01*
X123806857Y-86287429D01*
X123831048Y-86239048D01*
X123831048Y-86118095D01*
X123806857Y-86069714D01*
X123782667Y-86045524D01*
X123734286Y-86021333D01*
X123637524Y-86021333D01*
X123589143Y-86045524D01*
X123564952Y-86069714D01*
X123540762Y-86118095D01*
X136422368Y-102848211D02*
X136422368Y-102882421D01*
X136388158Y-102950843D01*
X136353947Y-102985053D01*
X136285526Y-103019263D01*
X136217105Y-103019263D01*
X136165789Y-103002158D01*
X136080263Y-102950842D01*
X136028948Y-102899526D01*
X135977631Y-102814000D01*
X135960527Y-102762684D01*
X135960527Y-102694263D01*
X135994737Y-102625843D01*
X136028948Y-102591632D01*
X136097369Y-102557421D01*
X136131579Y-102557421D01*
X136422368Y-102198212D02*
X136251316Y-102369264D01*
X136405263Y-102557421D01*
X136405263Y-102523211D01*
X136422368Y-102471895D01*
X136507894Y-102386368D01*
X136559211Y-102369263D01*
X136593420Y-102369263D01*
X136644737Y-102386368D01*
X136730263Y-102471895D01*
X136747368Y-102523211D01*
X136747368Y-102557421D01*
X136730263Y-102608737D01*
X136644737Y-102694264D01*
X136593420Y-102711369D01*
X136559211Y-102711369D01*
X136661842Y-101958738D02*
X136696053Y-101924527D01*
X136747368Y-101907422D01*
X136781579Y-101907421D01*
X136832894Y-101924527D01*
X136918421Y-101975842D01*
X137003947Y-102061369D01*
X137055263Y-102146895D01*
X137072369Y-102198211D01*
X137072368Y-102232421D01*
X137055263Y-102283738D01*
X137021052Y-102317948D01*
X136969736Y-102335053D01*
X136935526Y-102335053D01*
X136884210Y-102317948D01*
X136798684Y-102266632D01*
X136713158Y-102181105D01*
X136661841Y-102095579D01*
X136644737Y-102044263D01*
X136644737Y-102010053D01*
X136661842Y-101958738D01*
X137595429Y-56460572D02*
X137619619Y-56484762D01*
X137643810Y-56557334D01*
X137643810Y-56605715D01*
X137619619Y-56678286D01*
X137571238Y-56726667D01*
X137522857Y-56750858D01*
X137426095Y-56775048D01*
X137353524Y-56775048D01*
X137256762Y-56750858D01*
X137208381Y-56726667D01*
X137160000Y-56678286D01*
X137135810Y-56605715D01*
X137135810Y-56557334D01*
X137160000Y-56484762D01*
X137184190Y-56460572D01*
X137135810Y-56000953D02*
X137135810Y-56242858D01*
X137377714Y-56267048D01*
X137353524Y-56242858D01*
X137329333Y-56194477D01*
X137329333Y-56073524D01*
X137353524Y-56025143D01*
X137377714Y-56000953D01*
X137426095Y-55976762D01*
X137547048Y-55976762D01*
X137595429Y-56000953D01*
X137619619Y-56025143D01*
X137643810Y-56073524D01*
X137643810Y-56194477D01*
X137619619Y-56242858D01*
X137595429Y-56267048D01*
X137353524Y-55686476D02*
X137329333Y-55734857D01*
X137305143Y-55759048D01*
X137256762Y-55783238D01*
X137232571Y-55783238D01*
X137184190Y-55759048D01*
X137160000Y-55734857D01*
X137135810Y-55686476D01*
X137135810Y-55589714D01*
X137160000Y-55541333D01*
X137184190Y-55517143D01*
X137232571Y-55492952D01*
X137256762Y-55492952D01*
X137305143Y-55517143D01*
X137329333Y-55541333D01*
X137353524Y-55589714D01*
X137353524Y-55686476D01*
X137377714Y-55734857D01*
X137401905Y-55759048D01*
X137450286Y-55783238D01*
X137547048Y-55783238D01*
X137595429Y-55759048D01*
X137619619Y-55734857D01*
X137643810Y-55686476D01*
X137643810Y-55589714D01*
X137619619Y-55541333D01*
X137595429Y-55517143D01*
X137547048Y-55492952D01*
X137450286Y-55492952D01*
X137401905Y-55517143D01*
X137377714Y-55541333D01*
X137353524Y-55589714D01*
X124514428Y-79683429D02*
X124490238Y-79707619D01*
X124417666Y-79731810D01*
X124369285Y-79731810D01*
X124296714Y-79707619D01*
X124248333Y-79659238D01*
X124224142Y-79610857D01*
X124199952Y-79514095D01*
X124199952Y-79441524D01*
X124224142Y-79344762D01*
X124248333Y-79296381D01*
X124296714Y-79248000D01*
X124369285Y-79223810D01*
X124417666Y-79223810D01*
X124490238Y-79248000D01*
X124514428Y-79272190D01*
X124949857Y-79223810D02*
X124853095Y-79223810D01*
X124804714Y-79248000D01*
X124780523Y-79272190D01*
X124732142Y-79344762D01*
X124707952Y-79441524D01*
X124707952Y-79635048D01*
X124732142Y-79683429D01*
X124756333Y-79707619D01*
X124804714Y-79731810D01*
X124901476Y-79731810D01*
X124949857Y-79707619D01*
X124974047Y-79683429D01*
X124998238Y-79635048D01*
X124998238Y-79514095D01*
X124974047Y-79465714D01*
X124949857Y-79441524D01*
X124901476Y-79417333D01*
X124804714Y-79417333D01*
X124756333Y-79441524D01*
X124732142Y-79465714D01*
X124707952Y-79514095D01*
X125312714Y-79223810D02*
X125361095Y-79223810D01*
X125409476Y-79248000D01*
X125433667Y-79272190D01*
X125457857Y-79320571D01*
X125482048Y-79417333D01*
X125482048Y-79538286D01*
X125457857Y-79635048D01*
X125433667Y-79683429D01*
X125409476Y-79707619D01*
X125361095Y-79731810D01*
X125312714Y-79731810D01*
X125264333Y-79707619D01*
X125240143Y-79683429D01*
X125215952Y-79635048D01*
X125191762Y-79538286D01*
X125191762Y-79417333D01*
X125215952Y-79320571D01*
X125240143Y-79272190D01*
X125264333Y-79248000D01*
X125312714Y-79223810D01*
X121605428Y-77448229D02*
X121581238Y-77472419D01*
X121508666Y-77496610D01*
X121460285Y-77496610D01*
X121387714Y-77472419D01*
X121339333Y-77424038D01*
X121315142Y-77375657D01*
X121290952Y-77278895D01*
X121290952Y-77206324D01*
X121315142Y-77109562D01*
X121339333Y-77061181D01*
X121387714Y-77012800D01*
X121460285Y-76988610D01*
X121508666Y-76988610D01*
X121581238Y-77012800D01*
X121605428Y-77036990D01*
X122040857Y-76988610D02*
X121944095Y-76988610D01*
X121895714Y-77012800D01*
X121871523Y-77036990D01*
X121823142Y-77109562D01*
X121798952Y-77206324D01*
X121798952Y-77399848D01*
X121823142Y-77448229D01*
X121847333Y-77472419D01*
X121895714Y-77496610D01*
X121992476Y-77496610D01*
X122040857Y-77472419D01*
X122065047Y-77448229D01*
X122089238Y-77399848D01*
X122089238Y-77278895D01*
X122065047Y-77230514D01*
X122040857Y-77206324D01*
X121992476Y-77182133D01*
X121895714Y-77182133D01*
X121847333Y-77206324D01*
X121823142Y-77230514D01*
X121798952Y-77278895D01*
X122573048Y-77496610D02*
X122282762Y-77496610D01*
X122427905Y-77496610D02*
X122427905Y-76988610D01*
X122379524Y-77061181D01*
X122331143Y-77109562D01*
X122282762Y-77133752D01*
X120323428Y-85525429D02*
X120299238Y-85549619D01*
X120226666Y-85573810D01*
X120178285Y-85573810D01*
X120105714Y-85549619D01*
X120057333Y-85501238D01*
X120033142Y-85452857D01*
X120008952Y-85356095D01*
X120008952Y-85283524D01*
X120033142Y-85186762D01*
X120057333Y-85138381D01*
X120105714Y-85090000D01*
X120178285Y-85065810D01*
X120226666Y-85065810D01*
X120299238Y-85090000D01*
X120323428Y-85114190D01*
X120758857Y-85065810D02*
X120662095Y-85065810D01*
X120613714Y-85090000D01*
X120589523Y-85114190D01*
X120541142Y-85186762D01*
X120516952Y-85283524D01*
X120516952Y-85477048D01*
X120541142Y-85525429D01*
X120565333Y-85549619D01*
X120613714Y-85573810D01*
X120710476Y-85573810D01*
X120758857Y-85549619D01*
X120783047Y-85525429D01*
X120807238Y-85477048D01*
X120807238Y-85356095D01*
X120783047Y-85307714D01*
X120758857Y-85283524D01*
X120710476Y-85259333D01*
X120613714Y-85259333D01*
X120565333Y-85283524D01*
X120541142Y-85307714D01*
X120516952Y-85356095D01*
X121000762Y-85114190D02*
X121024952Y-85090000D01*
X121073333Y-85065810D01*
X121194286Y-85065810D01*
X121242667Y-85090000D01*
X121266857Y-85114190D01*
X121291048Y-85162571D01*
X121291048Y-85210952D01*
X121266857Y-85283524D01*
X120976571Y-85573810D01*
X121291048Y-85573810D01*
X122149810Y-70303572D02*
X121907905Y-70472905D01*
X122149810Y-70593858D02*
X121641810Y-70593858D01*
X121641810Y-70400334D01*
X121666000Y-70351953D01*
X121690190Y-70327762D01*
X121738571Y-70303572D01*
X121811143Y-70303572D01*
X121859524Y-70327762D01*
X121883714Y-70351953D01*
X121907905Y-70400334D01*
X121907905Y-70593858D01*
X122149810Y-69819762D02*
X122149810Y-70110048D01*
X122149810Y-69964905D02*
X121641810Y-69964905D01*
X121714381Y-70013286D01*
X121762762Y-70061667D01*
X121786952Y-70110048D01*
X121641810Y-69505286D02*
X121641810Y-69456905D01*
X121666000Y-69408524D01*
X121690190Y-69384333D01*
X121738571Y-69360143D01*
X121835333Y-69335952D01*
X121956286Y-69335952D01*
X122053048Y-69360143D01*
X122101429Y-69384333D01*
X122125619Y-69408524D01*
X122149810Y-69456905D01*
X122149810Y-69505286D01*
X122125619Y-69553667D01*
X122101429Y-69577857D01*
X122053048Y-69602048D01*
X121956286Y-69626238D01*
X121835333Y-69626238D01*
X121738571Y-69602048D01*
X121690190Y-69577857D01*
X121666000Y-69553667D01*
X121641810Y-69505286D01*
X122149810Y-67763572D02*
X121907905Y-67932905D01*
X122149810Y-68053858D02*
X121641810Y-68053858D01*
X121641810Y-67860334D01*
X121666000Y-67811953D01*
X121690190Y-67787762D01*
X121738571Y-67763572D01*
X121811143Y-67763572D01*
X121859524Y-67787762D01*
X121883714Y-67811953D01*
X121907905Y-67860334D01*
X121907905Y-68053858D01*
X122149810Y-67279762D02*
X122149810Y-67570048D01*
X122149810Y-67424905D02*
X121641810Y-67424905D01*
X121714381Y-67473286D01*
X121762762Y-67521667D01*
X121786952Y-67570048D01*
X122149810Y-66795952D02*
X122149810Y-67086238D01*
X122149810Y-66941095D02*
X121641810Y-66941095D01*
X121714381Y-66989476D01*
X121762762Y-67037857D01*
X121786952Y-67086238D01*
X119942428Y-68530410D02*
X119773095Y-68288505D01*
X119652142Y-68530410D02*
X119652142Y-68022410D01*
X119845666Y-68022410D01*
X119894047Y-68046600D01*
X119918238Y-68070790D01*
X119942428Y-68119171D01*
X119942428Y-68191743D01*
X119918238Y-68240124D01*
X119894047Y-68264314D01*
X119845666Y-68288505D01*
X119652142Y-68288505D01*
X120426238Y-68530410D02*
X120135952Y-68530410D01*
X120281095Y-68530410D02*
X120281095Y-68022410D01*
X120232714Y-68094981D01*
X120184333Y-68143362D01*
X120135952Y-68167552D01*
X120619762Y-68070790D02*
X120643952Y-68046600D01*
X120692333Y-68022410D01*
X120813286Y-68022410D01*
X120861667Y-68046600D01*
X120885857Y-68070790D01*
X120910048Y-68119171D01*
X120910048Y-68167552D01*
X120885857Y-68240124D01*
X120595571Y-68530410D01*
X120910048Y-68530410D01*
X119942428Y-71476810D02*
X119773095Y-71234905D01*
X119652142Y-71476810D02*
X119652142Y-70968810D01*
X119845666Y-70968810D01*
X119894047Y-70993000D01*
X119918238Y-71017190D01*
X119942428Y-71065571D01*
X119942428Y-71138143D01*
X119918238Y-71186524D01*
X119894047Y-71210714D01*
X119845666Y-71234905D01*
X119652142Y-71234905D01*
X120426238Y-71476810D02*
X120135952Y-71476810D01*
X120281095Y-71476810D02*
X120281095Y-70968810D01*
X120232714Y-71041381D01*
X120184333Y-71089762D01*
X120135952Y-71113952D01*
X120595571Y-70968810D02*
X120910048Y-70968810D01*
X120740714Y-71162333D01*
X120813286Y-71162333D01*
X120861667Y-71186524D01*
X120885857Y-71210714D01*
X120910048Y-71259095D01*
X120910048Y-71380048D01*
X120885857Y-71428429D01*
X120861667Y-71452619D01*
X120813286Y-71476810D01*
X120668143Y-71476810D01*
X120619762Y-71452619D01*
X120595571Y-71428429D01*
X123193628Y-65634810D02*
X123024295Y-65392905D01*
X122903342Y-65634810D02*
X122903342Y-65126810D01*
X123096866Y-65126810D01*
X123145247Y-65151000D01*
X123169438Y-65175190D01*
X123193628Y-65223571D01*
X123193628Y-65296143D01*
X123169438Y-65344524D01*
X123145247Y-65368714D01*
X123096866Y-65392905D01*
X122903342Y-65392905D01*
X123677438Y-65634810D02*
X123387152Y-65634810D01*
X123532295Y-65634810D02*
X123532295Y-65126810D01*
X123483914Y-65199381D01*
X123435533Y-65247762D01*
X123387152Y-65271952D01*
X124112867Y-65296143D02*
X124112867Y-65634810D01*
X123991914Y-65102619D02*
X123870962Y-65465476D01*
X124185438Y-65465476D01*
X117656428Y-106909810D02*
X117487095Y-106667905D01*
X117366142Y-106909810D02*
X117366142Y-106401810D01*
X117559666Y-106401810D01*
X117608047Y-106426000D01*
X117632238Y-106450190D01*
X117656428Y-106498571D01*
X117656428Y-106571143D01*
X117632238Y-106619524D01*
X117608047Y-106643714D01*
X117559666Y-106667905D01*
X117366142Y-106667905D01*
X117849952Y-106450190D02*
X117874142Y-106426000D01*
X117922523Y-106401810D01*
X118043476Y-106401810D01*
X118091857Y-106426000D01*
X118116047Y-106450190D01*
X118140238Y-106498571D01*
X118140238Y-106546952D01*
X118116047Y-106619524D01*
X117825761Y-106909810D01*
X118140238Y-106909810D01*
X118309571Y-106401810D02*
X118624048Y-106401810D01*
X118454714Y-106595333D01*
X118527286Y-106595333D01*
X118575667Y-106619524D01*
X118599857Y-106643714D01*
X118624048Y-106692095D01*
X118624048Y-106813048D01*
X118599857Y-106861429D01*
X118575667Y-106885619D01*
X118527286Y-106909810D01*
X118382143Y-106909810D01*
X118333762Y-106885619D01*
X118309571Y-106861429D01*
X130686628Y-56414610D02*
X130517295Y-56172705D01*
X130396342Y-56414610D02*
X130396342Y-55906610D01*
X130589866Y-55906610D01*
X130638247Y-55930800D01*
X130662438Y-55954990D01*
X130686628Y-56003371D01*
X130686628Y-56075943D01*
X130662438Y-56124324D01*
X130638247Y-56148514D01*
X130589866Y-56172705D01*
X130396342Y-56172705D01*
X130855961Y-55906610D02*
X131170438Y-55906610D01*
X131001104Y-56100133D01*
X131073676Y-56100133D01*
X131122057Y-56124324D01*
X131146247Y-56148514D01*
X131170438Y-56196895D01*
X131170438Y-56317848D01*
X131146247Y-56366229D01*
X131122057Y-56390419D01*
X131073676Y-56414610D01*
X130928533Y-56414610D01*
X130880152Y-56390419D01*
X130855961Y-56366229D01*
X131412343Y-56414610D02*
X131509105Y-56414610D01*
X131557486Y-56390419D01*
X131581676Y-56366229D01*
X131630057Y-56293657D01*
X131654248Y-56196895D01*
X131654248Y-56003371D01*
X131630057Y-55954990D01*
X131605867Y-55930800D01*
X131557486Y-55906610D01*
X131460724Y-55906610D01*
X131412343Y-55930800D01*
X131388152Y-55954990D01*
X131363962Y-56003371D01*
X131363962Y-56124324D01*
X131388152Y-56172705D01*
X131412343Y-56196895D01*
X131460724Y-56221086D01*
X131557486Y-56221086D01*
X131605867Y-56196895D01*
X131630057Y-56172705D01*
X131654248Y-56124324D01*
X122526510Y-56542872D02*
X122284605Y-56712205D01*
X122526510Y-56833158D02*
X122018510Y-56833158D01*
X122018510Y-56639634D01*
X122042700Y-56591253D01*
X122066890Y-56567062D01*
X122115271Y-56542872D01*
X122187843Y-56542872D01*
X122236224Y-56567062D01*
X122260414Y-56591253D01*
X122284605Y-56639634D01*
X122284605Y-56833158D01*
X122187843Y-56107443D02*
X122526510Y-56107443D01*
X121994319Y-56228396D02*
X122357176Y-56349348D01*
X122357176Y-56034872D01*
X122066890Y-55865538D02*
X122042700Y-55841348D01*
X122018510Y-55792967D01*
X122018510Y-55672014D01*
X122042700Y-55623633D01*
X122066890Y-55599443D01*
X122115271Y-55575252D01*
X122163652Y-55575252D01*
X122236224Y-55599443D01*
X122526510Y-55889729D01*
X122526510Y-55575252D01*
X122526510Y-57939872D02*
X122284605Y-58109205D01*
X122526510Y-58230158D02*
X122018510Y-58230158D01*
X122018510Y-58036634D01*
X122042700Y-57988253D01*
X122066890Y-57964062D01*
X122115271Y-57939872D01*
X122187843Y-57939872D01*
X122236224Y-57964062D01*
X122260414Y-57988253D01*
X122284605Y-58036634D01*
X122284605Y-58230158D01*
X122187843Y-57504443D02*
X122526510Y-57504443D01*
X121994319Y-57625396D02*
X122357176Y-57746348D01*
X122357176Y-57431872D01*
X122018510Y-57286729D02*
X122018510Y-56972252D01*
X122212033Y-57141586D01*
X122212033Y-57069014D01*
X122236224Y-57020633D01*
X122260414Y-56996443D01*
X122308795Y-56972252D01*
X122429748Y-56972252D01*
X122478129Y-56996443D01*
X122502319Y-57020633D01*
X122526510Y-57069014D01*
X122526510Y-57214157D01*
X122502319Y-57262538D01*
X122478129Y-57286729D01*
X125578810Y-59508572D02*
X125336905Y-59677905D01*
X125578810Y-59798858D02*
X125070810Y-59798858D01*
X125070810Y-59605334D01*
X125095000Y-59556953D01*
X125119190Y-59532762D01*
X125167571Y-59508572D01*
X125240143Y-59508572D01*
X125288524Y-59532762D01*
X125312714Y-59556953D01*
X125336905Y-59605334D01*
X125336905Y-59798858D01*
X125240143Y-59073143D02*
X125578810Y-59073143D01*
X125046619Y-59194096D02*
X125409476Y-59315048D01*
X125409476Y-59000572D01*
X125240143Y-58589333D02*
X125578810Y-58589333D01*
X125046619Y-58710286D02*
X125409476Y-58831238D01*
X125409476Y-58516762D01*
X139373429Y-67001572D02*
X139397619Y-67025762D01*
X139421810Y-67098334D01*
X139421810Y-67146715D01*
X139397619Y-67219286D01*
X139349238Y-67267667D01*
X139300857Y-67291858D01*
X139204095Y-67316048D01*
X139131524Y-67316048D01*
X139034762Y-67291858D01*
X138986381Y-67267667D01*
X138938000Y-67219286D01*
X138913810Y-67146715D01*
X138913810Y-67098334D01*
X138938000Y-67025762D01*
X138962190Y-67001572D01*
X138962190Y-66808048D02*
X138938000Y-66783858D01*
X138913810Y-66735477D01*
X138913810Y-66614524D01*
X138938000Y-66566143D01*
X138962190Y-66541953D01*
X139010571Y-66517762D01*
X139058952Y-66517762D01*
X139131524Y-66541953D01*
X139421810Y-66832239D01*
X139421810Y-66517762D01*
X138913810Y-66348429D02*
X138913810Y-66009762D01*
X139421810Y-66227476D01*
X116737368Y-57831632D02*
X116378158Y-57472422D01*
X116463685Y-57386895D01*
X116532105Y-57352685D01*
X116600526Y-57352685D01*
X116651842Y-57369789D01*
X116737368Y-57421106D01*
X116788684Y-57472421D01*
X116840000Y-57557947D01*
X116857105Y-57609263D01*
X116857105Y-57677684D01*
X116822895Y-57746105D01*
X116737368Y-57831632D01*
X116908421Y-56942159D02*
X116737368Y-57113212D01*
X116891315Y-57301368D01*
X116891315Y-57267159D01*
X116908420Y-57215842D01*
X116993947Y-57130316D01*
X117045263Y-57113211D01*
X117079473Y-57113211D01*
X117130789Y-57130316D01*
X117216316Y-57215842D01*
X117233421Y-57267159D01*
X117233421Y-57301368D01*
X117216316Y-57352685D01*
X117130789Y-57438211D01*
X117079473Y-57455316D01*
X117045263Y-57455316D01*
X138484428Y-58855429D02*
X138460238Y-58879619D01*
X138387666Y-58903810D01*
X138339285Y-58903810D01*
X138266714Y-58879619D01*
X138218333Y-58831238D01*
X138194142Y-58782857D01*
X138169952Y-58686095D01*
X138169952Y-58613524D01*
X138194142Y-58516762D01*
X138218333Y-58468381D01*
X138266714Y-58420000D01*
X138339285Y-58395810D01*
X138387666Y-58395810D01*
X138460238Y-58420000D01*
X138484428Y-58444190D01*
X138653761Y-58395810D02*
X138968238Y-58395810D01*
X138798904Y-58589333D01*
X138871476Y-58589333D01*
X138919857Y-58613524D01*
X138944047Y-58637714D01*
X138968238Y-58686095D01*
X138968238Y-58807048D01*
X138944047Y-58855429D01*
X138919857Y-58879619D01*
X138871476Y-58903810D01*
X138726333Y-58903810D01*
X138677952Y-58879619D01*
X138653761Y-58855429D01*
X139161762Y-58444190D02*
X139185952Y-58420000D01*
X139234333Y-58395810D01*
X139355286Y-58395810D01*
X139403667Y-58420000D01*
X139427857Y-58444190D01*
X139452048Y-58492571D01*
X139452048Y-58540952D01*
X139427857Y-58613524D01*
X139137571Y-58903810D01*
X139452048Y-58903810D01*
X131339788Y-113308368D02*
X131305578Y-113308368D01*
X131237156Y-113274158D01*
X131202946Y-113239947D01*
X131168736Y-113171526D01*
X131168736Y-113103105D01*
X131185841Y-113051789D01*
X131237157Y-112966263D01*
X131288473Y-112914948D01*
X131373999Y-112863631D01*
X131425315Y-112846527D01*
X131493736Y-112846527D01*
X131562156Y-112880737D01*
X131596367Y-112914948D01*
X131630578Y-112983369D01*
X131630578Y-113017579D01*
X131989787Y-113308368D02*
X131818735Y-113137316D01*
X131630578Y-113291263D01*
X131664788Y-113291263D01*
X131716104Y-113308368D01*
X131801631Y-113393894D01*
X131818736Y-113445211D01*
X131818736Y-113479420D01*
X131801631Y-113530737D01*
X131716104Y-113616263D01*
X131664788Y-113633368D01*
X131630578Y-113633368D01*
X131579262Y-113616263D01*
X131493735Y-113530737D01*
X131476630Y-113479420D01*
X131476630Y-113445211D01*
X132331893Y-113650474D02*
X132160840Y-113479421D01*
X131972683Y-113633368D01*
X132006893Y-113633368D01*
X132058209Y-113650473D01*
X132143736Y-113736000D01*
X132160841Y-113787316D01*
X132160841Y-113821526D01*
X132143736Y-113872842D01*
X132058209Y-113958369D01*
X132006893Y-113975473D01*
X131972683Y-113975473D01*
X131921367Y-113958369D01*
X131835840Y-113872842D01*
X131818736Y-113821526D01*
X131818736Y-113787316D01*
X134260789Y-113816368D02*
X134226579Y-113816368D01*
X134158157Y-113782158D01*
X134123947Y-113747947D01*
X134089737Y-113679526D01*
X134089737Y-113611105D01*
X134106842Y-113559789D01*
X134158158Y-113474263D01*
X134209474Y-113422948D01*
X134295000Y-113371631D01*
X134346316Y-113354527D01*
X134414737Y-113354527D01*
X134483157Y-113388737D01*
X134517368Y-113422948D01*
X134551579Y-113491369D01*
X134551579Y-113525579D01*
X134910788Y-113816368D02*
X134739736Y-113645316D01*
X134551579Y-113799263D01*
X134585789Y-113799263D01*
X134637105Y-113816368D01*
X134722632Y-113901894D01*
X134739737Y-113953211D01*
X134739737Y-113987420D01*
X134722632Y-114038737D01*
X134637105Y-114124263D01*
X134585789Y-114141368D01*
X134551579Y-114141368D01*
X134500263Y-114124263D01*
X134414736Y-114038737D01*
X134397631Y-113987420D01*
X134397631Y-113953211D01*
X135116052Y-114261105D02*
X134876579Y-114500579D01*
X135167368Y-114038737D02*
X134825263Y-114209789D01*
X135047631Y-114432157D01*
X136927789Y-110387368D02*
X136893579Y-110387368D01*
X136825157Y-110353158D01*
X136790947Y-110318947D01*
X136756737Y-110250526D01*
X136756737Y-110182105D01*
X136773842Y-110130789D01*
X136825158Y-110045263D01*
X136876474Y-109993948D01*
X136962000Y-109942631D01*
X137013316Y-109925527D01*
X137081737Y-109925527D01*
X137150157Y-109959737D01*
X137184368Y-109993948D01*
X137218579Y-110062369D01*
X137218579Y-110096579D01*
X137577788Y-110387368D02*
X137406736Y-110216316D01*
X137218579Y-110370263D01*
X137252789Y-110370263D01*
X137304105Y-110387368D01*
X137389632Y-110472894D01*
X137406737Y-110524211D01*
X137406737Y-110558420D01*
X137389632Y-110609737D01*
X137304105Y-110695263D01*
X137252789Y-110712368D01*
X137218579Y-110712368D01*
X137167263Y-110695263D01*
X137081736Y-110609737D01*
X137064631Y-110558420D01*
X137064631Y-110524211D01*
X137902789Y-110712369D02*
X137834368Y-110643948D01*
X137783052Y-110626842D01*
X137748842Y-110626841D01*
X137663315Y-110643947D01*
X137577789Y-110695263D01*
X137440947Y-110832105D01*
X137423841Y-110883421D01*
X137423842Y-110917631D01*
X137440947Y-110968947D01*
X137509368Y-111037369D01*
X137560684Y-111054473D01*
X137594894Y-111054473D01*
X137646210Y-111037369D01*
X137731737Y-110951842D01*
X137748842Y-110900526D01*
X137748842Y-110866316D01*
X137731737Y-110815000D01*
X137663316Y-110746579D01*
X137612000Y-110729474D01*
X137577789Y-110729473D01*
X137526474Y-110746579D01*
X138962368Y-112500211D02*
X138962368Y-112534421D01*
X138928158Y-112602843D01*
X138893947Y-112637053D01*
X138825526Y-112671263D01*
X138757105Y-112671263D01*
X138705789Y-112654158D01*
X138620263Y-112602842D01*
X138568948Y-112551526D01*
X138517631Y-112466000D01*
X138500527Y-112414684D01*
X138500527Y-112346263D01*
X138534737Y-112277843D01*
X138568948Y-112243632D01*
X138637369Y-112209421D01*
X138671579Y-112209421D01*
X138962368Y-111850212D02*
X138791316Y-112021264D01*
X138945263Y-112209421D01*
X138945263Y-112175211D01*
X138962368Y-112123895D01*
X139047894Y-112038368D01*
X139099211Y-112021263D01*
X139133420Y-112021263D01*
X139184737Y-112038368D01*
X139270263Y-112123895D01*
X139287368Y-112175211D01*
X139287368Y-112209421D01*
X139270263Y-112260737D01*
X139184737Y-112346264D01*
X139133420Y-112363369D01*
X139099211Y-112363369D01*
X139099211Y-111713369D02*
X139338684Y-111473896D01*
X139543947Y-111987053D01*
X140945810Y-75510572D02*
X140703905Y-75679905D01*
X140945810Y-75800858D02*
X140437810Y-75800858D01*
X140437810Y-75607334D01*
X140462000Y-75558953D01*
X140486190Y-75534762D01*
X140534571Y-75510572D01*
X140607143Y-75510572D01*
X140655524Y-75534762D01*
X140679714Y-75558953D01*
X140703905Y-75607334D01*
X140703905Y-75800858D01*
X140486190Y-75317048D02*
X140462000Y-75292858D01*
X140437810Y-75244477D01*
X140437810Y-75123524D01*
X140462000Y-75075143D01*
X140486190Y-75050953D01*
X140534571Y-75026762D01*
X140582952Y-75026762D01*
X140655524Y-75050953D01*
X140945810Y-75341239D01*
X140945810Y-75026762D01*
X140437810Y-74857429D02*
X140437810Y-74518762D01*
X140945810Y-74736476D01*
X140564810Y-82114572D02*
X140322905Y-82283905D01*
X140564810Y-82404858D02*
X140056810Y-82404858D01*
X140056810Y-82211334D01*
X140081000Y-82162953D01*
X140105190Y-82138762D01*
X140153571Y-82114572D01*
X140226143Y-82114572D01*
X140274524Y-82138762D01*
X140298714Y-82162953D01*
X140322905Y-82211334D01*
X140322905Y-82404858D01*
X140105190Y-81921048D02*
X140081000Y-81896858D01*
X140056810Y-81848477D01*
X140056810Y-81727524D01*
X140081000Y-81679143D01*
X140105190Y-81654953D01*
X140153571Y-81630762D01*
X140201952Y-81630762D01*
X140274524Y-81654953D01*
X140564810Y-81945239D01*
X140564810Y-81630762D01*
X140274524Y-81340476D02*
X140250333Y-81388857D01*
X140226143Y-81413048D01*
X140177762Y-81437238D01*
X140153571Y-81437238D01*
X140105190Y-81413048D01*
X140081000Y-81388857D01*
X140056810Y-81340476D01*
X140056810Y-81243714D01*
X140081000Y-81195333D01*
X140105190Y-81171143D01*
X140153571Y-81146952D01*
X140177762Y-81146952D01*
X140226143Y-81171143D01*
X140250333Y-81195333D01*
X140274524Y-81243714D01*
X140274524Y-81340476D01*
X140298714Y-81388857D01*
X140322905Y-81413048D01*
X140371286Y-81437238D01*
X140468048Y-81437238D01*
X140516429Y-81413048D01*
X140540619Y-81388857D01*
X140564810Y-81340476D01*
X140564810Y-81243714D01*
X140540619Y-81195333D01*
X140516429Y-81171143D01*
X140468048Y-81146952D01*
X140371286Y-81146952D01*
X140322905Y-81171143D01*
X140298714Y-81195333D01*
X140274524Y-81243714D01*
X131547810Y-93097048D02*
X131959048Y-93097048D01*
X132007429Y-93072857D01*
X132031619Y-93048667D01*
X132055810Y-93000286D01*
X132055810Y-92903524D01*
X132031619Y-92855143D01*
X132007429Y-92830952D01*
X131959048Y-92806762D01*
X131547810Y-92806762D01*
X132055810Y-92298762D02*
X132055810Y-92589048D01*
X132055810Y-92443905D02*
X131547810Y-92443905D01*
X131620381Y-92492286D01*
X131668762Y-92540667D01*
X131692952Y-92589048D01*
X120656047Y-64618810D02*
X120656047Y-64110810D01*
X120777000Y-64110810D01*
X120849571Y-64135000D01*
X120897952Y-64183381D01*
X120922143Y-64231762D01*
X120946333Y-64328524D01*
X120946333Y-64401095D01*
X120922143Y-64497857D01*
X120897952Y-64546238D01*
X120849571Y-64594619D01*
X120777000Y-64618810D01*
X120656047Y-64618810D01*
X121381762Y-64280143D02*
X121381762Y-64618810D01*
X121260809Y-64086619D02*
X121139857Y-64449476D01*
X121454333Y-64449476D01*
X121641810Y-81920953D02*
X122053048Y-81920953D01*
X122101429Y-81896762D01*
X122125619Y-81872572D01*
X122149810Y-81824191D01*
X122149810Y-81727429D01*
X122125619Y-81679048D01*
X122101429Y-81654857D01*
X122053048Y-81630667D01*
X121641810Y-81630667D01*
X122149810Y-81122667D02*
X122149810Y-81412953D01*
X122149810Y-81267810D02*
X121641810Y-81267810D01*
X121714381Y-81316191D01*
X121762762Y-81364572D01*
X121786952Y-81412953D01*
X121641810Y-80808191D02*
X121641810Y-80759810D01*
X121666000Y-80711429D01*
X121690190Y-80687238D01*
X121738571Y-80663048D01*
X121835333Y-80638857D01*
X121956286Y-80638857D01*
X122053048Y-80663048D01*
X122101429Y-80687238D01*
X122125619Y-80711429D01*
X122149810Y-80759810D01*
X122149810Y-80808191D01*
X122125619Y-80856572D01*
X122101429Y-80880762D01*
X122053048Y-80904953D01*
X121956286Y-80929143D01*
X121835333Y-80929143D01*
X121738571Y-80904953D01*
X121690190Y-80880762D01*
X121666000Y-80856572D01*
X121641810Y-80808191D01*
X146673428Y-113846429D02*
X146649238Y-113870619D01*
X146576666Y-113894810D01*
X146528285Y-113894810D01*
X146455714Y-113870619D01*
X146407333Y-113822238D01*
X146383142Y-113773857D01*
X146358952Y-113677095D01*
X146358952Y-113604524D01*
X146383142Y-113507762D01*
X146407333Y-113459381D01*
X146455714Y-113411000D01*
X146528285Y-113386810D01*
X146576666Y-113386810D01*
X146649238Y-113411000D01*
X146673428Y-113435190D01*
X147108857Y-113556143D02*
X147108857Y-113894810D01*
X146987904Y-113362619D02*
X146866952Y-113725476D01*
X147181428Y-113725476D01*
X147592667Y-113386810D02*
X147495905Y-113386810D01*
X147447524Y-113411000D01*
X147423333Y-113435190D01*
X147374952Y-113507762D01*
X147350762Y-113604524D01*
X147350762Y-113798048D01*
X147374952Y-113846429D01*
X147399143Y-113870619D01*
X147447524Y-113894810D01*
X147544286Y-113894810D01*
X147592667Y-113870619D01*
X147616857Y-113846429D01*
X147641048Y-113798048D01*
X147641048Y-113677095D01*
X147616857Y-113628714D01*
X147592667Y-113604524D01*
X147544286Y-113580333D01*
X147447524Y-113580333D01*
X147399143Y-113604524D01*
X147374952Y-113628714D01*
X147350762Y-113677095D01*
X167948428Y-113846429D02*
X167924238Y-113870619D01*
X167851666Y-113894810D01*
X167803285Y-113894810D01*
X167730714Y-113870619D01*
X167682333Y-113822238D01*
X167658142Y-113773857D01*
X167633952Y-113677095D01*
X167633952Y-113604524D01*
X167658142Y-113507762D01*
X167682333Y-113459381D01*
X167730714Y-113411000D01*
X167803285Y-113386810D01*
X167851666Y-113386810D01*
X167924238Y-113411000D01*
X167948428Y-113435190D01*
X168383857Y-113556143D02*
X168383857Y-113894810D01*
X168262904Y-113362619D02*
X168141952Y-113725476D01*
X168456428Y-113725476D01*
X168601571Y-113386810D02*
X168940238Y-113386810D01*
X168722524Y-113894810D01*
%LPC*%
D19*
X120523000Y-88634000D03*
X120523000Y-87134000D03*
D20*
X129532000Y-62230000D03*
X132842000Y-62230000D03*
D21*
X117983000Y-105349040D03*
D22*
X117983000Y-101346000D03*
X117983000Y-103347520D03*
D23*
X133834000Y-83566000D03*
X130834000Y-83566000D03*
D10*
G36*
X127929008Y-107506662D02*
X128459338Y-108036992D01*
X127893652Y-108602678D01*
X127363322Y-108072348D01*
X127929008Y-107506662D01*
X127929008Y-107506662D01*
G37*
G36*
X126868348Y-108567322D02*
X127398678Y-109097652D01*
X126832992Y-109663338D01*
X126302662Y-109133008D01*
X126868348Y-108567322D01*
X126868348Y-108567322D01*
G37*
G36*
X136484992Y-107250338D02*
X135954662Y-106720008D01*
X136520348Y-106154322D01*
X137050678Y-106684652D01*
X136484992Y-107250338D01*
X136484992Y-107250338D01*
G37*
G36*
X137545652Y-106189678D02*
X137015322Y-105659348D01*
X137581008Y-105093662D01*
X138111338Y-105623992D01*
X137545652Y-106189678D01*
X137545652Y-106189678D01*
G37*
G36*
X136405909Y-104130695D02*
X137042305Y-104767091D01*
X136688751Y-105120645D01*
X136052355Y-104484249D01*
X136405909Y-104130695D01*
X136405909Y-104130695D01*
G37*
G36*
X135345249Y-105191355D02*
X135981645Y-105827751D01*
X135628091Y-106181305D01*
X134991695Y-105544909D01*
X135345249Y-105191355D01*
X135345249Y-105191355D01*
G37*
D24*
X136461500Y-76471780D03*
X136461500Y-75971400D03*
X136461500Y-75471020D03*
X136461500Y-74970640D03*
X136461500Y-74470260D03*
X136461500Y-73972420D03*
X136461500Y-73472040D03*
X136461500Y-72971660D03*
X136461500Y-72471280D03*
X136461500Y-71970900D03*
X136461500Y-71470520D03*
X136461500Y-80970120D03*
X136461500Y-80472280D03*
X136461500Y-79971900D03*
X128460500Y-75471020D03*
X136461500Y-78971140D03*
X136461500Y-78470760D03*
X136461500Y-77970380D03*
X136461500Y-77472540D03*
X136461500Y-76972160D03*
X128460500Y-72971660D03*
X128460500Y-73472040D03*
X128460500Y-73972420D03*
X128460500Y-74470260D03*
X128460500Y-74970640D03*
X136461500Y-79471520D03*
X128460500Y-75971400D03*
X128460500Y-76471780D03*
X128460500Y-76972160D03*
X128460500Y-77472540D03*
X128460500Y-77970380D03*
X128460500Y-78470760D03*
X128460500Y-78971140D03*
X128460500Y-67472560D03*
X128460500Y-67970400D03*
X128460500Y-68470780D03*
X128460500Y-68971160D03*
X128460500Y-69471540D03*
X128460500Y-69971920D03*
X128460500Y-70472300D03*
X128460500Y-70970140D03*
X128460500Y-71470520D03*
X128460500Y-71970900D03*
X128460500Y-72471280D03*
X128460500Y-79471520D03*
X128460500Y-79971900D03*
X128460500Y-80472280D03*
X128460500Y-80970120D03*
X136461500Y-70970140D03*
X136461500Y-70472300D03*
X136461500Y-69971920D03*
X136461500Y-69471540D03*
X136461500Y-68971160D03*
X136461500Y-68470780D03*
X136461500Y-67970400D03*
X136461500Y-67472560D03*
D25*
X132461000Y-74168000D03*
D10*
G36*
X133611909Y-107813695D02*
X134248305Y-108450091D01*
X133894751Y-108803645D01*
X133258355Y-108167249D01*
X133611909Y-107813695D01*
X133611909Y-107813695D01*
G37*
G36*
X132551249Y-108874355D02*
X133187645Y-109510751D01*
X132834091Y-109864305D01*
X132197695Y-109227909D01*
X132551249Y-108874355D01*
X132551249Y-108874355D01*
G37*
G36*
X134406008Y-101918662D02*
X134936338Y-102448992D01*
X134370652Y-103014678D01*
X133840322Y-102484348D01*
X134406008Y-101918662D01*
X134406008Y-101918662D01*
G37*
G36*
X133345348Y-102979322D02*
X133875678Y-103509652D01*
X133309992Y-104075338D01*
X132779662Y-103545008D01*
X133345348Y-102979322D01*
X133345348Y-102979322D01*
G37*
D26*
X166334000Y-76327000D03*
D27*
X167734000Y-75752000D03*
X167734000Y-76902000D03*
X170534000Y-76902000D03*
X170534000Y-75752000D03*
X167734000Y-74602000D03*
X170534000Y-74602000D03*
X167734000Y-78052000D03*
X170534000Y-78052000D03*
D28*
X164084000Y-76327000D03*
X164084000Y-74127000D03*
X164084000Y-78527000D03*
X173384000Y-76327000D03*
X173384000Y-78527000D03*
X173384000Y-74127000D03*
D29*
X170393000Y-67694000D03*
D30*
X169818000Y-66294000D03*
X170968000Y-66294000D03*
X170968000Y-63494000D03*
X169818000Y-63494000D03*
X168668000Y-66294000D03*
X168668000Y-63494000D03*
X172118000Y-66294000D03*
X172118000Y-63494000D03*
D31*
X170393000Y-69944000D03*
X168193000Y-69944000D03*
X172593000Y-69944000D03*
X170393000Y-60644000D03*
X172593000Y-60644000D03*
X168193000Y-60644000D03*
D26*
X144334000Y-76327000D03*
D27*
X145734000Y-75752000D03*
X145734000Y-76902000D03*
X148534000Y-76902000D03*
X148534000Y-75752000D03*
X145734000Y-74602000D03*
X148534000Y-74602000D03*
X145734000Y-78052000D03*
X148534000Y-78052000D03*
D28*
X142084000Y-76327000D03*
X142084000Y-74127000D03*
X142084000Y-78527000D03*
X151384000Y-76327000D03*
X151384000Y-78527000D03*
X151384000Y-74127000D03*
D32*
X151384000Y-58166000D03*
X164084000Y-58166000D03*
D10*
G36*
X136026305Y-109989909D02*
X135389909Y-110626305D01*
X135036355Y-110272751D01*
X135672751Y-109636355D01*
X136026305Y-109989909D01*
X136026305Y-109989909D01*
G37*
G36*
X134965645Y-108929249D02*
X134329249Y-109565645D01*
X133975695Y-109212091D01*
X134612091Y-108575695D01*
X134965645Y-108929249D01*
X134965645Y-108929249D01*
G37*
G36*
X132707091Y-111870905D02*
X132070695Y-111234509D01*
X132424249Y-110880955D01*
X133060645Y-111517351D01*
X132707091Y-111870905D01*
X132707091Y-111870905D01*
G37*
G36*
X133767751Y-110810245D02*
X133131355Y-110173849D01*
X133484909Y-109820295D01*
X134121305Y-110456691D01*
X133767751Y-110810245D01*
X133767751Y-110810245D01*
G37*
D33*
X123256040Y-109474000D03*
D34*
X119253000Y-109474000D03*
X121254520Y-109474000D03*
X117254020Y-109474000D03*
D33*
X126898480Y-58039000D03*
D34*
X130901520Y-58039000D03*
X128900000Y-58039000D03*
X132900500Y-58039000D03*
X134902020Y-58039000D03*
X136903540Y-58039000D03*
D22*
X117983000Y-78867000D03*
X117983000Y-80865980D03*
X117983000Y-82867500D03*
D21*
X117983000Y-90873580D03*
D22*
X117983000Y-86870540D03*
X117983000Y-88872060D03*
X117983000Y-84871560D03*
X117983000Y-76868020D03*
D21*
X117983000Y-72456040D03*
D22*
X117983000Y-68453000D03*
X117983000Y-70454520D03*
X117983000Y-66454020D03*
X117983000Y-64452500D03*
D35*
X124200000Y-99916500D03*
X123550000Y-99916500D03*
X122900000Y-99916500D03*
X122250000Y-99916500D03*
X122250000Y-103016500D03*
X122900000Y-103016500D03*
X123550000Y-103016500D03*
X124200000Y-103016500D03*
D36*
X122625000Y-101854000D03*
X123825000Y-101854000D03*
X122625000Y-101079000D03*
X123825000Y-101079000D03*
D10*
G36*
X130144482Y-104177400D02*
X130356614Y-103965268D01*
X130872802Y-104481456D01*
X130660670Y-104693588D01*
X130144482Y-104177400D01*
X130144482Y-104177400D01*
G37*
G36*
X129790929Y-104530954D02*
X130003061Y-104318822D01*
X130519249Y-104835010D01*
X130307117Y-105047142D01*
X129790929Y-104530954D01*
X129790929Y-104530954D01*
G37*
G36*
X129437375Y-104884507D02*
X129649507Y-104672375D01*
X130165695Y-105188563D01*
X129953563Y-105400695D01*
X129437375Y-104884507D01*
X129437375Y-104884507D01*
G37*
G36*
X129083822Y-105238061D02*
X129295954Y-105025929D01*
X129812142Y-105542117D01*
X129600010Y-105754249D01*
X129083822Y-105238061D01*
X129083822Y-105238061D01*
G37*
G36*
X128730268Y-105591614D02*
X128942400Y-105379482D01*
X129458588Y-105895670D01*
X129246456Y-106107802D01*
X128730268Y-105591614D01*
X128730268Y-105591614D01*
G37*
G36*
X128942400Y-107472518D02*
X128730268Y-107260386D01*
X129246456Y-106744198D01*
X129458588Y-106956330D01*
X128942400Y-107472518D01*
X128942400Y-107472518D01*
G37*
G36*
X129295954Y-107826071D02*
X129083822Y-107613939D01*
X129600010Y-107097751D01*
X129812142Y-107309883D01*
X129295954Y-107826071D01*
X129295954Y-107826071D01*
G37*
G36*
X129649507Y-108179625D02*
X129437375Y-107967493D01*
X129953563Y-107451305D01*
X130165695Y-107663437D01*
X129649507Y-108179625D01*
X129649507Y-108179625D01*
G37*
G36*
X130003061Y-108533178D02*
X129790929Y-108321046D01*
X130307117Y-107804858D01*
X130519249Y-108016990D01*
X130003061Y-108533178D01*
X130003061Y-108533178D01*
G37*
G36*
X130356614Y-108886732D02*
X130144482Y-108674600D01*
X130660670Y-108158412D01*
X130872802Y-108370544D01*
X130356614Y-108886732D01*
X130356614Y-108886732D01*
G37*
G36*
X131509198Y-108370544D02*
X131721330Y-108158412D01*
X132237518Y-108674600D01*
X132025386Y-108886732D01*
X131509198Y-108370544D01*
X131509198Y-108370544D01*
G37*
G36*
X131862751Y-108016990D02*
X132074883Y-107804858D01*
X132591071Y-108321046D01*
X132378939Y-108533178D01*
X131862751Y-108016990D01*
X131862751Y-108016990D01*
G37*
G36*
X132216305Y-107663437D02*
X132428437Y-107451305D01*
X132944625Y-107967493D01*
X132732493Y-108179625D01*
X132216305Y-107663437D01*
X132216305Y-107663437D01*
G37*
G36*
X132569858Y-107309883D02*
X132781990Y-107097751D01*
X133298178Y-107613939D01*
X133086046Y-107826071D01*
X132569858Y-107309883D01*
X132569858Y-107309883D01*
G37*
G36*
X132923412Y-106956330D02*
X133135544Y-106744198D01*
X133651732Y-107260386D01*
X133439600Y-107472518D01*
X132923412Y-106956330D01*
X132923412Y-106956330D01*
G37*
G36*
X133135544Y-106107802D02*
X132923412Y-105895670D01*
X133439600Y-105379482D01*
X133651732Y-105591614D01*
X133135544Y-106107802D01*
X133135544Y-106107802D01*
G37*
G36*
X132781990Y-105754249D02*
X132569858Y-105542117D01*
X133086046Y-105025929D01*
X133298178Y-105238061D01*
X132781990Y-105754249D01*
X132781990Y-105754249D01*
G37*
G36*
X132428437Y-105400695D02*
X132216305Y-105188563D01*
X132732493Y-104672375D01*
X132944625Y-104884507D01*
X132428437Y-105400695D01*
X132428437Y-105400695D01*
G37*
G36*
X132074883Y-105047142D02*
X131862751Y-104835010D01*
X132378939Y-104318822D01*
X132591071Y-104530954D01*
X132074883Y-105047142D01*
X132074883Y-105047142D01*
G37*
G36*
X131721330Y-104693588D02*
X131509198Y-104481456D01*
X132025386Y-103965268D01*
X132237518Y-104177400D01*
X131721330Y-104693588D01*
X131721330Y-104693588D01*
G37*
G36*
X130307117Y-107309883D02*
X131191000Y-106426000D01*
X132074883Y-107309883D01*
X131191000Y-108193766D01*
X130307117Y-107309883D01*
X130307117Y-107309883D01*
G37*
G36*
X131191000Y-106426000D02*
X132074883Y-105542117D01*
X132958766Y-106426000D01*
X132074883Y-107309883D01*
X131191000Y-106426000D01*
X131191000Y-106426000D01*
G37*
G36*
X129423234Y-106426000D02*
X130307117Y-105542117D01*
X131191000Y-106426000D01*
X130307117Y-107309883D01*
X129423234Y-106426000D01*
X129423234Y-106426000D01*
G37*
G36*
X130307117Y-105542117D02*
X131191000Y-104658234D01*
X132074883Y-105542117D01*
X131191000Y-106426000D01*
X130307117Y-105542117D01*
X130307117Y-105542117D01*
G37*
D29*
X145087000Y-67678000D03*
D30*
X144512000Y-66278000D03*
X145662000Y-66278000D03*
X145662000Y-63478000D03*
X144512000Y-63478000D03*
X143362000Y-66278000D03*
X143362000Y-63478000D03*
X146812000Y-66278000D03*
X146812000Y-63478000D03*
D31*
X145087000Y-69928000D03*
X142887000Y-69928000D03*
X147287000Y-69928000D03*
X145087000Y-60628000D03*
X147287000Y-60628000D03*
X142887000Y-60628000D03*
D26*
X155321000Y-76327000D03*
D27*
X156721000Y-75752000D03*
X156721000Y-76902000D03*
X159521000Y-76902000D03*
X159521000Y-75752000D03*
X156721000Y-74602000D03*
X159521000Y-74602000D03*
X156721000Y-78052000D03*
X159521000Y-78052000D03*
D28*
X153071000Y-76327000D03*
X153071000Y-74127000D03*
X153071000Y-78527000D03*
X162371000Y-76327000D03*
X162371000Y-78527000D03*
X162371000Y-74127000D03*
D29*
X157734000Y-67678000D03*
D30*
X157159000Y-66278000D03*
X158309000Y-66278000D03*
X158309000Y-63478000D03*
X157159000Y-63478000D03*
X156009000Y-66278000D03*
X156009000Y-63478000D03*
X159459000Y-66278000D03*
X159459000Y-63478000D03*
D31*
X157734000Y-69928000D03*
X155534000Y-69928000D03*
X159934000Y-69928000D03*
X157734000Y-60628000D03*
X159934000Y-60628000D03*
X155534000Y-60628000D03*
D37*
X126492000Y-107176000D03*
X126492000Y-112776000D03*
D38*
X128642000Y-109976000D03*
D39*
X151384000Y-65913000D03*
X164084000Y-65913000D03*
D40*
X133489000Y-100076000D03*
X134989000Y-100076000D03*
D19*
X124269500Y-90031000D03*
X124269500Y-88531000D03*
X128143000Y-85459000D03*
X128143000Y-83959000D03*
D40*
X123646500Y-97790000D03*
X125146500Y-97790000D03*
D19*
X139192000Y-87908000D03*
X139192000Y-89408000D03*
D40*
X124625800Y-72593200D03*
X123125800Y-72593200D03*
X124625800Y-74041000D03*
X123125800Y-74041000D03*
X126251400Y-69723000D03*
X124751400Y-69723000D03*
D19*
X125349000Y-78347000D03*
X125349000Y-76847000D03*
D40*
X124726000Y-66802000D03*
X126226000Y-66802000D03*
D19*
X126365000Y-74180000D03*
X126365000Y-75680000D03*
X127000000Y-80530000D03*
X127000000Y-82030000D03*
D40*
X140323000Y-63754000D03*
X138823000Y-63754000D03*
D19*
X138303000Y-71005000D03*
X138303000Y-72505000D03*
X138303000Y-73799000D03*
X138303000Y-75299000D03*
X138303000Y-76593000D03*
X138303000Y-78093000D03*
D40*
X140323000Y-69850000D03*
X138823000Y-69850000D03*
X137299000Y-62230000D03*
X138799000Y-62230000D03*
D19*
X120650000Y-97548000D03*
X120650000Y-99048000D03*
X120650000Y-102096000D03*
X120650000Y-100596000D03*
D40*
X124511500Y-87122000D03*
X123011500Y-87122000D03*
D10*
G36*
X134325992Y-105218338D02*
X133795662Y-104688008D01*
X134361348Y-104122322D01*
X134891678Y-104652652D01*
X134325992Y-105218338D01*
X134325992Y-105218338D01*
G37*
G36*
X135386652Y-104157678D02*
X134856322Y-103627348D01*
X135422008Y-103061662D01*
X135952338Y-103591992D01*
X135386652Y-104157678D01*
X135386652Y-104157678D01*
G37*
D40*
X134936800Y-56083200D03*
X136436800Y-56083200D03*
D19*
X124841000Y-80530000D03*
X124841000Y-82030000D03*
D40*
X122682000Y-78359000D03*
X121182000Y-78359000D03*
X121400000Y-84201000D03*
X119900000Y-84201000D03*
D41*
X123113800Y-70727000D03*
X123113800Y-69227000D03*
X123113800Y-68136200D03*
X123113800Y-66636200D03*
D42*
X124751400Y-68249800D03*
X126251400Y-68249800D03*
X124751400Y-71196200D03*
X126251400Y-71196200D03*
X124726000Y-65354200D03*
X126226000Y-65354200D03*
X119519000Y-107315000D03*
X121019000Y-107315000D03*
X133719000Y-56134000D03*
X132219000Y-56134000D03*
X124575000Y-56134000D03*
X123075000Y-56134000D03*
X124575000Y-57658000D03*
X123075000Y-57658000D03*
X124575000Y-59182000D03*
X123075000Y-59182000D03*
D43*
X139192000Y-68175000D03*
X139192000Y-65175000D03*
D10*
G36*
X116702299Y-61862494D02*
X115429506Y-60589701D01*
X117197273Y-58821934D01*
X118470066Y-60094727D01*
X116702299Y-61862494D01*
X116702299Y-61862494D01*
G37*
G36*
X119530727Y-59034066D02*
X118257934Y-57761273D01*
X120025701Y-55993506D01*
X121298494Y-57266299D01*
X119530727Y-59034066D01*
X119530727Y-59034066D01*
G37*
D44*
X137182000Y-60198000D03*
X139932000Y-60198000D03*
D10*
G36*
X132191182Y-112859736D02*
X132544736Y-112506182D01*
X132969000Y-112930446D01*
X132615446Y-113284000D01*
X132191182Y-112859736D01*
X132191182Y-112859736D01*
G37*
G36*
X132969000Y-113637554D02*
X133322554Y-113284000D01*
X133746818Y-113708264D01*
X133393264Y-114061818D01*
X132969000Y-113637554D01*
X132969000Y-113637554D01*
G37*
G36*
X132953182Y-112097736D02*
X133306736Y-111744182D01*
X133731000Y-112168446D01*
X133377446Y-112522000D01*
X132953182Y-112097736D01*
X132953182Y-112097736D01*
G37*
G36*
X133731000Y-112875554D02*
X134084554Y-112522000D01*
X134508818Y-112946264D01*
X134155264Y-113299818D01*
X133731000Y-112875554D01*
X133731000Y-112875554D01*
G37*
G36*
X137429818Y-111549264D02*
X137076264Y-111902818D01*
X136652000Y-111478554D01*
X137005554Y-111125000D01*
X137429818Y-111549264D01*
X137429818Y-111549264D01*
G37*
G36*
X136652000Y-110771446D02*
X136298446Y-111125000D01*
X135874182Y-110700736D01*
X136227736Y-110347182D01*
X136652000Y-110771446D01*
X136652000Y-110771446D01*
G37*
G36*
X137624736Y-112537818D02*
X137271182Y-112184264D01*
X137695446Y-111760000D01*
X138049000Y-112113554D01*
X137624736Y-112537818D01*
X137624736Y-112537818D01*
G37*
G36*
X138402554Y-111760000D02*
X138049000Y-111406446D01*
X138473264Y-110982182D01*
X138826818Y-111335736D01*
X138402554Y-111760000D01*
X138402554Y-111760000D01*
G37*
D41*
X140335000Y-76339000D03*
X140335000Y-77839000D03*
X140335000Y-79133000D03*
X140335000Y-80633000D03*
D45*
X135576000Y-86960001D03*
X135076001Y-86960001D03*
X134576000Y-86960001D03*
X134076001Y-86960001D03*
X133575999Y-86960001D03*
X133076000Y-86960001D03*
X132576001Y-86960001D03*
X132076000Y-86960001D03*
X131576000Y-86960001D03*
X131075999Y-86960001D03*
X130576000Y-86960001D03*
X130076001Y-86960001D03*
X129575999Y-86960001D03*
X129076000Y-86960001D03*
X128575999Y-86960001D03*
X128076000Y-86960001D03*
D46*
X126076001Y-88960000D03*
X126076001Y-89459999D03*
X126076001Y-89960000D03*
X126076001Y-90459999D03*
X126076001Y-90960001D03*
X126076001Y-91460000D03*
X126076001Y-91959999D03*
X126076001Y-92460000D03*
X126076001Y-92960000D03*
X126076001Y-93460001D03*
X126076001Y-93960000D03*
X126076001Y-94459999D03*
X126076001Y-94960001D03*
X126076001Y-95460000D03*
X126076001Y-95960001D03*
X126076001Y-96460000D03*
D45*
X128076000Y-98459999D03*
X128575999Y-98459999D03*
X129076000Y-98459999D03*
X129575999Y-98459999D03*
X130076001Y-98459999D03*
X130576000Y-98459999D03*
X131075999Y-98459999D03*
X131576000Y-98459999D03*
X132076000Y-98459999D03*
X132576001Y-98459999D03*
X133076000Y-98459999D03*
X133575999Y-98459999D03*
X134076001Y-98459999D03*
X134576000Y-98459999D03*
X135076001Y-98459999D03*
X135576000Y-98459999D03*
D46*
X137575999Y-96460000D03*
X137575999Y-95960001D03*
X137575999Y-95460000D03*
X137575999Y-94960001D03*
X137575999Y-94459999D03*
X137575999Y-93960000D03*
X137575999Y-93460001D03*
X137575999Y-92960000D03*
X137575999Y-92460000D03*
X137575999Y-91959999D03*
X137575999Y-91460000D03*
X137575999Y-90960001D03*
X137575999Y-90459999D03*
X137575999Y-89960000D03*
X137575999Y-89459999D03*
X137575999Y-88960000D03*
D47*
X126229000Y-62230000D03*
X121929000Y-62230000D03*
D48*
X157734000Y-83693000D03*
D49*
X118896000Y-59492000D03*
X121896000Y-59492000D03*
D50*
X120965000Y-82780000D03*
X121365000Y-82780000D03*
X121765000Y-82780000D03*
X122165000Y-82780000D03*
X122565000Y-82780000D03*
X122965000Y-82780000D03*
D51*
X123465000Y-82280000D03*
X123465000Y-81880000D03*
X123465000Y-81480000D03*
X123465000Y-81080000D03*
X123465000Y-80680000D03*
X123465000Y-80280000D03*
D50*
X122965000Y-79780000D03*
X122565000Y-79780000D03*
X122165000Y-79780000D03*
X121765000Y-79780000D03*
X121365000Y-79780000D03*
X120965000Y-79780000D03*
D51*
X120465000Y-80280000D03*
X120465000Y-80680000D03*
X120465000Y-81080000D03*
X120465000Y-81480000D03*
X120465000Y-81880000D03*
X120465000Y-82280000D03*
D52*
X144526000Y-82169000D03*
D53*
X149526000Y-82169000D03*
D52*
X170942000Y-82169000D03*
D53*
X165942000Y-82169000D03*
M02*
