%TF.GenerationSoftware,KiCad,Pcbnew,(5.1.4-0)*%
%TF.CreationDate,2019-11-17T17:00:13+08:00*%
%TF.ProjectId,VESC_6,56455343-5f36-42e6-9b69-6361645f7063,A*%
%TF.SameCoordinates,Original*%
%TF.FileFunction,Paste,Bot*%
%TF.FilePolarity,Positive*%
%FSLAX46Y46*%
G04 Gerber Fmt 4.6, Leading zero omitted, Abs format (unit mm)*
G04 Created by KiCad (PCBNEW (5.1.4-0)) date 2019-11-17 17:00:13*
%MOMM*%
%LPD*%
G04 APERTURE LIST*
%ADD10R,1.060000X0.650000*%
%ADD11R,1.000000X0.800000*%
%ADD12R,0.700000X1.500000*%
%ADD13R,1.300000X0.700000*%
%ADD14R,1.950000X1.500000*%
%ADD15R,0.450000X1.450000*%
%ADD16R,2.500000X1.000000*%
%ADD17R,0.797560X0.797560*%
%ADD18R,0.900000X0.500000*%
%ADD19R,0.500000X0.900000*%
%ADD20C,0.500000*%
%ADD21C,0.100000*%
%ADD22R,0.750000X0.800000*%
%ADD23R,0.800000X0.750000*%
%ADD24C,0.750000*%
%ADD25C,1.300000*%
%ADD26R,2.000000X1.300000*%
%ADD27R,1.500000X0.450000*%
%ADD28C,1.050000*%
%ADD29C,1.000000*%
%ADD30R,5.000000X4.000000*%
%ADD31R,6.000000X5.000000*%
%ADD32R,0.600000X2.700000*%
%ADD33R,2.300000X2.700000*%
%ADD34C,0.254000*%
G04 APERTURE END LIST*
D10*
X124135000Y-79300000D03*
X124135000Y-81200000D03*
X126335000Y-81200000D03*
X126335000Y-80250000D03*
X126335000Y-79300000D03*
D11*
X116746000Y-60592000D03*
X124046000Y-60592000D03*
X124046000Y-58392000D03*
X116746000Y-58392000D03*
D12*
X122646000Y-61242000D03*
X121146000Y-61242000D03*
X118146000Y-61242000D03*
D13*
X122047000Y-81200000D03*
X122047000Y-79300000D03*
D14*
X125603000Y-84201000D03*
X122853000Y-84201000D03*
D15*
X138090000Y-67986000D03*
X138740000Y-67986000D03*
X139390000Y-67986000D03*
X140040000Y-67986000D03*
X140040000Y-63586000D03*
X139390000Y-63586000D03*
X138740000Y-63586000D03*
X138090000Y-63586000D03*
X135518800Y-60995200D03*
X134868800Y-60995200D03*
X134218800Y-60995200D03*
X133568800Y-60995200D03*
X133568800Y-65395200D03*
X134218800Y-65395200D03*
X134868800Y-65395200D03*
X135518800Y-65395200D03*
X129740300Y-62138200D03*
X129090300Y-62138200D03*
X128440300Y-62138200D03*
X127790300Y-62138200D03*
X127790300Y-66538200D03*
X128440300Y-66538200D03*
X129090300Y-66538200D03*
X129740300Y-66538200D03*
D16*
X143383000Y-75398500D03*
X143383000Y-78398500D03*
X146685000Y-75398500D03*
X146685000Y-78398500D03*
X159385000Y-75398500D03*
X159385000Y-78398500D03*
X156083000Y-75398500D03*
X156083000Y-78398500D03*
X168783000Y-75398500D03*
X168783000Y-78398500D03*
X171958000Y-75398500D03*
X171958000Y-78398500D03*
D17*
X138942300Y-103156000D03*
X138942300Y-101657400D03*
X137414000Y-103187500D03*
X137414000Y-101688900D03*
X135890000Y-103187500D03*
X135890000Y-101688900D03*
D18*
X130556000Y-101739000D03*
X130556000Y-103239000D03*
X128778000Y-103239000D03*
X128778000Y-101739000D03*
X127004300Y-103227000D03*
X127004300Y-101727000D03*
D19*
X120916000Y-96583500D03*
X122416000Y-96583500D03*
X138926000Y-104775000D03*
X137426000Y-104775000D03*
X134531800Y-104343200D03*
X133031800Y-104343200D03*
X134531800Y-102743000D03*
X133031800Y-102743000D03*
D18*
X133281000Y-82619000D03*
X133281000Y-84119000D03*
X131684800Y-82630200D03*
X131684800Y-84130200D03*
D19*
X132966500Y-71501000D03*
X131466500Y-71501000D03*
X132966500Y-72961500D03*
X131466500Y-72961500D03*
X132966500Y-74485500D03*
X131466500Y-74485500D03*
X132966500Y-76009500D03*
X131466500Y-76009500D03*
X132966500Y-77533500D03*
X131466500Y-77533500D03*
X132966500Y-79057500D03*
X131466500Y-79057500D03*
D18*
X124002800Y-89789700D03*
X124002800Y-88289700D03*
D20*
X121326170Y-86909170D03*
D21*
G36*
X121821145Y-86767749D02*
G01*
X121184749Y-87404145D01*
X120831195Y-87050591D01*
X121467591Y-86414195D01*
X121821145Y-86767749D01*
X121821145Y-86767749D01*
G37*
D20*
X122386830Y-87969830D03*
D21*
G36*
X122881805Y-87828409D02*
G01*
X122245409Y-88464805D01*
X121891855Y-88111251D01*
X122528251Y-87474855D01*
X122881805Y-87828409D01*
X122881805Y-87828409D01*
G37*
D19*
X137922000Y-70929500D03*
X139422000Y-70929500D03*
X137921300Y-72466200D03*
X139421300Y-72466200D03*
X137934000Y-73977500D03*
X139434000Y-73977500D03*
X137934000Y-75501500D03*
X139434000Y-75501500D03*
X137934000Y-77025500D03*
X139434000Y-77025500D03*
X137934000Y-78549500D03*
X139434000Y-78549500D03*
D18*
X134239000Y-91782200D03*
X134239000Y-93282200D03*
X131191000Y-91782200D03*
X131191000Y-93282200D03*
X128143000Y-91782200D03*
X128143000Y-93282200D03*
D22*
X136779000Y-67703000D03*
X136779000Y-69203000D03*
D23*
X134505000Y-96774000D03*
X136005000Y-96774000D03*
X120903300Y-95135700D03*
X122403300Y-95135700D03*
D22*
X138988800Y-87845200D03*
X138988800Y-89345200D03*
D23*
X126123000Y-96012000D03*
X127623000Y-96012000D03*
D22*
X133477000Y-99695000D03*
X133477000Y-98195000D03*
X130937000Y-89269000D03*
X130937000Y-87769000D03*
X127889000Y-80252000D03*
X127889000Y-78752000D03*
X132715000Y-93282200D03*
X132715000Y-91782200D03*
X129667000Y-93282200D03*
X129667000Y-91782200D03*
X131953000Y-63920500D03*
X131953000Y-62420500D03*
X126174500Y-65087500D03*
X126174500Y-63587500D03*
X126619000Y-93282200D03*
X126619000Y-91782200D03*
D24*
X130152670Y-111483670D03*
D21*
G36*
X130700678Y-111501348D02*
G01*
X130170348Y-112031678D01*
X129604662Y-111465992D01*
X130134992Y-110935662D01*
X130700678Y-111501348D01*
X130700678Y-111501348D01*
G37*
D24*
X131213330Y-112544330D03*
D21*
G36*
X131761338Y-112562008D02*
G01*
X131231008Y-113092338D01*
X130665322Y-112526652D01*
X131195652Y-111996322D01*
X131761338Y-112562008D01*
X131761338Y-112562008D01*
G37*
D24*
X138706330Y-107464330D03*
D21*
G36*
X138158322Y-107446652D02*
G01*
X138688652Y-106916322D01*
X139254338Y-107482008D01*
X138724008Y-108012338D01*
X138158322Y-107446652D01*
X138158322Y-107446652D01*
G37*
D24*
X137645670Y-106403670D03*
D21*
G36*
X137097662Y-106385992D02*
G01*
X137627992Y-105855662D01*
X138193678Y-106421348D01*
X137663348Y-106951678D01*
X137097662Y-106385992D01*
X137097662Y-106385992D01*
G37*
D23*
X124956000Y-82550000D03*
X123456000Y-82550000D03*
D25*
X131646058Y-109480885D03*
D21*
G36*
X131398571Y-110647611D02*
G01*
X130479332Y-109728372D01*
X131893545Y-108314159D01*
X132812784Y-109233398D01*
X131398571Y-110647611D01*
X131398571Y-110647611D01*
G37*
D25*
X134474485Y-106652458D03*
D21*
G36*
X134226998Y-107819184D02*
G01*
X133307759Y-106899945D01*
X134721972Y-105485732D01*
X135641211Y-106404971D01*
X134226998Y-107819184D01*
X134226998Y-107819184D01*
G37*
D25*
X136171542Y-108349515D03*
D21*
G36*
X135924055Y-109516241D02*
G01*
X135004816Y-108597002D01*
X136419029Y-107182789D01*
X137338268Y-108102028D01*
X135924055Y-109516241D01*
X135924055Y-109516241D01*
G37*
D25*
X133343115Y-111177942D03*
D21*
G36*
X133095628Y-112344668D02*
G01*
X132176389Y-111425429D01*
X133590602Y-110011216D01*
X134509841Y-110930455D01*
X133095628Y-112344668D01*
X133095628Y-112344668D01*
G37*
D26*
X136906000Y-87339320D03*
X132906000Y-87339320D03*
X132906000Y-89739320D03*
X136906000Y-89739320D03*
D27*
X127000000Y-109100000D03*
X127000000Y-109750000D03*
X127000000Y-108450000D03*
X127000000Y-110400000D03*
X127000000Y-107800000D03*
D28*
X136543142Y-112467107D03*
D21*
G36*
X137692191Y-112873693D02*
G01*
X136949728Y-113616156D01*
X135394093Y-112060521D01*
X136136556Y-111318058D01*
X137692191Y-112873693D01*
X137692191Y-112873693D01*
G37*
D29*
X138664462Y-112502462D03*
D21*
G36*
X139389246Y-112520140D02*
G01*
X138682140Y-113227246D01*
X137939678Y-112484784D01*
X138646784Y-111777678D01*
X139389246Y-112520140D01*
X139389246Y-112520140D01*
G37*
D28*
X138629107Y-110381142D03*
D21*
G36*
X139778156Y-110787728D02*
G01*
X139035693Y-111530191D01*
X137480058Y-109974556D01*
X138222521Y-109232093D01*
X139778156Y-110787728D01*
X139778156Y-110787728D01*
G37*
D30*
X145114500Y-57531000D03*
X157734000Y-57531000D03*
X170434000Y-57531000D03*
D31*
X157734000Y-87000000D03*
D32*
X145116000Y-69682000D03*
X145116000Y-61382000D03*
D33*
X143166000Y-69682000D03*
X147066000Y-61382000D03*
X147066000Y-69682000D03*
X143166000Y-61382000D03*
D32*
X170434000Y-69682000D03*
X170434000Y-61382000D03*
D33*
X168484000Y-69682000D03*
X172384000Y-61382000D03*
X172384000Y-69682000D03*
X168484000Y-61382000D03*
D32*
X157734000Y-69682000D03*
X157734000Y-61382000D03*
D33*
X155784000Y-69682000D03*
X159684000Y-61382000D03*
X159684000Y-69682000D03*
X155784000Y-61382000D03*
D34*
G36*
X153162000Y-80010000D02*
G01*
X153164440Y-80034776D01*
X153171667Y-80058601D01*
X153188752Y-80087970D01*
X154077752Y-81230970D01*
X154094890Y-81249030D01*
X154115221Y-81263398D01*
X154137965Y-81273525D01*
X154162248Y-81279019D01*
X154178000Y-81280000D01*
X160655000Y-81280000D01*
X160679776Y-81277560D01*
X160703601Y-81270333D01*
X160731200Y-81254600D01*
X162255200Y-80111600D01*
X162273557Y-80094782D01*
X162288280Y-80074706D01*
X162298804Y-80052143D01*
X162304724Y-80027961D01*
X162306000Y-80010000D01*
X162306000Y-63881000D01*
X165989000Y-63881000D01*
X165989000Y-80956284D01*
X160491711Y-84454559D01*
X157862512Y-84423259D01*
X157837708Y-84425404D01*
X157813799Y-84432347D01*
X157791705Y-84443821D01*
X157777748Y-84455000D01*
X154976982Y-84455000D01*
X149479000Y-80956284D01*
X149479000Y-63881000D01*
X153162000Y-63881000D01*
X153162000Y-80010000D01*
X153162000Y-80010000D01*
G37*
X153162000Y-80010000D02*
X153164440Y-80034776D01*
X153171667Y-80058601D01*
X153188752Y-80087970D01*
X154077752Y-81230970D01*
X154094890Y-81249030D01*
X154115221Y-81263398D01*
X154137965Y-81273525D01*
X154162248Y-81279019D01*
X154178000Y-81280000D01*
X160655000Y-81280000D01*
X160679776Y-81277560D01*
X160703601Y-81270333D01*
X160731200Y-81254600D01*
X162255200Y-80111600D01*
X162273557Y-80094782D01*
X162288280Y-80074706D01*
X162298804Y-80052143D01*
X162304724Y-80027961D01*
X162306000Y-80010000D01*
X162306000Y-63881000D01*
X165989000Y-63881000D01*
X165989000Y-80956284D01*
X160491711Y-84454559D01*
X157862512Y-84423259D01*
X157837708Y-84425404D01*
X157813799Y-84432347D01*
X157791705Y-84443821D01*
X157777748Y-84455000D01*
X154976982Y-84455000D01*
X149479000Y-80956284D01*
X149479000Y-63881000D01*
X153162000Y-63881000D01*
X153162000Y-80010000D01*
M02*
