%TF.GenerationSoftware,KiCad,Pcbnew,4.0.7*%
%TF.CreationDate,2018-04-15T21:02:44+08:00*%
%TF.ProjectId,VESC_6,564553435F362E6B696361645F706362,rev?*%
%TF.FileFunction,Copper,L3,Inr,Signal*%
%FSLAX46Y46*%
G04 Gerber Fmt 4.6, Leading zero omitted, Abs format (unit mm)*
G04 Created by KiCad (PCBNEW 4.0.7) date 2018 April 15, Sunday 21:02:44*
%MOMM*%
%LPD*%
G01*
G04 APERTURE LIST*
%ADD10C,0.100000*%
%ADD11C,0.600000*%
%ADD12R,1.699260X1.198880*%
%ADD13O,1.699260X1.198880*%
%ADD14R,1.198880X1.699260*%
%ADD15O,1.198880X1.699260*%
%ADD16O,1.100000X1.800000*%
%ADD17O,1.100000X2.200000*%
%ADD18R,2.400000X2.400000*%
%ADD19C,2.400000*%
%ADD20C,0.500000*%
%ADD21C,0.203200*%
%ADD22C,0.508000*%
%ADD23C,0.254000*%
G04 APERTURE END LIST*
D10*
D11*
X147828000Y-79121000D03*
X147193000Y-79121000D03*
X146558000Y-79121000D03*
X145923000Y-79121000D03*
X145288000Y-79121000D03*
X144653000Y-79121000D03*
X144018000Y-79121000D03*
X143383000Y-79121000D03*
X147828000Y-79756000D03*
X147193000Y-79756000D03*
X146558000Y-79756000D03*
X145923000Y-79756000D03*
X145288000Y-79756000D03*
X144653000Y-79756000D03*
X144018000Y-79756000D03*
X143383000Y-79756000D03*
X142748000Y-79756000D03*
D12*
X117983000Y-105984040D03*
D13*
X117983000Y-101981000D03*
X117983000Y-103982520D03*
D11*
X143256000Y-72618600D03*
X154559000Y-79756000D03*
X172008800Y-73240900D03*
X171386500Y-73240900D03*
X170764200Y-73240900D03*
X170141900Y-73240900D03*
X169519600Y-73240900D03*
X168897300Y-73240900D03*
X168275000Y-73240900D03*
X173253400Y-72618600D03*
X172631100Y-72618600D03*
X172008800Y-72618600D03*
X171386500Y-72618600D03*
X170764200Y-72618600D03*
X170141900Y-72618600D03*
X169519600Y-72618600D03*
X168897300Y-72618600D03*
X168275000Y-72618600D03*
X173253400Y-71996300D03*
X172631100Y-71996300D03*
X172008800Y-71996300D03*
X171386500Y-71996300D03*
X170764200Y-71996300D03*
X170141900Y-71996300D03*
X169519600Y-71996300D03*
X168897300Y-71996300D03*
X168275000Y-71996300D03*
X173253400Y-71374000D03*
X172631100Y-71374000D03*
X172008800Y-71374000D03*
X171386500Y-71374000D03*
X169519600Y-71374000D03*
X168897300Y-71374000D03*
X160172400Y-73240900D03*
X159550100Y-73240900D03*
X158927800Y-73240900D03*
X158305500Y-73240900D03*
X157683200Y-73240900D03*
X157060900Y-73240900D03*
X156438600Y-73240900D03*
X155816300Y-73240900D03*
X155194000Y-73240900D03*
X160172400Y-72618600D03*
X159550100Y-72618600D03*
X158927800Y-72618600D03*
X158305500Y-72618600D03*
X157683200Y-72618600D03*
X157060900Y-72618600D03*
X156438600Y-72618600D03*
X155816300Y-72618600D03*
X155194000Y-72618600D03*
X160172400Y-71996300D03*
X159550100Y-71996300D03*
X158927800Y-71996300D03*
X158305500Y-71996300D03*
X157683200Y-71996300D03*
X157060900Y-71996300D03*
X156438600Y-71996300D03*
X155816300Y-71996300D03*
X155194000Y-71996300D03*
X160172400Y-71374000D03*
X159550100Y-71374000D03*
X158927800Y-71374000D03*
X158305500Y-71374000D03*
X156438600Y-71374000D03*
X155816300Y-71374000D03*
X148234400Y-73240900D03*
X147612100Y-73240900D03*
X146989800Y-73240900D03*
X146367500Y-73240900D03*
X145745200Y-73240900D03*
X145122900Y-73240900D03*
X144500600Y-73240900D03*
X143878300Y-73240900D03*
X148234400Y-72618600D03*
X147612100Y-72618600D03*
X146989800Y-72618600D03*
X146367500Y-72618600D03*
X145745200Y-72618600D03*
X145122900Y-72618600D03*
X144500600Y-72618600D03*
X143878300Y-72618600D03*
X148234400Y-71996300D03*
X147612100Y-71996300D03*
X146989800Y-71996300D03*
X146367500Y-71996300D03*
X145745200Y-71996300D03*
X145122900Y-71996300D03*
X144500600Y-71996300D03*
X143878300Y-71996300D03*
X143256000Y-71996300D03*
X148234400Y-71374000D03*
X147612100Y-71374000D03*
X146989800Y-71374000D03*
X146367500Y-71374000D03*
X145745200Y-71374000D03*
X143878300Y-71374000D03*
X173355000Y-79756000D03*
X172720000Y-79756000D03*
X172085000Y-79756000D03*
X171450000Y-79756000D03*
X170815000Y-79756000D03*
X170180000Y-79756000D03*
X169545000Y-79756000D03*
X168910000Y-79756000D03*
X168275000Y-79756000D03*
X167640000Y-79756000D03*
X172085000Y-79121000D03*
X171450000Y-79121000D03*
X170815000Y-79121000D03*
X170180000Y-79121000D03*
X169545000Y-79121000D03*
X168910000Y-79121000D03*
X168275000Y-79121000D03*
X160274000Y-79756000D03*
X159639000Y-79756000D03*
X159004000Y-79756000D03*
X158369000Y-79756000D03*
X157734000Y-79756000D03*
X157099000Y-79756000D03*
X156464000Y-79756000D03*
X155829000Y-79756000D03*
X155194000Y-79756000D03*
X160274000Y-79121000D03*
X159639000Y-79121000D03*
X159004000Y-79121000D03*
X158369000Y-79121000D03*
X157734000Y-79121000D03*
X157099000Y-79121000D03*
X156464000Y-79121000D03*
X155829000Y-79121000D03*
X142113000Y-79756000D03*
X168275000Y-71374000D03*
X167640000Y-79121000D03*
X155194000Y-71374000D03*
X143256000Y-71374000D03*
D14*
X123256040Y-110363000D03*
D15*
X119253000Y-110363000D03*
X121254520Y-110363000D03*
X117254020Y-110363000D03*
D14*
X127093980Y-58039000D03*
D15*
X131097020Y-58039000D03*
X129095500Y-58039000D03*
X133096000Y-58039000D03*
X135097520Y-58039000D03*
X137099040Y-58039000D03*
D13*
X118003300Y-81459440D03*
X118003300Y-83458420D03*
X118003300Y-85459940D03*
D12*
X118003300Y-93466020D03*
D13*
X118003300Y-89462980D03*
X118003300Y-91464500D03*
X118003300Y-87464000D03*
X118003300Y-79460460D03*
D12*
X117983000Y-74930000D03*
D13*
X117983000Y-70926960D03*
X117983000Y-72928480D03*
X117983000Y-68927980D03*
X117983000Y-66926460D03*
D16*
X126492000Y-107684000D03*
X126492000Y-113284000D03*
D17*
X128642000Y-110484000D03*
D18*
X171200000Y-81900000D03*
D19*
X166200000Y-81900000D03*
D18*
X144300000Y-81900000D03*
D19*
X149300000Y-81900000D03*
D11*
X138581702Y-92558292D03*
X117602000Y-77977994D03*
X137414000Y-109855000D03*
X123189996Y-65151000D03*
X137795000Y-114173000D03*
X126111004Y-60960000D03*
X126746000Y-60960000D03*
X125349000Y-60960002D03*
X138557000Y-109982000D03*
X139319000Y-110744000D03*
X136017000Y-114427000D03*
X129214590Y-88646000D03*
X124023410Y-78105000D03*
X119093726Y-86134085D03*
X132127284Y-103830410D03*
X134984271Y-91133140D03*
X128580937Y-96647473D03*
X122809012Y-76327000D03*
X137940817Y-104932011D03*
X121926647Y-81989990D03*
X140716000Y-58420000D03*
X133985000Y-79882994D03*
X134365994Y-80264000D03*
X134747000Y-80645000D03*
X126873000Y-89154000D03*
X138049000Y-87249000D03*
X132334000Y-100076000D03*
X131191000Y-112395000D03*
X126365008Y-84201000D03*
X123571000Y-84836000D03*
X132328883Y-106680000D03*
X131445000Y-107563883D03*
X130561117Y-106680000D03*
X131445000Y-105796117D03*
X135763000Y-107950000D03*
X132715000Y-114300000D03*
X138938000Y-110363000D03*
X135509000Y-113919000D03*
X135128000Y-113411000D03*
X129921000Y-111379000D03*
X130714318Y-70712908D03*
X134239000Y-67437000D03*
X126851128Y-69723000D03*
X131318000Y-70739000D03*
X131318000Y-70104000D03*
X130683000Y-70104000D03*
X133604000Y-67437000D03*
X132969000Y-67437000D03*
X166090600Y-67513200D03*
X165506400Y-67513200D03*
X164922200Y-67513200D03*
X164338000Y-67513200D03*
X163753800Y-67513200D03*
X163169600Y-67513200D03*
X162585400Y-67513200D03*
X162001200Y-67513200D03*
X161417000Y-67513200D03*
X166090600Y-66929000D03*
X165506400Y-66929000D03*
X164922200Y-66929000D03*
X164338000Y-66929000D03*
X163753800Y-66929000D03*
X163169600Y-66929000D03*
X162585400Y-66929000D03*
X162001200Y-66929000D03*
X161417000Y-66929000D03*
X166090600Y-66344800D03*
X165506400Y-66344800D03*
X164922200Y-66344800D03*
X164338000Y-66344800D03*
X163753800Y-66344800D03*
X163169600Y-66344800D03*
X162585400Y-66344800D03*
X162001200Y-66344800D03*
X161417000Y-66344800D03*
X166090600Y-65760600D03*
X165506400Y-65760600D03*
X164922200Y-65760600D03*
X164338000Y-65760600D03*
X163753800Y-65760600D03*
X163169600Y-65760600D03*
X162585400Y-65760600D03*
X162001200Y-65760600D03*
X161417000Y-65760600D03*
X166090600Y-65176400D03*
X165506400Y-65176400D03*
X164922200Y-65176400D03*
X164338000Y-65176400D03*
X163753800Y-65176400D03*
X163169600Y-65176400D03*
X162585400Y-65176400D03*
X162001200Y-65176400D03*
X161417000Y-65176400D03*
X166090600Y-64592200D03*
X165506400Y-64592200D03*
X164922200Y-64592200D03*
X164338000Y-64592200D03*
X163753800Y-64592200D03*
X163169600Y-64592200D03*
X162585400Y-64592200D03*
X162001200Y-64592200D03*
X161417000Y-64592200D03*
X166090600Y-64008000D03*
X165506400Y-64008000D03*
X164922200Y-64008000D03*
X164338000Y-64008000D03*
X163753800Y-64008000D03*
X163169600Y-64008000D03*
X162585400Y-64008000D03*
X162001200Y-64008000D03*
X153644600Y-67513200D03*
X153060400Y-67513200D03*
X152476200Y-67513200D03*
X151892000Y-67513200D03*
X151307800Y-67513200D03*
X150723600Y-67513200D03*
X150139400Y-67513200D03*
X149555200Y-67513200D03*
X148971000Y-67513200D03*
X153644600Y-66929000D03*
X153060400Y-66929000D03*
X152476200Y-66929000D03*
X151892000Y-66929000D03*
X151307800Y-66929000D03*
X150723600Y-66929000D03*
X150139400Y-66929000D03*
X149555200Y-66929000D03*
X148971000Y-66929000D03*
X153644600Y-66344800D03*
X153060400Y-66344800D03*
X152476200Y-66344800D03*
X151892000Y-66344800D03*
X151307800Y-66344800D03*
X150723600Y-66344800D03*
X150139400Y-66344800D03*
X149555200Y-66344800D03*
X148971000Y-66344800D03*
X153644600Y-65760600D03*
X153060400Y-65760600D03*
X152476200Y-65760600D03*
X151892000Y-65760600D03*
X151307800Y-65760600D03*
X150723600Y-65760600D03*
X150139400Y-65760600D03*
X149555200Y-65760600D03*
X148971000Y-65760600D03*
X153644600Y-65176400D03*
X153060400Y-65176400D03*
X152476200Y-65176400D03*
X151892000Y-65176400D03*
X151307800Y-65176400D03*
X150723600Y-65176400D03*
X150139400Y-65176400D03*
X149555200Y-65176400D03*
X148971000Y-65176400D03*
X153644600Y-64592200D03*
X153060400Y-64592200D03*
X152476200Y-64592200D03*
X151892000Y-64592200D03*
X151307800Y-64592200D03*
X150723600Y-64592200D03*
X150139400Y-64592200D03*
X149555200Y-64592200D03*
X148971000Y-64592200D03*
X153644600Y-64008000D03*
X153060400Y-64008000D03*
X152476200Y-64008000D03*
X151892000Y-64008000D03*
X151307800Y-64008000D03*
X150723600Y-64008000D03*
X150139400Y-64008000D03*
X149555200Y-64008000D03*
X161417000Y-64008000D03*
X148971000Y-64008000D03*
X136424331Y-103327201D03*
X134692207Y-89520203D03*
X124507646Y-96145686D03*
X119506998Y-102743000D03*
X134662559Y-71031810D03*
X118999000Y-64516000D03*
X128016000Y-106807000D03*
X122737590Y-77597008D03*
X122393203Y-85505793D03*
X134112004Y-59055000D03*
X138430004Y-100584000D03*
X122228895Y-89377113D03*
X123277192Y-98940964D03*
X132200000Y-102100000D03*
X135763000Y-98171000D03*
X134042040Y-90182550D03*
X133043063Y-95900811D03*
X128524000Y-82296000D03*
X133450855Y-88995734D03*
X119507000Y-62865030D03*
X118999000Y-62357000D03*
X121793000Y-72517000D03*
X121793000Y-71755000D03*
X135382000Y-61976000D03*
X134420900Y-72563240D03*
X140749855Y-74001586D03*
X134600000Y-75300000D03*
X134485829Y-78140634D03*
X137941176Y-80930960D03*
X133698802Y-81558354D03*
X133372352Y-68938648D03*
X133372352Y-81257648D03*
X133731000Y-68580000D03*
X133032500Y-85915500D03*
X129595535Y-85560076D03*
X134493000Y-84582000D03*
X140334994Y-79883000D03*
X129046526Y-84850526D03*
X124206000Y-86233000D03*
X128614820Y-85758290D03*
X130175000Y-109854994D03*
X129920129Y-109087771D03*
X138303000Y-113030000D03*
X121724010Y-66032553D03*
X124060671Y-92949247D03*
X123317000Y-104389210D03*
X118745000Y-108204000D03*
X130558014Y-100094865D03*
X131566771Y-99948129D03*
X129794008Y-99949000D03*
X122047000Y-58166000D03*
X122493788Y-91766540D03*
X122555000Y-92583000D03*
X122463692Y-90148282D03*
X122479122Y-90988866D03*
X135825200Y-99314464D03*
X138293492Y-97306553D03*
X133985010Y-95885000D03*
X134873999Y-96327726D03*
X129540000Y-68834000D03*
X121793000Y-68707000D03*
X129300000Y-89900000D03*
X125844423Y-86538710D03*
X126620590Y-86488157D03*
X126928579Y-87249000D03*
X147066000Y-59055000D03*
X146431000Y-59055000D03*
X145796000Y-59055000D03*
X145161000Y-59055000D03*
X144526000Y-59055000D03*
X143891000Y-59055000D03*
X143256000Y-59055000D03*
X147066000Y-58420000D03*
X146431000Y-58420000D03*
X145796000Y-58420000D03*
X145161000Y-58420000D03*
X144526000Y-58420000D03*
X143891000Y-58420000D03*
X143256000Y-58420000D03*
X147066000Y-57785000D03*
X146431000Y-57785000D03*
X145796000Y-57785000D03*
X145161000Y-57785000D03*
X144526000Y-57785000D03*
X143891000Y-57785000D03*
X143256000Y-57785000D03*
X147066000Y-57150000D03*
X146431000Y-57150000D03*
X145796000Y-57150000D03*
X145161000Y-57150000D03*
X144526000Y-57150000D03*
X143891000Y-57150000D03*
X143256000Y-57150000D03*
X147066000Y-56515000D03*
X146431000Y-56515000D03*
X145796000Y-56515000D03*
X145161000Y-56515000D03*
X144526000Y-56515000D03*
X143891000Y-56515000D03*
X143256000Y-56515000D03*
X147066000Y-55880000D03*
X146431000Y-55880000D03*
X145796000Y-55880000D03*
X145161000Y-55880000D03*
X144526000Y-55880000D03*
X143891000Y-55880000D03*
X143256000Y-55880000D03*
X134478694Y-71787578D03*
X134604628Y-73319041D03*
X159258000Y-59055000D03*
X158623000Y-59055000D03*
X157988000Y-59055000D03*
X157353000Y-59055000D03*
X156718000Y-59055000D03*
X156083000Y-59055000D03*
X155448000Y-59055000D03*
X159258000Y-58420000D03*
X158623000Y-58420000D03*
X157988000Y-58420000D03*
X157353000Y-58420000D03*
X156718000Y-58420000D03*
X156083000Y-58420000D03*
X155448000Y-58420000D03*
X159258000Y-57785000D03*
X158623000Y-57785000D03*
X157988000Y-57785000D03*
X157353000Y-57785000D03*
X156718000Y-57785000D03*
X156083000Y-57785000D03*
X155448000Y-57785000D03*
X159258000Y-57150000D03*
X158623000Y-57150000D03*
X157988000Y-57150000D03*
X157353000Y-57150000D03*
X156718000Y-57150000D03*
X156083000Y-57150000D03*
X155448000Y-57150000D03*
X159258000Y-56515000D03*
X158623000Y-56515000D03*
X157988000Y-56515000D03*
X157353000Y-56515000D03*
X156718000Y-56515000D03*
X156083000Y-56515000D03*
X155448000Y-56515000D03*
X159258000Y-55880000D03*
X158623000Y-55880000D03*
X157988000Y-55880000D03*
X157353000Y-55880000D03*
X156718000Y-55880000D03*
X156083000Y-55880000D03*
X155448000Y-55880000D03*
X134700000Y-74500000D03*
X134600000Y-76100000D03*
X172085000Y-59055000D03*
X171450000Y-59055000D03*
X170815000Y-59055000D03*
X170180000Y-59055000D03*
X169545000Y-59055000D03*
X168910000Y-59055000D03*
X168275000Y-59055000D03*
X172085000Y-58420000D03*
X171450000Y-58420000D03*
X170815000Y-58420000D03*
X170180000Y-58420000D03*
X169545000Y-58420000D03*
X168910000Y-58420000D03*
X168275000Y-58420000D03*
X172085000Y-57785000D03*
X171450000Y-57785000D03*
X170815000Y-57785000D03*
X170180000Y-57785000D03*
X169545000Y-57785000D03*
X168910000Y-57785000D03*
X168275000Y-57785000D03*
X172085000Y-57150000D03*
X171450000Y-57150000D03*
X170815000Y-57150000D03*
X170180000Y-57150000D03*
X169545000Y-57150000D03*
X168910000Y-57150000D03*
X168275000Y-57150000D03*
X172085000Y-56515000D03*
X171450000Y-56515000D03*
X170815000Y-56515000D03*
X170180000Y-56515000D03*
X169545000Y-56515000D03*
X168910000Y-56515000D03*
X168275000Y-56515000D03*
X172085000Y-55880000D03*
X171450000Y-55880000D03*
X170815000Y-55880000D03*
X170180000Y-55880000D03*
X169545000Y-55880000D03*
X168910000Y-55880000D03*
X168275000Y-55880000D03*
X134479669Y-77362846D03*
X134508640Y-78918112D03*
X132968996Y-94742000D03*
X139192000Y-66746410D03*
X131572000Y-61468000D03*
X132064185Y-94742000D03*
X127761989Y-94234000D03*
X128143000Y-60452000D03*
X128261410Y-97356622D03*
X129700000Y-76400000D03*
X127829595Y-99796570D03*
X126746000Y-76962000D03*
X126139606Y-78144180D03*
X128821949Y-100085191D03*
X131054153Y-96891145D03*
X129413000Y-71247000D03*
X126854055Y-73149890D03*
X138557000Y-96012000D03*
X129667000Y-72898004D03*
X138572108Y-95226476D03*
X129667887Y-72014226D03*
X138556532Y-94448820D03*
X124459996Y-105410000D03*
X135128000Y-92836988D03*
X135149836Y-91893126D03*
X125009996Y-104860004D03*
X125730000Y-104394000D03*
X136000000Y-91793411D03*
X137795584Y-101062658D03*
X123253500Y-94361004D03*
X134000000Y-102099998D03*
X124206000Y-94678500D03*
X131707514Y-97313176D03*
X129659229Y-75623258D03*
X130041223Y-95688320D03*
X129520590Y-77207915D03*
X126865581Y-77864982D03*
X128905000Y-95250000D03*
X129700000Y-74700000D03*
X138557000Y-93345000D03*
X129667000Y-70104000D03*
X138557002Y-91678189D03*
X122066590Y-98937863D03*
X138326856Y-98301010D03*
X139365669Y-90758337D03*
X138811000Y-99313998D03*
X124206000Y-99060000D03*
X135382000Y-64388996D03*
D20*
X153289000Y-61468000D03*
D11*
X135382000Y-63500000D03*
D20*
X152527000Y-61595000D03*
D11*
X128778000Y-65659000D03*
D20*
X166116000Y-61468006D03*
D11*
X128800722Y-64709263D03*
D20*
X165100000Y-61595000D03*
D11*
X140208000Y-73279000D03*
X143891000Y-67564000D03*
X140081000Y-71755000D03*
X143510000Y-76941379D03*
X140208000Y-74742611D03*
X154686010Y-76962000D03*
X155829000Y-67691000D03*
X140081000Y-75565000D03*
D20*
X159131000Y-67564000D03*
D11*
X140843000Y-71120000D03*
X137534607Y-80262276D03*
X168148000Y-67564000D03*
D21*
X134042040Y-94901834D02*
X134042040Y-90182550D01*
X133043063Y-95900811D02*
X134042040Y-94901834D01*
X140334994Y-79883000D02*
X139573000Y-80644994D01*
X139573000Y-80644994D02*
X139573000Y-81915000D01*
X139573000Y-81915000D02*
X138557000Y-82931000D01*
X138557000Y-82931000D02*
X136144000Y-82931000D01*
X136144000Y-82931000D02*
X134493000Y-84582000D01*
X121158033Y-86868033D02*
X121158033Y-66598530D01*
X121158033Y-66598530D02*
X121724010Y-66032553D01*
X124060671Y-89770671D02*
X121158033Y-86868033D01*
X124060671Y-92949247D02*
X124060671Y-89770671D01*
X120396011Y-65889145D02*
X123293156Y-62992000D01*
X120396011Y-99725841D02*
X120396011Y-65889145D01*
X122397179Y-101727009D02*
X120396011Y-99725841D01*
X131097020Y-59783980D02*
X131097020Y-58039000D01*
X130558014Y-100094865D02*
X128925870Y-101727009D01*
X123293156Y-62992000D02*
X127889000Y-62992000D01*
X128925870Y-101727009D02*
X122397179Y-101727009D01*
X127889000Y-62992000D02*
X131097020Y-59783980D01*
X123262326Y-62484000D02*
X127635000Y-62484000D01*
X127635000Y-62484000D02*
X129095500Y-61023500D01*
X120015000Y-65731326D02*
X123262326Y-62484000D01*
X122174020Y-102108020D02*
X120015000Y-99949000D01*
X131566771Y-99948129D02*
X129406880Y-102108020D01*
X129095500Y-61023500D02*
X129095500Y-58039000D01*
X120015000Y-99949000D02*
X120015000Y-65731326D01*
X129406880Y-102108020D02*
X122174020Y-102108020D01*
X129095500Y-58039000D02*
X129095500Y-58229500D01*
X129794008Y-99949000D02*
X128397010Y-101345998D01*
X123450975Y-63373011D02*
X128814819Y-63373011D01*
X120777022Y-66046964D02*
X123450975Y-63373011D01*
X133096000Y-59091830D02*
X133096000Y-58039000D01*
X122554998Y-101345998D02*
X120777022Y-99568022D01*
X128814819Y-63373011D02*
X133096000Y-59091830D01*
X120777022Y-99568022D02*
X120777022Y-66046964D01*
X128397010Y-101345998D02*
X122554998Y-101345998D01*
X125603000Y-56134000D02*
X123571000Y-58166000D01*
X123571000Y-58166000D02*
X122047000Y-58166000D01*
X136246870Y-56134000D02*
X125603000Y-56134000D01*
X137099040Y-58039000D02*
X137099040Y-56986170D01*
X137099040Y-56986170D02*
X136246870Y-56134000D01*
X129413000Y-68707000D02*
X129540000Y-68834000D01*
X121793000Y-68707000D02*
X129413000Y-68707000D01*
X129700000Y-76400000D02*
X130936967Y-77636967D01*
X130936967Y-77636967D02*
X130936967Y-92999194D01*
X130936967Y-92999194D02*
X130620624Y-93315537D01*
X130620624Y-93315537D02*
X130620624Y-95966433D01*
X130620624Y-95966433D02*
X129230435Y-97356622D01*
X129230435Y-97356622D02*
X128261410Y-97356622D01*
X127529596Y-99496571D02*
X127829595Y-99796570D01*
X127529596Y-96879404D02*
X127529596Y-99496571D01*
X128452599Y-95956401D02*
X127529596Y-96879404D01*
X129056113Y-95956401D02*
X128452599Y-95956401D01*
X129484401Y-95528113D02*
X129056113Y-95956401D01*
X129484401Y-93369769D02*
X129484401Y-95528113D01*
X130174945Y-92679225D02*
X129484401Y-93369769D01*
X130174945Y-79966681D02*
X130174945Y-92679225D01*
X127170264Y-76962000D02*
X130174945Y-79966681D01*
X126746000Y-76962000D02*
X127170264Y-76962000D01*
X127507989Y-79512563D02*
X126139606Y-78144180D01*
X126619000Y-99536514D02*
X126619000Y-94519486D01*
X127507989Y-93630497D02*
X127507989Y-79512563D01*
X126619000Y-94519486D02*
X127507989Y-93630497D01*
X128821949Y-100085191D02*
X128521950Y-100385190D01*
X127467676Y-100385190D02*
X126619000Y-99536514D01*
X128521950Y-100385190D02*
X127467676Y-100385190D01*
X129837264Y-71247000D02*
X131698989Y-73108725D01*
X131698989Y-73108725D02*
X131698989Y-93518677D01*
X129413000Y-71247000D02*
X129837264Y-71247000D01*
X131698989Y-93518677D02*
X131382646Y-93835020D01*
X131382646Y-93835020D02*
X131382646Y-96562652D01*
X131382646Y-96562652D02*
X131054153Y-96891145D01*
X135128000Y-92836988D02*
X136779000Y-94487988D01*
X136779000Y-94487988D02*
X136779000Y-100182172D01*
X136779000Y-100182172D02*
X134091183Y-102869989D01*
X134091183Y-102869989D02*
X125603011Y-102869989D01*
X125603011Y-102869989D02*
X124159997Y-104313003D01*
X124159997Y-104313003D02*
X124159997Y-105110001D01*
X124159997Y-105110001D02*
X124459996Y-105410000D01*
X125009996Y-104860004D02*
X125009996Y-104181740D01*
X125009996Y-104181740D02*
X125940736Y-103251000D01*
X125940736Y-103251000D02*
X134249002Y-103251000D01*
X134249002Y-103251000D02*
X137160011Y-100339991D01*
X137160011Y-100339991D02*
X137160011Y-93903301D01*
X137160011Y-93903301D02*
X135149836Y-91893126D01*
X126029999Y-104693999D02*
X133344833Y-104693999D01*
X133344833Y-104693999D02*
X137541022Y-100497810D01*
X137541022Y-100497810D02*
X137541022Y-93334433D01*
X125730000Y-104394000D02*
X126029999Y-104693999D01*
X137541022Y-93334433D02*
X136000000Y-91793411D01*
X131001635Y-93473356D02*
X131001635Y-96124252D01*
X130083493Y-75623258D02*
X131317978Y-76857743D01*
X131317978Y-76857743D02*
X131317978Y-93157013D01*
X131317978Y-93157013D02*
X131001635Y-93473356D01*
X131001635Y-96124252D02*
X130302000Y-96823887D01*
X129659229Y-75623258D02*
X130083493Y-75623258D01*
X130302000Y-96823887D02*
X130302000Y-97155000D01*
X130302000Y-97155000D02*
X130760175Y-97613175D01*
X130760175Y-97613175D02*
X131407515Y-97613175D01*
X131407515Y-97613175D02*
X131707514Y-97313176D01*
X130041223Y-93356108D02*
X130041223Y-95688320D01*
X130555956Y-92841375D02*
X130041223Y-93356108D01*
X130555956Y-78243281D02*
X130555956Y-92841375D01*
X129520590Y-77207915D02*
X130555956Y-78243281D01*
X127889000Y-78888401D02*
X126865581Y-77864982D01*
X127889000Y-93521542D02*
X127889000Y-78888401D01*
X128905000Y-94537542D02*
X127889000Y-93521542D01*
X128905000Y-95250000D02*
X128905000Y-94537542D01*
X129667000Y-70104000D02*
X129667000Y-70528264D01*
X129667000Y-70528264D02*
X132080000Y-72941264D01*
X132080000Y-72941264D02*
X132080000Y-86057582D01*
X132080000Y-86057582D02*
X137700607Y-91678189D01*
X137700607Y-91678189D02*
X138557002Y-91678189D01*
D22*
X139065000Y-72136000D02*
X140208000Y-73279000D01*
X139065000Y-70866000D02*
X139065000Y-72136000D01*
X142367000Y-67564000D02*
X139065000Y-70866000D01*
X143891000Y-67564000D02*
X142367000Y-67564000D01*
X143510000Y-75184000D02*
X140081000Y-71755000D01*
X143510000Y-76941379D02*
X143510000Y-75184000D01*
X141808189Y-77673189D02*
X141605000Y-77470000D01*
X140632264Y-74742611D02*
X140208000Y-74742611D01*
X153974821Y-77673189D02*
X141808189Y-77673189D01*
X141605000Y-75715347D02*
X140632264Y-74742611D01*
X141605000Y-77470000D02*
X141605000Y-75715347D01*
X154686010Y-76962000D02*
X153974821Y-77673189D01*
X140081000Y-75565000D02*
X140081000Y-77470000D01*
X140081000Y-77470000D02*
X141000199Y-78389199D01*
X141000199Y-78389199D02*
X154655801Y-78389199D01*
X154655801Y-78389199D02*
X156210000Y-76835000D01*
X156210000Y-76835000D02*
X156210000Y-75438000D01*
X156210000Y-75438000D02*
X154178000Y-73406000D01*
X154178000Y-73406000D02*
X154178000Y-71247000D01*
X154178000Y-71247000D02*
X155702000Y-69723000D01*
X155702000Y-69723000D02*
X155702000Y-67818000D01*
X155702000Y-67818000D02*
X155829000Y-67691000D01*
X158526198Y-66959198D02*
X159131000Y-67564000D01*
X155477734Y-66959198D02*
X158526198Y-66959198D01*
X152332932Y-70104000D02*
X155477734Y-66959198D01*
X140843000Y-71120000D02*
X141859000Y-70104000D01*
X141859000Y-70104000D02*
X152332932Y-70104000D01*
D23*
G36*
X142679013Y-55493741D02*
X142575118Y-55743946D01*
X142574882Y-56014865D01*
X142650403Y-56197641D01*
X142575118Y-56378946D01*
X142574882Y-56649865D01*
X142650403Y-56832641D01*
X142575118Y-57013946D01*
X142574882Y-57284865D01*
X142650403Y-57467641D01*
X142575118Y-57648946D01*
X142574882Y-57919865D01*
X142650403Y-58102641D01*
X142575118Y-58283946D01*
X142574882Y-58554865D01*
X142650403Y-58737641D01*
X142575118Y-58918946D01*
X142574882Y-59189865D01*
X142678339Y-59440252D01*
X142869741Y-59631987D01*
X143119946Y-59735882D01*
X143390865Y-59736118D01*
X143573641Y-59660597D01*
X143754946Y-59735882D01*
X144025865Y-59736118D01*
X144208641Y-59660597D01*
X144389946Y-59735882D01*
X144660865Y-59736118D01*
X144843641Y-59660597D01*
X145024946Y-59735882D01*
X145295865Y-59736118D01*
X145478641Y-59660597D01*
X145659946Y-59735882D01*
X145930865Y-59736118D01*
X146113641Y-59660597D01*
X146294946Y-59735882D01*
X146565865Y-59736118D01*
X146748641Y-59660597D01*
X146929946Y-59735882D01*
X147200865Y-59736118D01*
X147451252Y-59632661D01*
X147642987Y-59441259D01*
X147746882Y-59191054D01*
X147747118Y-58920135D01*
X147671597Y-58737359D01*
X147746882Y-58556054D01*
X147747007Y-58411513D01*
X149375674Y-58411513D01*
X149661436Y-59103109D01*
X150190108Y-59632704D01*
X150881204Y-59919673D01*
X151629513Y-59920326D01*
X152321109Y-59634564D01*
X152850704Y-59105892D01*
X153137673Y-58414796D01*
X153138326Y-57666487D01*
X152852564Y-56974891D01*
X152323892Y-56445296D01*
X151632796Y-56158327D01*
X150884487Y-56157674D01*
X150192891Y-56443436D01*
X149663296Y-56972108D01*
X149376327Y-57663204D01*
X149375674Y-58411513D01*
X147747007Y-58411513D01*
X147747118Y-58285135D01*
X147671597Y-58102359D01*
X147746882Y-57921054D01*
X147747118Y-57650135D01*
X147671597Y-57467359D01*
X147746882Y-57286054D01*
X147747118Y-57015135D01*
X147671597Y-56832359D01*
X147746882Y-56651054D01*
X147747118Y-56380135D01*
X147671597Y-56197359D01*
X147746882Y-56016054D01*
X147747118Y-55745135D01*
X147643661Y-55494748D01*
X147604980Y-55456000D01*
X154908820Y-55456000D01*
X154871013Y-55493741D01*
X154767118Y-55743946D01*
X154766882Y-56014865D01*
X154842403Y-56197641D01*
X154767118Y-56378946D01*
X154766882Y-56649865D01*
X154842403Y-56832641D01*
X154767118Y-57013946D01*
X154766882Y-57284865D01*
X154842403Y-57467641D01*
X154767118Y-57648946D01*
X154766882Y-57919865D01*
X154842403Y-58102641D01*
X154767118Y-58283946D01*
X154766882Y-58554865D01*
X154842403Y-58737641D01*
X154767118Y-58918946D01*
X154766882Y-59189865D01*
X154870339Y-59440252D01*
X155061741Y-59631987D01*
X155311946Y-59735882D01*
X155582865Y-59736118D01*
X155765641Y-59660597D01*
X155946946Y-59735882D01*
X156217865Y-59736118D01*
X156400641Y-59660597D01*
X156581946Y-59735882D01*
X156852865Y-59736118D01*
X157035641Y-59660597D01*
X157216946Y-59735882D01*
X157487865Y-59736118D01*
X157670641Y-59660597D01*
X157851946Y-59735882D01*
X158122865Y-59736118D01*
X158305641Y-59660597D01*
X158486946Y-59735882D01*
X158757865Y-59736118D01*
X158940641Y-59660597D01*
X159121946Y-59735882D01*
X159392865Y-59736118D01*
X159643252Y-59632661D01*
X159834987Y-59441259D01*
X159938882Y-59191054D01*
X159939118Y-58920135D01*
X159863597Y-58737359D01*
X159938882Y-58556054D01*
X159939007Y-58411513D01*
X161948674Y-58411513D01*
X162234436Y-59103109D01*
X162763108Y-59632704D01*
X163454204Y-59919673D01*
X164202513Y-59920326D01*
X164894109Y-59634564D01*
X165423704Y-59105892D01*
X165710673Y-58414796D01*
X165711326Y-57666487D01*
X165425564Y-56974891D01*
X164896892Y-56445296D01*
X164205796Y-56158327D01*
X163457487Y-56157674D01*
X162765891Y-56443436D01*
X162236296Y-56972108D01*
X161949327Y-57663204D01*
X161948674Y-58411513D01*
X159939007Y-58411513D01*
X159939118Y-58285135D01*
X159863597Y-58102359D01*
X159938882Y-57921054D01*
X159939118Y-57650135D01*
X159863597Y-57467359D01*
X159938882Y-57286054D01*
X159939118Y-57015135D01*
X159863597Y-56832359D01*
X159938882Y-56651054D01*
X159939118Y-56380135D01*
X159863597Y-56197359D01*
X159938882Y-56016054D01*
X159939118Y-55745135D01*
X159835661Y-55494748D01*
X159796980Y-55456000D01*
X167735820Y-55456000D01*
X167698013Y-55493741D01*
X167594118Y-55743946D01*
X167593882Y-56014865D01*
X167669403Y-56197641D01*
X167594118Y-56378946D01*
X167593882Y-56649865D01*
X167669403Y-56832641D01*
X167594118Y-57013946D01*
X167593882Y-57284865D01*
X167669403Y-57467641D01*
X167594118Y-57648946D01*
X167593882Y-57919865D01*
X167669403Y-58102641D01*
X167594118Y-58283946D01*
X167593882Y-58554865D01*
X167669403Y-58737641D01*
X167594118Y-58918946D01*
X167593882Y-59189865D01*
X167697339Y-59440252D01*
X167888741Y-59631987D01*
X168138946Y-59735882D01*
X168409865Y-59736118D01*
X168592641Y-59660597D01*
X168773946Y-59735882D01*
X169044865Y-59736118D01*
X169227641Y-59660597D01*
X169408946Y-59735882D01*
X169679865Y-59736118D01*
X169862641Y-59660597D01*
X170043946Y-59735882D01*
X170314865Y-59736118D01*
X170497641Y-59660597D01*
X170678946Y-59735882D01*
X170949865Y-59736118D01*
X171132641Y-59660597D01*
X171313946Y-59735882D01*
X171584865Y-59736118D01*
X171767641Y-59660597D01*
X171948946Y-59735882D01*
X172219865Y-59736118D01*
X172470252Y-59632661D01*
X172661987Y-59441259D01*
X172765882Y-59191054D01*
X172766118Y-58920135D01*
X172690597Y-58737359D01*
X172765882Y-58556054D01*
X172766118Y-58285135D01*
X172690597Y-58102359D01*
X172765882Y-57921054D01*
X172766118Y-57650135D01*
X172690597Y-57467359D01*
X172765882Y-57286054D01*
X172766118Y-57015135D01*
X172690597Y-56832359D01*
X172765882Y-56651054D01*
X172766118Y-56380135D01*
X172690597Y-56197359D01*
X172765882Y-56016054D01*
X172766118Y-55745135D01*
X172662661Y-55494748D01*
X172623980Y-55456000D01*
X172955088Y-55456000D01*
X173587445Y-55581784D01*
X174085456Y-55914544D01*
X174418216Y-56412555D01*
X174544000Y-57044911D01*
X174544000Y-83544000D01*
X162800000Y-83544000D01*
X162755950Y-83552762D01*
X162711039Y-83552762D01*
X162328356Y-83628882D01*
X162163977Y-83696970D01*
X161839553Y-83913743D01*
X161713743Y-84039553D01*
X161496971Y-84363976D01*
X161496970Y-84363977D01*
X161428882Y-84528356D01*
X161352762Y-84911039D01*
X161352762Y-84955950D01*
X161344000Y-85000000D01*
X161344000Y-87544000D01*
X154056000Y-87544000D01*
X154056000Y-85000000D01*
X154047238Y-84955950D01*
X154047238Y-84911039D01*
X153971118Y-84528356D01*
X153903030Y-84363977D01*
X153903029Y-84363976D01*
X153686257Y-84039553D01*
X153560447Y-83913743D01*
X153236023Y-83696970D01*
X153071644Y-83628882D01*
X152688961Y-83552762D01*
X152644050Y-83552762D01*
X152600000Y-83544000D01*
X140000000Y-83544000D01*
X139825496Y-83578711D01*
X139677559Y-83677559D01*
X139578711Y-83825496D01*
X139544000Y-84000000D01*
X139544000Y-90095010D01*
X139501723Y-90077455D01*
X139230804Y-90077219D01*
X138980417Y-90180676D01*
X138788682Y-90372078D01*
X138684787Y-90622283D01*
X138684551Y-90893202D01*
X138734713Y-91014605D01*
X138693056Y-90997307D01*
X138422137Y-90997071D01*
X138171750Y-91100528D01*
X138076524Y-91195589D01*
X137900506Y-91195589D01*
X134088783Y-87383865D01*
X137367882Y-87383865D01*
X137471339Y-87634252D01*
X137662741Y-87825987D01*
X137912946Y-87929882D01*
X138183865Y-87930118D01*
X138434252Y-87826661D01*
X138625987Y-87635259D01*
X138729882Y-87385054D01*
X138730118Y-87114135D01*
X138626661Y-86863748D01*
X138435259Y-86672013D01*
X138185054Y-86568118D01*
X137914135Y-86567882D01*
X137663748Y-86671339D01*
X137472013Y-86862741D01*
X137368118Y-87112946D01*
X137367882Y-87383865D01*
X134088783Y-87383865D01*
X133262307Y-86557389D01*
X133417752Y-86493161D01*
X133609487Y-86301759D01*
X133713382Y-86051554D01*
X133713618Y-85780635D01*
X133610161Y-85530248D01*
X133418759Y-85338513D01*
X133168554Y-85234618D01*
X132897635Y-85234382D01*
X132647248Y-85337839D01*
X132562600Y-85422340D01*
X132562600Y-84716865D01*
X133811882Y-84716865D01*
X133915339Y-84967252D01*
X134106741Y-85158987D01*
X134356946Y-85262882D01*
X134627865Y-85263118D01*
X134878252Y-85159661D01*
X135069987Y-84968259D01*
X135173882Y-84718054D01*
X135173999Y-84583501D01*
X136343899Y-83413600D01*
X138557000Y-83413600D01*
X138741683Y-83376864D01*
X138898250Y-83272250D01*
X139914250Y-82256250D01*
X140018864Y-82099683D01*
X140055600Y-81915000D01*
X140055600Y-80844894D01*
X140336492Y-80564002D01*
X140469859Y-80564118D01*
X140720246Y-80460661D01*
X140911981Y-80269259D01*
X141015876Y-80019054D01*
X141016112Y-79748135D01*
X140912655Y-79497748D01*
X140721253Y-79306013D01*
X140471048Y-79202118D01*
X140200129Y-79201882D01*
X139949742Y-79305339D01*
X139758007Y-79496741D01*
X139654112Y-79746946D01*
X139653995Y-79881499D01*
X139231750Y-80303744D01*
X139127136Y-80460311D01*
X139090400Y-80644994D01*
X139090400Y-81715100D01*
X138357100Y-82448400D01*
X136144005Y-82448400D01*
X136144000Y-82448399D01*
X135959317Y-82485136D01*
X135802750Y-82589750D01*
X135802748Y-82589753D01*
X134491502Y-83900998D01*
X134358135Y-83900882D01*
X134107748Y-84004339D01*
X133916013Y-84195741D01*
X133812118Y-84445946D01*
X133811882Y-84716865D01*
X132562600Y-84716865D01*
X132562600Y-81392513D01*
X132691234Y-81392513D01*
X132794691Y-81642900D01*
X132986093Y-81834635D01*
X133094760Y-81879758D01*
X133121141Y-81943606D01*
X133312543Y-82135341D01*
X133562748Y-82239236D01*
X133833667Y-82239472D01*
X134084054Y-82136015D01*
X134275789Y-81944613D01*
X134379684Y-81694408D01*
X134379920Y-81423489D01*
X134276463Y-81173102D01*
X134085061Y-80981367D01*
X133976394Y-80936244D01*
X133950013Y-80872396D01*
X133758611Y-80680661D01*
X133508406Y-80576766D01*
X133237487Y-80576530D01*
X132987100Y-80679987D01*
X132795365Y-80871389D01*
X132691470Y-81121594D01*
X132691234Y-81392513D01*
X132562600Y-81392513D01*
X132562600Y-80017859D01*
X133303882Y-80017859D01*
X133407339Y-80268246D01*
X133598741Y-80459981D01*
X133733197Y-80515813D01*
X133788333Y-80649252D01*
X133979735Y-80840987D01*
X134114209Y-80896826D01*
X134169339Y-81030252D01*
X134360741Y-81221987D01*
X134610946Y-81325882D01*
X134881865Y-81326118D01*
X135132252Y-81222661D01*
X135323987Y-81031259D01*
X135427882Y-80781054D01*
X135428118Y-80510135D01*
X135381431Y-80397141D01*
X136853489Y-80397141D01*
X136956946Y-80647528D01*
X137148348Y-80839263D01*
X137260215Y-80885715D01*
X137260058Y-81065825D01*
X137363515Y-81316212D01*
X137554917Y-81507947D01*
X137805122Y-81611842D01*
X138076041Y-81612078D01*
X138326428Y-81508621D01*
X138518163Y-81317219D01*
X138622058Y-81067014D01*
X138622294Y-80796095D01*
X138518837Y-80545708D01*
X138327435Y-80353973D01*
X138215568Y-80307521D01*
X138215725Y-80127411D01*
X138112268Y-79877024D01*
X137920866Y-79685289D01*
X137670661Y-79581394D01*
X137399742Y-79581158D01*
X137149355Y-79684615D01*
X136957620Y-79876017D01*
X136853725Y-80126222D01*
X136853489Y-80397141D01*
X135381431Y-80397141D01*
X135324661Y-80259748D01*
X135133259Y-80068013D01*
X134998785Y-80012174D01*
X134943655Y-79878748D01*
X134752253Y-79687013D01*
X134617797Y-79631181D01*
X134604581Y-79599196D01*
X134643505Y-79599230D01*
X134893892Y-79495773D01*
X135085627Y-79304371D01*
X135189522Y-79054166D01*
X135189758Y-78783247D01*
X135086301Y-78532860D01*
X135067965Y-78514492D01*
X135166711Y-78276688D01*
X135166947Y-78005769D01*
X135063490Y-77755382D01*
X135056823Y-77748703D01*
X135160551Y-77498900D01*
X135160787Y-77227981D01*
X135057330Y-76977594D01*
X134865928Y-76785859D01*
X134794836Y-76756339D01*
X134985252Y-76677661D01*
X135176987Y-76486259D01*
X135280882Y-76236054D01*
X135281118Y-75965135D01*
X135177661Y-75714748D01*
X135163080Y-75700142D01*
X135176987Y-75686259D01*
X135280882Y-75436054D01*
X135281118Y-75165135D01*
X135198332Y-74964777D01*
X135276987Y-74886259D01*
X135380882Y-74636054D01*
X135381118Y-74365135D01*
X135277661Y-74114748D01*
X135086259Y-73923013D01*
X134999579Y-73887020D01*
X135181615Y-73705300D01*
X135285510Y-73455095D01*
X135285746Y-73184176D01*
X135182289Y-72933789D01*
X135056665Y-72807947D01*
X135101782Y-72699294D01*
X135102018Y-72428375D01*
X135014027Y-72215419D01*
X135055681Y-72173837D01*
X135159576Y-71923632D01*
X135159812Y-71652713D01*
X135056355Y-71402326D01*
X134864953Y-71210591D01*
X134614748Y-71106696D01*
X134343829Y-71106460D01*
X134093442Y-71209917D01*
X133901707Y-71401319D01*
X133797812Y-71651524D01*
X133797576Y-71922443D01*
X133885567Y-72135399D01*
X133843913Y-72176981D01*
X133740018Y-72427186D01*
X133739782Y-72698105D01*
X133843239Y-72948492D01*
X133968863Y-73074334D01*
X133923746Y-73182987D01*
X133923510Y-73453906D01*
X134026967Y-73704293D01*
X134218369Y-73896028D01*
X134305049Y-73932021D01*
X134123013Y-74113741D01*
X134019118Y-74363946D01*
X134018882Y-74634865D01*
X134101668Y-74835223D01*
X134023013Y-74913741D01*
X133919118Y-75163946D01*
X133918882Y-75434865D01*
X134022339Y-75685252D01*
X134036920Y-75699858D01*
X134023013Y-75713741D01*
X133919118Y-75963946D01*
X133918882Y-76234865D01*
X134022339Y-76485252D01*
X134213741Y-76676987D01*
X134284833Y-76706507D01*
X134094417Y-76785185D01*
X133902682Y-76976587D01*
X133798787Y-77226792D01*
X133798551Y-77497711D01*
X133902008Y-77748098D01*
X133908675Y-77754777D01*
X133804947Y-78004580D01*
X133804711Y-78275499D01*
X133908168Y-78525886D01*
X133926504Y-78544254D01*
X133827758Y-78782058D01*
X133827522Y-79052977D01*
X133889059Y-79201910D01*
X133850135Y-79201876D01*
X133599748Y-79305333D01*
X133408013Y-79496735D01*
X133304118Y-79746940D01*
X133303882Y-80017859D01*
X132562600Y-80017859D01*
X132562600Y-72941264D01*
X132525864Y-72756581D01*
X132421250Y-72600014D01*
X131241170Y-71419934D01*
X131452865Y-71420118D01*
X131703252Y-71316661D01*
X131894987Y-71125259D01*
X131998882Y-70875054D01*
X131998889Y-70866000D01*
X138430000Y-70866000D01*
X138430000Y-72136000D01*
X138478336Y-72379004D01*
X138615987Y-72585013D01*
X139584650Y-73553676D01*
X139630339Y-73664252D01*
X139821741Y-73855987D01*
X140068892Y-73958614D01*
X140068801Y-74063284D01*
X139822748Y-74164950D01*
X139631013Y-74356352D01*
X139527118Y-74606557D01*
X139526882Y-74877476D01*
X139608332Y-75074603D01*
X139504013Y-75178741D01*
X139400118Y-75428946D01*
X139399882Y-75699865D01*
X139446000Y-75811480D01*
X139446000Y-77470000D01*
X139494336Y-77713004D01*
X139631987Y-77919013D01*
X140551186Y-78838212D01*
X140757195Y-78975863D01*
X141000199Y-79024199D01*
X142702084Y-79024199D01*
X142702040Y-79074959D01*
X142613135Y-79074882D01*
X142430359Y-79150403D01*
X142249054Y-79075118D01*
X141978135Y-79074882D01*
X141727748Y-79178339D01*
X141536013Y-79369741D01*
X141432118Y-79619946D01*
X141431882Y-79890865D01*
X141535339Y-80141252D01*
X141726741Y-80332987D01*
X141976946Y-80436882D01*
X142247865Y-80437118D01*
X142430641Y-80361597D01*
X142611946Y-80436882D01*
X142818533Y-80437062D01*
X142742141Y-80548866D01*
X142711536Y-80700000D01*
X142711536Y-83100000D01*
X142738103Y-83241190D01*
X142821546Y-83370865D01*
X142948866Y-83457859D01*
X143100000Y-83488464D01*
X145500000Y-83488464D01*
X145641190Y-83461897D01*
X145770865Y-83378454D01*
X145857859Y-83251134D01*
X145888464Y-83100000D01*
X145888464Y-82213101D01*
X147718726Y-82213101D01*
X147958912Y-82794395D01*
X148403266Y-83239525D01*
X148984140Y-83480725D01*
X149613101Y-83481274D01*
X150194395Y-83241088D01*
X150639525Y-82796734D01*
X150880725Y-82215860D01*
X150880727Y-82213101D01*
X164618726Y-82213101D01*
X164858912Y-82794395D01*
X165303266Y-83239525D01*
X165884140Y-83480725D01*
X166513101Y-83481274D01*
X167094395Y-83241088D01*
X167539525Y-82796734D01*
X167780725Y-82215860D01*
X167781274Y-81586899D01*
X167541088Y-81005605D01*
X167096734Y-80560475D01*
X166515860Y-80319275D01*
X165886899Y-80318726D01*
X165305605Y-80558912D01*
X164860475Y-81003266D01*
X164619275Y-81584140D01*
X164618726Y-82213101D01*
X150880727Y-82213101D01*
X150881274Y-81586899D01*
X150641088Y-81005605D01*
X150196734Y-80560475D01*
X149615860Y-80319275D01*
X148986899Y-80318726D01*
X148405605Y-80558912D01*
X147960475Y-81003266D01*
X147719275Y-81584140D01*
X147718726Y-82213101D01*
X145888464Y-82213101D01*
X145888464Y-80700000D01*
X145861897Y-80558810D01*
X145782160Y-80434895D01*
X145786946Y-80436882D01*
X146057865Y-80437118D01*
X146240641Y-80361597D01*
X146421946Y-80436882D01*
X146692865Y-80437118D01*
X146875641Y-80361597D01*
X147056946Y-80436882D01*
X147327865Y-80437118D01*
X147510641Y-80361597D01*
X147691946Y-80436882D01*
X147962865Y-80437118D01*
X148213252Y-80333661D01*
X148404987Y-80142259D01*
X148508882Y-79892054D01*
X148508883Y-79890865D01*
X153877882Y-79890865D01*
X153981339Y-80141252D01*
X154172741Y-80332987D01*
X154422946Y-80436882D01*
X154693865Y-80437118D01*
X154876641Y-80361597D01*
X155057946Y-80436882D01*
X155328865Y-80437118D01*
X155511641Y-80361597D01*
X155692946Y-80436882D01*
X155963865Y-80437118D01*
X156146641Y-80361597D01*
X156327946Y-80436882D01*
X156598865Y-80437118D01*
X156781641Y-80361597D01*
X156962946Y-80436882D01*
X157233865Y-80437118D01*
X157416641Y-80361597D01*
X157597946Y-80436882D01*
X157868865Y-80437118D01*
X158051641Y-80361597D01*
X158232946Y-80436882D01*
X158503865Y-80437118D01*
X158686641Y-80361597D01*
X158867946Y-80436882D01*
X159138865Y-80437118D01*
X159321641Y-80361597D01*
X159502946Y-80436882D01*
X159773865Y-80437118D01*
X159956641Y-80361597D01*
X160137946Y-80436882D01*
X160408865Y-80437118D01*
X160659252Y-80333661D01*
X160850987Y-80142259D01*
X160954882Y-79892054D01*
X160955118Y-79621135D01*
X160879597Y-79438359D01*
X160954882Y-79257054D01*
X160954883Y-79255865D01*
X166958882Y-79255865D01*
X167034403Y-79438641D01*
X166959118Y-79619946D01*
X166958882Y-79890865D01*
X167062339Y-80141252D01*
X167253741Y-80332987D01*
X167503946Y-80436882D01*
X167774865Y-80437118D01*
X167957641Y-80361597D01*
X168138946Y-80436882D01*
X168409865Y-80437118D01*
X168592641Y-80361597D01*
X168773946Y-80436882D01*
X169044865Y-80437118D01*
X169227641Y-80361597D01*
X169408946Y-80436882D01*
X169679865Y-80437118D01*
X169749917Y-80408173D01*
X169729135Y-80421546D01*
X169642141Y-80548866D01*
X169611536Y-80700000D01*
X169611536Y-83100000D01*
X169638103Y-83241190D01*
X169721546Y-83370865D01*
X169848866Y-83457859D01*
X170000000Y-83488464D01*
X172400000Y-83488464D01*
X172541190Y-83461897D01*
X172670865Y-83378454D01*
X172757859Y-83251134D01*
X172788464Y-83100000D01*
X172788464Y-80700000D01*
X172761897Y-80558810D01*
X172683495Y-80436969D01*
X172854865Y-80437118D01*
X173037641Y-80361597D01*
X173218946Y-80436882D01*
X173489865Y-80437118D01*
X173740252Y-80333661D01*
X173931987Y-80142259D01*
X174035882Y-79892054D01*
X174036118Y-79621135D01*
X173932661Y-79370748D01*
X173741259Y-79179013D01*
X173491054Y-79075118D01*
X173220135Y-79074882D01*
X173037359Y-79150403D01*
X172856054Y-79075118D01*
X172766041Y-79075040D01*
X172766118Y-78986135D01*
X172662661Y-78735748D01*
X172471259Y-78544013D01*
X172221054Y-78440118D01*
X171950135Y-78439882D01*
X171767359Y-78515403D01*
X171586054Y-78440118D01*
X171315135Y-78439882D01*
X171132359Y-78515403D01*
X170951054Y-78440118D01*
X170680135Y-78439882D01*
X170497359Y-78515403D01*
X170316054Y-78440118D01*
X170045135Y-78439882D01*
X169862359Y-78515403D01*
X169681054Y-78440118D01*
X169410135Y-78439882D01*
X169227359Y-78515403D01*
X169046054Y-78440118D01*
X168775135Y-78439882D01*
X168592359Y-78515403D01*
X168411054Y-78440118D01*
X168140135Y-78439882D01*
X167957359Y-78515403D01*
X167776054Y-78440118D01*
X167505135Y-78439882D01*
X167254748Y-78543339D01*
X167063013Y-78734741D01*
X166959118Y-78984946D01*
X166958882Y-79255865D01*
X160954883Y-79255865D01*
X160955118Y-78986135D01*
X160851661Y-78735748D01*
X160660259Y-78544013D01*
X160410054Y-78440118D01*
X160139135Y-78439882D01*
X159956359Y-78515403D01*
X159775054Y-78440118D01*
X159504135Y-78439882D01*
X159321359Y-78515403D01*
X159140054Y-78440118D01*
X158869135Y-78439882D01*
X158686359Y-78515403D01*
X158505054Y-78440118D01*
X158234135Y-78439882D01*
X158051359Y-78515403D01*
X157870054Y-78440118D01*
X157599135Y-78439882D01*
X157416359Y-78515403D01*
X157235054Y-78440118D01*
X156964135Y-78439882D01*
X156781359Y-78515403D01*
X156600054Y-78440118D01*
X156329135Y-78439882D01*
X156146359Y-78515403D01*
X155965054Y-78440118D01*
X155694135Y-78439882D01*
X155443748Y-78543339D01*
X155252013Y-78734741D01*
X155148118Y-78984946D01*
X155148040Y-79074959D01*
X155059135Y-79074882D01*
X154876359Y-79150403D01*
X154695054Y-79075118D01*
X154424135Y-79074882D01*
X154173748Y-79178339D01*
X153982013Y-79369741D01*
X153878118Y-79619946D01*
X153877882Y-79890865D01*
X148508883Y-79890865D01*
X148509118Y-79621135D01*
X148433597Y-79438359D01*
X148508882Y-79257054D01*
X148509085Y-79024199D01*
X154655801Y-79024199D01*
X154898805Y-78975863D01*
X155104814Y-78838212D01*
X156659013Y-77284013D01*
X156796664Y-77078005D01*
X156845000Y-76835000D01*
X156845000Y-75438000D01*
X156796664Y-75194996D01*
X156659013Y-74988987D01*
X155529008Y-73858982D01*
X155680246Y-73921782D01*
X155951165Y-73922018D01*
X156127575Y-73849127D01*
X156302546Y-73921782D01*
X156573465Y-73922018D01*
X156749875Y-73849127D01*
X156924846Y-73921782D01*
X157195765Y-73922018D01*
X157372175Y-73849127D01*
X157547146Y-73921782D01*
X157818065Y-73922018D01*
X157994475Y-73849127D01*
X158169446Y-73921782D01*
X158440365Y-73922018D01*
X158616775Y-73849127D01*
X158791746Y-73921782D01*
X159062665Y-73922018D01*
X159239075Y-73849127D01*
X159414046Y-73921782D01*
X159684965Y-73922018D01*
X159861375Y-73849127D01*
X160036346Y-73921782D01*
X160307265Y-73922018D01*
X160557652Y-73818561D01*
X160749387Y-73627159D01*
X160853282Y-73376954D01*
X160853518Y-73106035D01*
X160780627Y-72929625D01*
X160853282Y-72754654D01*
X160853518Y-72483735D01*
X160780627Y-72307325D01*
X160853282Y-72132354D01*
X160853518Y-71861435D01*
X160780627Y-71685025D01*
X160853282Y-71510054D01*
X160853283Y-71508865D01*
X167593882Y-71508865D01*
X167666773Y-71685275D01*
X167594118Y-71860246D01*
X167593882Y-72131165D01*
X167666773Y-72307575D01*
X167594118Y-72482546D01*
X167593882Y-72753465D01*
X167666773Y-72929875D01*
X167594118Y-73104846D01*
X167593882Y-73375765D01*
X167697339Y-73626152D01*
X167888741Y-73817887D01*
X168138946Y-73921782D01*
X168409865Y-73922018D01*
X168586275Y-73849127D01*
X168761246Y-73921782D01*
X169032165Y-73922018D01*
X169208575Y-73849127D01*
X169383546Y-73921782D01*
X169654465Y-73922018D01*
X169830875Y-73849127D01*
X170005846Y-73921782D01*
X170276765Y-73922018D01*
X170453175Y-73849127D01*
X170628146Y-73921782D01*
X170899065Y-73922018D01*
X171075475Y-73849127D01*
X171250446Y-73921782D01*
X171521365Y-73922018D01*
X171697775Y-73849127D01*
X171872746Y-73921782D01*
X172143665Y-73922018D01*
X172394052Y-73818561D01*
X172585787Y-73627159D01*
X172689682Y-73376954D01*
X172689749Y-73299652D01*
X172765965Y-73299718D01*
X172942375Y-73226827D01*
X173117346Y-73299482D01*
X173388265Y-73299718D01*
X173638652Y-73196261D01*
X173830387Y-73004859D01*
X173934282Y-72754654D01*
X173934518Y-72483735D01*
X173861627Y-72307325D01*
X173934282Y-72132354D01*
X173934518Y-71861435D01*
X173861627Y-71685025D01*
X173934282Y-71510054D01*
X173934518Y-71239135D01*
X173831061Y-70988748D01*
X173639659Y-70797013D01*
X173389454Y-70693118D01*
X173118535Y-70692882D01*
X172942125Y-70765773D01*
X172767154Y-70693118D01*
X172496235Y-70692882D01*
X172319825Y-70765773D01*
X172144854Y-70693118D01*
X171873935Y-70692882D01*
X171697525Y-70765773D01*
X171522554Y-70693118D01*
X171251635Y-70692882D01*
X171001248Y-70796339D01*
X170809513Y-70987741D01*
X170705618Y-71237946D01*
X170705551Y-71315248D01*
X170629335Y-71315182D01*
X170452925Y-71388073D01*
X170277954Y-71315418D01*
X170200652Y-71315351D01*
X170200718Y-71239135D01*
X170097261Y-70988748D01*
X169905859Y-70797013D01*
X169655654Y-70693118D01*
X169384735Y-70692882D01*
X169208325Y-70765773D01*
X169033354Y-70693118D01*
X168762435Y-70692882D01*
X168586025Y-70765773D01*
X168411054Y-70693118D01*
X168140135Y-70692882D01*
X167889748Y-70796339D01*
X167698013Y-70987741D01*
X167594118Y-71237946D01*
X167593882Y-71508865D01*
X160853283Y-71508865D01*
X160853518Y-71239135D01*
X160750061Y-70988748D01*
X160558659Y-70797013D01*
X160308454Y-70693118D01*
X160037535Y-70692882D01*
X159861125Y-70765773D01*
X159686154Y-70693118D01*
X159415235Y-70692882D01*
X159238825Y-70765773D01*
X159063854Y-70693118D01*
X158792935Y-70692882D01*
X158616525Y-70765773D01*
X158441554Y-70693118D01*
X158170635Y-70692882D01*
X157920248Y-70796339D01*
X157728513Y-70987741D01*
X157624618Y-71237946D01*
X157624551Y-71315248D01*
X157548335Y-71315182D01*
X157371925Y-71388073D01*
X157196954Y-71315418D01*
X157119652Y-71315351D01*
X157119718Y-71239135D01*
X157016261Y-70988748D01*
X156824859Y-70797013D01*
X156574654Y-70693118D01*
X156303735Y-70692882D01*
X156127325Y-70765773D01*
X155952354Y-70693118D01*
X155681435Y-70692882D01*
X155594028Y-70728998D01*
X156151010Y-70172015D01*
X156151013Y-70172013D01*
X156235437Y-70045664D01*
X156288664Y-69966005D01*
X156337000Y-69723000D01*
X156337000Y-68146126D01*
X156405987Y-68077259D01*
X156509882Y-67827054D01*
X156510085Y-67594198D01*
X158263172Y-67594198D01*
X158681987Y-68013013D01*
X158698961Y-68024354D01*
X158773101Y-68098624D01*
X158870871Y-68139222D01*
X158887996Y-68150664D01*
X158908020Y-68154647D01*
X159004936Y-68194890D01*
X159110802Y-68194982D01*
X159131000Y-68199000D01*
X159151022Y-68195017D01*
X159255963Y-68195109D01*
X159353805Y-68154682D01*
X159374004Y-68150664D01*
X159390978Y-68139322D01*
X159487966Y-68099248D01*
X159562890Y-68024454D01*
X159580013Y-68013013D01*
X159591354Y-67996039D01*
X159665624Y-67921899D01*
X159706222Y-67824129D01*
X159717664Y-67807004D01*
X159721647Y-67786980D01*
X159761890Y-67690064D01*
X159761982Y-67584198D01*
X159766000Y-67564000D01*
X159762017Y-67543978D01*
X159762109Y-67439037D01*
X159721682Y-67341195D01*
X159717664Y-67320996D01*
X159706322Y-67304022D01*
X159666248Y-67207034D01*
X159591454Y-67132110D01*
X159580013Y-67114987D01*
X158975211Y-66510185D01*
X158769202Y-66372534D01*
X158526198Y-66324198D01*
X155477739Y-66324198D01*
X155477734Y-66324197D01*
X155234730Y-66372534D01*
X155028721Y-66510185D01*
X154277432Y-67261474D01*
X154260718Y-67221022D01*
X154325482Y-67065054D01*
X154325718Y-66794135D01*
X154260718Y-66636822D01*
X154325482Y-66480854D01*
X154325718Y-66209935D01*
X154260718Y-66052622D01*
X154325482Y-65896654D01*
X154325718Y-65625735D01*
X154260718Y-65468422D01*
X154325482Y-65312454D01*
X154325718Y-65041535D01*
X154260718Y-64884222D01*
X154325482Y-64728254D01*
X154325718Y-64457335D01*
X154260718Y-64300022D01*
X154325482Y-64144054D01*
X154325483Y-64142865D01*
X160735882Y-64142865D01*
X160800882Y-64300178D01*
X160736118Y-64456146D01*
X160735882Y-64727065D01*
X160800882Y-64884378D01*
X160736118Y-65040346D01*
X160735882Y-65311265D01*
X160800882Y-65468578D01*
X160736118Y-65624546D01*
X160735882Y-65895465D01*
X160800882Y-66052778D01*
X160736118Y-66208746D01*
X160735882Y-66479665D01*
X160800882Y-66636978D01*
X160736118Y-66792946D01*
X160735882Y-67063865D01*
X160800882Y-67221178D01*
X160736118Y-67377146D01*
X160735882Y-67648065D01*
X160839339Y-67898452D01*
X161030741Y-68090187D01*
X161280946Y-68194082D01*
X161551865Y-68194318D01*
X161709178Y-68129318D01*
X161865146Y-68194082D01*
X162136065Y-68194318D01*
X162293378Y-68129318D01*
X162449346Y-68194082D01*
X162720265Y-68194318D01*
X162877578Y-68129318D01*
X163033546Y-68194082D01*
X163304465Y-68194318D01*
X163461778Y-68129318D01*
X163617746Y-68194082D01*
X163888665Y-68194318D01*
X164045978Y-68129318D01*
X164201946Y-68194082D01*
X164472865Y-68194318D01*
X164630178Y-68129318D01*
X164786146Y-68194082D01*
X165057065Y-68194318D01*
X165214378Y-68129318D01*
X165370346Y-68194082D01*
X165641265Y-68194318D01*
X165798578Y-68129318D01*
X165954546Y-68194082D01*
X166225465Y-68194318D01*
X166475852Y-68090861D01*
X166667587Y-67899459D01*
X166750881Y-67698865D01*
X167466882Y-67698865D01*
X167570339Y-67949252D01*
X167761741Y-68140987D01*
X168011946Y-68244882D01*
X168282865Y-68245118D01*
X168533252Y-68141661D01*
X168724987Y-67950259D01*
X168828882Y-67700054D01*
X168829118Y-67429135D01*
X168725661Y-67178748D01*
X168534259Y-66987013D01*
X168284054Y-66883118D01*
X168013135Y-66882882D01*
X167762748Y-66986339D01*
X167571013Y-67177741D01*
X167467118Y-67427946D01*
X167466882Y-67698865D01*
X166750881Y-67698865D01*
X166771482Y-67649254D01*
X166771718Y-67378335D01*
X166706718Y-67221022D01*
X166771482Y-67065054D01*
X166771718Y-66794135D01*
X166706718Y-66636822D01*
X166771482Y-66480854D01*
X166771718Y-66209935D01*
X166706718Y-66052622D01*
X166771482Y-65896654D01*
X166771718Y-65625735D01*
X166706718Y-65468422D01*
X166771482Y-65312454D01*
X166771718Y-65041535D01*
X166706718Y-64884222D01*
X166771482Y-64728254D01*
X166771718Y-64457335D01*
X166706718Y-64300022D01*
X166771482Y-64144054D01*
X166771718Y-63873135D01*
X166668261Y-63622748D01*
X166476859Y-63431013D01*
X166226654Y-63327118D01*
X165955735Y-63326882D01*
X165798422Y-63391882D01*
X165642454Y-63327118D01*
X165371535Y-63326882D01*
X165214222Y-63391882D01*
X165058254Y-63327118D01*
X164787335Y-63326882D01*
X164630022Y-63391882D01*
X164474054Y-63327118D01*
X164203135Y-63326882D01*
X164045822Y-63391882D01*
X163889854Y-63327118D01*
X163618935Y-63326882D01*
X163461622Y-63391882D01*
X163305654Y-63327118D01*
X163034735Y-63326882D01*
X162877422Y-63391882D01*
X162721454Y-63327118D01*
X162450535Y-63326882D01*
X162293222Y-63391882D01*
X162137254Y-63327118D01*
X161866335Y-63326882D01*
X161709022Y-63391882D01*
X161553054Y-63327118D01*
X161282135Y-63326882D01*
X161031748Y-63430339D01*
X160840013Y-63621741D01*
X160736118Y-63871946D01*
X160735882Y-64142865D01*
X154325483Y-64142865D01*
X154325718Y-63873135D01*
X154222261Y-63622748D01*
X154030859Y-63431013D01*
X153780654Y-63327118D01*
X153509735Y-63326882D01*
X153352422Y-63391882D01*
X153196454Y-63327118D01*
X152925535Y-63326882D01*
X152768222Y-63391882D01*
X152612254Y-63327118D01*
X152341335Y-63326882D01*
X152184022Y-63391882D01*
X152028054Y-63327118D01*
X151757135Y-63326882D01*
X151599822Y-63391882D01*
X151443854Y-63327118D01*
X151172935Y-63326882D01*
X151015622Y-63391882D01*
X150859654Y-63327118D01*
X150588735Y-63326882D01*
X150431422Y-63391882D01*
X150275454Y-63327118D01*
X150004535Y-63326882D01*
X149847222Y-63391882D01*
X149691254Y-63327118D01*
X149420335Y-63326882D01*
X149263022Y-63391882D01*
X149107054Y-63327118D01*
X148836135Y-63326882D01*
X148585748Y-63430339D01*
X148394013Y-63621741D01*
X148290118Y-63871946D01*
X148289882Y-64142865D01*
X148354882Y-64300178D01*
X148290118Y-64456146D01*
X148289882Y-64727065D01*
X148354882Y-64884378D01*
X148290118Y-65040346D01*
X148289882Y-65311265D01*
X148354882Y-65468578D01*
X148290118Y-65624546D01*
X148289882Y-65895465D01*
X148354882Y-66052778D01*
X148290118Y-66208746D01*
X148289882Y-66479665D01*
X148354882Y-66636978D01*
X148290118Y-66792946D01*
X148289882Y-67063865D01*
X148354882Y-67221178D01*
X148290118Y-67377146D01*
X148289882Y-67648065D01*
X148393339Y-67898452D01*
X148584741Y-68090187D01*
X148834946Y-68194082D01*
X149105865Y-68194318D01*
X149263178Y-68129318D01*
X149419146Y-68194082D01*
X149690065Y-68194318D01*
X149847378Y-68129318D01*
X150003346Y-68194082D01*
X150274265Y-68194318D01*
X150431578Y-68129318D01*
X150587546Y-68194082D01*
X150858465Y-68194318D01*
X151015778Y-68129318D01*
X151171746Y-68194082D01*
X151442665Y-68194318D01*
X151599978Y-68129318D01*
X151755946Y-68194082D01*
X152026865Y-68194318D01*
X152184178Y-68129318D01*
X152340146Y-68194082D01*
X152611065Y-68194318D01*
X152768378Y-68129318D01*
X152924346Y-68194082D01*
X153195265Y-68194318D01*
X153352578Y-68129318D01*
X153392861Y-68146045D01*
X152069906Y-69469000D01*
X141859000Y-69469000D01*
X141615996Y-69517336D01*
X141409987Y-69654987D01*
X140568324Y-70496650D01*
X140457748Y-70542339D01*
X140266013Y-70733741D01*
X140162118Y-70983946D01*
X140162039Y-71074070D01*
X139946135Y-71073882D01*
X139700000Y-71175582D01*
X139700000Y-71129026D01*
X142630026Y-68199000D01*
X143644451Y-68199000D01*
X143754946Y-68244882D01*
X144025865Y-68245118D01*
X144276252Y-68141661D01*
X144467987Y-67950259D01*
X144571882Y-67700054D01*
X144572118Y-67429135D01*
X144468661Y-67178748D01*
X144277259Y-66987013D01*
X144027054Y-66883118D01*
X143756135Y-66882882D01*
X143644520Y-66929000D01*
X142367000Y-66929000D01*
X142123996Y-66977336D01*
X141917987Y-67114987D01*
X138615987Y-70416987D01*
X138478336Y-70622996D01*
X138430000Y-70866000D01*
X131998889Y-70866000D01*
X131999118Y-70604135D01*
X131923597Y-70421359D01*
X131998882Y-70240054D01*
X131999118Y-69969135D01*
X131895661Y-69718748D01*
X131704259Y-69527013D01*
X131454054Y-69423118D01*
X131183135Y-69422882D01*
X131000359Y-69498403D01*
X130819054Y-69423118D01*
X130548135Y-69422882D01*
X130297748Y-69526339D01*
X130174954Y-69648920D01*
X130053259Y-69527013D01*
X129850172Y-69442683D01*
X129925252Y-69411661D01*
X130116987Y-69220259D01*
X130220882Y-68970054D01*
X130221118Y-68699135D01*
X130117661Y-68448748D01*
X129926259Y-68257013D01*
X129676054Y-68153118D01*
X129405135Y-68152882D01*
X129232047Y-68224400D01*
X122273482Y-68224400D01*
X122179259Y-68130013D01*
X121929054Y-68026118D01*
X121658135Y-68025882D01*
X121640633Y-68033114D01*
X121640633Y-67571865D01*
X132287882Y-67571865D01*
X132391339Y-67822252D01*
X132582741Y-68013987D01*
X132832946Y-68117882D01*
X133103865Y-68118118D01*
X133286641Y-68042597D01*
X133299903Y-68048104D01*
X133154013Y-68193741D01*
X133104752Y-68312375D01*
X132987100Y-68360987D01*
X132795365Y-68552389D01*
X132691470Y-68802594D01*
X132691234Y-69073513D01*
X132794691Y-69323900D01*
X132986093Y-69515635D01*
X133236298Y-69619530D01*
X133507217Y-69619766D01*
X133757604Y-69516309D01*
X133949339Y-69324907D01*
X133998600Y-69206273D01*
X134116252Y-69157661D01*
X134307987Y-68966259D01*
X134411882Y-68716054D01*
X134412118Y-68445135D01*
X134308661Y-68194748D01*
X134232041Y-68117994D01*
X134373865Y-68118118D01*
X134624252Y-68014661D01*
X134815987Y-67823259D01*
X134919882Y-67573054D01*
X134920118Y-67302135D01*
X134816661Y-67051748D01*
X134646485Y-66881275D01*
X138510882Y-66881275D01*
X138614339Y-67131662D01*
X138805741Y-67323397D01*
X139055946Y-67427292D01*
X139326865Y-67427528D01*
X139577252Y-67324071D01*
X139768987Y-67132669D01*
X139872882Y-66882464D01*
X139873118Y-66611545D01*
X139769661Y-66361158D01*
X139578259Y-66169423D01*
X139328054Y-66065528D01*
X139057135Y-66065292D01*
X138806748Y-66168749D01*
X138615013Y-66360151D01*
X138511118Y-66610356D01*
X138510882Y-66881275D01*
X134646485Y-66881275D01*
X134625259Y-66860013D01*
X134375054Y-66756118D01*
X134104135Y-66755882D01*
X133921359Y-66831403D01*
X133740054Y-66756118D01*
X133469135Y-66755882D01*
X133286359Y-66831403D01*
X133105054Y-66756118D01*
X132834135Y-66755882D01*
X132583748Y-66859339D01*
X132392013Y-67050741D01*
X132288118Y-67300946D01*
X132287882Y-67571865D01*
X121640633Y-67571865D01*
X121640633Y-66798430D01*
X121725508Y-66713555D01*
X121858875Y-66713671D01*
X122109262Y-66610214D01*
X122300997Y-66418812D01*
X122404892Y-66168607D01*
X122405128Y-65897688D01*
X122301671Y-65647301D01*
X122110269Y-65455566D01*
X122068333Y-65438153D01*
X122521594Y-64984892D01*
X122509114Y-65014946D01*
X122508878Y-65285865D01*
X122612335Y-65536252D01*
X122803737Y-65727987D01*
X123053942Y-65831882D01*
X123324861Y-65832118D01*
X123417441Y-65793865D01*
X128096882Y-65793865D01*
X128200339Y-66044252D01*
X128391741Y-66235987D01*
X128641946Y-66339882D01*
X128912865Y-66340118D01*
X129163252Y-66236661D01*
X129354987Y-66045259D01*
X129458882Y-65795054D01*
X129459118Y-65524135D01*
X129355661Y-65273748D01*
X129277553Y-65195504D01*
X129377709Y-65095522D01*
X129481604Y-64845317D01*
X129481840Y-64574398D01*
X129378383Y-64324011D01*
X129186981Y-64132276D01*
X128936776Y-64028381D01*
X128665857Y-64028145D01*
X128415470Y-64131602D01*
X128223735Y-64323004D01*
X128119840Y-64573209D01*
X128119604Y-64844128D01*
X128223061Y-65094515D01*
X128301169Y-65172759D01*
X128201013Y-65272741D01*
X128097118Y-65522946D01*
X128096882Y-65793865D01*
X123417441Y-65793865D01*
X123575248Y-65728661D01*
X123766983Y-65537259D01*
X123870878Y-65287054D01*
X123871114Y-65016135D01*
X123767657Y-64765748D01*
X123576255Y-64574013D01*
X123326050Y-64470118D01*
X123055131Y-64469882D01*
X123023557Y-64482928D01*
X123650874Y-63855611D01*
X128814819Y-63855611D01*
X128999502Y-63818875D01*
X129156069Y-63714261D01*
X129235465Y-63634865D01*
X134700882Y-63634865D01*
X134804339Y-63885252D01*
X134863418Y-63944434D01*
X134805013Y-64002737D01*
X134701118Y-64252942D01*
X134700882Y-64523861D01*
X134804339Y-64774248D01*
X134995741Y-64965983D01*
X135245946Y-65069878D01*
X135516865Y-65070114D01*
X135767252Y-64966657D01*
X135958987Y-64775255D01*
X136062882Y-64525050D01*
X136063118Y-64254131D01*
X135959661Y-64003744D01*
X135900582Y-63944562D01*
X135958987Y-63886259D01*
X136062882Y-63636054D01*
X136063118Y-63365135D01*
X135959661Y-63114748D01*
X135768259Y-62923013D01*
X135518054Y-62819118D01*
X135247135Y-62818882D01*
X134996748Y-62922339D01*
X134805013Y-63113741D01*
X134701118Y-63363946D01*
X134700882Y-63634865D01*
X129235465Y-63634865D01*
X131005699Y-61864631D01*
X131185741Y-62044987D01*
X131435946Y-62148882D01*
X131706865Y-62149118D01*
X131799445Y-62110865D01*
X134700882Y-62110865D01*
X134804339Y-62361252D01*
X134995741Y-62552987D01*
X135245946Y-62656882D01*
X135516865Y-62657118D01*
X135767252Y-62553661D01*
X135958987Y-62362259D01*
X136062882Y-62112054D01*
X136063118Y-61841135D01*
X136013052Y-61719963D01*
X151895891Y-61719963D01*
X151991752Y-61951966D01*
X152169101Y-62129624D01*
X152400936Y-62225890D01*
X152651963Y-62226109D01*
X152883966Y-62130248D01*
X152988102Y-62026293D01*
X153162936Y-62098890D01*
X153413963Y-62099109D01*
X153645966Y-62003248D01*
X153823624Y-61825899D01*
X153867612Y-61719963D01*
X164468891Y-61719963D01*
X164564752Y-61951966D01*
X164742101Y-62129624D01*
X164973936Y-62225890D01*
X165224963Y-62226109D01*
X165456966Y-62130248D01*
X165634624Y-61952899D01*
X165656313Y-61900665D01*
X165758101Y-62002630D01*
X165989936Y-62098896D01*
X166240963Y-62099115D01*
X166472966Y-62003254D01*
X166650624Y-61825905D01*
X166746890Y-61594070D01*
X166747109Y-61343043D01*
X166651248Y-61111040D01*
X166473899Y-60933382D01*
X166242064Y-60837116D01*
X165991037Y-60836897D01*
X165759034Y-60932758D01*
X165581376Y-61110107D01*
X165559687Y-61162341D01*
X165457899Y-61060376D01*
X165226064Y-60964110D01*
X164975037Y-60963891D01*
X164743034Y-61059752D01*
X164565376Y-61237101D01*
X164469110Y-61468936D01*
X164468891Y-61719963D01*
X153867612Y-61719963D01*
X153919890Y-61594064D01*
X153920109Y-61343037D01*
X153824248Y-61111034D01*
X153646899Y-60933376D01*
X153415064Y-60837110D01*
X153164037Y-60836891D01*
X152932034Y-60932752D01*
X152827898Y-61036707D01*
X152653064Y-60964110D01*
X152402037Y-60963891D01*
X152170034Y-61059752D01*
X151992376Y-61237101D01*
X151896110Y-61468936D01*
X151895891Y-61719963D01*
X136013052Y-61719963D01*
X135959661Y-61590748D01*
X135768259Y-61399013D01*
X135518054Y-61295118D01*
X135247135Y-61294882D01*
X134996748Y-61398339D01*
X134805013Y-61589741D01*
X134701118Y-61839946D01*
X134700882Y-62110865D01*
X131799445Y-62110865D01*
X131957252Y-62045661D01*
X132148987Y-61854259D01*
X132252882Y-61604054D01*
X132253118Y-61333135D01*
X132149661Y-61082748D01*
X131968779Y-60901551D01*
X133437250Y-59433080D01*
X133541864Y-59276513D01*
X133565865Y-59155853D01*
X133789276Y-59006575D01*
X134001808Y-58688497D01*
X134076440Y-58313299D01*
X134076440Y-57764701D01*
X134117080Y-57764701D01*
X134117080Y-58313299D01*
X134191712Y-58688497D01*
X134404244Y-59006575D01*
X134722322Y-59219107D01*
X135097520Y-59293739D01*
X135472718Y-59219107D01*
X135790796Y-59006575D01*
X136003328Y-58688497D01*
X136077960Y-58313299D01*
X136077960Y-57764701D01*
X136003328Y-57389503D01*
X135790796Y-57071425D01*
X135472718Y-56858893D01*
X135097520Y-56784261D01*
X134722322Y-56858893D01*
X134404244Y-57071425D01*
X134191712Y-57389503D01*
X134117080Y-57764701D01*
X134076440Y-57764701D01*
X134001808Y-57389503D01*
X133789276Y-57071425D01*
X133471198Y-56858893D01*
X133096000Y-56784261D01*
X132720802Y-56858893D01*
X132402724Y-57071425D01*
X132190192Y-57389503D01*
X132115560Y-57764701D01*
X132115560Y-58313299D01*
X132190192Y-58688497D01*
X132402724Y-59006575D01*
X132460290Y-59045040D01*
X131544428Y-59960902D01*
X131579620Y-59783980D01*
X131579620Y-59147344D01*
X131790296Y-59006575D01*
X132002828Y-58688497D01*
X132077460Y-58313299D01*
X132077460Y-57764701D01*
X132002828Y-57389503D01*
X131790296Y-57071425D01*
X131472218Y-56858893D01*
X131097020Y-56784261D01*
X130721822Y-56858893D01*
X130403744Y-57071425D01*
X130191212Y-57389503D01*
X130116580Y-57764701D01*
X130116580Y-58313299D01*
X130191212Y-58688497D01*
X130403744Y-59006575D01*
X130614420Y-59147344D01*
X130614420Y-59584081D01*
X129578100Y-60620401D01*
X129578100Y-59147344D01*
X129788776Y-59006575D01*
X130001308Y-58688497D01*
X130075940Y-58313299D01*
X130075940Y-57764701D01*
X130001308Y-57389503D01*
X129788776Y-57071425D01*
X129470698Y-56858893D01*
X129095500Y-56784261D01*
X128720302Y-56858893D01*
X128402224Y-57071425D01*
X128189692Y-57389503D01*
X128115060Y-57764701D01*
X128115060Y-58313299D01*
X128189692Y-58688497D01*
X128402224Y-59006575D01*
X128612900Y-59147344D01*
X128612900Y-59958800D01*
X128529259Y-59875013D01*
X128279054Y-59771118D01*
X128008135Y-59770882D01*
X127757748Y-59874339D01*
X127566013Y-60065741D01*
X127462118Y-60315946D01*
X127461882Y-60586865D01*
X127565339Y-60837252D01*
X127756741Y-61028987D01*
X128006946Y-61132882D01*
X128277865Y-61133118D01*
X128321349Y-61115151D01*
X127435100Y-62001400D01*
X123262326Y-62001400D01*
X123077643Y-62038136D01*
X122921076Y-62142750D01*
X122921074Y-62142753D01*
X119673750Y-65390076D01*
X119569136Y-65546643D01*
X119532400Y-65731326D01*
X119532400Y-85609604D01*
X119479985Y-85557098D01*
X119257121Y-85464556D01*
X119258039Y-85459940D01*
X119183407Y-85084742D01*
X118970875Y-84766664D01*
X118652797Y-84554132D01*
X118277599Y-84479500D01*
X117729001Y-84479500D01*
X117353803Y-84554132D01*
X117035725Y-84766664D01*
X116823193Y-85084742D01*
X116748561Y-85459940D01*
X116823193Y-85835138D01*
X117035725Y-86153216D01*
X117353803Y-86365748D01*
X117729001Y-86440380D01*
X118277599Y-86440380D01*
X118467808Y-86402545D01*
X118516065Y-86519337D01*
X118530585Y-86533882D01*
X118277599Y-86483560D01*
X117729001Y-86483560D01*
X117353803Y-86558192D01*
X117035725Y-86770724D01*
X116823193Y-87088802D01*
X116748561Y-87464000D01*
X116823193Y-87839198D01*
X117035725Y-88157276D01*
X117353803Y-88369808D01*
X117729001Y-88444440D01*
X118277599Y-88444440D01*
X118652797Y-88369808D01*
X118970875Y-88157276D01*
X119183407Y-87839198D01*
X119258039Y-87464000D01*
X119183407Y-87088802D01*
X119000462Y-86815004D01*
X119228591Y-86815203D01*
X119478978Y-86711746D01*
X119532400Y-86658417D01*
X119532400Y-99949000D01*
X119569136Y-100133683D01*
X119673750Y-100290250D01*
X121832768Y-102449267D01*
X121832770Y-102449270D01*
X121951705Y-102528739D01*
X121989337Y-102553884D01*
X122174020Y-102590620D01*
X125199880Y-102590620D01*
X123840648Y-103949852D01*
X123703259Y-103812223D01*
X123453054Y-103708328D01*
X123182135Y-103708092D01*
X122931748Y-103811549D01*
X122740013Y-104002951D01*
X122636118Y-104253156D01*
X122635882Y-104524075D01*
X122739339Y-104774462D01*
X122930741Y-104966197D01*
X123180946Y-105070092D01*
X123451865Y-105070328D01*
X123677397Y-104977141D01*
X123677397Y-105110001D01*
X123714133Y-105294684D01*
X123779011Y-105391782D01*
X123778878Y-105544865D01*
X123882335Y-105795252D01*
X124073737Y-105986987D01*
X124323942Y-106090882D01*
X124594861Y-106091118D01*
X124845248Y-105987661D01*
X125036983Y-105796259D01*
X125140878Y-105546054D01*
X125140882Y-105541119D01*
X125144861Y-105541122D01*
X125395248Y-105437665D01*
X125586983Y-105246263D01*
X125658124Y-105074938D01*
X125748266Y-105075016D01*
X125845316Y-105139863D01*
X126029999Y-105176600D01*
X126030004Y-105176599D01*
X131161050Y-105176599D01*
X131059748Y-105218456D01*
X130868013Y-105409858D01*
X130764118Y-105660063D01*
X130763882Y-105930982D01*
X130811682Y-106046667D01*
X130697171Y-105999118D01*
X130426252Y-105998882D01*
X130175865Y-106102339D01*
X129984130Y-106293741D01*
X129880235Y-106543946D01*
X129879999Y-106814865D01*
X129983456Y-107065252D01*
X130174858Y-107256987D01*
X130425063Y-107360882D01*
X130695982Y-107361118D01*
X130811667Y-107313318D01*
X130764118Y-107427829D01*
X130763882Y-107698748D01*
X130867339Y-107949135D01*
X131058741Y-108140870D01*
X131308946Y-108244765D01*
X131579865Y-108245001D01*
X131830252Y-108141544D01*
X131887029Y-108084865D01*
X135081882Y-108084865D01*
X135185339Y-108335252D01*
X135376741Y-108526987D01*
X135626946Y-108630882D01*
X135897865Y-108631118D01*
X136148252Y-108527661D01*
X136339987Y-108336259D01*
X136443882Y-108086054D01*
X136444118Y-107815135D01*
X136340661Y-107564748D01*
X136149259Y-107373013D01*
X135899054Y-107269118D01*
X135628135Y-107268882D01*
X135377748Y-107372339D01*
X135186013Y-107563741D01*
X135082118Y-107813946D01*
X135081882Y-108084865D01*
X131887029Y-108084865D01*
X132021987Y-107950142D01*
X132125882Y-107699937D01*
X132126118Y-107429018D01*
X132078318Y-107313333D01*
X132192829Y-107360882D01*
X132463748Y-107361118D01*
X132714135Y-107257661D01*
X132905870Y-107066259D01*
X133009765Y-106816054D01*
X133010001Y-106545135D01*
X132906544Y-106294748D01*
X132715142Y-106103013D01*
X132464937Y-105999118D01*
X132194018Y-105998882D01*
X132078333Y-106046682D01*
X132125882Y-105932171D01*
X132126118Y-105661252D01*
X132022661Y-105410865D01*
X131831259Y-105219130D01*
X131728834Y-105176599D01*
X133344833Y-105176599D01*
X133529516Y-105139863D01*
X133638749Y-105066876D01*
X137259699Y-105066876D01*
X137363156Y-105317263D01*
X137554558Y-105508998D01*
X137804763Y-105612893D01*
X138075682Y-105613129D01*
X138326069Y-105509672D01*
X138517804Y-105318270D01*
X138621699Y-105068065D01*
X138621935Y-104797146D01*
X138518478Y-104546759D01*
X138327076Y-104355024D01*
X138076871Y-104251129D01*
X137805952Y-104250893D01*
X137555565Y-104354350D01*
X137363830Y-104545752D01*
X137259935Y-104795957D01*
X137259699Y-105066876D01*
X133638749Y-105066876D01*
X133686083Y-105035249D01*
X135259265Y-103462066D01*
X135743213Y-103462066D01*
X135846670Y-103712453D01*
X136038072Y-103904188D01*
X136288277Y-104008083D01*
X136559196Y-104008319D01*
X136809583Y-103904862D01*
X137001318Y-103713460D01*
X137105213Y-103463255D01*
X137105449Y-103192336D01*
X137001992Y-102941949D01*
X136810590Y-102750214D01*
X136560385Y-102646319D01*
X136289466Y-102646083D01*
X136039079Y-102749540D01*
X135847344Y-102940942D01*
X135743449Y-103191147D01*
X135743213Y-103462066D01*
X135259265Y-103462066D01*
X137245648Y-101475683D01*
X137409325Y-101639645D01*
X137659530Y-101743540D01*
X137930449Y-101743776D01*
X138180836Y-101640319D01*
X138372571Y-101448917D01*
X138476466Y-101198712D01*
X138476702Y-100927793D01*
X138373245Y-100677406D01*
X138181843Y-100485671D01*
X138023622Y-100419971D01*
X138023622Y-98912472D01*
X138190802Y-98981892D01*
X138211519Y-98981910D01*
X138130118Y-99177944D01*
X138129882Y-99448863D01*
X138233339Y-99699250D01*
X138424741Y-99890985D01*
X138674946Y-99994880D01*
X138945865Y-99995116D01*
X139196252Y-99891659D01*
X139387987Y-99700257D01*
X139491882Y-99450052D01*
X139492118Y-99179133D01*
X139388661Y-98928746D01*
X139197259Y-98737011D01*
X138947054Y-98633116D01*
X138926337Y-98633098D01*
X139007738Y-98437064D01*
X139007974Y-98166145D01*
X138904517Y-97915758D01*
X138776055Y-97787072D01*
X138870479Y-97692812D01*
X138974374Y-97442607D01*
X138974610Y-97171688D01*
X138871153Y-96921301D01*
X138679751Y-96729566D01*
X138591765Y-96693031D01*
X138691865Y-96693118D01*
X138942252Y-96589661D01*
X139133987Y-96398259D01*
X139237882Y-96148054D01*
X139238118Y-95877135D01*
X139134777Y-95627028D01*
X139149095Y-95612735D01*
X139252990Y-95362530D01*
X139253226Y-95091611D01*
X139149769Y-94841224D01*
X139136491Y-94827923D01*
X139237414Y-94584874D01*
X139237650Y-94313955D01*
X139134193Y-94063568D01*
X138967936Y-93897022D01*
X139133987Y-93731259D01*
X139237882Y-93481054D01*
X139238118Y-93210135D01*
X139137232Y-92965971D01*
X139158689Y-92944551D01*
X139262584Y-92694346D01*
X139262820Y-92423427D01*
X139159363Y-92173040D01*
X139092402Y-92105963D01*
X139133989Y-92064448D01*
X139237884Y-91814243D01*
X139238120Y-91543324D01*
X139187958Y-91421921D01*
X139229615Y-91439219D01*
X139500534Y-91439455D01*
X139544000Y-91421495D01*
X139544000Y-110046334D01*
X139515661Y-109977748D01*
X139324259Y-109786013D01*
X139189792Y-109730177D01*
X139134661Y-109596748D01*
X138943259Y-109405013D01*
X138693054Y-109301118D01*
X138422135Y-109300882D01*
X138171748Y-109404339D01*
X138025116Y-109550716D01*
X137991661Y-109469748D01*
X137800259Y-109278013D01*
X137550054Y-109174118D01*
X137279135Y-109173882D01*
X137028748Y-109277339D01*
X136837013Y-109468741D01*
X136733118Y-109718946D01*
X136732882Y-109989865D01*
X136836339Y-110240252D01*
X137027741Y-110431987D01*
X137277946Y-110535882D01*
X137548865Y-110536118D01*
X137799252Y-110432661D01*
X137945884Y-110286284D01*
X137979339Y-110367252D01*
X138170741Y-110558987D01*
X138305208Y-110614823D01*
X138360339Y-110748252D01*
X138551741Y-110939987D01*
X138686208Y-110995823D01*
X138741339Y-111129252D01*
X138932741Y-111320987D01*
X139182946Y-111424882D01*
X139453865Y-111425118D01*
X139544000Y-111387875D01*
X139544000Y-114544000D01*
X138378323Y-114544000D01*
X138475882Y-114309054D01*
X138476118Y-114038135D01*
X138372661Y-113787748D01*
X138296041Y-113710994D01*
X138437865Y-113711118D01*
X138688252Y-113607661D01*
X138879987Y-113416259D01*
X138983882Y-113166054D01*
X138984118Y-112895135D01*
X138880661Y-112644748D01*
X138689259Y-112453013D01*
X138439054Y-112349118D01*
X138168135Y-112348882D01*
X137917748Y-112452339D01*
X137726013Y-112643741D01*
X137622118Y-112893946D01*
X137621882Y-113164865D01*
X137725339Y-113415252D01*
X137801959Y-113492006D01*
X137660135Y-113491882D01*
X137409748Y-113595339D01*
X137218013Y-113786741D01*
X137114118Y-114036946D01*
X137113882Y-114307865D01*
X137211450Y-114544000D01*
X136697899Y-114544000D01*
X136698118Y-114292135D01*
X136594661Y-114041748D01*
X136403259Y-113850013D01*
X136178833Y-113756822D01*
X136086661Y-113533748D01*
X135895259Y-113342013D01*
X135809092Y-113306233D01*
X135809118Y-113276135D01*
X135705661Y-113025748D01*
X135514259Y-112834013D01*
X135264054Y-112730118D01*
X134993135Y-112729882D01*
X134742748Y-112833339D01*
X134551013Y-113024741D01*
X134447118Y-113274946D01*
X134446882Y-113545865D01*
X134550339Y-113796252D01*
X134741741Y-113987987D01*
X134827908Y-114023767D01*
X134827882Y-114053865D01*
X134931339Y-114304252D01*
X135122741Y-114495987D01*
X135238368Y-114544000D01*
X133351059Y-114544000D01*
X133395882Y-114436054D01*
X133396118Y-114165135D01*
X133292661Y-113914748D01*
X133101259Y-113723013D01*
X132851054Y-113619118D01*
X132580135Y-113618882D01*
X132329748Y-113722339D01*
X132138013Y-113913741D01*
X132034118Y-114163946D01*
X132033882Y-114434865D01*
X132078975Y-114544000D01*
X126723741Y-114544000D01*
X126848278Y-114519228D01*
X127150316Y-114317412D01*
X127352132Y-114015374D01*
X127423000Y-113659096D01*
X127423000Y-112908904D01*
X127352132Y-112552626D01*
X127336924Y-112529865D01*
X130509882Y-112529865D01*
X130613339Y-112780252D01*
X130804741Y-112971987D01*
X131054946Y-113075882D01*
X131325865Y-113076118D01*
X131576252Y-112972661D01*
X131767987Y-112781259D01*
X131871882Y-112531054D01*
X131872118Y-112260135D01*
X131768661Y-112009748D01*
X131577259Y-111818013D01*
X131327054Y-111714118D01*
X131056135Y-111713882D01*
X130805748Y-111817339D01*
X130614013Y-112008741D01*
X130510118Y-112258946D01*
X130509882Y-112529865D01*
X127336924Y-112529865D01*
X127150316Y-112250588D01*
X126848278Y-112048772D01*
X126492000Y-111977904D01*
X126135722Y-112048772D01*
X125833684Y-112250588D01*
X125631868Y-112552626D01*
X125561000Y-112908904D01*
X125561000Y-113659096D01*
X125631868Y-114015374D01*
X125833684Y-114317412D01*
X126135722Y-114519228D01*
X126260259Y-114544000D01*
X117044911Y-114544000D01*
X116412555Y-114418216D01*
X115914544Y-114085456D01*
X115581784Y-113587445D01*
X115456000Y-112955088D01*
X115456000Y-110088701D01*
X116273580Y-110088701D01*
X116273580Y-110637299D01*
X116348212Y-111012497D01*
X116560744Y-111330575D01*
X116878822Y-111543107D01*
X117254020Y-111617739D01*
X117629218Y-111543107D01*
X117947296Y-111330575D01*
X118159828Y-111012497D01*
X118234460Y-110637299D01*
X118234460Y-110088701D01*
X118272560Y-110088701D01*
X118272560Y-110637299D01*
X118347192Y-111012497D01*
X118559724Y-111330575D01*
X118877802Y-111543107D01*
X119253000Y-111617739D01*
X119628198Y-111543107D01*
X119946276Y-111330575D01*
X120158808Y-111012497D01*
X120233440Y-110637299D01*
X120233440Y-110088701D01*
X120274080Y-110088701D01*
X120274080Y-110637299D01*
X120348712Y-111012497D01*
X120561244Y-111330575D01*
X120879322Y-111543107D01*
X121254520Y-111617739D01*
X121629718Y-111543107D01*
X121947796Y-111330575D01*
X122160328Y-111012497D01*
X122234960Y-110637299D01*
X122234960Y-110088701D01*
X122160328Y-109713503D01*
X122026604Y-109513370D01*
X122268136Y-109513370D01*
X122268136Y-111212630D01*
X122294703Y-111353820D01*
X122378146Y-111483495D01*
X122505466Y-111570489D01*
X122656600Y-111601094D01*
X123855480Y-111601094D01*
X123996670Y-111574527D01*
X124126345Y-111491084D01*
X124213339Y-111363764D01*
X124243944Y-111212630D01*
X124243944Y-109904985D01*
X127711000Y-109904985D01*
X127711000Y-111063015D01*
X127781868Y-111419293D01*
X127983684Y-111721331D01*
X128285722Y-111923147D01*
X128642000Y-111994015D01*
X128998278Y-111923147D01*
X129300316Y-111721331D01*
X129315942Y-111697945D01*
X129343339Y-111764252D01*
X129534741Y-111955987D01*
X129784946Y-112059882D01*
X130055865Y-112060118D01*
X130306252Y-111956661D01*
X130497987Y-111765259D01*
X130601882Y-111515054D01*
X130602118Y-111244135D01*
X130498661Y-110993748D01*
X130307259Y-110802013D01*
X130057054Y-110698118D01*
X129786135Y-110697882D01*
X129573000Y-110785947D01*
X129573000Y-110181341D01*
X129597339Y-110240246D01*
X129788741Y-110431981D01*
X130038946Y-110535876D01*
X130309865Y-110536112D01*
X130560252Y-110432655D01*
X130751987Y-110241253D01*
X130855882Y-109991048D01*
X130856118Y-109720129D01*
X130752661Y-109469742D01*
X130573444Y-109290213D01*
X130601011Y-109223825D01*
X130601247Y-108952906D01*
X130497790Y-108702519D01*
X130306388Y-108510784D01*
X130056183Y-108406889D01*
X129785264Y-108406653D01*
X129534877Y-108510110D01*
X129343142Y-108701512D01*
X129239247Y-108951717D01*
X129239026Y-109205716D01*
X128998278Y-109044853D01*
X128642000Y-108973985D01*
X128285722Y-109044853D01*
X127983684Y-109246669D01*
X127781868Y-109548707D01*
X127711000Y-109904985D01*
X124243944Y-109904985D01*
X124243944Y-109513370D01*
X124217377Y-109372180D01*
X124133934Y-109242505D01*
X124006614Y-109155511D01*
X123855480Y-109124906D01*
X122656600Y-109124906D01*
X122515410Y-109151473D01*
X122385735Y-109234916D01*
X122298741Y-109362236D01*
X122268136Y-109513370D01*
X122026604Y-109513370D01*
X121947796Y-109395425D01*
X121629718Y-109182893D01*
X121254520Y-109108261D01*
X120879322Y-109182893D01*
X120561244Y-109395425D01*
X120348712Y-109713503D01*
X120274080Y-110088701D01*
X120233440Y-110088701D01*
X120158808Y-109713503D01*
X119946276Y-109395425D01*
X119628198Y-109182893D01*
X119253000Y-109108261D01*
X118877802Y-109182893D01*
X118559724Y-109395425D01*
X118347192Y-109713503D01*
X118272560Y-110088701D01*
X118234460Y-110088701D01*
X118159828Y-109713503D01*
X117947296Y-109395425D01*
X117629218Y-109182893D01*
X117254020Y-109108261D01*
X116878822Y-109182893D01*
X116560744Y-109395425D01*
X116348212Y-109713503D01*
X116273580Y-110088701D01*
X115456000Y-110088701D01*
X115456000Y-108338865D01*
X118063882Y-108338865D01*
X118167339Y-108589252D01*
X118358741Y-108780987D01*
X118608946Y-108884882D01*
X118879865Y-108885118D01*
X119130252Y-108781661D01*
X119321987Y-108590259D01*
X119425882Y-108340054D01*
X119426118Y-108069135D01*
X119322661Y-107818748D01*
X119131259Y-107627013D01*
X118881054Y-107523118D01*
X118610135Y-107522882D01*
X118359748Y-107626339D01*
X118168013Y-107817741D01*
X118064118Y-108067946D01*
X118063882Y-108338865D01*
X115456000Y-108338865D01*
X115456000Y-107308904D01*
X125561000Y-107308904D01*
X125561000Y-108059096D01*
X125631868Y-108415374D01*
X125833684Y-108717412D01*
X126135722Y-108919228D01*
X126492000Y-108990096D01*
X126848278Y-108919228D01*
X127150316Y-108717412D01*
X127352132Y-108415374D01*
X127423000Y-108059096D01*
X127423000Y-107308904D01*
X127352132Y-106952626D01*
X127150316Y-106650588D01*
X126848278Y-106448772D01*
X126492000Y-106377904D01*
X126135722Y-106448772D01*
X125833684Y-106650588D01*
X125631868Y-106952626D01*
X125561000Y-107308904D01*
X115456000Y-107308904D01*
X115456000Y-105384600D01*
X116744906Y-105384600D01*
X116744906Y-106583480D01*
X116771473Y-106724670D01*
X116854916Y-106854345D01*
X116982236Y-106941339D01*
X117133370Y-106971944D01*
X118832630Y-106971944D01*
X118973820Y-106945377D01*
X119103495Y-106861934D01*
X119190489Y-106734614D01*
X119221094Y-106583480D01*
X119221094Y-105384600D01*
X119194527Y-105243410D01*
X119111084Y-105113735D01*
X118983764Y-105026741D01*
X118832630Y-104996136D01*
X117133370Y-104996136D01*
X116992180Y-105022703D01*
X116862505Y-105106146D01*
X116775511Y-105233466D01*
X116744906Y-105384600D01*
X115456000Y-105384600D01*
X115456000Y-103982520D01*
X116728261Y-103982520D01*
X116802893Y-104357718D01*
X117015425Y-104675796D01*
X117333503Y-104888328D01*
X117708701Y-104962960D01*
X118257299Y-104962960D01*
X118632497Y-104888328D01*
X118950575Y-104675796D01*
X119163107Y-104357718D01*
X119237739Y-103982520D01*
X119163107Y-103607322D01*
X118950575Y-103289244D01*
X118632497Y-103076712D01*
X118257299Y-103002080D01*
X117708701Y-103002080D01*
X117333503Y-103076712D01*
X117015425Y-103289244D01*
X116802893Y-103607322D01*
X116728261Y-103982520D01*
X115456000Y-103982520D01*
X115456000Y-101981000D01*
X116728261Y-101981000D01*
X116802893Y-102356198D01*
X117015425Y-102674276D01*
X117333503Y-102886808D01*
X117708701Y-102961440D01*
X118257299Y-102961440D01*
X118632497Y-102886808D01*
X118950575Y-102674276D01*
X119163107Y-102356198D01*
X119237739Y-101981000D01*
X119163107Y-101605802D01*
X118950575Y-101287724D01*
X118632497Y-101075192D01*
X118257299Y-101000560D01*
X117708701Y-101000560D01*
X117333503Y-101075192D01*
X117015425Y-101287724D01*
X116802893Y-101605802D01*
X116728261Y-101981000D01*
X115456000Y-101981000D01*
X115456000Y-91782021D01*
X116560205Y-91782021D01*
X116575401Y-91873933D01*
X116821732Y-92293457D01*
X117083536Y-92491313D01*
X117012480Y-92504683D01*
X116882805Y-92588126D01*
X116795811Y-92715446D01*
X116765206Y-92866580D01*
X116765206Y-94065460D01*
X116791773Y-94206650D01*
X116875216Y-94336325D01*
X117002536Y-94423319D01*
X117153670Y-94453924D01*
X118852930Y-94453924D01*
X118994120Y-94427357D01*
X119123795Y-94343914D01*
X119210789Y-94216594D01*
X119241394Y-94065460D01*
X119241394Y-92866580D01*
X119214827Y-92725390D01*
X119131384Y-92595715D01*
X119004064Y-92508721D01*
X118922015Y-92492106D01*
X119184868Y-92293457D01*
X119431199Y-91873933D01*
X119446395Y-91782021D01*
X119321657Y-91591500D01*
X118130300Y-91591500D01*
X118130300Y-91611500D01*
X117876300Y-91611500D01*
X117876300Y-91591500D01*
X116684943Y-91591500D01*
X116560205Y-91782021D01*
X115456000Y-91782021D01*
X115456000Y-91146979D01*
X116560205Y-91146979D01*
X116684943Y-91337500D01*
X117876300Y-91337500D01*
X117876300Y-91317500D01*
X118130300Y-91317500D01*
X118130300Y-91337500D01*
X119321657Y-91337500D01*
X119446395Y-91146979D01*
X119431199Y-91055067D01*
X119184868Y-90635543D01*
X118796743Y-90342221D01*
X118721750Y-90322715D01*
X118970875Y-90156256D01*
X119183407Y-89838178D01*
X119258039Y-89462980D01*
X119183407Y-89087782D01*
X118970875Y-88769704D01*
X118652797Y-88557172D01*
X118277599Y-88482540D01*
X117729001Y-88482540D01*
X117353803Y-88557172D01*
X117035725Y-88769704D01*
X116823193Y-89087782D01*
X116748561Y-89462980D01*
X116823193Y-89838178D01*
X117035725Y-90156256D01*
X117284850Y-90322715D01*
X117209857Y-90342221D01*
X116821732Y-90635543D01*
X116575401Y-91055067D01*
X116560205Y-91146979D01*
X115456000Y-91146979D01*
X115456000Y-83458420D01*
X116748561Y-83458420D01*
X116823193Y-83833618D01*
X117035725Y-84151696D01*
X117353803Y-84364228D01*
X117729001Y-84438860D01*
X118277599Y-84438860D01*
X118652797Y-84364228D01*
X118970875Y-84151696D01*
X119183407Y-83833618D01*
X119258039Y-83458420D01*
X119183407Y-83083222D01*
X118970875Y-82765144D01*
X118652797Y-82552612D01*
X118277599Y-82477980D01*
X117729001Y-82477980D01*
X117353803Y-82552612D01*
X117035725Y-82765144D01*
X116823193Y-83083222D01*
X116748561Y-83458420D01*
X115456000Y-83458420D01*
X115456000Y-81459440D01*
X116748561Y-81459440D01*
X116823193Y-81834638D01*
X117035725Y-82152716D01*
X117353803Y-82365248D01*
X117729001Y-82439880D01*
X118277599Y-82439880D01*
X118652797Y-82365248D01*
X118970875Y-82152716D01*
X119183407Y-81834638D01*
X119258039Y-81459440D01*
X119183407Y-81084242D01*
X118970875Y-80766164D01*
X118652797Y-80553632D01*
X118277599Y-80479000D01*
X117729001Y-80479000D01*
X117353803Y-80553632D01*
X117035725Y-80766164D01*
X116823193Y-81084242D01*
X116748561Y-81459440D01*
X115456000Y-81459440D01*
X115456000Y-79460460D01*
X116748561Y-79460460D01*
X116823193Y-79835658D01*
X117035725Y-80153736D01*
X117353803Y-80366268D01*
X117729001Y-80440900D01*
X118277599Y-80440900D01*
X118652797Y-80366268D01*
X118970875Y-80153736D01*
X119183407Y-79835658D01*
X119258039Y-79460460D01*
X119183407Y-79085262D01*
X118970875Y-78767184D01*
X118652797Y-78554652D01*
X118277599Y-78480020D01*
X118063019Y-78480020D01*
X118178987Y-78364253D01*
X118282882Y-78114048D01*
X118283118Y-77843129D01*
X118179661Y-77592742D01*
X117988259Y-77401007D01*
X117738054Y-77297112D01*
X117467135Y-77296876D01*
X117216748Y-77400333D01*
X117025013Y-77591735D01*
X116921118Y-77841940D01*
X116920882Y-78112859D01*
X117024339Y-78363246D01*
X117215741Y-78554981D01*
X117300584Y-78590211D01*
X117035725Y-78767184D01*
X116823193Y-79085262D01*
X116748561Y-79460460D01*
X115456000Y-79460460D01*
X115456000Y-74330560D01*
X116744906Y-74330560D01*
X116744906Y-75529440D01*
X116771473Y-75670630D01*
X116854916Y-75800305D01*
X116982236Y-75887299D01*
X117133370Y-75917904D01*
X118832630Y-75917904D01*
X118973820Y-75891337D01*
X119103495Y-75807894D01*
X119190489Y-75680574D01*
X119221094Y-75529440D01*
X119221094Y-74330560D01*
X119194527Y-74189370D01*
X119111084Y-74059695D01*
X118983764Y-73972701D01*
X118832630Y-73942096D01*
X117133370Y-73942096D01*
X116992180Y-73968663D01*
X116862505Y-74052106D01*
X116775511Y-74179426D01*
X116744906Y-74330560D01*
X115456000Y-74330560D01*
X115456000Y-72928480D01*
X116728261Y-72928480D01*
X116802893Y-73303678D01*
X117015425Y-73621756D01*
X117333503Y-73834288D01*
X117708701Y-73908920D01*
X118257299Y-73908920D01*
X118632497Y-73834288D01*
X118950575Y-73621756D01*
X119163107Y-73303678D01*
X119237739Y-72928480D01*
X119163107Y-72553282D01*
X118950575Y-72235204D01*
X118632497Y-72022672D01*
X118257299Y-71948040D01*
X117708701Y-71948040D01*
X117333503Y-72022672D01*
X117015425Y-72235204D01*
X116802893Y-72553282D01*
X116728261Y-72928480D01*
X115456000Y-72928480D01*
X115456000Y-70926960D01*
X116728261Y-70926960D01*
X116802893Y-71302158D01*
X117015425Y-71620236D01*
X117333503Y-71832768D01*
X117708701Y-71907400D01*
X118257299Y-71907400D01*
X118632497Y-71832768D01*
X118950575Y-71620236D01*
X119163107Y-71302158D01*
X119237739Y-70926960D01*
X119163107Y-70551762D01*
X118950575Y-70233684D01*
X118632497Y-70021152D01*
X118257299Y-69946520D01*
X117708701Y-69946520D01*
X117333503Y-70021152D01*
X117015425Y-70233684D01*
X116802893Y-70551762D01*
X116728261Y-70926960D01*
X115456000Y-70926960D01*
X115456000Y-67243981D01*
X116539905Y-67243981D01*
X116555101Y-67335893D01*
X116801432Y-67755417D01*
X117189557Y-68048739D01*
X117264550Y-68068245D01*
X117015425Y-68234704D01*
X116802893Y-68552782D01*
X116728261Y-68927980D01*
X116802893Y-69303178D01*
X117015425Y-69621256D01*
X117333503Y-69833788D01*
X117708701Y-69908420D01*
X118257299Y-69908420D01*
X118632497Y-69833788D01*
X118950575Y-69621256D01*
X119163107Y-69303178D01*
X119237739Y-68927980D01*
X119163107Y-68552782D01*
X118950575Y-68234704D01*
X118701450Y-68068245D01*
X118776443Y-68048739D01*
X119164568Y-67755417D01*
X119410899Y-67335893D01*
X119426095Y-67243981D01*
X119301357Y-67053460D01*
X118110000Y-67053460D01*
X118110000Y-67073460D01*
X117856000Y-67073460D01*
X117856000Y-67053460D01*
X116664643Y-67053460D01*
X116539905Y-67243981D01*
X115456000Y-67243981D01*
X115456000Y-66608939D01*
X116539905Y-66608939D01*
X116664643Y-66799460D01*
X117856000Y-66799460D01*
X117856000Y-65844460D01*
X118110000Y-65844460D01*
X118110000Y-66799460D01*
X119301357Y-66799460D01*
X119426095Y-66608939D01*
X119410899Y-66517027D01*
X119164568Y-66097503D01*
X118776443Y-65804181D01*
X118305613Y-65681715D01*
X118110000Y-65844460D01*
X117856000Y-65844460D01*
X117660387Y-65681715D01*
X117189557Y-65804181D01*
X116801432Y-66097503D01*
X116555101Y-66517027D01*
X116539905Y-66608939D01*
X115456000Y-66608939D01*
X115456000Y-62491865D01*
X118317882Y-62491865D01*
X118421339Y-62742252D01*
X118612741Y-62933987D01*
X118837152Y-63027171D01*
X118929339Y-63250282D01*
X119120741Y-63442017D01*
X119370946Y-63545912D01*
X119641865Y-63546148D01*
X119892252Y-63442691D01*
X120083987Y-63251289D01*
X120187882Y-63001084D01*
X120188118Y-62730165D01*
X120084661Y-62479778D01*
X119893259Y-62288043D01*
X119668848Y-62194859D01*
X119576661Y-61971748D01*
X119385259Y-61780013D01*
X119135054Y-61676118D01*
X118864135Y-61675882D01*
X118613748Y-61779339D01*
X118422013Y-61970741D01*
X118318118Y-62220946D01*
X118317882Y-62491865D01*
X115456000Y-62491865D01*
X115456000Y-61094867D01*
X124667882Y-61094867D01*
X124771339Y-61345254D01*
X124962741Y-61536989D01*
X125212946Y-61640884D01*
X125483865Y-61641120D01*
X125730303Y-61539295D01*
X125974950Y-61640882D01*
X126245869Y-61641118D01*
X126428643Y-61565598D01*
X126609946Y-61640882D01*
X126880865Y-61641118D01*
X127131252Y-61537661D01*
X127322987Y-61346259D01*
X127426882Y-61096054D01*
X127427118Y-60825135D01*
X127323661Y-60574748D01*
X127132259Y-60383013D01*
X126882054Y-60279118D01*
X126611135Y-60278882D01*
X126428361Y-60354402D01*
X126247058Y-60279118D01*
X125976139Y-60278882D01*
X125729701Y-60380707D01*
X125485054Y-60279120D01*
X125214135Y-60278884D01*
X124963748Y-60382341D01*
X124772013Y-60573743D01*
X124668118Y-60823948D01*
X124667882Y-61094867D01*
X115456000Y-61094867D01*
X115456000Y-59651571D01*
X118064856Y-59651571D01*
X118191102Y-59957109D01*
X118424662Y-60191077D01*
X118729979Y-60317855D01*
X119060571Y-60318144D01*
X119366109Y-60191898D01*
X119600077Y-59958338D01*
X119726855Y-59653021D01*
X119726856Y-59651571D01*
X121064856Y-59651571D01*
X121191102Y-59957109D01*
X121424662Y-60191077D01*
X121729979Y-60317855D01*
X122060571Y-60318144D01*
X122366109Y-60191898D01*
X122600077Y-59958338D01*
X122726855Y-59653021D01*
X122727144Y-59322429D01*
X122600898Y-59016891D01*
X122367338Y-58782923D01*
X122352321Y-58776687D01*
X122432252Y-58743661D01*
X122527478Y-58648600D01*
X123571000Y-58648600D01*
X123755683Y-58611864D01*
X123912250Y-58507250D01*
X125230130Y-57189370D01*
X126106076Y-57189370D01*
X126106076Y-58888630D01*
X126132643Y-59029820D01*
X126216086Y-59159495D01*
X126343406Y-59246489D01*
X126494540Y-59277094D01*
X127693420Y-59277094D01*
X127834610Y-59250527D01*
X127964285Y-59167084D01*
X128051279Y-59039764D01*
X128081884Y-58888630D01*
X128081884Y-57189370D01*
X128055317Y-57048180D01*
X127971874Y-56918505D01*
X127844554Y-56831511D01*
X127693420Y-56800906D01*
X126494540Y-56800906D01*
X126353350Y-56827473D01*
X126223675Y-56910916D01*
X126136681Y-57038236D01*
X126106076Y-57189370D01*
X125230130Y-57189370D01*
X125802900Y-56616600D01*
X136046970Y-56616600D01*
X136463331Y-57032960D01*
X136405764Y-57071425D01*
X136193232Y-57389503D01*
X136118600Y-57764701D01*
X136118600Y-58313299D01*
X136193232Y-58688497D01*
X136405764Y-59006575D01*
X136723842Y-59219107D01*
X137099040Y-59293739D01*
X137474238Y-59219107D01*
X137792316Y-59006575D01*
X138004848Y-58688497D01*
X138031429Y-58554865D01*
X140034882Y-58554865D01*
X140138339Y-58805252D01*
X140329741Y-58996987D01*
X140579946Y-59100882D01*
X140850865Y-59101118D01*
X141101252Y-58997661D01*
X141292987Y-58806259D01*
X141396882Y-58556054D01*
X141397118Y-58285135D01*
X141293661Y-58034748D01*
X141102259Y-57843013D01*
X140852054Y-57739118D01*
X140581135Y-57738882D01*
X140330748Y-57842339D01*
X140139013Y-58033741D01*
X140035118Y-58283946D01*
X140034882Y-58554865D01*
X138031429Y-58554865D01*
X138079480Y-58313299D01*
X138079480Y-57764701D01*
X138004848Y-57389503D01*
X137792316Y-57071425D01*
X137568905Y-56922147D01*
X137544904Y-56801487D01*
X137440290Y-56644920D01*
X137440287Y-56644918D01*
X136588120Y-55792750D01*
X136431553Y-55688136D01*
X136246870Y-55651400D01*
X125603000Y-55651400D01*
X125418317Y-55688136D01*
X125261750Y-55792750D01*
X123371100Y-57683400D01*
X122527482Y-57683400D01*
X122433259Y-57589013D01*
X122183054Y-57485118D01*
X121912135Y-57484882D01*
X121661748Y-57588339D01*
X121470013Y-57779741D01*
X121366118Y-58029946D01*
X121365882Y-58300865D01*
X121469339Y-58551252D01*
X121619804Y-58701979D01*
X121425891Y-58782102D01*
X121191923Y-59015662D01*
X121065145Y-59320979D01*
X121064856Y-59651571D01*
X119726856Y-59651571D01*
X119727144Y-59322429D01*
X119600898Y-59016891D01*
X119367338Y-58782923D01*
X119062021Y-58656145D01*
X118731429Y-58655856D01*
X118425891Y-58782102D01*
X118191923Y-59015662D01*
X118065145Y-59320979D01*
X118064856Y-59651571D01*
X115456000Y-59651571D01*
X115456000Y-57044912D01*
X115581784Y-56412555D01*
X115914544Y-55914544D01*
X116412555Y-55581784D01*
X117044911Y-55456000D01*
X142716820Y-55456000D01*
X142679013Y-55493741D01*
X142679013Y-55493741D01*
G37*
X142679013Y-55493741D02*
X142575118Y-55743946D01*
X142574882Y-56014865D01*
X142650403Y-56197641D01*
X142575118Y-56378946D01*
X142574882Y-56649865D01*
X142650403Y-56832641D01*
X142575118Y-57013946D01*
X142574882Y-57284865D01*
X142650403Y-57467641D01*
X142575118Y-57648946D01*
X142574882Y-57919865D01*
X142650403Y-58102641D01*
X142575118Y-58283946D01*
X142574882Y-58554865D01*
X142650403Y-58737641D01*
X142575118Y-58918946D01*
X142574882Y-59189865D01*
X142678339Y-59440252D01*
X142869741Y-59631987D01*
X143119946Y-59735882D01*
X143390865Y-59736118D01*
X143573641Y-59660597D01*
X143754946Y-59735882D01*
X144025865Y-59736118D01*
X144208641Y-59660597D01*
X144389946Y-59735882D01*
X144660865Y-59736118D01*
X144843641Y-59660597D01*
X145024946Y-59735882D01*
X145295865Y-59736118D01*
X145478641Y-59660597D01*
X145659946Y-59735882D01*
X145930865Y-59736118D01*
X146113641Y-59660597D01*
X146294946Y-59735882D01*
X146565865Y-59736118D01*
X146748641Y-59660597D01*
X146929946Y-59735882D01*
X147200865Y-59736118D01*
X147451252Y-59632661D01*
X147642987Y-59441259D01*
X147746882Y-59191054D01*
X147747118Y-58920135D01*
X147671597Y-58737359D01*
X147746882Y-58556054D01*
X147747007Y-58411513D01*
X149375674Y-58411513D01*
X149661436Y-59103109D01*
X150190108Y-59632704D01*
X150881204Y-59919673D01*
X151629513Y-59920326D01*
X152321109Y-59634564D01*
X152850704Y-59105892D01*
X153137673Y-58414796D01*
X153138326Y-57666487D01*
X152852564Y-56974891D01*
X152323892Y-56445296D01*
X151632796Y-56158327D01*
X150884487Y-56157674D01*
X150192891Y-56443436D01*
X149663296Y-56972108D01*
X149376327Y-57663204D01*
X149375674Y-58411513D01*
X147747007Y-58411513D01*
X147747118Y-58285135D01*
X147671597Y-58102359D01*
X147746882Y-57921054D01*
X147747118Y-57650135D01*
X147671597Y-57467359D01*
X147746882Y-57286054D01*
X147747118Y-57015135D01*
X147671597Y-56832359D01*
X147746882Y-56651054D01*
X147747118Y-56380135D01*
X147671597Y-56197359D01*
X147746882Y-56016054D01*
X147747118Y-55745135D01*
X147643661Y-55494748D01*
X147604980Y-55456000D01*
X154908820Y-55456000D01*
X154871013Y-55493741D01*
X154767118Y-55743946D01*
X154766882Y-56014865D01*
X154842403Y-56197641D01*
X154767118Y-56378946D01*
X154766882Y-56649865D01*
X154842403Y-56832641D01*
X154767118Y-57013946D01*
X154766882Y-57284865D01*
X154842403Y-57467641D01*
X154767118Y-57648946D01*
X154766882Y-57919865D01*
X154842403Y-58102641D01*
X154767118Y-58283946D01*
X154766882Y-58554865D01*
X154842403Y-58737641D01*
X154767118Y-58918946D01*
X154766882Y-59189865D01*
X154870339Y-59440252D01*
X155061741Y-59631987D01*
X155311946Y-59735882D01*
X155582865Y-59736118D01*
X155765641Y-59660597D01*
X155946946Y-59735882D01*
X156217865Y-59736118D01*
X156400641Y-59660597D01*
X156581946Y-59735882D01*
X156852865Y-59736118D01*
X157035641Y-59660597D01*
X157216946Y-59735882D01*
X157487865Y-59736118D01*
X157670641Y-59660597D01*
X157851946Y-59735882D01*
X158122865Y-59736118D01*
X158305641Y-59660597D01*
X158486946Y-59735882D01*
X158757865Y-59736118D01*
X158940641Y-59660597D01*
X159121946Y-59735882D01*
X159392865Y-59736118D01*
X159643252Y-59632661D01*
X159834987Y-59441259D01*
X159938882Y-59191054D01*
X159939118Y-58920135D01*
X159863597Y-58737359D01*
X159938882Y-58556054D01*
X159939007Y-58411513D01*
X161948674Y-58411513D01*
X162234436Y-59103109D01*
X162763108Y-59632704D01*
X163454204Y-59919673D01*
X164202513Y-59920326D01*
X164894109Y-59634564D01*
X165423704Y-59105892D01*
X165710673Y-58414796D01*
X165711326Y-57666487D01*
X165425564Y-56974891D01*
X164896892Y-56445296D01*
X164205796Y-56158327D01*
X163457487Y-56157674D01*
X162765891Y-56443436D01*
X162236296Y-56972108D01*
X161949327Y-57663204D01*
X161948674Y-58411513D01*
X159939007Y-58411513D01*
X159939118Y-58285135D01*
X159863597Y-58102359D01*
X159938882Y-57921054D01*
X159939118Y-57650135D01*
X159863597Y-57467359D01*
X159938882Y-57286054D01*
X159939118Y-57015135D01*
X159863597Y-56832359D01*
X159938882Y-56651054D01*
X159939118Y-56380135D01*
X159863597Y-56197359D01*
X159938882Y-56016054D01*
X159939118Y-55745135D01*
X159835661Y-55494748D01*
X159796980Y-55456000D01*
X167735820Y-55456000D01*
X167698013Y-55493741D01*
X167594118Y-55743946D01*
X167593882Y-56014865D01*
X167669403Y-56197641D01*
X167594118Y-56378946D01*
X167593882Y-56649865D01*
X167669403Y-56832641D01*
X167594118Y-57013946D01*
X167593882Y-57284865D01*
X167669403Y-57467641D01*
X167594118Y-57648946D01*
X167593882Y-57919865D01*
X167669403Y-58102641D01*
X167594118Y-58283946D01*
X167593882Y-58554865D01*
X167669403Y-58737641D01*
X167594118Y-58918946D01*
X167593882Y-59189865D01*
X167697339Y-59440252D01*
X167888741Y-59631987D01*
X168138946Y-59735882D01*
X168409865Y-59736118D01*
X168592641Y-59660597D01*
X168773946Y-59735882D01*
X169044865Y-59736118D01*
X169227641Y-59660597D01*
X169408946Y-59735882D01*
X169679865Y-59736118D01*
X169862641Y-59660597D01*
X170043946Y-59735882D01*
X170314865Y-59736118D01*
X170497641Y-59660597D01*
X170678946Y-59735882D01*
X170949865Y-59736118D01*
X171132641Y-59660597D01*
X171313946Y-59735882D01*
X171584865Y-59736118D01*
X171767641Y-59660597D01*
X171948946Y-59735882D01*
X172219865Y-59736118D01*
X172470252Y-59632661D01*
X172661987Y-59441259D01*
X172765882Y-59191054D01*
X172766118Y-58920135D01*
X172690597Y-58737359D01*
X172765882Y-58556054D01*
X172766118Y-58285135D01*
X172690597Y-58102359D01*
X172765882Y-57921054D01*
X172766118Y-57650135D01*
X172690597Y-57467359D01*
X172765882Y-57286054D01*
X172766118Y-57015135D01*
X172690597Y-56832359D01*
X172765882Y-56651054D01*
X172766118Y-56380135D01*
X172690597Y-56197359D01*
X172765882Y-56016054D01*
X172766118Y-55745135D01*
X172662661Y-55494748D01*
X172623980Y-55456000D01*
X172955088Y-55456000D01*
X173587445Y-55581784D01*
X174085456Y-55914544D01*
X174418216Y-56412555D01*
X174544000Y-57044911D01*
X174544000Y-83544000D01*
X162800000Y-83544000D01*
X162755950Y-83552762D01*
X162711039Y-83552762D01*
X162328356Y-83628882D01*
X162163977Y-83696970D01*
X161839553Y-83913743D01*
X161713743Y-84039553D01*
X161496971Y-84363976D01*
X161496970Y-84363977D01*
X161428882Y-84528356D01*
X161352762Y-84911039D01*
X161352762Y-84955950D01*
X161344000Y-85000000D01*
X161344000Y-87544000D01*
X154056000Y-87544000D01*
X154056000Y-85000000D01*
X154047238Y-84955950D01*
X154047238Y-84911039D01*
X153971118Y-84528356D01*
X153903030Y-84363977D01*
X153903029Y-84363976D01*
X153686257Y-84039553D01*
X153560447Y-83913743D01*
X153236023Y-83696970D01*
X153071644Y-83628882D01*
X152688961Y-83552762D01*
X152644050Y-83552762D01*
X152600000Y-83544000D01*
X140000000Y-83544000D01*
X139825496Y-83578711D01*
X139677559Y-83677559D01*
X139578711Y-83825496D01*
X139544000Y-84000000D01*
X139544000Y-90095010D01*
X139501723Y-90077455D01*
X139230804Y-90077219D01*
X138980417Y-90180676D01*
X138788682Y-90372078D01*
X138684787Y-90622283D01*
X138684551Y-90893202D01*
X138734713Y-91014605D01*
X138693056Y-90997307D01*
X138422137Y-90997071D01*
X138171750Y-91100528D01*
X138076524Y-91195589D01*
X137900506Y-91195589D01*
X134088783Y-87383865D01*
X137367882Y-87383865D01*
X137471339Y-87634252D01*
X137662741Y-87825987D01*
X137912946Y-87929882D01*
X138183865Y-87930118D01*
X138434252Y-87826661D01*
X138625987Y-87635259D01*
X138729882Y-87385054D01*
X138730118Y-87114135D01*
X138626661Y-86863748D01*
X138435259Y-86672013D01*
X138185054Y-86568118D01*
X137914135Y-86567882D01*
X137663748Y-86671339D01*
X137472013Y-86862741D01*
X137368118Y-87112946D01*
X137367882Y-87383865D01*
X134088783Y-87383865D01*
X133262307Y-86557389D01*
X133417752Y-86493161D01*
X133609487Y-86301759D01*
X133713382Y-86051554D01*
X133713618Y-85780635D01*
X133610161Y-85530248D01*
X133418759Y-85338513D01*
X133168554Y-85234618D01*
X132897635Y-85234382D01*
X132647248Y-85337839D01*
X132562600Y-85422340D01*
X132562600Y-84716865D01*
X133811882Y-84716865D01*
X133915339Y-84967252D01*
X134106741Y-85158987D01*
X134356946Y-85262882D01*
X134627865Y-85263118D01*
X134878252Y-85159661D01*
X135069987Y-84968259D01*
X135173882Y-84718054D01*
X135173999Y-84583501D01*
X136343899Y-83413600D01*
X138557000Y-83413600D01*
X138741683Y-83376864D01*
X138898250Y-83272250D01*
X139914250Y-82256250D01*
X140018864Y-82099683D01*
X140055600Y-81915000D01*
X140055600Y-80844894D01*
X140336492Y-80564002D01*
X140469859Y-80564118D01*
X140720246Y-80460661D01*
X140911981Y-80269259D01*
X141015876Y-80019054D01*
X141016112Y-79748135D01*
X140912655Y-79497748D01*
X140721253Y-79306013D01*
X140471048Y-79202118D01*
X140200129Y-79201882D01*
X139949742Y-79305339D01*
X139758007Y-79496741D01*
X139654112Y-79746946D01*
X139653995Y-79881499D01*
X139231750Y-80303744D01*
X139127136Y-80460311D01*
X139090400Y-80644994D01*
X139090400Y-81715100D01*
X138357100Y-82448400D01*
X136144005Y-82448400D01*
X136144000Y-82448399D01*
X135959317Y-82485136D01*
X135802750Y-82589750D01*
X135802748Y-82589753D01*
X134491502Y-83900998D01*
X134358135Y-83900882D01*
X134107748Y-84004339D01*
X133916013Y-84195741D01*
X133812118Y-84445946D01*
X133811882Y-84716865D01*
X132562600Y-84716865D01*
X132562600Y-81392513D01*
X132691234Y-81392513D01*
X132794691Y-81642900D01*
X132986093Y-81834635D01*
X133094760Y-81879758D01*
X133121141Y-81943606D01*
X133312543Y-82135341D01*
X133562748Y-82239236D01*
X133833667Y-82239472D01*
X134084054Y-82136015D01*
X134275789Y-81944613D01*
X134379684Y-81694408D01*
X134379920Y-81423489D01*
X134276463Y-81173102D01*
X134085061Y-80981367D01*
X133976394Y-80936244D01*
X133950013Y-80872396D01*
X133758611Y-80680661D01*
X133508406Y-80576766D01*
X133237487Y-80576530D01*
X132987100Y-80679987D01*
X132795365Y-80871389D01*
X132691470Y-81121594D01*
X132691234Y-81392513D01*
X132562600Y-81392513D01*
X132562600Y-80017859D01*
X133303882Y-80017859D01*
X133407339Y-80268246D01*
X133598741Y-80459981D01*
X133733197Y-80515813D01*
X133788333Y-80649252D01*
X133979735Y-80840987D01*
X134114209Y-80896826D01*
X134169339Y-81030252D01*
X134360741Y-81221987D01*
X134610946Y-81325882D01*
X134881865Y-81326118D01*
X135132252Y-81222661D01*
X135323987Y-81031259D01*
X135427882Y-80781054D01*
X135428118Y-80510135D01*
X135381431Y-80397141D01*
X136853489Y-80397141D01*
X136956946Y-80647528D01*
X137148348Y-80839263D01*
X137260215Y-80885715D01*
X137260058Y-81065825D01*
X137363515Y-81316212D01*
X137554917Y-81507947D01*
X137805122Y-81611842D01*
X138076041Y-81612078D01*
X138326428Y-81508621D01*
X138518163Y-81317219D01*
X138622058Y-81067014D01*
X138622294Y-80796095D01*
X138518837Y-80545708D01*
X138327435Y-80353973D01*
X138215568Y-80307521D01*
X138215725Y-80127411D01*
X138112268Y-79877024D01*
X137920866Y-79685289D01*
X137670661Y-79581394D01*
X137399742Y-79581158D01*
X137149355Y-79684615D01*
X136957620Y-79876017D01*
X136853725Y-80126222D01*
X136853489Y-80397141D01*
X135381431Y-80397141D01*
X135324661Y-80259748D01*
X135133259Y-80068013D01*
X134998785Y-80012174D01*
X134943655Y-79878748D01*
X134752253Y-79687013D01*
X134617797Y-79631181D01*
X134604581Y-79599196D01*
X134643505Y-79599230D01*
X134893892Y-79495773D01*
X135085627Y-79304371D01*
X135189522Y-79054166D01*
X135189758Y-78783247D01*
X135086301Y-78532860D01*
X135067965Y-78514492D01*
X135166711Y-78276688D01*
X135166947Y-78005769D01*
X135063490Y-77755382D01*
X135056823Y-77748703D01*
X135160551Y-77498900D01*
X135160787Y-77227981D01*
X135057330Y-76977594D01*
X134865928Y-76785859D01*
X134794836Y-76756339D01*
X134985252Y-76677661D01*
X135176987Y-76486259D01*
X135280882Y-76236054D01*
X135281118Y-75965135D01*
X135177661Y-75714748D01*
X135163080Y-75700142D01*
X135176987Y-75686259D01*
X135280882Y-75436054D01*
X135281118Y-75165135D01*
X135198332Y-74964777D01*
X135276987Y-74886259D01*
X135380882Y-74636054D01*
X135381118Y-74365135D01*
X135277661Y-74114748D01*
X135086259Y-73923013D01*
X134999579Y-73887020D01*
X135181615Y-73705300D01*
X135285510Y-73455095D01*
X135285746Y-73184176D01*
X135182289Y-72933789D01*
X135056665Y-72807947D01*
X135101782Y-72699294D01*
X135102018Y-72428375D01*
X135014027Y-72215419D01*
X135055681Y-72173837D01*
X135159576Y-71923632D01*
X135159812Y-71652713D01*
X135056355Y-71402326D01*
X134864953Y-71210591D01*
X134614748Y-71106696D01*
X134343829Y-71106460D01*
X134093442Y-71209917D01*
X133901707Y-71401319D01*
X133797812Y-71651524D01*
X133797576Y-71922443D01*
X133885567Y-72135399D01*
X133843913Y-72176981D01*
X133740018Y-72427186D01*
X133739782Y-72698105D01*
X133843239Y-72948492D01*
X133968863Y-73074334D01*
X133923746Y-73182987D01*
X133923510Y-73453906D01*
X134026967Y-73704293D01*
X134218369Y-73896028D01*
X134305049Y-73932021D01*
X134123013Y-74113741D01*
X134019118Y-74363946D01*
X134018882Y-74634865D01*
X134101668Y-74835223D01*
X134023013Y-74913741D01*
X133919118Y-75163946D01*
X133918882Y-75434865D01*
X134022339Y-75685252D01*
X134036920Y-75699858D01*
X134023013Y-75713741D01*
X133919118Y-75963946D01*
X133918882Y-76234865D01*
X134022339Y-76485252D01*
X134213741Y-76676987D01*
X134284833Y-76706507D01*
X134094417Y-76785185D01*
X133902682Y-76976587D01*
X133798787Y-77226792D01*
X133798551Y-77497711D01*
X133902008Y-77748098D01*
X133908675Y-77754777D01*
X133804947Y-78004580D01*
X133804711Y-78275499D01*
X133908168Y-78525886D01*
X133926504Y-78544254D01*
X133827758Y-78782058D01*
X133827522Y-79052977D01*
X133889059Y-79201910D01*
X133850135Y-79201876D01*
X133599748Y-79305333D01*
X133408013Y-79496735D01*
X133304118Y-79746940D01*
X133303882Y-80017859D01*
X132562600Y-80017859D01*
X132562600Y-72941264D01*
X132525864Y-72756581D01*
X132421250Y-72600014D01*
X131241170Y-71419934D01*
X131452865Y-71420118D01*
X131703252Y-71316661D01*
X131894987Y-71125259D01*
X131998882Y-70875054D01*
X131998889Y-70866000D01*
X138430000Y-70866000D01*
X138430000Y-72136000D01*
X138478336Y-72379004D01*
X138615987Y-72585013D01*
X139584650Y-73553676D01*
X139630339Y-73664252D01*
X139821741Y-73855987D01*
X140068892Y-73958614D01*
X140068801Y-74063284D01*
X139822748Y-74164950D01*
X139631013Y-74356352D01*
X139527118Y-74606557D01*
X139526882Y-74877476D01*
X139608332Y-75074603D01*
X139504013Y-75178741D01*
X139400118Y-75428946D01*
X139399882Y-75699865D01*
X139446000Y-75811480D01*
X139446000Y-77470000D01*
X139494336Y-77713004D01*
X139631987Y-77919013D01*
X140551186Y-78838212D01*
X140757195Y-78975863D01*
X141000199Y-79024199D01*
X142702084Y-79024199D01*
X142702040Y-79074959D01*
X142613135Y-79074882D01*
X142430359Y-79150403D01*
X142249054Y-79075118D01*
X141978135Y-79074882D01*
X141727748Y-79178339D01*
X141536013Y-79369741D01*
X141432118Y-79619946D01*
X141431882Y-79890865D01*
X141535339Y-80141252D01*
X141726741Y-80332987D01*
X141976946Y-80436882D01*
X142247865Y-80437118D01*
X142430641Y-80361597D01*
X142611946Y-80436882D01*
X142818533Y-80437062D01*
X142742141Y-80548866D01*
X142711536Y-80700000D01*
X142711536Y-83100000D01*
X142738103Y-83241190D01*
X142821546Y-83370865D01*
X142948866Y-83457859D01*
X143100000Y-83488464D01*
X145500000Y-83488464D01*
X145641190Y-83461897D01*
X145770865Y-83378454D01*
X145857859Y-83251134D01*
X145888464Y-83100000D01*
X145888464Y-82213101D01*
X147718726Y-82213101D01*
X147958912Y-82794395D01*
X148403266Y-83239525D01*
X148984140Y-83480725D01*
X149613101Y-83481274D01*
X150194395Y-83241088D01*
X150639525Y-82796734D01*
X150880725Y-82215860D01*
X150880727Y-82213101D01*
X164618726Y-82213101D01*
X164858912Y-82794395D01*
X165303266Y-83239525D01*
X165884140Y-83480725D01*
X166513101Y-83481274D01*
X167094395Y-83241088D01*
X167539525Y-82796734D01*
X167780725Y-82215860D01*
X167781274Y-81586899D01*
X167541088Y-81005605D01*
X167096734Y-80560475D01*
X166515860Y-80319275D01*
X165886899Y-80318726D01*
X165305605Y-80558912D01*
X164860475Y-81003266D01*
X164619275Y-81584140D01*
X164618726Y-82213101D01*
X150880727Y-82213101D01*
X150881274Y-81586899D01*
X150641088Y-81005605D01*
X150196734Y-80560475D01*
X149615860Y-80319275D01*
X148986899Y-80318726D01*
X148405605Y-80558912D01*
X147960475Y-81003266D01*
X147719275Y-81584140D01*
X147718726Y-82213101D01*
X145888464Y-82213101D01*
X145888464Y-80700000D01*
X145861897Y-80558810D01*
X145782160Y-80434895D01*
X145786946Y-80436882D01*
X146057865Y-80437118D01*
X146240641Y-80361597D01*
X146421946Y-80436882D01*
X146692865Y-80437118D01*
X146875641Y-80361597D01*
X147056946Y-80436882D01*
X147327865Y-80437118D01*
X147510641Y-80361597D01*
X147691946Y-80436882D01*
X147962865Y-80437118D01*
X148213252Y-80333661D01*
X148404987Y-80142259D01*
X148508882Y-79892054D01*
X148508883Y-79890865D01*
X153877882Y-79890865D01*
X153981339Y-80141252D01*
X154172741Y-80332987D01*
X154422946Y-80436882D01*
X154693865Y-80437118D01*
X154876641Y-80361597D01*
X155057946Y-80436882D01*
X155328865Y-80437118D01*
X155511641Y-80361597D01*
X155692946Y-80436882D01*
X155963865Y-80437118D01*
X156146641Y-80361597D01*
X156327946Y-80436882D01*
X156598865Y-80437118D01*
X156781641Y-80361597D01*
X156962946Y-80436882D01*
X157233865Y-80437118D01*
X157416641Y-80361597D01*
X157597946Y-80436882D01*
X157868865Y-80437118D01*
X158051641Y-80361597D01*
X158232946Y-80436882D01*
X158503865Y-80437118D01*
X158686641Y-80361597D01*
X158867946Y-80436882D01*
X159138865Y-80437118D01*
X159321641Y-80361597D01*
X159502946Y-80436882D01*
X159773865Y-80437118D01*
X159956641Y-80361597D01*
X160137946Y-80436882D01*
X160408865Y-80437118D01*
X160659252Y-80333661D01*
X160850987Y-80142259D01*
X160954882Y-79892054D01*
X160955118Y-79621135D01*
X160879597Y-79438359D01*
X160954882Y-79257054D01*
X160954883Y-79255865D01*
X166958882Y-79255865D01*
X167034403Y-79438641D01*
X166959118Y-79619946D01*
X166958882Y-79890865D01*
X167062339Y-80141252D01*
X167253741Y-80332987D01*
X167503946Y-80436882D01*
X167774865Y-80437118D01*
X167957641Y-80361597D01*
X168138946Y-80436882D01*
X168409865Y-80437118D01*
X168592641Y-80361597D01*
X168773946Y-80436882D01*
X169044865Y-80437118D01*
X169227641Y-80361597D01*
X169408946Y-80436882D01*
X169679865Y-80437118D01*
X169749917Y-80408173D01*
X169729135Y-80421546D01*
X169642141Y-80548866D01*
X169611536Y-80700000D01*
X169611536Y-83100000D01*
X169638103Y-83241190D01*
X169721546Y-83370865D01*
X169848866Y-83457859D01*
X170000000Y-83488464D01*
X172400000Y-83488464D01*
X172541190Y-83461897D01*
X172670865Y-83378454D01*
X172757859Y-83251134D01*
X172788464Y-83100000D01*
X172788464Y-80700000D01*
X172761897Y-80558810D01*
X172683495Y-80436969D01*
X172854865Y-80437118D01*
X173037641Y-80361597D01*
X173218946Y-80436882D01*
X173489865Y-80437118D01*
X173740252Y-80333661D01*
X173931987Y-80142259D01*
X174035882Y-79892054D01*
X174036118Y-79621135D01*
X173932661Y-79370748D01*
X173741259Y-79179013D01*
X173491054Y-79075118D01*
X173220135Y-79074882D01*
X173037359Y-79150403D01*
X172856054Y-79075118D01*
X172766041Y-79075040D01*
X172766118Y-78986135D01*
X172662661Y-78735748D01*
X172471259Y-78544013D01*
X172221054Y-78440118D01*
X171950135Y-78439882D01*
X171767359Y-78515403D01*
X171586054Y-78440118D01*
X171315135Y-78439882D01*
X171132359Y-78515403D01*
X170951054Y-78440118D01*
X170680135Y-78439882D01*
X170497359Y-78515403D01*
X170316054Y-78440118D01*
X170045135Y-78439882D01*
X169862359Y-78515403D01*
X169681054Y-78440118D01*
X169410135Y-78439882D01*
X169227359Y-78515403D01*
X169046054Y-78440118D01*
X168775135Y-78439882D01*
X168592359Y-78515403D01*
X168411054Y-78440118D01*
X168140135Y-78439882D01*
X167957359Y-78515403D01*
X167776054Y-78440118D01*
X167505135Y-78439882D01*
X167254748Y-78543339D01*
X167063013Y-78734741D01*
X166959118Y-78984946D01*
X166958882Y-79255865D01*
X160954883Y-79255865D01*
X160955118Y-78986135D01*
X160851661Y-78735748D01*
X160660259Y-78544013D01*
X160410054Y-78440118D01*
X160139135Y-78439882D01*
X159956359Y-78515403D01*
X159775054Y-78440118D01*
X159504135Y-78439882D01*
X159321359Y-78515403D01*
X159140054Y-78440118D01*
X158869135Y-78439882D01*
X158686359Y-78515403D01*
X158505054Y-78440118D01*
X158234135Y-78439882D01*
X158051359Y-78515403D01*
X157870054Y-78440118D01*
X157599135Y-78439882D01*
X157416359Y-78515403D01*
X157235054Y-78440118D01*
X156964135Y-78439882D01*
X156781359Y-78515403D01*
X156600054Y-78440118D01*
X156329135Y-78439882D01*
X156146359Y-78515403D01*
X155965054Y-78440118D01*
X155694135Y-78439882D01*
X155443748Y-78543339D01*
X155252013Y-78734741D01*
X155148118Y-78984946D01*
X155148040Y-79074959D01*
X155059135Y-79074882D01*
X154876359Y-79150403D01*
X154695054Y-79075118D01*
X154424135Y-79074882D01*
X154173748Y-79178339D01*
X153982013Y-79369741D01*
X153878118Y-79619946D01*
X153877882Y-79890865D01*
X148508883Y-79890865D01*
X148509118Y-79621135D01*
X148433597Y-79438359D01*
X148508882Y-79257054D01*
X148509085Y-79024199D01*
X154655801Y-79024199D01*
X154898805Y-78975863D01*
X155104814Y-78838212D01*
X156659013Y-77284013D01*
X156796664Y-77078005D01*
X156845000Y-76835000D01*
X156845000Y-75438000D01*
X156796664Y-75194996D01*
X156659013Y-74988987D01*
X155529008Y-73858982D01*
X155680246Y-73921782D01*
X155951165Y-73922018D01*
X156127575Y-73849127D01*
X156302546Y-73921782D01*
X156573465Y-73922018D01*
X156749875Y-73849127D01*
X156924846Y-73921782D01*
X157195765Y-73922018D01*
X157372175Y-73849127D01*
X157547146Y-73921782D01*
X157818065Y-73922018D01*
X157994475Y-73849127D01*
X158169446Y-73921782D01*
X158440365Y-73922018D01*
X158616775Y-73849127D01*
X158791746Y-73921782D01*
X159062665Y-73922018D01*
X159239075Y-73849127D01*
X159414046Y-73921782D01*
X159684965Y-73922018D01*
X159861375Y-73849127D01*
X160036346Y-73921782D01*
X160307265Y-73922018D01*
X160557652Y-73818561D01*
X160749387Y-73627159D01*
X160853282Y-73376954D01*
X160853518Y-73106035D01*
X160780627Y-72929625D01*
X160853282Y-72754654D01*
X160853518Y-72483735D01*
X160780627Y-72307325D01*
X160853282Y-72132354D01*
X160853518Y-71861435D01*
X160780627Y-71685025D01*
X160853282Y-71510054D01*
X160853283Y-71508865D01*
X167593882Y-71508865D01*
X167666773Y-71685275D01*
X167594118Y-71860246D01*
X167593882Y-72131165D01*
X167666773Y-72307575D01*
X167594118Y-72482546D01*
X167593882Y-72753465D01*
X167666773Y-72929875D01*
X167594118Y-73104846D01*
X167593882Y-73375765D01*
X167697339Y-73626152D01*
X167888741Y-73817887D01*
X168138946Y-73921782D01*
X168409865Y-73922018D01*
X168586275Y-73849127D01*
X168761246Y-73921782D01*
X169032165Y-73922018D01*
X169208575Y-73849127D01*
X169383546Y-73921782D01*
X169654465Y-73922018D01*
X169830875Y-73849127D01*
X170005846Y-73921782D01*
X170276765Y-73922018D01*
X170453175Y-73849127D01*
X170628146Y-73921782D01*
X170899065Y-73922018D01*
X171075475Y-73849127D01*
X171250446Y-73921782D01*
X171521365Y-73922018D01*
X171697775Y-73849127D01*
X171872746Y-73921782D01*
X172143665Y-73922018D01*
X172394052Y-73818561D01*
X172585787Y-73627159D01*
X172689682Y-73376954D01*
X172689749Y-73299652D01*
X172765965Y-73299718D01*
X172942375Y-73226827D01*
X173117346Y-73299482D01*
X173388265Y-73299718D01*
X173638652Y-73196261D01*
X173830387Y-73004859D01*
X173934282Y-72754654D01*
X173934518Y-72483735D01*
X173861627Y-72307325D01*
X173934282Y-72132354D01*
X173934518Y-71861435D01*
X173861627Y-71685025D01*
X173934282Y-71510054D01*
X173934518Y-71239135D01*
X173831061Y-70988748D01*
X173639659Y-70797013D01*
X173389454Y-70693118D01*
X173118535Y-70692882D01*
X172942125Y-70765773D01*
X172767154Y-70693118D01*
X172496235Y-70692882D01*
X172319825Y-70765773D01*
X172144854Y-70693118D01*
X171873935Y-70692882D01*
X171697525Y-70765773D01*
X171522554Y-70693118D01*
X171251635Y-70692882D01*
X171001248Y-70796339D01*
X170809513Y-70987741D01*
X170705618Y-71237946D01*
X170705551Y-71315248D01*
X170629335Y-71315182D01*
X170452925Y-71388073D01*
X170277954Y-71315418D01*
X170200652Y-71315351D01*
X170200718Y-71239135D01*
X170097261Y-70988748D01*
X169905859Y-70797013D01*
X169655654Y-70693118D01*
X169384735Y-70692882D01*
X169208325Y-70765773D01*
X169033354Y-70693118D01*
X168762435Y-70692882D01*
X168586025Y-70765773D01*
X168411054Y-70693118D01*
X168140135Y-70692882D01*
X167889748Y-70796339D01*
X167698013Y-70987741D01*
X167594118Y-71237946D01*
X167593882Y-71508865D01*
X160853283Y-71508865D01*
X160853518Y-71239135D01*
X160750061Y-70988748D01*
X160558659Y-70797013D01*
X160308454Y-70693118D01*
X160037535Y-70692882D01*
X159861125Y-70765773D01*
X159686154Y-70693118D01*
X159415235Y-70692882D01*
X159238825Y-70765773D01*
X159063854Y-70693118D01*
X158792935Y-70692882D01*
X158616525Y-70765773D01*
X158441554Y-70693118D01*
X158170635Y-70692882D01*
X157920248Y-70796339D01*
X157728513Y-70987741D01*
X157624618Y-71237946D01*
X157624551Y-71315248D01*
X157548335Y-71315182D01*
X157371925Y-71388073D01*
X157196954Y-71315418D01*
X157119652Y-71315351D01*
X157119718Y-71239135D01*
X157016261Y-70988748D01*
X156824859Y-70797013D01*
X156574654Y-70693118D01*
X156303735Y-70692882D01*
X156127325Y-70765773D01*
X155952354Y-70693118D01*
X155681435Y-70692882D01*
X155594028Y-70728998D01*
X156151010Y-70172015D01*
X156151013Y-70172013D01*
X156235437Y-70045664D01*
X156288664Y-69966005D01*
X156337000Y-69723000D01*
X156337000Y-68146126D01*
X156405987Y-68077259D01*
X156509882Y-67827054D01*
X156510085Y-67594198D01*
X158263172Y-67594198D01*
X158681987Y-68013013D01*
X158698961Y-68024354D01*
X158773101Y-68098624D01*
X158870871Y-68139222D01*
X158887996Y-68150664D01*
X158908020Y-68154647D01*
X159004936Y-68194890D01*
X159110802Y-68194982D01*
X159131000Y-68199000D01*
X159151022Y-68195017D01*
X159255963Y-68195109D01*
X159353805Y-68154682D01*
X159374004Y-68150664D01*
X159390978Y-68139322D01*
X159487966Y-68099248D01*
X159562890Y-68024454D01*
X159580013Y-68013013D01*
X159591354Y-67996039D01*
X159665624Y-67921899D01*
X159706222Y-67824129D01*
X159717664Y-67807004D01*
X159721647Y-67786980D01*
X159761890Y-67690064D01*
X159761982Y-67584198D01*
X159766000Y-67564000D01*
X159762017Y-67543978D01*
X159762109Y-67439037D01*
X159721682Y-67341195D01*
X159717664Y-67320996D01*
X159706322Y-67304022D01*
X159666248Y-67207034D01*
X159591454Y-67132110D01*
X159580013Y-67114987D01*
X158975211Y-66510185D01*
X158769202Y-66372534D01*
X158526198Y-66324198D01*
X155477739Y-66324198D01*
X155477734Y-66324197D01*
X155234730Y-66372534D01*
X155028721Y-66510185D01*
X154277432Y-67261474D01*
X154260718Y-67221022D01*
X154325482Y-67065054D01*
X154325718Y-66794135D01*
X154260718Y-66636822D01*
X154325482Y-66480854D01*
X154325718Y-66209935D01*
X154260718Y-66052622D01*
X154325482Y-65896654D01*
X154325718Y-65625735D01*
X154260718Y-65468422D01*
X154325482Y-65312454D01*
X154325718Y-65041535D01*
X154260718Y-64884222D01*
X154325482Y-64728254D01*
X154325718Y-64457335D01*
X154260718Y-64300022D01*
X154325482Y-64144054D01*
X154325483Y-64142865D01*
X160735882Y-64142865D01*
X160800882Y-64300178D01*
X160736118Y-64456146D01*
X160735882Y-64727065D01*
X160800882Y-64884378D01*
X160736118Y-65040346D01*
X160735882Y-65311265D01*
X160800882Y-65468578D01*
X160736118Y-65624546D01*
X160735882Y-65895465D01*
X160800882Y-66052778D01*
X160736118Y-66208746D01*
X160735882Y-66479665D01*
X160800882Y-66636978D01*
X160736118Y-66792946D01*
X160735882Y-67063865D01*
X160800882Y-67221178D01*
X160736118Y-67377146D01*
X160735882Y-67648065D01*
X160839339Y-67898452D01*
X161030741Y-68090187D01*
X161280946Y-68194082D01*
X161551865Y-68194318D01*
X161709178Y-68129318D01*
X161865146Y-68194082D01*
X162136065Y-68194318D01*
X162293378Y-68129318D01*
X162449346Y-68194082D01*
X162720265Y-68194318D01*
X162877578Y-68129318D01*
X163033546Y-68194082D01*
X163304465Y-68194318D01*
X163461778Y-68129318D01*
X163617746Y-68194082D01*
X163888665Y-68194318D01*
X164045978Y-68129318D01*
X164201946Y-68194082D01*
X164472865Y-68194318D01*
X164630178Y-68129318D01*
X164786146Y-68194082D01*
X165057065Y-68194318D01*
X165214378Y-68129318D01*
X165370346Y-68194082D01*
X165641265Y-68194318D01*
X165798578Y-68129318D01*
X165954546Y-68194082D01*
X166225465Y-68194318D01*
X166475852Y-68090861D01*
X166667587Y-67899459D01*
X166750881Y-67698865D01*
X167466882Y-67698865D01*
X167570339Y-67949252D01*
X167761741Y-68140987D01*
X168011946Y-68244882D01*
X168282865Y-68245118D01*
X168533252Y-68141661D01*
X168724987Y-67950259D01*
X168828882Y-67700054D01*
X168829118Y-67429135D01*
X168725661Y-67178748D01*
X168534259Y-66987013D01*
X168284054Y-66883118D01*
X168013135Y-66882882D01*
X167762748Y-66986339D01*
X167571013Y-67177741D01*
X167467118Y-67427946D01*
X167466882Y-67698865D01*
X166750881Y-67698865D01*
X166771482Y-67649254D01*
X166771718Y-67378335D01*
X166706718Y-67221022D01*
X166771482Y-67065054D01*
X166771718Y-66794135D01*
X166706718Y-66636822D01*
X166771482Y-66480854D01*
X166771718Y-66209935D01*
X166706718Y-66052622D01*
X166771482Y-65896654D01*
X166771718Y-65625735D01*
X166706718Y-65468422D01*
X166771482Y-65312454D01*
X166771718Y-65041535D01*
X166706718Y-64884222D01*
X166771482Y-64728254D01*
X166771718Y-64457335D01*
X166706718Y-64300022D01*
X166771482Y-64144054D01*
X166771718Y-63873135D01*
X166668261Y-63622748D01*
X166476859Y-63431013D01*
X166226654Y-63327118D01*
X165955735Y-63326882D01*
X165798422Y-63391882D01*
X165642454Y-63327118D01*
X165371535Y-63326882D01*
X165214222Y-63391882D01*
X165058254Y-63327118D01*
X164787335Y-63326882D01*
X164630022Y-63391882D01*
X164474054Y-63327118D01*
X164203135Y-63326882D01*
X164045822Y-63391882D01*
X163889854Y-63327118D01*
X163618935Y-63326882D01*
X163461622Y-63391882D01*
X163305654Y-63327118D01*
X163034735Y-63326882D01*
X162877422Y-63391882D01*
X162721454Y-63327118D01*
X162450535Y-63326882D01*
X162293222Y-63391882D01*
X162137254Y-63327118D01*
X161866335Y-63326882D01*
X161709022Y-63391882D01*
X161553054Y-63327118D01*
X161282135Y-63326882D01*
X161031748Y-63430339D01*
X160840013Y-63621741D01*
X160736118Y-63871946D01*
X160735882Y-64142865D01*
X154325483Y-64142865D01*
X154325718Y-63873135D01*
X154222261Y-63622748D01*
X154030859Y-63431013D01*
X153780654Y-63327118D01*
X153509735Y-63326882D01*
X153352422Y-63391882D01*
X153196454Y-63327118D01*
X152925535Y-63326882D01*
X152768222Y-63391882D01*
X152612254Y-63327118D01*
X152341335Y-63326882D01*
X152184022Y-63391882D01*
X152028054Y-63327118D01*
X151757135Y-63326882D01*
X151599822Y-63391882D01*
X151443854Y-63327118D01*
X151172935Y-63326882D01*
X151015622Y-63391882D01*
X150859654Y-63327118D01*
X150588735Y-63326882D01*
X150431422Y-63391882D01*
X150275454Y-63327118D01*
X150004535Y-63326882D01*
X149847222Y-63391882D01*
X149691254Y-63327118D01*
X149420335Y-63326882D01*
X149263022Y-63391882D01*
X149107054Y-63327118D01*
X148836135Y-63326882D01*
X148585748Y-63430339D01*
X148394013Y-63621741D01*
X148290118Y-63871946D01*
X148289882Y-64142865D01*
X148354882Y-64300178D01*
X148290118Y-64456146D01*
X148289882Y-64727065D01*
X148354882Y-64884378D01*
X148290118Y-65040346D01*
X148289882Y-65311265D01*
X148354882Y-65468578D01*
X148290118Y-65624546D01*
X148289882Y-65895465D01*
X148354882Y-66052778D01*
X148290118Y-66208746D01*
X148289882Y-66479665D01*
X148354882Y-66636978D01*
X148290118Y-66792946D01*
X148289882Y-67063865D01*
X148354882Y-67221178D01*
X148290118Y-67377146D01*
X148289882Y-67648065D01*
X148393339Y-67898452D01*
X148584741Y-68090187D01*
X148834946Y-68194082D01*
X149105865Y-68194318D01*
X149263178Y-68129318D01*
X149419146Y-68194082D01*
X149690065Y-68194318D01*
X149847378Y-68129318D01*
X150003346Y-68194082D01*
X150274265Y-68194318D01*
X150431578Y-68129318D01*
X150587546Y-68194082D01*
X150858465Y-68194318D01*
X151015778Y-68129318D01*
X151171746Y-68194082D01*
X151442665Y-68194318D01*
X151599978Y-68129318D01*
X151755946Y-68194082D01*
X152026865Y-68194318D01*
X152184178Y-68129318D01*
X152340146Y-68194082D01*
X152611065Y-68194318D01*
X152768378Y-68129318D01*
X152924346Y-68194082D01*
X153195265Y-68194318D01*
X153352578Y-68129318D01*
X153392861Y-68146045D01*
X152069906Y-69469000D01*
X141859000Y-69469000D01*
X141615996Y-69517336D01*
X141409987Y-69654987D01*
X140568324Y-70496650D01*
X140457748Y-70542339D01*
X140266013Y-70733741D01*
X140162118Y-70983946D01*
X140162039Y-71074070D01*
X139946135Y-71073882D01*
X139700000Y-71175582D01*
X139700000Y-71129026D01*
X142630026Y-68199000D01*
X143644451Y-68199000D01*
X143754946Y-68244882D01*
X144025865Y-68245118D01*
X144276252Y-68141661D01*
X144467987Y-67950259D01*
X144571882Y-67700054D01*
X144572118Y-67429135D01*
X144468661Y-67178748D01*
X144277259Y-66987013D01*
X144027054Y-66883118D01*
X143756135Y-66882882D01*
X143644520Y-66929000D01*
X142367000Y-66929000D01*
X142123996Y-66977336D01*
X141917987Y-67114987D01*
X138615987Y-70416987D01*
X138478336Y-70622996D01*
X138430000Y-70866000D01*
X131998889Y-70866000D01*
X131999118Y-70604135D01*
X131923597Y-70421359D01*
X131998882Y-70240054D01*
X131999118Y-69969135D01*
X131895661Y-69718748D01*
X131704259Y-69527013D01*
X131454054Y-69423118D01*
X131183135Y-69422882D01*
X131000359Y-69498403D01*
X130819054Y-69423118D01*
X130548135Y-69422882D01*
X130297748Y-69526339D01*
X130174954Y-69648920D01*
X130053259Y-69527013D01*
X129850172Y-69442683D01*
X129925252Y-69411661D01*
X130116987Y-69220259D01*
X130220882Y-68970054D01*
X130221118Y-68699135D01*
X130117661Y-68448748D01*
X129926259Y-68257013D01*
X129676054Y-68153118D01*
X129405135Y-68152882D01*
X129232047Y-68224400D01*
X122273482Y-68224400D01*
X122179259Y-68130013D01*
X121929054Y-68026118D01*
X121658135Y-68025882D01*
X121640633Y-68033114D01*
X121640633Y-67571865D01*
X132287882Y-67571865D01*
X132391339Y-67822252D01*
X132582741Y-68013987D01*
X132832946Y-68117882D01*
X133103865Y-68118118D01*
X133286641Y-68042597D01*
X133299903Y-68048104D01*
X133154013Y-68193741D01*
X133104752Y-68312375D01*
X132987100Y-68360987D01*
X132795365Y-68552389D01*
X132691470Y-68802594D01*
X132691234Y-69073513D01*
X132794691Y-69323900D01*
X132986093Y-69515635D01*
X133236298Y-69619530D01*
X133507217Y-69619766D01*
X133757604Y-69516309D01*
X133949339Y-69324907D01*
X133998600Y-69206273D01*
X134116252Y-69157661D01*
X134307987Y-68966259D01*
X134411882Y-68716054D01*
X134412118Y-68445135D01*
X134308661Y-68194748D01*
X134232041Y-68117994D01*
X134373865Y-68118118D01*
X134624252Y-68014661D01*
X134815987Y-67823259D01*
X134919882Y-67573054D01*
X134920118Y-67302135D01*
X134816661Y-67051748D01*
X134646485Y-66881275D01*
X138510882Y-66881275D01*
X138614339Y-67131662D01*
X138805741Y-67323397D01*
X139055946Y-67427292D01*
X139326865Y-67427528D01*
X139577252Y-67324071D01*
X139768987Y-67132669D01*
X139872882Y-66882464D01*
X139873118Y-66611545D01*
X139769661Y-66361158D01*
X139578259Y-66169423D01*
X139328054Y-66065528D01*
X139057135Y-66065292D01*
X138806748Y-66168749D01*
X138615013Y-66360151D01*
X138511118Y-66610356D01*
X138510882Y-66881275D01*
X134646485Y-66881275D01*
X134625259Y-66860013D01*
X134375054Y-66756118D01*
X134104135Y-66755882D01*
X133921359Y-66831403D01*
X133740054Y-66756118D01*
X133469135Y-66755882D01*
X133286359Y-66831403D01*
X133105054Y-66756118D01*
X132834135Y-66755882D01*
X132583748Y-66859339D01*
X132392013Y-67050741D01*
X132288118Y-67300946D01*
X132287882Y-67571865D01*
X121640633Y-67571865D01*
X121640633Y-66798430D01*
X121725508Y-66713555D01*
X121858875Y-66713671D01*
X122109262Y-66610214D01*
X122300997Y-66418812D01*
X122404892Y-66168607D01*
X122405128Y-65897688D01*
X122301671Y-65647301D01*
X122110269Y-65455566D01*
X122068333Y-65438153D01*
X122521594Y-64984892D01*
X122509114Y-65014946D01*
X122508878Y-65285865D01*
X122612335Y-65536252D01*
X122803737Y-65727987D01*
X123053942Y-65831882D01*
X123324861Y-65832118D01*
X123417441Y-65793865D01*
X128096882Y-65793865D01*
X128200339Y-66044252D01*
X128391741Y-66235987D01*
X128641946Y-66339882D01*
X128912865Y-66340118D01*
X129163252Y-66236661D01*
X129354987Y-66045259D01*
X129458882Y-65795054D01*
X129459118Y-65524135D01*
X129355661Y-65273748D01*
X129277553Y-65195504D01*
X129377709Y-65095522D01*
X129481604Y-64845317D01*
X129481840Y-64574398D01*
X129378383Y-64324011D01*
X129186981Y-64132276D01*
X128936776Y-64028381D01*
X128665857Y-64028145D01*
X128415470Y-64131602D01*
X128223735Y-64323004D01*
X128119840Y-64573209D01*
X128119604Y-64844128D01*
X128223061Y-65094515D01*
X128301169Y-65172759D01*
X128201013Y-65272741D01*
X128097118Y-65522946D01*
X128096882Y-65793865D01*
X123417441Y-65793865D01*
X123575248Y-65728661D01*
X123766983Y-65537259D01*
X123870878Y-65287054D01*
X123871114Y-65016135D01*
X123767657Y-64765748D01*
X123576255Y-64574013D01*
X123326050Y-64470118D01*
X123055131Y-64469882D01*
X123023557Y-64482928D01*
X123650874Y-63855611D01*
X128814819Y-63855611D01*
X128999502Y-63818875D01*
X129156069Y-63714261D01*
X129235465Y-63634865D01*
X134700882Y-63634865D01*
X134804339Y-63885252D01*
X134863418Y-63944434D01*
X134805013Y-64002737D01*
X134701118Y-64252942D01*
X134700882Y-64523861D01*
X134804339Y-64774248D01*
X134995741Y-64965983D01*
X135245946Y-65069878D01*
X135516865Y-65070114D01*
X135767252Y-64966657D01*
X135958987Y-64775255D01*
X136062882Y-64525050D01*
X136063118Y-64254131D01*
X135959661Y-64003744D01*
X135900582Y-63944562D01*
X135958987Y-63886259D01*
X136062882Y-63636054D01*
X136063118Y-63365135D01*
X135959661Y-63114748D01*
X135768259Y-62923013D01*
X135518054Y-62819118D01*
X135247135Y-62818882D01*
X134996748Y-62922339D01*
X134805013Y-63113741D01*
X134701118Y-63363946D01*
X134700882Y-63634865D01*
X129235465Y-63634865D01*
X131005699Y-61864631D01*
X131185741Y-62044987D01*
X131435946Y-62148882D01*
X131706865Y-62149118D01*
X131799445Y-62110865D01*
X134700882Y-62110865D01*
X134804339Y-62361252D01*
X134995741Y-62552987D01*
X135245946Y-62656882D01*
X135516865Y-62657118D01*
X135767252Y-62553661D01*
X135958987Y-62362259D01*
X136062882Y-62112054D01*
X136063118Y-61841135D01*
X136013052Y-61719963D01*
X151895891Y-61719963D01*
X151991752Y-61951966D01*
X152169101Y-62129624D01*
X152400936Y-62225890D01*
X152651963Y-62226109D01*
X152883966Y-62130248D01*
X152988102Y-62026293D01*
X153162936Y-62098890D01*
X153413963Y-62099109D01*
X153645966Y-62003248D01*
X153823624Y-61825899D01*
X153867612Y-61719963D01*
X164468891Y-61719963D01*
X164564752Y-61951966D01*
X164742101Y-62129624D01*
X164973936Y-62225890D01*
X165224963Y-62226109D01*
X165456966Y-62130248D01*
X165634624Y-61952899D01*
X165656313Y-61900665D01*
X165758101Y-62002630D01*
X165989936Y-62098896D01*
X166240963Y-62099115D01*
X166472966Y-62003254D01*
X166650624Y-61825905D01*
X166746890Y-61594070D01*
X166747109Y-61343043D01*
X166651248Y-61111040D01*
X166473899Y-60933382D01*
X166242064Y-60837116D01*
X165991037Y-60836897D01*
X165759034Y-60932758D01*
X165581376Y-61110107D01*
X165559687Y-61162341D01*
X165457899Y-61060376D01*
X165226064Y-60964110D01*
X164975037Y-60963891D01*
X164743034Y-61059752D01*
X164565376Y-61237101D01*
X164469110Y-61468936D01*
X164468891Y-61719963D01*
X153867612Y-61719963D01*
X153919890Y-61594064D01*
X153920109Y-61343037D01*
X153824248Y-61111034D01*
X153646899Y-60933376D01*
X153415064Y-60837110D01*
X153164037Y-60836891D01*
X152932034Y-60932752D01*
X152827898Y-61036707D01*
X152653064Y-60964110D01*
X152402037Y-60963891D01*
X152170034Y-61059752D01*
X151992376Y-61237101D01*
X151896110Y-61468936D01*
X151895891Y-61719963D01*
X136013052Y-61719963D01*
X135959661Y-61590748D01*
X135768259Y-61399013D01*
X135518054Y-61295118D01*
X135247135Y-61294882D01*
X134996748Y-61398339D01*
X134805013Y-61589741D01*
X134701118Y-61839946D01*
X134700882Y-62110865D01*
X131799445Y-62110865D01*
X131957252Y-62045661D01*
X132148987Y-61854259D01*
X132252882Y-61604054D01*
X132253118Y-61333135D01*
X132149661Y-61082748D01*
X131968779Y-60901551D01*
X133437250Y-59433080D01*
X133541864Y-59276513D01*
X133565865Y-59155853D01*
X133789276Y-59006575D01*
X134001808Y-58688497D01*
X134076440Y-58313299D01*
X134076440Y-57764701D01*
X134117080Y-57764701D01*
X134117080Y-58313299D01*
X134191712Y-58688497D01*
X134404244Y-59006575D01*
X134722322Y-59219107D01*
X135097520Y-59293739D01*
X135472718Y-59219107D01*
X135790796Y-59006575D01*
X136003328Y-58688497D01*
X136077960Y-58313299D01*
X136077960Y-57764701D01*
X136003328Y-57389503D01*
X135790796Y-57071425D01*
X135472718Y-56858893D01*
X135097520Y-56784261D01*
X134722322Y-56858893D01*
X134404244Y-57071425D01*
X134191712Y-57389503D01*
X134117080Y-57764701D01*
X134076440Y-57764701D01*
X134001808Y-57389503D01*
X133789276Y-57071425D01*
X133471198Y-56858893D01*
X133096000Y-56784261D01*
X132720802Y-56858893D01*
X132402724Y-57071425D01*
X132190192Y-57389503D01*
X132115560Y-57764701D01*
X132115560Y-58313299D01*
X132190192Y-58688497D01*
X132402724Y-59006575D01*
X132460290Y-59045040D01*
X131544428Y-59960902D01*
X131579620Y-59783980D01*
X131579620Y-59147344D01*
X131790296Y-59006575D01*
X132002828Y-58688497D01*
X132077460Y-58313299D01*
X132077460Y-57764701D01*
X132002828Y-57389503D01*
X131790296Y-57071425D01*
X131472218Y-56858893D01*
X131097020Y-56784261D01*
X130721822Y-56858893D01*
X130403744Y-57071425D01*
X130191212Y-57389503D01*
X130116580Y-57764701D01*
X130116580Y-58313299D01*
X130191212Y-58688497D01*
X130403744Y-59006575D01*
X130614420Y-59147344D01*
X130614420Y-59584081D01*
X129578100Y-60620401D01*
X129578100Y-59147344D01*
X129788776Y-59006575D01*
X130001308Y-58688497D01*
X130075940Y-58313299D01*
X130075940Y-57764701D01*
X130001308Y-57389503D01*
X129788776Y-57071425D01*
X129470698Y-56858893D01*
X129095500Y-56784261D01*
X128720302Y-56858893D01*
X128402224Y-57071425D01*
X128189692Y-57389503D01*
X128115060Y-57764701D01*
X128115060Y-58313299D01*
X128189692Y-58688497D01*
X128402224Y-59006575D01*
X128612900Y-59147344D01*
X128612900Y-59958800D01*
X128529259Y-59875013D01*
X128279054Y-59771118D01*
X128008135Y-59770882D01*
X127757748Y-59874339D01*
X127566013Y-60065741D01*
X127462118Y-60315946D01*
X127461882Y-60586865D01*
X127565339Y-60837252D01*
X127756741Y-61028987D01*
X128006946Y-61132882D01*
X128277865Y-61133118D01*
X128321349Y-61115151D01*
X127435100Y-62001400D01*
X123262326Y-62001400D01*
X123077643Y-62038136D01*
X122921076Y-62142750D01*
X122921074Y-62142753D01*
X119673750Y-65390076D01*
X119569136Y-65546643D01*
X119532400Y-65731326D01*
X119532400Y-85609604D01*
X119479985Y-85557098D01*
X119257121Y-85464556D01*
X119258039Y-85459940D01*
X119183407Y-85084742D01*
X118970875Y-84766664D01*
X118652797Y-84554132D01*
X118277599Y-84479500D01*
X117729001Y-84479500D01*
X117353803Y-84554132D01*
X117035725Y-84766664D01*
X116823193Y-85084742D01*
X116748561Y-85459940D01*
X116823193Y-85835138D01*
X117035725Y-86153216D01*
X117353803Y-86365748D01*
X117729001Y-86440380D01*
X118277599Y-86440380D01*
X118467808Y-86402545D01*
X118516065Y-86519337D01*
X118530585Y-86533882D01*
X118277599Y-86483560D01*
X117729001Y-86483560D01*
X117353803Y-86558192D01*
X117035725Y-86770724D01*
X116823193Y-87088802D01*
X116748561Y-87464000D01*
X116823193Y-87839198D01*
X117035725Y-88157276D01*
X117353803Y-88369808D01*
X117729001Y-88444440D01*
X118277599Y-88444440D01*
X118652797Y-88369808D01*
X118970875Y-88157276D01*
X119183407Y-87839198D01*
X119258039Y-87464000D01*
X119183407Y-87088802D01*
X119000462Y-86815004D01*
X119228591Y-86815203D01*
X119478978Y-86711746D01*
X119532400Y-86658417D01*
X119532400Y-99949000D01*
X119569136Y-100133683D01*
X119673750Y-100290250D01*
X121832768Y-102449267D01*
X121832770Y-102449270D01*
X121951705Y-102528739D01*
X121989337Y-102553884D01*
X122174020Y-102590620D01*
X125199880Y-102590620D01*
X123840648Y-103949852D01*
X123703259Y-103812223D01*
X123453054Y-103708328D01*
X123182135Y-103708092D01*
X122931748Y-103811549D01*
X122740013Y-104002951D01*
X122636118Y-104253156D01*
X122635882Y-104524075D01*
X122739339Y-104774462D01*
X122930741Y-104966197D01*
X123180946Y-105070092D01*
X123451865Y-105070328D01*
X123677397Y-104977141D01*
X123677397Y-105110001D01*
X123714133Y-105294684D01*
X123779011Y-105391782D01*
X123778878Y-105544865D01*
X123882335Y-105795252D01*
X124073737Y-105986987D01*
X124323942Y-106090882D01*
X124594861Y-106091118D01*
X124845248Y-105987661D01*
X125036983Y-105796259D01*
X125140878Y-105546054D01*
X125140882Y-105541119D01*
X125144861Y-105541122D01*
X125395248Y-105437665D01*
X125586983Y-105246263D01*
X125658124Y-105074938D01*
X125748266Y-105075016D01*
X125845316Y-105139863D01*
X126029999Y-105176600D01*
X126030004Y-105176599D01*
X131161050Y-105176599D01*
X131059748Y-105218456D01*
X130868013Y-105409858D01*
X130764118Y-105660063D01*
X130763882Y-105930982D01*
X130811682Y-106046667D01*
X130697171Y-105999118D01*
X130426252Y-105998882D01*
X130175865Y-106102339D01*
X129984130Y-106293741D01*
X129880235Y-106543946D01*
X129879999Y-106814865D01*
X129983456Y-107065252D01*
X130174858Y-107256987D01*
X130425063Y-107360882D01*
X130695982Y-107361118D01*
X130811667Y-107313318D01*
X130764118Y-107427829D01*
X130763882Y-107698748D01*
X130867339Y-107949135D01*
X131058741Y-108140870D01*
X131308946Y-108244765D01*
X131579865Y-108245001D01*
X131830252Y-108141544D01*
X131887029Y-108084865D01*
X135081882Y-108084865D01*
X135185339Y-108335252D01*
X135376741Y-108526987D01*
X135626946Y-108630882D01*
X135897865Y-108631118D01*
X136148252Y-108527661D01*
X136339987Y-108336259D01*
X136443882Y-108086054D01*
X136444118Y-107815135D01*
X136340661Y-107564748D01*
X136149259Y-107373013D01*
X135899054Y-107269118D01*
X135628135Y-107268882D01*
X135377748Y-107372339D01*
X135186013Y-107563741D01*
X135082118Y-107813946D01*
X135081882Y-108084865D01*
X131887029Y-108084865D01*
X132021987Y-107950142D01*
X132125882Y-107699937D01*
X132126118Y-107429018D01*
X132078318Y-107313333D01*
X132192829Y-107360882D01*
X132463748Y-107361118D01*
X132714135Y-107257661D01*
X132905870Y-107066259D01*
X133009765Y-106816054D01*
X133010001Y-106545135D01*
X132906544Y-106294748D01*
X132715142Y-106103013D01*
X132464937Y-105999118D01*
X132194018Y-105998882D01*
X132078333Y-106046682D01*
X132125882Y-105932171D01*
X132126118Y-105661252D01*
X132022661Y-105410865D01*
X131831259Y-105219130D01*
X131728834Y-105176599D01*
X133344833Y-105176599D01*
X133529516Y-105139863D01*
X133638749Y-105066876D01*
X137259699Y-105066876D01*
X137363156Y-105317263D01*
X137554558Y-105508998D01*
X137804763Y-105612893D01*
X138075682Y-105613129D01*
X138326069Y-105509672D01*
X138517804Y-105318270D01*
X138621699Y-105068065D01*
X138621935Y-104797146D01*
X138518478Y-104546759D01*
X138327076Y-104355024D01*
X138076871Y-104251129D01*
X137805952Y-104250893D01*
X137555565Y-104354350D01*
X137363830Y-104545752D01*
X137259935Y-104795957D01*
X137259699Y-105066876D01*
X133638749Y-105066876D01*
X133686083Y-105035249D01*
X135259265Y-103462066D01*
X135743213Y-103462066D01*
X135846670Y-103712453D01*
X136038072Y-103904188D01*
X136288277Y-104008083D01*
X136559196Y-104008319D01*
X136809583Y-103904862D01*
X137001318Y-103713460D01*
X137105213Y-103463255D01*
X137105449Y-103192336D01*
X137001992Y-102941949D01*
X136810590Y-102750214D01*
X136560385Y-102646319D01*
X136289466Y-102646083D01*
X136039079Y-102749540D01*
X135847344Y-102940942D01*
X135743449Y-103191147D01*
X135743213Y-103462066D01*
X135259265Y-103462066D01*
X137245648Y-101475683D01*
X137409325Y-101639645D01*
X137659530Y-101743540D01*
X137930449Y-101743776D01*
X138180836Y-101640319D01*
X138372571Y-101448917D01*
X138476466Y-101198712D01*
X138476702Y-100927793D01*
X138373245Y-100677406D01*
X138181843Y-100485671D01*
X138023622Y-100419971D01*
X138023622Y-98912472D01*
X138190802Y-98981892D01*
X138211519Y-98981910D01*
X138130118Y-99177944D01*
X138129882Y-99448863D01*
X138233339Y-99699250D01*
X138424741Y-99890985D01*
X138674946Y-99994880D01*
X138945865Y-99995116D01*
X139196252Y-99891659D01*
X139387987Y-99700257D01*
X139491882Y-99450052D01*
X139492118Y-99179133D01*
X139388661Y-98928746D01*
X139197259Y-98737011D01*
X138947054Y-98633116D01*
X138926337Y-98633098D01*
X139007738Y-98437064D01*
X139007974Y-98166145D01*
X138904517Y-97915758D01*
X138776055Y-97787072D01*
X138870479Y-97692812D01*
X138974374Y-97442607D01*
X138974610Y-97171688D01*
X138871153Y-96921301D01*
X138679751Y-96729566D01*
X138591765Y-96693031D01*
X138691865Y-96693118D01*
X138942252Y-96589661D01*
X139133987Y-96398259D01*
X139237882Y-96148054D01*
X139238118Y-95877135D01*
X139134777Y-95627028D01*
X139149095Y-95612735D01*
X139252990Y-95362530D01*
X139253226Y-95091611D01*
X139149769Y-94841224D01*
X139136491Y-94827923D01*
X139237414Y-94584874D01*
X139237650Y-94313955D01*
X139134193Y-94063568D01*
X138967936Y-93897022D01*
X139133987Y-93731259D01*
X139237882Y-93481054D01*
X139238118Y-93210135D01*
X139137232Y-92965971D01*
X139158689Y-92944551D01*
X139262584Y-92694346D01*
X139262820Y-92423427D01*
X139159363Y-92173040D01*
X139092402Y-92105963D01*
X139133989Y-92064448D01*
X139237884Y-91814243D01*
X139238120Y-91543324D01*
X139187958Y-91421921D01*
X139229615Y-91439219D01*
X139500534Y-91439455D01*
X139544000Y-91421495D01*
X139544000Y-110046334D01*
X139515661Y-109977748D01*
X139324259Y-109786013D01*
X139189792Y-109730177D01*
X139134661Y-109596748D01*
X138943259Y-109405013D01*
X138693054Y-109301118D01*
X138422135Y-109300882D01*
X138171748Y-109404339D01*
X138025116Y-109550716D01*
X137991661Y-109469748D01*
X137800259Y-109278013D01*
X137550054Y-109174118D01*
X137279135Y-109173882D01*
X137028748Y-109277339D01*
X136837013Y-109468741D01*
X136733118Y-109718946D01*
X136732882Y-109989865D01*
X136836339Y-110240252D01*
X137027741Y-110431987D01*
X137277946Y-110535882D01*
X137548865Y-110536118D01*
X137799252Y-110432661D01*
X137945884Y-110286284D01*
X137979339Y-110367252D01*
X138170741Y-110558987D01*
X138305208Y-110614823D01*
X138360339Y-110748252D01*
X138551741Y-110939987D01*
X138686208Y-110995823D01*
X138741339Y-111129252D01*
X138932741Y-111320987D01*
X139182946Y-111424882D01*
X139453865Y-111425118D01*
X139544000Y-111387875D01*
X139544000Y-114544000D01*
X138378323Y-114544000D01*
X138475882Y-114309054D01*
X138476118Y-114038135D01*
X138372661Y-113787748D01*
X138296041Y-113710994D01*
X138437865Y-113711118D01*
X138688252Y-113607661D01*
X138879987Y-113416259D01*
X138983882Y-113166054D01*
X138984118Y-112895135D01*
X138880661Y-112644748D01*
X138689259Y-112453013D01*
X138439054Y-112349118D01*
X138168135Y-112348882D01*
X137917748Y-112452339D01*
X137726013Y-112643741D01*
X137622118Y-112893946D01*
X137621882Y-113164865D01*
X137725339Y-113415252D01*
X137801959Y-113492006D01*
X137660135Y-113491882D01*
X137409748Y-113595339D01*
X137218013Y-113786741D01*
X137114118Y-114036946D01*
X137113882Y-114307865D01*
X137211450Y-114544000D01*
X136697899Y-114544000D01*
X136698118Y-114292135D01*
X136594661Y-114041748D01*
X136403259Y-113850013D01*
X136178833Y-113756822D01*
X136086661Y-113533748D01*
X135895259Y-113342013D01*
X135809092Y-113306233D01*
X135809118Y-113276135D01*
X135705661Y-113025748D01*
X135514259Y-112834013D01*
X135264054Y-112730118D01*
X134993135Y-112729882D01*
X134742748Y-112833339D01*
X134551013Y-113024741D01*
X134447118Y-113274946D01*
X134446882Y-113545865D01*
X134550339Y-113796252D01*
X134741741Y-113987987D01*
X134827908Y-114023767D01*
X134827882Y-114053865D01*
X134931339Y-114304252D01*
X135122741Y-114495987D01*
X135238368Y-114544000D01*
X133351059Y-114544000D01*
X133395882Y-114436054D01*
X133396118Y-114165135D01*
X133292661Y-113914748D01*
X133101259Y-113723013D01*
X132851054Y-113619118D01*
X132580135Y-113618882D01*
X132329748Y-113722339D01*
X132138013Y-113913741D01*
X132034118Y-114163946D01*
X132033882Y-114434865D01*
X132078975Y-114544000D01*
X126723741Y-114544000D01*
X126848278Y-114519228D01*
X127150316Y-114317412D01*
X127352132Y-114015374D01*
X127423000Y-113659096D01*
X127423000Y-112908904D01*
X127352132Y-112552626D01*
X127336924Y-112529865D01*
X130509882Y-112529865D01*
X130613339Y-112780252D01*
X130804741Y-112971987D01*
X131054946Y-113075882D01*
X131325865Y-113076118D01*
X131576252Y-112972661D01*
X131767987Y-112781259D01*
X131871882Y-112531054D01*
X131872118Y-112260135D01*
X131768661Y-112009748D01*
X131577259Y-111818013D01*
X131327054Y-111714118D01*
X131056135Y-111713882D01*
X130805748Y-111817339D01*
X130614013Y-112008741D01*
X130510118Y-112258946D01*
X130509882Y-112529865D01*
X127336924Y-112529865D01*
X127150316Y-112250588D01*
X126848278Y-112048772D01*
X126492000Y-111977904D01*
X126135722Y-112048772D01*
X125833684Y-112250588D01*
X125631868Y-112552626D01*
X125561000Y-112908904D01*
X125561000Y-113659096D01*
X125631868Y-114015374D01*
X125833684Y-114317412D01*
X126135722Y-114519228D01*
X126260259Y-114544000D01*
X117044911Y-114544000D01*
X116412555Y-114418216D01*
X115914544Y-114085456D01*
X115581784Y-113587445D01*
X115456000Y-112955088D01*
X115456000Y-110088701D01*
X116273580Y-110088701D01*
X116273580Y-110637299D01*
X116348212Y-111012497D01*
X116560744Y-111330575D01*
X116878822Y-111543107D01*
X117254020Y-111617739D01*
X117629218Y-111543107D01*
X117947296Y-111330575D01*
X118159828Y-111012497D01*
X118234460Y-110637299D01*
X118234460Y-110088701D01*
X118272560Y-110088701D01*
X118272560Y-110637299D01*
X118347192Y-111012497D01*
X118559724Y-111330575D01*
X118877802Y-111543107D01*
X119253000Y-111617739D01*
X119628198Y-111543107D01*
X119946276Y-111330575D01*
X120158808Y-111012497D01*
X120233440Y-110637299D01*
X120233440Y-110088701D01*
X120274080Y-110088701D01*
X120274080Y-110637299D01*
X120348712Y-111012497D01*
X120561244Y-111330575D01*
X120879322Y-111543107D01*
X121254520Y-111617739D01*
X121629718Y-111543107D01*
X121947796Y-111330575D01*
X122160328Y-111012497D01*
X122234960Y-110637299D01*
X122234960Y-110088701D01*
X122160328Y-109713503D01*
X122026604Y-109513370D01*
X122268136Y-109513370D01*
X122268136Y-111212630D01*
X122294703Y-111353820D01*
X122378146Y-111483495D01*
X122505466Y-111570489D01*
X122656600Y-111601094D01*
X123855480Y-111601094D01*
X123996670Y-111574527D01*
X124126345Y-111491084D01*
X124213339Y-111363764D01*
X124243944Y-111212630D01*
X124243944Y-109904985D01*
X127711000Y-109904985D01*
X127711000Y-111063015D01*
X127781868Y-111419293D01*
X127983684Y-111721331D01*
X128285722Y-111923147D01*
X128642000Y-111994015D01*
X128998278Y-111923147D01*
X129300316Y-111721331D01*
X129315942Y-111697945D01*
X129343339Y-111764252D01*
X129534741Y-111955987D01*
X129784946Y-112059882D01*
X130055865Y-112060118D01*
X130306252Y-111956661D01*
X130497987Y-111765259D01*
X130601882Y-111515054D01*
X130602118Y-111244135D01*
X130498661Y-110993748D01*
X130307259Y-110802013D01*
X130057054Y-110698118D01*
X129786135Y-110697882D01*
X129573000Y-110785947D01*
X129573000Y-110181341D01*
X129597339Y-110240246D01*
X129788741Y-110431981D01*
X130038946Y-110535876D01*
X130309865Y-110536112D01*
X130560252Y-110432655D01*
X130751987Y-110241253D01*
X130855882Y-109991048D01*
X130856118Y-109720129D01*
X130752661Y-109469742D01*
X130573444Y-109290213D01*
X130601011Y-109223825D01*
X130601247Y-108952906D01*
X130497790Y-108702519D01*
X130306388Y-108510784D01*
X130056183Y-108406889D01*
X129785264Y-108406653D01*
X129534877Y-108510110D01*
X129343142Y-108701512D01*
X129239247Y-108951717D01*
X129239026Y-109205716D01*
X128998278Y-109044853D01*
X128642000Y-108973985D01*
X128285722Y-109044853D01*
X127983684Y-109246669D01*
X127781868Y-109548707D01*
X127711000Y-109904985D01*
X124243944Y-109904985D01*
X124243944Y-109513370D01*
X124217377Y-109372180D01*
X124133934Y-109242505D01*
X124006614Y-109155511D01*
X123855480Y-109124906D01*
X122656600Y-109124906D01*
X122515410Y-109151473D01*
X122385735Y-109234916D01*
X122298741Y-109362236D01*
X122268136Y-109513370D01*
X122026604Y-109513370D01*
X121947796Y-109395425D01*
X121629718Y-109182893D01*
X121254520Y-109108261D01*
X120879322Y-109182893D01*
X120561244Y-109395425D01*
X120348712Y-109713503D01*
X120274080Y-110088701D01*
X120233440Y-110088701D01*
X120158808Y-109713503D01*
X119946276Y-109395425D01*
X119628198Y-109182893D01*
X119253000Y-109108261D01*
X118877802Y-109182893D01*
X118559724Y-109395425D01*
X118347192Y-109713503D01*
X118272560Y-110088701D01*
X118234460Y-110088701D01*
X118159828Y-109713503D01*
X117947296Y-109395425D01*
X117629218Y-109182893D01*
X117254020Y-109108261D01*
X116878822Y-109182893D01*
X116560744Y-109395425D01*
X116348212Y-109713503D01*
X116273580Y-110088701D01*
X115456000Y-110088701D01*
X115456000Y-108338865D01*
X118063882Y-108338865D01*
X118167339Y-108589252D01*
X118358741Y-108780987D01*
X118608946Y-108884882D01*
X118879865Y-108885118D01*
X119130252Y-108781661D01*
X119321987Y-108590259D01*
X119425882Y-108340054D01*
X119426118Y-108069135D01*
X119322661Y-107818748D01*
X119131259Y-107627013D01*
X118881054Y-107523118D01*
X118610135Y-107522882D01*
X118359748Y-107626339D01*
X118168013Y-107817741D01*
X118064118Y-108067946D01*
X118063882Y-108338865D01*
X115456000Y-108338865D01*
X115456000Y-107308904D01*
X125561000Y-107308904D01*
X125561000Y-108059096D01*
X125631868Y-108415374D01*
X125833684Y-108717412D01*
X126135722Y-108919228D01*
X126492000Y-108990096D01*
X126848278Y-108919228D01*
X127150316Y-108717412D01*
X127352132Y-108415374D01*
X127423000Y-108059096D01*
X127423000Y-107308904D01*
X127352132Y-106952626D01*
X127150316Y-106650588D01*
X126848278Y-106448772D01*
X126492000Y-106377904D01*
X126135722Y-106448772D01*
X125833684Y-106650588D01*
X125631868Y-106952626D01*
X125561000Y-107308904D01*
X115456000Y-107308904D01*
X115456000Y-105384600D01*
X116744906Y-105384600D01*
X116744906Y-106583480D01*
X116771473Y-106724670D01*
X116854916Y-106854345D01*
X116982236Y-106941339D01*
X117133370Y-106971944D01*
X118832630Y-106971944D01*
X118973820Y-106945377D01*
X119103495Y-106861934D01*
X119190489Y-106734614D01*
X119221094Y-106583480D01*
X119221094Y-105384600D01*
X119194527Y-105243410D01*
X119111084Y-105113735D01*
X118983764Y-105026741D01*
X118832630Y-104996136D01*
X117133370Y-104996136D01*
X116992180Y-105022703D01*
X116862505Y-105106146D01*
X116775511Y-105233466D01*
X116744906Y-105384600D01*
X115456000Y-105384600D01*
X115456000Y-103982520D01*
X116728261Y-103982520D01*
X116802893Y-104357718D01*
X117015425Y-104675796D01*
X117333503Y-104888328D01*
X117708701Y-104962960D01*
X118257299Y-104962960D01*
X118632497Y-104888328D01*
X118950575Y-104675796D01*
X119163107Y-104357718D01*
X119237739Y-103982520D01*
X119163107Y-103607322D01*
X118950575Y-103289244D01*
X118632497Y-103076712D01*
X118257299Y-103002080D01*
X117708701Y-103002080D01*
X117333503Y-103076712D01*
X117015425Y-103289244D01*
X116802893Y-103607322D01*
X116728261Y-103982520D01*
X115456000Y-103982520D01*
X115456000Y-101981000D01*
X116728261Y-101981000D01*
X116802893Y-102356198D01*
X117015425Y-102674276D01*
X117333503Y-102886808D01*
X117708701Y-102961440D01*
X118257299Y-102961440D01*
X118632497Y-102886808D01*
X118950575Y-102674276D01*
X119163107Y-102356198D01*
X119237739Y-101981000D01*
X119163107Y-101605802D01*
X118950575Y-101287724D01*
X118632497Y-101075192D01*
X118257299Y-101000560D01*
X117708701Y-101000560D01*
X117333503Y-101075192D01*
X117015425Y-101287724D01*
X116802893Y-101605802D01*
X116728261Y-101981000D01*
X115456000Y-101981000D01*
X115456000Y-91782021D01*
X116560205Y-91782021D01*
X116575401Y-91873933D01*
X116821732Y-92293457D01*
X117083536Y-92491313D01*
X117012480Y-92504683D01*
X116882805Y-92588126D01*
X116795811Y-92715446D01*
X116765206Y-92866580D01*
X116765206Y-94065460D01*
X116791773Y-94206650D01*
X116875216Y-94336325D01*
X117002536Y-94423319D01*
X117153670Y-94453924D01*
X118852930Y-94453924D01*
X118994120Y-94427357D01*
X119123795Y-94343914D01*
X119210789Y-94216594D01*
X119241394Y-94065460D01*
X119241394Y-92866580D01*
X119214827Y-92725390D01*
X119131384Y-92595715D01*
X119004064Y-92508721D01*
X118922015Y-92492106D01*
X119184868Y-92293457D01*
X119431199Y-91873933D01*
X119446395Y-91782021D01*
X119321657Y-91591500D01*
X118130300Y-91591500D01*
X118130300Y-91611500D01*
X117876300Y-91611500D01*
X117876300Y-91591500D01*
X116684943Y-91591500D01*
X116560205Y-91782021D01*
X115456000Y-91782021D01*
X115456000Y-91146979D01*
X116560205Y-91146979D01*
X116684943Y-91337500D01*
X117876300Y-91337500D01*
X117876300Y-91317500D01*
X118130300Y-91317500D01*
X118130300Y-91337500D01*
X119321657Y-91337500D01*
X119446395Y-91146979D01*
X119431199Y-91055067D01*
X119184868Y-90635543D01*
X118796743Y-90342221D01*
X118721750Y-90322715D01*
X118970875Y-90156256D01*
X119183407Y-89838178D01*
X119258039Y-89462980D01*
X119183407Y-89087782D01*
X118970875Y-88769704D01*
X118652797Y-88557172D01*
X118277599Y-88482540D01*
X117729001Y-88482540D01*
X117353803Y-88557172D01*
X117035725Y-88769704D01*
X116823193Y-89087782D01*
X116748561Y-89462980D01*
X116823193Y-89838178D01*
X117035725Y-90156256D01*
X117284850Y-90322715D01*
X117209857Y-90342221D01*
X116821732Y-90635543D01*
X116575401Y-91055067D01*
X116560205Y-91146979D01*
X115456000Y-91146979D01*
X115456000Y-83458420D01*
X116748561Y-83458420D01*
X116823193Y-83833618D01*
X117035725Y-84151696D01*
X117353803Y-84364228D01*
X117729001Y-84438860D01*
X118277599Y-84438860D01*
X118652797Y-84364228D01*
X118970875Y-84151696D01*
X119183407Y-83833618D01*
X119258039Y-83458420D01*
X119183407Y-83083222D01*
X118970875Y-82765144D01*
X118652797Y-82552612D01*
X118277599Y-82477980D01*
X117729001Y-82477980D01*
X117353803Y-82552612D01*
X117035725Y-82765144D01*
X116823193Y-83083222D01*
X116748561Y-83458420D01*
X115456000Y-83458420D01*
X115456000Y-81459440D01*
X116748561Y-81459440D01*
X116823193Y-81834638D01*
X117035725Y-82152716D01*
X117353803Y-82365248D01*
X117729001Y-82439880D01*
X118277599Y-82439880D01*
X118652797Y-82365248D01*
X118970875Y-82152716D01*
X119183407Y-81834638D01*
X119258039Y-81459440D01*
X119183407Y-81084242D01*
X118970875Y-80766164D01*
X118652797Y-80553632D01*
X118277599Y-80479000D01*
X117729001Y-80479000D01*
X117353803Y-80553632D01*
X117035725Y-80766164D01*
X116823193Y-81084242D01*
X116748561Y-81459440D01*
X115456000Y-81459440D01*
X115456000Y-79460460D01*
X116748561Y-79460460D01*
X116823193Y-79835658D01*
X117035725Y-80153736D01*
X117353803Y-80366268D01*
X117729001Y-80440900D01*
X118277599Y-80440900D01*
X118652797Y-80366268D01*
X118970875Y-80153736D01*
X119183407Y-79835658D01*
X119258039Y-79460460D01*
X119183407Y-79085262D01*
X118970875Y-78767184D01*
X118652797Y-78554652D01*
X118277599Y-78480020D01*
X118063019Y-78480020D01*
X118178987Y-78364253D01*
X118282882Y-78114048D01*
X118283118Y-77843129D01*
X118179661Y-77592742D01*
X117988259Y-77401007D01*
X117738054Y-77297112D01*
X117467135Y-77296876D01*
X117216748Y-77400333D01*
X117025013Y-77591735D01*
X116921118Y-77841940D01*
X116920882Y-78112859D01*
X117024339Y-78363246D01*
X117215741Y-78554981D01*
X117300584Y-78590211D01*
X117035725Y-78767184D01*
X116823193Y-79085262D01*
X116748561Y-79460460D01*
X115456000Y-79460460D01*
X115456000Y-74330560D01*
X116744906Y-74330560D01*
X116744906Y-75529440D01*
X116771473Y-75670630D01*
X116854916Y-75800305D01*
X116982236Y-75887299D01*
X117133370Y-75917904D01*
X118832630Y-75917904D01*
X118973820Y-75891337D01*
X119103495Y-75807894D01*
X119190489Y-75680574D01*
X119221094Y-75529440D01*
X119221094Y-74330560D01*
X119194527Y-74189370D01*
X119111084Y-74059695D01*
X118983764Y-73972701D01*
X118832630Y-73942096D01*
X117133370Y-73942096D01*
X116992180Y-73968663D01*
X116862505Y-74052106D01*
X116775511Y-74179426D01*
X116744906Y-74330560D01*
X115456000Y-74330560D01*
X115456000Y-72928480D01*
X116728261Y-72928480D01*
X116802893Y-73303678D01*
X117015425Y-73621756D01*
X117333503Y-73834288D01*
X117708701Y-73908920D01*
X118257299Y-73908920D01*
X118632497Y-73834288D01*
X118950575Y-73621756D01*
X119163107Y-73303678D01*
X119237739Y-72928480D01*
X119163107Y-72553282D01*
X118950575Y-72235204D01*
X118632497Y-72022672D01*
X118257299Y-71948040D01*
X117708701Y-71948040D01*
X117333503Y-72022672D01*
X117015425Y-72235204D01*
X116802893Y-72553282D01*
X116728261Y-72928480D01*
X115456000Y-72928480D01*
X115456000Y-70926960D01*
X116728261Y-70926960D01*
X116802893Y-71302158D01*
X117015425Y-71620236D01*
X117333503Y-71832768D01*
X117708701Y-71907400D01*
X118257299Y-71907400D01*
X118632497Y-71832768D01*
X118950575Y-71620236D01*
X119163107Y-71302158D01*
X119237739Y-70926960D01*
X119163107Y-70551762D01*
X118950575Y-70233684D01*
X118632497Y-70021152D01*
X118257299Y-69946520D01*
X117708701Y-69946520D01*
X117333503Y-70021152D01*
X117015425Y-70233684D01*
X116802893Y-70551762D01*
X116728261Y-70926960D01*
X115456000Y-70926960D01*
X115456000Y-67243981D01*
X116539905Y-67243981D01*
X116555101Y-67335893D01*
X116801432Y-67755417D01*
X117189557Y-68048739D01*
X117264550Y-68068245D01*
X117015425Y-68234704D01*
X116802893Y-68552782D01*
X116728261Y-68927980D01*
X116802893Y-69303178D01*
X117015425Y-69621256D01*
X117333503Y-69833788D01*
X117708701Y-69908420D01*
X118257299Y-69908420D01*
X118632497Y-69833788D01*
X118950575Y-69621256D01*
X119163107Y-69303178D01*
X119237739Y-68927980D01*
X119163107Y-68552782D01*
X118950575Y-68234704D01*
X118701450Y-68068245D01*
X118776443Y-68048739D01*
X119164568Y-67755417D01*
X119410899Y-67335893D01*
X119426095Y-67243981D01*
X119301357Y-67053460D01*
X118110000Y-67053460D01*
X118110000Y-67073460D01*
X117856000Y-67073460D01*
X117856000Y-67053460D01*
X116664643Y-67053460D01*
X116539905Y-67243981D01*
X115456000Y-67243981D01*
X115456000Y-66608939D01*
X116539905Y-66608939D01*
X116664643Y-66799460D01*
X117856000Y-66799460D01*
X117856000Y-65844460D01*
X118110000Y-65844460D01*
X118110000Y-66799460D01*
X119301357Y-66799460D01*
X119426095Y-66608939D01*
X119410899Y-66517027D01*
X119164568Y-66097503D01*
X118776443Y-65804181D01*
X118305613Y-65681715D01*
X118110000Y-65844460D01*
X117856000Y-65844460D01*
X117660387Y-65681715D01*
X117189557Y-65804181D01*
X116801432Y-66097503D01*
X116555101Y-66517027D01*
X116539905Y-66608939D01*
X115456000Y-66608939D01*
X115456000Y-62491865D01*
X118317882Y-62491865D01*
X118421339Y-62742252D01*
X118612741Y-62933987D01*
X118837152Y-63027171D01*
X118929339Y-63250282D01*
X119120741Y-63442017D01*
X119370946Y-63545912D01*
X119641865Y-63546148D01*
X119892252Y-63442691D01*
X120083987Y-63251289D01*
X120187882Y-63001084D01*
X120188118Y-62730165D01*
X120084661Y-62479778D01*
X119893259Y-62288043D01*
X119668848Y-62194859D01*
X119576661Y-61971748D01*
X119385259Y-61780013D01*
X119135054Y-61676118D01*
X118864135Y-61675882D01*
X118613748Y-61779339D01*
X118422013Y-61970741D01*
X118318118Y-62220946D01*
X118317882Y-62491865D01*
X115456000Y-62491865D01*
X115456000Y-61094867D01*
X124667882Y-61094867D01*
X124771339Y-61345254D01*
X124962741Y-61536989D01*
X125212946Y-61640884D01*
X125483865Y-61641120D01*
X125730303Y-61539295D01*
X125974950Y-61640882D01*
X126245869Y-61641118D01*
X126428643Y-61565598D01*
X126609946Y-61640882D01*
X126880865Y-61641118D01*
X127131252Y-61537661D01*
X127322987Y-61346259D01*
X127426882Y-61096054D01*
X127427118Y-60825135D01*
X127323661Y-60574748D01*
X127132259Y-60383013D01*
X126882054Y-60279118D01*
X126611135Y-60278882D01*
X126428361Y-60354402D01*
X126247058Y-60279118D01*
X125976139Y-60278882D01*
X125729701Y-60380707D01*
X125485054Y-60279120D01*
X125214135Y-60278884D01*
X124963748Y-60382341D01*
X124772013Y-60573743D01*
X124668118Y-60823948D01*
X124667882Y-61094867D01*
X115456000Y-61094867D01*
X115456000Y-59651571D01*
X118064856Y-59651571D01*
X118191102Y-59957109D01*
X118424662Y-60191077D01*
X118729979Y-60317855D01*
X119060571Y-60318144D01*
X119366109Y-60191898D01*
X119600077Y-59958338D01*
X119726855Y-59653021D01*
X119726856Y-59651571D01*
X121064856Y-59651571D01*
X121191102Y-59957109D01*
X121424662Y-60191077D01*
X121729979Y-60317855D01*
X122060571Y-60318144D01*
X122366109Y-60191898D01*
X122600077Y-59958338D01*
X122726855Y-59653021D01*
X122727144Y-59322429D01*
X122600898Y-59016891D01*
X122367338Y-58782923D01*
X122352321Y-58776687D01*
X122432252Y-58743661D01*
X122527478Y-58648600D01*
X123571000Y-58648600D01*
X123755683Y-58611864D01*
X123912250Y-58507250D01*
X125230130Y-57189370D01*
X126106076Y-57189370D01*
X126106076Y-58888630D01*
X126132643Y-59029820D01*
X126216086Y-59159495D01*
X126343406Y-59246489D01*
X126494540Y-59277094D01*
X127693420Y-59277094D01*
X127834610Y-59250527D01*
X127964285Y-59167084D01*
X128051279Y-59039764D01*
X128081884Y-58888630D01*
X128081884Y-57189370D01*
X128055317Y-57048180D01*
X127971874Y-56918505D01*
X127844554Y-56831511D01*
X127693420Y-56800906D01*
X126494540Y-56800906D01*
X126353350Y-56827473D01*
X126223675Y-56910916D01*
X126136681Y-57038236D01*
X126106076Y-57189370D01*
X125230130Y-57189370D01*
X125802900Y-56616600D01*
X136046970Y-56616600D01*
X136463331Y-57032960D01*
X136405764Y-57071425D01*
X136193232Y-57389503D01*
X136118600Y-57764701D01*
X136118600Y-58313299D01*
X136193232Y-58688497D01*
X136405764Y-59006575D01*
X136723842Y-59219107D01*
X137099040Y-59293739D01*
X137474238Y-59219107D01*
X137792316Y-59006575D01*
X138004848Y-58688497D01*
X138031429Y-58554865D01*
X140034882Y-58554865D01*
X140138339Y-58805252D01*
X140329741Y-58996987D01*
X140579946Y-59100882D01*
X140850865Y-59101118D01*
X141101252Y-58997661D01*
X141292987Y-58806259D01*
X141396882Y-58556054D01*
X141397118Y-58285135D01*
X141293661Y-58034748D01*
X141102259Y-57843013D01*
X140852054Y-57739118D01*
X140581135Y-57738882D01*
X140330748Y-57842339D01*
X140139013Y-58033741D01*
X140035118Y-58283946D01*
X140034882Y-58554865D01*
X138031429Y-58554865D01*
X138079480Y-58313299D01*
X138079480Y-57764701D01*
X138004848Y-57389503D01*
X137792316Y-57071425D01*
X137568905Y-56922147D01*
X137544904Y-56801487D01*
X137440290Y-56644920D01*
X137440287Y-56644918D01*
X136588120Y-55792750D01*
X136431553Y-55688136D01*
X136246870Y-55651400D01*
X125603000Y-55651400D01*
X125418317Y-55688136D01*
X125261750Y-55792750D01*
X123371100Y-57683400D01*
X122527482Y-57683400D01*
X122433259Y-57589013D01*
X122183054Y-57485118D01*
X121912135Y-57484882D01*
X121661748Y-57588339D01*
X121470013Y-57779741D01*
X121366118Y-58029946D01*
X121365882Y-58300865D01*
X121469339Y-58551252D01*
X121619804Y-58701979D01*
X121425891Y-58782102D01*
X121191923Y-59015662D01*
X121065145Y-59320979D01*
X121064856Y-59651571D01*
X119726856Y-59651571D01*
X119727144Y-59322429D01*
X119600898Y-59016891D01*
X119367338Y-58782923D01*
X119062021Y-58656145D01*
X118731429Y-58655856D01*
X118425891Y-58782102D01*
X118191923Y-59015662D01*
X118065145Y-59320979D01*
X118064856Y-59651571D01*
X115456000Y-59651571D01*
X115456000Y-57044912D01*
X115581784Y-56412555D01*
X115914544Y-55914544D01*
X116412555Y-55581784D01*
X117044911Y-55456000D01*
X142716820Y-55456000D01*
X142679013Y-55493741D01*
G36*
X134550339Y-93222240D02*
X134741741Y-93413975D01*
X134991946Y-93517870D01*
X135126499Y-93517987D01*
X136296400Y-94687887D01*
X136296400Y-98822566D01*
X136211459Y-98737477D01*
X135961254Y-98633582D01*
X135690335Y-98633346D01*
X135439948Y-98736803D01*
X135248213Y-98928205D01*
X135144318Y-99178410D01*
X135144082Y-99449329D01*
X135247539Y-99699716D01*
X135438941Y-99891451D01*
X135689146Y-99995346D01*
X135960065Y-99995582D01*
X136210452Y-99892125D01*
X136296400Y-99806326D01*
X136296400Y-99982272D01*
X134570799Y-101707873D01*
X134386259Y-101523011D01*
X134136054Y-101419116D01*
X133865135Y-101418880D01*
X133614748Y-101522337D01*
X133423013Y-101713739D01*
X133319118Y-101963944D01*
X133318882Y-102234863D01*
X133381904Y-102387389D01*
X129810011Y-102387389D01*
X131568269Y-100629131D01*
X131701636Y-100629247D01*
X131859095Y-100564187D01*
X131947741Y-100652987D01*
X132197946Y-100756882D01*
X132468865Y-100757118D01*
X132719252Y-100653661D01*
X132910987Y-100462259D01*
X133014882Y-100212054D01*
X133015118Y-99941135D01*
X132911661Y-99690748D01*
X132720259Y-99499013D01*
X132470054Y-99395118D01*
X132199135Y-99394882D01*
X132041676Y-99459942D01*
X131953030Y-99371142D01*
X131702825Y-99267247D01*
X131431906Y-99267011D01*
X131181519Y-99370468D01*
X130989784Y-99561870D01*
X130989315Y-99562999D01*
X130944273Y-99517878D01*
X130694068Y-99413983D01*
X130423149Y-99413747D01*
X130280689Y-99472610D01*
X130180267Y-99372013D01*
X129930062Y-99268118D01*
X129659143Y-99267882D01*
X129408756Y-99371339D01*
X129239875Y-99539926D01*
X129208208Y-99508204D01*
X128958003Y-99404309D01*
X128687084Y-99404073D01*
X128445506Y-99503890D01*
X128407256Y-99411318D01*
X128215854Y-99219583D01*
X128012196Y-99135016D01*
X128012196Y-97990515D01*
X128125356Y-98037504D01*
X128396275Y-98037740D01*
X128646662Y-97934283D01*
X128741888Y-97839222D01*
X129230435Y-97839222D01*
X129415118Y-97802486D01*
X129571685Y-97697872D01*
X129885671Y-97383886D01*
X129960750Y-97496250D01*
X130418925Y-97954425D01*
X130575492Y-98059039D01*
X130760175Y-98095775D01*
X131407515Y-98095775D01*
X131592198Y-98059039D01*
X131689296Y-97994161D01*
X131842379Y-97994294D01*
X132092766Y-97890837D01*
X132284501Y-97699435D01*
X132388396Y-97449230D01*
X132388632Y-97178311D01*
X132285175Y-96927924D01*
X132093773Y-96736189D01*
X131850796Y-96635295D01*
X131865246Y-96562652D01*
X131865246Y-95396770D01*
X131928131Y-95422882D01*
X132199050Y-95423118D01*
X132449437Y-95319661D01*
X132516540Y-95252675D01*
X132582737Y-95318987D01*
X132638702Y-95342226D01*
X132466076Y-95514552D01*
X132362181Y-95764757D01*
X132361945Y-96035676D01*
X132465402Y-96286063D01*
X132656804Y-96477798D01*
X132907009Y-96581693D01*
X133177928Y-96581929D01*
X133428315Y-96478472D01*
X133521924Y-96385026D01*
X133598751Y-96461987D01*
X133848956Y-96565882D01*
X134119875Y-96566118D01*
X134218773Y-96525255D01*
X134296338Y-96712978D01*
X134487740Y-96904713D01*
X134737945Y-97008608D01*
X135008864Y-97008844D01*
X135259251Y-96905387D01*
X135450986Y-96713985D01*
X135554881Y-96463780D01*
X135555117Y-96192861D01*
X135451660Y-95942474D01*
X135260258Y-95750739D01*
X135010053Y-95646844D01*
X134739134Y-95646608D01*
X134640236Y-95687471D01*
X134562671Y-95499748D01*
X134371269Y-95308013D01*
X134333885Y-95292489D01*
X134383290Y-95243084D01*
X134487904Y-95086517D01*
X134524641Y-94901834D01*
X134524640Y-94901829D01*
X134524640Y-93160043D01*
X134550339Y-93222240D01*
X134550339Y-93222240D01*
G37*
X134550339Y-93222240D02*
X134741741Y-93413975D01*
X134991946Y-93517870D01*
X135126499Y-93517987D01*
X136296400Y-94687887D01*
X136296400Y-98822566D01*
X136211459Y-98737477D01*
X135961254Y-98633582D01*
X135690335Y-98633346D01*
X135439948Y-98736803D01*
X135248213Y-98928205D01*
X135144318Y-99178410D01*
X135144082Y-99449329D01*
X135247539Y-99699716D01*
X135438941Y-99891451D01*
X135689146Y-99995346D01*
X135960065Y-99995582D01*
X136210452Y-99892125D01*
X136296400Y-99806326D01*
X136296400Y-99982272D01*
X134570799Y-101707873D01*
X134386259Y-101523011D01*
X134136054Y-101419116D01*
X133865135Y-101418880D01*
X133614748Y-101522337D01*
X133423013Y-101713739D01*
X133319118Y-101963944D01*
X133318882Y-102234863D01*
X133381904Y-102387389D01*
X129810011Y-102387389D01*
X131568269Y-100629131D01*
X131701636Y-100629247D01*
X131859095Y-100564187D01*
X131947741Y-100652987D01*
X132197946Y-100756882D01*
X132468865Y-100757118D01*
X132719252Y-100653661D01*
X132910987Y-100462259D01*
X133014882Y-100212054D01*
X133015118Y-99941135D01*
X132911661Y-99690748D01*
X132720259Y-99499013D01*
X132470054Y-99395118D01*
X132199135Y-99394882D01*
X132041676Y-99459942D01*
X131953030Y-99371142D01*
X131702825Y-99267247D01*
X131431906Y-99267011D01*
X131181519Y-99370468D01*
X130989784Y-99561870D01*
X130989315Y-99562999D01*
X130944273Y-99517878D01*
X130694068Y-99413983D01*
X130423149Y-99413747D01*
X130280689Y-99472610D01*
X130180267Y-99372013D01*
X129930062Y-99268118D01*
X129659143Y-99267882D01*
X129408756Y-99371339D01*
X129239875Y-99539926D01*
X129208208Y-99508204D01*
X128958003Y-99404309D01*
X128687084Y-99404073D01*
X128445506Y-99503890D01*
X128407256Y-99411318D01*
X128215854Y-99219583D01*
X128012196Y-99135016D01*
X128012196Y-97990515D01*
X128125356Y-98037504D01*
X128396275Y-98037740D01*
X128646662Y-97934283D01*
X128741888Y-97839222D01*
X129230435Y-97839222D01*
X129415118Y-97802486D01*
X129571685Y-97697872D01*
X129885671Y-97383886D01*
X129960750Y-97496250D01*
X130418925Y-97954425D01*
X130575492Y-98059039D01*
X130760175Y-98095775D01*
X131407515Y-98095775D01*
X131592198Y-98059039D01*
X131689296Y-97994161D01*
X131842379Y-97994294D01*
X132092766Y-97890837D01*
X132284501Y-97699435D01*
X132388396Y-97449230D01*
X132388632Y-97178311D01*
X132285175Y-96927924D01*
X132093773Y-96736189D01*
X131850796Y-96635295D01*
X131865246Y-96562652D01*
X131865246Y-95396770D01*
X131928131Y-95422882D01*
X132199050Y-95423118D01*
X132449437Y-95319661D01*
X132516540Y-95252675D01*
X132582737Y-95318987D01*
X132638702Y-95342226D01*
X132466076Y-95514552D01*
X132362181Y-95764757D01*
X132361945Y-96035676D01*
X132465402Y-96286063D01*
X132656804Y-96477798D01*
X132907009Y-96581693D01*
X133177928Y-96581929D01*
X133428315Y-96478472D01*
X133521924Y-96385026D01*
X133598751Y-96461987D01*
X133848956Y-96565882D01*
X134119875Y-96566118D01*
X134218773Y-96525255D01*
X134296338Y-96712978D01*
X134487740Y-96904713D01*
X134737945Y-97008608D01*
X135008864Y-97008844D01*
X135259251Y-96905387D01*
X135450986Y-96713985D01*
X135554881Y-96463780D01*
X135555117Y-96192861D01*
X135451660Y-95942474D01*
X135260258Y-95750739D01*
X135010053Y-95646844D01*
X134739134Y-95646608D01*
X134640236Y-95687471D01*
X134562671Y-95499748D01*
X134371269Y-95308013D01*
X134333885Y-95292489D01*
X134383290Y-95243084D01*
X134487904Y-95086517D01*
X134524641Y-94901834D01*
X134524640Y-94901829D01*
X134524640Y-93160043D01*
X134550339Y-93222240D01*
G36*
X126274141Y-69336741D02*
X126170246Y-69586946D01*
X126170010Y-69857865D01*
X126273467Y-70108252D01*
X126464869Y-70299987D01*
X126715074Y-70403882D01*
X126985993Y-70404118D01*
X127236380Y-70300661D01*
X127428115Y-70109259D01*
X127532010Y-69859054D01*
X127532246Y-69588135D01*
X127428789Y-69337748D01*
X127280898Y-69189600D01*
X128950087Y-69189600D01*
X128962339Y-69219252D01*
X129153741Y-69410987D01*
X129356828Y-69495317D01*
X129281748Y-69526339D01*
X129090013Y-69717741D01*
X128986118Y-69967946D01*
X128985882Y-70238865D01*
X129089339Y-70489252D01*
X129198364Y-70598467D01*
X129198433Y-70598814D01*
X129027748Y-70669339D01*
X128836013Y-70860741D01*
X128732118Y-71110946D01*
X128731882Y-71381865D01*
X128835339Y-71632252D01*
X129014568Y-71811793D01*
X128987005Y-71878172D01*
X128986769Y-72149091D01*
X129090226Y-72399478D01*
X129146253Y-72455603D01*
X129090013Y-72511745D01*
X128986118Y-72761950D01*
X128985882Y-73032869D01*
X129089339Y-73283256D01*
X129280741Y-73474991D01*
X129530946Y-73578886D01*
X129801865Y-73579122D01*
X130052252Y-73475665D01*
X130243987Y-73284263D01*
X130347882Y-73034058D01*
X130348118Y-72763139D01*
X130244661Y-72512752D01*
X130188634Y-72456627D01*
X130244874Y-72400485D01*
X130263469Y-72355705D01*
X131216389Y-73308625D01*
X131216389Y-76073655D01*
X130424743Y-75282008D01*
X130268176Y-75177394D01*
X130199398Y-75163713D01*
X130276987Y-75086259D01*
X130380882Y-74836054D01*
X130381118Y-74565135D01*
X130277661Y-74314748D01*
X130086259Y-74123013D01*
X129836054Y-74019118D01*
X129565135Y-74018882D01*
X129314748Y-74122339D01*
X129123013Y-74313741D01*
X129019118Y-74563946D01*
X129018882Y-74834865D01*
X129122339Y-75085252D01*
X129178199Y-75141209D01*
X129082242Y-75236999D01*
X128978347Y-75487204D01*
X128978111Y-75758123D01*
X129081568Y-76008510D01*
X129112372Y-76039367D01*
X129019118Y-76263946D01*
X129018882Y-76534865D01*
X129080794Y-76684704D01*
X128943603Y-76821656D01*
X128839708Y-77071861D01*
X128839472Y-77342780D01*
X128942929Y-77593167D01*
X129134331Y-77784902D01*
X129384536Y-77888797D01*
X129519090Y-77888914D01*
X130073356Y-78443180D01*
X130073356Y-79182593D01*
X127511514Y-76620750D01*
X127354947Y-76516136D01*
X127240411Y-76493353D01*
X127132259Y-76385013D01*
X126882054Y-76281118D01*
X126611135Y-76280882D01*
X126360748Y-76384339D01*
X126169013Y-76575741D01*
X126065118Y-76825946D01*
X126064882Y-77096865D01*
X126168339Y-77347252D01*
X126290218Y-77469343D01*
X126275660Y-77463298D01*
X126004741Y-77463062D01*
X125754354Y-77566519D01*
X125562619Y-77757921D01*
X125458724Y-78008126D01*
X125458488Y-78279045D01*
X125561945Y-78529432D01*
X125753347Y-78721167D01*
X126003552Y-78825062D01*
X126138105Y-78825179D01*
X127025389Y-79712463D01*
X127025389Y-84015947D01*
X126942669Y-83815748D01*
X126751267Y-83624013D01*
X126501062Y-83520118D01*
X126230143Y-83519882D01*
X125979756Y-83623339D01*
X125788021Y-83814741D01*
X125684126Y-84064946D01*
X125683890Y-84335865D01*
X125787347Y-84586252D01*
X125978749Y-84777987D01*
X126228954Y-84881882D01*
X126499873Y-84882118D01*
X126750260Y-84778661D01*
X126941995Y-84587259D01*
X127025389Y-84386426D01*
X127025389Y-85929742D01*
X127006849Y-85911170D01*
X126756644Y-85807275D01*
X126485725Y-85807039D01*
X126235338Y-85910496D01*
X126197729Y-85948040D01*
X125980477Y-85857828D01*
X125709558Y-85857592D01*
X125459171Y-85961049D01*
X125267436Y-86152451D01*
X125163541Y-86402656D01*
X125163305Y-86673575D01*
X125266762Y-86923962D01*
X125458164Y-87115697D01*
X125708369Y-87219592D01*
X125979288Y-87219828D01*
X126229675Y-87116371D01*
X126258027Y-87088068D01*
X126247697Y-87112946D01*
X126247461Y-87383865D01*
X126350918Y-87634252D01*
X126542320Y-87825987D01*
X126792525Y-87929882D01*
X127025389Y-87930085D01*
X127025389Y-88479901D01*
X127009054Y-88473118D01*
X126738135Y-88472882D01*
X126487748Y-88576339D01*
X126296013Y-88767741D01*
X126192118Y-89017946D01*
X126191882Y-89288865D01*
X126295339Y-89539252D01*
X126486741Y-89730987D01*
X126736946Y-89834882D01*
X127007865Y-89835118D01*
X127025389Y-89827877D01*
X127025389Y-93430597D01*
X126277750Y-94178236D01*
X126173136Y-94334803D01*
X126136400Y-94519486D01*
X126136400Y-99536514D01*
X126173136Y-99721197D01*
X126277750Y-99877764D01*
X127126426Y-100726440D01*
X127282993Y-100831054D01*
X127445596Y-100863398D01*
X122754898Y-100863398D01*
X121259622Y-99368122D01*
X121259622Y-99072728D01*
X121385472Y-99072728D01*
X121488929Y-99323115D01*
X121680331Y-99514850D01*
X121930536Y-99618745D01*
X122201455Y-99618981D01*
X122451842Y-99515524D01*
X122643577Y-99324122D01*
X122697249Y-99194865D01*
X123524882Y-99194865D01*
X123628339Y-99445252D01*
X123819741Y-99636987D01*
X124069946Y-99740882D01*
X124340865Y-99741118D01*
X124591252Y-99637661D01*
X124782987Y-99446259D01*
X124886882Y-99196054D01*
X124887118Y-98925135D01*
X124783661Y-98674748D01*
X124592259Y-98483013D01*
X124342054Y-98379118D01*
X124071135Y-98378882D01*
X123820748Y-98482339D01*
X123629013Y-98673741D01*
X123525118Y-98923946D01*
X123524882Y-99194865D01*
X122697249Y-99194865D01*
X122747472Y-99073917D01*
X122747708Y-98802998D01*
X122644251Y-98552611D01*
X122452849Y-98360876D01*
X122202644Y-98256981D01*
X121931725Y-98256745D01*
X121681338Y-98360202D01*
X121489603Y-98551604D01*
X121385708Y-98801809D01*
X121385472Y-99072728D01*
X121259622Y-99072728D01*
X121259622Y-96280551D01*
X123826528Y-96280551D01*
X123929985Y-96530938D01*
X124121387Y-96722673D01*
X124371592Y-96826568D01*
X124642511Y-96826804D01*
X124892898Y-96723347D01*
X125084633Y-96531945D01*
X125188528Y-96281740D01*
X125188764Y-96010821D01*
X125085307Y-95760434D01*
X124893905Y-95568699D01*
X124643700Y-95464804D01*
X124372781Y-95464568D01*
X124122394Y-95568025D01*
X123930659Y-95759427D01*
X123826764Y-96009632D01*
X123826528Y-96280551D01*
X121259622Y-96280551D01*
X121259622Y-94495869D01*
X122572382Y-94495869D01*
X122675839Y-94746256D01*
X122867241Y-94937991D01*
X123117446Y-95041886D01*
X123388365Y-95042122D01*
X123585710Y-94960581D01*
X123628339Y-95063752D01*
X123819741Y-95255487D01*
X124069946Y-95359382D01*
X124340865Y-95359618D01*
X124591252Y-95256161D01*
X124782987Y-95064759D01*
X124886882Y-94814554D01*
X124887118Y-94543635D01*
X124783661Y-94293248D01*
X124592259Y-94101513D01*
X124342054Y-93997618D01*
X124071135Y-93997382D01*
X123873790Y-94078923D01*
X123831161Y-93975752D01*
X123639759Y-93784017D01*
X123389554Y-93680122D01*
X123118635Y-93679886D01*
X122868248Y-93783343D01*
X122676513Y-93974745D01*
X122572618Y-94224950D01*
X122572382Y-94495869D01*
X121259622Y-94495869D01*
X121259622Y-90283147D01*
X121782574Y-90283147D01*
X121886031Y-90533534D01*
X121928605Y-90576183D01*
X121902135Y-90602607D01*
X121798240Y-90852812D01*
X121798004Y-91123731D01*
X121901461Y-91374118D01*
X121914102Y-91386781D01*
X121812906Y-91630486D01*
X121812670Y-91901405D01*
X121916127Y-92151792D01*
X121973015Y-92208779D01*
X121874118Y-92446946D01*
X121873882Y-92717865D01*
X121977339Y-92968252D01*
X122168741Y-93159987D01*
X122418946Y-93263882D01*
X122689865Y-93264118D01*
X122940252Y-93160661D01*
X123131987Y-92969259D01*
X123235882Y-92719054D01*
X123236118Y-92448135D01*
X123132661Y-92197748D01*
X123075773Y-92140761D01*
X123174670Y-91902594D01*
X123174906Y-91631675D01*
X123071449Y-91381288D01*
X123058808Y-91368625D01*
X123160004Y-91124920D01*
X123160240Y-90854001D01*
X123056783Y-90603614D01*
X123014209Y-90560965D01*
X123040679Y-90534541D01*
X123144574Y-90284336D01*
X123144810Y-90013417D01*
X123041353Y-89763030D01*
X122849951Y-89571295D01*
X122599746Y-89467400D01*
X122328827Y-89467164D01*
X122078440Y-89570621D01*
X121886705Y-89762023D01*
X121782810Y-90012228D01*
X121782574Y-90283147D01*
X121259622Y-90283147D01*
X121259622Y-87652122D01*
X123578071Y-89970571D01*
X123578071Y-92468765D01*
X123483684Y-92562988D01*
X123379789Y-92813193D01*
X123379553Y-93084112D01*
X123483010Y-93334499D01*
X123674412Y-93526234D01*
X123924617Y-93630129D01*
X124195536Y-93630365D01*
X124445923Y-93526908D01*
X124637658Y-93335506D01*
X124741553Y-93085301D01*
X124741789Y-92814382D01*
X124638332Y-92563995D01*
X124543271Y-92468769D01*
X124543271Y-89770671D01*
X124506535Y-89585988D01*
X124401921Y-89429421D01*
X121640633Y-86668133D01*
X121640633Y-86367865D01*
X123524882Y-86367865D01*
X123628339Y-86618252D01*
X123819741Y-86809987D01*
X124069946Y-86913882D01*
X124340865Y-86914118D01*
X124591252Y-86810661D01*
X124782987Y-86619259D01*
X124886882Y-86369054D01*
X124887118Y-86098135D01*
X124783661Y-85847748D01*
X124592259Y-85656013D01*
X124342054Y-85552118D01*
X124071135Y-85551882D01*
X123820748Y-85655339D01*
X123629013Y-85846741D01*
X123525118Y-86096946D01*
X123524882Y-86367865D01*
X121640633Y-86367865D01*
X121640633Y-84970865D01*
X122889882Y-84970865D01*
X122993339Y-85221252D01*
X123184741Y-85412987D01*
X123434946Y-85516882D01*
X123705865Y-85517118D01*
X123956252Y-85413661D01*
X124147987Y-85222259D01*
X124251882Y-84972054D01*
X124252118Y-84701135D01*
X124148661Y-84450748D01*
X123957259Y-84259013D01*
X123707054Y-84155118D01*
X123436135Y-84154882D01*
X123185748Y-84258339D01*
X122994013Y-84449741D01*
X122890118Y-84699946D01*
X122889882Y-84970865D01*
X121640633Y-84970865D01*
X121640633Y-82608603D01*
X121790593Y-82670872D01*
X122061512Y-82671108D01*
X122311899Y-82567651D01*
X122503634Y-82376249D01*
X122607529Y-82126044D01*
X122607765Y-81855125D01*
X122504308Y-81604738D01*
X122312906Y-81413003D01*
X122062701Y-81309108D01*
X121791782Y-81308872D01*
X121640633Y-81371325D01*
X121640633Y-78239865D01*
X123342292Y-78239865D01*
X123445749Y-78490252D01*
X123637151Y-78681987D01*
X123887356Y-78785882D01*
X124158275Y-78786118D01*
X124408662Y-78682661D01*
X124600397Y-78491259D01*
X124704292Y-78241054D01*
X124704528Y-77970135D01*
X124601071Y-77719748D01*
X124409669Y-77528013D01*
X124159464Y-77424118D01*
X123888545Y-77423882D01*
X123638158Y-77527339D01*
X123446423Y-77718741D01*
X123342528Y-77968946D01*
X123342292Y-78239865D01*
X121640633Y-78239865D01*
X121640633Y-76461865D01*
X122127894Y-76461865D01*
X122231351Y-76712252D01*
X122422753Y-76903987D01*
X122672958Y-77007882D01*
X122943877Y-77008118D01*
X123194264Y-76904661D01*
X123385999Y-76713259D01*
X123489894Y-76463054D01*
X123490130Y-76192135D01*
X123386673Y-75941748D01*
X123195271Y-75750013D01*
X122945066Y-75646118D01*
X122674147Y-75645882D01*
X122423760Y-75749339D01*
X122232025Y-75940741D01*
X122128130Y-76190946D01*
X122127894Y-76461865D01*
X121640633Y-76461865D01*
X121640633Y-73284755D01*
X126172937Y-73284755D01*
X126276394Y-73535142D01*
X126467796Y-73726877D01*
X126718001Y-73830772D01*
X126988920Y-73831008D01*
X127239307Y-73727551D01*
X127431042Y-73536149D01*
X127534937Y-73285944D01*
X127535173Y-73015025D01*
X127431716Y-72764638D01*
X127240314Y-72572903D01*
X126990109Y-72469008D01*
X126719190Y-72468772D01*
X126468803Y-72572229D01*
X126277068Y-72763631D01*
X126173173Y-73013836D01*
X126172937Y-73284755D01*
X121640633Y-73284755D01*
X121640633Y-73191108D01*
X121656946Y-73197882D01*
X121927865Y-73198118D01*
X122178252Y-73094661D01*
X122369987Y-72903259D01*
X122473882Y-72653054D01*
X122474118Y-72382135D01*
X122372295Y-72135702D01*
X122473882Y-71891054D01*
X122474118Y-71620135D01*
X122370661Y-71369748D01*
X122179259Y-71178013D01*
X121929054Y-71074118D01*
X121658135Y-71073882D01*
X121640633Y-71081114D01*
X121640633Y-69381108D01*
X121656946Y-69387882D01*
X121927865Y-69388118D01*
X122178252Y-69284661D01*
X122273478Y-69189600D01*
X126421538Y-69189600D01*
X126274141Y-69336741D01*
X126274141Y-69336741D01*
G37*
X126274141Y-69336741D02*
X126170246Y-69586946D01*
X126170010Y-69857865D01*
X126273467Y-70108252D01*
X126464869Y-70299987D01*
X126715074Y-70403882D01*
X126985993Y-70404118D01*
X127236380Y-70300661D01*
X127428115Y-70109259D01*
X127532010Y-69859054D01*
X127532246Y-69588135D01*
X127428789Y-69337748D01*
X127280898Y-69189600D01*
X128950087Y-69189600D01*
X128962339Y-69219252D01*
X129153741Y-69410987D01*
X129356828Y-69495317D01*
X129281748Y-69526339D01*
X129090013Y-69717741D01*
X128986118Y-69967946D01*
X128985882Y-70238865D01*
X129089339Y-70489252D01*
X129198364Y-70598467D01*
X129198433Y-70598814D01*
X129027748Y-70669339D01*
X128836013Y-70860741D01*
X128732118Y-71110946D01*
X128731882Y-71381865D01*
X128835339Y-71632252D01*
X129014568Y-71811793D01*
X128987005Y-71878172D01*
X128986769Y-72149091D01*
X129090226Y-72399478D01*
X129146253Y-72455603D01*
X129090013Y-72511745D01*
X128986118Y-72761950D01*
X128985882Y-73032869D01*
X129089339Y-73283256D01*
X129280741Y-73474991D01*
X129530946Y-73578886D01*
X129801865Y-73579122D01*
X130052252Y-73475665D01*
X130243987Y-73284263D01*
X130347882Y-73034058D01*
X130348118Y-72763139D01*
X130244661Y-72512752D01*
X130188634Y-72456627D01*
X130244874Y-72400485D01*
X130263469Y-72355705D01*
X131216389Y-73308625D01*
X131216389Y-76073655D01*
X130424743Y-75282008D01*
X130268176Y-75177394D01*
X130199398Y-75163713D01*
X130276987Y-75086259D01*
X130380882Y-74836054D01*
X130381118Y-74565135D01*
X130277661Y-74314748D01*
X130086259Y-74123013D01*
X129836054Y-74019118D01*
X129565135Y-74018882D01*
X129314748Y-74122339D01*
X129123013Y-74313741D01*
X129019118Y-74563946D01*
X129018882Y-74834865D01*
X129122339Y-75085252D01*
X129178199Y-75141209D01*
X129082242Y-75236999D01*
X128978347Y-75487204D01*
X128978111Y-75758123D01*
X129081568Y-76008510D01*
X129112372Y-76039367D01*
X129019118Y-76263946D01*
X129018882Y-76534865D01*
X129080794Y-76684704D01*
X128943603Y-76821656D01*
X128839708Y-77071861D01*
X128839472Y-77342780D01*
X128942929Y-77593167D01*
X129134331Y-77784902D01*
X129384536Y-77888797D01*
X129519090Y-77888914D01*
X130073356Y-78443180D01*
X130073356Y-79182593D01*
X127511514Y-76620750D01*
X127354947Y-76516136D01*
X127240411Y-76493353D01*
X127132259Y-76385013D01*
X126882054Y-76281118D01*
X126611135Y-76280882D01*
X126360748Y-76384339D01*
X126169013Y-76575741D01*
X126065118Y-76825946D01*
X126064882Y-77096865D01*
X126168339Y-77347252D01*
X126290218Y-77469343D01*
X126275660Y-77463298D01*
X126004741Y-77463062D01*
X125754354Y-77566519D01*
X125562619Y-77757921D01*
X125458724Y-78008126D01*
X125458488Y-78279045D01*
X125561945Y-78529432D01*
X125753347Y-78721167D01*
X126003552Y-78825062D01*
X126138105Y-78825179D01*
X127025389Y-79712463D01*
X127025389Y-84015947D01*
X126942669Y-83815748D01*
X126751267Y-83624013D01*
X126501062Y-83520118D01*
X126230143Y-83519882D01*
X125979756Y-83623339D01*
X125788021Y-83814741D01*
X125684126Y-84064946D01*
X125683890Y-84335865D01*
X125787347Y-84586252D01*
X125978749Y-84777987D01*
X126228954Y-84881882D01*
X126499873Y-84882118D01*
X126750260Y-84778661D01*
X126941995Y-84587259D01*
X127025389Y-84386426D01*
X127025389Y-85929742D01*
X127006849Y-85911170D01*
X126756644Y-85807275D01*
X126485725Y-85807039D01*
X126235338Y-85910496D01*
X126197729Y-85948040D01*
X125980477Y-85857828D01*
X125709558Y-85857592D01*
X125459171Y-85961049D01*
X125267436Y-86152451D01*
X125163541Y-86402656D01*
X125163305Y-86673575D01*
X125266762Y-86923962D01*
X125458164Y-87115697D01*
X125708369Y-87219592D01*
X125979288Y-87219828D01*
X126229675Y-87116371D01*
X126258027Y-87088068D01*
X126247697Y-87112946D01*
X126247461Y-87383865D01*
X126350918Y-87634252D01*
X126542320Y-87825987D01*
X126792525Y-87929882D01*
X127025389Y-87930085D01*
X127025389Y-88479901D01*
X127009054Y-88473118D01*
X126738135Y-88472882D01*
X126487748Y-88576339D01*
X126296013Y-88767741D01*
X126192118Y-89017946D01*
X126191882Y-89288865D01*
X126295339Y-89539252D01*
X126486741Y-89730987D01*
X126736946Y-89834882D01*
X127007865Y-89835118D01*
X127025389Y-89827877D01*
X127025389Y-93430597D01*
X126277750Y-94178236D01*
X126173136Y-94334803D01*
X126136400Y-94519486D01*
X126136400Y-99536514D01*
X126173136Y-99721197D01*
X126277750Y-99877764D01*
X127126426Y-100726440D01*
X127282993Y-100831054D01*
X127445596Y-100863398D01*
X122754898Y-100863398D01*
X121259622Y-99368122D01*
X121259622Y-99072728D01*
X121385472Y-99072728D01*
X121488929Y-99323115D01*
X121680331Y-99514850D01*
X121930536Y-99618745D01*
X122201455Y-99618981D01*
X122451842Y-99515524D01*
X122643577Y-99324122D01*
X122697249Y-99194865D01*
X123524882Y-99194865D01*
X123628339Y-99445252D01*
X123819741Y-99636987D01*
X124069946Y-99740882D01*
X124340865Y-99741118D01*
X124591252Y-99637661D01*
X124782987Y-99446259D01*
X124886882Y-99196054D01*
X124887118Y-98925135D01*
X124783661Y-98674748D01*
X124592259Y-98483013D01*
X124342054Y-98379118D01*
X124071135Y-98378882D01*
X123820748Y-98482339D01*
X123629013Y-98673741D01*
X123525118Y-98923946D01*
X123524882Y-99194865D01*
X122697249Y-99194865D01*
X122747472Y-99073917D01*
X122747708Y-98802998D01*
X122644251Y-98552611D01*
X122452849Y-98360876D01*
X122202644Y-98256981D01*
X121931725Y-98256745D01*
X121681338Y-98360202D01*
X121489603Y-98551604D01*
X121385708Y-98801809D01*
X121385472Y-99072728D01*
X121259622Y-99072728D01*
X121259622Y-96280551D01*
X123826528Y-96280551D01*
X123929985Y-96530938D01*
X124121387Y-96722673D01*
X124371592Y-96826568D01*
X124642511Y-96826804D01*
X124892898Y-96723347D01*
X125084633Y-96531945D01*
X125188528Y-96281740D01*
X125188764Y-96010821D01*
X125085307Y-95760434D01*
X124893905Y-95568699D01*
X124643700Y-95464804D01*
X124372781Y-95464568D01*
X124122394Y-95568025D01*
X123930659Y-95759427D01*
X123826764Y-96009632D01*
X123826528Y-96280551D01*
X121259622Y-96280551D01*
X121259622Y-94495869D01*
X122572382Y-94495869D01*
X122675839Y-94746256D01*
X122867241Y-94937991D01*
X123117446Y-95041886D01*
X123388365Y-95042122D01*
X123585710Y-94960581D01*
X123628339Y-95063752D01*
X123819741Y-95255487D01*
X124069946Y-95359382D01*
X124340865Y-95359618D01*
X124591252Y-95256161D01*
X124782987Y-95064759D01*
X124886882Y-94814554D01*
X124887118Y-94543635D01*
X124783661Y-94293248D01*
X124592259Y-94101513D01*
X124342054Y-93997618D01*
X124071135Y-93997382D01*
X123873790Y-94078923D01*
X123831161Y-93975752D01*
X123639759Y-93784017D01*
X123389554Y-93680122D01*
X123118635Y-93679886D01*
X122868248Y-93783343D01*
X122676513Y-93974745D01*
X122572618Y-94224950D01*
X122572382Y-94495869D01*
X121259622Y-94495869D01*
X121259622Y-90283147D01*
X121782574Y-90283147D01*
X121886031Y-90533534D01*
X121928605Y-90576183D01*
X121902135Y-90602607D01*
X121798240Y-90852812D01*
X121798004Y-91123731D01*
X121901461Y-91374118D01*
X121914102Y-91386781D01*
X121812906Y-91630486D01*
X121812670Y-91901405D01*
X121916127Y-92151792D01*
X121973015Y-92208779D01*
X121874118Y-92446946D01*
X121873882Y-92717865D01*
X121977339Y-92968252D01*
X122168741Y-93159987D01*
X122418946Y-93263882D01*
X122689865Y-93264118D01*
X122940252Y-93160661D01*
X123131987Y-92969259D01*
X123235882Y-92719054D01*
X123236118Y-92448135D01*
X123132661Y-92197748D01*
X123075773Y-92140761D01*
X123174670Y-91902594D01*
X123174906Y-91631675D01*
X123071449Y-91381288D01*
X123058808Y-91368625D01*
X123160004Y-91124920D01*
X123160240Y-90854001D01*
X123056783Y-90603614D01*
X123014209Y-90560965D01*
X123040679Y-90534541D01*
X123144574Y-90284336D01*
X123144810Y-90013417D01*
X123041353Y-89763030D01*
X122849951Y-89571295D01*
X122599746Y-89467400D01*
X122328827Y-89467164D01*
X122078440Y-89570621D01*
X121886705Y-89762023D01*
X121782810Y-90012228D01*
X121782574Y-90283147D01*
X121259622Y-90283147D01*
X121259622Y-87652122D01*
X123578071Y-89970571D01*
X123578071Y-92468765D01*
X123483684Y-92562988D01*
X123379789Y-92813193D01*
X123379553Y-93084112D01*
X123483010Y-93334499D01*
X123674412Y-93526234D01*
X123924617Y-93630129D01*
X124195536Y-93630365D01*
X124445923Y-93526908D01*
X124637658Y-93335506D01*
X124741553Y-93085301D01*
X124741789Y-92814382D01*
X124638332Y-92563995D01*
X124543271Y-92468769D01*
X124543271Y-89770671D01*
X124506535Y-89585988D01*
X124401921Y-89429421D01*
X121640633Y-86668133D01*
X121640633Y-86367865D01*
X123524882Y-86367865D01*
X123628339Y-86618252D01*
X123819741Y-86809987D01*
X124069946Y-86913882D01*
X124340865Y-86914118D01*
X124591252Y-86810661D01*
X124782987Y-86619259D01*
X124886882Y-86369054D01*
X124887118Y-86098135D01*
X124783661Y-85847748D01*
X124592259Y-85656013D01*
X124342054Y-85552118D01*
X124071135Y-85551882D01*
X123820748Y-85655339D01*
X123629013Y-85846741D01*
X123525118Y-86096946D01*
X123524882Y-86367865D01*
X121640633Y-86367865D01*
X121640633Y-84970865D01*
X122889882Y-84970865D01*
X122993339Y-85221252D01*
X123184741Y-85412987D01*
X123434946Y-85516882D01*
X123705865Y-85517118D01*
X123956252Y-85413661D01*
X124147987Y-85222259D01*
X124251882Y-84972054D01*
X124252118Y-84701135D01*
X124148661Y-84450748D01*
X123957259Y-84259013D01*
X123707054Y-84155118D01*
X123436135Y-84154882D01*
X123185748Y-84258339D01*
X122994013Y-84449741D01*
X122890118Y-84699946D01*
X122889882Y-84970865D01*
X121640633Y-84970865D01*
X121640633Y-82608603D01*
X121790593Y-82670872D01*
X122061512Y-82671108D01*
X122311899Y-82567651D01*
X122503634Y-82376249D01*
X122607529Y-82126044D01*
X122607765Y-81855125D01*
X122504308Y-81604738D01*
X122312906Y-81413003D01*
X122062701Y-81309108D01*
X121791782Y-81308872D01*
X121640633Y-81371325D01*
X121640633Y-78239865D01*
X123342292Y-78239865D01*
X123445749Y-78490252D01*
X123637151Y-78681987D01*
X123887356Y-78785882D01*
X124158275Y-78786118D01*
X124408662Y-78682661D01*
X124600397Y-78491259D01*
X124704292Y-78241054D01*
X124704528Y-77970135D01*
X124601071Y-77719748D01*
X124409669Y-77528013D01*
X124159464Y-77424118D01*
X123888545Y-77423882D01*
X123638158Y-77527339D01*
X123446423Y-77718741D01*
X123342528Y-77968946D01*
X123342292Y-78239865D01*
X121640633Y-78239865D01*
X121640633Y-76461865D01*
X122127894Y-76461865D01*
X122231351Y-76712252D01*
X122422753Y-76903987D01*
X122672958Y-77007882D01*
X122943877Y-77008118D01*
X123194264Y-76904661D01*
X123385999Y-76713259D01*
X123489894Y-76463054D01*
X123490130Y-76192135D01*
X123386673Y-75941748D01*
X123195271Y-75750013D01*
X122945066Y-75646118D01*
X122674147Y-75645882D01*
X122423760Y-75749339D01*
X122232025Y-75940741D01*
X122128130Y-76190946D01*
X122127894Y-76461865D01*
X121640633Y-76461865D01*
X121640633Y-73284755D01*
X126172937Y-73284755D01*
X126276394Y-73535142D01*
X126467796Y-73726877D01*
X126718001Y-73830772D01*
X126988920Y-73831008D01*
X127239307Y-73727551D01*
X127431042Y-73536149D01*
X127534937Y-73285944D01*
X127535173Y-73015025D01*
X127431716Y-72764638D01*
X127240314Y-72572903D01*
X126990109Y-72469008D01*
X126719190Y-72468772D01*
X126468803Y-72572229D01*
X126277068Y-72763631D01*
X126173173Y-73013836D01*
X126172937Y-73284755D01*
X121640633Y-73284755D01*
X121640633Y-73191108D01*
X121656946Y-73197882D01*
X121927865Y-73198118D01*
X122178252Y-73094661D01*
X122369987Y-72903259D01*
X122473882Y-72653054D01*
X122474118Y-72382135D01*
X122372295Y-72135702D01*
X122473882Y-71891054D01*
X122474118Y-71620135D01*
X122370661Y-71369748D01*
X122179259Y-71178013D01*
X121929054Y-71074118D01*
X121658135Y-71073882D01*
X121640633Y-71081114D01*
X121640633Y-69381108D01*
X121656946Y-69387882D01*
X121927865Y-69388118D01*
X122178252Y-69284661D01*
X122273478Y-69189600D01*
X126421538Y-69189600D01*
X126274141Y-69336741D01*
M02*
