%TF.GenerationSoftware,KiCad,Pcbnew,4.0.7*%
%TF.CreationDate,2018-05-01T19:05:30+08:00*%
%TF.ProjectId,VESC_6,564553435F362E6B696361645F706362,rev?*%
%TF.FileFunction,Copper,L3,Inr,Signal*%
%FSLAX46Y46*%
G04 Gerber Fmt 4.6, Leading zero omitted, Abs format (unit mm)*
G04 Created by KiCad (PCBNEW 4.0.7) date 2018 May 01, Tuesday 19:05:30*
%MOMM*%
%LPD*%
G01*
G04 APERTURE LIST*
%ADD10C,0.100000*%
%ADD11C,0.600000*%
%ADD12R,1.699260X1.198880*%
%ADD13O,1.699260X1.198880*%
%ADD14R,1.198880X1.699260*%
%ADD15O,1.198880X1.699260*%
%ADD16O,1.100000X1.800000*%
%ADD17O,1.100000X2.200000*%
%ADD18R,2.400000X2.400000*%
%ADD19C,2.400000*%
%ADD20C,0.500000*%
%ADD21C,0.203200*%
%ADD22C,0.508000*%
%ADD23C,0.254000*%
G04 APERTURE END LIST*
D10*
D11*
X154813000Y-79121000D03*
X155448000Y-79121000D03*
X147828000Y-79121000D03*
X147193000Y-79121000D03*
X146558000Y-79121000D03*
X145923000Y-79121000D03*
X145288000Y-79121000D03*
X144653000Y-79121000D03*
X144018000Y-79121000D03*
X143383000Y-79121000D03*
X147828000Y-79756000D03*
X147193000Y-79756000D03*
X146558000Y-79756000D03*
X145923000Y-79756000D03*
X145288000Y-79756000D03*
X144653000Y-79756000D03*
X144018000Y-79756000D03*
X143383000Y-79756000D03*
X142748000Y-79756000D03*
D12*
X117983000Y-105984040D03*
D13*
X117983000Y-101981000D03*
X117983000Y-103982520D03*
D11*
X143002000Y-72618600D03*
X154813000Y-79756000D03*
X172008800Y-73240900D03*
X171386500Y-73240900D03*
X170764200Y-73240900D03*
X170141900Y-73240900D03*
X169519600Y-73240900D03*
X168897300Y-73240900D03*
X168275000Y-73240900D03*
X173253400Y-72618600D03*
X172631100Y-72618600D03*
X172008800Y-72618600D03*
X171386500Y-72618600D03*
X170764200Y-72618600D03*
X170141900Y-72618600D03*
X169519600Y-72618600D03*
X168897300Y-72618600D03*
X168275000Y-72618600D03*
X173253400Y-71996300D03*
X172631100Y-71996300D03*
X172008800Y-71996300D03*
X171386500Y-71996300D03*
X170764200Y-71996300D03*
X170141900Y-71996300D03*
X169519600Y-71996300D03*
X168897300Y-71996300D03*
X168275000Y-71996300D03*
X173253400Y-71374000D03*
X172631100Y-71374000D03*
X172008800Y-71374000D03*
X171386500Y-71374000D03*
X169519600Y-71374000D03*
X168897300Y-71374000D03*
X160553400Y-73240900D03*
X159931100Y-73240900D03*
X159308800Y-73240900D03*
X158686500Y-73240900D03*
X158064200Y-73240900D03*
X157441900Y-73240900D03*
X156819600Y-73240900D03*
X156197300Y-73240900D03*
X155575000Y-73240900D03*
X160553400Y-72618600D03*
X159931100Y-72618600D03*
X159308800Y-72618600D03*
X158686500Y-72618600D03*
X158064200Y-72618600D03*
X157441900Y-72618600D03*
X156819600Y-72618600D03*
X156197300Y-72618600D03*
X155575000Y-72618600D03*
X160553400Y-71996300D03*
X159931100Y-71996300D03*
X159308800Y-71996300D03*
X158686500Y-71996300D03*
X158064200Y-71996300D03*
X157441900Y-71996300D03*
X156819600Y-71996300D03*
X156197300Y-71996300D03*
X155575000Y-71996300D03*
X160553400Y-71374000D03*
X159931100Y-71374000D03*
X159308800Y-71374000D03*
X158686500Y-71374000D03*
X156819600Y-71374000D03*
X156197300Y-71374000D03*
X147980400Y-73240900D03*
X147358100Y-73240900D03*
X146735800Y-73240900D03*
X146113500Y-73240900D03*
X145491200Y-73240900D03*
X144868900Y-73240900D03*
X144246600Y-73240900D03*
X143624300Y-73240900D03*
X147980400Y-72618600D03*
X147358100Y-72618600D03*
X146735800Y-72618600D03*
X146113500Y-72618600D03*
X145491200Y-72618600D03*
X144868900Y-72618600D03*
X144246600Y-72618600D03*
X143624300Y-72618600D03*
X147980400Y-71996300D03*
X147358100Y-71996300D03*
X146735800Y-71996300D03*
X146113500Y-71996300D03*
X145491200Y-71996300D03*
X144868900Y-71996300D03*
X144246600Y-71996300D03*
X143624300Y-71996300D03*
X143002000Y-71996300D03*
X147980400Y-71374000D03*
X147358100Y-71374000D03*
X146735800Y-71374000D03*
X146113500Y-71374000D03*
X144272000Y-71374000D03*
X143624300Y-71374000D03*
X173228000Y-79756000D03*
X172593000Y-79756000D03*
X171958000Y-79756000D03*
X171323000Y-79756000D03*
X170688000Y-79756000D03*
X170053000Y-79756000D03*
X169418000Y-79756000D03*
X168783000Y-79756000D03*
X168148000Y-79756000D03*
X167513000Y-79756000D03*
X171958000Y-79121000D03*
X171323000Y-79121000D03*
X170688000Y-79121000D03*
X170053000Y-79121000D03*
X169418000Y-79121000D03*
X168783000Y-79121000D03*
X168148000Y-79121000D03*
X160528000Y-79756000D03*
X159893000Y-79756000D03*
X159258000Y-79756000D03*
X158623000Y-79756000D03*
X157988000Y-79756000D03*
X157353000Y-79756000D03*
X156718000Y-79756000D03*
X156083000Y-79756000D03*
X155448000Y-79756000D03*
X160528000Y-79121000D03*
X159893000Y-79121000D03*
X159258000Y-79121000D03*
X158623000Y-79121000D03*
X157988000Y-79121000D03*
X157353000Y-79121000D03*
X156718000Y-79121000D03*
X156083000Y-79121000D03*
X142113000Y-79756000D03*
X168275000Y-71374000D03*
X167513000Y-79121000D03*
X155575000Y-71374000D03*
X143002000Y-71374000D03*
D14*
X123256040Y-110363000D03*
D15*
X119253000Y-110363000D03*
X121254520Y-110363000D03*
X117254020Y-110363000D03*
D14*
X127093980Y-58039000D03*
D15*
X131097020Y-58039000D03*
X129095500Y-58039000D03*
X133096000Y-58039000D03*
X135097520Y-58039000D03*
X137099040Y-58039000D03*
D13*
X118003300Y-81459440D03*
X118003300Y-83458420D03*
X118003300Y-85459940D03*
D12*
X118003300Y-93466020D03*
D13*
X118003300Y-89462980D03*
X118003300Y-91464500D03*
X118003300Y-87464000D03*
X118003300Y-79460460D03*
D12*
X117983000Y-74930000D03*
D13*
X117983000Y-70926960D03*
X117983000Y-72928480D03*
X117983000Y-68927980D03*
X117983000Y-66926460D03*
D16*
X126238000Y-107176000D03*
X126238000Y-112776000D03*
D17*
X128388000Y-109976000D03*
D18*
X170942000Y-81915000D03*
D19*
X165942000Y-81915000D03*
D18*
X144526000Y-81915000D03*
D19*
X149526000Y-81915000D03*
D11*
X138581702Y-92558292D03*
X123825000Y-78359000D03*
X122428004Y-76327000D03*
X135763000Y-114046000D03*
X135255000Y-113538000D03*
X134772400Y-113080800D03*
X139192000Y-110490000D03*
X130683000Y-111887000D03*
X129540000Y-110998000D03*
X131064000Y-103932010D03*
X130124803Y-106497686D03*
X130683000Y-70739000D03*
X117602000Y-77977994D03*
X137160000Y-109474000D03*
X123189996Y-65151000D03*
X137414000Y-114046000D03*
X126060200Y-60960000D03*
X126746000Y-60960000D03*
X125374400Y-60960002D03*
X138226800Y-109524800D03*
X129214590Y-88646000D03*
X119093726Y-86134085D03*
X134984271Y-91133140D03*
X128580937Y-96647473D03*
X137432817Y-104678011D03*
X121926647Y-81989990D03*
X140716000Y-58420000D03*
X133985000Y-79882994D03*
X134365994Y-80264000D03*
X134747000Y-80645000D03*
X126873000Y-89154000D03*
X138049000Y-87249000D03*
X132334000Y-100076000D03*
X126365008Y-84201000D03*
X123571000Y-84836000D03*
X131820883Y-106426000D03*
X130937000Y-107309883D03*
X130937000Y-105542117D03*
X135382000Y-107442000D03*
X132334000Y-113792000D03*
X138684000Y-109982000D03*
X134239000Y-67437000D03*
X126851128Y-69723000D03*
X131318000Y-70739000D03*
X131318000Y-70104000D03*
X130683000Y-70104000D03*
X133604000Y-67437000D03*
X132969000Y-67437000D03*
X166471600Y-67513200D03*
X165887400Y-67513200D03*
X165303200Y-67513200D03*
X164719000Y-67513200D03*
X164134800Y-67513200D03*
X163550600Y-67513200D03*
X162966400Y-67513200D03*
X162382200Y-67513200D03*
X161798000Y-67513200D03*
X166471600Y-66929000D03*
X165887400Y-66929000D03*
X165303200Y-66929000D03*
X164719000Y-66929000D03*
X164134800Y-66929000D03*
X163550600Y-66929000D03*
X162966400Y-66929000D03*
X162382200Y-66929000D03*
X161798000Y-66929000D03*
X166471600Y-66344800D03*
X165887400Y-66344800D03*
X165303200Y-66344800D03*
X164719000Y-66344800D03*
X164134800Y-66344800D03*
X163550600Y-66344800D03*
X162966400Y-66344800D03*
X162382200Y-66344800D03*
X161798000Y-66344800D03*
X166471600Y-65760600D03*
X165887400Y-65760600D03*
X165303200Y-65760600D03*
X164719000Y-65760600D03*
X164134800Y-65760600D03*
X163550600Y-65760600D03*
X162966400Y-65760600D03*
X162382200Y-65760600D03*
X161798000Y-65760600D03*
X166471600Y-65176400D03*
X165887400Y-65176400D03*
X165303200Y-65176400D03*
X164719000Y-65176400D03*
X164134800Y-65176400D03*
X163550600Y-65176400D03*
X162966400Y-65176400D03*
X162382200Y-65176400D03*
X161798000Y-65176400D03*
X166471600Y-64592200D03*
X165887400Y-64592200D03*
X165303200Y-64592200D03*
X164719000Y-64592200D03*
X164134800Y-64592200D03*
X163550600Y-64592200D03*
X162966400Y-64592200D03*
X162382200Y-64592200D03*
X161798000Y-64592200D03*
X166471600Y-64008000D03*
X165887400Y-64008000D03*
X165303200Y-64008000D03*
X164719000Y-64008000D03*
X164134800Y-64008000D03*
X163550600Y-64008000D03*
X162966400Y-64008000D03*
X162382200Y-64008000D03*
X153644600Y-67513200D03*
X153060400Y-67513200D03*
X152476200Y-67513200D03*
X151892000Y-67513200D03*
X151307800Y-67513200D03*
X150723600Y-67513200D03*
X150139400Y-67513200D03*
X149555200Y-67513200D03*
X148971000Y-67513200D03*
X153644600Y-66929000D03*
X153060400Y-66929000D03*
X152476200Y-66929000D03*
X151892000Y-66929000D03*
X151307800Y-66929000D03*
X150723600Y-66929000D03*
X150139400Y-66929000D03*
X149555200Y-66929000D03*
X148971000Y-66929000D03*
X153644600Y-66344800D03*
X153060400Y-66344800D03*
X152476200Y-66344800D03*
X151892000Y-66344800D03*
X151307800Y-66344800D03*
X150723600Y-66344800D03*
X150139400Y-66344800D03*
X149555200Y-66344800D03*
X148971000Y-66344800D03*
X153644600Y-65760600D03*
X153060400Y-65760600D03*
X152476200Y-65760600D03*
X151892000Y-65760600D03*
X151307800Y-65760600D03*
X150723600Y-65760600D03*
X150139400Y-65760600D03*
X149555200Y-65760600D03*
X148971000Y-65760600D03*
X153644600Y-65176400D03*
X153060400Y-65176400D03*
X152476200Y-65176400D03*
X151892000Y-65176400D03*
X151307800Y-65176400D03*
X150723600Y-65176400D03*
X150139400Y-65176400D03*
X149555200Y-65176400D03*
X148971000Y-65176400D03*
X153644600Y-64592200D03*
X153060400Y-64592200D03*
X152476200Y-64592200D03*
X151892000Y-64592200D03*
X151307800Y-64592200D03*
X150723600Y-64592200D03*
X150139400Y-64592200D03*
X149555200Y-64592200D03*
X148971000Y-64592200D03*
X153644600Y-64008000D03*
X153060400Y-64008000D03*
X152476200Y-64008000D03*
X151892000Y-64008000D03*
X151307800Y-64008000D03*
X150723600Y-64008000D03*
X150139400Y-64008000D03*
X149555200Y-64008000D03*
X161798000Y-64008000D03*
X148971000Y-64008000D03*
X135916331Y-103073201D03*
X134692207Y-89520203D03*
X124507646Y-96145686D03*
X122555000Y-77851000D03*
X127635010Y-106299000D03*
X131692000Y-101846000D03*
X138303000Y-100838006D03*
X119506998Y-102743000D03*
X134662559Y-71031810D03*
X118999000Y-64516000D03*
X122393203Y-85505793D03*
X134112004Y-59055000D03*
X122228895Y-89377113D03*
X123277192Y-98940964D03*
X135763000Y-98171000D03*
X133096000Y-95885000D03*
X134042040Y-90182550D03*
X128524000Y-82296000D03*
X133450855Y-88995734D03*
X119507000Y-62865030D03*
X118999000Y-62357000D03*
X121793000Y-72517000D03*
X121793000Y-71755000D03*
X135382000Y-61976000D03*
X134420900Y-72563240D03*
X140749855Y-74001586D03*
X134600000Y-75300000D03*
X134485829Y-78140634D03*
X137941176Y-80930960D03*
X133350000Y-68961000D03*
X134010400Y-81889600D03*
X133453000Y-81338296D03*
X133781800Y-68529200D03*
X133032500Y-85915500D03*
X129794000Y-85725000D03*
X134493000Y-84582000D03*
X140334994Y-79883000D03*
X129046526Y-84850526D03*
X124206000Y-86233000D03*
X128778002Y-85809090D03*
X129921000Y-109474000D03*
X129412129Y-108833771D03*
X137922000Y-112649000D03*
X123773259Y-93054500D03*
X121724010Y-66032553D03*
X123317000Y-104389210D03*
X118745000Y-108204000D03*
X130558014Y-100094865D03*
X131566771Y-99948129D03*
X129794008Y-99949000D03*
X122047000Y-58166000D03*
X122493788Y-91766540D03*
X122555000Y-92583000D03*
X122463692Y-90148282D03*
X122479122Y-90988866D03*
X135825200Y-99314464D03*
X138293492Y-97306553D03*
X133985010Y-95885000D03*
X134873999Y-96327726D03*
X129540000Y-68834000D03*
X121793000Y-68707000D03*
X129300000Y-89900000D03*
X125844423Y-86538710D03*
X126620590Y-86488157D03*
X126928579Y-87249000D03*
X146939000Y-59055000D03*
X146304000Y-59055000D03*
X145669000Y-59055000D03*
X145034000Y-59055000D03*
X144399000Y-59055000D03*
X143764000Y-59055000D03*
X143129000Y-59055000D03*
X146939000Y-58420000D03*
X146304000Y-58420000D03*
X145669000Y-58420000D03*
X145034000Y-58420000D03*
X144399000Y-58420000D03*
X143764000Y-58420000D03*
X143129000Y-58420000D03*
X146939000Y-57785000D03*
X146304000Y-57785000D03*
X145669000Y-57785000D03*
X145034000Y-57785000D03*
X144399000Y-57785000D03*
X143764000Y-57785000D03*
X143129000Y-57785000D03*
X146939000Y-57150000D03*
X146304000Y-57150000D03*
X145669000Y-57150000D03*
X145034000Y-57150000D03*
X144399000Y-57150000D03*
X143764000Y-57150000D03*
X143129000Y-57150000D03*
X146939000Y-56515000D03*
X146304000Y-56515000D03*
X145669000Y-56515000D03*
X145034000Y-56515000D03*
X144399000Y-56515000D03*
X143764000Y-56515000D03*
X143129000Y-56515000D03*
X146939000Y-55880000D03*
X146304000Y-55880000D03*
X145669000Y-55880000D03*
X145034000Y-55880000D03*
X144399000Y-55880000D03*
X143764000Y-55880000D03*
X143129000Y-55880000D03*
X134478694Y-71787578D03*
X134604628Y-73319041D03*
X159639000Y-59055000D03*
X159004000Y-59055000D03*
X158369000Y-59055000D03*
X157734000Y-59055000D03*
X157099000Y-59055000D03*
X156464000Y-59055000D03*
X155829000Y-59055000D03*
X159639000Y-58420000D03*
X159004000Y-58420000D03*
X158369000Y-58420000D03*
X157734000Y-58420000D03*
X157099000Y-58420000D03*
X156464000Y-58420000D03*
X155829000Y-58420000D03*
X159639000Y-57785000D03*
X159004000Y-57785000D03*
X158369000Y-57785000D03*
X157734000Y-57785000D03*
X157099000Y-57785000D03*
X156464000Y-57785000D03*
X155829000Y-57785000D03*
X159639000Y-57150000D03*
X159004000Y-57150000D03*
X158369000Y-57150000D03*
X157734000Y-57150000D03*
X157099000Y-57150000D03*
X156464000Y-57150000D03*
X155829000Y-57150000D03*
X159639000Y-56515000D03*
X159004000Y-56515000D03*
X158369000Y-56515000D03*
X157734000Y-56515000D03*
X157099000Y-56515000D03*
X156464000Y-56515000D03*
X155829000Y-56515000D03*
X159639000Y-55880000D03*
X159004000Y-55880000D03*
X158369000Y-55880000D03*
X157734000Y-55880000D03*
X157099000Y-55880000D03*
X156464000Y-55880000D03*
X155829000Y-55880000D03*
X134700000Y-74500000D03*
X134600000Y-76100000D03*
X172339000Y-59055000D03*
X171704000Y-59055000D03*
X171069000Y-59055000D03*
X170434000Y-59055000D03*
X169799000Y-59055000D03*
X169164000Y-59055000D03*
X168529000Y-59055000D03*
X172339000Y-58420000D03*
X171704000Y-58420000D03*
X171069000Y-58420000D03*
X170434000Y-58420000D03*
X169799000Y-58420000D03*
X169164000Y-58420000D03*
X168529000Y-58420000D03*
X172339000Y-57785000D03*
X171704000Y-57785000D03*
X171069000Y-57785000D03*
X170434000Y-57785000D03*
X169799000Y-57785000D03*
X169164000Y-57785000D03*
X168529000Y-57785000D03*
X172339000Y-57150000D03*
X171704000Y-57150000D03*
X171069000Y-57150000D03*
X170434000Y-57150000D03*
X169799000Y-57150000D03*
X169164000Y-57150000D03*
X168529000Y-57150000D03*
X172339000Y-56515000D03*
X171704000Y-56515000D03*
X171069000Y-56515000D03*
X170434000Y-56515000D03*
X169799000Y-56515000D03*
X169164000Y-56515000D03*
X168529000Y-56515000D03*
X172339000Y-55880000D03*
X171704000Y-55880000D03*
X171069000Y-55880000D03*
X170434000Y-55880000D03*
X169799000Y-55880000D03*
X169164000Y-55880000D03*
X168529000Y-55880000D03*
X134479669Y-77362846D03*
X134508640Y-78918112D03*
X132968996Y-94742000D03*
X139192000Y-66746410D03*
X131572000Y-61468000D03*
X132064185Y-94742000D03*
X127761989Y-94234000D03*
X128143000Y-60452000D03*
X128261410Y-97356622D03*
X129700000Y-76400000D03*
X126746000Y-76834990D03*
X128016000Y-100076000D03*
X125971246Y-77855231D03*
X129009618Y-100064838D03*
X131054153Y-96891145D03*
X129413000Y-71247000D03*
X126854055Y-73149890D03*
X138557000Y-96012000D03*
X129667000Y-72898004D03*
X138572108Y-95226476D03*
X129667887Y-72014226D03*
X138556532Y-94448820D03*
X123952014Y-105410000D03*
X135128000Y-92836988D03*
X135128000Y-91948000D03*
X124714006Y-104775000D03*
X135890000Y-91821000D03*
X125593898Y-104220990D03*
X123444000Y-94488000D03*
X132842000Y-101854000D03*
X124333000Y-94742000D03*
X137287000Y-101219000D03*
X131707514Y-97313176D03*
X129659229Y-75623258D03*
X130048000Y-95407190D03*
X129520590Y-77207915D03*
X126746000Y-77724000D03*
X128905000Y-95250000D03*
X129700000Y-74700000D03*
X138557000Y-93345000D03*
X129667000Y-70104000D03*
X138557002Y-91678189D03*
X121589800Y-98831400D03*
X138326856Y-98301010D03*
X138684000Y-99187000D03*
X139365669Y-90758337D03*
X124206000Y-99060000D03*
D20*
X153416016Y-61468000D03*
D11*
X135382000Y-64388996D03*
D20*
X152527000Y-61722000D03*
D11*
X135382000Y-63500000D03*
D20*
X165989000Y-61468000D03*
D11*
X128778000Y-65659000D03*
D20*
X165100000Y-61721996D03*
D11*
X128800722Y-64709263D03*
X140208000Y-73325010D03*
X143891000Y-67564000D03*
X140081000Y-71755000D03*
X143510000Y-76941379D03*
X140208000Y-74742611D03*
X154686010Y-76962000D03*
X140081000Y-75565000D03*
X156083000Y-67564000D03*
D20*
X159766000Y-67691000D03*
D11*
X140843000Y-71120000D03*
X168783000Y-67564000D03*
X137534607Y-80262276D03*
D21*
X134042040Y-94938960D02*
X133096000Y-95885000D01*
X134042040Y-90182550D02*
X134042040Y-94938960D01*
X140334994Y-79883000D02*
X139573000Y-80644994D01*
X139573000Y-80644994D02*
X139573000Y-81915000D01*
X139573000Y-81915000D02*
X138557000Y-82931000D01*
X138557000Y-82931000D02*
X136144000Y-82931000D01*
X136144000Y-82931000D02*
X134493000Y-84582000D01*
X121158033Y-86868033D02*
X123773259Y-89483259D01*
X121158033Y-66598530D02*
X121158033Y-86868033D01*
X123773259Y-89483259D02*
X123773259Y-93054500D01*
X121724010Y-66032553D02*
X121158033Y-66598530D01*
X130558014Y-100094865D02*
X128925870Y-101727009D01*
X128925870Y-101727009D02*
X122397179Y-101727009D01*
X122397179Y-101727009D02*
X120396011Y-99725841D01*
X120396011Y-99725841D02*
X120396011Y-65889145D01*
X120396011Y-65889145D02*
X123293156Y-62992000D01*
X123293156Y-62992000D02*
X128143000Y-62992000D01*
X128143000Y-62992000D02*
X131097020Y-60037980D01*
X131097020Y-60037980D02*
X131097020Y-58039000D01*
X120015000Y-99949000D02*
X120015000Y-65731326D01*
X129095500Y-61023500D02*
X129095500Y-58039000D01*
X122174020Y-102108020D02*
X120015000Y-99949000D01*
X120015000Y-65731326D02*
X123262326Y-62484000D01*
X131566771Y-99948129D02*
X129406880Y-102108020D01*
X129406880Y-102108020D02*
X122174020Y-102108020D01*
X123262326Y-62484000D02*
X127635000Y-62484000D01*
X127635000Y-62484000D02*
X129095500Y-61023500D01*
X129095500Y-58039000D02*
X129095500Y-58229500D01*
X120777022Y-99568022D02*
X120777022Y-66046964D01*
X123450975Y-63373011D02*
X128814819Y-63373011D01*
X120777022Y-66046964D02*
X123450975Y-63373011D01*
X122554998Y-101345998D02*
X120777022Y-99568022D01*
X129794008Y-99949000D02*
X129794008Y-100100370D01*
X133096000Y-59091830D02*
X133096000Y-58039000D01*
X128814819Y-63373011D02*
X133096000Y-59091830D01*
X128548380Y-101345998D02*
X122554998Y-101345998D01*
X129794008Y-100100370D02*
X128548380Y-101345998D01*
X125603000Y-56134000D02*
X123571000Y-58166000D01*
X123571000Y-58166000D02*
X122047000Y-58166000D01*
X136246870Y-56134000D02*
X125603000Y-56134000D01*
X137099040Y-58039000D02*
X137099040Y-56986170D01*
X137099040Y-56986170D02*
X136246870Y-56134000D01*
X129413000Y-68707000D02*
X129540000Y-68834000D01*
X121793000Y-68707000D02*
X129413000Y-68707000D01*
X130627402Y-93308759D02*
X130627402Y-95959655D01*
X129700000Y-76400000D02*
X131140222Y-77840222D01*
X129230435Y-97356622D02*
X128261410Y-97356622D01*
X130627402Y-95959655D02*
X129230435Y-97356622D01*
X131140222Y-77840222D02*
X131140222Y-92795939D01*
X131140222Y-92795939D02*
X130627402Y-93308759D01*
X130429000Y-80517990D02*
X126746000Y-76834990D01*
X129484401Y-95528113D02*
X129484401Y-93369769D01*
X128016000Y-100076000D02*
X127589001Y-99649001D01*
X128452599Y-95956401D02*
X129056113Y-95956401D01*
X127589001Y-96819999D02*
X128452599Y-95956401D01*
X127589001Y-99649001D02*
X127589001Y-96819999D01*
X129056113Y-95956401D02*
X129484401Y-95528113D01*
X129484401Y-93369769D02*
X130429000Y-92425170D01*
X130429000Y-92425170D02*
X130429000Y-80517990D01*
X127750076Y-100757002D02*
X126619000Y-99625926D01*
X126619000Y-99625926D02*
X126619000Y-94519486D01*
X128317454Y-100757002D02*
X127750076Y-100757002D01*
X129009618Y-100064838D02*
X128317454Y-100757002D01*
X127507989Y-79391974D02*
X125971246Y-77855231D01*
X127507989Y-93630497D02*
X127507989Y-79391974D01*
X126619000Y-94519486D02*
X127507989Y-93630497D01*
X129837264Y-71247000D02*
X131851444Y-73261180D01*
X131382646Y-93835020D02*
X131382646Y-96562652D01*
X129413000Y-71247000D02*
X129837264Y-71247000D01*
X131851444Y-73261180D02*
X131851444Y-93366222D01*
X131851444Y-93366222D02*
X131382646Y-93835020D01*
X131382646Y-96562652D02*
X131054153Y-96891145D01*
X123952014Y-104341151D02*
X123952014Y-105410000D01*
X125753387Y-102539778D02*
X123952014Y-104341151D01*
X133944406Y-102539778D02*
X125753387Y-102539778D01*
X136779000Y-99705184D02*
X133944406Y-102539778D01*
X136779000Y-94487988D02*
X136779000Y-99705184D01*
X135128000Y-92836988D02*
X136779000Y-94487988D01*
X137160000Y-93980000D02*
X135128000Y-91948000D01*
X137160000Y-99827091D02*
X137160000Y-93980000D01*
X124714006Y-104280960D02*
X126099577Y-102895389D01*
X126099577Y-102895389D02*
X134091702Y-102895389D01*
X134091702Y-102895389D02*
X137160000Y-99827091D01*
X124714006Y-104775000D02*
X124714006Y-104280960D01*
X137541000Y-93472000D02*
X135890000Y-91821000D01*
X137541000Y-100076000D02*
X137541000Y-93472000D01*
X134366000Y-103251000D02*
X137541000Y-100076000D01*
X125593898Y-104220990D02*
X126563888Y-103251000D01*
X126563888Y-103251000D02*
X134366000Y-103251000D01*
X129659229Y-75623258D02*
X130083493Y-75623258D01*
X130083493Y-75623258D02*
X131495833Y-77035598D01*
X131495833Y-77035598D02*
X131495833Y-92979158D01*
X131495833Y-92979158D02*
X131001635Y-93473356D01*
X131001635Y-93473356D02*
X131001635Y-96124252D01*
X131001635Y-96124252D02*
X130302000Y-96823887D01*
X131407515Y-97613175D02*
X131707514Y-97313176D01*
X130302000Y-96823887D02*
X130302000Y-97155000D01*
X130302000Y-97155000D02*
X130760175Y-97613175D01*
X130760175Y-97613175D02*
X131407515Y-97613175D01*
X130048000Y-93309079D02*
X130048000Y-95407190D01*
X130784611Y-78471936D02*
X130784611Y-92572468D01*
X130784611Y-92572468D02*
X130048000Y-93309079D01*
X129520590Y-77207915D02*
X130784611Y-78471936D01*
X127889000Y-78867000D02*
X126746000Y-77724000D01*
X128905000Y-95250000D02*
X128905000Y-94537542D01*
X128905000Y-94537542D02*
X127889000Y-93521542D01*
X127889000Y-93521542D02*
X127889000Y-78867000D01*
X132207055Y-73068319D02*
X132207055Y-86184637D01*
X129667000Y-70528264D02*
X132207055Y-73068319D01*
X132207055Y-86184637D02*
X137700607Y-91678189D01*
X129667000Y-70104000D02*
X129667000Y-70528264D01*
X137700607Y-91678189D02*
X138557002Y-91678189D01*
D22*
X139065000Y-72182010D02*
X140208000Y-73325010D01*
X139065000Y-70866000D02*
X139065000Y-72182010D01*
X142367000Y-67564000D02*
X139065000Y-70866000D01*
X143891000Y-67564000D02*
X142367000Y-67564000D01*
X143510000Y-75184000D02*
X140081000Y-71755000D01*
X143510000Y-76941379D02*
X143510000Y-75184000D01*
X140632264Y-74742611D02*
X140208000Y-74742611D01*
X141605000Y-77470000D02*
X141605000Y-75715347D01*
X153974821Y-77673189D02*
X141808189Y-77673189D01*
X154686010Y-76962000D02*
X153974821Y-77673189D01*
X141605000Y-75715347D02*
X140632264Y-74742611D01*
X141808189Y-77673189D02*
X141605000Y-77470000D01*
X141000199Y-78389199D02*
X154655801Y-78389199D01*
X140081000Y-75565000D02*
X140081000Y-77470000D01*
X154655801Y-78389199D02*
X156210000Y-76835000D01*
X156210000Y-75692000D02*
X154178000Y-73660000D01*
X154178000Y-70866000D02*
X156083000Y-68961000D01*
X154178000Y-73660000D02*
X154178000Y-70866000D01*
X140081000Y-77470000D02*
X141000199Y-78389199D01*
X156083000Y-68961000D02*
X156083000Y-67564000D01*
X156210000Y-76835000D02*
X156210000Y-75692000D01*
X158750000Y-66675000D02*
X159766000Y-67691000D01*
X141859000Y-70104000D02*
X152273000Y-70104000D01*
X155702000Y-66675000D02*
X158750000Y-66675000D01*
X152273000Y-70104000D02*
X155702000Y-66675000D01*
X140843000Y-71120000D02*
X141859000Y-70104000D01*
D23*
G36*
X142552013Y-55493741D02*
X142448118Y-55743946D01*
X142447882Y-56014865D01*
X142523403Y-56197641D01*
X142448118Y-56378946D01*
X142447882Y-56649865D01*
X142523403Y-56832641D01*
X142448118Y-57013946D01*
X142447882Y-57284865D01*
X142523403Y-57467641D01*
X142448118Y-57648946D01*
X142447882Y-57919865D01*
X142523403Y-58102641D01*
X142448118Y-58283946D01*
X142447882Y-58554865D01*
X142523403Y-58737641D01*
X142448118Y-58918946D01*
X142447882Y-59189865D01*
X142551339Y-59440252D01*
X142742741Y-59631987D01*
X142992946Y-59735882D01*
X143263865Y-59736118D01*
X143446641Y-59660597D01*
X143627946Y-59735882D01*
X143898865Y-59736118D01*
X144081641Y-59660597D01*
X144262946Y-59735882D01*
X144533865Y-59736118D01*
X144716641Y-59660597D01*
X144897946Y-59735882D01*
X145168865Y-59736118D01*
X145351641Y-59660597D01*
X145532946Y-59735882D01*
X145803865Y-59736118D01*
X145986641Y-59660597D01*
X146167946Y-59735882D01*
X146438865Y-59736118D01*
X146621641Y-59660597D01*
X146802946Y-59735882D01*
X147073865Y-59736118D01*
X147324252Y-59632661D01*
X147515987Y-59441259D01*
X147619882Y-59191054D01*
X147620118Y-58920135D01*
X147544597Y-58737359D01*
X147619882Y-58556054D01*
X147620007Y-58411513D01*
X149502674Y-58411513D01*
X149788436Y-59103109D01*
X150317108Y-59632704D01*
X151008204Y-59919673D01*
X151756513Y-59920326D01*
X152448109Y-59634564D01*
X152977704Y-59105892D01*
X153264673Y-58414796D01*
X153265326Y-57666487D01*
X152979564Y-56974891D01*
X152450892Y-56445296D01*
X151759796Y-56158327D01*
X151011487Y-56157674D01*
X150319891Y-56443436D01*
X149790296Y-56972108D01*
X149503327Y-57663204D01*
X149502674Y-58411513D01*
X147620007Y-58411513D01*
X147620118Y-58285135D01*
X147544597Y-58102359D01*
X147619882Y-57921054D01*
X147620118Y-57650135D01*
X147544597Y-57467359D01*
X147619882Y-57286054D01*
X147620118Y-57015135D01*
X147544597Y-56832359D01*
X147619882Y-56651054D01*
X147620118Y-56380135D01*
X147544597Y-56197359D01*
X147619882Y-56016054D01*
X147620118Y-55745135D01*
X147516661Y-55494748D01*
X147477980Y-55456000D01*
X155289820Y-55456000D01*
X155252013Y-55493741D01*
X155148118Y-55743946D01*
X155147882Y-56014865D01*
X155223403Y-56197641D01*
X155148118Y-56378946D01*
X155147882Y-56649865D01*
X155223403Y-56832641D01*
X155148118Y-57013946D01*
X155147882Y-57284865D01*
X155223403Y-57467641D01*
X155148118Y-57648946D01*
X155147882Y-57919865D01*
X155223403Y-58102641D01*
X155148118Y-58283946D01*
X155147882Y-58554865D01*
X155223403Y-58737641D01*
X155148118Y-58918946D01*
X155147882Y-59189865D01*
X155251339Y-59440252D01*
X155442741Y-59631987D01*
X155692946Y-59735882D01*
X155963865Y-59736118D01*
X156146641Y-59660597D01*
X156327946Y-59735882D01*
X156598865Y-59736118D01*
X156781641Y-59660597D01*
X156962946Y-59735882D01*
X157233865Y-59736118D01*
X157416641Y-59660597D01*
X157597946Y-59735882D01*
X157868865Y-59736118D01*
X158051641Y-59660597D01*
X158232946Y-59735882D01*
X158503865Y-59736118D01*
X158686641Y-59660597D01*
X158867946Y-59735882D01*
X159138865Y-59736118D01*
X159321641Y-59660597D01*
X159502946Y-59735882D01*
X159773865Y-59736118D01*
X160024252Y-59632661D01*
X160215987Y-59441259D01*
X160319882Y-59191054D01*
X160320118Y-58920135D01*
X160244597Y-58737359D01*
X160319882Y-58556054D01*
X160320007Y-58411513D01*
X162202674Y-58411513D01*
X162488436Y-59103109D01*
X163017108Y-59632704D01*
X163708204Y-59919673D01*
X164456513Y-59920326D01*
X165148109Y-59634564D01*
X165677704Y-59105892D01*
X165964673Y-58414796D01*
X165965326Y-57666487D01*
X165679564Y-56974891D01*
X165150892Y-56445296D01*
X164459796Y-56158327D01*
X163711487Y-56157674D01*
X163019891Y-56443436D01*
X162490296Y-56972108D01*
X162203327Y-57663204D01*
X162202674Y-58411513D01*
X160320007Y-58411513D01*
X160320118Y-58285135D01*
X160244597Y-58102359D01*
X160319882Y-57921054D01*
X160320118Y-57650135D01*
X160244597Y-57467359D01*
X160319882Y-57286054D01*
X160320118Y-57015135D01*
X160244597Y-56832359D01*
X160319882Y-56651054D01*
X160320118Y-56380135D01*
X160244597Y-56197359D01*
X160319882Y-56016054D01*
X160320118Y-55745135D01*
X160216661Y-55494748D01*
X160177980Y-55456000D01*
X167989820Y-55456000D01*
X167952013Y-55493741D01*
X167848118Y-55743946D01*
X167847882Y-56014865D01*
X167923403Y-56197641D01*
X167848118Y-56378946D01*
X167847882Y-56649865D01*
X167923403Y-56832641D01*
X167848118Y-57013946D01*
X167847882Y-57284865D01*
X167923403Y-57467641D01*
X167848118Y-57648946D01*
X167847882Y-57919865D01*
X167923403Y-58102641D01*
X167848118Y-58283946D01*
X167847882Y-58554865D01*
X167923403Y-58737641D01*
X167848118Y-58918946D01*
X167847882Y-59189865D01*
X167951339Y-59440252D01*
X168142741Y-59631987D01*
X168392946Y-59735882D01*
X168663865Y-59736118D01*
X168846641Y-59660597D01*
X169027946Y-59735882D01*
X169298865Y-59736118D01*
X169481641Y-59660597D01*
X169662946Y-59735882D01*
X169933865Y-59736118D01*
X170116641Y-59660597D01*
X170297946Y-59735882D01*
X170568865Y-59736118D01*
X170751641Y-59660597D01*
X170932946Y-59735882D01*
X171203865Y-59736118D01*
X171386641Y-59660597D01*
X171567946Y-59735882D01*
X171838865Y-59736118D01*
X172021641Y-59660597D01*
X172202946Y-59735882D01*
X172473865Y-59736118D01*
X172724252Y-59632661D01*
X172915987Y-59441259D01*
X173019882Y-59191054D01*
X173020118Y-58920135D01*
X172944597Y-58737359D01*
X173019882Y-58556054D01*
X173020118Y-58285135D01*
X172944597Y-58102359D01*
X173019882Y-57921054D01*
X173020118Y-57650135D01*
X172944597Y-57467359D01*
X173019882Y-57286054D01*
X173020118Y-57015135D01*
X172944597Y-56832359D01*
X173019882Y-56651054D01*
X173020118Y-56380135D01*
X172944597Y-56197359D01*
X173019882Y-56016054D01*
X173020118Y-55745135D01*
X172916661Y-55494748D01*
X172877980Y-55456000D01*
X172955088Y-55456000D01*
X173587445Y-55581784D01*
X174085456Y-55914544D01*
X174418216Y-56412555D01*
X174544000Y-57044911D01*
X174544000Y-83544000D01*
X162200000Y-83544000D01*
X162155950Y-83552762D01*
X162111039Y-83552762D01*
X161728356Y-83628882D01*
X161563977Y-83696970D01*
X161239553Y-83913743D01*
X161113743Y-84039553D01*
X160896971Y-84363976D01*
X160896970Y-84363977D01*
X160828882Y-84528356D01*
X160752762Y-84911039D01*
X160752762Y-84955950D01*
X160744000Y-85000000D01*
X160744000Y-86544000D01*
X154756000Y-86544000D01*
X154756000Y-85000000D01*
X154747238Y-84955950D01*
X154747238Y-84911039D01*
X154671118Y-84528356D01*
X154603030Y-84363977D01*
X154603029Y-84363976D01*
X154386257Y-84039553D01*
X154260447Y-83913743D01*
X153936023Y-83696970D01*
X153771644Y-83628882D01*
X153388961Y-83552762D01*
X153344050Y-83552762D01*
X153300000Y-83544000D01*
X140000000Y-83544000D01*
X139825496Y-83578711D01*
X139677559Y-83677559D01*
X139578711Y-83825496D01*
X139544000Y-84000000D01*
X139544000Y-90095010D01*
X139501723Y-90077455D01*
X139230804Y-90077219D01*
X138980417Y-90180676D01*
X138788682Y-90372078D01*
X138684787Y-90622283D01*
X138684551Y-90893202D01*
X138734713Y-91014605D01*
X138693056Y-90997307D01*
X138422137Y-90997071D01*
X138171750Y-91100528D01*
X138076524Y-91195589D01*
X137900507Y-91195589D01*
X134088783Y-87383865D01*
X137367882Y-87383865D01*
X137471339Y-87634252D01*
X137662741Y-87825987D01*
X137912946Y-87929882D01*
X138183865Y-87930118D01*
X138434252Y-87826661D01*
X138625987Y-87635259D01*
X138729882Y-87385054D01*
X138730118Y-87114135D01*
X138626661Y-86863748D01*
X138435259Y-86672013D01*
X138185054Y-86568118D01*
X137914135Y-86567882D01*
X137663748Y-86671339D01*
X137472013Y-86862741D01*
X137368118Y-87112946D01*
X137367882Y-87383865D01*
X134088783Y-87383865D01*
X133262307Y-86557389D01*
X133417752Y-86493161D01*
X133609487Y-86301759D01*
X133713382Y-86051554D01*
X133713618Y-85780635D01*
X133610161Y-85530248D01*
X133418759Y-85338513D01*
X133168554Y-85234618D01*
X132897635Y-85234382D01*
X132689655Y-85320317D01*
X132689655Y-84716865D01*
X133811882Y-84716865D01*
X133915339Y-84967252D01*
X134106741Y-85158987D01*
X134356946Y-85262882D01*
X134627865Y-85263118D01*
X134878252Y-85159661D01*
X135069987Y-84968259D01*
X135173882Y-84718054D01*
X135173999Y-84583501D01*
X136343899Y-83413600D01*
X138557000Y-83413600D01*
X138741683Y-83376864D01*
X138898250Y-83272250D01*
X139914250Y-82256250D01*
X140018864Y-82099683D01*
X140055600Y-81915000D01*
X140055600Y-80844894D01*
X140336492Y-80564002D01*
X140469859Y-80564118D01*
X140720246Y-80460661D01*
X140911981Y-80269259D01*
X141015876Y-80019054D01*
X141016112Y-79748135D01*
X140912655Y-79497748D01*
X140721253Y-79306013D01*
X140471048Y-79202118D01*
X140200129Y-79201882D01*
X139949742Y-79305339D01*
X139758007Y-79496741D01*
X139654112Y-79746946D01*
X139653995Y-79881499D01*
X139231750Y-80303744D01*
X139127136Y-80460311D01*
X139090400Y-80644994D01*
X139090400Y-81715100D01*
X138357100Y-82448400D01*
X136144005Y-82448400D01*
X136144000Y-82448399D01*
X135959317Y-82485136D01*
X135802750Y-82589750D01*
X135802748Y-82589753D01*
X134491502Y-83900998D01*
X134358135Y-83900882D01*
X134107748Y-84004339D01*
X133916013Y-84195741D01*
X133812118Y-84445946D01*
X133811882Y-84716865D01*
X132689655Y-84716865D01*
X132689655Y-81473161D01*
X132771882Y-81473161D01*
X132875339Y-81723548D01*
X133066741Y-81915283D01*
X133316946Y-82019178D01*
X133329287Y-82019189D01*
X133329282Y-82024465D01*
X133432739Y-82274852D01*
X133624141Y-82466587D01*
X133874346Y-82570482D01*
X134145265Y-82570718D01*
X134395652Y-82467261D01*
X134587387Y-82275859D01*
X134691282Y-82025654D01*
X134691518Y-81754735D01*
X134588061Y-81504348D01*
X134396659Y-81312613D01*
X134146454Y-81208718D01*
X134134113Y-81208707D01*
X134134118Y-81203431D01*
X134030661Y-80953044D01*
X133839259Y-80761309D01*
X133589054Y-80657414D01*
X133318135Y-80657178D01*
X133067748Y-80760635D01*
X132876013Y-80952037D01*
X132772118Y-81202242D01*
X132771882Y-81473161D01*
X132689655Y-81473161D01*
X132689655Y-80017859D01*
X133303882Y-80017859D01*
X133407339Y-80268246D01*
X133598741Y-80459981D01*
X133733197Y-80515813D01*
X133788333Y-80649252D01*
X133979735Y-80840987D01*
X134114209Y-80896826D01*
X134169339Y-81030252D01*
X134360741Y-81221987D01*
X134610946Y-81325882D01*
X134881865Y-81326118D01*
X135132252Y-81222661D01*
X135323987Y-81031259D01*
X135427882Y-80781054D01*
X135428118Y-80510135D01*
X135381431Y-80397141D01*
X136853489Y-80397141D01*
X136956946Y-80647528D01*
X137148348Y-80839263D01*
X137260215Y-80885715D01*
X137260058Y-81065825D01*
X137363515Y-81316212D01*
X137554917Y-81507947D01*
X137805122Y-81611842D01*
X138076041Y-81612078D01*
X138326428Y-81508621D01*
X138518163Y-81317219D01*
X138622058Y-81067014D01*
X138622294Y-80796095D01*
X138518837Y-80545708D01*
X138327435Y-80353973D01*
X138215568Y-80307521D01*
X138215725Y-80127411D01*
X138112268Y-79877024D01*
X137920866Y-79685289D01*
X137670661Y-79581394D01*
X137399742Y-79581158D01*
X137149355Y-79684615D01*
X136957620Y-79876017D01*
X136853725Y-80126222D01*
X136853489Y-80397141D01*
X135381431Y-80397141D01*
X135324661Y-80259748D01*
X135133259Y-80068013D01*
X134998785Y-80012174D01*
X134943655Y-79878748D01*
X134752253Y-79687013D01*
X134617797Y-79631181D01*
X134604581Y-79599196D01*
X134643505Y-79599230D01*
X134893892Y-79495773D01*
X135085627Y-79304371D01*
X135189522Y-79054166D01*
X135189758Y-78783247D01*
X135086301Y-78532860D01*
X135067965Y-78514492D01*
X135166711Y-78276688D01*
X135166947Y-78005769D01*
X135063490Y-77755382D01*
X135056823Y-77748703D01*
X135160551Y-77498900D01*
X135160787Y-77227981D01*
X135057330Y-76977594D01*
X134865928Y-76785859D01*
X134794836Y-76756339D01*
X134985252Y-76677661D01*
X135176987Y-76486259D01*
X135280882Y-76236054D01*
X135281118Y-75965135D01*
X135177661Y-75714748D01*
X135163080Y-75700142D01*
X135176987Y-75686259D01*
X135280882Y-75436054D01*
X135281118Y-75165135D01*
X135198332Y-74964777D01*
X135276987Y-74886259D01*
X135380882Y-74636054D01*
X135381118Y-74365135D01*
X135277661Y-74114748D01*
X135086259Y-73923013D01*
X134999579Y-73887020D01*
X135181615Y-73705300D01*
X135285510Y-73455095D01*
X135285746Y-73184176D01*
X135182289Y-72933789D01*
X135056665Y-72807947D01*
X135101782Y-72699294D01*
X135102018Y-72428375D01*
X135014027Y-72215419D01*
X135055681Y-72173837D01*
X135159576Y-71923632D01*
X135159812Y-71652713D01*
X135056355Y-71402326D01*
X134864953Y-71210591D01*
X134614748Y-71106696D01*
X134343829Y-71106460D01*
X134093442Y-71209917D01*
X133901707Y-71401319D01*
X133797812Y-71651524D01*
X133797576Y-71922443D01*
X133885567Y-72135399D01*
X133843913Y-72176981D01*
X133740018Y-72427186D01*
X133739782Y-72698105D01*
X133843239Y-72948492D01*
X133968863Y-73074334D01*
X133923746Y-73182987D01*
X133923510Y-73453906D01*
X134026967Y-73704293D01*
X134218369Y-73896028D01*
X134305049Y-73932021D01*
X134123013Y-74113741D01*
X134019118Y-74363946D01*
X134018882Y-74634865D01*
X134101668Y-74835223D01*
X134023013Y-74913741D01*
X133919118Y-75163946D01*
X133918882Y-75434865D01*
X134022339Y-75685252D01*
X134036920Y-75699858D01*
X134023013Y-75713741D01*
X133919118Y-75963946D01*
X133918882Y-76234865D01*
X134022339Y-76485252D01*
X134213741Y-76676987D01*
X134284833Y-76706507D01*
X134094417Y-76785185D01*
X133902682Y-76976587D01*
X133798787Y-77226792D01*
X133798551Y-77497711D01*
X133902008Y-77748098D01*
X133908675Y-77754777D01*
X133804947Y-78004580D01*
X133804711Y-78275499D01*
X133908168Y-78525886D01*
X133926504Y-78544254D01*
X133827758Y-78782058D01*
X133827522Y-79052977D01*
X133889059Y-79201910D01*
X133850135Y-79201876D01*
X133599748Y-79305333D01*
X133408013Y-79496735D01*
X133304118Y-79746940D01*
X133303882Y-80017859D01*
X132689655Y-80017859D01*
X132689655Y-73068319D01*
X132652919Y-72883636D01*
X132548305Y-72727069D01*
X131241170Y-71419934D01*
X131452865Y-71420118D01*
X131703252Y-71316661D01*
X131894987Y-71125259D01*
X131998882Y-70875054D01*
X131998889Y-70866000D01*
X138430000Y-70866000D01*
X138430000Y-72182010D01*
X138478336Y-72425014D01*
X138615987Y-72631023D01*
X139584650Y-73599686D01*
X139630339Y-73710262D01*
X139821741Y-73901997D01*
X140068852Y-74004607D01*
X140068801Y-74063284D01*
X139822748Y-74164950D01*
X139631013Y-74356352D01*
X139527118Y-74606557D01*
X139526882Y-74877476D01*
X139608332Y-75074603D01*
X139504013Y-75178741D01*
X139400118Y-75428946D01*
X139399882Y-75699865D01*
X139446000Y-75811480D01*
X139446000Y-77470000D01*
X139494336Y-77713004D01*
X139631987Y-77919013D01*
X140551186Y-78838212D01*
X140757195Y-78975863D01*
X141000199Y-79024199D01*
X142702084Y-79024199D01*
X142702040Y-79074959D01*
X142613135Y-79074882D01*
X142430359Y-79150403D01*
X142249054Y-79075118D01*
X141978135Y-79074882D01*
X141727748Y-79178339D01*
X141536013Y-79369741D01*
X141432118Y-79619946D01*
X141431882Y-79890865D01*
X141535339Y-80141252D01*
X141726741Y-80332987D01*
X141976946Y-80436882D01*
X142247865Y-80437118D01*
X142430641Y-80361597D01*
X142611946Y-80436882D01*
X142882865Y-80437118D01*
X143065641Y-80361597D01*
X143130048Y-80388341D01*
X143055135Y-80436546D01*
X142968141Y-80563866D01*
X142937536Y-80715000D01*
X142937536Y-83115000D01*
X142964103Y-83256190D01*
X143047546Y-83385865D01*
X143174866Y-83472859D01*
X143326000Y-83503464D01*
X145726000Y-83503464D01*
X145867190Y-83476897D01*
X145996865Y-83393454D01*
X146083859Y-83266134D01*
X146114464Y-83115000D01*
X146114464Y-82228101D01*
X147944726Y-82228101D01*
X148184912Y-82809395D01*
X148629266Y-83254525D01*
X149210140Y-83495725D01*
X149839101Y-83496274D01*
X150420395Y-83256088D01*
X150865525Y-82811734D01*
X151106725Y-82230860D01*
X151106727Y-82228101D01*
X164360726Y-82228101D01*
X164600912Y-82809395D01*
X165045266Y-83254525D01*
X165626140Y-83495725D01*
X166255101Y-83496274D01*
X166836395Y-83256088D01*
X167281525Y-82811734D01*
X167522725Y-82230860D01*
X167523274Y-81601899D01*
X167283088Y-81020605D01*
X166838734Y-80575475D01*
X166257860Y-80334275D01*
X165628899Y-80333726D01*
X165047605Y-80573912D01*
X164602475Y-81018266D01*
X164361275Y-81599140D01*
X164360726Y-82228101D01*
X151106727Y-82228101D01*
X151107274Y-81601899D01*
X150867088Y-81020605D01*
X150422734Y-80575475D01*
X149841860Y-80334275D01*
X149212899Y-80333726D01*
X148631605Y-80573912D01*
X148186475Y-81018266D01*
X147945275Y-81599140D01*
X147944726Y-82228101D01*
X146114464Y-82228101D01*
X146114464Y-80715000D01*
X146087897Y-80573810D01*
X146004454Y-80444135D01*
X145994103Y-80437062D01*
X146057865Y-80437118D01*
X146240641Y-80361597D01*
X146421946Y-80436882D01*
X146692865Y-80437118D01*
X146875641Y-80361597D01*
X147056946Y-80436882D01*
X147327865Y-80437118D01*
X147510641Y-80361597D01*
X147691946Y-80436882D01*
X147962865Y-80437118D01*
X148213252Y-80333661D01*
X148404987Y-80142259D01*
X148508882Y-79892054D01*
X148509118Y-79621135D01*
X148433597Y-79438359D01*
X148508882Y-79257054D01*
X148509085Y-79024199D01*
X154132084Y-79024199D01*
X154131882Y-79255865D01*
X154207403Y-79438641D01*
X154132118Y-79619946D01*
X154131882Y-79890865D01*
X154235339Y-80141252D01*
X154426741Y-80332987D01*
X154676946Y-80436882D01*
X154947865Y-80437118D01*
X155130641Y-80361597D01*
X155311946Y-80436882D01*
X155582865Y-80437118D01*
X155765641Y-80361597D01*
X155946946Y-80436882D01*
X156217865Y-80437118D01*
X156400641Y-80361597D01*
X156581946Y-80436882D01*
X156852865Y-80437118D01*
X157035641Y-80361597D01*
X157216946Y-80436882D01*
X157487865Y-80437118D01*
X157670641Y-80361597D01*
X157851946Y-80436882D01*
X158122865Y-80437118D01*
X158305641Y-80361597D01*
X158486946Y-80436882D01*
X158757865Y-80437118D01*
X158940641Y-80361597D01*
X159121946Y-80436882D01*
X159392865Y-80437118D01*
X159575641Y-80361597D01*
X159756946Y-80436882D01*
X160027865Y-80437118D01*
X160210641Y-80361597D01*
X160391946Y-80436882D01*
X160662865Y-80437118D01*
X160913252Y-80333661D01*
X161104987Y-80142259D01*
X161208882Y-79892054D01*
X161209118Y-79621135D01*
X161133597Y-79438359D01*
X161208882Y-79257054D01*
X161208883Y-79255865D01*
X166831882Y-79255865D01*
X166907403Y-79438641D01*
X166832118Y-79619946D01*
X166831882Y-79890865D01*
X166935339Y-80141252D01*
X167126741Y-80332987D01*
X167376946Y-80436882D01*
X167647865Y-80437118D01*
X167830641Y-80361597D01*
X168011946Y-80436882D01*
X168282865Y-80437118D01*
X168465641Y-80361597D01*
X168646946Y-80436882D01*
X168917865Y-80437118D01*
X169100641Y-80361597D01*
X169281946Y-80436882D01*
X169470793Y-80437047D01*
X169384141Y-80563866D01*
X169353536Y-80715000D01*
X169353536Y-83115000D01*
X169380103Y-83256190D01*
X169463546Y-83385865D01*
X169590866Y-83472859D01*
X169742000Y-83503464D01*
X172142000Y-83503464D01*
X172283190Y-83476897D01*
X172412865Y-83393454D01*
X172499859Y-83266134D01*
X172530464Y-83115000D01*
X172530464Y-80715000D01*
X172503897Y-80573810D01*
X172420454Y-80444135D01*
X172336859Y-80387017D01*
X172456946Y-80436882D01*
X172727865Y-80437118D01*
X172910641Y-80361597D01*
X173091946Y-80436882D01*
X173362865Y-80437118D01*
X173613252Y-80333661D01*
X173804987Y-80142259D01*
X173908882Y-79892054D01*
X173909118Y-79621135D01*
X173805661Y-79370748D01*
X173614259Y-79179013D01*
X173364054Y-79075118D01*
X173093135Y-79074882D01*
X172910359Y-79150403D01*
X172729054Y-79075118D01*
X172639041Y-79075040D01*
X172639118Y-78986135D01*
X172535661Y-78735748D01*
X172344259Y-78544013D01*
X172094054Y-78440118D01*
X171823135Y-78439882D01*
X171640359Y-78515403D01*
X171459054Y-78440118D01*
X171188135Y-78439882D01*
X171005359Y-78515403D01*
X170824054Y-78440118D01*
X170553135Y-78439882D01*
X170370359Y-78515403D01*
X170189054Y-78440118D01*
X169918135Y-78439882D01*
X169735359Y-78515403D01*
X169554054Y-78440118D01*
X169283135Y-78439882D01*
X169100359Y-78515403D01*
X168919054Y-78440118D01*
X168648135Y-78439882D01*
X168465359Y-78515403D01*
X168284054Y-78440118D01*
X168013135Y-78439882D01*
X167830359Y-78515403D01*
X167649054Y-78440118D01*
X167378135Y-78439882D01*
X167127748Y-78543339D01*
X166936013Y-78734741D01*
X166832118Y-78984946D01*
X166831882Y-79255865D01*
X161208883Y-79255865D01*
X161209118Y-78986135D01*
X161105661Y-78735748D01*
X160914259Y-78544013D01*
X160664054Y-78440118D01*
X160393135Y-78439882D01*
X160210359Y-78515403D01*
X160029054Y-78440118D01*
X159758135Y-78439882D01*
X159575359Y-78515403D01*
X159394054Y-78440118D01*
X159123135Y-78439882D01*
X158940359Y-78515403D01*
X158759054Y-78440118D01*
X158488135Y-78439882D01*
X158305359Y-78515403D01*
X158124054Y-78440118D01*
X157853135Y-78439882D01*
X157670359Y-78515403D01*
X157489054Y-78440118D01*
X157218135Y-78439882D01*
X157035359Y-78515403D01*
X156854054Y-78440118D01*
X156583135Y-78439882D01*
X156400359Y-78515403D01*
X156219054Y-78440118D01*
X155948135Y-78439882D01*
X155765359Y-78515403D01*
X155584054Y-78440118D01*
X155502979Y-78440047D01*
X156659013Y-77284013D01*
X156796664Y-77078005D01*
X156845000Y-76835000D01*
X156845000Y-75692000D01*
X156796664Y-75448996D01*
X156659013Y-75242987D01*
X155265990Y-73849964D01*
X155438946Y-73921782D01*
X155709865Y-73922018D01*
X155886275Y-73849127D01*
X156061246Y-73921782D01*
X156332165Y-73922018D01*
X156508575Y-73849127D01*
X156683546Y-73921782D01*
X156954465Y-73922018D01*
X157130875Y-73849127D01*
X157305846Y-73921782D01*
X157576765Y-73922018D01*
X157753175Y-73849127D01*
X157928146Y-73921782D01*
X158199065Y-73922018D01*
X158375475Y-73849127D01*
X158550446Y-73921782D01*
X158821365Y-73922018D01*
X158997775Y-73849127D01*
X159172746Y-73921782D01*
X159443665Y-73922018D01*
X159620075Y-73849127D01*
X159795046Y-73921782D01*
X160065965Y-73922018D01*
X160242375Y-73849127D01*
X160417346Y-73921782D01*
X160688265Y-73922018D01*
X160938652Y-73818561D01*
X161130387Y-73627159D01*
X161234282Y-73376954D01*
X161234518Y-73106035D01*
X161161627Y-72929625D01*
X161234282Y-72754654D01*
X161234518Y-72483735D01*
X161161627Y-72307325D01*
X161234282Y-72132354D01*
X161234518Y-71861435D01*
X161161627Y-71685025D01*
X161234282Y-71510054D01*
X161234283Y-71508865D01*
X167593882Y-71508865D01*
X167666773Y-71685275D01*
X167594118Y-71860246D01*
X167593882Y-72131165D01*
X167666773Y-72307575D01*
X167594118Y-72482546D01*
X167593882Y-72753465D01*
X167666773Y-72929875D01*
X167594118Y-73104846D01*
X167593882Y-73375765D01*
X167697339Y-73626152D01*
X167888741Y-73817887D01*
X168138946Y-73921782D01*
X168409865Y-73922018D01*
X168586275Y-73849127D01*
X168761246Y-73921782D01*
X169032165Y-73922018D01*
X169208575Y-73849127D01*
X169383546Y-73921782D01*
X169654465Y-73922018D01*
X169830875Y-73849127D01*
X170005846Y-73921782D01*
X170276765Y-73922018D01*
X170453175Y-73849127D01*
X170628146Y-73921782D01*
X170899065Y-73922018D01*
X171075475Y-73849127D01*
X171250446Y-73921782D01*
X171521365Y-73922018D01*
X171697775Y-73849127D01*
X171872746Y-73921782D01*
X172143665Y-73922018D01*
X172394052Y-73818561D01*
X172585787Y-73627159D01*
X172689682Y-73376954D01*
X172689749Y-73299652D01*
X172765965Y-73299718D01*
X172942375Y-73226827D01*
X173117346Y-73299482D01*
X173388265Y-73299718D01*
X173638652Y-73196261D01*
X173830387Y-73004859D01*
X173934282Y-72754654D01*
X173934518Y-72483735D01*
X173861627Y-72307325D01*
X173934282Y-72132354D01*
X173934518Y-71861435D01*
X173861627Y-71685025D01*
X173934282Y-71510054D01*
X173934518Y-71239135D01*
X173831061Y-70988748D01*
X173639659Y-70797013D01*
X173389454Y-70693118D01*
X173118535Y-70692882D01*
X172942125Y-70765773D01*
X172767154Y-70693118D01*
X172496235Y-70692882D01*
X172319825Y-70765773D01*
X172144854Y-70693118D01*
X171873935Y-70692882D01*
X171697525Y-70765773D01*
X171522554Y-70693118D01*
X171251635Y-70692882D01*
X171001248Y-70796339D01*
X170809513Y-70987741D01*
X170705618Y-71237946D01*
X170705551Y-71315248D01*
X170629335Y-71315182D01*
X170452925Y-71388073D01*
X170277954Y-71315418D01*
X170200652Y-71315351D01*
X170200718Y-71239135D01*
X170097261Y-70988748D01*
X169905859Y-70797013D01*
X169655654Y-70693118D01*
X169384735Y-70692882D01*
X169208325Y-70765773D01*
X169033354Y-70693118D01*
X168762435Y-70692882D01*
X168586025Y-70765773D01*
X168411054Y-70693118D01*
X168140135Y-70692882D01*
X167889748Y-70796339D01*
X167698013Y-70987741D01*
X167594118Y-71237946D01*
X167593882Y-71508865D01*
X161234283Y-71508865D01*
X161234518Y-71239135D01*
X161131061Y-70988748D01*
X160939659Y-70797013D01*
X160689454Y-70693118D01*
X160418535Y-70692882D01*
X160242125Y-70765773D01*
X160067154Y-70693118D01*
X159796235Y-70692882D01*
X159619825Y-70765773D01*
X159444854Y-70693118D01*
X159173935Y-70692882D01*
X158997525Y-70765773D01*
X158822554Y-70693118D01*
X158551635Y-70692882D01*
X158301248Y-70796339D01*
X158109513Y-70987741D01*
X158005618Y-71237946D01*
X158005551Y-71315248D01*
X157929335Y-71315182D01*
X157752925Y-71388073D01*
X157577954Y-71315418D01*
X157500652Y-71315351D01*
X157500718Y-71239135D01*
X157397261Y-70988748D01*
X157205859Y-70797013D01*
X156955654Y-70693118D01*
X156684735Y-70692882D01*
X156508325Y-70765773D01*
X156333354Y-70693118D01*
X156062435Y-70692882D01*
X155886025Y-70765773D01*
X155711054Y-70693118D01*
X155440135Y-70692882D01*
X155189748Y-70796339D01*
X154998013Y-70987741D01*
X154894118Y-71237946D01*
X154893882Y-71508865D01*
X154966773Y-71685275D01*
X154894118Y-71860246D01*
X154893882Y-72131165D01*
X154966773Y-72307575D01*
X154894118Y-72482546D01*
X154893882Y-72753465D01*
X154966773Y-72929875D01*
X154894118Y-73104846D01*
X154893882Y-73375765D01*
X154965767Y-73549741D01*
X154813000Y-73396974D01*
X154813000Y-71129026D01*
X156532013Y-69410013D01*
X156669664Y-69204004D01*
X156718000Y-68961000D01*
X156718000Y-67810549D01*
X156763882Y-67700054D01*
X156764118Y-67429135D01*
X156714893Y-67310000D01*
X158486974Y-67310000D01*
X159316987Y-68140013D01*
X159333961Y-68151354D01*
X159408101Y-68225624D01*
X159505871Y-68266222D01*
X159522996Y-68277664D01*
X159543020Y-68281647D01*
X159639936Y-68321890D01*
X159745802Y-68321982D01*
X159766000Y-68326000D01*
X159786022Y-68322017D01*
X159890963Y-68322109D01*
X159988805Y-68281682D01*
X160009004Y-68277664D01*
X160025978Y-68266322D01*
X160122966Y-68226248D01*
X160197890Y-68151454D01*
X160215013Y-68140013D01*
X160226354Y-68123039D01*
X160300624Y-68048899D01*
X160341222Y-67951129D01*
X160352664Y-67934004D01*
X160356647Y-67913980D01*
X160396890Y-67817064D01*
X160396982Y-67711198D01*
X160401000Y-67691000D01*
X160397017Y-67670978D01*
X160397109Y-67566037D01*
X160356682Y-67468195D01*
X160352664Y-67447996D01*
X160341322Y-67431022D01*
X160301248Y-67334034D01*
X160226454Y-67259110D01*
X160215013Y-67241987D01*
X159199013Y-66225987D01*
X158993004Y-66088336D01*
X158750000Y-66040000D01*
X155702000Y-66040000D01*
X155458995Y-66088336D01*
X155252987Y-66225987D01*
X154262682Y-67216292D01*
X154325482Y-67065054D01*
X154325718Y-66794135D01*
X154260718Y-66636822D01*
X154325482Y-66480854D01*
X154325718Y-66209935D01*
X154260718Y-66052622D01*
X154325482Y-65896654D01*
X154325718Y-65625735D01*
X154260718Y-65468422D01*
X154325482Y-65312454D01*
X154325718Y-65041535D01*
X154260718Y-64884222D01*
X154325482Y-64728254D01*
X154325718Y-64457335D01*
X154260718Y-64300022D01*
X154325482Y-64144054D01*
X154325483Y-64142865D01*
X161116882Y-64142865D01*
X161181882Y-64300178D01*
X161117118Y-64456146D01*
X161116882Y-64727065D01*
X161181882Y-64884378D01*
X161117118Y-65040346D01*
X161116882Y-65311265D01*
X161181882Y-65468578D01*
X161117118Y-65624546D01*
X161116882Y-65895465D01*
X161181882Y-66052778D01*
X161117118Y-66208746D01*
X161116882Y-66479665D01*
X161181882Y-66636978D01*
X161117118Y-66792946D01*
X161116882Y-67063865D01*
X161181882Y-67221178D01*
X161117118Y-67377146D01*
X161116882Y-67648065D01*
X161220339Y-67898452D01*
X161411741Y-68090187D01*
X161661946Y-68194082D01*
X161932865Y-68194318D01*
X162090178Y-68129318D01*
X162246146Y-68194082D01*
X162517065Y-68194318D01*
X162674378Y-68129318D01*
X162830346Y-68194082D01*
X163101265Y-68194318D01*
X163258578Y-68129318D01*
X163414546Y-68194082D01*
X163685465Y-68194318D01*
X163842778Y-68129318D01*
X163998746Y-68194082D01*
X164269665Y-68194318D01*
X164426978Y-68129318D01*
X164582946Y-68194082D01*
X164853865Y-68194318D01*
X165011178Y-68129318D01*
X165167146Y-68194082D01*
X165438065Y-68194318D01*
X165595378Y-68129318D01*
X165751346Y-68194082D01*
X166022265Y-68194318D01*
X166179578Y-68129318D01*
X166335546Y-68194082D01*
X166606465Y-68194318D01*
X166856852Y-68090861D01*
X167048587Y-67899459D01*
X167131881Y-67698865D01*
X168101882Y-67698865D01*
X168205339Y-67949252D01*
X168396741Y-68140987D01*
X168646946Y-68244882D01*
X168917865Y-68245118D01*
X169168252Y-68141661D01*
X169359987Y-67950259D01*
X169463882Y-67700054D01*
X169464118Y-67429135D01*
X169360661Y-67178748D01*
X169169259Y-66987013D01*
X168919054Y-66883118D01*
X168648135Y-66882882D01*
X168397748Y-66986339D01*
X168206013Y-67177741D01*
X168102118Y-67427946D01*
X168101882Y-67698865D01*
X167131881Y-67698865D01*
X167152482Y-67649254D01*
X167152718Y-67378335D01*
X167087718Y-67221022D01*
X167152482Y-67065054D01*
X167152718Y-66794135D01*
X167087718Y-66636822D01*
X167152482Y-66480854D01*
X167152718Y-66209935D01*
X167087718Y-66052622D01*
X167152482Y-65896654D01*
X167152718Y-65625735D01*
X167087718Y-65468422D01*
X167152482Y-65312454D01*
X167152718Y-65041535D01*
X167087718Y-64884222D01*
X167152482Y-64728254D01*
X167152718Y-64457335D01*
X167087718Y-64300022D01*
X167152482Y-64144054D01*
X167152718Y-63873135D01*
X167049261Y-63622748D01*
X166857859Y-63431013D01*
X166607654Y-63327118D01*
X166336735Y-63326882D01*
X166179422Y-63391882D01*
X166023454Y-63327118D01*
X165752535Y-63326882D01*
X165595222Y-63391882D01*
X165439254Y-63327118D01*
X165168335Y-63326882D01*
X165011022Y-63391882D01*
X164855054Y-63327118D01*
X164584135Y-63326882D01*
X164426822Y-63391882D01*
X164270854Y-63327118D01*
X163999935Y-63326882D01*
X163842622Y-63391882D01*
X163686654Y-63327118D01*
X163415735Y-63326882D01*
X163258422Y-63391882D01*
X163102454Y-63327118D01*
X162831535Y-63326882D01*
X162674222Y-63391882D01*
X162518254Y-63327118D01*
X162247335Y-63326882D01*
X162090022Y-63391882D01*
X161934054Y-63327118D01*
X161663135Y-63326882D01*
X161412748Y-63430339D01*
X161221013Y-63621741D01*
X161117118Y-63871946D01*
X161116882Y-64142865D01*
X154325483Y-64142865D01*
X154325718Y-63873135D01*
X154222261Y-63622748D01*
X154030859Y-63431013D01*
X153780654Y-63327118D01*
X153509735Y-63326882D01*
X153352422Y-63391882D01*
X153196454Y-63327118D01*
X152925535Y-63326882D01*
X152768222Y-63391882D01*
X152612254Y-63327118D01*
X152341335Y-63326882D01*
X152184022Y-63391882D01*
X152028054Y-63327118D01*
X151757135Y-63326882D01*
X151599822Y-63391882D01*
X151443854Y-63327118D01*
X151172935Y-63326882D01*
X151015622Y-63391882D01*
X150859654Y-63327118D01*
X150588735Y-63326882D01*
X150431422Y-63391882D01*
X150275454Y-63327118D01*
X150004535Y-63326882D01*
X149847222Y-63391882D01*
X149691254Y-63327118D01*
X149420335Y-63326882D01*
X149263022Y-63391882D01*
X149107054Y-63327118D01*
X148836135Y-63326882D01*
X148585748Y-63430339D01*
X148394013Y-63621741D01*
X148290118Y-63871946D01*
X148289882Y-64142865D01*
X148354882Y-64300178D01*
X148290118Y-64456146D01*
X148289882Y-64727065D01*
X148354882Y-64884378D01*
X148290118Y-65040346D01*
X148289882Y-65311265D01*
X148354882Y-65468578D01*
X148290118Y-65624546D01*
X148289882Y-65895465D01*
X148354882Y-66052778D01*
X148290118Y-66208746D01*
X148289882Y-66479665D01*
X148354882Y-66636978D01*
X148290118Y-66792946D01*
X148289882Y-67063865D01*
X148354882Y-67221178D01*
X148290118Y-67377146D01*
X148289882Y-67648065D01*
X148393339Y-67898452D01*
X148584741Y-68090187D01*
X148834946Y-68194082D01*
X149105865Y-68194318D01*
X149263178Y-68129318D01*
X149419146Y-68194082D01*
X149690065Y-68194318D01*
X149847378Y-68129318D01*
X150003346Y-68194082D01*
X150274265Y-68194318D01*
X150431578Y-68129318D01*
X150587546Y-68194082D01*
X150858465Y-68194318D01*
X151015778Y-68129318D01*
X151171746Y-68194082D01*
X151442665Y-68194318D01*
X151599978Y-68129318D01*
X151755946Y-68194082D01*
X152026865Y-68194318D01*
X152184178Y-68129318D01*
X152340146Y-68194082D01*
X152611065Y-68194318D01*
X152768378Y-68129318D01*
X152924346Y-68194082D01*
X153195265Y-68194318D01*
X153347598Y-68131376D01*
X152009974Y-69469000D01*
X141859000Y-69469000D01*
X141615996Y-69517336D01*
X141409987Y-69654987D01*
X140568324Y-70496650D01*
X140457748Y-70542339D01*
X140266013Y-70733741D01*
X140162118Y-70983946D01*
X140162039Y-71074070D01*
X139946135Y-71073882D01*
X139700000Y-71175582D01*
X139700000Y-71129026D01*
X142630026Y-68199000D01*
X143644451Y-68199000D01*
X143754946Y-68244882D01*
X144025865Y-68245118D01*
X144276252Y-68141661D01*
X144467987Y-67950259D01*
X144571882Y-67700054D01*
X144572118Y-67429135D01*
X144468661Y-67178748D01*
X144277259Y-66987013D01*
X144027054Y-66883118D01*
X143756135Y-66882882D01*
X143644520Y-66929000D01*
X142367000Y-66929000D01*
X142123996Y-66977336D01*
X141917987Y-67114987D01*
X138615987Y-70416987D01*
X138478336Y-70622996D01*
X138430000Y-70866000D01*
X131998889Y-70866000D01*
X131999118Y-70604135D01*
X131923597Y-70421359D01*
X131998882Y-70240054D01*
X131999118Y-69969135D01*
X131895661Y-69718748D01*
X131704259Y-69527013D01*
X131454054Y-69423118D01*
X131183135Y-69422882D01*
X131000359Y-69498403D01*
X130819054Y-69423118D01*
X130548135Y-69422882D01*
X130297748Y-69526339D01*
X130174954Y-69648920D01*
X130053259Y-69527013D01*
X129850172Y-69442683D01*
X129925252Y-69411661D01*
X130116987Y-69220259D01*
X130220882Y-68970054D01*
X130221118Y-68699135D01*
X130117661Y-68448748D01*
X129926259Y-68257013D01*
X129676054Y-68153118D01*
X129405135Y-68152882D01*
X129232047Y-68224400D01*
X122273482Y-68224400D01*
X122179259Y-68130013D01*
X121929054Y-68026118D01*
X121658135Y-68025882D01*
X121640633Y-68033114D01*
X121640633Y-67571865D01*
X132287882Y-67571865D01*
X132391339Y-67822252D01*
X132582741Y-68013987D01*
X132832946Y-68117882D01*
X133103865Y-68118118D01*
X133286641Y-68042597D01*
X133299841Y-68048078D01*
X133204813Y-68142941D01*
X133134035Y-68313391D01*
X132964748Y-68383339D01*
X132773013Y-68574741D01*
X132669118Y-68824946D01*
X132668882Y-69095865D01*
X132772339Y-69346252D01*
X132963741Y-69537987D01*
X133213946Y-69641882D01*
X133484865Y-69642118D01*
X133735252Y-69538661D01*
X133926987Y-69347259D01*
X133997765Y-69176809D01*
X134167052Y-69106861D01*
X134358787Y-68915459D01*
X134462682Y-68665254D01*
X134462918Y-68394335D01*
X134359461Y-68143948D01*
X134333641Y-68118083D01*
X134373865Y-68118118D01*
X134624252Y-68014661D01*
X134815987Y-67823259D01*
X134919882Y-67573054D01*
X134920118Y-67302135D01*
X134816661Y-67051748D01*
X134646485Y-66881275D01*
X138510882Y-66881275D01*
X138614339Y-67131662D01*
X138805741Y-67323397D01*
X139055946Y-67427292D01*
X139326865Y-67427528D01*
X139577252Y-67324071D01*
X139768987Y-67132669D01*
X139872882Y-66882464D01*
X139873118Y-66611545D01*
X139769661Y-66361158D01*
X139578259Y-66169423D01*
X139328054Y-66065528D01*
X139057135Y-66065292D01*
X138806748Y-66168749D01*
X138615013Y-66360151D01*
X138511118Y-66610356D01*
X138510882Y-66881275D01*
X134646485Y-66881275D01*
X134625259Y-66860013D01*
X134375054Y-66756118D01*
X134104135Y-66755882D01*
X133921359Y-66831403D01*
X133740054Y-66756118D01*
X133469135Y-66755882D01*
X133286359Y-66831403D01*
X133105054Y-66756118D01*
X132834135Y-66755882D01*
X132583748Y-66859339D01*
X132392013Y-67050741D01*
X132288118Y-67300946D01*
X132287882Y-67571865D01*
X121640633Y-67571865D01*
X121640633Y-66798430D01*
X121725508Y-66713555D01*
X121858875Y-66713671D01*
X122109262Y-66610214D01*
X122300997Y-66418812D01*
X122404892Y-66168607D01*
X122405128Y-65897688D01*
X122301671Y-65647301D01*
X122110269Y-65455566D01*
X122068333Y-65438153D01*
X122521594Y-64984892D01*
X122509114Y-65014946D01*
X122508878Y-65285865D01*
X122612335Y-65536252D01*
X122803737Y-65727987D01*
X123053942Y-65831882D01*
X123324861Y-65832118D01*
X123417441Y-65793865D01*
X128096882Y-65793865D01*
X128200339Y-66044252D01*
X128391741Y-66235987D01*
X128641946Y-66339882D01*
X128912865Y-66340118D01*
X129163252Y-66236661D01*
X129354987Y-66045259D01*
X129458882Y-65795054D01*
X129459118Y-65524135D01*
X129355661Y-65273748D01*
X129277553Y-65195504D01*
X129377709Y-65095522D01*
X129481604Y-64845317D01*
X129481840Y-64574398D01*
X129378383Y-64324011D01*
X129186981Y-64132276D01*
X128936776Y-64028381D01*
X128665857Y-64028145D01*
X128415470Y-64131602D01*
X128223735Y-64323004D01*
X128119840Y-64573209D01*
X128119604Y-64844128D01*
X128223061Y-65094515D01*
X128301169Y-65172759D01*
X128201013Y-65272741D01*
X128097118Y-65522946D01*
X128096882Y-65793865D01*
X123417441Y-65793865D01*
X123575248Y-65728661D01*
X123766983Y-65537259D01*
X123870878Y-65287054D01*
X123871114Y-65016135D01*
X123767657Y-64765748D01*
X123576255Y-64574013D01*
X123326050Y-64470118D01*
X123055131Y-64469882D01*
X123023557Y-64482928D01*
X123650874Y-63855611D01*
X128814819Y-63855611D01*
X128999502Y-63818875D01*
X129156069Y-63714261D01*
X129235465Y-63634865D01*
X134700882Y-63634865D01*
X134804339Y-63885252D01*
X134863418Y-63944434D01*
X134805013Y-64002737D01*
X134701118Y-64252942D01*
X134700882Y-64523861D01*
X134804339Y-64774248D01*
X134995741Y-64965983D01*
X135245946Y-65069878D01*
X135516865Y-65070114D01*
X135767252Y-64966657D01*
X135958987Y-64775255D01*
X136062882Y-64525050D01*
X136063118Y-64254131D01*
X135959661Y-64003744D01*
X135900582Y-63944562D01*
X135958987Y-63886259D01*
X136062882Y-63636054D01*
X136063118Y-63365135D01*
X135959661Y-63114748D01*
X135768259Y-62923013D01*
X135518054Y-62819118D01*
X135247135Y-62818882D01*
X134996748Y-62922339D01*
X134805013Y-63113741D01*
X134701118Y-63363946D01*
X134700882Y-63634865D01*
X129235465Y-63634865D01*
X131005699Y-61864631D01*
X131185741Y-62044987D01*
X131435946Y-62148882D01*
X131706865Y-62149118D01*
X131799445Y-62110865D01*
X134700882Y-62110865D01*
X134804339Y-62361252D01*
X134995741Y-62552987D01*
X135245946Y-62656882D01*
X135516865Y-62657118D01*
X135767252Y-62553661D01*
X135958987Y-62362259D01*
X136062882Y-62112054D01*
X136063112Y-61846963D01*
X151895891Y-61846963D01*
X151991752Y-62078966D01*
X152169101Y-62256624D01*
X152400936Y-62352890D01*
X152651963Y-62353109D01*
X152883966Y-62257248D01*
X153061624Y-62079899D01*
X153088477Y-62015230D01*
X153289952Y-62098890D01*
X153540979Y-62099109D01*
X153772982Y-62003248D01*
X153929543Y-61846959D01*
X164468891Y-61846959D01*
X164564752Y-62078962D01*
X164742101Y-62256620D01*
X164973936Y-62352886D01*
X165224963Y-62353105D01*
X165456966Y-62257244D01*
X165634624Y-62079895D01*
X165661473Y-62015235D01*
X165862936Y-62098890D01*
X166113963Y-62099109D01*
X166345966Y-62003248D01*
X166523624Y-61825899D01*
X166619890Y-61594064D01*
X166620109Y-61343037D01*
X166524248Y-61111034D01*
X166346899Y-60933376D01*
X166115064Y-60837110D01*
X165864037Y-60836891D01*
X165632034Y-60932752D01*
X165454376Y-61110101D01*
X165427527Y-61174761D01*
X165226064Y-61091106D01*
X164975037Y-61090887D01*
X164743034Y-61186748D01*
X164565376Y-61364097D01*
X164469110Y-61595932D01*
X164468891Y-61846959D01*
X153929543Y-61846959D01*
X153950640Y-61825899D01*
X154046906Y-61594064D01*
X154047125Y-61343037D01*
X153951264Y-61111034D01*
X153773915Y-60933376D01*
X153542080Y-60837110D01*
X153291053Y-60836891D01*
X153059050Y-60932752D01*
X152881392Y-61110101D01*
X152854539Y-61174770D01*
X152653064Y-61091110D01*
X152402037Y-61090891D01*
X152170034Y-61186752D01*
X151992376Y-61364101D01*
X151896110Y-61595936D01*
X151895891Y-61846963D01*
X136063112Y-61846963D01*
X136063118Y-61841135D01*
X135959661Y-61590748D01*
X135768259Y-61399013D01*
X135518054Y-61295118D01*
X135247135Y-61294882D01*
X134996748Y-61398339D01*
X134805013Y-61589741D01*
X134701118Y-61839946D01*
X134700882Y-62110865D01*
X131799445Y-62110865D01*
X131957252Y-62045661D01*
X132148987Y-61854259D01*
X132252882Y-61604054D01*
X132253118Y-61333135D01*
X132149661Y-61082748D01*
X131968779Y-60901551D01*
X133437250Y-59433080D01*
X133541864Y-59276513D01*
X133565865Y-59155853D01*
X133789276Y-59006575D01*
X134001808Y-58688497D01*
X134076440Y-58313299D01*
X134076440Y-57764701D01*
X134117080Y-57764701D01*
X134117080Y-58313299D01*
X134191712Y-58688497D01*
X134404244Y-59006575D01*
X134722322Y-59219107D01*
X135097520Y-59293739D01*
X135472718Y-59219107D01*
X135790796Y-59006575D01*
X136003328Y-58688497D01*
X136077960Y-58313299D01*
X136077960Y-57764701D01*
X136003328Y-57389503D01*
X135790796Y-57071425D01*
X135472718Y-56858893D01*
X135097520Y-56784261D01*
X134722322Y-56858893D01*
X134404244Y-57071425D01*
X134191712Y-57389503D01*
X134117080Y-57764701D01*
X134076440Y-57764701D01*
X134001808Y-57389503D01*
X133789276Y-57071425D01*
X133471198Y-56858893D01*
X133096000Y-56784261D01*
X132720802Y-56858893D01*
X132402724Y-57071425D01*
X132190192Y-57389503D01*
X132115560Y-57764701D01*
X132115560Y-58313299D01*
X132190192Y-58688497D01*
X132402724Y-59006575D01*
X132460290Y-59045040D01*
X131579620Y-59925710D01*
X131579620Y-59147344D01*
X131790296Y-59006575D01*
X132002828Y-58688497D01*
X132077460Y-58313299D01*
X132077460Y-57764701D01*
X132002828Y-57389503D01*
X131790296Y-57071425D01*
X131472218Y-56858893D01*
X131097020Y-56784261D01*
X130721822Y-56858893D01*
X130403744Y-57071425D01*
X130191212Y-57389503D01*
X130116580Y-57764701D01*
X130116580Y-58313299D01*
X130191212Y-58688497D01*
X130403744Y-59006575D01*
X130614420Y-59147344D01*
X130614420Y-59838080D01*
X129578100Y-60874400D01*
X129578100Y-59147344D01*
X129788776Y-59006575D01*
X130001308Y-58688497D01*
X130075940Y-58313299D01*
X130075940Y-57764701D01*
X130001308Y-57389503D01*
X129788776Y-57071425D01*
X129470698Y-56858893D01*
X129095500Y-56784261D01*
X128720302Y-56858893D01*
X128402224Y-57071425D01*
X128189692Y-57389503D01*
X128115060Y-57764701D01*
X128115060Y-58313299D01*
X128189692Y-58688497D01*
X128402224Y-59006575D01*
X128612900Y-59147344D01*
X128612900Y-59958800D01*
X128529259Y-59875013D01*
X128279054Y-59771118D01*
X128008135Y-59770882D01*
X127757748Y-59874339D01*
X127566013Y-60065741D01*
X127462118Y-60315946D01*
X127461882Y-60586865D01*
X127565339Y-60837252D01*
X127756741Y-61028987D01*
X128006946Y-61132882D01*
X128277865Y-61133118D01*
X128321349Y-61115151D01*
X127435100Y-62001400D01*
X123262326Y-62001400D01*
X123077643Y-62038136D01*
X122921076Y-62142750D01*
X122921074Y-62142753D01*
X119673750Y-65390076D01*
X119569136Y-65546643D01*
X119532400Y-65731326D01*
X119532400Y-85609604D01*
X119479985Y-85557098D01*
X119257121Y-85464556D01*
X119258039Y-85459940D01*
X119183407Y-85084742D01*
X118970875Y-84766664D01*
X118652797Y-84554132D01*
X118277599Y-84479500D01*
X117729001Y-84479500D01*
X117353803Y-84554132D01*
X117035725Y-84766664D01*
X116823193Y-85084742D01*
X116748561Y-85459940D01*
X116823193Y-85835138D01*
X117035725Y-86153216D01*
X117353803Y-86365748D01*
X117729001Y-86440380D01*
X118277599Y-86440380D01*
X118467808Y-86402545D01*
X118516065Y-86519337D01*
X118530585Y-86533882D01*
X118277599Y-86483560D01*
X117729001Y-86483560D01*
X117353803Y-86558192D01*
X117035725Y-86770724D01*
X116823193Y-87088802D01*
X116748561Y-87464000D01*
X116823193Y-87839198D01*
X117035725Y-88157276D01*
X117353803Y-88369808D01*
X117729001Y-88444440D01*
X118277599Y-88444440D01*
X118652797Y-88369808D01*
X118970875Y-88157276D01*
X119183407Y-87839198D01*
X119258039Y-87464000D01*
X119183407Y-87088802D01*
X119000462Y-86815004D01*
X119228591Y-86815203D01*
X119478978Y-86711746D01*
X119532400Y-86658417D01*
X119532400Y-99949000D01*
X119569136Y-100133683D01*
X119673750Y-100290250D01*
X121832768Y-102449267D01*
X121832770Y-102449270D01*
X121961252Y-102535118D01*
X121989337Y-102553884D01*
X122174020Y-102590620D01*
X125020045Y-102590620D01*
X123750809Y-103859856D01*
X123703259Y-103812223D01*
X123453054Y-103708328D01*
X123182135Y-103708092D01*
X122931748Y-103811549D01*
X122740013Y-104002951D01*
X122636118Y-104253156D01*
X122635882Y-104524075D01*
X122739339Y-104774462D01*
X122930741Y-104966197D01*
X123180946Y-105070092D01*
X123355717Y-105070244D01*
X123271132Y-105273946D01*
X123270896Y-105544865D01*
X123374353Y-105795252D01*
X123565755Y-105986987D01*
X123815960Y-106090882D01*
X124086879Y-106091118D01*
X124337266Y-105987661D01*
X124529001Y-105796259D01*
X124632896Y-105546054D01*
X124632975Y-105455930D01*
X124848871Y-105456118D01*
X125099258Y-105352661D01*
X125290993Y-105161259D01*
X125394888Y-104911054D01*
X125394919Y-104875743D01*
X125457844Y-104901872D01*
X125728763Y-104902108D01*
X125944722Y-104812876D01*
X136751699Y-104812876D01*
X136855156Y-105063263D01*
X137046558Y-105254998D01*
X137296763Y-105358893D01*
X137567682Y-105359129D01*
X137818069Y-105255672D01*
X138009804Y-105064270D01*
X138113699Y-104814065D01*
X138113935Y-104543146D01*
X138010478Y-104292759D01*
X137819076Y-104101024D01*
X137568871Y-103997129D01*
X137297952Y-103996893D01*
X137047565Y-104100350D01*
X136855830Y-104291752D01*
X136751935Y-104541957D01*
X136751699Y-104812876D01*
X125944722Y-104812876D01*
X125979150Y-104798651D01*
X126170885Y-104607249D01*
X126274780Y-104357044D01*
X126274897Y-104222491D01*
X126763788Y-103733600D01*
X130409011Y-103733600D01*
X130383118Y-103795956D01*
X130382882Y-104066875D01*
X130486339Y-104317262D01*
X130677741Y-104508997D01*
X130927946Y-104612892D01*
X131198865Y-104613128D01*
X131449252Y-104509671D01*
X131640987Y-104318269D01*
X131744882Y-104068064D01*
X131745118Y-103797145D01*
X131718862Y-103733600D01*
X134366000Y-103733600D01*
X134550683Y-103696864D01*
X134707250Y-103592250D01*
X135235338Y-103064162D01*
X135235213Y-103208066D01*
X135338670Y-103458453D01*
X135530072Y-103650188D01*
X135780277Y-103754083D01*
X136051196Y-103754319D01*
X136301583Y-103650862D01*
X136493318Y-103459460D01*
X136597213Y-103209255D01*
X136597449Y-102938336D01*
X136493992Y-102687949D01*
X136302590Y-102496214D01*
X136052385Y-102392319D01*
X135907307Y-102392193D01*
X136705219Y-101594281D01*
X136709339Y-101604252D01*
X136900741Y-101795987D01*
X137150946Y-101899882D01*
X137421865Y-101900118D01*
X137672252Y-101796661D01*
X137863987Y-101605259D01*
X137967882Y-101355054D01*
X137968118Y-101084135D01*
X137864661Y-100833748D01*
X137673259Y-100642013D01*
X137662115Y-100637385D01*
X137882250Y-100417250D01*
X137986864Y-100260683D01*
X138023600Y-100076000D01*
X138023600Y-99372007D01*
X138106339Y-99572252D01*
X138297741Y-99763987D01*
X138547946Y-99867882D01*
X138818865Y-99868118D01*
X139069252Y-99764661D01*
X139260987Y-99573259D01*
X139364882Y-99323054D01*
X139365118Y-99052135D01*
X139261661Y-98801748D01*
X139070259Y-98610013D01*
X138955679Y-98562435D01*
X139007738Y-98437064D01*
X139007974Y-98166145D01*
X138904517Y-97915758D01*
X138776055Y-97787072D01*
X138870479Y-97692812D01*
X138974374Y-97442607D01*
X138974610Y-97171688D01*
X138871153Y-96921301D01*
X138679751Y-96729566D01*
X138591765Y-96693031D01*
X138691865Y-96693118D01*
X138942252Y-96589661D01*
X139133987Y-96398259D01*
X139237882Y-96148054D01*
X139238118Y-95877135D01*
X139134777Y-95627028D01*
X139149095Y-95612735D01*
X139252990Y-95362530D01*
X139253226Y-95091611D01*
X139149769Y-94841224D01*
X139136491Y-94827923D01*
X139237414Y-94584874D01*
X139237650Y-94313955D01*
X139134193Y-94063568D01*
X138967936Y-93897022D01*
X139133987Y-93731259D01*
X139237882Y-93481054D01*
X139238118Y-93210135D01*
X139137232Y-92965971D01*
X139158689Y-92944551D01*
X139262584Y-92694346D01*
X139262820Y-92423427D01*
X139159363Y-92173040D01*
X139092402Y-92105963D01*
X139133989Y-92064448D01*
X139237884Y-91814243D01*
X139238120Y-91543324D01*
X139187958Y-91421921D01*
X139229615Y-91439219D01*
X139500534Y-91439455D01*
X139544000Y-91421495D01*
X139544000Y-109898787D01*
X139353833Y-109819822D01*
X139261661Y-109596748D01*
X139070259Y-109405013D01*
X138881817Y-109326764D01*
X138804461Y-109139548D01*
X138613059Y-108947813D01*
X138362854Y-108843918D01*
X138091935Y-108843682D01*
X137841548Y-108947139D01*
X137718710Y-109069764D01*
X137546259Y-108897013D01*
X137296054Y-108793118D01*
X137025135Y-108792882D01*
X136774748Y-108896339D01*
X136583013Y-109087741D01*
X136479118Y-109337946D01*
X136478882Y-109608865D01*
X136582339Y-109859252D01*
X136773741Y-110050987D01*
X137023946Y-110154882D01*
X137294865Y-110155118D01*
X137545252Y-110051661D01*
X137668090Y-109929036D01*
X137840541Y-110101787D01*
X138028983Y-110180036D01*
X138106339Y-110367252D01*
X138297741Y-110558987D01*
X138522167Y-110652178D01*
X138614339Y-110875252D01*
X138805741Y-111066987D01*
X139055946Y-111170882D01*
X139326865Y-111171118D01*
X139544000Y-111081400D01*
X139544000Y-114544000D01*
X137879052Y-114544000D01*
X137990987Y-114432259D01*
X138094882Y-114182054D01*
X138095118Y-113911135D01*
X137991661Y-113660748D01*
X137800259Y-113469013D01*
X137550054Y-113365118D01*
X137279135Y-113364882D01*
X137028748Y-113468339D01*
X136837013Y-113659741D01*
X136733118Y-113909946D01*
X136732882Y-114180865D01*
X136836339Y-114431252D01*
X136948891Y-114544000D01*
X136228052Y-114544000D01*
X136339987Y-114432259D01*
X136443882Y-114182054D01*
X136444118Y-113911135D01*
X136340661Y-113660748D01*
X136149259Y-113469013D01*
X135924833Y-113375822D01*
X135832661Y-113152748D01*
X135641259Y-112961013D01*
X135422156Y-112870033D01*
X135386553Y-112783865D01*
X137240882Y-112783865D01*
X137344339Y-113034252D01*
X137535741Y-113225987D01*
X137785946Y-113329882D01*
X138056865Y-113330118D01*
X138307252Y-113226661D01*
X138498987Y-113035259D01*
X138602882Y-112785054D01*
X138603118Y-112514135D01*
X138499661Y-112263748D01*
X138308259Y-112072013D01*
X138058054Y-111968118D01*
X137787135Y-111967882D01*
X137536748Y-112071339D01*
X137345013Y-112262741D01*
X137241118Y-112512946D01*
X137240882Y-112783865D01*
X135386553Y-112783865D01*
X135350061Y-112695548D01*
X135158659Y-112503813D01*
X134908454Y-112399918D01*
X134637535Y-112399682D01*
X134387148Y-112503139D01*
X134195413Y-112694541D01*
X134091518Y-112944746D01*
X134091282Y-113215665D01*
X134194739Y-113466052D01*
X134386141Y-113657787D01*
X134605244Y-113748767D01*
X134677339Y-113923252D01*
X134868741Y-114114987D01*
X135093167Y-114208178D01*
X135185339Y-114431252D01*
X135297891Y-114544000D01*
X117044911Y-114544000D01*
X116412555Y-114418216D01*
X115914544Y-114085456D01*
X115581784Y-113587445D01*
X115456000Y-112955088D01*
X115456000Y-112400904D01*
X125307000Y-112400904D01*
X125307000Y-113151096D01*
X125377868Y-113507374D01*
X125579684Y-113809412D01*
X125881722Y-114011228D01*
X126238000Y-114082096D01*
X126594278Y-114011228D01*
X126720535Y-113926865D01*
X131652882Y-113926865D01*
X131756339Y-114177252D01*
X131947741Y-114368987D01*
X132197946Y-114472882D01*
X132468865Y-114473118D01*
X132719252Y-114369661D01*
X132910987Y-114178259D01*
X133014882Y-113928054D01*
X133015118Y-113657135D01*
X132911661Y-113406748D01*
X132720259Y-113215013D01*
X132470054Y-113111118D01*
X132199135Y-113110882D01*
X131948748Y-113214339D01*
X131757013Y-113405741D01*
X131653118Y-113655946D01*
X131652882Y-113926865D01*
X126720535Y-113926865D01*
X126896316Y-113809412D01*
X127098132Y-113507374D01*
X127169000Y-113151096D01*
X127169000Y-112400904D01*
X127098132Y-112044626D01*
X127082924Y-112021865D01*
X130001882Y-112021865D01*
X130105339Y-112272252D01*
X130296741Y-112463987D01*
X130546946Y-112567882D01*
X130817865Y-112568118D01*
X131068252Y-112464661D01*
X131259987Y-112273259D01*
X131363882Y-112023054D01*
X131364118Y-111752135D01*
X131260661Y-111501748D01*
X131069259Y-111310013D01*
X130819054Y-111206118D01*
X130548135Y-111205882D01*
X130297748Y-111309339D01*
X130106013Y-111500741D01*
X130002118Y-111750946D01*
X130001882Y-112021865D01*
X127082924Y-112021865D01*
X126896316Y-111742588D01*
X126594278Y-111540772D01*
X126238000Y-111469904D01*
X125881722Y-111540772D01*
X125579684Y-111742588D01*
X125377868Y-112044626D01*
X125307000Y-112400904D01*
X115456000Y-112400904D01*
X115456000Y-110088701D01*
X116273580Y-110088701D01*
X116273580Y-110637299D01*
X116348212Y-111012497D01*
X116560744Y-111330575D01*
X116878822Y-111543107D01*
X117254020Y-111617739D01*
X117629218Y-111543107D01*
X117947296Y-111330575D01*
X118159828Y-111012497D01*
X118234460Y-110637299D01*
X118234460Y-110088701D01*
X118272560Y-110088701D01*
X118272560Y-110637299D01*
X118347192Y-111012497D01*
X118559724Y-111330575D01*
X118877802Y-111543107D01*
X119253000Y-111617739D01*
X119628198Y-111543107D01*
X119946276Y-111330575D01*
X120158808Y-111012497D01*
X120233440Y-110637299D01*
X120233440Y-110088701D01*
X120274080Y-110088701D01*
X120274080Y-110637299D01*
X120348712Y-111012497D01*
X120561244Y-111330575D01*
X120879322Y-111543107D01*
X121254520Y-111617739D01*
X121629718Y-111543107D01*
X121947796Y-111330575D01*
X122160328Y-111012497D01*
X122234960Y-110637299D01*
X122234960Y-110088701D01*
X122160328Y-109713503D01*
X122026604Y-109513370D01*
X122268136Y-109513370D01*
X122268136Y-111212630D01*
X122294703Y-111353820D01*
X122378146Y-111483495D01*
X122505466Y-111570489D01*
X122656600Y-111601094D01*
X123855480Y-111601094D01*
X123996670Y-111574527D01*
X124126345Y-111491084D01*
X124213339Y-111363764D01*
X124243944Y-111212630D01*
X124243944Y-109513370D01*
X124222045Y-109396985D01*
X127457000Y-109396985D01*
X127457000Y-110555015D01*
X127527868Y-110911293D01*
X127729684Y-111213331D01*
X128031722Y-111415147D01*
X128388000Y-111486015D01*
X128744278Y-111415147D01*
X128925488Y-111294066D01*
X128962339Y-111383252D01*
X129153741Y-111574987D01*
X129403946Y-111678882D01*
X129674865Y-111679118D01*
X129925252Y-111575661D01*
X130116987Y-111384259D01*
X130220882Y-111134054D01*
X130221118Y-110863135D01*
X130117661Y-110612748D01*
X129926259Y-110421013D01*
X129676054Y-110317118D01*
X129405135Y-110316882D01*
X129319000Y-110352472D01*
X129319000Y-109800347D01*
X129343339Y-109859252D01*
X129534741Y-110050987D01*
X129784946Y-110154882D01*
X130055865Y-110155118D01*
X130306252Y-110051661D01*
X130497987Y-109860259D01*
X130601882Y-109610054D01*
X130602118Y-109339135D01*
X130498661Y-109088748D01*
X130307259Y-108897013D01*
X130093152Y-108808107D01*
X130093247Y-108698906D01*
X129989790Y-108448519D01*
X129798388Y-108256784D01*
X129548183Y-108152889D01*
X129277264Y-108152653D01*
X129026877Y-108256110D01*
X128835142Y-108447512D01*
X128786366Y-108564976D01*
X128744278Y-108536853D01*
X128388000Y-108465985D01*
X128031722Y-108536853D01*
X127729684Y-108738669D01*
X127527868Y-109040707D01*
X127457000Y-109396985D01*
X124222045Y-109396985D01*
X124217377Y-109372180D01*
X124133934Y-109242505D01*
X124006614Y-109155511D01*
X123855480Y-109124906D01*
X122656600Y-109124906D01*
X122515410Y-109151473D01*
X122385735Y-109234916D01*
X122298741Y-109362236D01*
X122268136Y-109513370D01*
X122026604Y-109513370D01*
X121947796Y-109395425D01*
X121629718Y-109182893D01*
X121254520Y-109108261D01*
X120879322Y-109182893D01*
X120561244Y-109395425D01*
X120348712Y-109713503D01*
X120274080Y-110088701D01*
X120233440Y-110088701D01*
X120158808Y-109713503D01*
X119946276Y-109395425D01*
X119628198Y-109182893D01*
X119253000Y-109108261D01*
X118877802Y-109182893D01*
X118559724Y-109395425D01*
X118347192Y-109713503D01*
X118272560Y-110088701D01*
X118234460Y-110088701D01*
X118159828Y-109713503D01*
X117947296Y-109395425D01*
X117629218Y-109182893D01*
X117254020Y-109108261D01*
X116878822Y-109182893D01*
X116560744Y-109395425D01*
X116348212Y-109713503D01*
X116273580Y-110088701D01*
X115456000Y-110088701D01*
X115456000Y-108338865D01*
X118063882Y-108338865D01*
X118167339Y-108589252D01*
X118358741Y-108780987D01*
X118608946Y-108884882D01*
X118879865Y-108885118D01*
X119130252Y-108781661D01*
X119321987Y-108590259D01*
X119425882Y-108340054D01*
X119426118Y-108069135D01*
X119322661Y-107818748D01*
X119131259Y-107627013D01*
X118881054Y-107523118D01*
X118610135Y-107522882D01*
X118359748Y-107626339D01*
X118168013Y-107817741D01*
X118064118Y-108067946D01*
X118063882Y-108338865D01*
X115456000Y-108338865D01*
X115456000Y-105384600D01*
X116744906Y-105384600D01*
X116744906Y-106583480D01*
X116771473Y-106724670D01*
X116854916Y-106854345D01*
X116982236Y-106941339D01*
X117133370Y-106971944D01*
X118832630Y-106971944D01*
X118973820Y-106945377D01*
X119103495Y-106861934D01*
X119145194Y-106800904D01*
X125307000Y-106800904D01*
X125307000Y-107551096D01*
X125377868Y-107907374D01*
X125579684Y-108209412D01*
X125881722Y-108411228D01*
X126238000Y-108482096D01*
X126594278Y-108411228D01*
X126896316Y-108209412D01*
X127098132Y-107907374D01*
X127169000Y-107551096D01*
X127169000Y-106800904D01*
X127135513Y-106632551D01*
X129443685Y-106632551D01*
X129547142Y-106882938D01*
X129738544Y-107074673D01*
X129988749Y-107178568D01*
X130256114Y-107178801D01*
X130255882Y-107444748D01*
X130359339Y-107695135D01*
X130550741Y-107886870D01*
X130800946Y-107990765D01*
X131071865Y-107991001D01*
X131322252Y-107887544D01*
X131513987Y-107696142D01*
X131563515Y-107576865D01*
X134700882Y-107576865D01*
X134804339Y-107827252D01*
X134995741Y-108018987D01*
X135245946Y-108122882D01*
X135516865Y-108123118D01*
X135767252Y-108019661D01*
X135958987Y-107828259D01*
X136062882Y-107578054D01*
X136063118Y-107307135D01*
X135959661Y-107056748D01*
X135768259Y-106865013D01*
X135518054Y-106761118D01*
X135247135Y-106760882D01*
X134996748Y-106864339D01*
X134805013Y-107055741D01*
X134701118Y-107305946D01*
X134700882Y-107576865D01*
X131563515Y-107576865D01*
X131617882Y-107445937D01*
X131618118Y-107175018D01*
X131570318Y-107059333D01*
X131684829Y-107106882D01*
X131955748Y-107107118D01*
X132206135Y-107003661D01*
X132397870Y-106812259D01*
X132501765Y-106562054D01*
X132502001Y-106291135D01*
X132398544Y-106040748D01*
X132207142Y-105849013D01*
X131956937Y-105745118D01*
X131686018Y-105744882D01*
X131570333Y-105792682D01*
X131617882Y-105678171D01*
X131618118Y-105407252D01*
X131514661Y-105156865D01*
X131323259Y-104965130D01*
X131073054Y-104861235D01*
X130802135Y-104860999D01*
X130551748Y-104964456D01*
X130360013Y-105155858D01*
X130256118Y-105406063D01*
X130255882Y-105676982D01*
X130324590Y-105843268D01*
X130260857Y-105816804D01*
X129989938Y-105816568D01*
X129739551Y-105920025D01*
X129547816Y-106111427D01*
X129443921Y-106361632D01*
X129443685Y-106632551D01*
X127135513Y-106632551D01*
X127098132Y-106444626D01*
X126896316Y-106142588D01*
X126594278Y-105940772D01*
X126238000Y-105869904D01*
X125881722Y-105940772D01*
X125579684Y-106142588D01*
X125377868Y-106444626D01*
X125307000Y-106800904D01*
X119145194Y-106800904D01*
X119190489Y-106734614D01*
X119221094Y-106583480D01*
X119221094Y-105384600D01*
X119194527Y-105243410D01*
X119111084Y-105113735D01*
X118983764Y-105026741D01*
X118832630Y-104996136D01*
X117133370Y-104996136D01*
X116992180Y-105022703D01*
X116862505Y-105106146D01*
X116775511Y-105233466D01*
X116744906Y-105384600D01*
X115456000Y-105384600D01*
X115456000Y-103982520D01*
X116728261Y-103982520D01*
X116802893Y-104357718D01*
X117015425Y-104675796D01*
X117333503Y-104888328D01*
X117708701Y-104962960D01*
X118257299Y-104962960D01*
X118632497Y-104888328D01*
X118950575Y-104675796D01*
X119163107Y-104357718D01*
X119237739Y-103982520D01*
X119163107Y-103607322D01*
X118950575Y-103289244D01*
X118632497Y-103076712D01*
X118257299Y-103002080D01*
X117708701Y-103002080D01*
X117333503Y-103076712D01*
X117015425Y-103289244D01*
X116802893Y-103607322D01*
X116728261Y-103982520D01*
X115456000Y-103982520D01*
X115456000Y-101981000D01*
X116728261Y-101981000D01*
X116802893Y-102356198D01*
X117015425Y-102674276D01*
X117333503Y-102886808D01*
X117708701Y-102961440D01*
X118257299Y-102961440D01*
X118632497Y-102886808D01*
X118950575Y-102674276D01*
X119163107Y-102356198D01*
X119237739Y-101981000D01*
X119163107Y-101605802D01*
X118950575Y-101287724D01*
X118632497Y-101075192D01*
X118257299Y-101000560D01*
X117708701Y-101000560D01*
X117333503Y-101075192D01*
X117015425Y-101287724D01*
X116802893Y-101605802D01*
X116728261Y-101981000D01*
X115456000Y-101981000D01*
X115456000Y-91782021D01*
X116560205Y-91782021D01*
X116575401Y-91873933D01*
X116821732Y-92293457D01*
X117083536Y-92491313D01*
X117012480Y-92504683D01*
X116882805Y-92588126D01*
X116795811Y-92715446D01*
X116765206Y-92866580D01*
X116765206Y-94065460D01*
X116791773Y-94206650D01*
X116875216Y-94336325D01*
X117002536Y-94423319D01*
X117153670Y-94453924D01*
X118852930Y-94453924D01*
X118994120Y-94427357D01*
X119123795Y-94343914D01*
X119210789Y-94216594D01*
X119241394Y-94065460D01*
X119241394Y-92866580D01*
X119214827Y-92725390D01*
X119131384Y-92595715D01*
X119004064Y-92508721D01*
X118922015Y-92492106D01*
X119184868Y-92293457D01*
X119431199Y-91873933D01*
X119446395Y-91782021D01*
X119321657Y-91591500D01*
X118130300Y-91591500D01*
X118130300Y-91611500D01*
X117876300Y-91611500D01*
X117876300Y-91591500D01*
X116684943Y-91591500D01*
X116560205Y-91782021D01*
X115456000Y-91782021D01*
X115456000Y-91146979D01*
X116560205Y-91146979D01*
X116684943Y-91337500D01*
X117876300Y-91337500D01*
X117876300Y-91317500D01*
X118130300Y-91317500D01*
X118130300Y-91337500D01*
X119321657Y-91337500D01*
X119446395Y-91146979D01*
X119431199Y-91055067D01*
X119184868Y-90635543D01*
X118796743Y-90342221D01*
X118721750Y-90322715D01*
X118970875Y-90156256D01*
X119183407Y-89838178D01*
X119258039Y-89462980D01*
X119183407Y-89087782D01*
X118970875Y-88769704D01*
X118652797Y-88557172D01*
X118277599Y-88482540D01*
X117729001Y-88482540D01*
X117353803Y-88557172D01*
X117035725Y-88769704D01*
X116823193Y-89087782D01*
X116748561Y-89462980D01*
X116823193Y-89838178D01*
X117035725Y-90156256D01*
X117284850Y-90322715D01*
X117209857Y-90342221D01*
X116821732Y-90635543D01*
X116575401Y-91055067D01*
X116560205Y-91146979D01*
X115456000Y-91146979D01*
X115456000Y-83458420D01*
X116748561Y-83458420D01*
X116823193Y-83833618D01*
X117035725Y-84151696D01*
X117353803Y-84364228D01*
X117729001Y-84438860D01*
X118277599Y-84438860D01*
X118652797Y-84364228D01*
X118970875Y-84151696D01*
X119183407Y-83833618D01*
X119258039Y-83458420D01*
X119183407Y-83083222D01*
X118970875Y-82765144D01*
X118652797Y-82552612D01*
X118277599Y-82477980D01*
X117729001Y-82477980D01*
X117353803Y-82552612D01*
X117035725Y-82765144D01*
X116823193Y-83083222D01*
X116748561Y-83458420D01*
X115456000Y-83458420D01*
X115456000Y-81459440D01*
X116748561Y-81459440D01*
X116823193Y-81834638D01*
X117035725Y-82152716D01*
X117353803Y-82365248D01*
X117729001Y-82439880D01*
X118277599Y-82439880D01*
X118652797Y-82365248D01*
X118970875Y-82152716D01*
X119183407Y-81834638D01*
X119258039Y-81459440D01*
X119183407Y-81084242D01*
X118970875Y-80766164D01*
X118652797Y-80553632D01*
X118277599Y-80479000D01*
X117729001Y-80479000D01*
X117353803Y-80553632D01*
X117035725Y-80766164D01*
X116823193Y-81084242D01*
X116748561Y-81459440D01*
X115456000Y-81459440D01*
X115456000Y-79460460D01*
X116748561Y-79460460D01*
X116823193Y-79835658D01*
X117035725Y-80153736D01*
X117353803Y-80366268D01*
X117729001Y-80440900D01*
X118277599Y-80440900D01*
X118652797Y-80366268D01*
X118970875Y-80153736D01*
X119183407Y-79835658D01*
X119258039Y-79460460D01*
X119183407Y-79085262D01*
X118970875Y-78767184D01*
X118652797Y-78554652D01*
X118277599Y-78480020D01*
X118063019Y-78480020D01*
X118178987Y-78364253D01*
X118282882Y-78114048D01*
X118283118Y-77843129D01*
X118179661Y-77592742D01*
X117988259Y-77401007D01*
X117738054Y-77297112D01*
X117467135Y-77296876D01*
X117216748Y-77400333D01*
X117025013Y-77591735D01*
X116921118Y-77841940D01*
X116920882Y-78112859D01*
X117024339Y-78363246D01*
X117215741Y-78554981D01*
X117300584Y-78590211D01*
X117035725Y-78767184D01*
X116823193Y-79085262D01*
X116748561Y-79460460D01*
X115456000Y-79460460D01*
X115456000Y-74330560D01*
X116744906Y-74330560D01*
X116744906Y-75529440D01*
X116771473Y-75670630D01*
X116854916Y-75800305D01*
X116982236Y-75887299D01*
X117133370Y-75917904D01*
X118832630Y-75917904D01*
X118973820Y-75891337D01*
X119103495Y-75807894D01*
X119190489Y-75680574D01*
X119221094Y-75529440D01*
X119221094Y-74330560D01*
X119194527Y-74189370D01*
X119111084Y-74059695D01*
X118983764Y-73972701D01*
X118832630Y-73942096D01*
X117133370Y-73942096D01*
X116992180Y-73968663D01*
X116862505Y-74052106D01*
X116775511Y-74179426D01*
X116744906Y-74330560D01*
X115456000Y-74330560D01*
X115456000Y-72928480D01*
X116728261Y-72928480D01*
X116802893Y-73303678D01*
X117015425Y-73621756D01*
X117333503Y-73834288D01*
X117708701Y-73908920D01*
X118257299Y-73908920D01*
X118632497Y-73834288D01*
X118950575Y-73621756D01*
X119163107Y-73303678D01*
X119237739Y-72928480D01*
X119163107Y-72553282D01*
X118950575Y-72235204D01*
X118632497Y-72022672D01*
X118257299Y-71948040D01*
X117708701Y-71948040D01*
X117333503Y-72022672D01*
X117015425Y-72235204D01*
X116802893Y-72553282D01*
X116728261Y-72928480D01*
X115456000Y-72928480D01*
X115456000Y-70926960D01*
X116728261Y-70926960D01*
X116802893Y-71302158D01*
X117015425Y-71620236D01*
X117333503Y-71832768D01*
X117708701Y-71907400D01*
X118257299Y-71907400D01*
X118632497Y-71832768D01*
X118950575Y-71620236D01*
X119163107Y-71302158D01*
X119237739Y-70926960D01*
X119163107Y-70551762D01*
X118950575Y-70233684D01*
X118632497Y-70021152D01*
X118257299Y-69946520D01*
X117708701Y-69946520D01*
X117333503Y-70021152D01*
X117015425Y-70233684D01*
X116802893Y-70551762D01*
X116728261Y-70926960D01*
X115456000Y-70926960D01*
X115456000Y-67243981D01*
X116539905Y-67243981D01*
X116555101Y-67335893D01*
X116801432Y-67755417D01*
X117189557Y-68048739D01*
X117264550Y-68068245D01*
X117015425Y-68234704D01*
X116802893Y-68552782D01*
X116728261Y-68927980D01*
X116802893Y-69303178D01*
X117015425Y-69621256D01*
X117333503Y-69833788D01*
X117708701Y-69908420D01*
X118257299Y-69908420D01*
X118632497Y-69833788D01*
X118950575Y-69621256D01*
X119163107Y-69303178D01*
X119237739Y-68927980D01*
X119163107Y-68552782D01*
X118950575Y-68234704D01*
X118701450Y-68068245D01*
X118776443Y-68048739D01*
X119164568Y-67755417D01*
X119410899Y-67335893D01*
X119426095Y-67243981D01*
X119301357Y-67053460D01*
X118110000Y-67053460D01*
X118110000Y-67073460D01*
X117856000Y-67073460D01*
X117856000Y-67053460D01*
X116664643Y-67053460D01*
X116539905Y-67243981D01*
X115456000Y-67243981D01*
X115456000Y-66608939D01*
X116539905Y-66608939D01*
X116664643Y-66799460D01*
X117856000Y-66799460D01*
X117856000Y-65844460D01*
X118110000Y-65844460D01*
X118110000Y-66799460D01*
X119301357Y-66799460D01*
X119426095Y-66608939D01*
X119410899Y-66517027D01*
X119164568Y-66097503D01*
X118776443Y-65804181D01*
X118305613Y-65681715D01*
X118110000Y-65844460D01*
X117856000Y-65844460D01*
X117660387Y-65681715D01*
X117189557Y-65804181D01*
X116801432Y-66097503D01*
X116555101Y-66517027D01*
X116539905Y-66608939D01*
X115456000Y-66608939D01*
X115456000Y-62491865D01*
X118317882Y-62491865D01*
X118421339Y-62742252D01*
X118612741Y-62933987D01*
X118837152Y-63027171D01*
X118929339Y-63250282D01*
X119120741Y-63442017D01*
X119370946Y-63545912D01*
X119641865Y-63546148D01*
X119892252Y-63442691D01*
X120083987Y-63251289D01*
X120187882Y-63001084D01*
X120188118Y-62730165D01*
X120084661Y-62479778D01*
X119893259Y-62288043D01*
X119668848Y-62194859D01*
X119576661Y-61971748D01*
X119385259Y-61780013D01*
X119135054Y-61676118D01*
X118864135Y-61675882D01*
X118613748Y-61779339D01*
X118422013Y-61970741D01*
X118318118Y-62220946D01*
X118317882Y-62491865D01*
X115456000Y-62491865D01*
X115456000Y-61094867D01*
X124693282Y-61094867D01*
X124796739Y-61345254D01*
X124988141Y-61536989D01*
X125238346Y-61640884D01*
X125509265Y-61641120D01*
X125717506Y-61555077D01*
X125924146Y-61640882D01*
X126195065Y-61641118D01*
X126403304Y-61555076D01*
X126609946Y-61640882D01*
X126880865Y-61641118D01*
X127131252Y-61537661D01*
X127322987Y-61346259D01*
X127426882Y-61096054D01*
X127427118Y-60825135D01*
X127323661Y-60574748D01*
X127132259Y-60383013D01*
X126882054Y-60279118D01*
X126611135Y-60278882D01*
X126402896Y-60364924D01*
X126196254Y-60279118D01*
X125925335Y-60278882D01*
X125717094Y-60364925D01*
X125510454Y-60279120D01*
X125239535Y-60278884D01*
X124989148Y-60382341D01*
X124797413Y-60573743D01*
X124693518Y-60823948D01*
X124693282Y-61094867D01*
X115456000Y-61094867D01*
X115456000Y-59651571D01*
X118064856Y-59651571D01*
X118191102Y-59957109D01*
X118424662Y-60191077D01*
X118729979Y-60317855D01*
X119060571Y-60318144D01*
X119366109Y-60191898D01*
X119600077Y-59958338D01*
X119726855Y-59653021D01*
X119726856Y-59651571D01*
X121064856Y-59651571D01*
X121191102Y-59957109D01*
X121424662Y-60191077D01*
X121729979Y-60317855D01*
X122060571Y-60318144D01*
X122366109Y-60191898D01*
X122600077Y-59958338D01*
X122726855Y-59653021D01*
X122727144Y-59322429D01*
X122600898Y-59016891D01*
X122367338Y-58782923D01*
X122352321Y-58776687D01*
X122432252Y-58743661D01*
X122527478Y-58648600D01*
X123571000Y-58648600D01*
X123755683Y-58611864D01*
X123912250Y-58507250D01*
X125230130Y-57189370D01*
X126106076Y-57189370D01*
X126106076Y-58888630D01*
X126132643Y-59029820D01*
X126216086Y-59159495D01*
X126343406Y-59246489D01*
X126494540Y-59277094D01*
X127693420Y-59277094D01*
X127834610Y-59250527D01*
X127964285Y-59167084D01*
X128051279Y-59039764D01*
X128081884Y-58888630D01*
X128081884Y-57189370D01*
X128055317Y-57048180D01*
X127971874Y-56918505D01*
X127844554Y-56831511D01*
X127693420Y-56800906D01*
X126494540Y-56800906D01*
X126353350Y-56827473D01*
X126223675Y-56910916D01*
X126136681Y-57038236D01*
X126106076Y-57189370D01*
X125230130Y-57189370D01*
X125802900Y-56616600D01*
X136046970Y-56616600D01*
X136463331Y-57032960D01*
X136405764Y-57071425D01*
X136193232Y-57389503D01*
X136118600Y-57764701D01*
X136118600Y-58313299D01*
X136193232Y-58688497D01*
X136405764Y-59006575D01*
X136723842Y-59219107D01*
X137099040Y-59293739D01*
X137474238Y-59219107D01*
X137792316Y-59006575D01*
X138004848Y-58688497D01*
X138031429Y-58554865D01*
X140034882Y-58554865D01*
X140138339Y-58805252D01*
X140329741Y-58996987D01*
X140579946Y-59100882D01*
X140850865Y-59101118D01*
X141101252Y-58997661D01*
X141292987Y-58806259D01*
X141396882Y-58556054D01*
X141397118Y-58285135D01*
X141293661Y-58034748D01*
X141102259Y-57843013D01*
X140852054Y-57739118D01*
X140581135Y-57738882D01*
X140330748Y-57842339D01*
X140139013Y-58033741D01*
X140035118Y-58283946D01*
X140034882Y-58554865D01*
X138031429Y-58554865D01*
X138079480Y-58313299D01*
X138079480Y-57764701D01*
X138004848Y-57389503D01*
X137792316Y-57071425D01*
X137568905Y-56922147D01*
X137544904Y-56801487D01*
X137440290Y-56644920D01*
X137440287Y-56644918D01*
X136588120Y-55792750D01*
X136431553Y-55688136D01*
X136246870Y-55651400D01*
X125603000Y-55651400D01*
X125418317Y-55688136D01*
X125261750Y-55792750D01*
X123371100Y-57683400D01*
X122527482Y-57683400D01*
X122433259Y-57589013D01*
X122183054Y-57485118D01*
X121912135Y-57484882D01*
X121661748Y-57588339D01*
X121470013Y-57779741D01*
X121366118Y-58029946D01*
X121365882Y-58300865D01*
X121469339Y-58551252D01*
X121619804Y-58701979D01*
X121425891Y-58782102D01*
X121191923Y-59015662D01*
X121065145Y-59320979D01*
X121064856Y-59651571D01*
X119726856Y-59651571D01*
X119727144Y-59322429D01*
X119600898Y-59016891D01*
X119367338Y-58782923D01*
X119062021Y-58656145D01*
X118731429Y-58655856D01*
X118425891Y-58782102D01*
X118191923Y-59015662D01*
X118065145Y-59320979D01*
X118064856Y-59651571D01*
X115456000Y-59651571D01*
X115456000Y-57044912D01*
X115581784Y-56412555D01*
X115914544Y-55914544D01*
X116412555Y-55581784D01*
X117044911Y-55456000D01*
X142589820Y-55456000D01*
X142552013Y-55493741D01*
X142552013Y-55493741D01*
G37*
X142552013Y-55493741D02*
X142448118Y-55743946D01*
X142447882Y-56014865D01*
X142523403Y-56197641D01*
X142448118Y-56378946D01*
X142447882Y-56649865D01*
X142523403Y-56832641D01*
X142448118Y-57013946D01*
X142447882Y-57284865D01*
X142523403Y-57467641D01*
X142448118Y-57648946D01*
X142447882Y-57919865D01*
X142523403Y-58102641D01*
X142448118Y-58283946D01*
X142447882Y-58554865D01*
X142523403Y-58737641D01*
X142448118Y-58918946D01*
X142447882Y-59189865D01*
X142551339Y-59440252D01*
X142742741Y-59631987D01*
X142992946Y-59735882D01*
X143263865Y-59736118D01*
X143446641Y-59660597D01*
X143627946Y-59735882D01*
X143898865Y-59736118D01*
X144081641Y-59660597D01*
X144262946Y-59735882D01*
X144533865Y-59736118D01*
X144716641Y-59660597D01*
X144897946Y-59735882D01*
X145168865Y-59736118D01*
X145351641Y-59660597D01*
X145532946Y-59735882D01*
X145803865Y-59736118D01*
X145986641Y-59660597D01*
X146167946Y-59735882D01*
X146438865Y-59736118D01*
X146621641Y-59660597D01*
X146802946Y-59735882D01*
X147073865Y-59736118D01*
X147324252Y-59632661D01*
X147515987Y-59441259D01*
X147619882Y-59191054D01*
X147620118Y-58920135D01*
X147544597Y-58737359D01*
X147619882Y-58556054D01*
X147620007Y-58411513D01*
X149502674Y-58411513D01*
X149788436Y-59103109D01*
X150317108Y-59632704D01*
X151008204Y-59919673D01*
X151756513Y-59920326D01*
X152448109Y-59634564D01*
X152977704Y-59105892D01*
X153264673Y-58414796D01*
X153265326Y-57666487D01*
X152979564Y-56974891D01*
X152450892Y-56445296D01*
X151759796Y-56158327D01*
X151011487Y-56157674D01*
X150319891Y-56443436D01*
X149790296Y-56972108D01*
X149503327Y-57663204D01*
X149502674Y-58411513D01*
X147620007Y-58411513D01*
X147620118Y-58285135D01*
X147544597Y-58102359D01*
X147619882Y-57921054D01*
X147620118Y-57650135D01*
X147544597Y-57467359D01*
X147619882Y-57286054D01*
X147620118Y-57015135D01*
X147544597Y-56832359D01*
X147619882Y-56651054D01*
X147620118Y-56380135D01*
X147544597Y-56197359D01*
X147619882Y-56016054D01*
X147620118Y-55745135D01*
X147516661Y-55494748D01*
X147477980Y-55456000D01*
X155289820Y-55456000D01*
X155252013Y-55493741D01*
X155148118Y-55743946D01*
X155147882Y-56014865D01*
X155223403Y-56197641D01*
X155148118Y-56378946D01*
X155147882Y-56649865D01*
X155223403Y-56832641D01*
X155148118Y-57013946D01*
X155147882Y-57284865D01*
X155223403Y-57467641D01*
X155148118Y-57648946D01*
X155147882Y-57919865D01*
X155223403Y-58102641D01*
X155148118Y-58283946D01*
X155147882Y-58554865D01*
X155223403Y-58737641D01*
X155148118Y-58918946D01*
X155147882Y-59189865D01*
X155251339Y-59440252D01*
X155442741Y-59631987D01*
X155692946Y-59735882D01*
X155963865Y-59736118D01*
X156146641Y-59660597D01*
X156327946Y-59735882D01*
X156598865Y-59736118D01*
X156781641Y-59660597D01*
X156962946Y-59735882D01*
X157233865Y-59736118D01*
X157416641Y-59660597D01*
X157597946Y-59735882D01*
X157868865Y-59736118D01*
X158051641Y-59660597D01*
X158232946Y-59735882D01*
X158503865Y-59736118D01*
X158686641Y-59660597D01*
X158867946Y-59735882D01*
X159138865Y-59736118D01*
X159321641Y-59660597D01*
X159502946Y-59735882D01*
X159773865Y-59736118D01*
X160024252Y-59632661D01*
X160215987Y-59441259D01*
X160319882Y-59191054D01*
X160320118Y-58920135D01*
X160244597Y-58737359D01*
X160319882Y-58556054D01*
X160320007Y-58411513D01*
X162202674Y-58411513D01*
X162488436Y-59103109D01*
X163017108Y-59632704D01*
X163708204Y-59919673D01*
X164456513Y-59920326D01*
X165148109Y-59634564D01*
X165677704Y-59105892D01*
X165964673Y-58414796D01*
X165965326Y-57666487D01*
X165679564Y-56974891D01*
X165150892Y-56445296D01*
X164459796Y-56158327D01*
X163711487Y-56157674D01*
X163019891Y-56443436D01*
X162490296Y-56972108D01*
X162203327Y-57663204D01*
X162202674Y-58411513D01*
X160320007Y-58411513D01*
X160320118Y-58285135D01*
X160244597Y-58102359D01*
X160319882Y-57921054D01*
X160320118Y-57650135D01*
X160244597Y-57467359D01*
X160319882Y-57286054D01*
X160320118Y-57015135D01*
X160244597Y-56832359D01*
X160319882Y-56651054D01*
X160320118Y-56380135D01*
X160244597Y-56197359D01*
X160319882Y-56016054D01*
X160320118Y-55745135D01*
X160216661Y-55494748D01*
X160177980Y-55456000D01*
X167989820Y-55456000D01*
X167952013Y-55493741D01*
X167848118Y-55743946D01*
X167847882Y-56014865D01*
X167923403Y-56197641D01*
X167848118Y-56378946D01*
X167847882Y-56649865D01*
X167923403Y-56832641D01*
X167848118Y-57013946D01*
X167847882Y-57284865D01*
X167923403Y-57467641D01*
X167848118Y-57648946D01*
X167847882Y-57919865D01*
X167923403Y-58102641D01*
X167848118Y-58283946D01*
X167847882Y-58554865D01*
X167923403Y-58737641D01*
X167848118Y-58918946D01*
X167847882Y-59189865D01*
X167951339Y-59440252D01*
X168142741Y-59631987D01*
X168392946Y-59735882D01*
X168663865Y-59736118D01*
X168846641Y-59660597D01*
X169027946Y-59735882D01*
X169298865Y-59736118D01*
X169481641Y-59660597D01*
X169662946Y-59735882D01*
X169933865Y-59736118D01*
X170116641Y-59660597D01*
X170297946Y-59735882D01*
X170568865Y-59736118D01*
X170751641Y-59660597D01*
X170932946Y-59735882D01*
X171203865Y-59736118D01*
X171386641Y-59660597D01*
X171567946Y-59735882D01*
X171838865Y-59736118D01*
X172021641Y-59660597D01*
X172202946Y-59735882D01*
X172473865Y-59736118D01*
X172724252Y-59632661D01*
X172915987Y-59441259D01*
X173019882Y-59191054D01*
X173020118Y-58920135D01*
X172944597Y-58737359D01*
X173019882Y-58556054D01*
X173020118Y-58285135D01*
X172944597Y-58102359D01*
X173019882Y-57921054D01*
X173020118Y-57650135D01*
X172944597Y-57467359D01*
X173019882Y-57286054D01*
X173020118Y-57015135D01*
X172944597Y-56832359D01*
X173019882Y-56651054D01*
X173020118Y-56380135D01*
X172944597Y-56197359D01*
X173019882Y-56016054D01*
X173020118Y-55745135D01*
X172916661Y-55494748D01*
X172877980Y-55456000D01*
X172955088Y-55456000D01*
X173587445Y-55581784D01*
X174085456Y-55914544D01*
X174418216Y-56412555D01*
X174544000Y-57044911D01*
X174544000Y-83544000D01*
X162200000Y-83544000D01*
X162155950Y-83552762D01*
X162111039Y-83552762D01*
X161728356Y-83628882D01*
X161563977Y-83696970D01*
X161239553Y-83913743D01*
X161113743Y-84039553D01*
X160896971Y-84363976D01*
X160896970Y-84363977D01*
X160828882Y-84528356D01*
X160752762Y-84911039D01*
X160752762Y-84955950D01*
X160744000Y-85000000D01*
X160744000Y-86544000D01*
X154756000Y-86544000D01*
X154756000Y-85000000D01*
X154747238Y-84955950D01*
X154747238Y-84911039D01*
X154671118Y-84528356D01*
X154603030Y-84363977D01*
X154603029Y-84363976D01*
X154386257Y-84039553D01*
X154260447Y-83913743D01*
X153936023Y-83696970D01*
X153771644Y-83628882D01*
X153388961Y-83552762D01*
X153344050Y-83552762D01*
X153300000Y-83544000D01*
X140000000Y-83544000D01*
X139825496Y-83578711D01*
X139677559Y-83677559D01*
X139578711Y-83825496D01*
X139544000Y-84000000D01*
X139544000Y-90095010D01*
X139501723Y-90077455D01*
X139230804Y-90077219D01*
X138980417Y-90180676D01*
X138788682Y-90372078D01*
X138684787Y-90622283D01*
X138684551Y-90893202D01*
X138734713Y-91014605D01*
X138693056Y-90997307D01*
X138422137Y-90997071D01*
X138171750Y-91100528D01*
X138076524Y-91195589D01*
X137900507Y-91195589D01*
X134088783Y-87383865D01*
X137367882Y-87383865D01*
X137471339Y-87634252D01*
X137662741Y-87825987D01*
X137912946Y-87929882D01*
X138183865Y-87930118D01*
X138434252Y-87826661D01*
X138625987Y-87635259D01*
X138729882Y-87385054D01*
X138730118Y-87114135D01*
X138626661Y-86863748D01*
X138435259Y-86672013D01*
X138185054Y-86568118D01*
X137914135Y-86567882D01*
X137663748Y-86671339D01*
X137472013Y-86862741D01*
X137368118Y-87112946D01*
X137367882Y-87383865D01*
X134088783Y-87383865D01*
X133262307Y-86557389D01*
X133417752Y-86493161D01*
X133609487Y-86301759D01*
X133713382Y-86051554D01*
X133713618Y-85780635D01*
X133610161Y-85530248D01*
X133418759Y-85338513D01*
X133168554Y-85234618D01*
X132897635Y-85234382D01*
X132689655Y-85320317D01*
X132689655Y-84716865D01*
X133811882Y-84716865D01*
X133915339Y-84967252D01*
X134106741Y-85158987D01*
X134356946Y-85262882D01*
X134627865Y-85263118D01*
X134878252Y-85159661D01*
X135069987Y-84968259D01*
X135173882Y-84718054D01*
X135173999Y-84583501D01*
X136343899Y-83413600D01*
X138557000Y-83413600D01*
X138741683Y-83376864D01*
X138898250Y-83272250D01*
X139914250Y-82256250D01*
X140018864Y-82099683D01*
X140055600Y-81915000D01*
X140055600Y-80844894D01*
X140336492Y-80564002D01*
X140469859Y-80564118D01*
X140720246Y-80460661D01*
X140911981Y-80269259D01*
X141015876Y-80019054D01*
X141016112Y-79748135D01*
X140912655Y-79497748D01*
X140721253Y-79306013D01*
X140471048Y-79202118D01*
X140200129Y-79201882D01*
X139949742Y-79305339D01*
X139758007Y-79496741D01*
X139654112Y-79746946D01*
X139653995Y-79881499D01*
X139231750Y-80303744D01*
X139127136Y-80460311D01*
X139090400Y-80644994D01*
X139090400Y-81715100D01*
X138357100Y-82448400D01*
X136144005Y-82448400D01*
X136144000Y-82448399D01*
X135959317Y-82485136D01*
X135802750Y-82589750D01*
X135802748Y-82589753D01*
X134491502Y-83900998D01*
X134358135Y-83900882D01*
X134107748Y-84004339D01*
X133916013Y-84195741D01*
X133812118Y-84445946D01*
X133811882Y-84716865D01*
X132689655Y-84716865D01*
X132689655Y-81473161D01*
X132771882Y-81473161D01*
X132875339Y-81723548D01*
X133066741Y-81915283D01*
X133316946Y-82019178D01*
X133329287Y-82019189D01*
X133329282Y-82024465D01*
X133432739Y-82274852D01*
X133624141Y-82466587D01*
X133874346Y-82570482D01*
X134145265Y-82570718D01*
X134395652Y-82467261D01*
X134587387Y-82275859D01*
X134691282Y-82025654D01*
X134691518Y-81754735D01*
X134588061Y-81504348D01*
X134396659Y-81312613D01*
X134146454Y-81208718D01*
X134134113Y-81208707D01*
X134134118Y-81203431D01*
X134030661Y-80953044D01*
X133839259Y-80761309D01*
X133589054Y-80657414D01*
X133318135Y-80657178D01*
X133067748Y-80760635D01*
X132876013Y-80952037D01*
X132772118Y-81202242D01*
X132771882Y-81473161D01*
X132689655Y-81473161D01*
X132689655Y-80017859D01*
X133303882Y-80017859D01*
X133407339Y-80268246D01*
X133598741Y-80459981D01*
X133733197Y-80515813D01*
X133788333Y-80649252D01*
X133979735Y-80840987D01*
X134114209Y-80896826D01*
X134169339Y-81030252D01*
X134360741Y-81221987D01*
X134610946Y-81325882D01*
X134881865Y-81326118D01*
X135132252Y-81222661D01*
X135323987Y-81031259D01*
X135427882Y-80781054D01*
X135428118Y-80510135D01*
X135381431Y-80397141D01*
X136853489Y-80397141D01*
X136956946Y-80647528D01*
X137148348Y-80839263D01*
X137260215Y-80885715D01*
X137260058Y-81065825D01*
X137363515Y-81316212D01*
X137554917Y-81507947D01*
X137805122Y-81611842D01*
X138076041Y-81612078D01*
X138326428Y-81508621D01*
X138518163Y-81317219D01*
X138622058Y-81067014D01*
X138622294Y-80796095D01*
X138518837Y-80545708D01*
X138327435Y-80353973D01*
X138215568Y-80307521D01*
X138215725Y-80127411D01*
X138112268Y-79877024D01*
X137920866Y-79685289D01*
X137670661Y-79581394D01*
X137399742Y-79581158D01*
X137149355Y-79684615D01*
X136957620Y-79876017D01*
X136853725Y-80126222D01*
X136853489Y-80397141D01*
X135381431Y-80397141D01*
X135324661Y-80259748D01*
X135133259Y-80068013D01*
X134998785Y-80012174D01*
X134943655Y-79878748D01*
X134752253Y-79687013D01*
X134617797Y-79631181D01*
X134604581Y-79599196D01*
X134643505Y-79599230D01*
X134893892Y-79495773D01*
X135085627Y-79304371D01*
X135189522Y-79054166D01*
X135189758Y-78783247D01*
X135086301Y-78532860D01*
X135067965Y-78514492D01*
X135166711Y-78276688D01*
X135166947Y-78005769D01*
X135063490Y-77755382D01*
X135056823Y-77748703D01*
X135160551Y-77498900D01*
X135160787Y-77227981D01*
X135057330Y-76977594D01*
X134865928Y-76785859D01*
X134794836Y-76756339D01*
X134985252Y-76677661D01*
X135176987Y-76486259D01*
X135280882Y-76236054D01*
X135281118Y-75965135D01*
X135177661Y-75714748D01*
X135163080Y-75700142D01*
X135176987Y-75686259D01*
X135280882Y-75436054D01*
X135281118Y-75165135D01*
X135198332Y-74964777D01*
X135276987Y-74886259D01*
X135380882Y-74636054D01*
X135381118Y-74365135D01*
X135277661Y-74114748D01*
X135086259Y-73923013D01*
X134999579Y-73887020D01*
X135181615Y-73705300D01*
X135285510Y-73455095D01*
X135285746Y-73184176D01*
X135182289Y-72933789D01*
X135056665Y-72807947D01*
X135101782Y-72699294D01*
X135102018Y-72428375D01*
X135014027Y-72215419D01*
X135055681Y-72173837D01*
X135159576Y-71923632D01*
X135159812Y-71652713D01*
X135056355Y-71402326D01*
X134864953Y-71210591D01*
X134614748Y-71106696D01*
X134343829Y-71106460D01*
X134093442Y-71209917D01*
X133901707Y-71401319D01*
X133797812Y-71651524D01*
X133797576Y-71922443D01*
X133885567Y-72135399D01*
X133843913Y-72176981D01*
X133740018Y-72427186D01*
X133739782Y-72698105D01*
X133843239Y-72948492D01*
X133968863Y-73074334D01*
X133923746Y-73182987D01*
X133923510Y-73453906D01*
X134026967Y-73704293D01*
X134218369Y-73896028D01*
X134305049Y-73932021D01*
X134123013Y-74113741D01*
X134019118Y-74363946D01*
X134018882Y-74634865D01*
X134101668Y-74835223D01*
X134023013Y-74913741D01*
X133919118Y-75163946D01*
X133918882Y-75434865D01*
X134022339Y-75685252D01*
X134036920Y-75699858D01*
X134023013Y-75713741D01*
X133919118Y-75963946D01*
X133918882Y-76234865D01*
X134022339Y-76485252D01*
X134213741Y-76676987D01*
X134284833Y-76706507D01*
X134094417Y-76785185D01*
X133902682Y-76976587D01*
X133798787Y-77226792D01*
X133798551Y-77497711D01*
X133902008Y-77748098D01*
X133908675Y-77754777D01*
X133804947Y-78004580D01*
X133804711Y-78275499D01*
X133908168Y-78525886D01*
X133926504Y-78544254D01*
X133827758Y-78782058D01*
X133827522Y-79052977D01*
X133889059Y-79201910D01*
X133850135Y-79201876D01*
X133599748Y-79305333D01*
X133408013Y-79496735D01*
X133304118Y-79746940D01*
X133303882Y-80017859D01*
X132689655Y-80017859D01*
X132689655Y-73068319D01*
X132652919Y-72883636D01*
X132548305Y-72727069D01*
X131241170Y-71419934D01*
X131452865Y-71420118D01*
X131703252Y-71316661D01*
X131894987Y-71125259D01*
X131998882Y-70875054D01*
X131998889Y-70866000D01*
X138430000Y-70866000D01*
X138430000Y-72182010D01*
X138478336Y-72425014D01*
X138615987Y-72631023D01*
X139584650Y-73599686D01*
X139630339Y-73710262D01*
X139821741Y-73901997D01*
X140068852Y-74004607D01*
X140068801Y-74063284D01*
X139822748Y-74164950D01*
X139631013Y-74356352D01*
X139527118Y-74606557D01*
X139526882Y-74877476D01*
X139608332Y-75074603D01*
X139504013Y-75178741D01*
X139400118Y-75428946D01*
X139399882Y-75699865D01*
X139446000Y-75811480D01*
X139446000Y-77470000D01*
X139494336Y-77713004D01*
X139631987Y-77919013D01*
X140551186Y-78838212D01*
X140757195Y-78975863D01*
X141000199Y-79024199D01*
X142702084Y-79024199D01*
X142702040Y-79074959D01*
X142613135Y-79074882D01*
X142430359Y-79150403D01*
X142249054Y-79075118D01*
X141978135Y-79074882D01*
X141727748Y-79178339D01*
X141536013Y-79369741D01*
X141432118Y-79619946D01*
X141431882Y-79890865D01*
X141535339Y-80141252D01*
X141726741Y-80332987D01*
X141976946Y-80436882D01*
X142247865Y-80437118D01*
X142430641Y-80361597D01*
X142611946Y-80436882D01*
X142882865Y-80437118D01*
X143065641Y-80361597D01*
X143130048Y-80388341D01*
X143055135Y-80436546D01*
X142968141Y-80563866D01*
X142937536Y-80715000D01*
X142937536Y-83115000D01*
X142964103Y-83256190D01*
X143047546Y-83385865D01*
X143174866Y-83472859D01*
X143326000Y-83503464D01*
X145726000Y-83503464D01*
X145867190Y-83476897D01*
X145996865Y-83393454D01*
X146083859Y-83266134D01*
X146114464Y-83115000D01*
X146114464Y-82228101D01*
X147944726Y-82228101D01*
X148184912Y-82809395D01*
X148629266Y-83254525D01*
X149210140Y-83495725D01*
X149839101Y-83496274D01*
X150420395Y-83256088D01*
X150865525Y-82811734D01*
X151106725Y-82230860D01*
X151106727Y-82228101D01*
X164360726Y-82228101D01*
X164600912Y-82809395D01*
X165045266Y-83254525D01*
X165626140Y-83495725D01*
X166255101Y-83496274D01*
X166836395Y-83256088D01*
X167281525Y-82811734D01*
X167522725Y-82230860D01*
X167523274Y-81601899D01*
X167283088Y-81020605D01*
X166838734Y-80575475D01*
X166257860Y-80334275D01*
X165628899Y-80333726D01*
X165047605Y-80573912D01*
X164602475Y-81018266D01*
X164361275Y-81599140D01*
X164360726Y-82228101D01*
X151106727Y-82228101D01*
X151107274Y-81601899D01*
X150867088Y-81020605D01*
X150422734Y-80575475D01*
X149841860Y-80334275D01*
X149212899Y-80333726D01*
X148631605Y-80573912D01*
X148186475Y-81018266D01*
X147945275Y-81599140D01*
X147944726Y-82228101D01*
X146114464Y-82228101D01*
X146114464Y-80715000D01*
X146087897Y-80573810D01*
X146004454Y-80444135D01*
X145994103Y-80437062D01*
X146057865Y-80437118D01*
X146240641Y-80361597D01*
X146421946Y-80436882D01*
X146692865Y-80437118D01*
X146875641Y-80361597D01*
X147056946Y-80436882D01*
X147327865Y-80437118D01*
X147510641Y-80361597D01*
X147691946Y-80436882D01*
X147962865Y-80437118D01*
X148213252Y-80333661D01*
X148404987Y-80142259D01*
X148508882Y-79892054D01*
X148509118Y-79621135D01*
X148433597Y-79438359D01*
X148508882Y-79257054D01*
X148509085Y-79024199D01*
X154132084Y-79024199D01*
X154131882Y-79255865D01*
X154207403Y-79438641D01*
X154132118Y-79619946D01*
X154131882Y-79890865D01*
X154235339Y-80141252D01*
X154426741Y-80332987D01*
X154676946Y-80436882D01*
X154947865Y-80437118D01*
X155130641Y-80361597D01*
X155311946Y-80436882D01*
X155582865Y-80437118D01*
X155765641Y-80361597D01*
X155946946Y-80436882D01*
X156217865Y-80437118D01*
X156400641Y-80361597D01*
X156581946Y-80436882D01*
X156852865Y-80437118D01*
X157035641Y-80361597D01*
X157216946Y-80436882D01*
X157487865Y-80437118D01*
X157670641Y-80361597D01*
X157851946Y-80436882D01*
X158122865Y-80437118D01*
X158305641Y-80361597D01*
X158486946Y-80436882D01*
X158757865Y-80437118D01*
X158940641Y-80361597D01*
X159121946Y-80436882D01*
X159392865Y-80437118D01*
X159575641Y-80361597D01*
X159756946Y-80436882D01*
X160027865Y-80437118D01*
X160210641Y-80361597D01*
X160391946Y-80436882D01*
X160662865Y-80437118D01*
X160913252Y-80333661D01*
X161104987Y-80142259D01*
X161208882Y-79892054D01*
X161209118Y-79621135D01*
X161133597Y-79438359D01*
X161208882Y-79257054D01*
X161208883Y-79255865D01*
X166831882Y-79255865D01*
X166907403Y-79438641D01*
X166832118Y-79619946D01*
X166831882Y-79890865D01*
X166935339Y-80141252D01*
X167126741Y-80332987D01*
X167376946Y-80436882D01*
X167647865Y-80437118D01*
X167830641Y-80361597D01*
X168011946Y-80436882D01*
X168282865Y-80437118D01*
X168465641Y-80361597D01*
X168646946Y-80436882D01*
X168917865Y-80437118D01*
X169100641Y-80361597D01*
X169281946Y-80436882D01*
X169470793Y-80437047D01*
X169384141Y-80563866D01*
X169353536Y-80715000D01*
X169353536Y-83115000D01*
X169380103Y-83256190D01*
X169463546Y-83385865D01*
X169590866Y-83472859D01*
X169742000Y-83503464D01*
X172142000Y-83503464D01*
X172283190Y-83476897D01*
X172412865Y-83393454D01*
X172499859Y-83266134D01*
X172530464Y-83115000D01*
X172530464Y-80715000D01*
X172503897Y-80573810D01*
X172420454Y-80444135D01*
X172336859Y-80387017D01*
X172456946Y-80436882D01*
X172727865Y-80437118D01*
X172910641Y-80361597D01*
X173091946Y-80436882D01*
X173362865Y-80437118D01*
X173613252Y-80333661D01*
X173804987Y-80142259D01*
X173908882Y-79892054D01*
X173909118Y-79621135D01*
X173805661Y-79370748D01*
X173614259Y-79179013D01*
X173364054Y-79075118D01*
X173093135Y-79074882D01*
X172910359Y-79150403D01*
X172729054Y-79075118D01*
X172639041Y-79075040D01*
X172639118Y-78986135D01*
X172535661Y-78735748D01*
X172344259Y-78544013D01*
X172094054Y-78440118D01*
X171823135Y-78439882D01*
X171640359Y-78515403D01*
X171459054Y-78440118D01*
X171188135Y-78439882D01*
X171005359Y-78515403D01*
X170824054Y-78440118D01*
X170553135Y-78439882D01*
X170370359Y-78515403D01*
X170189054Y-78440118D01*
X169918135Y-78439882D01*
X169735359Y-78515403D01*
X169554054Y-78440118D01*
X169283135Y-78439882D01*
X169100359Y-78515403D01*
X168919054Y-78440118D01*
X168648135Y-78439882D01*
X168465359Y-78515403D01*
X168284054Y-78440118D01*
X168013135Y-78439882D01*
X167830359Y-78515403D01*
X167649054Y-78440118D01*
X167378135Y-78439882D01*
X167127748Y-78543339D01*
X166936013Y-78734741D01*
X166832118Y-78984946D01*
X166831882Y-79255865D01*
X161208883Y-79255865D01*
X161209118Y-78986135D01*
X161105661Y-78735748D01*
X160914259Y-78544013D01*
X160664054Y-78440118D01*
X160393135Y-78439882D01*
X160210359Y-78515403D01*
X160029054Y-78440118D01*
X159758135Y-78439882D01*
X159575359Y-78515403D01*
X159394054Y-78440118D01*
X159123135Y-78439882D01*
X158940359Y-78515403D01*
X158759054Y-78440118D01*
X158488135Y-78439882D01*
X158305359Y-78515403D01*
X158124054Y-78440118D01*
X157853135Y-78439882D01*
X157670359Y-78515403D01*
X157489054Y-78440118D01*
X157218135Y-78439882D01*
X157035359Y-78515403D01*
X156854054Y-78440118D01*
X156583135Y-78439882D01*
X156400359Y-78515403D01*
X156219054Y-78440118D01*
X155948135Y-78439882D01*
X155765359Y-78515403D01*
X155584054Y-78440118D01*
X155502979Y-78440047D01*
X156659013Y-77284013D01*
X156796664Y-77078005D01*
X156845000Y-76835000D01*
X156845000Y-75692000D01*
X156796664Y-75448996D01*
X156659013Y-75242987D01*
X155265990Y-73849964D01*
X155438946Y-73921782D01*
X155709865Y-73922018D01*
X155886275Y-73849127D01*
X156061246Y-73921782D01*
X156332165Y-73922018D01*
X156508575Y-73849127D01*
X156683546Y-73921782D01*
X156954465Y-73922018D01*
X157130875Y-73849127D01*
X157305846Y-73921782D01*
X157576765Y-73922018D01*
X157753175Y-73849127D01*
X157928146Y-73921782D01*
X158199065Y-73922018D01*
X158375475Y-73849127D01*
X158550446Y-73921782D01*
X158821365Y-73922018D01*
X158997775Y-73849127D01*
X159172746Y-73921782D01*
X159443665Y-73922018D01*
X159620075Y-73849127D01*
X159795046Y-73921782D01*
X160065965Y-73922018D01*
X160242375Y-73849127D01*
X160417346Y-73921782D01*
X160688265Y-73922018D01*
X160938652Y-73818561D01*
X161130387Y-73627159D01*
X161234282Y-73376954D01*
X161234518Y-73106035D01*
X161161627Y-72929625D01*
X161234282Y-72754654D01*
X161234518Y-72483735D01*
X161161627Y-72307325D01*
X161234282Y-72132354D01*
X161234518Y-71861435D01*
X161161627Y-71685025D01*
X161234282Y-71510054D01*
X161234283Y-71508865D01*
X167593882Y-71508865D01*
X167666773Y-71685275D01*
X167594118Y-71860246D01*
X167593882Y-72131165D01*
X167666773Y-72307575D01*
X167594118Y-72482546D01*
X167593882Y-72753465D01*
X167666773Y-72929875D01*
X167594118Y-73104846D01*
X167593882Y-73375765D01*
X167697339Y-73626152D01*
X167888741Y-73817887D01*
X168138946Y-73921782D01*
X168409865Y-73922018D01*
X168586275Y-73849127D01*
X168761246Y-73921782D01*
X169032165Y-73922018D01*
X169208575Y-73849127D01*
X169383546Y-73921782D01*
X169654465Y-73922018D01*
X169830875Y-73849127D01*
X170005846Y-73921782D01*
X170276765Y-73922018D01*
X170453175Y-73849127D01*
X170628146Y-73921782D01*
X170899065Y-73922018D01*
X171075475Y-73849127D01*
X171250446Y-73921782D01*
X171521365Y-73922018D01*
X171697775Y-73849127D01*
X171872746Y-73921782D01*
X172143665Y-73922018D01*
X172394052Y-73818561D01*
X172585787Y-73627159D01*
X172689682Y-73376954D01*
X172689749Y-73299652D01*
X172765965Y-73299718D01*
X172942375Y-73226827D01*
X173117346Y-73299482D01*
X173388265Y-73299718D01*
X173638652Y-73196261D01*
X173830387Y-73004859D01*
X173934282Y-72754654D01*
X173934518Y-72483735D01*
X173861627Y-72307325D01*
X173934282Y-72132354D01*
X173934518Y-71861435D01*
X173861627Y-71685025D01*
X173934282Y-71510054D01*
X173934518Y-71239135D01*
X173831061Y-70988748D01*
X173639659Y-70797013D01*
X173389454Y-70693118D01*
X173118535Y-70692882D01*
X172942125Y-70765773D01*
X172767154Y-70693118D01*
X172496235Y-70692882D01*
X172319825Y-70765773D01*
X172144854Y-70693118D01*
X171873935Y-70692882D01*
X171697525Y-70765773D01*
X171522554Y-70693118D01*
X171251635Y-70692882D01*
X171001248Y-70796339D01*
X170809513Y-70987741D01*
X170705618Y-71237946D01*
X170705551Y-71315248D01*
X170629335Y-71315182D01*
X170452925Y-71388073D01*
X170277954Y-71315418D01*
X170200652Y-71315351D01*
X170200718Y-71239135D01*
X170097261Y-70988748D01*
X169905859Y-70797013D01*
X169655654Y-70693118D01*
X169384735Y-70692882D01*
X169208325Y-70765773D01*
X169033354Y-70693118D01*
X168762435Y-70692882D01*
X168586025Y-70765773D01*
X168411054Y-70693118D01*
X168140135Y-70692882D01*
X167889748Y-70796339D01*
X167698013Y-70987741D01*
X167594118Y-71237946D01*
X167593882Y-71508865D01*
X161234283Y-71508865D01*
X161234518Y-71239135D01*
X161131061Y-70988748D01*
X160939659Y-70797013D01*
X160689454Y-70693118D01*
X160418535Y-70692882D01*
X160242125Y-70765773D01*
X160067154Y-70693118D01*
X159796235Y-70692882D01*
X159619825Y-70765773D01*
X159444854Y-70693118D01*
X159173935Y-70692882D01*
X158997525Y-70765773D01*
X158822554Y-70693118D01*
X158551635Y-70692882D01*
X158301248Y-70796339D01*
X158109513Y-70987741D01*
X158005618Y-71237946D01*
X158005551Y-71315248D01*
X157929335Y-71315182D01*
X157752925Y-71388073D01*
X157577954Y-71315418D01*
X157500652Y-71315351D01*
X157500718Y-71239135D01*
X157397261Y-70988748D01*
X157205859Y-70797013D01*
X156955654Y-70693118D01*
X156684735Y-70692882D01*
X156508325Y-70765773D01*
X156333354Y-70693118D01*
X156062435Y-70692882D01*
X155886025Y-70765773D01*
X155711054Y-70693118D01*
X155440135Y-70692882D01*
X155189748Y-70796339D01*
X154998013Y-70987741D01*
X154894118Y-71237946D01*
X154893882Y-71508865D01*
X154966773Y-71685275D01*
X154894118Y-71860246D01*
X154893882Y-72131165D01*
X154966773Y-72307575D01*
X154894118Y-72482546D01*
X154893882Y-72753465D01*
X154966773Y-72929875D01*
X154894118Y-73104846D01*
X154893882Y-73375765D01*
X154965767Y-73549741D01*
X154813000Y-73396974D01*
X154813000Y-71129026D01*
X156532013Y-69410013D01*
X156669664Y-69204004D01*
X156718000Y-68961000D01*
X156718000Y-67810549D01*
X156763882Y-67700054D01*
X156764118Y-67429135D01*
X156714893Y-67310000D01*
X158486974Y-67310000D01*
X159316987Y-68140013D01*
X159333961Y-68151354D01*
X159408101Y-68225624D01*
X159505871Y-68266222D01*
X159522996Y-68277664D01*
X159543020Y-68281647D01*
X159639936Y-68321890D01*
X159745802Y-68321982D01*
X159766000Y-68326000D01*
X159786022Y-68322017D01*
X159890963Y-68322109D01*
X159988805Y-68281682D01*
X160009004Y-68277664D01*
X160025978Y-68266322D01*
X160122966Y-68226248D01*
X160197890Y-68151454D01*
X160215013Y-68140013D01*
X160226354Y-68123039D01*
X160300624Y-68048899D01*
X160341222Y-67951129D01*
X160352664Y-67934004D01*
X160356647Y-67913980D01*
X160396890Y-67817064D01*
X160396982Y-67711198D01*
X160401000Y-67691000D01*
X160397017Y-67670978D01*
X160397109Y-67566037D01*
X160356682Y-67468195D01*
X160352664Y-67447996D01*
X160341322Y-67431022D01*
X160301248Y-67334034D01*
X160226454Y-67259110D01*
X160215013Y-67241987D01*
X159199013Y-66225987D01*
X158993004Y-66088336D01*
X158750000Y-66040000D01*
X155702000Y-66040000D01*
X155458995Y-66088336D01*
X155252987Y-66225987D01*
X154262682Y-67216292D01*
X154325482Y-67065054D01*
X154325718Y-66794135D01*
X154260718Y-66636822D01*
X154325482Y-66480854D01*
X154325718Y-66209935D01*
X154260718Y-66052622D01*
X154325482Y-65896654D01*
X154325718Y-65625735D01*
X154260718Y-65468422D01*
X154325482Y-65312454D01*
X154325718Y-65041535D01*
X154260718Y-64884222D01*
X154325482Y-64728254D01*
X154325718Y-64457335D01*
X154260718Y-64300022D01*
X154325482Y-64144054D01*
X154325483Y-64142865D01*
X161116882Y-64142865D01*
X161181882Y-64300178D01*
X161117118Y-64456146D01*
X161116882Y-64727065D01*
X161181882Y-64884378D01*
X161117118Y-65040346D01*
X161116882Y-65311265D01*
X161181882Y-65468578D01*
X161117118Y-65624546D01*
X161116882Y-65895465D01*
X161181882Y-66052778D01*
X161117118Y-66208746D01*
X161116882Y-66479665D01*
X161181882Y-66636978D01*
X161117118Y-66792946D01*
X161116882Y-67063865D01*
X161181882Y-67221178D01*
X161117118Y-67377146D01*
X161116882Y-67648065D01*
X161220339Y-67898452D01*
X161411741Y-68090187D01*
X161661946Y-68194082D01*
X161932865Y-68194318D01*
X162090178Y-68129318D01*
X162246146Y-68194082D01*
X162517065Y-68194318D01*
X162674378Y-68129318D01*
X162830346Y-68194082D01*
X163101265Y-68194318D01*
X163258578Y-68129318D01*
X163414546Y-68194082D01*
X163685465Y-68194318D01*
X163842778Y-68129318D01*
X163998746Y-68194082D01*
X164269665Y-68194318D01*
X164426978Y-68129318D01*
X164582946Y-68194082D01*
X164853865Y-68194318D01*
X165011178Y-68129318D01*
X165167146Y-68194082D01*
X165438065Y-68194318D01*
X165595378Y-68129318D01*
X165751346Y-68194082D01*
X166022265Y-68194318D01*
X166179578Y-68129318D01*
X166335546Y-68194082D01*
X166606465Y-68194318D01*
X166856852Y-68090861D01*
X167048587Y-67899459D01*
X167131881Y-67698865D01*
X168101882Y-67698865D01*
X168205339Y-67949252D01*
X168396741Y-68140987D01*
X168646946Y-68244882D01*
X168917865Y-68245118D01*
X169168252Y-68141661D01*
X169359987Y-67950259D01*
X169463882Y-67700054D01*
X169464118Y-67429135D01*
X169360661Y-67178748D01*
X169169259Y-66987013D01*
X168919054Y-66883118D01*
X168648135Y-66882882D01*
X168397748Y-66986339D01*
X168206013Y-67177741D01*
X168102118Y-67427946D01*
X168101882Y-67698865D01*
X167131881Y-67698865D01*
X167152482Y-67649254D01*
X167152718Y-67378335D01*
X167087718Y-67221022D01*
X167152482Y-67065054D01*
X167152718Y-66794135D01*
X167087718Y-66636822D01*
X167152482Y-66480854D01*
X167152718Y-66209935D01*
X167087718Y-66052622D01*
X167152482Y-65896654D01*
X167152718Y-65625735D01*
X167087718Y-65468422D01*
X167152482Y-65312454D01*
X167152718Y-65041535D01*
X167087718Y-64884222D01*
X167152482Y-64728254D01*
X167152718Y-64457335D01*
X167087718Y-64300022D01*
X167152482Y-64144054D01*
X167152718Y-63873135D01*
X167049261Y-63622748D01*
X166857859Y-63431013D01*
X166607654Y-63327118D01*
X166336735Y-63326882D01*
X166179422Y-63391882D01*
X166023454Y-63327118D01*
X165752535Y-63326882D01*
X165595222Y-63391882D01*
X165439254Y-63327118D01*
X165168335Y-63326882D01*
X165011022Y-63391882D01*
X164855054Y-63327118D01*
X164584135Y-63326882D01*
X164426822Y-63391882D01*
X164270854Y-63327118D01*
X163999935Y-63326882D01*
X163842622Y-63391882D01*
X163686654Y-63327118D01*
X163415735Y-63326882D01*
X163258422Y-63391882D01*
X163102454Y-63327118D01*
X162831535Y-63326882D01*
X162674222Y-63391882D01*
X162518254Y-63327118D01*
X162247335Y-63326882D01*
X162090022Y-63391882D01*
X161934054Y-63327118D01*
X161663135Y-63326882D01*
X161412748Y-63430339D01*
X161221013Y-63621741D01*
X161117118Y-63871946D01*
X161116882Y-64142865D01*
X154325483Y-64142865D01*
X154325718Y-63873135D01*
X154222261Y-63622748D01*
X154030859Y-63431013D01*
X153780654Y-63327118D01*
X153509735Y-63326882D01*
X153352422Y-63391882D01*
X153196454Y-63327118D01*
X152925535Y-63326882D01*
X152768222Y-63391882D01*
X152612254Y-63327118D01*
X152341335Y-63326882D01*
X152184022Y-63391882D01*
X152028054Y-63327118D01*
X151757135Y-63326882D01*
X151599822Y-63391882D01*
X151443854Y-63327118D01*
X151172935Y-63326882D01*
X151015622Y-63391882D01*
X150859654Y-63327118D01*
X150588735Y-63326882D01*
X150431422Y-63391882D01*
X150275454Y-63327118D01*
X150004535Y-63326882D01*
X149847222Y-63391882D01*
X149691254Y-63327118D01*
X149420335Y-63326882D01*
X149263022Y-63391882D01*
X149107054Y-63327118D01*
X148836135Y-63326882D01*
X148585748Y-63430339D01*
X148394013Y-63621741D01*
X148290118Y-63871946D01*
X148289882Y-64142865D01*
X148354882Y-64300178D01*
X148290118Y-64456146D01*
X148289882Y-64727065D01*
X148354882Y-64884378D01*
X148290118Y-65040346D01*
X148289882Y-65311265D01*
X148354882Y-65468578D01*
X148290118Y-65624546D01*
X148289882Y-65895465D01*
X148354882Y-66052778D01*
X148290118Y-66208746D01*
X148289882Y-66479665D01*
X148354882Y-66636978D01*
X148290118Y-66792946D01*
X148289882Y-67063865D01*
X148354882Y-67221178D01*
X148290118Y-67377146D01*
X148289882Y-67648065D01*
X148393339Y-67898452D01*
X148584741Y-68090187D01*
X148834946Y-68194082D01*
X149105865Y-68194318D01*
X149263178Y-68129318D01*
X149419146Y-68194082D01*
X149690065Y-68194318D01*
X149847378Y-68129318D01*
X150003346Y-68194082D01*
X150274265Y-68194318D01*
X150431578Y-68129318D01*
X150587546Y-68194082D01*
X150858465Y-68194318D01*
X151015778Y-68129318D01*
X151171746Y-68194082D01*
X151442665Y-68194318D01*
X151599978Y-68129318D01*
X151755946Y-68194082D01*
X152026865Y-68194318D01*
X152184178Y-68129318D01*
X152340146Y-68194082D01*
X152611065Y-68194318D01*
X152768378Y-68129318D01*
X152924346Y-68194082D01*
X153195265Y-68194318D01*
X153347598Y-68131376D01*
X152009974Y-69469000D01*
X141859000Y-69469000D01*
X141615996Y-69517336D01*
X141409987Y-69654987D01*
X140568324Y-70496650D01*
X140457748Y-70542339D01*
X140266013Y-70733741D01*
X140162118Y-70983946D01*
X140162039Y-71074070D01*
X139946135Y-71073882D01*
X139700000Y-71175582D01*
X139700000Y-71129026D01*
X142630026Y-68199000D01*
X143644451Y-68199000D01*
X143754946Y-68244882D01*
X144025865Y-68245118D01*
X144276252Y-68141661D01*
X144467987Y-67950259D01*
X144571882Y-67700054D01*
X144572118Y-67429135D01*
X144468661Y-67178748D01*
X144277259Y-66987013D01*
X144027054Y-66883118D01*
X143756135Y-66882882D01*
X143644520Y-66929000D01*
X142367000Y-66929000D01*
X142123996Y-66977336D01*
X141917987Y-67114987D01*
X138615987Y-70416987D01*
X138478336Y-70622996D01*
X138430000Y-70866000D01*
X131998889Y-70866000D01*
X131999118Y-70604135D01*
X131923597Y-70421359D01*
X131998882Y-70240054D01*
X131999118Y-69969135D01*
X131895661Y-69718748D01*
X131704259Y-69527013D01*
X131454054Y-69423118D01*
X131183135Y-69422882D01*
X131000359Y-69498403D01*
X130819054Y-69423118D01*
X130548135Y-69422882D01*
X130297748Y-69526339D01*
X130174954Y-69648920D01*
X130053259Y-69527013D01*
X129850172Y-69442683D01*
X129925252Y-69411661D01*
X130116987Y-69220259D01*
X130220882Y-68970054D01*
X130221118Y-68699135D01*
X130117661Y-68448748D01*
X129926259Y-68257013D01*
X129676054Y-68153118D01*
X129405135Y-68152882D01*
X129232047Y-68224400D01*
X122273482Y-68224400D01*
X122179259Y-68130013D01*
X121929054Y-68026118D01*
X121658135Y-68025882D01*
X121640633Y-68033114D01*
X121640633Y-67571865D01*
X132287882Y-67571865D01*
X132391339Y-67822252D01*
X132582741Y-68013987D01*
X132832946Y-68117882D01*
X133103865Y-68118118D01*
X133286641Y-68042597D01*
X133299841Y-68048078D01*
X133204813Y-68142941D01*
X133134035Y-68313391D01*
X132964748Y-68383339D01*
X132773013Y-68574741D01*
X132669118Y-68824946D01*
X132668882Y-69095865D01*
X132772339Y-69346252D01*
X132963741Y-69537987D01*
X133213946Y-69641882D01*
X133484865Y-69642118D01*
X133735252Y-69538661D01*
X133926987Y-69347259D01*
X133997765Y-69176809D01*
X134167052Y-69106861D01*
X134358787Y-68915459D01*
X134462682Y-68665254D01*
X134462918Y-68394335D01*
X134359461Y-68143948D01*
X134333641Y-68118083D01*
X134373865Y-68118118D01*
X134624252Y-68014661D01*
X134815987Y-67823259D01*
X134919882Y-67573054D01*
X134920118Y-67302135D01*
X134816661Y-67051748D01*
X134646485Y-66881275D01*
X138510882Y-66881275D01*
X138614339Y-67131662D01*
X138805741Y-67323397D01*
X139055946Y-67427292D01*
X139326865Y-67427528D01*
X139577252Y-67324071D01*
X139768987Y-67132669D01*
X139872882Y-66882464D01*
X139873118Y-66611545D01*
X139769661Y-66361158D01*
X139578259Y-66169423D01*
X139328054Y-66065528D01*
X139057135Y-66065292D01*
X138806748Y-66168749D01*
X138615013Y-66360151D01*
X138511118Y-66610356D01*
X138510882Y-66881275D01*
X134646485Y-66881275D01*
X134625259Y-66860013D01*
X134375054Y-66756118D01*
X134104135Y-66755882D01*
X133921359Y-66831403D01*
X133740054Y-66756118D01*
X133469135Y-66755882D01*
X133286359Y-66831403D01*
X133105054Y-66756118D01*
X132834135Y-66755882D01*
X132583748Y-66859339D01*
X132392013Y-67050741D01*
X132288118Y-67300946D01*
X132287882Y-67571865D01*
X121640633Y-67571865D01*
X121640633Y-66798430D01*
X121725508Y-66713555D01*
X121858875Y-66713671D01*
X122109262Y-66610214D01*
X122300997Y-66418812D01*
X122404892Y-66168607D01*
X122405128Y-65897688D01*
X122301671Y-65647301D01*
X122110269Y-65455566D01*
X122068333Y-65438153D01*
X122521594Y-64984892D01*
X122509114Y-65014946D01*
X122508878Y-65285865D01*
X122612335Y-65536252D01*
X122803737Y-65727987D01*
X123053942Y-65831882D01*
X123324861Y-65832118D01*
X123417441Y-65793865D01*
X128096882Y-65793865D01*
X128200339Y-66044252D01*
X128391741Y-66235987D01*
X128641946Y-66339882D01*
X128912865Y-66340118D01*
X129163252Y-66236661D01*
X129354987Y-66045259D01*
X129458882Y-65795054D01*
X129459118Y-65524135D01*
X129355661Y-65273748D01*
X129277553Y-65195504D01*
X129377709Y-65095522D01*
X129481604Y-64845317D01*
X129481840Y-64574398D01*
X129378383Y-64324011D01*
X129186981Y-64132276D01*
X128936776Y-64028381D01*
X128665857Y-64028145D01*
X128415470Y-64131602D01*
X128223735Y-64323004D01*
X128119840Y-64573209D01*
X128119604Y-64844128D01*
X128223061Y-65094515D01*
X128301169Y-65172759D01*
X128201013Y-65272741D01*
X128097118Y-65522946D01*
X128096882Y-65793865D01*
X123417441Y-65793865D01*
X123575248Y-65728661D01*
X123766983Y-65537259D01*
X123870878Y-65287054D01*
X123871114Y-65016135D01*
X123767657Y-64765748D01*
X123576255Y-64574013D01*
X123326050Y-64470118D01*
X123055131Y-64469882D01*
X123023557Y-64482928D01*
X123650874Y-63855611D01*
X128814819Y-63855611D01*
X128999502Y-63818875D01*
X129156069Y-63714261D01*
X129235465Y-63634865D01*
X134700882Y-63634865D01*
X134804339Y-63885252D01*
X134863418Y-63944434D01*
X134805013Y-64002737D01*
X134701118Y-64252942D01*
X134700882Y-64523861D01*
X134804339Y-64774248D01*
X134995741Y-64965983D01*
X135245946Y-65069878D01*
X135516865Y-65070114D01*
X135767252Y-64966657D01*
X135958987Y-64775255D01*
X136062882Y-64525050D01*
X136063118Y-64254131D01*
X135959661Y-64003744D01*
X135900582Y-63944562D01*
X135958987Y-63886259D01*
X136062882Y-63636054D01*
X136063118Y-63365135D01*
X135959661Y-63114748D01*
X135768259Y-62923013D01*
X135518054Y-62819118D01*
X135247135Y-62818882D01*
X134996748Y-62922339D01*
X134805013Y-63113741D01*
X134701118Y-63363946D01*
X134700882Y-63634865D01*
X129235465Y-63634865D01*
X131005699Y-61864631D01*
X131185741Y-62044987D01*
X131435946Y-62148882D01*
X131706865Y-62149118D01*
X131799445Y-62110865D01*
X134700882Y-62110865D01*
X134804339Y-62361252D01*
X134995741Y-62552987D01*
X135245946Y-62656882D01*
X135516865Y-62657118D01*
X135767252Y-62553661D01*
X135958987Y-62362259D01*
X136062882Y-62112054D01*
X136063112Y-61846963D01*
X151895891Y-61846963D01*
X151991752Y-62078966D01*
X152169101Y-62256624D01*
X152400936Y-62352890D01*
X152651963Y-62353109D01*
X152883966Y-62257248D01*
X153061624Y-62079899D01*
X153088477Y-62015230D01*
X153289952Y-62098890D01*
X153540979Y-62099109D01*
X153772982Y-62003248D01*
X153929543Y-61846959D01*
X164468891Y-61846959D01*
X164564752Y-62078962D01*
X164742101Y-62256620D01*
X164973936Y-62352886D01*
X165224963Y-62353105D01*
X165456966Y-62257244D01*
X165634624Y-62079895D01*
X165661473Y-62015235D01*
X165862936Y-62098890D01*
X166113963Y-62099109D01*
X166345966Y-62003248D01*
X166523624Y-61825899D01*
X166619890Y-61594064D01*
X166620109Y-61343037D01*
X166524248Y-61111034D01*
X166346899Y-60933376D01*
X166115064Y-60837110D01*
X165864037Y-60836891D01*
X165632034Y-60932752D01*
X165454376Y-61110101D01*
X165427527Y-61174761D01*
X165226064Y-61091106D01*
X164975037Y-61090887D01*
X164743034Y-61186748D01*
X164565376Y-61364097D01*
X164469110Y-61595932D01*
X164468891Y-61846959D01*
X153929543Y-61846959D01*
X153950640Y-61825899D01*
X154046906Y-61594064D01*
X154047125Y-61343037D01*
X153951264Y-61111034D01*
X153773915Y-60933376D01*
X153542080Y-60837110D01*
X153291053Y-60836891D01*
X153059050Y-60932752D01*
X152881392Y-61110101D01*
X152854539Y-61174770D01*
X152653064Y-61091110D01*
X152402037Y-61090891D01*
X152170034Y-61186752D01*
X151992376Y-61364101D01*
X151896110Y-61595936D01*
X151895891Y-61846963D01*
X136063112Y-61846963D01*
X136063118Y-61841135D01*
X135959661Y-61590748D01*
X135768259Y-61399013D01*
X135518054Y-61295118D01*
X135247135Y-61294882D01*
X134996748Y-61398339D01*
X134805013Y-61589741D01*
X134701118Y-61839946D01*
X134700882Y-62110865D01*
X131799445Y-62110865D01*
X131957252Y-62045661D01*
X132148987Y-61854259D01*
X132252882Y-61604054D01*
X132253118Y-61333135D01*
X132149661Y-61082748D01*
X131968779Y-60901551D01*
X133437250Y-59433080D01*
X133541864Y-59276513D01*
X133565865Y-59155853D01*
X133789276Y-59006575D01*
X134001808Y-58688497D01*
X134076440Y-58313299D01*
X134076440Y-57764701D01*
X134117080Y-57764701D01*
X134117080Y-58313299D01*
X134191712Y-58688497D01*
X134404244Y-59006575D01*
X134722322Y-59219107D01*
X135097520Y-59293739D01*
X135472718Y-59219107D01*
X135790796Y-59006575D01*
X136003328Y-58688497D01*
X136077960Y-58313299D01*
X136077960Y-57764701D01*
X136003328Y-57389503D01*
X135790796Y-57071425D01*
X135472718Y-56858893D01*
X135097520Y-56784261D01*
X134722322Y-56858893D01*
X134404244Y-57071425D01*
X134191712Y-57389503D01*
X134117080Y-57764701D01*
X134076440Y-57764701D01*
X134001808Y-57389503D01*
X133789276Y-57071425D01*
X133471198Y-56858893D01*
X133096000Y-56784261D01*
X132720802Y-56858893D01*
X132402724Y-57071425D01*
X132190192Y-57389503D01*
X132115560Y-57764701D01*
X132115560Y-58313299D01*
X132190192Y-58688497D01*
X132402724Y-59006575D01*
X132460290Y-59045040D01*
X131579620Y-59925710D01*
X131579620Y-59147344D01*
X131790296Y-59006575D01*
X132002828Y-58688497D01*
X132077460Y-58313299D01*
X132077460Y-57764701D01*
X132002828Y-57389503D01*
X131790296Y-57071425D01*
X131472218Y-56858893D01*
X131097020Y-56784261D01*
X130721822Y-56858893D01*
X130403744Y-57071425D01*
X130191212Y-57389503D01*
X130116580Y-57764701D01*
X130116580Y-58313299D01*
X130191212Y-58688497D01*
X130403744Y-59006575D01*
X130614420Y-59147344D01*
X130614420Y-59838080D01*
X129578100Y-60874400D01*
X129578100Y-59147344D01*
X129788776Y-59006575D01*
X130001308Y-58688497D01*
X130075940Y-58313299D01*
X130075940Y-57764701D01*
X130001308Y-57389503D01*
X129788776Y-57071425D01*
X129470698Y-56858893D01*
X129095500Y-56784261D01*
X128720302Y-56858893D01*
X128402224Y-57071425D01*
X128189692Y-57389503D01*
X128115060Y-57764701D01*
X128115060Y-58313299D01*
X128189692Y-58688497D01*
X128402224Y-59006575D01*
X128612900Y-59147344D01*
X128612900Y-59958800D01*
X128529259Y-59875013D01*
X128279054Y-59771118D01*
X128008135Y-59770882D01*
X127757748Y-59874339D01*
X127566013Y-60065741D01*
X127462118Y-60315946D01*
X127461882Y-60586865D01*
X127565339Y-60837252D01*
X127756741Y-61028987D01*
X128006946Y-61132882D01*
X128277865Y-61133118D01*
X128321349Y-61115151D01*
X127435100Y-62001400D01*
X123262326Y-62001400D01*
X123077643Y-62038136D01*
X122921076Y-62142750D01*
X122921074Y-62142753D01*
X119673750Y-65390076D01*
X119569136Y-65546643D01*
X119532400Y-65731326D01*
X119532400Y-85609604D01*
X119479985Y-85557098D01*
X119257121Y-85464556D01*
X119258039Y-85459940D01*
X119183407Y-85084742D01*
X118970875Y-84766664D01*
X118652797Y-84554132D01*
X118277599Y-84479500D01*
X117729001Y-84479500D01*
X117353803Y-84554132D01*
X117035725Y-84766664D01*
X116823193Y-85084742D01*
X116748561Y-85459940D01*
X116823193Y-85835138D01*
X117035725Y-86153216D01*
X117353803Y-86365748D01*
X117729001Y-86440380D01*
X118277599Y-86440380D01*
X118467808Y-86402545D01*
X118516065Y-86519337D01*
X118530585Y-86533882D01*
X118277599Y-86483560D01*
X117729001Y-86483560D01*
X117353803Y-86558192D01*
X117035725Y-86770724D01*
X116823193Y-87088802D01*
X116748561Y-87464000D01*
X116823193Y-87839198D01*
X117035725Y-88157276D01*
X117353803Y-88369808D01*
X117729001Y-88444440D01*
X118277599Y-88444440D01*
X118652797Y-88369808D01*
X118970875Y-88157276D01*
X119183407Y-87839198D01*
X119258039Y-87464000D01*
X119183407Y-87088802D01*
X119000462Y-86815004D01*
X119228591Y-86815203D01*
X119478978Y-86711746D01*
X119532400Y-86658417D01*
X119532400Y-99949000D01*
X119569136Y-100133683D01*
X119673750Y-100290250D01*
X121832768Y-102449267D01*
X121832770Y-102449270D01*
X121961252Y-102535118D01*
X121989337Y-102553884D01*
X122174020Y-102590620D01*
X125020045Y-102590620D01*
X123750809Y-103859856D01*
X123703259Y-103812223D01*
X123453054Y-103708328D01*
X123182135Y-103708092D01*
X122931748Y-103811549D01*
X122740013Y-104002951D01*
X122636118Y-104253156D01*
X122635882Y-104524075D01*
X122739339Y-104774462D01*
X122930741Y-104966197D01*
X123180946Y-105070092D01*
X123355717Y-105070244D01*
X123271132Y-105273946D01*
X123270896Y-105544865D01*
X123374353Y-105795252D01*
X123565755Y-105986987D01*
X123815960Y-106090882D01*
X124086879Y-106091118D01*
X124337266Y-105987661D01*
X124529001Y-105796259D01*
X124632896Y-105546054D01*
X124632975Y-105455930D01*
X124848871Y-105456118D01*
X125099258Y-105352661D01*
X125290993Y-105161259D01*
X125394888Y-104911054D01*
X125394919Y-104875743D01*
X125457844Y-104901872D01*
X125728763Y-104902108D01*
X125944722Y-104812876D01*
X136751699Y-104812876D01*
X136855156Y-105063263D01*
X137046558Y-105254998D01*
X137296763Y-105358893D01*
X137567682Y-105359129D01*
X137818069Y-105255672D01*
X138009804Y-105064270D01*
X138113699Y-104814065D01*
X138113935Y-104543146D01*
X138010478Y-104292759D01*
X137819076Y-104101024D01*
X137568871Y-103997129D01*
X137297952Y-103996893D01*
X137047565Y-104100350D01*
X136855830Y-104291752D01*
X136751935Y-104541957D01*
X136751699Y-104812876D01*
X125944722Y-104812876D01*
X125979150Y-104798651D01*
X126170885Y-104607249D01*
X126274780Y-104357044D01*
X126274897Y-104222491D01*
X126763788Y-103733600D01*
X130409011Y-103733600D01*
X130383118Y-103795956D01*
X130382882Y-104066875D01*
X130486339Y-104317262D01*
X130677741Y-104508997D01*
X130927946Y-104612892D01*
X131198865Y-104613128D01*
X131449252Y-104509671D01*
X131640987Y-104318269D01*
X131744882Y-104068064D01*
X131745118Y-103797145D01*
X131718862Y-103733600D01*
X134366000Y-103733600D01*
X134550683Y-103696864D01*
X134707250Y-103592250D01*
X135235338Y-103064162D01*
X135235213Y-103208066D01*
X135338670Y-103458453D01*
X135530072Y-103650188D01*
X135780277Y-103754083D01*
X136051196Y-103754319D01*
X136301583Y-103650862D01*
X136493318Y-103459460D01*
X136597213Y-103209255D01*
X136597449Y-102938336D01*
X136493992Y-102687949D01*
X136302590Y-102496214D01*
X136052385Y-102392319D01*
X135907307Y-102392193D01*
X136705219Y-101594281D01*
X136709339Y-101604252D01*
X136900741Y-101795987D01*
X137150946Y-101899882D01*
X137421865Y-101900118D01*
X137672252Y-101796661D01*
X137863987Y-101605259D01*
X137967882Y-101355054D01*
X137968118Y-101084135D01*
X137864661Y-100833748D01*
X137673259Y-100642013D01*
X137662115Y-100637385D01*
X137882250Y-100417250D01*
X137986864Y-100260683D01*
X138023600Y-100076000D01*
X138023600Y-99372007D01*
X138106339Y-99572252D01*
X138297741Y-99763987D01*
X138547946Y-99867882D01*
X138818865Y-99868118D01*
X139069252Y-99764661D01*
X139260987Y-99573259D01*
X139364882Y-99323054D01*
X139365118Y-99052135D01*
X139261661Y-98801748D01*
X139070259Y-98610013D01*
X138955679Y-98562435D01*
X139007738Y-98437064D01*
X139007974Y-98166145D01*
X138904517Y-97915758D01*
X138776055Y-97787072D01*
X138870479Y-97692812D01*
X138974374Y-97442607D01*
X138974610Y-97171688D01*
X138871153Y-96921301D01*
X138679751Y-96729566D01*
X138591765Y-96693031D01*
X138691865Y-96693118D01*
X138942252Y-96589661D01*
X139133987Y-96398259D01*
X139237882Y-96148054D01*
X139238118Y-95877135D01*
X139134777Y-95627028D01*
X139149095Y-95612735D01*
X139252990Y-95362530D01*
X139253226Y-95091611D01*
X139149769Y-94841224D01*
X139136491Y-94827923D01*
X139237414Y-94584874D01*
X139237650Y-94313955D01*
X139134193Y-94063568D01*
X138967936Y-93897022D01*
X139133987Y-93731259D01*
X139237882Y-93481054D01*
X139238118Y-93210135D01*
X139137232Y-92965971D01*
X139158689Y-92944551D01*
X139262584Y-92694346D01*
X139262820Y-92423427D01*
X139159363Y-92173040D01*
X139092402Y-92105963D01*
X139133989Y-92064448D01*
X139237884Y-91814243D01*
X139238120Y-91543324D01*
X139187958Y-91421921D01*
X139229615Y-91439219D01*
X139500534Y-91439455D01*
X139544000Y-91421495D01*
X139544000Y-109898787D01*
X139353833Y-109819822D01*
X139261661Y-109596748D01*
X139070259Y-109405013D01*
X138881817Y-109326764D01*
X138804461Y-109139548D01*
X138613059Y-108947813D01*
X138362854Y-108843918D01*
X138091935Y-108843682D01*
X137841548Y-108947139D01*
X137718710Y-109069764D01*
X137546259Y-108897013D01*
X137296054Y-108793118D01*
X137025135Y-108792882D01*
X136774748Y-108896339D01*
X136583013Y-109087741D01*
X136479118Y-109337946D01*
X136478882Y-109608865D01*
X136582339Y-109859252D01*
X136773741Y-110050987D01*
X137023946Y-110154882D01*
X137294865Y-110155118D01*
X137545252Y-110051661D01*
X137668090Y-109929036D01*
X137840541Y-110101787D01*
X138028983Y-110180036D01*
X138106339Y-110367252D01*
X138297741Y-110558987D01*
X138522167Y-110652178D01*
X138614339Y-110875252D01*
X138805741Y-111066987D01*
X139055946Y-111170882D01*
X139326865Y-111171118D01*
X139544000Y-111081400D01*
X139544000Y-114544000D01*
X137879052Y-114544000D01*
X137990987Y-114432259D01*
X138094882Y-114182054D01*
X138095118Y-113911135D01*
X137991661Y-113660748D01*
X137800259Y-113469013D01*
X137550054Y-113365118D01*
X137279135Y-113364882D01*
X137028748Y-113468339D01*
X136837013Y-113659741D01*
X136733118Y-113909946D01*
X136732882Y-114180865D01*
X136836339Y-114431252D01*
X136948891Y-114544000D01*
X136228052Y-114544000D01*
X136339987Y-114432259D01*
X136443882Y-114182054D01*
X136444118Y-113911135D01*
X136340661Y-113660748D01*
X136149259Y-113469013D01*
X135924833Y-113375822D01*
X135832661Y-113152748D01*
X135641259Y-112961013D01*
X135422156Y-112870033D01*
X135386553Y-112783865D01*
X137240882Y-112783865D01*
X137344339Y-113034252D01*
X137535741Y-113225987D01*
X137785946Y-113329882D01*
X138056865Y-113330118D01*
X138307252Y-113226661D01*
X138498987Y-113035259D01*
X138602882Y-112785054D01*
X138603118Y-112514135D01*
X138499661Y-112263748D01*
X138308259Y-112072013D01*
X138058054Y-111968118D01*
X137787135Y-111967882D01*
X137536748Y-112071339D01*
X137345013Y-112262741D01*
X137241118Y-112512946D01*
X137240882Y-112783865D01*
X135386553Y-112783865D01*
X135350061Y-112695548D01*
X135158659Y-112503813D01*
X134908454Y-112399918D01*
X134637535Y-112399682D01*
X134387148Y-112503139D01*
X134195413Y-112694541D01*
X134091518Y-112944746D01*
X134091282Y-113215665D01*
X134194739Y-113466052D01*
X134386141Y-113657787D01*
X134605244Y-113748767D01*
X134677339Y-113923252D01*
X134868741Y-114114987D01*
X135093167Y-114208178D01*
X135185339Y-114431252D01*
X135297891Y-114544000D01*
X117044911Y-114544000D01*
X116412555Y-114418216D01*
X115914544Y-114085456D01*
X115581784Y-113587445D01*
X115456000Y-112955088D01*
X115456000Y-112400904D01*
X125307000Y-112400904D01*
X125307000Y-113151096D01*
X125377868Y-113507374D01*
X125579684Y-113809412D01*
X125881722Y-114011228D01*
X126238000Y-114082096D01*
X126594278Y-114011228D01*
X126720535Y-113926865D01*
X131652882Y-113926865D01*
X131756339Y-114177252D01*
X131947741Y-114368987D01*
X132197946Y-114472882D01*
X132468865Y-114473118D01*
X132719252Y-114369661D01*
X132910987Y-114178259D01*
X133014882Y-113928054D01*
X133015118Y-113657135D01*
X132911661Y-113406748D01*
X132720259Y-113215013D01*
X132470054Y-113111118D01*
X132199135Y-113110882D01*
X131948748Y-113214339D01*
X131757013Y-113405741D01*
X131653118Y-113655946D01*
X131652882Y-113926865D01*
X126720535Y-113926865D01*
X126896316Y-113809412D01*
X127098132Y-113507374D01*
X127169000Y-113151096D01*
X127169000Y-112400904D01*
X127098132Y-112044626D01*
X127082924Y-112021865D01*
X130001882Y-112021865D01*
X130105339Y-112272252D01*
X130296741Y-112463987D01*
X130546946Y-112567882D01*
X130817865Y-112568118D01*
X131068252Y-112464661D01*
X131259987Y-112273259D01*
X131363882Y-112023054D01*
X131364118Y-111752135D01*
X131260661Y-111501748D01*
X131069259Y-111310013D01*
X130819054Y-111206118D01*
X130548135Y-111205882D01*
X130297748Y-111309339D01*
X130106013Y-111500741D01*
X130002118Y-111750946D01*
X130001882Y-112021865D01*
X127082924Y-112021865D01*
X126896316Y-111742588D01*
X126594278Y-111540772D01*
X126238000Y-111469904D01*
X125881722Y-111540772D01*
X125579684Y-111742588D01*
X125377868Y-112044626D01*
X125307000Y-112400904D01*
X115456000Y-112400904D01*
X115456000Y-110088701D01*
X116273580Y-110088701D01*
X116273580Y-110637299D01*
X116348212Y-111012497D01*
X116560744Y-111330575D01*
X116878822Y-111543107D01*
X117254020Y-111617739D01*
X117629218Y-111543107D01*
X117947296Y-111330575D01*
X118159828Y-111012497D01*
X118234460Y-110637299D01*
X118234460Y-110088701D01*
X118272560Y-110088701D01*
X118272560Y-110637299D01*
X118347192Y-111012497D01*
X118559724Y-111330575D01*
X118877802Y-111543107D01*
X119253000Y-111617739D01*
X119628198Y-111543107D01*
X119946276Y-111330575D01*
X120158808Y-111012497D01*
X120233440Y-110637299D01*
X120233440Y-110088701D01*
X120274080Y-110088701D01*
X120274080Y-110637299D01*
X120348712Y-111012497D01*
X120561244Y-111330575D01*
X120879322Y-111543107D01*
X121254520Y-111617739D01*
X121629718Y-111543107D01*
X121947796Y-111330575D01*
X122160328Y-111012497D01*
X122234960Y-110637299D01*
X122234960Y-110088701D01*
X122160328Y-109713503D01*
X122026604Y-109513370D01*
X122268136Y-109513370D01*
X122268136Y-111212630D01*
X122294703Y-111353820D01*
X122378146Y-111483495D01*
X122505466Y-111570489D01*
X122656600Y-111601094D01*
X123855480Y-111601094D01*
X123996670Y-111574527D01*
X124126345Y-111491084D01*
X124213339Y-111363764D01*
X124243944Y-111212630D01*
X124243944Y-109513370D01*
X124222045Y-109396985D01*
X127457000Y-109396985D01*
X127457000Y-110555015D01*
X127527868Y-110911293D01*
X127729684Y-111213331D01*
X128031722Y-111415147D01*
X128388000Y-111486015D01*
X128744278Y-111415147D01*
X128925488Y-111294066D01*
X128962339Y-111383252D01*
X129153741Y-111574987D01*
X129403946Y-111678882D01*
X129674865Y-111679118D01*
X129925252Y-111575661D01*
X130116987Y-111384259D01*
X130220882Y-111134054D01*
X130221118Y-110863135D01*
X130117661Y-110612748D01*
X129926259Y-110421013D01*
X129676054Y-110317118D01*
X129405135Y-110316882D01*
X129319000Y-110352472D01*
X129319000Y-109800347D01*
X129343339Y-109859252D01*
X129534741Y-110050987D01*
X129784946Y-110154882D01*
X130055865Y-110155118D01*
X130306252Y-110051661D01*
X130497987Y-109860259D01*
X130601882Y-109610054D01*
X130602118Y-109339135D01*
X130498661Y-109088748D01*
X130307259Y-108897013D01*
X130093152Y-108808107D01*
X130093247Y-108698906D01*
X129989790Y-108448519D01*
X129798388Y-108256784D01*
X129548183Y-108152889D01*
X129277264Y-108152653D01*
X129026877Y-108256110D01*
X128835142Y-108447512D01*
X128786366Y-108564976D01*
X128744278Y-108536853D01*
X128388000Y-108465985D01*
X128031722Y-108536853D01*
X127729684Y-108738669D01*
X127527868Y-109040707D01*
X127457000Y-109396985D01*
X124222045Y-109396985D01*
X124217377Y-109372180D01*
X124133934Y-109242505D01*
X124006614Y-109155511D01*
X123855480Y-109124906D01*
X122656600Y-109124906D01*
X122515410Y-109151473D01*
X122385735Y-109234916D01*
X122298741Y-109362236D01*
X122268136Y-109513370D01*
X122026604Y-109513370D01*
X121947796Y-109395425D01*
X121629718Y-109182893D01*
X121254520Y-109108261D01*
X120879322Y-109182893D01*
X120561244Y-109395425D01*
X120348712Y-109713503D01*
X120274080Y-110088701D01*
X120233440Y-110088701D01*
X120158808Y-109713503D01*
X119946276Y-109395425D01*
X119628198Y-109182893D01*
X119253000Y-109108261D01*
X118877802Y-109182893D01*
X118559724Y-109395425D01*
X118347192Y-109713503D01*
X118272560Y-110088701D01*
X118234460Y-110088701D01*
X118159828Y-109713503D01*
X117947296Y-109395425D01*
X117629218Y-109182893D01*
X117254020Y-109108261D01*
X116878822Y-109182893D01*
X116560744Y-109395425D01*
X116348212Y-109713503D01*
X116273580Y-110088701D01*
X115456000Y-110088701D01*
X115456000Y-108338865D01*
X118063882Y-108338865D01*
X118167339Y-108589252D01*
X118358741Y-108780987D01*
X118608946Y-108884882D01*
X118879865Y-108885118D01*
X119130252Y-108781661D01*
X119321987Y-108590259D01*
X119425882Y-108340054D01*
X119426118Y-108069135D01*
X119322661Y-107818748D01*
X119131259Y-107627013D01*
X118881054Y-107523118D01*
X118610135Y-107522882D01*
X118359748Y-107626339D01*
X118168013Y-107817741D01*
X118064118Y-108067946D01*
X118063882Y-108338865D01*
X115456000Y-108338865D01*
X115456000Y-105384600D01*
X116744906Y-105384600D01*
X116744906Y-106583480D01*
X116771473Y-106724670D01*
X116854916Y-106854345D01*
X116982236Y-106941339D01*
X117133370Y-106971944D01*
X118832630Y-106971944D01*
X118973820Y-106945377D01*
X119103495Y-106861934D01*
X119145194Y-106800904D01*
X125307000Y-106800904D01*
X125307000Y-107551096D01*
X125377868Y-107907374D01*
X125579684Y-108209412D01*
X125881722Y-108411228D01*
X126238000Y-108482096D01*
X126594278Y-108411228D01*
X126896316Y-108209412D01*
X127098132Y-107907374D01*
X127169000Y-107551096D01*
X127169000Y-106800904D01*
X127135513Y-106632551D01*
X129443685Y-106632551D01*
X129547142Y-106882938D01*
X129738544Y-107074673D01*
X129988749Y-107178568D01*
X130256114Y-107178801D01*
X130255882Y-107444748D01*
X130359339Y-107695135D01*
X130550741Y-107886870D01*
X130800946Y-107990765D01*
X131071865Y-107991001D01*
X131322252Y-107887544D01*
X131513987Y-107696142D01*
X131563515Y-107576865D01*
X134700882Y-107576865D01*
X134804339Y-107827252D01*
X134995741Y-108018987D01*
X135245946Y-108122882D01*
X135516865Y-108123118D01*
X135767252Y-108019661D01*
X135958987Y-107828259D01*
X136062882Y-107578054D01*
X136063118Y-107307135D01*
X135959661Y-107056748D01*
X135768259Y-106865013D01*
X135518054Y-106761118D01*
X135247135Y-106760882D01*
X134996748Y-106864339D01*
X134805013Y-107055741D01*
X134701118Y-107305946D01*
X134700882Y-107576865D01*
X131563515Y-107576865D01*
X131617882Y-107445937D01*
X131618118Y-107175018D01*
X131570318Y-107059333D01*
X131684829Y-107106882D01*
X131955748Y-107107118D01*
X132206135Y-107003661D01*
X132397870Y-106812259D01*
X132501765Y-106562054D01*
X132502001Y-106291135D01*
X132398544Y-106040748D01*
X132207142Y-105849013D01*
X131956937Y-105745118D01*
X131686018Y-105744882D01*
X131570333Y-105792682D01*
X131617882Y-105678171D01*
X131618118Y-105407252D01*
X131514661Y-105156865D01*
X131323259Y-104965130D01*
X131073054Y-104861235D01*
X130802135Y-104860999D01*
X130551748Y-104964456D01*
X130360013Y-105155858D01*
X130256118Y-105406063D01*
X130255882Y-105676982D01*
X130324590Y-105843268D01*
X130260857Y-105816804D01*
X129989938Y-105816568D01*
X129739551Y-105920025D01*
X129547816Y-106111427D01*
X129443921Y-106361632D01*
X129443685Y-106632551D01*
X127135513Y-106632551D01*
X127098132Y-106444626D01*
X126896316Y-106142588D01*
X126594278Y-105940772D01*
X126238000Y-105869904D01*
X125881722Y-105940772D01*
X125579684Y-106142588D01*
X125377868Y-106444626D01*
X125307000Y-106800904D01*
X119145194Y-106800904D01*
X119190489Y-106734614D01*
X119221094Y-106583480D01*
X119221094Y-105384600D01*
X119194527Y-105243410D01*
X119111084Y-105113735D01*
X118983764Y-105026741D01*
X118832630Y-104996136D01*
X117133370Y-104996136D01*
X116992180Y-105022703D01*
X116862505Y-105106146D01*
X116775511Y-105233466D01*
X116744906Y-105384600D01*
X115456000Y-105384600D01*
X115456000Y-103982520D01*
X116728261Y-103982520D01*
X116802893Y-104357718D01*
X117015425Y-104675796D01*
X117333503Y-104888328D01*
X117708701Y-104962960D01*
X118257299Y-104962960D01*
X118632497Y-104888328D01*
X118950575Y-104675796D01*
X119163107Y-104357718D01*
X119237739Y-103982520D01*
X119163107Y-103607322D01*
X118950575Y-103289244D01*
X118632497Y-103076712D01*
X118257299Y-103002080D01*
X117708701Y-103002080D01*
X117333503Y-103076712D01*
X117015425Y-103289244D01*
X116802893Y-103607322D01*
X116728261Y-103982520D01*
X115456000Y-103982520D01*
X115456000Y-101981000D01*
X116728261Y-101981000D01*
X116802893Y-102356198D01*
X117015425Y-102674276D01*
X117333503Y-102886808D01*
X117708701Y-102961440D01*
X118257299Y-102961440D01*
X118632497Y-102886808D01*
X118950575Y-102674276D01*
X119163107Y-102356198D01*
X119237739Y-101981000D01*
X119163107Y-101605802D01*
X118950575Y-101287724D01*
X118632497Y-101075192D01*
X118257299Y-101000560D01*
X117708701Y-101000560D01*
X117333503Y-101075192D01*
X117015425Y-101287724D01*
X116802893Y-101605802D01*
X116728261Y-101981000D01*
X115456000Y-101981000D01*
X115456000Y-91782021D01*
X116560205Y-91782021D01*
X116575401Y-91873933D01*
X116821732Y-92293457D01*
X117083536Y-92491313D01*
X117012480Y-92504683D01*
X116882805Y-92588126D01*
X116795811Y-92715446D01*
X116765206Y-92866580D01*
X116765206Y-94065460D01*
X116791773Y-94206650D01*
X116875216Y-94336325D01*
X117002536Y-94423319D01*
X117153670Y-94453924D01*
X118852930Y-94453924D01*
X118994120Y-94427357D01*
X119123795Y-94343914D01*
X119210789Y-94216594D01*
X119241394Y-94065460D01*
X119241394Y-92866580D01*
X119214827Y-92725390D01*
X119131384Y-92595715D01*
X119004064Y-92508721D01*
X118922015Y-92492106D01*
X119184868Y-92293457D01*
X119431199Y-91873933D01*
X119446395Y-91782021D01*
X119321657Y-91591500D01*
X118130300Y-91591500D01*
X118130300Y-91611500D01*
X117876300Y-91611500D01*
X117876300Y-91591500D01*
X116684943Y-91591500D01*
X116560205Y-91782021D01*
X115456000Y-91782021D01*
X115456000Y-91146979D01*
X116560205Y-91146979D01*
X116684943Y-91337500D01*
X117876300Y-91337500D01*
X117876300Y-91317500D01*
X118130300Y-91317500D01*
X118130300Y-91337500D01*
X119321657Y-91337500D01*
X119446395Y-91146979D01*
X119431199Y-91055067D01*
X119184868Y-90635543D01*
X118796743Y-90342221D01*
X118721750Y-90322715D01*
X118970875Y-90156256D01*
X119183407Y-89838178D01*
X119258039Y-89462980D01*
X119183407Y-89087782D01*
X118970875Y-88769704D01*
X118652797Y-88557172D01*
X118277599Y-88482540D01*
X117729001Y-88482540D01*
X117353803Y-88557172D01*
X117035725Y-88769704D01*
X116823193Y-89087782D01*
X116748561Y-89462980D01*
X116823193Y-89838178D01*
X117035725Y-90156256D01*
X117284850Y-90322715D01*
X117209857Y-90342221D01*
X116821732Y-90635543D01*
X116575401Y-91055067D01*
X116560205Y-91146979D01*
X115456000Y-91146979D01*
X115456000Y-83458420D01*
X116748561Y-83458420D01*
X116823193Y-83833618D01*
X117035725Y-84151696D01*
X117353803Y-84364228D01*
X117729001Y-84438860D01*
X118277599Y-84438860D01*
X118652797Y-84364228D01*
X118970875Y-84151696D01*
X119183407Y-83833618D01*
X119258039Y-83458420D01*
X119183407Y-83083222D01*
X118970875Y-82765144D01*
X118652797Y-82552612D01*
X118277599Y-82477980D01*
X117729001Y-82477980D01*
X117353803Y-82552612D01*
X117035725Y-82765144D01*
X116823193Y-83083222D01*
X116748561Y-83458420D01*
X115456000Y-83458420D01*
X115456000Y-81459440D01*
X116748561Y-81459440D01*
X116823193Y-81834638D01*
X117035725Y-82152716D01*
X117353803Y-82365248D01*
X117729001Y-82439880D01*
X118277599Y-82439880D01*
X118652797Y-82365248D01*
X118970875Y-82152716D01*
X119183407Y-81834638D01*
X119258039Y-81459440D01*
X119183407Y-81084242D01*
X118970875Y-80766164D01*
X118652797Y-80553632D01*
X118277599Y-80479000D01*
X117729001Y-80479000D01*
X117353803Y-80553632D01*
X117035725Y-80766164D01*
X116823193Y-81084242D01*
X116748561Y-81459440D01*
X115456000Y-81459440D01*
X115456000Y-79460460D01*
X116748561Y-79460460D01*
X116823193Y-79835658D01*
X117035725Y-80153736D01*
X117353803Y-80366268D01*
X117729001Y-80440900D01*
X118277599Y-80440900D01*
X118652797Y-80366268D01*
X118970875Y-80153736D01*
X119183407Y-79835658D01*
X119258039Y-79460460D01*
X119183407Y-79085262D01*
X118970875Y-78767184D01*
X118652797Y-78554652D01*
X118277599Y-78480020D01*
X118063019Y-78480020D01*
X118178987Y-78364253D01*
X118282882Y-78114048D01*
X118283118Y-77843129D01*
X118179661Y-77592742D01*
X117988259Y-77401007D01*
X117738054Y-77297112D01*
X117467135Y-77296876D01*
X117216748Y-77400333D01*
X117025013Y-77591735D01*
X116921118Y-77841940D01*
X116920882Y-78112859D01*
X117024339Y-78363246D01*
X117215741Y-78554981D01*
X117300584Y-78590211D01*
X117035725Y-78767184D01*
X116823193Y-79085262D01*
X116748561Y-79460460D01*
X115456000Y-79460460D01*
X115456000Y-74330560D01*
X116744906Y-74330560D01*
X116744906Y-75529440D01*
X116771473Y-75670630D01*
X116854916Y-75800305D01*
X116982236Y-75887299D01*
X117133370Y-75917904D01*
X118832630Y-75917904D01*
X118973820Y-75891337D01*
X119103495Y-75807894D01*
X119190489Y-75680574D01*
X119221094Y-75529440D01*
X119221094Y-74330560D01*
X119194527Y-74189370D01*
X119111084Y-74059695D01*
X118983764Y-73972701D01*
X118832630Y-73942096D01*
X117133370Y-73942096D01*
X116992180Y-73968663D01*
X116862505Y-74052106D01*
X116775511Y-74179426D01*
X116744906Y-74330560D01*
X115456000Y-74330560D01*
X115456000Y-72928480D01*
X116728261Y-72928480D01*
X116802893Y-73303678D01*
X117015425Y-73621756D01*
X117333503Y-73834288D01*
X117708701Y-73908920D01*
X118257299Y-73908920D01*
X118632497Y-73834288D01*
X118950575Y-73621756D01*
X119163107Y-73303678D01*
X119237739Y-72928480D01*
X119163107Y-72553282D01*
X118950575Y-72235204D01*
X118632497Y-72022672D01*
X118257299Y-71948040D01*
X117708701Y-71948040D01*
X117333503Y-72022672D01*
X117015425Y-72235204D01*
X116802893Y-72553282D01*
X116728261Y-72928480D01*
X115456000Y-72928480D01*
X115456000Y-70926960D01*
X116728261Y-70926960D01*
X116802893Y-71302158D01*
X117015425Y-71620236D01*
X117333503Y-71832768D01*
X117708701Y-71907400D01*
X118257299Y-71907400D01*
X118632497Y-71832768D01*
X118950575Y-71620236D01*
X119163107Y-71302158D01*
X119237739Y-70926960D01*
X119163107Y-70551762D01*
X118950575Y-70233684D01*
X118632497Y-70021152D01*
X118257299Y-69946520D01*
X117708701Y-69946520D01*
X117333503Y-70021152D01*
X117015425Y-70233684D01*
X116802893Y-70551762D01*
X116728261Y-70926960D01*
X115456000Y-70926960D01*
X115456000Y-67243981D01*
X116539905Y-67243981D01*
X116555101Y-67335893D01*
X116801432Y-67755417D01*
X117189557Y-68048739D01*
X117264550Y-68068245D01*
X117015425Y-68234704D01*
X116802893Y-68552782D01*
X116728261Y-68927980D01*
X116802893Y-69303178D01*
X117015425Y-69621256D01*
X117333503Y-69833788D01*
X117708701Y-69908420D01*
X118257299Y-69908420D01*
X118632497Y-69833788D01*
X118950575Y-69621256D01*
X119163107Y-69303178D01*
X119237739Y-68927980D01*
X119163107Y-68552782D01*
X118950575Y-68234704D01*
X118701450Y-68068245D01*
X118776443Y-68048739D01*
X119164568Y-67755417D01*
X119410899Y-67335893D01*
X119426095Y-67243981D01*
X119301357Y-67053460D01*
X118110000Y-67053460D01*
X118110000Y-67073460D01*
X117856000Y-67073460D01*
X117856000Y-67053460D01*
X116664643Y-67053460D01*
X116539905Y-67243981D01*
X115456000Y-67243981D01*
X115456000Y-66608939D01*
X116539905Y-66608939D01*
X116664643Y-66799460D01*
X117856000Y-66799460D01*
X117856000Y-65844460D01*
X118110000Y-65844460D01*
X118110000Y-66799460D01*
X119301357Y-66799460D01*
X119426095Y-66608939D01*
X119410899Y-66517027D01*
X119164568Y-66097503D01*
X118776443Y-65804181D01*
X118305613Y-65681715D01*
X118110000Y-65844460D01*
X117856000Y-65844460D01*
X117660387Y-65681715D01*
X117189557Y-65804181D01*
X116801432Y-66097503D01*
X116555101Y-66517027D01*
X116539905Y-66608939D01*
X115456000Y-66608939D01*
X115456000Y-62491865D01*
X118317882Y-62491865D01*
X118421339Y-62742252D01*
X118612741Y-62933987D01*
X118837152Y-63027171D01*
X118929339Y-63250282D01*
X119120741Y-63442017D01*
X119370946Y-63545912D01*
X119641865Y-63546148D01*
X119892252Y-63442691D01*
X120083987Y-63251289D01*
X120187882Y-63001084D01*
X120188118Y-62730165D01*
X120084661Y-62479778D01*
X119893259Y-62288043D01*
X119668848Y-62194859D01*
X119576661Y-61971748D01*
X119385259Y-61780013D01*
X119135054Y-61676118D01*
X118864135Y-61675882D01*
X118613748Y-61779339D01*
X118422013Y-61970741D01*
X118318118Y-62220946D01*
X118317882Y-62491865D01*
X115456000Y-62491865D01*
X115456000Y-61094867D01*
X124693282Y-61094867D01*
X124796739Y-61345254D01*
X124988141Y-61536989D01*
X125238346Y-61640884D01*
X125509265Y-61641120D01*
X125717506Y-61555077D01*
X125924146Y-61640882D01*
X126195065Y-61641118D01*
X126403304Y-61555076D01*
X126609946Y-61640882D01*
X126880865Y-61641118D01*
X127131252Y-61537661D01*
X127322987Y-61346259D01*
X127426882Y-61096054D01*
X127427118Y-60825135D01*
X127323661Y-60574748D01*
X127132259Y-60383013D01*
X126882054Y-60279118D01*
X126611135Y-60278882D01*
X126402896Y-60364924D01*
X126196254Y-60279118D01*
X125925335Y-60278882D01*
X125717094Y-60364925D01*
X125510454Y-60279120D01*
X125239535Y-60278884D01*
X124989148Y-60382341D01*
X124797413Y-60573743D01*
X124693518Y-60823948D01*
X124693282Y-61094867D01*
X115456000Y-61094867D01*
X115456000Y-59651571D01*
X118064856Y-59651571D01*
X118191102Y-59957109D01*
X118424662Y-60191077D01*
X118729979Y-60317855D01*
X119060571Y-60318144D01*
X119366109Y-60191898D01*
X119600077Y-59958338D01*
X119726855Y-59653021D01*
X119726856Y-59651571D01*
X121064856Y-59651571D01*
X121191102Y-59957109D01*
X121424662Y-60191077D01*
X121729979Y-60317855D01*
X122060571Y-60318144D01*
X122366109Y-60191898D01*
X122600077Y-59958338D01*
X122726855Y-59653021D01*
X122727144Y-59322429D01*
X122600898Y-59016891D01*
X122367338Y-58782923D01*
X122352321Y-58776687D01*
X122432252Y-58743661D01*
X122527478Y-58648600D01*
X123571000Y-58648600D01*
X123755683Y-58611864D01*
X123912250Y-58507250D01*
X125230130Y-57189370D01*
X126106076Y-57189370D01*
X126106076Y-58888630D01*
X126132643Y-59029820D01*
X126216086Y-59159495D01*
X126343406Y-59246489D01*
X126494540Y-59277094D01*
X127693420Y-59277094D01*
X127834610Y-59250527D01*
X127964285Y-59167084D01*
X128051279Y-59039764D01*
X128081884Y-58888630D01*
X128081884Y-57189370D01*
X128055317Y-57048180D01*
X127971874Y-56918505D01*
X127844554Y-56831511D01*
X127693420Y-56800906D01*
X126494540Y-56800906D01*
X126353350Y-56827473D01*
X126223675Y-56910916D01*
X126136681Y-57038236D01*
X126106076Y-57189370D01*
X125230130Y-57189370D01*
X125802900Y-56616600D01*
X136046970Y-56616600D01*
X136463331Y-57032960D01*
X136405764Y-57071425D01*
X136193232Y-57389503D01*
X136118600Y-57764701D01*
X136118600Y-58313299D01*
X136193232Y-58688497D01*
X136405764Y-59006575D01*
X136723842Y-59219107D01*
X137099040Y-59293739D01*
X137474238Y-59219107D01*
X137792316Y-59006575D01*
X138004848Y-58688497D01*
X138031429Y-58554865D01*
X140034882Y-58554865D01*
X140138339Y-58805252D01*
X140329741Y-58996987D01*
X140579946Y-59100882D01*
X140850865Y-59101118D01*
X141101252Y-58997661D01*
X141292987Y-58806259D01*
X141396882Y-58556054D01*
X141397118Y-58285135D01*
X141293661Y-58034748D01*
X141102259Y-57843013D01*
X140852054Y-57739118D01*
X140581135Y-57738882D01*
X140330748Y-57842339D01*
X140139013Y-58033741D01*
X140035118Y-58283946D01*
X140034882Y-58554865D01*
X138031429Y-58554865D01*
X138079480Y-58313299D01*
X138079480Y-57764701D01*
X138004848Y-57389503D01*
X137792316Y-57071425D01*
X137568905Y-56922147D01*
X137544904Y-56801487D01*
X137440290Y-56644920D01*
X137440287Y-56644918D01*
X136588120Y-55792750D01*
X136431553Y-55688136D01*
X136246870Y-55651400D01*
X125603000Y-55651400D01*
X125418317Y-55688136D01*
X125261750Y-55792750D01*
X123371100Y-57683400D01*
X122527482Y-57683400D01*
X122433259Y-57589013D01*
X122183054Y-57485118D01*
X121912135Y-57484882D01*
X121661748Y-57588339D01*
X121470013Y-57779741D01*
X121366118Y-58029946D01*
X121365882Y-58300865D01*
X121469339Y-58551252D01*
X121619804Y-58701979D01*
X121425891Y-58782102D01*
X121191923Y-59015662D01*
X121065145Y-59320979D01*
X121064856Y-59651571D01*
X119726856Y-59651571D01*
X119727144Y-59322429D01*
X119600898Y-59016891D01*
X119367338Y-58782923D01*
X119062021Y-58656145D01*
X118731429Y-58655856D01*
X118425891Y-58782102D01*
X118191923Y-59015662D01*
X118065145Y-59320979D01*
X118064856Y-59651571D01*
X115456000Y-59651571D01*
X115456000Y-57044912D01*
X115581784Y-56412555D01*
X115914544Y-55914544D01*
X116412555Y-55581784D01*
X117044911Y-55456000D01*
X142589820Y-55456000D01*
X142552013Y-55493741D01*
G36*
X134550339Y-93222240D02*
X134741741Y-93413975D01*
X134991946Y-93517870D01*
X135126499Y-93517987D01*
X136296400Y-94687887D01*
X136296400Y-98822566D01*
X136211459Y-98737477D01*
X135961254Y-98633582D01*
X135690335Y-98633346D01*
X135439948Y-98736803D01*
X135248213Y-98928205D01*
X135144318Y-99178410D01*
X135144082Y-99449329D01*
X135247539Y-99699716D01*
X135438941Y-99891451D01*
X135689146Y-99995346D01*
X135806236Y-99995448D01*
X133744506Y-102057178D01*
X133495009Y-102057178D01*
X133522882Y-101990054D01*
X133523118Y-101719135D01*
X133419661Y-101468748D01*
X133228259Y-101277013D01*
X132978054Y-101173118D01*
X132707135Y-101172882D01*
X132456748Y-101276339D01*
X132265013Y-101467741D01*
X132161118Y-101717946D01*
X132160882Y-101988865D01*
X132189108Y-102057178D01*
X130140222Y-102057178D01*
X131568269Y-100629131D01*
X131701636Y-100629247D01*
X131859095Y-100564187D01*
X131947741Y-100652987D01*
X132197946Y-100756882D01*
X132468865Y-100757118D01*
X132719252Y-100653661D01*
X132910987Y-100462259D01*
X133014882Y-100212054D01*
X133015118Y-99941135D01*
X132911661Y-99690748D01*
X132720259Y-99499013D01*
X132470054Y-99395118D01*
X132199135Y-99394882D01*
X132041676Y-99459942D01*
X131953030Y-99371142D01*
X131702825Y-99267247D01*
X131431906Y-99267011D01*
X131181519Y-99370468D01*
X130989784Y-99561870D01*
X130989315Y-99562999D01*
X130944273Y-99517878D01*
X130694068Y-99413983D01*
X130423149Y-99413747D01*
X130280689Y-99472610D01*
X130180267Y-99372013D01*
X129930062Y-99268118D01*
X129659143Y-99267882D01*
X129408756Y-99371339D01*
X129322545Y-99457401D01*
X129145672Y-99383956D01*
X128874753Y-99383720D01*
X128624366Y-99487177D01*
X128507201Y-99604138D01*
X128402259Y-99499013D01*
X128152054Y-99395118D01*
X128071601Y-99395048D01*
X128071601Y-98015183D01*
X128125356Y-98037504D01*
X128396275Y-98037740D01*
X128646662Y-97934283D01*
X128741888Y-97839222D01*
X129230435Y-97839222D01*
X129415118Y-97802486D01*
X129571685Y-97697872D01*
X129885671Y-97383886D01*
X129960750Y-97496250D01*
X130418925Y-97954425D01*
X130575492Y-98059039D01*
X130760175Y-98095775D01*
X131407515Y-98095775D01*
X131592198Y-98059039D01*
X131689296Y-97994161D01*
X131842379Y-97994294D01*
X132092766Y-97890837D01*
X132284501Y-97699435D01*
X132388396Y-97449230D01*
X132388632Y-97178311D01*
X132285175Y-96927924D01*
X132093773Y-96736189D01*
X131850796Y-96635295D01*
X131865246Y-96562652D01*
X131865246Y-95396770D01*
X131928131Y-95422882D01*
X132199050Y-95423118D01*
X132449437Y-95319661D01*
X132516540Y-95252675D01*
X132582737Y-95318987D01*
X132664902Y-95353105D01*
X132519013Y-95498741D01*
X132415118Y-95748946D01*
X132414882Y-96019865D01*
X132518339Y-96270252D01*
X132709741Y-96461987D01*
X132959946Y-96565882D01*
X133230865Y-96566118D01*
X133481252Y-96462661D01*
X133540441Y-96403575D01*
X133598751Y-96461987D01*
X133848956Y-96565882D01*
X134119875Y-96566118D01*
X134218773Y-96525255D01*
X134296338Y-96712978D01*
X134487740Y-96904713D01*
X134737945Y-97008608D01*
X135008864Y-97008844D01*
X135259251Y-96905387D01*
X135450986Y-96713985D01*
X135554881Y-96463780D01*
X135555117Y-96192861D01*
X135451660Y-95942474D01*
X135260258Y-95750739D01*
X135010053Y-95646844D01*
X134739134Y-95646608D01*
X134640236Y-95687471D01*
X134562671Y-95499748D01*
X134371269Y-95308013D01*
X134360117Y-95303382D01*
X134383287Y-95280212D01*
X134383290Y-95280210D01*
X134487904Y-95123643D01*
X134496138Y-95082249D01*
X134524641Y-94938960D01*
X134524640Y-94938955D01*
X134524640Y-93160043D01*
X134550339Y-93222240D01*
X134550339Y-93222240D01*
G37*
X134550339Y-93222240D02*
X134741741Y-93413975D01*
X134991946Y-93517870D01*
X135126499Y-93517987D01*
X136296400Y-94687887D01*
X136296400Y-98822566D01*
X136211459Y-98737477D01*
X135961254Y-98633582D01*
X135690335Y-98633346D01*
X135439948Y-98736803D01*
X135248213Y-98928205D01*
X135144318Y-99178410D01*
X135144082Y-99449329D01*
X135247539Y-99699716D01*
X135438941Y-99891451D01*
X135689146Y-99995346D01*
X135806236Y-99995448D01*
X133744506Y-102057178D01*
X133495009Y-102057178D01*
X133522882Y-101990054D01*
X133523118Y-101719135D01*
X133419661Y-101468748D01*
X133228259Y-101277013D01*
X132978054Y-101173118D01*
X132707135Y-101172882D01*
X132456748Y-101276339D01*
X132265013Y-101467741D01*
X132161118Y-101717946D01*
X132160882Y-101988865D01*
X132189108Y-102057178D01*
X130140222Y-102057178D01*
X131568269Y-100629131D01*
X131701636Y-100629247D01*
X131859095Y-100564187D01*
X131947741Y-100652987D01*
X132197946Y-100756882D01*
X132468865Y-100757118D01*
X132719252Y-100653661D01*
X132910987Y-100462259D01*
X133014882Y-100212054D01*
X133015118Y-99941135D01*
X132911661Y-99690748D01*
X132720259Y-99499013D01*
X132470054Y-99395118D01*
X132199135Y-99394882D01*
X132041676Y-99459942D01*
X131953030Y-99371142D01*
X131702825Y-99267247D01*
X131431906Y-99267011D01*
X131181519Y-99370468D01*
X130989784Y-99561870D01*
X130989315Y-99562999D01*
X130944273Y-99517878D01*
X130694068Y-99413983D01*
X130423149Y-99413747D01*
X130280689Y-99472610D01*
X130180267Y-99372013D01*
X129930062Y-99268118D01*
X129659143Y-99267882D01*
X129408756Y-99371339D01*
X129322545Y-99457401D01*
X129145672Y-99383956D01*
X128874753Y-99383720D01*
X128624366Y-99487177D01*
X128507201Y-99604138D01*
X128402259Y-99499013D01*
X128152054Y-99395118D01*
X128071601Y-99395048D01*
X128071601Y-98015183D01*
X128125356Y-98037504D01*
X128396275Y-98037740D01*
X128646662Y-97934283D01*
X128741888Y-97839222D01*
X129230435Y-97839222D01*
X129415118Y-97802486D01*
X129571685Y-97697872D01*
X129885671Y-97383886D01*
X129960750Y-97496250D01*
X130418925Y-97954425D01*
X130575492Y-98059039D01*
X130760175Y-98095775D01*
X131407515Y-98095775D01*
X131592198Y-98059039D01*
X131689296Y-97994161D01*
X131842379Y-97994294D01*
X132092766Y-97890837D01*
X132284501Y-97699435D01*
X132388396Y-97449230D01*
X132388632Y-97178311D01*
X132285175Y-96927924D01*
X132093773Y-96736189D01*
X131850796Y-96635295D01*
X131865246Y-96562652D01*
X131865246Y-95396770D01*
X131928131Y-95422882D01*
X132199050Y-95423118D01*
X132449437Y-95319661D01*
X132516540Y-95252675D01*
X132582737Y-95318987D01*
X132664902Y-95353105D01*
X132519013Y-95498741D01*
X132415118Y-95748946D01*
X132414882Y-96019865D01*
X132518339Y-96270252D01*
X132709741Y-96461987D01*
X132959946Y-96565882D01*
X133230865Y-96566118D01*
X133481252Y-96462661D01*
X133540441Y-96403575D01*
X133598751Y-96461987D01*
X133848956Y-96565882D01*
X134119875Y-96566118D01*
X134218773Y-96525255D01*
X134296338Y-96712978D01*
X134487740Y-96904713D01*
X134737945Y-97008608D01*
X135008864Y-97008844D01*
X135259251Y-96905387D01*
X135450986Y-96713985D01*
X135554881Y-96463780D01*
X135555117Y-96192861D01*
X135451660Y-95942474D01*
X135260258Y-95750739D01*
X135010053Y-95646844D01*
X134739134Y-95646608D01*
X134640236Y-95687471D01*
X134562671Y-95499748D01*
X134371269Y-95308013D01*
X134360117Y-95303382D01*
X134383287Y-95280212D01*
X134383290Y-95280210D01*
X134487904Y-95123643D01*
X134496138Y-95082249D01*
X134524641Y-94938960D01*
X134524640Y-94938955D01*
X134524640Y-93160043D01*
X134550339Y-93222240D01*
G36*
X126274141Y-69336741D02*
X126170246Y-69586946D01*
X126170010Y-69857865D01*
X126273467Y-70108252D01*
X126464869Y-70299987D01*
X126715074Y-70403882D01*
X126985993Y-70404118D01*
X127236380Y-70300661D01*
X127428115Y-70109259D01*
X127532010Y-69859054D01*
X127532246Y-69588135D01*
X127428789Y-69337748D01*
X127280898Y-69189600D01*
X128950087Y-69189600D01*
X128962339Y-69219252D01*
X129153741Y-69410987D01*
X129356828Y-69495317D01*
X129281748Y-69526339D01*
X129090013Y-69717741D01*
X128986118Y-69967946D01*
X128985882Y-70238865D01*
X129089339Y-70489252D01*
X129198364Y-70598467D01*
X129198433Y-70598814D01*
X129027748Y-70669339D01*
X128836013Y-70860741D01*
X128732118Y-71110946D01*
X128731882Y-71381865D01*
X128835339Y-71632252D01*
X129014568Y-71811793D01*
X128987005Y-71878172D01*
X128986769Y-72149091D01*
X129090226Y-72399478D01*
X129146253Y-72455603D01*
X129090013Y-72511745D01*
X128986118Y-72761950D01*
X128985882Y-73032869D01*
X129089339Y-73283256D01*
X129280741Y-73474991D01*
X129530946Y-73578886D01*
X129801865Y-73579122D01*
X130052252Y-73475665D01*
X130243987Y-73284263D01*
X130347882Y-73034058D01*
X130348118Y-72763139D01*
X130244661Y-72512752D01*
X130188634Y-72456627D01*
X130244874Y-72400485D01*
X130263469Y-72355705D01*
X131368844Y-73461080D01*
X131368844Y-76226110D01*
X130424743Y-75282008D01*
X130268176Y-75177394D01*
X130199398Y-75163713D01*
X130276987Y-75086259D01*
X130380882Y-74836054D01*
X130381118Y-74565135D01*
X130277661Y-74314748D01*
X130086259Y-74123013D01*
X129836054Y-74019118D01*
X129565135Y-74018882D01*
X129314748Y-74122339D01*
X129123013Y-74313741D01*
X129019118Y-74563946D01*
X129018882Y-74834865D01*
X129122339Y-75085252D01*
X129178199Y-75141209D01*
X129082242Y-75236999D01*
X128978347Y-75487204D01*
X128978111Y-75758123D01*
X129081568Y-76008510D01*
X129112372Y-76039367D01*
X129019118Y-76263946D01*
X129018882Y-76534865D01*
X129080794Y-76684704D01*
X128943603Y-76821656D01*
X128839708Y-77071861D01*
X128839472Y-77342780D01*
X128942929Y-77593167D01*
X129134331Y-77784902D01*
X129384536Y-77888797D01*
X129519089Y-77888914D01*
X130302011Y-78671835D01*
X130302011Y-79708502D01*
X127427002Y-76833492D01*
X127427118Y-76700125D01*
X127323661Y-76449738D01*
X127132259Y-76258003D01*
X126882054Y-76154108D01*
X126611135Y-76153872D01*
X126360748Y-76257329D01*
X126169013Y-76448731D01*
X126065118Y-76698936D01*
X126064882Y-76969855D01*
X126158091Y-77195439D01*
X126107300Y-77174349D01*
X125836381Y-77174113D01*
X125585994Y-77277570D01*
X125394259Y-77468972D01*
X125290364Y-77719177D01*
X125290128Y-77990096D01*
X125393585Y-78240483D01*
X125584987Y-78432218D01*
X125835192Y-78536113D01*
X125969745Y-78536230D01*
X127025389Y-79591874D01*
X127025389Y-84015947D01*
X126942669Y-83815748D01*
X126751267Y-83624013D01*
X126501062Y-83520118D01*
X126230143Y-83519882D01*
X125979756Y-83623339D01*
X125788021Y-83814741D01*
X125684126Y-84064946D01*
X125683890Y-84335865D01*
X125787347Y-84586252D01*
X125978749Y-84777987D01*
X126228954Y-84881882D01*
X126499873Y-84882118D01*
X126750260Y-84778661D01*
X126941995Y-84587259D01*
X127025389Y-84386426D01*
X127025389Y-85929742D01*
X127006849Y-85911170D01*
X126756644Y-85807275D01*
X126485725Y-85807039D01*
X126235338Y-85910496D01*
X126197729Y-85948040D01*
X125980477Y-85857828D01*
X125709558Y-85857592D01*
X125459171Y-85961049D01*
X125267436Y-86152451D01*
X125163541Y-86402656D01*
X125163305Y-86673575D01*
X125266762Y-86923962D01*
X125458164Y-87115697D01*
X125708369Y-87219592D01*
X125979288Y-87219828D01*
X126229675Y-87116371D01*
X126258027Y-87088068D01*
X126247697Y-87112946D01*
X126247461Y-87383865D01*
X126350918Y-87634252D01*
X126542320Y-87825987D01*
X126792525Y-87929882D01*
X127025389Y-87930085D01*
X127025389Y-88479901D01*
X127009054Y-88473118D01*
X126738135Y-88472882D01*
X126487748Y-88576339D01*
X126296013Y-88767741D01*
X126192118Y-89017946D01*
X126191882Y-89288865D01*
X126295339Y-89539252D01*
X126486741Y-89730987D01*
X126736946Y-89834882D01*
X127007865Y-89835118D01*
X127025389Y-89827877D01*
X127025389Y-93430597D01*
X126277750Y-94178236D01*
X126173136Y-94334803D01*
X126136400Y-94519486D01*
X126136400Y-99625926D01*
X126173136Y-99810609D01*
X126277750Y-99967176D01*
X127173972Y-100863398D01*
X122754898Y-100863398D01*
X121368302Y-99476802D01*
X121453746Y-99512282D01*
X121724665Y-99512518D01*
X121975052Y-99409061D01*
X122166787Y-99217659D01*
X122176251Y-99194865D01*
X123524882Y-99194865D01*
X123628339Y-99445252D01*
X123819741Y-99636987D01*
X124069946Y-99740882D01*
X124340865Y-99741118D01*
X124591252Y-99637661D01*
X124782987Y-99446259D01*
X124886882Y-99196054D01*
X124887118Y-98925135D01*
X124783661Y-98674748D01*
X124592259Y-98483013D01*
X124342054Y-98379118D01*
X124071135Y-98378882D01*
X123820748Y-98482339D01*
X123629013Y-98673741D01*
X123525118Y-98923946D01*
X123524882Y-99194865D01*
X122176251Y-99194865D01*
X122270682Y-98967454D01*
X122270918Y-98696535D01*
X122167461Y-98446148D01*
X121976059Y-98254413D01*
X121725854Y-98150518D01*
X121454935Y-98150282D01*
X121259622Y-98230983D01*
X121259622Y-96280551D01*
X123826528Y-96280551D01*
X123929985Y-96530938D01*
X124121387Y-96722673D01*
X124371592Y-96826568D01*
X124642511Y-96826804D01*
X124892898Y-96723347D01*
X125084633Y-96531945D01*
X125188528Y-96281740D01*
X125188764Y-96010821D01*
X125085307Y-95760434D01*
X124893905Y-95568699D01*
X124643700Y-95464804D01*
X124372781Y-95464568D01*
X124122394Y-95568025D01*
X123930659Y-95759427D01*
X123826764Y-96009632D01*
X123826528Y-96280551D01*
X121259622Y-96280551D01*
X121259622Y-94622865D01*
X122762882Y-94622865D01*
X122866339Y-94873252D01*
X123057741Y-95064987D01*
X123307946Y-95168882D01*
X123578865Y-95169118D01*
X123744380Y-95100729D01*
X123755339Y-95127252D01*
X123946741Y-95318987D01*
X124196946Y-95422882D01*
X124467865Y-95423118D01*
X124718252Y-95319661D01*
X124909987Y-95128259D01*
X125013882Y-94878054D01*
X125014118Y-94607135D01*
X124910661Y-94356748D01*
X124719259Y-94165013D01*
X124469054Y-94061118D01*
X124198135Y-94060882D01*
X124032620Y-94129271D01*
X124021661Y-94102748D01*
X123830259Y-93911013D01*
X123580054Y-93807118D01*
X123309135Y-93806882D01*
X123058748Y-93910339D01*
X122867013Y-94101741D01*
X122763118Y-94351946D01*
X122762882Y-94622865D01*
X121259622Y-94622865D01*
X121259622Y-87652122D01*
X123290659Y-89683159D01*
X123290659Y-92574018D01*
X123235961Y-92628621D01*
X123236118Y-92448135D01*
X123132661Y-92197748D01*
X123075773Y-92140761D01*
X123174670Y-91902594D01*
X123174906Y-91631675D01*
X123071449Y-91381288D01*
X123058808Y-91368625D01*
X123160004Y-91124920D01*
X123160240Y-90854001D01*
X123056783Y-90603614D01*
X123014209Y-90560965D01*
X123040679Y-90534541D01*
X123144574Y-90284336D01*
X123144810Y-90013417D01*
X123041353Y-89763030D01*
X122849951Y-89571295D01*
X122599746Y-89467400D01*
X122328827Y-89467164D01*
X122078440Y-89570621D01*
X121886705Y-89762023D01*
X121782810Y-90012228D01*
X121782574Y-90283147D01*
X121886031Y-90533534D01*
X121928605Y-90576183D01*
X121902135Y-90602607D01*
X121798240Y-90852812D01*
X121798004Y-91123731D01*
X121901461Y-91374118D01*
X121914102Y-91386781D01*
X121812906Y-91630486D01*
X121812670Y-91901405D01*
X121916127Y-92151792D01*
X121973015Y-92208779D01*
X121874118Y-92446946D01*
X121873882Y-92717865D01*
X121977339Y-92968252D01*
X122168741Y-93159987D01*
X122418946Y-93263882D01*
X122689865Y-93264118D01*
X122940252Y-93160661D01*
X123092298Y-93008879D01*
X123092141Y-93189365D01*
X123195598Y-93439752D01*
X123387000Y-93631487D01*
X123637205Y-93735382D01*
X123908124Y-93735618D01*
X124158511Y-93632161D01*
X124350246Y-93440759D01*
X124454141Y-93190554D01*
X124454377Y-92919635D01*
X124350920Y-92669248D01*
X124255859Y-92574022D01*
X124255859Y-89483259D01*
X124219123Y-89298576D01*
X124114509Y-89142009D01*
X121640633Y-86668133D01*
X121640633Y-86367865D01*
X123524882Y-86367865D01*
X123628339Y-86618252D01*
X123819741Y-86809987D01*
X124069946Y-86913882D01*
X124340865Y-86914118D01*
X124591252Y-86810661D01*
X124782987Y-86619259D01*
X124886882Y-86369054D01*
X124887118Y-86098135D01*
X124783661Y-85847748D01*
X124592259Y-85656013D01*
X124342054Y-85552118D01*
X124071135Y-85551882D01*
X123820748Y-85655339D01*
X123629013Y-85846741D01*
X123525118Y-86096946D01*
X123524882Y-86367865D01*
X121640633Y-86367865D01*
X121640633Y-84970865D01*
X122889882Y-84970865D01*
X122993339Y-85221252D01*
X123184741Y-85412987D01*
X123434946Y-85516882D01*
X123705865Y-85517118D01*
X123956252Y-85413661D01*
X124147987Y-85222259D01*
X124251882Y-84972054D01*
X124252118Y-84701135D01*
X124148661Y-84450748D01*
X123957259Y-84259013D01*
X123707054Y-84155118D01*
X123436135Y-84154882D01*
X123185748Y-84258339D01*
X122994013Y-84449741D01*
X122890118Y-84699946D01*
X122889882Y-84970865D01*
X121640633Y-84970865D01*
X121640633Y-82608603D01*
X121790593Y-82670872D01*
X122061512Y-82671108D01*
X122311899Y-82567651D01*
X122503634Y-82376249D01*
X122607529Y-82126044D01*
X122607765Y-81855125D01*
X122504308Y-81604738D01*
X122312906Y-81413003D01*
X122062701Y-81309108D01*
X121791782Y-81308872D01*
X121640633Y-81371325D01*
X121640633Y-78493865D01*
X123143882Y-78493865D01*
X123247339Y-78744252D01*
X123438741Y-78935987D01*
X123688946Y-79039882D01*
X123959865Y-79040118D01*
X124210252Y-78936661D01*
X124401987Y-78745259D01*
X124505882Y-78495054D01*
X124506118Y-78224135D01*
X124402661Y-77973748D01*
X124211259Y-77782013D01*
X123961054Y-77678118D01*
X123690135Y-77677882D01*
X123439748Y-77781339D01*
X123248013Y-77972741D01*
X123144118Y-78222946D01*
X123143882Y-78493865D01*
X121640633Y-78493865D01*
X121640633Y-76461865D01*
X121746886Y-76461865D01*
X121850343Y-76712252D01*
X122041745Y-76903987D01*
X122291950Y-77007882D01*
X122562869Y-77008118D01*
X122813256Y-76904661D01*
X123004991Y-76713259D01*
X123108886Y-76463054D01*
X123109122Y-76192135D01*
X123005665Y-75941748D01*
X122814263Y-75750013D01*
X122564058Y-75646118D01*
X122293139Y-75645882D01*
X122042752Y-75749339D01*
X121851017Y-75940741D01*
X121747122Y-76190946D01*
X121746886Y-76461865D01*
X121640633Y-76461865D01*
X121640633Y-73284755D01*
X126172937Y-73284755D01*
X126276394Y-73535142D01*
X126467796Y-73726877D01*
X126718001Y-73830772D01*
X126988920Y-73831008D01*
X127239307Y-73727551D01*
X127431042Y-73536149D01*
X127534937Y-73285944D01*
X127535173Y-73015025D01*
X127431716Y-72764638D01*
X127240314Y-72572903D01*
X126990109Y-72469008D01*
X126719190Y-72468772D01*
X126468803Y-72572229D01*
X126277068Y-72763631D01*
X126173173Y-73013836D01*
X126172937Y-73284755D01*
X121640633Y-73284755D01*
X121640633Y-73191108D01*
X121656946Y-73197882D01*
X121927865Y-73198118D01*
X122178252Y-73094661D01*
X122369987Y-72903259D01*
X122473882Y-72653054D01*
X122474118Y-72382135D01*
X122372295Y-72135702D01*
X122473882Y-71891054D01*
X122474118Y-71620135D01*
X122370661Y-71369748D01*
X122179259Y-71178013D01*
X121929054Y-71074118D01*
X121658135Y-71073882D01*
X121640633Y-71081114D01*
X121640633Y-69381108D01*
X121656946Y-69387882D01*
X121927865Y-69388118D01*
X122178252Y-69284661D01*
X122273478Y-69189600D01*
X126421538Y-69189600D01*
X126274141Y-69336741D01*
X126274141Y-69336741D01*
G37*
X126274141Y-69336741D02*
X126170246Y-69586946D01*
X126170010Y-69857865D01*
X126273467Y-70108252D01*
X126464869Y-70299987D01*
X126715074Y-70403882D01*
X126985993Y-70404118D01*
X127236380Y-70300661D01*
X127428115Y-70109259D01*
X127532010Y-69859054D01*
X127532246Y-69588135D01*
X127428789Y-69337748D01*
X127280898Y-69189600D01*
X128950087Y-69189600D01*
X128962339Y-69219252D01*
X129153741Y-69410987D01*
X129356828Y-69495317D01*
X129281748Y-69526339D01*
X129090013Y-69717741D01*
X128986118Y-69967946D01*
X128985882Y-70238865D01*
X129089339Y-70489252D01*
X129198364Y-70598467D01*
X129198433Y-70598814D01*
X129027748Y-70669339D01*
X128836013Y-70860741D01*
X128732118Y-71110946D01*
X128731882Y-71381865D01*
X128835339Y-71632252D01*
X129014568Y-71811793D01*
X128987005Y-71878172D01*
X128986769Y-72149091D01*
X129090226Y-72399478D01*
X129146253Y-72455603D01*
X129090013Y-72511745D01*
X128986118Y-72761950D01*
X128985882Y-73032869D01*
X129089339Y-73283256D01*
X129280741Y-73474991D01*
X129530946Y-73578886D01*
X129801865Y-73579122D01*
X130052252Y-73475665D01*
X130243987Y-73284263D01*
X130347882Y-73034058D01*
X130348118Y-72763139D01*
X130244661Y-72512752D01*
X130188634Y-72456627D01*
X130244874Y-72400485D01*
X130263469Y-72355705D01*
X131368844Y-73461080D01*
X131368844Y-76226110D01*
X130424743Y-75282008D01*
X130268176Y-75177394D01*
X130199398Y-75163713D01*
X130276987Y-75086259D01*
X130380882Y-74836054D01*
X130381118Y-74565135D01*
X130277661Y-74314748D01*
X130086259Y-74123013D01*
X129836054Y-74019118D01*
X129565135Y-74018882D01*
X129314748Y-74122339D01*
X129123013Y-74313741D01*
X129019118Y-74563946D01*
X129018882Y-74834865D01*
X129122339Y-75085252D01*
X129178199Y-75141209D01*
X129082242Y-75236999D01*
X128978347Y-75487204D01*
X128978111Y-75758123D01*
X129081568Y-76008510D01*
X129112372Y-76039367D01*
X129019118Y-76263946D01*
X129018882Y-76534865D01*
X129080794Y-76684704D01*
X128943603Y-76821656D01*
X128839708Y-77071861D01*
X128839472Y-77342780D01*
X128942929Y-77593167D01*
X129134331Y-77784902D01*
X129384536Y-77888797D01*
X129519089Y-77888914D01*
X130302011Y-78671835D01*
X130302011Y-79708502D01*
X127427002Y-76833492D01*
X127427118Y-76700125D01*
X127323661Y-76449738D01*
X127132259Y-76258003D01*
X126882054Y-76154108D01*
X126611135Y-76153872D01*
X126360748Y-76257329D01*
X126169013Y-76448731D01*
X126065118Y-76698936D01*
X126064882Y-76969855D01*
X126158091Y-77195439D01*
X126107300Y-77174349D01*
X125836381Y-77174113D01*
X125585994Y-77277570D01*
X125394259Y-77468972D01*
X125290364Y-77719177D01*
X125290128Y-77990096D01*
X125393585Y-78240483D01*
X125584987Y-78432218D01*
X125835192Y-78536113D01*
X125969745Y-78536230D01*
X127025389Y-79591874D01*
X127025389Y-84015947D01*
X126942669Y-83815748D01*
X126751267Y-83624013D01*
X126501062Y-83520118D01*
X126230143Y-83519882D01*
X125979756Y-83623339D01*
X125788021Y-83814741D01*
X125684126Y-84064946D01*
X125683890Y-84335865D01*
X125787347Y-84586252D01*
X125978749Y-84777987D01*
X126228954Y-84881882D01*
X126499873Y-84882118D01*
X126750260Y-84778661D01*
X126941995Y-84587259D01*
X127025389Y-84386426D01*
X127025389Y-85929742D01*
X127006849Y-85911170D01*
X126756644Y-85807275D01*
X126485725Y-85807039D01*
X126235338Y-85910496D01*
X126197729Y-85948040D01*
X125980477Y-85857828D01*
X125709558Y-85857592D01*
X125459171Y-85961049D01*
X125267436Y-86152451D01*
X125163541Y-86402656D01*
X125163305Y-86673575D01*
X125266762Y-86923962D01*
X125458164Y-87115697D01*
X125708369Y-87219592D01*
X125979288Y-87219828D01*
X126229675Y-87116371D01*
X126258027Y-87088068D01*
X126247697Y-87112946D01*
X126247461Y-87383865D01*
X126350918Y-87634252D01*
X126542320Y-87825987D01*
X126792525Y-87929882D01*
X127025389Y-87930085D01*
X127025389Y-88479901D01*
X127009054Y-88473118D01*
X126738135Y-88472882D01*
X126487748Y-88576339D01*
X126296013Y-88767741D01*
X126192118Y-89017946D01*
X126191882Y-89288865D01*
X126295339Y-89539252D01*
X126486741Y-89730987D01*
X126736946Y-89834882D01*
X127007865Y-89835118D01*
X127025389Y-89827877D01*
X127025389Y-93430597D01*
X126277750Y-94178236D01*
X126173136Y-94334803D01*
X126136400Y-94519486D01*
X126136400Y-99625926D01*
X126173136Y-99810609D01*
X126277750Y-99967176D01*
X127173972Y-100863398D01*
X122754898Y-100863398D01*
X121368302Y-99476802D01*
X121453746Y-99512282D01*
X121724665Y-99512518D01*
X121975052Y-99409061D01*
X122166787Y-99217659D01*
X122176251Y-99194865D01*
X123524882Y-99194865D01*
X123628339Y-99445252D01*
X123819741Y-99636987D01*
X124069946Y-99740882D01*
X124340865Y-99741118D01*
X124591252Y-99637661D01*
X124782987Y-99446259D01*
X124886882Y-99196054D01*
X124887118Y-98925135D01*
X124783661Y-98674748D01*
X124592259Y-98483013D01*
X124342054Y-98379118D01*
X124071135Y-98378882D01*
X123820748Y-98482339D01*
X123629013Y-98673741D01*
X123525118Y-98923946D01*
X123524882Y-99194865D01*
X122176251Y-99194865D01*
X122270682Y-98967454D01*
X122270918Y-98696535D01*
X122167461Y-98446148D01*
X121976059Y-98254413D01*
X121725854Y-98150518D01*
X121454935Y-98150282D01*
X121259622Y-98230983D01*
X121259622Y-96280551D01*
X123826528Y-96280551D01*
X123929985Y-96530938D01*
X124121387Y-96722673D01*
X124371592Y-96826568D01*
X124642511Y-96826804D01*
X124892898Y-96723347D01*
X125084633Y-96531945D01*
X125188528Y-96281740D01*
X125188764Y-96010821D01*
X125085307Y-95760434D01*
X124893905Y-95568699D01*
X124643700Y-95464804D01*
X124372781Y-95464568D01*
X124122394Y-95568025D01*
X123930659Y-95759427D01*
X123826764Y-96009632D01*
X123826528Y-96280551D01*
X121259622Y-96280551D01*
X121259622Y-94622865D01*
X122762882Y-94622865D01*
X122866339Y-94873252D01*
X123057741Y-95064987D01*
X123307946Y-95168882D01*
X123578865Y-95169118D01*
X123744380Y-95100729D01*
X123755339Y-95127252D01*
X123946741Y-95318987D01*
X124196946Y-95422882D01*
X124467865Y-95423118D01*
X124718252Y-95319661D01*
X124909987Y-95128259D01*
X125013882Y-94878054D01*
X125014118Y-94607135D01*
X124910661Y-94356748D01*
X124719259Y-94165013D01*
X124469054Y-94061118D01*
X124198135Y-94060882D01*
X124032620Y-94129271D01*
X124021661Y-94102748D01*
X123830259Y-93911013D01*
X123580054Y-93807118D01*
X123309135Y-93806882D01*
X123058748Y-93910339D01*
X122867013Y-94101741D01*
X122763118Y-94351946D01*
X122762882Y-94622865D01*
X121259622Y-94622865D01*
X121259622Y-87652122D01*
X123290659Y-89683159D01*
X123290659Y-92574018D01*
X123235961Y-92628621D01*
X123236118Y-92448135D01*
X123132661Y-92197748D01*
X123075773Y-92140761D01*
X123174670Y-91902594D01*
X123174906Y-91631675D01*
X123071449Y-91381288D01*
X123058808Y-91368625D01*
X123160004Y-91124920D01*
X123160240Y-90854001D01*
X123056783Y-90603614D01*
X123014209Y-90560965D01*
X123040679Y-90534541D01*
X123144574Y-90284336D01*
X123144810Y-90013417D01*
X123041353Y-89763030D01*
X122849951Y-89571295D01*
X122599746Y-89467400D01*
X122328827Y-89467164D01*
X122078440Y-89570621D01*
X121886705Y-89762023D01*
X121782810Y-90012228D01*
X121782574Y-90283147D01*
X121886031Y-90533534D01*
X121928605Y-90576183D01*
X121902135Y-90602607D01*
X121798240Y-90852812D01*
X121798004Y-91123731D01*
X121901461Y-91374118D01*
X121914102Y-91386781D01*
X121812906Y-91630486D01*
X121812670Y-91901405D01*
X121916127Y-92151792D01*
X121973015Y-92208779D01*
X121874118Y-92446946D01*
X121873882Y-92717865D01*
X121977339Y-92968252D01*
X122168741Y-93159987D01*
X122418946Y-93263882D01*
X122689865Y-93264118D01*
X122940252Y-93160661D01*
X123092298Y-93008879D01*
X123092141Y-93189365D01*
X123195598Y-93439752D01*
X123387000Y-93631487D01*
X123637205Y-93735382D01*
X123908124Y-93735618D01*
X124158511Y-93632161D01*
X124350246Y-93440759D01*
X124454141Y-93190554D01*
X124454377Y-92919635D01*
X124350920Y-92669248D01*
X124255859Y-92574022D01*
X124255859Y-89483259D01*
X124219123Y-89298576D01*
X124114509Y-89142009D01*
X121640633Y-86668133D01*
X121640633Y-86367865D01*
X123524882Y-86367865D01*
X123628339Y-86618252D01*
X123819741Y-86809987D01*
X124069946Y-86913882D01*
X124340865Y-86914118D01*
X124591252Y-86810661D01*
X124782987Y-86619259D01*
X124886882Y-86369054D01*
X124887118Y-86098135D01*
X124783661Y-85847748D01*
X124592259Y-85656013D01*
X124342054Y-85552118D01*
X124071135Y-85551882D01*
X123820748Y-85655339D01*
X123629013Y-85846741D01*
X123525118Y-86096946D01*
X123524882Y-86367865D01*
X121640633Y-86367865D01*
X121640633Y-84970865D01*
X122889882Y-84970865D01*
X122993339Y-85221252D01*
X123184741Y-85412987D01*
X123434946Y-85516882D01*
X123705865Y-85517118D01*
X123956252Y-85413661D01*
X124147987Y-85222259D01*
X124251882Y-84972054D01*
X124252118Y-84701135D01*
X124148661Y-84450748D01*
X123957259Y-84259013D01*
X123707054Y-84155118D01*
X123436135Y-84154882D01*
X123185748Y-84258339D01*
X122994013Y-84449741D01*
X122890118Y-84699946D01*
X122889882Y-84970865D01*
X121640633Y-84970865D01*
X121640633Y-82608603D01*
X121790593Y-82670872D01*
X122061512Y-82671108D01*
X122311899Y-82567651D01*
X122503634Y-82376249D01*
X122607529Y-82126044D01*
X122607765Y-81855125D01*
X122504308Y-81604738D01*
X122312906Y-81413003D01*
X122062701Y-81309108D01*
X121791782Y-81308872D01*
X121640633Y-81371325D01*
X121640633Y-78493865D01*
X123143882Y-78493865D01*
X123247339Y-78744252D01*
X123438741Y-78935987D01*
X123688946Y-79039882D01*
X123959865Y-79040118D01*
X124210252Y-78936661D01*
X124401987Y-78745259D01*
X124505882Y-78495054D01*
X124506118Y-78224135D01*
X124402661Y-77973748D01*
X124211259Y-77782013D01*
X123961054Y-77678118D01*
X123690135Y-77677882D01*
X123439748Y-77781339D01*
X123248013Y-77972741D01*
X123144118Y-78222946D01*
X123143882Y-78493865D01*
X121640633Y-78493865D01*
X121640633Y-76461865D01*
X121746886Y-76461865D01*
X121850343Y-76712252D01*
X122041745Y-76903987D01*
X122291950Y-77007882D01*
X122562869Y-77008118D01*
X122813256Y-76904661D01*
X123004991Y-76713259D01*
X123108886Y-76463054D01*
X123109122Y-76192135D01*
X123005665Y-75941748D01*
X122814263Y-75750013D01*
X122564058Y-75646118D01*
X122293139Y-75645882D01*
X122042752Y-75749339D01*
X121851017Y-75940741D01*
X121747122Y-76190946D01*
X121746886Y-76461865D01*
X121640633Y-76461865D01*
X121640633Y-73284755D01*
X126172937Y-73284755D01*
X126276394Y-73535142D01*
X126467796Y-73726877D01*
X126718001Y-73830772D01*
X126988920Y-73831008D01*
X127239307Y-73727551D01*
X127431042Y-73536149D01*
X127534937Y-73285944D01*
X127535173Y-73015025D01*
X127431716Y-72764638D01*
X127240314Y-72572903D01*
X126990109Y-72469008D01*
X126719190Y-72468772D01*
X126468803Y-72572229D01*
X126277068Y-72763631D01*
X126173173Y-73013836D01*
X126172937Y-73284755D01*
X121640633Y-73284755D01*
X121640633Y-73191108D01*
X121656946Y-73197882D01*
X121927865Y-73198118D01*
X122178252Y-73094661D01*
X122369987Y-72903259D01*
X122473882Y-72653054D01*
X122474118Y-72382135D01*
X122372295Y-72135702D01*
X122473882Y-71891054D01*
X122474118Y-71620135D01*
X122370661Y-71369748D01*
X122179259Y-71178013D01*
X121929054Y-71074118D01*
X121658135Y-71073882D01*
X121640633Y-71081114D01*
X121640633Y-69381108D01*
X121656946Y-69387882D01*
X121927865Y-69388118D01*
X122178252Y-69284661D01*
X122273478Y-69189600D01*
X126421538Y-69189600D01*
X126274141Y-69336741D01*
M02*
