%TF.GenerationSoftware,KiCad,Pcbnew,(5.1.4-0)*%
%TF.CreationDate,2019-11-17T17:00:13+08:00*%
%TF.ProjectId,VESC_6,56455343-5f36-42e6-9b69-6361645f7063,A*%
%TF.SameCoordinates,Original*%
%TF.FileFunction,Paste,Top*%
%TF.FilePolarity,Positive*%
%FSLAX46Y46*%
G04 Gerber Fmt 4.6, Leading zero omitted, Abs format (unit mm)*
G04 Created by KiCad (PCBNEW (5.1.4-0)) date 2019-11-17 17:00:13*
%MOMM*%
%LPD*%
G04 APERTURE LIST*
%ADD10O,0.550000X0.200000*%
%ADD11O,0.200000X0.550000*%
%ADD12R,2.500000X2.300000*%
%ADD13C,1.800000*%
%ADD14C,0.100000*%
%ADD15C,0.750000*%
%ADD16C,0.300000*%
%ADD17R,0.720000X0.465000*%
%ADD18R,0.350000X0.650000*%
%ADD19R,1.950000X1.500000*%
%ADD20R,1.000000X2.500000*%
%ADD21R,2.500000X1.000000*%
%ADD22C,0.400000*%
%ADD23C,0.500000*%
%ADD24R,0.900000X0.500000*%
%ADD25R,0.500000X0.900000*%
%ADD26R,0.750000X0.800000*%
%ADD27R,0.800000X0.750000*%
%ADD28R,1.180000X4.700000*%
%ADD29R,1.501140X0.299720*%
%ADD30R,3.599180X7.000240*%
%ADD31R,0.700000X1.300000*%
%ADD32R,1.100000X0.850000*%
%ADD33R,1.100000X1.700000*%
%ADD34R,1.300000X0.700000*%
%ADD35R,0.850000X1.100000*%
%ADD36R,1.700000X1.100000*%
%ADD37R,0.304800X1.193800*%
%ADD38R,1.193800X0.304800*%
%ADD39R,6.000000X5.000000*%
G04 APERTURE END LIST*
D10*
X120211000Y-82280000D03*
X120211000Y-81880000D03*
X120211000Y-81480000D03*
X120211000Y-81080000D03*
X120211000Y-80680000D03*
X120211000Y-80280000D03*
D11*
X120711000Y-79780000D03*
X121111000Y-79780000D03*
X121511000Y-79780000D03*
X121911000Y-79780000D03*
X122311000Y-79780000D03*
X122711000Y-79780000D03*
D10*
X123211000Y-80280000D03*
X123211000Y-80680000D03*
X123211000Y-81080000D03*
X123211000Y-81480000D03*
X123211000Y-81880000D03*
X123211000Y-82280000D03*
D11*
X122711000Y-82780000D03*
X122311000Y-82780000D03*
X121911000Y-82780000D03*
X121511000Y-82780000D03*
X121111000Y-82780000D03*
X120711000Y-82780000D03*
D12*
X122629000Y-62103000D03*
X126929000Y-62103000D03*
D13*
X119778214Y-57513786D03*
D14*
G36*
X119530727Y-59034066D02*
G01*
X118257934Y-57761273D01*
X120025701Y-55993506D01*
X121298494Y-57266299D01*
X119530727Y-59034066D01*
X119530727Y-59034066D01*
G37*
D13*
X116949786Y-60342214D03*
D14*
G36*
X116702299Y-61862494D02*
G01*
X115429506Y-60589701D01*
X117197273Y-58821934D01*
X118470066Y-60094727D01*
X116702299Y-61862494D01*
X116702299Y-61862494D01*
G37*
D15*
X131572000Y-104907117D03*
D14*
G36*
X131041670Y-104907117D02*
G01*
X131572000Y-104376787D01*
X132102330Y-104907117D01*
X131572000Y-105437447D01*
X131041670Y-104907117D01*
X131041670Y-104907117D01*
G37*
D15*
X130688117Y-105791000D03*
D14*
G36*
X130157787Y-105791000D02*
G01*
X130688117Y-105260670D01*
X131218447Y-105791000D01*
X130688117Y-106321330D01*
X130157787Y-105791000D01*
X130157787Y-105791000D01*
G37*
D15*
X132455883Y-105791000D03*
D14*
G36*
X131925553Y-105791000D02*
G01*
X132455883Y-105260670D01*
X132986213Y-105791000D01*
X132455883Y-106321330D01*
X131925553Y-105791000D01*
X131925553Y-105791000D01*
G37*
D15*
X131572000Y-106674883D03*
D14*
G36*
X131041670Y-106674883D02*
G01*
X131572000Y-106144553D01*
X132102330Y-106674883D01*
X131572000Y-107205213D01*
X131041670Y-106674883D01*
X131041670Y-106674883D01*
G37*
D16*
X132254358Y-103694428D03*
D14*
G36*
X132102330Y-104058588D02*
G01*
X131890198Y-103846456D01*
X132406386Y-103330268D01*
X132618518Y-103542400D01*
X132102330Y-104058588D01*
X132102330Y-104058588D01*
G37*
D16*
X132607911Y-104047982D03*
D14*
G36*
X132455883Y-104412142D02*
G01*
X132243751Y-104200010D01*
X132759939Y-103683822D01*
X132972071Y-103895954D01*
X132455883Y-104412142D01*
X132455883Y-104412142D01*
G37*
D16*
X132961465Y-104401535D03*
D14*
G36*
X132809437Y-104765695D02*
G01*
X132597305Y-104553563D01*
X133113493Y-104037375D01*
X133325625Y-104249507D01*
X132809437Y-104765695D01*
X132809437Y-104765695D01*
G37*
D16*
X133315018Y-104755089D03*
D14*
G36*
X133162990Y-105119249D02*
G01*
X132950858Y-104907117D01*
X133467046Y-104390929D01*
X133679178Y-104603061D01*
X133162990Y-105119249D01*
X133162990Y-105119249D01*
G37*
D16*
X133668572Y-105108642D03*
D14*
G36*
X133516544Y-105472802D02*
G01*
X133304412Y-105260670D01*
X133820600Y-104744482D01*
X134032732Y-104956614D01*
X133516544Y-105472802D01*
X133516544Y-105472802D01*
G37*
D16*
X133668572Y-106473358D03*
D14*
G36*
X133304412Y-106321330D02*
G01*
X133516544Y-106109198D01*
X134032732Y-106625386D01*
X133820600Y-106837518D01*
X133304412Y-106321330D01*
X133304412Y-106321330D01*
G37*
D16*
X133315018Y-106826911D03*
D14*
G36*
X132950858Y-106674883D02*
G01*
X133162990Y-106462751D01*
X133679178Y-106978939D01*
X133467046Y-107191071D01*
X132950858Y-106674883D01*
X132950858Y-106674883D01*
G37*
D16*
X132961465Y-107180465D03*
D14*
G36*
X132597305Y-107028437D02*
G01*
X132809437Y-106816305D01*
X133325625Y-107332493D01*
X133113493Y-107544625D01*
X132597305Y-107028437D01*
X132597305Y-107028437D01*
G37*
D16*
X132607911Y-107534018D03*
D14*
G36*
X132243751Y-107381990D02*
G01*
X132455883Y-107169858D01*
X132972071Y-107686046D01*
X132759939Y-107898178D01*
X132243751Y-107381990D01*
X132243751Y-107381990D01*
G37*
D16*
X132254358Y-107887572D03*
D14*
G36*
X131890198Y-107735544D02*
G01*
X132102330Y-107523412D01*
X132618518Y-108039600D01*
X132406386Y-108251732D01*
X131890198Y-107735544D01*
X131890198Y-107735544D01*
G37*
D16*
X130889642Y-107887572D03*
D14*
G36*
X130737614Y-108251732D02*
G01*
X130525482Y-108039600D01*
X131041670Y-107523412D01*
X131253802Y-107735544D01*
X130737614Y-108251732D01*
X130737614Y-108251732D01*
G37*
D16*
X130536089Y-107534018D03*
D14*
G36*
X130384061Y-107898178D02*
G01*
X130171929Y-107686046D01*
X130688117Y-107169858D01*
X130900249Y-107381990D01*
X130384061Y-107898178D01*
X130384061Y-107898178D01*
G37*
D16*
X130182535Y-107180465D03*
D14*
G36*
X130030507Y-107544625D02*
G01*
X129818375Y-107332493D01*
X130334563Y-106816305D01*
X130546695Y-107028437D01*
X130030507Y-107544625D01*
X130030507Y-107544625D01*
G37*
D16*
X129828982Y-106826911D03*
D14*
G36*
X129676954Y-107191071D02*
G01*
X129464822Y-106978939D01*
X129981010Y-106462751D01*
X130193142Y-106674883D01*
X129676954Y-107191071D01*
X129676954Y-107191071D01*
G37*
D16*
X129475428Y-106473358D03*
D14*
G36*
X129323400Y-106837518D02*
G01*
X129111268Y-106625386D01*
X129627456Y-106109198D01*
X129839588Y-106321330D01*
X129323400Y-106837518D01*
X129323400Y-106837518D01*
G37*
D16*
X129475428Y-105108642D03*
D14*
G36*
X129111268Y-104956614D02*
G01*
X129323400Y-104744482D01*
X129839588Y-105260670D01*
X129627456Y-105472802D01*
X129111268Y-104956614D01*
X129111268Y-104956614D01*
G37*
D16*
X129828982Y-104755089D03*
D14*
G36*
X129464822Y-104603061D02*
G01*
X129676954Y-104390929D01*
X130193142Y-104907117D01*
X129981010Y-105119249D01*
X129464822Y-104603061D01*
X129464822Y-104603061D01*
G37*
D16*
X130182535Y-104401535D03*
D14*
G36*
X129818375Y-104249507D02*
G01*
X130030507Y-104037375D01*
X130546695Y-104553563D01*
X130334563Y-104765695D01*
X129818375Y-104249507D01*
X129818375Y-104249507D01*
G37*
D16*
X130536089Y-104047982D03*
D14*
G36*
X130171929Y-103895954D02*
G01*
X130384061Y-103683822D01*
X130900249Y-104200010D01*
X130688117Y-104412142D01*
X130171929Y-103895954D01*
X130171929Y-103895954D01*
G37*
D16*
X130889642Y-103694428D03*
D14*
G36*
X130525482Y-103542400D02*
G01*
X130737614Y-103330268D01*
X131253802Y-103846456D01*
X131041670Y-104058588D01*
X130525482Y-103542400D01*
X130525482Y-103542400D01*
G37*
D17*
X123825000Y-101333000D03*
X122625000Y-101333000D03*
X123825000Y-102108000D03*
X122625000Y-102108000D03*
D18*
X124200000Y-103270500D03*
X123550000Y-103270500D03*
X122900000Y-103270500D03*
X122250000Y-103270500D03*
X122250000Y-100170500D03*
X122900000Y-100170500D03*
X123550000Y-100170500D03*
X124200000Y-100170500D03*
D19*
X139932000Y-60198000D03*
X137182000Y-60198000D03*
D20*
X130834000Y-83566000D03*
X133834000Y-83566000D03*
D21*
X139192000Y-65175000D03*
X139192000Y-68175000D03*
D22*
X134555802Y-108393802D03*
D14*
G36*
X134909355Y-108323091D02*
G01*
X134485091Y-108747355D01*
X134202249Y-108464513D01*
X134626513Y-108040249D01*
X134909355Y-108323091D01*
X134909355Y-108323091D01*
G37*
D22*
X135192198Y-109030198D03*
D14*
G36*
X135545751Y-108959487D02*
G01*
X135121487Y-109383751D01*
X134838645Y-109100909D01*
X135262909Y-108676645D01*
X135545751Y-108959487D01*
X135545751Y-108959487D01*
G37*
D22*
X133795198Y-109155802D03*
D14*
G36*
X133865909Y-109509355D02*
G01*
X133441645Y-109085091D01*
X133724487Y-108802249D01*
X134148751Y-109226513D01*
X133865909Y-109509355D01*
X133865909Y-109509355D01*
G37*
D22*
X133158802Y-109792198D03*
D14*
G36*
X133229513Y-110145751D02*
G01*
X132805249Y-109721487D01*
X133088091Y-109438645D01*
X133512355Y-109862909D01*
X133229513Y-110145751D01*
X133229513Y-110145751D01*
G37*
D22*
X133158802Y-108395198D03*
D14*
G36*
X133088091Y-108041645D02*
G01*
X133512355Y-108465909D01*
X133229513Y-108748751D01*
X132805249Y-108324487D01*
X133088091Y-108041645D01*
X133088091Y-108041645D01*
G37*
D22*
X133795198Y-107758802D03*
D14*
G36*
X133724487Y-107405249D02*
G01*
X134148751Y-107829513D01*
X133865909Y-108112355D01*
X133441645Y-107688091D01*
X133724487Y-107405249D01*
X133724487Y-107405249D01*
G37*
D23*
X133865909Y-112148909D03*
D14*
G36*
X133477000Y-112113554D02*
G01*
X133830554Y-111760000D01*
X134254818Y-112184264D01*
X133901264Y-112537818D01*
X133477000Y-112113554D01*
X133477000Y-112113554D01*
G37*
D23*
X133088091Y-111371091D03*
D14*
G36*
X132699182Y-111335736D02*
G01*
X133052736Y-110982182D01*
X133477000Y-111406446D01*
X133123446Y-111760000D01*
X132699182Y-111335736D01*
X132699182Y-111335736D01*
G37*
D23*
X134627909Y-111386909D03*
D14*
G36*
X134239000Y-111351554D02*
G01*
X134592554Y-110998000D01*
X135016818Y-111422264D01*
X134663264Y-111775818D01*
X134239000Y-111351554D01*
X134239000Y-111351554D01*
G37*
D23*
X133850091Y-110609091D03*
D14*
G36*
X133461182Y-110573736D02*
G01*
X133814736Y-110220182D01*
X134239000Y-110644446D01*
X133885446Y-110998000D01*
X133461182Y-110573736D01*
X133461182Y-110573736D01*
G37*
D23*
X135882091Y-109720091D03*
D14*
G36*
X136271000Y-109755446D02*
G01*
X135917446Y-110109000D01*
X135493182Y-109684736D01*
X135846736Y-109331182D01*
X136271000Y-109755446D01*
X136271000Y-109755446D01*
G37*
D23*
X136659909Y-110497909D03*
D14*
G36*
X137048818Y-110533264D02*
G01*
X136695264Y-110886818D01*
X136271000Y-110462554D01*
X136624554Y-110109000D01*
X137048818Y-110533264D01*
X137048818Y-110533264D01*
G37*
D23*
X138056909Y-110355091D03*
D14*
G36*
X138021554Y-110744000D02*
G01*
X137668000Y-110390446D01*
X138092264Y-109966182D01*
X138445818Y-110319736D01*
X138021554Y-110744000D01*
X138021554Y-110744000D01*
G37*
D23*
X137279091Y-111132909D03*
D14*
G36*
X137243736Y-111521818D02*
G01*
X136890182Y-111168264D01*
X137314446Y-110744000D01*
X137668000Y-111097554D01*
X137243736Y-111521818D01*
X137243736Y-111521818D01*
G37*
D23*
X135613670Y-105305330D03*
D14*
G36*
X135472249Y-104810355D02*
G01*
X136108645Y-105446751D01*
X135755091Y-105800305D01*
X135118695Y-105163909D01*
X135472249Y-104810355D01*
X135472249Y-104810355D01*
G37*
D23*
X136674330Y-104244670D03*
D14*
G36*
X136532909Y-103749695D02*
G01*
X137169305Y-104386091D01*
X136815751Y-104739645D01*
X136179355Y-104103249D01*
X136532909Y-103749695D01*
X136532909Y-103749695D01*
G37*
D24*
X123113800Y-69227000D03*
X123113800Y-70727000D03*
X123113800Y-66636200D03*
X123113800Y-68136200D03*
D25*
X126251400Y-68249800D03*
X124751400Y-68249800D03*
X126251400Y-71196200D03*
X124751400Y-71196200D03*
X126226000Y-65354200D03*
X124726000Y-65354200D03*
X121019000Y-106315000D03*
X119519000Y-106315000D03*
X132219000Y-56134000D03*
X133719000Y-56134000D03*
X123075000Y-56134000D03*
X124575000Y-56134000D03*
X123075000Y-57658000D03*
X124575000Y-57658000D03*
X123075000Y-59182000D03*
X124575000Y-59182000D03*
D24*
X140335000Y-77839000D03*
X140335000Y-76339000D03*
X140335000Y-80633000D03*
X140335000Y-79133000D03*
D15*
X127231670Y-108148177D03*
D14*
G36*
X127249348Y-107600169D02*
G01*
X127779678Y-108130499D01*
X127213992Y-108696185D01*
X126683662Y-108165855D01*
X127249348Y-107600169D01*
X127249348Y-107600169D01*
G37*
D15*
X128292330Y-107087517D03*
D14*
G36*
X128310008Y-106539509D02*
G01*
X128840338Y-107069839D01*
X128274652Y-107635525D01*
X127744322Y-107105195D01*
X128310008Y-106539509D01*
X128310008Y-106539509D01*
G37*
D26*
X120523000Y-87515000D03*
X120523000Y-89015000D03*
D15*
X137690330Y-105260670D03*
D14*
G36*
X137672652Y-105808678D02*
G01*
X137142322Y-105278348D01*
X137708008Y-104712662D01*
X138238338Y-105242992D01*
X137672652Y-105808678D01*
X137672652Y-105808678D01*
G37*
D15*
X136629670Y-106321330D03*
D14*
G36*
X136611992Y-106869338D02*
G01*
X136081662Y-106339008D01*
X136647348Y-105773322D01*
X137177678Y-106303652D01*
X136611992Y-106869338D01*
X136611992Y-106869338D01*
G37*
D15*
X133454670Y-103146330D03*
D14*
G36*
X133472348Y-102598322D02*
G01*
X134002678Y-103128652D01*
X133436992Y-103694338D01*
X132906662Y-103164008D01*
X133472348Y-102598322D01*
X133472348Y-102598322D01*
G37*
D15*
X134515330Y-102085670D03*
D14*
G36*
X134533008Y-101537662D02*
G01*
X135063338Y-102067992D01*
X134497652Y-102633678D01*
X133967322Y-102103348D01*
X134533008Y-101537662D01*
X134533008Y-101537662D01*
G37*
D27*
X135243000Y-100076000D03*
X133743000Y-100076000D03*
D26*
X124269500Y-88531000D03*
X124269500Y-90031000D03*
X128143000Y-83959000D03*
X128143000Y-85459000D03*
D27*
X125146500Y-98000000D03*
X123646500Y-98000000D03*
D26*
X139192000Y-89408000D03*
X139192000Y-87908000D03*
D27*
X123125800Y-72593200D03*
X124625800Y-72593200D03*
X123125800Y-74041000D03*
X124625800Y-74041000D03*
X124751400Y-69723000D03*
X126251400Y-69723000D03*
D26*
X125349000Y-76847000D03*
X125349000Y-78347000D03*
D27*
X126226000Y-66802000D03*
X124726000Y-66802000D03*
D26*
X126365000Y-75680000D03*
X126365000Y-74180000D03*
X126746000Y-82030000D03*
X126746000Y-80530000D03*
D27*
X138823000Y-63754000D03*
X140323000Y-63754000D03*
D26*
X138303000Y-72505000D03*
X138303000Y-71005000D03*
X138303000Y-75299000D03*
X138303000Y-73799000D03*
X138303000Y-78093000D03*
X138303000Y-76593000D03*
D27*
X138823000Y-69850000D03*
X140323000Y-69850000D03*
X138799000Y-62230000D03*
X137299000Y-62230000D03*
D26*
X120650000Y-99429000D03*
X120650000Y-97929000D03*
X120650000Y-100977000D03*
X120650000Y-102477000D03*
D27*
X123011500Y-87122000D03*
X124511500Y-87122000D03*
D15*
X135531330Y-103228670D03*
D14*
G36*
X135513652Y-103776678D02*
G01*
X134983322Y-103246348D01*
X135549008Y-102680662D01*
X136079338Y-103210992D01*
X135513652Y-103776678D01*
X135513652Y-103776678D01*
G37*
D15*
X134470670Y-104289330D03*
D14*
G36*
X134452992Y-104837338D02*
G01*
X133922662Y-104307008D01*
X134488348Y-103741322D01*
X135018678Y-104271652D01*
X134452992Y-104837338D01*
X134452992Y-104837338D01*
G37*
D27*
X136436800Y-56083200D03*
X134936800Y-56083200D03*
D26*
X124587000Y-82030000D03*
X124587000Y-80530000D03*
D27*
X120928000Y-78359000D03*
X122428000Y-78359000D03*
X119900000Y-84201000D03*
X121400000Y-84201000D03*
D28*
X130345000Y-62600000D03*
X133655000Y-62600000D03*
D29*
X136461500Y-76471780D03*
X136461500Y-75971400D03*
X136461500Y-75471020D03*
X136461500Y-74970640D03*
X136461500Y-74470260D03*
X136461500Y-73972420D03*
X136461500Y-73472040D03*
X136461500Y-72971660D03*
X136461500Y-72471280D03*
X136461500Y-71970900D03*
X136461500Y-71470520D03*
X136461500Y-80970120D03*
X136461500Y-80472280D03*
X136461500Y-79971900D03*
X128460500Y-75471020D03*
X136461500Y-78971140D03*
X136461500Y-78470760D03*
X136461500Y-77970380D03*
X136461500Y-77472540D03*
X136461500Y-76972160D03*
X128460500Y-72971660D03*
X128460500Y-73472040D03*
X128460500Y-73972420D03*
X128460500Y-74470260D03*
X128460500Y-74970640D03*
X136461500Y-79471520D03*
X128460500Y-75971400D03*
X128460500Y-76471780D03*
X128460500Y-76972160D03*
X128460500Y-77472540D03*
X128460500Y-77970380D03*
X128460500Y-78470760D03*
X128460500Y-78971140D03*
X128460500Y-67472560D03*
X128460500Y-67970400D03*
X128460500Y-68470780D03*
X128460500Y-68971160D03*
X128460500Y-69471540D03*
X128460500Y-69971920D03*
X128460500Y-70472300D03*
X128460500Y-70970140D03*
X128460500Y-71470520D03*
X128460500Y-71970900D03*
X128460500Y-72471280D03*
X128460500Y-79471520D03*
X128460500Y-79971900D03*
X128460500Y-80472280D03*
X128460500Y-80970120D03*
X136461500Y-70970140D03*
X136461500Y-70472300D03*
X136461500Y-69971920D03*
X136461500Y-69471540D03*
X136461500Y-68971160D03*
X136461500Y-68470780D03*
X136461500Y-67970400D03*
X136461500Y-67472560D03*
D30*
X132461000Y-74168000D03*
D31*
X166334000Y-76327000D03*
D32*
X167734000Y-75752000D03*
X167734000Y-76902000D03*
X170534000Y-76902000D03*
X170534000Y-75752000D03*
X167734000Y-74602000D03*
X170534000Y-74602000D03*
X167734000Y-78052000D03*
X170534000Y-78052000D03*
D33*
X164084000Y-76327000D03*
X164084000Y-74127000D03*
X164084000Y-78527000D03*
X173384000Y-76327000D03*
X173384000Y-78527000D03*
X173384000Y-74127000D03*
D34*
X170393000Y-67694000D03*
D35*
X169818000Y-66294000D03*
X170968000Y-66294000D03*
X170968000Y-63494000D03*
X169818000Y-63494000D03*
X168668000Y-66294000D03*
X168668000Y-63494000D03*
X172118000Y-66294000D03*
X172118000Y-63494000D03*
D36*
X170393000Y-69944000D03*
X168193000Y-69944000D03*
X172593000Y-69944000D03*
X170393000Y-60644000D03*
X172593000Y-60644000D03*
X168193000Y-60644000D03*
D31*
X144334000Y-76327000D03*
D32*
X145734000Y-75752000D03*
X145734000Y-76902000D03*
X148534000Y-76902000D03*
X148534000Y-75752000D03*
X145734000Y-74602000D03*
X148534000Y-74602000D03*
X145734000Y-78052000D03*
X148534000Y-78052000D03*
D33*
X142084000Y-76327000D03*
X142084000Y-74127000D03*
X142084000Y-78527000D03*
X151384000Y-76327000D03*
X151384000Y-78527000D03*
X151384000Y-74127000D03*
D34*
X145087000Y-67678000D03*
D35*
X144512000Y-66278000D03*
X145662000Y-66278000D03*
X145662000Y-63478000D03*
X144512000Y-63478000D03*
X143362000Y-66278000D03*
X143362000Y-63478000D03*
X146812000Y-66278000D03*
X146812000Y-63478000D03*
D36*
X145087000Y-69928000D03*
X142887000Y-69928000D03*
X147287000Y-69928000D03*
X145087000Y-60628000D03*
X147287000Y-60628000D03*
X142887000Y-60628000D03*
D31*
X155321000Y-76327000D03*
D32*
X156721000Y-75752000D03*
X156721000Y-76902000D03*
X159521000Y-76902000D03*
X159521000Y-75752000D03*
X156721000Y-74602000D03*
X159521000Y-74602000D03*
X156721000Y-78052000D03*
X159521000Y-78052000D03*
D33*
X153071000Y-76327000D03*
X153071000Y-74127000D03*
X153071000Y-78527000D03*
X162371000Y-76327000D03*
X162371000Y-78527000D03*
X162371000Y-74127000D03*
D34*
X157734000Y-67678000D03*
D35*
X157159000Y-66278000D03*
X158309000Y-66278000D03*
X158309000Y-63478000D03*
X157159000Y-63478000D03*
X156009000Y-66278000D03*
X156009000Y-63478000D03*
X159459000Y-66278000D03*
X159459000Y-63478000D03*
D36*
X157734000Y-69928000D03*
X155534000Y-69928000D03*
X159934000Y-69928000D03*
X157734000Y-60628000D03*
X159934000Y-60628000D03*
X155534000Y-60628000D03*
D37*
X135576000Y-86960001D03*
X135076001Y-86960001D03*
X134576000Y-86960001D03*
X134076001Y-86960001D03*
X133575999Y-86960001D03*
X133076000Y-86960001D03*
X132576001Y-86960001D03*
X132076000Y-86960001D03*
X131576000Y-86960001D03*
X131075999Y-86960001D03*
X130576000Y-86960001D03*
X130076001Y-86960001D03*
X129575999Y-86960001D03*
X129076000Y-86960001D03*
X128575999Y-86960001D03*
X128076000Y-86960001D03*
D38*
X126076001Y-88960000D03*
X126076001Y-89459999D03*
X126076001Y-89960000D03*
X126076001Y-90459999D03*
X126076001Y-90960001D03*
X126076001Y-91460000D03*
X126076001Y-91959999D03*
X126076001Y-92460000D03*
X126076001Y-92960000D03*
X126076001Y-93460001D03*
X126076001Y-93960000D03*
X126076001Y-94459999D03*
X126076001Y-94960001D03*
X126076001Y-95460000D03*
X126076001Y-95960001D03*
X126076001Y-96460000D03*
D37*
X128076000Y-98459999D03*
X128575999Y-98459999D03*
X129076000Y-98459999D03*
X129575999Y-98459999D03*
X130076001Y-98459999D03*
X130576000Y-98459999D03*
X131075999Y-98459999D03*
X131576000Y-98459999D03*
X132076000Y-98459999D03*
X132576001Y-98459999D03*
X133076000Y-98459999D03*
X133575999Y-98459999D03*
X134076001Y-98459999D03*
X134576000Y-98459999D03*
X135076001Y-98459999D03*
X135576000Y-98459999D03*
D38*
X137575999Y-96460000D03*
X137575999Y-95960001D03*
X137575999Y-95460000D03*
X137575999Y-94960001D03*
X137575999Y-94459999D03*
X137575999Y-93960000D03*
X137575999Y-93460001D03*
X137575999Y-92960000D03*
X137575999Y-92460000D03*
X137575999Y-91959999D03*
X137575999Y-91460000D03*
X137575999Y-90960001D03*
X137575999Y-90459999D03*
X137575999Y-89960000D03*
X137575999Y-89459999D03*
X137575999Y-88960000D03*
D39*
X157734000Y-87000000D03*
M02*
