%TF.GenerationSoftware,KiCad,Pcbnew,4.0.7*%
%TF.CreationDate,2018-04-15T13:01:26+08:00*%
%TF.ProjectId,VESC_6,564553435F362E6B696361645F706362,rev?*%
%TF.FileFunction,Paste,Top*%
%FSLAX46Y46*%
G04 Gerber Fmt 4.6, Leading zero omitted, Abs format (unit mm)*
G04 Created by KiCad (PCBNEW 4.0.7) date 2018 April 15, Sunday 13:01:26*
%MOMM*%
%LPD*%
G01*
G04 APERTURE LIST*
%ADD10C,0.100000*%
%ADD11R,1.000000X2.500000*%
%ADD12R,1.501140X0.299720*%
%ADD13R,3.599180X7.000240*%
%ADD14R,0.700000X1.300000*%
%ADD15R,1.100000X0.850000*%
%ADD16R,1.100000X1.700000*%
%ADD17R,1.300000X0.700000*%
%ADD18R,0.850000X1.100000*%
%ADD19R,1.700000X1.100000*%
%ADD20R,0.350000X0.650000*%
%ADD21R,0.720000X0.465000*%
%ADD22O,0.300000X0.850000*%
%ADD23O,0.850000X0.300000*%
%ADD24R,5.000000X4.000000*%
%ADD25R,0.800000X0.750000*%
%ADD26R,0.750000X0.800000*%
%ADD27R,0.900000X0.500000*%
%ADD28R,0.500000X0.900000*%
%ADD29R,2.500000X1.000000*%
%ADD30R,1.180000X4.700000*%
%ADD31R,1.950000X1.500000*%
%ADD32R,7.000000X6.000000*%
%ADD33R,1.250000X1.220000*%
%ADD34R,0.304800X1.193800*%
%ADD35R,1.193800X0.304800*%
%ADD36C,0.254000*%
G04 APERTURE END LIST*
D10*
D11*
X133453000Y-83947000D03*
X130453000Y-83947000D03*
D10*
G36*
X128183008Y-107887662D02*
X128713338Y-108417992D01*
X128147652Y-108983678D01*
X127617322Y-108453348D01*
X128183008Y-107887662D01*
X128183008Y-107887662D01*
G37*
G36*
X127122348Y-108948322D02*
X127652678Y-109478652D01*
X127086992Y-110044338D01*
X126556662Y-109514008D01*
X127122348Y-108948322D01*
X127122348Y-108948322D01*
G37*
G36*
X136738992Y-107504338D02*
X136208662Y-106974008D01*
X136774348Y-106408322D01*
X137304678Y-106938652D01*
X136738992Y-107504338D01*
X136738992Y-107504338D01*
G37*
G36*
X137799652Y-106443678D02*
X137269322Y-105913348D01*
X137835008Y-105347662D01*
X138365338Y-105877992D01*
X137799652Y-106443678D01*
X137799652Y-106443678D01*
G37*
G36*
X136659909Y-104384695D02*
X137296305Y-105021091D01*
X136942751Y-105374645D01*
X136306355Y-104738249D01*
X136659909Y-104384695D01*
X136659909Y-104384695D01*
G37*
G36*
X135599249Y-105445355D02*
X136235645Y-106081751D01*
X135882091Y-106435305D01*
X135245695Y-105798909D01*
X135599249Y-105445355D01*
X135599249Y-105445355D01*
G37*
D12*
X136080500Y-76852780D03*
X136080500Y-76352400D03*
X136080500Y-75852020D03*
X136080500Y-75351640D03*
X136080500Y-74851260D03*
X136080500Y-74353420D03*
X136080500Y-73853040D03*
X136080500Y-73352660D03*
X136080500Y-72852280D03*
X136080500Y-72351900D03*
X136080500Y-71851520D03*
X136080500Y-81351120D03*
X136080500Y-80853280D03*
X136080500Y-80352900D03*
X128079500Y-75852020D03*
X136080500Y-79352140D03*
X136080500Y-78851760D03*
X136080500Y-78351380D03*
X136080500Y-77853540D03*
X136080500Y-77353160D03*
X128079500Y-73352660D03*
X128079500Y-73853040D03*
X128079500Y-74353420D03*
X128079500Y-74851260D03*
X128079500Y-75351640D03*
X136080500Y-79852520D03*
X128079500Y-76352400D03*
X128079500Y-76852780D03*
X128079500Y-77353160D03*
X128079500Y-77853540D03*
X128079500Y-78351380D03*
X128079500Y-78851760D03*
X128079500Y-79352140D03*
X128079500Y-67853560D03*
X128079500Y-68351400D03*
X128079500Y-68851780D03*
X128079500Y-69352160D03*
X128079500Y-69852540D03*
X128079500Y-70352920D03*
X128079500Y-70853300D03*
X128079500Y-71351140D03*
X128079500Y-71851520D03*
X128079500Y-72351900D03*
X128079500Y-72852280D03*
X128079500Y-79852520D03*
X128079500Y-80352900D03*
X128079500Y-80853280D03*
X128079500Y-81351120D03*
X136080500Y-71351140D03*
X136080500Y-70853300D03*
X136080500Y-70352920D03*
X136080500Y-69852540D03*
X136080500Y-69352160D03*
X136080500Y-68851780D03*
X136080500Y-68351400D03*
X136080500Y-67853560D03*
D13*
X132080000Y-74549000D03*
D10*
G36*
X133865909Y-108067695D02*
X134502305Y-108704091D01*
X134148751Y-109057645D01*
X133512355Y-108421249D01*
X133865909Y-108067695D01*
X133865909Y-108067695D01*
G37*
G36*
X132805249Y-109128355D02*
X133441645Y-109764751D01*
X133088091Y-110118305D01*
X132451695Y-109481909D01*
X132805249Y-109128355D01*
X132805249Y-109128355D01*
G37*
G36*
X134660008Y-102172662D02*
X135190338Y-102702992D01*
X134624652Y-103268678D01*
X134094322Y-102738348D01*
X134660008Y-102172662D01*
X134660008Y-102172662D01*
G37*
G36*
X133599348Y-103233322D02*
X134129678Y-103763652D01*
X133563992Y-104329338D01*
X133033662Y-103799008D01*
X133599348Y-103233322D01*
X133599348Y-103233322D01*
G37*
D14*
X166334000Y-76241000D03*
D15*
X167734000Y-75666000D03*
X167734000Y-76816000D03*
X170534000Y-76816000D03*
X170534000Y-75666000D03*
X167734000Y-74516000D03*
X170534000Y-74516000D03*
X167734000Y-77966000D03*
X170534000Y-77966000D03*
D16*
X164084000Y-76241000D03*
X164084000Y-74041000D03*
X164084000Y-78441000D03*
X173384000Y-76241000D03*
X173384000Y-78441000D03*
X173384000Y-74041000D03*
D17*
X170393000Y-67473000D03*
D18*
X169818000Y-66073000D03*
X170968000Y-66073000D03*
X170968000Y-63273000D03*
X169818000Y-63273000D03*
X168668000Y-66073000D03*
X168668000Y-63273000D03*
X172118000Y-66073000D03*
X172118000Y-63273000D03*
D19*
X170393000Y-69723000D03*
X168193000Y-69723000D03*
X172593000Y-69723000D03*
X170393000Y-60423000D03*
X172593000Y-60423000D03*
X168193000Y-60423000D03*
D14*
X144334000Y-76200000D03*
D15*
X145734000Y-75625000D03*
X145734000Y-76775000D03*
X148534000Y-76775000D03*
X148534000Y-75625000D03*
X145734000Y-74475000D03*
X148534000Y-74475000D03*
X145734000Y-77925000D03*
X148534000Y-77925000D03*
D16*
X142084000Y-76200000D03*
X142084000Y-74000000D03*
X142084000Y-78400000D03*
X151384000Y-76200000D03*
X151384000Y-78400000D03*
X151384000Y-74000000D03*
D10*
G36*
X136153305Y-110370909D02*
X135516909Y-111007305D01*
X135163355Y-110653751D01*
X135799751Y-110017355D01*
X136153305Y-110370909D01*
X136153305Y-110370909D01*
G37*
G36*
X135092645Y-109310249D02*
X134456249Y-109946645D01*
X134102695Y-109593091D01*
X134739091Y-108956695D01*
X135092645Y-109310249D01*
X135092645Y-109310249D01*
G37*
G36*
X132961091Y-112124905D02*
X132324695Y-111488509D01*
X132678249Y-111134955D01*
X133314645Y-111771351D01*
X132961091Y-112124905D01*
X132961091Y-112124905D01*
G37*
G36*
X134021751Y-111064245D02*
X133385355Y-110427849D01*
X133738909Y-110074295D01*
X134375305Y-110710691D01*
X134021751Y-111064245D01*
X134021751Y-111064245D01*
G37*
D20*
X123946000Y-99916500D03*
X123296000Y-99916500D03*
X122646000Y-99916500D03*
X121996000Y-99916500D03*
X121996000Y-103016500D03*
X122646000Y-103016500D03*
X123296000Y-103016500D03*
X123946000Y-103016500D03*
D21*
X122371000Y-101854000D03*
X123571000Y-101854000D03*
X122371000Y-101079000D03*
X123571000Y-101079000D03*
D10*
G36*
X130398482Y-104431400D02*
X130610614Y-104219268D01*
X131126802Y-104735456D01*
X130914670Y-104947588D01*
X130398482Y-104431400D01*
X130398482Y-104431400D01*
G37*
G36*
X130044929Y-104784954D02*
X130257061Y-104572822D01*
X130773249Y-105089010D01*
X130561117Y-105301142D01*
X130044929Y-104784954D01*
X130044929Y-104784954D01*
G37*
G36*
X129691375Y-105138507D02*
X129903507Y-104926375D01*
X130419695Y-105442563D01*
X130207563Y-105654695D01*
X129691375Y-105138507D01*
X129691375Y-105138507D01*
G37*
G36*
X129337822Y-105492061D02*
X129549954Y-105279929D01*
X130066142Y-105796117D01*
X129854010Y-106008249D01*
X129337822Y-105492061D01*
X129337822Y-105492061D01*
G37*
G36*
X128984268Y-105845614D02*
X129196400Y-105633482D01*
X129712588Y-106149670D01*
X129500456Y-106361802D01*
X128984268Y-105845614D01*
X128984268Y-105845614D01*
G37*
G36*
X129196400Y-107726518D02*
X128984268Y-107514386D01*
X129500456Y-106998198D01*
X129712588Y-107210330D01*
X129196400Y-107726518D01*
X129196400Y-107726518D01*
G37*
G36*
X129549954Y-108080071D02*
X129337822Y-107867939D01*
X129854010Y-107351751D01*
X130066142Y-107563883D01*
X129549954Y-108080071D01*
X129549954Y-108080071D01*
G37*
G36*
X129903507Y-108433625D02*
X129691375Y-108221493D01*
X130207563Y-107705305D01*
X130419695Y-107917437D01*
X129903507Y-108433625D01*
X129903507Y-108433625D01*
G37*
G36*
X130257061Y-108787178D02*
X130044929Y-108575046D01*
X130561117Y-108058858D01*
X130773249Y-108270990D01*
X130257061Y-108787178D01*
X130257061Y-108787178D01*
G37*
G36*
X130610614Y-109140732D02*
X130398482Y-108928600D01*
X130914670Y-108412412D01*
X131126802Y-108624544D01*
X130610614Y-109140732D01*
X130610614Y-109140732D01*
G37*
G36*
X131763198Y-108624544D02*
X131975330Y-108412412D01*
X132491518Y-108928600D01*
X132279386Y-109140732D01*
X131763198Y-108624544D01*
X131763198Y-108624544D01*
G37*
G36*
X132116751Y-108270990D02*
X132328883Y-108058858D01*
X132845071Y-108575046D01*
X132632939Y-108787178D01*
X132116751Y-108270990D01*
X132116751Y-108270990D01*
G37*
G36*
X132470305Y-107917437D02*
X132682437Y-107705305D01*
X133198625Y-108221493D01*
X132986493Y-108433625D01*
X132470305Y-107917437D01*
X132470305Y-107917437D01*
G37*
G36*
X132823858Y-107563883D02*
X133035990Y-107351751D01*
X133552178Y-107867939D01*
X133340046Y-108080071D01*
X132823858Y-107563883D01*
X132823858Y-107563883D01*
G37*
G36*
X133177412Y-107210330D02*
X133389544Y-106998198D01*
X133905732Y-107514386D01*
X133693600Y-107726518D01*
X133177412Y-107210330D01*
X133177412Y-107210330D01*
G37*
G36*
X133389544Y-106361802D02*
X133177412Y-106149670D01*
X133693600Y-105633482D01*
X133905732Y-105845614D01*
X133389544Y-106361802D01*
X133389544Y-106361802D01*
G37*
G36*
X133035990Y-106008249D02*
X132823858Y-105796117D01*
X133340046Y-105279929D01*
X133552178Y-105492061D01*
X133035990Y-106008249D01*
X133035990Y-106008249D01*
G37*
G36*
X132682437Y-105654695D02*
X132470305Y-105442563D01*
X132986493Y-104926375D01*
X133198625Y-105138507D01*
X132682437Y-105654695D01*
X132682437Y-105654695D01*
G37*
G36*
X132328883Y-105301142D02*
X132116751Y-105089010D01*
X132632939Y-104572822D01*
X132845071Y-104784954D01*
X132328883Y-105301142D01*
X132328883Y-105301142D01*
G37*
G36*
X131975330Y-104947588D02*
X131763198Y-104735456D01*
X132279386Y-104219268D01*
X132491518Y-104431400D01*
X131975330Y-104947588D01*
X131975330Y-104947588D01*
G37*
G36*
X130914670Y-107563883D02*
X131445000Y-107033553D01*
X131975330Y-107563883D01*
X131445000Y-108094213D01*
X130914670Y-107563883D01*
X130914670Y-107563883D01*
G37*
G36*
X131798553Y-106680000D02*
X132328883Y-106149670D01*
X132859213Y-106680000D01*
X132328883Y-107210330D01*
X131798553Y-106680000D01*
X131798553Y-106680000D01*
G37*
G36*
X130030787Y-106680000D02*
X130561117Y-106149670D01*
X131091447Y-106680000D01*
X130561117Y-107210330D01*
X130030787Y-106680000D01*
X130030787Y-106680000D01*
G37*
G36*
X130914670Y-105796117D02*
X131445000Y-105265787D01*
X131975330Y-105796117D01*
X131445000Y-106326447D01*
X130914670Y-105796117D01*
X130914670Y-105796117D01*
G37*
D17*
X145087000Y-67567000D03*
D18*
X144512000Y-66167000D03*
X145662000Y-66167000D03*
X145662000Y-63367000D03*
X144512000Y-63367000D03*
X143362000Y-66167000D03*
X143362000Y-63367000D03*
X146812000Y-66167000D03*
X146812000Y-63367000D03*
D19*
X145087000Y-69817000D03*
X142887000Y-69817000D03*
X147287000Y-69817000D03*
X145087000Y-60517000D03*
X147287000Y-60517000D03*
X142887000Y-60517000D03*
D14*
X155321000Y-76200000D03*
D15*
X156721000Y-75625000D03*
X156721000Y-76775000D03*
X159521000Y-76775000D03*
X159521000Y-75625000D03*
X156721000Y-74475000D03*
X159521000Y-74475000D03*
X156721000Y-77925000D03*
X159521000Y-77925000D03*
D16*
X153071000Y-76200000D03*
X153071000Y-74000000D03*
X153071000Y-78400000D03*
X162371000Y-76200000D03*
X162371000Y-78400000D03*
X162371000Y-74000000D03*
D17*
X157406000Y-67567000D03*
D18*
X156831000Y-66167000D03*
X157981000Y-66167000D03*
X157981000Y-63367000D03*
X156831000Y-63367000D03*
X155681000Y-66167000D03*
X155681000Y-63367000D03*
X159131000Y-66167000D03*
X159131000Y-63367000D03*
D19*
X157406000Y-69817000D03*
X155206000Y-69817000D03*
X159606000Y-69817000D03*
X157406000Y-60517000D03*
X159606000Y-60517000D03*
X155206000Y-60517000D03*
D22*
X120543000Y-83738000D03*
X121043000Y-83738000D03*
X121543000Y-83738000D03*
X122043000Y-83738000D03*
X122543000Y-83738000D03*
X123043000Y-83738000D03*
D23*
X123743000Y-83038000D03*
X123743000Y-82538000D03*
X123743000Y-82038000D03*
X123743000Y-81538000D03*
X123743000Y-81038000D03*
X123743000Y-80538000D03*
D22*
X123043000Y-79838000D03*
X122543000Y-79838000D03*
X122043000Y-79838000D03*
X121543000Y-79838000D03*
X121043000Y-79838000D03*
X120543000Y-79838000D03*
D23*
X119843000Y-80538000D03*
X119843000Y-81038000D03*
X119843000Y-81538000D03*
X119843000Y-82038000D03*
X119843000Y-82538000D03*
X119843000Y-83038000D03*
D24*
X151384000Y-65786000D03*
X163703000Y-65786000D03*
D25*
X133120000Y-100266500D03*
X134620000Y-100266500D03*
D26*
X123888500Y-90285000D03*
X123888500Y-88785000D03*
X127762000Y-85840000D03*
X127762000Y-84340000D03*
X120142000Y-91174000D03*
X120142000Y-89674000D03*
D25*
X123265500Y-98044000D03*
X124765500Y-98044000D03*
D26*
X138811000Y-88162000D03*
X138811000Y-89662000D03*
D25*
X124244800Y-72974200D03*
X122744800Y-72974200D03*
X124244800Y-74422000D03*
X122744800Y-74422000D03*
X125870400Y-70104000D03*
X124370400Y-70104000D03*
D26*
X125222000Y-78728000D03*
X125222000Y-77228000D03*
D25*
X124345000Y-67183000D03*
X125845000Y-67183000D03*
D26*
X125984000Y-74561000D03*
X125984000Y-76061000D03*
X126619000Y-80923000D03*
X126619000Y-82423000D03*
D25*
X140323000Y-63754000D03*
X138823000Y-63754000D03*
D26*
X137922000Y-71640000D03*
X137922000Y-73140000D03*
X137922000Y-74180000D03*
X137922000Y-75680000D03*
X137922000Y-76669200D03*
X137922000Y-78169200D03*
D25*
X140069000Y-70231000D03*
X138569000Y-70231000D03*
X137299000Y-62230000D03*
X138799000Y-62230000D03*
D26*
X120396000Y-97802000D03*
X120396000Y-99302000D03*
X120446800Y-102172200D03*
X120446800Y-100672200D03*
D25*
X124130500Y-87122000D03*
X122630500Y-87122000D03*
D10*
G36*
X134579992Y-105472338D02*
X134049662Y-104942008D01*
X134615348Y-104376322D01*
X135145678Y-104906652D01*
X134579992Y-105472338D01*
X134579992Y-105472338D01*
G37*
G36*
X135640652Y-104411678D02*
X135110322Y-103881348D01*
X135676008Y-103315662D01*
X136206338Y-103845992D01*
X135640652Y-104411678D01*
X135640652Y-104411678D01*
G37*
D25*
X135317800Y-56083200D03*
X136817800Y-56083200D03*
D26*
X124968000Y-82157000D03*
X124968000Y-80657000D03*
X119634000Y-76847000D03*
X119634000Y-78347000D03*
D25*
X122416000Y-78486000D03*
X120916000Y-78486000D03*
X121146000Y-85217000D03*
X119646000Y-85217000D03*
D26*
X124968000Y-83324000D03*
X124968000Y-84824000D03*
D27*
X122732800Y-71108000D03*
X122732800Y-69608000D03*
X122732800Y-68517200D03*
X122732800Y-67017200D03*
D28*
X124370400Y-68630800D03*
X125870400Y-68630800D03*
X124370400Y-71577200D03*
X125870400Y-71577200D03*
X124345000Y-65735200D03*
X125845000Y-65735200D03*
X119519000Y-108204000D03*
X121019000Y-108204000D03*
X134100000Y-56134000D03*
X132600000Y-56134000D03*
X124579300Y-56305700D03*
X123079300Y-56305700D03*
X124575000Y-57912000D03*
X123075000Y-57912000D03*
X124575000Y-59563000D03*
X123075000Y-59563000D03*
D29*
X138811000Y-68556000D03*
X138811000Y-65556000D03*
D30*
X130167000Y-62103000D03*
X133477000Y-62103000D03*
D10*
G36*
X116702299Y-61862494D02*
X115429506Y-60589701D01*
X117197273Y-58821934D01*
X118470066Y-60094727D01*
X116702299Y-61862494D01*
X116702299Y-61862494D01*
G37*
G36*
X119530727Y-59034066D02*
X118257934Y-57761273D01*
X120025701Y-55993506D01*
X121298494Y-57266299D01*
X119530727Y-59034066D01*
X119530727Y-59034066D01*
G37*
D31*
X137182000Y-60198000D03*
X139932000Y-60198000D03*
D10*
G36*
X132445182Y-113113736D02*
X132798736Y-112760182D01*
X133223000Y-113184446D01*
X132869446Y-113538000D01*
X132445182Y-113113736D01*
X132445182Y-113113736D01*
G37*
G36*
X133223000Y-113891554D02*
X133576554Y-113538000D01*
X134000818Y-113962264D01*
X133647264Y-114315818D01*
X133223000Y-113891554D01*
X133223000Y-113891554D01*
G37*
G36*
X133207182Y-112351736D02*
X133560736Y-111998182D01*
X133985000Y-112422446D01*
X133631446Y-112776000D01*
X133207182Y-112351736D01*
X133207182Y-112351736D01*
G37*
G36*
X133985000Y-113129554D02*
X134338554Y-112776000D01*
X134762818Y-113200264D01*
X134409264Y-113553818D01*
X133985000Y-113129554D01*
X133985000Y-113129554D01*
G37*
G36*
X137556818Y-111930264D02*
X137203264Y-112283818D01*
X136779000Y-111859554D01*
X137132554Y-111506000D01*
X137556818Y-111930264D01*
X137556818Y-111930264D01*
G37*
G36*
X136779000Y-111152446D02*
X136425446Y-111506000D01*
X136001182Y-111081736D01*
X136354736Y-110728182D01*
X136779000Y-111152446D01*
X136779000Y-111152446D01*
G37*
G36*
X137751736Y-112918818D02*
X137398182Y-112565264D01*
X137822446Y-112141000D01*
X138176000Y-112494554D01*
X137751736Y-112918818D01*
X137751736Y-112918818D01*
G37*
G36*
X138529554Y-112141000D02*
X138176000Y-111787446D01*
X138600264Y-111363182D01*
X138953818Y-111716736D01*
X138529554Y-112141000D01*
X138529554Y-112141000D01*
G37*
D27*
X140335000Y-76339000D03*
X140335000Y-77839000D03*
X140335000Y-79133000D03*
X140335000Y-80633000D03*
D32*
X157734000Y-83947000D03*
D33*
X125173000Y-62865000D03*
X122223000Y-62865000D03*
D34*
X135195000Y-87214001D03*
X134695001Y-87214001D03*
X134195000Y-87214001D03*
X133695001Y-87214001D03*
X133194999Y-87214001D03*
X132695000Y-87214001D03*
X132195001Y-87214001D03*
X131695000Y-87214001D03*
X131195000Y-87214001D03*
X130694999Y-87214001D03*
X130195000Y-87214001D03*
X129695001Y-87214001D03*
X129194999Y-87214001D03*
X128695000Y-87214001D03*
X128194999Y-87214001D03*
X127695000Y-87214001D03*
D35*
X125695001Y-89214000D03*
X125695001Y-89713999D03*
X125695001Y-90214000D03*
X125695001Y-90713999D03*
X125695001Y-91214001D03*
X125695001Y-91714000D03*
X125695001Y-92213999D03*
X125695001Y-92714000D03*
X125695001Y-93214000D03*
X125695001Y-93714001D03*
X125695001Y-94214000D03*
X125695001Y-94713999D03*
X125695001Y-95214001D03*
X125695001Y-95714000D03*
X125695001Y-96214001D03*
X125695001Y-96714000D03*
D34*
X127695000Y-98713999D03*
X128194999Y-98713999D03*
X128695000Y-98713999D03*
X129194999Y-98713999D03*
X129695001Y-98713999D03*
X130195000Y-98713999D03*
X130694999Y-98713999D03*
X131195000Y-98713999D03*
X131695000Y-98713999D03*
X132195001Y-98713999D03*
X132695000Y-98713999D03*
X133194999Y-98713999D03*
X133695001Y-98713999D03*
X134195000Y-98713999D03*
X134695001Y-98713999D03*
X135195000Y-98713999D03*
D35*
X137194999Y-96714000D03*
X137194999Y-96214001D03*
X137194999Y-95714000D03*
X137194999Y-95214001D03*
X137194999Y-94713999D03*
X137194999Y-94214000D03*
X137194999Y-93714001D03*
X137194999Y-93214000D03*
X137194999Y-92714000D03*
X137194999Y-92213999D03*
X137194999Y-91714000D03*
X137194999Y-91214001D03*
X137194999Y-90713999D03*
X137194999Y-90214000D03*
X137194999Y-89713999D03*
X137194999Y-89214000D03*
D36*
G36*
X153219005Y-79805088D02*
X153229433Y-79854411D01*
X153263636Y-79900670D01*
X156535807Y-82688614D01*
X155439700Y-83894331D01*
X151130000Y-79954034D01*
X151130000Y-73279000D01*
X153163084Y-73279000D01*
X153219005Y-79805088D01*
X153219005Y-79805088D01*
G37*
X153219005Y-79805088D02*
X153229433Y-79854411D01*
X153263636Y-79900670D01*
X156535807Y-82688614D01*
X155439700Y-83894331D01*
X151130000Y-79954034D01*
X151130000Y-73279000D01*
X153163084Y-73279000D01*
X153219005Y-79805088D01*
G36*
X164592000Y-79950298D02*
X160295618Y-83510157D01*
X159303485Y-82187313D01*
X162135335Y-79724835D01*
X162166054Y-79684863D01*
X162179000Y-79629000D01*
X162179000Y-73279000D01*
X164592000Y-73279000D01*
X164592000Y-79950298D01*
X164592000Y-79950298D01*
G37*
X164592000Y-79950298D02*
X160295618Y-83510157D01*
X159303485Y-82187313D01*
X162135335Y-79724835D01*
X162166054Y-79684863D01*
X162179000Y-79629000D01*
X162179000Y-73279000D01*
X164592000Y-73279000D01*
X164592000Y-79950298D01*
M02*
