G04 #@! TF.GenerationSoftware,KiCad,Pcbnew,(5.1.5-0)*
G04 #@! TF.CreationDate,2020-06-19T17:54:54+08:00*
G04 #@! TF.ProjectId,TESC,54455343-2e6b-4696-9361-645f70636258,A*
G04 #@! TF.SameCoordinates,Original*
G04 #@! TF.FileFunction,Copper,L3,Inr*
G04 #@! TF.FilePolarity,Positive*
%FSLAX46Y46*%
G04 Gerber Fmt 4.6, Leading zero omitted, Abs format (unit mm)*
G04 Created by KiCad (PCBNEW (5.1.5-0)) date 2020-06-19 17:54:54*
%MOMM*%
%LPD*%
G04 APERTURE LIST*
%ADD10O,1.100000X2.200000*%
%ADD11O,1.100000X1.800000*%
%ADD12C,1.600000*%
%ADD13O,1.699260X1.198880*%
%ADD14R,1.699260X1.198880*%
%ADD15O,1.198880X1.699260*%
%ADD16R,1.198880X1.699260*%
%ADD17C,0.600000*%
%ADD18C,0.203200*%
%ADD19C,0.508000*%
%ADD20C,0.254000*%
G04 APERTURE END LIST*
D10*
X128519000Y-109100000D03*
D11*
X126369000Y-111900000D03*
X126369000Y-106300000D03*
D12*
X144726000Y-81788000D03*
X149726000Y-81788000D03*
X170842000Y-81788000D03*
X165842000Y-81788000D03*
D13*
X118000000Y-102201520D03*
X118000000Y-100200000D03*
D14*
X118000000Y-104203040D03*
D15*
X117182900Y-108458000D03*
X121183400Y-108458000D03*
X119181880Y-108458000D03*
D16*
X123184920Y-108458000D03*
D15*
X136851260Y-58000000D03*
X134849740Y-58000000D03*
X132848220Y-58000000D03*
X128847720Y-58000000D03*
X130849240Y-58000000D03*
D16*
X126846200Y-58000000D03*
D13*
X117983000Y-77045760D03*
X117983000Y-85049300D03*
X117983000Y-89049800D03*
X117983000Y-87048280D03*
D14*
X117983000Y-91051320D03*
D13*
X117983000Y-83045240D03*
X117983000Y-81043720D03*
X117983000Y-79044740D03*
X117983000Y-64545500D03*
X117983000Y-66547020D03*
X117983000Y-70547520D03*
X117983000Y-68546000D03*
D14*
X117983000Y-72549040D03*
D17*
X135763000Y-91313000D03*
X123373151Y-96310846D03*
X131064000Y-69977000D03*
X134874000Y-66800000D03*
X127232128Y-69342000D03*
X131699000Y-69977000D03*
X131699000Y-69342000D03*
X131064000Y-69342000D03*
X134239000Y-66800000D03*
X133604000Y-66802000D03*
X166471600Y-67640200D03*
X165887400Y-67640200D03*
X165303200Y-67640200D03*
X164719000Y-67640200D03*
X164134800Y-67640200D03*
X163550600Y-67640200D03*
X162966400Y-67640200D03*
X162382200Y-67640200D03*
X161798000Y-67640200D03*
X166471600Y-67056000D03*
X165887400Y-67056000D03*
X165303200Y-67056000D03*
X164719000Y-67056000D03*
X164134800Y-67056000D03*
X163550600Y-67056000D03*
X162966400Y-67056000D03*
X162382200Y-67056000D03*
X161798000Y-67056000D03*
X166471600Y-66471800D03*
X165887400Y-66471800D03*
X165303200Y-66471800D03*
X164719000Y-66471800D03*
X164134800Y-66471800D03*
X163550600Y-66471800D03*
X162966400Y-66471800D03*
X162382200Y-66471800D03*
X161798000Y-66471800D03*
X166471600Y-65887600D03*
X165887400Y-65887600D03*
X165303200Y-65887600D03*
X164719000Y-65887600D03*
X164134800Y-65887600D03*
X163550600Y-65887600D03*
X162966400Y-65887600D03*
X162382200Y-65887600D03*
X161798000Y-65887600D03*
X166471600Y-65303400D03*
X165887400Y-65303400D03*
X165303200Y-65303400D03*
X164719000Y-65303400D03*
X164134800Y-65303400D03*
X163550600Y-65303400D03*
X162966400Y-65303400D03*
X162382200Y-65303400D03*
X161798000Y-65303400D03*
X166471600Y-64719200D03*
X165887400Y-64719200D03*
X165303200Y-64719200D03*
X164719000Y-64719200D03*
X164134800Y-64719200D03*
X163550600Y-64719200D03*
X162966400Y-64719200D03*
X162382200Y-64719200D03*
X161798000Y-64719200D03*
X166471600Y-64135000D03*
X165887400Y-64135000D03*
X165303200Y-64135000D03*
X164719000Y-64135000D03*
X164134800Y-64135000D03*
X163550600Y-64135000D03*
X162966400Y-64135000D03*
X162382200Y-64135000D03*
X153644600Y-67640200D03*
X153060400Y-67640200D03*
X152476200Y-67640200D03*
X151892000Y-67640200D03*
X151307800Y-67640200D03*
X150723600Y-67640200D03*
X150139400Y-67640200D03*
X149555200Y-67640200D03*
X148971000Y-67640200D03*
X153644600Y-67056000D03*
X153060400Y-67056000D03*
X152476200Y-67056000D03*
X151892000Y-67056000D03*
X151307800Y-67056000D03*
X150723600Y-67056000D03*
X150139400Y-67056000D03*
X149555200Y-67056000D03*
X148971000Y-67056000D03*
X153644600Y-66471800D03*
X153060400Y-66471800D03*
X152476200Y-66471800D03*
X151892000Y-66471800D03*
X151307800Y-66471800D03*
X150723600Y-66471800D03*
X150139400Y-66471800D03*
X149555200Y-66471800D03*
X148971000Y-66471800D03*
X153644600Y-65887600D03*
X153060400Y-65887600D03*
X152476200Y-65887600D03*
X151892000Y-65887600D03*
X151307800Y-65887600D03*
X150723600Y-65887600D03*
X150139400Y-65887600D03*
X149555200Y-65887600D03*
X148971000Y-65887600D03*
X153644600Y-65303400D03*
X153060400Y-65303400D03*
X152476200Y-65303400D03*
X151892000Y-65303400D03*
X151307800Y-65303400D03*
X150723600Y-65303400D03*
X150139400Y-65303400D03*
X149555200Y-65303400D03*
X148971000Y-65303400D03*
X153644600Y-64719200D03*
X153060400Y-64719200D03*
X152476200Y-64719200D03*
X151892000Y-64719200D03*
X151307800Y-64719200D03*
X150723600Y-64719200D03*
X150139400Y-64719200D03*
X149555200Y-64719200D03*
X148971000Y-64719200D03*
X153644600Y-64135000D03*
X153060400Y-64135000D03*
X152476200Y-64135000D03*
X151892000Y-64135000D03*
X151307800Y-64135000D03*
X150723600Y-64135000D03*
X150139400Y-64135000D03*
X149555200Y-64135000D03*
X161798000Y-64135000D03*
X148971000Y-64135000D03*
X134620000Y-79756000D03*
X135128000Y-80264000D03*
X134112000Y-79248000D03*
X136906000Y-64516000D03*
X138148000Y-111282000D03*
X136598600Y-102265000D03*
X138049000Y-86614000D03*
X124849867Y-96930195D03*
X126365000Y-83693000D03*
X134620000Y-90297000D03*
X129476214Y-88223275D03*
X127516448Y-89653548D03*
X117475000Y-94869000D03*
X119126000Y-94869000D03*
X132333990Y-99949000D03*
X133995745Y-101102745D03*
X129023272Y-96785623D03*
X125095000Y-60705994D03*
X125730000Y-60706000D03*
X126365000Y-60706000D03*
X118999000Y-75565000D03*
X119060575Y-85813373D03*
X127866447Y-81915000D03*
X125349000Y-75946000D03*
X124460000Y-75565000D03*
X124079000Y-72009000D03*
X135331202Y-88925400D03*
X124663196Y-95681800D03*
X135043559Y-70650810D03*
X119500000Y-101492000D03*
X131826000Y-59690000D03*
X123190000Y-83642200D03*
X139171432Y-86006018D03*
X123647200Y-98907600D03*
X138694745Y-99197745D03*
X121492990Y-88886035D03*
X121945399Y-74015600D03*
X131191000Y-90297000D03*
X134357830Y-88119733D03*
X122047000Y-67310000D03*
X131572000Y-61214000D03*
X131554155Y-61889155D03*
X122618498Y-63817500D03*
X122072400Y-71272400D03*
X122072400Y-72313800D03*
X117000000Y-97536000D03*
X134801900Y-72182240D03*
X143000000Y-71500000D03*
X143624840Y-71500000D03*
X144249680Y-71500000D03*
X146124200Y-71500000D03*
X146749040Y-71500000D03*
X147373880Y-71500000D03*
X147998720Y-71500000D03*
X143000000Y-72124840D03*
X143624840Y-72124840D03*
X144249680Y-72124840D03*
X144874520Y-72124840D03*
X145499360Y-72124840D03*
X146124200Y-72124840D03*
X146749040Y-72124840D03*
X147373880Y-72124840D03*
X147998720Y-72124840D03*
X143624840Y-72749680D03*
X144249680Y-72749680D03*
X144874520Y-72749680D03*
X145499360Y-72749680D03*
X146124200Y-72749680D03*
X146749040Y-72749680D03*
X147373880Y-72749680D03*
X147998720Y-72749680D03*
X143624840Y-73374520D03*
X144249680Y-73374520D03*
X144874520Y-73374520D03*
X145499360Y-73374520D03*
X146124200Y-73374520D03*
X146749040Y-73374520D03*
X147373880Y-73374520D03*
X147998720Y-73374520D03*
X143002000Y-72771000D03*
X155575000Y-71501000D03*
X140843000Y-73660000D03*
X134981000Y-74919000D03*
X156197300Y-71501000D03*
X156819600Y-71501000D03*
X158686500Y-71501000D03*
X159308800Y-71501000D03*
X159931100Y-71501000D03*
X160553400Y-71501000D03*
X155575000Y-72123300D03*
X156197300Y-72123300D03*
X156819600Y-72123300D03*
X157441900Y-72123300D03*
X158064200Y-72123300D03*
X158686500Y-72123300D03*
X159308800Y-72123300D03*
X159931100Y-72123300D03*
X160553400Y-72123300D03*
X155575000Y-72745600D03*
X156197300Y-72745600D03*
X156819600Y-72745600D03*
X157441900Y-72745600D03*
X158064200Y-72745600D03*
X158686500Y-72745600D03*
X159308800Y-72745600D03*
X159931100Y-72745600D03*
X160553400Y-72745600D03*
X155575000Y-73367900D03*
X156197300Y-73367900D03*
X156819600Y-73367900D03*
X157441900Y-73367900D03*
X158064200Y-73367900D03*
X158686500Y-73367900D03*
X159308800Y-73367900D03*
X159931100Y-73367900D03*
X160553400Y-73367900D03*
X168275000Y-71501000D03*
X134866829Y-77759634D03*
X168897300Y-71501000D03*
X169519600Y-71501000D03*
X171386500Y-71501000D03*
X172008800Y-71501000D03*
X172631100Y-71501000D03*
X173253400Y-71501000D03*
X168275000Y-72123300D03*
X168897300Y-72123300D03*
X169519600Y-72123300D03*
X170141900Y-72123300D03*
X170764200Y-72123300D03*
X171386500Y-72123300D03*
X172008800Y-72123300D03*
X172631100Y-72123300D03*
X173253400Y-72123300D03*
X168275000Y-72745600D03*
X168897300Y-72745600D03*
X169519600Y-72745600D03*
X170141900Y-72745600D03*
X170764200Y-72745600D03*
X171386500Y-72745600D03*
X172008800Y-72745600D03*
X172631100Y-72745600D03*
X173253400Y-72745600D03*
X168275000Y-73367900D03*
X168897300Y-73367900D03*
X169519600Y-73367900D03*
X170141900Y-73367900D03*
X170764200Y-73367900D03*
X171386500Y-73367900D03*
X172008800Y-73367900D03*
X138176000Y-80264016D03*
X167513000Y-79375000D03*
X133731000Y-68580000D03*
X134391400Y-81508600D03*
X133834000Y-80957296D03*
X134162800Y-68148200D03*
X143383000Y-79375000D03*
X144018000Y-79375000D03*
X144653000Y-79375000D03*
X145288000Y-79375000D03*
X145923000Y-79375000D03*
X146558000Y-79375000D03*
X147193000Y-79375000D03*
X147828000Y-79375000D03*
X142113000Y-80010000D03*
X142748000Y-80010000D03*
X143383000Y-80010000D03*
X144018000Y-80010000D03*
X144653000Y-80010000D03*
X145288000Y-80010000D03*
X145923000Y-80010000D03*
X146558000Y-80010000D03*
X147193000Y-80010000D03*
X147828000Y-80010000D03*
X155448000Y-79375000D03*
X156083000Y-79375000D03*
X156718000Y-79375000D03*
X157353000Y-79375000D03*
X157988000Y-79375000D03*
X158623000Y-79375000D03*
X159258000Y-79375000D03*
X159893000Y-79375000D03*
X160528000Y-79375000D03*
X154813000Y-80010000D03*
X155448000Y-80010000D03*
X156083000Y-80010000D03*
X156718000Y-80010000D03*
X157353000Y-80010000D03*
X157988000Y-80010000D03*
X158623000Y-80010000D03*
X159258000Y-80010000D03*
X159893000Y-80010000D03*
X160528000Y-80010000D03*
X168148000Y-79375000D03*
X168783000Y-79375000D03*
X169418000Y-79375000D03*
X170053000Y-79375000D03*
X170688000Y-79375000D03*
X171323000Y-79375000D03*
X171958000Y-79375000D03*
X167513000Y-80010000D03*
X168148000Y-80010000D03*
X168783000Y-80010000D03*
X169418000Y-80010000D03*
X170053000Y-80010000D03*
X170688000Y-80010000D03*
X171323000Y-80010000D03*
X171958000Y-80010000D03*
X172593000Y-80010000D03*
X173228000Y-80010000D03*
X154813000Y-79375000D03*
X135382000Y-85344000D03*
X134077066Y-85268411D03*
X130429000Y-85268430D03*
X140334994Y-79883000D03*
X135153776Y-84627036D03*
X124470635Y-83577501D03*
X129413000Y-83947000D03*
X129485668Y-85236022D03*
X123954848Y-92506426D03*
X130860906Y-99656566D03*
X131699000Y-99440996D03*
X125476000Y-58673996D03*
X125349000Y-56388000D03*
X120696010Y-65670151D03*
X130114793Y-99559412D03*
X122047000Y-56515002D03*
X123317000Y-55654394D03*
X121285000Y-92710000D03*
X121483410Y-91051407D03*
X121365990Y-91948000D03*
X136398006Y-98806000D03*
X138637990Y-96801922D03*
X133857998Y-96901000D03*
X132969000Y-99314000D03*
X128706578Y-102362000D03*
X127863596Y-102717600D03*
X128482403Y-105790264D03*
X121873990Y-68326000D03*
X129921000Y-68453000D03*
X130193612Y-88450131D03*
X126492000Y-85471004D03*
X127254000Y-85725002D03*
X127640348Y-86619768D03*
X147039000Y-58901000D03*
X146404000Y-58901000D03*
X145769000Y-58901000D03*
X145134000Y-58901000D03*
X144499000Y-58901000D03*
X143864000Y-58901000D03*
X143229000Y-58901000D03*
X147039000Y-58266000D03*
X146404000Y-58266000D03*
X145769000Y-58266000D03*
X145134000Y-58266000D03*
X144499000Y-58266000D03*
X143864000Y-58266000D03*
X143229000Y-58266000D03*
X147039000Y-57631000D03*
X146404000Y-57631000D03*
X145769000Y-57631000D03*
X145134000Y-57631000D03*
X144499000Y-57631000D03*
X143864000Y-57631000D03*
X143229000Y-57631000D03*
X147039000Y-56996000D03*
X146404000Y-56996000D03*
X145769000Y-56996000D03*
X145134000Y-56996000D03*
X144499000Y-56996000D03*
X143864000Y-56996000D03*
X143229000Y-56996000D03*
X147039000Y-56361000D03*
X146404000Y-56361000D03*
X145769000Y-56361000D03*
X145134000Y-56361000D03*
X144499000Y-56361000D03*
X143864000Y-56361000D03*
X143229000Y-56361000D03*
X134859694Y-71406578D03*
X134983565Y-72918030D03*
X159639000Y-58901000D03*
X159004000Y-58901000D03*
X158369000Y-58901000D03*
X157734000Y-58901000D03*
X157099000Y-58901000D03*
X156464000Y-58901000D03*
X155829000Y-58901000D03*
X159639000Y-58266000D03*
X159004000Y-58266000D03*
X158369000Y-58266000D03*
X157734000Y-58266000D03*
X157099000Y-58266000D03*
X156464000Y-58266000D03*
X155829000Y-58266000D03*
X159639000Y-57631000D03*
X159004000Y-57631000D03*
X158369000Y-57631000D03*
X157734000Y-57631000D03*
X157099000Y-57631000D03*
X156464000Y-57631000D03*
X155829000Y-57631000D03*
X159639000Y-56996000D03*
X159004000Y-56996000D03*
X158369000Y-56996000D03*
X157734000Y-56996000D03*
X157099000Y-56996000D03*
X156464000Y-56996000D03*
X155829000Y-56996000D03*
X159639000Y-56361000D03*
X159004000Y-56361000D03*
X158369000Y-56361000D03*
X157734000Y-56361000D03*
X157099000Y-56361000D03*
X156464000Y-56361000D03*
X155829000Y-56361000D03*
X135081000Y-74119000D03*
X134981000Y-75719000D03*
X172339000Y-58901000D03*
X171704000Y-58901000D03*
X171069000Y-58901000D03*
X170434000Y-58901000D03*
X169799000Y-58901000D03*
X169164000Y-58901000D03*
X168529000Y-58901000D03*
X172339000Y-58266000D03*
X171704000Y-58266000D03*
X171069000Y-58266000D03*
X170434000Y-58266000D03*
X169799000Y-58266000D03*
X169164000Y-58266000D03*
X168529000Y-58266000D03*
X172339000Y-57631000D03*
X171704000Y-57631000D03*
X171069000Y-57631000D03*
X170434000Y-57631000D03*
X169799000Y-57631000D03*
X169164000Y-57631000D03*
X168529000Y-57631000D03*
X172339000Y-56996000D03*
X171704000Y-56996000D03*
X171069000Y-56996000D03*
X170434000Y-56996000D03*
X169799000Y-56996000D03*
X169164000Y-56996000D03*
X168529000Y-56996000D03*
X172339000Y-56361000D03*
X171704000Y-56361000D03*
X171069000Y-56361000D03*
X170434000Y-56361000D03*
X169799000Y-56361000D03*
X169164000Y-56361000D03*
X168529000Y-56361000D03*
X134860669Y-76981846D03*
X134889640Y-78537112D03*
X139953998Y-66848010D03*
X134239000Y-93980000D03*
X133858000Y-59182000D03*
X130810000Y-93853000D03*
X129098650Y-94052717D03*
X127889000Y-60579004D03*
X130081000Y-76019000D03*
X128293140Y-96967368D03*
X127127000Y-76453990D03*
X128574250Y-99568000D03*
X129326661Y-99568000D03*
X126111000Y-77597000D03*
X129794000Y-70866000D03*
X131516902Y-96464304D03*
X127235055Y-72768890D03*
X138637990Y-95511593D03*
X130048000Y-72517004D03*
X138637990Y-94750777D03*
X130048887Y-71633226D03*
X138637990Y-93970921D03*
X119587990Y-98715145D03*
X123698000Y-94742000D03*
X119507000Y-100457000D03*
X124497033Y-94325659D03*
X130040229Y-75242258D03*
X132162712Y-96850378D03*
X129901590Y-76826915D03*
X129476469Y-96185010D03*
X129858399Y-94911909D03*
X127000002Y-77355385D03*
X138625301Y-93092742D03*
X130048000Y-74422000D03*
X130048000Y-69723000D03*
X138546340Y-91152529D03*
X121666000Y-99568000D03*
X138935171Y-91796682D03*
X124475365Y-98881671D03*
X139472582Y-92329000D03*
X136017000Y-62865000D03*
X153924000Y-61468000D03*
X136271000Y-61849000D03*
X153162000Y-61214000D03*
X166497000Y-61214000D03*
X131953000Y-65913000D03*
X165735000Y-61468000D03*
X131191000Y-65786000D03*
X140335000Y-72842410D03*
X143510000Y-67691000D03*
X140589006Y-71247000D03*
X143510000Y-77017590D03*
X140600000Y-74500000D03*
X154635197Y-77165203D03*
X140300000Y-75300000D03*
X156083000Y-67691000D03*
X159766000Y-67691000D03*
X141224000Y-70612000D03*
X168783000Y-67691000D03*
X137904193Y-79451912D03*
X130810000Y-103886000D03*
X130937000Y-105664000D03*
X120570694Y-93259226D03*
X127392255Y-94762621D03*
X134874000Y-96439010D03*
X129794000Y-110108998D03*
X122174000Y-97917000D03*
X137033000Y-96901000D03*
X118999000Y-84074000D03*
X124907284Y-94956386D03*
X121623887Y-83654021D03*
X135001000Y-94996000D03*
D18*
X117983000Y-89049800D02*
X121329225Y-89049800D01*
X121329225Y-89049800D02*
X121492990Y-88886035D01*
X135636000Y-82042000D02*
X135636000Y-84144812D01*
X140334994Y-79883000D02*
X140081000Y-80136994D01*
X139573000Y-81534000D02*
X136144000Y-81534000D01*
X136144000Y-81534000D02*
X135636000Y-82042000D01*
X140081000Y-81026000D02*
X139573000Y-81534000D01*
X135636000Y-84144812D02*
X135153776Y-84627036D01*
X140081000Y-80136994D02*
X140081000Y-81026000D01*
X123952000Y-87122000D02*
X123954848Y-92506426D01*
X123954848Y-86928770D02*
X123952000Y-87122000D01*
X123954848Y-87119152D02*
X123952000Y-87122000D01*
X120904000Y-83750922D02*
X123954848Y-86801770D01*
X120904000Y-66929000D02*
X120904000Y-83750922D01*
X124587000Y-63246000D02*
X120904000Y-66929000D01*
X134902020Y-58039000D02*
X134902020Y-60169980D01*
X134902020Y-60169980D02*
X131826000Y-63246000D01*
X123954848Y-86801770D02*
X123954848Y-87119152D01*
X131826000Y-63246000D02*
X124587000Y-63246000D01*
X129552472Y-100965000D02*
X130860906Y-99656566D01*
X130901520Y-59725480D02*
X128163612Y-62463388D01*
X125237206Y-97561389D02*
X126339611Y-98663794D01*
X123840205Y-97561389D02*
X125237206Y-97561389D01*
X122758222Y-96479406D02*
X123840205Y-97561389D01*
X122758222Y-86692769D02*
X122758222Y-96479406D01*
X121506781Y-62463388D02*
X120142000Y-63828169D01*
X128163612Y-62463388D02*
X121506781Y-62463388D01*
X126339611Y-98663794D02*
X126339611Y-99796611D01*
X126339611Y-99796611D02*
X127508000Y-100965000D01*
X120142000Y-63828169D02*
X120142000Y-84076547D01*
X120142000Y-84076547D02*
X122758222Y-86692769D01*
X130901520Y-58039000D02*
X130901520Y-59725480D01*
X127508000Y-100965000D02*
X129552472Y-100965000D01*
X127279389Y-101371389D02*
X125958611Y-100050611D01*
X130192871Y-101371389D02*
X127279389Y-101371389D01*
X131699000Y-99865260D02*
X130192871Y-101371389D01*
X122402611Y-86840066D02*
X119761000Y-84198455D01*
X124333004Y-58673996D02*
X125476000Y-58673996D01*
X131699000Y-99440996D02*
X131699000Y-99865260D01*
X125958611Y-100050611D02*
X125958611Y-98785702D01*
X125958611Y-98785702D02*
X125089908Y-97917000D01*
X125089908Y-97917000D02*
X123692907Y-97917000D01*
X122402611Y-96626704D02*
X122402611Y-86840066D01*
X119761000Y-84198455D02*
X119761000Y-63246000D01*
X123692907Y-97917000D02*
X122402611Y-96626704D01*
X119761000Y-63246000D02*
X124333004Y-58673996D01*
X129814794Y-99859411D02*
X130114793Y-99559412D01*
X129814794Y-99867746D02*
X129814794Y-99859411D01*
X127736610Y-100563702D02*
X129118838Y-100563702D01*
X120696010Y-66094415D02*
X120523000Y-66267425D01*
X120523000Y-66267425D02*
X120523000Y-83954638D01*
X120696010Y-65670151D02*
X120696010Y-66094415D01*
X126873000Y-97663000D02*
X126873000Y-99700092D01*
X125476000Y-96266000D02*
X126873000Y-97663000D01*
X124317727Y-96266000D02*
X125476000Y-96266000D01*
X123113833Y-95062106D02*
X124317727Y-96266000D01*
X123113833Y-86545471D02*
X123113833Y-95062106D01*
X126873000Y-99700092D02*
X127736610Y-100563702D01*
X129118838Y-100563702D02*
X129814794Y-99867746D01*
X120523000Y-83954638D02*
X123113833Y-86545471D01*
X129921000Y-68453000D02*
X122000990Y-68453000D01*
X122000990Y-68453000D02*
X121873990Y-68326000D01*
X131495778Y-77433778D02*
X130081000Y-76019000D01*
X131495778Y-77433778D02*
X131495778Y-78181222D01*
X131495778Y-78181222D02*
X131495778Y-77978000D01*
X132456223Y-82174405D02*
X132456223Y-94238584D01*
X129306347Y-97388460D02*
X128714232Y-97388460D01*
X132456223Y-94238584D02*
X129306347Y-97388460D01*
X131495778Y-78181222D02*
X131495778Y-81213960D01*
X131495778Y-81213960D02*
X132456223Y-82174405D01*
X128714232Y-97388460D02*
X128293140Y-96967368D01*
X130784556Y-80111546D02*
X127127000Y-76453990D01*
X130784556Y-80111546D02*
X130784556Y-80670444D01*
X130784556Y-80670444D02*
X130784556Y-80391000D01*
X127635000Y-98631252D02*
X128574250Y-99570502D01*
X127635000Y-96599293D02*
X127635000Y-98631252D01*
X130110981Y-95578008D02*
X128656285Y-95578008D01*
X131745001Y-93943988D02*
X130110981Y-95578008D01*
X131745001Y-82469001D02*
X131745001Y-93943988D01*
X130784556Y-81508556D02*
X131745001Y-82469001D01*
X130784556Y-80670444D02*
X130784556Y-81508556D01*
X128656285Y-95578008D02*
X127635000Y-96599293D01*
X128194349Y-95537036D02*
X128194349Y-83617349D01*
X127254000Y-96477385D02*
X128194349Y-95537036D01*
X127254000Y-99371926D02*
X127254000Y-96477385D01*
X126111000Y-81534000D02*
X126111000Y-77597000D01*
X128194349Y-83617349D02*
X126111000Y-81534000D01*
X128840172Y-100124504D02*
X128006578Y-100124504D01*
X128006578Y-100124504D02*
X127254000Y-99371926D01*
X129326661Y-99638015D02*
X128840172Y-100124504D01*
X129326661Y-99571599D02*
X129326661Y-99638015D01*
X129794000Y-70866000D02*
X130218264Y-70866000D01*
X130218264Y-70866000D02*
X132207000Y-72854736D01*
X132207000Y-72854736D02*
X132207000Y-73406000D01*
X132207000Y-73279000D02*
X132207000Y-73406000D01*
X132207000Y-80919364D02*
X133167445Y-81879809D01*
X133167445Y-94813761D02*
X131516902Y-96464304D01*
X132207000Y-73406000D02*
X132207000Y-80919364D01*
X133167445Y-81879809D02*
X133167445Y-94813761D01*
X130464493Y-75242258D02*
X131851389Y-76629154D01*
X130040229Y-75242258D02*
X130464493Y-75242258D01*
X131851389Y-76629154D02*
X131851389Y-77444611D01*
X131851389Y-77089000D02*
X131851389Y-77444611D01*
X131862713Y-97150377D02*
X132162712Y-96850378D01*
X131186377Y-97150377D02*
X131862713Y-97150377D01*
X130937000Y-96901000D02*
X131186377Y-97150377D01*
X130937000Y-96260716D02*
X130937000Y-96901000D01*
X132811834Y-82027107D02*
X132811834Y-94385882D01*
X131851389Y-81066663D02*
X132811834Y-82027107D01*
X132811834Y-94385882D02*
X130937000Y-96260716D01*
X131851389Y-77444611D02*
X131851389Y-81066663D01*
X129901590Y-76826915D02*
X131140167Y-78065492D01*
X131140167Y-78065492D02*
X131140167Y-78943167D01*
X131140167Y-78740000D02*
X131140167Y-78943167D01*
X131140167Y-81361259D02*
X132100612Y-82321703D01*
X131140167Y-78943167D02*
X131140167Y-81361259D01*
X132100612Y-82321703D02*
X132100612Y-94091286D01*
X132100612Y-94091286D02*
X130006888Y-96185010D01*
X130006888Y-96185010D02*
X129476469Y-96185010D01*
X128549960Y-78905343D02*
X127000002Y-77355385D01*
X129858399Y-93986477D02*
X128549960Y-92678038D01*
X128549960Y-92678038D02*
X128549960Y-78905343D01*
X129858399Y-94911909D02*
X129858399Y-93986477D01*
X133523056Y-86129245D02*
X138546340Y-91152529D01*
X130048000Y-69723000D02*
X130048000Y-70147264D01*
X132588055Y-80797511D02*
X133523056Y-81732511D01*
X133523056Y-81732511D02*
X133523056Y-86129245D01*
X130048000Y-70147264D02*
X132588055Y-72687319D01*
X132588055Y-72687319D02*
X132588055Y-80797511D01*
X138635172Y-92096681D02*
X138935171Y-91796682D01*
X139192000Y-97033092D02*
X139192000Y-92868340D01*
X133583703Y-102641389D02*
X139192000Y-97033092D01*
X139192000Y-92868340D02*
X138635172Y-92311512D01*
X130402877Y-102641389D02*
X133583703Y-102641389D01*
X138635172Y-92311512D02*
X138635172Y-92096681D01*
X125725214Y-103632000D02*
X129412266Y-103632000D01*
X129412266Y-103632000D02*
X130402877Y-102641389D01*
X121666000Y-99572786D02*
X125725214Y-103632000D01*
X121666000Y-99568000D02*
X121666000Y-99572786D01*
X122174000Y-98806000D02*
X121412000Y-98806000D01*
X123027036Y-99659036D02*
X122174000Y-98806000D01*
X129600220Y-104013000D02*
X130616220Y-102997000D01*
X124475365Y-98881671D02*
X123698000Y-99659036D01*
X123698000Y-99659036D02*
X123027036Y-99659036D01*
X121031000Y-99187000D02*
X121031000Y-99949000D01*
X121031000Y-99949000D02*
X125095000Y-104013000D01*
X130616220Y-102997000D02*
X133731000Y-102997000D01*
X139573000Y-97155000D02*
X139573000Y-92429418D01*
X125095000Y-104013000D02*
X129600220Y-104013000D01*
X121412000Y-98806000D02*
X121031000Y-99187000D01*
X133731000Y-102997000D02*
X139573000Y-97155000D01*
X139573000Y-92429418D02*
X139472582Y-92329000D01*
D19*
X139446000Y-71953410D02*
X140335000Y-72842410D01*
X139446000Y-70231000D02*
X139446000Y-71953410D01*
X141986000Y-67691000D02*
X139446000Y-70231000D01*
X143510000Y-67691000D02*
X141986000Y-67691000D01*
X143510000Y-74643070D02*
X140589006Y-71722076D01*
X140589006Y-71722076D02*
X140589006Y-71247000D01*
X143510000Y-74643070D02*
X143510000Y-77017590D01*
X141400000Y-75300000D02*
X141400000Y-76600000D01*
X153822400Y-77978000D02*
X154635197Y-77165203D01*
X141400000Y-76600000D02*
X142778000Y-77978000D01*
X142778000Y-77978000D02*
X153822400Y-77978000D01*
X140600000Y-74500000D02*
X141400000Y-75300000D01*
X154261590Y-78638410D02*
X142504448Y-78638410D01*
X140300000Y-76433962D02*
X140300000Y-75300000D01*
X154432000Y-70993000D02*
X154432000Y-73914000D01*
X156083000Y-69342000D02*
X154432000Y-70993000D01*
X156083000Y-67691000D02*
X156083000Y-69342000D01*
X155900000Y-75382000D02*
X155900000Y-77000000D01*
X155900000Y-77000000D02*
X154261590Y-78638410D01*
X154432000Y-73914000D02*
X155900000Y-75382000D01*
X142504448Y-78638410D02*
X140300000Y-76433962D01*
X155829000Y-66294000D02*
X158369000Y-66294000D01*
X159766000Y-67691000D02*
X158369000Y-66294000D01*
X141224000Y-70612000D02*
X141605000Y-70231000D01*
X141605000Y-70231000D02*
X153543000Y-70231000D01*
X153543000Y-70231000D02*
X155067000Y-68707000D01*
X155067000Y-68707000D02*
X155067000Y-67056000D01*
X155067000Y-67056000D02*
X155829000Y-66294000D01*
D18*
X122047000Y-87503000D02*
X122047000Y-87122000D01*
X122047000Y-87383641D02*
X122047000Y-87503000D01*
X122047000Y-87122000D02*
X118999000Y-84074000D01*
X125603000Y-100203000D02*
X127127000Y-101727000D01*
X132207000Y-101727000D02*
X137033000Y-96901000D01*
X127127000Y-101727000D02*
X132207000Y-101727000D01*
X122047000Y-96774002D02*
X123571000Y-98298000D01*
X123571000Y-98298000D02*
X124968000Y-98298000D01*
X124968000Y-98298000D02*
X125603000Y-98933001D01*
X125603000Y-98933001D02*
X125603000Y-100203000D01*
X122047000Y-87503000D02*
X122047000Y-96774002D01*
X125552200Y-94311470D02*
X124907284Y-94956386D01*
X121623887Y-83654021D02*
X122426433Y-84456567D01*
X122426433Y-84456567D02*
X123572567Y-84456567D01*
X123572567Y-84456567D02*
X123574134Y-84455000D01*
X123574134Y-84455000D02*
X124460000Y-84455000D01*
X124460000Y-84455000D02*
X125603000Y-85598000D01*
X125603000Y-85598000D02*
X125603000Y-87757000D01*
X125603000Y-87757000D02*
X125552200Y-94311470D01*
D20*
G36*
X122636000Y-55587321D02*
G01*
X122636000Y-55721467D01*
X122662171Y-55853034D01*
X122713506Y-55976968D01*
X122788033Y-56088506D01*
X122882888Y-56183361D01*
X122994426Y-56257888D01*
X123118360Y-56309223D01*
X123249927Y-56335394D01*
X123384073Y-56335394D01*
X123456801Y-56320927D01*
X124668000Y-56320927D01*
X124668000Y-56455073D01*
X124694171Y-56586640D01*
X124745506Y-56710574D01*
X124820033Y-56822112D01*
X124914888Y-56916967D01*
X125026426Y-56991494D01*
X125150360Y-57042829D01*
X125281927Y-57069000D01*
X125416073Y-57069000D01*
X125547640Y-57042829D01*
X125671574Y-56991494D01*
X125783112Y-56916967D01*
X125877967Y-56822112D01*
X125952494Y-56710574D01*
X126003829Y-56586640D01*
X126030000Y-56455073D01*
X126030000Y-56320927D01*
X126003829Y-56189360D01*
X125952494Y-56065426D01*
X125877967Y-55953888D01*
X125783112Y-55859033D01*
X125671574Y-55784506D01*
X125547640Y-55733171D01*
X125416073Y-55707000D01*
X125281927Y-55707000D01*
X125150360Y-55733171D01*
X125026426Y-55784506D01*
X124914888Y-55859033D01*
X124820033Y-55953888D01*
X124745506Y-56065426D01*
X124694171Y-56189360D01*
X124668000Y-56320927D01*
X123456801Y-56320927D01*
X123515640Y-56309223D01*
X123639574Y-56257888D01*
X123751112Y-56183361D01*
X123845967Y-56088506D01*
X123920494Y-55976968D01*
X123971829Y-55853034D01*
X123998000Y-55721467D01*
X123998000Y-55587321D01*
X123971878Y-55456000D01*
X140873000Y-55456000D01*
X140873000Y-67905975D01*
X139019050Y-69759926D01*
X138994815Y-69779815D01*
X138915463Y-69876507D01*
X138856498Y-69986821D01*
X138820188Y-70106519D01*
X138811000Y-70199809D01*
X138811000Y-70199819D01*
X138807929Y-70231000D01*
X138811000Y-70262182D01*
X138811001Y-71922219D01*
X138807929Y-71953410D01*
X138811001Y-71984601D01*
X138811001Y-71984602D01*
X138818566Y-72061407D01*
X138820189Y-72077891D01*
X138856498Y-72197589D01*
X138904854Y-72288055D01*
X138915464Y-72307904D01*
X138994816Y-72404595D01*
X139019046Y-72424480D01*
X139711677Y-73117111D01*
X139731506Y-73164984D01*
X139806033Y-73276522D01*
X139900888Y-73371377D01*
X140012426Y-73445904D01*
X140136360Y-73497239D01*
X140179334Y-73505787D01*
X140162000Y-73592927D01*
X140162000Y-73727073D01*
X140188171Y-73858640D01*
X140219804Y-73935008D01*
X140165888Y-73971033D01*
X140071033Y-74065888D01*
X139996506Y-74177426D01*
X139945171Y-74301360D01*
X139919000Y-74432927D01*
X139919000Y-74567073D01*
X139945171Y-74698640D01*
X139951471Y-74713849D01*
X139865888Y-74771033D01*
X139771033Y-74865888D01*
X139696506Y-74977426D01*
X139645171Y-75101360D01*
X139619000Y-75232927D01*
X139619000Y-75367073D01*
X139645171Y-75498640D01*
X139665001Y-75546513D01*
X139665000Y-76402780D01*
X139661929Y-76433962D01*
X139665000Y-76465143D01*
X139665000Y-76465153D01*
X139674188Y-76558443D01*
X139710498Y-76678141D01*
X139769463Y-76788455D01*
X139848815Y-76885147D01*
X139873050Y-76905036D01*
X140873000Y-77904986D01*
X140873000Y-79462416D01*
X140863961Y-79448888D01*
X140769106Y-79354033D01*
X140657568Y-79279506D01*
X140533634Y-79228171D01*
X140402067Y-79202000D01*
X140267921Y-79202000D01*
X140136354Y-79228171D01*
X140012420Y-79279506D01*
X139900882Y-79354033D01*
X139806027Y-79448888D01*
X139731500Y-79560426D01*
X139680165Y-79684360D01*
X139653994Y-79815927D01*
X139653994Y-79912100D01*
X139632978Y-79951418D01*
X139605383Y-80042389D01*
X139599045Y-80106741D01*
X139596065Y-80136994D01*
X139598400Y-80160699D01*
X139598401Y-80826100D01*
X139373101Y-81051400D01*
X136167696Y-81051400D01*
X136143999Y-81049066D01*
X136120302Y-81051400D01*
X136120293Y-81051400D01*
X136049394Y-81058383D01*
X135958423Y-81085978D01*
X135874585Y-81130791D01*
X135801099Y-81191099D01*
X135785983Y-81209518D01*
X135311518Y-81683983D01*
X135293099Y-81699099D01*
X135232791Y-81772585D01*
X135187978Y-81856424D01*
X135160383Y-81947395D01*
X135154867Y-82003400D01*
X135151065Y-82042000D01*
X135153400Y-82065705D01*
X135153401Y-83944911D01*
X135152276Y-83946036D01*
X135086703Y-83946036D01*
X134955136Y-83972207D01*
X134831202Y-84023542D01*
X134719664Y-84098069D01*
X134624809Y-84192924D01*
X134550282Y-84304462D01*
X134498947Y-84428396D01*
X134472776Y-84559963D01*
X134472776Y-84694109D01*
X134477290Y-84716801D01*
X134399640Y-84664917D01*
X134275706Y-84613582D01*
X134144139Y-84587411D01*
X134009993Y-84587411D01*
X134005656Y-84588274D01*
X134005656Y-82069885D01*
X134068826Y-82112094D01*
X134192760Y-82163429D01*
X134324327Y-82189600D01*
X134458473Y-82189600D01*
X134590040Y-82163429D01*
X134713974Y-82112094D01*
X134825512Y-82037567D01*
X134920367Y-81942712D01*
X134994894Y-81831174D01*
X135046229Y-81707240D01*
X135072400Y-81575673D01*
X135072400Y-81441527D01*
X135046229Y-81309960D01*
X134994894Y-81186026D01*
X134920367Y-81074488D01*
X134825512Y-80979633D01*
X134713974Y-80905106D01*
X134590040Y-80853771D01*
X134504359Y-80836727D01*
X134488829Y-80758656D01*
X134437494Y-80634722D01*
X134362967Y-80523184D01*
X134268112Y-80428329D01*
X134156574Y-80353802D01*
X134032640Y-80302467D01*
X133901073Y-80276296D01*
X133766927Y-80276296D01*
X133635360Y-80302467D01*
X133511426Y-80353802D01*
X133399888Y-80428329D01*
X133305033Y-80523184D01*
X133230506Y-80634722D01*
X133194556Y-80721513D01*
X133070655Y-80597612D01*
X133070655Y-79180927D01*
X133431000Y-79180927D01*
X133431000Y-79315073D01*
X133457171Y-79446640D01*
X133508506Y-79570574D01*
X133583033Y-79682112D01*
X133677888Y-79776967D01*
X133789426Y-79851494D01*
X133913360Y-79902829D01*
X133956575Y-79911425D01*
X133965171Y-79954640D01*
X134016506Y-80078574D01*
X134091033Y-80190112D01*
X134185888Y-80284967D01*
X134297426Y-80359494D01*
X134421360Y-80410829D01*
X134464575Y-80419425D01*
X134473171Y-80462640D01*
X134524506Y-80586574D01*
X134599033Y-80698112D01*
X134693888Y-80792967D01*
X134805426Y-80867494D01*
X134929360Y-80918829D01*
X135060927Y-80945000D01*
X135195073Y-80945000D01*
X135326640Y-80918829D01*
X135450574Y-80867494D01*
X135562112Y-80792967D01*
X135656967Y-80698112D01*
X135731494Y-80586574D01*
X135782829Y-80462640D01*
X135809000Y-80331073D01*
X135809000Y-80196927D01*
X135782829Y-80065360D01*
X135731494Y-79941426D01*
X135656967Y-79829888D01*
X135562112Y-79735033D01*
X135450574Y-79660506D01*
X135326640Y-79609171D01*
X135283425Y-79600575D01*
X135274829Y-79557360D01*
X135223494Y-79433426D01*
X135191030Y-79384839D01*
X137223193Y-79384839D01*
X137223193Y-79518985D01*
X137249364Y-79650552D01*
X137300699Y-79774486D01*
X137375226Y-79886024D01*
X137470081Y-79980879D01*
X137537509Y-80025933D01*
X137521171Y-80065376D01*
X137495000Y-80196943D01*
X137495000Y-80331089D01*
X137521171Y-80462656D01*
X137572506Y-80586590D01*
X137647033Y-80698128D01*
X137741888Y-80792983D01*
X137853426Y-80867510D01*
X137977360Y-80918845D01*
X138108927Y-80945016D01*
X138243073Y-80945016D01*
X138374640Y-80918845D01*
X138498574Y-80867510D01*
X138610112Y-80792983D01*
X138704967Y-80698128D01*
X138779494Y-80586590D01*
X138830829Y-80462656D01*
X138857000Y-80331089D01*
X138857000Y-80196943D01*
X138830829Y-80065376D01*
X138779494Y-79941442D01*
X138704967Y-79829904D01*
X138610112Y-79735049D01*
X138542684Y-79689995D01*
X138559022Y-79650552D01*
X138585193Y-79518985D01*
X138585193Y-79384839D01*
X138559022Y-79253272D01*
X138507687Y-79129338D01*
X138433160Y-79017800D01*
X138338305Y-78922945D01*
X138226767Y-78848418D01*
X138102833Y-78797083D01*
X137971266Y-78770912D01*
X137837120Y-78770912D01*
X137705553Y-78797083D01*
X137581619Y-78848418D01*
X137470081Y-78922945D01*
X137375226Y-79017800D01*
X137300699Y-79129338D01*
X137249364Y-79253272D01*
X137223193Y-79384839D01*
X135191030Y-79384839D01*
X135148967Y-79321888D01*
X135054112Y-79227033D01*
X135021480Y-79205229D01*
X135088280Y-79191941D01*
X135212214Y-79140606D01*
X135323752Y-79066079D01*
X135418607Y-78971224D01*
X135493134Y-78859686D01*
X135544469Y-78735752D01*
X135570640Y-78604185D01*
X135570640Y-78470039D01*
X135544469Y-78338472D01*
X135493134Y-78214538D01*
X135437519Y-78131303D01*
X135470323Y-78082208D01*
X135521658Y-77958274D01*
X135547829Y-77826707D01*
X135547829Y-77692561D01*
X135521658Y-77560994D01*
X135470323Y-77437060D01*
X135422930Y-77366130D01*
X135464163Y-77304420D01*
X135515498Y-77180486D01*
X135541669Y-77048919D01*
X135541669Y-76914773D01*
X135515498Y-76783206D01*
X135464163Y-76659272D01*
X135389636Y-76547734D01*
X135294781Y-76452879D01*
X135183243Y-76378352D01*
X135174697Y-76374812D01*
X135179640Y-76373829D01*
X135303574Y-76322494D01*
X135415112Y-76247967D01*
X135509967Y-76153112D01*
X135584494Y-76041574D01*
X135635829Y-75917640D01*
X135662000Y-75786073D01*
X135662000Y-75651927D01*
X135635829Y-75520360D01*
X135584494Y-75396426D01*
X135532760Y-75319000D01*
X135584494Y-75241574D01*
X135635829Y-75117640D01*
X135662000Y-74986073D01*
X135662000Y-74851927D01*
X135635829Y-74720360D01*
X135584494Y-74596426D01*
X135577348Y-74585731D01*
X135609967Y-74553112D01*
X135684494Y-74441574D01*
X135735829Y-74317640D01*
X135762000Y-74186073D01*
X135762000Y-74051927D01*
X135735829Y-73920360D01*
X135684494Y-73796426D01*
X135609967Y-73684888D01*
X135515112Y-73590033D01*
X135403574Y-73515506D01*
X135348986Y-73492895D01*
X135417677Y-73446997D01*
X135512532Y-73352142D01*
X135587059Y-73240604D01*
X135638394Y-73116670D01*
X135664565Y-72985103D01*
X135664565Y-72850957D01*
X135638394Y-72719390D01*
X135587059Y-72595456D01*
X135512532Y-72483918D01*
X135442894Y-72414280D01*
X135456729Y-72380880D01*
X135482900Y-72249313D01*
X135482900Y-72115167D01*
X135456729Y-71983600D01*
X135405394Y-71859666D01*
X135390688Y-71837657D01*
X135463188Y-71729152D01*
X135514523Y-71605218D01*
X135540694Y-71473651D01*
X135540694Y-71339505D01*
X135514523Y-71207938D01*
X135463188Y-71084004D01*
X135388661Y-70972466D01*
X135293806Y-70877611D01*
X135182268Y-70803084D01*
X135058334Y-70751749D01*
X134926767Y-70725578D01*
X134792621Y-70725578D01*
X134661054Y-70751749D01*
X134537120Y-70803084D01*
X134425582Y-70877611D01*
X134330727Y-70972466D01*
X134256200Y-71084004D01*
X134204865Y-71207938D01*
X134178694Y-71339505D01*
X134178694Y-71473651D01*
X134204865Y-71605218D01*
X134256200Y-71729152D01*
X134270906Y-71751161D01*
X134198406Y-71859666D01*
X134147071Y-71983600D01*
X134120900Y-72115167D01*
X134120900Y-72249313D01*
X134147071Y-72380880D01*
X134198406Y-72504814D01*
X134272933Y-72616352D01*
X134342571Y-72685990D01*
X134328736Y-72719390D01*
X134302565Y-72850957D01*
X134302565Y-72985103D01*
X134328736Y-73116670D01*
X134380071Y-73240604D01*
X134454598Y-73352142D01*
X134549453Y-73446997D01*
X134660991Y-73521524D01*
X134715579Y-73544135D01*
X134646888Y-73590033D01*
X134552033Y-73684888D01*
X134477506Y-73796426D01*
X134426171Y-73920360D01*
X134400000Y-74051927D01*
X134400000Y-74186073D01*
X134426171Y-74317640D01*
X134477506Y-74441574D01*
X134484652Y-74452269D01*
X134452033Y-74484888D01*
X134377506Y-74596426D01*
X134326171Y-74720360D01*
X134300000Y-74851927D01*
X134300000Y-74986073D01*
X134326171Y-75117640D01*
X134377506Y-75241574D01*
X134429240Y-75319000D01*
X134377506Y-75396426D01*
X134326171Y-75520360D01*
X134300000Y-75651927D01*
X134300000Y-75786073D01*
X134326171Y-75917640D01*
X134377506Y-76041574D01*
X134452033Y-76153112D01*
X134546888Y-76247967D01*
X134658426Y-76322494D01*
X134666972Y-76326034D01*
X134662029Y-76327017D01*
X134538095Y-76378352D01*
X134426557Y-76452879D01*
X134331702Y-76547734D01*
X134257175Y-76659272D01*
X134205840Y-76783206D01*
X134179669Y-76914773D01*
X134179669Y-77048919D01*
X134205840Y-77180486D01*
X134257175Y-77304420D01*
X134304568Y-77375350D01*
X134263335Y-77437060D01*
X134212000Y-77560994D01*
X134185829Y-77692561D01*
X134185829Y-77826707D01*
X134212000Y-77958274D01*
X134263335Y-78082208D01*
X134318950Y-78165443D01*
X134286146Y-78214538D01*
X134234811Y-78338472D01*
X134208640Y-78470039D01*
X134208640Y-78572881D01*
X134179073Y-78567000D01*
X134044927Y-78567000D01*
X133913360Y-78593171D01*
X133789426Y-78644506D01*
X133677888Y-78719033D01*
X133583033Y-78813888D01*
X133508506Y-78925426D01*
X133457171Y-79049360D01*
X133431000Y-79180927D01*
X133070655Y-79180927D01*
X133070655Y-72711023D01*
X133072990Y-72687318D01*
X133070655Y-72663612D01*
X133063672Y-72592713D01*
X133036077Y-72501742D01*
X132991264Y-72417904D01*
X132930956Y-72344418D01*
X132912537Y-72329302D01*
X131222958Y-70639723D01*
X131262640Y-70631829D01*
X131381500Y-70582596D01*
X131500360Y-70631829D01*
X131631927Y-70658000D01*
X131766073Y-70658000D01*
X131897640Y-70631829D01*
X132021574Y-70580494D01*
X132133112Y-70505967D01*
X132227967Y-70411112D01*
X132302494Y-70299574D01*
X132353829Y-70175640D01*
X132380000Y-70044073D01*
X132380000Y-69909927D01*
X132353829Y-69778360D01*
X132304596Y-69659500D01*
X132353829Y-69540640D01*
X132380000Y-69409073D01*
X132380000Y-69274927D01*
X132353829Y-69143360D01*
X132302494Y-69019426D01*
X132227967Y-68907888D01*
X132133112Y-68813033D01*
X132021574Y-68738506D01*
X131897640Y-68687171D01*
X131766073Y-68661000D01*
X131631927Y-68661000D01*
X131500360Y-68687171D01*
X131381500Y-68736404D01*
X131262640Y-68687171D01*
X131131073Y-68661000D01*
X130996927Y-68661000D01*
X130865360Y-68687171D01*
X130741426Y-68738506D01*
X130629888Y-68813033D01*
X130535033Y-68907888D01*
X130460506Y-69019426D01*
X130409171Y-69143360D01*
X130408831Y-69145069D01*
X130370574Y-69119506D01*
X130246640Y-69068171D01*
X130225524Y-69063971D01*
X130243574Y-69056494D01*
X130355112Y-68981967D01*
X130449967Y-68887112D01*
X130524494Y-68775574D01*
X130575829Y-68651640D01*
X130602000Y-68520073D01*
X130602000Y-68385927D01*
X130575829Y-68254360D01*
X130524494Y-68130426D01*
X130449967Y-68018888D01*
X130355112Y-67924033D01*
X130243574Y-67849506D01*
X130119640Y-67798171D01*
X129988073Y-67772000D01*
X129853927Y-67772000D01*
X129722360Y-67798171D01*
X129598426Y-67849506D01*
X129486888Y-67924033D01*
X129440521Y-67970400D01*
X122455417Y-67970400D01*
X122402957Y-67891888D01*
X122402538Y-67891469D01*
X122481112Y-67838967D01*
X122575967Y-67744112D01*
X122650494Y-67632574D01*
X122701829Y-67508640D01*
X122728000Y-67377073D01*
X122728000Y-67242927D01*
X122701829Y-67111360D01*
X122650494Y-66987426D01*
X122575967Y-66875888D01*
X122481112Y-66781033D01*
X122412110Y-66734927D01*
X132923000Y-66734927D01*
X132923000Y-66869073D01*
X132949171Y-67000640D01*
X133000506Y-67124574D01*
X133075033Y-67236112D01*
X133169888Y-67330967D01*
X133281426Y-67405494D01*
X133405360Y-67456829D01*
X133536927Y-67483000D01*
X133671073Y-67483000D01*
X133802640Y-67456829D01*
X133923914Y-67406596D01*
X134040360Y-67454829D01*
X134102552Y-67467200D01*
X134095727Y-67467200D01*
X133964160Y-67493371D01*
X133840226Y-67544706D01*
X133728688Y-67619233D01*
X133633833Y-67714088D01*
X133559306Y-67825626D01*
X133515114Y-67932314D01*
X133408426Y-67976506D01*
X133296888Y-68051033D01*
X133202033Y-68145888D01*
X133127506Y-68257426D01*
X133076171Y-68381360D01*
X133050000Y-68512927D01*
X133050000Y-68647073D01*
X133076171Y-68778640D01*
X133127506Y-68902574D01*
X133202033Y-69014112D01*
X133296888Y-69108967D01*
X133408426Y-69183494D01*
X133532360Y-69234829D01*
X133663927Y-69261000D01*
X133798073Y-69261000D01*
X133929640Y-69234829D01*
X134053574Y-69183494D01*
X134165112Y-69108967D01*
X134259967Y-69014112D01*
X134334494Y-68902574D01*
X134378686Y-68795886D01*
X134485374Y-68751694D01*
X134596912Y-68677167D01*
X134691767Y-68582312D01*
X134766294Y-68470774D01*
X134817629Y-68346840D01*
X134843800Y-68215273D01*
X134843800Y-68081127D01*
X134817629Y-67949560D01*
X134766294Y-67825626D01*
X134691767Y-67714088D01*
X134596912Y-67619233D01*
X134485374Y-67544706D01*
X134361440Y-67493371D01*
X134299248Y-67481000D01*
X134306073Y-67481000D01*
X134437640Y-67454829D01*
X134556500Y-67405596D01*
X134675360Y-67454829D01*
X134806927Y-67481000D01*
X134941073Y-67481000D01*
X135072640Y-67454829D01*
X135196574Y-67403494D01*
X135308112Y-67328967D01*
X135402967Y-67234112D01*
X135477494Y-67122574D01*
X135528829Y-66998640D01*
X135555000Y-66867073D01*
X135555000Y-66780937D01*
X139272998Y-66780937D01*
X139272998Y-66915083D01*
X139299169Y-67046650D01*
X139350504Y-67170584D01*
X139425031Y-67282122D01*
X139519886Y-67376977D01*
X139631424Y-67451504D01*
X139755358Y-67502839D01*
X139886925Y-67529010D01*
X140021071Y-67529010D01*
X140152638Y-67502839D01*
X140276572Y-67451504D01*
X140388110Y-67376977D01*
X140482965Y-67282122D01*
X140557492Y-67170584D01*
X140608827Y-67046650D01*
X140634998Y-66915083D01*
X140634998Y-66780937D01*
X140608827Y-66649370D01*
X140557492Y-66525436D01*
X140482965Y-66413898D01*
X140388110Y-66319043D01*
X140276572Y-66244516D01*
X140152638Y-66193181D01*
X140021071Y-66167010D01*
X139886925Y-66167010D01*
X139755358Y-66193181D01*
X139631424Y-66244516D01*
X139519886Y-66319043D01*
X139425031Y-66413898D01*
X139350504Y-66525436D01*
X139299169Y-66649370D01*
X139272998Y-66780937D01*
X135555000Y-66780937D01*
X135555000Y-66732927D01*
X135528829Y-66601360D01*
X135477494Y-66477426D01*
X135402967Y-66365888D01*
X135308112Y-66271033D01*
X135196574Y-66196506D01*
X135072640Y-66145171D01*
X134941073Y-66119000D01*
X134806927Y-66119000D01*
X134675360Y-66145171D01*
X134556500Y-66194404D01*
X134437640Y-66145171D01*
X134306073Y-66119000D01*
X134171927Y-66119000D01*
X134040360Y-66145171D01*
X133919086Y-66195404D01*
X133802640Y-66147171D01*
X133671073Y-66121000D01*
X133536927Y-66121000D01*
X133405360Y-66147171D01*
X133281426Y-66198506D01*
X133169888Y-66273033D01*
X133075033Y-66367888D01*
X133000506Y-66479426D01*
X132949171Y-66603360D01*
X132923000Y-66734927D01*
X122412110Y-66734927D01*
X122369574Y-66706506D01*
X122245640Y-66655171D01*
X122114073Y-66629000D01*
X121979927Y-66629000D01*
X121863300Y-66652199D01*
X122796572Y-65718927D01*
X130510000Y-65718927D01*
X130510000Y-65853073D01*
X130536171Y-65984640D01*
X130587506Y-66108574D01*
X130662033Y-66220112D01*
X130756888Y-66314967D01*
X130868426Y-66389494D01*
X130992360Y-66440829D01*
X131123927Y-66467000D01*
X131258073Y-66467000D01*
X131389640Y-66440829D01*
X131480228Y-66403307D01*
X131518888Y-66441967D01*
X131630426Y-66516494D01*
X131754360Y-66567829D01*
X131885927Y-66594000D01*
X132020073Y-66594000D01*
X132151640Y-66567829D01*
X132275574Y-66516494D01*
X132387112Y-66441967D01*
X132481967Y-66347112D01*
X132556494Y-66235574D01*
X132607829Y-66111640D01*
X132634000Y-65980073D01*
X132634000Y-65845927D01*
X132607829Y-65714360D01*
X132556494Y-65590426D01*
X132481967Y-65478888D01*
X132387112Y-65384033D01*
X132275574Y-65309506D01*
X132151640Y-65258171D01*
X132020073Y-65232000D01*
X131885927Y-65232000D01*
X131754360Y-65258171D01*
X131663772Y-65295693D01*
X131625112Y-65257033D01*
X131513574Y-65182506D01*
X131389640Y-65131171D01*
X131258073Y-65105000D01*
X131123927Y-65105000D01*
X130992360Y-65131171D01*
X130868426Y-65182506D01*
X130756888Y-65257033D01*
X130662033Y-65351888D01*
X130587506Y-65463426D01*
X130536171Y-65587360D01*
X130510000Y-65718927D01*
X122796572Y-65718927D01*
X124066572Y-64448927D01*
X136225000Y-64448927D01*
X136225000Y-64583073D01*
X136251171Y-64714640D01*
X136302506Y-64838574D01*
X136377033Y-64950112D01*
X136471888Y-65044967D01*
X136583426Y-65119494D01*
X136707360Y-65170829D01*
X136838927Y-65197000D01*
X136973073Y-65197000D01*
X137104640Y-65170829D01*
X137228574Y-65119494D01*
X137340112Y-65044967D01*
X137434967Y-64950112D01*
X137509494Y-64838574D01*
X137560829Y-64714640D01*
X137587000Y-64583073D01*
X137587000Y-64448927D01*
X137560829Y-64317360D01*
X137509494Y-64193426D01*
X137434967Y-64081888D01*
X137340112Y-63987033D01*
X137228574Y-63912506D01*
X137104640Y-63861171D01*
X136973073Y-63835000D01*
X136838927Y-63835000D01*
X136707360Y-63861171D01*
X136583426Y-63912506D01*
X136471888Y-63987033D01*
X136377033Y-64081888D01*
X136302506Y-64193426D01*
X136251171Y-64317360D01*
X136225000Y-64448927D01*
X124066572Y-64448927D01*
X124786900Y-63728600D01*
X131802295Y-63728600D01*
X131826000Y-63730935D01*
X131849705Y-63728600D01*
X131849707Y-63728600D01*
X131920606Y-63721617D01*
X132011577Y-63694022D01*
X132095415Y-63649209D01*
X132168901Y-63588901D01*
X132184017Y-63570482D01*
X132956572Y-62797927D01*
X135336000Y-62797927D01*
X135336000Y-62932073D01*
X135362171Y-63063640D01*
X135413506Y-63187574D01*
X135488033Y-63299112D01*
X135582888Y-63393967D01*
X135694426Y-63468494D01*
X135818360Y-63519829D01*
X135949927Y-63546000D01*
X136084073Y-63546000D01*
X136215640Y-63519829D01*
X136339574Y-63468494D01*
X136451112Y-63393967D01*
X136545967Y-63299112D01*
X136620494Y-63187574D01*
X136671829Y-63063640D01*
X136698000Y-62932073D01*
X136698000Y-62797927D01*
X136671829Y-62666360D01*
X136620494Y-62542426D01*
X136567594Y-62463255D01*
X136593574Y-62452494D01*
X136705112Y-62377967D01*
X136799967Y-62283112D01*
X136874494Y-62171574D01*
X136925829Y-62047640D01*
X136952000Y-61916073D01*
X136952000Y-61781927D01*
X136925829Y-61650360D01*
X136874494Y-61526426D01*
X136799967Y-61414888D01*
X136705112Y-61320033D01*
X136593574Y-61245506D01*
X136469640Y-61194171D01*
X136338073Y-61168000D01*
X136203927Y-61168000D01*
X136072360Y-61194171D01*
X135948426Y-61245506D01*
X135836888Y-61320033D01*
X135742033Y-61414888D01*
X135667506Y-61526426D01*
X135616171Y-61650360D01*
X135590000Y-61781927D01*
X135590000Y-61916073D01*
X135616171Y-62047640D01*
X135667506Y-62171574D01*
X135720406Y-62250745D01*
X135694426Y-62261506D01*
X135582888Y-62336033D01*
X135488033Y-62430888D01*
X135413506Y-62542426D01*
X135362171Y-62666360D01*
X135336000Y-62797927D01*
X132956572Y-62797927D01*
X135226502Y-60527997D01*
X135244921Y-60512881D01*
X135305229Y-60439395D01*
X135350042Y-60355557D01*
X135377637Y-60264586D01*
X135384620Y-60193687D01*
X135384620Y-60193686D01*
X135386955Y-60169981D01*
X135384620Y-60146276D01*
X135384620Y-59075999D01*
X135397078Y-59069340D01*
X135546370Y-58946820D01*
X135668890Y-58797528D01*
X135759930Y-58627203D01*
X135815993Y-58442389D01*
X135830180Y-58298346D01*
X135830180Y-57701654D01*
X135870820Y-57701654D01*
X135870820Y-58298347D01*
X135885007Y-58442390D01*
X135941070Y-58627203D01*
X136032111Y-58797528D01*
X136154631Y-58946820D01*
X136303923Y-59069340D01*
X136474248Y-59160380D01*
X136659061Y-59216443D01*
X136851260Y-59235373D01*
X137043460Y-59216443D01*
X137228273Y-59160380D01*
X137398598Y-59069340D01*
X137547890Y-58946820D01*
X137670410Y-58797528D01*
X137761450Y-58627203D01*
X137817513Y-58442389D01*
X137831700Y-58298346D01*
X137831700Y-57701653D01*
X137817513Y-57557610D01*
X137761450Y-57372797D01*
X137670410Y-57202472D01*
X137547890Y-57053180D01*
X137398598Y-56930660D01*
X137228272Y-56839620D01*
X137043459Y-56783557D01*
X136851260Y-56764627D01*
X136659060Y-56783557D01*
X136474247Y-56839620D01*
X136303922Y-56930660D01*
X136154630Y-57053180D01*
X136032110Y-57202472D01*
X135941070Y-57372798D01*
X135885007Y-57557611D01*
X135870820Y-57701654D01*
X135830180Y-57701654D01*
X135830180Y-57701653D01*
X135815993Y-57557610D01*
X135759930Y-57372797D01*
X135668890Y-57202472D01*
X135546370Y-57053180D01*
X135397078Y-56930660D01*
X135226752Y-56839620D01*
X135041939Y-56783557D01*
X134849740Y-56764627D01*
X134657540Y-56783557D01*
X134472727Y-56839620D01*
X134302402Y-56930660D01*
X134153110Y-57053180D01*
X134030590Y-57202472D01*
X133939550Y-57372798D01*
X133883487Y-57557611D01*
X133869300Y-57701654D01*
X133869300Y-58298347D01*
X133883487Y-58442390D01*
X133901266Y-58501000D01*
X133796693Y-58501000D01*
X133814473Y-58442389D01*
X133828660Y-58298346D01*
X133828660Y-57701653D01*
X133814473Y-57557610D01*
X133758410Y-57372797D01*
X133667370Y-57202472D01*
X133544850Y-57053180D01*
X133395558Y-56930660D01*
X133225232Y-56839620D01*
X133040419Y-56783557D01*
X132848220Y-56764627D01*
X132656020Y-56783557D01*
X132471207Y-56839620D01*
X132300882Y-56930660D01*
X132151590Y-57053180D01*
X132029070Y-57202472D01*
X131938030Y-57372798D01*
X131881967Y-57557611D01*
X131867780Y-57701654D01*
X131867780Y-58298347D01*
X131881967Y-58442390D01*
X131938030Y-58627203D01*
X132029071Y-58797528D01*
X132151591Y-58946820D01*
X132300883Y-59069340D01*
X132471208Y-59160380D01*
X132656021Y-59216443D01*
X132848220Y-59235373D01*
X133040420Y-59216443D01*
X133177000Y-59175011D01*
X133177000Y-59249073D01*
X133203171Y-59380640D01*
X133254506Y-59504574D01*
X133329033Y-59616112D01*
X133423888Y-59710967D01*
X133535426Y-59785494D01*
X133659360Y-59836829D01*
X133790927Y-59863000D01*
X133925073Y-59863000D01*
X134056640Y-59836829D01*
X134180574Y-59785494D01*
X134292112Y-59710967D01*
X134386967Y-59616112D01*
X134419421Y-59567541D01*
X134419421Y-59970080D01*
X132117128Y-62272373D01*
X132157649Y-62211729D01*
X132208984Y-62087795D01*
X132235155Y-61956228D01*
X132235155Y-61822082D01*
X132208984Y-61690515D01*
X132157649Y-61566581D01*
X132156547Y-61564931D01*
X132175494Y-61536574D01*
X132226829Y-61412640D01*
X132253000Y-61281073D01*
X132253000Y-61146927D01*
X132226829Y-61015360D01*
X132175494Y-60891426D01*
X132100967Y-60779888D01*
X132006112Y-60685033D01*
X131894574Y-60610506D01*
X131770640Y-60559171D01*
X131639073Y-60533000D01*
X131504927Y-60533000D01*
X131373360Y-60559171D01*
X131249426Y-60610506D01*
X131137888Y-60685033D01*
X131043033Y-60779888D01*
X130968506Y-60891426D01*
X130917171Y-61015360D01*
X130891000Y-61146927D01*
X130891000Y-61281073D01*
X130917171Y-61412640D01*
X130968506Y-61536574D01*
X130969608Y-61538224D01*
X130950661Y-61566581D01*
X130899326Y-61690515D01*
X130873155Y-61822082D01*
X130873155Y-61956228D01*
X130899326Y-62087795D01*
X130950661Y-62211729D01*
X131025188Y-62323267D01*
X131120043Y-62418122D01*
X131231581Y-62492649D01*
X131355515Y-62543984D01*
X131487082Y-62570155D01*
X131621228Y-62570155D01*
X131752795Y-62543984D01*
X131876729Y-62492649D01*
X131937373Y-62452128D01*
X131626101Y-62763400D01*
X128546099Y-62763400D01*
X131226008Y-60083492D01*
X131244421Y-60068381D01*
X131304729Y-59994895D01*
X131349542Y-59911057D01*
X131352725Y-59900565D01*
X131377137Y-59820087D01*
X131386455Y-59725480D01*
X131384120Y-59701773D01*
X131384120Y-59075999D01*
X131396578Y-59069340D01*
X131545870Y-58946820D01*
X131668390Y-58797528D01*
X131759430Y-58627203D01*
X131815493Y-58442389D01*
X131829680Y-58298346D01*
X131829680Y-57701653D01*
X131815493Y-57557610D01*
X131759430Y-57372797D01*
X131668390Y-57202472D01*
X131545870Y-57053180D01*
X131396578Y-56930660D01*
X131226252Y-56839620D01*
X131041439Y-56783557D01*
X130849240Y-56764627D01*
X130657040Y-56783557D01*
X130472227Y-56839620D01*
X130301902Y-56930660D01*
X130152610Y-57053180D01*
X130030090Y-57202472D01*
X129939050Y-57372798D01*
X129882987Y-57557611D01*
X129868800Y-57701654D01*
X129868800Y-58298347D01*
X129882987Y-58442390D01*
X129939050Y-58627203D01*
X130030091Y-58797528D01*
X130152611Y-58946820D01*
X130301903Y-59069340D01*
X130418921Y-59131887D01*
X130418921Y-59525579D01*
X127963713Y-61980788D01*
X121708711Y-61980788D01*
X123050578Y-60638921D01*
X124414000Y-60638921D01*
X124414000Y-60773067D01*
X124440171Y-60904634D01*
X124491506Y-61028568D01*
X124566033Y-61140106D01*
X124660888Y-61234961D01*
X124772426Y-61309488D01*
X124896360Y-61360823D01*
X125027927Y-61386994D01*
X125162073Y-61386994D01*
X125293640Y-61360823D01*
X125412493Y-61311593D01*
X125531360Y-61360829D01*
X125662927Y-61387000D01*
X125797073Y-61387000D01*
X125928640Y-61360829D01*
X126047500Y-61311596D01*
X126166360Y-61360829D01*
X126297927Y-61387000D01*
X126432073Y-61387000D01*
X126563640Y-61360829D01*
X126687574Y-61309494D01*
X126799112Y-61234967D01*
X126893967Y-61140112D01*
X126968494Y-61028574D01*
X127019829Y-60904640D01*
X127046000Y-60773073D01*
X127046000Y-60638927D01*
X127020739Y-60511931D01*
X127208000Y-60511931D01*
X127208000Y-60646077D01*
X127234171Y-60777644D01*
X127285506Y-60901578D01*
X127360033Y-61013116D01*
X127454888Y-61107971D01*
X127566426Y-61182498D01*
X127690360Y-61233833D01*
X127821927Y-61260004D01*
X127956073Y-61260004D01*
X128087640Y-61233833D01*
X128211574Y-61182498D01*
X128323112Y-61107971D01*
X128417967Y-61013116D01*
X128492494Y-60901578D01*
X128543829Y-60777644D01*
X128570000Y-60646077D01*
X128570000Y-60511931D01*
X128543829Y-60380364D01*
X128492494Y-60256430D01*
X128417967Y-60144892D01*
X128323112Y-60050037D01*
X128211574Y-59975510D01*
X128087640Y-59924175D01*
X127956073Y-59898004D01*
X127821927Y-59898004D01*
X127690360Y-59924175D01*
X127566426Y-59975510D01*
X127454888Y-60050037D01*
X127360033Y-60144892D01*
X127285506Y-60256430D01*
X127234171Y-60380364D01*
X127208000Y-60511931D01*
X127020739Y-60511931D01*
X127019829Y-60507360D01*
X126968494Y-60383426D01*
X126893967Y-60271888D01*
X126799112Y-60177033D01*
X126687574Y-60102506D01*
X126563640Y-60051171D01*
X126432073Y-60025000D01*
X126297927Y-60025000D01*
X126166360Y-60051171D01*
X126047500Y-60100404D01*
X125928640Y-60051171D01*
X125797073Y-60025000D01*
X125662927Y-60025000D01*
X125531360Y-60051171D01*
X125412507Y-60100401D01*
X125293640Y-60051165D01*
X125162073Y-60024994D01*
X125027927Y-60024994D01*
X124896360Y-60051165D01*
X124772426Y-60102500D01*
X124660888Y-60177027D01*
X124566033Y-60271882D01*
X124491506Y-60383420D01*
X124440171Y-60507354D01*
X124414000Y-60638921D01*
X123050578Y-60638921D01*
X124532904Y-59156596D01*
X124995521Y-59156596D01*
X125041888Y-59202963D01*
X125153426Y-59277490D01*
X125277360Y-59328825D01*
X125408927Y-59354996D01*
X125543073Y-59354996D01*
X125674640Y-59328825D01*
X125798574Y-59277490D01*
X125910112Y-59202963D01*
X125985213Y-59127862D01*
X126034064Y-59167952D01*
X126100252Y-59203331D01*
X126172071Y-59225117D01*
X126246760Y-59232473D01*
X127445640Y-59232473D01*
X127520329Y-59225117D01*
X127592148Y-59203331D01*
X127658336Y-59167952D01*
X127716351Y-59120341D01*
X127763962Y-59062326D01*
X127799341Y-58996138D01*
X127821127Y-58924319D01*
X127828483Y-58849630D01*
X127828483Y-57701654D01*
X127867280Y-57701654D01*
X127867280Y-58298347D01*
X127881467Y-58442390D01*
X127937530Y-58627203D01*
X128028571Y-58797528D01*
X128151091Y-58946820D01*
X128300383Y-59069340D01*
X128470708Y-59160380D01*
X128655521Y-59216443D01*
X128847720Y-59235373D01*
X129039920Y-59216443D01*
X129224733Y-59160380D01*
X129395058Y-59069340D01*
X129544350Y-58946820D01*
X129666870Y-58797528D01*
X129757910Y-58627203D01*
X129813973Y-58442389D01*
X129828160Y-58298346D01*
X129828160Y-57701653D01*
X129813973Y-57557610D01*
X129757910Y-57372797D01*
X129666870Y-57202472D01*
X129544350Y-57053180D01*
X129395058Y-56930660D01*
X129224732Y-56839620D01*
X129039919Y-56783557D01*
X128847720Y-56764627D01*
X128655520Y-56783557D01*
X128470707Y-56839620D01*
X128300382Y-56930660D01*
X128151090Y-57053180D01*
X128028570Y-57202472D01*
X127937530Y-57372798D01*
X127881467Y-57557611D01*
X127867280Y-57701654D01*
X127828483Y-57701654D01*
X127828483Y-57150370D01*
X127821127Y-57075681D01*
X127799341Y-57003862D01*
X127763962Y-56937674D01*
X127716351Y-56879659D01*
X127658336Y-56832048D01*
X127592148Y-56796669D01*
X127520329Y-56774883D01*
X127445640Y-56767527D01*
X126246760Y-56767527D01*
X126172071Y-56774883D01*
X126100252Y-56796669D01*
X126034064Y-56832048D01*
X125976049Y-56879659D01*
X125928438Y-56937674D01*
X125893059Y-57003862D01*
X125871273Y-57075681D01*
X125863917Y-57150370D01*
X125863917Y-58114163D01*
X125798574Y-58070502D01*
X125674640Y-58019167D01*
X125543073Y-57992996D01*
X125408927Y-57992996D01*
X125277360Y-58019167D01*
X125153426Y-58070502D01*
X125041888Y-58145029D01*
X124995521Y-58191396D01*
X124356708Y-58191396D01*
X124333003Y-58189061D01*
X124309298Y-58191396D01*
X124309297Y-58191396D01*
X124238398Y-58198379D01*
X124147427Y-58225974D01*
X124063589Y-58270787D01*
X123990103Y-58331095D01*
X123974992Y-58349508D01*
X122552480Y-59772021D01*
X122568065Y-59734394D01*
X122600000Y-59573846D01*
X122600000Y-59410154D01*
X122568065Y-59249606D01*
X122505423Y-59098374D01*
X122414480Y-58962268D01*
X122298732Y-58846520D01*
X122162626Y-58755577D01*
X122011394Y-58692935D01*
X121850846Y-58661000D01*
X121687154Y-58661000D01*
X121526606Y-58692935D01*
X121375374Y-58755577D01*
X121239268Y-58846520D01*
X121123520Y-58962268D01*
X121032577Y-59098374D01*
X120969935Y-59249606D01*
X120938000Y-59410154D01*
X120938000Y-59573846D01*
X120969935Y-59734394D01*
X121032577Y-59885626D01*
X121123520Y-60021732D01*
X121239268Y-60137480D01*
X121375374Y-60228423D01*
X121526606Y-60291065D01*
X121687154Y-60323000D01*
X121850846Y-60323000D01*
X122011394Y-60291065D01*
X122049021Y-60275480D01*
X119436514Y-62887987D01*
X119418100Y-62903099D01*
X119402989Y-62921512D01*
X119402987Y-62921514D01*
X119357792Y-62976585D01*
X119312978Y-63060424D01*
X119285384Y-63151394D01*
X119276065Y-63246000D01*
X119278401Y-63269715D01*
X119278400Y-74943623D01*
X119197640Y-74910171D01*
X119066073Y-74884000D01*
X118931927Y-74884000D01*
X118800360Y-74910171D01*
X118676426Y-74961506D01*
X118564888Y-75036033D01*
X118470033Y-75130888D01*
X118395506Y-75242426D01*
X118344171Y-75366360D01*
X118318000Y-75497927D01*
X118318000Y-75632073D01*
X118344171Y-75763640D01*
X118395506Y-75887574D01*
X118470033Y-75999112D01*
X118564888Y-76093967D01*
X118676426Y-76168494D01*
X118800360Y-76219829D01*
X118931927Y-76246000D01*
X119066073Y-76246000D01*
X119197640Y-76219829D01*
X119278400Y-76186377D01*
X119278400Y-83452623D01*
X119197640Y-83419171D01*
X119147350Y-83409167D01*
X119199443Y-83237440D01*
X119218373Y-83045240D01*
X119199443Y-82853040D01*
X119143380Y-82668227D01*
X119052340Y-82497902D01*
X118929820Y-82348610D01*
X118780528Y-82226090D01*
X118610203Y-82135050D01*
X118425390Y-82078987D01*
X118281347Y-82064800D01*
X117684653Y-82064800D01*
X117540610Y-82078987D01*
X117355797Y-82135050D01*
X117185472Y-82226090D01*
X117036180Y-82348610D01*
X116913660Y-82497902D01*
X116822620Y-82668227D01*
X116766557Y-82853040D01*
X116747627Y-83045240D01*
X116766557Y-83237440D01*
X116822620Y-83422253D01*
X116913660Y-83592578D01*
X117036180Y-83741870D01*
X117185472Y-83864390D01*
X117355797Y-83955430D01*
X117540610Y-84011493D01*
X117684653Y-84025680D01*
X118281347Y-84025680D01*
X118318000Y-84022070D01*
X118318000Y-84072470D01*
X118281347Y-84068860D01*
X117684653Y-84068860D01*
X117540610Y-84083047D01*
X117355797Y-84139110D01*
X117185472Y-84230150D01*
X117036180Y-84352670D01*
X116913660Y-84501962D01*
X116822620Y-84672287D01*
X116766557Y-84857100D01*
X116747627Y-85049300D01*
X116766557Y-85241500D01*
X116822620Y-85426313D01*
X116913660Y-85596638D01*
X117036180Y-85745930D01*
X117185472Y-85868450D01*
X117355797Y-85959490D01*
X117540610Y-86015553D01*
X117684653Y-86029740D01*
X118281347Y-86029740D01*
X118407925Y-86017273D01*
X118436091Y-86085273D01*
X118425390Y-86082027D01*
X118281347Y-86067840D01*
X117684653Y-86067840D01*
X117540610Y-86082027D01*
X117355797Y-86138090D01*
X117185472Y-86229130D01*
X117036180Y-86351650D01*
X116913660Y-86500942D01*
X116822620Y-86671267D01*
X116766557Y-86856080D01*
X116747627Y-87048280D01*
X116766557Y-87240480D01*
X116822620Y-87425293D01*
X116913660Y-87595618D01*
X117036180Y-87744910D01*
X117185472Y-87867430D01*
X117355797Y-87958470D01*
X117540610Y-88014533D01*
X117684653Y-88028720D01*
X118281347Y-88028720D01*
X118425390Y-88014533D01*
X118610203Y-87958470D01*
X118780528Y-87867430D01*
X118929820Y-87744910D01*
X119052340Y-87595618D01*
X119143380Y-87425293D01*
X119199443Y-87240480D01*
X119218373Y-87048280D01*
X119199443Y-86856080D01*
X119143380Y-86671267D01*
X119052340Y-86500942D01*
X119046949Y-86494373D01*
X119127648Y-86494373D01*
X119259215Y-86468202D01*
X119383149Y-86416867D01*
X119494687Y-86342340D01*
X119589542Y-86247485D01*
X119664069Y-86135947D01*
X119715404Y-86012013D01*
X119741575Y-85880446D01*
X119741575Y-85746300D01*
X119715404Y-85614733D01*
X119664069Y-85490799D01*
X119589542Y-85379261D01*
X119494687Y-85284406D01*
X119383149Y-85209879D01*
X119259215Y-85158544D01*
X119208605Y-85148477D01*
X119218373Y-85049300D01*
X119210351Y-84967850D01*
X121564400Y-87321900D01*
X121564400Y-90373175D01*
X121550483Y-90370407D01*
X121416337Y-90370407D01*
X121284770Y-90396578D01*
X121160836Y-90447913D01*
X121049298Y-90522440D01*
X120954443Y-90617295D01*
X120879916Y-90728833D01*
X120828581Y-90852767D01*
X120802410Y-90984334D01*
X120802410Y-91118480D01*
X120828581Y-91250047D01*
X120879916Y-91373981D01*
X120918774Y-91432137D01*
X120837023Y-91513888D01*
X120762496Y-91625426D01*
X120711161Y-91749360D01*
X120684990Y-91880927D01*
X120684990Y-92015073D01*
X120711161Y-92146640D01*
X120762159Y-92269762D01*
X120756033Y-92275888D01*
X120681506Y-92387426D01*
X120630171Y-92511360D01*
X120616870Y-92578226D01*
X120503621Y-92578226D01*
X120372054Y-92604397D01*
X120248120Y-92655732D01*
X120136582Y-92730259D01*
X120041727Y-92825114D01*
X119967200Y-92936652D01*
X119915865Y-93060586D01*
X119889694Y-93192153D01*
X119889694Y-93326299D01*
X119915865Y-93457866D01*
X119967200Y-93581800D01*
X120041727Y-93693338D01*
X120136582Y-93788193D01*
X120248120Y-93862720D01*
X120372054Y-93914055D01*
X120503621Y-93940226D01*
X120637767Y-93940226D01*
X120769334Y-93914055D01*
X120893268Y-93862720D01*
X121004806Y-93788193D01*
X121099661Y-93693338D01*
X121174188Y-93581800D01*
X121225523Y-93457866D01*
X121238824Y-93391000D01*
X121352073Y-93391000D01*
X121483640Y-93364829D01*
X121564401Y-93331377D01*
X121564401Y-96750285D01*
X121562065Y-96774002D01*
X121571384Y-96868608D01*
X121598978Y-96959578D01*
X121624344Y-97007033D01*
X121643792Y-97043417D01*
X121704100Y-97116903D01*
X121722519Y-97132019D01*
X121888606Y-97298106D01*
X121851426Y-97313506D01*
X121739888Y-97388033D01*
X121645033Y-97482888D01*
X121570506Y-97594426D01*
X121519171Y-97718360D01*
X121493000Y-97849927D01*
X121493000Y-97984073D01*
X121519171Y-98115640D01*
X121570506Y-98239574D01*
X121626517Y-98323400D01*
X121435696Y-98323400D01*
X121411999Y-98321066D01*
X121388302Y-98323400D01*
X121388293Y-98323400D01*
X121317394Y-98330383D01*
X121226423Y-98357978D01*
X121142585Y-98402791D01*
X121069099Y-98463099D01*
X121053983Y-98481518D01*
X120706518Y-98828983D01*
X120688099Y-98844099D01*
X120627791Y-98917585D01*
X120582978Y-99001424D01*
X120555383Y-99092395D01*
X120548488Y-99162399D01*
X120546065Y-99187000D01*
X120548400Y-99210705D01*
X120548401Y-99925286D01*
X120546065Y-99949000D01*
X120555384Y-100043606D01*
X120582978Y-100134576D01*
X120598121Y-100162906D01*
X120627792Y-100218415D01*
X120688100Y-100291901D01*
X120706513Y-100307012D01*
X124736988Y-104337488D01*
X124752099Y-104355901D01*
X124825585Y-104416209D01*
X124909423Y-104461022D01*
X125000393Y-104488617D01*
X125095000Y-104497935D01*
X125118707Y-104495600D01*
X129576515Y-104495600D01*
X129600220Y-104497935D01*
X129623925Y-104495600D01*
X129623927Y-104495600D01*
X129694826Y-104488617D01*
X129785797Y-104461022D01*
X129869635Y-104416209D01*
X129943121Y-104355901D01*
X129958237Y-104337482D01*
X130171546Y-104124173D01*
X130206506Y-104208574D01*
X130281033Y-104320112D01*
X130375888Y-104414967D01*
X130487426Y-104489494D01*
X130611360Y-104540829D01*
X130742927Y-104567000D01*
X130877073Y-104567000D01*
X131008640Y-104540829D01*
X131132574Y-104489494D01*
X131244112Y-104414967D01*
X131338967Y-104320112D01*
X131413494Y-104208574D01*
X131464829Y-104084640D01*
X131491000Y-103953073D01*
X131491000Y-103818927D01*
X131464829Y-103687360D01*
X131413494Y-103563426D01*
X131357483Y-103479600D01*
X133707295Y-103479600D01*
X133731000Y-103481935D01*
X133754705Y-103479600D01*
X133754707Y-103479600D01*
X133825606Y-103472617D01*
X133916577Y-103445022D01*
X134000415Y-103400209D01*
X134073901Y-103339901D01*
X134089017Y-103321482D01*
X135212572Y-102197927D01*
X135917600Y-102197927D01*
X135917600Y-102332073D01*
X135943771Y-102463640D01*
X135995106Y-102587574D01*
X136069633Y-102699112D01*
X136164488Y-102793967D01*
X136276026Y-102868494D01*
X136399960Y-102919829D01*
X136531527Y-102946000D01*
X136665673Y-102946000D01*
X136797240Y-102919829D01*
X136921174Y-102868494D01*
X137032712Y-102793967D01*
X137127567Y-102699112D01*
X137202094Y-102587574D01*
X137253429Y-102463640D01*
X137279600Y-102332073D01*
X137279600Y-102197927D01*
X137253429Y-102066360D01*
X137202094Y-101942426D01*
X137127567Y-101830888D01*
X137032712Y-101736033D01*
X136921174Y-101661506D01*
X136797240Y-101610171D01*
X136665673Y-101584000D01*
X136531527Y-101584000D01*
X136399960Y-101610171D01*
X136276026Y-101661506D01*
X136164488Y-101736033D01*
X136069633Y-101830888D01*
X135995106Y-101942426D01*
X135943771Y-102066360D01*
X135917600Y-102197927D01*
X135212572Y-102197927D01*
X139544001Y-97866499D01*
X139544000Y-106373000D01*
X128836044Y-106373000D01*
X128916515Y-106319231D01*
X129011370Y-106224376D01*
X129085897Y-106112838D01*
X129137232Y-105988904D01*
X129163403Y-105857337D01*
X129163403Y-105723191D01*
X129138287Y-105596927D01*
X130256000Y-105596927D01*
X130256000Y-105731073D01*
X130282171Y-105862640D01*
X130333506Y-105986574D01*
X130408033Y-106098112D01*
X130502888Y-106192967D01*
X130614426Y-106267494D01*
X130738360Y-106318829D01*
X130869927Y-106345000D01*
X131004073Y-106345000D01*
X131135640Y-106318829D01*
X131259574Y-106267494D01*
X131371112Y-106192967D01*
X131465967Y-106098112D01*
X131540494Y-105986574D01*
X131591829Y-105862640D01*
X131618000Y-105731073D01*
X131618000Y-105596927D01*
X131591829Y-105465360D01*
X131540494Y-105341426D01*
X131465967Y-105229888D01*
X131371112Y-105135033D01*
X131259574Y-105060506D01*
X131135640Y-105009171D01*
X131004073Y-104983000D01*
X130869927Y-104983000D01*
X130738360Y-105009171D01*
X130614426Y-105060506D01*
X130502888Y-105135033D01*
X130408033Y-105229888D01*
X130333506Y-105341426D01*
X130282171Y-105465360D01*
X130256000Y-105596927D01*
X129138287Y-105596927D01*
X129137232Y-105591624D01*
X129085897Y-105467690D01*
X129011370Y-105356152D01*
X128916515Y-105261297D01*
X128804977Y-105186770D01*
X128681043Y-105135435D01*
X128549476Y-105109264D01*
X128415330Y-105109264D01*
X128283763Y-105135435D01*
X128159829Y-105186770D01*
X128048291Y-105261297D01*
X127953436Y-105356152D01*
X127878909Y-105467690D01*
X127827574Y-105591624D01*
X127801403Y-105723191D01*
X127801403Y-105857337D01*
X127827574Y-105988904D01*
X127878909Y-106112838D01*
X127953436Y-106224376D01*
X128048291Y-106319231D01*
X128128762Y-106373000D01*
X127300000Y-106373000D01*
X127300000Y-105904269D01*
X127286529Y-105767492D01*
X127233293Y-105591998D01*
X127146843Y-105430262D01*
X127030501Y-105288499D01*
X126888738Y-105172157D01*
X126727002Y-105085707D01*
X126551508Y-105032471D01*
X126369000Y-105014496D01*
X126186493Y-105032471D01*
X126010999Y-105085707D01*
X125849263Y-105172157D01*
X125707500Y-105288499D01*
X125591158Y-105430262D01*
X125504708Y-105591998D01*
X125451471Y-105767492D01*
X125438000Y-105904269D01*
X125438000Y-106373000D01*
X115127000Y-106373000D01*
X115127000Y-103603600D01*
X116767527Y-103603600D01*
X116767527Y-104802480D01*
X116774883Y-104877169D01*
X116796669Y-104948988D01*
X116832048Y-105015176D01*
X116879659Y-105073191D01*
X116937674Y-105120802D01*
X117003862Y-105156181D01*
X117075681Y-105177967D01*
X117150370Y-105185323D01*
X118849630Y-105185323D01*
X118924319Y-105177967D01*
X118996138Y-105156181D01*
X119062326Y-105120802D01*
X119120341Y-105073191D01*
X119167952Y-105015176D01*
X119203331Y-104948988D01*
X119225117Y-104877169D01*
X119232473Y-104802480D01*
X119232473Y-103603600D01*
X119225117Y-103528911D01*
X119203331Y-103457092D01*
X119167952Y-103390904D01*
X119120341Y-103332889D01*
X119062326Y-103285278D01*
X118996138Y-103249899D01*
X118924319Y-103228113D01*
X118849630Y-103220757D01*
X117150370Y-103220757D01*
X117075681Y-103228113D01*
X117003862Y-103249899D01*
X116937674Y-103285278D01*
X116879659Y-103332889D01*
X116832048Y-103390904D01*
X116796669Y-103457092D01*
X116774883Y-103528911D01*
X116767527Y-103603600D01*
X115127000Y-103603600D01*
X115127000Y-102201520D01*
X116764627Y-102201520D01*
X116783557Y-102393720D01*
X116839620Y-102578533D01*
X116930660Y-102748858D01*
X117053180Y-102898150D01*
X117202472Y-103020670D01*
X117372797Y-103111710D01*
X117557610Y-103167773D01*
X117701653Y-103181960D01*
X118298347Y-103181960D01*
X118442390Y-103167773D01*
X118627203Y-103111710D01*
X118797528Y-103020670D01*
X118946820Y-102898150D01*
X119069340Y-102748858D01*
X119160380Y-102578533D01*
X119216443Y-102393720D01*
X119235373Y-102201520D01*
X119216443Y-102009320D01*
X119160380Y-101824507D01*
X119069340Y-101654182D01*
X118946820Y-101504890D01*
X118797528Y-101382370D01*
X118627203Y-101291330D01*
X118442390Y-101235267D01*
X118298347Y-101221080D01*
X117701653Y-101221080D01*
X117557610Y-101235267D01*
X117372797Y-101291330D01*
X117202472Y-101382370D01*
X117053180Y-101504890D01*
X116930660Y-101654182D01*
X116839620Y-101824507D01*
X116783557Y-102009320D01*
X116764627Y-102201520D01*
X115127000Y-102201520D01*
X115127000Y-100200000D01*
X116764627Y-100200000D01*
X116783557Y-100392200D01*
X116839620Y-100577013D01*
X116930660Y-100747338D01*
X117053180Y-100896630D01*
X117202472Y-101019150D01*
X117372797Y-101110190D01*
X117557610Y-101166253D01*
X117701653Y-101180440D01*
X118298347Y-101180440D01*
X118442390Y-101166253D01*
X118627203Y-101110190D01*
X118797528Y-101019150D01*
X118946820Y-100896630D01*
X118966057Y-100873189D01*
X118978033Y-100891112D01*
X119072888Y-100985967D01*
X119184426Y-101060494D01*
X119308360Y-101111829D01*
X119439927Y-101138000D01*
X119574073Y-101138000D01*
X119705640Y-101111829D01*
X119829574Y-101060494D01*
X119941112Y-100985967D01*
X120035967Y-100891112D01*
X120110494Y-100779574D01*
X120161829Y-100655640D01*
X120188000Y-100524073D01*
X120188000Y-100389927D01*
X120161829Y-100258360D01*
X120110494Y-100134426D01*
X120035967Y-100022888D01*
X119941112Y-99928033D01*
X119829574Y-99853506D01*
X119705640Y-99802171D01*
X119574073Y-99776000D01*
X119439927Y-99776000D01*
X119308360Y-99802171D01*
X119184426Y-99853506D01*
X119172130Y-99861722D01*
X119160380Y-99822987D01*
X119069340Y-99652662D01*
X118946820Y-99503370D01*
X118797528Y-99380850D01*
X118627203Y-99289810D01*
X118442390Y-99233747D01*
X118298347Y-99219560D01*
X117701653Y-99219560D01*
X117557610Y-99233747D01*
X117372797Y-99289810D01*
X117202472Y-99380850D01*
X117053180Y-99503370D01*
X116930660Y-99652662D01*
X116839620Y-99822987D01*
X116783557Y-100007800D01*
X116764627Y-100200000D01*
X115127000Y-100200000D01*
X115127000Y-98648072D01*
X118906990Y-98648072D01*
X118906990Y-98782218D01*
X118933161Y-98913785D01*
X118984496Y-99037719D01*
X119059023Y-99149257D01*
X119153878Y-99244112D01*
X119265416Y-99318639D01*
X119389350Y-99369974D01*
X119520917Y-99396145D01*
X119655063Y-99396145D01*
X119786630Y-99369974D01*
X119910564Y-99318639D01*
X120022102Y-99244112D01*
X120116957Y-99149257D01*
X120191484Y-99037719D01*
X120242819Y-98913785D01*
X120268990Y-98782218D01*
X120268990Y-98648072D01*
X120242819Y-98516505D01*
X120191484Y-98392571D01*
X120116957Y-98281033D01*
X120022102Y-98186178D01*
X119910564Y-98111651D01*
X119786630Y-98060316D01*
X119655063Y-98034145D01*
X119520917Y-98034145D01*
X119389350Y-98060316D01*
X119265416Y-98111651D01*
X119153878Y-98186178D01*
X119059023Y-98281033D01*
X118984496Y-98392571D01*
X118933161Y-98516505D01*
X118906990Y-98648072D01*
X115127000Y-98648072D01*
X115127000Y-97468927D01*
X116319000Y-97468927D01*
X116319000Y-97603073D01*
X116345171Y-97734640D01*
X116396506Y-97858574D01*
X116471033Y-97970112D01*
X116565888Y-98064967D01*
X116677426Y-98139494D01*
X116801360Y-98190829D01*
X116932927Y-98217000D01*
X117067073Y-98217000D01*
X117198640Y-98190829D01*
X117322574Y-98139494D01*
X117434112Y-98064967D01*
X117528967Y-97970112D01*
X117603494Y-97858574D01*
X117654829Y-97734640D01*
X117681000Y-97603073D01*
X117681000Y-97468927D01*
X117654829Y-97337360D01*
X117603494Y-97213426D01*
X117528967Y-97101888D01*
X117434112Y-97007033D01*
X117322574Y-96932506D01*
X117198640Y-96881171D01*
X117067073Y-96855000D01*
X116932927Y-96855000D01*
X116801360Y-96881171D01*
X116677426Y-96932506D01*
X116565888Y-97007033D01*
X116471033Y-97101888D01*
X116396506Y-97213426D01*
X116345171Y-97337360D01*
X116319000Y-97468927D01*
X115127000Y-97468927D01*
X115127000Y-94801927D01*
X116794000Y-94801927D01*
X116794000Y-94936073D01*
X116820171Y-95067640D01*
X116871506Y-95191574D01*
X116946033Y-95303112D01*
X117040888Y-95397967D01*
X117152426Y-95472494D01*
X117276360Y-95523829D01*
X117407927Y-95550000D01*
X117542073Y-95550000D01*
X117673640Y-95523829D01*
X117797574Y-95472494D01*
X117909112Y-95397967D01*
X118003967Y-95303112D01*
X118078494Y-95191574D01*
X118129829Y-95067640D01*
X118156000Y-94936073D01*
X118156000Y-94801927D01*
X118445000Y-94801927D01*
X118445000Y-94936073D01*
X118471171Y-95067640D01*
X118522506Y-95191574D01*
X118597033Y-95303112D01*
X118691888Y-95397967D01*
X118803426Y-95472494D01*
X118927360Y-95523829D01*
X119058927Y-95550000D01*
X119193073Y-95550000D01*
X119324640Y-95523829D01*
X119448574Y-95472494D01*
X119560112Y-95397967D01*
X119654967Y-95303112D01*
X119729494Y-95191574D01*
X119780829Y-95067640D01*
X119807000Y-94936073D01*
X119807000Y-94801927D01*
X119780829Y-94670360D01*
X119729494Y-94546426D01*
X119654967Y-94434888D01*
X119560112Y-94340033D01*
X119448574Y-94265506D01*
X119324640Y-94214171D01*
X119193073Y-94188000D01*
X119058927Y-94188000D01*
X118927360Y-94214171D01*
X118803426Y-94265506D01*
X118691888Y-94340033D01*
X118597033Y-94434888D01*
X118522506Y-94546426D01*
X118471171Y-94670360D01*
X118445000Y-94801927D01*
X118156000Y-94801927D01*
X118129829Y-94670360D01*
X118078494Y-94546426D01*
X118003967Y-94434888D01*
X117909112Y-94340033D01*
X117797574Y-94265506D01*
X117673640Y-94214171D01*
X117542073Y-94188000D01*
X117407927Y-94188000D01*
X117276360Y-94214171D01*
X117152426Y-94265506D01*
X117040888Y-94340033D01*
X116946033Y-94434888D01*
X116871506Y-94546426D01*
X116820171Y-94670360D01*
X116794000Y-94801927D01*
X115127000Y-94801927D01*
X115127000Y-90451880D01*
X116750527Y-90451880D01*
X116750527Y-91650760D01*
X116757883Y-91725449D01*
X116779669Y-91797268D01*
X116815048Y-91863456D01*
X116862659Y-91921471D01*
X116920674Y-91969082D01*
X116986862Y-92004461D01*
X117058681Y-92026247D01*
X117133370Y-92033603D01*
X118832630Y-92033603D01*
X118907319Y-92026247D01*
X118979138Y-92004461D01*
X119045326Y-91969082D01*
X119103341Y-91921471D01*
X119150952Y-91863456D01*
X119186331Y-91797268D01*
X119208117Y-91725449D01*
X119215473Y-91650760D01*
X119215473Y-90451880D01*
X119208117Y-90377191D01*
X119186331Y-90305372D01*
X119150952Y-90239184D01*
X119103341Y-90181169D01*
X119045326Y-90133558D01*
X118979138Y-90098179D01*
X118907319Y-90076393D01*
X118832630Y-90069037D01*
X117133370Y-90069037D01*
X117058681Y-90076393D01*
X116986862Y-90098179D01*
X116920674Y-90133558D01*
X116862659Y-90181169D01*
X116815048Y-90239184D01*
X116779669Y-90305372D01*
X116757883Y-90377191D01*
X116750527Y-90451880D01*
X115127000Y-90451880D01*
X115127000Y-89220261D01*
X116818932Y-89220261D01*
X116864213Y-89382091D01*
X116945730Y-89545161D01*
X117057494Y-89689194D01*
X117195210Y-89808656D01*
X117353585Y-89898955D01*
X117526534Y-89956622D01*
X117707410Y-89979440D01*
X117957600Y-89979440D01*
X117957600Y-89075200D01*
X118008400Y-89075200D01*
X118008400Y-89979440D01*
X118258590Y-89979440D01*
X118439466Y-89956622D01*
X118612415Y-89898955D01*
X118770790Y-89808656D01*
X118908506Y-89689194D01*
X119020270Y-89545161D01*
X119101787Y-89382091D01*
X119147068Y-89220261D01*
X119079899Y-89075200D01*
X118008400Y-89075200D01*
X117957600Y-89075200D01*
X116886101Y-89075200D01*
X116818932Y-89220261D01*
X115127000Y-89220261D01*
X115127000Y-88879339D01*
X116818932Y-88879339D01*
X116886101Y-89024400D01*
X117957600Y-89024400D01*
X117957600Y-88120160D01*
X118008400Y-88120160D01*
X118008400Y-89024400D01*
X119079899Y-89024400D01*
X119147068Y-88879339D01*
X119101787Y-88717509D01*
X119020270Y-88554439D01*
X118908506Y-88410406D01*
X118770790Y-88290944D01*
X118612415Y-88200645D01*
X118439466Y-88142978D01*
X118258590Y-88120160D01*
X118008400Y-88120160D01*
X117957600Y-88120160D01*
X117707410Y-88120160D01*
X117526534Y-88142978D01*
X117353585Y-88200645D01*
X117195210Y-88290944D01*
X117057494Y-88410406D01*
X116945730Y-88554439D01*
X116864213Y-88717509D01*
X116818932Y-88879339D01*
X115127000Y-88879339D01*
X115127000Y-81043720D01*
X116747627Y-81043720D01*
X116766557Y-81235920D01*
X116822620Y-81420733D01*
X116913660Y-81591058D01*
X117036180Y-81740350D01*
X117185472Y-81862870D01*
X117355797Y-81953910D01*
X117540610Y-82009973D01*
X117684653Y-82024160D01*
X118281347Y-82024160D01*
X118425390Y-82009973D01*
X118610203Y-81953910D01*
X118780528Y-81862870D01*
X118929820Y-81740350D01*
X119052340Y-81591058D01*
X119143380Y-81420733D01*
X119199443Y-81235920D01*
X119218373Y-81043720D01*
X119199443Y-80851520D01*
X119143380Y-80666707D01*
X119052340Y-80496382D01*
X118929820Y-80347090D01*
X118780528Y-80224570D01*
X118610203Y-80133530D01*
X118425390Y-80077467D01*
X118281347Y-80063280D01*
X117684653Y-80063280D01*
X117540610Y-80077467D01*
X117355797Y-80133530D01*
X117185472Y-80224570D01*
X117036180Y-80347090D01*
X116913660Y-80496382D01*
X116822620Y-80666707D01*
X116766557Y-80851520D01*
X116747627Y-81043720D01*
X115127000Y-81043720D01*
X115127000Y-79044740D01*
X116747627Y-79044740D01*
X116766557Y-79236940D01*
X116822620Y-79421753D01*
X116913660Y-79592078D01*
X117036180Y-79741370D01*
X117185472Y-79863890D01*
X117355797Y-79954930D01*
X117540610Y-80010993D01*
X117684653Y-80025180D01*
X118281347Y-80025180D01*
X118425390Y-80010993D01*
X118610203Y-79954930D01*
X118780528Y-79863890D01*
X118929820Y-79741370D01*
X119052340Y-79592078D01*
X119143380Y-79421753D01*
X119199443Y-79236940D01*
X119218373Y-79044740D01*
X119199443Y-78852540D01*
X119143380Y-78667727D01*
X119052340Y-78497402D01*
X118929820Y-78348110D01*
X118780528Y-78225590D01*
X118610203Y-78134550D01*
X118425390Y-78078487D01*
X118281347Y-78064300D01*
X117684653Y-78064300D01*
X117540610Y-78078487D01*
X117355797Y-78134550D01*
X117185472Y-78225590D01*
X117036180Y-78348110D01*
X116913660Y-78497402D01*
X116822620Y-78667727D01*
X116766557Y-78852540D01*
X116747627Y-79044740D01*
X115127000Y-79044740D01*
X115127000Y-77045760D01*
X116747627Y-77045760D01*
X116766557Y-77237960D01*
X116822620Y-77422773D01*
X116913660Y-77593098D01*
X117036180Y-77742390D01*
X117185472Y-77864910D01*
X117355797Y-77955950D01*
X117540610Y-78012013D01*
X117684653Y-78026200D01*
X118281347Y-78026200D01*
X118425390Y-78012013D01*
X118610203Y-77955950D01*
X118780528Y-77864910D01*
X118929820Y-77742390D01*
X119052340Y-77593098D01*
X119143380Y-77422773D01*
X119199443Y-77237960D01*
X119218373Y-77045760D01*
X119199443Y-76853560D01*
X119143380Y-76668747D01*
X119052340Y-76498422D01*
X118929820Y-76349130D01*
X118780528Y-76226610D01*
X118610203Y-76135570D01*
X118425390Y-76079507D01*
X118281347Y-76065320D01*
X117684653Y-76065320D01*
X117540610Y-76079507D01*
X117355797Y-76135570D01*
X117185472Y-76226610D01*
X117036180Y-76349130D01*
X116913660Y-76498422D01*
X116822620Y-76668747D01*
X116766557Y-76853560D01*
X116747627Y-77045760D01*
X115127000Y-77045760D01*
X115127000Y-71949600D01*
X116750527Y-71949600D01*
X116750527Y-73148480D01*
X116757883Y-73223169D01*
X116779669Y-73294988D01*
X116815048Y-73361176D01*
X116862659Y-73419191D01*
X116920674Y-73466802D01*
X116986862Y-73502181D01*
X117058681Y-73523967D01*
X117133370Y-73531323D01*
X118832630Y-73531323D01*
X118907319Y-73523967D01*
X118979138Y-73502181D01*
X119045326Y-73466802D01*
X119103341Y-73419191D01*
X119150952Y-73361176D01*
X119186331Y-73294988D01*
X119208117Y-73223169D01*
X119215473Y-73148480D01*
X119215473Y-71949600D01*
X119208117Y-71874911D01*
X119186331Y-71803092D01*
X119150952Y-71736904D01*
X119103341Y-71678889D01*
X119045326Y-71631278D01*
X118979138Y-71595899D01*
X118907319Y-71574113D01*
X118832630Y-71566757D01*
X117133370Y-71566757D01*
X117058681Y-71574113D01*
X116986862Y-71595899D01*
X116920674Y-71631278D01*
X116862659Y-71678889D01*
X116815048Y-71736904D01*
X116779669Y-71803092D01*
X116757883Y-71874911D01*
X116750527Y-71949600D01*
X115127000Y-71949600D01*
X115127000Y-70547520D01*
X116747627Y-70547520D01*
X116766557Y-70739720D01*
X116822620Y-70924533D01*
X116913660Y-71094858D01*
X117036180Y-71244150D01*
X117185472Y-71366670D01*
X117355797Y-71457710D01*
X117540610Y-71513773D01*
X117684653Y-71527960D01*
X118281347Y-71527960D01*
X118425390Y-71513773D01*
X118610203Y-71457710D01*
X118780528Y-71366670D01*
X118929820Y-71244150D01*
X119052340Y-71094858D01*
X119143380Y-70924533D01*
X119199443Y-70739720D01*
X119218373Y-70547520D01*
X119199443Y-70355320D01*
X119143380Y-70170507D01*
X119052340Y-70000182D01*
X118929820Y-69850890D01*
X118780528Y-69728370D01*
X118610203Y-69637330D01*
X118425390Y-69581267D01*
X118281347Y-69567080D01*
X117684653Y-69567080D01*
X117540610Y-69581267D01*
X117355797Y-69637330D01*
X117185472Y-69728370D01*
X117036180Y-69850890D01*
X116913660Y-70000182D01*
X116822620Y-70170507D01*
X116766557Y-70355320D01*
X116747627Y-70547520D01*
X115127000Y-70547520D01*
X115127000Y-68546000D01*
X116747627Y-68546000D01*
X116766557Y-68738200D01*
X116822620Y-68923013D01*
X116913660Y-69093338D01*
X117036180Y-69242630D01*
X117185472Y-69365150D01*
X117355797Y-69456190D01*
X117540610Y-69512253D01*
X117684653Y-69526440D01*
X118281347Y-69526440D01*
X118425390Y-69512253D01*
X118610203Y-69456190D01*
X118780528Y-69365150D01*
X118929820Y-69242630D01*
X119052340Y-69093338D01*
X119143380Y-68923013D01*
X119199443Y-68738200D01*
X119218373Y-68546000D01*
X119199443Y-68353800D01*
X119143380Y-68168987D01*
X119052340Y-67998662D01*
X118929820Y-67849370D01*
X118780528Y-67726850D01*
X118610203Y-67635810D01*
X118425390Y-67579747D01*
X118281347Y-67565560D01*
X117684653Y-67565560D01*
X117540610Y-67579747D01*
X117355797Y-67635810D01*
X117185472Y-67726850D01*
X117036180Y-67849370D01*
X116913660Y-67998662D01*
X116822620Y-68168987D01*
X116766557Y-68353800D01*
X116747627Y-68546000D01*
X115127000Y-68546000D01*
X115127000Y-66547020D01*
X116747627Y-66547020D01*
X116766557Y-66739220D01*
X116822620Y-66924033D01*
X116913660Y-67094358D01*
X117036180Y-67243650D01*
X117185472Y-67366170D01*
X117355797Y-67457210D01*
X117540610Y-67513273D01*
X117684653Y-67527460D01*
X118281347Y-67527460D01*
X118425390Y-67513273D01*
X118610203Y-67457210D01*
X118780528Y-67366170D01*
X118929820Y-67243650D01*
X119052340Y-67094358D01*
X119143380Y-66924033D01*
X119199443Y-66739220D01*
X119218373Y-66547020D01*
X119199443Y-66354820D01*
X119143380Y-66170007D01*
X119052340Y-65999682D01*
X118929820Y-65850390D01*
X118780528Y-65727870D01*
X118610203Y-65636830D01*
X118425390Y-65580767D01*
X118281347Y-65566580D01*
X117684653Y-65566580D01*
X117540610Y-65580767D01*
X117355797Y-65636830D01*
X117185472Y-65727870D01*
X117036180Y-65850390D01*
X116913660Y-65999682D01*
X116822620Y-66170007D01*
X116766557Y-66354820D01*
X116747627Y-66547020D01*
X115127000Y-66547020D01*
X115127000Y-64715961D01*
X116818932Y-64715961D01*
X116864213Y-64877791D01*
X116945730Y-65040861D01*
X117057494Y-65184894D01*
X117195210Y-65304356D01*
X117353585Y-65394655D01*
X117526534Y-65452322D01*
X117707410Y-65475140D01*
X117957600Y-65475140D01*
X117957600Y-64570900D01*
X118008400Y-64570900D01*
X118008400Y-65475140D01*
X118258590Y-65475140D01*
X118439466Y-65452322D01*
X118612415Y-65394655D01*
X118770790Y-65304356D01*
X118908506Y-65184894D01*
X119020270Y-65040861D01*
X119101787Y-64877791D01*
X119147068Y-64715961D01*
X119079899Y-64570900D01*
X118008400Y-64570900D01*
X117957600Y-64570900D01*
X116886101Y-64570900D01*
X116818932Y-64715961D01*
X115127000Y-64715961D01*
X115127000Y-64375039D01*
X116818932Y-64375039D01*
X116886101Y-64520100D01*
X117957600Y-64520100D01*
X117957600Y-63615860D01*
X118008400Y-63615860D01*
X118008400Y-64520100D01*
X119079899Y-64520100D01*
X119147068Y-64375039D01*
X119101787Y-64213209D01*
X119020270Y-64050139D01*
X118908506Y-63906106D01*
X118770790Y-63786644D01*
X118612415Y-63696345D01*
X118439466Y-63638678D01*
X118258590Y-63615860D01*
X118008400Y-63615860D01*
X117957600Y-63615860D01*
X117707410Y-63615860D01*
X117526534Y-63638678D01*
X117353585Y-63696345D01*
X117195210Y-63786644D01*
X117057494Y-63906106D01*
X116945730Y-64050139D01*
X116864213Y-64213209D01*
X116818932Y-64375039D01*
X115127000Y-64375039D01*
X115127000Y-59410154D01*
X117938000Y-59410154D01*
X117938000Y-59573846D01*
X117969935Y-59734394D01*
X118032577Y-59885626D01*
X118123520Y-60021732D01*
X118239268Y-60137480D01*
X118375374Y-60228423D01*
X118526606Y-60291065D01*
X118687154Y-60323000D01*
X118850846Y-60323000D01*
X119011394Y-60291065D01*
X119162626Y-60228423D01*
X119298732Y-60137480D01*
X119414480Y-60021732D01*
X119505423Y-59885626D01*
X119568065Y-59734394D01*
X119600000Y-59573846D01*
X119600000Y-59410154D01*
X119568065Y-59249606D01*
X119505423Y-59098374D01*
X119414480Y-58962268D01*
X119298732Y-58846520D01*
X119162626Y-58755577D01*
X119011394Y-58692935D01*
X118850846Y-58661000D01*
X118687154Y-58661000D01*
X118526606Y-58692935D01*
X118375374Y-58755577D01*
X118239268Y-58846520D01*
X118123520Y-58962268D01*
X118032577Y-59098374D01*
X117969935Y-59249606D01*
X117938000Y-59410154D01*
X115127000Y-59410154D01*
X115127000Y-56945516D01*
X115486833Y-56504317D01*
X115554994Y-56447929D01*
X121366000Y-56447929D01*
X121366000Y-56582075D01*
X121392171Y-56713642D01*
X121443506Y-56837576D01*
X121518033Y-56949114D01*
X121612888Y-57043969D01*
X121724426Y-57118496D01*
X121848360Y-57169831D01*
X121979927Y-57196002D01*
X122114073Y-57196002D01*
X122245640Y-57169831D01*
X122369574Y-57118496D01*
X122481112Y-57043969D01*
X122575967Y-56949114D01*
X122650494Y-56837576D01*
X122701829Y-56713642D01*
X122728000Y-56582075D01*
X122728000Y-56447929D01*
X122701829Y-56316362D01*
X122650494Y-56192428D01*
X122575967Y-56080890D01*
X122481112Y-55986035D01*
X122369574Y-55911508D01*
X122245640Y-55860173D01*
X122114073Y-55834002D01*
X121979927Y-55834002D01*
X121848360Y-55860173D01*
X121724426Y-55911508D01*
X121612888Y-55986035D01*
X121518033Y-56080890D01*
X121443506Y-56192428D01*
X121392171Y-56316362D01*
X121366000Y-56447929D01*
X115554994Y-56447929D01*
X116019443Y-56063704D01*
X116627494Y-55734932D01*
X117287818Y-55530527D01*
X117996766Y-55456014D01*
X118000720Y-55456000D01*
X122662122Y-55456000D01*
X122636000Y-55587321D01*
G37*
X122636000Y-55587321D02*
X122636000Y-55721467D01*
X122662171Y-55853034D01*
X122713506Y-55976968D01*
X122788033Y-56088506D01*
X122882888Y-56183361D01*
X122994426Y-56257888D01*
X123118360Y-56309223D01*
X123249927Y-56335394D01*
X123384073Y-56335394D01*
X123456801Y-56320927D01*
X124668000Y-56320927D01*
X124668000Y-56455073D01*
X124694171Y-56586640D01*
X124745506Y-56710574D01*
X124820033Y-56822112D01*
X124914888Y-56916967D01*
X125026426Y-56991494D01*
X125150360Y-57042829D01*
X125281927Y-57069000D01*
X125416073Y-57069000D01*
X125547640Y-57042829D01*
X125671574Y-56991494D01*
X125783112Y-56916967D01*
X125877967Y-56822112D01*
X125952494Y-56710574D01*
X126003829Y-56586640D01*
X126030000Y-56455073D01*
X126030000Y-56320927D01*
X126003829Y-56189360D01*
X125952494Y-56065426D01*
X125877967Y-55953888D01*
X125783112Y-55859033D01*
X125671574Y-55784506D01*
X125547640Y-55733171D01*
X125416073Y-55707000D01*
X125281927Y-55707000D01*
X125150360Y-55733171D01*
X125026426Y-55784506D01*
X124914888Y-55859033D01*
X124820033Y-55953888D01*
X124745506Y-56065426D01*
X124694171Y-56189360D01*
X124668000Y-56320927D01*
X123456801Y-56320927D01*
X123515640Y-56309223D01*
X123639574Y-56257888D01*
X123751112Y-56183361D01*
X123845967Y-56088506D01*
X123920494Y-55976968D01*
X123971829Y-55853034D01*
X123998000Y-55721467D01*
X123998000Y-55587321D01*
X123971878Y-55456000D01*
X140873000Y-55456000D01*
X140873000Y-67905975D01*
X139019050Y-69759926D01*
X138994815Y-69779815D01*
X138915463Y-69876507D01*
X138856498Y-69986821D01*
X138820188Y-70106519D01*
X138811000Y-70199809D01*
X138811000Y-70199819D01*
X138807929Y-70231000D01*
X138811000Y-70262182D01*
X138811001Y-71922219D01*
X138807929Y-71953410D01*
X138811001Y-71984601D01*
X138811001Y-71984602D01*
X138818566Y-72061407D01*
X138820189Y-72077891D01*
X138856498Y-72197589D01*
X138904854Y-72288055D01*
X138915464Y-72307904D01*
X138994816Y-72404595D01*
X139019046Y-72424480D01*
X139711677Y-73117111D01*
X139731506Y-73164984D01*
X139806033Y-73276522D01*
X139900888Y-73371377D01*
X140012426Y-73445904D01*
X140136360Y-73497239D01*
X140179334Y-73505787D01*
X140162000Y-73592927D01*
X140162000Y-73727073D01*
X140188171Y-73858640D01*
X140219804Y-73935008D01*
X140165888Y-73971033D01*
X140071033Y-74065888D01*
X139996506Y-74177426D01*
X139945171Y-74301360D01*
X139919000Y-74432927D01*
X139919000Y-74567073D01*
X139945171Y-74698640D01*
X139951471Y-74713849D01*
X139865888Y-74771033D01*
X139771033Y-74865888D01*
X139696506Y-74977426D01*
X139645171Y-75101360D01*
X139619000Y-75232927D01*
X139619000Y-75367073D01*
X139645171Y-75498640D01*
X139665001Y-75546513D01*
X139665000Y-76402780D01*
X139661929Y-76433962D01*
X139665000Y-76465143D01*
X139665000Y-76465153D01*
X139674188Y-76558443D01*
X139710498Y-76678141D01*
X139769463Y-76788455D01*
X139848815Y-76885147D01*
X139873050Y-76905036D01*
X140873000Y-77904986D01*
X140873000Y-79462416D01*
X140863961Y-79448888D01*
X140769106Y-79354033D01*
X140657568Y-79279506D01*
X140533634Y-79228171D01*
X140402067Y-79202000D01*
X140267921Y-79202000D01*
X140136354Y-79228171D01*
X140012420Y-79279506D01*
X139900882Y-79354033D01*
X139806027Y-79448888D01*
X139731500Y-79560426D01*
X139680165Y-79684360D01*
X139653994Y-79815927D01*
X139653994Y-79912100D01*
X139632978Y-79951418D01*
X139605383Y-80042389D01*
X139599045Y-80106741D01*
X139596065Y-80136994D01*
X139598400Y-80160699D01*
X139598401Y-80826100D01*
X139373101Y-81051400D01*
X136167696Y-81051400D01*
X136143999Y-81049066D01*
X136120302Y-81051400D01*
X136120293Y-81051400D01*
X136049394Y-81058383D01*
X135958423Y-81085978D01*
X135874585Y-81130791D01*
X135801099Y-81191099D01*
X135785983Y-81209518D01*
X135311518Y-81683983D01*
X135293099Y-81699099D01*
X135232791Y-81772585D01*
X135187978Y-81856424D01*
X135160383Y-81947395D01*
X135154867Y-82003400D01*
X135151065Y-82042000D01*
X135153400Y-82065705D01*
X135153401Y-83944911D01*
X135152276Y-83946036D01*
X135086703Y-83946036D01*
X134955136Y-83972207D01*
X134831202Y-84023542D01*
X134719664Y-84098069D01*
X134624809Y-84192924D01*
X134550282Y-84304462D01*
X134498947Y-84428396D01*
X134472776Y-84559963D01*
X134472776Y-84694109D01*
X134477290Y-84716801D01*
X134399640Y-84664917D01*
X134275706Y-84613582D01*
X134144139Y-84587411D01*
X134009993Y-84587411D01*
X134005656Y-84588274D01*
X134005656Y-82069885D01*
X134068826Y-82112094D01*
X134192760Y-82163429D01*
X134324327Y-82189600D01*
X134458473Y-82189600D01*
X134590040Y-82163429D01*
X134713974Y-82112094D01*
X134825512Y-82037567D01*
X134920367Y-81942712D01*
X134994894Y-81831174D01*
X135046229Y-81707240D01*
X135072400Y-81575673D01*
X135072400Y-81441527D01*
X135046229Y-81309960D01*
X134994894Y-81186026D01*
X134920367Y-81074488D01*
X134825512Y-80979633D01*
X134713974Y-80905106D01*
X134590040Y-80853771D01*
X134504359Y-80836727D01*
X134488829Y-80758656D01*
X134437494Y-80634722D01*
X134362967Y-80523184D01*
X134268112Y-80428329D01*
X134156574Y-80353802D01*
X134032640Y-80302467D01*
X133901073Y-80276296D01*
X133766927Y-80276296D01*
X133635360Y-80302467D01*
X133511426Y-80353802D01*
X133399888Y-80428329D01*
X133305033Y-80523184D01*
X133230506Y-80634722D01*
X133194556Y-80721513D01*
X133070655Y-80597612D01*
X133070655Y-79180927D01*
X133431000Y-79180927D01*
X133431000Y-79315073D01*
X133457171Y-79446640D01*
X133508506Y-79570574D01*
X133583033Y-79682112D01*
X133677888Y-79776967D01*
X133789426Y-79851494D01*
X133913360Y-79902829D01*
X133956575Y-79911425D01*
X133965171Y-79954640D01*
X134016506Y-80078574D01*
X134091033Y-80190112D01*
X134185888Y-80284967D01*
X134297426Y-80359494D01*
X134421360Y-80410829D01*
X134464575Y-80419425D01*
X134473171Y-80462640D01*
X134524506Y-80586574D01*
X134599033Y-80698112D01*
X134693888Y-80792967D01*
X134805426Y-80867494D01*
X134929360Y-80918829D01*
X135060927Y-80945000D01*
X135195073Y-80945000D01*
X135326640Y-80918829D01*
X135450574Y-80867494D01*
X135562112Y-80792967D01*
X135656967Y-80698112D01*
X135731494Y-80586574D01*
X135782829Y-80462640D01*
X135809000Y-80331073D01*
X135809000Y-80196927D01*
X135782829Y-80065360D01*
X135731494Y-79941426D01*
X135656967Y-79829888D01*
X135562112Y-79735033D01*
X135450574Y-79660506D01*
X135326640Y-79609171D01*
X135283425Y-79600575D01*
X135274829Y-79557360D01*
X135223494Y-79433426D01*
X135191030Y-79384839D01*
X137223193Y-79384839D01*
X137223193Y-79518985D01*
X137249364Y-79650552D01*
X137300699Y-79774486D01*
X137375226Y-79886024D01*
X137470081Y-79980879D01*
X137537509Y-80025933D01*
X137521171Y-80065376D01*
X137495000Y-80196943D01*
X137495000Y-80331089D01*
X137521171Y-80462656D01*
X137572506Y-80586590D01*
X137647033Y-80698128D01*
X137741888Y-80792983D01*
X137853426Y-80867510D01*
X137977360Y-80918845D01*
X138108927Y-80945016D01*
X138243073Y-80945016D01*
X138374640Y-80918845D01*
X138498574Y-80867510D01*
X138610112Y-80792983D01*
X138704967Y-80698128D01*
X138779494Y-80586590D01*
X138830829Y-80462656D01*
X138857000Y-80331089D01*
X138857000Y-80196943D01*
X138830829Y-80065376D01*
X138779494Y-79941442D01*
X138704967Y-79829904D01*
X138610112Y-79735049D01*
X138542684Y-79689995D01*
X138559022Y-79650552D01*
X138585193Y-79518985D01*
X138585193Y-79384839D01*
X138559022Y-79253272D01*
X138507687Y-79129338D01*
X138433160Y-79017800D01*
X138338305Y-78922945D01*
X138226767Y-78848418D01*
X138102833Y-78797083D01*
X137971266Y-78770912D01*
X137837120Y-78770912D01*
X137705553Y-78797083D01*
X137581619Y-78848418D01*
X137470081Y-78922945D01*
X137375226Y-79017800D01*
X137300699Y-79129338D01*
X137249364Y-79253272D01*
X137223193Y-79384839D01*
X135191030Y-79384839D01*
X135148967Y-79321888D01*
X135054112Y-79227033D01*
X135021480Y-79205229D01*
X135088280Y-79191941D01*
X135212214Y-79140606D01*
X135323752Y-79066079D01*
X135418607Y-78971224D01*
X135493134Y-78859686D01*
X135544469Y-78735752D01*
X135570640Y-78604185D01*
X135570640Y-78470039D01*
X135544469Y-78338472D01*
X135493134Y-78214538D01*
X135437519Y-78131303D01*
X135470323Y-78082208D01*
X135521658Y-77958274D01*
X135547829Y-77826707D01*
X135547829Y-77692561D01*
X135521658Y-77560994D01*
X135470323Y-77437060D01*
X135422930Y-77366130D01*
X135464163Y-77304420D01*
X135515498Y-77180486D01*
X135541669Y-77048919D01*
X135541669Y-76914773D01*
X135515498Y-76783206D01*
X135464163Y-76659272D01*
X135389636Y-76547734D01*
X135294781Y-76452879D01*
X135183243Y-76378352D01*
X135174697Y-76374812D01*
X135179640Y-76373829D01*
X135303574Y-76322494D01*
X135415112Y-76247967D01*
X135509967Y-76153112D01*
X135584494Y-76041574D01*
X135635829Y-75917640D01*
X135662000Y-75786073D01*
X135662000Y-75651927D01*
X135635829Y-75520360D01*
X135584494Y-75396426D01*
X135532760Y-75319000D01*
X135584494Y-75241574D01*
X135635829Y-75117640D01*
X135662000Y-74986073D01*
X135662000Y-74851927D01*
X135635829Y-74720360D01*
X135584494Y-74596426D01*
X135577348Y-74585731D01*
X135609967Y-74553112D01*
X135684494Y-74441574D01*
X135735829Y-74317640D01*
X135762000Y-74186073D01*
X135762000Y-74051927D01*
X135735829Y-73920360D01*
X135684494Y-73796426D01*
X135609967Y-73684888D01*
X135515112Y-73590033D01*
X135403574Y-73515506D01*
X135348986Y-73492895D01*
X135417677Y-73446997D01*
X135512532Y-73352142D01*
X135587059Y-73240604D01*
X135638394Y-73116670D01*
X135664565Y-72985103D01*
X135664565Y-72850957D01*
X135638394Y-72719390D01*
X135587059Y-72595456D01*
X135512532Y-72483918D01*
X135442894Y-72414280D01*
X135456729Y-72380880D01*
X135482900Y-72249313D01*
X135482900Y-72115167D01*
X135456729Y-71983600D01*
X135405394Y-71859666D01*
X135390688Y-71837657D01*
X135463188Y-71729152D01*
X135514523Y-71605218D01*
X135540694Y-71473651D01*
X135540694Y-71339505D01*
X135514523Y-71207938D01*
X135463188Y-71084004D01*
X135388661Y-70972466D01*
X135293806Y-70877611D01*
X135182268Y-70803084D01*
X135058334Y-70751749D01*
X134926767Y-70725578D01*
X134792621Y-70725578D01*
X134661054Y-70751749D01*
X134537120Y-70803084D01*
X134425582Y-70877611D01*
X134330727Y-70972466D01*
X134256200Y-71084004D01*
X134204865Y-71207938D01*
X134178694Y-71339505D01*
X134178694Y-71473651D01*
X134204865Y-71605218D01*
X134256200Y-71729152D01*
X134270906Y-71751161D01*
X134198406Y-71859666D01*
X134147071Y-71983600D01*
X134120900Y-72115167D01*
X134120900Y-72249313D01*
X134147071Y-72380880D01*
X134198406Y-72504814D01*
X134272933Y-72616352D01*
X134342571Y-72685990D01*
X134328736Y-72719390D01*
X134302565Y-72850957D01*
X134302565Y-72985103D01*
X134328736Y-73116670D01*
X134380071Y-73240604D01*
X134454598Y-73352142D01*
X134549453Y-73446997D01*
X134660991Y-73521524D01*
X134715579Y-73544135D01*
X134646888Y-73590033D01*
X134552033Y-73684888D01*
X134477506Y-73796426D01*
X134426171Y-73920360D01*
X134400000Y-74051927D01*
X134400000Y-74186073D01*
X134426171Y-74317640D01*
X134477506Y-74441574D01*
X134484652Y-74452269D01*
X134452033Y-74484888D01*
X134377506Y-74596426D01*
X134326171Y-74720360D01*
X134300000Y-74851927D01*
X134300000Y-74986073D01*
X134326171Y-75117640D01*
X134377506Y-75241574D01*
X134429240Y-75319000D01*
X134377506Y-75396426D01*
X134326171Y-75520360D01*
X134300000Y-75651927D01*
X134300000Y-75786073D01*
X134326171Y-75917640D01*
X134377506Y-76041574D01*
X134452033Y-76153112D01*
X134546888Y-76247967D01*
X134658426Y-76322494D01*
X134666972Y-76326034D01*
X134662029Y-76327017D01*
X134538095Y-76378352D01*
X134426557Y-76452879D01*
X134331702Y-76547734D01*
X134257175Y-76659272D01*
X134205840Y-76783206D01*
X134179669Y-76914773D01*
X134179669Y-77048919D01*
X134205840Y-77180486D01*
X134257175Y-77304420D01*
X134304568Y-77375350D01*
X134263335Y-77437060D01*
X134212000Y-77560994D01*
X134185829Y-77692561D01*
X134185829Y-77826707D01*
X134212000Y-77958274D01*
X134263335Y-78082208D01*
X134318950Y-78165443D01*
X134286146Y-78214538D01*
X134234811Y-78338472D01*
X134208640Y-78470039D01*
X134208640Y-78572881D01*
X134179073Y-78567000D01*
X134044927Y-78567000D01*
X133913360Y-78593171D01*
X133789426Y-78644506D01*
X133677888Y-78719033D01*
X133583033Y-78813888D01*
X133508506Y-78925426D01*
X133457171Y-79049360D01*
X133431000Y-79180927D01*
X133070655Y-79180927D01*
X133070655Y-72711023D01*
X133072990Y-72687318D01*
X133070655Y-72663612D01*
X133063672Y-72592713D01*
X133036077Y-72501742D01*
X132991264Y-72417904D01*
X132930956Y-72344418D01*
X132912537Y-72329302D01*
X131222958Y-70639723D01*
X131262640Y-70631829D01*
X131381500Y-70582596D01*
X131500360Y-70631829D01*
X131631927Y-70658000D01*
X131766073Y-70658000D01*
X131897640Y-70631829D01*
X132021574Y-70580494D01*
X132133112Y-70505967D01*
X132227967Y-70411112D01*
X132302494Y-70299574D01*
X132353829Y-70175640D01*
X132380000Y-70044073D01*
X132380000Y-69909927D01*
X132353829Y-69778360D01*
X132304596Y-69659500D01*
X132353829Y-69540640D01*
X132380000Y-69409073D01*
X132380000Y-69274927D01*
X132353829Y-69143360D01*
X132302494Y-69019426D01*
X132227967Y-68907888D01*
X132133112Y-68813033D01*
X132021574Y-68738506D01*
X131897640Y-68687171D01*
X131766073Y-68661000D01*
X131631927Y-68661000D01*
X131500360Y-68687171D01*
X131381500Y-68736404D01*
X131262640Y-68687171D01*
X131131073Y-68661000D01*
X130996927Y-68661000D01*
X130865360Y-68687171D01*
X130741426Y-68738506D01*
X130629888Y-68813033D01*
X130535033Y-68907888D01*
X130460506Y-69019426D01*
X130409171Y-69143360D01*
X130408831Y-69145069D01*
X130370574Y-69119506D01*
X130246640Y-69068171D01*
X130225524Y-69063971D01*
X130243574Y-69056494D01*
X130355112Y-68981967D01*
X130449967Y-68887112D01*
X130524494Y-68775574D01*
X130575829Y-68651640D01*
X130602000Y-68520073D01*
X130602000Y-68385927D01*
X130575829Y-68254360D01*
X130524494Y-68130426D01*
X130449967Y-68018888D01*
X130355112Y-67924033D01*
X130243574Y-67849506D01*
X130119640Y-67798171D01*
X129988073Y-67772000D01*
X129853927Y-67772000D01*
X129722360Y-67798171D01*
X129598426Y-67849506D01*
X129486888Y-67924033D01*
X129440521Y-67970400D01*
X122455417Y-67970400D01*
X122402957Y-67891888D01*
X122402538Y-67891469D01*
X122481112Y-67838967D01*
X122575967Y-67744112D01*
X122650494Y-67632574D01*
X122701829Y-67508640D01*
X122728000Y-67377073D01*
X122728000Y-67242927D01*
X122701829Y-67111360D01*
X122650494Y-66987426D01*
X122575967Y-66875888D01*
X122481112Y-66781033D01*
X122412110Y-66734927D01*
X132923000Y-66734927D01*
X132923000Y-66869073D01*
X132949171Y-67000640D01*
X133000506Y-67124574D01*
X133075033Y-67236112D01*
X133169888Y-67330967D01*
X133281426Y-67405494D01*
X133405360Y-67456829D01*
X133536927Y-67483000D01*
X133671073Y-67483000D01*
X133802640Y-67456829D01*
X133923914Y-67406596D01*
X134040360Y-67454829D01*
X134102552Y-67467200D01*
X134095727Y-67467200D01*
X133964160Y-67493371D01*
X133840226Y-67544706D01*
X133728688Y-67619233D01*
X133633833Y-67714088D01*
X133559306Y-67825626D01*
X133515114Y-67932314D01*
X133408426Y-67976506D01*
X133296888Y-68051033D01*
X133202033Y-68145888D01*
X133127506Y-68257426D01*
X133076171Y-68381360D01*
X133050000Y-68512927D01*
X133050000Y-68647073D01*
X133076171Y-68778640D01*
X133127506Y-68902574D01*
X133202033Y-69014112D01*
X133296888Y-69108967D01*
X133408426Y-69183494D01*
X133532360Y-69234829D01*
X133663927Y-69261000D01*
X133798073Y-69261000D01*
X133929640Y-69234829D01*
X134053574Y-69183494D01*
X134165112Y-69108967D01*
X134259967Y-69014112D01*
X134334494Y-68902574D01*
X134378686Y-68795886D01*
X134485374Y-68751694D01*
X134596912Y-68677167D01*
X134691767Y-68582312D01*
X134766294Y-68470774D01*
X134817629Y-68346840D01*
X134843800Y-68215273D01*
X134843800Y-68081127D01*
X134817629Y-67949560D01*
X134766294Y-67825626D01*
X134691767Y-67714088D01*
X134596912Y-67619233D01*
X134485374Y-67544706D01*
X134361440Y-67493371D01*
X134299248Y-67481000D01*
X134306073Y-67481000D01*
X134437640Y-67454829D01*
X134556500Y-67405596D01*
X134675360Y-67454829D01*
X134806927Y-67481000D01*
X134941073Y-67481000D01*
X135072640Y-67454829D01*
X135196574Y-67403494D01*
X135308112Y-67328967D01*
X135402967Y-67234112D01*
X135477494Y-67122574D01*
X135528829Y-66998640D01*
X135555000Y-66867073D01*
X135555000Y-66780937D01*
X139272998Y-66780937D01*
X139272998Y-66915083D01*
X139299169Y-67046650D01*
X139350504Y-67170584D01*
X139425031Y-67282122D01*
X139519886Y-67376977D01*
X139631424Y-67451504D01*
X139755358Y-67502839D01*
X139886925Y-67529010D01*
X140021071Y-67529010D01*
X140152638Y-67502839D01*
X140276572Y-67451504D01*
X140388110Y-67376977D01*
X140482965Y-67282122D01*
X140557492Y-67170584D01*
X140608827Y-67046650D01*
X140634998Y-66915083D01*
X140634998Y-66780937D01*
X140608827Y-66649370D01*
X140557492Y-66525436D01*
X140482965Y-66413898D01*
X140388110Y-66319043D01*
X140276572Y-66244516D01*
X140152638Y-66193181D01*
X140021071Y-66167010D01*
X139886925Y-66167010D01*
X139755358Y-66193181D01*
X139631424Y-66244516D01*
X139519886Y-66319043D01*
X139425031Y-66413898D01*
X139350504Y-66525436D01*
X139299169Y-66649370D01*
X139272998Y-66780937D01*
X135555000Y-66780937D01*
X135555000Y-66732927D01*
X135528829Y-66601360D01*
X135477494Y-66477426D01*
X135402967Y-66365888D01*
X135308112Y-66271033D01*
X135196574Y-66196506D01*
X135072640Y-66145171D01*
X134941073Y-66119000D01*
X134806927Y-66119000D01*
X134675360Y-66145171D01*
X134556500Y-66194404D01*
X134437640Y-66145171D01*
X134306073Y-66119000D01*
X134171927Y-66119000D01*
X134040360Y-66145171D01*
X133919086Y-66195404D01*
X133802640Y-66147171D01*
X133671073Y-66121000D01*
X133536927Y-66121000D01*
X133405360Y-66147171D01*
X133281426Y-66198506D01*
X133169888Y-66273033D01*
X133075033Y-66367888D01*
X133000506Y-66479426D01*
X132949171Y-66603360D01*
X132923000Y-66734927D01*
X122412110Y-66734927D01*
X122369574Y-66706506D01*
X122245640Y-66655171D01*
X122114073Y-66629000D01*
X121979927Y-66629000D01*
X121863300Y-66652199D01*
X122796572Y-65718927D01*
X130510000Y-65718927D01*
X130510000Y-65853073D01*
X130536171Y-65984640D01*
X130587506Y-66108574D01*
X130662033Y-66220112D01*
X130756888Y-66314967D01*
X130868426Y-66389494D01*
X130992360Y-66440829D01*
X131123927Y-66467000D01*
X131258073Y-66467000D01*
X131389640Y-66440829D01*
X131480228Y-66403307D01*
X131518888Y-66441967D01*
X131630426Y-66516494D01*
X131754360Y-66567829D01*
X131885927Y-66594000D01*
X132020073Y-66594000D01*
X132151640Y-66567829D01*
X132275574Y-66516494D01*
X132387112Y-66441967D01*
X132481967Y-66347112D01*
X132556494Y-66235574D01*
X132607829Y-66111640D01*
X132634000Y-65980073D01*
X132634000Y-65845927D01*
X132607829Y-65714360D01*
X132556494Y-65590426D01*
X132481967Y-65478888D01*
X132387112Y-65384033D01*
X132275574Y-65309506D01*
X132151640Y-65258171D01*
X132020073Y-65232000D01*
X131885927Y-65232000D01*
X131754360Y-65258171D01*
X131663772Y-65295693D01*
X131625112Y-65257033D01*
X131513574Y-65182506D01*
X131389640Y-65131171D01*
X131258073Y-65105000D01*
X131123927Y-65105000D01*
X130992360Y-65131171D01*
X130868426Y-65182506D01*
X130756888Y-65257033D01*
X130662033Y-65351888D01*
X130587506Y-65463426D01*
X130536171Y-65587360D01*
X130510000Y-65718927D01*
X122796572Y-65718927D01*
X124066572Y-64448927D01*
X136225000Y-64448927D01*
X136225000Y-64583073D01*
X136251171Y-64714640D01*
X136302506Y-64838574D01*
X136377033Y-64950112D01*
X136471888Y-65044967D01*
X136583426Y-65119494D01*
X136707360Y-65170829D01*
X136838927Y-65197000D01*
X136973073Y-65197000D01*
X137104640Y-65170829D01*
X137228574Y-65119494D01*
X137340112Y-65044967D01*
X137434967Y-64950112D01*
X137509494Y-64838574D01*
X137560829Y-64714640D01*
X137587000Y-64583073D01*
X137587000Y-64448927D01*
X137560829Y-64317360D01*
X137509494Y-64193426D01*
X137434967Y-64081888D01*
X137340112Y-63987033D01*
X137228574Y-63912506D01*
X137104640Y-63861171D01*
X136973073Y-63835000D01*
X136838927Y-63835000D01*
X136707360Y-63861171D01*
X136583426Y-63912506D01*
X136471888Y-63987033D01*
X136377033Y-64081888D01*
X136302506Y-64193426D01*
X136251171Y-64317360D01*
X136225000Y-64448927D01*
X124066572Y-64448927D01*
X124786900Y-63728600D01*
X131802295Y-63728600D01*
X131826000Y-63730935D01*
X131849705Y-63728600D01*
X131849707Y-63728600D01*
X131920606Y-63721617D01*
X132011577Y-63694022D01*
X132095415Y-63649209D01*
X132168901Y-63588901D01*
X132184017Y-63570482D01*
X132956572Y-62797927D01*
X135336000Y-62797927D01*
X135336000Y-62932073D01*
X135362171Y-63063640D01*
X135413506Y-63187574D01*
X135488033Y-63299112D01*
X135582888Y-63393967D01*
X135694426Y-63468494D01*
X135818360Y-63519829D01*
X135949927Y-63546000D01*
X136084073Y-63546000D01*
X136215640Y-63519829D01*
X136339574Y-63468494D01*
X136451112Y-63393967D01*
X136545967Y-63299112D01*
X136620494Y-63187574D01*
X136671829Y-63063640D01*
X136698000Y-62932073D01*
X136698000Y-62797927D01*
X136671829Y-62666360D01*
X136620494Y-62542426D01*
X136567594Y-62463255D01*
X136593574Y-62452494D01*
X136705112Y-62377967D01*
X136799967Y-62283112D01*
X136874494Y-62171574D01*
X136925829Y-62047640D01*
X136952000Y-61916073D01*
X136952000Y-61781927D01*
X136925829Y-61650360D01*
X136874494Y-61526426D01*
X136799967Y-61414888D01*
X136705112Y-61320033D01*
X136593574Y-61245506D01*
X136469640Y-61194171D01*
X136338073Y-61168000D01*
X136203927Y-61168000D01*
X136072360Y-61194171D01*
X135948426Y-61245506D01*
X135836888Y-61320033D01*
X135742033Y-61414888D01*
X135667506Y-61526426D01*
X135616171Y-61650360D01*
X135590000Y-61781927D01*
X135590000Y-61916073D01*
X135616171Y-62047640D01*
X135667506Y-62171574D01*
X135720406Y-62250745D01*
X135694426Y-62261506D01*
X135582888Y-62336033D01*
X135488033Y-62430888D01*
X135413506Y-62542426D01*
X135362171Y-62666360D01*
X135336000Y-62797927D01*
X132956572Y-62797927D01*
X135226502Y-60527997D01*
X135244921Y-60512881D01*
X135305229Y-60439395D01*
X135350042Y-60355557D01*
X135377637Y-60264586D01*
X135384620Y-60193687D01*
X135384620Y-60193686D01*
X135386955Y-60169981D01*
X135384620Y-60146276D01*
X135384620Y-59075999D01*
X135397078Y-59069340D01*
X135546370Y-58946820D01*
X135668890Y-58797528D01*
X135759930Y-58627203D01*
X135815993Y-58442389D01*
X135830180Y-58298346D01*
X135830180Y-57701654D01*
X135870820Y-57701654D01*
X135870820Y-58298347D01*
X135885007Y-58442390D01*
X135941070Y-58627203D01*
X136032111Y-58797528D01*
X136154631Y-58946820D01*
X136303923Y-59069340D01*
X136474248Y-59160380D01*
X136659061Y-59216443D01*
X136851260Y-59235373D01*
X137043460Y-59216443D01*
X137228273Y-59160380D01*
X137398598Y-59069340D01*
X137547890Y-58946820D01*
X137670410Y-58797528D01*
X137761450Y-58627203D01*
X137817513Y-58442389D01*
X137831700Y-58298346D01*
X137831700Y-57701653D01*
X137817513Y-57557610D01*
X137761450Y-57372797D01*
X137670410Y-57202472D01*
X137547890Y-57053180D01*
X137398598Y-56930660D01*
X137228272Y-56839620D01*
X137043459Y-56783557D01*
X136851260Y-56764627D01*
X136659060Y-56783557D01*
X136474247Y-56839620D01*
X136303922Y-56930660D01*
X136154630Y-57053180D01*
X136032110Y-57202472D01*
X135941070Y-57372798D01*
X135885007Y-57557611D01*
X135870820Y-57701654D01*
X135830180Y-57701654D01*
X135830180Y-57701653D01*
X135815993Y-57557610D01*
X135759930Y-57372797D01*
X135668890Y-57202472D01*
X135546370Y-57053180D01*
X135397078Y-56930660D01*
X135226752Y-56839620D01*
X135041939Y-56783557D01*
X134849740Y-56764627D01*
X134657540Y-56783557D01*
X134472727Y-56839620D01*
X134302402Y-56930660D01*
X134153110Y-57053180D01*
X134030590Y-57202472D01*
X133939550Y-57372798D01*
X133883487Y-57557611D01*
X133869300Y-57701654D01*
X133869300Y-58298347D01*
X133883487Y-58442390D01*
X133901266Y-58501000D01*
X133796693Y-58501000D01*
X133814473Y-58442389D01*
X133828660Y-58298346D01*
X133828660Y-57701653D01*
X133814473Y-57557610D01*
X133758410Y-57372797D01*
X133667370Y-57202472D01*
X133544850Y-57053180D01*
X133395558Y-56930660D01*
X133225232Y-56839620D01*
X133040419Y-56783557D01*
X132848220Y-56764627D01*
X132656020Y-56783557D01*
X132471207Y-56839620D01*
X132300882Y-56930660D01*
X132151590Y-57053180D01*
X132029070Y-57202472D01*
X131938030Y-57372798D01*
X131881967Y-57557611D01*
X131867780Y-57701654D01*
X131867780Y-58298347D01*
X131881967Y-58442390D01*
X131938030Y-58627203D01*
X132029071Y-58797528D01*
X132151591Y-58946820D01*
X132300883Y-59069340D01*
X132471208Y-59160380D01*
X132656021Y-59216443D01*
X132848220Y-59235373D01*
X133040420Y-59216443D01*
X133177000Y-59175011D01*
X133177000Y-59249073D01*
X133203171Y-59380640D01*
X133254506Y-59504574D01*
X133329033Y-59616112D01*
X133423888Y-59710967D01*
X133535426Y-59785494D01*
X133659360Y-59836829D01*
X133790927Y-59863000D01*
X133925073Y-59863000D01*
X134056640Y-59836829D01*
X134180574Y-59785494D01*
X134292112Y-59710967D01*
X134386967Y-59616112D01*
X134419421Y-59567541D01*
X134419421Y-59970080D01*
X132117128Y-62272373D01*
X132157649Y-62211729D01*
X132208984Y-62087795D01*
X132235155Y-61956228D01*
X132235155Y-61822082D01*
X132208984Y-61690515D01*
X132157649Y-61566581D01*
X132156547Y-61564931D01*
X132175494Y-61536574D01*
X132226829Y-61412640D01*
X132253000Y-61281073D01*
X132253000Y-61146927D01*
X132226829Y-61015360D01*
X132175494Y-60891426D01*
X132100967Y-60779888D01*
X132006112Y-60685033D01*
X131894574Y-60610506D01*
X131770640Y-60559171D01*
X131639073Y-60533000D01*
X131504927Y-60533000D01*
X131373360Y-60559171D01*
X131249426Y-60610506D01*
X131137888Y-60685033D01*
X131043033Y-60779888D01*
X130968506Y-60891426D01*
X130917171Y-61015360D01*
X130891000Y-61146927D01*
X130891000Y-61281073D01*
X130917171Y-61412640D01*
X130968506Y-61536574D01*
X130969608Y-61538224D01*
X130950661Y-61566581D01*
X130899326Y-61690515D01*
X130873155Y-61822082D01*
X130873155Y-61956228D01*
X130899326Y-62087795D01*
X130950661Y-62211729D01*
X131025188Y-62323267D01*
X131120043Y-62418122D01*
X131231581Y-62492649D01*
X131355515Y-62543984D01*
X131487082Y-62570155D01*
X131621228Y-62570155D01*
X131752795Y-62543984D01*
X131876729Y-62492649D01*
X131937373Y-62452128D01*
X131626101Y-62763400D01*
X128546099Y-62763400D01*
X131226008Y-60083492D01*
X131244421Y-60068381D01*
X131304729Y-59994895D01*
X131349542Y-59911057D01*
X131352725Y-59900565D01*
X131377137Y-59820087D01*
X131386455Y-59725480D01*
X131384120Y-59701773D01*
X131384120Y-59075999D01*
X131396578Y-59069340D01*
X131545870Y-58946820D01*
X131668390Y-58797528D01*
X131759430Y-58627203D01*
X131815493Y-58442389D01*
X131829680Y-58298346D01*
X131829680Y-57701653D01*
X131815493Y-57557610D01*
X131759430Y-57372797D01*
X131668390Y-57202472D01*
X131545870Y-57053180D01*
X131396578Y-56930660D01*
X131226252Y-56839620D01*
X131041439Y-56783557D01*
X130849240Y-56764627D01*
X130657040Y-56783557D01*
X130472227Y-56839620D01*
X130301902Y-56930660D01*
X130152610Y-57053180D01*
X130030090Y-57202472D01*
X129939050Y-57372798D01*
X129882987Y-57557611D01*
X129868800Y-57701654D01*
X129868800Y-58298347D01*
X129882987Y-58442390D01*
X129939050Y-58627203D01*
X130030091Y-58797528D01*
X130152611Y-58946820D01*
X130301903Y-59069340D01*
X130418921Y-59131887D01*
X130418921Y-59525579D01*
X127963713Y-61980788D01*
X121708711Y-61980788D01*
X123050578Y-60638921D01*
X124414000Y-60638921D01*
X124414000Y-60773067D01*
X124440171Y-60904634D01*
X124491506Y-61028568D01*
X124566033Y-61140106D01*
X124660888Y-61234961D01*
X124772426Y-61309488D01*
X124896360Y-61360823D01*
X125027927Y-61386994D01*
X125162073Y-61386994D01*
X125293640Y-61360823D01*
X125412493Y-61311593D01*
X125531360Y-61360829D01*
X125662927Y-61387000D01*
X125797073Y-61387000D01*
X125928640Y-61360829D01*
X126047500Y-61311596D01*
X126166360Y-61360829D01*
X126297927Y-61387000D01*
X126432073Y-61387000D01*
X126563640Y-61360829D01*
X126687574Y-61309494D01*
X126799112Y-61234967D01*
X126893967Y-61140112D01*
X126968494Y-61028574D01*
X127019829Y-60904640D01*
X127046000Y-60773073D01*
X127046000Y-60638927D01*
X127020739Y-60511931D01*
X127208000Y-60511931D01*
X127208000Y-60646077D01*
X127234171Y-60777644D01*
X127285506Y-60901578D01*
X127360033Y-61013116D01*
X127454888Y-61107971D01*
X127566426Y-61182498D01*
X127690360Y-61233833D01*
X127821927Y-61260004D01*
X127956073Y-61260004D01*
X128087640Y-61233833D01*
X128211574Y-61182498D01*
X128323112Y-61107971D01*
X128417967Y-61013116D01*
X128492494Y-60901578D01*
X128543829Y-60777644D01*
X128570000Y-60646077D01*
X128570000Y-60511931D01*
X128543829Y-60380364D01*
X128492494Y-60256430D01*
X128417967Y-60144892D01*
X128323112Y-60050037D01*
X128211574Y-59975510D01*
X128087640Y-59924175D01*
X127956073Y-59898004D01*
X127821927Y-59898004D01*
X127690360Y-59924175D01*
X127566426Y-59975510D01*
X127454888Y-60050037D01*
X127360033Y-60144892D01*
X127285506Y-60256430D01*
X127234171Y-60380364D01*
X127208000Y-60511931D01*
X127020739Y-60511931D01*
X127019829Y-60507360D01*
X126968494Y-60383426D01*
X126893967Y-60271888D01*
X126799112Y-60177033D01*
X126687574Y-60102506D01*
X126563640Y-60051171D01*
X126432073Y-60025000D01*
X126297927Y-60025000D01*
X126166360Y-60051171D01*
X126047500Y-60100404D01*
X125928640Y-60051171D01*
X125797073Y-60025000D01*
X125662927Y-60025000D01*
X125531360Y-60051171D01*
X125412507Y-60100401D01*
X125293640Y-60051165D01*
X125162073Y-60024994D01*
X125027927Y-60024994D01*
X124896360Y-60051165D01*
X124772426Y-60102500D01*
X124660888Y-60177027D01*
X124566033Y-60271882D01*
X124491506Y-60383420D01*
X124440171Y-60507354D01*
X124414000Y-60638921D01*
X123050578Y-60638921D01*
X124532904Y-59156596D01*
X124995521Y-59156596D01*
X125041888Y-59202963D01*
X125153426Y-59277490D01*
X125277360Y-59328825D01*
X125408927Y-59354996D01*
X125543073Y-59354996D01*
X125674640Y-59328825D01*
X125798574Y-59277490D01*
X125910112Y-59202963D01*
X125985213Y-59127862D01*
X126034064Y-59167952D01*
X126100252Y-59203331D01*
X126172071Y-59225117D01*
X126246760Y-59232473D01*
X127445640Y-59232473D01*
X127520329Y-59225117D01*
X127592148Y-59203331D01*
X127658336Y-59167952D01*
X127716351Y-59120341D01*
X127763962Y-59062326D01*
X127799341Y-58996138D01*
X127821127Y-58924319D01*
X127828483Y-58849630D01*
X127828483Y-57701654D01*
X127867280Y-57701654D01*
X127867280Y-58298347D01*
X127881467Y-58442390D01*
X127937530Y-58627203D01*
X128028571Y-58797528D01*
X128151091Y-58946820D01*
X128300383Y-59069340D01*
X128470708Y-59160380D01*
X128655521Y-59216443D01*
X128847720Y-59235373D01*
X129039920Y-59216443D01*
X129224733Y-59160380D01*
X129395058Y-59069340D01*
X129544350Y-58946820D01*
X129666870Y-58797528D01*
X129757910Y-58627203D01*
X129813973Y-58442389D01*
X129828160Y-58298346D01*
X129828160Y-57701653D01*
X129813973Y-57557610D01*
X129757910Y-57372797D01*
X129666870Y-57202472D01*
X129544350Y-57053180D01*
X129395058Y-56930660D01*
X129224732Y-56839620D01*
X129039919Y-56783557D01*
X128847720Y-56764627D01*
X128655520Y-56783557D01*
X128470707Y-56839620D01*
X128300382Y-56930660D01*
X128151090Y-57053180D01*
X128028570Y-57202472D01*
X127937530Y-57372798D01*
X127881467Y-57557611D01*
X127867280Y-57701654D01*
X127828483Y-57701654D01*
X127828483Y-57150370D01*
X127821127Y-57075681D01*
X127799341Y-57003862D01*
X127763962Y-56937674D01*
X127716351Y-56879659D01*
X127658336Y-56832048D01*
X127592148Y-56796669D01*
X127520329Y-56774883D01*
X127445640Y-56767527D01*
X126246760Y-56767527D01*
X126172071Y-56774883D01*
X126100252Y-56796669D01*
X126034064Y-56832048D01*
X125976049Y-56879659D01*
X125928438Y-56937674D01*
X125893059Y-57003862D01*
X125871273Y-57075681D01*
X125863917Y-57150370D01*
X125863917Y-58114163D01*
X125798574Y-58070502D01*
X125674640Y-58019167D01*
X125543073Y-57992996D01*
X125408927Y-57992996D01*
X125277360Y-58019167D01*
X125153426Y-58070502D01*
X125041888Y-58145029D01*
X124995521Y-58191396D01*
X124356708Y-58191396D01*
X124333003Y-58189061D01*
X124309298Y-58191396D01*
X124309297Y-58191396D01*
X124238398Y-58198379D01*
X124147427Y-58225974D01*
X124063589Y-58270787D01*
X123990103Y-58331095D01*
X123974992Y-58349508D01*
X122552480Y-59772021D01*
X122568065Y-59734394D01*
X122600000Y-59573846D01*
X122600000Y-59410154D01*
X122568065Y-59249606D01*
X122505423Y-59098374D01*
X122414480Y-58962268D01*
X122298732Y-58846520D01*
X122162626Y-58755577D01*
X122011394Y-58692935D01*
X121850846Y-58661000D01*
X121687154Y-58661000D01*
X121526606Y-58692935D01*
X121375374Y-58755577D01*
X121239268Y-58846520D01*
X121123520Y-58962268D01*
X121032577Y-59098374D01*
X120969935Y-59249606D01*
X120938000Y-59410154D01*
X120938000Y-59573846D01*
X120969935Y-59734394D01*
X121032577Y-59885626D01*
X121123520Y-60021732D01*
X121239268Y-60137480D01*
X121375374Y-60228423D01*
X121526606Y-60291065D01*
X121687154Y-60323000D01*
X121850846Y-60323000D01*
X122011394Y-60291065D01*
X122049021Y-60275480D01*
X119436514Y-62887987D01*
X119418100Y-62903099D01*
X119402989Y-62921512D01*
X119402987Y-62921514D01*
X119357792Y-62976585D01*
X119312978Y-63060424D01*
X119285384Y-63151394D01*
X119276065Y-63246000D01*
X119278401Y-63269715D01*
X119278400Y-74943623D01*
X119197640Y-74910171D01*
X119066073Y-74884000D01*
X118931927Y-74884000D01*
X118800360Y-74910171D01*
X118676426Y-74961506D01*
X118564888Y-75036033D01*
X118470033Y-75130888D01*
X118395506Y-75242426D01*
X118344171Y-75366360D01*
X118318000Y-75497927D01*
X118318000Y-75632073D01*
X118344171Y-75763640D01*
X118395506Y-75887574D01*
X118470033Y-75999112D01*
X118564888Y-76093967D01*
X118676426Y-76168494D01*
X118800360Y-76219829D01*
X118931927Y-76246000D01*
X119066073Y-76246000D01*
X119197640Y-76219829D01*
X119278400Y-76186377D01*
X119278400Y-83452623D01*
X119197640Y-83419171D01*
X119147350Y-83409167D01*
X119199443Y-83237440D01*
X119218373Y-83045240D01*
X119199443Y-82853040D01*
X119143380Y-82668227D01*
X119052340Y-82497902D01*
X118929820Y-82348610D01*
X118780528Y-82226090D01*
X118610203Y-82135050D01*
X118425390Y-82078987D01*
X118281347Y-82064800D01*
X117684653Y-82064800D01*
X117540610Y-82078987D01*
X117355797Y-82135050D01*
X117185472Y-82226090D01*
X117036180Y-82348610D01*
X116913660Y-82497902D01*
X116822620Y-82668227D01*
X116766557Y-82853040D01*
X116747627Y-83045240D01*
X116766557Y-83237440D01*
X116822620Y-83422253D01*
X116913660Y-83592578D01*
X117036180Y-83741870D01*
X117185472Y-83864390D01*
X117355797Y-83955430D01*
X117540610Y-84011493D01*
X117684653Y-84025680D01*
X118281347Y-84025680D01*
X118318000Y-84022070D01*
X118318000Y-84072470D01*
X118281347Y-84068860D01*
X117684653Y-84068860D01*
X117540610Y-84083047D01*
X117355797Y-84139110D01*
X117185472Y-84230150D01*
X117036180Y-84352670D01*
X116913660Y-84501962D01*
X116822620Y-84672287D01*
X116766557Y-84857100D01*
X116747627Y-85049300D01*
X116766557Y-85241500D01*
X116822620Y-85426313D01*
X116913660Y-85596638D01*
X117036180Y-85745930D01*
X117185472Y-85868450D01*
X117355797Y-85959490D01*
X117540610Y-86015553D01*
X117684653Y-86029740D01*
X118281347Y-86029740D01*
X118407925Y-86017273D01*
X118436091Y-86085273D01*
X118425390Y-86082027D01*
X118281347Y-86067840D01*
X117684653Y-86067840D01*
X117540610Y-86082027D01*
X117355797Y-86138090D01*
X117185472Y-86229130D01*
X117036180Y-86351650D01*
X116913660Y-86500942D01*
X116822620Y-86671267D01*
X116766557Y-86856080D01*
X116747627Y-87048280D01*
X116766557Y-87240480D01*
X116822620Y-87425293D01*
X116913660Y-87595618D01*
X117036180Y-87744910D01*
X117185472Y-87867430D01*
X117355797Y-87958470D01*
X117540610Y-88014533D01*
X117684653Y-88028720D01*
X118281347Y-88028720D01*
X118425390Y-88014533D01*
X118610203Y-87958470D01*
X118780528Y-87867430D01*
X118929820Y-87744910D01*
X119052340Y-87595618D01*
X119143380Y-87425293D01*
X119199443Y-87240480D01*
X119218373Y-87048280D01*
X119199443Y-86856080D01*
X119143380Y-86671267D01*
X119052340Y-86500942D01*
X119046949Y-86494373D01*
X119127648Y-86494373D01*
X119259215Y-86468202D01*
X119383149Y-86416867D01*
X119494687Y-86342340D01*
X119589542Y-86247485D01*
X119664069Y-86135947D01*
X119715404Y-86012013D01*
X119741575Y-85880446D01*
X119741575Y-85746300D01*
X119715404Y-85614733D01*
X119664069Y-85490799D01*
X119589542Y-85379261D01*
X119494687Y-85284406D01*
X119383149Y-85209879D01*
X119259215Y-85158544D01*
X119208605Y-85148477D01*
X119218373Y-85049300D01*
X119210351Y-84967850D01*
X121564400Y-87321900D01*
X121564400Y-90373175D01*
X121550483Y-90370407D01*
X121416337Y-90370407D01*
X121284770Y-90396578D01*
X121160836Y-90447913D01*
X121049298Y-90522440D01*
X120954443Y-90617295D01*
X120879916Y-90728833D01*
X120828581Y-90852767D01*
X120802410Y-90984334D01*
X120802410Y-91118480D01*
X120828581Y-91250047D01*
X120879916Y-91373981D01*
X120918774Y-91432137D01*
X120837023Y-91513888D01*
X120762496Y-91625426D01*
X120711161Y-91749360D01*
X120684990Y-91880927D01*
X120684990Y-92015073D01*
X120711161Y-92146640D01*
X120762159Y-92269762D01*
X120756033Y-92275888D01*
X120681506Y-92387426D01*
X120630171Y-92511360D01*
X120616870Y-92578226D01*
X120503621Y-92578226D01*
X120372054Y-92604397D01*
X120248120Y-92655732D01*
X120136582Y-92730259D01*
X120041727Y-92825114D01*
X119967200Y-92936652D01*
X119915865Y-93060586D01*
X119889694Y-93192153D01*
X119889694Y-93326299D01*
X119915865Y-93457866D01*
X119967200Y-93581800D01*
X120041727Y-93693338D01*
X120136582Y-93788193D01*
X120248120Y-93862720D01*
X120372054Y-93914055D01*
X120503621Y-93940226D01*
X120637767Y-93940226D01*
X120769334Y-93914055D01*
X120893268Y-93862720D01*
X121004806Y-93788193D01*
X121099661Y-93693338D01*
X121174188Y-93581800D01*
X121225523Y-93457866D01*
X121238824Y-93391000D01*
X121352073Y-93391000D01*
X121483640Y-93364829D01*
X121564401Y-93331377D01*
X121564401Y-96750285D01*
X121562065Y-96774002D01*
X121571384Y-96868608D01*
X121598978Y-96959578D01*
X121624344Y-97007033D01*
X121643792Y-97043417D01*
X121704100Y-97116903D01*
X121722519Y-97132019D01*
X121888606Y-97298106D01*
X121851426Y-97313506D01*
X121739888Y-97388033D01*
X121645033Y-97482888D01*
X121570506Y-97594426D01*
X121519171Y-97718360D01*
X121493000Y-97849927D01*
X121493000Y-97984073D01*
X121519171Y-98115640D01*
X121570506Y-98239574D01*
X121626517Y-98323400D01*
X121435696Y-98323400D01*
X121411999Y-98321066D01*
X121388302Y-98323400D01*
X121388293Y-98323400D01*
X121317394Y-98330383D01*
X121226423Y-98357978D01*
X121142585Y-98402791D01*
X121069099Y-98463099D01*
X121053983Y-98481518D01*
X120706518Y-98828983D01*
X120688099Y-98844099D01*
X120627791Y-98917585D01*
X120582978Y-99001424D01*
X120555383Y-99092395D01*
X120548488Y-99162399D01*
X120546065Y-99187000D01*
X120548400Y-99210705D01*
X120548401Y-99925286D01*
X120546065Y-99949000D01*
X120555384Y-100043606D01*
X120582978Y-100134576D01*
X120598121Y-100162906D01*
X120627792Y-100218415D01*
X120688100Y-100291901D01*
X120706513Y-100307012D01*
X124736988Y-104337488D01*
X124752099Y-104355901D01*
X124825585Y-104416209D01*
X124909423Y-104461022D01*
X125000393Y-104488617D01*
X125095000Y-104497935D01*
X125118707Y-104495600D01*
X129576515Y-104495600D01*
X129600220Y-104497935D01*
X129623925Y-104495600D01*
X129623927Y-104495600D01*
X129694826Y-104488617D01*
X129785797Y-104461022D01*
X129869635Y-104416209D01*
X129943121Y-104355901D01*
X129958237Y-104337482D01*
X130171546Y-104124173D01*
X130206506Y-104208574D01*
X130281033Y-104320112D01*
X130375888Y-104414967D01*
X130487426Y-104489494D01*
X130611360Y-104540829D01*
X130742927Y-104567000D01*
X130877073Y-104567000D01*
X131008640Y-104540829D01*
X131132574Y-104489494D01*
X131244112Y-104414967D01*
X131338967Y-104320112D01*
X131413494Y-104208574D01*
X131464829Y-104084640D01*
X131491000Y-103953073D01*
X131491000Y-103818927D01*
X131464829Y-103687360D01*
X131413494Y-103563426D01*
X131357483Y-103479600D01*
X133707295Y-103479600D01*
X133731000Y-103481935D01*
X133754705Y-103479600D01*
X133754707Y-103479600D01*
X133825606Y-103472617D01*
X133916577Y-103445022D01*
X134000415Y-103400209D01*
X134073901Y-103339901D01*
X134089017Y-103321482D01*
X135212572Y-102197927D01*
X135917600Y-102197927D01*
X135917600Y-102332073D01*
X135943771Y-102463640D01*
X135995106Y-102587574D01*
X136069633Y-102699112D01*
X136164488Y-102793967D01*
X136276026Y-102868494D01*
X136399960Y-102919829D01*
X136531527Y-102946000D01*
X136665673Y-102946000D01*
X136797240Y-102919829D01*
X136921174Y-102868494D01*
X137032712Y-102793967D01*
X137127567Y-102699112D01*
X137202094Y-102587574D01*
X137253429Y-102463640D01*
X137279600Y-102332073D01*
X137279600Y-102197927D01*
X137253429Y-102066360D01*
X137202094Y-101942426D01*
X137127567Y-101830888D01*
X137032712Y-101736033D01*
X136921174Y-101661506D01*
X136797240Y-101610171D01*
X136665673Y-101584000D01*
X136531527Y-101584000D01*
X136399960Y-101610171D01*
X136276026Y-101661506D01*
X136164488Y-101736033D01*
X136069633Y-101830888D01*
X135995106Y-101942426D01*
X135943771Y-102066360D01*
X135917600Y-102197927D01*
X135212572Y-102197927D01*
X139544001Y-97866499D01*
X139544000Y-106373000D01*
X128836044Y-106373000D01*
X128916515Y-106319231D01*
X129011370Y-106224376D01*
X129085897Y-106112838D01*
X129137232Y-105988904D01*
X129163403Y-105857337D01*
X129163403Y-105723191D01*
X129138287Y-105596927D01*
X130256000Y-105596927D01*
X130256000Y-105731073D01*
X130282171Y-105862640D01*
X130333506Y-105986574D01*
X130408033Y-106098112D01*
X130502888Y-106192967D01*
X130614426Y-106267494D01*
X130738360Y-106318829D01*
X130869927Y-106345000D01*
X131004073Y-106345000D01*
X131135640Y-106318829D01*
X131259574Y-106267494D01*
X131371112Y-106192967D01*
X131465967Y-106098112D01*
X131540494Y-105986574D01*
X131591829Y-105862640D01*
X131618000Y-105731073D01*
X131618000Y-105596927D01*
X131591829Y-105465360D01*
X131540494Y-105341426D01*
X131465967Y-105229888D01*
X131371112Y-105135033D01*
X131259574Y-105060506D01*
X131135640Y-105009171D01*
X131004073Y-104983000D01*
X130869927Y-104983000D01*
X130738360Y-105009171D01*
X130614426Y-105060506D01*
X130502888Y-105135033D01*
X130408033Y-105229888D01*
X130333506Y-105341426D01*
X130282171Y-105465360D01*
X130256000Y-105596927D01*
X129138287Y-105596927D01*
X129137232Y-105591624D01*
X129085897Y-105467690D01*
X129011370Y-105356152D01*
X128916515Y-105261297D01*
X128804977Y-105186770D01*
X128681043Y-105135435D01*
X128549476Y-105109264D01*
X128415330Y-105109264D01*
X128283763Y-105135435D01*
X128159829Y-105186770D01*
X128048291Y-105261297D01*
X127953436Y-105356152D01*
X127878909Y-105467690D01*
X127827574Y-105591624D01*
X127801403Y-105723191D01*
X127801403Y-105857337D01*
X127827574Y-105988904D01*
X127878909Y-106112838D01*
X127953436Y-106224376D01*
X128048291Y-106319231D01*
X128128762Y-106373000D01*
X127300000Y-106373000D01*
X127300000Y-105904269D01*
X127286529Y-105767492D01*
X127233293Y-105591998D01*
X127146843Y-105430262D01*
X127030501Y-105288499D01*
X126888738Y-105172157D01*
X126727002Y-105085707D01*
X126551508Y-105032471D01*
X126369000Y-105014496D01*
X126186493Y-105032471D01*
X126010999Y-105085707D01*
X125849263Y-105172157D01*
X125707500Y-105288499D01*
X125591158Y-105430262D01*
X125504708Y-105591998D01*
X125451471Y-105767492D01*
X125438000Y-105904269D01*
X125438000Y-106373000D01*
X115127000Y-106373000D01*
X115127000Y-103603600D01*
X116767527Y-103603600D01*
X116767527Y-104802480D01*
X116774883Y-104877169D01*
X116796669Y-104948988D01*
X116832048Y-105015176D01*
X116879659Y-105073191D01*
X116937674Y-105120802D01*
X117003862Y-105156181D01*
X117075681Y-105177967D01*
X117150370Y-105185323D01*
X118849630Y-105185323D01*
X118924319Y-105177967D01*
X118996138Y-105156181D01*
X119062326Y-105120802D01*
X119120341Y-105073191D01*
X119167952Y-105015176D01*
X119203331Y-104948988D01*
X119225117Y-104877169D01*
X119232473Y-104802480D01*
X119232473Y-103603600D01*
X119225117Y-103528911D01*
X119203331Y-103457092D01*
X119167952Y-103390904D01*
X119120341Y-103332889D01*
X119062326Y-103285278D01*
X118996138Y-103249899D01*
X118924319Y-103228113D01*
X118849630Y-103220757D01*
X117150370Y-103220757D01*
X117075681Y-103228113D01*
X117003862Y-103249899D01*
X116937674Y-103285278D01*
X116879659Y-103332889D01*
X116832048Y-103390904D01*
X116796669Y-103457092D01*
X116774883Y-103528911D01*
X116767527Y-103603600D01*
X115127000Y-103603600D01*
X115127000Y-102201520D01*
X116764627Y-102201520D01*
X116783557Y-102393720D01*
X116839620Y-102578533D01*
X116930660Y-102748858D01*
X117053180Y-102898150D01*
X117202472Y-103020670D01*
X117372797Y-103111710D01*
X117557610Y-103167773D01*
X117701653Y-103181960D01*
X118298347Y-103181960D01*
X118442390Y-103167773D01*
X118627203Y-103111710D01*
X118797528Y-103020670D01*
X118946820Y-102898150D01*
X119069340Y-102748858D01*
X119160380Y-102578533D01*
X119216443Y-102393720D01*
X119235373Y-102201520D01*
X119216443Y-102009320D01*
X119160380Y-101824507D01*
X119069340Y-101654182D01*
X118946820Y-101504890D01*
X118797528Y-101382370D01*
X118627203Y-101291330D01*
X118442390Y-101235267D01*
X118298347Y-101221080D01*
X117701653Y-101221080D01*
X117557610Y-101235267D01*
X117372797Y-101291330D01*
X117202472Y-101382370D01*
X117053180Y-101504890D01*
X116930660Y-101654182D01*
X116839620Y-101824507D01*
X116783557Y-102009320D01*
X116764627Y-102201520D01*
X115127000Y-102201520D01*
X115127000Y-100200000D01*
X116764627Y-100200000D01*
X116783557Y-100392200D01*
X116839620Y-100577013D01*
X116930660Y-100747338D01*
X117053180Y-100896630D01*
X117202472Y-101019150D01*
X117372797Y-101110190D01*
X117557610Y-101166253D01*
X117701653Y-101180440D01*
X118298347Y-101180440D01*
X118442390Y-101166253D01*
X118627203Y-101110190D01*
X118797528Y-101019150D01*
X118946820Y-100896630D01*
X118966057Y-100873189D01*
X118978033Y-100891112D01*
X119072888Y-100985967D01*
X119184426Y-101060494D01*
X119308360Y-101111829D01*
X119439927Y-101138000D01*
X119574073Y-101138000D01*
X119705640Y-101111829D01*
X119829574Y-101060494D01*
X119941112Y-100985967D01*
X120035967Y-100891112D01*
X120110494Y-100779574D01*
X120161829Y-100655640D01*
X120188000Y-100524073D01*
X120188000Y-100389927D01*
X120161829Y-100258360D01*
X120110494Y-100134426D01*
X120035967Y-100022888D01*
X119941112Y-99928033D01*
X119829574Y-99853506D01*
X119705640Y-99802171D01*
X119574073Y-99776000D01*
X119439927Y-99776000D01*
X119308360Y-99802171D01*
X119184426Y-99853506D01*
X119172130Y-99861722D01*
X119160380Y-99822987D01*
X119069340Y-99652662D01*
X118946820Y-99503370D01*
X118797528Y-99380850D01*
X118627203Y-99289810D01*
X118442390Y-99233747D01*
X118298347Y-99219560D01*
X117701653Y-99219560D01*
X117557610Y-99233747D01*
X117372797Y-99289810D01*
X117202472Y-99380850D01*
X117053180Y-99503370D01*
X116930660Y-99652662D01*
X116839620Y-99822987D01*
X116783557Y-100007800D01*
X116764627Y-100200000D01*
X115127000Y-100200000D01*
X115127000Y-98648072D01*
X118906990Y-98648072D01*
X118906990Y-98782218D01*
X118933161Y-98913785D01*
X118984496Y-99037719D01*
X119059023Y-99149257D01*
X119153878Y-99244112D01*
X119265416Y-99318639D01*
X119389350Y-99369974D01*
X119520917Y-99396145D01*
X119655063Y-99396145D01*
X119786630Y-99369974D01*
X119910564Y-99318639D01*
X120022102Y-99244112D01*
X120116957Y-99149257D01*
X120191484Y-99037719D01*
X120242819Y-98913785D01*
X120268990Y-98782218D01*
X120268990Y-98648072D01*
X120242819Y-98516505D01*
X120191484Y-98392571D01*
X120116957Y-98281033D01*
X120022102Y-98186178D01*
X119910564Y-98111651D01*
X119786630Y-98060316D01*
X119655063Y-98034145D01*
X119520917Y-98034145D01*
X119389350Y-98060316D01*
X119265416Y-98111651D01*
X119153878Y-98186178D01*
X119059023Y-98281033D01*
X118984496Y-98392571D01*
X118933161Y-98516505D01*
X118906990Y-98648072D01*
X115127000Y-98648072D01*
X115127000Y-97468927D01*
X116319000Y-97468927D01*
X116319000Y-97603073D01*
X116345171Y-97734640D01*
X116396506Y-97858574D01*
X116471033Y-97970112D01*
X116565888Y-98064967D01*
X116677426Y-98139494D01*
X116801360Y-98190829D01*
X116932927Y-98217000D01*
X117067073Y-98217000D01*
X117198640Y-98190829D01*
X117322574Y-98139494D01*
X117434112Y-98064967D01*
X117528967Y-97970112D01*
X117603494Y-97858574D01*
X117654829Y-97734640D01*
X117681000Y-97603073D01*
X117681000Y-97468927D01*
X117654829Y-97337360D01*
X117603494Y-97213426D01*
X117528967Y-97101888D01*
X117434112Y-97007033D01*
X117322574Y-96932506D01*
X117198640Y-96881171D01*
X117067073Y-96855000D01*
X116932927Y-96855000D01*
X116801360Y-96881171D01*
X116677426Y-96932506D01*
X116565888Y-97007033D01*
X116471033Y-97101888D01*
X116396506Y-97213426D01*
X116345171Y-97337360D01*
X116319000Y-97468927D01*
X115127000Y-97468927D01*
X115127000Y-94801927D01*
X116794000Y-94801927D01*
X116794000Y-94936073D01*
X116820171Y-95067640D01*
X116871506Y-95191574D01*
X116946033Y-95303112D01*
X117040888Y-95397967D01*
X117152426Y-95472494D01*
X117276360Y-95523829D01*
X117407927Y-95550000D01*
X117542073Y-95550000D01*
X117673640Y-95523829D01*
X117797574Y-95472494D01*
X117909112Y-95397967D01*
X118003967Y-95303112D01*
X118078494Y-95191574D01*
X118129829Y-95067640D01*
X118156000Y-94936073D01*
X118156000Y-94801927D01*
X118445000Y-94801927D01*
X118445000Y-94936073D01*
X118471171Y-95067640D01*
X118522506Y-95191574D01*
X118597033Y-95303112D01*
X118691888Y-95397967D01*
X118803426Y-95472494D01*
X118927360Y-95523829D01*
X119058927Y-95550000D01*
X119193073Y-95550000D01*
X119324640Y-95523829D01*
X119448574Y-95472494D01*
X119560112Y-95397967D01*
X119654967Y-95303112D01*
X119729494Y-95191574D01*
X119780829Y-95067640D01*
X119807000Y-94936073D01*
X119807000Y-94801927D01*
X119780829Y-94670360D01*
X119729494Y-94546426D01*
X119654967Y-94434888D01*
X119560112Y-94340033D01*
X119448574Y-94265506D01*
X119324640Y-94214171D01*
X119193073Y-94188000D01*
X119058927Y-94188000D01*
X118927360Y-94214171D01*
X118803426Y-94265506D01*
X118691888Y-94340033D01*
X118597033Y-94434888D01*
X118522506Y-94546426D01*
X118471171Y-94670360D01*
X118445000Y-94801927D01*
X118156000Y-94801927D01*
X118129829Y-94670360D01*
X118078494Y-94546426D01*
X118003967Y-94434888D01*
X117909112Y-94340033D01*
X117797574Y-94265506D01*
X117673640Y-94214171D01*
X117542073Y-94188000D01*
X117407927Y-94188000D01*
X117276360Y-94214171D01*
X117152426Y-94265506D01*
X117040888Y-94340033D01*
X116946033Y-94434888D01*
X116871506Y-94546426D01*
X116820171Y-94670360D01*
X116794000Y-94801927D01*
X115127000Y-94801927D01*
X115127000Y-90451880D01*
X116750527Y-90451880D01*
X116750527Y-91650760D01*
X116757883Y-91725449D01*
X116779669Y-91797268D01*
X116815048Y-91863456D01*
X116862659Y-91921471D01*
X116920674Y-91969082D01*
X116986862Y-92004461D01*
X117058681Y-92026247D01*
X117133370Y-92033603D01*
X118832630Y-92033603D01*
X118907319Y-92026247D01*
X118979138Y-92004461D01*
X119045326Y-91969082D01*
X119103341Y-91921471D01*
X119150952Y-91863456D01*
X119186331Y-91797268D01*
X119208117Y-91725449D01*
X119215473Y-91650760D01*
X119215473Y-90451880D01*
X119208117Y-90377191D01*
X119186331Y-90305372D01*
X119150952Y-90239184D01*
X119103341Y-90181169D01*
X119045326Y-90133558D01*
X118979138Y-90098179D01*
X118907319Y-90076393D01*
X118832630Y-90069037D01*
X117133370Y-90069037D01*
X117058681Y-90076393D01*
X116986862Y-90098179D01*
X116920674Y-90133558D01*
X116862659Y-90181169D01*
X116815048Y-90239184D01*
X116779669Y-90305372D01*
X116757883Y-90377191D01*
X116750527Y-90451880D01*
X115127000Y-90451880D01*
X115127000Y-89220261D01*
X116818932Y-89220261D01*
X116864213Y-89382091D01*
X116945730Y-89545161D01*
X117057494Y-89689194D01*
X117195210Y-89808656D01*
X117353585Y-89898955D01*
X117526534Y-89956622D01*
X117707410Y-89979440D01*
X117957600Y-89979440D01*
X117957600Y-89075200D01*
X118008400Y-89075200D01*
X118008400Y-89979440D01*
X118258590Y-89979440D01*
X118439466Y-89956622D01*
X118612415Y-89898955D01*
X118770790Y-89808656D01*
X118908506Y-89689194D01*
X119020270Y-89545161D01*
X119101787Y-89382091D01*
X119147068Y-89220261D01*
X119079899Y-89075200D01*
X118008400Y-89075200D01*
X117957600Y-89075200D01*
X116886101Y-89075200D01*
X116818932Y-89220261D01*
X115127000Y-89220261D01*
X115127000Y-88879339D01*
X116818932Y-88879339D01*
X116886101Y-89024400D01*
X117957600Y-89024400D01*
X117957600Y-88120160D01*
X118008400Y-88120160D01*
X118008400Y-89024400D01*
X119079899Y-89024400D01*
X119147068Y-88879339D01*
X119101787Y-88717509D01*
X119020270Y-88554439D01*
X118908506Y-88410406D01*
X118770790Y-88290944D01*
X118612415Y-88200645D01*
X118439466Y-88142978D01*
X118258590Y-88120160D01*
X118008400Y-88120160D01*
X117957600Y-88120160D01*
X117707410Y-88120160D01*
X117526534Y-88142978D01*
X117353585Y-88200645D01*
X117195210Y-88290944D01*
X117057494Y-88410406D01*
X116945730Y-88554439D01*
X116864213Y-88717509D01*
X116818932Y-88879339D01*
X115127000Y-88879339D01*
X115127000Y-81043720D01*
X116747627Y-81043720D01*
X116766557Y-81235920D01*
X116822620Y-81420733D01*
X116913660Y-81591058D01*
X117036180Y-81740350D01*
X117185472Y-81862870D01*
X117355797Y-81953910D01*
X117540610Y-82009973D01*
X117684653Y-82024160D01*
X118281347Y-82024160D01*
X118425390Y-82009973D01*
X118610203Y-81953910D01*
X118780528Y-81862870D01*
X118929820Y-81740350D01*
X119052340Y-81591058D01*
X119143380Y-81420733D01*
X119199443Y-81235920D01*
X119218373Y-81043720D01*
X119199443Y-80851520D01*
X119143380Y-80666707D01*
X119052340Y-80496382D01*
X118929820Y-80347090D01*
X118780528Y-80224570D01*
X118610203Y-80133530D01*
X118425390Y-80077467D01*
X118281347Y-80063280D01*
X117684653Y-80063280D01*
X117540610Y-80077467D01*
X117355797Y-80133530D01*
X117185472Y-80224570D01*
X117036180Y-80347090D01*
X116913660Y-80496382D01*
X116822620Y-80666707D01*
X116766557Y-80851520D01*
X116747627Y-81043720D01*
X115127000Y-81043720D01*
X115127000Y-79044740D01*
X116747627Y-79044740D01*
X116766557Y-79236940D01*
X116822620Y-79421753D01*
X116913660Y-79592078D01*
X117036180Y-79741370D01*
X117185472Y-79863890D01*
X117355797Y-79954930D01*
X117540610Y-80010993D01*
X117684653Y-80025180D01*
X118281347Y-80025180D01*
X118425390Y-80010993D01*
X118610203Y-79954930D01*
X118780528Y-79863890D01*
X118929820Y-79741370D01*
X119052340Y-79592078D01*
X119143380Y-79421753D01*
X119199443Y-79236940D01*
X119218373Y-79044740D01*
X119199443Y-78852540D01*
X119143380Y-78667727D01*
X119052340Y-78497402D01*
X118929820Y-78348110D01*
X118780528Y-78225590D01*
X118610203Y-78134550D01*
X118425390Y-78078487D01*
X118281347Y-78064300D01*
X117684653Y-78064300D01*
X117540610Y-78078487D01*
X117355797Y-78134550D01*
X117185472Y-78225590D01*
X117036180Y-78348110D01*
X116913660Y-78497402D01*
X116822620Y-78667727D01*
X116766557Y-78852540D01*
X116747627Y-79044740D01*
X115127000Y-79044740D01*
X115127000Y-77045760D01*
X116747627Y-77045760D01*
X116766557Y-77237960D01*
X116822620Y-77422773D01*
X116913660Y-77593098D01*
X117036180Y-77742390D01*
X117185472Y-77864910D01*
X117355797Y-77955950D01*
X117540610Y-78012013D01*
X117684653Y-78026200D01*
X118281347Y-78026200D01*
X118425390Y-78012013D01*
X118610203Y-77955950D01*
X118780528Y-77864910D01*
X118929820Y-77742390D01*
X119052340Y-77593098D01*
X119143380Y-77422773D01*
X119199443Y-77237960D01*
X119218373Y-77045760D01*
X119199443Y-76853560D01*
X119143380Y-76668747D01*
X119052340Y-76498422D01*
X118929820Y-76349130D01*
X118780528Y-76226610D01*
X118610203Y-76135570D01*
X118425390Y-76079507D01*
X118281347Y-76065320D01*
X117684653Y-76065320D01*
X117540610Y-76079507D01*
X117355797Y-76135570D01*
X117185472Y-76226610D01*
X117036180Y-76349130D01*
X116913660Y-76498422D01*
X116822620Y-76668747D01*
X116766557Y-76853560D01*
X116747627Y-77045760D01*
X115127000Y-77045760D01*
X115127000Y-71949600D01*
X116750527Y-71949600D01*
X116750527Y-73148480D01*
X116757883Y-73223169D01*
X116779669Y-73294988D01*
X116815048Y-73361176D01*
X116862659Y-73419191D01*
X116920674Y-73466802D01*
X116986862Y-73502181D01*
X117058681Y-73523967D01*
X117133370Y-73531323D01*
X118832630Y-73531323D01*
X118907319Y-73523967D01*
X118979138Y-73502181D01*
X119045326Y-73466802D01*
X119103341Y-73419191D01*
X119150952Y-73361176D01*
X119186331Y-73294988D01*
X119208117Y-73223169D01*
X119215473Y-73148480D01*
X119215473Y-71949600D01*
X119208117Y-71874911D01*
X119186331Y-71803092D01*
X119150952Y-71736904D01*
X119103341Y-71678889D01*
X119045326Y-71631278D01*
X118979138Y-71595899D01*
X118907319Y-71574113D01*
X118832630Y-71566757D01*
X117133370Y-71566757D01*
X117058681Y-71574113D01*
X116986862Y-71595899D01*
X116920674Y-71631278D01*
X116862659Y-71678889D01*
X116815048Y-71736904D01*
X116779669Y-71803092D01*
X116757883Y-71874911D01*
X116750527Y-71949600D01*
X115127000Y-71949600D01*
X115127000Y-70547520D01*
X116747627Y-70547520D01*
X116766557Y-70739720D01*
X116822620Y-70924533D01*
X116913660Y-71094858D01*
X117036180Y-71244150D01*
X117185472Y-71366670D01*
X117355797Y-71457710D01*
X117540610Y-71513773D01*
X117684653Y-71527960D01*
X118281347Y-71527960D01*
X118425390Y-71513773D01*
X118610203Y-71457710D01*
X118780528Y-71366670D01*
X118929820Y-71244150D01*
X119052340Y-71094858D01*
X119143380Y-70924533D01*
X119199443Y-70739720D01*
X119218373Y-70547520D01*
X119199443Y-70355320D01*
X119143380Y-70170507D01*
X119052340Y-70000182D01*
X118929820Y-69850890D01*
X118780528Y-69728370D01*
X118610203Y-69637330D01*
X118425390Y-69581267D01*
X118281347Y-69567080D01*
X117684653Y-69567080D01*
X117540610Y-69581267D01*
X117355797Y-69637330D01*
X117185472Y-69728370D01*
X117036180Y-69850890D01*
X116913660Y-70000182D01*
X116822620Y-70170507D01*
X116766557Y-70355320D01*
X116747627Y-70547520D01*
X115127000Y-70547520D01*
X115127000Y-68546000D01*
X116747627Y-68546000D01*
X116766557Y-68738200D01*
X116822620Y-68923013D01*
X116913660Y-69093338D01*
X117036180Y-69242630D01*
X117185472Y-69365150D01*
X117355797Y-69456190D01*
X117540610Y-69512253D01*
X117684653Y-69526440D01*
X118281347Y-69526440D01*
X118425390Y-69512253D01*
X118610203Y-69456190D01*
X118780528Y-69365150D01*
X118929820Y-69242630D01*
X119052340Y-69093338D01*
X119143380Y-68923013D01*
X119199443Y-68738200D01*
X119218373Y-68546000D01*
X119199443Y-68353800D01*
X119143380Y-68168987D01*
X119052340Y-67998662D01*
X118929820Y-67849370D01*
X118780528Y-67726850D01*
X118610203Y-67635810D01*
X118425390Y-67579747D01*
X118281347Y-67565560D01*
X117684653Y-67565560D01*
X117540610Y-67579747D01*
X117355797Y-67635810D01*
X117185472Y-67726850D01*
X117036180Y-67849370D01*
X116913660Y-67998662D01*
X116822620Y-68168987D01*
X116766557Y-68353800D01*
X116747627Y-68546000D01*
X115127000Y-68546000D01*
X115127000Y-66547020D01*
X116747627Y-66547020D01*
X116766557Y-66739220D01*
X116822620Y-66924033D01*
X116913660Y-67094358D01*
X117036180Y-67243650D01*
X117185472Y-67366170D01*
X117355797Y-67457210D01*
X117540610Y-67513273D01*
X117684653Y-67527460D01*
X118281347Y-67527460D01*
X118425390Y-67513273D01*
X118610203Y-67457210D01*
X118780528Y-67366170D01*
X118929820Y-67243650D01*
X119052340Y-67094358D01*
X119143380Y-66924033D01*
X119199443Y-66739220D01*
X119218373Y-66547020D01*
X119199443Y-66354820D01*
X119143380Y-66170007D01*
X119052340Y-65999682D01*
X118929820Y-65850390D01*
X118780528Y-65727870D01*
X118610203Y-65636830D01*
X118425390Y-65580767D01*
X118281347Y-65566580D01*
X117684653Y-65566580D01*
X117540610Y-65580767D01*
X117355797Y-65636830D01*
X117185472Y-65727870D01*
X117036180Y-65850390D01*
X116913660Y-65999682D01*
X116822620Y-66170007D01*
X116766557Y-66354820D01*
X116747627Y-66547020D01*
X115127000Y-66547020D01*
X115127000Y-64715961D01*
X116818932Y-64715961D01*
X116864213Y-64877791D01*
X116945730Y-65040861D01*
X117057494Y-65184894D01*
X117195210Y-65304356D01*
X117353585Y-65394655D01*
X117526534Y-65452322D01*
X117707410Y-65475140D01*
X117957600Y-65475140D01*
X117957600Y-64570900D01*
X118008400Y-64570900D01*
X118008400Y-65475140D01*
X118258590Y-65475140D01*
X118439466Y-65452322D01*
X118612415Y-65394655D01*
X118770790Y-65304356D01*
X118908506Y-65184894D01*
X119020270Y-65040861D01*
X119101787Y-64877791D01*
X119147068Y-64715961D01*
X119079899Y-64570900D01*
X118008400Y-64570900D01*
X117957600Y-64570900D01*
X116886101Y-64570900D01*
X116818932Y-64715961D01*
X115127000Y-64715961D01*
X115127000Y-64375039D01*
X116818932Y-64375039D01*
X116886101Y-64520100D01*
X117957600Y-64520100D01*
X117957600Y-63615860D01*
X118008400Y-63615860D01*
X118008400Y-64520100D01*
X119079899Y-64520100D01*
X119147068Y-64375039D01*
X119101787Y-64213209D01*
X119020270Y-64050139D01*
X118908506Y-63906106D01*
X118770790Y-63786644D01*
X118612415Y-63696345D01*
X118439466Y-63638678D01*
X118258590Y-63615860D01*
X118008400Y-63615860D01*
X117957600Y-63615860D01*
X117707410Y-63615860D01*
X117526534Y-63638678D01*
X117353585Y-63696345D01*
X117195210Y-63786644D01*
X117057494Y-63906106D01*
X116945730Y-64050139D01*
X116864213Y-64213209D01*
X116818932Y-64375039D01*
X115127000Y-64375039D01*
X115127000Y-59410154D01*
X117938000Y-59410154D01*
X117938000Y-59573846D01*
X117969935Y-59734394D01*
X118032577Y-59885626D01*
X118123520Y-60021732D01*
X118239268Y-60137480D01*
X118375374Y-60228423D01*
X118526606Y-60291065D01*
X118687154Y-60323000D01*
X118850846Y-60323000D01*
X119011394Y-60291065D01*
X119162626Y-60228423D01*
X119298732Y-60137480D01*
X119414480Y-60021732D01*
X119505423Y-59885626D01*
X119568065Y-59734394D01*
X119600000Y-59573846D01*
X119600000Y-59410154D01*
X119568065Y-59249606D01*
X119505423Y-59098374D01*
X119414480Y-58962268D01*
X119298732Y-58846520D01*
X119162626Y-58755577D01*
X119011394Y-58692935D01*
X118850846Y-58661000D01*
X118687154Y-58661000D01*
X118526606Y-58692935D01*
X118375374Y-58755577D01*
X118239268Y-58846520D01*
X118123520Y-58962268D01*
X118032577Y-59098374D01*
X117969935Y-59249606D01*
X117938000Y-59410154D01*
X115127000Y-59410154D01*
X115127000Y-56945516D01*
X115486833Y-56504317D01*
X115554994Y-56447929D01*
X121366000Y-56447929D01*
X121366000Y-56582075D01*
X121392171Y-56713642D01*
X121443506Y-56837576D01*
X121518033Y-56949114D01*
X121612888Y-57043969D01*
X121724426Y-57118496D01*
X121848360Y-57169831D01*
X121979927Y-57196002D01*
X122114073Y-57196002D01*
X122245640Y-57169831D01*
X122369574Y-57118496D01*
X122481112Y-57043969D01*
X122575967Y-56949114D01*
X122650494Y-56837576D01*
X122701829Y-56713642D01*
X122728000Y-56582075D01*
X122728000Y-56447929D01*
X122701829Y-56316362D01*
X122650494Y-56192428D01*
X122575967Y-56080890D01*
X122481112Y-55986035D01*
X122369574Y-55911508D01*
X122245640Y-55860173D01*
X122114073Y-55834002D01*
X121979927Y-55834002D01*
X121848360Y-55860173D01*
X121724426Y-55911508D01*
X121612888Y-55986035D01*
X121518033Y-56080890D01*
X121443506Y-56192428D01*
X121392171Y-56316362D01*
X121366000Y-56447929D01*
X115554994Y-56447929D01*
X116019443Y-56063704D01*
X116627494Y-55734932D01*
X117287818Y-55530527D01*
X117996766Y-55456014D01*
X118000720Y-55456000D01*
X122662122Y-55456000D01*
X122636000Y-55587321D01*
G36*
X123212986Y-98622486D02*
G01*
X123228099Y-98640901D01*
X123301585Y-98701209D01*
X123372245Y-98738978D01*
X123385423Y-98746022D01*
X123476393Y-98773617D01*
X123571000Y-98782935D01*
X123594705Y-98780600D01*
X123801128Y-98780600D01*
X123794365Y-98814598D01*
X123794365Y-98880171D01*
X123498101Y-99176436D01*
X123226936Y-99176436D01*
X122541185Y-98490686D01*
X122608112Y-98445967D01*
X122702967Y-98351112D01*
X122777494Y-98239574D01*
X122792894Y-98202394D01*
X123212986Y-98622486D01*
G37*
X123212986Y-98622486D02*
X123228099Y-98640901D01*
X123301585Y-98701209D01*
X123372245Y-98738978D01*
X123385423Y-98746022D01*
X123476393Y-98773617D01*
X123571000Y-98782935D01*
X123594705Y-98780600D01*
X123801128Y-98780600D01*
X123794365Y-98814598D01*
X123794365Y-98880171D01*
X123498101Y-99176436D01*
X123226936Y-99176436D01*
X122541185Y-98490686D01*
X122608112Y-98445967D01*
X122702967Y-98351112D01*
X122777494Y-98239574D01*
X122792894Y-98202394D01*
X123212986Y-98622486D01*
G36*
X140873000Y-83054127D02*
G01*
X140751256Y-83066923D01*
X140710767Y-83075234D01*
X140670175Y-83082977D01*
X140664081Y-83084817D01*
X140664075Y-83084819D01*
X140477642Y-83142530D01*
X140439552Y-83158541D01*
X140401222Y-83174027D01*
X140395604Y-83177015D01*
X140395599Y-83177017D01*
X140395595Y-83177020D01*
X140223923Y-83269842D01*
X140189651Y-83292958D01*
X140155075Y-83315584D01*
X140150150Y-83319601D01*
X140150142Y-83319607D01*
X140150135Y-83319614D01*
X139999763Y-83444013D01*
X139970637Y-83473343D01*
X139941113Y-83502254D01*
X139937059Y-83507155D01*
X139937053Y-83507161D01*
X139937049Y-83507168D01*
X139813704Y-83658403D01*
X139790819Y-83692847D01*
X139767483Y-83726928D01*
X139764459Y-83732521D01*
X139764454Y-83732529D01*
X139764451Y-83732537D01*
X139672830Y-83904851D01*
X139657087Y-83943046D01*
X139640799Y-83981049D01*
X139638916Y-83987131D01*
X139582507Y-84173968D01*
X139574483Y-84214493D01*
X139565886Y-84254936D01*
X139565221Y-84261268D01*
X139546176Y-84455502D01*
X139546176Y-84455517D01*
X139544001Y-84477601D01*
X139544001Y-91486990D01*
X139538665Y-91474108D01*
X139464138Y-91362570D01*
X139369283Y-91267715D01*
X139257745Y-91193188D01*
X139227340Y-91180594D01*
X139227340Y-91085456D01*
X139201169Y-90953889D01*
X139149834Y-90829955D01*
X139075307Y-90718417D01*
X138980452Y-90623562D01*
X138868914Y-90549035D01*
X138744980Y-90497700D01*
X138613413Y-90471529D01*
X138547839Y-90471529D01*
X134623237Y-86546927D01*
X137368000Y-86546927D01*
X137368000Y-86681073D01*
X137394171Y-86812640D01*
X137445506Y-86936574D01*
X137520033Y-87048112D01*
X137614888Y-87142967D01*
X137726426Y-87217494D01*
X137850360Y-87268829D01*
X137981927Y-87295000D01*
X138116073Y-87295000D01*
X138247640Y-87268829D01*
X138371574Y-87217494D01*
X138483112Y-87142967D01*
X138577967Y-87048112D01*
X138652494Y-86936574D01*
X138703829Y-86812640D01*
X138730000Y-86681073D01*
X138730000Y-86546927D01*
X138703829Y-86415360D01*
X138652494Y-86291426D01*
X138577967Y-86179888D01*
X138483112Y-86085033D01*
X138371574Y-86010506D01*
X138247640Y-85959171D01*
X138116073Y-85933000D01*
X137981927Y-85933000D01*
X137850360Y-85959171D01*
X137726426Y-86010506D01*
X137614888Y-86085033D01*
X137520033Y-86179888D01*
X137445506Y-86291426D01*
X137394171Y-86415360D01*
X137368000Y-86546927D01*
X134623237Y-86546927D01*
X134025721Y-85949411D01*
X134144139Y-85949411D01*
X134275706Y-85923240D01*
X134399640Y-85871905D01*
X134511178Y-85797378D01*
X134606033Y-85702523D01*
X134680560Y-85590985D01*
X134718546Y-85499279D01*
X134727171Y-85542640D01*
X134778506Y-85666574D01*
X134853033Y-85778112D01*
X134947888Y-85872967D01*
X135059426Y-85947494D01*
X135183360Y-85998829D01*
X135314927Y-86025000D01*
X135449073Y-86025000D01*
X135580640Y-85998829D01*
X135704574Y-85947494D01*
X135816112Y-85872967D01*
X135910967Y-85778112D01*
X135985494Y-85666574D01*
X136036829Y-85542640D01*
X136063000Y-85411073D01*
X136063000Y-85276927D01*
X136036829Y-85145360D01*
X135985494Y-85021426D01*
X135910967Y-84909888D01*
X135816112Y-84815033D01*
X135811354Y-84811854D01*
X135834776Y-84694109D01*
X135834776Y-84628536D01*
X135960487Y-84502825D01*
X135978901Y-84487713D01*
X136039209Y-84414227D01*
X136084022Y-84330389D01*
X136099573Y-84279124D01*
X136111617Y-84239419D01*
X136120935Y-84144812D01*
X136118600Y-84121105D01*
X136118600Y-82241899D01*
X136343899Y-82016600D01*
X139549295Y-82016600D01*
X139573000Y-82018935D01*
X139596705Y-82016600D01*
X139596707Y-82016600D01*
X139667606Y-82009617D01*
X139758577Y-81982022D01*
X139842415Y-81937209D01*
X139915901Y-81876901D01*
X139931017Y-81858482D01*
X140405482Y-81384017D01*
X140423901Y-81368901D01*
X140484209Y-81295415D01*
X140529022Y-81211577D01*
X140556617Y-81120606D01*
X140563600Y-81049707D01*
X140563600Y-81049698D01*
X140565934Y-81026001D01*
X140563600Y-81002304D01*
X140563600Y-80525417D01*
X140657568Y-80486494D01*
X140769106Y-80411967D01*
X140863961Y-80317112D01*
X140873000Y-80303584D01*
X140873000Y-83054127D01*
G37*
X140873000Y-83054127D02*
X140751256Y-83066923D01*
X140710767Y-83075234D01*
X140670175Y-83082977D01*
X140664081Y-83084817D01*
X140664075Y-83084819D01*
X140477642Y-83142530D01*
X140439552Y-83158541D01*
X140401222Y-83174027D01*
X140395604Y-83177015D01*
X140395599Y-83177017D01*
X140395595Y-83177020D01*
X140223923Y-83269842D01*
X140189651Y-83292958D01*
X140155075Y-83315584D01*
X140150150Y-83319601D01*
X140150142Y-83319607D01*
X140150135Y-83319614D01*
X139999763Y-83444013D01*
X139970637Y-83473343D01*
X139941113Y-83502254D01*
X139937059Y-83507155D01*
X139937053Y-83507161D01*
X139937049Y-83507168D01*
X139813704Y-83658403D01*
X139790819Y-83692847D01*
X139767483Y-83726928D01*
X139764459Y-83732521D01*
X139764454Y-83732529D01*
X139764451Y-83732537D01*
X139672830Y-83904851D01*
X139657087Y-83943046D01*
X139640799Y-83981049D01*
X139638916Y-83987131D01*
X139582507Y-84173968D01*
X139574483Y-84214493D01*
X139565886Y-84254936D01*
X139565221Y-84261268D01*
X139546176Y-84455502D01*
X139546176Y-84455517D01*
X139544001Y-84477601D01*
X139544001Y-91486990D01*
X139538665Y-91474108D01*
X139464138Y-91362570D01*
X139369283Y-91267715D01*
X139257745Y-91193188D01*
X139227340Y-91180594D01*
X139227340Y-91085456D01*
X139201169Y-90953889D01*
X139149834Y-90829955D01*
X139075307Y-90718417D01*
X138980452Y-90623562D01*
X138868914Y-90549035D01*
X138744980Y-90497700D01*
X138613413Y-90471529D01*
X138547839Y-90471529D01*
X134623237Y-86546927D01*
X137368000Y-86546927D01*
X137368000Y-86681073D01*
X137394171Y-86812640D01*
X137445506Y-86936574D01*
X137520033Y-87048112D01*
X137614888Y-87142967D01*
X137726426Y-87217494D01*
X137850360Y-87268829D01*
X137981927Y-87295000D01*
X138116073Y-87295000D01*
X138247640Y-87268829D01*
X138371574Y-87217494D01*
X138483112Y-87142967D01*
X138577967Y-87048112D01*
X138652494Y-86936574D01*
X138703829Y-86812640D01*
X138730000Y-86681073D01*
X138730000Y-86546927D01*
X138703829Y-86415360D01*
X138652494Y-86291426D01*
X138577967Y-86179888D01*
X138483112Y-86085033D01*
X138371574Y-86010506D01*
X138247640Y-85959171D01*
X138116073Y-85933000D01*
X137981927Y-85933000D01*
X137850360Y-85959171D01*
X137726426Y-86010506D01*
X137614888Y-86085033D01*
X137520033Y-86179888D01*
X137445506Y-86291426D01*
X137394171Y-86415360D01*
X137368000Y-86546927D01*
X134623237Y-86546927D01*
X134025721Y-85949411D01*
X134144139Y-85949411D01*
X134275706Y-85923240D01*
X134399640Y-85871905D01*
X134511178Y-85797378D01*
X134606033Y-85702523D01*
X134680560Y-85590985D01*
X134718546Y-85499279D01*
X134727171Y-85542640D01*
X134778506Y-85666574D01*
X134853033Y-85778112D01*
X134947888Y-85872967D01*
X135059426Y-85947494D01*
X135183360Y-85998829D01*
X135314927Y-86025000D01*
X135449073Y-86025000D01*
X135580640Y-85998829D01*
X135704574Y-85947494D01*
X135816112Y-85872967D01*
X135910967Y-85778112D01*
X135985494Y-85666574D01*
X136036829Y-85542640D01*
X136063000Y-85411073D01*
X136063000Y-85276927D01*
X136036829Y-85145360D01*
X135985494Y-85021426D01*
X135910967Y-84909888D01*
X135816112Y-84815033D01*
X135811354Y-84811854D01*
X135834776Y-84694109D01*
X135834776Y-84628536D01*
X135960487Y-84502825D01*
X135978901Y-84487713D01*
X136039209Y-84414227D01*
X136084022Y-84330389D01*
X136099573Y-84279124D01*
X136111617Y-84239419D01*
X136120935Y-84144812D01*
X136118600Y-84121105D01*
X136118600Y-82241899D01*
X136343899Y-82016600D01*
X139549295Y-82016600D01*
X139573000Y-82018935D01*
X139596705Y-82016600D01*
X139596707Y-82016600D01*
X139667606Y-82009617D01*
X139758577Y-81982022D01*
X139842415Y-81937209D01*
X139915901Y-81876901D01*
X139931017Y-81858482D01*
X140405482Y-81384017D01*
X140423901Y-81368901D01*
X140484209Y-81295415D01*
X140529022Y-81211577D01*
X140556617Y-81120606D01*
X140563600Y-81049707D01*
X140563600Y-81049698D01*
X140565934Y-81026001D01*
X140563600Y-81002304D01*
X140563600Y-80525417D01*
X140657568Y-80486494D01*
X140769106Y-80411967D01*
X140863961Y-80317112D01*
X140873000Y-80303584D01*
X140873000Y-83054127D01*
G36*
X121439878Y-68854967D02*
G01*
X121551416Y-68929494D01*
X121675350Y-68980829D01*
X121806917Y-69007000D01*
X121941063Y-69007000D01*
X122072630Y-68980829D01*
X122181823Y-68935600D01*
X126684645Y-68935600D01*
X126628634Y-69019426D01*
X126577299Y-69143360D01*
X126551128Y-69274927D01*
X126551128Y-69409073D01*
X126577299Y-69540640D01*
X126628634Y-69664574D01*
X126703161Y-69776112D01*
X126798016Y-69870967D01*
X126909554Y-69945494D01*
X127033488Y-69996829D01*
X127165055Y-70023000D01*
X127299201Y-70023000D01*
X127430768Y-69996829D01*
X127554702Y-69945494D01*
X127666240Y-69870967D01*
X127761095Y-69776112D01*
X127835622Y-69664574D01*
X127886957Y-69540640D01*
X127913128Y-69409073D01*
X127913128Y-69274927D01*
X127886957Y-69143360D01*
X127835622Y-69019426D01*
X127779611Y-68935600D01*
X129440521Y-68935600D01*
X129486888Y-68981967D01*
X129598426Y-69056494D01*
X129722360Y-69107829D01*
X129743476Y-69112029D01*
X129725426Y-69119506D01*
X129613888Y-69194033D01*
X129519033Y-69288888D01*
X129444506Y-69400426D01*
X129393171Y-69524360D01*
X129367000Y-69655927D01*
X129367000Y-69790073D01*
X129393171Y-69921640D01*
X129444506Y-70045574D01*
X129519033Y-70157112D01*
X129568952Y-70207031D01*
X129570379Y-70221518D01*
X129471426Y-70262506D01*
X129359888Y-70337033D01*
X129265033Y-70431888D01*
X129190506Y-70543426D01*
X129139171Y-70667360D01*
X129113000Y-70798927D01*
X129113000Y-70933073D01*
X129139171Y-71064640D01*
X129190506Y-71188574D01*
X129265033Y-71300112D01*
X129359888Y-71394967D01*
X129399504Y-71421438D01*
X129394058Y-71434586D01*
X129367887Y-71566153D01*
X129367887Y-71700299D01*
X129394058Y-71831866D01*
X129445393Y-71955800D01*
X129519920Y-72067338D01*
X129527254Y-72074672D01*
X129519033Y-72082892D01*
X129444506Y-72194430D01*
X129393171Y-72318364D01*
X129367000Y-72449931D01*
X129367000Y-72584077D01*
X129393171Y-72715644D01*
X129444506Y-72839578D01*
X129519033Y-72951116D01*
X129613888Y-73045971D01*
X129725426Y-73120498D01*
X129849360Y-73171833D01*
X129980927Y-73198004D01*
X130115073Y-73198004D01*
X130246640Y-73171833D01*
X130370574Y-73120498D01*
X130482112Y-73045971D01*
X130576967Y-72951116D01*
X130651494Y-72839578D01*
X130702829Y-72715644D01*
X130729000Y-72584077D01*
X130729000Y-72449931D01*
X130702829Y-72318364D01*
X130651494Y-72194430D01*
X130576967Y-72082892D01*
X130569634Y-72075559D01*
X130577854Y-72067338D01*
X130641640Y-71971875D01*
X131724400Y-73054635D01*
X131724401Y-73255287D01*
X131724400Y-73255294D01*
X131724400Y-75819666D01*
X130822510Y-74917776D01*
X130807394Y-74899357D01*
X130733908Y-74839049D01*
X130650070Y-74794236D01*
X130623663Y-74786226D01*
X130651494Y-74744574D01*
X130702829Y-74620640D01*
X130729000Y-74489073D01*
X130729000Y-74354927D01*
X130702829Y-74223360D01*
X130651494Y-74099426D01*
X130576967Y-73987888D01*
X130482112Y-73893033D01*
X130370574Y-73818506D01*
X130246640Y-73767171D01*
X130115073Y-73741000D01*
X129980927Y-73741000D01*
X129849360Y-73767171D01*
X129725426Y-73818506D01*
X129613888Y-73893033D01*
X129519033Y-73987888D01*
X129444506Y-74099426D01*
X129393171Y-74223360D01*
X129367000Y-74354927D01*
X129367000Y-74489073D01*
X129393171Y-74620640D01*
X129444506Y-74744574D01*
X129499123Y-74826314D01*
X129436735Y-74919684D01*
X129385400Y-75043618D01*
X129359229Y-75175185D01*
X129359229Y-75309331D01*
X129385400Y-75440898D01*
X129436735Y-75564832D01*
X129501084Y-75661138D01*
X129477506Y-75696426D01*
X129426171Y-75820360D01*
X129400000Y-75951927D01*
X129400000Y-76086073D01*
X129426171Y-76217640D01*
X129461791Y-76303635D01*
X129372623Y-76392803D01*
X129298096Y-76504341D01*
X129246761Y-76628275D01*
X129220590Y-76759842D01*
X129220590Y-76893988D01*
X129246761Y-77025555D01*
X129298096Y-77149489D01*
X129372623Y-77261027D01*
X129467478Y-77355882D01*
X129579016Y-77430409D01*
X129702950Y-77481744D01*
X129834517Y-77507915D01*
X129900091Y-77507915D01*
X130657567Y-78265391D01*
X130657568Y-78716287D01*
X130657567Y-78716294D01*
X130657567Y-79302058D01*
X127808000Y-76452491D01*
X127808000Y-76386917D01*
X127781829Y-76255350D01*
X127730494Y-76131416D01*
X127655967Y-76019878D01*
X127561112Y-75925023D01*
X127449574Y-75850496D01*
X127325640Y-75799161D01*
X127194073Y-75772990D01*
X127059927Y-75772990D01*
X126928360Y-75799161D01*
X126804426Y-75850496D01*
X126692888Y-75925023D01*
X126598033Y-76019878D01*
X126523506Y-76131416D01*
X126472171Y-76255350D01*
X126446000Y-76386917D01*
X126446000Y-76521063D01*
X126472171Y-76652630D01*
X126523506Y-76776564D01*
X126560451Y-76831857D01*
X126471035Y-76921273D01*
X126425113Y-76990001D01*
X126309640Y-76942171D01*
X126178073Y-76916000D01*
X126043927Y-76916000D01*
X125912360Y-76942171D01*
X125788426Y-76993506D01*
X125676888Y-77068033D01*
X125582033Y-77162888D01*
X125507506Y-77274426D01*
X125456171Y-77398360D01*
X125430000Y-77529927D01*
X125430000Y-77664073D01*
X125456171Y-77795640D01*
X125507506Y-77919574D01*
X125582033Y-78031112D01*
X125628401Y-78077480D01*
X125628400Y-81510295D01*
X125626065Y-81534000D01*
X125628400Y-81557705D01*
X125628400Y-81557706D01*
X125635383Y-81628605D01*
X125662978Y-81719576D01*
X125707791Y-81803415D01*
X125768099Y-81876901D01*
X125786518Y-81892017D01*
X127711750Y-83817249D01*
X127711750Y-85219673D01*
X127688112Y-85196035D01*
X127576574Y-85121508D01*
X127452640Y-85070173D01*
X127321073Y-85044002D01*
X127186927Y-85044002D01*
X127055360Y-85070173D01*
X127045840Y-85074117D01*
X127020967Y-85036892D01*
X126926112Y-84942037D01*
X126814574Y-84867510D01*
X126690640Y-84816175D01*
X126559073Y-84790004D01*
X126424927Y-84790004D01*
X126293360Y-84816175D01*
X126169426Y-84867510D01*
X126057888Y-84942037D01*
X125963033Y-85036892D01*
X125888506Y-85148430D01*
X125873107Y-85185607D01*
X124838339Y-84150840D01*
X124904747Y-84106468D01*
X124999602Y-84011613D01*
X125074129Y-83900075D01*
X125125464Y-83776141D01*
X125151635Y-83644574D01*
X125151635Y-83625927D01*
X125684000Y-83625927D01*
X125684000Y-83760073D01*
X125710171Y-83891640D01*
X125761506Y-84015574D01*
X125836033Y-84127112D01*
X125930888Y-84221967D01*
X126042426Y-84296494D01*
X126166360Y-84347829D01*
X126297927Y-84374000D01*
X126432073Y-84374000D01*
X126563640Y-84347829D01*
X126687574Y-84296494D01*
X126799112Y-84221967D01*
X126893967Y-84127112D01*
X126968494Y-84015574D01*
X127019829Y-83891640D01*
X127046000Y-83760073D01*
X127046000Y-83625927D01*
X127019829Y-83494360D01*
X126968494Y-83370426D01*
X126893967Y-83258888D01*
X126799112Y-83164033D01*
X126687574Y-83089506D01*
X126563640Y-83038171D01*
X126432073Y-83012000D01*
X126297927Y-83012000D01*
X126166360Y-83038171D01*
X126042426Y-83089506D01*
X125930888Y-83164033D01*
X125836033Y-83258888D01*
X125761506Y-83370426D01*
X125710171Y-83494360D01*
X125684000Y-83625927D01*
X125151635Y-83625927D01*
X125151635Y-83510428D01*
X125125464Y-83378861D01*
X125074129Y-83254927D01*
X124999602Y-83143389D01*
X124904747Y-83048534D01*
X124793209Y-82974007D01*
X124669275Y-82922672D01*
X124537708Y-82896501D01*
X124403562Y-82896501D01*
X124271995Y-82922672D01*
X124148061Y-82974007D01*
X124036523Y-83048534D01*
X123941668Y-83143389D01*
X123867141Y-83254927D01*
X123815806Y-83378861D01*
X123789635Y-83510428D01*
X123789635Y-83644574D01*
X123815806Y-83776141D01*
X123867141Y-83900075D01*
X123915467Y-83972400D01*
X123597838Y-83972400D01*
X123574133Y-83970065D01*
X123550428Y-83972400D01*
X123550427Y-83972400D01*
X123534517Y-83973967D01*
X122626332Y-83973967D01*
X122304887Y-83652522D01*
X122304887Y-83586948D01*
X122278716Y-83455381D01*
X122227381Y-83331447D01*
X122152854Y-83219909D01*
X122057999Y-83125054D01*
X121946461Y-83050527D01*
X121822527Y-82999192D01*
X121690960Y-82973021D01*
X121556814Y-82973021D01*
X121425247Y-82999192D01*
X121386600Y-83015200D01*
X121386600Y-75497927D01*
X123779000Y-75497927D01*
X123779000Y-75632073D01*
X123805171Y-75763640D01*
X123856506Y-75887574D01*
X123931033Y-75999112D01*
X124025888Y-76093967D01*
X124137426Y-76168494D01*
X124261360Y-76219829D01*
X124392927Y-76246000D01*
X124527073Y-76246000D01*
X124658640Y-76219829D01*
X124715551Y-76196256D01*
X124745506Y-76268574D01*
X124820033Y-76380112D01*
X124914888Y-76474967D01*
X125026426Y-76549494D01*
X125150360Y-76600829D01*
X125281927Y-76627000D01*
X125416073Y-76627000D01*
X125547640Y-76600829D01*
X125671574Y-76549494D01*
X125783112Y-76474967D01*
X125877967Y-76380112D01*
X125952494Y-76268574D01*
X126003829Y-76144640D01*
X126030000Y-76013073D01*
X126030000Y-75878927D01*
X126003829Y-75747360D01*
X125952494Y-75623426D01*
X125877967Y-75511888D01*
X125783112Y-75417033D01*
X125671574Y-75342506D01*
X125547640Y-75291171D01*
X125416073Y-75265000D01*
X125281927Y-75265000D01*
X125150360Y-75291171D01*
X125093449Y-75314744D01*
X125063494Y-75242426D01*
X124988967Y-75130888D01*
X124894112Y-75036033D01*
X124782574Y-74961506D01*
X124658640Y-74910171D01*
X124527073Y-74884000D01*
X124392927Y-74884000D01*
X124261360Y-74910171D01*
X124137426Y-74961506D01*
X124025888Y-75036033D01*
X123931033Y-75130888D01*
X123856506Y-75242426D01*
X123805171Y-75366360D01*
X123779000Y-75497927D01*
X121386600Y-75497927D01*
X121386600Y-74405065D01*
X121416432Y-74449712D01*
X121511287Y-74544567D01*
X121622825Y-74619094D01*
X121746759Y-74670429D01*
X121878326Y-74696600D01*
X122012472Y-74696600D01*
X122144039Y-74670429D01*
X122267973Y-74619094D01*
X122379511Y-74544567D01*
X122474366Y-74449712D01*
X122548893Y-74338174D01*
X122600228Y-74214240D01*
X122626399Y-74082673D01*
X122626399Y-73948527D01*
X122600228Y-73816960D01*
X122548893Y-73693026D01*
X122474366Y-73581488D01*
X122379511Y-73486633D01*
X122267973Y-73412106D01*
X122144039Y-73360771D01*
X122012472Y-73334600D01*
X121878326Y-73334600D01*
X121746759Y-73360771D01*
X121622825Y-73412106D01*
X121511287Y-73486633D01*
X121416432Y-73581488D01*
X121386600Y-73626135D01*
X121386600Y-71205327D01*
X121391400Y-71205327D01*
X121391400Y-71339473D01*
X121417571Y-71471040D01*
X121468906Y-71594974D01*
X121543433Y-71706512D01*
X121630021Y-71793100D01*
X121543433Y-71879688D01*
X121468906Y-71991226D01*
X121417571Y-72115160D01*
X121391400Y-72246727D01*
X121391400Y-72380873D01*
X121417571Y-72512440D01*
X121468906Y-72636374D01*
X121543433Y-72747912D01*
X121638288Y-72842767D01*
X121749826Y-72917294D01*
X121873760Y-72968629D01*
X122005327Y-72994800D01*
X122139473Y-72994800D01*
X122271040Y-72968629D01*
X122394974Y-72917294D01*
X122506512Y-72842767D01*
X122601367Y-72747912D01*
X122632166Y-72701817D01*
X126554055Y-72701817D01*
X126554055Y-72835963D01*
X126580226Y-72967530D01*
X126631561Y-73091464D01*
X126706088Y-73203002D01*
X126800943Y-73297857D01*
X126912481Y-73372384D01*
X127036415Y-73423719D01*
X127167982Y-73449890D01*
X127302128Y-73449890D01*
X127433695Y-73423719D01*
X127557629Y-73372384D01*
X127669167Y-73297857D01*
X127764022Y-73203002D01*
X127838549Y-73091464D01*
X127889884Y-72967530D01*
X127916055Y-72835963D01*
X127916055Y-72701817D01*
X127889884Y-72570250D01*
X127838549Y-72446316D01*
X127764022Y-72334778D01*
X127669167Y-72239923D01*
X127557629Y-72165396D01*
X127433695Y-72114061D01*
X127302128Y-72087890D01*
X127167982Y-72087890D01*
X127036415Y-72114061D01*
X126912481Y-72165396D01*
X126800943Y-72239923D01*
X126706088Y-72334778D01*
X126631561Y-72446316D01*
X126580226Y-72570250D01*
X126554055Y-72701817D01*
X122632166Y-72701817D01*
X122675894Y-72636374D01*
X122727229Y-72512440D01*
X122753400Y-72380873D01*
X122753400Y-72246727D01*
X122727229Y-72115160D01*
X122675894Y-71991226D01*
X122642954Y-71941927D01*
X123398000Y-71941927D01*
X123398000Y-72076073D01*
X123424171Y-72207640D01*
X123475506Y-72331574D01*
X123550033Y-72443112D01*
X123644888Y-72537967D01*
X123756426Y-72612494D01*
X123880360Y-72663829D01*
X124011927Y-72690000D01*
X124146073Y-72690000D01*
X124277640Y-72663829D01*
X124401574Y-72612494D01*
X124513112Y-72537967D01*
X124607967Y-72443112D01*
X124682494Y-72331574D01*
X124733829Y-72207640D01*
X124760000Y-72076073D01*
X124760000Y-71941927D01*
X124733829Y-71810360D01*
X124682494Y-71686426D01*
X124607967Y-71574888D01*
X124513112Y-71480033D01*
X124401574Y-71405506D01*
X124277640Y-71354171D01*
X124146073Y-71328000D01*
X124011927Y-71328000D01*
X123880360Y-71354171D01*
X123756426Y-71405506D01*
X123644888Y-71480033D01*
X123550033Y-71574888D01*
X123475506Y-71686426D01*
X123424171Y-71810360D01*
X123398000Y-71941927D01*
X122642954Y-71941927D01*
X122601367Y-71879688D01*
X122514779Y-71793100D01*
X122601367Y-71706512D01*
X122675894Y-71594974D01*
X122727229Y-71471040D01*
X122753400Y-71339473D01*
X122753400Y-71205327D01*
X122727229Y-71073760D01*
X122675894Y-70949826D01*
X122601367Y-70838288D01*
X122506512Y-70743433D01*
X122394974Y-70668906D01*
X122271040Y-70617571D01*
X122139473Y-70591400D01*
X122005327Y-70591400D01*
X121873760Y-70617571D01*
X121749826Y-70668906D01*
X121638288Y-70743433D01*
X121543433Y-70838288D01*
X121468906Y-70949826D01*
X121417571Y-71073760D01*
X121391400Y-71205327D01*
X121386600Y-71205327D01*
X121386600Y-68801689D01*
X121439878Y-68854967D01*
G37*
X121439878Y-68854967D02*
X121551416Y-68929494D01*
X121675350Y-68980829D01*
X121806917Y-69007000D01*
X121941063Y-69007000D01*
X122072630Y-68980829D01*
X122181823Y-68935600D01*
X126684645Y-68935600D01*
X126628634Y-69019426D01*
X126577299Y-69143360D01*
X126551128Y-69274927D01*
X126551128Y-69409073D01*
X126577299Y-69540640D01*
X126628634Y-69664574D01*
X126703161Y-69776112D01*
X126798016Y-69870967D01*
X126909554Y-69945494D01*
X127033488Y-69996829D01*
X127165055Y-70023000D01*
X127299201Y-70023000D01*
X127430768Y-69996829D01*
X127554702Y-69945494D01*
X127666240Y-69870967D01*
X127761095Y-69776112D01*
X127835622Y-69664574D01*
X127886957Y-69540640D01*
X127913128Y-69409073D01*
X127913128Y-69274927D01*
X127886957Y-69143360D01*
X127835622Y-69019426D01*
X127779611Y-68935600D01*
X129440521Y-68935600D01*
X129486888Y-68981967D01*
X129598426Y-69056494D01*
X129722360Y-69107829D01*
X129743476Y-69112029D01*
X129725426Y-69119506D01*
X129613888Y-69194033D01*
X129519033Y-69288888D01*
X129444506Y-69400426D01*
X129393171Y-69524360D01*
X129367000Y-69655927D01*
X129367000Y-69790073D01*
X129393171Y-69921640D01*
X129444506Y-70045574D01*
X129519033Y-70157112D01*
X129568952Y-70207031D01*
X129570379Y-70221518D01*
X129471426Y-70262506D01*
X129359888Y-70337033D01*
X129265033Y-70431888D01*
X129190506Y-70543426D01*
X129139171Y-70667360D01*
X129113000Y-70798927D01*
X129113000Y-70933073D01*
X129139171Y-71064640D01*
X129190506Y-71188574D01*
X129265033Y-71300112D01*
X129359888Y-71394967D01*
X129399504Y-71421438D01*
X129394058Y-71434586D01*
X129367887Y-71566153D01*
X129367887Y-71700299D01*
X129394058Y-71831866D01*
X129445393Y-71955800D01*
X129519920Y-72067338D01*
X129527254Y-72074672D01*
X129519033Y-72082892D01*
X129444506Y-72194430D01*
X129393171Y-72318364D01*
X129367000Y-72449931D01*
X129367000Y-72584077D01*
X129393171Y-72715644D01*
X129444506Y-72839578D01*
X129519033Y-72951116D01*
X129613888Y-73045971D01*
X129725426Y-73120498D01*
X129849360Y-73171833D01*
X129980927Y-73198004D01*
X130115073Y-73198004D01*
X130246640Y-73171833D01*
X130370574Y-73120498D01*
X130482112Y-73045971D01*
X130576967Y-72951116D01*
X130651494Y-72839578D01*
X130702829Y-72715644D01*
X130729000Y-72584077D01*
X130729000Y-72449931D01*
X130702829Y-72318364D01*
X130651494Y-72194430D01*
X130576967Y-72082892D01*
X130569634Y-72075559D01*
X130577854Y-72067338D01*
X130641640Y-71971875D01*
X131724400Y-73054635D01*
X131724401Y-73255287D01*
X131724400Y-73255294D01*
X131724400Y-75819666D01*
X130822510Y-74917776D01*
X130807394Y-74899357D01*
X130733908Y-74839049D01*
X130650070Y-74794236D01*
X130623663Y-74786226D01*
X130651494Y-74744574D01*
X130702829Y-74620640D01*
X130729000Y-74489073D01*
X130729000Y-74354927D01*
X130702829Y-74223360D01*
X130651494Y-74099426D01*
X130576967Y-73987888D01*
X130482112Y-73893033D01*
X130370574Y-73818506D01*
X130246640Y-73767171D01*
X130115073Y-73741000D01*
X129980927Y-73741000D01*
X129849360Y-73767171D01*
X129725426Y-73818506D01*
X129613888Y-73893033D01*
X129519033Y-73987888D01*
X129444506Y-74099426D01*
X129393171Y-74223360D01*
X129367000Y-74354927D01*
X129367000Y-74489073D01*
X129393171Y-74620640D01*
X129444506Y-74744574D01*
X129499123Y-74826314D01*
X129436735Y-74919684D01*
X129385400Y-75043618D01*
X129359229Y-75175185D01*
X129359229Y-75309331D01*
X129385400Y-75440898D01*
X129436735Y-75564832D01*
X129501084Y-75661138D01*
X129477506Y-75696426D01*
X129426171Y-75820360D01*
X129400000Y-75951927D01*
X129400000Y-76086073D01*
X129426171Y-76217640D01*
X129461791Y-76303635D01*
X129372623Y-76392803D01*
X129298096Y-76504341D01*
X129246761Y-76628275D01*
X129220590Y-76759842D01*
X129220590Y-76893988D01*
X129246761Y-77025555D01*
X129298096Y-77149489D01*
X129372623Y-77261027D01*
X129467478Y-77355882D01*
X129579016Y-77430409D01*
X129702950Y-77481744D01*
X129834517Y-77507915D01*
X129900091Y-77507915D01*
X130657567Y-78265391D01*
X130657568Y-78716287D01*
X130657567Y-78716294D01*
X130657567Y-79302058D01*
X127808000Y-76452491D01*
X127808000Y-76386917D01*
X127781829Y-76255350D01*
X127730494Y-76131416D01*
X127655967Y-76019878D01*
X127561112Y-75925023D01*
X127449574Y-75850496D01*
X127325640Y-75799161D01*
X127194073Y-75772990D01*
X127059927Y-75772990D01*
X126928360Y-75799161D01*
X126804426Y-75850496D01*
X126692888Y-75925023D01*
X126598033Y-76019878D01*
X126523506Y-76131416D01*
X126472171Y-76255350D01*
X126446000Y-76386917D01*
X126446000Y-76521063D01*
X126472171Y-76652630D01*
X126523506Y-76776564D01*
X126560451Y-76831857D01*
X126471035Y-76921273D01*
X126425113Y-76990001D01*
X126309640Y-76942171D01*
X126178073Y-76916000D01*
X126043927Y-76916000D01*
X125912360Y-76942171D01*
X125788426Y-76993506D01*
X125676888Y-77068033D01*
X125582033Y-77162888D01*
X125507506Y-77274426D01*
X125456171Y-77398360D01*
X125430000Y-77529927D01*
X125430000Y-77664073D01*
X125456171Y-77795640D01*
X125507506Y-77919574D01*
X125582033Y-78031112D01*
X125628401Y-78077480D01*
X125628400Y-81510295D01*
X125626065Y-81534000D01*
X125628400Y-81557705D01*
X125628400Y-81557706D01*
X125635383Y-81628605D01*
X125662978Y-81719576D01*
X125707791Y-81803415D01*
X125768099Y-81876901D01*
X125786518Y-81892017D01*
X127711750Y-83817249D01*
X127711750Y-85219673D01*
X127688112Y-85196035D01*
X127576574Y-85121508D01*
X127452640Y-85070173D01*
X127321073Y-85044002D01*
X127186927Y-85044002D01*
X127055360Y-85070173D01*
X127045840Y-85074117D01*
X127020967Y-85036892D01*
X126926112Y-84942037D01*
X126814574Y-84867510D01*
X126690640Y-84816175D01*
X126559073Y-84790004D01*
X126424927Y-84790004D01*
X126293360Y-84816175D01*
X126169426Y-84867510D01*
X126057888Y-84942037D01*
X125963033Y-85036892D01*
X125888506Y-85148430D01*
X125873107Y-85185607D01*
X124838339Y-84150840D01*
X124904747Y-84106468D01*
X124999602Y-84011613D01*
X125074129Y-83900075D01*
X125125464Y-83776141D01*
X125151635Y-83644574D01*
X125151635Y-83625927D01*
X125684000Y-83625927D01*
X125684000Y-83760073D01*
X125710171Y-83891640D01*
X125761506Y-84015574D01*
X125836033Y-84127112D01*
X125930888Y-84221967D01*
X126042426Y-84296494D01*
X126166360Y-84347829D01*
X126297927Y-84374000D01*
X126432073Y-84374000D01*
X126563640Y-84347829D01*
X126687574Y-84296494D01*
X126799112Y-84221967D01*
X126893967Y-84127112D01*
X126968494Y-84015574D01*
X127019829Y-83891640D01*
X127046000Y-83760073D01*
X127046000Y-83625927D01*
X127019829Y-83494360D01*
X126968494Y-83370426D01*
X126893967Y-83258888D01*
X126799112Y-83164033D01*
X126687574Y-83089506D01*
X126563640Y-83038171D01*
X126432073Y-83012000D01*
X126297927Y-83012000D01*
X126166360Y-83038171D01*
X126042426Y-83089506D01*
X125930888Y-83164033D01*
X125836033Y-83258888D01*
X125761506Y-83370426D01*
X125710171Y-83494360D01*
X125684000Y-83625927D01*
X125151635Y-83625927D01*
X125151635Y-83510428D01*
X125125464Y-83378861D01*
X125074129Y-83254927D01*
X124999602Y-83143389D01*
X124904747Y-83048534D01*
X124793209Y-82974007D01*
X124669275Y-82922672D01*
X124537708Y-82896501D01*
X124403562Y-82896501D01*
X124271995Y-82922672D01*
X124148061Y-82974007D01*
X124036523Y-83048534D01*
X123941668Y-83143389D01*
X123867141Y-83254927D01*
X123815806Y-83378861D01*
X123789635Y-83510428D01*
X123789635Y-83644574D01*
X123815806Y-83776141D01*
X123867141Y-83900075D01*
X123915467Y-83972400D01*
X123597838Y-83972400D01*
X123574133Y-83970065D01*
X123550428Y-83972400D01*
X123550427Y-83972400D01*
X123534517Y-83973967D01*
X122626332Y-83973967D01*
X122304887Y-83652522D01*
X122304887Y-83586948D01*
X122278716Y-83455381D01*
X122227381Y-83331447D01*
X122152854Y-83219909D01*
X122057999Y-83125054D01*
X121946461Y-83050527D01*
X121822527Y-82999192D01*
X121690960Y-82973021D01*
X121556814Y-82973021D01*
X121425247Y-82999192D01*
X121386600Y-83015200D01*
X121386600Y-75497927D01*
X123779000Y-75497927D01*
X123779000Y-75632073D01*
X123805171Y-75763640D01*
X123856506Y-75887574D01*
X123931033Y-75999112D01*
X124025888Y-76093967D01*
X124137426Y-76168494D01*
X124261360Y-76219829D01*
X124392927Y-76246000D01*
X124527073Y-76246000D01*
X124658640Y-76219829D01*
X124715551Y-76196256D01*
X124745506Y-76268574D01*
X124820033Y-76380112D01*
X124914888Y-76474967D01*
X125026426Y-76549494D01*
X125150360Y-76600829D01*
X125281927Y-76627000D01*
X125416073Y-76627000D01*
X125547640Y-76600829D01*
X125671574Y-76549494D01*
X125783112Y-76474967D01*
X125877967Y-76380112D01*
X125952494Y-76268574D01*
X126003829Y-76144640D01*
X126030000Y-76013073D01*
X126030000Y-75878927D01*
X126003829Y-75747360D01*
X125952494Y-75623426D01*
X125877967Y-75511888D01*
X125783112Y-75417033D01*
X125671574Y-75342506D01*
X125547640Y-75291171D01*
X125416073Y-75265000D01*
X125281927Y-75265000D01*
X125150360Y-75291171D01*
X125093449Y-75314744D01*
X125063494Y-75242426D01*
X124988967Y-75130888D01*
X124894112Y-75036033D01*
X124782574Y-74961506D01*
X124658640Y-74910171D01*
X124527073Y-74884000D01*
X124392927Y-74884000D01*
X124261360Y-74910171D01*
X124137426Y-74961506D01*
X124025888Y-75036033D01*
X123931033Y-75130888D01*
X123856506Y-75242426D01*
X123805171Y-75366360D01*
X123779000Y-75497927D01*
X121386600Y-75497927D01*
X121386600Y-74405065D01*
X121416432Y-74449712D01*
X121511287Y-74544567D01*
X121622825Y-74619094D01*
X121746759Y-74670429D01*
X121878326Y-74696600D01*
X122012472Y-74696600D01*
X122144039Y-74670429D01*
X122267973Y-74619094D01*
X122379511Y-74544567D01*
X122474366Y-74449712D01*
X122548893Y-74338174D01*
X122600228Y-74214240D01*
X122626399Y-74082673D01*
X122626399Y-73948527D01*
X122600228Y-73816960D01*
X122548893Y-73693026D01*
X122474366Y-73581488D01*
X122379511Y-73486633D01*
X122267973Y-73412106D01*
X122144039Y-73360771D01*
X122012472Y-73334600D01*
X121878326Y-73334600D01*
X121746759Y-73360771D01*
X121622825Y-73412106D01*
X121511287Y-73486633D01*
X121416432Y-73581488D01*
X121386600Y-73626135D01*
X121386600Y-71205327D01*
X121391400Y-71205327D01*
X121391400Y-71339473D01*
X121417571Y-71471040D01*
X121468906Y-71594974D01*
X121543433Y-71706512D01*
X121630021Y-71793100D01*
X121543433Y-71879688D01*
X121468906Y-71991226D01*
X121417571Y-72115160D01*
X121391400Y-72246727D01*
X121391400Y-72380873D01*
X121417571Y-72512440D01*
X121468906Y-72636374D01*
X121543433Y-72747912D01*
X121638288Y-72842767D01*
X121749826Y-72917294D01*
X121873760Y-72968629D01*
X122005327Y-72994800D01*
X122139473Y-72994800D01*
X122271040Y-72968629D01*
X122394974Y-72917294D01*
X122506512Y-72842767D01*
X122601367Y-72747912D01*
X122632166Y-72701817D01*
X126554055Y-72701817D01*
X126554055Y-72835963D01*
X126580226Y-72967530D01*
X126631561Y-73091464D01*
X126706088Y-73203002D01*
X126800943Y-73297857D01*
X126912481Y-73372384D01*
X127036415Y-73423719D01*
X127167982Y-73449890D01*
X127302128Y-73449890D01*
X127433695Y-73423719D01*
X127557629Y-73372384D01*
X127669167Y-73297857D01*
X127764022Y-73203002D01*
X127838549Y-73091464D01*
X127889884Y-72967530D01*
X127916055Y-72835963D01*
X127916055Y-72701817D01*
X127889884Y-72570250D01*
X127838549Y-72446316D01*
X127764022Y-72334778D01*
X127669167Y-72239923D01*
X127557629Y-72165396D01*
X127433695Y-72114061D01*
X127302128Y-72087890D01*
X127167982Y-72087890D01*
X127036415Y-72114061D01*
X126912481Y-72165396D01*
X126800943Y-72239923D01*
X126706088Y-72334778D01*
X126631561Y-72446316D01*
X126580226Y-72570250D01*
X126554055Y-72701817D01*
X122632166Y-72701817D01*
X122675894Y-72636374D01*
X122727229Y-72512440D01*
X122753400Y-72380873D01*
X122753400Y-72246727D01*
X122727229Y-72115160D01*
X122675894Y-71991226D01*
X122642954Y-71941927D01*
X123398000Y-71941927D01*
X123398000Y-72076073D01*
X123424171Y-72207640D01*
X123475506Y-72331574D01*
X123550033Y-72443112D01*
X123644888Y-72537967D01*
X123756426Y-72612494D01*
X123880360Y-72663829D01*
X124011927Y-72690000D01*
X124146073Y-72690000D01*
X124277640Y-72663829D01*
X124401574Y-72612494D01*
X124513112Y-72537967D01*
X124607967Y-72443112D01*
X124682494Y-72331574D01*
X124733829Y-72207640D01*
X124760000Y-72076073D01*
X124760000Y-71941927D01*
X124733829Y-71810360D01*
X124682494Y-71686426D01*
X124607967Y-71574888D01*
X124513112Y-71480033D01*
X124401574Y-71405506D01*
X124277640Y-71354171D01*
X124146073Y-71328000D01*
X124011927Y-71328000D01*
X123880360Y-71354171D01*
X123756426Y-71405506D01*
X123644888Y-71480033D01*
X123550033Y-71574888D01*
X123475506Y-71686426D01*
X123424171Y-71810360D01*
X123398000Y-71941927D01*
X122642954Y-71941927D01*
X122601367Y-71879688D01*
X122514779Y-71793100D01*
X122601367Y-71706512D01*
X122675894Y-71594974D01*
X122727229Y-71471040D01*
X122753400Y-71339473D01*
X122753400Y-71205327D01*
X122727229Y-71073760D01*
X122675894Y-70949826D01*
X122601367Y-70838288D01*
X122506512Y-70743433D01*
X122394974Y-70668906D01*
X122271040Y-70617571D01*
X122139473Y-70591400D01*
X122005327Y-70591400D01*
X121873760Y-70617571D01*
X121749826Y-70668906D01*
X121638288Y-70743433D01*
X121543433Y-70838288D01*
X121468906Y-70949826D01*
X121417571Y-71073760D01*
X121391400Y-71205327D01*
X121386600Y-71205327D01*
X121386600Y-68801689D01*
X121439878Y-68854967D01*
M02*
