G04 #@! TF.GenerationSoftware,KiCad,Pcbnew,(5.1.5-0)*
G04 #@! TF.CreationDate,2020-08-14T10:55:26+08:00*
G04 #@! TF.ProjectId,TESC,54455343-2e6b-4696-9361-645f70636258,A*
G04 #@! TF.SameCoordinates,Original*
G04 #@! TF.FileFunction,Paste,Top*
G04 #@! TF.FilePolarity,Positive*
%FSLAX46Y46*%
G04 Gerber Fmt 4.6, Leading zero omitted, Abs format (unit mm)*
G04 Created by KiCad (PCBNEW (5.1.5-0)) date 2020-08-14 10:55:26*
%MOMM*%
%LPD*%
G04 APERTURE LIST*
%ADD10R,2.000000X6.200000*%
%ADD11R,3.810000X3.048000*%
%ADD12R,1.699260X1.099820*%
%ADD13R,0.850900X1.099820*%
%ADD14R,1.300480X0.701040*%
%ADD15R,1.099820X1.699260*%
%ADD16R,1.099820X0.850900*%
%ADD17R,0.701040X1.300480*%
%ADD18R,0.800000X0.750000*%
%ADD19O,0.200000X0.550000*%
%ADD20O,0.550000X0.200000*%
%ADD21R,2.500000X1.800000*%
%ADD22R,0.750000X0.800000*%
%ADD23R,1.501140X0.299720*%
%ADD24R,3.599180X7.000240*%
%ADD25R,0.304800X1.193800*%
%ADD26R,1.193800X0.304800*%
%ADD27C,0.100000*%
%ADD28R,0.350000X0.650000*%
%ADD29R,0.720000X0.465000*%
%ADD30R,1.950000X1.500000*%
%ADD31R,1.000000X2.500000*%
%ADD32R,2.500000X1.000000*%
%ADD33R,0.500000X0.900000*%
%ADD34R,0.900000X0.500000*%
%ADD35R,6.000000X5.000000*%
G04 APERTURE END LIST*
D10*
X133572000Y-62738000D03*
X129572000Y-62738000D03*
D11*
X131064000Y-102235000D03*
X131064000Y-106299000D03*
X136144000Y-106299000D03*
D12*
X155534360Y-60906660D03*
X159933640Y-60906660D03*
X157734000Y-60906660D03*
X159933640Y-69905880D03*
X155534360Y-69905880D03*
X157734000Y-69905880D03*
D13*
X159463740Y-63454280D03*
X159463740Y-66255900D03*
X156004260Y-63454280D03*
X156004260Y-66255900D03*
X157154880Y-63454280D03*
X158313120Y-63454280D03*
X158313120Y-66255900D03*
X157154880Y-66255900D03*
D14*
X157734000Y-67655440D03*
D15*
X162219340Y-74254360D03*
X162219340Y-78653640D03*
X162219340Y-76454000D03*
X153220120Y-78653640D03*
X153220120Y-74254360D03*
X153220120Y-76454000D03*
D16*
X159671720Y-78183740D03*
X156870100Y-78183740D03*
X159671720Y-74724260D03*
X156870100Y-74724260D03*
X159671720Y-75874880D03*
X159671720Y-77033120D03*
X156870100Y-77033120D03*
X156870100Y-75874880D03*
D17*
X155470560Y-76454000D03*
D12*
X168193360Y-60906660D03*
X172592640Y-60906660D03*
X170393000Y-60906660D03*
X172592640Y-69905880D03*
X168193360Y-69905880D03*
X170393000Y-69905880D03*
D13*
X172122740Y-63454280D03*
X172122740Y-66255900D03*
X168663260Y-63454280D03*
X168663260Y-66255900D03*
X169813880Y-63454280D03*
X170972120Y-63454280D03*
X170972120Y-66255900D03*
X169813880Y-66255900D03*
D14*
X170393000Y-67655440D03*
D15*
X173281340Y-74254360D03*
X173281340Y-78653640D03*
X173281340Y-76454000D03*
X164282120Y-78653640D03*
X164282120Y-74254360D03*
X164282120Y-76454000D03*
D16*
X170733720Y-78183740D03*
X167932100Y-78183740D03*
X170733720Y-74724260D03*
X167932100Y-74724260D03*
X170733720Y-75874880D03*
X170733720Y-77033120D03*
X167932100Y-77033120D03*
X167932100Y-75874880D03*
D17*
X166532560Y-76454000D03*
D12*
X142887360Y-60906660D03*
X147286640Y-60906660D03*
X145087000Y-60906660D03*
X147286640Y-69905880D03*
X142887360Y-69905880D03*
X145087000Y-69905880D03*
D13*
X146816740Y-63454280D03*
X146816740Y-66255900D03*
X143357260Y-63454280D03*
X143357260Y-66255900D03*
X144507880Y-63454280D03*
X145666120Y-63454280D03*
X145666120Y-66255900D03*
X144507880Y-66255900D03*
D14*
X145087000Y-67655440D03*
D15*
X151183340Y-74254360D03*
X151183340Y-78653640D03*
X151183340Y-76454000D03*
X142184120Y-78653640D03*
X142184120Y-74254360D03*
X142184120Y-76454000D03*
D16*
X148635720Y-78183740D03*
X145834100Y-78183740D03*
X148635720Y-74724260D03*
X145834100Y-74724260D03*
X148635720Y-75874880D03*
X148635720Y-77033120D03*
X145834100Y-77033120D03*
X145834100Y-75874880D03*
D17*
X144434560Y-76454000D03*
D18*
X123646500Y-97746000D03*
X125146500Y-97746000D03*
D19*
X121809000Y-82780000D03*
X122209000Y-82780000D03*
X122609000Y-82780000D03*
X123009000Y-82780000D03*
X123409000Y-82780000D03*
X123809000Y-82780000D03*
D20*
X124309000Y-82280000D03*
X124309000Y-81880000D03*
X124309000Y-81480000D03*
X124309000Y-81080000D03*
X124309000Y-80680000D03*
X124309000Y-80280000D03*
D19*
X123809000Y-79780000D03*
X123409000Y-79780000D03*
X123009000Y-79780000D03*
X122609000Y-79780000D03*
X122209000Y-79780000D03*
X121809000Y-79780000D03*
D20*
X121309000Y-80280000D03*
X121309000Y-80680000D03*
X121309000Y-81080000D03*
X121309000Y-81480000D03*
X121309000Y-81880000D03*
X121309000Y-82280000D03*
D21*
X126333000Y-62357000D03*
X122333000Y-62357000D03*
D22*
X120015000Y-81395000D03*
X120015000Y-79895000D03*
D23*
X136461500Y-76471780D03*
X136461500Y-75971400D03*
X136461500Y-75471020D03*
X136461500Y-74970640D03*
X136461500Y-74470260D03*
X136461500Y-73972420D03*
X136461500Y-73472040D03*
X136461500Y-72971660D03*
X136461500Y-72471280D03*
X136461500Y-71970900D03*
X136461500Y-71470520D03*
X136461500Y-80970120D03*
X136461500Y-80472280D03*
X136461500Y-79971900D03*
X128460500Y-75471020D03*
X136461500Y-78971140D03*
X136461500Y-78470760D03*
X136461500Y-77970380D03*
X136461500Y-77472540D03*
X136461500Y-76972160D03*
X128460500Y-72971660D03*
X128460500Y-73472040D03*
X128460500Y-73972420D03*
X128460500Y-74470260D03*
X128460500Y-74970640D03*
X136461500Y-79471520D03*
X128460500Y-75971400D03*
X128460500Y-76471780D03*
X128460500Y-76972160D03*
X128460500Y-77472540D03*
X128460500Y-77970380D03*
X128460500Y-78470760D03*
X128460500Y-78971140D03*
X128460500Y-67472560D03*
X128460500Y-67970400D03*
X128460500Y-68470780D03*
X128460500Y-68971160D03*
X128460500Y-69471540D03*
X128460500Y-69971920D03*
X128460500Y-70472300D03*
X128460500Y-70970140D03*
X128460500Y-71470520D03*
X128460500Y-71970900D03*
X128460500Y-72471280D03*
X128460500Y-79471520D03*
X128460500Y-79971900D03*
X128460500Y-80472280D03*
X128460500Y-80970120D03*
X136461500Y-70970140D03*
X136461500Y-70472300D03*
X136461500Y-69971920D03*
X136461500Y-69471540D03*
X136461500Y-68971160D03*
X136461500Y-68470780D03*
X136461500Y-67970400D03*
X136461500Y-67472560D03*
D24*
X132461000Y-74168000D03*
D25*
X135576000Y-86706001D03*
X135076001Y-86706001D03*
X134576000Y-86706001D03*
X134076001Y-86706001D03*
X133575999Y-86706001D03*
X133076000Y-86706001D03*
X132576001Y-86706001D03*
X132076000Y-86706001D03*
X131576000Y-86706001D03*
X131075999Y-86706001D03*
X130576000Y-86706001D03*
X130076001Y-86706001D03*
X129575999Y-86706001D03*
X129076000Y-86706001D03*
X128575999Y-86706001D03*
X128076000Y-86706001D03*
D26*
X126076001Y-88706000D03*
X126076001Y-89205999D03*
X126076001Y-89706000D03*
X126076001Y-90205999D03*
X126076001Y-90706001D03*
X126076001Y-91206000D03*
X126076001Y-91705999D03*
X126076001Y-92206000D03*
X126076001Y-92706000D03*
X126076001Y-93206001D03*
X126076001Y-93706000D03*
X126076001Y-94205999D03*
X126076001Y-94706001D03*
X126076001Y-95206000D03*
X126076001Y-95706001D03*
X126076001Y-96206000D03*
D25*
X128076000Y-98205999D03*
X128575999Y-98205999D03*
X129076000Y-98205999D03*
X129575999Y-98205999D03*
X130076001Y-98205999D03*
X130576000Y-98205999D03*
X131075999Y-98205999D03*
X131576000Y-98205999D03*
X132076000Y-98205999D03*
X132576001Y-98205999D03*
X133076000Y-98205999D03*
X133575999Y-98205999D03*
X134076001Y-98205999D03*
X134576000Y-98205999D03*
X135076001Y-98205999D03*
X135576000Y-98205999D03*
D26*
X137575999Y-96206000D03*
X137575999Y-95706001D03*
X137575999Y-95206000D03*
X137575999Y-94706001D03*
X137575999Y-94205999D03*
X137575999Y-93706000D03*
X137575999Y-93206001D03*
X137575999Y-92706000D03*
X137575999Y-92206000D03*
X137575999Y-91705999D03*
X137575999Y-91206000D03*
X137575999Y-90706001D03*
X137575999Y-90205999D03*
X137575999Y-89706000D03*
X137575999Y-89205999D03*
X137575999Y-88706000D03*
D27*
G36*
X117083299Y-62370494D02*
G01*
X115810506Y-61097701D01*
X117578273Y-59329934D01*
X118851066Y-60602727D01*
X117083299Y-62370494D01*
G37*
G36*
X119911727Y-59542066D02*
G01*
X118638934Y-58269273D01*
X120406701Y-56501506D01*
X121679494Y-57774299D01*
X119911727Y-59542066D01*
G37*
D28*
X124200000Y-99789500D03*
X123550000Y-99789500D03*
X122900000Y-99789500D03*
X122250000Y-99789500D03*
X122250000Y-102889500D03*
X122900000Y-102889500D03*
X123550000Y-102889500D03*
X124200000Y-102889500D03*
D29*
X122625000Y-101727000D03*
X123825000Y-101727000D03*
X122625000Y-100952000D03*
X123825000Y-100952000D03*
D30*
X139551000Y-60198000D03*
X136801000Y-60198000D03*
D31*
X133834000Y-83566000D03*
X130834000Y-83566000D03*
D32*
X139192000Y-68175000D03*
X139192000Y-65175000D03*
D33*
X127445200Y-100711000D03*
X125945200Y-100711000D03*
X127445200Y-102108000D03*
X125945200Y-102108000D03*
X127445200Y-103632000D03*
X125945200Y-103632000D03*
D34*
X123113800Y-70727000D03*
X123113800Y-69227000D03*
X123113800Y-68136200D03*
X123113800Y-66636200D03*
D33*
X124751400Y-68249800D03*
X126251400Y-68249800D03*
X124751400Y-71196200D03*
X126251400Y-71196200D03*
X124726000Y-65354200D03*
X126226000Y-65354200D03*
X119519000Y-106680000D03*
X121019000Y-106680000D03*
X133719000Y-56134000D03*
X132219000Y-56134000D03*
X124448000Y-56388000D03*
X122948000Y-56388000D03*
X124448000Y-58039000D03*
X122948000Y-58039000D03*
X124448000Y-59690000D03*
X122948000Y-59690000D03*
D34*
X140335000Y-76339000D03*
X140335000Y-77839000D03*
X140335000Y-79133000D03*
X140335000Y-80633000D03*
D22*
X120015000Y-90793000D03*
X120015000Y-89293000D03*
X137541000Y-98310000D03*
X137541000Y-99810000D03*
D18*
X133743000Y-99949000D03*
X135243000Y-99949000D03*
D22*
X124269500Y-89777000D03*
X124269500Y-88277000D03*
X128143000Y-85205000D03*
X128143000Y-83705000D03*
X120751600Y-72886000D03*
X120751600Y-71386000D03*
X139192000Y-87654000D03*
X139192000Y-89154000D03*
D18*
X124625800Y-73101200D03*
X123125800Y-73101200D03*
X124625800Y-74549000D03*
X123125800Y-74549000D03*
X126251400Y-69723000D03*
X124751400Y-69723000D03*
D22*
X125349000Y-78347000D03*
X125349000Y-76847000D03*
D18*
X124726000Y-66802000D03*
X126226000Y-66802000D03*
D22*
X126365000Y-74180000D03*
X126365000Y-75680000D03*
X126873000Y-80657000D03*
X126873000Y-82157000D03*
D18*
X140323000Y-63754000D03*
X138823000Y-63754000D03*
D22*
X138303000Y-71005000D03*
X138303000Y-72505000D03*
X138303000Y-73799000D03*
X138303000Y-75299000D03*
X138303000Y-76593000D03*
X138303000Y-78093000D03*
D18*
X140323000Y-69850000D03*
X138823000Y-69850000D03*
X137299000Y-62230000D03*
X138799000Y-62230000D03*
D22*
X120650000Y-97548000D03*
X120650000Y-99048000D03*
X120650000Y-102096000D03*
X120650000Y-100596000D03*
D18*
X124511500Y-86868000D03*
X123011500Y-86868000D03*
X134936800Y-56083200D03*
X136436800Y-56083200D03*
D22*
X125603000Y-82157000D03*
X125603000Y-80657000D03*
D18*
X122313000Y-78486000D03*
X123813000Y-78486000D03*
D35*
X157734000Y-86800000D03*
D34*
X120015000Y-85459000D03*
X120015000Y-83959000D03*
X121412000Y-85459000D03*
X121412000Y-83959000D03*
M02*
