G04 #@! TF.GenerationSoftware,KiCad,Pcbnew,(5.1.5-0)*
G04 #@! TF.CreationDate,2020-06-19T17:54:54+08:00*
G04 #@! TF.ProjectId,TESC,54455343-2e6b-4696-9361-645f70636258,A*
G04 #@! TF.SameCoordinates,Original*
G04 #@! TF.FileFunction,Soldermask,Top*
G04 #@! TF.FilePolarity,Negative*
%FSLAX46Y46*%
G04 Gerber Fmt 4.6, Leading zero omitted, Abs format (unit mm)*
G04 Created by KiCad (PCBNEW (5.1.5-0)) date 2020-06-19 17:54:54*
%MOMM*%
%LPD*%
G04 APERTURE LIST*
%ADD10R,2.000000X6.200000*%
%ADD11R,3.810000X3.048000*%
%ADD12R,1.699260X1.099820*%
%ADD13R,0.850900X1.099820*%
%ADD14R,1.300480X0.701040*%
%ADD15R,1.099820X1.699260*%
%ADD16R,1.099820X0.850900*%
%ADD17R,0.701040X1.300480*%
%ADD18C,0.900000*%
%ADD19R,0.800000X0.750000*%
%ADD20O,0.200000X0.550000*%
%ADD21O,0.550000X0.200000*%
%ADD22R,2.500000X1.800000*%
%ADD23O,1.100000X2.200000*%
%ADD24O,1.100000X1.800000*%
%ADD25R,0.750000X0.800000*%
%ADD26R,1.501140X0.299720*%
%ADD27R,3.599180X7.000240*%
%ADD28R,0.304800X1.193800*%
%ADD29R,1.193800X0.304800*%
%ADD30C,0.100000*%
%ADD31R,0.350000X0.650000*%
%ADD32R,1.200000X0.775000*%
%ADD33R,1.950000X1.500000*%
%ADD34R,1.000000X2.500000*%
%ADD35R,2.500000X1.000000*%
%ADD36R,0.500000X0.900000*%
%ADD37R,0.900000X0.500000*%
%ADD38C,1.600000*%
%ADD39O,1.699260X1.198880*%
%ADD40R,1.699260X1.198880*%
%ADD41C,3.000000*%
%ADD42O,1.198880X1.699260*%
%ADD43R,1.198880X1.699260*%
%ADD44R,6.000000X5.000000*%
%ADD45C,0.254000*%
G04 APERTURE END LIST*
D10*
X133572000Y-62738000D03*
X129572000Y-62738000D03*
D11*
X131064000Y-102235000D03*
X131064000Y-106299000D03*
X136144000Y-106299000D03*
D12*
X155534360Y-60906660D03*
X159933640Y-60906660D03*
X157734000Y-60906660D03*
X159933640Y-69905880D03*
X155534360Y-69905880D03*
X157734000Y-69905880D03*
D13*
X159463740Y-63454280D03*
X159463740Y-66255900D03*
X156004260Y-63454280D03*
X156004260Y-66255900D03*
X157154880Y-63454280D03*
X158313120Y-63454280D03*
X158313120Y-66255900D03*
X157154880Y-66255900D03*
D14*
X157734000Y-67655440D03*
D15*
X162219340Y-74254360D03*
X162219340Y-78653640D03*
X162219340Y-76454000D03*
X153220120Y-78653640D03*
X153220120Y-74254360D03*
X153220120Y-76454000D03*
D16*
X159671720Y-78183740D03*
X156870100Y-78183740D03*
X159671720Y-74724260D03*
X156870100Y-74724260D03*
X159671720Y-75874880D03*
X159671720Y-77033120D03*
X156870100Y-77033120D03*
X156870100Y-75874880D03*
D17*
X155470560Y-76454000D03*
D12*
X168193360Y-60906660D03*
X172592640Y-60906660D03*
X170393000Y-60906660D03*
X172592640Y-69905880D03*
X168193360Y-69905880D03*
X170393000Y-69905880D03*
D13*
X172122740Y-63454280D03*
X172122740Y-66255900D03*
X168663260Y-63454280D03*
X168663260Y-66255900D03*
X169813880Y-63454280D03*
X170972120Y-63454280D03*
X170972120Y-66255900D03*
X169813880Y-66255900D03*
D14*
X170393000Y-67655440D03*
D15*
X173281340Y-74254360D03*
X173281340Y-78653640D03*
X173281340Y-76454000D03*
X164282120Y-78653640D03*
X164282120Y-74254360D03*
X164282120Y-76454000D03*
D16*
X170733720Y-78183740D03*
X167932100Y-78183740D03*
X170733720Y-74724260D03*
X167932100Y-74724260D03*
X170733720Y-75874880D03*
X170733720Y-77033120D03*
X167932100Y-77033120D03*
X167932100Y-75874880D03*
D17*
X166532560Y-76454000D03*
D12*
X142887360Y-60906660D03*
X147286640Y-60906660D03*
X145087000Y-60906660D03*
X147286640Y-69905880D03*
X142887360Y-69905880D03*
X145087000Y-69905880D03*
D13*
X146816740Y-63454280D03*
X146816740Y-66255900D03*
X143357260Y-63454280D03*
X143357260Y-66255900D03*
X144507880Y-63454280D03*
X145666120Y-63454280D03*
X145666120Y-66255900D03*
X144507880Y-66255900D03*
D14*
X145087000Y-67655440D03*
D15*
X151183340Y-74254360D03*
X151183340Y-78653640D03*
X151183340Y-76454000D03*
X142184120Y-78653640D03*
X142184120Y-74254360D03*
X142184120Y-76454000D03*
D16*
X148635720Y-78183740D03*
X145834100Y-78183740D03*
X148635720Y-74724260D03*
X145834100Y-74724260D03*
X148635720Y-75874880D03*
X148635720Y-77033120D03*
X145834100Y-77033120D03*
X145834100Y-75874880D03*
D17*
X144434560Y-76454000D03*
D18*
X121769000Y-59492000D03*
X118769000Y-59492000D03*
D19*
X123646500Y-97746000D03*
X125146500Y-97746000D03*
D20*
X121809000Y-82780000D03*
X122209000Y-82780000D03*
X122609000Y-82780000D03*
X123009000Y-82780000D03*
X123409000Y-82780000D03*
X123809000Y-82780000D03*
D21*
X124309000Y-82280000D03*
X124309000Y-81880000D03*
X124309000Y-81480000D03*
X124309000Y-81080000D03*
X124309000Y-80680000D03*
X124309000Y-80280000D03*
D20*
X123809000Y-79780000D03*
X123409000Y-79780000D03*
X123009000Y-79780000D03*
X122609000Y-79780000D03*
X122209000Y-79780000D03*
X121809000Y-79780000D03*
D21*
X121309000Y-80280000D03*
X121309000Y-80680000D03*
X121309000Y-81080000D03*
X121309000Y-81480000D03*
X121309000Y-81880000D03*
X121309000Y-82280000D03*
D22*
X126333000Y-62357000D03*
X122333000Y-62357000D03*
D23*
X128519000Y-109100000D03*
D24*
X126369000Y-111900000D03*
X126369000Y-106300000D03*
D25*
X120015000Y-81395000D03*
X120015000Y-79895000D03*
D26*
X136461500Y-76471780D03*
X136461500Y-75971400D03*
X136461500Y-75471020D03*
X136461500Y-74970640D03*
X136461500Y-74470260D03*
X136461500Y-73972420D03*
X136461500Y-73472040D03*
X136461500Y-72971660D03*
X136461500Y-72471280D03*
X136461500Y-71970900D03*
X136461500Y-71470520D03*
X136461500Y-80970120D03*
X136461500Y-80472280D03*
X136461500Y-79971900D03*
X128460500Y-75471020D03*
X136461500Y-78971140D03*
X136461500Y-78470760D03*
X136461500Y-77970380D03*
X136461500Y-77472540D03*
X136461500Y-76972160D03*
X128460500Y-72971660D03*
X128460500Y-73472040D03*
X128460500Y-73972420D03*
X128460500Y-74470260D03*
X128460500Y-74970640D03*
X136461500Y-79471520D03*
X128460500Y-75971400D03*
X128460500Y-76471780D03*
X128460500Y-76972160D03*
X128460500Y-77472540D03*
X128460500Y-77970380D03*
X128460500Y-78470760D03*
X128460500Y-78971140D03*
X128460500Y-67472560D03*
X128460500Y-67970400D03*
X128460500Y-68470780D03*
X128460500Y-68971160D03*
X128460500Y-69471540D03*
X128460500Y-69971920D03*
X128460500Y-70472300D03*
X128460500Y-70970140D03*
X128460500Y-71470520D03*
X128460500Y-71970900D03*
X128460500Y-72471280D03*
X128460500Y-79471520D03*
X128460500Y-79971900D03*
X128460500Y-80472280D03*
X128460500Y-80970120D03*
X136461500Y-70970140D03*
X136461500Y-70472300D03*
X136461500Y-69971920D03*
X136461500Y-69471540D03*
X136461500Y-68971160D03*
X136461500Y-68470780D03*
X136461500Y-67970400D03*
X136461500Y-67472560D03*
D27*
X132461000Y-74168000D03*
D28*
X135576000Y-86706001D03*
X135076001Y-86706001D03*
X134576000Y-86706001D03*
X134076001Y-86706001D03*
X133575999Y-86706001D03*
X133076000Y-86706001D03*
X132576001Y-86706001D03*
X132076000Y-86706001D03*
X131576000Y-86706001D03*
X131075999Y-86706001D03*
X130576000Y-86706001D03*
X130076001Y-86706001D03*
X129575999Y-86706001D03*
X129076000Y-86706001D03*
X128575999Y-86706001D03*
X128076000Y-86706001D03*
D29*
X126076001Y-88706000D03*
X126076001Y-89205999D03*
X126076001Y-89706000D03*
X126076001Y-90205999D03*
X126076001Y-90706001D03*
X126076001Y-91206000D03*
X126076001Y-91705999D03*
X126076001Y-92206000D03*
X126076001Y-92706000D03*
X126076001Y-93206001D03*
X126076001Y-93706000D03*
X126076001Y-94205999D03*
X126076001Y-94706001D03*
X126076001Y-95206000D03*
X126076001Y-95706001D03*
X126076001Y-96206000D03*
D28*
X128076000Y-98205999D03*
X128575999Y-98205999D03*
X129076000Y-98205999D03*
X129575999Y-98205999D03*
X130076001Y-98205999D03*
X130576000Y-98205999D03*
X131075999Y-98205999D03*
X131576000Y-98205999D03*
X132076000Y-98205999D03*
X132576001Y-98205999D03*
X133076000Y-98205999D03*
X133575999Y-98205999D03*
X134076001Y-98205999D03*
X134576000Y-98205999D03*
X135076001Y-98205999D03*
X135576000Y-98205999D03*
D29*
X137575999Y-96206000D03*
X137575999Y-95706001D03*
X137575999Y-95206000D03*
X137575999Y-94706001D03*
X137575999Y-94205999D03*
X137575999Y-93706000D03*
X137575999Y-93206001D03*
X137575999Y-92706000D03*
X137575999Y-92206000D03*
X137575999Y-91705999D03*
X137575999Y-91206000D03*
X137575999Y-90706001D03*
X137575999Y-90205999D03*
X137575999Y-89706000D03*
X137575999Y-89205999D03*
X137575999Y-88706000D03*
D30*
G36*
X117083299Y-62370494D02*
G01*
X115810506Y-61097701D01*
X117578273Y-59329934D01*
X118851066Y-60602727D01*
X117083299Y-62370494D01*
G37*
G36*
X119911727Y-59542066D02*
G01*
X118638934Y-58269273D01*
X120406701Y-56501506D01*
X121679494Y-57774299D01*
X119911727Y-59542066D01*
G37*
D31*
X124200000Y-99789500D03*
X123550000Y-99789500D03*
X122900000Y-99789500D03*
X122250000Y-99789500D03*
X122250000Y-102889500D03*
X122900000Y-102889500D03*
X123550000Y-102889500D03*
X124200000Y-102889500D03*
D32*
X122625000Y-101727000D03*
X123825000Y-101727000D03*
X122625000Y-100952000D03*
X123825000Y-100952000D03*
D33*
X139551000Y-60198000D03*
X136801000Y-60198000D03*
D34*
X133834000Y-83566000D03*
X130834000Y-83566000D03*
D35*
X139192000Y-68175000D03*
X139192000Y-65175000D03*
D36*
X127445200Y-100711000D03*
X125945200Y-100711000D03*
X127445200Y-102108000D03*
X125945200Y-102108000D03*
X127445200Y-103632000D03*
X125945200Y-103632000D03*
D37*
X123113800Y-70727000D03*
X123113800Y-69227000D03*
X123113800Y-68136200D03*
X123113800Y-66636200D03*
D36*
X124751400Y-68249800D03*
X126251400Y-68249800D03*
X124751400Y-71196200D03*
X126251400Y-71196200D03*
X124726000Y-65354200D03*
X126226000Y-65354200D03*
X119519000Y-106680000D03*
X121019000Y-106680000D03*
X133719000Y-56134000D03*
X132219000Y-56134000D03*
X124448000Y-56388000D03*
X122948000Y-56388000D03*
X124448000Y-58039000D03*
X122948000Y-58039000D03*
X124448000Y-59690000D03*
X122948000Y-59690000D03*
D37*
X140335000Y-76339000D03*
X140335000Y-77839000D03*
X140335000Y-79133000D03*
X140335000Y-80633000D03*
D25*
X120015000Y-90793000D03*
X120015000Y-89293000D03*
X137541000Y-98310000D03*
X137541000Y-99810000D03*
D19*
X133743000Y-99949000D03*
X135243000Y-99949000D03*
D25*
X124269500Y-89777000D03*
X124269500Y-88277000D03*
X128143000Y-85205000D03*
X128143000Y-83705000D03*
X120751600Y-72886000D03*
X120751600Y-71386000D03*
X139192000Y-87654000D03*
X139192000Y-89154000D03*
D19*
X124625800Y-73101200D03*
X123125800Y-73101200D03*
X124625800Y-74549000D03*
X123125800Y-74549000D03*
X126251400Y-69723000D03*
X124751400Y-69723000D03*
D25*
X125349000Y-78347000D03*
X125349000Y-76847000D03*
D19*
X124726000Y-66802000D03*
X126226000Y-66802000D03*
D25*
X126365000Y-74180000D03*
X126365000Y-75680000D03*
X126873000Y-80657000D03*
X126873000Y-82157000D03*
D19*
X140323000Y-63754000D03*
X138823000Y-63754000D03*
D25*
X138303000Y-71005000D03*
X138303000Y-72505000D03*
X138303000Y-73799000D03*
X138303000Y-75299000D03*
X138303000Y-76593000D03*
X138303000Y-78093000D03*
D19*
X140323000Y-69850000D03*
X138823000Y-69850000D03*
X137299000Y-62230000D03*
X138799000Y-62230000D03*
D25*
X120650000Y-97548000D03*
X120650000Y-99048000D03*
X120650000Y-102096000D03*
X120650000Y-100596000D03*
D19*
X124511500Y-86868000D03*
X123011500Y-86868000D03*
X134936800Y-56083200D03*
X136436800Y-56083200D03*
D25*
X125603000Y-82157000D03*
X125603000Y-80657000D03*
D19*
X122313000Y-78486000D03*
X123813000Y-78486000D03*
D38*
X144726000Y-81788000D03*
X149726000Y-81788000D03*
X170842000Y-81788000D03*
X165842000Y-81788000D03*
D39*
X118000000Y-102201520D03*
X118000000Y-100200000D03*
D40*
X118000000Y-104203040D03*
D41*
X151384000Y-58166000D03*
X164084000Y-58166000D03*
D42*
X117182900Y-108458000D03*
X121183400Y-108458000D03*
X119181880Y-108458000D03*
D43*
X123184920Y-108458000D03*
D42*
X136851260Y-58000000D03*
X134849740Y-58000000D03*
X132848220Y-58000000D03*
X128847720Y-58000000D03*
X130849240Y-58000000D03*
D43*
X126846200Y-58000000D03*
D39*
X117983000Y-77045760D03*
X117983000Y-85049300D03*
X117983000Y-89049800D03*
X117983000Y-87048280D03*
D40*
X117983000Y-91051320D03*
D39*
X117983000Y-83045240D03*
X117983000Y-81043720D03*
X117983000Y-79044740D03*
X117983000Y-64545500D03*
X117983000Y-66547020D03*
X117983000Y-70547520D03*
X117983000Y-68546000D03*
D40*
X117983000Y-72549040D03*
D44*
X157734000Y-86800000D03*
D37*
X120015000Y-85459000D03*
X120015000Y-83959000D03*
X121412000Y-85459000D03*
X121412000Y-83959000D03*
D45*
G36*
X153797000Y-80518000D02*
G01*
X153799440Y-80542776D01*
X153806667Y-80566601D01*
X153822400Y-80594200D01*
X154203400Y-81102200D01*
X154220218Y-81120557D01*
X154240294Y-81135280D01*
X154262857Y-81145804D01*
X154287039Y-81151724D01*
X154305000Y-81153000D01*
X161163000Y-81153000D01*
X161187776Y-81150560D01*
X161211601Y-81143333D01*
X161233557Y-81131597D01*
X161252803Y-81115803D01*
X161264600Y-81102200D01*
X161645600Y-80594200D01*
X161658514Y-80572915D01*
X161667027Y-80549519D01*
X161671000Y-80518000D01*
X161671000Y-73406000D01*
X164846000Y-73406000D01*
X164846000Y-80452039D01*
X160658161Y-83396104D01*
X160639295Y-83412350D01*
X160623962Y-83431964D01*
X160612749Y-83454192D01*
X160606088Y-83478181D01*
X160604200Y-83500000D01*
X160604200Y-84455000D01*
X154863800Y-84455000D01*
X154863800Y-83500000D01*
X154861360Y-83475224D01*
X154854133Y-83451399D01*
X154842397Y-83429443D01*
X154826603Y-83410197D01*
X154809839Y-83396104D01*
X150622000Y-80452039D01*
X150622000Y-73406000D01*
X153797000Y-73406000D01*
X153797000Y-80518000D01*
G37*
X153797000Y-80518000D02*
X153799440Y-80542776D01*
X153806667Y-80566601D01*
X153822400Y-80594200D01*
X154203400Y-81102200D01*
X154220218Y-81120557D01*
X154240294Y-81135280D01*
X154262857Y-81145804D01*
X154287039Y-81151724D01*
X154305000Y-81153000D01*
X161163000Y-81153000D01*
X161187776Y-81150560D01*
X161211601Y-81143333D01*
X161233557Y-81131597D01*
X161252803Y-81115803D01*
X161264600Y-81102200D01*
X161645600Y-80594200D01*
X161658514Y-80572915D01*
X161667027Y-80549519D01*
X161671000Y-80518000D01*
X161671000Y-73406000D01*
X164846000Y-73406000D01*
X164846000Y-80452039D01*
X160658161Y-83396104D01*
X160639295Y-83412350D01*
X160623962Y-83431964D01*
X160612749Y-83454192D01*
X160606088Y-83478181D01*
X160604200Y-83500000D01*
X160604200Y-84455000D01*
X154863800Y-84455000D01*
X154863800Y-83500000D01*
X154861360Y-83475224D01*
X154854133Y-83451399D01*
X154842397Y-83429443D01*
X154826603Y-83410197D01*
X154809839Y-83396104D01*
X150622000Y-80452039D01*
X150622000Y-73406000D01*
X153797000Y-73406000D01*
X153797000Y-80518000D01*
M02*
