G04 #@! TF.GenerationSoftware,KiCad,Pcbnew,(5.1.5-0)*
G04 #@! TF.CreationDate,2019-12-18T14:05:17+08:00*
G04 #@! TF.ProjectId,VESC_6,56455343-5f36-42e6-9b69-6361645f7063,A*
G04 #@! TF.SameCoordinates,Original*
G04 #@! TF.FileFunction,Paste,Top*
G04 #@! TF.FilePolarity,Positive*
%FSLAX46Y46*%
G04 Gerber Fmt 4.6, Leading zero omitted, Abs format (unit mm)*
G04 Created by KiCad (PCBNEW (5.1.5-0)) date 2019-12-18 14:05:17*
%MOMM*%
%LPD*%
G04 APERTURE LIST*
%ADD10R,0.800000X0.750000*%
%ADD11O,0.200000X0.550000*%
%ADD12O,0.550000X0.200000*%
%ADD13R,2.500000X1.800000*%
%ADD14R,0.750000X0.800000*%
%ADD15R,1.180000X4.700000*%
%ADD16R,1.501140X0.299720*%
%ADD17R,3.599180X7.000240*%
%ADD18R,0.304800X1.193800*%
%ADD19R,1.193800X0.304800*%
%ADD20C,0.100000*%
%ADD21R,0.350000X0.650000*%
%ADD22R,0.720000X0.465000*%
%ADD23R,1.950000X1.500000*%
%ADD24R,1.000000X2.500000*%
%ADD25R,2.500000X1.000000*%
%ADD26R,0.500000X0.900000*%
%ADD27R,0.900000X0.500000*%
%ADD28R,1.100000X1.700000*%
%ADD29R,1.100000X0.850000*%
%ADD30R,0.700000X1.300000*%
%ADD31R,1.300000X0.700000*%
%ADD32R,0.850000X1.100000*%
%ADD33R,1.700000X1.100000*%
%ADD34R,6.000000X5.000000*%
%ADD35R,3.810000X3.048000*%
G04 APERTURE END LIST*
D10*
X123646500Y-97746000D03*
X125146500Y-97746000D03*
D11*
X121809000Y-82780000D03*
X122209000Y-82780000D03*
X122609000Y-82780000D03*
X123009000Y-82780000D03*
X123409000Y-82780000D03*
X123809000Y-82780000D03*
D12*
X124309000Y-82280000D03*
X124309000Y-81880000D03*
X124309000Y-81480000D03*
X124309000Y-81080000D03*
X124309000Y-80680000D03*
X124309000Y-80280000D03*
D11*
X123809000Y-79780000D03*
X123409000Y-79780000D03*
X123009000Y-79780000D03*
X122609000Y-79780000D03*
X122209000Y-79780000D03*
X121809000Y-79780000D03*
D12*
X121309000Y-80280000D03*
X121309000Y-80680000D03*
X121309000Y-81080000D03*
X121309000Y-81480000D03*
X121309000Y-81880000D03*
X121309000Y-82280000D03*
D13*
X125825000Y-61849000D03*
X121825000Y-61849000D03*
D14*
X120015000Y-81395000D03*
X120015000Y-79895000D03*
D15*
X129790000Y-62600000D03*
X133100000Y-62600000D03*
D16*
X136461500Y-76471780D03*
X136461500Y-75971400D03*
X136461500Y-75471020D03*
X136461500Y-74970640D03*
X136461500Y-74470260D03*
X136461500Y-73972420D03*
X136461500Y-73472040D03*
X136461500Y-72971660D03*
X136461500Y-72471280D03*
X136461500Y-71970900D03*
X136461500Y-71470520D03*
X136461500Y-80970120D03*
X136461500Y-80472280D03*
X136461500Y-79971900D03*
X128460500Y-75471020D03*
X136461500Y-78971140D03*
X136461500Y-78470760D03*
X136461500Y-77970380D03*
X136461500Y-77472540D03*
X136461500Y-76972160D03*
X128460500Y-72971660D03*
X128460500Y-73472040D03*
X128460500Y-73972420D03*
X128460500Y-74470260D03*
X128460500Y-74970640D03*
X136461500Y-79471520D03*
X128460500Y-75971400D03*
X128460500Y-76471780D03*
X128460500Y-76972160D03*
X128460500Y-77472540D03*
X128460500Y-77970380D03*
X128460500Y-78470760D03*
X128460500Y-78971140D03*
X128460500Y-67472560D03*
X128460500Y-67970400D03*
X128460500Y-68470780D03*
X128460500Y-68971160D03*
X128460500Y-69471540D03*
X128460500Y-69971920D03*
X128460500Y-70472300D03*
X128460500Y-70970140D03*
X128460500Y-71470520D03*
X128460500Y-71970900D03*
X128460500Y-72471280D03*
X128460500Y-79471520D03*
X128460500Y-79971900D03*
X128460500Y-80472280D03*
X128460500Y-80970120D03*
X136461500Y-70970140D03*
X136461500Y-70472300D03*
X136461500Y-69971920D03*
X136461500Y-69471540D03*
X136461500Y-68971160D03*
X136461500Y-68470780D03*
X136461500Y-67970400D03*
X136461500Y-67472560D03*
D17*
X132461000Y-74168000D03*
D18*
X135576000Y-86706001D03*
X135076001Y-86706001D03*
X134576000Y-86706001D03*
X134076001Y-86706001D03*
X133575999Y-86706001D03*
X133076000Y-86706001D03*
X132576001Y-86706001D03*
X132076000Y-86706001D03*
X131576000Y-86706001D03*
X131075999Y-86706001D03*
X130576000Y-86706001D03*
X130076001Y-86706001D03*
X129575999Y-86706001D03*
X129076000Y-86706001D03*
X128575999Y-86706001D03*
X128076000Y-86706001D03*
D19*
X126076001Y-88706000D03*
X126076001Y-89205999D03*
X126076001Y-89706000D03*
X126076001Y-90205999D03*
X126076001Y-90706001D03*
X126076001Y-91206000D03*
X126076001Y-91705999D03*
X126076001Y-92206000D03*
X126076001Y-92706000D03*
X126076001Y-93206001D03*
X126076001Y-93706000D03*
X126076001Y-94205999D03*
X126076001Y-94706001D03*
X126076001Y-95206000D03*
X126076001Y-95706001D03*
X126076001Y-96206000D03*
D18*
X128076000Y-98205999D03*
X128575999Y-98205999D03*
X129076000Y-98205999D03*
X129575999Y-98205999D03*
X130076001Y-98205999D03*
X130576000Y-98205999D03*
X131075999Y-98205999D03*
X131576000Y-98205999D03*
X132076000Y-98205999D03*
X132576001Y-98205999D03*
X133076000Y-98205999D03*
X133575999Y-98205999D03*
X134076001Y-98205999D03*
X134576000Y-98205999D03*
X135076001Y-98205999D03*
X135576000Y-98205999D03*
D19*
X137575999Y-96206000D03*
X137575999Y-95706001D03*
X137575999Y-95206000D03*
X137575999Y-94706001D03*
X137575999Y-94205999D03*
X137575999Y-93706000D03*
X137575999Y-93206001D03*
X137575999Y-92706000D03*
X137575999Y-92206000D03*
X137575999Y-91705999D03*
X137575999Y-91206000D03*
X137575999Y-90706001D03*
X137575999Y-90205999D03*
X137575999Y-89706000D03*
X137575999Y-89205999D03*
X137575999Y-88706000D03*
D20*
G36*
X117083299Y-62497494D02*
G01*
X115810506Y-61224701D01*
X117578273Y-59456934D01*
X118851066Y-60729727D01*
X117083299Y-62497494D01*
G37*
G36*
X119911727Y-59669066D02*
G01*
X118638934Y-58396273D01*
X120406701Y-56628506D01*
X121679494Y-57901299D01*
X119911727Y-59669066D01*
G37*
D21*
X124200000Y-99789500D03*
X123550000Y-99789500D03*
X122900000Y-99789500D03*
X122250000Y-99789500D03*
X122250000Y-102889500D03*
X122900000Y-102889500D03*
X123550000Y-102889500D03*
X124200000Y-102889500D03*
D22*
X122625000Y-101727000D03*
X123825000Y-101727000D03*
X122625000Y-100952000D03*
X123825000Y-100952000D03*
D23*
X136801000Y-60198000D03*
X139551000Y-60198000D03*
D24*
X133834000Y-83566000D03*
X130834000Y-83566000D03*
D25*
X139192000Y-68175000D03*
X139192000Y-65175000D03*
D26*
X127445200Y-100711000D03*
X125945200Y-100711000D03*
X127445200Y-102108000D03*
X125945200Y-102108000D03*
X127445200Y-103632000D03*
X125945200Y-103632000D03*
D27*
X123113800Y-70727000D03*
X123113800Y-69227000D03*
X123113800Y-68136200D03*
X123113800Y-66636200D03*
D26*
X124751400Y-68249800D03*
X126251400Y-68249800D03*
X124751400Y-71196200D03*
X126251400Y-71196200D03*
X124726000Y-65354200D03*
X126226000Y-65354200D03*
X119519000Y-106315000D03*
X121019000Y-106315000D03*
X133719000Y-56134000D03*
X132219000Y-56134000D03*
X124321000Y-56261000D03*
X122821000Y-56261000D03*
X124321000Y-57785000D03*
X122821000Y-57785000D03*
X124321000Y-59309000D03*
X122821000Y-59309000D03*
D27*
X140335000Y-76339000D03*
X140335000Y-77839000D03*
X140335000Y-79133000D03*
X140335000Y-80633000D03*
D14*
X120205500Y-90920000D03*
X120205500Y-89420000D03*
X137541000Y-99199000D03*
X137541000Y-100699000D03*
D10*
X133743000Y-99949000D03*
X135243000Y-99949000D03*
D14*
X124269500Y-89777000D03*
X124269500Y-88277000D03*
X128143000Y-85205000D03*
X128143000Y-83705000D03*
X120751600Y-72886000D03*
X120751600Y-71386000D03*
X139192000Y-87654000D03*
X139192000Y-89154000D03*
D10*
X124625800Y-73101200D03*
X123125800Y-73101200D03*
X124625800Y-74549000D03*
X123125800Y-74549000D03*
X126251400Y-69723000D03*
X124751400Y-69723000D03*
D14*
X125349000Y-78347000D03*
X125349000Y-76847000D03*
D10*
X124726000Y-66802000D03*
X126226000Y-66802000D03*
D14*
X126365000Y-74180000D03*
X126365000Y-75680000D03*
X127000000Y-80657000D03*
X127000000Y-82157000D03*
D10*
X140323000Y-63754000D03*
X138823000Y-63754000D03*
D14*
X138303000Y-71005000D03*
X138303000Y-72505000D03*
X138303000Y-73799000D03*
X138303000Y-75299000D03*
X138303000Y-76593000D03*
X138303000Y-78093000D03*
D10*
X140323000Y-69850000D03*
X138823000Y-69850000D03*
X137299000Y-62230000D03*
X138799000Y-62230000D03*
D14*
X120650000Y-97548000D03*
X120650000Y-99048000D03*
X120650000Y-102096000D03*
X120650000Y-100596000D03*
D10*
X124511500Y-86868000D03*
X123011500Y-86868000D03*
X134936800Y-56083200D03*
X136436800Y-56083200D03*
D14*
X125730000Y-82157000D03*
X125730000Y-80657000D03*
D10*
X122313000Y-78486000D03*
X123813000Y-78486000D03*
D28*
X173384000Y-74254000D03*
X173384000Y-78654000D03*
X173384000Y-76454000D03*
X164084000Y-78654000D03*
X164084000Y-74254000D03*
X164084000Y-76454000D03*
D29*
X170534000Y-78179000D03*
X167734000Y-78179000D03*
X170534000Y-74729000D03*
X167734000Y-74729000D03*
X170534000Y-75879000D03*
X170534000Y-77029000D03*
X167734000Y-77029000D03*
X167734000Y-75879000D03*
D30*
X166334000Y-76454000D03*
D31*
X170393000Y-67694000D03*
D32*
X169818000Y-66294000D03*
X170968000Y-66294000D03*
X170968000Y-63494000D03*
X169818000Y-63494000D03*
X168668000Y-66294000D03*
X168668000Y-63494000D03*
X172118000Y-66294000D03*
X172118000Y-63494000D03*
D33*
X170393000Y-69944000D03*
X168193000Y-69944000D03*
X172593000Y-69944000D03*
X170393000Y-60644000D03*
X172593000Y-60644000D03*
X168193000Y-60644000D03*
D28*
X151384000Y-74254000D03*
X151384000Y-78654000D03*
X151384000Y-76454000D03*
X142084000Y-78654000D03*
X142084000Y-74254000D03*
X142084000Y-76454000D03*
D29*
X148534000Y-78179000D03*
X145734000Y-78179000D03*
X148534000Y-74729000D03*
X145734000Y-74729000D03*
X148534000Y-75879000D03*
X148534000Y-77029000D03*
X145734000Y-77029000D03*
X145734000Y-75879000D03*
D30*
X144334000Y-76454000D03*
D31*
X145087000Y-67678000D03*
D32*
X144512000Y-66278000D03*
X145662000Y-66278000D03*
X145662000Y-63478000D03*
X144512000Y-63478000D03*
X143362000Y-66278000D03*
X143362000Y-63478000D03*
X146812000Y-66278000D03*
X146812000Y-63478000D03*
D33*
X145087000Y-69928000D03*
X142887000Y-69928000D03*
X147287000Y-69928000D03*
X145087000Y-60628000D03*
X147287000Y-60628000D03*
X142887000Y-60628000D03*
D28*
X162371000Y-74254000D03*
X162371000Y-78654000D03*
X162371000Y-76454000D03*
X153071000Y-78654000D03*
X153071000Y-74254000D03*
X153071000Y-76454000D03*
D29*
X159521000Y-78179000D03*
X156721000Y-78179000D03*
X159521000Y-74729000D03*
X156721000Y-74729000D03*
X159521000Y-75879000D03*
X159521000Y-77029000D03*
X156721000Y-77029000D03*
X156721000Y-75879000D03*
D30*
X155321000Y-76454000D03*
D31*
X157734000Y-67678000D03*
D32*
X157159000Y-66278000D03*
X158309000Y-66278000D03*
X158309000Y-63478000D03*
X157159000Y-63478000D03*
X156009000Y-66278000D03*
X156009000Y-63478000D03*
X159459000Y-66278000D03*
X159459000Y-63478000D03*
D33*
X157734000Y-69928000D03*
X155534000Y-69928000D03*
X159934000Y-69928000D03*
X157734000Y-60628000D03*
X159934000Y-60628000D03*
X155534000Y-60628000D03*
D34*
X157734000Y-86800000D03*
D27*
X120015000Y-85459000D03*
X120015000Y-83959000D03*
X121412000Y-85459000D03*
X121412000Y-83959000D03*
D35*
X131445000Y-102235000D03*
X131445000Y-106299000D03*
X136525000Y-106299000D03*
M02*
