M48
; DRILL file {KiCad (5.1.5-0)} date Monday, 16 March 2020 at 09:58:44
; FORMAT={-:-/ absolute / inch / decimal}
; #@! TF.CreationDate,2020-03-16T09:58:44+08:00
; #@! TF.GenerationSoftware,Kicad,Pcbnew,(5.1.5-0)
; #@! TF.FileFunction,Plated,1,4,PTH
FMAT,2
INCH
T1C0.0118
T2C0.0197
T3C0.0276
T4C0.0315
%
G90
G05
T1
X4.6063Y-3.84
X4.625Y-3.735
X4.685Y-2.975
X4.685Y-3.31
X4.6874Y-3.3785
X4.69Y-3.735
X4.7047Y-3.9957
X4.705Y-3.955
X4.7082Y-3.8864
X4.7469Y-3.6716
X4.7518Y-2.5854
X4.775Y-3.65
X4.7782Y-3.62
X4.7828Y-3.5847
X4.7832Y-3.4995
X4.7883Y-3.2935
X4.79Y-3.92
X4.7982Y-2.69
X4.801Y-2.914
X4.805Y-2.225
X4.805Y-2.65
X4.806Y-2.806
X4.806Y-2.847
X4.81Y-3.855
X4.8275Y-2.5125
X4.85Y-3.293
X4.855Y-2.1911
X4.8572Y-3.7918
X4.868Y-3.894
X4.87Y-3.73
X4.8801Y-3.642
X4.885Y-2.835
X4.9Y-2.975
X4.9004Y-3.2905
X4.9006Y-3.893
X4.9015Y-3.7136
X4.908Y-3.767
X4.9153Y-3.8161
X4.9176Y-3.7384
X4.925Y-2.39
X4.935Y-2.22
X4.935Y-2.99
X4.94Y-2.31
X4.95Y-2.39
X4.965Y-3.055
X4.975Y-2.39
X4.975Y-3.295
X4.98Y-3.365
X5.0Y-3.0455
X5.005Y-3.01
X5.0091Y-2.73
X5.0093Y-2.8649
X5.01Y-3.375
X5.0154Y-3.7308
X5.0203Y-3.5297
X5.0252Y-3.4102
X5.034Y-4.044
X5.0341Y-3.225
X5.0506Y-2.3824
X5.0509Y-3.8176
X5.0584Y-4.165
X5.062Y-3.92
X5.0672Y-4.03
X5.0797Y-3.8105
X5.0826Y-3.7029
X5.0916Y-3.92
X5.095Y-3.305
X5.0975Y-3.4734
X5.0975Y-3.7868
X5.0979Y-3.3557
X5.11Y-2.79
X5.11Y-4.335
X5.1125Y-3.7367
X5.1142Y-3.0247
X5.115Y-2.695
X5.1197Y-2.9623
X5.12Y-2.745
X5.12Y-2.855
X5.12Y-2.93
X5.12Y-2.8202
X5.1213Y-2.9929
X5.1226Y-3.9197
X5.1257Y-3.4823
X5.135Y-3.357
X5.15Y-3.695
X5.15Y-4.09
X5.152Y-3.9235
X5.155Y-4.16
X5.16Y-2.73
X5.16Y-2.755
X5.165Y-3.555
X5.1778Y-3.7978
X5.1793Y-2.4366
X5.18Y-2.41
X5.185Y-2.58
X5.185Y-2.73
X5.185Y-2.755
X5.185Y-3.915
X5.19Y-2.35
X5.2033Y-3.813
X5.2091Y-2.5973
X5.21Y-3.935
X5.235Y-3.91
X5.26Y-2.63
X5.265Y-2.7
X5.2691Y-3.1873
X5.27Y-3.815
X5.27Y-2.33
X5.2754Y-3.9804
X5.2786Y-3.357
X5.28Y-3.12
X5.282Y-2.683
X5.285Y-2.6299
X5.285Y-3.7
X5.2897Y-3.4693
X5.291Y-3.209
X5.3Y-3.14
X5.3Y-3.555
X5.3072Y-2.8418
X5.3094Y-2.8113
X5.3095Y-3.0308
X5.3097Y-3.0614
X5.31Y-2.6299
X5.31Y-3.7968
X5.3106Y-3.092
X5.3142Y-2.9496
X5.3142Y-2.9811
X5.3143Y-2.8708
X5.315Y-3.74
X5.3167Y-2.7815
X5.3181Y-2.9181
X5.32Y-3.16
X5.321Y-3.3318
X5.328Y-3.501
X5.33Y-3.36
X5.345Y-3.595
X5.355Y-2.475
X5.365Y-2.435
X5.37Y-3.89
X5.3779Y-4.0262
X5.39Y-2.54
X5.395Y-3.815
X5.4293Y-3.128
X5.435Y-3.41
X5.4389Y-4.3812
X5.44Y-3.16
X5.4546Y-3.5887
X5.4577Y-3.6651
X5.4582Y-3.6996
X5.4582Y-3.7303
X5.4582Y-3.7603
X5.4582Y-3.8111
X5.4604Y-3.9054
X5.4699Y-3.614
X5.4792Y-3.3861
X5.491Y-3.635
X5.51Y-2.6318
X5.5236Y-2.9646
X5.525Y-3.145
X5.525Y-2.8678
X5.535Y-2.805
X5.5354Y-2.9331
X5.545Y-2.9
X5.56Y-2.78
X5.595Y-3.15
X5.62Y-3.15
X5.6299Y-2.815
X5.6299Y-2.8396
X5.63Y-2.865
X5.6389Y-2.2189
X5.6389Y-2.2439
X5.6389Y-2.2689
X5.6389Y-2.2939
X5.6389Y-2.3189
X5.645Y-3.125
X5.645Y-3.15
X5.65Y-2.665
X5.65Y-3.0322
X5.6545Y-2.815
X5.6545Y-2.8396
X5.6545Y-2.8642
X5.6545Y-2.8888
X5.6639Y-2.2189
X5.6639Y-2.2439
X5.6639Y-2.2689
X5.6639Y-2.2939
X5.6639Y-2.3189
X5.67Y-3.125
X5.67Y-3.15
X5.6791Y-2.815
X5.6791Y-2.8396
X5.6791Y-2.8642
X5.6791Y-2.8888
X5.6889Y-2.2189
X5.6889Y-2.2439
X5.6889Y-2.2689
X5.6889Y-2.2939
X5.6889Y-2.3189
X5.695Y-3.125
X5.695Y-3.15
X5.7037Y-2.8396
X5.7037Y-2.8642
X5.7037Y-2.8888
X5.7139Y-2.2189
X5.7139Y-2.2439
X5.7139Y-2.2689
X5.7139Y-2.2939
X5.7139Y-2.3189
X5.72Y-3.125
X5.72Y-3.15
X5.7283Y-2.8396
X5.7283Y-2.8642
X5.7283Y-2.8888
X5.7389Y-2.2189
X5.7389Y-2.2439
X5.7389Y-2.2689
X5.7389Y-2.2939
X5.7389Y-2.3189
X5.745Y-3.125
X5.745Y-3.15
X5.7529Y-2.815
X5.7529Y-2.8396
X5.7529Y-2.8642
X5.7529Y-2.8888
X5.7639Y-2.2189
X5.7639Y-2.2439
X5.7639Y-2.2689
X5.7639Y-2.2939
X5.7639Y-2.3189
X5.77Y-3.125
X5.77Y-3.15
X5.7775Y-2.815
X5.7775Y-2.8396
X5.7775Y-2.8642
X5.7775Y-2.8888
X5.7889Y-2.2189
X5.7889Y-2.2439
X5.7889Y-2.2689
X5.7889Y-2.2939
X5.7889Y-2.3189
X5.795Y-3.125
X5.795Y-3.15
X5.8021Y-2.815
X5.8021Y-2.8396
X5.8021Y-2.8642
X5.8021Y-2.8888
X5.82Y-3.125
X5.82Y-3.15
X5.8267Y-2.815
X5.8267Y-2.8396
X5.8267Y-2.8642
X5.8267Y-2.8888
X5.865Y-2.525
X5.865Y-2.548
X5.865Y-2.571
X5.865Y-2.594
X5.865Y-2.617
X5.865Y-2.64
X5.865Y-2.663
X5.888Y-2.525
X5.888Y-2.548
X5.888Y-2.571
X5.888Y-2.594
X5.888Y-2.617
X5.888Y-2.64
X5.888Y-2.663
X5.911Y-2.525
X5.911Y-2.548
X5.911Y-2.571
X5.911Y-2.594
X5.911Y-2.617
X5.911Y-2.64
X5.911Y-2.663
X5.934Y-2.525
X5.934Y-2.548
X5.934Y-2.571
X5.934Y-2.594
X5.934Y-2.617
X5.934Y-2.64
X5.934Y-2.663
X5.957Y-2.525
X5.957Y-2.548
X5.957Y-2.571
X5.957Y-2.594
X5.957Y-2.617
X5.957Y-2.64
X5.957Y-2.663
X5.98Y-2.525
X5.98Y-2.548
X5.98Y-2.571
X5.98Y-2.594
X5.98Y-2.617
X5.98Y-2.64
X5.98Y-2.663
X6.003Y-2.525
X6.003Y-2.548
X6.003Y-2.571
X6.003Y-2.594
X6.003Y-2.617
X6.003Y-2.64
X6.003Y-2.663
X6.026Y-2.525
X6.026Y-2.548
X6.026Y-2.571
X6.026Y-2.594
X6.026Y-2.617
X6.026Y-2.64
X6.026Y-2.663
X6.03Y-2.41
X6.049Y-2.525
X6.049Y-2.548
X6.049Y-2.571
X6.049Y-2.594
X6.049Y-2.617
X6.049Y-2.64
X6.049Y-2.663
X6.06Y-2.42
X6.088Y-3.038
X6.095Y-3.125
X6.095Y-3.15
X6.12Y-3.125
X6.12Y-3.15
X6.125Y-2.815
X6.125Y-2.8395
X6.125Y-2.864
X6.125Y-2.8885
X6.135Y-2.2189
X6.135Y-2.2439
X6.135Y-2.2689
X6.135Y-2.2939
X6.135Y-2.3189
X6.145Y-2.665
X6.145Y-3.125
X6.145Y-3.15
X6.1495Y-2.815
X6.1495Y-2.8395
X6.1495Y-2.864
X6.1495Y-2.8885
X6.16Y-2.2189
X6.16Y-2.2439
X6.16Y-2.2689
X6.16Y-2.2939
X6.16Y-2.3189
X6.17Y-3.125
X6.17Y-3.15
X6.174Y-2.815
X6.174Y-2.8395
X6.174Y-2.864
X6.174Y-2.8885
X6.185Y-2.2189
X6.185Y-2.2439
X6.185Y-2.2689
X6.185Y-2.2939
X6.185Y-2.3189
X6.195Y-3.125
X6.195Y-3.15
X6.1985Y-2.8395
X6.1985Y-2.864
X6.1985Y-2.8885
X6.21Y-2.2189
X6.21Y-2.2439
X6.21Y-2.2689
X6.21Y-2.2939
X6.21Y-2.3189
X6.22Y-3.125
X6.22Y-3.15
X6.223Y-2.8395
X6.223Y-2.864
X6.223Y-2.8885
X6.235Y-2.2189
X6.235Y-2.2439
X6.235Y-2.2689
X6.235Y-2.2939
X6.235Y-2.3189
X6.245Y-3.125
X6.245Y-3.15
X6.2475Y-2.815
X6.2475Y-2.8395
X6.2475Y-2.864
X6.2475Y-2.8885
X6.26Y-2.2189
X6.26Y-2.2439
X6.26Y-2.2689
X6.26Y-2.2939
X6.26Y-2.3189
X6.27Y-3.125
X6.27Y-3.15
X6.272Y-2.815
X6.272Y-2.8395
X6.272Y-2.864
X6.272Y-2.8885
X6.285Y-2.2189
X6.285Y-2.2439
X6.285Y-2.2689
X6.285Y-2.2939
X6.285Y-2.3189
X6.29Y-2.665
X6.295Y-3.125
X6.295Y-3.15
X6.2965Y-2.815
X6.2965Y-2.8395
X6.2965Y-2.864
X6.2965Y-2.8885
X6.32Y-3.125
X6.32Y-3.15
X6.321Y-2.815
X6.321Y-2.8395
X6.321Y-2.864
X6.321Y-2.8885
X6.37Y-2.525
X6.37Y-2.548
X6.37Y-2.571
X6.37Y-2.594
X6.37Y-2.617
X6.37Y-2.64
X6.37Y-2.663
X6.393Y-2.525
X6.393Y-2.548
X6.393Y-2.571
X6.393Y-2.594
X6.393Y-2.617
X6.393Y-2.64
X6.393Y-2.663
X6.416Y-2.525
X6.416Y-2.548
X6.416Y-2.571
X6.416Y-2.594
X6.416Y-2.617
X6.416Y-2.64
X6.416Y-2.663
X6.439Y-2.525
X6.439Y-2.548
X6.439Y-2.571
X6.439Y-2.594
X6.439Y-2.617
X6.439Y-2.64
X6.439Y-2.663
X6.462Y-2.525
X6.462Y-2.548
X6.462Y-2.571
X6.462Y-2.594
X6.462Y-2.617
X6.462Y-2.64
X6.462Y-2.663
X6.485Y-2.525
X6.485Y-2.548
X6.485Y-2.571
X6.485Y-2.594
X6.485Y-2.617
X6.485Y-2.64
X6.485Y-2.663
X6.508Y-2.525
X6.508Y-2.548
X6.508Y-2.571
X6.508Y-2.594
X6.508Y-2.617
X6.508Y-2.64
X6.508Y-2.663
X6.525Y-2.42
X6.531Y-2.525
X6.531Y-2.548
X6.531Y-2.571
X6.531Y-2.594
X6.531Y-2.617
X6.531Y-2.64
X6.531Y-2.663
X6.554Y-2.525
X6.554Y-2.548
X6.554Y-2.571
X6.554Y-2.594
X6.554Y-2.617
X6.554Y-2.64
X6.554Y-2.663
X6.555Y-2.41
X6.595Y-3.125
X6.595Y-3.15
X6.62Y-3.125
X6.62Y-3.15
X6.625Y-2.815
X6.625Y-2.8395
X6.625Y-2.864
X6.625Y-2.8885
X6.635Y-2.2189
X6.635Y-2.2439
X6.635Y-2.2689
X6.635Y-2.2939
X6.635Y-2.3189
X6.645Y-2.665
X6.645Y-3.125
X6.645Y-3.15
X6.6495Y-2.815
X6.6495Y-2.8395
X6.6495Y-2.864
X6.6495Y-2.8885
X6.66Y-2.2189
X6.66Y-2.2439
X6.66Y-2.2689
X6.66Y-2.2939
X6.66Y-2.3189
X6.67Y-3.125
X6.67Y-3.15
X6.674Y-2.815
X6.674Y-2.8395
X6.674Y-2.864
X6.674Y-2.8885
X6.685Y-2.2189
X6.685Y-2.2439
X6.685Y-2.2689
X6.685Y-2.2939
X6.685Y-2.3189
X6.695Y-3.125
X6.695Y-3.15
X6.6985Y-2.8395
X6.6985Y-2.864
X6.6985Y-2.8885
X6.71Y-2.2189
X6.71Y-2.2439
X6.71Y-2.2689
X6.71Y-2.2939
X6.71Y-2.3189
X6.72Y-3.125
X6.72Y-3.15
X6.723Y-2.8395
X6.723Y-2.864
X6.723Y-2.8885
X6.735Y-2.2189
X6.735Y-2.2439
X6.735Y-2.2689
X6.735Y-2.2939
X6.735Y-2.3189
X6.745Y-3.125
X6.745Y-3.15
X6.7475Y-2.815
X6.7475Y-2.8395
X6.7475Y-2.864
X6.7475Y-2.8885
X6.76Y-2.2189
X6.76Y-2.2439
X6.76Y-2.2689
X6.76Y-2.2939
X6.76Y-2.3189
X6.77Y-3.125
X6.77Y-3.15
X6.772Y-2.815
X6.772Y-2.8395
X6.772Y-2.864
X6.772Y-2.8885
X6.785Y-2.2189
X6.785Y-2.2439
X6.785Y-2.2689
X6.785Y-2.2939
X6.785Y-2.3189
X6.795Y-3.15
X6.7965Y-2.815
X6.7965Y-2.8395
X6.7965Y-2.864
X6.82Y-3.15
X6.821Y-2.815
X6.821Y-2.8395
X6.821Y-2.864
T3
X4.6457Y-3.9449
X4.6457Y-4.0237
X4.6457Y-4.1025
X4.645Y-3.0333
X4.645Y-3.112
X4.645Y-3.1907
X4.645Y-3.2695
X4.645Y-3.3484
X4.645Y-3.4271
X4.645Y-3.5059
X4.645Y-3.5847
X4.9939Y-2.2835
X5.0727Y-2.2835
X5.1515Y-2.2835
X5.2302Y-2.2835
X5.309Y-2.2835
X5.3878Y-2.2835
X4.645Y-2.5412
X4.645Y-2.62
X4.645Y-2.6987
X4.645Y-2.7775
X4.645Y-2.8563
X4.6135Y-4.27
X4.6922Y-4.27
X4.771Y-4.27
X4.8498Y-4.27
T4
X6.5292Y-3.22
X6.7261Y-3.22
X5.6979Y-3.22
X5.8947Y-3.22
T2
G00X4.9752Y-4.1713
M15
G01X4.9752Y-4.1988
M16
G05
G00X4.9752Y-4.3917
M15
G01X4.9752Y-4.4193
M16
G05
G00X5.0598Y-4.2736
M15
G01X5.0598Y-4.3169
M16
G05
T0
M30
