G04 #@! TF.GenerationSoftware,KiCad,Pcbnew,(5.1.5-0)*
G04 #@! TF.CreationDate,2020-04-02T08:13:29+08:00*
G04 #@! TF.ProjectId,VESC_6,56455343-5f36-42e6-9b69-6361645f7063,A*
G04 #@! TF.SameCoordinates,Original*
G04 #@! TF.FileFunction,Legend,Top*
G04 #@! TF.FilePolarity,Positive*
%FSLAX46Y46*%
G04 Gerber Fmt 4.6, Leading zero omitted, Abs format (unit mm)*
G04 Created by KiCad (PCBNEW (5.1.5-0)) date 2020-04-02 08:13:29*
%MOMM*%
%LPD*%
G04 APERTURE LIST*
%ADD10C,0.100000*%
%ADD11C,0.203200*%
%ADD12C,0.406400*%
%ADD13C,0.101600*%
%ADD14C,0.200000*%
%ADD15C,0.381000*%
%ADD16C,0.400000*%
%ADD17C,0.150000*%
%ADD18C,0.120000*%
%ADD19C,0.127000*%
%ADD20C,0.152400*%
%ADD21R,3.810000X3.048000*%
%ADD22R,2.000000X6.200000*%
%ADD23R,1.699260X1.099820*%
%ADD24R,0.850900X1.099820*%
%ADD25R,1.300480X0.701040*%
%ADD26R,1.099820X1.699260*%
%ADD27R,1.099820X0.850900*%
%ADD28R,0.701040X1.300480*%
%ADD29C,0.900000*%
%ADD30R,0.800000X0.750000*%
%ADD31O,0.200000X0.550000*%
%ADD32O,0.550000X0.200000*%
%ADD33R,2.500000X1.800000*%
%ADD34O,1.100000X2.200000*%
%ADD35O,1.100000X1.800000*%
%ADD36R,0.750000X0.800000*%
%ADD37R,1.501140X0.299720*%
%ADD38R,3.599180X7.000240*%
%ADD39R,0.304800X1.193800*%
%ADD40R,1.193800X0.304800*%
%ADD41R,0.350000X0.650000*%
%ADD42R,1.200000X0.775000*%
%ADD43R,1.950000X1.500000*%
%ADD44R,1.000000X2.500000*%
%ADD45R,2.500000X1.000000*%
%ADD46R,0.500000X0.900000*%
%ADD47R,0.900000X0.500000*%
%ADD48C,1.600000*%
%ADD49O,1.699260X1.198880*%
%ADD50R,1.699260X1.198880*%
%ADD51C,3.000000*%
%ADD52O,1.198880X1.699260*%
%ADD53R,1.198880X1.699260*%
%ADD54R,6.000000X5.000000*%
%ADD55C,0.254000*%
G04 APERTURE END LIST*
D10*
X167032000Y-81800000D02*
X167667000Y-81800000D01*
X147901000Y-81800000D02*
X148536000Y-81800000D01*
D11*
X170842000Y-85217000D02*
X170842000Y-86233000D01*
X170334000Y-85725000D02*
X171350000Y-85725000D01*
X144726000Y-85217000D02*
X144726000Y-86233000D01*
X144218000Y-85725000D02*
X145234000Y-85725000D01*
D10*
X165825500Y-82600000D02*
X165825500Y-84455000D01*
X170842000Y-82600000D02*
X170842000Y-84455000D01*
X149742500Y-82600000D02*
X149742500Y-84455000D01*
X144726000Y-82600000D02*
X144726000Y-84455000D01*
D12*
X151638000Y-81661000D02*
X151638000Y-83185000D01*
X150876000Y-82423000D02*
X152400000Y-82423000D01*
D13*
X138584000Y-58039000D02*
X140997000Y-58039000D01*
X139473000Y-58039000D02*
X139473000Y-57531000D01*
X140235000Y-58039000D02*
X140235000Y-57531000D01*
X138711000Y-58039000D02*
X138711000Y-57531000D01*
X137949000Y-58039000D02*
X138711000Y-58039000D01*
X138711000Y-58039000D02*
X137949000Y-58039000D01*
X140997000Y-58039000D02*
X140997000Y-57531000D01*
X140718809Y-56744809D02*
X141226809Y-56575476D01*
X140718809Y-56406142D01*
X141033285Y-56236809D02*
X141033285Y-55849761D01*
X141226809Y-56043285D02*
X140839761Y-56043285D01*
X139956809Y-57180238D02*
X139956809Y-56889952D01*
X140464809Y-57035095D02*
X139956809Y-57035095D01*
X140198714Y-56720619D02*
X140198714Y-56551285D01*
X140464809Y-56478714D02*
X140464809Y-56720619D01*
X139956809Y-56720619D01*
X139956809Y-56478714D01*
X140464809Y-56261000D02*
X139956809Y-56261000D01*
X140319666Y-56091666D01*
X139956809Y-55922333D01*
X140464809Y-55922333D01*
X140464809Y-55680428D02*
X139956809Y-55680428D01*
X139956809Y-55486904D01*
X139981000Y-55438523D01*
X140005190Y-55414333D01*
X140053571Y-55390142D01*
X140126142Y-55390142D01*
X140174523Y-55414333D01*
X140198714Y-55438523D01*
X140222904Y-55486904D01*
X140222904Y-55680428D01*
X139702809Y-56648047D02*
X139194809Y-56648047D01*
X139436714Y-56648047D02*
X139436714Y-56357761D01*
X139702809Y-56357761D02*
X139194809Y-56357761D01*
X139702809Y-55849761D02*
X139702809Y-56140047D01*
X139702809Y-55994904D02*
X139194809Y-55994904D01*
X139267380Y-56043285D01*
X139315761Y-56091666D01*
X139339952Y-56140047D01*
X138940809Y-56648047D02*
X138432809Y-56648047D01*
X138674714Y-56648047D02*
X138674714Y-56357761D01*
X138940809Y-56357761D02*
X138432809Y-56357761D01*
X138481190Y-56140047D02*
X138457000Y-56115857D01*
X138432809Y-56067476D01*
X138432809Y-55946523D01*
X138457000Y-55898142D01*
X138481190Y-55873952D01*
X138529571Y-55849761D01*
X138577952Y-55849761D01*
X138650523Y-55873952D01*
X138940809Y-56164238D01*
X138940809Y-55849761D01*
X129161809Y-56394047D02*
X128653809Y-56394047D01*
X128895714Y-56394047D02*
X128895714Y-56103761D01*
X129161809Y-56103761D02*
X128653809Y-56103761D01*
X128653809Y-55910238D02*
X128653809Y-55595761D01*
X128847333Y-55765095D01*
X128847333Y-55692523D01*
X128871523Y-55644142D01*
X128895714Y-55619952D01*
X128944095Y-55595761D01*
X129065047Y-55595761D01*
X129113428Y-55619952D01*
X129137619Y-55644142D01*
X129161809Y-55692523D01*
X129161809Y-55837666D01*
X129137619Y-55886047D01*
X129113428Y-55910238D01*
X126646000Y-56394047D02*
X126621809Y-56442428D01*
X126621809Y-56515000D01*
X126646000Y-56587571D01*
X126694380Y-56635952D01*
X126742761Y-56660142D01*
X126839523Y-56684333D01*
X126912095Y-56684333D01*
X127008857Y-56660142D01*
X127057238Y-56635952D01*
X127105619Y-56587571D01*
X127129809Y-56515000D01*
X127129809Y-56466619D01*
X127105619Y-56394047D01*
X127081428Y-56369857D01*
X126912095Y-56369857D01*
X126912095Y-56466619D01*
X127129809Y-56152142D02*
X126621809Y-56152142D01*
X127129809Y-55861857D01*
X126621809Y-55861857D01*
X127129809Y-55619952D02*
X126621809Y-55619952D01*
X126621809Y-55499000D01*
X126646000Y-55426428D01*
X126694380Y-55378047D01*
X126742761Y-55353857D01*
X126839523Y-55329666D01*
X126912095Y-55329666D01*
X127008857Y-55353857D01*
X127057238Y-55378047D01*
X127105619Y-55426428D01*
X127129809Y-55499000D01*
X127129809Y-55619952D01*
X115424857Y-85549619D02*
X115497428Y-85573809D01*
X115618380Y-85573809D01*
X115666761Y-85549619D01*
X115690952Y-85525428D01*
X115715142Y-85477047D01*
X115715142Y-85428666D01*
X115690952Y-85380285D01*
X115666761Y-85356095D01*
X115618380Y-85331904D01*
X115521619Y-85307714D01*
X115473238Y-85283523D01*
X115449047Y-85259333D01*
X115424857Y-85210952D01*
X115424857Y-85162571D01*
X115449047Y-85114190D01*
X115473238Y-85090000D01*
X115521619Y-85065809D01*
X115642571Y-85065809D01*
X115715142Y-85090000D01*
X116223142Y-85525428D02*
X116198952Y-85549619D01*
X116126380Y-85573809D01*
X116078000Y-85573809D01*
X116005428Y-85549619D01*
X115957047Y-85501238D01*
X115932857Y-85452857D01*
X115908666Y-85356095D01*
X115908666Y-85283523D01*
X115932857Y-85186761D01*
X115957047Y-85138380D01*
X116005428Y-85090000D01*
X116078000Y-85065809D01*
X116126380Y-85065809D01*
X116198952Y-85090000D01*
X116223142Y-85114190D01*
X116440857Y-85573809D02*
X116440857Y-85065809D01*
X116731142Y-85573809D02*
X116513428Y-85283523D01*
X116731142Y-85065809D02*
X116440857Y-85356095D01*
X115461142Y-83898619D02*
X115533714Y-83922809D01*
X115654666Y-83922809D01*
X115703047Y-83898619D01*
X115727238Y-83874428D01*
X115751428Y-83826047D01*
X115751428Y-83777666D01*
X115727238Y-83729285D01*
X115703047Y-83705095D01*
X115654666Y-83680904D01*
X115557904Y-83656714D01*
X115509523Y-83632523D01*
X115485333Y-83608333D01*
X115461142Y-83559952D01*
X115461142Y-83511571D01*
X115485333Y-83463190D01*
X115509523Y-83439000D01*
X115557904Y-83414809D01*
X115678857Y-83414809D01*
X115751428Y-83439000D01*
X115969142Y-83922809D02*
X115969142Y-83414809D01*
X116090095Y-83414809D01*
X116162666Y-83439000D01*
X116211047Y-83487380D01*
X116235238Y-83535761D01*
X116259428Y-83632523D01*
X116259428Y-83705095D01*
X116235238Y-83801857D01*
X116211047Y-83850238D01*
X116162666Y-83898619D01*
X116090095Y-83922809D01*
X115969142Y-83922809D01*
X116452952Y-83777666D02*
X116694857Y-83777666D01*
X116404571Y-83922809D02*
X116573904Y-83414809D01*
X116743238Y-83922809D01*
X115449047Y-82652809D02*
X115449047Y-82144809D01*
X115739333Y-82652809D01*
X115739333Y-82144809D01*
X115957047Y-82628619D02*
X116029619Y-82652809D01*
X116150571Y-82652809D01*
X116198952Y-82628619D01*
X116223142Y-82604428D01*
X116247333Y-82556047D01*
X116247333Y-82507666D01*
X116223142Y-82459285D01*
X116198952Y-82435095D01*
X116150571Y-82410904D01*
X116053809Y-82386714D01*
X116005428Y-82362523D01*
X115981238Y-82338333D01*
X115957047Y-82289952D01*
X115957047Y-82241571D01*
X115981238Y-82193190D01*
X116005428Y-82169000D01*
X116053809Y-82144809D01*
X116174761Y-82144809D01*
X116247333Y-82169000D01*
X116440857Y-82628619D02*
X116513428Y-82652809D01*
X116634380Y-82652809D01*
X116682761Y-82628619D01*
X116706952Y-82604428D01*
X116731142Y-82556047D01*
X116731142Y-82507666D01*
X116706952Y-82459285D01*
X116682761Y-82435095D01*
X116634380Y-82410904D01*
X116537619Y-82386714D01*
X116489238Y-82362523D01*
X116465047Y-82338333D01*
X116440857Y-82289952D01*
X116440857Y-82241571D01*
X116465047Y-82193190D01*
X116489238Y-82169000D01*
X116537619Y-82144809D01*
X116658571Y-82144809D01*
X116731142Y-82169000D01*
X115600238Y-81866619D02*
X115672809Y-81890809D01*
X115793761Y-81890809D01*
X115842142Y-81866619D01*
X115866333Y-81842428D01*
X115890523Y-81794047D01*
X115890523Y-81745666D01*
X115866333Y-81697285D01*
X115842142Y-81673095D01*
X115793761Y-81648904D01*
X115697000Y-81624714D01*
X115648619Y-81600523D01*
X115624428Y-81576333D01*
X115600238Y-81527952D01*
X115600238Y-81479571D01*
X115624428Y-81431190D01*
X115648619Y-81407000D01*
X115697000Y-81382809D01*
X115817952Y-81382809D01*
X115890523Y-81407000D01*
X116398523Y-81842428D02*
X116374333Y-81866619D01*
X116301761Y-81890809D01*
X116253380Y-81890809D01*
X116180809Y-81866619D01*
X116132428Y-81818238D01*
X116108238Y-81769857D01*
X116084047Y-81673095D01*
X116084047Y-81600523D01*
X116108238Y-81503761D01*
X116132428Y-81455380D01*
X116180809Y-81407000D01*
X116253380Y-81382809D01*
X116301761Y-81382809D01*
X116374333Y-81407000D01*
X116398523Y-81431190D01*
X116858142Y-81890809D02*
X116616238Y-81890809D01*
X116616238Y-81382809D01*
X115993333Y-81255809D02*
X115824000Y-81013904D01*
X115703047Y-81255809D02*
X115703047Y-80747809D01*
X115896571Y-80747809D01*
X115944952Y-80772000D01*
X115969142Y-80796190D01*
X115993333Y-80844571D01*
X115993333Y-80917142D01*
X115969142Y-80965523D01*
X115944952Y-80989714D01*
X115896571Y-81013904D01*
X115703047Y-81013904D01*
X116162666Y-80747809D02*
X116501333Y-81255809D01*
X116501333Y-80747809D02*
X116162666Y-81255809D01*
X115461142Y-79332666D02*
X115703047Y-79332666D01*
X115412761Y-79477809D02*
X115582095Y-78969809D01*
X115751428Y-79477809D01*
X115920761Y-79477809D02*
X115920761Y-78969809D01*
X116041714Y-78969809D01*
X116114285Y-78994000D01*
X116162666Y-79042380D01*
X116186857Y-79090761D01*
X116211047Y-79187523D01*
X116211047Y-79260095D01*
X116186857Y-79356857D01*
X116162666Y-79405238D01*
X116114285Y-79453619D01*
X116041714Y-79477809D01*
X115920761Y-79477809D01*
X116404571Y-79018190D02*
X116428761Y-78994000D01*
X116477142Y-78969809D01*
X116598095Y-78969809D01*
X116646476Y-78994000D01*
X116670666Y-79018190D01*
X116694857Y-79066571D01*
X116694857Y-79114952D01*
X116670666Y-79187523D01*
X116380380Y-79477809D01*
X116694857Y-79477809D01*
D14*
X140993500Y-84474500D02*
X153493500Y-84474500D01*
X153493500Y-114474500D02*
X140993500Y-114474500D01*
X140993500Y-114474500D02*
X140993500Y-84474500D01*
X153493500Y-84474500D02*
X153493500Y-114474500D01*
D13*
X127864809Y-111766047D02*
X128276047Y-111766047D01*
X128324428Y-111741857D01*
X128348619Y-111717666D01*
X128372809Y-111669285D01*
X128372809Y-111572523D01*
X128348619Y-111524142D01*
X128324428Y-111499952D01*
X128276047Y-111475761D01*
X127864809Y-111475761D01*
X128348619Y-111258047D02*
X128372809Y-111185476D01*
X128372809Y-111064523D01*
X128348619Y-111016142D01*
X128324428Y-110991952D01*
X128276047Y-110967761D01*
X128227666Y-110967761D01*
X128179285Y-110991952D01*
X128155095Y-111016142D01*
X128130904Y-111064523D01*
X128106714Y-111161285D01*
X128082523Y-111209666D01*
X128058333Y-111233857D01*
X128009952Y-111258047D01*
X127961571Y-111258047D01*
X127913190Y-111233857D01*
X127889000Y-111209666D01*
X127864809Y-111161285D01*
X127864809Y-111040333D01*
X127889000Y-110967761D01*
X128106714Y-110580714D02*
X128130904Y-110508142D01*
X128155095Y-110483952D01*
X128203476Y-110459761D01*
X128276047Y-110459761D01*
X128324428Y-110483952D01*
X128348619Y-110508142D01*
X128372809Y-110556523D01*
X128372809Y-110750047D01*
X127864809Y-110750047D01*
X127864809Y-110580714D01*
X127889000Y-110532333D01*
X127913190Y-110508142D01*
X127961571Y-110483952D01*
X128009952Y-110483952D01*
X128058333Y-110508142D01*
X128082523Y-110532333D01*
X128106714Y-110580714D01*
X128106714Y-110750047D01*
X123063000Y-111131047D02*
X123038809Y-111179428D01*
X123038809Y-111252000D01*
X123063000Y-111324571D01*
X123111380Y-111372952D01*
X123159761Y-111397142D01*
X123256523Y-111421333D01*
X123329095Y-111421333D01*
X123425857Y-111397142D01*
X123474238Y-111372952D01*
X123522619Y-111324571D01*
X123546809Y-111252000D01*
X123546809Y-111203619D01*
X123522619Y-111131047D01*
X123498428Y-111106857D01*
X123329095Y-111106857D01*
X123329095Y-111203619D01*
X123546809Y-110889142D02*
X123038809Y-110889142D01*
X123546809Y-110598857D01*
X123038809Y-110598857D01*
X123546809Y-110356952D02*
X123038809Y-110356952D01*
X123038809Y-110236000D01*
X123063000Y-110163428D01*
X123111380Y-110115047D01*
X123159761Y-110090857D01*
X123256523Y-110066666D01*
X123329095Y-110066666D01*
X123425857Y-110090857D01*
X123474238Y-110115047D01*
X123522619Y-110163428D01*
X123546809Y-110236000D01*
X123546809Y-110356952D01*
X121466428Y-111276190D02*
X121490619Y-111300380D01*
X121514809Y-111372952D01*
X121514809Y-111421333D01*
X121490619Y-111493904D01*
X121442238Y-111542285D01*
X121393857Y-111566476D01*
X121297095Y-111590666D01*
X121224523Y-111590666D01*
X121127761Y-111566476D01*
X121079380Y-111542285D01*
X121031000Y-111493904D01*
X121006809Y-111421333D01*
X121006809Y-111372952D01*
X121031000Y-111300380D01*
X121055190Y-111276190D01*
X121369666Y-111082666D02*
X121369666Y-110840761D01*
X121514809Y-111131047D02*
X121006809Y-110961714D01*
X121514809Y-110792380D01*
X121514809Y-110623047D02*
X121006809Y-110623047D01*
X121514809Y-110332761D01*
X121006809Y-110332761D01*
X121514809Y-109848952D02*
X121514809Y-110090857D01*
X121006809Y-110090857D01*
X119434428Y-111336666D02*
X119458619Y-111360857D01*
X119482809Y-111433428D01*
X119482809Y-111481809D01*
X119458619Y-111554380D01*
X119410238Y-111602761D01*
X119361857Y-111626952D01*
X119265095Y-111651142D01*
X119192523Y-111651142D01*
X119095761Y-111626952D01*
X119047380Y-111602761D01*
X118999000Y-111554380D01*
X118974809Y-111481809D01*
X118974809Y-111433428D01*
X118999000Y-111360857D01*
X119023190Y-111336666D01*
X119337666Y-111143142D02*
X119337666Y-110901238D01*
X119482809Y-111191523D02*
X118974809Y-111022190D01*
X119482809Y-110852857D01*
X119482809Y-110683523D02*
X118974809Y-110683523D01*
X119482809Y-110393238D01*
X118974809Y-110393238D01*
X119482809Y-110151333D02*
X118974809Y-110151333D01*
X119216714Y-110151333D02*
X119216714Y-109861047D01*
X119482809Y-109861047D02*
X118974809Y-109861047D01*
X116942809Y-110840761D02*
X116942809Y-111082666D01*
X117184714Y-111106857D01*
X117160523Y-111082666D01*
X117136333Y-111034285D01*
X117136333Y-110913333D01*
X117160523Y-110864952D01*
X117184714Y-110840761D01*
X117233095Y-110816571D01*
X117354047Y-110816571D01*
X117402428Y-110840761D01*
X117426619Y-110864952D01*
X117450809Y-110913333D01*
X117450809Y-111034285D01*
X117426619Y-111082666D01*
X117402428Y-111106857D01*
X116942809Y-110671428D02*
X117450809Y-110502095D01*
X116942809Y-110332761D01*
X115690952Y-104013000D02*
X115642571Y-103988809D01*
X115570000Y-103988809D01*
X115497428Y-104013000D01*
X115449047Y-104061380D01*
X115424857Y-104109761D01*
X115400666Y-104206523D01*
X115400666Y-104279095D01*
X115424857Y-104375857D01*
X115449047Y-104424238D01*
X115497428Y-104472619D01*
X115570000Y-104496809D01*
X115618380Y-104496809D01*
X115690952Y-104472619D01*
X115715142Y-104448428D01*
X115715142Y-104279095D01*
X115618380Y-104279095D01*
X115932857Y-104496809D02*
X115932857Y-103988809D01*
X116223142Y-104496809D01*
X116223142Y-103988809D01*
X116465047Y-104496809D02*
X116465047Y-103988809D01*
X116586000Y-103988809D01*
X116658571Y-104013000D01*
X116706952Y-104061380D01*
X116731142Y-104109761D01*
X116755333Y-104206523D01*
X116755333Y-104279095D01*
X116731142Y-104375857D01*
X116706952Y-104424238D01*
X116658571Y-104472619D01*
X116586000Y-104496809D01*
X116465047Y-104496809D01*
X115461142Y-100408619D02*
X115533714Y-100432809D01*
X115654666Y-100432809D01*
X115703047Y-100408619D01*
X115727238Y-100384428D01*
X115751428Y-100336047D01*
X115751428Y-100287666D01*
X115727238Y-100239285D01*
X115703047Y-100215095D01*
X115654666Y-100190904D01*
X115557904Y-100166714D01*
X115509523Y-100142523D01*
X115485333Y-100118333D01*
X115461142Y-100069952D01*
X115461142Y-100021571D01*
X115485333Y-99973190D01*
X115509523Y-99949000D01*
X115557904Y-99924809D01*
X115678857Y-99924809D01*
X115751428Y-99949000D01*
X116259428Y-100432809D02*
X116090095Y-100190904D01*
X115969142Y-100432809D02*
X115969142Y-99924809D01*
X116162666Y-99924809D01*
X116211047Y-99949000D01*
X116235238Y-99973190D01*
X116259428Y-100021571D01*
X116259428Y-100094142D01*
X116235238Y-100142523D01*
X116211047Y-100166714D01*
X116162666Y-100190904D01*
X115969142Y-100190904D01*
X116404571Y-99924809D02*
X116573904Y-100432809D01*
X116743238Y-99924809D01*
X115981238Y-101956809D02*
X115739333Y-101956809D01*
X115715142Y-102198714D01*
X115739333Y-102174523D01*
X115787714Y-102150333D01*
X115908666Y-102150333D01*
X115957047Y-102174523D01*
X115981238Y-102198714D01*
X116005428Y-102247095D01*
X116005428Y-102368047D01*
X115981238Y-102416428D01*
X115957047Y-102440619D01*
X115908666Y-102464809D01*
X115787714Y-102464809D01*
X115739333Y-102440619D01*
X115715142Y-102416428D01*
X116150571Y-101956809D02*
X116319904Y-102464809D01*
X116489238Y-101956809D01*
X115981238Y-90780809D02*
X115739333Y-90780809D01*
X115715142Y-91022714D01*
X115739333Y-90998523D01*
X115787714Y-90974333D01*
X115908666Y-90974333D01*
X115957047Y-90998523D01*
X115981238Y-91022714D01*
X116005428Y-91071095D01*
X116005428Y-91192047D01*
X115981238Y-91240428D01*
X115957047Y-91264619D01*
X115908666Y-91288809D01*
X115787714Y-91288809D01*
X115739333Y-91264619D01*
X115715142Y-91240428D01*
X116150571Y-90780809D02*
X116319904Y-91288809D01*
X116489238Y-90780809D01*
X115328095Y-88748809D02*
X115642571Y-88748809D01*
X115473238Y-88942333D01*
X115545809Y-88942333D01*
X115594190Y-88966523D01*
X115618380Y-88990714D01*
X115642571Y-89039095D01*
X115642571Y-89160047D01*
X115618380Y-89208428D01*
X115594190Y-89232619D01*
X115545809Y-89256809D01*
X115400666Y-89256809D01*
X115352285Y-89232619D01*
X115328095Y-89208428D01*
X115860285Y-89208428D02*
X115884476Y-89232619D01*
X115860285Y-89256809D01*
X115836095Y-89232619D01*
X115860285Y-89208428D01*
X115860285Y-89256809D01*
X116053809Y-88748809D02*
X116368285Y-88748809D01*
X116198952Y-88942333D01*
X116271523Y-88942333D01*
X116319904Y-88966523D01*
X116344095Y-88990714D01*
X116368285Y-89039095D01*
X116368285Y-89160047D01*
X116344095Y-89208428D01*
X116319904Y-89232619D01*
X116271523Y-89256809D01*
X116126380Y-89256809D01*
X116078000Y-89232619D01*
X116053809Y-89208428D01*
X116513428Y-88748809D02*
X116682761Y-89256809D01*
X116852095Y-88748809D01*
X115690952Y-86741000D02*
X115642571Y-86716809D01*
X115570000Y-86716809D01*
X115497428Y-86741000D01*
X115449047Y-86789380D01*
X115424857Y-86837761D01*
X115400666Y-86934523D01*
X115400666Y-87007095D01*
X115424857Y-87103857D01*
X115449047Y-87152238D01*
X115497428Y-87200619D01*
X115570000Y-87224809D01*
X115618380Y-87224809D01*
X115690952Y-87200619D01*
X115715142Y-87176428D01*
X115715142Y-87007095D01*
X115618380Y-87007095D01*
X115932857Y-87224809D02*
X115932857Y-86716809D01*
X116223142Y-87224809D01*
X116223142Y-86716809D01*
X116465047Y-87224809D02*
X116465047Y-86716809D01*
X116586000Y-86716809D01*
X116658571Y-86741000D01*
X116706952Y-86789380D01*
X116731142Y-86837761D01*
X116755333Y-86934523D01*
X116755333Y-87007095D01*
X116731142Y-87103857D01*
X116706952Y-87152238D01*
X116658571Y-87200619D01*
X116586000Y-87224809D01*
X116465047Y-87224809D01*
X115449047Y-84793666D02*
X115690952Y-84793666D01*
X115400666Y-84938809D02*
X115570000Y-84430809D01*
X115739333Y-84938809D01*
X115908666Y-84938809D02*
X115908666Y-84430809D01*
X116029619Y-84430809D01*
X116102190Y-84455000D01*
X116150571Y-84503380D01*
X116174761Y-84551761D01*
X116198952Y-84648523D01*
X116198952Y-84721095D01*
X116174761Y-84817857D01*
X116150571Y-84866238D01*
X116102190Y-84914619D01*
X116029619Y-84938809D01*
X115908666Y-84938809D01*
X116706952Y-84890428D02*
X116682761Y-84914619D01*
X116610190Y-84938809D01*
X116561809Y-84938809D01*
X116489238Y-84914619D01*
X116440857Y-84866238D01*
X116416666Y-84817857D01*
X116392476Y-84721095D01*
X116392476Y-84648523D01*
X116416666Y-84551761D01*
X116440857Y-84503380D01*
X116489238Y-84455000D01*
X116561809Y-84430809D01*
X116610190Y-84430809D01*
X116682761Y-84455000D01*
X116706952Y-84479190D01*
X115690952Y-82779809D02*
X115981238Y-82779809D01*
X115836095Y-83287809D02*
X115836095Y-82779809D01*
X116102190Y-82779809D02*
X116440857Y-83287809D01*
X116440857Y-82779809D02*
X116102190Y-83287809D01*
X115406714Y-80620809D02*
X115406714Y-80112809D01*
X115576047Y-80475666D01*
X115745380Y-80112809D01*
X115745380Y-80620809D01*
X116084047Y-80112809D02*
X116180809Y-80112809D01*
X116229190Y-80137000D01*
X116277571Y-80185380D01*
X116301761Y-80282142D01*
X116301761Y-80451476D01*
X116277571Y-80548238D01*
X116229190Y-80596619D01*
X116180809Y-80620809D01*
X116084047Y-80620809D01*
X116035666Y-80596619D01*
X115987285Y-80548238D01*
X115963095Y-80451476D01*
X115963095Y-80282142D01*
X115987285Y-80185380D01*
X116035666Y-80137000D01*
X116084047Y-80112809D01*
X116495285Y-80596619D02*
X116567857Y-80620809D01*
X116688809Y-80620809D01*
X116737190Y-80596619D01*
X116761380Y-80572428D01*
X116785571Y-80524047D01*
X116785571Y-80475666D01*
X116761380Y-80427285D01*
X116737190Y-80403095D01*
X116688809Y-80378904D01*
X116592047Y-80354714D01*
X116543666Y-80330523D01*
X116519476Y-80306333D01*
X116495285Y-80257952D01*
X116495285Y-80209571D01*
X116519476Y-80161190D01*
X116543666Y-80137000D01*
X116592047Y-80112809D01*
X116713000Y-80112809D01*
X116785571Y-80137000D01*
X117003285Y-80620809D02*
X117003285Y-80112809D01*
X115406714Y-78842809D02*
X115406714Y-78334809D01*
X115576047Y-78697666D01*
X115745380Y-78334809D01*
X115745380Y-78842809D01*
X115987285Y-78842809D02*
X115987285Y-78334809D01*
X116205000Y-78818619D02*
X116277571Y-78842809D01*
X116398523Y-78842809D01*
X116446904Y-78818619D01*
X116471095Y-78794428D01*
X116495285Y-78746047D01*
X116495285Y-78697666D01*
X116471095Y-78649285D01*
X116446904Y-78625095D01*
X116398523Y-78600904D01*
X116301761Y-78576714D01*
X116253380Y-78552523D01*
X116229190Y-78528333D01*
X116205000Y-78479952D01*
X116205000Y-78431571D01*
X116229190Y-78383190D01*
X116253380Y-78359000D01*
X116301761Y-78334809D01*
X116422714Y-78334809D01*
X116495285Y-78359000D01*
X116809761Y-78334809D02*
X116906523Y-78334809D01*
X116954904Y-78359000D01*
X117003285Y-78407380D01*
X117027476Y-78504142D01*
X117027476Y-78673476D01*
X117003285Y-78770238D01*
X116954904Y-78818619D01*
X116906523Y-78842809D01*
X116809761Y-78842809D01*
X116761380Y-78818619D01*
X116713000Y-78770238D01*
X116688809Y-78673476D01*
X116688809Y-78504142D01*
X116713000Y-78407380D01*
X116761380Y-78359000D01*
X116809761Y-78334809D01*
X115461142Y-77046666D02*
X115703047Y-77046666D01*
X115412761Y-77191809D02*
X115582095Y-76683809D01*
X115751428Y-77191809D01*
X115920761Y-77191809D02*
X115920761Y-76683809D01*
X116041714Y-76683809D01*
X116114285Y-76708000D01*
X116162666Y-76756380D01*
X116186857Y-76804761D01*
X116211047Y-76901523D01*
X116211047Y-76974095D01*
X116186857Y-77070857D01*
X116162666Y-77119238D01*
X116114285Y-77167619D01*
X116041714Y-77191809D01*
X115920761Y-77191809D01*
X116380380Y-76683809D02*
X116694857Y-76683809D01*
X116525523Y-76877333D01*
X116598095Y-76877333D01*
X116646476Y-76901523D01*
X116670666Y-76925714D01*
X116694857Y-76974095D01*
X116694857Y-77095047D01*
X116670666Y-77143428D01*
X116646476Y-77167619D01*
X116598095Y-77191809D01*
X116452952Y-77191809D01*
X116404571Y-77167619D01*
X116380380Y-77143428D01*
X115799809Y-72873809D02*
X115630476Y-72631904D01*
X115509523Y-72873809D02*
X115509523Y-72365809D01*
X115703047Y-72365809D01*
X115751428Y-72390000D01*
X115775619Y-72414190D01*
X115799809Y-72462571D01*
X115799809Y-72535142D01*
X115775619Y-72583523D01*
X115751428Y-72607714D01*
X115703047Y-72631904D01*
X115509523Y-72631904D01*
X115993333Y-72849619D02*
X116065904Y-72873809D01*
X116186857Y-72873809D01*
X116235238Y-72849619D01*
X116259428Y-72825428D01*
X116283619Y-72777047D01*
X116283619Y-72728666D01*
X116259428Y-72680285D01*
X116235238Y-72656095D01*
X116186857Y-72631904D01*
X116090095Y-72607714D01*
X116041714Y-72583523D01*
X116017523Y-72559333D01*
X115993333Y-72510952D01*
X115993333Y-72462571D01*
X116017523Y-72414190D01*
X116041714Y-72390000D01*
X116090095Y-72365809D01*
X116211047Y-72365809D01*
X116283619Y-72390000D01*
X116428761Y-72365809D02*
X116719047Y-72365809D01*
X116573904Y-72873809D02*
X116573904Y-72365809D01*
X115938904Y-70841809D02*
X115938904Y-70333809D01*
X116277571Y-70333809D02*
X116374333Y-70333809D01*
X116422714Y-70358000D01*
X116471095Y-70406380D01*
X116495285Y-70503142D01*
X116495285Y-70672476D01*
X116471095Y-70769238D01*
X116422714Y-70817619D01*
X116374333Y-70841809D01*
X116277571Y-70841809D01*
X116229190Y-70817619D01*
X116180809Y-70769238D01*
X116156619Y-70672476D01*
X116156619Y-70503142D01*
X116180809Y-70406380D01*
X116229190Y-70358000D01*
X116277571Y-70333809D01*
X115817952Y-68326000D02*
X115769571Y-68301809D01*
X115697000Y-68301809D01*
X115624428Y-68326000D01*
X115576047Y-68374380D01*
X115551857Y-68422761D01*
X115527666Y-68519523D01*
X115527666Y-68592095D01*
X115551857Y-68688857D01*
X115576047Y-68737238D01*
X115624428Y-68785619D01*
X115697000Y-68809809D01*
X115745380Y-68809809D01*
X115817952Y-68785619D01*
X115842142Y-68761428D01*
X115842142Y-68592095D01*
X115745380Y-68592095D01*
X116059857Y-68809809D02*
X116059857Y-68301809D01*
X116350142Y-68809809D01*
X116350142Y-68301809D01*
X116592047Y-68809809D02*
X116592047Y-68301809D01*
X116713000Y-68301809D01*
X116785571Y-68326000D01*
X116833952Y-68374380D01*
X116858142Y-68422761D01*
X116882333Y-68519523D01*
X116882333Y-68592095D01*
X116858142Y-68688857D01*
X116833952Y-68737238D01*
X116785571Y-68785619D01*
X116713000Y-68809809D01*
X116592047Y-68809809D01*
X115902619Y-66729428D02*
X115878428Y-66753619D01*
X115805857Y-66777809D01*
X115757476Y-66777809D01*
X115684904Y-66753619D01*
X115636523Y-66705238D01*
X115612333Y-66656857D01*
X115588142Y-66560095D01*
X115588142Y-66487523D01*
X115612333Y-66390761D01*
X115636523Y-66342380D01*
X115684904Y-66294000D01*
X115757476Y-66269809D01*
X115805857Y-66269809D01*
X115878428Y-66294000D01*
X115902619Y-66318190D01*
X116362238Y-66777809D02*
X116120333Y-66777809D01*
X116120333Y-66269809D01*
X116531571Y-66777809D02*
X116531571Y-66269809D01*
X116821857Y-66777809D02*
X116604142Y-66487523D01*
X116821857Y-66269809D02*
X116531571Y-66560095D01*
X115527666Y-64237809D02*
X115697000Y-64745809D01*
X115866333Y-64237809D01*
X116325952Y-64697428D02*
X116301761Y-64721619D01*
X116229190Y-64745809D01*
X116180809Y-64745809D01*
X116108238Y-64721619D01*
X116059857Y-64673238D01*
X116035666Y-64624857D01*
X116011476Y-64528095D01*
X116011476Y-64455523D01*
X116035666Y-64358761D01*
X116059857Y-64310380D01*
X116108238Y-64262000D01*
X116180809Y-64237809D01*
X116229190Y-64237809D01*
X116301761Y-64262000D01*
X116325952Y-64286190D01*
X116833952Y-64697428D02*
X116809761Y-64721619D01*
X116737190Y-64745809D01*
X116688809Y-64745809D01*
X116616238Y-64721619D01*
X116567857Y-64673238D01*
X116543666Y-64624857D01*
X116519476Y-64528095D01*
X116519476Y-64455523D01*
X116543666Y-64358761D01*
X116567857Y-64310380D01*
X116616238Y-64262000D01*
X116688809Y-64237809D01*
X116737190Y-64237809D01*
X116809761Y-64262000D01*
X116833952Y-64286190D01*
D14*
X174585500Y-84474500D02*
X174585500Y-114474500D01*
X174585500Y-114474500D02*
X162085500Y-114474500D01*
X162085500Y-114474500D02*
X162085500Y-84474500D01*
X162085500Y-84474500D02*
X174585500Y-84474500D01*
D15*
X133604000Y-104267000D02*
X128524000Y-104267000D01*
X133604000Y-100203000D02*
X133604000Y-104267000D01*
X128524000Y-100203000D02*
X133604000Y-100203000D01*
X128524000Y-104267000D02*
X128524000Y-100203000D01*
X133604000Y-108331000D02*
X128524000Y-108331000D01*
X133604000Y-104267000D02*
X133604000Y-108331000D01*
X128524000Y-104267000D02*
X133604000Y-104267000D01*
X128524000Y-108331000D02*
X128524000Y-104267000D01*
X138684000Y-108331000D02*
X133604000Y-108331000D01*
X138684000Y-104267000D02*
X138684000Y-108331000D01*
X133604000Y-104267000D02*
X138684000Y-104267000D01*
X133604000Y-108331000D02*
X133604000Y-104267000D01*
D10*
G36*
X132372000Y-65838000D02*
G01*
X130772000Y-65838000D01*
X130772000Y-59638000D01*
X132372000Y-59638000D01*
X132372000Y-65838000D01*
G37*
D16*
X128172000Y-59238000D02*
X128172000Y-66238000D01*
X134972000Y-66238000D02*
X134972000Y-59238000D01*
X128172000Y-59238000D02*
X129072000Y-59238000D01*
X134972000Y-59238000D02*
X134072000Y-59238000D01*
X128172000Y-66238000D02*
X129072000Y-66238000D01*
X134972000Y-66238000D02*
X134072000Y-66238000D01*
D17*
X161284920Y-68955920D02*
X154183080Y-68955920D01*
X161284920Y-61854080D02*
X161284920Y-68955920D01*
X154183080Y-61854080D02*
X161284920Y-61854080D01*
X154183080Y-68955920D02*
X154183080Y-61854080D01*
X154170080Y-80004920D02*
X154170080Y-72903080D01*
X161271920Y-80004920D02*
X154170080Y-80004920D01*
X161271920Y-72903080D02*
X161271920Y-80004920D01*
X154170080Y-72903080D02*
X161271920Y-72903080D01*
X173943920Y-68955920D02*
X166842080Y-68955920D01*
X173943920Y-61854080D02*
X173943920Y-68955920D01*
X166842080Y-61854080D02*
X173943920Y-61854080D01*
X166842080Y-68955920D02*
X166842080Y-61854080D01*
X165232080Y-80004920D02*
X165232080Y-72903080D01*
X172333920Y-80004920D02*
X165232080Y-80004920D01*
X172333920Y-72903080D02*
X172333920Y-80004920D01*
X165232080Y-72903080D02*
X172333920Y-72903080D01*
X148637920Y-68955920D02*
X141536080Y-68955920D01*
X148637920Y-61854080D02*
X148637920Y-68955920D01*
X141536080Y-61854080D02*
X148637920Y-61854080D01*
X141536080Y-68955920D02*
X141536080Y-61854080D01*
X143134080Y-80004920D02*
X143134080Y-72903080D01*
X150235920Y-80004920D02*
X143134080Y-80004920D01*
X150235920Y-72903080D02*
X150235920Y-80004920D01*
X143134080Y-72903080D02*
X150235920Y-72903080D01*
X124046500Y-97146000D02*
X124746500Y-97146000D01*
X124746500Y-98346000D02*
X124046500Y-98346000D01*
X124409000Y-82880000D02*
X124009000Y-82880000D01*
X124409000Y-82880000D02*
X124409000Y-82480000D01*
X124409000Y-79680000D02*
X124009000Y-79680000D01*
X124409000Y-79680000D02*
X124409000Y-80080000D01*
X121209000Y-79680000D02*
X121609000Y-79680000D01*
X121209000Y-79680000D02*
X121209000Y-80080000D01*
X121209000Y-82880000D02*
X121209000Y-82480000D01*
D18*
X127733000Y-64007000D02*
X127733000Y-60707000D01*
X127733000Y-60707000D02*
X122333000Y-60707000D01*
X127733000Y-64007000D02*
X122333000Y-64007000D01*
D17*
X119415000Y-80995000D02*
X119415000Y-80295000D01*
X120615000Y-80295000D02*
X120615000Y-80995000D01*
D19*
X129461260Y-66771520D02*
X129461260Y-81770220D01*
X135460740Y-81770220D02*
X135460740Y-66771520D01*
X135460740Y-81770220D02*
X129461260Y-81770220D01*
X129461260Y-66771520D02*
X135460740Y-66771520D01*
X130510478Y-67287140D02*
G75*
G03X130510478Y-67287140I-406598J0D01*
G01*
D20*
X126695200Y-87325200D02*
X126695200Y-88480736D01*
X126695200Y-97586800D02*
X127850736Y-97586800D01*
X136956800Y-97586800D02*
X136956800Y-96431264D01*
X136956800Y-87325200D02*
X135801264Y-87325200D01*
X127850736Y-87325200D02*
X126695200Y-87325200D01*
X126695200Y-96431264D02*
X126695200Y-97586800D01*
X135801264Y-97586800D02*
X136956800Y-97586800D01*
X136956800Y-88480736D02*
X136956800Y-87325200D01*
X136017000Y-87249000D02*
X136017000Y-86093464D01*
D18*
X115174111Y-60673437D02*
X117507563Y-63006889D01*
X117507563Y-63006889D02*
X121325940Y-59188513D01*
X115174111Y-60673437D02*
X118992487Y-56855060D01*
D17*
X121600000Y-100114500D02*
X121600000Y-102564500D01*
X124850000Y-99389500D02*
X124850000Y-102564500D01*
D18*
X135526000Y-59148000D02*
X135526000Y-61248000D01*
X135526000Y-61248000D02*
X139776000Y-61248000D01*
X135526000Y-59148000D02*
X139776000Y-59148000D01*
D17*
X131334000Y-85041000D02*
X133334000Y-85041000D01*
X133334000Y-82091000D02*
X131334000Y-82091000D01*
X137717000Y-65675000D02*
X137717000Y-67675000D01*
X140667000Y-67675000D02*
X140667000Y-65675000D01*
X126195200Y-100036000D02*
X127195200Y-100036000D01*
X127195200Y-101386000D02*
X126195200Y-101386000D01*
X126195200Y-101433000D02*
X127195200Y-101433000D01*
X127195200Y-102783000D02*
X126195200Y-102783000D01*
X126195200Y-102957000D02*
X127195200Y-102957000D01*
X127195200Y-104307000D02*
X126195200Y-104307000D01*
X123788800Y-69477000D02*
X123788800Y-70477000D01*
X122438800Y-70477000D02*
X122438800Y-69477000D01*
X123788800Y-66886200D02*
X123788800Y-67886200D01*
X122438800Y-67886200D02*
X122438800Y-66886200D01*
X126001400Y-68924800D02*
X125001400Y-68924800D01*
X125001400Y-67574800D02*
X126001400Y-67574800D01*
X126001400Y-71871200D02*
X125001400Y-71871200D01*
X125001400Y-70521200D02*
X126001400Y-70521200D01*
X125976000Y-66029200D02*
X124976000Y-66029200D01*
X124976000Y-64679200D02*
X125976000Y-64679200D01*
X120769000Y-107355000D02*
X119769000Y-107355000D01*
X119769000Y-106005000D02*
X120769000Y-106005000D01*
X132469000Y-55459000D02*
X133469000Y-55459000D01*
X133469000Y-56809000D02*
X132469000Y-56809000D01*
X123198000Y-55713000D02*
X124198000Y-55713000D01*
X124198000Y-57063000D02*
X123198000Y-57063000D01*
X123198000Y-57364000D02*
X124198000Y-57364000D01*
X124198000Y-58714000D02*
X123198000Y-58714000D01*
X123198000Y-59015000D02*
X124198000Y-59015000D01*
X124198000Y-60365000D02*
X123198000Y-60365000D01*
X139660000Y-77589000D02*
X139660000Y-76589000D01*
X141010000Y-76589000D02*
X141010000Y-77589000D01*
X139660000Y-80383000D02*
X139660000Y-79383000D01*
X141010000Y-79383000D02*
X141010000Y-80383000D01*
X119415000Y-90393000D02*
X119415000Y-89693000D01*
X120615000Y-89693000D02*
X120615000Y-90393000D01*
X138141000Y-98710000D02*
X138141000Y-99410000D01*
X136941000Y-99410000D02*
X136941000Y-98710000D01*
X134143000Y-99349000D02*
X134843000Y-99349000D01*
X134843000Y-100549000D02*
X134143000Y-100549000D01*
X123669500Y-89377000D02*
X123669500Y-88677000D01*
X124869500Y-88677000D02*
X124869500Y-89377000D01*
X127543000Y-84805000D02*
X127543000Y-84105000D01*
X128743000Y-84105000D02*
X128743000Y-84805000D01*
X120151600Y-72486000D02*
X120151600Y-71786000D01*
X121351600Y-71786000D02*
X121351600Y-72486000D01*
X139792000Y-88054000D02*
X139792000Y-88754000D01*
X138592000Y-88754000D02*
X138592000Y-88054000D01*
X124225800Y-73701200D02*
X123525800Y-73701200D01*
X123525800Y-72501200D02*
X124225800Y-72501200D01*
X124225800Y-75149000D02*
X123525800Y-75149000D01*
X123525800Y-73949000D02*
X124225800Y-73949000D01*
X125851400Y-70323000D02*
X125151400Y-70323000D01*
X125151400Y-69123000D02*
X125851400Y-69123000D01*
X124749000Y-77947000D02*
X124749000Y-77247000D01*
X125949000Y-77247000D02*
X125949000Y-77947000D01*
X125126000Y-66202000D02*
X125826000Y-66202000D01*
X125826000Y-67402000D02*
X125126000Y-67402000D01*
X126965000Y-74580000D02*
X126965000Y-75280000D01*
X125765000Y-75280000D02*
X125765000Y-74580000D01*
X127473000Y-81057000D02*
X127473000Y-81757000D01*
X126273000Y-81757000D02*
X126273000Y-81057000D01*
X139923000Y-64354000D02*
X139223000Y-64354000D01*
X139223000Y-63154000D02*
X139923000Y-63154000D01*
X138903000Y-71405000D02*
X138903000Y-72105000D01*
X137703000Y-72105000D02*
X137703000Y-71405000D01*
X138903000Y-74199000D02*
X138903000Y-74899000D01*
X137703000Y-74899000D02*
X137703000Y-74199000D01*
X138903000Y-76993000D02*
X138903000Y-77693000D01*
X137703000Y-77693000D02*
X137703000Y-76993000D01*
X139923000Y-70450000D02*
X139223000Y-70450000D01*
X139223000Y-69250000D02*
X139923000Y-69250000D01*
X137699000Y-61630000D02*
X138399000Y-61630000D01*
X138399000Y-62830000D02*
X137699000Y-62830000D01*
X121250000Y-97948000D02*
X121250000Y-98648000D01*
X120050000Y-98648000D02*
X120050000Y-97948000D01*
X120050000Y-101696000D02*
X120050000Y-100996000D01*
X121250000Y-100996000D02*
X121250000Y-101696000D01*
X124111500Y-87468000D02*
X123411500Y-87468000D01*
X123411500Y-86268000D02*
X124111500Y-86268000D01*
X135336800Y-55483200D02*
X136036800Y-55483200D01*
X136036800Y-56683200D02*
X135336800Y-56683200D01*
X125003000Y-81757000D02*
X125003000Y-81057000D01*
X126203000Y-81057000D02*
X126203000Y-81757000D01*
X122713000Y-77886000D02*
X123413000Y-77886000D01*
X123413000Y-79086000D02*
X122713000Y-79086000D01*
X154434000Y-89600000D02*
X154434000Y-84000000D01*
X161034000Y-89600000D02*
X154434000Y-89600000D01*
X161034000Y-84000000D02*
X161034000Y-89600000D01*
X154434000Y-84000000D02*
X161034000Y-84000000D01*
X120690000Y-84209000D02*
X120690000Y-85209000D01*
X119340000Y-85209000D02*
X119340000Y-84209000D01*
X122087000Y-84209000D02*
X122087000Y-85209000D01*
X120737000Y-85209000D02*
X120737000Y-84209000D01*
D13*
X133972904Y-102464809D02*
X133972904Y-101956809D01*
X134311571Y-101956809D02*
X134408333Y-101956809D01*
X134456714Y-101981000D01*
X134505095Y-102029380D01*
X134529285Y-102126142D01*
X134529285Y-102295476D01*
X134505095Y-102392238D01*
X134456714Y-102440619D01*
X134408333Y-102464809D01*
X134311571Y-102464809D01*
X134263190Y-102440619D01*
X134214809Y-102392238D01*
X134190619Y-102295476D01*
X134190619Y-102126142D01*
X134214809Y-102029380D01*
X134263190Y-101981000D01*
X134311571Y-101956809D01*
X130761619Y-109147428D02*
X130737428Y-109171619D01*
X130664857Y-109195809D01*
X130616476Y-109195809D01*
X130543904Y-109171619D01*
X130495523Y-109123238D01*
X130471333Y-109074857D01*
X130447142Y-108978095D01*
X130447142Y-108905523D01*
X130471333Y-108808761D01*
X130495523Y-108760380D01*
X130543904Y-108712000D01*
X130616476Y-108687809D01*
X130664857Y-108687809D01*
X130737428Y-108712000D01*
X130761619Y-108736190D01*
X131221238Y-109195809D02*
X130979333Y-109195809D01*
X130979333Y-108687809D01*
X131390571Y-109195809D02*
X131390571Y-108687809D01*
X131680857Y-109195809D02*
X131463142Y-108905523D01*
X131680857Y-108687809D02*
X131390571Y-108978095D01*
X135756952Y-108712000D02*
X135708571Y-108687809D01*
X135636000Y-108687809D01*
X135563428Y-108712000D01*
X135515047Y-108760380D01*
X135490857Y-108808761D01*
X135466666Y-108905523D01*
X135466666Y-108978095D01*
X135490857Y-109074857D01*
X135515047Y-109123238D01*
X135563428Y-109171619D01*
X135636000Y-109195809D01*
X135684380Y-109195809D01*
X135756952Y-109171619D01*
X135781142Y-109147428D01*
X135781142Y-108978095D01*
X135684380Y-108978095D01*
X135998857Y-109195809D02*
X135998857Y-108687809D01*
X136289142Y-109195809D01*
X136289142Y-108687809D01*
X136531047Y-109195809D02*
X136531047Y-108687809D01*
X136652000Y-108687809D01*
X136724571Y-108712000D01*
X136772952Y-108760380D01*
X136797142Y-108808761D01*
X136821333Y-108905523D01*
X136821333Y-108978095D01*
X136797142Y-109074857D01*
X136772952Y-109123238D01*
X136724571Y-109171619D01*
X136652000Y-109195809D01*
X136531047Y-109195809D01*
X131491333Y-62967809D02*
X131249428Y-62967809D01*
X131249428Y-62459809D01*
X131636476Y-62508190D02*
X131660666Y-62484000D01*
X131709047Y-62459809D01*
X131830000Y-62459809D01*
X131878380Y-62484000D01*
X131902571Y-62508190D01*
X131926761Y-62556571D01*
X131926761Y-62604952D01*
X131902571Y-62677523D01*
X131612285Y-62967809D01*
X131926761Y-62967809D01*
X162150190Y-62214880D02*
X162126000Y-62263261D01*
X162077619Y-62311642D01*
X162005047Y-62384214D01*
X161980857Y-62432595D01*
X161980857Y-62480976D01*
X162101809Y-62456785D02*
X162077619Y-62505166D01*
X162029238Y-62553547D01*
X161932476Y-62577738D01*
X161763142Y-62577738D01*
X161666380Y-62553547D01*
X161618000Y-62505166D01*
X161593809Y-62456785D01*
X161593809Y-62360023D01*
X161618000Y-62311642D01*
X161666380Y-62263261D01*
X161763142Y-62239071D01*
X161932476Y-62239071D01*
X162029238Y-62263261D01*
X162077619Y-62311642D01*
X162101809Y-62360023D01*
X162101809Y-62456785D01*
X161763142Y-61803642D02*
X162101809Y-61803642D01*
X161569619Y-61924595D02*
X161932476Y-62045547D01*
X161932476Y-61731071D01*
X157685619Y-80923190D02*
X157637238Y-80899000D01*
X157588857Y-80850619D01*
X157516285Y-80778047D01*
X157467904Y-80753857D01*
X157419523Y-80753857D01*
X157443714Y-80874809D02*
X157395333Y-80850619D01*
X157346952Y-80802238D01*
X157322761Y-80705476D01*
X157322761Y-80536142D01*
X157346952Y-80439380D01*
X157395333Y-80391000D01*
X157443714Y-80366809D01*
X157540476Y-80366809D01*
X157588857Y-80391000D01*
X157637238Y-80439380D01*
X157661428Y-80536142D01*
X157661428Y-80705476D01*
X157637238Y-80802238D01*
X157588857Y-80850619D01*
X157540476Y-80874809D01*
X157443714Y-80874809D01*
X157830761Y-80366809D02*
X158145238Y-80366809D01*
X157975904Y-80560333D01*
X158048476Y-80560333D01*
X158096857Y-80584523D01*
X158121047Y-80608714D01*
X158145238Y-80657095D01*
X158145238Y-80778047D01*
X158121047Y-80826428D01*
X158096857Y-80850619D01*
X158048476Y-80874809D01*
X157903333Y-80874809D01*
X157854952Y-80850619D01*
X157830761Y-80826428D01*
X174776190Y-62151380D02*
X174752000Y-62199761D01*
X174703619Y-62248142D01*
X174631047Y-62320714D01*
X174606857Y-62369095D01*
X174606857Y-62417476D01*
X174727809Y-62393285D02*
X174703619Y-62441666D01*
X174655238Y-62490047D01*
X174558476Y-62514238D01*
X174389142Y-62514238D01*
X174292380Y-62490047D01*
X174244000Y-62441666D01*
X174219809Y-62393285D01*
X174219809Y-62296523D01*
X174244000Y-62248142D01*
X174292380Y-62199761D01*
X174389142Y-62175571D01*
X174558476Y-62175571D01*
X174655238Y-62199761D01*
X174703619Y-62248142D01*
X174727809Y-62296523D01*
X174727809Y-62393285D01*
X174219809Y-61740142D02*
X174219809Y-61836904D01*
X174244000Y-61885285D01*
X174268190Y-61909476D01*
X174340761Y-61957857D01*
X174437523Y-61982047D01*
X174631047Y-61982047D01*
X174679428Y-61957857D01*
X174703619Y-61933666D01*
X174727809Y-61885285D01*
X174727809Y-61788523D01*
X174703619Y-61740142D01*
X174679428Y-61715952D01*
X174631047Y-61691761D01*
X174510095Y-61691761D01*
X174461714Y-61715952D01*
X174437523Y-61740142D01*
X174413333Y-61788523D01*
X174413333Y-61885285D01*
X174437523Y-61933666D01*
X174461714Y-61957857D01*
X174510095Y-61982047D01*
X168783619Y-80923190D02*
X168735238Y-80899000D01*
X168686857Y-80850619D01*
X168614285Y-80778047D01*
X168565904Y-80753857D01*
X168517523Y-80753857D01*
X168541714Y-80874809D02*
X168493333Y-80850619D01*
X168444952Y-80802238D01*
X168420761Y-80705476D01*
X168420761Y-80536142D01*
X168444952Y-80439380D01*
X168493333Y-80391000D01*
X168541714Y-80366809D01*
X168638476Y-80366809D01*
X168686857Y-80391000D01*
X168735238Y-80439380D01*
X168759428Y-80536142D01*
X168759428Y-80705476D01*
X168735238Y-80802238D01*
X168686857Y-80850619D01*
X168638476Y-80874809D01*
X168541714Y-80874809D01*
X169219047Y-80366809D02*
X168977142Y-80366809D01*
X168952952Y-80608714D01*
X168977142Y-80584523D01*
X169025523Y-80560333D01*
X169146476Y-80560333D01*
X169194857Y-80584523D01*
X169219047Y-80608714D01*
X169243238Y-80657095D01*
X169243238Y-80778047D01*
X169219047Y-80826428D01*
X169194857Y-80850619D01*
X169146476Y-80874809D01*
X169025523Y-80874809D01*
X168977142Y-80850619D01*
X168952952Y-80826428D01*
X149503190Y-62214880D02*
X149479000Y-62263261D01*
X149430619Y-62311642D01*
X149358047Y-62384214D01*
X149333857Y-62432595D01*
X149333857Y-62480976D01*
X149454809Y-62456785D02*
X149430619Y-62505166D01*
X149382238Y-62553547D01*
X149285476Y-62577738D01*
X149116142Y-62577738D01*
X149019380Y-62553547D01*
X148971000Y-62505166D01*
X148946809Y-62456785D01*
X148946809Y-62360023D01*
X148971000Y-62311642D01*
X149019380Y-62263261D01*
X149116142Y-62239071D01*
X149285476Y-62239071D01*
X149382238Y-62263261D01*
X149430619Y-62311642D01*
X149454809Y-62360023D01*
X149454809Y-62456785D01*
X148995190Y-62045547D02*
X148971000Y-62021357D01*
X148946809Y-61972976D01*
X148946809Y-61852023D01*
X148971000Y-61803642D01*
X148995190Y-61779452D01*
X149043571Y-61755261D01*
X149091952Y-61755261D01*
X149164523Y-61779452D01*
X149454809Y-62069738D01*
X149454809Y-61755261D01*
X146714619Y-80923190D02*
X146666238Y-80899000D01*
X146617857Y-80850619D01*
X146545285Y-80778047D01*
X146496904Y-80753857D01*
X146448523Y-80753857D01*
X146472714Y-80874809D02*
X146424333Y-80850619D01*
X146375952Y-80802238D01*
X146351761Y-80705476D01*
X146351761Y-80536142D01*
X146375952Y-80439380D01*
X146424333Y-80391000D01*
X146472714Y-80366809D01*
X146569476Y-80366809D01*
X146617857Y-80391000D01*
X146666238Y-80439380D01*
X146690428Y-80536142D01*
X146690428Y-80705476D01*
X146666238Y-80802238D01*
X146617857Y-80850619D01*
X146569476Y-80874809D01*
X146472714Y-80874809D01*
X147174238Y-80874809D02*
X146883952Y-80874809D01*
X147029095Y-80874809D02*
X147029095Y-80366809D01*
X146980714Y-80439380D01*
X146932333Y-80487761D01*
X146883952Y-80511952D01*
X123625428Y-96784428D02*
X123601238Y-96808619D01*
X123528666Y-96832809D01*
X123480285Y-96832809D01*
X123407714Y-96808619D01*
X123359333Y-96760238D01*
X123335142Y-96711857D01*
X123310952Y-96615095D01*
X123310952Y-96542523D01*
X123335142Y-96445761D01*
X123359333Y-96397380D01*
X123407714Y-96349000D01*
X123480285Y-96324809D01*
X123528666Y-96324809D01*
X123601238Y-96349000D01*
X123625428Y-96373190D01*
X124109238Y-96832809D02*
X123818952Y-96832809D01*
X123964095Y-96832809D02*
X123964095Y-96324809D01*
X123915714Y-96397380D01*
X123867333Y-96445761D01*
X123818952Y-96469952D01*
X124593047Y-96832809D02*
X124302761Y-96832809D01*
X124447904Y-96832809D02*
X124447904Y-96324809D01*
X124399523Y-96397380D01*
X124351142Y-96445761D01*
X124302761Y-96469952D01*
X123564952Y-83414809D02*
X123564952Y-83826047D01*
X123589142Y-83874428D01*
X123613333Y-83898619D01*
X123661714Y-83922809D01*
X123758476Y-83922809D01*
X123806857Y-83898619D01*
X123831047Y-83874428D01*
X123855238Y-83826047D01*
X123855238Y-83414809D01*
X124121333Y-83922809D02*
X124218095Y-83922809D01*
X124266476Y-83898619D01*
X124290666Y-83874428D01*
X124339047Y-83801857D01*
X124363238Y-83705095D01*
X124363238Y-83511571D01*
X124339047Y-83463190D01*
X124314857Y-83439000D01*
X124266476Y-83414809D01*
X124169714Y-83414809D01*
X124121333Y-83439000D01*
X124097142Y-83463190D01*
X124072952Y-83511571D01*
X124072952Y-83632523D01*
X124097142Y-83680904D01*
X124121333Y-83705095D01*
X124169714Y-83729285D01*
X124266476Y-83729285D01*
X124314857Y-83705095D01*
X124339047Y-83680904D01*
X124363238Y-83632523D01*
X120910047Y-64745809D02*
X120910047Y-64237809D01*
X121031000Y-64237809D01*
X121103571Y-64262000D01*
X121151952Y-64310380D01*
X121176142Y-64358761D01*
X121200333Y-64455523D01*
X121200333Y-64528095D01*
X121176142Y-64624857D01*
X121151952Y-64673238D01*
X121103571Y-64721619D01*
X121031000Y-64745809D01*
X120910047Y-64745809D01*
X121635761Y-64407142D02*
X121635761Y-64745809D01*
X121514809Y-64213619D02*
X121393857Y-64576476D01*
X121708333Y-64576476D01*
X120196428Y-78812571D02*
X120220619Y-78836761D01*
X120244809Y-78909333D01*
X120244809Y-78957714D01*
X120220619Y-79030285D01*
X120172238Y-79078666D01*
X120123857Y-79102857D01*
X120027095Y-79127047D01*
X119954523Y-79127047D01*
X119857761Y-79102857D01*
X119809380Y-79078666D01*
X119761000Y-79030285D01*
X119736809Y-78957714D01*
X119736809Y-78909333D01*
X119761000Y-78836761D01*
X119785190Y-78812571D01*
X119736809Y-78352952D02*
X119736809Y-78594857D01*
X119978714Y-78619047D01*
X119954523Y-78594857D01*
X119930333Y-78546476D01*
X119930333Y-78425523D01*
X119954523Y-78377142D01*
X119978714Y-78352952D01*
X120027095Y-78328761D01*
X120148047Y-78328761D01*
X120196428Y-78352952D01*
X120220619Y-78377142D01*
X120244809Y-78425523D01*
X120244809Y-78546476D01*
X120220619Y-78594857D01*
X120196428Y-78619047D01*
X119736809Y-78014285D02*
X119736809Y-77965904D01*
X119761000Y-77917523D01*
X119785190Y-77893333D01*
X119833571Y-77869142D01*
X119930333Y-77844952D01*
X120051285Y-77844952D01*
X120148047Y-77869142D01*
X120196428Y-77893333D01*
X120220619Y-77917523D01*
X120244809Y-77965904D01*
X120244809Y-78014285D01*
X120220619Y-78062666D01*
X120196428Y-78086857D01*
X120148047Y-78111047D01*
X120051285Y-78135238D01*
X119930333Y-78135238D01*
X119833571Y-78111047D01*
X119785190Y-78086857D01*
X119761000Y-78062666D01*
X119736809Y-78014285D01*
X132073952Y-79223809D02*
X132073952Y-79635047D01*
X132098142Y-79683428D01*
X132122333Y-79707619D01*
X132170714Y-79731809D01*
X132267476Y-79731809D01*
X132315857Y-79707619D01*
X132340047Y-79683428D01*
X132364238Y-79635047D01*
X132364238Y-79223809D01*
X132557761Y-79223809D02*
X132872238Y-79223809D01*
X132702904Y-79417333D01*
X132775476Y-79417333D01*
X132823857Y-79441523D01*
X132848047Y-79465714D01*
X132872238Y-79514095D01*
X132872238Y-79635047D01*
X132848047Y-79683428D01*
X132823857Y-79707619D01*
X132775476Y-79731809D01*
X132630333Y-79731809D01*
X132581952Y-79707619D01*
X132557761Y-79683428D01*
X131547809Y-92843047D02*
X131959047Y-92843047D01*
X132007428Y-92818857D01*
X132031619Y-92794666D01*
X132055809Y-92746285D01*
X132055809Y-92649523D01*
X132031619Y-92601142D01*
X132007428Y-92576952D01*
X131959047Y-92552761D01*
X131547809Y-92552761D01*
X132055809Y-92044761D02*
X132055809Y-92335047D01*
X132055809Y-92189904D02*
X131547809Y-92189904D01*
X131620380Y-92238285D01*
X131668761Y-92286666D01*
X131692952Y-92335047D01*
X117118368Y-58339631D02*
X116759158Y-57980420D01*
X116844684Y-57894894D01*
X116913105Y-57860684D01*
X116981526Y-57860684D01*
X117032842Y-57877789D01*
X117118368Y-57929105D01*
X117169684Y-57980420D01*
X117221000Y-58065947D01*
X117238105Y-58117262D01*
X117238105Y-58185683D01*
X117203894Y-58254104D01*
X117118368Y-58339631D01*
X117289420Y-57450158D02*
X117118368Y-57621210D01*
X117272315Y-57809368D01*
X117272315Y-57775158D01*
X117289420Y-57723842D01*
X117374947Y-57638316D01*
X117426262Y-57621210D01*
X117460473Y-57621210D01*
X117511789Y-57638316D01*
X117597315Y-57723842D01*
X117614420Y-57775158D01*
X117614420Y-57809368D01*
X117597315Y-57860684D01*
X117511789Y-57946210D01*
X117460473Y-57963315D01*
X117426262Y-57963315D01*
X122802952Y-103353809D02*
X122802952Y-103765047D01*
X122827142Y-103813428D01*
X122851333Y-103837619D01*
X122899714Y-103861809D01*
X122996476Y-103861809D01*
X123044857Y-103837619D01*
X123069047Y-103813428D01*
X123093238Y-103765047D01*
X123093238Y-103353809D01*
X123552857Y-103523142D02*
X123552857Y-103861809D01*
X123431904Y-103329619D02*
X123310952Y-103692476D01*
X123625428Y-103692476D01*
X141532428Y-60524571D02*
X141556619Y-60548761D01*
X141580809Y-60621333D01*
X141580809Y-60669714D01*
X141556619Y-60742285D01*
X141508238Y-60790666D01*
X141459857Y-60814857D01*
X141363095Y-60839047D01*
X141290523Y-60839047D01*
X141193761Y-60814857D01*
X141145380Y-60790666D01*
X141097000Y-60742285D01*
X141072809Y-60669714D01*
X141072809Y-60621333D01*
X141097000Y-60548761D01*
X141121190Y-60524571D01*
X141072809Y-60355238D02*
X141072809Y-60040761D01*
X141266333Y-60210095D01*
X141266333Y-60137523D01*
X141290523Y-60089142D01*
X141314714Y-60064952D01*
X141363095Y-60040761D01*
X141484047Y-60040761D01*
X141532428Y-60064952D01*
X141556619Y-60089142D01*
X141580809Y-60137523D01*
X141580809Y-60282666D01*
X141556619Y-60331047D01*
X141532428Y-60355238D01*
X141121190Y-59847238D02*
X141097000Y-59823047D01*
X141072809Y-59774666D01*
X141072809Y-59653714D01*
X141097000Y-59605333D01*
X141121190Y-59581142D01*
X141169571Y-59556952D01*
X141217952Y-59556952D01*
X141290523Y-59581142D01*
X141580809Y-59871428D01*
X141580809Y-59556952D01*
X132007428Y-85779428D02*
X131983238Y-85803619D01*
X131910666Y-85827809D01*
X131862285Y-85827809D01*
X131789714Y-85803619D01*
X131741333Y-85755238D01*
X131717142Y-85706857D01*
X131692952Y-85610095D01*
X131692952Y-85537523D01*
X131717142Y-85440761D01*
X131741333Y-85392380D01*
X131789714Y-85344000D01*
X131862285Y-85319809D01*
X131910666Y-85319809D01*
X131983238Y-85344000D01*
X132007428Y-85368190D01*
X132200952Y-85368190D02*
X132225142Y-85344000D01*
X132273523Y-85319809D01*
X132394476Y-85319809D01*
X132442857Y-85344000D01*
X132467047Y-85368190D01*
X132491238Y-85416571D01*
X132491238Y-85464952D01*
X132467047Y-85537523D01*
X132176761Y-85827809D01*
X132491238Y-85827809D01*
X132926666Y-85319809D02*
X132829904Y-85319809D01*
X132781523Y-85344000D01*
X132757333Y-85368190D01*
X132708952Y-85440761D01*
X132684761Y-85537523D01*
X132684761Y-85731047D01*
X132708952Y-85779428D01*
X132733142Y-85803619D01*
X132781523Y-85827809D01*
X132878285Y-85827809D01*
X132926666Y-85803619D01*
X132950857Y-85779428D01*
X132975047Y-85731047D01*
X132975047Y-85610095D01*
X132950857Y-85561714D01*
X132926666Y-85537523D01*
X132878285Y-85513333D01*
X132781523Y-85513333D01*
X132733142Y-85537523D01*
X132708952Y-85561714D01*
X132684761Y-85610095D01*
X139373428Y-67001571D02*
X139397619Y-67025761D01*
X139421809Y-67098333D01*
X139421809Y-67146714D01*
X139397619Y-67219285D01*
X139349238Y-67267666D01*
X139300857Y-67291857D01*
X139204095Y-67316047D01*
X139131523Y-67316047D01*
X139034761Y-67291857D01*
X138986380Y-67267666D01*
X138938000Y-67219285D01*
X138913809Y-67146714D01*
X138913809Y-67098333D01*
X138938000Y-67025761D01*
X138962190Y-67001571D01*
X138962190Y-66808047D02*
X138938000Y-66783857D01*
X138913809Y-66735476D01*
X138913809Y-66614523D01*
X138938000Y-66566142D01*
X138962190Y-66541952D01*
X139010571Y-66517761D01*
X139058952Y-66517761D01*
X139131523Y-66541952D01*
X139421809Y-66832238D01*
X139421809Y-66517761D01*
X138913809Y-66348428D02*
X138913809Y-66009761D01*
X139421809Y-66227476D01*
X125528009Y-100795666D02*
X125286104Y-100965000D01*
X125528009Y-101085952D02*
X125020009Y-101085952D01*
X125020009Y-100892428D01*
X125044200Y-100844047D01*
X125068390Y-100819857D01*
X125116771Y-100795666D01*
X125189342Y-100795666D01*
X125237723Y-100819857D01*
X125261914Y-100844047D01*
X125286104Y-100892428D01*
X125286104Y-101085952D01*
X125020009Y-100626333D02*
X125020009Y-100287666D01*
X125528009Y-100505380D01*
X125528009Y-102192666D02*
X125286104Y-102362000D01*
X125528009Y-102482952D02*
X125020009Y-102482952D01*
X125020009Y-102289428D01*
X125044200Y-102241047D01*
X125068390Y-102216857D01*
X125116771Y-102192666D01*
X125189342Y-102192666D01*
X125237723Y-102216857D01*
X125261914Y-102241047D01*
X125286104Y-102289428D01*
X125286104Y-102482952D01*
X125237723Y-101902380D02*
X125213533Y-101950761D01*
X125189342Y-101974952D01*
X125140961Y-101999142D01*
X125116771Y-101999142D01*
X125068390Y-101974952D01*
X125044200Y-101950761D01*
X125020009Y-101902380D01*
X125020009Y-101805619D01*
X125044200Y-101757238D01*
X125068390Y-101733047D01*
X125116771Y-101708857D01*
X125140961Y-101708857D01*
X125189342Y-101733047D01*
X125213533Y-101757238D01*
X125237723Y-101805619D01*
X125237723Y-101902380D01*
X125261914Y-101950761D01*
X125286104Y-101974952D01*
X125334485Y-101999142D01*
X125431247Y-101999142D01*
X125479628Y-101974952D01*
X125503819Y-101950761D01*
X125528009Y-101902380D01*
X125528009Y-101805619D01*
X125503819Y-101757238D01*
X125479628Y-101733047D01*
X125431247Y-101708857D01*
X125334485Y-101708857D01*
X125286104Y-101733047D01*
X125261914Y-101757238D01*
X125237723Y-101805619D01*
X125528009Y-103716666D02*
X125286104Y-103886000D01*
X125528009Y-104006952D02*
X125020009Y-104006952D01*
X125020009Y-103813428D01*
X125044200Y-103765047D01*
X125068390Y-103740857D01*
X125116771Y-103716666D01*
X125189342Y-103716666D01*
X125237723Y-103740857D01*
X125261914Y-103765047D01*
X125286104Y-103813428D01*
X125286104Y-104006952D01*
X125528009Y-103474761D02*
X125528009Y-103378000D01*
X125503819Y-103329619D01*
X125479628Y-103305428D01*
X125407057Y-103257047D01*
X125310295Y-103232857D01*
X125116771Y-103232857D01*
X125068390Y-103257047D01*
X125044200Y-103281238D01*
X125020009Y-103329619D01*
X125020009Y-103426380D01*
X125044200Y-103474761D01*
X125068390Y-103498952D01*
X125116771Y-103523142D01*
X125237723Y-103523142D01*
X125286104Y-103498952D01*
X125310295Y-103474761D01*
X125334485Y-103426380D01*
X125334485Y-103329619D01*
X125310295Y-103281238D01*
X125286104Y-103257047D01*
X125237723Y-103232857D01*
X122149809Y-70303571D02*
X121907904Y-70472904D01*
X122149809Y-70593857D02*
X121641809Y-70593857D01*
X121641809Y-70400333D01*
X121666000Y-70351952D01*
X121690190Y-70327761D01*
X121738571Y-70303571D01*
X121811142Y-70303571D01*
X121859523Y-70327761D01*
X121883714Y-70351952D01*
X121907904Y-70400333D01*
X121907904Y-70593857D01*
X122149809Y-69819761D02*
X122149809Y-70110047D01*
X122149809Y-69964904D02*
X121641809Y-69964904D01*
X121714380Y-70013285D01*
X121762761Y-70061666D01*
X121786952Y-70110047D01*
X121641809Y-69505285D02*
X121641809Y-69456904D01*
X121666000Y-69408523D01*
X121690190Y-69384333D01*
X121738571Y-69360142D01*
X121835333Y-69335952D01*
X121956285Y-69335952D01*
X122053047Y-69360142D01*
X122101428Y-69384333D01*
X122125619Y-69408523D01*
X122149809Y-69456904D01*
X122149809Y-69505285D01*
X122125619Y-69553666D01*
X122101428Y-69577857D01*
X122053047Y-69602047D01*
X121956285Y-69626238D01*
X121835333Y-69626238D01*
X121738571Y-69602047D01*
X121690190Y-69577857D01*
X121666000Y-69553666D01*
X121641809Y-69505285D01*
X122149809Y-66595171D02*
X121907904Y-66764504D01*
X122149809Y-66885457D02*
X121641809Y-66885457D01*
X121641809Y-66691933D01*
X121666000Y-66643552D01*
X121690190Y-66619361D01*
X121738571Y-66595171D01*
X121811142Y-66595171D01*
X121859523Y-66619361D01*
X121883714Y-66643552D01*
X121907904Y-66691933D01*
X121907904Y-66885457D01*
X122149809Y-66111361D02*
X122149809Y-66401647D01*
X122149809Y-66256504D02*
X121641809Y-66256504D01*
X121714380Y-66304885D01*
X121762761Y-66353266D01*
X121786952Y-66401647D01*
X122149809Y-65627552D02*
X122149809Y-65917838D01*
X122149809Y-65772695D02*
X121641809Y-65772695D01*
X121714380Y-65821076D01*
X121762761Y-65869457D01*
X121786952Y-65917838D01*
X119942428Y-68530409D02*
X119773095Y-68288504D01*
X119652142Y-68530409D02*
X119652142Y-68022409D01*
X119845666Y-68022409D01*
X119894047Y-68046600D01*
X119918238Y-68070790D01*
X119942428Y-68119171D01*
X119942428Y-68191742D01*
X119918238Y-68240123D01*
X119894047Y-68264314D01*
X119845666Y-68288504D01*
X119652142Y-68288504D01*
X120426238Y-68530409D02*
X120135952Y-68530409D01*
X120281095Y-68530409D02*
X120281095Y-68022409D01*
X120232714Y-68094980D01*
X120184333Y-68143361D01*
X120135952Y-68167552D01*
X120619761Y-68070790D02*
X120643952Y-68046600D01*
X120692333Y-68022409D01*
X120813285Y-68022409D01*
X120861666Y-68046600D01*
X120885857Y-68070790D01*
X120910047Y-68119171D01*
X120910047Y-68167552D01*
X120885857Y-68240123D01*
X120595571Y-68530409D01*
X120910047Y-68530409D01*
X119231228Y-71476809D02*
X119061895Y-71234904D01*
X118940942Y-71476809D02*
X118940942Y-70968809D01*
X119134466Y-70968809D01*
X119182847Y-70993000D01*
X119207038Y-71017190D01*
X119231228Y-71065571D01*
X119231228Y-71138142D01*
X119207038Y-71186523D01*
X119182847Y-71210714D01*
X119134466Y-71234904D01*
X118940942Y-71234904D01*
X119715038Y-71476809D02*
X119424752Y-71476809D01*
X119569895Y-71476809D02*
X119569895Y-70968809D01*
X119521514Y-71041380D01*
X119473133Y-71089761D01*
X119424752Y-71113952D01*
X119884371Y-70968809D02*
X120198847Y-70968809D01*
X120029514Y-71162333D01*
X120102085Y-71162333D01*
X120150466Y-71186523D01*
X120174657Y-71210714D01*
X120198847Y-71259095D01*
X120198847Y-71380047D01*
X120174657Y-71428428D01*
X120150466Y-71452619D01*
X120102085Y-71476809D01*
X119956942Y-71476809D01*
X119908561Y-71452619D01*
X119884371Y-71428428D01*
X123193628Y-65634809D02*
X123024295Y-65392904D01*
X122903342Y-65634809D02*
X122903342Y-65126809D01*
X123096866Y-65126809D01*
X123145247Y-65151000D01*
X123169438Y-65175190D01*
X123193628Y-65223571D01*
X123193628Y-65296142D01*
X123169438Y-65344523D01*
X123145247Y-65368714D01*
X123096866Y-65392904D01*
X122903342Y-65392904D01*
X123677438Y-65634809D02*
X123387152Y-65634809D01*
X123532295Y-65634809D02*
X123532295Y-65126809D01*
X123483914Y-65199380D01*
X123435533Y-65247761D01*
X123387152Y-65271952D01*
X124112866Y-65296142D02*
X124112866Y-65634809D01*
X123991914Y-65102619D02*
X123870961Y-65465476D01*
X124185438Y-65465476D01*
X117910428Y-106893809D02*
X117741095Y-106651904D01*
X117620142Y-106893809D02*
X117620142Y-106385809D01*
X117813666Y-106385809D01*
X117862047Y-106410000D01*
X117886238Y-106434190D01*
X117910428Y-106482571D01*
X117910428Y-106555142D01*
X117886238Y-106603523D01*
X117862047Y-106627714D01*
X117813666Y-106651904D01*
X117620142Y-106651904D01*
X118103952Y-106434190D02*
X118128142Y-106410000D01*
X118176523Y-106385809D01*
X118297476Y-106385809D01*
X118345857Y-106410000D01*
X118370047Y-106434190D01*
X118394238Y-106482571D01*
X118394238Y-106530952D01*
X118370047Y-106603523D01*
X118079761Y-106893809D01*
X118394238Y-106893809D01*
X118563571Y-106385809D02*
X118878047Y-106385809D01*
X118708714Y-106579333D01*
X118781285Y-106579333D01*
X118829666Y-106603523D01*
X118853857Y-106627714D01*
X118878047Y-106676095D01*
X118878047Y-106797047D01*
X118853857Y-106845428D01*
X118829666Y-106869619D01*
X118781285Y-106893809D01*
X118636142Y-106893809D01*
X118587761Y-106869619D01*
X118563571Y-106845428D01*
X130686628Y-56414609D02*
X130517295Y-56172704D01*
X130396342Y-56414609D02*
X130396342Y-55906609D01*
X130589866Y-55906609D01*
X130638247Y-55930800D01*
X130662438Y-55954990D01*
X130686628Y-56003371D01*
X130686628Y-56075942D01*
X130662438Y-56124323D01*
X130638247Y-56148514D01*
X130589866Y-56172704D01*
X130396342Y-56172704D01*
X130855961Y-55906609D02*
X131170438Y-55906609D01*
X131001104Y-56100133D01*
X131073676Y-56100133D01*
X131122057Y-56124323D01*
X131146247Y-56148514D01*
X131170438Y-56196895D01*
X131170438Y-56317847D01*
X131146247Y-56366228D01*
X131122057Y-56390419D01*
X131073676Y-56414609D01*
X130928533Y-56414609D01*
X130880152Y-56390419D01*
X130855961Y-56366228D01*
X131412342Y-56414609D02*
X131509104Y-56414609D01*
X131557485Y-56390419D01*
X131581676Y-56366228D01*
X131630057Y-56293657D01*
X131654247Y-56196895D01*
X131654247Y-56003371D01*
X131630057Y-55954990D01*
X131605866Y-55930800D01*
X131557485Y-55906609D01*
X131460723Y-55906609D01*
X131412342Y-55930800D01*
X131388152Y-55954990D01*
X131363961Y-56003371D01*
X131363961Y-56124323D01*
X131388152Y-56172704D01*
X131412342Y-56196895D01*
X131460723Y-56221085D01*
X131557485Y-56221085D01*
X131605866Y-56196895D01*
X131630057Y-56172704D01*
X131654247Y-56124323D01*
X122399509Y-56796871D02*
X122157604Y-56966204D01*
X122399509Y-57087157D02*
X121891509Y-57087157D01*
X121891509Y-56893633D01*
X121915700Y-56845252D01*
X121939890Y-56821061D01*
X121988271Y-56796871D01*
X122060842Y-56796871D01*
X122109223Y-56821061D01*
X122133414Y-56845252D01*
X122157604Y-56893633D01*
X122157604Y-57087157D01*
X122060842Y-56361442D02*
X122399509Y-56361442D01*
X121867319Y-56482395D02*
X122230176Y-56603347D01*
X122230176Y-56288871D01*
X121939890Y-56119538D02*
X121915700Y-56095347D01*
X121891509Y-56046966D01*
X121891509Y-55926014D01*
X121915700Y-55877633D01*
X121939890Y-55853442D01*
X121988271Y-55829252D01*
X122036652Y-55829252D01*
X122109223Y-55853442D01*
X122399509Y-56143728D01*
X122399509Y-55829252D01*
X122399509Y-58320871D02*
X122157604Y-58490204D01*
X122399509Y-58611157D02*
X121891509Y-58611157D01*
X121891509Y-58417633D01*
X121915700Y-58369252D01*
X121939890Y-58345061D01*
X121988271Y-58320871D01*
X122060842Y-58320871D01*
X122109223Y-58345061D01*
X122133414Y-58369252D01*
X122157604Y-58417633D01*
X122157604Y-58611157D01*
X122060842Y-57885442D02*
X122399509Y-57885442D01*
X121867319Y-58006395D02*
X122230176Y-58127347D01*
X122230176Y-57812871D01*
X121891509Y-57667728D02*
X121891509Y-57353252D01*
X122085033Y-57522585D01*
X122085033Y-57450014D01*
X122109223Y-57401633D01*
X122133414Y-57377442D01*
X122181795Y-57353252D01*
X122302747Y-57353252D01*
X122351128Y-57377442D01*
X122375319Y-57401633D01*
X122399509Y-57450014D01*
X122399509Y-57595157D01*
X122375319Y-57643538D01*
X122351128Y-57667728D01*
X125451809Y-60016571D02*
X125209904Y-60185904D01*
X125451809Y-60306857D02*
X124943809Y-60306857D01*
X124943809Y-60113333D01*
X124968000Y-60064952D01*
X124992190Y-60040761D01*
X125040571Y-60016571D01*
X125113142Y-60016571D01*
X125161523Y-60040761D01*
X125185714Y-60064952D01*
X125209904Y-60113333D01*
X125209904Y-60306857D01*
X125113142Y-59581142D02*
X125451809Y-59581142D01*
X124919619Y-59702095D02*
X125282476Y-59823047D01*
X125282476Y-59508571D01*
X125113142Y-59097333D02*
X125451809Y-59097333D01*
X124919619Y-59218285D02*
X125282476Y-59339238D01*
X125282476Y-59024761D01*
X140945809Y-75510571D02*
X140703904Y-75679904D01*
X140945809Y-75800857D02*
X140437809Y-75800857D01*
X140437809Y-75607333D01*
X140462000Y-75558952D01*
X140486190Y-75534761D01*
X140534571Y-75510571D01*
X140607142Y-75510571D01*
X140655523Y-75534761D01*
X140679714Y-75558952D01*
X140703904Y-75607333D01*
X140703904Y-75800857D01*
X140486190Y-75317047D02*
X140462000Y-75292857D01*
X140437809Y-75244476D01*
X140437809Y-75123523D01*
X140462000Y-75075142D01*
X140486190Y-75050952D01*
X140534571Y-75026761D01*
X140582952Y-75026761D01*
X140655523Y-75050952D01*
X140945809Y-75341238D01*
X140945809Y-75026761D01*
X140437809Y-74857428D02*
X140437809Y-74518761D01*
X140945809Y-74736476D01*
X140564809Y-82114571D02*
X140322904Y-82283904D01*
X140564809Y-82404857D02*
X140056809Y-82404857D01*
X140056809Y-82211333D01*
X140081000Y-82162952D01*
X140105190Y-82138761D01*
X140153571Y-82114571D01*
X140226142Y-82114571D01*
X140274523Y-82138761D01*
X140298714Y-82162952D01*
X140322904Y-82211333D01*
X140322904Y-82404857D01*
X140105190Y-81921047D02*
X140081000Y-81896857D01*
X140056809Y-81848476D01*
X140056809Y-81727523D01*
X140081000Y-81679142D01*
X140105190Y-81654952D01*
X140153571Y-81630761D01*
X140201952Y-81630761D01*
X140274523Y-81654952D01*
X140564809Y-81945238D01*
X140564809Y-81630761D01*
X140274523Y-81340476D02*
X140250333Y-81388857D01*
X140226142Y-81413047D01*
X140177761Y-81437238D01*
X140153571Y-81437238D01*
X140105190Y-81413047D01*
X140081000Y-81388857D01*
X140056809Y-81340476D01*
X140056809Y-81243714D01*
X140081000Y-81195333D01*
X140105190Y-81171142D01*
X140153571Y-81146952D01*
X140177761Y-81146952D01*
X140226142Y-81171142D01*
X140250333Y-81195333D01*
X140274523Y-81243714D01*
X140274523Y-81340476D01*
X140298714Y-81388857D01*
X140322904Y-81413047D01*
X140371285Y-81437238D01*
X140468047Y-81437238D01*
X140516428Y-81413047D01*
X140540619Y-81388857D01*
X140564809Y-81340476D01*
X140564809Y-81243714D01*
X140540619Y-81195333D01*
X140516428Y-81171142D01*
X140468047Y-81146952D01*
X140371285Y-81146952D01*
X140322904Y-81171142D01*
X140298714Y-81195333D01*
X140274523Y-81243714D01*
X120196428Y-91905666D02*
X120220619Y-91929857D01*
X120244809Y-92002428D01*
X120244809Y-92050809D01*
X120220619Y-92123380D01*
X120172238Y-92171761D01*
X120123857Y-92195952D01*
X120027095Y-92220142D01*
X119954523Y-92220142D01*
X119857761Y-92195952D01*
X119809380Y-92171761D01*
X119761000Y-92123380D01*
X119736809Y-92050809D01*
X119736809Y-92002428D01*
X119761000Y-91929857D01*
X119785190Y-91905666D01*
X120244809Y-91663761D02*
X120244809Y-91567000D01*
X120220619Y-91518619D01*
X120196428Y-91494428D01*
X120123857Y-91446047D01*
X120027095Y-91421857D01*
X119833571Y-91421857D01*
X119785190Y-91446047D01*
X119761000Y-91470238D01*
X119736809Y-91518619D01*
X119736809Y-91615380D01*
X119761000Y-91663761D01*
X119785190Y-91687952D01*
X119833571Y-91712142D01*
X119954523Y-91712142D01*
X120002904Y-91687952D01*
X120027095Y-91663761D01*
X120051285Y-91615380D01*
X120051285Y-91518619D01*
X120027095Y-91470238D01*
X120002904Y-91446047D01*
X119954523Y-91421857D01*
X139055928Y-98370571D02*
X139080119Y-98394761D01*
X139104309Y-98467333D01*
X139104309Y-98515714D01*
X139080119Y-98588285D01*
X139031738Y-98636666D01*
X138983357Y-98660857D01*
X138886595Y-98685047D01*
X138814023Y-98685047D01*
X138717261Y-98660857D01*
X138668880Y-98636666D01*
X138620500Y-98588285D01*
X138596309Y-98515714D01*
X138596309Y-98467333D01*
X138620500Y-98394761D01*
X138644690Y-98370571D01*
X139104309Y-97886761D02*
X139104309Y-98177047D01*
X139104309Y-98031904D02*
X138596309Y-98031904D01*
X138668880Y-98080285D01*
X138717261Y-98128666D01*
X138741452Y-98177047D01*
X138596309Y-97572285D02*
X138596309Y-97523904D01*
X138620500Y-97475523D01*
X138644690Y-97451333D01*
X138693071Y-97427142D01*
X138789833Y-97402952D01*
X138910785Y-97402952D01*
X139007547Y-97427142D01*
X139055928Y-97451333D01*
X139080119Y-97475523D01*
X139104309Y-97523904D01*
X139104309Y-97572285D01*
X139080119Y-97620666D01*
X139055928Y-97644857D01*
X139007547Y-97669047D01*
X138910785Y-97693238D01*
X138789833Y-97693238D01*
X138693071Y-97669047D01*
X138644690Y-97644857D01*
X138620500Y-97620666D01*
X138596309Y-97572285D01*
X136186333Y-100130428D02*
X136162142Y-100154619D01*
X136089571Y-100178809D01*
X136041190Y-100178809D01*
X135968619Y-100154619D01*
X135920238Y-100106238D01*
X135896047Y-100057857D01*
X135871857Y-99961095D01*
X135871857Y-99888523D01*
X135896047Y-99791761D01*
X135920238Y-99743380D01*
X135968619Y-99695000D01*
X136041190Y-99670809D01*
X136089571Y-99670809D01*
X136162142Y-99695000D01*
X136186333Y-99719190D01*
X136621761Y-99840142D02*
X136621761Y-100178809D01*
X136500809Y-99646619D02*
X136379857Y-100009476D01*
X136694333Y-100009476D01*
X123434928Y-89111666D02*
X123459119Y-89135857D01*
X123483309Y-89208428D01*
X123483309Y-89256809D01*
X123459119Y-89329380D01*
X123410738Y-89377761D01*
X123362357Y-89401952D01*
X123265595Y-89426142D01*
X123193023Y-89426142D01*
X123096261Y-89401952D01*
X123047880Y-89377761D01*
X122999500Y-89329380D01*
X122975309Y-89256809D01*
X122975309Y-89208428D01*
X122999500Y-89135857D01*
X123023690Y-89111666D01*
X122975309Y-88652047D02*
X122975309Y-88893952D01*
X123217214Y-88918142D01*
X123193023Y-88893952D01*
X123168833Y-88845571D01*
X123168833Y-88724619D01*
X123193023Y-88676238D01*
X123217214Y-88652047D01*
X123265595Y-88627857D01*
X123386547Y-88627857D01*
X123434928Y-88652047D01*
X123459119Y-88676238D01*
X123483309Y-88724619D01*
X123483309Y-88845571D01*
X123459119Y-88893952D01*
X123434928Y-88918142D01*
X127308428Y-84920666D02*
X127332619Y-84944857D01*
X127356809Y-85017428D01*
X127356809Y-85065809D01*
X127332619Y-85138380D01*
X127284238Y-85186761D01*
X127235857Y-85210952D01*
X127139095Y-85235142D01*
X127066523Y-85235142D01*
X126969761Y-85210952D01*
X126921380Y-85186761D01*
X126873000Y-85138380D01*
X126848809Y-85065809D01*
X126848809Y-85017428D01*
X126873000Y-84944857D01*
X126897190Y-84920666D01*
X126848809Y-84485238D02*
X126848809Y-84582000D01*
X126873000Y-84630380D01*
X126897190Y-84654571D01*
X126969761Y-84702952D01*
X127066523Y-84727142D01*
X127260047Y-84727142D01*
X127308428Y-84702952D01*
X127332619Y-84678761D01*
X127356809Y-84630380D01*
X127356809Y-84533619D01*
X127332619Y-84485238D01*
X127308428Y-84461047D01*
X127260047Y-84436857D01*
X127139095Y-84436857D01*
X127090714Y-84461047D01*
X127066523Y-84485238D01*
X127042333Y-84533619D01*
X127042333Y-84630380D01*
X127066523Y-84678761D01*
X127090714Y-84702952D01*
X127139095Y-84727142D01*
X119790028Y-72220666D02*
X119814219Y-72244857D01*
X119838409Y-72317428D01*
X119838409Y-72365809D01*
X119814219Y-72438380D01*
X119765838Y-72486761D01*
X119717457Y-72510952D01*
X119620695Y-72535142D01*
X119548123Y-72535142D01*
X119451361Y-72510952D01*
X119402980Y-72486761D01*
X119354600Y-72438380D01*
X119330409Y-72365809D01*
X119330409Y-72317428D01*
X119354600Y-72244857D01*
X119378790Y-72220666D01*
X119330409Y-72051333D02*
X119330409Y-71712666D01*
X119838409Y-71930380D01*
X138738428Y-86934428D02*
X138714238Y-86958619D01*
X138641666Y-86982809D01*
X138593285Y-86982809D01*
X138520714Y-86958619D01*
X138472333Y-86910238D01*
X138448142Y-86861857D01*
X138423952Y-86765095D01*
X138423952Y-86692523D01*
X138448142Y-86595761D01*
X138472333Y-86547380D01*
X138520714Y-86499000D01*
X138593285Y-86474809D01*
X138641666Y-86474809D01*
X138714238Y-86499000D01*
X138738428Y-86523190D01*
X139222238Y-86982809D02*
X138931952Y-86982809D01*
X139077095Y-86982809D02*
X139077095Y-86474809D01*
X139028714Y-86547380D01*
X138980333Y-86595761D01*
X138931952Y-86619952D01*
X139415761Y-86523190D02*
X139439952Y-86499000D01*
X139488333Y-86474809D01*
X139609285Y-86474809D01*
X139657666Y-86499000D01*
X139681857Y-86523190D01*
X139706047Y-86571571D01*
X139706047Y-86619952D01*
X139681857Y-86692523D01*
X139391571Y-86982809D01*
X139706047Y-86982809D01*
X121466428Y-73206428D02*
X121442238Y-73230619D01*
X121369666Y-73254809D01*
X121321285Y-73254809D01*
X121248714Y-73230619D01*
X121200333Y-73182238D01*
X121176142Y-73133857D01*
X121151952Y-73037095D01*
X121151952Y-72964523D01*
X121176142Y-72867761D01*
X121200333Y-72819380D01*
X121248714Y-72771000D01*
X121321285Y-72746809D01*
X121369666Y-72746809D01*
X121442238Y-72771000D01*
X121466428Y-72795190D01*
X121950238Y-73254809D02*
X121659952Y-73254809D01*
X121805095Y-73254809D02*
X121805095Y-72746809D01*
X121756714Y-72819380D01*
X121708333Y-72867761D01*
X121659952Y-72891952D01*
X122385666Y-72916142D02*
X122385666Y-73254809D01*
X122264714Y-72722619D02*
X122143761Y-73085476D01*
X122458238Y-73085476D01*
X121466428Y-74781228D02*
X121442238Y-74805419D01*
X121369666Y-74829609D01*
X121321285Y-74829609D01*
X121248714Y-74805419D01*
X121200333Y-74757038D01*
X121176142Y-74708657D01*
X121151952Y-74611895D01*
X121151952Y-74539323D01*
X121176142Y-74442561D01*
X121200333Y-74394180D01*
X121248714Y-74345800D01*
X121321285Y-74321609D01*
X121369666Y-74321609D01*
X121442238Y-74345800D01*
X121466428Y-74369990D01*
X121950238Y-74829609D02*
X121659952Y-74829609D01*
X121805095Y-74829609D02*
X121805095Y-74321609D01*
X121756714Y-74394180D01*
X121708333Y-74442561D01*
X121659952Y-74466752D01*
X122409857Y-74321609D02*
X122167952Y-74321609D01*
X122143761Y-74563514D01*
X122167952Y-74539323D01*
X122216333Y-74515133D01*
X122337285Y-74515133D01*
X122385666Y-74539323D01*
X122409857Y-74563514D01*
X122434047Y-74611895D01*
X122434047Y-74732847D01*
X122409857Y-74781228D01*
X122385666Y-74805419D01*
X122337285Y-74829609D01*
X122216333Y-74829609D01*
X122167952Y-74805419D01*
X122143761Y-74781228D01*
X119942428Y-69904428D02*
X119918238Y-69928619D01*
X119845666Y-69952809D01*
X119797285Y-69952809D01*
X119724714Y-69928619D01*
X119676333Y-69880238D01*
X119652142Y-69831857D01*
X119627952Y-69735095D01*
X119627952Y-69662523D01*
X119652142Y-69565761D01*
X119676333Y-69517380D01*
X119724714Y-69469000D01*
X119797285Y-69444809D01*
X119845666Y-69444809D01*
X119918238Y-69469000D01*
X119942428Y-69493190D01*
X120426238Y-69952809D02*
X120135952Y-69952809D01*
X120281095Y-69952809D02*
X120281095Y-69444809D01*
X120232714Y-69517380D01*
X120184333Y-69565761D01*
X120135952Y-69589952D01*
X120861666Y-69444809D02*
X120764904Y-69444809D01*
X120716523Y-69469000D01*
X120692333Y-69493190D01*
X120643952Y-69565761D01*
X120619761Y-69662523D01*
X120619761Y-69856047D01*
X120643952Y-69904428D01*
X120668142Y-69928619D01*
X120716523Y-69952809D01*
X120813285Y-69952809D01*
X120861666Y-69928619D01*
X120885857Y-69904428D01*
X120910047Y-69856047D01*
X120910047Y-69735095D01*
X120885857Y-69686714D01*
X120861666Y-69662523D01*
X120813285Y-69638333D01*
X120716523Y-69638333D01*
X120668142Y-69662523D01*
X120643952Y-69686714D01*
X120619761Y-69735095D01*
X124387428Y-77034571D02*
X124411619Y-77058761D01*
X124435809Y-77131333D01*
X124435809Y-77179714D01*
X124411619Y-77252285D01*
X124363238Y-77300666D01*
X124314857Y-77324857D01*
X124218095Y-77349047D01*
X124145523Y-77349047D01*
X124048761Y-77324857D01*
X124000380Y-77300666D01*
X123952000Y-77252285D01*
X123927809Y-77179714D01*
X123927809Y-77131333D01*
X123952000Y-77058761D01*
X123976190Y-77034571D01*
X124435809Y-76550761D02*
X124435809Y-76841047D01*
X124435809Y-76695904D02*
X123927809Y-76695904D01*
X124000380Y-76744285D01*
X124048761Y-76792666D01*
X124072952Y-76841047D01*
X123927809Y-76381428D02*
X123927809Y-76042761D01*
X124435809Y-76260476D01*
X119942428Y-66983428D02*
X119918238Y-67007619D01*
X119845666Y-67031809D01*
X119797285Y-67031809D01*
X119724714Y-67007619D01*
X119676333Y-66959238D01*
X119652142Y-66910857D01*
X119627952Y-66814095D01*
X119627952Y-66741523D01*
X119652142Y-66644761D01*
X119676333Y-66596380D01*
X119724714Y-66548000D01*
X119797285Y-66523809D01*
X119845666Y-66523809D01*
X119918238Y-66548000D01*
X119942428Y-66572190D01*
X120426238Y-67031809D02*
X120135952Y-67031809D01*
X120281095Y-67031809D02*
X120281095Y-66523809D01*
X120232714Y-66596380D01*
X120184333Y-66644761D01*
X120135952Y-66668952D01*
X120716523Y-66741523D02*
X120668142Y-66717333D01*
X120643952Y-66693142D01*
X120619761Y-66644761D01*
X120619761Y-66620571D01*
X120643952Y-66572190D01*
X120668142Y-66548000D01*
X120716523Y-66523809D01*
X120813285Y-66523809D01*
X120861666Y-66548000D01*
X120885857Y-66572190D01*
X120910047Y-66620571D01*
X120910047Y-66644761D01*
X120885857Y-66693142D01*
X120861666Y-66717333D01*
X120813285Y-66741523D01*
X120716523Y-66741523D01*
X120668142Y-66765714D01*
X120643952Y-66789904D01*
X120619761Y-66838285D01*
X120619761Y-66935047D01*
X120643952Y-66983428D01*
X120668142Y-67007619D01*
X120716523Y-67031809D01*
X120813285Y-67031809D01*
X120861666Y-67007619D01*
X120885857Y-66983428D01*
X120910047Y-66935047D01*
X120910047Y-66838285D01*
X120885857Y-66789904D01*
X120861666Y-66765714D01*
X120813285Y-66741523D01*
X120513928Y-75256571D02*
X120538119Y-75280761D01*
X120562309Y-75353333D01*
X120562309Y-75401714D01*
X120538119Y-75474285D01*
X120489738Y-75522666D01*
X120441357Y-75546857D01*
X120344595Y-75571047D01*
X120272023Y-75571047D01*
X120175261Y-75546857D01*
X120126880Y-75522666D01*
X120078500Y-75474285D01*
X120054309Y-75401714D01*
X120054309Y-75353333D01*
X120078500Y-75280761D01*
X120102690Y-75256571D01*
X120562309Y-74772761D02*
X120562309Y-75063047D01*
X120562309Y-74917904D02*
X120054309Y-74917904D01*
X120126880Y-74966285D01*
X120175261Y-75014666D01*
X120199452Y-75063047D01*
X120562309Y-74530857D02*
X120562309Y-74434095D01*
X120538119Y-74385714D01*
X120513928Y-74361523D01*
X120441357Y-74313142D01*
X120344595Y-74288952D01*
X120151071Y-74288952D01*
X120102690Y-74313142D01*
X120078500Y-74337333D01*
X120054309Y-74385714D01*
X120054309Y-74482476D01*
X120078500Y-74530857D01*
X120102690Y-74555047D01*
X120151071Y-74579238D01*
X120272023Y-74579238D01*
X120320404Y-74555047D01*
X120344595Y-74530857D01*
X120368785Y-74482476D01*
X120368785Y-74385714D01*
X120344595Y-74337333D01*
X120320404Y-74313142D01*
X120272023Y-74288952D01*
X127054428Y-83892571D02*
X127078619Y-83916761D01*
X127102809Y-83989333D01*
X127102809Y-84037714D01*
X127078619Y-84110285D01*
X127030238Y-84158666D01*
X126981857Y-84182857D01*
X126885095Y-84207047D01*
X126812523Y-84207047D01*
X126715761Y-84182857D01*
X126667380Y-84158666D01*
X126619000Y-84110285D01*
X126594809Y-84037714D01*
X126594809Y-83989333D01*
X126619000Y-83916761D01*
X126643190Y-83892571D01*
X126643190Y-83699047D02*
X126619000Y-83674857D01*
X126594809Y-83626476D01*
X126594809Y-83505523D01*
X126619000Y-83457142D01*
X126643190Y-83432952D01*
X126691571Y-83408761D01*
X126739952Y-83408761D01*
X126812523Y-83432952D01*
X127102809Y-83723238D01*
X127102809Y-83408761D01*
X126594809Y-83094285D02*
X126594809Y-83045904D01*
X126619000Y-82997523D01*
X126643190Y-82973333D01*
X126691571Y-82949142D01*
X126788333Y-82924952D01*
X126909285Y-82924952D01*
X127006047Y-82949142D01*
X127054428Y-82973333D01*
X127078619Y-82997523D01*
X127102809Y-83045904D01*
X127102809Y-83094285D01*
X127078619Y-83142666D01*
X127054428Y-83166857D01*
X127006047Y-83191047D01*
X126909285Y-83215238D01*
X126788333Y-83215238D01*
X126691571Y-83191047D01*
X126643190Y-83166857D01*
X126619000Y-83142666D01*
X126594809Y-83094285D01*
X136960428Y-63935428D02*
X136936238Y-63959619D01*
X136863666Y-63983809D01*
X136815285Y-63983809D01*
X136742714Y-63959619D01*
X136694333Y-63911238D01*
X136670142Y-63862857D01*
X136645952Y-63766095D01*
X136645952Y-63693523D01*
X136670142Y-63596761D01*
X136694333Y-63548380D01*
X136742714Y-63500000D01*
X136815285Y-63475809D01*
X136863666Y-63475809D01*
X136936238Y-63500000D01*
X136960428Y-63524190D01*
X137153952Y-63524190D02*
X137178142Y-63500000D01*
X137226523Y-63475809D01*
X137347476Y-63475809D01*
X137395857Y-63500000D01*
X137420047Y-63524190D01*
X137444238Y-63572571D01*
X137444238Y-63620952D01*
X137420047Y-63693523D01*
X137129761Y-63983809D01*
X137444238Y-63983809D01*
X137637761Y-63524190D02*
X137661952Y-63500000D01*
X137710333Y-63475809D01*
X137831285Y-63475809D01*
X137879666Y-63500000D01*
X137903857Y-63524190D01*
X137928047Y-63572571D01*
X137928047Y-63620952D01*
X137903857Y-63693523D01*
X137613571Y-63983809D01*
X137928047Y-63983809D01*
X139627428Y-72589571D02*
X139651619Y-72613761D01*
X139675809Y-72686333D01*
X139675809Y-72734714D01*
X139651619Y-72807285D01*
X139603238Y-72855666D01*
X139554857Y-72879857D01*
X139458095Y-72904047D01*
X139385523Y-72904047D01*
X139288761Y-72879857D01*
X139240380Y-72855666D01*
X139192000Y-72807285D01*
X139167809Y-72734714D01*
X139167809Y-72686333D01*
X139192000Y-72613761D01*
X139216190Y-72589571D01*
X139216190Y-72396047D02*
X139192000Y-72371857D01*
X139167809Y-72323476D01*
X139167809Y-72202523D01*
X139192000Y-72154142D01*
X139216190Y-72129952D01*
X139264571Y-72105761D01*
X139312952Y-72105761D01*
X139385523Y-72129952D01*
X139675809Y-72420238D01*
X139675809Y-72105761D01*
X139167809Y-71936428D02*
X139167809Y-71621952D01*
X139361333Y-71791285D01*
X139361333Y-71718714D01*
X139385523Y-71670333D01*
X139409714Y-71646142D01*
X139458095Y-71621952D01*
X139579047Y-71621952D01*
X139627428Y-71646142D01*
X139651619Y-71670333D01*
X139675809Y-71718714D01*
X139675809Y-71863857D01*
X139651619Y-71912238D01*
X139627428Y-71936428D01*
X139627428Y-74875571D02*
X139651619Y-74899761D01*
X139675809Y-74972333D01*
X139675809Y-75020714D01*
X139651619Y-75093285D01*
X139603238Y-75141666D01*
X139554857Y-75165857D01*
X139458095Y-75190047D01*
X139385523Y-75190047D01*
X139288761Y-75165857D01*
X139240380Y-75141666D01*
X139192000Y-75093285D01*
X139167809Y-75020714D01*
X139167809Y-74972333D01*
X139192000Y-74899761D01*
X139216190Y-74875571D01*
X139216190Y-74682047D02*
X139192000Y-74657857D01*
X139167809Y-74609476D01*
X139167809Y-74488523D01*
X139192000Y-74440142D01*
X139216190Y-74415952D01*
X139264571Y-74391761D01*
X139312952Y-74391761D01*
X139385523Y-74415952D01*
X139675809Y-74706238D01*
X139675809Y-74391761D01*
X139337142Y-73956333D02*
X139675809Y-73956333D01*
X139143619Y-74077285D02*
X139506476Y-74198238D01*
X139506476Y-73883761D01*
X138865428Y-79752371D02*
X138889619Y-79776561D01*
X138913809Y-79849133D01*
X138913809Y-79897514D01*
X138889619Y-79970085D01*
X138841238Y-80018466D01*
X138792857Y-80042657D01*
X138696095Y-80066847D01*
X138623523Y-80066847D01*
X138526761Y-80042657D01*
X138478380Y-80018466D01*
X138430000Y-79970085D01*
X138405809Y-79897514D01*
X138405809Y-79849133D01*
X138430000Y-79776561D01*
X138454190Y-79752371D01*
X138454190Y-79558847D02*
X138430000Y-79534657D01*
X138405809Y-79486276D01*
X138405809Y-79365323D01*
X138430000Y-79316942D01*
X138454190Y-79292752D01*
X138502571Y-79268561D01*
X138550952Y-79268561D01*
X138623523Y-79292752D01*
X138913809Y-79583038D01*
X138913809Y-79268561D01*
X138405809Y-78808942D02*
X138405809Y-79050847D01*
X138647714Y-79075038D01*
X138623523Y-79050847D01*
X138599333Y-79002466D01*
X138599333Y-78881514D01*
X138623523Y-78833133D01*
X138647714Y-78808942D01*
X138696095Y-78784752D01*
X138817047Y-78784752D01*
X138865428Y-78808942D01*
X138889619Y-78833133D01*
X138913809Y-78881514D01*
X138913809Y-79002466D01*
X138889619Y-79050847D01*
X138865428Y-79075038D01*
X139246428Y-71174428D02*
X139222238Y-71198619D01*
X139149666Y-71222809D01*
X139101285Y-71222809D01*
X139028714Y-71198619D01*
X138980333Y-71150238D01*
X138956142Y-71101857D01*
X138931952Y-71005095D01*
X138931952Y-70932523D01*
X138956142Y-70835761D01*
X138980333Y-70787380D01*
X139028714Y-70739000D01*
X139101285Y-70714809D01*
X139149666Y-70714809D01*
X139222238Y-70739000D01*
X139246428Y-70763190D01*
X139439952Y-70763190D02*
X139464142Y-70739000D01*
X139512523Y-70714809D01*
X139633476Y-70714809D01*
X139681857Y-70739000D01*
X139706047Y-70763190D01*
X139730238Y-70811571D01*
X139730238Y-70859952D01*
X139706047Y-70932523D01*
X139415761Y-71222809D01*
X139730238Y-71222809D01*
X140020523Y-70932523D02*
X139972142Y-70908333D01*
X139947952Y-70884142D01*
X139923761Y-70835761D01*
X139923761Y-70811571D01*
X139947952Y-70763190D01*
X139972142Y-70739000D01*
X140020523Y-70714809D01*
X140117285Y-70714809D01*
X140165666Y-70739000D01*
X140189857Y-70763190D01*
X140214047Y-70811571D01*
X140214047Y-70835761D01*
X140189857Y-70884142D01*
X140165666Y-70908333D01*
X140117285Y-70932523D01*
X140020523Y-70932523D01*
X139972142Y-70956714D01*
X139947952Y-70980904D01*
X139923761Y-71029285D01*
X139923761Y-71126047D01*
X139947952Y-71174428D01*
X139972142Y-71198619D01*
X140020523Y-71222809D01*
X140117285Y-71222809D01*
X140165666Y-71198619D01*
X140189857Y-71174428D01*
X140214047Y-71126047D01*
X140214047Y-71029285D01*
X140189857Y-70980904D01*
X140165666Y-70956714D01*
X140117285Y-70932523D01*
X135690428Y-62411428D02*
X135666238Y-62435619D01*
X135593666Y-62459809D01*
X135545285Y-62459809D01*
X135472714Y-62435619D01*
X135424333Y-62387238D01*
X135400142Y-62338857D01*
X135375952Y-62242095D01*
X135375952Y-62169523D01*
X135400142Y-62072761D01*
X135424333Y-62024380D01*
X135472714Y-61976000D01*
X135545285Y-61951809D01*
X135593666Y-61951809D01*
X135666238Y-61976000D01*
X135690428Y-62000190D01*
X135859761Y-61951809D02*
X136174238Y-61951809D01*
X136004904Y-62145333D01*
X136077476Y-62145333D01*
X136125857Y-62169523D01*
X136150047Y-62193714D01*
X136174238Y-62242095D01*
X136174238Y-62363047D01*
X136150047Y-62411428D01*
X136125857Y-62435619D01*
X136077476Y-62459809D01*
X135932333Y-62459809D01*
X135883952Y-62435619D01*
X135859761Y-62411428D01*
X136658047Y-62459809D02*
X136367761Y-62459809D01*
X136512904Y-62459809D02*
X136512904Y-61951809D01*
X136464523Y-62024380D01*
X136416142Y-62072761D01*
X136367761Y-62096952D01*
X120831428Y-96592571D02*
X120855619Y-96616761D01*
X120879809Y-96689333D01*
X120879809Y-96737714D01*
X120855619Y-96810285D01*
X120807238Y-96858666D01*
X120758857Y-96882857D01*
X120662095Y-96907047D01*
X120589523Y-96907047D01*
X120492761Y-96882857D01*
X120444380Y-96858666D01*
X120396000Y-96810285D01*
X120371809Y-96737714D01*
X120371809Y-96689333D01*
X120396000Y-96616761D01*
X120420190Y-96592571D01*
X120371809Y-96423238D02*
X120371809Y-96108761D01*
X120565333Y-96278095D01*
X120565333Y-96205523D01*
X120589523Y-96157142D01*
X120613714Y-96132952D01*
X120662095Y-96108761D01*
X120783047Y-96108761D01*
X120831428Y-96132952D01*
X120855619Y-96157142D01*
X120879809Y-96205523D01*
X120879809Y-96350666D01*
X120855619Y-96399047D01*
X120831428Y-96423238D01*
X120371809Y-95939428D02*
X120371809Y-95624952D01*
X120565333Y-95794285D01*
X120565333Y-95721714D01*
X120589523Y-95673333D01*
X120613714Y-95649142D01*
X120662095Y-95624952D01*
X120783047Y-95624952D01*
X120831428Y-95649142D01*
X120855619Y-95673333D01*
X120879809Y-95721714D01*
X120879809Y-95866857D01*
X120855619Y-95915238D01*
X120831428Y-95939428D01*
X119764628Y-100945571D02*
X119788819Y-100969761D01*
X119813009Y-101042333D01*
X119813009Y-101090714D01*
X119788819Y-101163285D01*
X119740438Y-101211666D01*
X119692057Y-101235857D01*
X119595295Y-101260047D01*
X119522723Y-101260047D01*
X119425961Y-101235857D01*
X119377580Y-101211666D01*
X119329200Y-101163285D01*
X119305009Y-101090714D01*
X119305009Y-101042333D01*
X119329200Y-100969761D01*
X119353390Y-100945571D01*
X119305009Y-100776238D02*
X119305009Y-100461761D01*
X119498533Y-100631095D01*
X119498533Y-100558523D01*
X119522723Y-100510142D01*
X119546914Y-100485952D01*
X119595295Y-100461761D01*
X119716247Y-100461761D01*
X119764628Y-100485952D01*
X119788819Y-100510142D01*
X119813009Y-100558523D01*
X119813009Y-100703666D01*
X119788819Y-100752047D01*
X119764628Y-100776238D01*
X119474342Y-100026333D02*
X119813009Y-100026333D01*
X119280819Y-100147285D02*
X119643676Y-100268238D01*
X119643676Y-99953761D01*
X122863428Y-86033428D02*
X122839238Y-86057619D01*
X122766666Y-86081809D01*
X122718285Y-86081809D01*
X122645714Y-86057619D01*
X122597333Y-86009238D01*
X122573142Y-85960857D01*
X122548952Y-85864095D01*
X122548952Y-85791523D01*
X122573142Y-85694761D01*
X122597333Y-85646380D01*
X122645714Y-85598000D01*
X122718285Y-85573809D01*
X122766666Y-85573809D01*
X122839238Y-85598000D01*
X122863428Y-85622190D01*
X123032761Y-85573809D02*
X123347238Y-85573809D01*
X123177904Y-85767333D01*
X123250476Y-85767333D01*
X123298857Y-85791523D01*
X123323047Y-85815714D01*
X123347238Y-85864095D01*
X123347238Y-85985047D01*
X123323047Y-86033428D01*
X123298857Y-86057619D01*
X123250476Y-86081809D01*
X123105333Y-86081809D01*
X123056952Y-86057619D01*
X123032761Y-86033428D01*
X123782666Y-85573809D02*
X123685904Y-85573809D01*
X123637523Y-85598000D01*
X123613333Y-85622190D01*
X123564952Y-85694761D01*
X123540761Y-85791523D01*
X123540761Y-85985047D01*
X123564952Y-86033428D01*
X123589142Y-86057619D01*
X123637523Y-86081809D01*
X123734285Y-86081809D01*
X123782666Y-86057619D01*
X123806857Y-86033428D01*
X123831047Y-85985047D01*
X123831047Y-85864095D01*
X123806857Y-85815714D01*
X123782666Y-85791523D01*
X123734285Y-85767333D01*
X123637523Y-85767333D01*
X123589142Y-85791523D01*
X123564952Y-85815714D01*
X123540761Y-85864095D01*
X137595428Y-56460571D02*
X137619619Y-56484761D01*
X137643809Y-56557333D01*
X137643809Y-56605714D01*
X137619619Y-56678285D01*
X137571238Y-56726666D01*
X137522857Y-56750857D01*
X137426095Y-56775047D01*
X137353523Y-56775047D01*
X137256761Y-56750857D01*
X137208380Y-56726666D01*
X137160000Y-56678285D01*
X137135809Y-56605714D01*
X137135809Y-56557333D01*
X137160000Y-56484761D01*
X137184190Y-56460571D01*
X137135809Y-56000952D02*
X137135809Y-56242857D01*
X137377714Y-56267047D01*
X137353523Y-56242857D01*
X137329333Y-56194476D01*
X137329333Y-56073523D01*
X137353523Y-56025142D01*
X137377714Y-56000952D01*
X137426095Y-55976761D01*
X137547047Y-55976761D01*
X137595428Y-56000952D01*
X137619619Y-56025142D01*
X137643809Y-56073523D01*
X137643809Y-56194476D01*
X137619619Y-56242857D01*
X137595428Y-56267047D01*
X137353523Y-55686476D02*
X137329333Y-55734857D01*
X137305142Y-55759047D01*
X137256761Y-55783238D01*
X137232571Y-55783238D01*
X137184190Y-55759047D01*
X137160000Y-55734857D01*
X137135809Y-55686476D01*
X137135809Y-55589714D01*
X137160000Y-55541333D01*
X137184190Y-55517142D01*
X137232571Y-55492952D01*
X137256761Y-55492952D01*
X137305142Y-55517142D01*
X137329333Y-55541333D01*
X137353523Y-55589714D01*
X137353523Y-55686476D01*
X137377714Y-55734857D01*
X137401904Y-55759047D01*
X137450285Y-55783238D01*
X137547047Y-55783238D01*
X137595428Y-55759047D01*
X137619619Y-55734857D01*
X137643809Y-55686476D01*
X137643809Y-55589714D01*
X137619619Y-55541333D01*
X137595428Y-55517142D01*
X137547047Y-55492952D01*
X137450285Y-55492952D01*
X137401904Y-55517142D01*
X137377714Y-55541333D01*
X137353523Y-55589714D01*
X125784428Y-83892571D02*
X125808619Y-83916761D01*
X125832809Y-83989333D01*
X125832809Y-84037714D01*
X125808619Y-84110285D01*
X125760238Y-84158666D01*
X125711857Y-84182857D01*
X125615095Y-84207047D01*
X125542523Y-84207047D01*
X125445761Y-84182857D01*
X125397380Y-84158666D01*
X125349000Y-84110285D01*
X125324809Y-84037714D01*
X125324809Y-83989333D01*
X125349000Y-83916761D01*
X125373190Y-83892571D01*
X125494142Y-83457142D02*
X125832809Y-83457142D01*
X125300619Y-83578095D02*
X125663476Y-83699047D01*
X125663476Y-83384571D01*
X125832809Y-83166857D02*
X125832809Y-83070095D01*
X125808619Y-83021714D01*
X125784428Y-82997523D01*
X125711857Y-82949142D01*
X125615095Y-82924952D01*
X125421571Y-82924952D01*
X125373190Y-82949142D01*
X125349000Y-82973333D01*
X125324809Y-83021714D01*
X125324809Y-83118476D01*
X125349000Y-83166857D01*
X125373190Y-83191047D01*
X125421571Y-83215238D01*
X125542523Y-83215238D01*
X125590904Y-83191047D01*
X125615095Y-83166857D01*
X125639285Y-83118476D01*
X125639285Y-83021714D01*
X125615095Y-82973333D01*
X125590904Y-82949142D01*
X125542523Y-82924952D01*
X122736428Y-77524428D02*
X122712238Y-77548619D01*
X122639666Y-77572809D01*
X122591285Y-77572809D01*
X122518714Y-77548619D01*
X122470333Y-77500238D01*
X122446142Y-77451857D01*
X122421952Y-77355095D01*
X122421952Y-77282523D01*
X122446142Y-77185761D01*
X122470333Y-77137380D01*
X122518714Y-77089000D01*
X122591285Y-77064809D01*
X122639666Y-77064809D01*
X122712238Y-77089000D01*
X122736428Y-77113190D01*
X123196047Y-77064809D02*
X122954142Y-77064809D01*
X122929952Y-77306714D01*
X122954142Y-77282523D01*
X123002523Y-77258333D01*
X123123476Y-77258333D01*
X123171857Y-77282523D01*
X123196047Y-77306714D01*
X123220238Y-77355095D01*
X123220238Y-77476047D01*
X123196047Y-77524428D01*
X123171857Y-77548619D01*
X123123476Y-77572809D01*
X123002523Y-77572809D01*
X122954142Y-77548619D01*
X122929952Y-77524428D01*
X123704047Y-77572809D02*
X123413761Y-77572809D01*
X123558904Y-77572809D02*
X123558904Y-77064809D01*
X123510523Y-77137380D01*
X123462142Y-77185761D01*
X123413761Y-77209952D01*
X147193428Y-113465428D02*
X147169238Y-113489619D01*
X147096666Y-113513809D01*
X147048285Y-113513809D01*
X146975714Y-113489619D01*
X146927333Y-113441238D01*
X146903142Y-113392857D01*
X146878952Y-113296095D01*
X146878952Y-113223523D01*
X146903142Y-113126761D01*
X146927333Y-113078380D01*
X146975714Y-113030000D01*
X147048285Y-113005809D01*
X147096666Y-113005809D01*
X147169238Y-113030000D01*
X147193428Y-113054190D01*
X147628857Y-113175142D02*
X147628857Y-113513809D01*
X147507904Y-112981619D02*
X147386952Y-113344476D01*
X147701428Y-113344476D01*
X148112666Y-113005809D02*
X148015904Y-113005809D01*
X147967523Y-113030000D01*
X147943333Y-113054190D01*
X147894952Y-113126761D01*
X147870761Y-113223523D01*
X147870761Y-113417047D01*
X147894952Y-113465428D01*
X147919142Y-113489619D01*
X147967523Y-113513809D01*
X148064285Y-113513809D01*
X148112666Y-113489619D01*
X148136857Y-113465428D01*
X148161047Y-113417047D01*
X148161047Y-113296095D01*
X148136857Y-113247714D01*
X148112666Y-113223523D01*
X148064285Y-113199333D01*
X147967523Y-113199333D01*
X147919142Y-113223523D01*
X147894952Y-113247714D01*
X147870761Y-113296095D01*
X167848428Y-113465428D02*
X167824238Y-113489619D01*
X167751666Y-113513809D01*
X167703285Y-113513809D01*
X167630714Y-113489619D01*
X167582333Y-113441238D01*
X167558142Y-113392857D01*
X167533952Y-113296095D01*
X167533952Y-113223523D01*
X167558142Y-113126761D01*
X167582333Y-113078380D01*
X167630714Y-113030000D01*
X167703285Y-113005809D01*
X167751666Y-113005809D01*
X167824238Y-113030000D01*
X167848428Y-113054190D01*
X168283857Y-113175142D02*
X168283857Y-113513809D01*
X168162904Y-112981619D02*
X168041952Y-113344476D01*
X168356428Y-113344476D01*
X168501571Y-113005809D02*
X168840238Y-113005809D01*
X168622523Y-113513809D01*
X120244809Y-86571666D02*
X120002904Y-86741000D01*
X120244809Y-86861952D02*
X119736809Y-86861952D01*
X119736809Y-86668428D01*
X119761000Y-86620047D01*
X119785190Y-86595857D01*
X119833571Y-86571666D01*
X119906142Y-86571666D01*
X119954523Y-86595857D01*
X119978714Y-86620047D01*
X120002904Y-86668428D01*
X120002904Y-86861952D01*
X119736809Y-86112047D02*
X119736809Y-86353952D01*
X119978714Y-86378142D01*
X119954523Y-86353952D01*
X119930333Y-86305571D01*
X119930333Y-86184619D01*
X119954523Y-86136238D01*
X119978714Y-86112047D01*
X120027095Y-86087857D01*
X120148047Y-86087857D01*
X120196428Y-86112047D01*
X120220619Y-86136238D01*
X120244809Y-86184619D01*
X120244809Y-86305571D01*
X120220619Y-86353952D01*
X120196428Y-86378142D01*
X121641809Y-87067571D02*
X121399904Y-87236904D01*
X121641809Y-87357857D02*
X121133809Y-87357857D01*
X121133809Y-87164333D01*
X121158000Y-87115952D01*
X121182190Y-87091761D01*
X121230571Y-87067571D01*
X121303142Y-87067571D01*
X121351523Y-87091761D01*
X121375714Y-87115952D01*
X121399904Y-87164333D01*
X121399904Y-87357857D01*
X121133809Y-86898238D02*
X121133809Y-86583761D01*
X121327333Y-86753095D01*
X121327333Y-86680523D01*
X121351523Y-86632142D01*
X121375714Y-86607952D01*
X121424095Y-86583761D01*
X121545047Y-86583761D01*
X121593428Y-86607952D01*
X121617619Y-86632142D01*
X121641809Y-86680523D01*
X121641809Y-86825666D01*
X121617619Y-86874047D01*
X121593428Y-86898238D01*
X121351523Y-86293476D02*
X121327333Y-86341857D01*
X121303142Y-86366047D01*
X121254761Y-86390238D01*
X121230571Y-86390238D01*
X121182190Y-86366047D01*
X121158000Y-86341857D01*
X121133809Y-86293476D01*
X121133809Y-86196714D01*
X121158000Y-86148333D01*
X121182190Y-86124142D01*
X121230571Y-86099952D01*
X121254761Y-86099952D01*
X121303142Y-86124142D01*
X121327333Y-86148333D01*
X121351523Y-86196714D01*
X121351523Y-86293476D01*
X121375714Y-86341857D01*
X121399904Y-86366047D01*
X121448285Y-86390238D01*
X121545047Y-86390238D01*
X121593428Y-86366047D01*
X121617619Y-86341857D01*
X121641809Y-86293476D01*
X121641809Y-86196714D01*
X121617619Y-86148333D01*
X121593428Y-86124142D01*
X121545047Y-86099952D01*
X121448285Y-86099952D01*
X121399904Y-86124142D01*
X121375714Y-86148333D01*
X121351523Y-86196714D01*
%LPC*%
D21*
X131064000Y-102235000D03*
X131064000Y-106299000D03*
X136144000Y-106299000D03*
D22*
X133572000Y-62738000D03*
X129572000Y-62738000D03*
D23*
X155534360Y-60906660D03*
X159933640Y-60906660D03*
X157734000Y-60906660D03*
X159933640Y-69905880D03*
X155534360Y-69905880D03*
X157734000Y-69905880D03*
D24*
X159463740Y-63454280D03*
X159463740Y-66255900D03*
X156004260Y-63454280D03*
X156004260Y-66255900D03*
X157154880Y-63454280D03*
X158313120Y-63454280D03*
X158313120Y-66255900D03*
X157154880Y-66255900D03*
D25*
X157734000Y-67655440D03*
D26*
X162219340Y-74254360D03*
X162219340Y-78653640D03*
X162219340Y-76454000D03*
X153220120Y-78653640D03*
X153220120Y-74254360D03*
X153220120Y-76454000D03*
D27*
X159671720Y-78183740D03*
X156870100Y-78183740D03*
X159671720Y-74724260D03*
X156870100Y-74724260D03*
X159671720Y-75874880D03*
X159671720Y-77033120D03*
X156870100Y-77033120D03*
X156870100Y-75874880D03*
D28*
X155470560Y-76454000D03*
D23*
X168193360Y-60906660D03*
X172592640Y-60906660D03*
X170393000Y-60906660D03*
X172592640Y-69905880D03*
X168193360Y-69905880D03*
X170393000Y-69905880D03*
D24*
X172122740Y-63454280D03*
X172122740Y-66255900D03*
X168663260Y-63454280D03*
X168663260Y-66255900D03*
X169813880Y-63454280D03*
X170972120Y-63454280D03*
X170972120Y-66255900D03*
X169813880Y-66255900D03*
D25*
X170393000Y-67655440D03*
D26*
X173281340Y-74254360D03*
X173281340Y-78653640D03*
X173281340Y-76454000D03*
X164282120Y-78653640D03*
X164282120Y-74254360D03*
X164282120Y-76454000D03*
D27*
X170733720Y-78183740D03*
X167932100Y-78183740D03*
X170733720Y-74724260D03*
X167932100Y-74724260D03*
X170733720Y-75874880D03*
X170733720Y-77033120D03*
X167932100Y-77033120D03*
X167932100Y-75874880D03*
D28*
X166532560Y-76454000D03*
D23*
X142887360Y-60906660D03*
X147286640Y-60906660D03*
X145087000Y-60906660D03*
X147286640Y-69905880D03*
X142887360Y-69905880D03*
X145087000Y-69905880D03*
D24*
X146816740Y-63454280D03*
X146816740Y-66255900D03*
X143357260Y-63454280D03*
X143357260Y-66255900D03*
X144507880Y-63454280D03*
X145666120Y-63454280D03*
X145666120Y-66255900D03*
X144507880Y-66255900D03*
D25*
X145087000Y-67655440D03*
D26*
X151183340Y-74254360D03*
X151183340Y-78653640D03*
X151183340Y-76454000D03*
X142184120Y-78653640D03*
X142184120Y-74254360D03*
X142184120Y-76454000D03*
D27*
X148635720Y-78183740D03*
X145834100Y-78183740D03*
X148635720Y-74724260D03*
X145834100Y-74724260D03*
X148635720Y-75874880D03*
X148635720Y-77033120D03*
X145834100Y-77033120D03*
X145834100Y-75874880D03*
D28*
X144434560Y-76454000D03*
D29*
X121769000Y-59492000D03*
X118769000Y-59492000D03*
D30*
X123646500Y-97746000D03*
X125146500Y-97746000D03*
D31*
X121809000Y-82780000D03*
X122209000Y-82780000D03*
X122609000Y-82780000D03*
X123009000Y-82780000D03*
X123409000Y-82780000D03*
X123809000Y-82780000D03*
D32*
X124309000Y-82280000D03*
X124309000Y-81880000D03*
X124309000Y-81480000D03*
X124309000Y-81080000D03*
X124309000Y-80680000D03*
X124309000Y-80280000D03*
D31*
X123809000Y-79780000D03*
X123409000Y-79780000D03*
X123009000Y-79780000D03*
X122609000Y-79780000D03*
X122209000Y-79780000D03*
X121809000Y-79780000D03*
D32*
X121309000Y-80280000D03*
X121309000Y-80680000D03*
X121309000Y-81080000D03*
X121309000Y-81480000D03*
X121309000Y-81880000D03*
X121309000Y-82280000D03*
D33*
X126333000Y-62357000D03*
X122333000Y-62357000D03*
D34*
X128519000Y-109100000D03*
D35*
X126369000Y-111900000D03*
X126369000Y-106300000D03*
D36*
X120015000Y-81395000D03*
X120015000Y-79895000D03*
D37*
X136461500Y-76471780D03*
X136461500Y-75971400D03*
X136461500Y-75471020D03*
X136461500Y-74970640D03*
X136461500Y-74470260D03*
X136461500Y-73972420D03*
X136461500Y-73472040D03*
X136461500Y-72971660D03*
X136461500Y-72471280D03*
X136461500Y-71970900D03*
X136461500Y-71470520D03*
X136461500Y-80970120D03*
X136461500Y-80472280D03*
X136461500Y-79971900D03*
X128460500Y-75471020D03*
X136461500Y-78971140D03*
X136461500Y-78470760D03*
X136461500Y-77970380D03*
X136461500Y-77472540D03*
X136461500Y-76972160D03*
X128460500Y-72971660D03*
X128460500Y-73472040D03*
X128460500Y-73972420D03*
X128460500Y-74470260D03*
X128460500Y-74970640D03*
X136461500Y-79471520D03*
X128460500Y-75971400D03*
X128460500Y-76471780D03*
X128460500Y-76972160D03*
X128460500Y-77472540D03*
X128460500Y-77970380D03*
X128460500Y-78470760D03*
X128460500Y-78971140D03*
X128460500Y-67472560D03*
X128460500Y-67970400D03*
X128460500Y-68470780D03*
X128460500Y-68971160D03*
X128460500Y-69471540D03*
X128460500Y-69971920D03*
X128460500Y-70472300D03*
X128460500Y-70970140D03*
X128460500Y-71470520D03*
X128460500Y-71970900D03*
X128460500Y-72471280D03*
X128460500Y-79471520D03*
X128460500Y-79971900D03*
X128460500Y-80472280D03*
X128460500Y-80970120D03*
X136461500Y-70970140D03*
X136461500Y-70472300D03*
X136461500Y-69971920D03*
X136461500Y-69471540D03*
X136461500Y-68971160D03*
X136461500Y-68470780D03*
X136461500Y-67970400D03*
X136461500Y-67472560D03*
D38*
X132461000Y-74168000D03*
D39*
X135576000Y-86706001D03*
X135076001Y-86706001D03*
X134576000Y-86706001D03*
X134076001Y-86706001D03*
X133575999Y-86706001D03*
X133076000Y-86706001D03*
X132576001Y-86706001D03*
X132076000Y-86706001D03*
X131576000Y-86706001D03*
X131075999Y-86706001D03*
X130576000Y-86706001D03*
X130076001Y-86706001D03*
X129575999Y-86706001D03*
X129076000Y-86706001D03*
X128575999Y-86706001D03*
X128076000Y-86706001D03*
D40*
X126076001Y-88706000D03*
X126076001Y-89205999D03*
X126076001Y-89706000D03*
X126076001Y-90205999D03*
X126076001Y-90706001D03*
X126076001Y-91206000D03*
X126076001Y-91705999D03*
X126076001Y-92206000D03*
X126076001Y-92706000D03*
X126076001Y-93206001D03*
X126076001Y-93706000D03*
X126076001Y-94205999D03*
X126076001Y-94706001D03*
X126076001Y-95206000D03*
X126076001Y-95706001D03*
X126076001Y-96206000D03*
D39*
X128076000Y-98205999D03*
X128575999Y-98205999D03*
X129076000Y-98205999D03*
X129575999Y-98205999D03*
X130076001Y-98205999D03*
X130576000Y-98205999D03*
X131075999Y-98205999D03*
X131576000Y-98205999D03*
X132076000Y-98205999D03*
X132576001Y-98205999D03*
X133076000Y-98205999D03*
X133575999Y-98205999D03*
X134076001Y-98205999D03*
X134576000Y-98205999D03*
X135076001Y-98205999D03*
X135576000Y-98205999D03*
D40*
X137575999Y-96206000D03*
X137575999Y-95706001D03*
X137575999Y-95206000D03*
X137575999Y-94706001D03*
X137575999Y-94205999D03*
X137575999Y-93706000D03*
X137575999Y-93206001D03*
X137575999Y-92706000D03*
X137575999Y-92206000D03*
X137575999Y-91705999D03*
X137575999Y-91206000D03*
X137575999Y-90706001D03*
X137575999Y-90205999D03*
X137575999Y-89706000D03*
X137575999Y-89205999D03*
X137575999Y-88706000D03*
D10*
G36*
X117083299Y-62370494D02*
G01*
X115810506Y-61097701D01*
X117578273Y-59329934D01*
X118851066Y-60602727D01*
X117083299Y-62370494D01*
G37*
G36*
X119911727Y-59542066D02*
G01*
X118638934Y-58269273D01*
X120406701Y-56501506D01*
X121679494Y-57774299D01*
X119911727Y-59542066D01*
G37*
D41*
X124200000Y-99789500D03*
X123550000Y-99789500D03*
X122900000Y-99789500D03*
X122250000Y-99789500D03*
X122250000Y-102889500D03*
X122900000Y-102889500D03*
X123550000Y-102889500D03*
X124200000Y-102889500D03*
D42*
X122625000Y-101727000D03*
X123825000Y-101727000D03*
X122625000Y-100952000D03*
X123825000Y-100952000D03*
D43*
X139551000Y-60198000D03*
X136801000Y-60198000D03*
D44*
X133834000Y-83566000D03*
X130834000Y-83566000D03*
D45*
X139192000Y-68175000D03*
X139192000Y-65175000D03*
D46*
X127445200Y-100711000D03*
X125945200Y-100711000D03*
X127445200Y-102108000D03*
X125945200Y-102108000D03*
X127445200Y-103632000D03*
X125945200Y-103632000D03*
D47*
X123113800Y-70727000D03*
X123113800Y-69227000D03*
X123113800Y-68136200D03*
X123113800Y-66636200D03*
D46*
X124751400Y-68249800D03*
X126251400Y-68249800D03*
X124751400Y-71196200D03*
X126251400Y-71196200D03*
X124726000Y-65354200D03*
X126226000Y-65354200D03*
X119519000Y-106680000D03*
X121019000Y-106680000D03*
X133719000Y-56134000D03*
X132219000Y-56134000D03*
X124448000Y-56388000D03*
X122948000Y-56388000D03*
X124448000Y-58039000D03*
X122948000Y-58039000D03*
X124448000Y-59690000D03*
X122948000Y-59690000D03*
D47*
X140335000Y-76339000D03*
X140335000Y-77839000D03*
X140335000Y-79133000D03*
X140335000Y-80633000D03*
D36*
X120015000Y-90793000D03*
X120015000Y-89293000D03*
X137541000Y-98310000D03*
X137541000Y-99810000D03*
D30*
X133743000Y-99949000D03*
X135243000Y-99949000D03*
D36*
X124269500Y-89777000D03*
X124269500Y-88277000D03*
X128143000Y-85205000D03*
X128143000Y-83705000D03*
X120751600Y-72886000D03*
X120751600Y-71386000D03*
X139192000Y-87654000D03*
X139192000Y-89154000D03*
D30*
X124625800Y-73101200D03*
X123125800Y-73101200D03*
X124625800Y-74549000D03*
X123125800Y-74549000D03*
X126251400Y-69723000D03*
X124751400Y-69723000D03*
D36*
X125349000Y-78347000D03*
X125349000Y-76847000D03*
D30*
X124726000Y-66802000D03*
X126226000Y-66802000D03*
D36*
X126365000Y-74180000D03*
X126365000Y-75680000D03*
X126873000Y-80657000D03*
X126873000Y-82157000D03*
D30*
X140323000Y-63754000D03*
X138823000Y-63754000D03*
D36*
X138303000Y-71005000D03*
X138303000Y-72505000D03*
X138303000Y-73799000D03*
X138303000Y-75299000D03*
X138303000Y-76593000D03*
X138303000Y-78093000D03*
D30*
X140323000Y-69850000D03*
X138823000Y-69850000D03*
X137299000Y-62230000D03*
X138799000Y-62230000D03*
D36*
X120650000Y-97548000D03*
X120650000Y-99048000D03*
X120650000Y-102096000D03*
X120650000Y-100596000D03*
D30*
X124511500Y-86868000D03*
X123011500Y-86868000D03*
X134936800Y-56083200D03*
X136436800Y-56083200D03*
D36*
X125603000Y-82157000D03*
X125603000Y-80657000D03*
D30*
X122313000Y-78486000D03*
X123813000Y-78486000D03*
D48*
X144726000Y-81788000D03*
X149726000Y-81788000D03*
X170842000Y-81788000D03*
X165842000Y-81788000D03*
D49*
X118000000Y-102201520D03*
X118000000Y-100200000D03*
D50*
X118000000Y-104203040D03*
D51*
X151384000Y-58166000D03*
X164084000Y-58166000D03*
D52*
X117182900Y-108458000D03*
X121183400Y-108458000D03*
X119181880Y-108458000D03*
D53*
X123184920Y-108458000D03*
D52*
X136851260Y-58000000D03*
X134849740Y-58000000D03*
X132848220Y-58000000D03*
X128847720Y-58000000D03*
X130849240Y-58000000D03*
D53*
X126846200Y-58000000D03*
D49*
X117983000Y-77045760D03*
X117983000Y-85049300D03*
X117983000Y-89049800D03*
X117983000Y-87048280D03*
D50*
X117983000Y-91051320D03*
D49*
X117983000Y-83045240D03*
X117983000Y-81043720D03*
X117983000Y-79044740D03*
X117983000Y-64545500D03*
X117983000Y-66547020D03*
X117983000Y-70547520D03*
X117983000Y-68546000D03*
D50*
X117983000Y-72549040D03*
D54*
X157734000Y-86800000D03*
D47*
X120015000Y-85459000D03*
X120015000Y-83959000D03*
X121412000Y-85459000D03*
X121412000Y-83959000D03*
D55*
G36*
X153797000Y-80518000D02*
G01*
X153799440Y-80542776D01*
X153806667Y-80566601D01*
X153822400Y-80594200D01*
X154203400Y-81102200D01*
X154220218Y-81120557D01*
X154240294Y-81135280D01*
X154262857Y-81145804D01*
X154287039Y-81151724D01*
X154305000Y-81153000D01*
X161163000Y-81153000D01*
X161187776Y-81150560D01*
X161211601Y-81143333D01*
X161233557Y-81131597D01*
X161252803Y-81115803D01*
X161264600Y-81102200D01*
X161645600Y-80594200D01*
X161658514Y-80572915D01*
X161667027Y-80549519D01*
X161671000Y-80518000D01*
X161671000Y-73406000D01*
X164846000Y-73406000D01*
X164846000Y-80452039D01*
X160658161Y-83396104D01*
X160639295Y-83412350D01*
X160623962Y-83431964D01*
X160612749Y-83454192D01*
X160606088Y-83478181D01*
X160604200Y-83500000D01*
X160604200Y-84455000D01*
X154863800Y-84455000D01*
X154863800Y-83500000D01*
X154861360Y-83475224D01*
X154854133Y-83451399D01*
X154842397Y-83429443D01*
X154826603Y-83410197D01*
X154809839Y-83396104D01*
X150622000Y-80452039D01*
X150622000Y-73406000D01*
X153797000Y-73406000D01*
X153797000Y-80518000D01*
G37*
X153797000Y-80518000D02*
X153799440Y-80542776D01*
X153806667Y-80566601D01*
X153822400Y-80594200D01*
X154203400Y-81102200D01*
X154220218Y-81120557D01*
X154240294Y-81135280D01*
X154262857Y-81145804D01*
X154287039Y-81151724D01*
X154305000Y-81153000D01*
X161163000Y-81153000D01*
X161187776Y-81150560D01*
X161211601Y-81143333D01*
X161233557Y-81131597D01*
X161252803Y-81115803D01*
X161264600Y-81102200D01*
X161645600Y-80594200D01*
X161658514Y-80572915D01*
X161667027Y-80549519D01*
X161671000Y-80518000D01*
X161671000Y-73406000D01*
X164846000Y-73406000D01*
X164846000Y-80452039D01*
X160658161Y-83396104D01*
X160639295Y-83412350D01*
X160623962Y-83431964D01*
X160612749Y-83454192D01*
X160606088Y-83478181D01*
X160604200Y-83500000D01*
X160604200Y-84455000D01*
X154863800Y-84455000D01*
X154863800Y-83500000D01*
X154861360Y-83475224D01*
X154854133Y-83451399D01*
X154842397Y-83429443D01*
X154826603Y-83410197D01*
X154809839Y-83396104D01*
X150622000Y-80452039D01*
X150622000Y-73406000D01*
X153797000Y-73406000D01*
X153797000Y-80518000D01*
M02*
