G04 #@! TF.GenerationSoftware,KiCad,Pcbnew,(5.1.5-0)*
G04 #@! TF.CreationDate,2019-12-18T14:05:17+08:00*
G04 #@! TF.ProjectId,VESC_6,56455343-5f36-42e6-9b69-6361645f7063,A*
G04 #@! TF.SameCoordinates,Original*
G04 #@! TF.FileFunction,Paste,Bot*
G04 #@! TF.FilePolarity,Positive*
%FSLAX46Y46*%
G04 Gerber Fmt 4.6, Leading zero omitted, Abs format (unit mm)*
G04 Created by KiCad (PCBNEW (5.1.5-0)) date 2019-12-18 14:05:17*
%MOMM*%
%LPD*%
G04 APERTURE LIST*
%ADD10R,0.797560X0.797560*%
%ADD11R,1.500000X0.450000*%
%ADD12R,0.600000X2.700000*%
%ADD13R,2.300000X2.700000*%
%ADD14R,1.000000X0.800000*%
%ADD15R,0.700000X1.500000*%
%ADD16R,1.500000X1.950000*%
%ADD17R,0.450000X1.450000*%
%ADD18R,2.500000X1.000000*%
%ADD19R,0.900000X0.500000*%
%ADD20R,0.500000X0.900000*%
%ADD21R,0.750000X0.800000*%
%ADD22R,0.800000X0.750000*%
%ADD23R,5.000000X4.000000*%
%ADD24R,6.000000X5.000000*%
%ADD25R,0.730000X0.480000*%
%ADD26R,0.480000X0.730000*%
%ADD27R,0.340000X0.740000*%
%ADD28R,0.740000X0.340000*%
%ADD29R,1.200000X1.100000*%
%ADD30R,2.000000X3.800000*%
%ADD31R,2.000000X1.500000*%
%ADD32R,1.060000X0.650000*%
%ADD33R,0.650000X1.060000*%
%ADD34R,1.600000X1.300000*%
%ADD35C,0.254000*%
G04 APERTURE END LIST*
D10*
X125869700Y-101346000D03*
X127368300Y-101346000D03*
X125869700Y-99060000D03*
X127368300Y-99060000D03*
X125869700Y-100203000D03*
X127368300Y-100203000D03*
X127368300Y-97917000D03*
X125869700Y-97917000D03*
D11*
X127000000Y-107800000D03*
X127000000Y-110400000D03*
X127000000Y-108450000D03*
X127000000Y-109750000D03*
X127000000Y-109100000D03*
D12*
X145116000Y-69682000D03*
X145116000Y-61382000D03*
D13*
X143166000Y-69682000D03*
X147066000Y-61382000D03*
X147066000Y-69682000D03*
X143166000Y-61382000D03*
D12*
X170434000Y-69682000D03*
X170434000Y-61382000D03*
D13*
X168484000Y-69682000D03*
X172384000Y-61382000D03*
X172384000Y-69682000D03*
X168484000Y-61382000D03*
D12*
X157734000Y-69682000D03*
X157734000Y-61382000D03*
D13*
X155784000Y-69682000D03*
X159684000Y-61382000D03*
X159684000Y-69682000D03*
X155784000Y-61382000D03*
D14*
X116619000Y-60592000D03*
X123919000Y-60592000D03*
X123919000Y-58392000D03*
X116619000Y-58392000D03*
D15*
X122519000Y-61242000D03*
X121019000Y-61242000D03*
X118019000Y-61242000D03*
D16*
X128270000Y-74146000D03*
X128270000Y-71396000D03*
D17*
X138090000Y-63586000D03*
X138740000Y-63586000D03*
X139390000Y-63586000D03*
X140040000Y-63586000D03*
X140040000Y-67986000D03*
X139390000Y-67986000D03*
X138740000Y-67986000D03*
X138090000Y-67986000D03*
X135518800Y-65395200D03*
X134868800Y-65395200D03*
X134218800Y-65395200D03*
X133568800Y-65395200D03*
X133568800Y-60995200D03*
X134218800Y-60995200D03*
X134868800Y-60995200D03*
X135518800Y-60995200D03*
X129740300Y-66538200D03*
X129090300Y-66538200D03*
X128440300Y-66538200D03*
X127790300Y-66538200D03*
X127790300Y-62138200D03*
X128440300Y-62138200D03*
X129090300Y-62138200D03*
X129740300Y-62138200D03*
D18*
X143383000Y-78398500D03*
X143383000Y-75398500D03*
X146685000Y-78398500D03*
X146685000Y-75398500D03*
X159385000Y-78398500D03*
X159385000Y-75398500D03*
X156083000Y-78398500D03*
X156083000Y-75398500D03*
X168783000Y-78398500D03*
X168783000Y-75398500D03*
X171958000Y-78398500D03*
X171958000Y-75398500D03*
D19*
X123952000Y-105652000D03*
X123952000Y-104152000D03*
X122301000Y-101739000D03*
X122301000Y-103239000D03*
X120908300Y-101727000D03*
X120908300Y-103227000D03*
D20*
X122416000Y-96329500D03*
X120916000Y-96329500D03*
D19*
X133281000Y-84119000D03*
X133281000Y-82619000D03*
X131684800Y-84130200D03*
X131684800Y-82630200D03*
D20*
X131466500Y-71501000D03*
X132966500Y-71501000D03*
X131466500Y-72961500D03*
X132966500Y-72961500D03*
X131466500Y-74485500D03*
X132966500Y-74485500D03*
X131466500Y-76009500D03*
X132966500Y-76009500D03*
X131466500Y-77533500D03*
X132966500Y-77533500D03*
X131466500Y-79057500D03*
X132966500Y-79057500D03*
X139422000Y-70929500D03*
X137922000Y-70929500D03*
X139421300Y-72466200D03*
X137921300Y-72466200D03*
X139434000Y-73977500D03*
X137934000Y-73977500D03*
X139434000Y-75501500D03*
X137934000Y-75501500D03*
X139434000Y-77025500D03*
X137934000Y-77025500D03*
X139434000Y-78549500D03*
X137934000Y-78549500D03*
D19*
X134239000Y-93028200D03*
X134239000Y-91528200D03*
D21*
X136779000Y-69203000D03*
X136779000Y-67703000D03*
D22*
X122403300Y-94881700D03*
X120903300Y-94881700D03*
D21*
X138557000Y-89269000D03*
X138557000Y-87769000D03*
D22*
X127623000Y-95758000D03*
X126123000Y-95758000D03*
D21*
X130937000Y-87642000D03*
X130937000Y-89142000D03*
X120777000Y-77101000D03*
X120777000Y-78601000D03*
X135255000Y-83681000D03*
X135255000Y-82181000D03*
X131953000Y-63131000D03*
X131953000Y-64631000D03*
X126174500Y-63587500D03*
X126174500Y-65087500D03*
X120777000Y-79895000D03*
X120777000Y-81395000D03*
D23*
X145114500Y-57531000D03*
X157734000Y-57531000D03*
X170434000Y-57531000D03*
D24*
X157734000Y-86800000D03*
D21*
X132715000Y-91579000D03*
X132715000Y-93079000D03*
X129667000Y-91579000D03*
X129667000Y-93079000D03*
X126492000Y-91452000D03*
X126492000Y-92952000D03*
X137541000Y-110478000D03*
X137541000Y-108978000D03*
X121412000Y-85229000D03*
X121412000Y-86729000D03*
X126492000Y-88404000D03*
X126492000Y-89904000D03*
D20*
X124829000Y-97917000D03*
X123329000Y-97917000D03*
D19*
X131191000Y-91579000D03*
X131191000Y-93079000D03*
X128143000Y-93067000D03*
X128143000Y-91567000D03*
D25*
X132035000Y-110464000D03*
D26*
X131910000Y-103789000D03*
D27*
X132785000Y-103789000D03*
X133585000Y-103789000D03*
X134385000Y-103789000D03*
X135185000Y-103789000D03*
D26*
X136060000Y-103789000D03*
D28*
X135935000Y-104789000D03*
D25*
X135935000Y-110464000D03*
D27*
X134385000Y-110189000D03*
X133585000Y-110189000D03*
X133985000Y-104989000D03*
D28*
X132035000Y-104789000D03*
D27*
X133185000Y-104989000D03*
X134785000Y-104989000D03*
D28*
X132035000Y-105589000D03*
X132035000Y-106389000D03*
X132035000Y-107189000D03*
X132035000Y-107989000D03*
X132035000Y-108789000D03*
X132035000Y-109589000D03*
X135935000Y-105589000D03*
X135935000Y-106389000D03*
X135935000Y-107189000D03*
X135935000Y-107989000D03*
X135935000Y-108789000D03*
X135935000Y-109589000D03*
D29*
X133985000Y-106839000D03*
X133985000Y-108339000D03*
D30*
X129007000Y-79375000D03*
D31*
X122707000Y-79375000D03*
X122707000Y-77075000D03*
X122707000Y-81675000D03*
D32*
X136695000Y-85024000D03*
X136695000Y-84074000D03*
X136695000Y-83124000D03*
X138895000Y-83124000D03*
X138895000Y-85024000D03*
X122979000Y-87056000D03*
X122979000Y-86106000D03*
X122979000Y-85156000D03*
X125179000Y-85156000D03*
X125179000Y-87056000D03*
D33*
X125029000Y-89324000D03*
X123129000Y-89324000D03*
X123129000Y-91524000D03*
X124079000Y-91524000D03*
X125029000Y-91524000D03*
D34*
X136556000Y-87285320D03*
X133256000Y-87285320D03*
X133256000Y-89285320D03*
X136556000Y-89285320D03*
D35*
G36*
X153162000Y-80010000D02*
G01*
X153164440Y-80034776D01*
X153171667Y-80058601D01*
X153183403Y-80080557D01*
X153199197Y-80099803D01*
X154215197Y-81115803D01*
X154234443Y-81131597D01*
X154256399Y-81143333D01*
X154280224Y-81150560D01*
X154305000Y-81153000D01*
X161163000Y-81153000D01*
X161187776Y-81150560D01*
X161211601Y-81143333D01*
X161233557Y-81131597D01*
X161252803Y-81115803D01*
X162268803Y-80099803D01*
X162284597Y-80080557D01*
X162296333Y-80058601D01*
X162303560Y-80034776D01*
X162306000Y-80010000D01*
X162306000Y-63881000D01*
X165989000Y-63881000D01*
X165989000Y-80192152D01*
X160665783Y-83391144D01*
X160645803Y-83405998D01*
X160629105Y-83424464D01*
X160616331Y-83445833D01*
X160607970Y-83469284D01*
X160604200Y-83500000D01*
X160604200Y-84455000D01*
X154863800Y-84455000D01*
X154863800Y-83500000D01*
X154861360Y-83475224D01*
X154854133Y-83451399D01*
X154842397Y-83429443D01*
X154826603Y-83410197D01*
X154802217Y-83391144D01*
X149479000Y-80192152D01*
X149479000Y-63881000D01*
X153162000Y-63881000D01*
X153162000Y-80010000D01*
G37*
X153162000Y-80010000D02*
X153164440Y-80034776D01*
X153171667Y-80058601D01*
X153183403Y-80080557D01*
X153199197Y-80099803D01*
X154215197Y-81115803D01*
X154234443Y-81131597D01*
X154256399Y-81143333D01*
X154280224Y-81150560D01*
X154305000Y-81153000D01*
X161163000Y-81153000D01*
X161187776Y-81150560D01*
X161211601Y-81143333D01*
X161233557Y-81131597D01*
X161252803Y-81115803D01*
X162268803Y-80099803D01*
X162284597Y-80080557D01*
X162296333Y-80058601D01*
X162303560Y-80034776D01*
X162306000Y-80010000D01*
X162306000Y-63881000D01*
X165989000Y-63881000D01*
X165989000Y-80192152D01*
X160665783Y-83391144D01*
X160645803Y-83405998D01*
X160629105Y-83424464D01*
X160616331Y-83445833D01*
X160607970Y-83469284D01*
X160604200Y-83500000D01*
X160604200Y-84455000D01*
X154863800Y-84455000D01*
X154863800Y-83500000D01*
X154861360Y-83475224D01*
X154854133Y-83451399D01*
X154842397Y-83429443D01*
X154826603Y-83410197D01*
X154802217Y-83391144D01*
X149479000Y-80192152D01*
X149479000Y-63881000D01*
X153162000Y-63881000D01*
X153162000Y-80010000D01*
M02*
