G04 #@! TF.GenerationSoftware,KiCad,Pcbnew,(5.1.5-0)*
G04 #@! TF.CreationDate,2020-03-16T19:18:14+08:00*
G04 #@! TF.ProjectId,VESC_6,56455343-5f36-42e6-9b69-6361645f7063,A*
G04 #@! TF.SameCoordinates,Original*
G04 #@! TF.FileFunction,Legend,Bot*
G04 #@! TF.FilePolarity,Positive*
%FSLAX46Y46*%
G04 Gerber Fmt 4.6, Leading zero omitted, Abs format (unit mm)*
G04 Created by KiCad (PCBNEW (5.1.5-0)) date 2020-03-16 19:18:14*
%MOMM*%
%LPD*%
G04 APERTURE LIST*
%ADD10C,0.101600*%
%ADD11C,0.406400*%
%ADD12C,0.254000*%
%ADD13C,0.150000*%
%ADD14C,0.120000*%
%ADD15C,0.381000*%
%ADD16R,1.000000X0.800000*%
%ADD17R,0.700000X1.500000*%
%ADD18C,0.900000*%
%ADD19R,0.797560X0.797560*%
%ADD20O,1.100000X2.200000*%
%ADD21O,1.100000X1.800000*%
%ADD22R,1.500000X0.450000*%
%ADD23R,0.600000X2.700000*%
%ADD24R,2.300000X2.700000*%
%ADD25R,1.500000X1.950000*%
%ADD26R,0.450000X1.450000*%
%ADD27R,2.500000X1.000000*%
%ADD28R,0.900000X0.500000*%
%ADD29R,0.500000X0.900000*%
%ADD30R,0.750000X0.800000*%
%ADD31R,0.800000X0.750000*%
%ADD32C,1.600000*%
%ADD33O,1.699260X1.198880*%
%ADD34R,1.699260X1.198880*%
%ADD35C,3.000000*%
%ADD36O,1.198880X1.699260*%
%ADD37R,1.198880X1.699260*%
%ADD38R,5.000000X4.000000*%
%ADD39R,6.000000X5.000000*%
%ADD40R,0.800000X0.550000*%
%ADD41R,0.550000X0.800000*%
%ADD42R,0.400000X0.800000*%
%ADD43R,0.800000X0.400000*%
%ADD44R,1.500000X2.800000*%
%ADD45R,2.000000X3.800000*%
%ADD46R,2.000000X1.500000*%
%ADD47R,1.060000X0.650000*%
%ADD48R,0.650000X1.060000*%
%ADD49R,1.600000X1.300000*%
G04 APERTURE END LIST*
D10*
X122923904Y-56085619D02*
X122851333Y-56109809D01*
X122730380Y-56109809D01*
X122682000Y-56085619D01*
X122657809Y-56061428D01*
X122633619Y-56013047D01*
X122633619Y-55964666D01*
X122657809Y-55916285D01*
X122682000Y-55892095D01*
X122730380Y-55867904D01*
X122827142Y-55843714D01*
X122875523Y-55819523D01*
X122899714Y-55795333D01*
X122923904Y-55746952D01*
X122923904Y-55698571D01*
X122899714Y-55650190D01*
X122875523Y-55626000D01*
X122827142Y-55601809D01*
X122706190Y-55601809D01*
X122633619Y-55626000D01*
X122222380Y-56085619D02*
X122270761Y-56109809D01*
X122367523Y-56109809D01*
X122415904Y-56085619D01*
X122440095Y-56037238D01*
X122440095Y-55843714D01*
X122415904Y-55795333D01*
X122367523Y-55771142D01*
X122270761Y-55771142D01*
X122222380Y-55795333D01*
X122198190Y-55843714D01*
X122198190Y-55892095D01*
X122440095Y-55940476D01*
X121980476Y-55771142D02*
X121980476Y-56109809D01*
X121980476Y-55819523D02*
X121956285Y-55795333D01*
X121907904Y-55771142D01*
X121835333Y-55771142D01*
X121786952Y-55795333D01*
X121762761Y-55843714D01*
X121762761Y-56109809D01*
X121545047Y-56085619D02*
X121496666Y-56109809D01*
X121399904Y-56109809D01*
X121351523Y-56085619D01*
X121327333Y-56037238D01*
X121327333Y-56013047D01*
X121351523Y-55964666D01*
X121399904Y-55940476D01*
X121472476Y-55940476D01*
X121520857Y-55916285D01*
X121545047Y-55867904D01*
X121545047Y-55843714D01*
X121520857Y-55795333D01*
X121472476Y-55771142D01*
X121399904Y-55771142D01*
X121351523Y-55795333D01*
X121037047Y-56109809D02*
X121085428Y-56085619D01*
X121109619Y-56061428D01*
X121133809Y-56013047D01*
X121133809Y-55867904D01*
X121109619Y-55819523D01*
X121085428Y-55795333D01*
X121037047Y-55771142D01*
X120964476Y-55771142D01*
X120916095Y-55795333D01*
X120891904Y-55819523D01*
X120867714Y-55867904D01*
X120867714Y-56013047D01*
X120891904Y-56061428D01*
X120916095Y-56085619D01*
X120964476Y-56109809D01*
X121037047Y-56109809D01*
X120650000Y-56109809D02*
X120650000Y-55771142D01*
X120650000Y-55867904D02*
X120625809Y-55819523D01*
X120601619Y-55795333D01*
X120553238Y-55771142D01*
X120504857Y-55771142D01*
X120021047Y-55601809D02*
X119851714Y-56109809D01*
X119682380Y-55601809D01*
X119440476Y-56109809D02*
X119488857Y-56085619D01*
X119513047Y-56061428D01*
X119537238Y-56013047D01*
X119537238Y-55867904D01*
X119513047Y-55819523D01*
X119488857Y-55795333D01*
X119440476Y-55771142D01*
X119367904Y-55771142D01*
X119319523Y-55795333D01*
X119295333Y-55819523D01*
X119271142Y-55867904D01*
X119271142Y-56013047D01*
X119295333Y-56061428D01*
X119319523Y-56085619D01*
X119367904Y-56109809D01*
X119440476Y-56109809D01*
X118980857Y-56109809D02*
X119029238Y-56085619D01*
X119053428Y-56037238D01*
X119053428Y-55601809D01*
X118859904Y-55771142D02*
X118666380Y-55771142D01*
X118787333Y-55601809D02*
X118787333Y-56037238D01*
X118763142Y-56085619D01*
X118714761Y-56109809D01*
X118666380Y-56109809D01*
X118279333Y-56109809D02*
X118279333Y-55843714D01*
X118303523Y-55795333D01*
X118351904Y-55771142D01*
X118448666Y-55771142D01*
X118497047Y-55795333D01*
X118279333Y-56085619D02*
X118327714Y-56109809D01*
X118448666Y-56109809D01*
X118497047Y-56085619D01*
X118521238Y-56037238D01*
X118521238Y-55988857D01*
X118497047Y-55940476D01*
X118448666Y-55916285D01*
X118327714Y-55916285D01*
X118279333Y-55892095D01*
X117819714Y-55771142D02*
X117819714Y-56182380D01*
X117843904Y-56230761D01*
X117868095Y-56254952D01*
X117916476Y-56279142D01*
X117989047Y-56279142D01*
X118037428Y-56254952D01*
X117819714Y-56085619D02*
X117868095Y-56109809D01*
X117964857Y-56109809D01*
X118013238Y-56085619D01*
X118037428Y-56061428D01*
X118061619Y-56013047D01*
X118061619Y-55867904D01*
X118037428Y-55819523D01*
X118013238Y-55795333D01*
X117964857Y-55771142D01*
X117868095Y-55771142D01*
X117819714Y-55795333D01*
X117384285Y-56085619D02*
X117432666Y-56109809D01*
X117529428Y-56109809D01*
X117577809Y-56085619D01*
X117602000Y-56037238D01*
X117602000Y-55843714D01*
X117577809Y-55795333D01*
X117529428Y-55771142D01*
X117432666Y-55771142D01*
X117384285Y-55795333D01*
X117360095Y-55843714D01*
X117360095Y-55892095D01*
X117602000Y-55940476D01*
D11*
X150876000Y-82677000D02*
X152400000Y-82677000D01*
D10*
X125832809Y-67334190D02*
X125324809Y-67334190D01*
X125687666Y-67503523D01*
X125324809Y-67672857D01*
X125832809Y-67672857D01*
X125687666Y-67890571D02*
X125687666Y-68132476D01*
X125832809Y-67842190D02*
X125324809Y-68011523D01*
X125832809Y-68180857D01*
X125832809Y-68350190D02*
X125324809Y-68350190D01*
X125324809Y-68471142D01*
X125349000Y-68543714D01*
X125397380Y-68592095D01*
X125445761Y-68616285D01*
X125542523Y-68640476D01*
X125615095Y-68640476D01*
X125711857Y-68616285D01*
X125760238Y-68592095D01*
X125808619Y-68543714D01*
X125832809Y-68471142D01*
X125832809Y-68350190D01*
X125566714Y-68858190D02*
X125566714Y-69027523D01*
X125832809Y-69100095D02*
X125832809Y-68858190D01*
X125324809Y-68858190D01*
X125324809Y-69100095D01*
X125832809Y-69704857D02*
X125324809Y-69704857D01*
X125832809Y-69946761D02*
X125324809Y-69946761D01*
X125832809Y-70237047D01*
X125324809Y-70237047D01*
X125784428Y-71156285D02*
X125808619Y-71132095D01*
X125832809Y-71059523D01*
X125832809Y-71011142D01*
X125808619Y-70938571D01*
X125760238Y-70890190D01*
X125711857Y-70866000D01*
X125615095Y-70841809D01*
X125542523Y-70841809D01*
X125445761Y-70866000D01*
X125397380Y-70890190D01*
X125349000Y-70938571D01*
X125324809Y-71011142D01*
X125324809Y-71059523D01*
X125349000Y-71132095D01*
X125373190Y-71156285D01*
X125832809Y-71374000D02*
X125324809Y-71374000D01*
X125566714Y-71374000D02*
X125566714Y-71664285D01*
X125832809Y-71664285D02*
X125324809Y-71664285D01*
X125832809Y-71906190D02*
X125324809Y-71906190D01*
X125832809Y-72148095D02*
X125324809Y-72148095D01*
X125832809Y-72438380D01*
X125324809Y-72438380D01*
X125687666Y-72656095D02*
X125687666Y-72898000D01*
X125832809Y-72607714D02*
X125324809Y-72777047D01*
X125832809Y-72946380D01*
D12*
X123510523Y-66402857D02*
X123510523Y-67128571D01*
X124780523Y-66765714D02*
X123510523Y-66765714D01*
X124115285Y-67551904D02*
X124115285Y-67975238D01*
X124780523Y-68156666D02*
X124780523Y-67551904D01*
X123510523Y-67551904D01*
X123510523Y-68156666D01*
X124720047Y-68640476D02*
X124780523Y-68821904D01*
X124780523Y-69124285D01*
X124720047Y-69245238D01*
X124659571Y-69305714D01*
X124538619Y-69366190D01*
X124417666Y-69366190D01*
X124296714Y-69305714D01*
X124236238Y-69245238D01*
X124175761Y-69124285D01*
X124115285Y-68882380D01*
X124054809Y-68761428D01*
X123994333Y-68700952D01*
X123873380Y-68640476D01*
X123752428Y-68640476D01*
X123631476Y-68700952D01*
X123571000Y-68761428D01*
X123510523Y-68882380D01*
X123510523Y-69184761D01*
X123571000Y-69366190D01*
X124659571Y-70636190D02*
X124720047Y-70575714D01*
X124780523Y-70394285D01*
X124780523Y-70273333D01*
X124720047Y-70091904D01*
X124599095Y-69970952D01*
X124478142Y-69910476D01*
X124236238Y-69850000D01*
X124054809Y-69850000D01*
X123812904Y-69910476D01*
X123691952Y-69970952D01*
X123571000Y-70091904D01*
X123510523Y-70273333D01*
X123510523Y-70394285D01*
X123571000Y-70575714D01*
X123631476Y-70636190D01*
D10*
X117843904Y-56998809D02*
X117529428Y-56998809D01*
X117698761Y-57192333D01*
X117626190Y-57192333D01*
X117577809Y-57216523D01*
X117553619Y-57240714D01*
X117529428Y-57289095D01*
X117529428Y-57410047D01*
X117553619Y-57458428D01*
X117577809Y-57482619D01*
X117626190Y-57506809D01*
X117771333Y-57506809D01*
X117819714Y-57482619D01*
X117843904Y-57458428D01*
X117311714Y-57458428D02*
X117287523Y-57482619D01*
X117311714Y-57506809D01*
X117335904Y-57482619D01*
X117311714Y-57458428D01*
X117311714Y-57506809D01*
X117118190Y-56998809D02*
X116803714Y-56998809D01*
X116973047Y-57192333D01*
X116900476Y-57192333D01*
X116852095Y-57216523D01*
X116827904Y-57240714D01*
X116803714Y-57289095D01*
X116803714Y-57410047D01*
X116827904Y-57458428D01*
X116852095Y-57482619D01*
X116900476Y-57506809D01*
X117045619Y-57506809D01*
X117094000Y-57482619D01*
X117118190Y-57458428D01*
X116658571Y-56998809D02*
X116489238Y-57506809D01*
X116319904Y-56998809D01*
X123667761Y-57506809D02*
X123909666Y-57506809D01*
X123933857Y-57748714D01*
X123909666Y-57724523D01*
X123861285Y-57700333D01*
X123740333Y-57700333D01*
X123691952Y-57724523D01*
X123667761Y-57748714D01*
X123643571Y-57797095D01*
X123643571Y-57918047D01*
X123667761Y-57966428D01*
X123691952Y-57990619D01*
X123740333Y-58014809D01*
X123861285Y-58014809D01*
X123909666Y-57990619D01*
X123933857Y-57966428D01*
X123498428Y-57506809D02*
X123329095Y-58014809D01*
X123159761Y-57506809D01*
D13*
X123619000Y-59092000D02*
X123619000Y-59892000D01*
X116919000Y-59892000D02*
X116919000Y-59092000D01*
X118669000Y-60792000D02*
X120369000Y-60792000D01*
X117419000Y-58192000D02*
X123119000Y-58192000D01*
X120169000Y-56892000D02*
X120169000Y-58192000D01*
X119069000Y-56692000D02*
X119969000Y-56692000D01*
X118869000Y-58192000D02*
X118869000Y-56892000D01*
X120169000Y-56892000D02*
X119969000Y-56692000D01*
X118869000Y-56892000D02*
X119069000Y-56692000D01*
X121669000Y-60792000D02*
X121869000Y-60792000D01*
X119519000Y-58492000D02*
X119519000Y-58192000D01*
X121019000Y-58492000D02*
X121019000Y-58192000D01*
X127719000Y-101896000D02*
X125819000Y-101896000D01*
X127719000Y-100796000D02*
X125819000Y-100796000D01*
X126819000Y-101346000D02*
X126369000Y-101346000D01*
X126869000Y-101096000D02*
X126869000Y-101596000D01*
X126869000Y-101346000D02*
X126619000Y-101096000D01*
X126619000Y-101096000D02*
X126619000Y-101596000D01*
X126619000Y-101596000D02*
X126869000Y-101346000D01*
X127719000Y-99610000D02*
X125819000Y-99610000D01*
X127719000Y-98510000D02*
X125819000Y-98510000D01*
X126819000Y-99060000D02*
X126369000Y-99060000D01*
X126869000Y-98810000D02*
X126869000Y-99310000D01*
X126869000Y-99060000D02*
X126619000Y-98810000D01*
X126619000Y-98810000D02*
X126619000Y-99310000D01*
X126619000Y-99310000D02*
X126869000Y-99060000D01*
X127719000Y-100753000D02*
X125819000Y-100753000D01*
X127719000Y-99653000D02*
X125819000Y-99653000D01*
X126819000Y-100203000D02*
X126369000Y-100203000D01*
X126869000Y-99953000D02*
X126869000Y-100453000D01*
X126869000Y-100203000D02*
X126619000Y-99953000D01*
X126619000Y-99953000D02*
X126619000Y-100453000D01*
X126619000Y-100453000D02*
X126869000Y-100203000D01*
X126619000Y-98167000D02*
X126869000Y-97917000D01*
X126619000Y-97667000D02*
X126619000Y-98167000D01*
X126869000Y-97917000D02*
X126619000Y-97667000D01*
X126869000Y-97667000D02*
X126869000Y-98167000D01*
X126819000Y-97917000D02*
X126369000Y-97917000D01*
X127719000Y-97367000D02*
X125819000Y-97367000D01*
X127719000Y-98467000D02*
X125819000Y-98467000D01*
D14*
X128544000Y-112200000D02*
X127444000Y-113250000D01*
X128544000Y-106000000D02*
X127444000Y-104950000D01*
X125619000Y-111100000D02*
X125619000Y-113250000D01*
X128544000Y-112200000D02*
X128544000Y-110100000D01*
X125619000Y-104950000D02*
X127444000Y-104950000D01*
X128544000Y-106000000D02*
X128544000Y-108100000D01*
X125619000Y-113250000D02*
X127444000Y-113250000D01*
X125619000Y-107100000D02*
X125619000Y-104950000D01*
X125619000Y-107400000D02*
X125619000Y-108000000D01*
X126369000Y-107400000D02*
X125619000Y-107400000D01*
D13*
X147716000Y-60532000D02*
X142516000Y-60532000D01*
X147716000Y-70532000D02*
X147716000Y-60532000D01*
X142516000Y-70532000D02*
X147716000Y-70532000D01*
X142516000Y-60532000D02*
X142516000Y-70532000D01*
X173034000Y-60532000D02*
X167834000Y-60532000D01*
X173034000Y-70532000D02*
X173034000Y-60532000D01*
X167834000Y-70532000D02*
X173034000Y-70532000D01*
X167834000Y-60532000D02*
X167834000Y-70532000D01*
X160334000Y-60532000D02*
X155134000Y-60532000D01*
X160334000Y-70532000D02*
X160334000Y-60532000D01*
X155134000Y-70532000D02*
X160334000Y-70532000D01*
X155134000Y-60532000D02*
X155134000Y-70532000D01*
D14*
X129447000Y-75421000D02*
X127347000Y-75421000D01*
X127347000Y-75421000D02*
X127347000Y-71171000D01*
X129447000Y-75421000D02*
X129447000Y-71171000D01*
D13*
X137390000Y-64111000D02*
X137565000Y-64111000D01*
X137390000Y-67461000D02*
X137640000Y-67461000D01*
X140740000Y-67461000D02*
X140490000Y-67461000D01*
X140740000Y-64111000D02*
X140490000Y-64111000D01*
X137390000Y-64111000D02*
X137390000Y-67461000D01*
X140740000Y-64111000D02*
X140740000Y-67461000D01*
X137565000Y-64111000D02*
X137565000Y-62861000D01*
X136218800Y-64870200D02*
X136043800Y-64870200D01*
X136218800Y-61520200D02*
X135968800Y-61520200D01*
X132868800Y-61520200D02*
X133118800Y-61520200D01*
X132868800Y-64870200D02*
X133118800Y-64870200D01*
X136218800Y-64870200D02*
X136218800Y-61520200D01*
X132868800Y-64870200D02*
X132868800Y-61520200D01*
X136043800Y-64870200D02*
X136043800Y-66120200D01*
X130440300Y-66013200D02*
X130265300Y-66013200D01*
X130440300Y-62663200D02*
X130190300Y-62663200D01*
X127090300Y-62663200D02*
X127340300Y-62663200D01*
X127090300Y-66013200D02*
X127340300Y-66013200D01*
X130440300Y-66013200D02*
X130440300Y-62663200D01*
X127090300Y-66013200D02*
X127090300Y-62663200D01*
X130265300Y-66013200D02*
X130265300Y-67263200D01*
X144858000Y-75898500D02*
X144858000Y-77898500D01*
X141908000Y-77898500D02*
X141908000Y-75898500D01*
X148160000Y-75898500D02*
X148160000Y-77898500D01*
X145210000Y-77898500D02*
X145210000Y-75898500D01*
X160860000Y-75898500D02*
X160860000Y-77898500D01*
X157910000Y-77898500D02*
X157910000Y-75898500D01*
X157558000Y-75898500D02*
X157558000Y-77898500D01*
X154608000Y-77898500D02*
X154608000Y-75898500D01*
X170258000Y-75898500D02*
X170258000Y-77898500D01*
X167308000Y-77898500D02*
X167308000Y-75898500D01*
X173433000Y-75898500D02*
X173433000Y-77898500D01*
X170483000Y-77898500D02*
X170483000Y-75898500D01*
X123658000Y-104148000D02*
X123658000Y-105148000D01*
X125008000Y-105148000D02*
X125008000Y-104148000D01*
X123357000Y-102989000D02*
X123357000Y-101989000D01*
X122007000Y-101989000D02*
X122007000Y-102989000D01*
X121964300Y-102977000D02*
X121964300Y-101977000D01*
X120614300Y-101977000D02*
X120614300Y-102977000D01*
X121166000Y-97004500D02*
X122166000Y-97004500D01*
X122166000Y-95654500D02*
X121166000Y-95654500D01*
X132606000Y-82869000D02*
X132606000Y-83869000D01*
X133956000Y-83869000D02*
X133956000Y-82869000D01*
X131009800Y-82880200D02*
X131009800Y-83880200D01*
X132359800Y-83880200D02*
X132359800Y-82880200D01*
X132716500Y-70826000D02*
X131716500Y-70826000D01*
X131716500Y-72176000D02*
X132716500Y-72176000D01*
X132716500Y-72286500D02*
X131716500Y-72286500D01*
X131716500Y-73636500D02*
X132716500Y-73636500D01*
X132716500Y-73810500D02*
X131716500Y-73810500D01*
X131716500Y-75160500D02*
X132716500Y-75160500D01*
X132716500Y-75334500D02*
X131716500Y-75334500D01*
X131716500Y-76684500D02*
X132716500Y-76684500D01*
X132716500Y-76858500D02*
X131716500Y-76858500D01*
X131716500Y-78208500D02*
X132716500Y-78208500D01*
X132716500Y-78382500D02*
X131716500Y-78382500D01*
X131716500Y-79732500D02*
X132716500Y-79732500D01*
X138172000Y-71604500D02*
X139172000Y-71604500D01*
X139172000Y-70254500D02*
X138172000Y-70254500D01*
X138171300Y-73141200D02*
X139171300Y-73141200D01*
X139171300Y-71791200D02*
X138171300Y-71791200D01*
X138184000Y-74652500D02*
X139184000Y-74652500D01*
X139184000Y-73302500D02*
X138184000Y-73302500D01*
X138184000Y-76176500D02*
X139184000Y-76176500D01*
X139184000Y-74826500D02*
X138184000Y-74826500D01*
X138184000Y-77700500D02*
X139184000Y-77700500D01*
X139184000Y-76350500D02*
X138184000Y-76350500D01*
X138184000Y-79224500D02*
X139184000Y-79224500D01*
X139184000Y-77874500D02*
X138184000Y-77874500D01*
X133564000Y-91778200D02*
X133564000Y-92778200D01*
X134914000Y-92778200D02*
X134914000Y-91778200D01*
X137379000Y-68803000D02*
X137379000Y-68103000D01*
X136179000Y-68103000D02*
X136179000Y-68803000D01*
X122003300Y-94281700D02*
X121303300Y-94281700D01*
X121303300Y-95481700D02*
X122003300Y-95481700D01*
X139157000Y-88869000D02*
X139157000Y-88169000D01*
X137957000Y-88169000D02*
X137957000Y-88869000D01*
X127223000Y-95158000D02*
X126523000Y-95158000D01*
X126523000Y-96358000D02*
X127223000Y-96358000D01*
X130337000Y-88042000D02*
X130337000Y-88742000D01*
X131537000Y-88742000D02*
X131537000Y-88042000D01*
X120431000Y-77501000D02*
X120431000Y-78201000D01*
X121631000Y-78201000D02*
X121631000Y-77501000D01*
X135855000Y-83281000D02*
X135855000Y-82581000D01*
X134655000Y-82581000D02*
X134655000Y-83281000D01*
X131353000Y-63531000D02*
X131353000Y-64231000D01*
X132553000Y-64231000D02*
X132553000Y-63531000D01*
X125574500Y-63987500D02*
X125574500Y-64687500D01*
X126774500Y-64687500D02*
X126774500Y-63987500D01*
X120431000Y-80295000D02*
X120431000Y-80995000D01*
X121631000Y-80995000D02*
X121631000Y-80295000D01*
D15*
X119899920Y-104802480D02*
X119699260Y-104802480D01*
X119899920Y-104502760D02*
X119899920Y-104802480D01*
X119699260Y-104502760D02*
X119899920Y-104502760D01*
X119699260Y-98201020D02*
X115200920Y-98201020D01*
X119699260Y-106202020D02*
X115200920Y-106202020D01*
X119198880Y-100700380D02*
X119699260Y-100700380D01*
X119198880Y-98701400D02*
X119198880Y-100700380D01*
X115698760Y-98701400D02*
X119198880Y-98701400D01*
X119198880Y-105701640D02*
X115698760Y-105701640D01*
X119198880Y-103702660D02*
X119198880Y-105701640D01*
X119699260Y-103702660D02*
X119198880Y-103702660D01*
X118500380Y-105701640D02*
X118500380Y-106202020D01*
X117199900Y-105701640D02*
X117199900Y-106202020D01*
X117199900Y-98701400D02*
X117199900Y-98201020D01*
X118500380Y-98201020D02*
X118500380Y-98701400D01*
X116199140Y-101104240D02*
X115698760Y-101104240D01*
X116199140Y-101302360D02*
X116199140Y-101104240D01*
X115698760Y-101302360D02*
X116199140Y-101302360D01*
X115698760Y-103301340D02*
X116199140Y-103301340D01*
X116199140Y-103301340D02*
X116199140Y-103103220D01*
X116199140Y-103103220D02*
X115698760Y-103103220D01*
X115200920Y-106202020D02*
X115200920Y-98201020D01*
X115698760Y-98701400D02*
X115698760Y-105701640D01*
X119699260Y-106202020D02*
X119699260Y-98201020D01*
X123784360Y-106558080D02*
X123784360Y-106758740D01*
X123484640Y-106558080D02*
X123784360Y-106558080D01*
X123484640Y-106758740D02*
X123484640Y-106558080D01*
X115181380Y-106758740D02*
X115181380Y-111257080D01*
X125183900Y-106758740D02*
X125183900Y-111257080D01*
X117680740Y-107259120D02*
X117680740Y-106758740D01*
X115681760Y-107259120D02*
X117680740Y-107259120D01*
X115681760Y-110759240D02*
X115681760Y-107259120D01*
X124683520Y-107259120D02*
X124683520Y-110759240D01*
X122684540Y-107259120D02*
X124683520Y-107259120D01*
X122684540Y-106758740D02*
X122684540Y-107259120D01*
X124683520Y-107957620D02*
X125183900Y-107957620D01*
X124683520Y-109258100D02*
X125183900Y-109258100D01*
X115681760Y-109258100D02*
X115181380Y-109258100D01*
X115181380Y-107957620D02*
X115681760Y-107957620D01*
X118084600Y-110258860D02*
X118084600Y-110759240D01*
X118282720Y-110258860D02*
X118084600Y-110258860D01*
X118282720Y-110759240D02*
X118282720Y-110258860D01*
X122283220Y-110759240D02*
X122283220Y-110258860D01*
X122283220Y-110258860D02*
X122085100Y-110258860D01*
X122085100Y-110258860D02*
X122085100Y-110759240D01*
X125183900Y-106758740D02*
X115181380Y-106758740D01*
X115681760Y-110759240D02*
X124683520Y-110759240D01*
X125183900Y-111257080D02*
X115181380Y-111257080D01*
X120281700Y-110759240D02*
X120281700Y-110258860D01*
X120281700Y-110258860D02*
X120083580Y-110258860D01*
X120083580Y-110258860D02*
X120083580Y-110759240D01*
X126246760Y-59899920D02*
X126246760Y-59699260D01*
X126546480Y-59899920D02*
X126246760Y-59899920D01*
X126546480Y-59699260D02*
X126546480Y-59899920D01*
X138850240Y-59699260D02*
X138850240Y-55200920D01*
X124847220Y-59699260D02*
X124847220Y-55200920D01*
X136350880Y-59198880D02*
X136350880Y-59699260D01*
X138349860Y-59198880D02*
X136350880Y-59198880D01*
X138349860Y-55698760D02*
X138349860Y-59198880D01*
X125347600Y-59198880D02*
X125347600Y-55698760D01*
X127346580Y-59198880D02*
X125347600Y-59198880D01*
X127346580Y-59699260D02*
X127346580Y-59198880D01*
X125347600Y-58500380D02*
X124847220Y-58500380D01*
X125347600Y-57199900D02*
X124847220Y-57199900D01*
X138349860Y-57199900D02*
X138850240Y-57199900D01*
X138850240Y-58500380D02*
X138349860Y-58500380D01*
X131946520Y-56199140D02*
X131946520Y-55698760D01*
X131748400Y-56199140D02*
X131946520Y-56199140D01*
X131748400Y-55698760D02*
X131748400Y-56199140D01*
X127747900Y-55698760D02*
X127747900Y-56199140D01*
X127747900Y-56199140D02*
X127946020Y-56199140D01*
X127946020Y-56199140D02*
X127946020Y-55698760D01*
X129749420Y-55698760D02*
X129749420Y-56199140D01*
X129749420Y-56199140D02*
X129947540Y-56199140D01*
X129947540Y-56199140D02*
X129947540Y-55698760D01*
X135748900Y-55698760D02*
X135748900Y-56199140D01*
X135748900Y-56199140D02*
X135947020Y-56199140D01*
X135947020Y-56199140D02*
X135947020Y-55698760D01*
X133945500Y-56199140D02*
X133945500Y-55698760D01*
X133747380Y-56199140D02*
X133945500Y-56199140D01*
X133747380Y-55698760D02*
X133747380Y-56199140D01*
X138349860Y-55698760D02*
X125350140Y-55698760D01*
X124849760Y-55200920D02*
X138850240Y-55200920D01*
X138850240Y-59699260D02*
X124849760Y-59699260D01*
X119882920Y-91650760D02*
X119682260Y-91650760D01*
X119882920Y-91351040D02*
X119882920Y-91650760D01*
X119682260Y-91351040D02*
X119882920Y-91351040D01*
X119682260Y-75046780D02*
X115183920Y-75046780D01*
X119682260Y-93050300D02*
X115183920Y-93050300D01*
X119181880Y-77546140D02*
X119682260Y-77546140D01*
X119181880Y-75547160D02*
X119181880Y-77546140D01*
X115681760Y-75547160D02*
X119181880Y-75547160D01*
X119181880Y-92549920D02*
X115681760Y-92549920D01*
X119181880Y-90550940D02*
X119181880Y-92549920D01*
X119682260Y-90550940D02*
X119181880Y-90550940D01*
X118483380Y-92549920D02*
X118483380Y-93050300D01*
X117182900Y-92549920D02*
X117182900Y-93050300D01*
X117182900Y-75547160D02*
X117182900Y-75046780D01*
X118483380Y-75046780D02*
X118483380Y-75547160D01*
X116182140Y-85951000D02*
X115681760Y-85951000D01*
X116182140Y-86149120D02*
X116182140Y-85951000D01*
X115681760Y-86149120D02*
X116182140Y-86149120D01*
X115681760Y-90149620D02*
X116182140Y-90149620D01*
X116182140Y-90149620D02*
X116182140Y-89951500D01*
X116182140Y-89951500D02*
X115681760Y-89951500D01*
X115681760Y-88148100D02*
X116182140Y-88148100D01*
X116182140Y-88148100D02*
X116182140Y-87949980D01*
X116182140Y-87949980D02*
X115681760Y-87949980D01*
X115681760Y-80147100D02*
X116182140Y-80147100D01*
X116182140Y-80147100D02*
X116182140Y-79948980D01*
X116182140Y-79948980D02*
X115681760Y-79948980D01*
X116182140Y-83952020D02*
X115681760Y-83952020D01*
X116182140Y-84150140D02*
X116182140Y-83952020D01*
X115681760Y-84150140D02*
X116182140Y-84150140D01*
X116182140Y-77950000D02*
X115681760Y-77950000D01*
X116182140Y-78148120D02*
X116182140Y-77950000D01*
X115681760Y-78148120D02*
X116182140Y-78148120D01*
X116182140Y-81947960D02*
X115681760Y-81947960D01*
X116182140Y-82146080D02*
X116182140Y-81947960D01*
X115681760Y-82146080D02*
X116182140Y-82146080D01*
X119682260Y-93045220D02*
X119682260Y-75046780D01*
X115681760Y-75547160D02*
X115681760Y-92544840D01*
X115183920Y-93045220D02*
X115183920Y-75046780D01*
X119882920Y-73148480D02*
X119682260Y-73148480D01*
X119882920Y-72848760D02*
X119882920Y-73148480D01*
X119682260Y-72848760D02*
X119882920Y-72848760D01*
X119682260Y-62546520D02*
X115183920Y-62546520D01*
X119682260Y-74548020D02*
X115183920Y-74548020D01*
X119181880Y-65045880D02*
X119682260Y-65045880D01*
X119181880Y-63046900D02*
X119181880Y-65045880D01*
X115681760Y-63046900D02*
X119181880Y-63046900D01*
X119181880Y-74047640D02*
X115681760Y-74047640D01*
X119181880Y-72048660D02*
X119181880Y-74047640D01*
X119682260Y-72048660D02*
X119181880Y-72048660D01*
X118483380Y-74047640D02*
X118483380Y-74548020D01*
X117182900Y-74047640D02*
X117182900Y-74548020D01*
X117182900Y-63046900D02*
X117182900Y-62546520D01*
X118483380Y-62546520D02*
X118483380Y-63046900D01*
X116182140Y-67448720D02*
X115681760Y-67448720D01*
X116182140Y-67646840D02*
X116182140Y-67448720D01*
X115681760Y-67646840D02*
X116182140Y-67646840D01*
X115681760Y-71647340D02*
X116182140Y-71647340D01*
X116182140Y-71647340D02*
X116182140Y-71449220D01*
X116182140Y-71449220D02*
X115681760Y-71449220D01*
X115681760Y-69645820D02*
X116182140Y-69645820D01*
X116182140Y-69645820D02*
X116182140Y-69447700D01*
X116182140Y-69447700D02*
X115681760Y-69447700D01*
X115681760Y-65647860D02*
X116182140Y-65647860D01*
X116182140Y-65647860D02*
X116182140Y-65449740D01*
X116182140Y-65449740D02*
X115681760Y-65449740D01*
X115183920Y-62546520D02*
X115183920Y-74545480D01*
X115681760Y-74045100D02*
X115681760Y-63046900D01*
X119682260Y-62546520D02*
X119682260Y-74545480D01*
D13*
X147914500Y-55485000D02*
X142314500Y-55485000D01*
X147914500Y-60085000D02*
X147914500Y-55485000D01*
X142314500Y-60085000D02*
X147914500Y-60085000D01*
X142314500Y-55485000D02*
X142314500Y-60085000D01*
X160534000Y-55485000D02*
X154934000Y-55485000D01*
X160534000Y-60085000D02*
X160534000Y-55485000D01*
X154934000Y-60085000D02*
X160534000Y-60085000D01*
X154934000Y-55485000D02*
X154934000Y-60085000D01*
X167634000Y-55485000D02*
X167634000Y-60085000D01*
X167634000Y-60085000D02*
X173234000Y-60085000D01*
X173234000Y-60085000D02*
X173234000Y-55485000D01*
X173234000Y-55485000D02*
X167634000Y-55485000D01*
X154434000Y-84000000D02*
X154434000Y-89600000D01*
X161034000Y-84000000D02*
X154434000Y-84000000D01*
X161034000Y-89600000D02*
X161034000Y-84000000D01*
X154434000Y-89600000D02*
X161034000Y-89600000D01*
X132115000Y-91979000D02*
X132115000Y-92679000D01*
X133315000Y-92679000D02*
X133315000Y-91979000D01*
X129067000Y-91979000D02*
X129067000Y-92679000D01*
X130267000Y-92679000D02*
X130267000Y-91979000D01*
X125892000Y-91852000D02*
X125892000Y-92552000D01*
X127092000Y-92552000D02*
X127092000Y-91852000D01*
X137548000Y-109281000D02*
X137548000Y-109981000D01*
X138748000Y-109981000D02*
X138748000Y-109281000D01*
X120812000Y-85629000D02*
X120812000Y-86329000D01*
X122012000Y-86329000D02*
X122012000Y-85629000D01*
X125892000Y-88804000D02*
X125892000Y-89504000D01*
X127092000Y-89504000D02*
X127092000Y-88804000D01*
X123579000Y-98592000D02*
X124579000Y-98592000D01*
X124579000Y-97242000D02*
X123579000Y-97242000D01*
X131866000Y-92829000D02*
X131866000Y-91829000D01*
X130516000Y-91829000D02*
X130516000Y-92829000D01*
X127468000Y-91817000D02*
X127468000Y-92817000D01*
X128818000Y-92817000D02*
X128818000Y-91817000D01*
D14*
X131678000Y-102982000D02*
X131678000Y-114502000D01*
X136998000Y-102982000D02*
X131678000Y-102982000D01*
X136998000Y-102982000D02*
X136998000Y-114502000D01*
X136998000Y-114502000D02*
X131678000Y-114502000D01*
X137158000Y-102822000D02*
X136158000Y-102822000D01*
X137158000Y-102822000D02*
X137158000Y-103822000D01*
X128021000Y-75965000D02*
X128021000Y-77225000D01*
X128021000Y-82785000D02*
X128021000Y-81525000D01*
X124261000Y-75965000D02*
X128021000Y-75965000D01*
X122011000Y-82785000D02*
X128021000Y-82785000D01*
X136895000Y-82464000D02*
X138695000Y-82464000D01*
X138695000Y-85684000D02*
X136245000Y-85684000D01*
X123179000Y-84496000D02*
X124979000Y-84496000D01*
X124979000Y-87716000D02*
X122529000Y-87716000D01*
X125689000Y-89524000D02*
X125689000Y-91974000D01*
X122469000Y-91324000D02*
X122469000Y-89524000D01*
X137556000Y-90135320D02*
X132256000Y-90135320D01*
X137556000Y-86435320D02*
X137556000Y-90135320D01*
D10*
X120897952Y-59157809D02*
X120897952Y-59569047D01*
X120873761Y-59617428D01*
X120849571Y-59641619D01*
X120801190Y-59665809D01*
X120704428Y-59665809D01*
X120656047Y-59641619D01*
X120631857Y-59617428D01*
X120607666Y-59569047D01*
X120607666Y-59157809D01*
X120099666Y-59665809D02*
X120389952Y-59665809D01*
X120244809Y-59665809D02*
X120244809Y-59157809D01*
X120293190Y-59230380D01*
X120341571Y-59278761D01*
X120389952Y-59302952D01*
X119615857Y-59665809D02*
X119906142Y-59665809D01*
X119761000Y-59665809D02*
X119761000Y-59157809D01*
X119809380Y-59230380D01*
X119857761Y-59278761D01*
X119906142Y-59302952D01*
X128626809Y-100924547D02*
X128118809Y-100924547D01*
X128118809Y-101045500D01*
X128143000Y-101118071D01*
X128191380Y-101166452D01*
X128239761Y-101190642D01*
X128336523Y-101214833D01*
X128409095Y-101214833D01*
X128505857Y-101190642D01*
X128554238Y-101166452D01*
X128602619Y-101118071D01*
X128626809Y-101045500D01*
X128626809Y-100924547D01*
X128118809Y-101384166D02*
X128118809Y-101698642D01*
X128312333Y-101529309D01*
X128312333Y-101601880D01*
X128336523Y-101650261D01*
X128360714Y-101674452D01*
X128409095Y-101698642D01*
X128530047Y-101698642D01*
X128578428Y-101674452D01*
X128602619Y-101650261D01*
X128626809Y-101601880D01*
X128626809Y-101456738D01*
X128602619Y-101408357D01*
X128578428Y-101384166D01*
X128626809Y-98685047D02*
X128118809Y-98685047D01*
X128118809Y-98806000D01*
X128143000Y-98878571D01*
X128191380Y-98926952D01*
X128239761Y-98951142D01*
X128336523Y-98975333D01*
X128409095Y-98975333D01*
X128505857Y-98951142D01*
X128554238Y-98926952D01*
X128602619Y-98878571D01*
X128626809Y-98806000D01*
X128626809Y-98685047D01*
X128626809Y-99459142D02*
X128626809Y-99168857D01*
X128626809Y-99314000D02*
X128118809Y-99314000D01*
X128191380Y-99265619D01*
X128239761Y-99217238D01*
X128263952Y-99168857D01*
X128626809Y-99828047D02*
X128118809Y-99828047D01*
X128118809Y-99949000D01*
X128143000Y-100021571D01*
X128191380Y-100069952D01*
X128239761Y-100094142D01*
X128336523Y-100118333D01*
X128409095Y-100118333D01*
X128505857Y-100094142D01*
X128554238Y-100069952D01*
X128602619Y-100021571D01*
X128626809Y-99949000D01*
X128626809Y-99828047D01*
X128167190Y-100311857D02*
X128143000Y-100336047D01*
X128118809Y-100384428D01*
X128118809Y-100505380D01*
X128143000Y-100553761D01*
X128167190Y-100577952D01*
X128215571Y-100602142D01*
X128263952Y-100602142D01*
X128336523Y-100577952D01*
X128626809Y-100287666D01*
X128626809Y-100602142D01*
X128626809Y-97542047D02*
X128118809Y-97542047D01*
X128118809Y-97663000D01*
X128143000Y-97735571D01*
X128191380Y-97783952D01*
X128239761Y-97808142D01*
X128336523Y-97832333D01*
X128409095Y-97832333D01*
X128505857Y-97808142D01*
X128554238Y-97783952D01*
X128602619Y-97735571D01*
X128626809Y-97663000D01*
X128626809Y-97542047D01*
X128118809Y-98267761D02*
X128118809Y-98171000D01*
X128143000Y-98122619D01*
X128167190Y-98098428D01*
X128239761Y-98050047D01*
X128336523Y-98025857D01*
X128530047Y-98025857D01*
X128578428Y-98050047D01*
X128602619Y-98074238D01*
X128626809Y-98122619D01*
X128626809Y-98219380D01*
X128602619Y-98267761D01*
X128578428Y-98291952D01*
X128530047Y-98316142D01*
X128409095Y-98316142D01*
X128360714Y-98291952D01*
X128336523Y-98267761D01*
X128312333Y-98219380D01*
X128312333Y-98122619D01*
X128336523Y-98074238D01*
X128360714Y-98050047D01*
X128409095Y-98025857D01*
X128249809Y-106318047D02*
X127741809Y-106318047D01*
X127741809Y-106511571D01*
X127766000Y-106559952D01*
X127790190Y-106584142D01*
X127838571Y-106608333D01*
X127911142Y-106608333D01*
X127959523Y-106584142D01*
X127983714Y-106559952D01*
X128007904Y-106511571D01*
X128007904Y-106318047D01*
X128249809Y-107092142D02*
X128249809Y-106801857D01*
X128249809Y-106947000D02*
X127741809Y-106947000D01*
X127814380Y-106898619D01*
X127862761Y-106850238D01*
X127886952Y-106801857D01*
X145390809Y-65205428D02*
X145148904Y-65036095D01*
X145390809Y-64915142D02*
X144882809Y-64915142D01*
X144882809Y-65108666D01*
X144907000Y-65157047D01*
X144931190Y-65181238D01*
X144979571Y-65205428D01*
X145052142Y-65205428D01*
X145100523Y-65181238D01*
X145124714Y-65157047D01*
X145148904Y-65108666D01*
X145148904Y-64915142D01*
X144931190Y-65398952D02*
X144907000Y-65423142D01*
X144882809Y-65471523D01*
X144882809Y-65592476D01*
X144907000Y-65640857D01*
X144931190Y-65665047D01*
X144979571Y-65689238D01*
X145027952Y-65689238D01*
X145100523Y-65665047D01*
X145390809Y-65374761D01*
X145390809Y-65689238D01*
X145052142Y-66124666D02*
X145390809Y-66124666D01*
X144858619Y-66003714D02*
X145221476Y-65882761D01*
X145221476Y-66197238D01*
X170663809Y-65205428D02*
X170421904Y-65036095D01*
X170663809Y-64915142D02*
X170155809Y-64915142D01*
X170155809Y-65108666D01*
X170180000Y-65157047D01*
X170204190Y-65181238D01*
X170252571Y-65205428D01*
X170325142Y-65205428D01*
X170373523Y-65181238D01*
X170397714Y-65157047D01*
X170421904Y-65108666D01*
X170421904Y-64915142D01*
X170155809Y-65374761D02*
X170155809Y-65689238D01*
X170349333Y-65519904D01*
X170349333Y-65592476D01*
X170373523Y-65640857D01*
X170397714Y-65665047D01*
X170446095Y-65689238D01*
X170567047Y-65689238D01*
X170615428Y-65665047D01*
X170639619Y-65640857D01*
X170663809Y-65592476D01*
X170663809Y-65447333D01*
X170639619Y-65398952D01*
X170615428Y-65374761D01*
X170204190Y-65882761D02*
X170180000Y-65906952D01*
X170155809Y-65955333D01*
X170155809Y-66076285D01*
X170180000Y-66124666D01*
X170204190Y-66148857D01*
X170252571Y-66173047D01*
X170300952Y-66173047D01*
X170373523Y-66148857D01*
X170663809Y-65858571D01*
X170663809Y-66173047D01*
X157963809Y-65078428D02*
X157721904Y-64909095D01*
X157963809Y-64788142D02*
X157455809Y-64788142D01*
X157455809Y-64981666D01*
X157480000Y-65030047D01*
X157504190Y-65054238D01*
X157552571Y-65078428D01*
X157625142Y-65078428D01*
X157673523Y-65054238D01*
X157697714Y-65030047D01*
X157721904Y-64981666D01*
X157721904Y-64788142D01*
X157504190Y-65271952D02*
X157480000Y-65296142D01*
X157455809Y-65344523D01*
X157455809Y-65465476D01*
X157480000Y-65513857D01*
X157504190Y-65538047D01*
X157552571Y-65562238D01*
X157600952Y-65562238D01*
X157673523Y-65538047D01*
X157963809Y-65247761D01*
X157963809Y-65562238D01*
X157963809Y-65804142D02*
X157963809Y-65900904D01*
X157939619Y-65949285D01*
X157915428Y-65973476D01*
X157842857Y-66021857D01*
X157746095Y-66046047D01*
X157552571Y-66046047D01*
X157504190Y-66021857D01*
X157480000Y-65997666D01*
X157455809Y-65949285D01*
X157455809Y-65852523D01*
X157480000Y-65804142D01*
X157504190Y-65779952D01*
X157552571Y-65755761D01*
X157673523Y-65755761D01*
X157721904Y-65779952D01*
X157746095Y-65804142D01*
X157770285Y-65852523D01*
X157770285Y-65949285D01*
X157746095Y-65997666D01*
X157721904Y-66021857D01*
X157673523Y-66046047D01*
X128578428Y-69015428D02*
X128602619Y-68991238D01*
X128626809Y-68918666D01*
X128626809Y-68870285D01*
X128602619Y-68797714D01*
X128554238Y-68749333D01*
X128505857Y-68725142D01*
X128409095Y-68700952D01*
X128336523Y-68700952D01*
X128239761Y-68725142D01*
X128191380Y-68749333D01*
X128143000Y-68797714D01*
X128118809Y-68870285D01*
X128118809Y-68918666D01*
X128143000Y-68991238D01*
X128167190Y-69015428D01*
X128167190Y-69208952D02*
X128143000Y-69233142D01*
X128118809Y-69281523D01*
X128118809Y-69402476D01*
X128143000Y-69450857D01*
X128167190Y-69475047D01*
X128215571Y-69499238D01*
X128263952Y-69499238D01*
X128336523Y-69475047D01*
X128626809Y-69184761D01*
X128626809Y-69499238D01*
X128626809Y-69983047D02*
X128626809Y-69692761D01*
X128626809Y-69837904D02*
X128118809Y-69837904D01*
X128191380Y-69789523D01*
X128239761Y-69741142D01*
X128263952Y-69692761D01*
X138786809Y-65398952D02*
X139198047Y-65398952D01*
X139246428Y-65423142D01*
X139270619Y-65447333D01*
X139294809Y-65495714D01*
X139294809Y-65592476D01*
X139270619Y-65640857D01*
X139246428Y-65665047D01*
X139198047Y-65689238D01*
X138786809Y-65689238D01*
X138786809Y-66173047D02*
X138786809Y-65931142D01*
X139028714Y-65906952D01*
X139004523Y-65931142D01*
X138980333Y-65979523D01*
X138980333Y-66100476D01*
X139004523Y-66148857D01*
X139028714Y-66173047D01*
X139077095Y-66197238D01*
X139198047Y-66197238D01*
X139246428Y-66173047D01*
X139270619Y-66148857D01*
X139294809Y-66100476D01*
X139294809Y-65979523D01*
X139270619Y-65931142D01*
X139246428Y-65906952D01*
X134341809Y-62808152D02*
X134753047Y-62808152D01*
X134801428Y-62832342D01*
X134825619Y-62856533D01*
X134849809Y-62904914D01*
X134849809Y-63001676D01*
X134825619Y-63050057D01*
X134801428Y-63074247D01*
X134753047Y-63098438D01*
X134341809Y-63098438D01*
X134341809Y-63558057D02*
X134341809Y-63461295D01*
X134366000Y-63412914D01*
X134390190Y-63388723D01*
X134462761Y-63340342D01*
X134559523Y-63316152D01*
X134753047Y-63316152D01*
X134801428Y-63340342D01*
X134825619Y-63364533D01*
X134849809Y-63412914D01*
X134849809Y-63509676D01*
X134825619Y-63558057D01*
X134801428Y-63582247D01*
X134753047Y-63606438D01*
X134632095Y-63606438D01*
X134583714Y-63582247D01*
X134559523Y-63558057D01*
X134535333Y-63509676D01*
X134535333Y-63412914D01*
X134559523Y-63364533D01*
X134583714Y-63340342D01*
X134632095Y-63316152D01*
X128499809Y-63951152D02*
X128911047Y-63951152D01*
X128959428Y-63975342D01*
X128983619Y-63999533D01*
X129007809Y-64047914D01*
X129007809Y-64144676D01*
X128983619Y-64193057D01*
X128959428Y-64217247D01*
X128911047Y-64241438D01*
X128499809Y-64241438D01*
X128499809Y-64434961D02*
X128499809Y-64773628D01*
X129007809Y-64555914D01*
X143709571Y-77079928D02*
X143733761Y-77104119D01*
X143806333Y-77128309D01*
X143854714Y-77128309D01*
X143927285Y-77104119D01*
X143975666Y-77055738D01*
X143999857Y-77007357D01*
X144024047Y-76910595D01*
X144024047Y-76838023D01*
X143999857Y-76741261D01*
X143975666Y-76692880D01*
X143927285Y-76644500D01*
X143854714Y-76620309D01*
X143806333Y-76620309D01*
X143733761Y-76644500D01*
X143709571Y-76668690D01*
X143540238Y-76620309D02*
X143225761Y-76620309D01*
X143395095Y-76813833D01*
X143322523Y-76813833D01*
X143274142Y-76838023D01*
X143249952Y-76862214D01*
X143225761Y-76910595D01*
X143225761Y-77031547D01*
X143249952Y-77079928D01*
X143274142Y-77104119D01*
X143322523Y-77128309D01*
X143467666Y-77128309D01*
X143516047Y-77104119D01*
X143540238Y-77079928D01*
X143056428Y-76620309D02*
X142717761Y-76620309D01*
X142935476Y-77128309D01*
X147011571Y-77055928D02*
X147035761Y-77080119D01*
X147108333Y-77104309D01*
X147156714Y-77104309D01*
X147229285Y-77080119D01*
X147277666Y-77031738D01*
X147301857Y-76983357D01*
X147326047Y-76886595D01*
X147326047Y-76814023D01*
X147301857Y-76717261D01*
X147277666Y-76668880D01*
X147229285Y-76620500D01*
X147156714Y-76596309D01*
X147108333Y-76596309D01*
X147035761Y-76620500D01*
X147011571Y-76644690D01*
X146842238Y-76596309D02*
X146527761Y-76596309D01*
X146697095Y-76789833D01*
X146624523Y-76789833D01*
X146576142Y-76814023D01*
X146551952Y-76838214D01*
X146527761Y-76886595D01*
X146527761Y-77007547D01*
X146551952Y-77055928D01*
X146576142Y-77080119D01*
X146624523Y-77104309D01*
X146769666Y-77104309D01*
X146818047Y-77080119D01*
X146842238Y-77055928D01*
X146285857Y-77104309D02*
X146189095Y-77104309D01*
X146140714Y-77080119D01*
X146116523Y-77055928D01*
X146068142Y-76983357D01*
X146043952Y-76886595D01*
X146043952Y-76693071D01*
X146068142Y-76644690D01*
X146092333Y-76620500D01*
X146140714Y-76596309D01*
X146237476Y-76596309D01*
X146285857Y-76620500D01*
X146310047Y-76644690D01*
X146334238Y-76693071D01*
X146334238Y-76814023D01*
X146310047Y-76862404D01*
X146285857Y-76886595D01*
X146237476Y-76910785D01*
X146140714Y-76910785D01*
X146092333Y-76886595D01*
X146068142Y-76862404D01*
X146043952Y-76814023D01*
X159711571Y-77079928D02*
X159735761Y-77104119D01*
X159808333Y-77128309D01*
X159856714Y-77128309D01*
X159929285Y-77104119D01*
X159977666Y-77055738D01*
X160001857Y-77007357D01*
X160026047Y-76910595D01*
X160026047Y-76838023D01*
X160001857Y-76741261D01*
X159977666Y-76692880D01*
X159929285Y-76644500D01*
X159856714Y-76620309D01*
X159808333Y-76620309D01*
X159735761Y-76644500D01*
X159711571Y-76668690D01*
X159276142Y-76789642D02*
X159276142Y-77128309D01*
X159397095Y-76596119D02*
X159518047Y-76958976D01*
X159203571Y-76958976D01*
X158913285Y-76620309D02*
X158864904Y-76620309D01*
X158816523Y-76644500D01*
X158792333Y-76668690D01*
X158768142Y-76717071D01*
X158743952Y-76813833D01*
X158743952Y-76934785D01*
X158768142Y-77031547D01*
X158792333Y-77079928D01*
X158816523Y-77104119D01*
X158864904Y-77128309D01*
X158913285Y-77128309D01*
X158961666Y-77104119D01*
X158985857Y-77079928D01*
X159010047Y-77031547D01*
X159034238Y-76934785D01*
X159034238Y-76813833D01*
X159010047Y-76717071D01*
X158985857Y-76668690D01*
X158961666Y-76644500D01*
X158913285Y-76620309D01*
X156536571Y-77079928D02*
X156560761Y-77104119D01*
X156633333Y-77128309D01*
X156681714Y-77128309D01*
X156754285Y-77104119D01*
X156802666Y-77055738D01*
X156826857Y-77007357D01*
X156851047Y-76910595D01*
X156851047Y-76838023D01*
X156826857Y-76741261D01*
X156802666Y-76692880D01*
X156754285Y-76644500D01*
X156681714Y-76620309D01*
X156633333Y-76620309D01*
X156560761Y-76644500D01*
X156536571Y-76668690D01*
X156101142Y-76789642D02*
X156101142Y-77128309D01*
X156222095Y-76596119D02*
X156343047Y-76958976D01*
X156028571Y-76958976D01*
X155568952Y-77128309D02*
X155859238Y-77128309D01*
X155714095Y-77128309D02*
X155714095Y-76620309D01*
X155762476Y-76692880D01*
X155810857Y-76741261D01*
X155859238Y-76765452D01*
X169109571Y-77079928D02*
X169133761Y-77104119D01*
X169206333Y-77128309D01*
X169254714Y-77128309D01*
X169327285Y-77104119D01*
X169375666Y-77055738D01*
X169399857Y-77007357D01*
X169424047Y-76910595D01*
X169424047Y-76838023D01*
X169399857Y-76741261D01*
X169375666Y-76692880D01*
X169327285Y-76644500D01*
X169254714Y-76620309D01*
X169206333Y-76620309D01*
X169133761Y-76644500D01*
X169109571Y-76668690D01*
X168674142Y-76789642D02*
X168674142Y-77128309D01*
X168795095Y-76596119D02*
X168916047Y-76958976D01*
X168601571Y-76958976D01*
X168456428Y-76620309D02*
X168141952Y-76620309D01*
X168311285Y-76813833D01*
X168238714Y-76813833D01*
X168190333Y-76838023D01*
X168166142Y-76862214D01*
X168141952Y-76910595D01*
X168141952Y-77031547D01*
X168166142Y-77079928D01*
X168190333Y-77104119D01*
X168238714Y-77128309D01*
X168383857Y-77128309D01*
X168432238Y-77104119D01*
X168456428Y-77079928D01*
X172284571Y-77079928D02*
X172308761Y-77104119D01*
X172381333Y-77128309D01*
X172429714Y-77128309D01*
X172502285Y-77104119D01*
X172550666Y-77055738D01*
X172574857Y-77007357D01*
X172599047Y-76910595D01*
X172599047Y-76838023D01*
X172574857Y-76741261D01*
X172550666Y-76692880D01*
X172502285Y-76644500D01*
X172429714Y-76620309D01*
X172381333Y-76620309D01*
X172308761Y-76644500D01*
X172284571Y-76668690D01*
X171849142Y-76789642D02*
X171849142Y-77128309D01*
X171970095Y-76596119D02*
X172091047Y-76958976D01*
X171776571Y-76958976D01*
X171365333Y-76789642D02*
X171365333Y-77128309D01*
X171486285Y-76596119D02*
X171607238Y-76958976D01*
X171292761Y-76958976D01*
X124562809Y-102785333D02*
X124320904Y-102616000D01*
X124562809Y-102495047D02*
X124054809Y-102495047D01*
X124054809Y-102688571D01*
X124079000Y-102736952D01*
X124103190Y-102761142D01*
X124151571Y-102785333D01*
X124224142Y-102785333D01*
X124272523Y-102761142D01*
X124296714Y-102736952D01*
X124320904Y-102688571D01*
X124320904Y-102495047D01*
X124562809Y-103269142D02*
X124562809Y-102978857D01*
X124562809Y-103124000D02*
X124054809Y-103124000D01*
X124127380Y-103075619D01*
X124175761Y-103027238D01*
X124199952Y-102978857D01*
X122907509Y-100581633D02*
X122665604Y-100412300D01*
X122907509Y-100291347D02*
X122399509Y-100291347D01*
X122399509Y-100484871D01*
X122423700Y-100533252D01*
X122447890Y-100557442D01*
X122496271Y-100581633D01*
X122568842Y-100581633D01*
X122617223Y-100557442D01*
X122641414Y-100533252D01*
X122665604Y-100484871D01*
X122665604Y-100291347D01*
X122447890Y-100775157D02*
X122423700Y-100799347D01*
X122399509Y-100847728D01*
X122399509Y-100968680D01*
X122423700Y-101017061D01*
X122447890Y-101041252D01*
X122496271Y-101065442D01*
X122544652Y-101065442D01*
X122617223Y-101041252D01*
X122907509Y-100750966D01*
X122907509Y-101065442D01*
X121514809Y-100569633D02*
X121272904Y-100400300D01*
X121514809Y-100279347D02*
X121006809Y-100279347D01*
X121006809Y-100472871D01*
X121031000Y-100521252D01*
X121055190Y-100545442D01*
X121103571Y-100569633D01*
X121176142Y-100569633D01*
X121224523Y-100545442D01*
X121248714Y-100521252D01*
X121272904Y-100472871D01*
X121272904Y-100279347D01*
X121006809Y-100738966D02*
X121006809Y-101053442D01*
X121200333Y-100884109D01*
X121200333Y-100956680D01*
X121224523Y-101005061D01*
X121248714Y-101029252D01*
X121297095Y-101053442D01*
X121418047Y-101053442D01*
X121466428Y-101029252D01*
X121490619Y-101005061D01*
X121514809Y-100956680D01*
X121514809Y-100811538D01*
X121490619Y-100763157D01*
X121466428Y-100738966D01*
X119845666Y-96546609D02*
X120015000Y-96304704D01*
X120135952Y-96546609D02*
X120135952Y-96038609D01*
X119942428Y-96038609D01*
X119894047Y-96062800D01*
X119869857Y-96086990D01*
X119845666Y-96135371D01*
X119845666Y-96207942D01*
X119869857Y-96256323D01*
X119894047Y-96280514D01*
X119942428Y-96304704D01*
X120135952Y-96304704D01*
X119410238Y-96038609D02*
X119507000Y-96038609D01*
X119555380Y-96062800D01*
X119579571Y-96086990D01*
X119627952Y-96159561D01*
X119652142Y-96256323D01*
X119652142Y-96449847D01*
X119627952Y-96498228D01*
X119603761Y-96522419D01*
X119555380Y-96546609D01*
X119458619Y-96546609D01*
X119410238Y-96522419D01*
X119386047Y-96498228D01*
X119361857Y-96449847D01*
X119361857Y-96328895D01*
X119386047Y-96280514D01*
X119410238Y-96256323D01*
X119458619Y-96232133D01*
X119555380Y-96232133D01*
X119603761Y-96256323D01*
X119627952Y-96280514D01*
X119652142Y-96328895D01*
X134722809Y-83042428D02*
X134480904Y-82873095D01*
X134722809Y-82752142D02*
X134214809Y-82752142D01*
X134214809Y-82945666D01*
X134239000Y-82994047D01*
X134263190Y-83018238D01*
X134311571Y-83042428D01*
X134384142Y-83042428D01*
X134432523Y-83018238D01*
X134456714Y-82994047D01*
X134480904Y-82945666D01*
X134480904Y-82752142D01*
X134722809Y-83526238D02*
X134722809Y-83235952D01*
X134722809Y-83381095D02*
X134214809Y-83381095D01*
X134287380Y-83332714D01*
X134335761Y-83284333D01*
X134359952Y-83235952D01*
X134214809Y-83985857D02*
X134214809Y-83743952D01*
X134456714Y-83719761D01*
X134432523Y-83743952D01*
X134408333Y-83792333D01*
X134408333Y-83913285D01*
X134432523Y-83961666D01*
X134456714Y-83985857D01*
X134505095Y-84010047D01*
X134626047Y-84010047D01*
X134674428Y-83985857D01*
X134698619Y-83961666D01*
X134722809Y-83913285D01*
X134722809Y-83792333D01*
X134698619Y-83743952D01*
X134674428Y-83719761D01*
X130785809Y-83112428D02*
X130543904Y-82943095D01*
X130785809Y-82822142D02*
X130277809Y-82822142D01*
X130277809Y-83015666D01*
X130302000Y-83064047D01*
X130326190Y-83088238D01*
X130374571Y-83112428D01*
X130447142Y-83112428D01*
X130495523Y-83088238D01*
X130519714Y-83064047D01*
X130543904Y-83015666D01*
X130543904Y-82822142D01*
X130785809Y-83596238D02*
X130785809Y-83305952D01*
X130785809Y-83451095D02*
X130277809Y-83451095D01*
X130350380Y-83402714D01*
X130398761Y-83354333D01*
X130422952Y-83305952D01*
X130277809Y-84031666D02*
X130277809Y-83934904D01*
X130302000Y-83886523D01*
X130326190Y-83862333D01*
X130398761Y-83813952D01*
X130495523Y-83789761D01*
X130689047Y-83789761D01*
X130737428Y-83813952D01*
X130761619Y-83838142D01*
X130785809Y-83886523D01*
X130785809Y-83983285D01*
X130761619Y-84031666D01*
X130737428Y-84055857D01*
X130689047Y-84080047D01*
X130568095Y-84080047D01*
X130519714Y-84055857D01*
X130495523Y-84031666D01*
X130471333Y-83983285D01*
X130471333Y-83886523D01*
X130495523Y-83838142D01*
X130519714Y-83813952D01*
X130568095Y-83789761D01*
X133919509Y-71098228D02*
X133677604Y-70928895D01*
X133919509Y-70807942D02*
X133411509Y-70807942D01*
X133411509Y-71001466D01*
X133435700Y-71049847D01*
X133459890Y-71074038D01*
X133508271Y-71098228D01*
X133580842Y-71098228D01*
X133629223Y-71074038D01*
X133653414Y-71049847D01*
X133677604Y-71001466D01*
X133677604Y-70807942D01*
X133919509Y-71582038D02*
X133919509Y-71291752D01*
X133919509Y-71436895D02*
X133411509Y-71436895D01*
X133484080Y-71388514D01*
X133532461Y-71340133D01*
X133556652Y-71291752D01*
X133411509Y-71751371D02*
X133411509Y-72090038D01*
X133919509Y-71872323D01*
X133919509Y-72622228D02*
X133677604Y-72452895D01*
X133919509Y-72331942D02*
X133411509Y-72331942D01*
X133411509Y-72525466D01*
X133435700Y-72573847D01*
X133459890Y-72598038D01*
X133508271Y-72622228D01*
X133580842Y-72622228D01*
X133629223Y-72598038D01*
X133653414Y-72573847D01*
X133677604Y-72525466D01*
X133677604Y-72331942D01*
X133919509Y-73106038D02*
X133919509Y-72815752D01*
X133919509Y-72960895D02*
X133411509Y-72960895D01*
X133484080Y-72912514D01*
X133532461Y-72864133D01*
X133556652Y-72815752D01*
X133629223Y-73396323D02*
X133605033Y-73347942D01*
X133580842Y-73323752D01*
X133532461Y-73299561D01*
X133508271Y-73299561D01*
X133459890Y-73323752D01*
X133435700Y-73347942D01*
X133411509Y-73396323D01*
X133411509Y-73493085D01*
X133435700Y-73541466D01*
X133459890Y-73565657D01*
X133508271Y-73589847D01*
X133532461Y-73589847D01*
X133580842Y-73565657D01*
X133605033Y-73541466D01*
X133629223Y-73493085D01*
X133629223Y-73396323D01*
X133653414Y-73347942D01*
X133677604Y-73323752D01*
X133725985Y-73299561D01*
X133822747Y-73299561D01*
X133871128Y-73323752D01*
X133895319Y-73347942D01*
X133919509Y-73396323D01*
X133919509Y-73493085D01*
X133895319Y-73541466D01*
X133871128Y-73565657D01*
X133822747Y-73589847D01*
X133725985Y-73589847D01*
X133677604Y-73565657D01*
X133653414Y-73541466D01*
X133629223Y-73493085D01*
X133919509Y-74146228D02*
X133677604Y-73976895D01*
X133919509Y-73855942D02*
X133411509Y-73855942D01*
X133411509Y-74049466D01*
X133435700Y-74097847D01*
X133459890Y-74122038D01*
X133508271Y-74146228D01*
X133580842Y-74146228D01*
X133629223Y-74122038D01*
X133653414Y-74097847D01*
X133677604Y-74049466D01*
X133677604Y-73855942D01*
X133919509Y-74630038D02*
X133919509Y-74339752D01*
X133919509Y-74484895D02*
X133411509Y-74484895D01*
X133484080Y-74436514D01*
X133532461Y-74388133D01*
X133556652Y-74339752D01*
X133919509Y-74871942D02*
X133919509Y-74968704D01*
X133895319Y-75017085D01*
X133871128Y-75041276D01*
X133798557Y-75089657D01*
X133701795Y-75113847D01*
X133508271Y-75113847D01*
X133459890Y-75089657D01*
X133435700Y-75065466D01*
X133411509Y-75017085D01*
X133411509Y-74920323D01*
X133435700Y-74871942D01*
X133459890Y-74847752D01*
X133508271Y-74823561D01*
X133629223Y-74823561D01*
X133677604Y-74847752D01*
X133701795Y-74871942D01*
X133725985Y-74920323D01*
X133725985Y-75017085D01*
X133701795Y-75065466D01*
X133677604Y-75089657D01*
X133629223Y-75113847D01*
X133919509Y-75670228D02*
X133677604Y-75500895D01*
X133919509Y-75379942D02*
X133411509Y-75379942D01*
X133411509Y-75573466D01*
X133435700Y-75621847D01*
X133459890Y-75646038D01*
X133508271Y-75670228D01*
X133580842Y-75670228D01*
X133629223Y-75646038D01*
X133653414Y-75621847D01*
X133677604Y-75573466D01*
X133677604Y-75379942D01*
X133459890Y-75863752D02*
X133435700Y-75887942D01*
X133411509Y-75936323D01*
X133411509Y-76057276D01*
X133435700Y-76105657D01*
X133459890Y-76129847D01*
X133508271Y-76154038D01*
X133556652Y-76154038D01*
X133629223Y-76129847D01*
X133919509Y-75839561D01*
X133919509Y-76154038D01*
X133411509Y-76468514D02*
X133411509Y-76516895D01*
X133435700Y-76565276D01*
X133459890Y-76589466D01*
X133508271Y-76613657D01*
X133605033Y-76637847D01*
X133725985Y-76637847D01*
X133822747Y-76613657D01*
X133871128Y-76589466D01*
X133895319Y-76565276D01*
X133919509Y-76516895D01*
X133919509Y-76468514D01*
X133895319Y-76420133D01*
X133871128Y-76395942D01*
X133822747Y-76371752D01*
X133725985Y-76347561D01*
X133605033Y-76347561D01*
X133508271Y-76371752D01*
X133459890Y-76395942D01*
X133435700Y-76420133D01*
X133411509Y-76468514D01*
X133919509Y-77143428D02*
X133677604Y-76974095D01*
X133919509Y-76853142D02*
X133411509Y-76853142D01*
X133411509Y-77046666D01*
X133435700Y-77095047D01*
X133459890Y-77119238D01*
X133508271Y-77143428D01*
X133580842Y-77143428D01*
X133629223Y-77119238D01*
X133653414Y-77095047D01*
X133677604Y-77046666D01*
X133677604Y-76853142D01*
X133459890Y-77336952D02*
X133435700Y-77361142D01*
X133411509Y-77409523D01*
X133411509Y-77530476D01*
X133435700Y-77578857D01*
X133459890Y-77603047D01*
X133508271Y-77627238D01*
X133556652Y-77627238D01*
X133629223Y-77603047D01*
X133919509Y-77312761D01*
X133919509Y-77627238D01*
X133919509Y-78111047D02*
X133919509Y-77820761D01*
X133919509Y-77965904D02*
X133411509Y-77965904D01*
X133484080Y-77917523D01*
X133532461Y-77869142D01*
X133556652Y-77820761D01*
X134311571Y-78842809D02*
X134480904Y-78600904D01*
X134601857Y-78842809D02*
X134601857Y-78334809D01*
X134408333Y-78334809D01*
X134359952Y-78359000D01*
X134335761Y-78383190D01*
X134311571Y-78431571D01*
X134311571Y-78504142D01*
X134335761Y-78552523D01*
X134359952Y-78576714D01*
X134408333Y-78600904D01*
X134601857Y-78600904D01*
X134118047Y-78383190D02*
X134093857Y-78359000D01*
X134045476Y-78334809D01*
X133924523Y-78334809D01*
X133876142Y-78359000D01*
X133851952Y-78383190D01*
X133827761Y-78431571D01*
X133827761Y-78479952D01*
X133851952Y-78552523D01*
X134142238Y-78842809D01*
X133827761Y-78842809D01*
X133634238Y-78383190D02*
X133610047Y-78359000D01*
X133561666Y-78334809D01*
X133440714Y-78334809D01*
X133392333Y-78359000D01*
X133368142Y-78383190D01*
X133343952Y-78431571D01*
X133343952Y-78479952D01*
X133368142Y-78552523D01*
X133658428Y-78842809D01*
X133343952Y-78842809D01*
X136788771Y-71083109D02*
X136958104Y-70841204D01*
X137079057Y-71083109D02*
X137079057Y-70575109D01*
X136885533Y-70575109D01*
X136837152Y-70599300D01*
X136812961Y-70623490D01*
X136788771Y-70671871D01*
X136788771Y-70744442D01*
X136812961Y-70792823D01*
X136837152Y-70817014D01*
X136885533Y-70841204D01*
X137079057Y-70841204D01*
X136595247Y-70623490D02*
X136571057Y-70599300D01*
X136522676Y-70575109D01*
X136401723Y-70575109D01*
X136353342Y-70599300D01*
X136329152Y-70623490D01*
X136304961Y-70671871D01*
X136304961Y-70720252D01*
X136329152Y-70792823D01*
X136619438Y-71083109D01*
X136304961Y-71083109D01*
X135845342Y-70575109D02*
X136087247Y-70575109D01*
X136111438Y-70817014D01*
X136087247Y-70792823D01*
X136038866Y-70768633D01*
X135917914Y-70768633D01*
X135869533Y-70792823D01*
X135845342Y-70817014D01*
X135821152Y-70865395D01*
X135821152Y-70986347D01*
X135845342Y-71034728D01*
X135869533Y-71058919D01*
X135917914Y-71083109D01*
X136038866Y-71083109D01*
X136087247Y-71058919D01*
X136111438Y-71034728D01*
X136788071Y-72619809D02*
X136957404Y-72377904D01*
X137078357Y-72619809D02*
X137078357Y-72111809D01*
X136884833Y-72111809D01*
X136836452Y-72136000D01*
X136812261Y-72160190D01*
X136788071Y-72208571D01*
X136788071Y-72281142D01*
X136812261Y-72329523D01*
X136836452Y-72353714D01*
X136884833Y-72377904D01*
X137078357Y-72377904D01*
X136594547Y-72160190D02*
X136570357Y-72136000D01*
X136521976Y-72111809D01*
X136401023Y-72111809D01*
X136352642Y-72136000D01*
X136328452Y-72160190D01*
X136304261Y-72208571D01*
X136304261Y-72256952D01*
X136328452Y-72329523D01*
X136618738Y-72619809D01*
X136304261Y-72619809D01*
X135868833Y-72111809D02*
X135965595Y-72111809D01*
X136013976Y-72136000D01*
X136038166Y-72160190D01*
X136086547Y-72232761D01*
X136110738Y-72329523D01*
X136110738Y-72523047D01*
X136086547Y-72571428D01*
X136062357Y-72595619D01*
X136013976Y-72619809D01*
X135917214Y-72619809D01*
X135868833Y-72595619D01*
X135844642Y-72571428D01*
X135820452Y-72523047D01*
X135820452Y-72402095D01*
X135844642Y-72353714D01*
X135868833Y-72329523D01*
X135917214Y-72305333D01*
X136013976Y-72305333D01*
X136062357Y-72329523D01*
X136086547Y-72353714D01*
X136110738Y-72402095D01*
X136800771Y-74131109D02*
X136970104Y-73889204D01*
X137091057Y-74131109D02*
X137091057Y-73623109D01*
X136897533Y-73623109D01*
X136849152Y-73647300D01*
X136824961Y-73671490D01*
X136800771Y-73719871D01*
X136800771Y-73792442D01*
X136824961Y-73840823D01*
X136849152Y-73865014D01*
X136897533Y-73889204D01*
X137091057Y-73889204D01*
X136631438Y-73623109D02*
X136316961Y-73623109D01*
X136486295Y-73816633D01*
X136413723Y-73816633D01*
X136365342Y-73840823D01*
X136341152Y-73865014D01*
X136316961Y-73913395D01*
X136316961Y-74034347D01*
X136341152Y-74082728D01*
X136365342Y-74106919D01*
X136413723Y-74131109D01*
X136558866Y-74131109D01*
X136607247Y-74106919D01*
X136631438Y-74082728D01*
X136002485Y-73623109D02*
X135954104Y-73623109D01*
X135905723Y-73647300D01*
X135881533Y-73671490D01*
X135857342Y-73719871D01*
X135833152Y-73816633D01*
X135833152Y-73937585D01*
X135857342Y-74034347D01*
X135881533Y-74082728D01*
X135905723Y-74106919D01*
X135954104Y-74131109D01*
X136002485Y-74131109D01*
X136050866Y-74106919D01*
X136075057Y-74082728D01*
X136099247Y-74034347D01*
X136123438Y-73937585D01*
X136123438Y-73816633D01*
X136099247Y-73719871D01*
X136075057Y-73671490D01*
X136050866Y-73647300D01*
X136002485Y-73623109D01*
X136800771Y-75782109D02*
X136970104Y-75540204D01*
X137091057Y-75782109D02*
X137091057Y-75274109D01*
X136897533Y-75274109D01*
X136849152Y-75298300D01*
X136824961Y-75322490D01*
X136800771Y-75370871D01*
X136800771Y-75443442D01*
X136824961Y-75491823D01*
X136849152Y-75516014D01*
X136897533Y-75540204D01*
X137091057Y-75540204D01*
X136631438Y-75274109D02*
X136316961Y-75274109D01*
X136486295Y-75467633D01*
X136413723Y-75467633D01*
X136365342Y-75491823D01*
X136341152Y-75516014D01*
X136316961Y-75564395D01*
X136316961Y-75685347D01*
X136341152Y-75733728D01*
X136365342Y-75757919D01*
X136413723Y-75782109D01*
X136558866Y-75782109D01*
X136607247Y-75757919D01*
X136631438Y-75733728D01*
X135833152Y-75782109D02*
X136123438Y-75782109D01*
X135978295Y-75782109D02*
X135978295Y-75274109D01*
X136026676Y-75346680D01*
X136075057Y-75395061D01*
X136123438Y-75419252D01*
X136800771Y-77179109D02*
X136970104Y-76937204D01*
X137091057Y-77179109D02*
X137091057Y-76671109D01*
X136897533Y-76671109D01*
X136849152Y-76695300D01*
X136824961Y-76719490D01*
X136800771Y-76767871D01*
X136800771Y-76840442D01*
X136824961Y-76888823D01*
X136849152Y-76913014D01*
X136897533Y-76937204D01*
X137091057Y-76937204D01*
X136631438Y-76671109D02*
X136316961Y-76671109D01*
X136486295Y-76864633D01*
X136413723Y-76864633D01*
X136365342Y-76888823D01*
X136341152Y-76913014D01*
X136316961Y-76961395D01*
X136316961Y-77082347D01*
X136341152Y-77130728D01*
X136365342Y-77154919D01*
X136413723Y-77179109D01*
X136558866Y-77179109D01*
X136607247Y-77154919D01*
X136631438Y-77130728D01*
X136147628Y-76671109D02*
X135833152Y-76671109D01*
X136002485Y-76864633D01*
X135929914Y-76864633D01*
X135881533Y-76888823D01*
X135857342Y-76913014D01*
X135833152Y-76961395D01*
X135833152Y-77082347D01*
X135857342Y-77130728D01*
X135881533Y-77154919D01*
X135929914Y-77179109D01*
X136075057Y-77179109D01*
X136123438Y-77154919D01*
X136147628Y-77130728D01*
X136800771Y-78703109D02*
X136970104Y-78461204D01*
X137091057Y-78703109D02*
X137091057Y-78195109D01*
X136897533Y-78195109D01*
X136849152Y-78219300D01*
X136824961Y-78243490D01*
X136800771Y-78291871D01*
X136800771Y-78364442D01*
X136824961Y-78412823D01*
X136849152Y-78437014D01*
X136897533Y-78461204D01*
X137091057Y-78461204D01*
X136631438Y-78195109D02*
X136316961Y-78195109D01*
X136486295Y-78388633D01*
X136413723Y-78388633D01*
X136365342Y-78412823D01*
X136341152Y-78437014D01*
X136316961Y-78485395D01*
X136316961Y-78606347D01*
X136341152Y-78654728D01*
X136365342Y-78678919D01*
X136413723Y-78703109D01*
X136558866Y-78703109D01*
X136607247Y-78678919D01*
X136631438Y-78654728D01*
X135881533Y-78364442D02*
X135881533Y-78703109D01*
X136002485Y-78170919D02*
X136123438Y-78533776D01*
X135808961Y-78533776D01*
X137897809Y-91951628D02*
X137655904Y-91782295D01*
X137897809Y-91661342D02*
X137389809Y-91661342D01*
X137389809Y-91854866D01*
X137414000Y-91903247D01*
X137438190Y-91927438D01*
X137486571Y-91951628D01*
X137559142Y-91951628D01*
X137607523Y-91927438D01*
X137631714Y-91903247D01*
X137655904Y-91854866D01*
X137655904Y-91661342D01*
X137389809Y-92120961D02*
X137389809Y-92435438D01*
X137583333Y-92266104D01*
X137583333Y-92338676D01*
X137607523Y-92387057D01*
X137631714Y-92411247D01*
X137680095Y-92435438D01*
X137801047Y-92435438D01*
X137849428Y-92411247D01*
X137873619Y-92387057D01*
X137897809Y-92338676D01*
X137897809Y-92193533D01*
X137873619Y-92145152D01*
X137849428Y-92120961D01*
X137389809Y-92895057D02*
X137389809Y-92653152D01*
X137631714Y-92628961D01*
X137607523Y-92653152D01*
X137583333Y-92701533D01*
X137583333Y-92822485D01*
X137607523Y-92870866D01*
X137631714Y-92895057D01*
X137680095Y-92919247D01*
X137801047Y-92919247D01*
X137849428Y-92895057D01*
X137873619Y-92870866D01*
X137897809Y-92822485D01*
X137897809Y-92701533D01*
X137873619Y-92653152D01*
X137849428Y-92628961D01*
X136960428Y-66094428D02*
X136984619Y-66070238D01*
X137008809Y-65997666D01*
X137008809Y-65949285D01*
X136984619Y-65876714D01*
X136936238Y-65828333D01*
X136887857Y-65804142D01*
X136791095Y-65779952D01*
X136718523Y-65779952D01*
X136621761Y-65804142D01*
X136573380Y-65828333D01*
X136525000Y-65876714D01*
X136500809Y-65949285D01*
X136500809Y-65997666D01*
X136525000Y-66070238D01*
X136549190Y-66094428D01*
X136500809Y-66263761D02*
X136500809Y-66578238D01*
X136694333Y-66408904D01*
X136694333Y-66481476D01*
X136718523Y-66529857D01*
X136742714Y-66554047D01*
X136791095Y-66578238D01*
X136912047Y-66578238D01*
X136960428Y-66554047D01*
X136984619Y-66529857D01*
X137008809Y-66481476D01*
X137008809Y-66336333D01*
X136984619Y-66287952D01*
X136960428Y-66263761D01*
X136500809Y-67037857D02*
X136500809Y-66795952D01*
X136742714Y-66771761D01*
X136718523Y-66795952D01*
X136694333Y-66844333D01*
X136694333Y-66965285D01*
X136718523Y-67013666D01*
X136742714Y-67037857D01*
X136791095Y-67062047D01*
X136912047Y-67062047D01*
X136960428Y-67037857D01*
X136984619Y-67013666D01*
X137008809Y-66965285D01*
X137008809Y-66844333D01*
X136984619Y-66795952D01*
X136960428Y-66771761D01*
X119845666Y-95050428D02*
X119869857Y-95074619D01*
X119942428Y-95098809D01*
X119990809Y-95098809D01*
X120063380Y-95074619D01*
X120111761Y-95026238D01*
X120135952Y-94977857D01*
X120160142Y-94881095D01*
X120160142Y-94808523D01*
X120135952Y-94711761D01*
X120111761Y-94663380D01*
X120063380Y-94615000D01*
X119990809Y-94590809D01*
X119942428Y-94590809D01*
X119869857Y-94615000D01*
X119845666Y-94639190D01*
X119361857Y-95098809D02*
X119652142Y-95098809D01*
X119507000Y-95098809D02*
X119507000Y-94590809D01*
X119555380Y-94663380D01*
X119603761Y-94711761D01*
X119652142Y-94735952D01*
X138814628Y-90136133D02*
X138838819Y-90111942D01*
X138863009Y-90039371D01*
X138863009Y-89990990D01*
X138838819Y-89918419D01*
X138790438Y-89870038D01*
X138742057Y-89845847D01*
X138645295Y-89821657D01*
X138572723Y-89821657D01*
X138475961Y-89845847D01*
X138427580Y-89870038D01*
X138379200Y-89918419D01*
X138355009Y-89990990D01*
X138355009Y-90039371D01*
X138379200Y-90111942D01*
X138403390Y-90136133D01*
X138403390Y-90329657D02*
X138379200Y-90353847D01*
X138355009Y-90402228D01*
X138355009Y-90523180D01*
X138379200Y-90571561D01*
X138403390Y-90595752D01*
X138451771Y-90619942D01*
X138500152Y-90619942D01*
X138572723Y-90595752D01*
X138863009Y-90305466D01*
X138863009Y-90619942D01*
X128989666Y-95939428D02*
X129013857Y-95963619D01*
X129086428Y-95987809D01*
X129134809Y-95987809D01*
X129207380Y-95963619D01*
X129255761Y-95915238D01*
X129279952Y-95866857D01*
X129304142Y-95770095D01*
X129304142Y-95697523D01*
X129279952Y-95600761D01*
X129255761Y-95552380D01*
X129207380Y-95504000D01*
X129134809Y-95479809D01*
X129086428Y-95479809D01*
X129013857Y-95504000D01*
X128989666Y-95528190D01*
X128820333Y-95479809D02*
X128505857Y-95479809D01*
X128675190Y-95673333D01*
X128602619Y-95673333D01*
X128554238Y-95697523D01*
X128530047Y-95721714D01*
X128505857Y-95770095D01*
X128505857Y-95891047D01*
X128530047Y-95939428D01*
X128554238Y-95963619D01*
X128602619Y-95987809D01*
X128747761Y-95987809D01*
X128796142Y-95963619D01*
X128820333Y-95939428D01*
X131118428Y-86402333D02*
X131142619Y-86378142D01*
X131166809Y-86305571D01*
X131166809Y-86257190D01*
X131142619Y-86184619D01*
X131094238Y-86136238D01*
X131045857Y-86112047D01*
X130949095Y-86087857D01*
X130876523Y-86087857D01*
X130779761Y-86112047D01*
X130731380Y-86136238D01*
X130683000Y-86184619D01*
X130658809Y-86257190D01*
X130658809Y-86305571D01*
X130683000Y-86378142D01*
X130707190Y-86402333D01*
X130876523Y-86692619D02*
X130852333Y-86644238D01*
X130828142Y-86620047D01*
X130779761Y-86595857D01*
X130755571Y-86595857D01*
X130707190Y-86620047D01*
X130683000Y-86644238D01*
X130658809Y-86692619D01*
X130658809Y-86789380D01*
X130683000Y-86837761D01*
X130707190Y-86861952D01*
X130755571Y-86886142D01*
X130779761Y-86886142D01*
X130828142Y-86861952D01*
X130852333Y-86837761D01*
X130876523Y-86789380D01*
X130876523Y-86692619D01*
X130900714Y-86644238D01*
X130924904Y-86620047D01*
X130973285Y-86595857D01*
X131070047Y-86595857D01*
X131118428Y-86620047D01*
X131142619Y-86644238D01*
X131166809Y-86692619D01*
X131166809Y-86789380D01*
X131142619Y-86837761D01*
X131118428Y-86861952D01*
X131070047Y-86886142D01*
X130973285Y-86886142D01*
X130924904Y-86861952D01*
X130900714Y-86837761D01*
X130876523Y-86789380D01*
X121357571Y-76254428D02*
X121381761Y-76278619D01*
X121454333Y-76302809D01*
X121502714Y-76302809D01*
X121575285Y-76278619D01*
X121623666Y-76230238D01*
X121647857Y-76181857D01*
X121672047Y-76085095D01*
X121672047Y-76012523D01*
X121647857Y-75915761D01*
X121623666Y-75867380D01*
X121575285Y-75819000D01*
X121502714Y-75794809D01*
X121454333Y-75794809D01*
X121381761Y-75819000D01*
X121357571Y-75843190D01*
X120873761Y-76302809D02*
X121164047Y-76302809D01*
X121018904Y-76302809D02*
X121018904Y-75794809D01*
X121067285Y-75867380D01*
X121115666Y-75915761D01*
X121164047Y-75939952D01*
X120704428Y-75794809D02*
X120389952Y-75794809D01*
X120559285Y-75988333D01*
X120486714Y-75988333D01*
X120438333Y-76012523D01*
X120414142Y-76036714D01*
X120389952Y-76085095D01*
X120389952Y-76206047D01*
X120414142Y-76254428D01*
X120438333Y-76278619D01*
X120486714Y-76302809D01*
X120631857Y-76302809D01*
X120680238Y-76278619D01*
X120704428Y-76254428D01*
X135436428Y-80445428D02*
X135460619Y-80421238D01*
X135484809Y-80348666D01*
X135484809Y-80300285D01*
X135460619Y-80227714D01*
X135412238Y-80179333D01*
X135363857Y-80155142D01*
X135267095Y-80130952D01*
X135194523Y-80130952D01*
X135097761Y-80155142D01*
X135049380Y-80179333D01*
X135001000Y-80227714D01*
X134976809Y-80300285D01*
X134976809Y-80348666D01*
X135001000Y-80421238D01*
X135025190Y-80445428D01*
X134976809Y-80905047D02*
X134976809Y-80663142D01*
X135218714Y-80638952D01*
X135194523Y-80663142D01*
X135170333Y-80711523D01*
X135170333Y-80832476D01*
X135194523Y-80880857D01*
X135218714Y-80905047D01*
X135267095Y-80929238D01*
X135388047Y-80929238D01*
X135436428Y-80905047D01*
X135460619Y-80880857D01*
X135484809Y-80832476D01*
X135484809Y-80711523D01*
X135460619Y-80663142D01*
X135436428Y-80638952D01*
X135025190Y-81122761D02*
X135001000Y-81146952D01*
X134976809Y-81195333D01*
X134976809Y-81316285D01*
X135001000Y-81364666D01*
X135025190Y-81388857D01*
X135073571Y-81413047D01*
X135121952Y-81413047D01*
X135194523Y-81388857D01*
X135484809Y-81098571D01*
X135484809Y-81413047D01*
X131245428Y-61470928D02*
X131269619Y-61446738D01*
X131293809Y-61374166D01*
X131293809Y-61325785D01*
X131269619Y-61253214D01*
X131221238Y-61204833D01*
X131172857Y-61180642D01*
X131076095Y-61156452D01*
X131003523Y-61156452D01*
X130906761Y-61180642D01*
X130858380Y-61204833D01*
X130810000Y-61253214D01*
X130785809Y-61325785D01*
X130785809Y-61374166D01*
X130810000Y-61446738D01*
X130834190Y-61470928D01*
X130785809Y-61640261D02*
X130785809Y-61954738D01*
X130979333Y-61785404D01*
X130979333Y-61857976D01*
X131003523Y-61906357D01*
X131027714Y-61930547D01*
X131076095Y-61954738D01*
X131197047Y-61954738D01*
X131245428Y-61930547D01*
X131269619Y-61906357D01*
X131293809Y-61857976D01*
X131293809Y-61712833D01*
X131269619Y-61664452D01*
X131245428Y-61640261D01*
X131003523Y-62245023D02*
X130979333Y-62196642D01*
X130955142Y-62172452D01*
X130906761Y-62148261D01*
X130882571Y-62148261D01*
X130834190Y-62172452D01*
X130810000Y-62196642D01*
X130785809Y-62245023D01*
X130785809Y-62341785D01*
X130810000Y-62390166D01*
X130834190Y-62414357D01*
X130882571Y-62438547D01*
X130906761Y-62438547D01*
X130955142Y-62414357D01*
X130979333Y-62390166D01*
X131003523Y-62341785D01*
X131003523Y-62245023D01*
X131027714Y-62196642D01*
X131051904Y-62172452D01*
X131100285Y-62148261D01*
X131197047Y-62148261D01*
X131245428Y-62172452D01*
X131269619Y-62196642D01*
X131293809Y-62245023D01*
X131293809Y-62341785D01*
X131269619Y-62390166D01*
X131245428Y-62414357D01*
X131197047Y-62438547D01*
X131100285Y-62438547D01*
X131051904Y-62414357D01*
X131027714Y-62390166D01*
X131003523Y-62341785D01*
X126355928Y-61903428D02*
X126380119Y-61879238D01*
X126404309Y-61806666D01*
X126404309Y-61758285D01*
X126380119Y-61685714D01*
X126331738Y-61637333D01*
X126283357Y-61613142D01*
X126186595Y-61588952D01*
X126114023Y-61588952D01*
X126017261Y-61613142D01*
X125968880Y-61637333D01*
X125920500Y-61685714D01*
X125896309Y-61758285D01*
X125896309Y-61806666D01*
X125920500Y-61879238D01*
X125944690Y-61903428D01*
X126065642Y-62338857D02*
X126404309Y-62338857D01*
X125872119Y-62217904D02*
X126234976Y-62096952D01*
X126234976Y-62411428D01*
X125944690Y-62580761D02*
X125920500Y-62604952D01*
X125896309Y-62653333D01*
X125896309Y-62774285D01*
X125920500Y-62822666D01*
X125944690Y-62846857D01*
X125993071Y-62871047D01*
X126041452Y-62871047D01*
X126114023Y-62846857D01*
X126404309Y-62556571D01*
X126404309Y-62871047D01*
X121357571Y-82731428D02*
X121381761Y-82755619D01*
X121454333Y-82779809D01*
X121502714Y-82779809D01*
X121575285Y-82755619D01*
X121623666Y-82707238D01*
X121647857Y-82658857D01*
X121672047Y-82562095D01*
X121672047Y-82489523D01*
X121647857Y-82392761D01*
X121623666Y-82344380D01*
X121575285Y-82296000D01*
X121502714Y-82271809D01*
X121454333Y-82271809D01*
X121381761Y-82296000D01*
X121357571Y-82320190D01*
X120922142Y-82271809D02*
X121018904Y-82271809D01*
X121067285Y-82296000D01*
X121091476Y-82320190D01*
X121139857Y-82392761D01*
X121164047Y-82489523D01*
X121164047Y-82683047D01*
X121139857Y-82731428D01*
X121115666Y-82755619D01*
X121067285Y-82779809D01*
X120970523Y-82779809D01*
X120922142Y-82755619D01*
X120897952Y-82731428D01*
X120873761Y-82683047D01*
X120873761Y-82562095D01*
X120897952Y-82513714D01*
X120922142Y-82489523D01*
X120970523Y-82465333D01*
X121067285Y-82465333D01*
X121115666Y-82489523D01*
X121139857Y-82513714D01*
X121164047Y-82562095D01*
X120438333Y-82441142D02*
X120438333Y-82779809D01*
X120559285Y-82247619D02*
X120680238Y-82610476D01*
X120365761Y-82610476D01*
X116832809Y-101857047D02*
X116324809Y-101857047D01*
X116324809Y-102050571D01*
X116349000Y-102098952D01*
X116373190Y-102123142D01*
X116421571Y-102147333D01*
X116494142Y-102147333D01*
X116542523Y-102123142D01*
X116566714Y-102098952D01*
X116590904Y-102050571D01*
X116590904Y-101857047D01*
X116324809Y-102582761D02*
X116324809Y-102486000D01*
X116349000Y-102437619D01*
X116373190Y-102413428D01*
X116445761Y-102365047D01*
X116542523Y-102340857D01*
X116736047Y-102340857D01*
X116784428Y-102365047D01*
X116808619Y-102389238D01*
X116832809Y-102437619D01*
X116832809Y-102534380D01*
X116808619Y-102582761D01*
X116784428Y-102606952D01*
X116736047Y-102631142D01*
X116615095Y-102631142D01*
X116566714Y-102606952D01*
X116542523Y-102582761D01*
X116518333Y-102534380D01*
X116518333Y-102437619D01*
X116542523Y-102389238D01*
X116566714Y-102365047D01*
X116615095Y-102340857D01*
X123620832Y-110211809D02*
X123620832Y-109703809D01*
X123427308Y-109703809D01*
X123378927Y-109728000D01*
X123354737Y-109752190D01*
X123330546Y-109800571D01*
X123330546Y-109873142D01*
X123354737Y-109921523D01*
X123378927Y-109945714D01*
X123427308Y-109969904D01*
X123620832Y-109969904D01*
X123137022Y-109752190D02*
X123112832Y-109728000D01*
X123064451Y-109703809D01*
X122943499Y-109703809D01*
X122895118Y-109728000D01*
X122870927Y-109752190D01*
X122846737Y-109800571D01*
X122846737Y-109848952D01*
X122870927Y-109921523D01*
X123161213Y-110211809D01*
X122846737Y-110211809D01*
X137287172Y-56832809D02*
X137287172Y-56324809D01*
X137093648Y-56324809D01*
X137045267Y-56349000D01*
X137021077Y-56373190D01*
X136996886Y-56421571D01*
X136996886Y-56494142D01*
X137021077Y-56542523D01*
X137045267Y-56566714D01*
X137093648Y-56590904D01*
X137287172Y-56590904D01*
X136561458Y-56494142D02*
X136561458Y-56832809D01*
X136682410Y-56300619D02*
X136803362Y-56663476D01*
X136488886Y-56663476D01*
X116815809Y-82681347D02*
X116307809Y-82681347D01*
X116307809Y-82874871D01*
X116332000Y-82923252D01*
X116356190Y-82947442D01*
X116404571Y-82971633D01*
X116477142Y-82971633D01*
X116525523Y-82947442D01*
X116549714Y-82923252D01*
X116573904Y-82874871D01*
X116573904Y-82681347D01*
X116307809Y-83431252D02*
X116307809Y-83189347D01*
X116549714Y-83165157D01*
X116525523Y-83189347D01*
X116501333Y-83237728D01*
X116501333Y-83358680D01*
X116525523Y-83407061D01*
X116549714Y-83431252D01*
X116598095Y-83455442D01*
X116719047Y-83455442D01*
X116767428Y-83431252D01*
X116791619Y-83407061D01*
X116815809Y-83358680D01*
X116815809Y-83237728D01*
X116791619Y-83189347D01*
X116767428Y-83165157D01*
X116815809Y-68171047D02*
X116307809Y-68171047D01*
X116307809Y-68364571D01*
X116332000Y-68412952D01*
X116356190Y-68437142D01*
X116404571Y-68461333D01*
X116477142Y-68461333D01*
X116525523Y-68437142D01*
X116549714Y-68412952D01*
X116573904Y-68364571D01*
X116573904Y-68171047D01*
X116307809Y-68630666D02*
X116307809Y-68969333D01*
X116815809Y-68751619D01*
X149091952Y-57887809D02*
X149091952Y-57379809D01*
X148898428Y-57379809D01*
X148850047Y-57404000D01*
X148825857Y-57428190D01*
X148801666Y-57476571D01*
X148801666Y-57549142D01*
X148825857Y-57597523D01*
X148850047Y-57621714D01*
X148898428Y-57645904D01*
X149091952Y-57645904D01*
X148511380Y-57597523D02*
X148559761Y-57573333D01*
X148583952Y-57549142D01*
X148608142Y-57500761D01*
X148608142Y-57476571D01*
X148583952Y-57428190D01*
X148559761Y-57404000D01*
X148511380Y-57379809D01*
X148414619Y-57379809D01*
X148366238Y-57404000D01*
X148342047Y-57428190D01*
X148317857Y-57476571D01*
X148317857Y-57500761D01*
X148342047Y-57549142D01*
X148366238Y-57573333D01*
X148414619Y-57597523D01*
X148511380Y-57597523D01*
X148559761Y-57621714D01*
X148583952Y-57645904D01*
X148608142Y-57694285D01*
X148608142Y-57791047D01*
X148583952Y-57839428D01*
X148559761Y-57863619D01*
X148511380Y-57887809D01*
X148414619Y-57887809D01*
X148366238Y-57863619D01*
X148342047Y-57839428D01*
X148317857Y-57791047D01*
X148317857Y-57694285D01*
X148342047Y-57645904D01*
X148366238Y-57621714D01*
X148414619Y-57597523D01*
X154472452Y-57887809D02*
X154472452Y-57379809D01*
X154278928Y-57379809D01*
X154230547Y-57404000D01*
X154206357Y-57428190D01*
X154182166Y-57476571D01*
X154182166Y-57549142D01*
X154206357Y-57597523D01*
X154230547Y-57621714D01*
X154278928Y-57645904D01*
X154472452Y-57645904D01*
X153940261Y-57887809D02*
X153843500Y-57887809D01*
X153795119Y-57863619D01*
X153770928Y-57839428D01*
X153722547Y-57766857D01*
X153698357Y-57670095D01*
X153698357Y-57476571D01*
X153722547Y-57428190D01*
X153746738Y-57404000D01*
X153795119Y-57379809D01*
X153891880Y-57379809D01*
X153940261Y-57404000D01*
X153964452Y-57428190D01*
X153988642Y-57476571D01*
X153988642Y-57597523D01*
X153964452Y-57645904D01*
X153940261Y-57670095D01*
X153891880Y-57694285D01*
X153795119Y-57694285D01*
X153746738Y-57670095D01*
X153722547Y-57645904D01*
X153698357Y-57597523D01*
X167160357Y-57887809D02*
X167160357Y-57379809D01*
X166966833Y-57379809D01*
X166918452Y-57404000D01*
X166894261Y-57428190D01*
X166870071Y-57476571D01*
X166870071Y-57549142D01*
X166894261Y-57597523D01*
X166918452Y-57621714D01*
X166966833Y-57645904D01*
X167160357Y-57645904D01*
X166386261Y-57887809D02*
X166676547Y-57887809D01*
X166531404Y-57887809D02*
X166531404Y-57379809D01*
X166579785Y-57452380D01*
X166628166Y-57500761D01*
X166676547Y-57524952D01*
X166071785Y-57379809D02*
X166023404Y-57379809D01*
X165975023Y-57404000D01*
X165950833Y-57428190D01*
X165926642Y-57476571D01*
X165902452Y-57573333D01*
X165902452Y-57694285D01*
X165926642Y-57791047D01*
X165950833Y-57839428D01*
X165975023Y-57863619D01*
X166023404Y-57887809D01*
X166071785Y-57887809D01*
X166120166Y-57863619D01*
X166144357Y-57839428D01*
X166168547Y-57791047D01*
X166192738Y-57694285D01*
X166192738Y-57573333D01*
X166168547Y-57476571D01*
X166144357Y-57428190D01*
X166120166Y-57404000D01*
X166071785Y-57379809D01*
X164809683Y-82276316D02*
X164450473Y-81917105D01*
X164313631Y-82053947D01*
X164296526Y-82105263D01*
X164296526Y-82139474D01*
X164313631Y-82190789D01*
X164364947Y-82242105D01*
X164416262Y-82259210D01*
X164450473Y-82259210D01*
X164501789Y-82242105D01*
X164638631Y-82105263D01*
X164262315Y-82823683D02*
X164467578Y-82618420D01*
X164364947Y-82721052D02*
X164005737Y-82361842D01*
X164091263Y-82378947D01*
X164159684Y-82378947D01*
X164211000Y-82361842D01*
X163800474Y-82635526D02*
X163766263Y-82635526D01*
X163714947Y-82652631D01*
X163629421Y-82738157D01*
X163612316Y-82789473D01*
X163612316Y-82823683D01*
X163629421Y-82874999D01*
X163663632Y-82909210D01*
X163732053Y-82943420D01*
X164142579Y-82943420D01*
X163920210Y-83165788D01*
X137011228Y-92002428D02*
X137035419Y-91978238D01*
X137059609Y-91905666D01*
X137059609Y-91857285D01*
X137035419Y-91784714D01*
X136987038Y-91736333D01*
X136938657Y-91712142D01*
X136841895Y-91687952D01*
X136769323Y-91687952D01*
X136672561Y-91712142D01*
X136624180Y-91736333D01*
X136575800Y-91784714D01*
X136551609Y-91857285D01*
X136551609Y-91905666D01*
X136575800Y-91978238D01*
X136599990Y-92002428D01*
X136599990Y-92195952D02*
X136575800Y-92220142D01*
X136551609Y-92268523D01*
X136551609Y-92389476D01*
X136575800Y-92437857D01*
X136599990Y-92462047D01*
X136648371Y-92486238D01*
X136696752Y-92486238D01*
X136769323Y-92462047D01*
X137059609Y-92171761D01*
X137059609Y-92486238D01*
X137059609Y-92728142D02*
X137059609Y-92824904D01*
X137035419Y-92873285D01*
X137011228Y-92897476D01*
X136938657Y-92945857D01*
X136841895Y-92970047D01*
X136648371Y-92970047D01*
X136599990Y-92945857D01*
X136575800Y-92921666D01*
X136551609Y-92873285D01*
X136551609Y-92776523D01*
X136575800Y-92728142D01*
X136599990Y-92703952D01*
X136648371Y-92679761D01*
X136769323Y-92679761D01*
X136817704Y-92703952D01*
X136841895Y-92728142D01*
X136866085Y-92776523D01*
X136866085Y-92873285D01*
X136841895Y-92921666D01*
X136817704Y-92945857D01*
X136769323Y-92970047D01*
X129993571Y-90732428D02*
X130017761Y-90756619D01*
X130090333Y-90780809D01*
X130138714Y-90780809D01*
X130211285Y-90756619D01*
X130259666Y-90708238D01*
X130283857Y-90659857D01*
X130308047Y-90563095D01*
X130308047Y-90490523D01*
X130283857Y-90393761D01*
X130259666Y-90345380D01*
X130211285Y-90297000D01*
X130138714Y-90272809D01*
X130090333Y-90272809D01*
X130017761Y-90297000D01*
X129993571Y-90321190D01*
X129824238Y-90272809D02*
X129509761Y-90272809D01*
X129679095Y-90466333D01*
X129606523Y-90466333D01*
X129558142Y-90490523D01*
X129533952Y-90514714D01*
X129509761Y-90563095D01*
X129509761Y-90684047D01*
X129533952Y-90732428D01*
X129558142Y-90756619D01*
X129606523Y-90780809D01*
X129751666Y-90780809D01*
X129800047Y-90756619D01*
X129824238Y-90732428D01*
X129195285Y-90272809D02*
X129146904Y-90272809D01*
X129098523Y-90297000D01*
X129074333Y-90321190D01*
X129050142Y-90369571D01*
X129025952Y-90466333D01*
X129025952Y-90587285D01*
X129050142Y-90684047D01*
X129074333Y-90732428D01*
X129098523Y-90756619D01*
X129146904Y-90780809D01*
X129195285Y-90780809D01*
X129243666Y-90756619D01*
X129267857Y-90732428D01*
X129292047Y-90684047D01*
X129316238Y-90587285D01*
X129316238Y-90466333D01*
X129292047Y-90369571D01*
X129267857Y-90321190D01*
X129243666Y-90297000D01*
X129195285Y-90272809D01*
X126818571Y-94212228D02*
X126842761Y-94236419D01*
X126915333Y-94260609D01*
X126963714Y-94260609D01*
X127036285Y-94236419D01*
X127084666Y-94188038D01*
X127108857Y-94139657D01*
X127133047Y-94042895D01*
X127133047Y-93970323D01*
X127108857Y-93873561D01*
X127084666Y-93825180D01*
X127036285Y-93776800D01*
X126963714Y-93752609D01*
X126915333Y-93752609D01*
X126842761Y-93776800D01*
X126818571Y-93800990D01*
X126383142Y-93921942D02*
X126383142Y-94260609D01*
X126504095Y-93728419D02*
X126625047Y-94091276D01*
X126310571Y-94091276D01*
X125875142Y-93752609D02*
X126117047Y-93752609D01*
X126141238Y-93994514D01*
X126117047Y-93970323D01*
X126068666Y-93946133D01*
X125947714Y-93946133D01*
X125899333Y-93970323D01*
X125875142Y-93994514D01*
X125850952Y-94042895D01*
X125850952Y-94163847D01*
X125875142Y-94212228D01*
X125899333Y-94236419D01*
X125947714Y-94260609D01*
X126068666Y-94260609D01*
X126117047Y-94236419D01*
X126141238Y-94212228D01*
X139472428Y-109304428D02*
X139496619Y-109280238D01*
X139520809Y-109207666D01*
X139520809Y-109159285D01*
X139496619Y-109086714D01*
X139448238Y-109038333D01*
X139399857Y-109014142D01*
X139303095Y-108989952D01*
X139230523Y-108989952D01*
X139133761Y-109014142D01*
X139085380Y-109038333D01*
X139037000Y-109086714D01*
X139012809Y-109159285D01*
X139012809Y-109207666D01*
X139037000Y-109280238D01*
X139061190Y-109304428D01*
X139182142Y-109739857D02*
X139520809Y-109739857D01*
X138988619Y-109618904D02*
X139351476Y-109497952D01*
X139351476Y-109812428D01*
X139230523Y-110078523D02*
X139206333Y-110030142D01*
X139182142Y-110005952D01*
X139133761Y-109981761D01*
X139109571Y-109981761D01*
X139061190Y-110005952D01*
X139037000Y-110030142D01*
X139012809Y-110078523D01*
X139012809Y-110175285D01*
X139037000Y-110223666D01*
X139061190Y-110247857D01*
X139109571Y-110272047D01*
X139133761Y-110272047D01*
X139182142Y-110247857D01*
X139206333Y-110223666D01*
X139230523Y-110175285D01*
X139230523Y-110078523D01*
X139254714Y-110030142D01*
X139278904Y-110005952D01*
X139327285Y-109981761D01*
X139424047Y-109981761D01*
X139472428Y-110005952D01*
X139496619Y-110030142D01*
X139520809Y-110078523D01*
X139520809Y-110175285D01*
X139496619Y-110223666D01*
X139472428Y-110247857D01*
X139424047Y-110272047D01*
X139327285Y-110272047D01*
X139278904Y-110247857D01*
X139254714Y-110223666D01*
X139230523Y-110175285D01*
X120577428Y-85652428D02*
X120601619Y-85628238D01*
X120625809Y-85555666D01*
X120625809Y-85507285D01*
X120601619Y-85434714D01*
X120553238Y-85386333D01*
X120504857Y-85362142D01*
X120408095Y-85337952D01*
X120335523Y-85337952D01*
X120238761Y-85362142D01*
X120190380Y-85386333D01*
X120142000Y-85434714D01*
X120117809Y-85507285D01*
X120117809Y-85555666D01*
X120142000Y-85628238D01*
X120166190Y-85652428D01*
X120117809Y-86112047D02*
X120117809Y-85870142D01*
X120359714Y-85845952D01*
X120335523Y-85870142D01*
X120311333Y-85918523D01*
X120311333Y-86039476D01*
X120335523Y-86087857D01*
X120359714Y-86112047D01*
X120408095Y-86136238D01*
X120529047Y-86136238D01*
X120577428Y-86112047D01*
X120601619Y-86087857D01*
X120625809Y-86039476D01*
X120625809Y-85918523D01*
X120601619Y-85870142D01*
X120577428Y-85845952D01*
X120117809Y-86305571D02*
X120117809Y-86620047D01*
X120311333Y-86450714D01*
X120311333Y-86523285D01*
X120335523Y-86571666D01*
X120359714Y-86595857D01*
X120408095Y-86620047D01*
X120529047Y-86620047D01*
X120577428Y-86595857D01*
X120601619Y-86571666D01*
X120625809Y-86523285D01*
X120625809Y-86378142D01*
X120601619Y-86329761D01*
X120577428Y-86305571D01*
X127816428Y-88192428D02*
X127840619Y-88168238D01*
X127864809Y-88095666D01*
X127864809Y-88047285D01*
X127840619Y-87974714D01*
X127792238Y-87926333D01*
X127743857Y-87902142D01*
X127647095Y-87877952D01*
X127574523Y-87877952D01*
X127477761Y-87902142D01*
X127429380Y-87926333D01*
X127381000Y-87974714D01*
X127356809Y-88047285D01*
X127356809Y-88095666D01*
X127381000Y-88168238D01*
X127405190Y-88192428D01*
X127356809Y-88652047D02*
X127356809Y-88410142D01*
X127598714Y-88385952D01*
X127574523Y-88410142D01*
X127550333Y-88458523D01*
X127550333Y-88579476D01*
X127574523Y-88627857D01*
X127598714Y-88652047D01*
X127647095Y-88676238D01*
X127768047Y-88676238D01*
X127816428Y-88652047D01*
X127840619Y-88627857D01*
X127864809Y-88579476D01*
X127864809Y-88458523D01*
X127840619Y-88410142D01*
X127816428Y-88385952D01*
X127526142Y-89111666D02*
X127864809Y-89111666D01*
X127332619Y-88990714D02*
X127695476Y-88869761D01*
X127695476Y-89184238D01*
X124163666Y-97003809D02*
X124333000Y-96761904D01*
X124453952Y-97003809D02*
X124453952Y-96495809D01*
X124260428Y-96495809D01*
X124212047Y-96520000D01*
X124187857Y-96544190D01*
X124163666Y-96592571D01*
X124163666Y-96665142D01*
X124187857Y-96713523D01*
X124212047Y-96737714D01*
X124260428Y-96761904D01*
X124453952Y-96761904D01*
X123728238Y-96665142D02*
X123728238Y-97003809D01*
X123849190Y-96471619D02*
X123970142Y-96834476D01*
X123655666Y-96834476D01*
X136119809Y-92002428D02*
X135877904Y-91833095D01*
X136119809Y-91712142D02*
X135611809Y-91712142D01*
X135611809Y-91905666D01*
X135636000Y-91954047D01*
X135660190Y-91978238D01*
X135708571Y-92002428D01*
X135781142Y-92002428D01*
X135829523Y-91978238D01*
X135853714Y-91954047D01*
X135877904Y-91905666D01*
X135877904Y-91712142D01*
X135611809Y-92171761D02*
X135611809Y-92486238D01*
X135805333Y-92316904D01*
X135805333Y-92389476D01*
X135829523Y-92437857D01*
X135853714Y-92462047D01*
X135902095Y-92486238D01*
X136023047Y-92486238D01*
X136071428Y-92462047D01*
X136095619Y-92437857D01*
X136119809Y-92389476D01*
X136119809Y-92244333D01*
X136095619Y-92195952D01*
X136071428Y-92171761D01*
X135611809Y-92921666D02*
X135611809Y-92824904D01*
X135636000Y-92776523D01*
X135660190Y-92752333D01*
X135732761Y-92703952D01*
X135829523Y-92679761D01*
X136023047Y-92679761D01*
X136071428Y-92703952D01*
X136095619Y-92728142D01*
X136119809Y-92776523D01*
X136119809Y-92873285D01*
X136095619Y-92921666D01*
X136071428Y-92945857D01*
X136023047Y-92970047D01*
X135902095Y-92970047D01*
X135853714Y-92945857D01*
X135829523Y-92921666D01*
X135805333Y-92873285D01*
X135805333Y-92776523D01*
X135829523Y-92728142D01*
X135853714Y-92703952D01*
X135902095Y-92679761D01*
X128469571Y-90780809D02*
X128638904Y-90538904D01*
X128759857Y-90780809D02*
X128759857Y-90272809D01*
X128566333Y-90272809D01*
X128517952Y-90297000D01*
X128493761Y-90321190D01*
X128469571Y-90369571D01*
X128469571Y-90442142D01*
X128493761Y-90490523D01*
X128517952Y-90514714D01*
X128566333Y-90538904D01*
X128759857Y-90538904D01*
X128300238Y-90272809D02*
X127985761Y-90272809D01*
X128155095Y-90466333D01*
X128082523Y-90466333D01*
X128034142Y-90490523D01*
X128009952Y-90514714D01*
X127985761Y-90563095D01*
X127985761Y-90684047D01*
X128009952Y-90732428D01*
X128034142Y-90756619D01*
X128082523Y-90780809D01*
X128227666Y-90780809D01*
X128276047Y-90756619D01*
X128300238Y-90732428D01*
X127816428Y-90272809D02*
X127477761Y-90272809D01*
X127695476Y-90780809D01*
X134725047Y-113543809D02*
X134725047Y-113955047D01*
X134700857Y-114003428D01*
X134676666Y-114027619D01*
X134628285Y-114051809D01*
X134531523Y-114051809D01*
X134483142Y-114027619D01*
X134458952Y-114003428D01*
X134434761Y-113955047D01*
X134434761Y-113543809D01*
X134217047Y-113592190D02*
X134192857Y-113568000D01*
X134144476Y-113543809D01*
X134023523Y-113543809D01*
X133975142Y-113568000D01*
X133950952Y-113592190D01*
X133926761Y-113640571D01*
X133926761Y-113688952D01*
X133950952Y-113761523D01*
X134241238Y-114051809D01*
X133926761Y-114051809D01*
X126498047Y-83033809D02*
X126498047Y-83445047D01*
X126473857Y-83493428D01*
X126449666Y-83517619D01*
X126401285Y-83541809D01*
X126304523Y-83541809D01*
X126256142Y-83517619D01*
X126231952Y-83493428D01*
X126207761Y-83445047D01*
X126207761Y-83033809D01*
X125893285Y-83251523D02*
X125941666Y-83227333D01*
X125965857Y-83203142D01*
X125990047Y-83154761D01*
X125990047Y-83130571D01*
X125965857Y-83082190D01*
X125941666Y-83058000D01*
X125893285Y-83033809D01*
X125796523Y-83033809D01*
X125748142Y-83058000D01*
X125723952Y-83082190D01*
X125699761Y-83130571D01*
X125699761Y-83154761D01*
X125723952Y-83203142D01*
X125748142Y-83227333D01*
X125796523Y-83251523D01*
X125893285Y-83251523D01*
X125941666Y-83275714D01*
X125965857Y-83299904D01*
X125990047Y-83348285D01*
X125990047Y-83445047D01*
X125965857Y-83493428D01*
X125941666Y-83517619D01*
X125893285Y-83541809D01*
X125796523Y-83541809D01*
X125748142Y-83517619D01*
X125723952Y-83493428D01*
X125699761Y-83445047D01*
X125699761Y-83348285D01*
X125723952Y-83299904D01*
X125748142Y-83275714D01*
X125796523Y-83251523D01*
X138423952Y-81763809D02*
X138423952Y-82175047D01*
X138399761Y-82223428D01*
X138375571Y-82247619D01*
X138327190Y-82271809D01*
X138230428Y-82271809D01*
X138182047Y-82247619D01*
X138157857Y-82223428D01*
X138133666Y-82175047D01*
X138133666Y-81763809D01*
X137625666Y-82271809D02*
X137915952Y-82271809D01*
X137770809Y-82271809D02*
X137770809Y-81763809D01*
X137819190Y-81836380D01*
X137867571Y-81884761D01*
X137915952Y-81908952D01*
X137311190Y-81763809D02*
X137262809Y-81763809D01*
X137214428Y-81788000D01*
X137190238Y-81812190D01*
X137166047Y-81860571D01*
X137141857Y-81957333D01*
X137141857Y-82078285D01*
X137166047Y-82175047D01*
X137190238Y-82223428D01*
X137214428Y-82247619D01*
X137262809Y-82271809D01*
X137311190Y-82271809D01*
X137359571Y-82247619D01*
X137383761Y-82223428D01*
X137407952Y-82175047D01*
X137432142Y-82078285D01*
X137432142Y-81957333D01*
X137407952Y-81860571D01*
X137383761Y-81812190D01*
X137359571Y-81788000D01*
X137311190Y-81763809D01*
X125596952Y-83795809D02*
X125596952Y-84207047D01*
X125572761Y-84255428D01*
X125548571Y-84279619D01*
X125500190Y-84303809D01*
X125403428Y-84303809D01*
X125355047Y-84279619D01*
X125330857Y-84255428D01*
X125306666Y-84207047D01*
X125306666Y-83795809D01*
X124798666Y-84303809D02*
X125088952Y-84303809D01*
X124943809Y-84303809D02*
X124943809Y-83795809D01*
X124992190Y-83868380D01*
X125040571Y-83916761D01*
X125088952Y-83940952D01*
X124605142Y-83844190D02*
X124580952Y-83820000D01*
X124532571Y-83795809D01*
X124411619Y-83795809D01*
X124363238Y-83820000D01*
X124339047Y-83844190D01*
X124314857Y-83892571D01*
X124314857Y-83940952D01*
X124339047Y-84013523D01*
X124629333Y-84303809D01*
X124314857Y-84303809D01*
X121641809Y-89795047D02*
X122053047Y-89795047D01*
X122101428Y-89819238D01*
X122125619Y-89843428D01*
X122149809Y-89891809D01*
X122149809Y-89988571D01*
X122125619Y-90036952D01*
X122101428Y-90061142D01*
X122053047Y-90085333D01*
X121641809Y-90085333D01*
X122149809Y-90593333D02*
X122149809Y-90303047D01*
X122149809Y-90448190D02*
X121641809Y-90448190D01*
X121714380Y-90399809D01*
X121762761Y-90351428D01*
X121786952Y-90303047D01*
X121641809Y-90762666D02*
X121641809Y-91077142D01*
X121835333Y-90907809D01*
X121835333Y-90980380D01*
X121859523Y-91028761D01*
X121883714Y-91052952D01*
X121932095Y-91077142D01*
X122053047Y-91077142D01*
X122101428Y-91052952D01*
X122125619Y-91028761D01*
X122149809Y-90980380D01*
X122149809Y-90835238D01*
X122125619Y-90786857D01*
X122101428Y-90762666D01*
X135147904Y-85839904D02*
X135147904Y-86081809D01*
X135317238Y-85573809D02*
X135147904Y-85839904D01*
X134978571Y-85573809D01*
X134543142Y-86081809D02*
X134833428Y-86081809D01*
X134688285Y-86081809D02*
X134688285Y-85573809D01*
X134736666Y-85646380D01*
X134785047Y-85694761D01*
X134833428Y-85718952D01*
%LPC*%
D16*
X116619000Y-60592000D03*
X123919000Y-60592000D03*
X123919000Y-58392000D03*
X116619000Y-58392000D03*
D17*
X122519000Y-61242000D03*
X121019000Y-61242000D03*
X118019000Y-61242000D03*
D18*
X121769000Y-59492000D03*
X118769000Y-59492000D03*
D19*
X125869700Y-101346000D03*
X127368300Y-101346000D03*
X125869700Y-99060000D03*
X127368300Y-99060000D03*
X125869700Y-100203000D03*
X127368300Y-100203000D03*
X127368300Y-97917000D03*
X125869700Y-97917000D03*
D20*
X128519000Y-109100000D03*
D21*
X126369000Y-111900000D03*
X126369000Y-106300000D03*
D22*
X126619000Y-107800000D03*
X126619000Y-110400000D03*
X126619000Y-108450000D03*
X126619000Y-109750000D03*
X126619000Y-109100000D03*
D23*
X145116000Y-69682000D03*
X145116000Y-61382000D03*
D24*
X143166000Y-69682000D03*
X147066000Y-61382000D03*
X147066000Y-69682000D03*
X143166000Y-61382000D03*
D23*
X170434000Y-69682000D03*
X170434000Y-61382000D03*
D24*
X168484000Y-69682000D03*
X172384000Y-61382000D03*
X172384000Y-69682000D03*
X168484000Y-61382000D03*
D23*
X157734000Y-69682000D03*
X157734000Y-61382000D03*
D24*
X155784000Y-69682000D03*
X159684000Y-61382000D03*
X159684000Y-69682000D03*
X155784000Y-61382000D03*
D25*
X128397000Y-71396000D03*
X128397000Y-74146000D03*
D26*
X138090000Y-63586000D03*
X138740000Y-63586000D03*
X139390000Y-63586000D03*
X140040000Y-63586000D03*
X140040000Y-67986000D03*
X139390000Y-67986000D03*
X138740000Y-67986000D03*
X138090000Y-67986000D03*
X135518800Y-65395200D03*
X134868800Y-65395200D03*
X134218800Y-65395200D03*
X133568800Y-65395200D03*
X133568800Y-60995200D03*
X134218800Y-60995200D03*
X134868800Y-60995200D03*
X135518800Y-60995200D03*
X129740300Y-66538200D03*
X129090300Y-66538200D03*
X128440300Y-66538200D03*
X127790300Y-66538200D03*
X127790300Y-62138200D03*
X128440300Y-62138200D03*
X129090300Y-62138200D03*
X129740300Y-62138200D03*
D27*
X143383000Y-78398500D03*
X143383000Y-75398500D03*
X146685000Y-78398500D03*
X146685000Y-75398500D03*
X159385000Y-78398500D03*
X159385000Y-75398500D03*
X156083000Y-78398500D03*
X156083000Y-75398500D03*
X168783000Y-78398500D03*
X168783000Y-75398500D03*
X171958000Y-78398500D03*
X171958000Y-75398500D03*
D28*
X124333000Y-105398000D03*
X124333000Y-103898000D03*
X122682000Y-101739000D03*
X122682000Y-103239000D03*
X121289300Y-101727000D03*
X121289300Y-103227000D03*
D29*
X122416000Y-96329500D03*
X120916000Y-96329500D03*
D28*
X133281000Y-84119000D03*
X133281000Y-82619000D03*
X131684800Y-84130200D03*
X131684800Y-82630200D03*
D29*
X131466500Y-71501000D03*
X132966500Y-71501000D03*
X131466500Y-72961500D03*
X132966500Y-72961500D03*
X131466500Y-74485500D03*
X132966500Y-74485500D03*
X131466500Y-76009500D03*
X132966500Y-76009500D03*
X131466500Y-77533500D03*
X132966500Y-77533500D03*
X131466500Y-79057500D03*
X132966500Y-79057500D03*
X139422000Y-70929500D03*
X137922000Y-70929500D03*
X139421300Y-72466200D03*
X137921300Y-72466200D03*
X139434000Y-73977500D03*
X137934000Y-73977500D03*
X139434000Y-75501500D03*
X137934000Y-75501500D03*
X139434000Y-77025500D03*
X137934000Y-77025500D03*
X139434000Y-78549500D03*
X137934000Y-78549500D03*
D28*
X134239000Y-93028200D03*
X134239000Y-91528200D03*
D30*
X136779000Y-69203000D03*
X136779000Y-67703000D03*
D31*
X122403300Y-94881700D03*
X120903300Y-94881700D03*
D30*
X138557000Y-89269000D03*
X138557000Y-87769000D03*
D31*
X127623000Y-95758000D03*
X126123000Y-95758000D03*
D30*
X130937000Y-87642000D03*
X130937000Y-89142000D03*
X121031000Y-77101000D03*
X121031000Y-78601000D03*
X135255000Y-83681000D03*
X135255000Y-82181000D03*
X131953000Y-63131000D03*
X131953000Y-64631000D03*
X126174500Y-63587500D03*
X126174500Y-65087500D03*
X121031000Y-79895000D03*
X121031000Y-81395000D03*
D32*
X144726000Y-81788000D03*
X149726000Y-81788000D03*
X170842000Y-81788000D03*
X165842000Y-81788000D03*
D33*
X118000000Y-102201520D03*
X118000000Y-100200000D03*
D34*
X118000000Y-104203040D03*
D35*
X151384000Y-58166000D03*
X164084000Y-58166000D03*
D36*
X117182900Y-108458000D03*
X121183400Y-108458000D03*
X119181880Y-108458000D03*
D37*
X123184920Y-108458000D03*
D36*
X136851260Y-58000000D03*
X134849740Y-58000000D03*
X132848220Y-58000000D03*
X128847720Y-58000000D03*
X130849240Y-58000000D03*
D37*
X126846200Y-58000000D03*
D33*
X117983000Y-77045760D03*
X117983000Y-85049300D03*
X117983000Y-89049800D03*
X117983000Y-87048280D03*
D34*
X117983000Y-91051320D03*
D33*
X117983000Y-83045240D03*
X117983000Y-81043720D03*
X117983000Y-79044740D03*
X117983000Y-64545500D03*
X117983000Y-66547020D03*
X117983000Y-70547520D03*
X117983000Y-68546000D03*
D34*
X117983000Y-72549040D03*
D38*
X145114500Y-57785000D03*
X157734000Y-57785000D03*
X170434000Y-57785000D03*
D39*
X157734000Y-86800000D03*
D30*
X132715000Y-91579000D03*
X132715000Y-93079000D03*
X129667000Y-91579000D03*
X129667000Y-93079000D03*
X126492000Y-91452000D03*
X126492000Y-92952000D03*
X138148000Y-108881000D03*
X138148000Y-110381000D03*
X121412000Y-85229000D03*
X121412000Y-86729000D03*
X126492000Y-88404000D03*
X126492000Y-89904000D03*
D29*
X124829000Y-97917000D03*
X123329000Y-97917000D03*
D28*
X131191000Y-91579000D03*
X131191000Y-93079000D03*
X128143000Y-93067000D03*
X128143000Y-91567000D03*
D40*
X132388000Y-110367000D03*
D41*
X132263000Y-103692000D03*
D42*
X133138000Y-103692000D03*
X133938000Y-103692000D03*
X134738000Y-103692000D03*
X135538000Y-103692000D03*
D41*
X136413000Y-103692000D03*
D43*
X136288000Y-104692000D03*
D40*
X136288000Y-110367000D03*
D42*
X134738000Y-110092000D03*
X133938000Y-110092000D03*
X134338000Y-104892000D03*
D43*
X132388000Y-104692000D03*
D42*
X133538000Y-104892000D03*
X135138000Y-104892000D03*
D43*
X132388000Y-105492000D03*
X132388000Y-106292000D03*
X132388000Y-107092000D03*
X132388000Y-107892000D03*
X132388000Y-108692000D03*
X132388000Y-109492000D03*
X136288000Y-105492000D03*
X136288000Y-106292000D03*
X136288000Y-107092000D03*
X136288000Y-107892000D03*
X136288000Y-108692000D03*
X136288000Y-109492000D03*
D44*
X134338000Y-107492000D03*
D45*
X129261000Y-79375000D03*
D46*
X122961000Y-79375000D03*
X122961000Y-77075000D03*
X122961000Y-81675000D03*
D47*
X136695000Y-85024000D03*
X136695000Y-84074000D03*
X136695000Y-83124000D03*
X138895000Y-83124000D03*
X138895000Y-85024000D03*
X122979000Y-87056000D03*
X122979000Y-86106000D03*
X122979000Y-85156000D03*
X125179000Y-85156000D03*
X125179000Y-87056000D03*
D48*
X125029000Y-89324000D03*
X123129000Y-89324000D03*
X123129000Y-91524000D03*
X124079000Y-91524000D03*
X125029000Y-91524000D03*
D49*
X136556000Y-87285320D03*
X133256000Y-87285320D03*
X133256000Y-89285320D03*
X136556000Y-89285320D03*
D12*
G36*
X153162000Y-80010000D02*
G01*
X153164440Y-80034776D01*
X153171667Y-80058601D01*
X153183403Y-80080557D01*
X153199197Y-80099803D01*
X154215197Y-81115803D01*
X154234443Y-81131597D01*
X154256399Y-81143333D01*
X154280224Y-81150560D01*
X154305000Y-81153000D01*
X161163000Y-81153000D01*
X161187776Y-81150560D01*
X161211601Y-81143333D01*
X161233557Y-81131597D01*
X161252803Y-81115803D01*
X162268803Y-80099803D01*
X162284597Y-80080557D01*
X162296333Y-80058601D01*
X162303560Y-80034776D01*
X162306000Y-80010000D01*
X162306000Y-63881000D01*
X165989000Y-63881000D01*
X165989000Y-80192152D01*
X160665783Y-83391144D01*
X160645803Y-83405998D01*
X160629105Y-83424464D01*
X160616331Y-83445833D01*
X160607970Y-83469284D01*
X160604200Y-83500000D01*
X160604200Y-84455000D01*
X154863800Y-84455000D01*
X154863800Y-83500000D01*
X154861360Y-83475224D01*
X154854133Y-83451399D01*
X154842397Y-83429443D01*
X154826603Y-83410197D01*
X154802217Y-83391144D01*
X149479000Y-80192152D01*
X149479000Y-63881000D01*
X153162000Y-63881000D01*
X153162000Y-80010000D01*
G37*
X153162000Y-80010000D02*
X153164440Y-80034776D01*
X153171667Y-80058601D01*
X153183403Y-80080557D01*
X153199197Y-80099803D01*
X154215197Y-81115803D01*
X154234443Y-81131597D01*
X154256399Y-81143333D01*
X154280224Y-81150560D01*
X154305000Y-81153000D01*
X161163000Y-81153000D01*
X161187776Y-81150560D01*
X161211601Y-81143333D01*
X161233557Y-81131597D01*
X161252803Y-81115803D01*
X162268803Y-80099803D01*
X162284597Y-80080557D01*
X162296333Y-80058601D01*
X162303560Y-80034776D01*
X162306000Y-80010000D01*
X162306000Y-63881000D01*
X165989000Y-63881000D01*
X165989000Y-80192152D01*
X160665783Y-83391144D01*
X160645803Y-83405998D01*
X160629105Y-83424464D01*
X160616331Y-83445833D01*
X160607970Y-83469284D01*
X160604200Y-83500000D01*
X160604200Y-84455000D01*
X154863800Y-84455000D01*
X154863800Y-83500000D01*
X154861360Y-83475224D01*
X154854133Y-83451399D01*
X154842397Y-83429443D01*
X154826603Y-83410197D01*
X154802217Y-83391144D01*
X149479000Y-80192152D01*
X149479000Y-63881000D01*
X153162000Y-63881000D01*
X153162000Y-80010000D01*
M02*
