G04 #@! TF.GenerationSoftware,KiCad,Pcbnew,(5.1.5-0)*
G04 #@! TF.CreationDate,2020-03-16T19:18:14+08:00*
G04 #@! TF.ProjectId,VESC_6,56455343-5f36-42e6-9b69-6361645f7063,A*
G04 #@! TF.SameCoordinates,Original*
G04 #@! TF.FileFunction,Copper,L2,Inr*
G04 #@! TF.FilePolarity,Positive*
%FSLAX46Y46*%
G04 Gerber Fmt 4.6, Leading zero omitted, Abs format (unit mm)*
G04 Created by KiCad (PCBNEW (5.1.5-0)) date 2020-03-16 19:18:14*
%MOMM*%
%LPD*%
G04 APERTURE LIST*
%ADD10O,1.100000X2.200000*%
%ADD11O,1.100000X1.800000*%
%ADD12C,1.600000*%
%ADD13O,1.699260X1.198880*%
%ADD14R,1.699260X1.198880*%
%ADD15O,1.198880X1.699260*%
%ADD16R,1.198880X1.699260*%
%ADD17C,0.600000*%
%ADD18C,0.203200*%
%ADD19C,0.508000*%
%ADD20C,1.016000*%
%ADD21C,0.254000*%
G04 APERTURE END LIST*
D10*
X128519000Y-109100000D03*
D11*
X126369000Y-111900000D03*
X126369000Y-106300000D03*
D12*
X144726000Y-81788000D03*
X149726000Y-81788000D03*
X170842000Y-81788000D03*
X165842000Y-81788000D03*
D13*
X118000000Y-102201520D03*
X118000000Y-100200000D03*
D14*
X118000000Y-104203040D03*
D15*
X117182900Y-108458000D03*
X121183400Y-108458000D03*
X119181880Y-108458000D03*
D16*
X123184920Y-108458000D03*
D15*
X136851260Y-58000000D03*
X134849740Y-58000000D03*
X132848220Y-58000000D03*
X128847720Y-58000000D03*
X130849240Y-58000000D03*
D16*
X126846200Y-58000000D03*
D13*
X117983000Y-77045760D03*
X117983000Y-85049300D03*
X117983000Y-89049800D03*
X117983000Y-87048280D03*
D14*
X117983000Y-91051320D03*
D13*
X117983000Y-83045240D03*
X117983000Y-81043720D03*
X117983000Y-79044740D03*
X117983000Y-64545500D03*
X117983000Y-66547020D03*
X117983000Y-70547520D03*
X117983000Y-68546000D03*
D14*
X117983000Y-72549040D03*
D17*
X135763000Y-91313000D03*
X123373151Y-96310846D03*
X131064000Y-69977000D03*
X134874000Y-66800000D03*
X127232128Y-69342000D03*
X131699000Y-69977000D03*
X131699000Y-69342000D03*
X131064000Y-69342000D03*
X134239000Y-66800000D03*
X133604000Y-66802000D03*
X166471600Y-67640200D03*
X165887400Y-67640200D03*
X165303200Y-67640200D03*
X164719000Y-67640200D03*
X164134800Y-67640200D03*
X163550600Y-67640200D03*
X162966400Y-67640200D03*
X162382200Y-67640200D03*
X161798000Y-67640200D03*
X166471600Y-67056000D03*
X165887400Y-67056000D03*
X165303200Y-67056000D03*
X164719000Y-67056000D03*
X164134800Y-67056000D03*
X163550600Y-67056000D03*
X162966400Y-67056000D03*
X162382200Y-67056000D03*
X161798000Y-67056000D03*
X166471600Y-66471800D03*
X165887400Y-66471800D03*
X165303200Y-66471800D03*
X164719000Y-66471800D03*
X164134800Y-66471800D03*
X163550600Y-66471800D03*
X162966400Y-66471800D03*
X162382200Y-66471800D03*
X161798000Y-66471800D03*
X166471600Y-65887600D03*
X165887400Y-65887600D03*
X165303200Y-65887600D03*
X164719000Y-65887600D03*
X164134800Y-65887600D03*
X163550600Y-65887600D03*
X162966400Y-65887600D03*
X162382200Y-65887600D03*
X161798000Y-65887600D03*
X166471600Y-65303400D03*
X165887400Y-65303400D03*
X165303200Y-65303400D03*
X164719000Y-65303400D03*
X164134800Y-65303400D03*
X163550600Y-65303400D03*
X162966400Y-65303400D03*
X162382200Y-65303400D03*
X161798000Y-65303400D03*
X166471600Y-64719200D03*
X165887400Y-64719200D03*
X165303200Y-64719200D03*
X164719000Y-64719200D03*
X164134800Y-64719200D03*
X163550600Y-64719200D03*
X162966400Y-64719200D03*
X162382200Y-64719200D03*
X161798000Y-64719200D03*
X166471600Y-64135000D03*
X165887400Y-64135000D03*
X165303200Y-64135000D03*
X164719000Y-64135000D03*
X164134800Y-64135000D03*
X163550600Y-64135000D03*
X162966400Y-64135000D03*
X162382200Y-64135000D03*
X153644600Y-67640200D03*
X153060400Y-67640200D03*
X152476200Y-67640200D03*
X151892000Y-67640200D03*
X151307800Y-67640200D03*
X150723600Y-67640200D03*
X150139400Y-67640200D03*
X149555200Y-67640200D03*
X148971000Y-67640200D03*
X153644600Y-67056000D03*
X153060400Y-67056000D03*
X152476200Y-67056000D03*
X151892000Y-67056000D03*
X151307800Y-67056000D03*
X150723600Y-67056000D03*
X150139400Y-67056000D03*
X149555200Y-67056000D03*
X148971000Y-67056000D03*
X153644600Y-66471800D03*
X153060400Y-66471800D03*
X152476200Y-66471800D03*
X151892000Y-66471800D03*
X151307800Y-66471800D03*
X150723600Y-66471800D03*
X150139400Y-66471800D03*
X149555200Y-66471800D03*
X148971000Y-66471800D03*
X153644600Y-65887600D03*
X153060400Y-65887600D03*
X152476200Y-65887600D03*
X151892000Y-65887600D03*
X151307800Y-65887600D03*
X150723600Y-65887600D03*
X150139400Y-65887600D03*
X149555200Y-65887600D03*
X148971000Y-65887600D03*
X153644600Y-65303400D03*
X153060400Y-65303400D03*
X152476200Y-65303400D03*
X151892000Y-65303400D03*
X151307800Y-65303400D03*
X150723600Y-65303400D03*
X150139400Y-65303400D03*
X149555200Y-65303400D03*
X148971000Y-65303400D03*
X153644600Y-64719200D03*
X153060400Y-64719200D03*
X152476200Y-64719200D03*
X151892000Y-64719200D03*
X151307800Y-64719200D03*
X150723600Y-64719200D03*
X150139400Y-64719200D03*
X149555200Y-64719200D03*
X148971000Y-64719200D03*
X153644600Y-64135000D03*
X153060400Y-64135000D03*
X152476200Y-64135000D03*
X151892000Y-64135000D03*
X151307800Y-64135000D03*
X150723600Y-64135000D03*
X150139400Y-64135000D03*
X149555200Y-64135000D03*
X161798000Y-64135000D03*
X148971000Y-64135000D03*
X134620000Y-79756000D03*
X135128000Y-80264000D03*
X134112000Y-79248000D03*
X136906000Y-64516000D03*
X138148000Y-111282000D03*
X136598600Y-102265000D03*
X138049000Y-86614000D03*
X124849867Y-96930195D03*
X126365000Y-83693000D03*
X134620000Y-90297000D03*
X129476214Y-88223275D03*
X127516448Y-89653548D03*
X117475000Y-94869000D03*
X119126000Y-94869000D03*
X132333990Y-99949000D03*
X133995745Y-101102745D03*
X129023272Y-96785623D03*
X125095000Y-60705994D03*
X125730000Y-60706000D03*
X126365000Y-60706000D03*
X118999000Y-75565000D03*
X119060575Y-85813373D03*
X127866447Y-81915000D03*
X125349000Y-75946000D03*
X124460000Y-75565000D03*
X124079000Y-72009000D03*
X135331202Y-88925400D03*
X124663196Y-95681800D03*
X135043559Y-70650810D03*
X119500000Y-101492000D03*
X131826000Y-59690000D03*
X123190000Y-83642200D03*
X139171432Y-86006018D03*
X123647200Y-98907600D03*
X138694745Y-99197745D03*
X121492990Y-88886035D03*
X121945399Y-74015600D03*
X131191000Y-90297000D03*
X134357830Y-88119733D03*
X122047000Y-67310000D03*
X131572000Y-61214000D03*
X131554155Y-61889155D03*
X122618498Y-63817500D03*
X122072400Y-71272400D03*
X122072400Y-72313800D03*
X117000000Y-97536000D03*
X134801900Y-72182240D03*
X143000000Y-71500000D03*
X143624840Y-71500000D03*
X144249680Y-71500000D03*
X146124200Y-71500000D03*
X146749040Y-71500000D03*
X147373880Y-71500000D03*
X147998720Y-71500000D03*
X143000000Y-72124840D03*
X143624840Y-72124840D03*
X144249680Y-72124840D03*
X144874520Y-72124840D03*
X145499360Y-72124840D03*
X146124200Y-72124840D03*
X146749040Y-72124840D03*
X147373880Y-72124840D03*
X147998720Y-72124840D03*
X143624840Y-72749680D03*
X144249680Y-72749680D03*
X144874520Y-72749680D03*
X145499360Y-72749680D03*
X146124200Y-72749680D03*
X146749040Y-72749680D03*
X147373880Y-72749680D03*
X147998720Y-72749680D03*
X143624840Y-73374520D03*
X144249680Y-73374520D03*
X144874520Y-73374520D03*
X145499360Y-73374520D03*
X146124200Y-73374520D03*
X146749040Y-73374520D03*
X147373880Y-73374520D03*
X147998720Y-73374520D03*
X143002000Y-72771000D03*
X155575000Y-71501000D03*
X140843000Y-73660000D03*
X134981000Y-74919000D03*
X156197300Y-71501000D03*
X156819600Y-71501000D03*
X158686500Y-71501000D03*
X159308800Y-71501000D03*
X159931100Y-71501000D03*
X160553400Y-71501000D03*
X155575000Y-72123300D03*
X156197300Y-72123300D03*
X156819600Y-72123300D03*
X157441900Y-72123300D03*
X158064200Y-72123300D03*
X158686500Y-72123300D03*
X159308800Y-72123300D03*
X159931100Y-72123300D03*
X160553400Y-72123300D03*
X155575000Y-72745600D03*
X156197300Y-72745600D03*
X156819600Y-72745600D03*
X157441900Y-72745600D03*
X158064200Y-72745600D03*
X158686500Y-72745600D03*
X159308800Y-72745600D03*
X159931100Y-72745600D03*
X160553400Y-72745600D03*
X155575000Y-73367900D03*
X156197300Y-73367900D03*
X156819600Y-73367900D03*
X157441900Y-73367900D03*
X158064200Y-73367900D03*
X158686500Y-73367900D03*
X159308800Y-73367900D03*
X159931100Y-73367900D03*
X160553400Y-73367900D03*
X168275000Y-71501000D03*
X134866829Y-77759634D03*
X168897300Y-71501000D03*
X169519600Y-71501000D03*
X171386500Y-71501000D03*
X172008800Y-71501000D03*
X172631100Y-71501000D03*
X173253400Y-71501000D03*
X168275000Y-72123300D03*
X168897300Y-72123300D03*
X169519600Y-72123300D03*
X170141900Y-72123300D03*
X170764200Y-72123300D03*
X171386500Y-72123300D03*
X172008800Y-72123300D03*
X172631100Y-72123300D03*
X173253400Y-72123300D03*
X168275000Y-72745600D03*
X168897300Y-72745600D03*
X169519600Y-72745600D03*
X170141900Y-72745600D03*
X170764200Y-72745600D03*
X171386500Y-72745600D03*
X172008800Y-72745600D03*
X172631100Y-72745600D03*
X173253400Y-72745600D03*
X168275000Y-73367900D03*
X168897300Y-73367900D03*
X169519600Y-73367900D03*
X170141900Y-73367900D03*
X170764200Y-73367900D03*
X171386500Y-73367900D03*
X172008800Y-73367900D03*
X138176000Y-80264016D03*
X167513000Y-79375000D03*
X133731000Y-68580000D03*
X134391400Y-81508600D03*
X133834000Y-80957296D03*
X134162800Y-68148200D03*
X143383000Y-79375000D03*
X144018000Y-79375000D03*
X144653000Y-79375000D03*
X145288000Y-79375000D03*
X145923000Y-79375000D03*
X146558000Y-79375000D03*
X147193000Y-79375000D03*
X147828000Y-79375000D03*
X142113000Y-80010000D03*
X142748000Y-80010000D03*
X143383000Y-80010000D03*
X144018000Y-80010000D03*
X144653000Y-80010000D03*
X145288000Y-80010000D03*
X145923000Y-80010000D03*
X146558000Y-80010000D03*
X147193000Y-80010000D03*
X147828000Y-80010000D03*
X155448000Y-79375000D03*
X156083000Y-79375000D03*
X156718000Y-79375000D03*
X157353000Y-79375000D03*
X157988000Y-79375000D03*
X158623000Y-79375000D03*
X159258000Y-79375000D03*
X159893000Y-79375000D03*
X160528000Y-79375000D03*
X154813000Y-80010000D03*
X155448000Y-80010000D03*
X156083000Y-80010000D03*
X156718000Y-80010000D03*
X157353000Y-80010000D03*
X157988000Y-80010000D03*
X158623000Y-80010000D03*
X159258000Y-80010000D03*
X159893000Y-80010000D03*
X160528000Y-80010000D03*
X168148000Y-79375000D03*
X168783000Y-79375000D03*
X169418000Y-79375000D03*
X170053000Y-79375000D03*
X170688000Y-79375000D03*
X171323000Y-79375000D03*
X171958000Y-79375000D03*
X167513000Y-80010000D03*
X168148000Y-80010000D03*
X168783000Y-80010000D03*
X169418000Y-80010000D03*
X170053000Y-80010000D03*
X170688000Y-80010000D03*
X171323000Y-80010000D03*
X171958000Y-80010000D03*
X172593000Y-80010000D03*
X173228000Y-80010000D03*
X154813000Y-79375000D03*
X135382000Y-85344000D03*
X134077066Y-85268411D03*
X130429000Y-85268430D03*
X140334994Y-79883000D03*
X135153776Y-84627036D03*
X124470635Y-83577501D03*
X129413000Y-83947000D03*
X129485668Y-85236022D03*
X123954848Y-92506426D03*
X130860906Y-99656566D03*
X131699000Y-99440996D03*
X125476000Y-58673996D03*
X125349000Y-56388000D03*
X120696010Y-65670151D03*
X130114793Y-99559412D03*
X122047000Y-56515002D03*
X123317000Y-55654394D03*
X121285000Y-92710000D03*
X121483410Y-91051407D03*
X121365990Y-91948000D03*
X136398006Y-98806000D03*
X138637990Y-96801922D03*
X133857998Y-96901000D03*
X132969000Y-99314000D03*
X128706578Y-102362000D03*
X127863596Y-102717600D03*
X128482403Y-105790264D03*
X121873990Y-68326000D03*
X129921000Y-68453000D03*
X130193612Y-88450131D03*
X126492000Y-85471004D03*
X127254000Y-85725002D03*
X127640348Y-86619768D03*
X147039000Y-58901000D03*
X146404000Y-58901000D03*
X145769000Y-58901000D03*
X145134000Y-58901000D03*
X144499000Y-58901000D03*
X143864000Y-58901000D03*
X143229000Y-58901000D03*
X147039000Y-58266000D03*
X146404000Y-58266000D03*
X145769000Y-58266000D03*
X145134000Y-58266000D03*
X144499000Y-58266000D03*
X143864000Y-58266000D03*
X143229000Y-58266000D03*
X147039000Y-57631000D03*
X146404000Y-57631000D03*
X145769000Y-57631000D03*
X145134000Y-57631000D03*
X144499000Y-57631000D03*
X143864000Y-57631000D03*
X143229000Y-57631000D03*
X147039000Y-56996000D03*
X146404000Y-56996000D03*
X145769000Y-56996000D03*
X145134000Y-56996000D03*
X144499000Y-56996000D03*
X143864000Y-56996000D03*
X143229000Y-56996000D03*
X147039000Y-56361000D03*
X146404000Y-56361000D03*
X145769000Y-56361000D03*
X145134000Y-56361000D03*
X144499000Y-56361000D03*
X143864000Y-56361000D03*
X143229000Y-56361000D03*
X134859694Y-71406578D03*
X134983565Y-72918030D03*
X159639000Y-58901000D03*
X159004000Y-58901000D03*
X158369000Y-58901000D03*
X157734000Y-58901000D03*
X157099000Y-58901000D03*
X156464000Y-58901000D03*
X155829000Y-58901000D03*
X159639000Y-58266000D03*
X159004000Y-58266000D03*
X158369000Y-58266000D03*
X157734000Y-58266000D03*
X157099000Y-58266000D03*
X156464000Y-58266000D03*
X155829000Y-58266000D03*
X159639000Y-57631000D03*
X159004000Y-57631000D03*
X158369000Y-57631000D03*
X157734000Y-57631000D03*
X157099000Y-57631000D03*
X156464000Y-57631000D03*
X155829000Y-57631000D03*
X159639000Y-56996000D03*
X159004000Y-56996000D03*
X158369000Y-56996000D03*
X157734000Y-56996000D03*
X157099000Y-56996000D03*
X156464000Y-56996000D03*
X155829000Y-56996000D03*
X159639000Y-56361000D03*
X159004000Y-56361000D03*
X158369000Y-56361000D03*
X157734000Y-56361000D03*
X157099000Y-56361000D03*
X156464000Y-56361000D03*
X155829000Y-56361000D03*
X135081000Y-74119000D03*
X134981000Y-75719000D03*
X172339000Y-58901000D03*
X171704000Y-58901000D03*
X171069000Y-58901000D03*
X170434000Y-58901000D03*
X169799000Y-58901000D03*
X169164000Y-58901000D03*
X168529000Y-58901000D03*
X172339000Y-58266000D03*
X171704000Y-58266000D03*
X171069000Y-58266000D03*
X170434000Y-58266000D03*
X169799000Y-58266000D03*
X169164000Y-58266000D03*
X168529000Y-58266000D03*
X172339000Y-57631000D03*
X171704000Y-57631000D03*
X171069000Y-57631000D03*
X170434000Y-57631000D03*
X169799000Y-57631000D03*
X169164000Y-57631000D03*
X168529000Y-57631000D03*
X172339000Y-56996000D03*
X171704000Y-56996000D03*
X171069000Y-56996000D03*
X170434000Y-56996000D03*
X169799000Y-56996000D03*
X169164000Y-56996000D03*
X168529000Y-56996000D03*
X172339000Y-56361000D03*
X171704000Y-56361000D03*
X171069000Y-56361000D03*
X170434000Y-56361000D03*
X169799000Y-56361000D03*
X169164000Y-56361000D03*
X168529000Y-56361000D03*
X134860669Y-76981846D03*
X134889640Y-78537112D03*
X139953998Y-66848010D03*
X134239000Y-93980000D03*
X133858000Y-59182000D03*
X130810000Y-93853000D03*
X128285958Y-60513413D03*
X129098650Y-94052717D03*
X130081000Y-76019000D03*
X128293140Y-96967368D03*
X127127000Y-76453990D03*
X128574250Y-99568000D03*
X129326661Y-99568000D03*
X126111000Y-77597000D03*
X129794000Y-70866000D03*
X131516902Y-96464304D03*
X127235055Y-72768890D03*
X138637990Y-95511593D03*
X130048000Y-72517004D03*
X138637990Y-94750777D03*
X130048887Y-71633226D03*
X138637990Y-93970921D03*
X119587990Y-98715145D03*
X123698000Y-94742000D03*
X119507000Y-100457000D03*
X124497033Y-94325659D03*
X130040229Y-75242258D03*
X132162712Y-96850378D03*
X129901590Y-76826915D03*
X129476469Y-96185010D03*
X129858399Y-94911909D03*
X127000002Y-77355385D03*
X138625301Y-93092742D03*
X130048000Y-74422000D03*
X130048000Y-69723000D03*
X138546340Y-91152529D03*
X121666000Y-99568000D03*
X138935171Y-91796682D03*
X124475365Y-98881671D03*
X139472582Y-92329000D03*
X136017000Y-62865000D03*
X153924000Y-61468000D03*
X136271000Y-61849000D03*
X153162000Y-61214000D03*
X132310282Y-65970701D03*
X166497000Y-61214000D03*
X131699000Y-65532000D03*
X165735000Y-61468000D03*
X140335000Y-72842410D03*
X143510000Y-67691000D03*
X140589006Y-71247000D03*
X143510000Y-77017590D03*
X140600000Y-74500000D03*
X154635197Y-77165203D03*
X140300000Y-75300000D03*
X156083000Y-67691000D03*
X159766000Y-67691000D03*
X141224000Y-70612000D03*
X168783000Y-67691000D03*
X137904193Y-79451912D03*
X130810000Y-103886000D03*
X130937000Y-105664000D03*
X120570694Y-93259226D03*
X127392255Y-94762621D03*
X134874000Y-96439010D03*
X129794000Y-110108998D03*
X122174000Y-97917000D03*
X137033000Y-96901000D03*
X118999000Y-84074000D03*
X124907284Y-94956386D03*
X121623887Y-83654021D03*
X135001000Y-94996000D03*
D18*
X139572999Y-93249339D02*
X139572999Y-96901001D01*
X135763000Y-91313000D02*
X137636660Y-91313000D01*
X135001000Y-98425000D02*
X125487305Y-98425000D01*
X136144000Y-99568000D02*
X135001000Y-98425000D01*
X137636660Y-91313000D02*
X139572999Y-93249339D01*
X136906000Y-99568000D02*
X136144000Y-99568000D01*
X125487305Y-98425000D02*
X123373151Y-96310846D01*
X139572999Y-96901001D02*
X136906000Y-99568000D01*
X126466600Y-74015600D02*
X121945399Y-74015600D01*
X128270000Y-75819000D02*
X126466600Y-74015600D01*
X128270000Y-80010000D02*
X128270000Y-75819000D01*
X131191000Y-82931000D02*
X128270000Y-80010000D01*
X131191000Y-90297000D02*
X131191000Y-82931000D01*
X122809000Y-66548000D02*
X122047000Y-67310000D01*
D19*
X131554155Y-61993845D02*
X131554155Y-61889155D01*
D20*
X131572000Y-61871310D02*
X131554155Y-61889155D01*
X131572000Y-61214000D02*
X131572000Y-61871310D01*
X122072400Y-71272400D02*
X122072400Y-72313800D01*
D19*
X122170910Y-71272400D02*
X131572000Y-61871310D01*
X122072400Y-71272400D02*
X122170910Y-71272400D01*
X122809000Y-70535800D02*
X122072400Y-71272400D01*
X122809000Y-66548000D02*
X122809000Y-70535800D01*
X122809000Y-64008002D02*
X122618498Y-63817500D01*
X122809000Y-66548000D02*
X122809000Y-64008002D01*
X141732000Y-73660000D02*
X142367000Y-74295000D01*
X154647900Y-74295000D02*
X155575000Y-73367900D01*
X142367000Y-74295000D02*
X154647900Y-74295000D01*
X140843000Y-73660000D02*
X141732000Y-73660000D01*
X168275000Y-73367900D02*
X165871278Y-75771622D01*
X165871278Y-75771622D02*
X142668394Y-75771622D01*
X142668394Y-75771622D02*
X138176000Y-80264016D01*
D20*
X134795704Y-81919000D02*
X140204000Y-81919000D01*
X140204000Y-81919000D02*
X142367000Y-79756000D01*
X142367000Y-79756000D02*
X147955000Y-79756000D01*
X133350000Y-68961000D02*
X133731000Y-68580000D01*
X133350000Y-68961000D02*
X134162800Y-68148200D01*
X134795704Y-81919000D02*
X134795704Y-81912904D01*
X134795704Y-81912904D02*
X134391400Y-81508600D01*
X133350000Y-80473296D02*
X133834000Y-80957296D01*
X134795704Y-81919000D02*
X133350000Y-80473296D01*
X133096000Y-80219296D02*
X133350000Y-80473296D01*
X133096000Y-69215000D02*
X133096000Y-80219296D01*
X133350000Y-68961000D02*
X133096000Y-69215000D01*
D18*
X134152655Y-85344000D02*
X134077066Y-85268411D01*
X135382000Y-85344000D02*
X134152655Y-85344000D01*
X124894899Y-83577501D02*
X125668400Y-82804000D01*
X124470635Y-83577501D02*
X124894899Y-83577501D01*
X128270000Y-82804000D02*
X129413000Y-83947000D01*
X125668400Y-82804000D02*
X128270000Y-82804000D01*
X126238004Y-59436000D02*
X125476000Y-58673996D01*
X128557775Y-59436000D02*
X126238004Y-59436000D01*
X128847720Y-59146055D02*
X128557775Y-59436000D01*
X128847720Y-58000000D02*
X128847720Y-59146055D01*
X131359410Y-56388000D02*
X125349000Y-56388000D01*
X132848220Y-57876810D02*
X131359410Y-56388000D01*
X132848220Y-58000000D02*
X132848220Y-57876810D01*
X120696010Y-59008990D02*
X120696010Y-65670151D01*
X123317000Y-56388000D02*
X120696010Y-59008990D01*
X125349000Y-56388000D02*
X123317000Y-56388000D01*
X119036521Y-83045240D02*
X117983000Y-83045240D01*
X120269000Y-84277719D02*
X119036521Y-83045240D01*
X121483410Y-89988659D02*
X120269000Y-88774249D01*
X120269000Y-88774249D02*
X120269000Y-84277719D01*
X121483410Y-91051407D02*
X121483410Y-89988659D01*
X119888000Y-85471000D02*
X119466300Y-85049300D01*
X119466300Y-85049300D02*
X117983000Y-85049300D01*
X119888000Y-90470010D02*
X119888000Y-85471000D01*
X121365990Y-91948000D02*
X119888000Y-90470010D01*
X120650000Y-82042000D02*
X120142000Y-81534000D01*
X126263389Y-91846389D02*
X120650000Y-86233000D01*
X119035830Y-70547520D02*
X117983000Y-70547520D01*
X120142000Y-81534000D02*
X120142000Y-71653690D01*
X127736611Y-98018611D02*
X126263389Y-96545389D01*
X126263389Y-96545389D02*
X126263389Y-91846389D01*
X136398006Y-98806000D02*
X135610617Y-98018611D01*
X120142000Y-71653690D02*
X119035830Y-70547520D01*
X120650000Y-86233000D02*
X120650000Y-82042000D01*
X135610617Y-98018611D02*
X127736611Y-98018611D01*
X119035830Y-66547020D02*
X117983000Y-66547020D01*
X121031000Y-85979000D02*
X121031000Y-81851500D01*
X126619000Y-91699091D02*
X121031000Y-85979000D01*
X120497611Y-81318111D02*
X120497611Y-68008801D01*
X138637990Y-96801922D02*
X137776912Y-97663000D01*
X121031000Y-81851500D02*
X120497611Y-81318111D01*
X137776912Y-97663000D02*
X127889000Y-97663000D01*
X127889000Y-97663000D02*
X126619000Y-96393000D01*
X120497611Y-68008801D02*
X119035830Y-66547020D01*
X126619000Y-96393000D02*
X126619000Y-91699091D01*
X139953998Y-66848010D02*
X139228356Y-66122368D01*
X126111000Y-68884800D02*
X126111000Y-72898000D01*
X128651000Y-75438000D02*
X128651000Y-79756000D01*
X139228356Y-66122368D02*
X133140632Y-66122368D01*
X126111000Y-72898000D02*
X128651000Y-75438000D01*
X133140632Y-66122368D02*
X132130800Y-67132200D01*
X127863600Y-67132200D02*
X126111000Y-68884800D01*
X132130800Y-67132200D02*
X127863600Y-67132200D01*
X131800591Y-91541591D02*
X134239000Y-93980000D01*
X128651000Y-79756000D02*
X131800591Y-82905591D01*
X131800591Y-82905591D02*
X131800591Y-91541591D01*
X129921000Y-93853000D02*
X130810000Y-93853000D01*
X122555000Y-81915000D02*
X122555000Y-86487000D01*
X121285000Y-80645000D02*
X122555000Y-81915000D01*
X121492999Y-64729091D02*
X121767611Y-65003702D01*
X122555000Y-86487000D02*
X129921000Y-93853000D01*
X133858000Y-59182000D02*
X132715000Y-60325000D01*
X121285000Y-66548000D02*
X121285000Y-80645000D01*
X121767611Y-66065389D02*
X121285000Y-66548000D01*
X121492999Y-62935491D02*
X121492999Y-64729091D01*
X130556000Y-60325000D02*
X128233589Y-62647411D01*
X121781079Y-62647411D02*
X121492999Y-62935491D01*
X121767611Y-65003702D02*
X121767611Y-66065389D01*
X128233589Y-62647411D02*
X121781079Y-62647411D01*
X132715000Y-60325000D02*
X130556000Y-60325000D01*
X120904000Y-80899000D02*
X122179091Y-82174091D01*
X121412000Y-65918092D02*
X120904000Y-66426092D01*
X121412000Y-65151001D02*
X121412000Y-65918092D01*
X122179091Y-82174091D02*
X122179091Y-86645343D01*
X127077371Y-61722000D02*
X122203581Y-61722000D01*
X121137388Y-64876389D02*
X121412000Y-65151001D01*
X128285958Y-60513413D02*
X127077371Y-61722000D01*
X129098650Y-93564902D02*
X129098650Y-94052717D01*
X122179091Y-86645343D02*
X129098650Y-93564902D01*
X121137388Y-62788193D02*
X121137388Y-64876389D01*
X120904000Y-66426092D02*
X120904000Y-80899000D01*
X122203581Y-61722000D02*
X121137388Y-62788193D01*
X127535054Y-73068889D02*
X129837889Y-73068889D01*
X137347424Y-95511593D02*
X138637990Y-95511593D01*
X131368778Y-74599778D02*
X131368778Y-81457778D01*
X131368778Y-81457778D02*
X132562611Y-82651611D01*
X127235055Y-72768890D02*
X127535054Y-73068889D01*
X132562611Y-90726780D02*
X137347424Y-95511593D01*
X132562611Y-82651611D02*
X132562611Y-90726780D01*
X129837889Y-73068889D02*
X131368778Y-74599778D01*
X131724389Y-74193393D02*
X131724389Y-81056480D01*
X130048000Y-72517004D02*
X131724389Y-74193393D01*
X132918222Y-90579482D02*
X137089517Y-94750777D01*
X137089517Y-94750777D02*
X138637990Y-94750777D01*
X132918222Y-82250313D02*
X132918222Y-90579482D01*
X131724389Y-81056480D02*
X132918222Y-82250313D01*
X136812570Y-93970921D02*
X138637990Y-93970921D01*
X133273833Y-90432184D02*
X136812570Y-93970921D01*
X132080000Y-80909182D02*
X133273833Y-82103015D01*
X132080000Y-73664339D02*
X132080000Y-80909182D01*
X130048887Y-71633226D02*
X132080000Y-73664339D01*
X133273833Y-82103015D02*
X133273833Y-90432184D01*
X123263871Y-94742000D02*
X123698000Y-94742000D01*
X119587990Y-98344010D02*
X119634000Y-98298000D01*
X119634000Y-98298000D02*
X123263871Y-94742000D01*
X119587990Y-98715145D02*
X119587990Y-98344010D01*
X119587990Y-98417881D02*
X119634000Y-98298000D01*
X124333000Y-94926922D02*
X124333000Y-94489692D01*
X120269000Y-98583490D02*
X123556489Y-95296001D01*
X123963921Y-95296001D02*
X124333000Y-94926922D01*
X123556489Y-95296001D02*
X123963921Y-95296001D01*
X120269000Y-99695000D02*
X120269000Y-98583490D01*
X124333000Y-94489692D02*
X124497033Y-94325659D01*
X119507000Y-100457000D02*
X120269000Y-99695000D01*
X131013167Y-75387167D02*
X130048000Y-74422000D01*
X132207000Y-82809092D02*
X131013167Y-81615259D01*
X132207000Y-90932000D02*
X132207000Y-82809092D01*
X138938000Y-96139000D02*
X137414000Y-96139000D01*
X139217389Y-95859611D02*
X138938000Y-96139000D01*
X137414000Y-96139000D02*
X132207000Y-90932000D01*
X131013167Y-81615259D02*
X131013167Y-75387167D01*
X139217389Y-93684830D02*
X139217389Y-95859611D01*
X138625301Y-93092742D02*
X139217389Y-93684830D01*
X152908000Y-62484000D02*
X153924000Y-61468000D01*
X136017000Y-62865000D02*
X136398000Y-62484000D01*
X136398000Y-62484000D02*
X152908000Y-62484000D01*
X152527000Y-61849000D02*
X153162000Y-61214000D01*
X136271000Y-61849000D02*
X152527000Y-61849000D01*
X166497000Y-61638264D02*
X166497000Y-61214000D01*
X137074129Y-65670702D02*
X139498831Y-63246000D01*
X139498831Y-63246000D02*
X164889264Y-63246000D01*
X132610281Y-65670702D02*
X137074129Y-65670702D01*
X132310282Y-65970701D02*
X132610281Y-65670702D01*
X164889264Y-63246000D02*
X166497000Y-61638264D01*
X164338011Y-62864989D02*
X165735000Y-61468000D01*
X139376933Y-62864989D02*
X164338011Y-62864989D01*
X137171921Y-65070001D02*
X139376933Y-62864989D01*
X132160999Y-65070001D02*
X137171921Y-65070001D01*
X131699000Y-65532000D02*
X132160999Y-65070001D01*
D19*
X142270294Y-75085811D02*
X137904193Y-79451912D01*
X167386000Y-72009000D02*
X164309189Y-75085811D01*
X167386000Y-69088000D02*
X167386000Y-72009000D01*
X164309189Y-75085811D02*
X142270294Y-75085811D01*
X168783000Y-67691000D02*
X167386000Y-69088000D01*
D18*
X134065990Y-95631000D02*
X134874000Y-96439010D01*
X127392255Y-94762621D02*
X128260634Y-95631000D01*
X128260634Y-95631000D02*
X134065990Y-95631000D01*
X120650000Y-99016736D02*
X121749736Y-97917000D01*
X129159000Y-104267000D02*
X124714000Y-104267000D01*
X120650000Y-100203000D02*
X120650000Y-99016736D01*
X129794000Y-104902000D02*
X129159000Y-104267000D01*
X121749736Y-97917000D02*
X122174000Y-97917000D01*
X124714000Y-104267000D02*
X120650000Y-100203000D01*
X129794000Y-110108998D02*
X129794000Y-104902000D01*
D21*
G36*
X122636000Y-55587321D02*
G01*
X122636000Y-55721467D01*
X122662171Y-55853034D01*
X122713506Y-55976968D01*
X122788033Y-56088506D01*
X122861014Y-56161487D01*
X122702544Y-56319956D01*
X122701829Y-56316362D01*
X122650494Y-56192428D01*
X122575967Y-56080890D01*
X122481112Y-55986035D01*
X122369574Y-55911508D01*
X122245640Y-55860173D01*
X122114073Y-55834002D01*
X121979927Y-55834002D01*
X121848360Y-55860173D01*
X121724426Y-55911508D01*
X121612888Y-55986035D01*
X121518033Y-56080890D01*
X121443506Y-56192428D01*
X121392171Y-56316362D01*
X121366000Y-56447929D01*
X121366000Y-56582075D01*
X121392171Y-56713642D01*
X121443506Y-56837576D01*
X121518033Y-56949114D01*
X121612888Y-57043969D01*
X121724426Y-57118496D01*
X121848360Y-57169831D01*
X121851954Y-57170546D01*
X120371528Y-58650973D01*
X120353109Y-58666089D01*
X120292801Y-58739575D01*
X120247988Y-58823414D01*
X120220393Y-58914385D01*
X120213410Y-58985283D01*
X120211075Y-59008990D01*
X120213410Y-59032695D01*
X120213411Y-65189671D01*
X120167043Y-65236039D01*
X120092516Y-65347577D01*
X120041181Y-65471511D01*
X120015010Y-65603078D01*
X120015010Y-65737224D01*
X120041181Y-65868791D01*
X120092516Y-65992725D01*
X120167043Y-66104263D01*
X120261898Y-66199118D01*
X120373436Y-66273645D01*
X120437837Y-66300321D01*
X120428383Y-66331487D01*
X120422444Y-66391784D01*
X120419065Y-66426092D01*
X120421400Y-66449797D01*
X120421400Y-67250090D01*
X119393847Y-66222538D01*
X119378731Y-66204119D01*
X119305245Y-66143811D01*
X119221407Y-66098998D01*
X119130436Y-66071403D01*
X119088466Y-66067269D01*
X119052340Y-65999682D01*
X118929820Y-65850390D01*
X118780528Y-65727870D01*
X118610203Y-65636830D01*
X118425390Y-65580767D01*
X118281347Y-65566580D01*
X117684653Y-65566580D01*
X117540610Y-65580767D01*
X117355797Y-65636830D01*
X117185472Y-65727870D01*
X117036180Y-65850390D01*
X116913660Y-65999682D01*
X116822620Y-66170007D01*
X116766557Y-66354820D01*
X116747627Y-66547020D01*
X116766557Y-66739220D01*
X116822620Y-66924033D01*
X116913660Y-67094358D01*
X117036180Y-67243650D01*
X117185472Y-67366170D01*
X117355797Y-67457210D01*
X117540610Y-67513273D01*
X117684653Y-67527460D01*
X118281347Y-67527460D01*
X118425390Y-67513273D01*
X118610203Y-67457210D01*
X118780528Y-67366170D01*
X118929820Y-67243650D01*
X118983974Y-67177663D01*
X120015012Y-68208702D01*
X120015012Y-70844202D01*
X119393847Y-70223038D01*
X119378731Y-70204619D01*
X119305245Y-70144311D01*
X119221407Y-70099498D01*
X119130436Y-70071903D01*
X119088466Y-70067769D01*
X119052340Y-70000182D01*
X118929820Y-69850890D01*
X118780528Y-69728370D01*
X118610203Y-69637330D01*
X118425390Y-69581267D01*
X118281347Y-69567080D01*
X117684653Y-69567080D01*
X117540610Y-69581267D01*
X117355797Y-69637330D01*
X117185472Y-69728370D01*
X117036180Y-69850890D01*
X116913660Y-70000182D01*
X116822620Y-70170507D01*
X116766557Y-70355320D01*
X116747627Y-70547520D01*
X116766557Y-70739720D01*
X116822620Y-70924533D01*
X116913660Y-71094858D01*
X117036180Y-71244150D01*
X117185472Y-71366670D01*
X117355797Y-71457710D01*
X117540610Y-71513773D01*
X117684653Y-71527960D01*
X118281347Y-71527960D01*
X118425390Y-71513773D01*
X118610203Y-71457710D01*
X118780528Y-71366670D01*
X118929820Y-71244150D01*
X118983974Y-71178163D01*
X119659401Y-71853591D01*
X119659400Y-81510295D01*
X119657065Y-81534000D01*
X119659400Y-81557705D01*
X119659400Y-81557706D01*
X119666383Y-81628605D01*
X119693978Y-81719576D01*
X119738791Y-81803415D01*
X119799099Y-81876901D01*
X119817518Y-81892017D01*
X120167401Y-82241900D01*
X120167401Y-83493620D01*
X119394538Y-82720758D01*
X119379422Y-82702339D01*
X119305936Y-82642031D01*
X119222098Y-82597218D01*
X119131127Y-82569623D01*
X119088428Y-82565417D01*
X119052340Y-82497902D01*
X118929820Y-82348610D01*
X118780528Y-82226090D01*
X118610203Y-82135050D01*
X118425390Y-82078987D01*
X118281347Y-82064800D01*
X117684653Y-82064800D01*
X117540610Y-82078987D01*
X117355797Y-82135050D01*
X117185472Y-82226090D01*
X117036180Y-82348610D01*
X116913660Y-82497902D01*
X116822620Y-82668227D01*
X116766557Y-82853040D01*
X116747627Y-83045240D01*
X116766557Y-83237440D01*
X116822620Y-83422253D01*
X116913660Y-83592578D01*
X117036180Y-83741870D01*
X117185472Y-83864390D01*
X117355797Y-83955430D01*
X117540610Y-84011493D01*
X117684653Y-84025680D01*
X118281347Y-84025680D01*
X118318000Y-84022070D01*
X118318000Y-84072470D01*
X118281347Y-84068860D01*
X117684653Y-84068860D01*
X117540610Y-84083047D01*
X117355797Y-84139110D01*
X117185472Y-84230150D01*
X117036180Y-84352670D01*
X116913660Y-84501962D01*
X116822620Y-84672287D01*
X116766557Y-84857100D01*
X116747627Y-85049300D01*
X116766557Y-85241500D01*
X116822620Y-85426313D01*
X116913660Y-85596638D01*
X117036180Y-85745930D01*
X117185472Y-85868450D01*
X117355797Y-85959490D01*
X117540610Y-86015553D01*
X117684653Y-86029740D01*
X118281347Y-86029740D01*
X118425390Y-86015553D01*
X118610203Y-85959490D01*
X118780528Y-85868450D01*
X118929820Y-85745930D01*
X119052340Y-85596638D01*
X119086943Y-85531900D01*
X119266401Y-85531900D01*
X119405401Y-85670901D01*
X119405400Y-90446305D01*
X119403065Y-90470010D01*
X119405400Y-90493715D01*
X119405400Y-90493716D01*
X119412383Y-90564615D01*
X119439978Y-90655586D01*
X119484791Y-90739425D01*
X119545099Y-90812911D01*
X119563518Y-90828027D01*
X120684990Y-91949500D01*
X120684990Y-92015073D01*
X120711161Y-92146640D01*
X120762159Y-92269762D01*
X120756033Y-92275888D01*
X120681506Y-92387426D01*
X120630171Y-92511360D01*
X120616870Y-92578226D01*
X120503621Y-92578226D01*
X120372054Y-92604397D01*
X120248120Y-92655732D01*
X120136582Y-92730259D01*
X120041727Y-92825114D01*
X119967200Y-92936652D01*
X119915865Y-93060586D01*
X119889694Y-93192153D01*
X119889694Y-93326299D01*
X119915865Y-93457866D01*
X119967200Y-93581800D01*
X120041727Y-93693338D01*
X120136582Y-93788193D01*
X120248120Y-93862720D01*
X120372054Y-93914055D01*
X120503621Y-93940226D01*
X120637767Y-93940226D01*
X120769334Y-93914055D01*
X120893268Y-93862720D01*
X121004806Y-93788193D01*
X121099661Y-93693338D01*
X121174188Y-93581800D01*
X121225523Y-93457866D01*
X121238824Y-93391000D01*
X121352073Y-93391000D01*
X121483640Y-93364829D01*
X121607574Y-93313494D01*
X121719112Y-93238967D01*
X121813967Y-93144112D01*
X121888494Y-93032574D01*
X121939829Y-92908640D01*
X121966000Y-92777073D01*
X121966000Y-92642927D01*
X121939829Y-92511360D01*
X121910004Y-92439353D01*
X123273848Y-92439353D01*
X123273848Y-92573499D01*
X123300019Y-92705066D01*
X123351354Y-92829000D01*
X123425881Y-92940538D01*
X123520736Y-93035393D01*
X123632274Y-93109920D01*
X123756208Y-93161255D01*
X123887775Y-93187426D01*
X124021921Y-93187426D01*
X124153488Y-93161255D01*
X124277422Y-93109920D01*
X124388960Y-93035393D01*
X124483815Y-92940538D01*
X124558342Y-92829000D01*
X124609677Y-92705066D01*
X124635848Y-92573499D01*
X124635848Y-92439353D01*
X124609677Y-92307786D01*
X124558342Y-92183852D01*
X124483815Y-92072314D01*
X124388960Y-91977459D01*
X124277422Y-91902932D01*
X124153488Y-91851597D01*
X124021921Y-91825426D01*
X123887775Y-91825426D01*
X123756208Y-91851597D01*
X123632274Y-91902932D01*
X123520736Y-91977459D01*
X123425881Y-92072314D01*
X123351354Y-92183852D01*
X123300019Y-92307786D01*
X123273848Y-92439353D01*
X121910004Y-92439353D01*
X121888831Y-92388238D01*
X121894957Y-92382112D01*
X121969484Y-92270574D01*
X122020819Y-92146640D01*
X122046990Y-92015073D01*
X122046990Y-91880927D01*
X122020819Y-91749360D01*
X121969484Y-91625426D01*
X121930626Y-91567270D01*
X122012377Y-91485519D01*
X122086904Y-91373981D01*
X122138239Y-91250047D01*
X122164410Y-91118480D01*
X122164410Y-90984334D01*
X122138239Y-90852767D01*
X122086904Y-90728833D01*
X122012377Y-90617295D01*
X121966010Y-90570928D01*
X121966010Y-90012363D01*
X121968345Y-89988658D01*
X121964266Y-89947249D01*
X121959027Y-89894053D01*
X121931432Y-89803082D01*
X121886619Y-89719244D01*
X121826311Y-89645758D01*
X121807898Y-89630647D01*
X121710358Y-89533107D01*
X121815564Y-89489529D01*
X121927102Y-89415002D01*
X122021957Y-89320147D01*
X122096484Y-89208609D01*
X122147819Y-89084675D01*
X122173990Y-88953108D01*
X122173990Y-88818962D01*
X122147819Y-88687395D01*
X122096484Y-88563461D01*
X122021957Y-88451923D01*
X121927102Y-88357068D01*
X121815564Y-88282541D01*
X121691630Y-88231206D01*
X121560063Y-88205035D01*
X121425917Y-88205035D01*
X121294350Y-88231206D01*
X121170416Y-88282541D01*
X121058878Y-88357068D01*
X120964023Y-88451923D01*
X120889496Y-88563461D01*
X120845918Y-88668668D01*
X120751600Y-88574350D01*
X120751600Y-87017099D01*
X125780790Y-92046290D01*
X125780789Y-96521684D01*
X125778454Y-96545389D01*
X125780789Y-96569094D01*
X125780789Y-96569095D01*
X125787772Y-96639994D01*
X125815367Y-96730965D01*
X125860180Y-96814804D01*
X125920488Y-96888290D01*
X125938907Y-96903406D01*
X126977900Y-97942400D01*
X125687204Y-97942400D01*
X124054151Y-96309347D01*
X124054151Y-96243773D01*
X124027980Y-96112206D01*
X123976645Y-95988272D01*
X123902118Y-95876734D01*
X123807263Y-95781879D01*
X123802357Y-95778601D01*
X123940216Y-95778601D01*
X123963921Y-95780936D01*
X123987626Y-95778601D01*
X123987628Y-95778601D01*
X123988100Y-95778554D01*
X124008367Y-95880440D01*
X124059702Y-96004374D01*
X124134229Y-96115912D01*
X124229084Y-96210767D01*
X124340622Y-96285294D01*
X124464556Y-96336629D01*
X124596123Y-96362800D01*
X124730269Y-96362800D01*
X124861836Y-96336629D01*
X124985770Y-96285294D01*
X125097308Y-96210767D01*
X125192163Y-96115912D01*
X125266690Y-96004374D01*
X125318025Y-95880440D01*
X125344196Y-95748873D01*
X125344196Y-95614727D01*
X125321152Y-95498880D01*
X125341396Y-95485353D01*
X125436251Y-95390498D01*
X125510778Y-95278960D01*
X125562113Y-95155026D01*
X125588284Y-95023459D01*
X125588284Y-94889313D01*
X125562113Y-94757746D01*
X125510778Y-94633812D01*
X125436251Y-94522274D01*
X125341396Y-94427419D01*
X125229858Y-94352892D01*
X125178033Y-94331425D01*
X125178033Y-94258586D01*
X125151862Y-94127019D01*
X125100527Y-94003085D01*
X125026000Y-93891547D01*
X124931145Y-93796692D01*
X124819607Y-93722165D01*
X124695673Y-93670830D01*
X124564106Y-93644659D01*
X124429960Y-93644659D01*
X124298393Y-93670830D01*
X124174459Y-93722165D01*
X124062921Y-93796692D01*
X123968066Y-93891547D01*
X123893539Y-94003085D01*
X123861597Y-94080200D01*
X123765073Y-94061000D01*
X123630927Y-94061000D01*
X123499360Y-94087171D01*
X123375426Y-94138506D01*
X123263888Y-94213033D01*
X123215092Y-94261829D01*
X123174158Y-94265436D01*
X123171756Y-94266138D01*
X123169265Y-94266383D01*
X123126160Y-94279459D01*
X123082909Y-94292094D01*
X123080689Y-94293252D01*
X123078294Y-94293978D01*
X123038541Y-94315227D01*
X122998614Y-94336044D01*
X122996665Y-94337610D01*
X122994456Y-94338791D01*
X122959623Y-94367377D01*
X122943082Y-94380670D01*
X122941306Y-94382409D01*
X122920970Y-94399099D01*
X122907435Y-94415592D01*
X119311439Y-97938407D01*
X119309514Y-97939987D01*
X119305032Y-97944469D01*
X119282221Y-97964213D01*
X119271493Y-97978008D01*
X119263503Y-97985998D01*
X119245090Y-98001109D01*
X119229979Y-98019522D01*
X119229977Y-98019524D01*
X119184782Y-98074595D01*
X119139968Y-98158434D01*
X119131481Y-98186415D01*
X119121831Y-98218225D01*
X119059023Y-98281033D01*
X118984496Y-98392571D01*
X118933161Y-98516505D01*
X118906990Y-98648072D01*
X118906990Y-98782218D01*
X118933161Y-98913785D01*
X118984496Y-99037719D01*
X119059023Y-99149257D01*
X119153878Y-99244112D01*
X119265416Y-99318639D01*
X119389350Y-99369974D01*
X119520917Y-99396145D01*
X119655063Y-99396145D01*
X119786400Y-99370020D01*
X119786400Y-99495100D01*
X119505501Y-99776000D01*
X119439927Y-99776000D01*
X119308360Y-99802171D01*
X119184426Y-99853506D01*
X119172130Y-99861722D01*
X119160380Y-99822987D01*
X119069340Y-99652662D01*
X118946820Y-99503370D01*
X118797528Y-99380850D01*
X118627203Y-99289810D01*
X118442390Y-99233747D01*
X118298347Y-99219560D01*
X117701653Y-99219560D01*
X117557610Y-99233747D01*
X117372797Y-99289810D01*
X117202472Y-99380850D01*
X117053180Y-99503370D01*
X116930660Y-99652662D01*
X116839620Y-99822987D01*
X116783557Y-100007800D01*
X116764627Y-100200000D01*
X116783557Y-100392200D01*
X116839620Y-100577013D01*
X116930660Y-100747338D01*
X117053180Y-100896630D01*
X117202472Y-101019150D01*
X117372797Y-101110190D01*
X117557610Y-101166253D01*
X117701653Y-101180440D01*
X118298347Y-101180440D01*
X118442390Y-101166253D01*
X118627203Y-101110190D01*
X118797528Y-101019150D01*
X118946820Y-100896630D01*
X118966057Y-100873189D01*
X118978033Y-100891112D01*
X119057921Y-100971000D01*
X118971033Y-101057888D01*
X118896506Y-101169426D01*
X118845171Y-101293360D01*
X118823264Y-101403491D01*
X118797528Y-101382370D01*
X118627203Y-101291330D01*
X118442390Y-101235267D01*
X118298347Y-101221080D01*
X117701653Y-101221080D01*
X117557610Y-101235267D01*
X117372797Y-101291330D01*
X117202472Y-101382370D01*
X117053180Y-101504890D01*
X116930660Y-101654182D01*
X116839620Y-101824507D01*
X116783557Y-102009320D01*
X116764627Y-102201520D01*
X116783557Y-102393720D01*
X116839620Y-102578533D01*
X116930660Y-102748858D01*
X117053180Y-102898150D01*
X117202472Y-103020670D01*
X117372797Y-103111710D01*
X117557610Y-103167773D01*
X117701653Y-103181960D01*
X118298347Y-103181960D01*
X118442390Y-103167773D01*
X118627203Y-103111710D01*
X118797528Y-103020670D01*
X118946820Y-102898150D01*
X119069340Y-102748858D01*
X119160380Y-102578533D01*
X119216443Y-102393720D01*
X119235373Y-102201520D01*
X119226951Y-102116008D01*
X119301360Y-102146829D01*
X119432927Y-102173000D01*
X119567073Y-102173000D01*
X119698640Y-102146829D01*
X119822574Y-102095494D01*
X119934112Y-102020967D01*
X120028967Y-101926112D01*
X120103494Y-101814574D01*
X120154829Y-101690640D01*
X120181000Y-101559073D01*
X120181000Y-101424927D01*
X120154829Y-101293360D01*
X120103494Y-101169426D01*
X120028967Y-101057888D01*
X119949079Y-100978000D01*
X120035967Y-100891112D01*
X120110494Y-100779574D01*
X120161829Y-100655640D01*
X120188000Y-100524073D01*
X120188000Y-100458499D01*
X120221465Y-100425034D01*
X120246791Y-100472415D01*
X120307099Y-100545901D01*
X120325518Y-100561017D01*
X124355986Y-104591486D01*
X124371099Y-104609901D01*
X124444585Y-104670209D01*
X124528423Y-104715022D01*
X124619393Y-104742617D01*
X124714000Y-104751935D01*
X124737707Y-104749600D01*
X128959101Y-104749600D01*
X129311401Y-105101901D01*
X129311401Y-106373000D01*
X128836044Y-106373000D01*
X128916515Y-106319231D01*
X129011370Y-106224376D01*
X129085897Y-106112838D01*
X129137232Y-105988904D01*
X129163403Y-105857337D01*
X129163403Y-105723191D01*
X129137232Y-105591624D01*
X129085897Y-105467690D01*
X129011370Y-105356152D01*
X128916515Y-105261297D01*
X128804977Y-105186770D01*
X128681043Y-105135435D01*
X128549476Y-105109264D01*
X128415330Y-105109264D01*
X128283763Y-105135435D01*
X128159829Y-105186770D01*
X128048291Y-105261297D01*
X127953436Y-105356152D01*
X127878909Y-105467690D01*
X127827574Y-105591624D01*
X127801403Y-105723191D01*
X127801403Y-105857337D01*
X127827574Y-105988904D01*
X127878909Y-106112838D01*
X127953436Y-106224376D01*
X128048291Y-106319231D01*
X128128762Y-106373000D01*
X127249200Y-106373000D01*
X127249200Y-106325400D01*
X126394400Y-106325400D01*
X126394400Y-106345400D01*
X126343600Y-106345400D01*
X126343600Y-106325400D01*
X125488800Y-106325400D01*
X125488800Y-106373000D01*
X115127000Y-106373000D01*
X115127000Y-105924600D01*
X125488800Y-105924600D01*
X125488800Y-106274600D01*
X126343600Y-106274600D01*
X126343600Y-105152755D01*
X126394400Y-105152755D01*
X126394400Y-106274600D01*
X127249200Y-106274600D01*
X127249200Y-105924600D01*
X127227332Y-105753370D01*
X127172479Y-105589696D01*
X127086749Y-105439868D01*
X126973436Y-105309644D01*
X126836895Y-105204029D01*
X126682373Y-105127081D01*
X126531723Y-105084973D01*
X126394400Y-105152755D01*
X126343600Y-105152755D01*
X126206277Y-105084973D01*
X126055627Y-105127081D01*
X125901105Y-105204029D01*
X125764564Y-105309644D01*
X125651251Y-105439868D01*
X125565521Y-105589696D01*
X125510668Y-105753370D01*
X125488800Y-105924600D01*
X115127000Y-105924600D01*
X115127000Y-104802480D01*
X116818572Y-104802480D01*
X116824947Y-104867211D01*
X116843829Y-104929454D01*
X116874490Y-104986817D01*
X116915753Y-105037097D01*
X116966033Y-105078360D01*
X117023396Y-105109021D01*
X117085639Y-105127903D01*
X117150370Y-105134278D01*
X117892050Y-105132680D01*
X117974600Y-105050130D01*
X117974600Y-104228440D01*
X118025400Y-104228440D01*
X118025400Y-105050130D01*
X118107950Y-105132680D01*
X118849630Y-105134278D01*
X118914361Y-105127903D01*
X118976604Y-105109021D01*
X119033967Y-105078360D01*
X119084247Y-105037097D01*
X119125510Y-104986817D01*
X119156171Y-104929454D01*
X119175053Y-104867211D01*
X119181428Y-104802480D01*
X119179830Y-104310990D01*
X119097280Y-104228440D01*
X118025400Y-104228440D01*
X117974600Y-104228440D01*
X116902720Y-104228440D01*
X116820170Y-104310990D01*
X116818572Y-104802480D01*
X115127000Y-104802480D01*
X115127000Y-103603600D01*
X116818572Y-103603600D01*
X116820170Y-104095090D01*
X116902720Y-104177640D01*
X117974600Y-104177640D01*
X117974600Y-103355950D01*
X118025400Y-103355950D01*
X118025400Y-104177640D01*
X119097280Y-104177640D01*
X119179830Y-104095090D01*
X119181428Y-103603600D01*
X119175053Y-103538869D01*
X119156171Y-103476626D01*
X119125510Y-103419263D01*
X119084247Y-103368983D01*
X119033967Y-103327720D01*
X118976604Y-103297059D01*
X118914361Y-103278177D01*
X118849630Y-103271802D01*
X118107950Y-103273400D01*
X118025400Y-103355950D01*
X117974600Y-103355950D01*
X117892050Y-103273400D01*
X117150370Y-103271802D01*
X117085639Y-103278177D01*
X117023396Y-103297059D01*
X116966033Y-103327720D01*
X116915753Y-103368983D01*
X116874490Y-103419263D01*
X116843829Y-103476626D01*
X116824947Y-103538869D01*
X116818572Y-103603600D01*
X115127000Y-103603600D01*
X115127000Y-97468927D01*
X116319000Y-97468927D01*
X116319000Y-97603073D01*
X116345171Y-97734640D01*
X116396506Y-97858574D01*
X116471033Y-97970112D01*
X116565888Y-98064967D01*
X116677426Y-98139494D01*
X116801360Y-98190829D01*
X116932927Y-98217000D01*
X117067073Y-98217000D01*
X117198640Y-98190829D01*
X117322574Y-98139494D01*
X117434112Y-98064967D01*
X117528967Y-97970112D01*
X117603494Y-97858574D01*
X117654829Y-97734640D01*
X117681000Y-97603073D01*
X117681000Y-97468927D01*
X117654829Y-97337360D01*
X117603494Y-97213426D01*
X117528967Y-97101888D01*
X117434112Y-97007033D01*
X117322574Y-96932506D01*
X117198640Y-96881171D01*
X117067073Y-96855000D01*
X116932927Y-96855000D01*
X116801360Y-96881171D01*
X116677426Y-96932506D01*
X116565888Y-97007033D01*
X116471033Y-97101888D01*
X116396506Y-97213426D01*
X116345171Y-97337360D01*
X116319000Y-97468927D01*
X115127000Y-97468927D01*
X115127000Y-90451880D01*
X116750527Y-90451880D01*
X116750527Y-91650760D01*
X116757883Y-91725449D01*
X116779669Y-91797268D01*
X116815048Y-91863456D01*
X116862659Y-91921471D01*
X116920674Y-91969082D01*
X116986862Y-92004461D01*
X117058681Y-92026247D01*
X117133370Y-92033603D01*
X118832630Y-92033603D01*
X118907319Y-92026247D01*
X118979138Y-92004461D01*
X119045326Y-91969082D01*
X119103341Y-91921471D01*
X119150952Y-91863456D01*
X119186331Y-91797268D01*
X119208117Y-91725449D01*
X119215473Y-91650760D01*
X119215473Y-90451880D01*
X119208117Y-90377191D01*
X119186331Y-90305372D01*
X119150952Y-90239184D01*
X119103341Y-90181169D01*
X119045326Y-90133558D01*
X118979138Y-90098179D01*
X118907319Y-90076393D01*
X118832630Y-90069037D01*
X117133370Y-90069037D01*
X117058681Y-90076393D01*
X116986862Y-90098179D01*
X116920674Y-90133558D01*
X116862659Y-90181169D01*
X116815048Y-90239184D01*
X116779669Y-90305372D01*
X116757883Y-90377191D01*
X116750527Y-90451880D01*
X115127000Y-90451880D01*
X115127000Y-89049800D01*
X116747627Y-89049800D01*
X116766557Y-89242000D01*
X116822620Y-89426813D01*
X116913660Y-89597138D01*
X117036180Y-89746430D01*
X117185472Y-89868950D01*
X117355797Y-89959990D01*
X117540610Y-90016053D01*
X117684653Y-90030240D01*
X118281347Y-90030240D01*
X118425390Y-90016053D01*
X118610203Y-89959990D01*
X118780528Y-89868950D01*
X118929820Y-89746430D01*
X119052340Y-89597138D01*
X119143380Y-89426813D01*
X119199443Y-89242000D01*
X119218373Y-89049800D01*
X119199443Y-88857600D01*
X119143380Y-88672787D01*
X119052340Y-88502462D01*
X118929820Y-88353170D01*
X118780528Y-88230650D01*
X118610203Y-88139610D01*
X118425390Y-88083547D01*
X118281347Y-88069360D01*
X117684653Y-88069360D01*
X117540610Y-88083547D01*
X117355797Y-88139610D01*
X117185472Y-88230650D01*
X117036180Y-88353170D01*
X116913660Y-88502462D01*
X116822620Y-88672787D01*
X116766557Y-88857600D01*
X116747627Y-89049800D01*
X115127000Y-89049800D01*
X115127000Y-87218741D01*
X116818932Y-87218741D01*
X116864213Y-87380571D01*
X116945730Y-87543641D01*
X117057494Y-87687674D01*
X117195210Y-87807136D01*
X117353585Y-87897435D01*
X117526534Y-87955102D01*
X117707410Y-87977920D01*
X117957600Y-87977920D01*
X117957600Y-87073680D01*
X118008400Y-87073680D01*
X118008400Y-87977920D01*
X118258590Y-87977920D01*
X118439466Y-87955102D01*
X118612415Y-87897435D01*
X118770790Y-87807136D01*
X118908506Y-87687674D01*
X119020270Y-87543641D01*
X119101787Y-87380571D01*
X119147068Y-87218741D01*
X119079899Y-87073680D01*
X118008400Y-87073680D01*
X117957600Y-87073680D01*
X116886101Y-87073680D01*
X116818932Y-87218741D01*
X115127000Y-87218741D01*
X115127000Y-86877819D01*
X116818932Y-86877819D01*
X116886101Y-87022880D01*
X117957600Y-87022880D01*
X117957600Y-86118640D01*
X118008400Y-86118640D01*
X118008400Y-87022880D01*
X119079899Y-87022880D01*
X119147068Y-86877819D01*
X119101787Y-86715989D01*
X119020270Y-86552919D01*
X118908506Y-86408886D01*
X118770790Y-86289424D01*
X118612415Y-86199125D01*
X118439466Y-86141458D01*
X118258590Y-86118640D01*
X118008400Y-86118640D01*
X117957600Y-86118640D01*
X117707410Y-86118640D01*
X117526534Y-86141458D01*
X117353585Y-86199125D01*
X117195210Y-86289424D01*
X117057494Y-86408886D01*
X116945730Y-86552919D01*
X116864213Y-86715989D01*
X116818932Y-86877819D01*
X115127000Y-86877819D01*
X115127000Y-81043720D01*
X116747627Y-81043720D01*
X116766557Y-81235920D01*
X116822620Y-81420733D01*
X116913660Y-81591058D01*
X117036180Y-81740350D01*
X117185472Y-81862870D01*
X117355797Y-81953910D01*
X117540610Y-82009973D01*
X117684653Y-82024160D01*
X118281347Y-82024160D01*
X118425390Y-82009973D01*
X118610203Y-81953910D01*
X118780528Y-81862870D01*
X118929820Y-81740350D01*
X119052340Y-81591058D01*
X119143380Y-81420733D01*
X119199443Y-81235920D01*
X119218373Y-81043720D01*
X119199443Y-80851520D01*
X119143380Y-80666707D01*
X119052340Y-80496382D01*
X118929820Y-80347090D01*
X118780528Y-80224570D01*
X118610203Y-80133530D01*
X118425390Y-80077467D01*
X118281347Y-80063280D01*
X117684653Y-80063280D01*
X117540610Y-80077467D01*
X117355797Y-80133530D01*
X117185472Y-80224570D01*
X117036180Y-80347090D01*
X116913660Y-80496382D01*
X116822620Y-80666707D01*
X116766557Y-80851520D01*
X116747627Y-81043720D01*
X115127000Y-81043720D01*
X115127000Y-79044740D01*
X116747627Y-79044740D01*
X116766557Y-79236940D01*
X116822620Y-79421753D01*
X116913660Y-79592078D01*
X117036180Y-79741370D01*
X117185472Y-79863890D01*
X117355797Y-79954930D01*
X117540610Y-80010993D01*
X117684653Y-80025180D01*
X118281347Y-80025180D01*
X118425390Y-80010993D01*
X118610203Y-79954930D01*
X118780528Y-79863890D01*
X118929820Y-79741370D01*
X119052340Y-79592078D01*
X119143380Y-79421753D01*
X119199443Y-79236940D01*
X119218373Y-79044740D01*
X119199443Y-78852540D01*
X119143380Y-78667727D01*
X119052340Y-78497402D01*
X118929820Y-78348110D01*
X118780528Y-78225590D01*
X118610203Y-78134550D01*
X118425390Y-78078487D01*
X118281347Y-78064300D01*
X117684653Y-78064300D01*
X117540610Y-78078487D01*
X117355797Y-78134550D01*
X117185472Y-78225590D01*
X117036180Y-78348110D01*
X116913660Y-78497402D01*
X116822620Y-78667727D01*
X116766557Y-78852540D01*
X116747627Y-79044740D01*
X115127000Y-79044740D01*
X115127000Y-77045760D01*
X116747627Y-77045760D01*
X116766557Y-77237960D01*
X116822620Y-77422773D01*
X116913660Y-77593098D01*
X117036180Y-77742390D01*
X117185472Y-77864910D01*
X117355797Y-77955950D01*
X117540610Y-78012013D01*
X117684653Y-78026200D01*
X118281347Y-78026200D01*
X118425390Y-78012013D01*
X118610203Y-77955950D01*
X118780528Y-77864910D01*
X118929820Y-77742390D01*
X119052340Y-77593098D01*
X119143380Y-77422773D01*
X119199443Y-77237960D01*
X119218373Y-77045760D01*
X119199443Y-76853560D01*
X119143380Y-76668747D01*
X119052340Y-76498422D01*
X118929820Y-76349130D01*
X118780528Y-76226610D01*
X118610203Y-76135570D01*
X118425390Y-76079507D01*
X118281347Y-76065320D01*
X117684653Y-76065320D01*
X117540610Y-76079507D01*
X117355797Y-76135570D01*
X117185472Y-76226610D01*
X117036180Y-76349130D01*
X116913660Y-76498422D01*
X116822620Y-76668747D01*
X116766557Y-76853560D01*
X116747627Y-77045760D01*
X115127000Y-77045760D01*
X115127000Y-71949600D01*
X116750527Y-71949600D01*
X116750527Y-73148480D01*
X116757883Y-73223169D01*
X116779669Y-73294988D01*
X116815048Y-73361176D01*
X116862659Y-73419191D01*
X116920674Y-73466802D01*
X116986862Y-73502181D01*
X117058681Y-73523967D01*
X117133370Y-73531323D01*
X118832630Y-73531323D01*
X118907319Y-73523967D01*
X118979138Y-73502181D01*
X119045326Y-73466802D01*
X119103341Y-73419191D01*
X119150952Y-73361176D01*
X119186331Y-73294988D01*
X119208117Y-73223169D01*
X119215473Y-73148480D01*
X119215473Y-71949600D01*
X119208117Y-71874911D01*
X119186331Y-71803092D01*
X119150952Y-71736904D01*
X119103341Y-71678889D01*
X119045326Y-71631278D01*
X118979138Y-71595899D01*
X118907319Y-71574113D01*
X118832630Y-71566757D01*
X117133370Y-71566757D01*
X117058681Y-71574113D01*
X116986862Y-71595899D01*
X116920674Y-71631278D01*
X116862659Y-71678889D01*
X116815048Y-71736904D01*
X116779669Y-71803092D01*
X116757883Y-71874911D01*
X116750527Y-71949600D01*
X115127000Y-71949600D01*
X115127000Y-68716461D01*
X116818932Y-68716461D01*
X116864213Y-68878291D01*
X116945730Y-69041361D01*
X117057494Y-69185394D01*
X117195210Y-69304856D01*
X117353585Y-69395155D01*
X117526534Y-69452822D01*
X117707410Y-69475640D01*
X117957600Y-69475640D01*
X117957600Y-68571400D01*
X118008400Y-68571400D01*
X118008400Y-69475640D01*
X118258590Y-69475640D01*
X118439466Y-69452822D01*
X118612415Y-69395155D01*
X118770790Y-69304856D01*
X118908506Y-69185394D01*
X119020270Y-69041361D01*
X119101787Y-68878291D01*
X119147068Y-68716461D01*
X119079899Y-68571400D01*
X118008400Y-68571400D01*
X117957600Y-68571400D01*
X116886101Y-68571400D01*
X116818932Y-68716461D01*
X115127000Y-68716461D01*
X115127000Y-68375539D01*
X116818932Y-68375539D01*
X116886101Y-68520600D01*
X117957600Y-68520600D01*
X117957600Y-67616360D01*
X118008400Y-67616360D01*
X118008400Y-68520600D01*
X119079899Y-68520600D01*
X119147068Y-68375539D01*
X119101787Y-68213709D01*
X119020270Y-68050639D01*
X118908506Y-67906606D01*
X118770790Y-67787144D01*
X118612415Y-67696845D01*
X118439466Y-67639178D01*
X118258590Y-67616360D01*
X118008400Y-67616360D01*
X117957600Y-67616360D01*
X117707410Y-67616360D01*
X117526534Y-67639178D01*
X117353585Y-67696845D01*
X117195210Y-67787144D01*
X117057494Y-67906606D01*
X116945730Y-68050639D01*
X116864213Y-68213709D01*
X116818932Y-68375539D01*
X115127000Y-68375539D01*
X115127000Y-64545500D01*
X116747627Y-64545500D01*
X116766557Y-64737700D01*
X116822620Y-64922513D01*
X116913660Y-65092838D01*
X117036180Y-65242130D01*
X117185472Y-65364650D01*
X117355797Y-65455690D01*
X117540610Y-65511753D01*
X117684653Y-65525940D01*
X118281347Y-65525940D01*
X118425390Y-65511753D01*
X118610203Y-65455690D01*
X118780528Y-65364650D01*
X118929820Y-65242130D01*
X119052340Y-65092838D01*
X119143380Y-64922513D01*
X119199443Y-64737700D01*
X119218373Y-64545500D01*
X119199443Y-64353300D01*
X119143380Y-64168487D01*
X119052340Y-63998162D01*
X118929820Y-63848870D01*
X118780528Y-63726350D01*
X118610203Y-63635310D01*
X118425390Y-63579247D01*
X118281347Y-63565060D01*
X117684653Y-63565060D01*
X117540610Y-63579247D01*
X117355797Y-63635310D01*
X117185472Y-63726350D01*
X117036180Y-63848870D01*
X116913660Y-63998162D01*
X116822620Y-64168487D01*
X116766557Y-64353300D01*
X116747627Y-64545500D01*
X115127000Y-64545500D01*
X115127000Y-59410154D01*
X117938000Y-59410154D01*
X117938000Y-59573846D01*
X117969935Y-59734394D01*
X118032577Y-59885626D01*
X118123520Y-60021732D01*
X118239268Y-60137480D01*
X118375374Y-60228423D01*
X118526606Y-60291065D01*
X118687154Y-60323000D01*
X118850846Y-60323000D01*
X119011394Y-60291065D01*
X119162626Y-60228423D01*
X119298732Y-60137480D01*
X119414480Y-60021732D01*
X119505423Y-59885626D01*
X119568065Y-59734394D01*
X119600000Y-59573846D01*
X119600000Y-59410154D01*
X119568065Y-59249606D01*
X119505423Y-59098374D01*
X119414480Y-58962268D01*
X119298732Y-58846520D01*
X119162626Y-58755577D01*
X119011394Y-58692935D01*
X118850846Y-58661000D01*
X118687154Y-58661000D01*
X118526606Y-58692935D01*
X118375374Y-58755577D01*
X118239268Y-58846520D01*
X118123520Y-58962268D01*
X118032577Y-59098374D01*
X117969935Y-59249606D01*
X117938000Y-59410154D01*
X115127000Y-59410154D01*
X115127000Y-56945516D01*
X115486833Y-56504317D01*
X116019443Y-56063704D01*
X116627494Y-55734932D01*
X117287818Y-55530527D01*
X117996766Y-55456014D01*
X118000720Y-55456000D01*
X122662122Y-55456000D01*
X122636000Y-55587321D01*
G37*
X122636000Y-55587321D02*
X122636000Y-55721467D01*
X122662171Y-55853034D01*
X122713506Y-55976968D01*
X122788033Y-56088506D01*
X122861014Y-56161487D01*
X122702544Y-56319956D01*
X122701829Y-56316362D01*
X122650494Y-56192428D01*
X122575967Y-56080890D01*
X122481112Y-55986035D01*
X122369574Y-55911508D01*
X122245640Y-55860173D01*
X122114073Y-55834002D01*
X121979927Y-55834002D01*
X121848360Y-55860173D01*
X121724426Y-55911508D01*
X121612888Y-55986035D01*
X121518033Y-56080890D01*
X121443506Y-56192428D01*
X121392171Y-56316362D01*
X121366000Y-56447929D01*
X121366000Y-56582075D01*
X121392171Y-56713642D01*
X121443506Y-56837576D01*
X121518033Y-56949114D01*
X121612888Y-57043969D01*
X121724426Y-57118496D01*
X121848360Y-57169831D01*
X121851954Y-57170546D01*
X120371528Y-58650973D01*
X120353109Y-58666089D01*
X120292801Y-58739575D01*
X120247988Y-58823414D01*
X120220393Y-58914385D01*
X120213410Y-58985283D01*
X120211075Y-59008990D01*
X120213410Y-59032695D01*
X120213411Y-65189671D01*
X120167043Y-65236039D01*
X120092516Y-65347577D01*
X120041181Y-65471511D01*
X120015010Y-65603078D01*
X120015010Y-65737224D01*
X120041181Y-65868791D01*
X120092516Y-65992725D01*
X120167043Y-66104263D01*
X120261898Y-66199118D01*
X120373436Y-66273645D01*
X120437837Y-66300321D01*
X120428383Y-66331487D01*
X120422444Y-66391784D01*
X120419065Y-66426092D01*
X120421400Y-66449797D01*
X120421400Y-67250090D01*
X119393847Y-66222538D01*
X119378731Y-66204119D01*
X119305245Y-66143811D01*
X119221407Y-66098998D01*
X119130436Y-66071403D01*
X119088466Y-66067269D01*
X119052340Y-65999682D01*
X118929820Y-65850390D01*
X118780528Y-65727870D01*
X118610203Y-65636830D01*
X118425390Y-65580767D01*
X118281347Y-65566580D01*
X117684653Y-65566580D01*
X117540610Y-65580767D01*
X117355797Y-65636830D01*
X117185472Y-65727870D01*
X117036180Y-65850390D01*
X116913660Y-65999682D01*
X116822620Y-66170007D01*
X116766557Y-66354820D01*
X116747627Y-66547020D01*
X116766557Y-66739220D01*
X116822620Y-66924033D01*
X116913660Y-67094358D01*
X117036180Y-67243650D01*
X117185472Y-67366170D01*
X117355797Y-67457210D01*
X117540610Y-67513273D01*
X117684653Y-67527460D01*
X118281347Y-67527460D01*
X118425390Y-67513273D01*
X118610203Y-67457210D01*
X118780528Y-67366170D01*
X118929820Y-67243650D01*
X118983974Y-67177663D01*
X120015012Y-68208702D01*
X120015012Y-70844202D01*
X119393847Y-70223038D01*
X119378731Y-70204619D01*
X119305245Y-70144311D01*
X119221407Y-70099498D01*
X119130436Y-70071903D01*
X119088466Y-70067769D01*
X119052340Y-70000182D01*
X118929820Y-69850890D01*
X118780528Y-69728370D01*
X118610203Y-69637330D01*
X118425390Y-69581267D01*
X118281347Y-69567080D01*
X117684653Y-69567080D01*
X117540610Y-69581267D01*
X117355797Y-69637330D01*
X117185472Y-69728370D01*
X117036180Y-69850890D01*
X116913660Y-70000182D01*
X116822620Y-70170507D01*
X116766557Y-70355320D01*
X116747627Y-70547520D01*
X116766557Y-70739720D01*
X116822620Y-70924533D01*
X116913660Y-71094858D01*
X117036180Y-71244150D01*
X117185472Y-71366670D01*
X117355797Y-71457710D01*
X117540610Y-71513773D01*
X117684653Y-71527960D01*
X118281347Y-71527960D01*
X118425390Y-71513773D01*
X118610203Y-71457710D01*
X118780528Y-71366670D01*
X118929820Y-71244150D01*
X118983974Y-71178163D01*
X119659401Y-71853591D01*
X119659400Y-81510295D01*
X119657065Y-81534000D01*
X119659400Y-81557705D01*
X119659400Y-81557706D01*
X119666383Y-81628605D01*
X119693978Y-81719576D01*
X119738791Y-81803415D01*
X119799099Y-81876901D01*
X119817518Y-81892017D01*
X120167401Y-82241900D01*
X120167401Y-83493620D01*
X119394538Y-82720758D01*
X119379422Y-82702339D01*
X119305936Y-82642031D01*
X119222098Y-82597218D01*
X119131127Y-82569623D01*
X119088428Y-82565417D01*
X119052340Y-82497902D01*
X118929820Y-82348610D01*
X118780528Y-82226090D01*
X118610203Y-82135050D01*
X118425390Y-82078987D01*
X118281347Y-82064800D01*
X117684653Y-82064800D01*
X117540610Y-82078987D01*
X117355797Y-82135050D01*
X117185472Y-82226090D01*
X117036180Y-82348610D01*
X116913660Y-82497902D01*
X116822620Y-82668227D01*
X116766557Y-82853040D01*
X116747627Y-83045240D01*
X116766557Y-83237440D01*
X116822620Y-83422253D01*
X116913660Y-83592578D01*
X117036180Y-83741870D01*
X117185472Y-83864390D01*
X117355797Y-83955430D01*
X117540610Y-84011493D01*
X117684653Y-84025680D01*
X118281347Y-84025680D01*
X118318000Y-84022070D01*
X118318000Y-84072470D01*
X118281347Y-84068860D01*
X117684653Y-84068860D01*
X117540610Y-84083047D01*
X117355797Y-84139110D01*
X117185472Y-84230150D01*
X117036180Y-84352670D01*
X116913660Y-84501962D01*
X116822620Y-84672287D01*
X116766557Y-84857100D01*
X116747627Y-85049300D01*
X116766557Y-85241500D01*
X116822620Y-85426313D01*
X116913660Y-85596638D01*
X117036180Y-85745930D01*
X117185472Y-85868450D01*
X117355797Y-85959490D01*
X117540610Y-86015553D01*
X117684653Y-86029740D01*
X118281347Y-86029740D01*
X118425390Y-86015553D01*
X118610203Y-85959490D01*
X118780528Y-85868450D01*
X118929820Y-85745930D01*
X119052340Y-85596638D01*
X119086943Y-85531900D01*
X119266401Y-85531900D01*
X119405401Y-85670901D01*
X119405400Y-90446305D01*
X119403065Y-90470010D01*
X119405400Y-90493715D01*
X119405400Y-90493716D01*
X119412383Y-90564615D01*
X119439978Y-90655586D01*
X119484791Y-90739425D01*
X119545099Y-90812911D01*
X119563518Y-90828027D01*
X120684990Y-91949500D01*
X120684990Y-92015073D01*
X120711161Y-92146640D01*
X120762159Y-92269762D01*
X120756033Y-92275888D01*
X120681506Y-92387426D01*
X120630171Y-92511360D01*
X120616870Y-92578226D01*
X120503621Y-92578226D01*
X120372054Y-92604397D01*
X120248120Y-92655732D01*
X120136582Y-92730259D01*
X120041727Y-92825114D01*
X119967200Y-92936652D01*
X119915865Y-93060586D01*
X119889694Y-93192153D01*
X119889694Y-93326299D01*
X119915865Y-93457866D01*
X119967200Y-93581800D01*
X120041727Y-93693338D01*
X120136582Y-93788193D01*
X120248120Y-93862720D01*
X120372054Y-93914055D01*
X120503621Y-93940226D01*
X120637767Y-93940226D01*
X120769334Y-93914055D01*
X120893268Y-93862720D01*
X121004806Y-93788193D01*
X121099661Y-93693338D01*
X121174188Y-93581800D01*
X121225523Y-93457866D01*
X121238824Y-93391000D01*
X121352073Y-93391000D01*
X121483640Y-93364829D01*
X121607574Y-93313494D01*
X121719112Y-93238967D01*
X121813967Y-93144112D01*
X121888494Y-93032574D01*
X121939829Y-92908640D01*
X121966000Y-92777073D01*
X121966000Y-92642927D01*
X121939829Y-92511360D01*
X121910004Y-92439353D01*
X123273848Y-92439353D01*
X123273848Y-92573499D01*
X123300019Y-92705066D01*
X123351354Y-92829000D01*
X123425881Y-92940538D01*
X123520736Y-93035393D01*
X123632274Y-93109920D01*
X123756208Y-93161255D01*
X123887775Y-93187426D01*
X124021921Y-93187426D01*
X124153488Y-93161255D01*
X124277422Y-93109920D01*
X124388960Y-93035393D01*
X124483815Y-92940538D01*
X124558342Y-92829000D01*
X124609677Y-92705066D01*
X124635848Y-92573499D01*
X124635848Y-92439353D01*
X124609677Y-92307786D01*
X124558342Y-92183852D01*
X124483815Y-92072314D01*
X124388960Y-91977459D01*
X124277422Y-91902932D01*
X124153488Y-91851597D01*
X124021921Y-91825426D01*
X123887775Y-91825426D01*
X123756208Y-91851597D01*
X123632274Y-91902932D01*
X123520736Y-91977459D01*
X123425881Y-92072314D01*
X123351354Y-92183852D01*
X123300019Y-92307786D01*
X123273848Y-92439353D01*
X121910004Y-92439353D01*
X121888831Y-92388238D01*
X121894957Y-92382112D01*
X121969484Y-92270574D01*
X122020819Y-92146640D01*
X122046990Y-92015073D01*
X122046990Y-91880927D01*
X122020819Y-91749360D01*
X121969484Y-91625426D01*
X121930626Y-91567270D01*
X122012377Y-91485519D01*
X122086904Y-91373981D01*
X122138239Y-91250047D01*
X122164410Y-91118480D01*
X122164410Y-90984334D01*
X122138239Y-90852767D01*
X122086904Y-90728833D01*
X122012377Y-90617295D01*
X121966010Y-90570928D01*
X121966010Y-90012363D01*
X121968345Y-89988658D01*
X121964266Y-89947249D01*
X121959027Y-89894053D01*
X121931432Y-89803082D01*
X121886619Y-89719244D01*
X121826311Y-89645758D01*
X121807898Y-89630647D01*
X121710358Y-89533107D01*
X121815564Y-89489529D01*
X121927102Y-89415002D01*
X122021957Y-89320147D01*
X122096484Y-89208609D01*
X122147819Y-89084675D01*
X122173990Y-88953108D01*
X122173990Y-88818962D01*
X122147819Y-88687395D01*
X122096484Y-88563461D01*
X122021957Y-88451923D01*
X121927102Y-88357068D01*
X121815564Y-88282541D01*
X121691630Y-88231206D01*
X121560063Y-88205035D01*
X121425917Y-88205035D01*
X121294350Y-88231206D01*
X121170416Y-88282541D01*
X121058878Y-88357068D01*
X120964023Y-88451923D01*
X120889496Y-88563461D01*
X120845918Y-88668668D01*
X120751600Y-88574350D01*
X120751600Y-87017099D01*
X125780790Y-92046290D01*
X125780789Y-96521684D01*
X125778454Y-96545389D01*
X125780789Y-96569094D01*
X125780789Y-96569095D01*
X125787772Y-96639994D01*
X125815367Y-96730965D01*
X125860180Y-96814804D01*
X125920488Y-96888290D01*
X125938907Y-96903406D01*
X126977900Y-97942400D01*
X125687204Y-97942400D01*
X124054151Y-96309347D01*
X124054151Y-96243773D01*
X124027980Y-96112206D01*
X123976645Y-95988272D01*
X123902118Y-95876734D01*
X123807263Y-95781879D01*
X123802357Y-95778601D01*
X123940216Y-95778601D01*
X123963921Y-95780936D01*
X123987626Y-95778601D01*
X123987628Y-95778601D01*
X123988100Y-95778554D01*
X124008367Y-95880440D01*
X124059702Y-96004374D01*
X124134229Y-96115912D01*
X124229084Y-96210767D01*
X124340622Y-96285294D01*
X124464556Y-96336629D01*
X124596123Y-96362800D01*
X124730269Y-96362800D01*
X124861836Y-96336629D01*
X124985770Y-96285294D01*
X125097308Y-96210767D01*
X125192163Y-96115912D01*
X125266690Y-96004374D01*
X125318025Y-95880440D01*
X125344196Y-95748873D01*
X125344196Y-95614727D01*
X125321152Y-95498880D01*
X125341396Y-95485353D01*
X125436251Y-95390498D01*
X125510778Y-95278960D01*
X125562113Y-95155026D01*
X125588284Y-95023459D01*
X125588284Y-94889313D01*
X125562113Y-94757746D01*
X125510778Y-94633812D01*
X125436251Y-94522274D01*
X125341396Y-94427419D01*
X125229858Y-94352892D01*
X125178033Y-94331425D01*
X125178033Y-94258586D01*
X125151862Y-94127019D01*
X125100527Y-94003085D01*
X125026000Y-93891547D01*
X124931145Y-93796692D01*
X124819607Y-93722165D01*
X124695673Y-93670830D01*
X124564106Y-93644659D01*
X124429960Y-93644659D01*
X124298393Y-93670830D01*
X124174459Y-93722165D01*
X124062921Y-93796692D01*
X123968066Y-93891547D01*
X123893539Y-94003085D01*
X123861597Y-94080200D01*
X123765073Y-94061000D01*
X123630927Y-94061000D01*
X123499360Y-94087171D01*
X123375426Y-94138506D01*
X123263888Y-94213033D01*
X123215092Y-94261829D01*
X123174158Y-94265436D01*
X123171756Y-94266138D01*
X123169265Y-94266383D01*
X123126160Y-94279459D01*
X123082909Y-94292094D01*
X123080689Y-94293252D01*
X123078294Y-94293978D01*
X123038541Y-94315227D01*
X122998614Y-94336044D01*
X122996665Y-94337610D01*
X122994456Y-94338791D01*
X122959623Y-94367377D01*
X122943082Y-94380670D01*
X122941306Y-94382409D01*
X122920970Y-94399099D01*
X122907435Y-94415592D01*
X119311439Y-97938407D01*
X119309514Y-97939987D01*
X119305032Y-97944469D01*
X119282221Y-97964213D01*
X119271493Y-97978008D01*
X119263503Y-97985998D01*
X119245090Y-98001109D01*
X119229979Y-98019522D01*
X119229977Y-98019524D01*
X119184782Y-98074595D01*
X119139968Y-98158434D01*
X119131481Y-98186415D01*
X119121831Y-98218225D01*
X119059023Y-98281033D01*
X118984496Y-98392571D01*
X118933161Y-98516505D01*
X118906990Y-98648072D01*
X118906990Y-98782218D01*
X118933161Y-98913785D01*
X118984496Y-99037719D01*
X119059023Y-99149257D01*
X119153878Y-99244112D01*
X119265416Y-99318639D01*
X119389350Y-99369974D01*
X119520917Y-99396145D01*
X119655063Y-99396145D01*
X119786400Y-99370020D01*
X119786400Y-99495100D01*
X119505501Y-99776000D01*
X119439927Y-99776000D01*
X119308360Y-99802171D01*
X119184426Y-99853506D01*
X119172130Y-99861722D01*
X119160380Y-99822987D01*
X119069340Y-99652662D01*
X118946820Y-99503370D01*
X118797528Y-99380850D01*
X118627203Y-99289810D01*
X118442390Y-99233747D01*
X118298347Y-99219560D01*
X117701653Y-99219560D01*
X117557610Y-99233747D01*
X117372797Y-99289810D01*
X117202472Y-99380850D01*
X117053180Y-99503370D01*
X116930660Y-99652662D01*
X116839620Y-99822987D01*
X116783557Y-100007800D01*
X116764627Y-100200000D01*
X116783557Y-100392200D01*
X116839620Y-100577013D01*
X116930660Y-100747338D01*
X117053180Y-100896630D01*
X117202472Y-101019150D01*
X117372797Y-101110190D01*
X117557610Y-101166253D01*
X117701653Y-101180440D01*
X118298347Y-101180440D01*
X118442390Y-101166253D01*
X118627203Y-101110190D01*
X118797528Y-101019150D01*
X118946820Y-100896630D01*
X118966057Y-100873189D01*
X118978033Y-100891112D01*
X119057921Y-100971000D01*
X118971033Y-101057888D01*
X118896506Y-101169426D01*
X118845171Y-101293360D01*
X118823264Y-101403491D01*
X118797528Y-101382370D01*
X118627203Y-101291330D01*
X118442390Y-101235267D01*
X118298347Y-101221080D01*
X117701653Y-101221080D01*
X117557610Y-101235267D01*
X117372797Y-101291330D01*
X117202472Y-101382370D01*
X117053180Y-101504890D01*
X116930660Y-101654182D01*
X116839620Y-101824507D01*
X116783557Y-102009320D01*
X116764627Y-102201520D01*
X116783557Y-102393720D01*
X116839620Y-102578533D01*
X116930660Y-102748858D01*
X117053180Y-102898150D01*
X117202472Y-103020670D01*
X117372797Y-103111710D01*
X117557610Y-103167773D01*
X117701653Y-103181960D01*
X118298347Y-103181960D01*
X118442390Y-103167773D01*
X118627203Y-103111710D01*
X118797528Y-103020670D01*
X118946820Y-102898150D01*
X119069340Y-102748858D01*
X119160380Y-102578533D01*
X119216443Y-102393720D01*
X119235373Y-102201520D01*
X119226951Y-102116008D01*
X119301360Y-102146829D01*
X119432927Y-102173000D01*
X119567073Y-102173000D01*
X119698640Y-102146829D01*
X119822574Y-102095494D01*
X119934112Y-102020967D01*
X120028967Y-101926112D01*
X120103494Y-101814574D01*
X120154829Y-101690640D01*
X120181000Y-101559073D01*
X120181000Y-101424927D01*
X120154829Y-101293360D01*
X120103494Y-101169426D01*
X120028967Y-101057888D01*
X119949079Y-100978000D01*
X120035967Y-100891112D01*
X120110494Y-100779574D01*
X120161829Y-100655640D01*
X120188000Y-100524073D01*
X120188000Y-100458499D01*
X120221465Y-100425034D01*
X120246791Y-100472415D01*
X120307099Y-100545901D01*
X120325518Y-100561017D01*
X124355986Y-104591486D01*
X124371099Y-104609901D01*
X124444585Y-104670209D01*
X124528423Y-104715022D01*
X124619393Y-104742617D01*
X124714000Y-104751935D01*
X124737707Y-104749600D01*
X128959101Y-104749600D01*
X129311401Y-105101901D01*
X129311401Y-106373000D01*
X128836044Y-106373000D01*
X128916515Y-106319231D01*
X129011370Y-106224376D01*
X129085897Y-106112838D01*
X129137232Y-105988904D01*
X129163403Y-105857337D01*
X129163403Y-105723191D01*
X129137232Y-105591624D01*
X129085897Y-105467690D01*
X129011370Y-105356152D01*
X128916515Y-105261297D01*
X128804977Y-105186770D01*
X128681043Y-105135435D01*
X128549476Y-105109264D01*
X128415330Y-105109264D01*
X128283763Y-105135435D01*
X128159829Y-105186770D01*
X128048291Y-105261297D01*
X127953436Y-105356152D01*
X127878909Y-105467690D01*
X127827574Y-105591624D01*
X127801403Y-105723191D01*
X127801403Y-105857337D01*
X127827574Y-105988904D01*
X127878909Y-106112838D01*
X127953436Y-106224376D01*
X128048291Y-106319231D01*
X128128762Y-106373000D01*
X127249200Y-106373000D01*
X127249200Y-106325400D01*
X126394400Y-106325400D01*
X126394400Y-106345400D01*
X126343600Y-106345400D01*
X126343600Y-106325400D01*
X125488800Y-106325400D01*
X125488800Y-106373000D01*
X115127000Y-106373000D01*
X115127000Y-105924600D01*
X125488800Y-105924600D01*
X125488800Y-106274600D01*
X126343600Y-106274600D01*
X126343600Y-105152755D01*
X126394400Y-105152755D01*
X126394400Y-106274600D01*
X127249200Y-106274600D01*
X127249200Y-105924600D01*
X127227332Y-105753370D01*
X127172479Y-105589696D01*
X127086749Y-105439868D01*
X126973436Y-105309644D01*
X126836895Y-105204029D01*
X126682373Y-105127081D01*
X126531723Y-105084973D01*
X126394400Y-105152755D01*
X126343600Y-105152755D01*
X126206277Y-105084973D01*
X126055627Y-105127081D01*
X125901105Y-105204029D01*
X125764564Y-105309644D01*
X125651251Y-105439868D01*
X125565521Y-105589696D01*
X125510668Y-105753370D01*
X125488800Y-105924600D01*
X115127000Y-105924600D01*
X115127000Y-104802480D01*
X116818572Y-104802480D01*
X116824947Y-104867211D01*
X116843829Y-104929454D01*
X116874490Y-104986817D01*
X116915753Y-105037097D01*
X116966033Y-105078360D01*
X117023396Y-105109021D01*
X117085639Y-105127903D01*
X117150370Y-105134278D01*
X117892050Y-105132680D01*
X117974600Y-105050130D01*
X117974600Y-104228440D01*
X118025400Y-104228440D01*
X118025400Y-105050130D01*
X118107950Y-105132680D01*
X118849630Y-105134278D01*
X118914361Y-105127903D01*
X118976604Y-105109021D01*
X119033967Y-105078360D01*
X119084247Y-105037097D01*
X119125510Y-104986817D01*
X119156171Y-104929454D01*
X119175053Y-104867211D01*
X119181428Y-104802480D01*
X119179830Y-104310990D01*
X119097280Y-104228440D01*
X118025400Y-104228440D01*
X117974600Y-104228440D01*
X116902720Y-104228440D01*
X116820170Y-104310990D01*
X116818572Y-104802480D01*
X115127000Y-104802480D01*
X115127000Y-103603600D01*
X116818572Y-103603600D01*
X116820170Y-104095090D01*
X116902720Y-104177640D01*
X117974600Y-104177640D01*
X117974600Y-103355950D01*
X118025400Y-103355950D01*
X118025400Y-104177640D01*
X119097280Y-104177640D01*
X119179830Y-104095090D01*
X119181428Y-103603600D01*
X119175053Y-103538869D01*
X119156171Y-103476626D01*
X119125510Y-103419263D01*
X119084247Y-103368983D01*
X119033967Y-103327720D01*
X118976604Y-103297059D01*
X118914361Y-103278177D01*
X118849630Y-103271802D01*
X118107950Y-103273400D01*
X118025400Y-103355950D01*
X117974600Y-103355950D01*
X117892050Y-103273400D01*
X117150370Y-103271802D01*
X117085639Y-103278177D01*
X117023396Y-103297059D01*
X116966033Y-103327720D01*
X116915753Y-103368983D01*
X116874490Y-103419263D01*
X116843829Y-103476626D01*
X116824947Y-103538869D01*
X116818572Y-103603600D01*
X115127000Y-103603600D01*
X115127000Y-97468927D01*
X116319000Y-97468927D01*
X116319000Y-97603073D01*
X116345171Y-97734640D01*
X116396506Y-97858574D01*
X116471033Y-97970112D01*
X116565888Y-98064967D01*
X116677426Y-98139494D01*
X116801360Y-98190829D01*
X116932927Y-98217000D01*
X117067073Y-98217000D01*
X117198640Y-98190829D01*
X117322574Y-98139494D01*
X117434112Y-98064967D01*
X117528967Y-97970112D01*
X117603494Y-97858574D01*
X117654829Y-97734640D01*
X117681000Y-97603073D01*
X117681000Y-97468927D01*
X117654829Y-97337360D01*
X117603494Y-97213426D01*
X117528967Y-97101888D01*
X117434112Y-97007033D01*
X117322574Y-96932506D01*
X117198640Y-96881171D01*
X117067073Y-96855000D01*
X116932927Y-96855000D01*
X116801360Y-96881171D01*
X116677426Y-96932506D01*
X116565888Y-97007033D01*
X116471033Y-97101888D01*
X116396506Y-97213426D01*
X116345171Y-97337360D01*
X116319000Y-97468927D01*
X115127000Y-97468927D01*
X115127000Y-90451880D01*
X116750527Y-90451880D01*
X116750527Y-91650760D01*
X116757883Y-91725449D01*
X116779669Y-91797268D01*
X116815048Y-91863456D01*
X116862659Y-91921471D01*
X116920674Y-91969082D01*
X116986862Y-92004461D01*
X117058681Y-92026247D01*
X117133370Y-92033603D01*
X118832630Y-92033603D01*
X118907319Y-92026247D01*
X118979138Y-92004461D01*
X119045326Y-91969082D01*
X119103341Y-91921471D01*
X119150952Y-91863456D01*
X119186331Y-91797268D01*
X119208117Y-91725449D01*
X119215473Y-91650760D01*
X119215473Y-90451880D01*
X119208117Y-90377191D01*
X119186331Y-90305372D01*
X119150952Y-90239184D01*
X119103341Y-90181169D01*
X119045326Y-90133558D01*
X118979138Y-90098179D01*
X118907319Y-90076393D01*
X118832630Y-90069037D01*
X117133370Y-90069037D01*
X117058681Y-90076393D01*
X116986862Y-90098179D01*
X116920674Y-90133558D01*
X116862659Y-90181169D01*
X116815048Y-90239184D01*
X116779669Y-90305372D01*
X116757883Y-90377191D01*
X116750527Y-90451880D01*
X115127000Y-90451880D01*
X115127000Y-89049800D01*
X116747627Y-89049800D01*
X116766557Y-89242000D01*
X116822620Y-89426813D01*
X116913660Y-89597138D01*
X117036180Y-89746430D01*
X117185472Y-89868950D01*
X117355797Y-89959990D01*
X117540610Y-90016053D01*
X117684653Y-90030240D01*
X118281347Y-90030240D01*
X118425390Y-90016053D01*
X118610203Y-89959990D01*
X118780528Y-89868950D01*
X118929820Y-89746430D01*
X119052340Y-89597138D01*
X119143380Y-89426813D01*
X119199443Y-89242000D01*
X119218373Y-89049800D01*
X119199443Y-88857600D01*
X119143380Y-88672787D01*
X119052340Y-88502462D01*
X118929820Y-88353170D01*
X118780528Y-88230650D01*
X118610203Y-88139610D01*
X118425390Y-88083547D01*
X118281347Y-88069360D01*
X117684653Y-88069360D01*
X117540610Y-88083547D01*
X117355797Y-88139610D01*
X117185472Y-88230650D01*
X117036180Y-88353170D01*
X116913660Y-88502462D01*
X116822620Y-88672787D01*
X116766557Y-88857600D01*
X116747627Y-89049800D01*
X115127000Y-89049800D01*
X115127000Y-87218741D01*
X116818932Y-87218741D01*
X116864213Y-87380571D01*
X116945730Y-87543641D01*
X117057494Y-87687674D01*
X117195210Y-87807136D01*
X117353585Y-87897435D01*
X117526534Y-87955102D01*
X117707410Y-87977920D01*
X117957600Y-87977920D01*
X117957600Y-87073680D01*
X118008400Y-87073680D01*
X118008400Y-87977920D01*
X118258590Y-87977920D01*
X118439466Y-87955102D01*
X118612415Y-87897435D01*
X118770790Y-87807136D01*
X118908506Y-87687674D01*
X119020270Y-87543641D01*
X119101787Y-87380571D01*
X119147068Y-87218741D01*
X119079899Y-87073680D01*
X118008400Y-87073680D01*
X117957600Y-87073680D01*
X116886101Y-87073680D01*
X116818932Y-87218741D01*
X115127000Y-87218741D01*
X115127000Y-86877819D01*
X116818932Y-86877819D01*
X116886101Y-87022880D01*
X117957600Y-87022880D01*
X117957600Y-86118640D01*
X118008400Y-86118640D01*
X118008400Y-87022880D01*
X119079899Y-87022880D01*
X119147068Y-86877819D01*
X119101787Y-86715989D01*
X119020270Y-86552919D01*
X118908506Y-86408886D01*
X118770790Y-86289424D01*
X118612415Y-86199125D01*
X118439466Y-86141458D01*
X118258590Y-86118640D01*
X118008400Y-86118640D01*
X117957600Y-86118640D01*
X117707410Y-86118640D01*
X117526534Y-86141458D01*
X117353585Y-86199125D01*
X117195210Y-86289424D01*
X117057494Y-86408886D01*
X116945730Y-86552919D01*
X116864213Y-86715989D01*
X116818932Y-86877819D01*
X115127000Y-86877819D01*
X115127000Y-81043720D01*
X116747627Y-81043720D01*
X116766557Y-81235920D01*
X116822620Y-81420733D01*
X116913660Y-81591058D01*
X117036180Y-81740350D01*
X117185472Y-81862870D01*
X117355797Y-81953910D01*
X117540610Y-82009973D01*
X117684653Y-82024160D01*
X118281347Y-82024160D01*
X118425390Y-82009973D01*
X118610203Y-81953910D01*
X118780528Y-81862870D01*
X118929820Y-81740350D01*
X119052340Y-81591058D01*
X119143380Y-81420733D01*
X119199443Y-81235920D01*
X119218373Y-81043720D01*
X119199443Y-80851520D01*
X119143380Y-80666707D01*
X119052340Y-80496382D01*
X118929820Y-80347090D01*
X118780528Y-80224570D01*
X118610203Y-80133530D01*
X118425390Y-80077467D01*
X118281347Y-80063280D01*
X117684653Y-80063280D01*
X117540610Y-80077467D01*
X117355797Y-80133530D01*
X117185472Y-80224570D01*
X117036180Y-80347090D01*
X116913660Y-80496382D01*
X116822620Y-80666707D01*
X116766557Y-80851520D01*
X116747627Y-81043720D01*
X115127000Y-81043720D01*
X115127000Y-79044740D01*
X116747627Y-79044740D01*
X116766557Y-79236940D01*
X116822620Y-79421753D01*
X116913660Y-79592078D01*
X117036180Y-79741370D01*
X117185472Y-79863890D01*
X117355797Y-79954930D01*
X117540610Y-80010993D01*
X117684653Y-80025180D01*
X118281347Y-80025180D01*
X118425390Y-80010993D01*
X118610203Y-79954930D01*
X118780528Y-79863890D01*
X118929820Y-79741370D01*
X119052340Y-79592078D01*
X119143380Y-79421753D01*
X119199443Y-79236940D01*
X119218373Y-79044740D01*
X119199443Y-78852540D01*
X119143380Y-78667727D01*
X119052340Y-78497402D01*
X118929820Y-78348110D01*
X118780528Y-78225590D01*
X118610203Y-78134550D01*
X118425390Y-78078487D01*
X118281347Y-78064300D01*
X117684653Y-78064300D01*
X117540610Y-78078487D01*
X117355797Y-78134550D01*
X117185472Y-78225590D01*
X117036180Y-78348110D01*
X116913660Y-78497402D01*
X116822620Y-78667727D01*
X116766557Y-78852540D01*
X116747627Y-79044740D01*
X115127000Y-79044740D01*
X115127000Y-77045760D01*
X116747627Y-77045760D01*
X116766557Y-77237960D01*
X116822620Y-77422773D01*
X116913660Y-77593098D01*
X117036180Y-77742390D01*
X117185472Y-77864910D01*
X117355797Y-77955950D01*
X117540610Y-78012013D01*
X117684653Y-78026200D01*
X118281347Y-78026200D01*
X118425390Y-78012013D01*
X118610203Y-77955950D01*
X118780528Y-77864910D01*
X118929820Y-77742390D01*
X119052340Y-77593098D01*
X119143380Y-77422773D01*
X119199443Y-77237960D01*
X119218373Y-77045760D01*
X119199443Y-76853560D01*
X119143380Y-76668747D01*
X119052340Y-76498422D01*
X118929820Y-76349130D01*
X118780528Y-76226610D01*
X118610203Y-76135570D01*
X118425390Y-76079507D01*
X118281347Y-76065320D01*
X117684653Y-76065320D01*
X117540610Y-76079507D01*
X117355797Y-76135570D01*
X117185472Y-76226610D01*
X117036180Y-76349130D01*
X116913660Y-76498422D01*
X116822620Y-76668747D01*
X116766557Y-76853560D01*
X116747627Y-77045760D01*
X115127000Y-77045760D01*
X115127000Y-71949600D01*
X116750527Y-71949600D01*
X116750527Y-73148480D01*
X116757883Y-73223169D01*
X116779669Y-73294988D01*
X116815048Y-73361176D01*
X116862659Y-73419191D01*
X116920674Y-73466802D01*
X116986862Y-73502181D01*
X117058681Y-73523967D01*
X117133370Y-73531323D01*
X118832630Y-73531323D01*
X118907319Y-73523967D01*
X118979138Y-73502181D01*
X119045326Y-73466802D01*
X119103341Y-73419191D01*
X119150952Y-73361176D01*
X119186331Y-73294988D01*
X119208117Y-73223169D01*
X119215473Y-73148480D01*
X119215473Y-71949600D01*
X119208117Y-71874911D01*
X119186331Y-71803092D01*
X119150952Y-71736904D01*
X119103341Y-71678889D01*
X119045326Y-71631278D01*
X118979138Y-71595899D01*
X118907319Y-71574113D01*
X118832630Y-71566757D01*
X117133370Y-71566757D01*
X117058681Y-71574113D01*
X116986862Y-71595899D01*
X116920674Y-71631278D01*
X116862659Y-71678889D01*
X116815048Y-71736904D01*
X116779669Y-71803092D01*
X116757883Y-71874911D01*
X116750527Y-71949600D01*
X115127000Y-71949600D01*
X115127000Y-68716461D01*
X116818932Y-68716461D01*
X116864213Y-68878291D01*
X116945730Y-69041361D01*
X117057494Y-69185394D01*
X117195210Y-69304856D01*
X117353585Y-69395155D01*
X117526534Y-69452822D01*
X117707410Y-69475640D01*
X117957600Y-69475640D01*
X117957600Y-68571400D01*
X118008400Y-68571400D01*
X118008400Y-69475640D01*
X118258590Y-69475640D01*
X118439466Y-69452822D01*
X118612415Y-69395155D01*
X118770790Y-69304856D01*
X118908506Y-69185394D01*
X119020270Y-69041361D01*
X119101787Y-68878291D01*
X119147068Y-68716461D01*
X119079899Y-68571400D01*
X118008400Y-68571400D01*
X117957600Y-68571400D01*
X116886101Y-68571400D01*
X116818932Y-68716461D01*
X115127000Y-68716461D01*
X115127000Y-68375539D01*
X116818932Y-68375539D01*
X116886101Y-68520600D01*
X117957600Y-68520600D01*
X117957600Y-67616360D01*
X118008400Y-67616360D01*
X118008400Y-68520600D01*
X119079899Y-68520600D01*
X119147068Y-68375539D01*
X119101787Y-68213709D01*
X119020270Y-68050639D01*
X118908506Y-67906606D01*
X118770790Y-67787144D01*
X118612415Y-67696845D01*
X118439466Y-67639178D01*
X118258590Y-67616360D01*
X118008400Y-67616360D01*
X117957600Y-67616360D01*
X117707410Y-67616360D01*
X117526534Y-67639178D01*
X117353585Y-67696845D01*
X117195210Y-67787144D01*
X117057494Y-67906606D01*
X116945730Y-68050639D01*
X116864213Y-68213709D01*
X116818932Y-68375539D01*
X115127000Y-68375539D01*
X115127000Y-64545500D01*
X116747627Y-64545500D01*
X116766557Y-64737700D01*
X116822620Y-64922513D01*
X116913660Y-65092838D01*
X117036180Y-65242130D01*
X117185472Y-65364650D01*
X117355797Y-65455690D01*
X117540610Y-65511753D01*
X117684653Y-65525940D01*
X118281347Y-65525940D01*
X118425390Y-65511753D01*
X118610203Y-65455690D01*
X118780528Y-65364650D01*
X118929820Y-65242130D01*
X119052340Y-65092838D01*
X119143380Y-64922513D01*
X119199443Y-64737700D01*
X119218373Y-64545500D01*
X119199443Y-64353300D01*
X119143380Y-64168487D01*
X119052340Y-63998162D01*
X118929820Y-63848870D01*
X118780528Y-63726350D01*
X118610203Y-63635310D01*
X118425390Y-63579247D01*
X118281347Y-63565060D01*
X117684653Y-63565060D01*
X117540610Y-63579247D01*
X117355797Y-63635310D01*
X117185472Y-63726350D01*
X117036180Y-63848870D01*
X116913660Y-63998162D01*
X116822620Y-64168487D01*
X116766557Y-64353300D01*
X116747627Y-64545500D01*
X115127000Y-64545500D01*
X115127000Y-59410154D01*
X117938000Y-59410154D01*
X117938000Y-59573846D01*
X117969935Y-59734394D01*
X118032577Y-59885626D01*
X118123520Y-60021732D01*
X118239268Y-60137480D01*
X118375374Y-60228423D01*
X118526606Y-60291065D01*
X118687154Y-60323000D01*
X118850846Y-60323000D01*
X119011394Y-60291065D01*
X119162626Y-60228423D01*
X119298732Y-60137480D01*
X119414480Y-60021732D01*
X119505423Y-59885626D01*
X119568065Y-59734394D01*
X119600000Y-59573846D01*
X119600000Y-59410154D01*
X119568065Y-59249606D01*
X119505423Y-59098374D01*
X119414480Y-58962268D01*
X119298732Y-58846520D01*
X119162626Y-58755577D01*
X119011394Y-58692935D01*
X118850846Y-58661000D01*
X118687154Y-58661000D01*
X118526606Y-58692935D01*
X118375374Y-58755577D01*
X118239268Y-58846520D01*
X118123520Y-58962268D01*
X118032577Y-59098374D01*
X117969935Y-59249606D01*
X117938000Y-59410154D01*
X115127000Y-59410154D01*
X115127000Y-56945516D01*
X115486833Y-56504317D01*
X116019443Y-56063704D01*
X116627494Y-55734932D01*
X117287818Y-55530527D01*
X117996766Y-55456014D01*
X118000720Y-55456000D01*
X122662122Y-55456000D01*
X122636000Y-55587321D01*
G36*
X122844184Y-96744958D02*
G01*
X122939039Y-96839813D01*
X123050577Y-96914340D01*
X123174511Y-96965675D01*
X123306078Y-96991846D01*
X123371652Y-96991846D01*
X124589923Y-98210117D01*
X124542438Y-98200671D01*
X124408292Y-98200671D01*
X124276725Y-98226842D01*
X124152791Y-98278177D01*
X124041880Y-98352285D01*
X123969774Y-98304106D01*
X123845840Y-98252771D01*
X123714273Y-98226600D01*
X123580127Y-98226600D01*
X123448560Y-98252771D01*
X123324626Y-98304106D01*
X123213088Y-98378633D01*
X123118233Y-98473488D01*
X123043706Y-98585026D01*
X122992371Y-98708960D01*
X122966200Y-98840527D01*
X122966200Y-98974673D01*
X122992371Y-99106240D01*
X123043706Y-99230174D01*
X123118233Y-99341712D01*
X123213088Y-99436567D01*
X123324626Y-99511094D01*
X123448560Y-99562429D01*
X123580127Y-99588600D01*
X123714273Y-99588600D01*
X123845840Y-99562429D01*
X123969774Y-99511094D01*
X124080685Y-99436986D01*
X124152791Y-99485165D01*
X124276725Y-99536500D01*
X124408292Y-99562671D01*
X124542438Y-99562671D01*
X124674005Y-99536500D01*
X124797939Y-99485165D01*
X124909477Y-99410638D01*
X125004332Y-99315783D01*
X125078859Y-99204245D01*
X125130194Y-99080311D01*
X125156365Y-98948744D01*
X125156365Y-98814598D01*
X125147597Y-98770522D01*
X125217890Y-98828209D01*
X125301728Y-98873022D01*
X125392699Y-98900617D01*
X125463598Y-98907600D01*
X125463599Y-98907600D01*
X125487304Y-98909935D01*
X125511009Y-98907600D01*
X128403617Y-98907600D01*
X128375610Y-98913171D01*
X128251676Y-98964506D01*
X128140138Y-99039033D01*
X128045283Y-99133888D01*
X127970756Y-99245426D01*
X127919421Y-99369360D01*
X127893250Y-99500927D01*
X127893250Y-99635073D01*
X127919421Y-99766640D01*
X127970756Y-99890574D01*
X128045283Y-100002112D01*
X128140138Y-100096967D01*
X128251676Y-100171494D01*
X128375610Y-100222829D01*
X128507177Y-100249000D01*
X128641323Y-100249000D01*
X128772890Y-100222829D01*
X128896824Y-100171494D01*
X128950456Y-100135659D01*
X129004087Y-100171494D01*
X129128021Y-100222829D01*
X129259588Y-100249000D01*
X129393734Y-100249000D01*
X129525301Y-100222829D01*
X129649235Y-100171494D01*
X129727153Y-100119431D01*
X129792219Y-100162906D01*
X129916153Y-100214241D01*
X130047720Y-100240412D01*
X130181866Y-100240412D01*
X130313433Y-100214241D01*
X130413891Y-100172630D01*
X130426794Y-100185533D01*
X130538332Y-100260060D01*
X130662266Y-100311395D01*
X130793833Y-100337566D01*
X130927979Y-100337566D01*
X131059546Y-100311395D01*
X131183480Y-100260060D01*
X131295018Y-100185533D01*
X131389873Y-100090678D01*
X131411130Y-100058865D01*
X131500360Y-100095825D01*
X131631927Y-100121996D01*
X131766073Y-100121996D01*
X131897640Y-100095825D01*
X132021574Y-100044490D01*
X132133112Y-99969963D01*
X132227967Y-99875108D01*
X132302494Y-99763570D01*
X132353829Y-99639636D01*
X132358029Y-99618523D01*
X132365506Y-99636574D01*
X132440033Y-99748112D01*
X132534888Y-99842967D01*
X132646426Y-99917494D01*
X132770360Y-99968829D01*
X132901927Y-99995000D01*
X133036073Y-99995000D01*
X133167640Y-99968829D01*
X133291574Y-99917494D01*
X133403112Y-99842967D01*
X133497967Y-99748112D01*
X133572494Y-99636574D01*
X133623829Y-99512640D01*
X133650000Y-99381073D01*
X133650000Y-99246927D01*
X133623829Y-99115360D01*
X133572494Y-98991426D01*
X133516483Y-98907600D01*
X134801101Y-98907600D01*
X135785988Y-99892488D01*
X135801099Y-99910901D01*
X135819512Y-99926012D01*
X135819513Y-99926013D01*
X135828740Y-99933585D01*
X135874585Y-99971209D01*
X135958423Y-100016022D01*
X136049394Y-100043617D01*
X136120293Y-100050600D01*
X136120294Y-100050600D01*
X136143999Y-100052935D01*
X136167704Y-100050600D01*
X136882295Y-100050600D01*
X136906000Y-100052935D01*
X136929705Y-100050600D01*
X136929707Y-100050600D01*
X137000606Y-100043617D01*
X137091577Y-100016022D01*
X137175415Y-99971209D01*
X137248901Y-99910901D01*
X137264017Y-99892482D01*
X138013745Y-99142754D01*
X138013745Y-99264818D01*
X138039916Y-99396385D01*
X138091251Y-99520319D01*
X138165778Y-99631857D01*
X138260633Y-99726712D01*
X138372171Y-99801239D01*
X138496105Y-99852574D01*
X138627672Y-99878745D01*
X138761818Y-99878745D01*
X138893385Y-99852574D01*
X139017319Y-99801239D01*
X139128857Y-99726712D01*
X139223712Y-99631857D01*
X139298239Y-99520319D01*
X139349574Y-99396385D01*
X139375745Y-99264818D01*
X139375745Y-99130672D01*
X139349574Y-98999105D01*
X139298239Y-98875171D01*
X139223712Y-98763633D01*
X139128857Y-98668778D01*
X139017319Y-98594251D01*
X138893385Y-98542916D01*
X138761818Y-98516745D01*
X138639755Y-98516745D01*
X139544001Y-97612499D01*
X139544000Y-106373000D01*
X130276600Y-106373000D01*
X130276600Y-105834633D01*
X130282171Y-105862640D01*
X130333506Y-105986574D01*
X130408033Y-106098112D01*
X130502888Y-106192967D01*
X130614426Y-106267494D01*
X130738360Y-106318829D01*
X130869927Y-106345000D01*
X131004073Y-106345000D01*
X131135640Y-106318829D01*
X131259574Y-106267494D01*
X131371112Y-106192967D01*
X131465967Y-106098112D01*
X131540494Y-105986574D01*
X131591829Y-105862640D01*
X131618000Y-105731073D01*
X131618000Y-105596927D01*
X131591829Y-105465360D01*
X131540494Y-105341426D01*
X131465967Y-105229888D01*
X131371112Y-105135033D01*
X131259574Y-105060506D01*
X131135640Y-105009171D01*
X131004073Y-104983000D01*
X130869927Y-104983000D01*
X130738360Y-105009171D01*
X130614426Y-105060506D01*
X130502888Y-105135033D01*
X130408033Y-105229888D01*
X130333506Y-105341426D01*
X130282171Y-105465360D01*
X130276600Y-105493367D01*
X130276600Y-104925707D01*
X130278935Y-104902000D01*
X130269617Y-104807393D01*
X130242022Y-104716423D01*
X130241273Y-104715022D01*
X130197209Y-104632585D01*
X130136901Y-104559099D01*
X130118487Y-104543987D01*
X129517017Y-103942518D01*
X129501901Y-103924099D01*
X129428415Y-103863791D01*
X129344577Y-103818978D01*
X129344409Y-103818927D01*
X130129000Y-103818927D01*
X130129000Y-103953073D01*
X130155171Y-104084640D01*
X130206506Y-104208574D01*
X130281033Y-104320112D01*
X130375888Y-104414967D01*
X130487426Y-104489494D01*
X130611360Y-104540829D01*
X130742927Y-104567000D01*
X130877073Y-104567000D01*
X131008640Y-104540829D01*
X131132574Y-104489494D01*
X131244112Y-104414967D01*
X131338967Y-104320112D01*
X131413494Y-104208574D01*
X131464829Y-104084640D01*
X131491000Y-103953073D01*
X131491000Y-103818927D01*
X131464829Y-103687360D01*
X131413494Y-103563426D01*
X131338967Y-103451888D01*
X131244112Y-103357033D01*
X131132574Y-103282506D01*
X131008640Y-103231171D01*
X130877073Y-103205000D01*
X130742927Y-103205000D01*
X130611360Y-103231171D01*
X130487426Y-103282506D01*
X130375888Y-103357033D01*
X130281033Y-103451888D01*
X130206506Y-103563426D01*
X130155171Y-103687360D01*
X130129000Y-103818927D01*
X129344409Y-103818927D01*
X129253606Y-103791383D01*
X129182707Y-103784400D01*
X129182705Y-103784400D01*
X129159000Y-103782065D01*
X129135295Y-103784400D01*
X124913900Y-103784400D01*
X123780027Y-102650527D01*
X127182596Y-102650527D01*
X127182596Y-102784673D01*
X127208767Y-102916240D01*
X127260102Y-103040174D01*
X127334629Y-103151712D01*
X127429484Y-103246567D01*
X127541022Y-103321094D01*
X127664956Y-103372429D01*
X127796523Y-103398600D01*
X127930669Y-103398600D01*
X128062236Y-103372429D01*
X128186170Y-103321094D01*
X128297708Y-103246567D01*
X128392563Y-103151712D01*
X128467090Y-103040174D01*
X128481326Y-103005806D01*
X128507938Y-103016829D01*
X128639505Y-103043000D01*
X128773651Y-103043000D01*
X128905218Y-103016829D01*
X129029152Y-102965494D01*
X129140690Y-102890967D01*
X129235545Y-102796112D01*
X129310072Y-102684574D01*
X129361407Y-102560640D01*
X129387578Y-102429073D01*
X129387578Y-102294927D01*
X129361407Y-102163360D01*
X129310072Y-102039426D01*
X129235545Y-101927888D01*
X129140690Y-101833033D01*
X129029152Y-101758506D01*
X128905218Y-101707171D01*
X128773651Y-101681000D01*
X128639505Y-101681000D01*
X128507938Y-101707171D01*
X128384004Y-101758506D01*
X128272466Y-101833033D01*
X128177611Y-101927888D01*
X128103084Y-102039426D01*
X128088848Y-102073794D01*
X128062236Y-102062771D01*
X127930669Y-102036600D01*
X127796523Y-102036600D01*
X127664956Y-102062771D01*
X127541022Y-102114106D01*
X127429484Y-102188633D01*
X127334629Y-102283488D01*
X127260102Y-102395026D01*
X127208767Y-102518960D01*
X127182596Y-102650527D01*
X123780027Y-102650527D01*
X121132600Y-100003101D01*
X121132600Y-99995478D01*
X121137033Y-100002112D01*
X121231888Y-100096967D01*
X121343426Y-100171494D01*
X121467360Y-100222829D01*
X121598927Y-100249000D01*
X121733073Y-100249000D01*
X121864640Y-100222829D01*
X121988574Y-100171494D01*
X122100112Y-100096967D01*
X122194967Y-100002112D01*
X122269494Y-99890574D01*
X122320829Y-99766640D01*
X122347000Y-99635073D01*
X122347000Y-99500927D01*
X122320829Y-99369360D01*
X122269494Y-99245426D01*
X122194967Y-99133888D01*
X122100112Y-99039033D01*
X121988574Y-98964506D01*
X121864640Y-98913171D01*
X121733073Y-98887000D01*
X121598927Y-98887000D01*
X121467360Y-98913171D01*
X121413935Y-98935300D01*
X121837828Y-98511408D01*
X121851426Y-98520494D01*
X121975360Y-98571829D01*
X122106927Y-98598000D01*
X122241073Y-98598000D01*
X122372640Y-98571829D01*
X122496574Y-98520494D01*
X122608112Y-98445967D01*
X122702967Y-98351112D01*
X122777494Y-98239574D01*
X122828829Y-98115640D01*
X122855000Y-97984073D01*
X122855000Y-97849927D01*
X122828829Y-97718360D01*
X122777494Y-97594426D01*
X122702967Y-97482888D01*
X122608112Y-97388033D01*
X122496574Y-97313506D01*
X122372640Y-97262171D01*
X122289380Y-97245609D01*
X122822494Y-96712496D01*
X122844184Y-96744958D01*
G37*
X122844184Y-96744958D02*
X122939039Y-96839813D01*
X123050577Y-96914340D01*
X123174511Y-96965675D01*
X123306078Y-96991846D01*
X123371652Y-96991846D01*
X124589923Y-98210117D01*
X124542438Y-98200671D01*
X124408292Y-98200671D01*
X124276725Y-98226842D01*
X124152791Y-98278177D01*
X124041880Y-98352285D01*
X123969774Y-98304106D01*
X123845840Y-98252771D01*
X123714273Y-98226600D01*
X123580127Y-98226600D01*
X123448560Y-98252771D01*
X123324626Y-98304106D01*
X123213088Y-98378633D01*
X123118233Y-98473488D01*
X123043706Y-98585026D01*
X122992371Y-98708960D01*
X122966200Y-98840527D01*
X122966200Y-98974673D01*
X122992371Y-99106240D01*
X123043706Y-99230174D01*
X123118233Y-99341712D01*
X123213088Y-99436567D01*
X123324626Y-99511094D01*
X123448560Y-99562429D01*
X123580127Y-99588600D01*
X123714273Y-99588600D01*
X123845840Y-99562429D01*
X123969774Y-99511094D01*
X124080685Y-99436986D01*
X124152791Y-99485165D01*
X124276725Y-99536500D01*
X124408292Y-99562671D01*
X124542438Y-99562671D01*
X124674005Y-99536500D01*
X124797939Y-99485165D01*
X124909477Y-99410638D01*
X125004332Y-99315783D01*
X125078859Y-99204245D01*
X125130194Y-99080311D01*
X125156365Y-98948744D01*
X125156365Y-98814598D01*
X125147597Y-98770522D01*
X125217890Y-98828209D01*
X125301728Y-98873022D01*
X125392699Y-98900617D01*
X125463598Y-98907600D01*
X125463599Y-98907600D01*
X125487304Y-98909935D01*
X125511009Y-98907600D01*
X128403617Y-98907600D01*
X128375610Y-98913171D01*
X128251676Y-98964506D01*
X128140138Y-99039033D01*
X128045283Y-99133888D01*
X127970756Y-99245426D01*
X127919421Y-99369360D01*
X127893250Y-99500927D01*
X127893250Y-99635073D01*
X127919421Y-99766640D01*
X127970756Y-99890574D01*
X128045283Y-100002112D01*
X128140138Y-100096967D01*
X128251676Y-100171494D01*
X128375610Y-100222829D01*
X128507177Y-100249000D01*
X128641323Y-100249000D01*
X128772890Y-100222829D01*
X128896824Y-100171494D01*
X128950456Y-100135659D01*
X129004087Y-100171494D01*
X129128021Y-100222829D01*
X129259588Y-100249000D01*
X129393734Y-100249000D01*
X129525301Y-100222829D01*
X129649235Y-100171494D01*
X129727153Y-100119431D01*
X129792219Y-100162906D01*
X129916153Y-100214241D01*
X130047720Y-100240412D01*
X130181866Y-100240412D01*
X130313433Y-100214241D01*
X130413891Y-100172630D01*
X130426794Y-100185533D01*
X130538332Y-100260060D01*
X130662266Y-100311395D01*
X130793833Y-100337566D01*
X130927979Y-100337566D01*
X131059546Y-100311395D01*
X131183480Y-100260060D01*
X131295018Y-100185533D01*
X131389873Y-100090678D01*
X131411130Y-100058865D01*
X131500360Y-100095825D01*
X131631927Y-100121996D01*
X131766073Y-100121996D01*
X131897640Y-100095825D01*
X132021574Y-100044490D01*
X132133112Y-99969963D01*
X132227967Y-99875108D01*
X132302494Y-99763570D01*
X132353829Y-99639636D01*
X132358029Y-99618523D01*
X132365506Y-99636574D01*
X132440033Y-99748112D01*
X132534888Y-99842967D01*
X132646426Y-99917494D01*
X132770360Y-99968829D01*
X132901927Y-99995000D01*
X133036073Y-99995000D01*
X133167640Y-99968829D01*
X133291574Y-99917494D01*
X133403112Y-99842967D01*
X133497967Y-99748112D01*
X133572494Y-99636574D01*
X133623829Y-99512640D01*
X133650000Y-99381073D01*
X133650000Y-99246927D01*
X133623829Y-99115360D01*
X133572494Y-98991426D01*
X133516483Y-98907600D01*
X134801101Y-98907600D01*
X135785988Y-99892488D01*
X135801099Y-99910901D01*
X135819512Y-99926012D01*
X135819513Y-99926013D01*
X135828740Y-99933585D01*
X135874585Y-99971209D01*
X135958423Y-100016022D01*
X136049394Y-100043617D01*
X136120293Y-100050600D01*
X136120294Y-100050600D01*
X136143999Y-100052935D01*
X136167704Y-100050600D01*
X136882295Y-100050600D01*
X136906000Y-100052935D01*
X136929705Y-100050600D01*
X136929707Y-100050600D01*
X137000606Y-100043617D01*
X137091577Y-100016022D01*
X137175415Y-99971209D01*
X137248901Y-99910901D01*
X137264017Y-99892482D01*
X138013745Y-99142754D01*
X138013745Y-99264818D01*
X138039916Y-99396385D01*
X138091251Y-99520319D01*
X138165778Y-99631857D01*
X138260633Y-99726712D01*
X138372171Y-99801239D01*
X138496105Y-99852574D01*
X138627672Y-99878745D01*
X138761818Y-99878745D01*
X138893385Y-99852574D01*
X139017319Y-99801239D01*
X139128857Y-99726712D01*
X139223712Y-99631857D01*
X139298239Y-99520319D01*
X139349574Y-99396385D01*
X139375745Y-99264818D01*
X139375745Y-99130672D01*
X139349574Y-98999105D01*
X139298239Y-98875171D01*
X139223712Y-98763633D01*
X139128857Y-98668778D01*
X139017319Y-98594251D01*
X138893385Y-98542916D01*
X138761818Y-98516745D01*
X138639755Y-98516745D01*
X139544001Y-97612499D01*
X139544000Y-106373000D01*
X130276600Y-106373000D01*
X130276600Y-105834633D01*
X130282171Y-105862640D01*
X130333506Y-105986574D01*
X130408033Y-106098112D01*
X130502888Y-106192967D01*
X130614426Y-106267494D01*
X130738360Y-106318829D01*
X130869927Y-106345000D01*
X131004073Y-106345000D01*
X131135640Y-106318829D01*
X131259574Y-106267494D01*
X131371112Y-106192967D01*
X131465967Y-106098112D01*
X131540494Y-105986574D01*
X131591829Y-105862640D01*
X131618000Y-105731073D01*
X131618000Y-105596927D01*
X131591829Y-105465360D01*
X131540494Y-105341426D01*
X131465967Y-105229888D01*
X131371112Y-105135033D01*
X131259574Y-105060506D01*
X131135640Y-105009171D01*
X131004073Y-104983000D01*
X130869927Y-104983000D01*
X130738360Y-105009171D01*
X130614426Y-105060506D01*
X130502888Y-105135033D01*
X130408033Y-105229888D01*
X130333506Y-105341426D01*
X130282171Y-105465360D01*
X130276600Y-105493367D01*
X130276600Y-104925707D01*
X130278935Y-104902000D01*
X130269617Y-104807393D01*
X130242022Y-104716423D01*
X130241273Y-104715022D01*
X130197209Y-104632585D01*
X130136901Y-104559099D01*
X130118487Y-104543987D01*
X129517017Y-103942518D01*
X129501901Y-103924099D01*
X129428415Y-103863791D01*
X129344577Y-103818978D01*
X129344409Y-103818927D01*
X130129000Y-103818927D01*
X130129000Y-103953073D01*
X130155171Y-104084640D01*
X130206506Y-104208574D01*
X130281033Y-104320112D01*
X130375888Y-104414967D01*
X130487426Y-104489494D01*
X130611360Y-104540829D01*
X130742927Y-104567000D01*
X130877073Y-104567000D01*
X131008640Y-104540829D01*
X131132574Y-104489494D01*
X131244112Y-104414967D01*
X131338967Y-104320112D01*
X131413494Y-104208574D01*
X131464829Y-104084640D01*
X131491000Y-103953073D01*
X131491000Y-103818927D01*
X131464829Y-103687360D01*
X131413494Y-103563426D01*
X131338967Y-103451888D01*
X131244112Y-103357033D01*
X131132574Y-103282506D01*
X131008640Y-103231171D01*
X130877073Y-103205000D01*
X130742927Y-103205000D01*
X130611360Y-103231171D01*
X130487426Y-103282506D01*
X130375888Y-103357033D01*
X130281033Y-103451888D01*
X130206506Y-103563426D01*
X130155171Y-103687360D01*
X130129000Y-103818927D01*
X129344409Y-103818927D01*
X129253606Y-103791383D01*
X129182707Y-103784400D01*
X129182705Y-103784400D01*
X129159000Y-103782065D01*
X129135295Y-103784400D01*
X124913900Y-103784400D01*
X123780027Y-102650527D01*
X127182596Y-102650527D01*
X127182596Y-102784673D01*
X127208767Y-102916240D01*
X127260102Y-103040174D01*
X127334629Y-103151712D01*
X127429484Y-103246567D01*
X127541022Y-103321094D01*
X127664956Y-103372429D01*
X127796523Y-103398600D01*
X127930669Y-103398600D01*
X128062236Y-103372429D01*
X128186170Y-103321094D01*
X128297708Y-103246567D01*
X128392563Y-103151712D01*
X128467090Y-103040174D01*
X128481326Y-103005806D01*
X128507938Y-103016829D01*
X128639505Y-103043000D01*
X128773651Y-103043000D01*
X128905218Y-103016829D01*
X129029152Y-102965494D01*
X129140690Y-102890967D01*
X129235545Y-102796112D01*
X129310072Y-102684574D01*
X129361407Y-102560640D01*
X129387578Y-102429073D01*
X129387578Y-102294927D01*
X129361407Y-102163360D01*
X129310072Y-102039426D01*
X129235545Y-101927888D01*
X129140690Y-101833033D01*
X129029152Y-101758506D01*
X128905218Y-101707171D01*
X128773651Y-101681000D01*
X128639505Y-101681000D01*
X128507938Y-101707171D01*
X128384004Y-101758506D01*
X128272466Y-101833033D01*
X128177611Y-101927888D01*
X128103084Y-102039426D01*
X128088848Y-102073794D01*
X128062236Y-102062771D01*
X127930669Y-102036600D01*
X127796523Y-102036600D01*
X127664956Y-102062771D01*
X127541022Y-102114106D01*
X127429484Y-102188633D01*
X127334629Y-102283488D01*
X127260102Y-102395026D01*
X127208767Y-102518960D01*
X127182596Y-102650527D01*
X123780027Y-102650527D01*
X121132600Y-100003101D01*
X121132600Y-99995478D01*
X121137033Y-100002112D01*
X121231888Y-100096967D01*
X121343426Y-100171494D01*
X121467360Y-100222829D01*
X121598927Y-100249000D01*
X121733073Y-100249000D01*
X121864640Y-100222829D01*
X121988574Y-100171494D01*
X122100112Y-100096967D01*
X122194967Y-100002112D01*
X122269494Y-99890574D01*
X122320829Y-99766640D01*
X122347000Y-99635073D01*
X122347000Y-99500927D01*
X122320829Y-99369360D01*
X122269494Y-99245426D01*
X122194967Y-99133888D01*
X122100112Y-99039033D01*
X121988574Y-98964506D01*
X121864640Y-98913171D01*
X121733073Y-98887000D01*
X121598927Y-98887000D01*
X121467360Y-98913171D01*
X121413935Y-98935300D01*
X121837828Y-98511408D01*
X121851426Y-98520494D01*
X121975360Y-98571829D01*
X122106927Y-98598000D01*
X122241073Y-98598000D01*
X122372640Y-98571829D01*
X122496574Y-98520494D01*
X122608112Y-98445967D01*
X122702967Y-98351112D01*
X122777494Y-98239574D01*
X122828829Y-98115640D01*
X122855000Y-97984073D01*
X122855000Y-97849927D01*
X122828829Y-97718360D01*
X122777494Y-97594426D01*
X122702967Y-97482888D01*
X122608112Y-97388033D01*
X122496574Y-97313506D01*
X122372640Y-97262171D01*
X122289380Y-97245609D01*
X122822494Y-96712496D01*
X122844184Y-96744958D01*
G36*
X127193615Y-95417450D02*
G01*
X127325182Y-95443621D01*
X127390756Y-95443621D01*
X127902617Y-95955482D01*
X127917733Y-95973901D01*
X127991219Y-96034209D01*
X128075057Y-96079022D01*
X128166028Y-96106617D01*
X128236927Y-96113600D01*
X128236936Y-96113600D01*
X128260633Y-96115934D01*
X128284330Y-96113600D01*
X128796332Y-96113600D01*
X128795469Y-96117937D01*
X128795469Y-96252083D01*
X128821640Y-96383650D01*
X128872975Y-96507584D01*
X128947502Y-96619122D01*
X129042357Y-96713977D01*
X129153895Y-96788504D01*
X129277829Y-96839839D01*
X129409396Y-96866010D01*
X129543542Y-96866010D01*
X129675109Y-96839839D01*
X129799043Y-96788504D01*
X129910581Y-96713977D01*
X130005436Y-96619122D01*
X130079963Y-96507584D01*
X130131298Y-96383650D01*
X130157469Y-96252083D01*
X130157469Y-96117937D01*
X130156606Y-96113600D01*
X130932204Y-96113600D01*
X130913408Y-96141730D01*
X130862073Y-96265664D01*
X130835902Y-96397231D01*
X130835902Y-96531377D01*
X130862073Y-96662944D01*
X130913408Y-96786878D01*
X130987935Y-96898416D01*
X131082790Y-96993271D01*
X131194328Y-97067798D01*
X131318262Y-97119133D01*
X131449829Y-97145304D01*
X131547766Y-97145304D01*
X131559218Y-97172952D01*
X131564195Y-97180400D01*
X128942008Y-97180400D01*
X128947969Y-97166008D01*
X128974140Y-97034441D01*
X128974140Y-96900295D01*
X128947969Y-96768728D01*
X128896634Y-96644794D01*
X128822107Y-96533256D01*
X128727252Y-96438401D01*
X128615714Y-96363874D01*
X128491780Y-96312539D01*
X128360213Y-96286368D01*
X128226067Y-96286368D01*
X128094500Y-96312539D01*
X127970566Y-96363874D01*
X127859028Y-96438401D01*
X127764173Y-96533256D01*
X127689646Y-96644794D01*
X127649709Y-96741210D01*
X127101600Y-96193101D01*
X127101600Y-95379336D01*
X127193615Y-95417450D01*
G37*
X127193615Y-95417450D02*
X127325182Y-95443621D01*
X127390756Y-95443621D01*
X127902617Y-95955482D01*
X127917733Y-95973901D01*
X127991219Y-96034209D01*
X128075057Y-96079022D01*
X128166028Y-96106617D01*
X128236927Y-96113600D01*
X128236936Y-96113600D01*
X128260633Y-96115934D01*
X128284330Y-96113600D01*
X128796332Y-96113600D01*
X128795469Y-96117937D01*
X128795469Y-96252083D01*
X128821640Y-96383650D01*
X128872975Y-96507584D01*
X128947502Y-96619122D01*
X129042357Y-96713977D01*
X129153895Y-96788504D01*
X129277829Y-96839839D01*
X129409396Y-96866010D01*
X129543542Y-96866010D01*
X129675109Y-96839839D01*
X129799043Y-96788504D01*
X129910581Y-96713977D01*
X130005436Y-96619122D01*
X130079963Y-96507584D01*
X130131298Y-96383650D01*
X130157469Y-96252083D01*
X130157469Y-96117937D01*
X130156606Y-96113600D01*
X130932204Y-96113600D01*
X130913408Y-96141730D01*
X130862073Y-96265664D01*
X130835902Y-96397231D01*
X130835902Y-96531377D01*
X130862073Y-96662944D01*
X130913408Y-96786878D01*
X130987935Y-96898416D01*
X131082790Y-96993271D01*
X131194328Y-97067798D01*
X131318262Y-97119133D01*
X131449829Y-97145304D01*
X131547766Y-97145304D01*
X131559218Y-97172952D01*
X131564195Y-97180400D01*
X128942008Y-97180400D01*
X128947969Y-97166008D01*
X128974140Y-97034441D01*
X128974140Y-96900295D01*
X128947969Y-96768728D01*
X128896634Y-96644794D01*
X128822107Y-96533256D01*
X128727252Y-96438401D01*
X128615714Y-96363874D01*
X128491780Y-96312539D01*
X128360213Y-96286368D01*
X128226067Y-96286368D01*
X128094500Y-96312539D01*
X127970566Y-96363874D01*
X127859028Y-96438401D01*
X127764173Y-96533256D01*
X127689646Y-96644794D01*
X127649709Y-96741210D01*
X127101600Y-96193101D01*
X127101600Y-95379336D01*
X127193615Y-95417450D01*
G36*
X128732000Y-83948500D02*
G01*
X128732000Y-84014073D01*
X128758171Y-84145640D01*
X128809506Y-84269574D01*
X128884033Y-84381112D01*
X128978888Y-84475967D01*
X129090426Y-84550494D01*
X129214360Y-84601829D01*
X129229796Y-84604899D01*
X129163094Y-84632528D01*
X129051556Y-84707055D01*
X128956701Y-84801910D01*
X128882174Y-84913448D01*
X128830839Y-85037382D01*
X128804668Y-85168949D01*
X128804668Y-85303095D01*
X128830839Y-85434662D01*
X128882174Y-85558596D01*
X128956701Y-85670134D01*
X129051556Y-85764989D01*
X129163094Y-85839516D01*
X129287028Y-85890851D01*
X129418595Y-85917022D01*
X129552741Y-85917022D01*
X129684308Y-85890851D01*
X129808242Y-85839516D01*
X129919780Y-85764989D01*
X129941130Y-85743639D01*
X129994888Y-85797397D01*
X130106426Y-85871924D01*
X130230360Y-85923259D01*
X130361927Y-85949430D01*
X130496073Y-85949430D01*
X130627640Y-85923259D01*
X130708401Y-85889807D01*
X130708400Y-88001840D01*
X130627724Y-87921164D01*
X130516186Y-87846637D01*
X130392252Y-87795302D01*
X130260685Y-87769131D01*
X130126539Y-87769131D01*
X129994972Y-87795302D01*
X129871038Y-87846637D01*
X129759500Y-87921164D01*
X129664645Y-88016019D01*
X129590118Y-88127557D01*
X129538783Y-88251491D01*
X129512612Y-88383058D01*
X129512612Y-88517204D01*
X129538783Y-88648771D01*
X129590118Y-88772705D01*
X129664645Y-88884243D01*
X129759500Y-88979098D01*
X129871038Y-89053625D01*
X129994972Y-89104960D01*
X130126539Y-89131131D01*
X130260685Y-89131131D01*
X130392252Y-89104960D01*
X130516186Y-89053625D01*
X130627724Y-88979098D01*
X130708400Y-88898422D01*
X130708400Y-89816521D01*
X130662033Y-89862888D01*
X130587506Y-89974426D01*
X130536171Y-90098360D01*
X130510000Y-90229927D01*
X130510000Y-90364073D01*
X130536171Y-90495640D01*
X130587506Y-90619574D01*
X130662033Y-90731112D01*
X130756888Y-90825967D01*
X130868426Y-90900494D01*
X130992360Y-90951829D01*
X131123927Y-90978000D01*
X131258073Y-90978000D01*
X131317992Y-90966081D01*
X131317992Y-91517876D01*
X131315656Y-91541591D01*
X131324975Y-91636197D01*
X131352569Y-91727167D01*
X131397383Y-91811006D01*
X131440673Y-91863755D01*
X131457691Y-91884492D01*
X131476104Y-91899603D01*
X133558000Y-93981500D01*
X133558000Y-94047073D01*
X133584171Y-94178640D01*
X133635506Y-94302574D01*
X133710033Y-94414112D01*
X133804888Y-94508967D01*
X133916426Y-94583494D01*
X134040360Y-94634829D01*
X134171927Y-94661000D01*
X134306073Y-94661000D01*
X134421097Y-94638120D01*
X134397506Y-94673426D01*
X134346171Y-94797360D01*
X134320000Y-94928927D01*
X134320000Y-95063073D01*
X134346171Y-95194640D01*
X134372519Y-95258249D01*
X134335405Y-95227791D01*
X134251567Y-95182978D01*
X134160596Y-95155383D01*
X134089697Y-95148400D01*
X134089695Y-95148400D01*
X134065990Y-95146065D01*
X134042285Y-95148400D01*
X130497550Y-95148400D01*
X130513228Y-95110549D01*
X130539399Y-94978982D01*
X130539399Y-94844836D01*
X130513228Y-94713269D01*
X130461893Y-94589335D01*
X130387366Y-94477797D01*
X130292511Y-94382942D01*
X130221658Y-94335600D01*
X130329521Y-94335600D01*
X130375888Y-94381967D01*
X130487426Y-94456494D01*
X130611360Y-94507829D01*
X130742927Y-94534000D01*
X130877073Y-94534000D01*
X131008640Y-94507829D01*
X131132574Y-94456494D01*
X131244112Y-94381967D01*
X131338967Y-94287112D01*
X131413494Y-94175574D01*
X131464829Y-94051640D01*
X131491000Y-93920073D01*
X131491000Y-93785927D01*
X131464829Y-93654360D01*
X131413494Y-93530426D01*
X131338967Y-93418888D01*
X131244112Y-93324033D01*
X131132574Y-93249506D01*
X131008640Y-93198171D01*
X130877073Y-93172000D01*
X130742927Y-93172000D01*
X130611360Y-93198171D01*
X130487426Y-93249506D01*
X130375888Y-93324033D01*
X130329521Y-93370400D01*
X130120900Y-93370400D01*
X123037600Y-86287101D01*
X123037600Y-85403931D01*
X125811000Y-85403931D01*
X125811000Y-85538077D01*
X125837171Y-85669644D01*
X125888506Y-85793578D01*
X125963033Y-85905116D01*
X126057888Y-85999971D01*
X126169426Y-86074498D01*
X126293360Y-86125833D01*
X126424927Y-86152004D01*
X126559073Y-86152004D01*
X126690640Y-86125833D01*
X126700160Y-86121889D01*
X126725033Y-86159114D01*
X126819888Y-86253969D01*
X126931426Y-86328496D01*
X127010348Y-86361186D01*
X126985519Y-86421128D01*
X126959348Y-86552695D01*
X126959348Y-86686841D01*
X126985519Y-86818408D01*
X127036854Y-86942342D01*
X127111381Y-87053880D01*
X127206236Y-87148735D01*
X127317774Y-87223262D01*
X127441708Y-87274597D01*
X127573275Y-87300768D01*
X127707421Y-87300768D01*
X127838988Y-87274597D01*
X127962922Y-87223262D01*
X128074460Y-87148735D01*
X128169315Y-87053880D01*
X128243842Y-86942342D01*
X128295177Y-86818408D01*
X128321348Y-86686841D01*
X128321348Y-86552695D01*
X128295177Y-86421128D01*
X128243842Y-86297194D01*
X128169315Y-86185656D01*
X128074460Y-86090801D01*
X127962922Y-86016274D01*
X127884000Y-85983584D01*
X127908829Y-85923642D01*
X127935000Y-85792075D01*
X127935000Y-85657929D01*
X127908829Y-85526362D01*
X127857494Y-85402428D01*
X127782967Y-85290890D01*
X127688112Y-85196035D01*
X127576574Y-85121508D01*
X127452640Y-85070173D01*
X127321073Y-85044002D01*
X127186927Y-85044002D01*
X127055360Y-85070173D01*
X127045840Y-85074117D01*
X127020967Y-85036892D01*
X126926112Y-84942037D01*
X126814574Y-84867510D01*
X126690640Y-84816175D01*
X126559073Y-84790004D01*
X126424927Y-84790004D01*
X126293360Y-84816175D01*
X126169426Y-84867510D01*
X126057888Y-84942037D01*
X125963033Y-85036892D01*
X125888506Y-85148430D01*
X125837171Y-85272364D01*
X125811000Y-85403931D01*
X123037600Y-85403931D01*
X123037600Y-84306227D01*
X123122927Y-84323200D01*
X123257073Y-84323200D01*
X123388640Y-84297029D01*
X123512574Y-84245694D01*
X123624112Y-84171167D01*
X123718967Y-84076312D01*
X123793494Y-83964774D01*
X123843717Y-83843524D01*
X123867141Y-83900075D01*
X123941668Y-84011613D01*
X124036523Y-84106468D01*
X124148061Y-84180995D01*
X124271995Y-84232330D01*
X124403562Y-84258501D01*
X124537708Y-84258501D01*
X124669275Y-84232330D01*
X124793209Y-84180995D01*
X124904747Y-84106468D01*
X124954666Y-84056549D01*
X124989505Y-84053118D01*
X125080476Y-84025523D01*
X125164314Y-83980710D01*
X125237800Y-83920402D01*
X125252916Y-83901983D01*
X125868300Y-83286600D01*
X128070101Y-83286600D01*
X128732000Y-83948500D01*
G37*
X128732000Y-83948500D02*
X128732000Y-84014073D01*
X128758171Y-84145640D01*
X128809506Y-84269574D01*
X128884033Y-84381112D01*
X128978888Y-84475967D01*
X129090426Y-84550494D01*
X129214360Y-84601829D01*
X129229796Y-84604899D01*
X129163094Y-84632528D01*
X129051556Y-84707055D01*
X128956701Y-84801910D01*
X128882174Y-84913448D01*
X128830839Y-85037382D01*
X128804668Y-85168949D01*
X128804668Y-85303095D01*
X128830839Y-85434662D01*
X128882174Y-85558596D01*
X128956701Y-85670134D01*
X129051556Y-85764989D01*
X129163094Y-85839516D01*
X129287028Y-85890851D01*
X129418595Y-85917022D01*
X129552741Y-85917022D01*
X129684308Y-85890851D01*
X129808242Y-85839516D01*
X129919780Y-85764989D01*
X129941130Y-85743639D01*
X129994888Y-85797397D01*
X130106426Y-85871924D01*
X130230360Y-85923259D01*
X130361927Y-85949430D01*
X130496073Y-85949430D01*
X130627640Y-85923259D01*
X130708401Y-85889807D01*
X130708400Y-88001840D01*
X130627724Y-87921164D01*
X130516186Y-87846637D01*
X130392252Y-87795302D01*
X130260685Y-87769131D01*
X130126539Y-87769131D01*
X129994972Y-87795302D01*
X129871038Y-87846637D01*
X129759500Y-87921164D01*
X129664645Y-88016019D01*
X129590118Y-88127557D01*
X129538783Y-88251491D01*
X129512612Y-88383058D01*
X129512612Y-88517204D01*
X129538783Y-88648771D01*
X129590118Y-88772705D01*
X129664645Y-88884243D01*
X129759500Y-88979098D01*
X129871038Y-89053625D01*
X129994972Y-89104960D01*
X130126539Y-89131131D01*
X130260685Y-89131131D01*
X130392252Y-89104960D01*
X130516186Y-89053625D01*
X130627724Y-88979098D01*
X130708400Y-88898422D01*
X130708400Y-89816521D01*
X130662033Y-89862888D01*
X130587506Y-89974426D01*
X130536171Y-90098360D01*
X130510000Y-90229927D01*
X130510000Y-90364073D01*
X130536171Y-90495640D01*
X130587506Y-90619574D01*
X130662033Y-90731112D01*
X130756888Y-90825967D01*
X130868426Y-90900494D01*
X130992360Y-90951829D01*
X131123927Y-90978000D01*
X131258073Y-90978000D01*
X131317992Y-90966081D01*
X131317992Y-91517876D01*
X131315656Y-91541591D01*
X131324975Y-91636197D01*
X131352569Y-91727167D01*
X131397383Y-91811006D01*
X131440673Y-91863755D01*
X131457691Y-91884492D01*
X131476104Y-91899603D01*
X133558000Y-93981500D01*
X133558000Y-94047073D01*
X133584171Y-94178640D01*
X133635506Y-94302574D01*
X133710033Y-94414112D01*
X133804888Y-94508967D01*
X133916426Y-94583494D01*
X134040360Y-94634829D01*
X134171927Y-94661000D01*
X134306073Y-94661000D01*
X134421097Y-94638120D01*
X134397506Y-94673426D01*
X134346171Y-94797360D01*
X134320000Y-94928927D01*
X134320000Y-95063073D01*
X134346171Y-95194640D01*
X134372519Y-95258249D01*
X134335405Y-95227791D01*
X134251567Y-95182978D01*
X134160596Y-95155383D01*
X134089697Y-95148400D01*
X134089695Y-95148400D01*
X134065990Y-95146065D01*
X134042285Y-95148400D01*
X130497550Y-95148400D01*
X130513228Y-95110549D01*
X130539399Y-94978982D01*
X130539399Y-94844836D01*
X130513228Y-94713269D01*
X130461893Y-94589335D01*
X130387366Y-94477797D01*
X130292511Y-94382942D01*
X130221658Y-94335600D01*
X130329521Y-94335600D01*
X130375888Y-94381967D01*
X130487426Y-94456494D01*
X130611360Y-94507829D01*
X130742927Y-94534000D01*
X130877073Y-94534000D01*
X131008640Y-94507829D01*
X131132574Y-94456494D01*
X131244112Y-94381967D01*
X131338967Y-94287112D01*
X131413494Y-94175574D01*
X131464829Y-94051640D01*
X131491000Y-93920073D01*
X131491000Y-93785927D01*
X131464829Y-93654360D01*
X131413494Y-93530426D01*
X131338967Y-93418888D01*
X131244112Y-93324033D01*
X131132574Y-93249506D01*
X131008640Y-93198171D01*
X130877073Y-93172000D01*
X130742927Y-93172000D01*
X130611360Y-93198171D01*
X130487426Y-93249506D01*
X130375888Y-93324033D01*
X130329521Y-93370400D01*
X130120900Y-93370400D01*
X123037600Y-86287101D01*
X123037600Y-85403931D01*
X125811000Y-85403931D01*
X125811000Y-85538077D01*
X125837171Y-85669644D01*
X125888506Y-85793578D01*
X125963033Y-85905116D01*
X126057888Y-85999971D01*
X126169426Y-86074498D01*
X126293360Y-86125833D01*
X126424927Y-86152004D01*
X126559073Y-86152004D01*
X126690640Y-86125833D01*
X126700160Y-86121889D01*
X126725033Y-86159114D01*
X126819888Y-86253969D01*
X126931426Y-86328496D01*
X127010348Y-86361186D01*
X126985519Y-86421128D01*
X126959348Y-86552695D01*
X126959348Y-86686841D01*
X126985519Y-86818408D01*
X127036854Y-86942342D01*
X127111381Y-87053880D01*
X127206236Y-87148735D01*
X127317774Y-87223262D01*
X127441708Y-87274597D01*
X127573275Y-87300768D01*
X127707421Y-87300768D01*
X127838988Y-87274597D01*
X127962922Y-87223262D01*
X128074460Y-87148735D01*
X128169315Y-87053880D01*
X128243842Y-86942342D01*
X128295177Y-86818408D01*
X128321348Y-86686841D01*
X128321348Y-86552695D01*
X128295177Y-86421128D01*
X128243842Y-86297194D01*
X128169315Y-86185656D01*
X128074460Y-86090801D01*
X127962922Y-86016274D01*
X127884000Y-85983584D01*
X127908829Y-85923642D01*
X127935000Y-85792075D01*
X127935000Y-85657929D01*
X127908829Y-85526362D01*
X127857494Y-85402428D01*
X127782967Y-85290890D01*
X127688112Y-85196035D01*
X127576574Y-85121508D01*
X127452640Y-85070173D01*
X127321073Y-85044002D01*
X127186927Y-85044002D01*
X127055360Y-85070173D01*
X127045840Y-85074117D01*
X127020967Y-85036892D01*
X126926112Y-84942037D01*
X126814574Y-84867510D01*
X126690640Y-84816175D01*
X126559073Y-84790004D01*
X126424927Y-84790004D01*
X126293360Y-84816175D01*
X126169426Y-84867510D01*
X126057888Y-84942037D01*
X125963033Y-85036892D01*
X125888506Y-85148430D01*
X125837171Y-85272364D01*
X125811000Y-85403931D01*
X123037600Y-85403931D01*
X123037600Y-84306227D01*
X123122927Y-84323200D01*
X123257073Y-84323200D01*
X123388640Y-84297029D01*
X123512574Y-84245694D01*
X123624112Y-84171167D01*
X123718967Y-84076312D01*
X123793494Y-83964774D01*
X123843717Y-83843524D01*
X123867141Y-83900075D01*
X123941668Y-84011613D01*
X124036523Y-84106468D01*
X124148061Y-84180995D01*
X124271995Y-84232330D01*
X124403562Y-84258501D01*
X124537708Y-84258501D01*
X124669275Y-84232330D01*
X124793209Y-84180995D01*
X124904747Y-84106468D01*
X124954666Y-84056549D01*
X124989505Y-84053118D01*
X125080476Y-84025523D01*
X125164314Y-83980710D01*
X125237800Y-83920402D01*
X125252916Y-83901983D01*
X125868300Y-83286600D01*
X128070101Y-83286600D01*
X128732000Y-83948500D01*
G36*
X134136210Y-82516741D02*
G01*
X134155032Y-82539677D01*
X134164045Y-82550659D01*
X134299413Y-82661753D01*
X134453853Y-82744303D01*
X134519762Y-82764296D01*
X134621428Y-82795136D01*
X134652680Y-82798214D01*
X134795704Y-82812301D01*
X134839371Y-82808000D01*
X140160340Y-82808000D01*
X140204000Y-82812300D01*
X140247660Y-82808000D01*
X140247667Y-82808000D01*
X140378274Y-82795136D01*
X140545851Y-82744303D01*
X140700291Y-82661753D01*
X140835659Y-82550659D01*
X140863499Y-82516736D01*
X140873000Y-82507235D01*
X140873000Y-83054127D01*
X140751256Y-83066923D01*
X140710767Y-83075234D01*
X140670175Y-83082977D01*
X140664081Y-83084817D01*
X140664075Y-83084819D01*
X140477642Y-83142530D01*
X140439552Y-83158541D01*
X140401222Y-83174027D01*
X140395604Y-83177015D01*
X140395599Y-83177017D01*
X140395595Y-83177020D01*
X140223923Y-83269842D01*
X140189651Y-83292958D01*
X140155075Y-83315584D01*
X140150150Y-83319601D01*
X140150142Y-83319607D01*
X140150135Y-83319614D01*
X139999763Y-83444013D01*
X139970637Y-83473343D01*
X139941113Y-83502254D01*
X139937059Y-83507155D01*
X139937053Y-83507161D01*
X139937049Y-83507168D01*
X139813704Y-83658403D01*
X139790819Y-83692847D01*
X139767483Y-83726928D01*
X139764459Y-83732521D01*
X139764454Y-83732529D01*
X139764451Y-83732537D01*
X139672830Y-83904851D01*
X139657087Y-83943046D01*
X139640799Y-83981049D01*
X139638916Y-83987131D01*
X139582507Y-84173968D01*
X139574483Y-84214493D01*
X139565886Y-84254936D01*
X139565221Y-84261268D01*
X139546176Y-84455502D01*
X139546176Y-84455517D01*
X139544001Y-84477601D01*
X139544001Y-85435929D01*
X139494006Y-85402524D01*
X139370072Y-85351189D01*
X139238505Y-85325018D01*
X139104359Y-85325018D01*
X138972792Y-85351189D01*
X138848858Y-85402524D01*
X138737320Y-85477051D01*
X138642465Y-85571906D01*
X138567938Y-85683444D01*
X138516603Y-85807378D01*
X138490432Y-85938945D01*
X138490432Y-86073091D01*
X138516603Y-86204658D01*
X138567938Y-86328592D01*
X138642465Y-86440130D01*
X138737320Y-86534985D01*
X138848858Y-86609512D01*
X138972792Y-86660847D01*
X139104359Y-86687018D01*
X139238505Y-86687018D01*
X139370072Y-86660847D01*
X139494006Y-86609512D01*
X139544001Y-86576107D01*
X139544001Y-91486990D01*
X139538665Y-91474108D01*
X139464138Y-91362570D01*
X139369283Y-91267715D01*
X139257745Y-91193188D01*
X139227340Y-91180594D01*
X139227340Y-91085456D01*
X139201169Y-90953889D01*
X139149834Y-90829955D01*
X139075307Y-90718417D01*
X138980452Y-90623562D01*
X138868914Y-90549035D01*
X138744980Y-90497700D01*
X138613413Y-90471529D01*
X138479267Y-90471529D01*
X138347700Y-90497700D01*
X138223766Y-90549035D01*
X138112228Y-90623562D01*
X138017373Y-90718417D01*
X137942846Y-90829955D01*
X137908838Y-90912058D01*
X137906075Y-90909791D01*
X137822237Y-90864978D01*
X137731266Y-90837383D01*
X137660367Y-90830400D01*
X137660365Y-90830400D01*
X137636660Y-90828065D01*
X137612955Y-90830400D01*
X136243479Y-90830400D01*
X136197112Y-90784033D01*
X136085574Y-90709506D01*
X135961640Y-90658171D01*
X135830073Y-90632000D01*
X135695927Y-90632000D01*
X135564360Y-90658171D01*
X135440426Y-90709506D01*
X135328888Y-90784033D01*
X135234033Y-90878888D01*
X135159506Y-90990426D01*
X135108171Y-91114360D01*
X135082000Y-91245927D01*
X135082000Y-91380073D01*
X135108171Y-91511640D01*
X135159353Y-91635205D01*
X133756433Y-90232285D01*
X133756433Y-88445445D01*
X133828863Y-88553845D01*
X133923718Y-88648700D01*
X134035256Y-88723227D01*
X134159190Y-88774562D01*
X134290757Y-88800733D01*
X134424903Y-88800733D01*
X134556470Y-88774562D01*
X134677305Y-88724511D01*
X134676373Y-88726760D01*
X134650202Y-88858327D01*
X134650202Y-88992473D01*
X134676373Y-89124040D01*
X134727708Y-89247974D01*
X134802235Y-89359512D01*
X134897090Y-89454367D01*
X135008628Y-89528894D01*
X135132562Y-89580229D01*
X135264129Y-89606400D01*
X135398275Y-89606400D01*
X135529842Y-89580229D01*
X135653776Y-89528894D01*
X135765314Y-89454367D01*
X135860169Y-89359512D01*
X135934696Y-89247974D01*
X135986031Y-89124040D01*
X136012202Y-88992473D01*
X136012202Y-88858327D01*
X135986031Y-88726760D01*
X135934696Y-88602826D01*
X135860169Y-88491288D01*
X135765314Y-88396433D01*
X135653776Y-88321906D01*
X135529842Y-88270571D01*
X135398275Y-88244400D01*
X135264129Y-88244400D01*
X135132562Y-88270571D01*
X135011727Y-88320622D01*
X135012659Y-88318373D01*
X135038830Y-88186806D01*
X135038830Y-88052660D01*
X135012659Y-87921093D01*
X134961324Y-87797159D01*
X134886797Y-87685621D01*
X134791942Y-87590766D01*
X134680404Y-87516239D01*
X134556470Y-87464904D01*
X134424903Y-87438733D01*
X134290757Y-87438733D01*
X134159190Y-87464904D01*
X134035256Y-87516239D01*
X133923718Y-87590766D01*
X133828863Y-87685621D01*
X133756433Y-87794021D01*
X133756433Y-85872709D01*
X133878426Y-85923240D01*
X134009993Y-85949411D01*
X134144139Y-85949411D01*
X134275706Y-85923240D01*
X134399640Y-85871905D01*
X134467444Y-85826600D01*
X134901521Y-85826600D01*
X134947888Y-85872967D01*
X135059426Y-85947494D01*
X135183360Y-85998829D01*
X135314927Y-86025000D01*
X135449073Y-86025000D01*
X135580640Y-85998829D01*
X135704574Y-85947494D01*
X135816112Y-85872967D01*
X135910967Y-85778112D01*
X135985494Y-85666574D01*
X136036829Y-85542640D01*
X136063000Y-85411073D01*
X136063000Y-85276927D01*
X136036829Y-85145360D01*
X135985494Y-85021426D01*
X135910967Y-84909888D01*
X135816112Y-84815033D01*
X135811354Y-84811854D01*
X135834776Y-84694109D01*
X135834776Y-84559963D01*
X135808605Y-84428396D01*
X135757270Y-84304462D01*
X135682743Y-84192924D01*
X135587888Y-84098069D01*
X135476350Y-84023542D01*
X135352416Y-83972207D01*
X135220849Y-83946036D01*
X135086703Y-83946036D01*
X134955136Y-83972207D01*
X134831202Y-84023542D01*
X134719664Y-84098069D01*
X134624809Y-84192924D01*
X134550282Y-84304462D01*
X134498947Y-84428396D01*
X134472776Y-84559963D01*
X134472776Y-84694109D01*
X134477290Y-84716801D01*
X134399640Y-84664917D01*
X134275706Y-84613582D01*
X134144139Y-84587411D01*
X134009993Y-84587411D01*
X133878426Y-84613582D01*
X133756433Y-84664113D01*
X133756433Y-82136965D01*
X134136210Y-82516741D01*
G37*
X134136210Y-82516741D02*
X134155032Y-82539677D01*
X134164045Y-82550659D01*
X134299413Y-82661753D01*
X134453853Y-82744303D01*
X134519762Y-82764296D01*
X134621428Y-82795136D01*
X134652680Y-82798214D01*
X134795704Y-82812301D01*
X134839371Y-82808000D01*
X140160340Y-82808000D01*
X140204000Y-82812300D01*
X140247660Y-82808000D01*
X140247667Y-82808000D01*
X140378274Y-82795136D01*
X140545851Y-82744303D01*
X140700291Y-82661753D01*
X140835659Y-82550659D01*
X140863499Y-82516736D01*
X140873000Y-82507235D01*
X140873000Y-83054127D01*
X140751256Y-83066923D01*
X140710767Y-83075234D01*
X140670175Y-83082977D01*
X140664081Y-83084817D01*
X140664075Y-83084819D01*
X140477642Y-83142530D01*
X140439552Y-83158541D01*
X140401222Y-83174027D01*
X140395604Y-83177015D01*
X140395599Y-83177017D01*
X140395595Y-83177020D01*
X140223923Y-83269842D01*
X140189651Y-83292958D01*
X140155075Y-83315584D01*
X140150150Y-83319601D01*
X140150142Y-83319607D01*
X140150135Y-83319614D01*
X139999763Y-83444013D01*
X139970637Y-83473343D01*
X139941113Y-83502254D01*
X139937059Y-83507155D01*
X139937053Y-83507161D01*
X139937049Y-83507168D01*
X139813704Y-83658403D01*
X139790819Y-83692847D01*
X139767483Y-83726928D01*
X139764459Y-83732521D01*
X139764454Y-83732529D01*
X139764451Y-83732537D01*
X139672830Y-83904851D01*
X139657087Y-83943046D01*
X139640799Y-83981049D01*
X139638916Y-83987131D01*
X139582507Y-84173968D01*
X139574483Y-84214493D01*
X139565886Y-84254936D01*
X139565221Y-84261268D01*
X139546176Y-84455502D01*
X139546176Y-84455517D01*
X139544001Y-84477601D01*
X139544001Y-85435929D01*
X139494006Y-85402524D01*
X139370072Y-85351189D01*
X139238505Y-85325018D01*
X139104359Y-85325018D01*
X138972792Y-85351189D01*
X138848858Y-85402524D01*
X138737320Y-85477051D01*
X138642465Y-85571906D01*
X138567938Y-85683444D01*
X138516603Y-85807378D01*
X138490432Y-85938945D01*
X138490432Y-86073091D01*
X138516603Y-86204658D01*
X138567938Y-86328592D01*
X138642465Y-86440130D01*
X138737320Y-86534985D01*
X138848858Y-86609512D01*
X138972792Y-86660847D01*
X139104359Y-86687018D01*
X139238505Y-86687018D01*
X139370072Y-86660847D01*
X139494006Y-86609512D01*
X139544001Y-86576107D01*
X139544001Y-91486990D01*
X139538665Y-91474108D01*
X139464138Y-91362570D01*
X139369283Y-91267715D01*
X139257745Y-91193188D01*
X139227340Y-91180594D01*
X139227340Y-91085456D01*
X139201169Y-90953889D01*
X139149834Y-90829955D01*
X139075307Y-90718417D01*
X138980452Y-90623562D01*
X138868914Y-90549035D01*
X138744980Y-90497700D01*
X138613413Y-90471529D01*
X138479267Y-90471529D01*
X138347700Y-90497700D01*
X138223766Y-90549035D01*
X138112228Y-90623562D01*
X138017373Y-90718417D01*
X137942846Y-90829955D01*
X137908838Y-90912058D01*
X137906075Y-90909791D01*
X137822237Y-90864978D01*
X137731266Y-90837383D01*
X137660367Y-90830400D01*
X137660365Y-90830400D01*
X137636660Y-90828065D01*
X137612955Y-90830400D01*
X136243479Y-90830400D01*
X136197112Y-90784033D01*
X136085574Y-90709506D01*
X135961640Y-90658171D01*
X135830073Y-90632000D01*
X135695927Y-90632000D01*
X135564360Y-90658171D01*
X135440426Y-90709506D01*
X135328888Y-90784033D01*
X135234033Y-90878888D01*
X135159506Y-90990426D01*
X135108171Y-91114360D01*
X135082000Y-91245927D01*
X135082000Y-91380073D01*
X135108171Y-91511640D01*
X135159353Y-91635205D01*
X133756433Y-90232285D01*
X133756433Y-88445445D01*
X133828863Y-88553845D01*
X133923718Y-88648700D01*
X134035256Y-88723227D01*
X134159190Y-88774562D01*
X134290757Y-88800733D01*
X134424903Y-88800733D01*
X134556470Y-88774562D01*
X134677305Y-88724511D01*
X134676373Y-88726760D01*
X134650202Y-88858327D01*
X134650202Y-88992473D01*
X134676373Y-89124040D01*
X134727708Y-89247974D01*
X134802235Y-89359512D01*
X134897090Y-89454367D01*
X135008628Y-89528894D01*
X135132562Y-89580229D01*
X135264129Y-89606400D01*
X135398275Y-89606400D01*
X135529842Y-89580229D01*
X135653776Y-89528894D01*
X135765314Y-89454367D01*
X135860169Y-89359512D01*
X135934696Y-89247974D01*
X135986031Y-89124040D01*
X136012202Y-88992473D01*
X136012202Y-88858327D01*
X135986031Y-88726760D01*
X135934696Y-88602826D01*
X135860169Y-88491288D01*
X135765314Y-88396433D01*
X135653776Y-88321906D01*
X135529842Y-88270571D01*
X135398275Y-88244400D01*
X135264129Y-88244400D01*
X135132562Y-88270571D01*
X135011727Y-88320622D01*
X135012659Y-88318373D01*
X135038830Y-88186806D01*
X135038830Y-88052660D01*
X135012659Y-87921093D01*
X134961324Y-87797159D01*
X134886797Y-87685621D01*
X134791942Y-87590766D01*
X134680404Y-87516239D01*
X134556470Y-87464904D01*
X134424903Y-87438733D01*
X134290757Y-87438733D01*
X134159190Y-87464904D01*
X134035256Y-87516239D01*
X133923718Y-87590766D01*
X133828863Y-87685621D01*
X133756433Y-87794021D01*
X133756433Y-85872709D01*
X133878426Y-85923240D01*
X134009993Y-85949411D01*
X134144139Y-85949411D01*
X134275706Y-85923240D01*
X134399640Y-85871905D01*
X134467444Y-85826600D01*
X134901521Y-85826600D01*
X134947888Y-85872967D01*
X135059426Y-85947494D01*
X135183360Y-85998829D01*
X135314927Y-86025000D01*
X135449073Y-86025000D01*
X135580640Y-85998829D01*
X135704574Y-85947494D01*
X135816112Y-85872967D01*
X135910967Y-85778112D01*
X135985494Y-85666574D01*
X136036829Y-85542640D01*
X136063000Y-85411073D01*
X136063000Y-85276927D01*
X136036829Y-85145360D01*
X135985494Y-85021426D01*
X135910967Y-84909888D01*
X135816112Y-84815033D01*
X135811354Y-84811854D01*
X135834776Y-84694109D01*
X135834776Y-84559963D01*
X135808605Y-84428396D01*
X135757270Y-84304462D01*
X135682743Y-84192924D01*
X135587888Y-84098069D01*
X135476350Y-84023542D01*
X135352416Y-83972207D01*
X135220849Y-83946036D01*
X135086703Y-83946036D01*
X134955136Y-83972207D01*
X134831202Y-84023542D01*
X134719664Y-84098069D01*
X134624809Y-84192924D01*
X134550282Y-84304462D01*
X134498947Y-84428396D01*
X134472776Y-84559963D01*
X134472776Y-84694109D01*
X134477290Y-84716801D01*
X134399640Y-84664917D01*
X134275706Y-84613582D01*
X134144139Y-84587411D01*
X134009993Y-84587411D01*
X133878426Y-84613582D01*
X133756433Y-84664113D01*
X133756433Y-82136965D01*
X134136210Y-82516741D01*
G36*
X127787401Y-76018901D02*
G01*
X127787401Y-76283361D01*
X127781829Y-76255350D01*
X127730494Y-76131416D01*
X127655967Y-76019878D01*
X127561112Y-75925023D01*
X127449574Y-75850496D01*
X127325640Y-75799161D01*
X127194073Y-75772990D01*
X127059927Y-75772990D01*
X126928360Y-75799161D01*
X126804426Y-75850496D01*
X126692888Y-75925023D01*
X126598033Y-76019878D01*
X126523506Y-76131416D01*
X126472171Y-76255350D01*
X126446000Y-76386917D01*
X126446000Y-76521063D01*
X126472171Y-76652630D01*
X126523506Y-76776564D01*
X126560451Y-76831857D01*
X126471035Y-76921273D01*
X126425113Y-76990001D01*
X126309640Y-76942171D01*
X126178073Y-76916000D01*
X126043927Y-76916000D01*
X125912360Y-76942171D01*
X125788426Y-76993506D01*
X125676888Y-77068033D01*
X125582033Y-77162888D01*
X125507506Y-77274426D01*
X125456171Y-77398360D01*
X125430000Y-77529927D01*
X125430000Y-77664073D01*
X125456171Y-77795640D01*
X125507506Y-77919574D01*
X125582033Y-78031112D01*
X125676888Y-78125967D01*
X125788426Y-78200494D01*
X125912360Y-78251829D01*
X126043927Y-78278000D01*
X126178073Y-78278000D01*
X126309640Y-78251829D01*
X126433574Y-78200494D01*
X126545112Y-78125967D01*
X126639967Y-78031112D01*
X126685889Y-77962384D01*
X126801362Y-78010214D01*
X126932929Y-78036385D01*
X127067075Y-78036385D01*
X127198642Y-78010214D01*
X127322576Y-77958879D01*
X127434114Y-77884352D01*
X127528969Y-77789497D01*
X127603496Y-77677959D01*
X127654831Y-77554025D01*
X127681002Y-77422458D01*
X127681002Y-77288312D01*
X127654831Y-77156745D01*
X127603496Y-77032811D01*
X127566551Y-76977518D01*
X127655967Y-76888102D01*
X127730494Y-76776564D01*
X127781829Y-76652630D01*
X127787401Y-76624619D01*
X127787400Y-79986295D01*
X127785065Y-80010000D01*
X127787400Y-80033705D01*
X127787400Y-80033706D01*
X127794383Y-80104605D01*
X127821978Y-80195576D01*
X127866791Y-80279415D01*
X127927099Y-80352901D01*
X127945518Y-80368017D01*
X130708401Y-83130901D01*
X130708401Y-84647053D01*
X130627640Y-84613601D01*
X130496073Y-84587430D01*
X130361927Y-84587430D01*
X130230360Y-84613601D01*
X130106426Y-84664936D01*
X129994888Y-84739463D01*
X129973538Y-84760813D01*
X129919780Y-84707055D01*
X129808242Y-84632528D01*
X129684308Y-84581193D01*
X129668872Y-84578123D01*
X129735574Y-84550494D01*
X129847112Y-84475967D01*
X129941967Y-84381112D01*
X130016494Y-84269574D01*
X130067829Y-84145640D01*
X130094000Y-84014073D01*
X130094000Y-83879927D01*
X130067829Y-83748360D01*
X130016494Y-83624426D01*
X129941967Y-83512888D01*
X129847112Y-83418033D01*
X129735574Y-83343506D01*
X129611640Y-83292171D01*
X129480073Y-83266000D01*
X129414500Y-83266000D01*
X128628017Y-82479518D01*
X128612901Y-82461099D01*
X128539415Y-82400791D01*
X128455577Y-82355978D01*
X128364606Y-82328383D01*
X128293707Y-82321400D01*
X128293705Y-82321400D01*
X128270000Y-82319065D01*
X128246295Y-82321400D01*
X125692107Y-82321400D01*
X125668400Y-82319065D01*
X125573793Y-82328383D01*
X125482823Y-82355978D01*
X125398985Y-82400791D01*
X125325499Y-82461099D01*
X125310387Y-82479513D01*
X124806807Y-82983093D01*
X124793209Y-82974007D01*
X124669275Y-82922672D01*
X124537708Y-82896501D01*
X124403562Y-82896501D01*
X124271995Y-82922672D01*
X124148061Y-82974007D01*
X124036523Y-83048534D01*
X123941668Y-83143389D01*
X123867141Y-83254927D01*
X123816918Y-83376177D01*
X123793494Y-83319626D01*
X123718967Y-83208088D01*
X123624112Y-83113233D01*
X123512574Y-83038706D01*
X123388640Y-82987371D01*
X123257073Y-82961200D01*
X123122927Y-82961200D01*
X123037600Y-82978173D01*
X123037600Y-81938704D01*
X123039935Y-81914999D01*
X123036182Y-81876901D01*
X123030617Y-81820394D01*
X123003022Y-81729423D01*
X122958209Y-81645585D01*
X122897901Y-81572099D01*
X122879482Y-81556983D01*
X121767600Y-80445101D01*
X121767600Y-74674575D01*
X121878326Y-74696600D01*
X122012472Y-74696600D01*
X122144039Y-74670429D01*
X122267973Y-74619094D01*
X122379511Y-74544567D01*
X122425878Y-74498200D01*
X126266701Y-74498200D01*
X127787401Y-76018901D01*
G37*
X127787401Y-76018901D02*
X127787401Y-76283361D01*
X127781829Y-76255350D01*
X127730494Y-76131416D01*
X127655967Y-76019878D01*
X127561112Y-75925023D01*
X127449574Y-75850496D01*
X127325640Y-75799161D01*
X127194073Y-75772990D01*
X127059927Y-75772990D01*
X126928360Y-75799161D01*
X126804426Y-75850496D01*
X126692888Y-75925023D01*
X126598033Y-76019878D01*
X126523506Y-76131416D01*
X126472171Y-76255350D01*
X126446000Y-76386917D01*
X126446000Y-76521063D01*
X126472171Y-76652630D01*
X126523506Y-76776564D01*
X126560451Y-76831857D01*
X126471035Y-76921273D01*
X126425113Y-76990001D01*
X126309640Y-76942171D01*
X126178073Y-76916000D01*
X126043927Y-76916000D01*
X125912360Y-76942171D01*
X125788426Y-76993506D01*
X125676888Y-77068033D01*
X125582033Y-77162888D01*
X125507506Y-77274426D01*
X125456171Y-77398360D01*
X125430000Y-77529927D01*
X125430000Y-77664073D01*
X125456171Y-77795640D01*
X125507506Y-77919574D01*
X125582033Y-78031112D01*
X125676888Y-78125967D01*
X125788426Y-78200494D01*
X125912360Y-78251829D01*
X126043927Y-78278000D01*
X126178073Y-78278000D01*
X126309640Y-78251829D01*
X126433574Y-78200494D01*
X126545112Y-78125967D01*
X126639967Y-78031112D01*
X126685889Y-77962384D01*
X126801362Y-78010214D01*
X126932929Y-78036385D01*
X127067075Y-78036385D01*
X127198642Y-78010214D01*
X127322576Y-77958879D01*
X127434114Y-77884352D01*
X127528969Y-77789497D01*
X127603496Y-77677959D01*
X127654831Y-77554025D01*
X127681002Y-77422458D01*
X127681002Y-77288312D01*
X127654831Y-77156745D01*
X127603496Y-77032811D01*
X127566551Y-76977518D01*
X127655967Y-76888102D01*
X127730494Y-76776564D01*
X127781829Y-76652630D01*
X127787401Y-76624619D01*
X127787400Y-79986295D01*
X127785065Y-80010000D01*
X127787400Y-80033705D01*
X127787400Y-80033706D01*
X127794383Y-80104605D01*
X127821978Y-80195576D01*
X127866791Y-80279415D01*
X127927099Y-80352901D01*
X127945518Y-80368017D01*
X130708401Y-83130901D01*
X130708401Y-84647053D01*
X130627640Y-84613601D01*
X130496073Y-84587430D01*
X130361927Y-84587430D01*
X130230360Y-84613601D01*
X130106426Y-84664936D01*
X129994888Y-84739463D01*
X129973538Y-84760813D01*
X129919780Y-84707055D01*
X129808242Y-84632528D01*
X129684308Y-84581193D01*
X129668872Y-84578123D01*
X129735574Y-84550494D01*
X129847112Y-84475967D01*
X129941967Y-84381112D01*
X130016494Y-84269574D01*
X130067829Y-84145640D01*
X130094000Y-84014073D01*
X130094000Y-83879927D01*
X130067829Y-83748360D01*
X130016494Y-83624426D01*
X129941967Y-83512888D01*
X129847112Y-83418033D01*
X129735574Y-83343506D01*
X129611640Y-83292171D01*
X129480073Y-83266000D01*
X129414500Y-83266000D01*
X128628017Y-82479518D01*
X128612901Y-82461099D01*
X128539415Y-82400791D01*
X128455577Y-82355978D01*
X128364606Y-82328383D01*
X128293707Y-82321400D01*
X128293705Y-82321400D01*
X128270000Y-82319065D01*
X128246295Y-82321400D01*
X125692107Y-82321400D01*
X125668400Y-82319065D01*
X125573793Y-82328383D01*
X125482823Y-82355978D01*
X125398985Y-82400791D01*
X125325499Y-82461099D01*
X125310387Y-82479513D01*
X124806807Y-82983093D01*
X124793209Y-82974007D01*
X124669275Y-82922672D01*
X124537708Y-82896501D01*
X124403562Y-82896501D01*
X124271995Y-82922672D01*
X124148061Y-82974007D01*
X124036523Y-83048534D01*
X123941668Y-83143389D01*
X123867141Y-83254927D01*
X123816918Y-83376177D01*
X123793494Y-83319626D01*
X123718967Y-83208088D01*
X123624112Y-83113233D01*
X123512574Y-83038706D01*
X123388640Y-82987371D01*
X123257073Y-82961200D01*
X123122927Y-82961200D01*
X123037600Y-82978173D01*
X123037600Y-81938704D01*
X123039935Y-81914999D01*
X123036182Y-81876901D01*
X123030617Y-81820394D01*
X123003022Y-81729423D01*
X122958209Y-81645585D01*
X122897901Y-81572099D01*
X122879482Y-81556983D01*
X121767600Y-80445101D01*
X121767600Y-74674575D01*
X121878326Y-74696600D01*
X122012472Y-74696600D01*
X122144039Y-74670429D01*
X122267973Y-74619094D01*
X122379511Y-74544567D01*
X122425878Y-74498200D01*
X126266701Y-74498200D01*
X127787401Y-76018901D01*
G36*
X140873000Y-70027500D02*
G01*
X140789888Y-70083033D01*
X140695033Y-70177888D01*
X140620506Y-70289426D01*
X140569171Y-70413360D01*
X140543000Y-70544927D01*
X140543000Y-70566000D01*
X140521933Y-70566000D01*
X140390366Y-70592171D01*
X140266432Y-70643506D01*
X140154894Y-70718033D01*
X140060039Y-70812888D01*
X139985512Y-70924426D01*
X139934177Y-71048360D01*
X139908006Y-71179927D01*
X139908006Y-71314073D01*
X139934177Y-71445640D01*
X139985512Y-71569574D01*
X140060039Y-71681112D01*
X140154894Y-71775967D01*
X140266432Y-71850494D01*
X140390366Y-71901829D01*
X140521933Y-71928000D01*
X140656079Y-71928000D01*
X140787646Y-71901829D01*
X140873000Y-71866474D01*
X140873000Y-72421817D01*
X140863967Y-72408298D01*
X140769112Y-72313443D01*
X140657574Y-72238916D01*
X140533640Y-72187581D01*
X140402073Y-72161410D01*
X140267927Y-72161410D01*
X140136360Y-72187581D01*
X140012426Y-72238916D01*
X139900888Y-72313443D01*
X139806033Y-72408298D01*
X139731506Y-72519836D01*
X139680171Y-72643770D01*
X139654000Y-72775337D01*
X139654000Y-72909483D01*
X139680171Y-73041050D01*
X139731506Y-73164984D01*
X139806033Y-73276522D01*
X139900888Y-73371377D01*
X140012426Y-73445904D01*
X140136360Y-73497239D01*
X140179334Y-73505787D01*
X140162000Y-73592927D01*
X140162000Y-73727073D01*
X140188171Y-73858640D01*
X140219804Y-73935008D01*
X140165888Y-73971033D01*
X140071033Y-74065888D01*
X139996506Y-74177426D01*
X139945171Y-74301360D01*
X139919000Y-74432927D01*
X139919000Y-74567073D01*
X139945171Y-74698640D01*
X139951471Y-74713849D01*
X139865888Y-74771033D01*
X139771033Y-74865888D01*
X139696506Y-74977426D01*
X139645171Y-75101360D01*
X139619000Y-75232927D01*
X139619000Y-75367073D01*
X139645171Y-75498640D01*
X139696506Y-75622574D01*
X139771033Y-75734112D01*
X139865888Y-75828967D01*
X139977426Y-75903494D01*
X140101360Y-75954829D01*
X140232927Y-75981000D01*
X140367073Y-75981000D01*
X140498640Y-75954829D01*
X140506512Y-75951568D01*
X137629493Y-78828588D01*
X137581619Y-78848418D01*
X137470081Y-78922945D01*
X137375226Y-79017800D01*
X137300699Y-79129338D01*
X137249364Y-79253272D01*
X137223193Y-79384839D01*
X137223193Y-79518985D01*
X137249364Y-79650552D01*
X137300699Y-79774486D01*
X137375226Y-79886024D01*
X137470081Y-79980879D01*
X137537509Y-80025933D01*
X137521171Y-80065376D01*
X137495000Y-80196943D01*
X137495000Y-80331089D01*
X137521171Y-80462656D01*
X137572506Y-80586590D01*
X137647033Y-80698128D01*
X137741888Y-80792983D01*
X137853426Y-80867510D01*
X137977360Y-80918845D01*
X138108927Y-80945016D01*
X138243073Y-80945016D01*
X138374640Y-80918845D01*
X138498574Y-80867510D01*
X138610112Y-80792983D01*
X138704967Y-80698128D01*
X138779494Y-80586590D01*
X138799324Y-80538716D01*
X139698892Y-79639148D01*
X139680165Y-79684360D01*
X139653994Y-79815927D01*
X139653994Y-79950073D01*
X139680165Y-80081640D01*
X139731500Y-80205574D01*
X139806027Y-80317112D01*
X139900882Y-80411967D01*
X140012420Y-80486494D01*
X140136354Y-80537829D01*
X140267921Y-80564000D01*
X140301765Y-80564000D01*
X139835765Y-81030000D01*
X135170035Y-81030000D01*
X134989140Y-80849105D01*
X134955149Y-80821209D01*
X133985000Y-79851061D01*
X133985000Y-72115167D01*
X134120900Y-72115167D01*
X134120900Y-72249313D01*
X134147071Y-72380880D01*
X134198406Y-72504814D01*
X134272933Y-72616352D01*
X134342571Y-72685990D01*
X134328736Y-72719390D01*
X134302565Y-72850957D01*
X134302565Y-72985103D01*
X134328736Y-73116670D01*
X134380071Y-73240604D01*
X134454598Y-73352142D01*
X134549453Y-73446997D01*
X134660991Y-73521524D01*
X134715579Y-73544135D01*
X134646888Y-73590033D01*
X134552033Y-73684888D01*
X134477506Y-73796426D01*
X134426171Y-73920360D01*
X134400000Y-74051927D01*
X134400000Y-74186073D01*
X134426171Y-74317640D01*
X134477506Y-74441574D01*
X134484652Y-74452269D01*
X134452033Y-74484888D01*
X134377506Y-74596426D01*
X134326171Y-74720360D01*
X134300000Y-74851927D01*
X134300000Y-74986073D01*
X134326171Y-75117640D01*
X134377506Y-75241574D01*
X134429240Y-75319000D01*
X134377506Y-75396426D01*
X134326171Y-75520360D01*
X134300000Y-75651927D01*
X134300000Y-75786073D01*
X134326171Y-75917640D01*
X134377506Y-76041574D01*
X134452033Y-76153112D01*
X134546888Y-76247967D01*
X134658426Y-76322494D01*
X134666972Y-76326034D01*
X134662029Y-76327017D01*
X134538095Y-76378352D01*
X134426557Y-76452879D01*
X134331702Y-76547734D01*
X134257175Y-76659272D01*
X134205840Y-76783206D01*
X134179669Y-76914773D01*
X134179669Y-77048919D01*
X134205840Y-77180486D01*
X134257175Y-77304420D01*
X134304568Y-77375350D01*
X134263335Y-77437060D01*
X134212000Y-77560994D01*
X134185829Y-77692561D01*
X134185829Y-77826707D01*
X134212000Y-77958274D01*
X134263335Y-78082208D01*
X134318950Y-78165443D01*
X134286146Y-78214538D01*
X134234811Y-78338472D01*
X134208640Y-78470039D01*
X134208640Y-78604185D01*
X134234811Y-78735752D01*
X134286146Y-78859686D01*
X134360673Y-78971224D01*
X134455528Y-79066079D01*
X134567066Y-79140606D01*
X134691000Y-79191941D01*
X134822567Y-79218112D01*
X134956713Y-79218112D01*
X135088280Y-79191941D01*
X135212214Y-79140606D01*
X135323752Y-79066079D01*
X135418607Y-78971224D01*
X135493134Y-78859686D01*
X135544469Y-78735752D01*
X135570640Y-78604185D01*
X135570640Y-78470039D01*
X135544469Y-78338472D01*
X135493134Y-78214538D01*
X135437519Y-78131303D01*
X135470323Y-78082208D01*
X135521658Y-77958274D01*
X135547829Y-77826707D01*
X135547829Y-77692561D01*
X135521658Y-77560994D01*
X135470323Y-77437060D01*
X135422930Y-77366130D01*
X135464163Y-77304420D01*
X135515498Y-77180486D01*
X135541669Y-77048919D01*
X135541669Y-76914773D01*
X135515498Y-76783206D01*
X135464163Y-76659272D01*
X135389636Y-76547734D01*
X135294781Y-76452879D01*
X135183243Y-76378352D01*
X135174697Y-76374812D01*
X135179640Y-76373829D01*
X135303574Y-76322494D01*
X135415112Y-76247967D01*
X135509967Y-76153112D01*
X135584494Y-76041574D01*
X135635829Y-75917640D01*
X135662000Y-75786073D01*
X135662000Y-75651927D01*
X135635829Y-75520360D01*
X135584494Y-75396426D01*
X135532760Y-75319000D01*
X135584494Y-75241574D01*
X135635829Y-75117640D01*
X135662000Y-74986073D01*
X135662000Y-74851927D01*
X135635829Y-74720360D01*
X135584494Y-74596426D01*
X135577348Y-74585731D01*
X135609967Y-74553112D01*
X135684494Y-74441574D01*
X135735829Y-74317640D01*
X135762000Y-74186073D01*
X135762000Y-74051927D01*
X135735829Y-73920360D01*
X135684494Y-73796426D01*
X135609967Y-73684888D01*
X135515112Y-73590033D01*
X135403574Y-73515506D01*
X135348986Y-73492895D01*
X135417677Y-73446997D01*
X135512532Y-73352142D01*
X135587059Y-73240604D01*
X135638394Y-73116670D01*
X135664565Y-72985103D01*
X135664565Y-72850957D01*
X135638394Y-72719390D01*
X135587059Y-72595456D01*
X135512532Y-72483918D01*
X135442894Y-72414280D01*
X135456729Y-72380880D01*
X135482900Y-72249313D01*
X135482900Y-72115167D01*
X135456729Y-71983600D01*
X135405394Y-71859666D01*
X135390688Y-71837657D01*
X135463188Y-71729152D01*
X135514523Y-71605218D01*
X135540694Y-71473651D01*
X135540694Y-71339505D01*
X135514523Y-71207938D01*
X135495481Y-71161967D01*
X135572526Y-71084922D01*
X135647053Y-70973384D01*
X135698388Y-70849450D01*
X135724559Y-70717883D01*
X135724559Y-70583737D01*
X135698388Y-70452170D01*
X135647053Y-70328236D01*
X135572526Y-70216698D01*
X135477671Y-70121843D01*
X135366133Y-70047316D01*
X135242199Y-69995981D01*
X135110632Y-69969810D01*
X134976486Y-69969810D01*
X134844919Y-69995981D01*
X134720985Y-70047316D01*
X134609447Y-70121843D01*
X134514592Y-70216698D01*
X134440065Y-70328236D01*
X134388730Y-70452170D01*
X134362559Y-70583737D01*
X134362559Y-70717883D01*
X134388730Y-70849450D01*
X134407772Y-70895421D01*
X134330727Y-70972466D01*
X134256200Y-71084004D01*
X134204865Y-71207938D01*
X134178694Y-71339505D01*
X134178694Y-71473651D01*
X134204865Y-71605218D01*
X134256200Y-71729152D01*
X134270906Y-71751161D01*
X134198406Y-71859666D01*
X134147071Y-71983600D01*
X134120900Y-72115167D01*
X133985000Y-72115167D01*
X133985000Y-69583235D01*
X134822295Y-68745941D01*
X134905552Y-68644492D01*
X134988102Y-68490053D01*
X135038936Y-68322475D01*
X135056100Y-68148200D01*
X135038936Y-67973925D01*
X134988102Y-67806348D01*
X134905552Y-67651909D01*
X134794459Y-67516541D01*
X134659091Y-67405448D01*
X134504652Y-67322898D01*
X134337075Y-67272064D01*
X134162800Y-67254900D01*
X133988525Y-67272064D01*
X133820947Y-67322898D01*
X133666508Y-67405448D01*
X133565059Y-67488705D01*
X132907877Y-68145888D01*
X132498265Y-68555500D01*
X132464341Y-68583341D01*
X132353247Y-68718710D01*
X132270697Y-68873150D01*
X132244048Y-68961001D01*
X132219864Y-69040726D01*
X132219739Y-69042000D01*
X132207000Y-69171334D01*
X132207000Y-69171340D01*
X132202700Y-69215000D01*
X132207000Y-69258660D01*
X132207000Y-73108839D01*
X130729887Y-71631727D01*
X130729887Y-71566153D01*
X130703716Y-71434586D01*
X130652381Y-71310652D01*
X130577854Y-71199114D01*
X130482999Y-71104259D01*
X130443383Y-71077788D01*
X130448829Y-71064640D01*
X130475000Y-70933073D01*
X130475000Y-70798927D01*
X130448829Y-70667360D01*
X130397494Y-70543426D01*
X130322967Y-70431888D01*
X130262386Y-70371307D01*
X130370574Y-70326494D01*
X130482112Y-70251967D01*
X130576967Y-70157112D01*
X130651494Y-70045574D01*
X130702829Y-69921640D01*
X130729000Y-69790073D01*
X130729000Y-69655927D01*
X130702829Y-69524360D01*
X130651494Y-69400426D01*
X130576967Y-69288888D01*
X130482112Y-69194033D01*
X130370574Y-69119506D01*
X130246640Y-69068171D01*
X130225524Y-69063971D01*
X130243574Y-69056494D01*
X130355112Y-68981967D01*
X130449967Y-68887112D01*
X130524494Y-68775574D01*
X130575829Y-68651640D01*
X130602000Y-68520073D01*
X130602000Y-68385927D01*
X130575829Y-68254360D01*
X130524494Y-68130426D01*
X130449967Y-68018888D01*
X130355112Y-67924033D01*
X130243574Y-67849506D01*
X130119640Y-67798171D01*
X129988073Y-67772000D01*
X129853927Y-67772000D01*
X129722360Y-67798171D01*
X129598426Y-67849506D01*
X129486888Y-67924033D01*
X129392033Y-68018888D01*
X129317506Y-68130426D01*
X129266171Y-68254360D01*
X129240000Y-68385927D01*
X129240000Y-68520073D01*
X129266171Y-68651640D01*
X129317506Y-68775574D01*
X129392033Y-68887112D01*
X129486888Y-68981967D01*
X129598426Y-69056494D01*
X129722360Y-69107829D01*
X129743476Y-69112029D01*
X129725426Y-69119506D01*
X129613888Y-69194033D01*
X129519033Y-69288888D01*
X129444506Y-69400426D01*
X129393171Y-69524360D01*
X129367000Y-69655927D01*
X129367000Y-69790073D01*
X129393171Y-69921640D01*
X129444506Y-70045574D01*
X129519033Y-70157112D01*
X129579614Y-70217693D01*
X129471426Y-70262506D01*
X129359888Y-70337033D01*
X129265033Y-70431888D01*
X129190506Y-70543426D01*
X129139171Y-70667360D01*
X129113000Y-70798927D01*
X129113000Y-70933073D01*
X129139171Y-71064640D01*
X129190506Y-71188574D01*
X129265033Y-71300112D01*
X129359888Y-71394967D01*
X129399504Y-71421438D01*
X129394058Y-71434586D01*
X129367887Y-71566153D01*
X129367887Y-71700299D01*
X129394058Y-71831866D01*
X129445393Y-71955800D01*
X129519920Y-72067338D01*
X129527254Y-72074672D01*
X129519033Y-72082892D01*
X129444506Y-72194430D01*
X129393171Y-72318364D01*
X129367000Y-72449931D01*
X129367000Y-72584077D01*
X129367440Y-72586289D01*
X127893074Y-72586289D01*
X127889884Y-72570250D01*
X127838549Y-72446316D01*
X127764022Y-72334778D01*
X127669167Y-72239923D01*
X127557629Y-72165396D01*
X127433695Y-72114061D01*
X127302128Y-72087890D01*
X127167982Y-72087890D01*
X127036415Y-72114061D01*
X126912481Y-72165396D01*
X126800943Y-72239923D01*
X126706088Y-72334778D01*
X126631561Y-72446316D01*
X126593600Y-72537962D01*
X126593600Y-69084699D01*
X128063500Y-67614800D01*
X132107095Y-67614800D01*
X132130800Y-67617135D01*
X132154505Y-67614800D01*
X132154507Y-67614800D01*
X132225406Y-67607817D01*
X132316377Y-67580222D01*
X132400215Y-67535409D01*
X132473701Y-67475101D01*
X132488817Y-67456682D01*
X133340532Y-66604968D01*
X139028457Y-66604968D01*
X139272998Y-66849510D01*
X139272998Y-66915083D01*
X139299169Y-67046650D01*
X139350504Y-67170584D01*
X139425031Y-67282122D01*
X139519886Y-67376977D01*
X139631424Y-67451504D01*
X139755358Y-67502839D01*
X139886925Y-67529010D01*
X140021071Y-67529010D01*
X140152638Y-67502839D01*
X140276572Y-67451504D01*
X140388110Y-67376977D01*
X140482965Y-67282122D01*
X140557492Y-67170584D01*
X140608827Y-67046650D01*
X140634998Y-66915083D01*
X140634998Y-66780937D01*
X140608827Y-66649370D01*
X140557492Y-66525436D01*
X140482965Y-66413898D01*
X140388110Y-66319043D01*
X140276572Y-66244516D01*
X140152638Y-66193181D01*
X140021071Y-66167010D01*
X139955498Y-66167010D01*
X139586373Y-65797886D01*
X139571257Y-65779467D01*
X139497771Y-65719159D01*
X139413933Y-65674346D01*
X139322962Y-65646751D01*
X139252063Y-65639768D01*
X139252061Y-65639768D01*
X139228356Y-65637433D01*
X139204651Y-65639768D01*
X137787562Y-65639768D01*
X139698730Y-63728600D01*
X140873000Y-63728600D01*
X140873000Y-70027500D01*
G37*
X140873000Y-70027500D02*
X140789888Y-70083033D01*
X140695033Y-70177888D01*
X140620506Y-70289426D01*
X140569171Y-70413360D01*
X140543000Y-70544927D01*
X140543000Y-70566000D01*
X140521933Y-70566000D01*
X140390366Y-70592171D01*
X140266432Y-70643506D01*
X140154894Y-70718033D01*
X140060039Y-70812888D01*
X139985512Y-70924426D01*
X139934177Y-71048360D01*
X139908006Y-71179927D01*
X139908006Y-71314073D01*
X139934177Y-71445640D01*
X139985512Y-71569574D01*
X140060039Y-71681112D01*
X140154894Y-71775967D01*
X140266432Y-71850494D01*
X140390366Y-71901829D01*
X140521933Y-71928000D01*
X140656079Y-71928000D01*
X140787646Y-71901829D01*
X140873000Y-71866474D01*
X140873000Y-72421817D01*
X140863967Y-72408298D01*
X140769112Y-72313443D01*
X140657574Y-72238916D01*
X140533640Y-72187581D01*
X140402073Y-72161410D01*
X140267927Y-72161410D01*
X140136360Y-72187581D01*
X140012426Y-72238916D01*
X139900888Y-72313443D01*
X139806033Y-72408298D01*
X139731506Y-72519836D01*
X139680171Y-72643770D01*
X139654000Y-72775337D01*
X139654000Y-72909483D01*
X139680171Y-73041050D01*
X139731506Y-73164984D01*
X139806033Y-73276522D01*
X139900888Y-73371377D01*
X140012426Y-73445904D01*
X140136360Y-73497239D01*
X140179334Y-73505787D01*
X140162000Y-73592927D01*
X140162000Y-73727073D01*
X140188171Y-73858640D01*
X140219804Y-73935008D01*
X140165888Y-73971033D01*
X140071033Y-74065888D01*
X139996506Y-74177426D01*
X139945171Y-74301360D01*
X139919000Y-74432927D01*
X139919000Y-74567073D01*
X139945171Y-74698640D01*
X139951471Y-74713849D01*
X139865888Y-74771033D01*
X139771033Y-74865888D01*
X139696506Y-74977426D01*
X139645171Y-75101360D01*
X139619000Y-75232927D01*
X139619000Y-75367073D01*
X139645171Y-75498640D01*
X139696506Y-75622574D01*
X139771033Y-75734112D01*
X139865888Y-75828967D01*
X139977426Y-75903494D01*
X140101360Y-75954829D01*
X140232927Y-75981000D01*
X140367073Y-75981000D01*
X140498640Y-75954829D01*
X140506512Y-75951568D01*
X137629493Y-78828588D01*
X137581619Y-78848418D01*
X137470081Y-78922945D01*
X137375226Y-79017800D01*
X137300699Y-79129338D01*
X137249364Y-79253272D01*
X137223193Y-79384839D01*
X137223193Y-79518985D01*
X137249364Y-79650552D01*
X137300699Y-79774486D01*
X137375226Y-79886024D01*
X137470081Y-79980879D01*
X137537509Y-80025933D01*
X137521171Y-80065376D01*
X137495000Y-80196943D01*
X137495000Y-80331089D01*
X137521171Y-80462656D01*
X137572506Y-80586590D01*
X137647033Y-80698128D01*
X137741888Y-80792983D01*
X137853426Y-80867510D01*
X137977360Y-80918845D01*
X138108927Y-80945016D01*
X138243073Y-80945016D01*
X138374640Y-80918845D01*
X138498574Y-80867510D01*
X138610112Y-80792983D01*
X138704967Y-80698128D01*
X138779494Y-80586590D01*
X138799324Y-80538716D01*
X139698892Y-79639148D01*
X139680165Y-79684360D01*
X139653994Y-79815927D01*
X139653994Y-79950073D01*
X139680165Y-80081640D01*
X139731500Y-80205574D01*
X139806027Y-80317112D01*
X139900882Y-80411967D01*
X140012420Y-80486494D01*
X140136354Y-80537829D01*
X140267921Y-80564000D01*
X140301765Y-80564000D01*
X139835765Y-81030000D01*
X135170035Y-81030000D01*
X134989140Y-80849105D01*
X134955149Y-80821209D01*
X133985000Y-79851061D01*
X133985000Y-72115167D01*
X134120900Y-72115167D01*
X134120900Y-72249313D01*
X134147071Y-72380880D01*
X134198406Y-72504814D01*
X134272933Y-72616352D01*
X134342571Y-72685990D01*
X134328736Y-72719390D01*
X134302565Y-72850957D01*
X134302565Y-72985103D01*
X134328736Y-73116670D01*
X134380071Y-73240604D01*
X134454598Y-73352142D01*
X134549453Y-73446997D01*
X134660991Y-73521524D01*
X134715579Y-73544135D01*
X134646888Y-73590033D01*
X134552033Y-73684888D01*
X134477506Y-73796426D01*
X134426171Y-73920360D01*
X134400000Y-74051927D01*
X134400000Y-74186073D01*
X134426171Y-74317640D01*
X134477506Y-74441574D01*
X134484652Y-74452269D01*
X134452033Y-74484888D01*
X134377506Y-74596426D01*
X134326171Y-74720360D01*
X134300000Y-74851927D01*
X134300000Y-74986073D01*
X134326171Y-75117640D01*
X134377506Y-75241574D01*
X134429240Y-75319000D01*
X134377506Y-75396426D01*
X134326171Y-75520360D01*
X134300000Y-75651927D01*
X134300000Y-75786073D01*
X134326171Y-75917640D01*
X134377506Y-76041574D01*
X134452033Y-76153112D01*
X134546888Y-76247967D01*
X134658426Y-76322494D01*
X134666972Y-76326034D01*
X134662029Y-76327017D01*
X134538095Y-76378352D01*
X134426557Y-76452879D01*
X134331702Y-76547734D01*
X134257175Y-76659272D01*
X134205840Y-76783206D01*
X134179669Y-76914773D01*
X134179669Y-77048919D01*
X134205840Y-77180486D01*
X134257175Y-77304420D01*
X134304568Y-77375350D01*
X134263335Y-77437060D01*
X134212000Y-77560994D01*
X134185829Y-77692561D01*
X134185829Y-77826707D01*
X134212000Y-77958274D01*
X134263335Y-78082208D01*
X134318950Y-78165443D01*
X134286146Y-78214538D01*
X134234811Y-78338472D01*
X134208640Y-78470039D01*
X134208640Y-78604185D01*
X134234811Y-78735752D01*
X134286146Y-78859686D01*
X134360673Y-78971224D01*
X134455528Y-79066079D01*
X134567066Y-79140606D01*
X134691000Y-79191941D01*
X134822567Y-79218112D01*
X134956713Y-79218112D01*
X135088280Y-79191941D01*
X135212214Y-79140606D01*
X135323752Y-79066079D01*
X135418607Y-78971224D01*
X135493134Y-78859686D01*
X135544469Y-78735752D01*
X135570640Y-78604185D01*
X135570640Y-78470039D01*
X135544469Y-78338472D01*
X135493134Y-78214538D01*
X135437519Y-78131303D01*
X135470323Y-78082208D01*
X135521658Y-77958274D01*
X135547829Y-77826707D01*
X135547829Y-77692561D01*
X135521658Y-77560994D01*
X135470323Y-77437060D01*
X135422930Y-77366130D01*
X135464163Y-77304420D01*
X135515498Y-77180486D01*
X135541669Y-77048919D01*
X135541669Y-76914773D01*
X135515498Y-76783206D01*
X135464163Y-76659272D01*
X135389636Y-76547734D01*
X135294781Y-76452879D01*
X135183243Y-76378352D01*
X135174697Y-76374812D01*
X135179640Y-76373829D01*
X135303574Y-76322494D01*
X135415112Y-76247967D01*
X135509967Y-76153112D01*
X135584494Y-76041574D01*
X135635829Y-75917640D01*
X135662000Y-75786073D01*
X135662000Y-75651927D01*
X135635829Y-75520360D01*
X135584494Y-75396426D01*
X135532760Y-75319000D01*
X135584494Y-75241574D01*
X135635829Y-75117640D01*
X135662000Y-74986073D01*
X135662000Y-74851927D01*
X135635829Y-74720360D01*
X135584494Y-74596426D01*
X135577348Y-74585731D01*
X135609967Y-74553112D01*
X135684494Y-74441574D01*
X135735829Y-74317640D01*
X135762000Y-74186073D01*
X135762000Y-74051927D01*
X135735829Y-73920360D01*
X135684494Y-73796426D01*
X135609967Y-73684888D01*
X135515112Y-73590033D01*
X135403574Y-73515506D01*
X135348986Y-73492895D01*
X135417677Y-73446997D01*
X135512532Y-73352142D01*
X135587059Y-73240604D01*
X135638394Y-73116670D01*
X135664565Y-72985103D01*
X135664565Y-72850957D01*
X135638394Y-72719390D01*
X135587059Y-72595456D01*
X135512532Y-72483918D01*
X135442894Y-72414280D01*
X135456729Y-72380880D01*
X135482900Y-72249313D01*
X135482900Y-72115167D01*
X135456729Y-71983600D01*
X135405394Y-71859666D01*
X135390688Y-71837657D01*
X135463188Y-71729152D01*
X135514523Y-71605218D01*
X135540694Y-71473651D01*
X135540694Y-71339505D01*
X135514523Y-71207938D01*
X135495481Y-71161967D01*
X135572526Y-71084922D01*
X135647053Y-70973384D01*
X135698388Y-70849450D01*
X135724559Y-70717883D01*
X135724559Y-70583737D01*
X135698388Y-70452170D01*
X135647053Y-70328236D01*
X135572526Y-70216698D01*
X135477671Y-70121843D01*
X135366133Y-70047316D01*
X135242199Y-69995981D01*
X135110632Y-69969810D01*
X134976486Y-69969810D01*
X134844919Y-69995981D01*
X134720985Y-70047316D01*
X134609447Y-70121843D01*
X134514592Y-70216698D01*
X134440065Y-70328236D01*
X134388730Y-70452170D01*
X134362559Y-70583737D01*
X134362559Y-70717883D01*
X134388730Y-70849450D01*
X134407772Y-70895421D01*
X134330727Y-70972466D01*
X134256200Y-71084004D01*
X134204865Y-71207938D01*
X134178694Y-71339505D01*
X134178694Y-71473651D01*
X134204865Y-71605218D01*
X134256200Y-71729152D01*
X134270906Y-71751161D01*
X134198406Y-71859666D01*
X134147071Y-71983600D01*
X134120900Y-72115167D01*
X133985000Y-72115167D01*
X133985000Y-69583235D01*
X134822295Y-68745941D01*
X134905552Y-68644492D01*
X134988102Y-68490053D01*
X135038936Y-68322475D01*
X135056100Y-68148200D01*
X135038936Y-67973925D01*
X134988102Y-67806348D01*
X134905552Y-67651909D01*
X134794459Y-67516541D01*
X134659091Y-67405448D01*
X134504652Y-67322898D01*
X134337075Y-67272064D01*
X134162800Y-67254900D01*
X133988525Y-67272064D01*
X133820947Y-67322898D01*
X133666508Y-67405448D01*
X133565059Y-67488705D01*
X132907877Y-68145888D01*
X132498265Y-68555500D01*
X132464341Y-68583341D01*
X132353247Y-68718710D01*
X132270697Y-68873150D01*
X132244048Y-68961001D01*
X132219864Y-69040726D01*
X132219739Y-69042000D01*
X132207000Y-69171334D01*
X132207000Y-69171340D01*
X132202700Y-69215000D01*
X132207000Y-69258660D01*
X132207000Y-73108839D01*
X130729887Y-71631727D01*
X130729887Y-71566153D01*
X130703716Y-71434586D01*
X130652381Y-71310652D01*
X130577854Y-71199114D01*
X130482999Y-71104259D01*
X130443383Y-71077788D01*
X130448829Y-71064640D01*
X130475000Y-70933073D01*
X130475000Y-70798927D01*
X130448829Y-70667360D01*
X130397494Y-70543426D01*
X130322967Y-70431888D01*
X130262386Y-70371307D01*
X130370574Y-70326494D01*
X130482112Y-70251967D01*
X130576967Y-70157112D01*
X130651494Y-70045574D01*
X130702829Y-69921640D01*
X130729000Y-69790073D01*
X130729000Y-69655927D01*
X130702829Y-69524360D01*
X130651494Y-69400426D01*
X130576967Y-69288888D01*
X130482112Y-69194033D01*
X130370574Y-69119506D01*
X130246640Y-69068171D01*
X130225524Y-69063971D01*
X130243574Y-69056494D01*
X130355112Y-68981967D01*
X130449967Y-68887112D01*
X130524494Y-68775574D01*
X130575829Y-68651640D01*
X130602000Y-68520073D01*
X130602000Y-68385927D01*
X130575829Y-68254360D01*
X130524494Y-68130426D01*
X130449967Y-68018888D01*
X130355112Y-67924033D01*
X130243574Y-67849506D01*
X130119640Y-67798171D01*
X129988073Y-67772000D01*
X129853927Y-67772000D01*
X129722360Y-67798171D01*
X129598426Y-67849506D01*
X129486888Y-67924033D01*
X129392033Y-68018888D01*
X129317506Y-68130426D01*
X129266171Y-68254360D01*
X129240000Y-68385927D01*
X129240000Y-68520073D01*
X129266171Y-68651640D01*
X129317506Y-68775574D01*
X129392033Y-68887112D01*
X129486888Y-68981967D01*
X129598426Y-69056494D01*
X129722360Y-69107829D01*
X129743476Y-69112029D01*
X129725426Y-69119506D01*
X129613888Y-69194033D01*
X129519033Y-69288888D01*
X129444506Y-69400426D01*
X129393171Y-69524360D01*
X129367000Y-69655927D01*
X129367000Y-69790073D01*
X129393171Y-69921640D01*
X129444506Y-70045574D01*
X129519033Y-70157112D01*
X129579614Y-70217693D01*
X129471426Y-70262506D01*
X129359888Y-70337033D01*
X129265033Y-70431888D01*
X129190506Y-70543426D01*
X129139171Y-70667360D01*
X129113000Y-70798927D01*
X129113000Y-70933073D01*
X129139171Y-71064640D01*
X129190506Y-71188574D01*
X129265033Y-71300112D01*
X129359888Y-71394967D01*
X129399504Y-71421438D01*
X129394058Y-71434586D01*
X129367887Y-71566153D01*
X129367887Y-71700299D01*
X129394058Y-71831866D01*
X129445393Y-71955800D01*
X129519920Y-72067338D01*
X129527254Y-72074672D01*
X129519033Y-72082892D01*
X129444506Y-72194430D01*
X129393171Y-72318364D01*
X129367000Y-72449931D01*
X129367000Y-72584077D01*
X129367440Y-72586289D01*
X127893074Y-72586289D01*
X127889884Y-72570250D01*
X127838549Y-72446316D01*
X127764022Y-72334778D01*
X127669167Y-72239923D01*
X127557629Y-72165396D01*
X127433695Y-72114061D01*
X127302128Y-72087890D01*
X127167982Y-72087890D01*
X127036415Y-72114061D01*
X126912481Y-72165396D01*
X126800943Y-72239923D01*
X126706088Y-72334778D01*
X126631561Y-72446316D01*
X126593600Y-72537962D01*
X126593600Y-69084699D01*
X128063500Y-67614800D01*
X132107095Y-67614800D01*
X132130800Y-67617135D01*
X132154505Y-67614800D01*
X132154507Y-67614800D01*
X132225406Y-67607817D01*
X132316377Y-67580222D01*
X132400215Y-67535409D01*
X132473701Y-67475101D01*
X132488817Y-67456682D01*
X133340532Y-66604968D01*
X139028457Y-66604968D01*
X139272998Y-66849510D01*
X139272998Y-66915083D01*
X139299169Y-67046650D01*
X139350504Y-67170584D01*
X139425031Y-67282122D01*
X139519886Y-67376977D01*
X139631424Y-67451504D01*
X139755358Y-67502839D01*
X139886925Y-67529010D01*
X140021071Y-67529010D01*
X140152638Y-67502839D01*
X140276572Y-67451504D01*
X140388110Y-67376977D01*
X140482965Y-67282122D01*
X140557492Y-67170584D01*
X140608827Y-67046650D01*
X140634998Y-66915083D01*
X140634998Y-66780937D01*
X140608827Y-66649370D01*
X140557492Y-66525436D01*
X140482965Y-66413898D01*
X140388110Y-66319043D01*
X140276572Y-66244516D01*
X140152638Y-66193181D01*
X140021071Y-66167010D01*
X139955498Y-66167010D01*
X139586373Y-65797886D01*
X139571257Y-65779467D01*
X139497771Y-65719159D01*
X139413933Y-65674346D01*
X139322962Y-65646751D01*
X139252063Y-65639768D01*
X139252061Y-65639768D01*
X139228356Y-65637433D01*
X139204651Y-65639768D01*
X137787562Y-65639768D01*
X139698730Y-63728600D01*
X140873000Y-63728600D01*
X140873000Y-70027500D01*
G36*
X125662978Y-68699224D02*
G01*
X125635383Y-68790195D01*
X125628400Y-68861093D01*
X125626065Y-68884800D01*
X125628400Y-68908505D01*
X125628401Y-72874285D01*
X125626065Y-72898000D01*
X125635384Y-72992606D01*
X125662978Y-73083576D01*
X125707792Y-73167415D01*
X125747925Y-73216317D01*
X125768100Y-73240901D01*
X125786513Y-73256012D01*
X126063501Y-73533000D01*
X122425878Y-73533000D01*
X122379511Y-73486633D01*
X122267973Y-73412106D01*
X122144039Y-73360771D01*
X122012472Y-73334600D01*
X121878326Y-73334600D01*
X121767600Y-73356625D01*
X121767600Y-73150342D01*
X121898127Y-73189936D01*
X122072400Y-73207101D01*
X122246674Y-73189936D01*
X122414251Y-73139103D01*
X122568691Y-73056553D01*
X122704059Y-72945459D01*
X122815153Y-72810091D01*
X122897703Y-72655651D01*
X122948536Y-72488074D01*
X122961400Y-72357467D01*
X122961400Y-71379934D01*
X125686940Y-68654394D01*
X125662978Y-68699224D01*
G37*
X125662978Y-68699224D02*
X125635383Y-68790195D01*
X125628400Y-68861093D01*
X125626065Y-68884800D01*
X125628400Y-68908505D01*
X125628401Y-72874285D01*
X125626065Y-72898000D01*
X125635384Y-72992606D01*
X125662978Y-73083576D01*
X125707792Y-73167415D01*
X125747925Y-73216317D01*
X125768100Y-73240901D01*
X125786513Y-73256012D01*
X126063501Y-73533000D01*
X122425878Y-73533000D01*
X122379511Y-73486633D01*
X122267973Y-73412106D01*
X122144039Y-73360771D01*
X122012472Y-73334600D01*
X121878326Y-73334600D01*
X121767600Y-73356625D01*
X121767600Y-73150342D01*
X121898127Y-73189936D01*
X122072400Y-73207101D01*
X122246674Y-73189936D01*
X122414251Y-73139103D01*
X122568691Y-73056553D01*
X122704059Y-72945459D01*
X122815153Y-72810091D01*
X122897703Y-72655651D01*
X122948536Y-72488074D01*
X122961400Y-72357467D01*
X122961400Y-71379934D01*
X125686940Y-68654394D01*
X125662978Y-68699224D01*
G36*
X140873000Y-61366400D02*
G01*
X136751479Y-61366400D01*
X136705112Y-61320033D01*
X136593574Y-61245506D01*
X136469640Y-61194171D01*
X136338073Y-61168000D01*
X136203927Y-61168000D01*
X136072360Y-61194171D01*
X135948426Y-61245506D01*
X135836888Y-61320033D01*
X135742033Y-61414888D01*
X135667506Y-61526426D01*
X135616171Y-61650360D01*
X135590000Y-61781927D01*
X135590000Y-61916073D01*
X135616171Y-62047640D01*
X135667506Y-62171574D01*
X135720406Y-62250745D01*
X135694426Y-62261506D01*
X135582888Y-62336033D01*
X135488033Y-62430888D01*
X135413506Y-62542426D01*
X135362171Y-62666360D01*
X135336000Y-62797927D01*
X135336000Y-62932073D01*
X135362171Y-63063640D01*
X135413506Y-63187574D01*
X135488033Y-63299112D01*
X135582888Y-63393967D01*
X135694426Y-63468494D01*
X135818360Y-63519829D01*
X135949927Y-63546000D01*
X136084073Y-63546000D01*
X136215640Y-63519829D01*
X136339574Y-63468494D01*
X136451112Y-63393967D01*
X136545967Y-63299112D01*
X136620494Y-63187574D01*
X136671829Y-63063640D01*
X136691132Y-62966600D01*
X138592822Y-62966600D01*
X136972022Y-64587401D01*
X132184703Y-64587401D01*
X132160998Y-64585066D01*
X132137293Y-64587401D01*
X132137292Y-64587401D01*
X132066393Y-64594384D01*
X131975422Y-64621979D01*
X131891584Y-64666792D01*
X131818098Y-64727100D01*
X131802982Y-64745519D01*
X131697501Y-64851000D01*
X131631927Y-64851000D01*
X131500360Y-64877171D01*
X131376426Y-64928506D01*
X131264888Y-65003033D01*
X131170033Y-65097888D01*
X131095506Y-65209426D01*
X131044171Y-65333360D01*
X131018000Y-65464927D01*
X131018000Y-65599073D01*
X131044171Y-65730640D01*
X131095506Y-65854574D01*
X131170033Y-65966112D01*
X131264888Y-66060967D01*
X131376426Y-66135494D01*
X131500360Y-66186829D01*
X131631927Y-66213000D01*
X131673537Y-66213000D01*
X131706788Y-66293275D01*
X131781315Y-66404813D01*
X131876170Y-66499668D01*
X131987708Y-66574195D01*
X132000859Y-66579642D01*
X131930901Y-66649600D01*
X127887307Y-66649600D01*
X127863600Y-66647265D01*
X127768993Y-66656583D01*
X127678023Y-66684178D01*
X127633195Y-66708139D01*
X131559396Y-62781939D01*
X131728429Y-62765291D01*
X131896007Y-62714457D01*
X132050446Y-62631907D01*
X132151895Y-62548650D01*
X132169736Y-62530809D01*
X132203659Y-62502969D01*
X132314753Y-62367601D01*
X132397303Y-62213161D01*
X132448136Y-62045584D01*
X132461000Y-61914977D01*
X132461000Y-61914970D01*
X132465300Y-61871310D01*
X132461000Y-61827650D01*
X132461000Y-61170333D01*
X132448136Y-61039726D01*
X132397303Y-60872149D01*
X132362801Y-60807600D01*
X132691295Y-60807600D01*
X132715000Y-60809935D01*
X132738705Y-60807600D01*
X132738707Y-60807600D01*
X132809606Y-60800617D01*
X132900577Y-60773022D01*
X132984415Y-60728209D01*
X133057901Y-60667901D01*
X133073017Y-60649482D01*
X133859500Y-59863000D01*
X133925073Y-59863000D01*
X134056640Y-59836829D01*
X134180574Y-59785494D01*
X134292112Y-59710967D01*
X134386967Y-59616112D01*
X134461494Y-59504574D01*
X134512829Y-59380640D01*
X134539000Y-59249073D01*
X134539000Y-59180484D01*
X134657541Y-59216443D01*
X134849740Y-59235373D01*
X135041940Y-59216443D01*
X135226753Y-59160380D01*
X135397078Y-59069340D01*
X135546370Y-58946820D01*
X135668890Y-58797528D01*
X135759930Y-58627203D01*
X135815993Y-58442389D01*
X135830180Y-58298346D01*
X135830180Y-57701654D01*
X135870820Y-57701654D01*
X135870820Y-58298347D01*
X135885007Y-58442390D01*
X135941070Y-58627203D01*
X136032111Y-58797528D01*
X136154631Y-58946820D01*
X136303923Y-59069340D01*
X136474248Y-59160380D01*
X136659061Y-59216443D01*
X136851260Y-59235373D01*
X137043460Y-59216443D01*
X137228273Y-59160380D01*
X137398598Y-59069340D01*
X137547890Y-58946820D01*
X137670410Y-58797528D01*
X137761450Y-58627203D01*
X137817513Y-58442389D01*
X137831700Y-58298346D01*
X137831700Y-57701653D01*
X137817513Y-57557610D01*
X137761450Y-57372797D01*
X137670410Y-57202472D01*
X137547890Y-57053180D01*
X137398598Y-56930660D01*
X137228272Y-56839620D01*
X137043459Y-56783557D01*
X136851260Y-56764627D01*
X136659060Y-56783557D01*
X136474247Y-56839620D01*
X136303922Y-56930660D01*
X136154630Y-57053180D01*
X136032110Y-57202472D01*
X135941070Y-57372798D01*
X135885007Y-57557611D01*
X135870820Y-57701654D01*
X135830180Y-57701654D01*
X135830180Y-57701653D01*
X135815993Y-57557610D01*
X135759930Y-57372797D01*
X135668890Y-57202472D01*
X135546370Y-57053180D01*
X135397078Y-56930660D01*
X135226752Y-56839620D01*
X135041939Y-56783557D01*
X134849740Y-56764627D01*
X134657540Y-56783557D01*
X134472727Y-56839620D01*
X134302402Y-56930660D01*
X134153110Y-57053180D01*
X134030590Y-57202472D01*
X133939550Y-57372798D01*
X133883487Y-57557611D01*
X133869300Y-57701654D01*
X133869300Y-58298347D01*
X133883487Y-58442390D01*
X133901266Y-58501000D01*
X133796693Y-58501000D01*
X133814473Y-58442389D01*
X133828660Y-58298346D01*
X133828660Y-57701653D01*
X133814473Y-57557610D01*
X133758410Y-57372797D01*
X133667370Y-57202472D01*
X133544850Y-57053180D01*
X133395558Y-56930660D01*
X133225232Y-56839620D01*
X133040419Y-56783557D01*
X132848220Y-56764627D01*
X132656020Y-56783557D01*
X132488334Y-56834425D01*
X131717427Y-56063518D01*
X131702311Y-56045099D01*
X131628825Y-55984791D01*
X131544987Y-55939978D01*
X131454016Y-55912383D01*
X131383117Y-55905400D01*
X131383115Y-55905400D01*
X131359410Y-55903065D01*
X131335705Y-55905400D01*
X125829479Y-55905400D01*
X125783112Y-55859033D01*
X125671574Y-55784506D01*
X125547640Y-55733171D01*
X125416073Y-55707000D01*
X125281927Y-55707000D01*
X125150360Y-55733171D01*
X125026426Y-55784506D01*
X124914888Y-55859033D01*
X124868521Y-55905400D01*
X123950138Y-55905400D01*
X123971829Y-55853034D01*
X123998000Y-55721467D01*
X123998000Y-55587321D01*
X123971878Y-55456000D01*
X140873000Y-55456000D01*
X140873000Y-61366400D01*
G37*
X140873000Y-61366400D02*
X136751479Y-61366400D01*
X136705112Y-61320033D01*
X136593574Y-61245506D01*
X136469640Y-61194171D01*
X136338073Y-61168000D01*
X136203927Y-61168000D01*
X136072360Y-61194171D01*
X135948426Y-61245506D01*
X135836888Y-61320033D01*
X135742033Y-61414888D01*
X135667506Y-61526426D01*
X135616171Y-61650360D01*
X135590000Y-61781927D01*
X135590000Y-61916073D01*
X135616171Y-62047640D01*
X135667506Y-62171574D01*
X135720406Y-62250745D01*
X135694426Y-62261506D01*
X135582888Y-62336033D01*
X135488033Y-62430888D01*
X135413506Y-62542426D01*
X135362171Y-62666360D01*
X135336000Y-62797927D01*
X135336000Y-62932073D01*
X135362171Y-63063640D01*
X135413506Y-63187574D01*
X135488033Y-63299112D01*
X135582888Y-63393967D01*
X135694426Y-63468494D01*
X135818360Y-63519829D01*
X135949927Y-63546000D01*
X136084073Y-63546000D01*
X136215640Y-63519829D01*
X136339574Y-63468494D01*
X136451112Y-63393967D01*
X136545967Y-63299112D01*
X136620494Y-63187574D01*
X136671829Y-63063640D01*
X136691132Y-62966600D01*
X138592822Y-62966600D01*
X136972022Y-64587401D01*
X132184703Y-64587401D01*
X132160998Y-64585066D01*
X132137293Y-64587401D01*
X132137292Y-64587401D01*
X132066393Y-64594384D01*
X131975422Y-64621979D01*
X131891584Y-64666792D01*
X131818098Y-64727100D01*
X131802982Y-64745519D01*
X131697501Y-64851000D01*
X131631927Y-64851000D01*
X131500360Y-64877171D01*
X131376426Y-64928506D01*
X131264888Y-65003033D01*
X131170033Y-65097888D01*
X131095506Y-65209426D01*
X131044171Y-65333360D01*
X131018000Y-65464927D01*
X131018000Y-65599073D01*
X131044171Y-65730640D01*
X131095506Y-65854574D01*
X131170033Y-65966112D01*
X131264888Y-66060967D01*
X131376426Y-66135494D01*
X131500360Y-66186829D01*
X131631927Y-66213000D01*
X131673537Y-66213000D01*
X131706788Y-66293275D01*
X131781315Y-66404813D01*
X131876170Y-66499668D01*
X131987708Y-66574195D01*
X132000859Y-66579642D01*
X131930901Y-66649600D01*
X127887307Y-66649600D01*
X127863600Y-66647265D01*
X127768993Y-66656583D01*
X127678023Y-66684178D01*
X127633195Y-66708139D01*
X131559396Y-62781939D01*
X131728429Y-62765291D01*
X131896007Y-62714457D01*
X132050446Y-62631907D01*
X132151895Y-62548650D01*
X132169736Y-62530809D01*
X132203659Y-62502969D01*
X132314753Y-62367601D01*
X132397303Y-62213161D01*
X132448136Y-62045584D01*
X132461000Y-61914977D01*
X132461000Y-61914970D01*
X132465300Y-61871310D01*
X132461000Y-61827650D01*
X132461000Y-61170333D01*
X132448136Y-61039726D01*
X132397303Y-60872149D01*
X132362801Y-60807600D01*
X132691295Y-60807600D01*
X132715000Y-60809935D01*
X132738705Y-60807600D01*
X132738707Y-60807600D01*
X132809606Y-60800617D01*
X132900577Y-60773022D01*
X132984415Y-60728209D01*
X133057901Y-60667901D01*
X133073017Y-60649482D01*
X133859500Y-59863000D01*
X133925073Y-59863000D01*
X134056640Y-59836829D01*
X134180574Y-59785494D01*
X134292112Y-59710967D01*
X134386967Y-59616112D01*
X134461494Y-59504574D01*
X134512829Y-59380640D01*
X134539000Y-59249073D01*
X134539000Y-59180484D01*
X134657541Y-59216443D01*
X134849740Y-59235373D01*
X135041940Y-59216443D01*
X135226753Y-59160380D01*
X135397078Y-59069340D01*
X135546370Y-58946820D01*
X135668890Y-58797528D01*
X135759930Y-58627203D01*
X135815993Y-58442389D01*
X135830180Y-58298346D01*
X135830180Y-57701654D01*
X135870820Y-57701654D01*
X135870820Y-58298347D01*
X135885007Y-58442390D01*
X135941070Y-58627203D01*
X136032111Y-58797528D01*
X136154631Y-58946820D01*
X136303923Y-59069340D01*
X136474248Y-59160380D01*
X136659061Y-59216443D01*
X136851260Y-59235373D01*
X137043460Y-59216443D01*
X137228273Y-59160380D01*
X137398598Y-59069340D01*
X137547890Y-58946820D01*
X137670410Y-58797528D01*
X137761450Y-58627203D01*
X137817513Y-58442389D01*
X137831700Y-58298346D01*
X137831700Y-57701653D01*
X137817513Y-57557610D01*
X137761450Y-57372797D01*
X137670410Y-57202472D01*
X137547890Y-57053180D01*
X137398598Y-56930660D01*
X137228272Y-56839620D01*
X137043459Y-56783557D01*
X136851260Y-56764627D01*
X136659060Y-56783557D01*
X136474247Y-56839620D01*
X136303922Y-56930660D01*
X136154630Y-57053180D01*
X136032110Y-57202472D01*
X135941070Y-57372798D01*
X135885007Y-57557611D01*
X135870820Y-57701654D01*
X135830180Y-57701654D01*
X135830180Y-57701653D01*
X135815993Y-57557610D01*
X135759930Y-57372797D01*
X135668890Y-57202472D01*
X135546370Y-57053180D01*
X135397078Y-56930660D01*
X135226752Y-56839620D01*
X135041939Y-56783557D01*
X134849740Y-56764627D01*
X134657540Y-56783557D01*
X134472727Y-56839620D01*
X134302402Y-56930660D01*
X134153110Y-57053180D01*
X134030590Y-57202472D01*
X133939550Y-57372798D01*
X133883487Y-57557611D01*
X133869300Y-57701654D01*
X133869300Y-58298347D01*
X133883487Y-58442390D01*
X133901266Y-58501000D01*
X133796693Y-58501000D01*
X133814473Y-58442389D01*
X133828660Y-58298346D01*
X133828660Y-57701653D01*
X133814473Y-57557610D01*
X133758410Y-57372797D01*
X133667370Y-57202472D01*
X133544850Y-57053180D01*
X133395558Y-56930660D01*
X133225232Y-56839620D01*
X133040419Y-56783557D01*
X132848220Y-56764627D01*
X132656020Y-56783557D01*
X132488334Y-56834425D01*
X131717427Y-56063518D01*
X131702311Y-56045099D01*
X131628825Y-55984791D01*
X131544987Y-55939978D01*
X131454016Y-55912383D01*
X131383117Y-55905400D01*
X131383115Y-55905400D01*
X131359410Y-55903065D01*
X131335705Y-55905400D01*
X125829479Y-55905400D01*
X125783112Y-55859033D01*
X125671574Y-55784506D01*
X125547640Y-55733171D01*
X125416073Y-55707000D01*
X125281927Y-55707000D01*
X125150360Y-55733171D01*
X125026426Y-55784506D01*
X124914888Y-55859033D01*
X124868521Y-55905400D01*
X123950138Y-55905400D01*
X123971829Y-55853034D01*
X123998000Y-55721467D01*
X123998000Y-55587321D01*
X123971878Y-55456000D01*
X140873000Y-55456000D01*
X140873000Y-61366400D01*
G36*
X124914888Y-56916967D02*
G01*
X125026426Y-56991494D01*
X125150360Y-57042829D01*
X125281927Y-57069000D01*
X125416073Y-57069000D01*
X125547640Y-57042829D01*
X125671574Y-56991494D01*
X125783112Y-56916967D01*
X125829479Y-56870600D01*
X126069701Y-56870600D01*
X126062423Y-56874490D01*
X126012143Y-56915753D01*
X125970880Y-56966033D01*
X125940219Y-57023396D01*
X125921337Y-57085639D01*
X125914962Y-57150370D01*
X125916560Y-57892050D01*
X125999110Y-57974600D01*
X126820800Y-57974600D01*
X126820800Y-57954600D01*
X126871600Y-57954600D01*
X126871600Y-57974600D01*
X127693290Y-57974600D01*
X127775840Y-57892050D01*
X127777438Y-57150370D01*
X127771063Y-57085639D01*
X127752181Y-57023396D01*
X127721520Y-56966033D01*
X127680257Y-56915753D01*
X127629977Y-56874490D01*
X127622699Y-56870600D01*
X128412747Y-56870600D01*
X128300382Y-56930660D01*
X128151090Y-57053180D01*
X128028570Y-57202472D01*
X127937530Y-57372798D01*
X127881467Y-57557611D01*
X127867280Y-57701654D01*
X127867280Y-58298347D01*
X127881467Y-58442390D01*
X127937530Y-58627203D01*
X128028571Y-58797528D01*
X128151091Y-58946820D01*
X128159109Y-58953400D01*
X127759220Y-58953400D01*
X127771063Y-58914361D01*
X127777438Y-58849630D01*
X127775840Y-58107950D01*
X127693290Y-58025400D01*
X126871600Y-58025400D01*
X126871600Y-58045400D01*
X126820800Y-58045400D01*
X126820800Y-58025400D01*
X125999110Y-58025400D01*
X125916560Y-58107950D01*
X125916466Y-58151383D01*
X125910112Y-58145029D01*
X125798574Y-58070502D01*
X125674640Y-58019167D01*
X125543073Y-57992996D01*
X125408927Y-57992996D01*
X125277360Y-58019167D01*
X125153426Y-58070502D01*
X125041888Y-58145029D01*
X124947033Y-58239884D01*
X124872506Y-58351422D01*
X124821171Y-58475356D01*
X124795000Y-58606923D01*
X124795000Y-58741069D01*
X124821171Y-58872636D01*
X124872506Y-58996570D01*
X124947033Y-59108108D01*
X125041888Y-59202963D01*
X125153426Y-59277490D01*
X125277360Y-59328825D01*
X125408927Y-59354996D01*
X125474501Y-59354996D01*
X125879987Y-59760482D01*
X125895103Y-59778901D01*
X125968589Y-59839209D01*
X126052427Y-59884022D01*
X126143398Y-59911617D01*
X126214297Y-59918600D01*
X126214306Y-59918600D01*
X126238003Y-59920934D01*
X126261700Y-59918600D01*
X127950392Y-59918600D01*
X127851846Y-59984446D01*
X127756991Y-60079301D01*
X127682464Y-60190839D01*
X127631129Y-60314773D01*
X127604958Y-60446340D01*
X127604958Y-60511913D01*
X126877472Y-61239400D01*
X122227288Y-61239400D01*
X122203581Y-61237065D01*
X122108974Y-61246383D01*
X122018004Y-61273978D01*
X121934166Y-61318791D01*
X121860680Y-61379099D01*
X121845569Y-61397512D01*
X121178610Y-62064472D01*
X121178610Y-60076822D01*
X121239268Y-60137480D01*
X121375374Y-60228423D01*
X121526606Y-60291065D01*
X121687154Y-60323000D01*
X121850846Y-60323000D01*
X122011394Y-60291065D01*
X122162626Y-60228423D01*
X122298732Y-60137480D01*
X122414480Y-60021732D01*
X122505423Y-59885626D01*
X122568065Y-59734394D01*
X122600000Y-59573846D01*
X122600000Y-59410154D01*
X122568065Y-59249606D01*
X122505423Y-59098374D01*
X122414480Y-58962268D01*
X122298732Y-58846520D01*
X122162626Y-58755577D01*
X122011394Y-58692935D01*
X121850846Y-58661000D01*
X121726499Y-58661000D01*
X123516900Y-56870600D01*
X124868521Y-56870600D01*
X124914888Y-56916967D01*
G37*
X124914888Y-56916967D02*
X125026426Y-56991494D01*
X125150360Y-57042829D01*
X125281927Y-57069000D01*
X125416073Y-57069000D01*
X125547640Y-57042829D01*
X125671574Y-56991494D01*
X125783112Y-56916967D01*
X125829479Y-56870600D01*
X126069701Y-56870600D01*
X126062423Y-56874490D01*
X126012143Y-56915753D01*
X125970880Y-56966033D01*
X125940219Y-57023396D01*
X125921337Y-57085639D01*
X125914962Y-57150370D01*
X125916560Y-57892050D01*
X125999110Y-57974600D01*
X126820800Y-57974600D01*
X126820800Y-57954600D01*
X126871600Y-57954600D01*
X126871600Y-57974600D01*
X127693290Y-57974600D01*
X127775840Y-57892050D01*
X127777438Y-57150370D01*
X127771063Y-57085639D01*
X127752181Y-57023396D01*
X127721520Y-56966033D01*
X127680257Y-56915753D01*
X127629977Y-56874490D01*
X127622699Y-56870600D01*
X128412747Y-56870600D01*
X128300382Y-56930660D01*
X128151090Y-57053180D01*
X128028570Y-57202472D01*
X127937530Y-57372798D01*
X127881467Y-57557611D01*
X127867280Y-57701654D01*
X127867280Y-58298347D01*
X127881467Y-58442390D01*
X127937530Y-58627203D01*
X128028571Y-58797528D01*
X128151091Y-58946820D01*
X128159109Y-58953400D01*
X127759220Y-58953400D01*
X127771063Y-58914361D01*
X127777438Y-58849630D01*
X127775840Y-58107950D01*
X127693290Y-58025400D01*
X126871600Y-58025400D01*
X126871600Y-58045400D01*
X126820800Y-58045400D01*
X126820800Y-58025400D01*
X125999110Y-58025400D01*
X125916560Y-58107950D01*
X125916466Y-58151383D01*
X125910112Y-58145029D01*
X125798574Y-58070502D01*
X125674640Y-58019167D01*
X125543073Y-57992996D01*
X125408927Y-57992996D01*
X125277360Y-58019167D01*
X125153426Y-58070502D01*
X125041888Y-58145029D01*
X124947033Y-58239884D01*
X124872506Y-58351422D01*
X124821171Y-58475356D01*
X124795000Y-58606923D01*
X124795000Y-58741069D01*
X124821171Y-58872636D01*
X124872506Y-58996570D01*
X124947033Y-59108108D01*
X125041888Y-59202963D01*
X125153426Y-59277490D01*
X125277360Y-59328825D01*
X125408927Y-59354996D01*
X125474501Y-59354996D01*
X125879987Y-59760482D01*
X125895103Y-59778901D01*
X125968589Y-59839209D01*
X126052427Y-59884022D01*
X126143398Y-59911617D01*
X126214297Y-59918600D01*
X126214306Y-59918600D01*
X126238003Y-59920934D01*
X126261700Y-59918600D01*
X127950392Y-59918600D01*
X127851846Y-59984446D01*
X127756991Y-60079301D01*
X127682464Y-60190839D01*
X127631129Y-60314773D01*
X127604958Y-60446340D01*
X127604958Y-60511913D01*
X126877472Y-61239400D01*
X122227288Y-61239400D01*
X122203581Y-61237065D01*
X122108974Y-61246383D01*
X122018004Y-61273978D01*
X121934166Y-61318791D01*
X121860680Y-61379099D01*
X121845569Y-61397512D01*
X121178610Y-62064472D01*
X121178610Y-60076822D01*
X121239268Y-60137480D01*
X121375374Y-60228423D01*
X121526606Y-60291065D01*
X121687154Y-60323000D01*
X121850846Y-60323000D01*
X122011394Y-60291065D01*
X122162626Y-60228423D01*
X122298732Y-60137480D01*
X122414480Y-60021732D01*
X122505423Y-59885626D01*
X122568065Y-59734394D01*
X122600000Y-59573846D01*
X122600000Y-59410154D01*
X122568065Y-59249606D01*
X122505423Y-59098374D01*
X122414480Y-58962268D01*
X122298732Y-58846520D01*
X122162626Y-58755577D01*
X122011394Y-58692935D01*
X121850846Y-58661000D01*
X121726499Y-58661000D01*
X123516900Y-56870600D01*
X124868521Y-56870600D01*
X124914888Y-56916967D01*
M02*
