G04 #@! TF.GenerationSoftware,KiCad,Pcbnew,(5.1.5-0)*
G04 #@! TF.CreationDate,2019-12-18T14:05:17+08:00*
G04 #@! TF.ProjectId,VESC_6,56455343-5f36-42e6-9b69-6361645f7063,A*
G04 #@! TF.SameCoordinates,Original*
G04 #@! TF.FileFunction,Soldermask,Top*
G04 #@! TF.FilePolarity,Negative*
%FSLAX46Y46*%
G04 Gerber Fmt 4.6, Leading zero omitted, Abs format (unit mm)*
G04 Created by KiCad (PCBNEW (5.1.5-0)) date 2019-12-18 14:05:17*
%MOMM*%
%LPD*%
G04 APERTURE LIST*
%ADD10R,0.800000X0.750000*%
%ADD11O,0.200000X0.550000*%
%ADD12O,0.550000X0.200000*%
%ADD13R,2.500000X1.800000*%
%ADD14O,1.100000X2.200000*%
%ADD15O,1.100000X1.800000*%
%ADD16R,0.750000X0.800000*%
%ADD17R,1.180000X4.700000*%
%ADD18R,1.501140X0.299720*%
%ADD19R,3.599180X7.000240*%
%ADD20R,0.304800X1.193800*%
%ADD21R,1.193800X0.304800*%
%ADD22C,0.900000*%
%ADD23C,0.100000*%
%ADD24R,0.350000X0.650000*%
%ADD25R,1.200000X0.775000*%
%ADD26R,1.950000X1.500000*%
%ADD27R,1.000000X2.500000*%
%ADD28R,2.500000X1.000000*%
%ADD29R,0.500000X0.900000*%
%ADD30R,0.900000X0.500000*%
%ADD31C,1.600000*%
%ADD32O,1.699260X1.198880*%
%ADD33R,1.699260X1.198880*%
%ADD34R,1.100000X1.700000*%
%ADD35R,1.100000X0.850000*%
%ADD36R,0.700000X1.300000*%
%ADD37R,1.300000X0.700000*%
%ADD38R,0.850000X1.100000*%
%ADD39R,1.700000X1.100000*%
%ADD40C,3.000000*%
%ADD41O,1.198880X1.699260*%
%ADD42R,1.198880X1.699260*%
%ADD43R,6.000000X5.000000*%
%ADD44R,3.810000X3.048000*%
%ADD45C,0.600000*%
G04 APERTURE END LIST*
D10*
X123646500Y-97746000D03*
X125146500Y-97746000D03*
D11*
X121809000Y-82780000D03*
X122209000Y-82780000D03*
X122609000Y-82780000D03*
X123009000Y-82780000D03*
X123409000Y-82780000D03*
X123809000Y-82780000D03*
D12*
X124309000Y-82280000D03*
X124309000Y-81880000D03*
X124309000Y-81480000D03*
X124309000Y-81080000D03*
X124309000Y-80680000D03*
X124309000Y-80280000D03*
D11*
X123809000Y-79780000D03*
X123409000Y-79780000D03*
X123009000Y-79780000D03*
X122609000Y-79780000D03*
X122209000Y-79780000D03*
X121809000Y-79780000D03*
D12*
X121309000Y-80280000D03*
X121309000Y-80680000D03*
X121309000Y-81080000D03*
X121309000Y-81480000D03*
X121309000Y-81880000D03*
X121309000Y-82280000D03*
D13*
X125825000Y-61849000D03*
X121825000Y-61849000D03*
D14*
X128900000Y-109100000D03*
D15*
X126750000Y-111900000D03*
X126750000Y-106300000D03*
D16*
X120015000Y-81395000D03*
X120015000Y-79895000D03*
D17*
X129790000Y-62600000D03*
X133100000Y-62600000D03*
D18*
X136461500Y-76471780D03*
X136461500Y-75971400D03*
X136461500Y-75471020D03*
X136461500Y-74970640D03*
X136461500Y-74470260D03*
X136461500Y-73972420D03*
X136461500Y-73472040D03*
X136461500Y-72971660D03*
X136461500Y-72471280D03*
X136461500Y-71970900D03*
X136461500Y-71470520D03*
X136461500Y-80970120D03*
X136461500Y-80472280D03*
X136461500Y-79971900D03*
X128460500Y-75471020D03*
X136461500Y-78971140D03*
X136461500Y-78470760D03*
X136461500Y-77970380D03*
X136461500Y-77472540D03*
X136461500Y-76972160D03*
X128460500Y-72971660D03*
X128460500Y-73472040D03*
X128460500Y-73972420D03*
X128460500Y-74470260D03*
X128460500Y-74970640D03*
X136461500Y-79471520D03*
X128460500Y-75971400D03*
X128460500Y-76471780D03*
X128460500Y-76972160D03*
X128460500Y-77472540D03*
X128460500Y-77970380D03*
X128460500Y-78470760D03*
X128460500Y-78971140D03*
X128460500Y-67472560D03*
X128460500Y-67970400D03*
X128460500Y-68470780D03*
X128460500Y-68971160D03*
X128460500Y-69471540D03*
X128460500Y-69971920D03*
X128460500Y-70472300D03*
X128460500Y-70970140D03*
X128460500Y-71470520D03*
X128460500Y-71970900D03*
X128460500Y-72471280D03*
X128460500Y-79471520D03*
X128460500Y-79971900D03*
X128460500Y-80472280D03*
X128460500Y-80970120D03*
X136461500Y-70970140D03*
X136461500Y-70472300D03*
X136461500Y-69971920D03*
X136461500Y-69471540D03*
X136461500Y-68971160D03*
X136461500Y-68470780D03*
X136461500Y-67970400D03*
X136461500Y-67472560D03*
D19*
X132461000Y-74168000D03*
D20*
X135576000Y-86706001D03*
X135076001Y-86706001D03*
X134576000Y-86706001D03*
X134076001Y-86706001D03*
X133575999Y-86706001D03*
X133076000Y-86706001D03*
X132576001Y-86706001D03*
X132076000Y-86706001D03*
X131576000Y-86706001D03*
X131075999Y-86706001D03*
X130576000Y-86706001D03*
X130076001Y-86706001D03*
X129575999Y-86706001D03*
X129076000Y-86706001D03*
X128575999Y-86706001D03*
X128076000Y-86706001D03*
D21*
X126076001Y-88706000D03*
X126076001Y-89205999D03*
X126076001Y-89706000D03*
X126076001Y-90205999D03*
X126076001Y-90706001D03*
X126076001Y-91206000D03*
X126076001Y-91705999D03*
X126076001Y-92206000D03*
X126076001Y-92706000D03*
X126076001Y-93206001D03*
X126076001Y-93706000D03*
X126076001Y-94205999D03*
X126076001Y-94706001D03*
X126076001Y-95206000D03*
X126076001Y-95706001D03*
X126076001Y-96206000D03*
D20*
X128076000Y-98205999D03*
X128575999Y-98205999D03*
X129076000Y-98205999D03*
X129575999Y-98205999D03*
X130076001Y-98205999D03*
X130576000Y-98205999D03*
X131075999Y-98205999D03*
X131576000Y-98205999D03*
X132076000Y-98205999D03*
X132576001Y-98205999D03*
X133076000Y-98205999D03*
X133575999Y-98205999D03*
X134076001Y-98205999D03*
X134576000Y-98205999D03*
X135076001Y-98205999D03*
X135576000Y-98205999D03*
D21*
X137575999Y-96206000D03*
X137575999Y-95706001D03*
X137575999Y-95206000D03*
X137575999Y-94706001D03*
X137575999Y-94205999D03*
X137575999Y-93706000D03*
X137575999Y-93206001D03*
X137575999Y-92706000D03*
X137575999Y-92206000D03*
X137575999Y-91705999D03*
X137575999Y-91206000D03*
X137575999Y-90706001D03*
X137575999Y-90205999D03*
X137575999Y-89706000D03*
X137575999Y-89205999D03*
X137575999Y-88706000D03*
D22*
X121769000Y-59492000D03*
X118769000Y-59492000D03*
D23*
G36*
X117083299Y-62497494D02*
G01*
X115810506Y-61224701D01*
X117578273Y-59456934D01*
X118851066Y-60729727D01*
X117083299Y-62497494D01*
G37*
G36*
X119911727Y-59669066D02*
G01*
X118638934Y-58396273D01*
X120406701Y-56628506D01*
X121679494Y-57901299D01*
X119911727Y-59669066D01*
G37*
D24*
X124200000Y-99789500D03*
X123550000Y-99789500D03*
X122900000Y-99789500D03*
X122250000Y-99789500D03*
X122250000Y-102889500D03*
X122900000Y-102889500D03*
X123550000Y-102889500D03*
X124200000Y-102889500D03*
D25*
X122625000Y-101727000D03*
X123825000Y-101727000D03*
X122625000Y-100952000D03*
X123825000Y-100952000D03*
D26*
X136801000Y-60198000D03*
X139551000Y-60198000D03*
D27*
X133834000Y-83566000D03*
X130834000Y-83566000D03*
D28*
X139192000Y-68175000D03*
X139192000Y-65175000D03*
D29*
X127445200Y-100711000D03*
X125945200Y-100711000D03*
X127445200Y-102108000D03*
X125945200Y-102108000D03*
X127445200Y-103632000D03*
X125945200Y-103632000D03*
D30*
X123113800Y-70727000D03*
X123113800Y-69227000D03*
X123113800Y-68136200D03*
X123113800Y-66636200D03*
D29*
X124751400Y-68249800D03*
X126251400Y-68249800D03*
X124751400Y-71196200D03*
X126251400Y-71196200D03*
X124726000Y-65354200D03*
X126226000Y-65354200D03*
X119519000Y-106315000D03*
X121019000Y-106315000D03*
X133719000Y-56134000D03*
X132219000Y-56134000D03*
X124321000Y-56261000D03*
X122821000Y-56261000D03*
X124321000Y-57785000D03*
X122821000Y-57785000D03*
X124321000Y-59309000D03*
X122821000Y-59309000D03*
D30*
X140335000Y-76339000D03*
X140335000Y-77839000D03*
X140335000Y-79133000D03*
X140335000Y-80633000D03*
D16*
X120205500Y-90920000D03*
X120205500Y-89420000D03*
X137541000Y-99199000D03*
X137541000Y-100699000D03*
D10*
X133743000Y-99949000D03*
X135243000Y-99949000D03*
D16*
X124269500Y-89777000D03*
X124269500Y-88277000D03*
X128143000Y-85205000D03*
X128143000Y-83705000D03*
X120751600Y-72886000D03*
X120751600Y-71386000D03*
X139192000Y-87654000D03*
X139192000Y-89154000D03*
D10*
X124625800Y-73101200D03*
X123125800Y-73101200D03*
X124625800Y-74549000D03*
X123125800Y-74549000D03*
X126251400Y-69723000D03*
X124751400Y-69723000D03*
D16*
X125349000Y-78347000D03*
X125349000Y-76847000D03*
D10*
X124726000Y-66802000D03*
X126226000Y-66802000D03*
D16*
X126365000Y-74180000D03*
X126365000Y-75680000D03*
X127000000Y-80657000D03*
X127000000Y-82157000D03*
D10*
X140323000Y-63754000D03*
X138823000Y-63754000D03*
D16*
X138303000Y-71005000D03*
X138303000Y-72505000D03*
X138303000Y-73799000D03*
X138303000Y-75299000D03*
X138303000Y-76593000D03*
X138303000Y-78093000D03*
D10*
X140323000Y-69850000D03*
X138823000Y-69850000D03*
X137299000Y-62230000D03*
X138799000Y-62230000D03*
D16*
X120650000Y-97548000D03*
X120650000Y-99048000D03*
X120650000Y-102096000D03*
X120650000Y-100596000D03*
D10*
X124511500Y-86868000D03*
X123011500Y-86868000D03*
X134936800Y-56083200D03*
X136436800Y-56083200D03*
D16*
X125730000Y-82157000D03*
X125730000Y-80657000D03*
D10*
X122313000Y-78486000D03*
X123813000Y-78486000D03*
D31*
X144726000Y-81788000D03*
X149726000Y-81788000D03*
X170842000Y-81788000D03*
X165842000Y-81788000D03*
D32*
X118000000Y-102201520D03*
X118000000Y-100200000D03*
D33*
X118000000Y-104203040D03*
D34*
X173384000Y-74254000D03*
X173384000Y-78654000D03*
X173384000Y-76454000D03*
X164084000Y-78654000D03*
X164084000Y-74254000D03*
X164084000Y-76454000D03*
D35*
X170534000Y-78179000D03*
X167734000Y-78179000D03*
X170534000Y-74729000D03*
X167734000Y-74729000D03*
X170534000Y-75879000D03*
X170534000Y-77029000D03*
X167734000Y-77029000D03*
X167734000Y-75879000D03*
D36*
X166334000Y-76454000D03*
D37*
X170393000Y-67694000D03*
D38*
X169818000Y-66294000D03*
X170968000Y-66294000D03*
X170968000Y-63494000D03*
X169818000Y-63494000D03*
X168668000Y-66294000D03*
X168668000Y-63494000D03*
X172118000Y-66294000D03*
X172118000Y-63494000D03*
D39*
X170393000Y-69944000D03*
X168193000Y-69944000D03*
X172593000Y-69944000D03*
X170393000Y-60644000D03*
X172593000Y-60644000D03*
X168193000Y-60644000D03*
D34*
X151384000Y-74254000D03*
X151384000Y-78654000D03*
X151384000Y-76454000D03*
X142084000Y-78654000D03*
X142084000Y-74254000D03*
X142084000Y-76454000D03*
D35*
X148534000Y-78179000D03*
X145734000Y-78179000D03*
X148534000Y-74729000D03*
X145734000Y-74729000D03*
X148534000Y-75879000D03*
X148534000Y-77029000D03*
X145734000Y-77029000D03*
X145734000Y-75879000D03*
D36*
X144334000Y-76454000D03*
D40*
X151384000Y-58166000D03*
X164084000Y-58166000D03*
D41*
X117182900Y-108458000D03*
X121183400Y-108458000D03*
X119181880Y-108458000D03*
D42*
X123184920Y-108458000D03*
D41*
X136851260Y-58000000D03*
X134849740Y-58000000D03*
X132848220Y-58000000D03*
X128847720Y-58000000D03*
X130849240Y-58000000D03*
D42*
X126846200Y-58000000D03*
D32*
X117983000Y-77299760D03*
X117983000Y-85303300D03*
X117983000Y-89303800D03*
X117983000Y-87302280D03*
D33*
X117983000Y-91305320D03*
D32*
X117983000Y-83299240D03*
X117983000Y-81297720D03*
X117983000Y-79298740D03*
X117983000Y-64799500D03*
X117983000Y-66801020D03*
X117983000Y-70801520D03*
X117983000Y-68800000D03*
D33*
X117983000Y-72803040D03*
D37*
X145087000Y-67678000D03*
D38*
X144512000Y-66278000D03*
X145662000Y-66278000D03*
X145662000Y-63478000D03*
X144512000Y-63478000D03*
X143362000Y-66278000D03*
X143362000Y-63478000D03*
X146812000Y-66278000D03*
X146812000Y-63478000D03*
D39*
X145087000Y-69928000D03*
X142887000Y-69928000D03*
X147287000Y-69928000D03*
X145087000Y-60628000D03*
X147287000Y-60628000D03*
X142887000Y-60628000D03*
D34*
X162371000Y-74254000D03*
X162371000Y-78654000D03*
X162371000Y-76454000D03*
X153071000Y-78654000D03*
X153071000Y-74254000D03*
X153071000Y-76454000D03*
D35*
X159521000Y-78179000D03*
X156721000Y-78179000D03*
X159521000Y-74729000D03*
X156721000Y-74729000D03*
X159521000Y-75879000D03*
X159521000Y-77029000D03*
X156721000Y-77029000D03*
X156721000Y-75879000D03*
D36*
X155321000Y-76454000D03*
D37*
X157734000Y-67678000D03*
D38*
X157159000Y-66278000D03*
X158309000Y-66278000D03*
X158309000Y-63478000D03*
X157159000Y-63478000D03*
X156009000Y-66278000D03*
X156009000Y-63478000D03*
X159459000Y-66278000D03*
X159459000Y-63478000D03*
D39*
X157734000Y-69928000D03*
X155534000Y-69928000D03*
X159934000Y-69928000D03*
X157734000Y-60628000D03*
X159934000Y-60628000D03*
X155534000Y-60628000D03*
D43*
X157734000Y-86800000D03*
D30*
X120015000Y-85459000D03*
X120015000Y-83959000D03*
X121412000Y-85459000D03*
X121412000Y-83959000D03*
D44*
X131445000Y-102235000D03*
X131445000Y-106299000D03*
X136525000Y-106299000D03*
D45*
X135763000Y-91313000D03*
X123373151Y-96310846D03*
X126746000Y-60198000D03*
X126111000Y-60198000D03*
X125476000Y-60197994D03*
X131064000Y-69977000D03*
X134874000Y-66800000D03*
X127232128Y-69342000D03*
X131699000Y-69977000D03*
X131699000Y-69342000D03*
X131064000Y-69342000D03*
X134239000Y-66800000D03*
X133604000Y-66802000D03*
X166471600Y-67640200D03*
X165887400Y-67640200D03*
X165303200Y-67640200D03*
X164719000Y-67640200D03*
X164134800Y-67640200D03*
X163550600Y-67640200D03*
X162966400Y-67640200D03*
X162382200Y-67640200D03*
X161798000Y-67640200D03*
X166471600Y-67056000D03*
X165887400Y-67056000D03*
X165303200Y-67056000D03*
X164719000Y-67056000D03*
X164134800Y-67056000D03*
X163550600Y-67056000D03*
X162966400Y-67056000D03*
X162382200Y-67056000D03*
X161798000Y-67056000D03*
X166471600Y-66471800D03*
X165887400Y-66471800D03*
X165303200Y-66471800D03*
X164719000Y-66471800D03*
X164134800Y-66471800D03*
X163550600Y-66471800D03*
X162966400Y-66471800D03*
X162382200Y-66471800D03*
X161798000Y-66471800D03*
X166471600Y-65887600D03*
X165887400Y-65887600D03*
X165303200Y-65887600D03*
X164719000Y-65887600D03*
X164134800Y-65887600D03*
X163550600Y-65887600D03*
X162966400Y-65887600D03*
X162382200Y-65887600D03*
X161798000Y-65887600D03*
X166471600Y-65303400D03*
X165887400Y-65303400D03*
X165303200Y-65303400D03*
X164719000Y-65303400D03*
X164134800Y-65303400D03*
X163550600Y-65303400D03*
X162966400Y-65303400D03*
X162382200Y-65303400D03*
X161798000Y-65303400D03*
X166471600Y-64719200D03*
X165887400Y-64719200D03*
X165303200Y-64719200D03*
X164719000Y-64719200D03*
X164134800Y-64719200D03*
X163550600Y-64719200D03*
X162966400Y-64719200D03*
X162382200Y-64719200D03*
X161798000Y-64719200D03*
X166471600Y-64135000D03*
X165887400Y-64135000D03*
X165303200Y-64135000D03*
X164719000Y-64135000D03*
X164134800Y-64135000D03*
X163550600Y-64135000D03*
X162966400Y-64135000D03*
X162382200Y-64135000D03*
X153644600Y-67640200D03*
X153060400Y-67640200D03*
X152476200Y-67640200D03*
X151892000Y-67640200D03*
X151307800Y-67640200D03*
X150723600Y-67640200D03*
X150139400Y-67640200D03*
X149555200Y-67640200D03*
X148971000Y-67640200D03*
X153644600Y-67056000D03*
X153060400Y-67056000D03*
X152476200Y-67056000D03*
X151892000Y-67056000D03*
X151307800Y-67056000D03*
X150723600Y-67056000D03*
X150139400Y-67056000D03*
X149555200Y-67056000D03*
X148971000Y-67056000D03*
X153644600Y-66471800D03*
X153060400Y-66471800D03*
X152476200Y-66471800D03*
X151892000Y-66471800D03*
X151307800Y-66471800D03*
X150723600Y-66471800D03*
X150139400Y-66471800D03*
X149555200Y-66471800D03*
X148971000Y-66471800D03*
X153644600Y-65887600D03*
X153060400Y-65887600D03*
X152476200Y-65887600D03*
X151892000Y-65887600D03*
X151307800Y-65887600D03*
X150723600Y-65887600D03*
X150139400Y-65887600D03*
X149555200Y-65887600D03*
X148971000Y-65887600D03*
X153644600Y-65303400D03*
X153060400Y-65303400D03*
X152476200Y-65303400D03*
X151892000Y-65303400D03*
X151307800Y-65303400D03*
X150723600Y-65303400D03*
X150139400Y-65303400D03*
X149555200Y-65303400D03*
X148971000Y-65303400D03*
X153644600Y-64719200D03*
X153060400Y-64719200D03*
X152476200Y-64719200D03*
X151892000Y-64719200D03*
X151307800Y-64719200D03*
X150723600Y-64719200D03*
X150139400Y-64719200D03*
X149555200Y-64719200D03*
X148971000Y-64719200D03*
X153644600Y-64135000D03*
X153060400Y-64135000D03*
X152476200Y-64135000D03*
X151892000Y-64135000D03*
X151307800Y-64135000D03*
X150723600Y-64135000D03*
X150139400Y-64135000D03*
X149555200Y-64135000D03*
X161798000Y-64135000D03*
X148971000Y-64135000D03*
X134620000Y-79756000D03*
X135128000Y-80264000D03*
X134112000Y-79248000D03*
X136906000Y-64516000D03*
X137541000Y-111379000D03*
X136245600Y-102362000D03*
X138049000Y-86614000D03*
X124849867Y-96930195D03*
X126365000Y-83693000D03*
X134620000Y-90297000D03*
X129476214Y-88223275D03*
X127516448Y-89653548D03*
X117475000Y-94869000D03*
X119126000Y-94869000D03*
X127825500Y-81915000D03*
X132333990Y-99949000D03*
X133995745Y-101102745D03*
X129023272Y-96785623D03*
X135331202Y-88925400D03*
X124663196Y-95681800D03*
X138557000Y-99949000D03*
X135043559Y-70650810D03*
X119500000Y-101492000D03*
X131826000Y-59690000D03*
X123190000Y-83642200D03*
X139171432Y-86006018D03*
X123647200Y-98907600D03*
X121492990Y-88884606D03*
X121945399Y-74015600D03*
X131191000Y-90297000D03*
X134357830Y-88119733D03*
X122047000Y-67310000D03*
X131572000Y-61214000D03*
X131554155Y-61889155D03*
X122110498Y-63309500D03*
X122072400Y-71272400D03*
X122072400Y-72313800D03*
X117000000Y-97536000D03*
X134801900Y-72182240D03*
X143000000Y-71500000D03*
X143624840Y-71500000D03*
X144249680Y-71500000D03*
X146124200Y-71500000D03*
X146749040Y-71500000D03*
X147373880Y-71500000D03*
X147998720Y-71500000D03*
X143000000Y-72124840D03*
X143624840Y-72124840D03*
X144249680Y-72124840D03*
X144874520Y-72124840D03*
X145499360Y-72124840D03*
X146124200Y-72124840D03*
X146749040Y-72124840D03*
X147373880Y-72124840D03*
X147998720Y-72124840D03*
X143624840Y-72749680D03*
X144249680Y-72749680D03*
X144874520Y-72749680D03*
X145499360Y-72749680D03*
X146124200Y-72749680D03*
X146749040Y-72749680D03*
X147373880Y-72749680D03*
X147998720Y-72749680D03*
X143624840Y-73374520D03*
X144249680Y-73374520D03*
X144874520Y-73374520D03*
X145499360Y-73374520D03*
X146124200Y-73374520D03*
X146749040Y-73374520D03*
X147373880Y-73374520D03*
X147998720Y-73374520D03*
X143002000Y-72771000D03*
X155575000Y-71501000D03*
X140843000Y-73660000D03*
X134981000Y-74919000D03*
X156197300Y-71501000D03*
X156819600Y-71501000D03*
X158686500Y-71501000D03*
X159308800Y-71501000D03*
X159931100Y-71501000D03*
X160553400Y-71501000D03*
X155575000Y-72123300D03*
X156197300Y-72123300D03*
X156819600Y-72123300D03*
X157441900Y-72123300D03*
X158064200Y-72123300D03*
X158686500Y-72123300D03*
X159308800Y-72123300D03*
X159931100Y-72123300D03*
X160553400Y-72123300D03*
X155575000Y-72745600D03*
X156197300Y-72745600D03*
X156819600Y-72745600D03*
X157441900Y-72745600D03*
X158064200Y-72745600D03*
X158686500Y-72745600D03*
X159308800Y-72745600D03*
X159931100Y-72745600D03*
X160553400Y-72745600D03*
X155575000Y-73367900D03*
X156197300Y-73367900D03*
X156819600Y-73367900D03*
X157441900Y-73367900D03*
X158064200Y-73367900D03*
X158686500Y-73367900D03*
X159308800Y-73367900D03*
X159931100Y-73367900D03*
X160553400Y-73367900D03*
X168275000Y-71501000D03*
X134866829Y-77759634D03*
X168897300Y-71501000D03*
X169519600Y-71501000D03*
X171386500Y-71501000D03*
X172008800Y-71501000D03*
X172631100Y-71501000D03*
X173253400Y-71501000D03*
X168275000Y-72123300D03*
X168897300Y-72123300D03*
X169519600Y-72123300D03*
X170141900Y-72123300D03*
X170764200Y-72123300D03*
X171386500Y-72123300D03*
X172008800Y-72123300D03*
X172631100Y-72123300D03*
X173253400Y-72123300D03*
X168275000Y-72745600D03*
X168897300Y-72745600D03*
X169519600Y-72745600D03*
X170141900Y-72745600D03*
X170764200Y-72745600D03*
X171386500Y-72745600D03*
X172008800Y-72745600D03*
X172631100Y-72745600D03*
X173253400Y-72745600D03*
X168275000Y-73367900D03*
X168897300Y-73367900D03*
X169519600Y-73367900D03*
X170141900Y-73367900D03*
X170764200Y-73367900D03*
X171386500Y-73367900D03*
X172008800Y-73367900D03*
X138176000Y-80264016D03*
X167513000Y-79375000D03*
X133731000Y-68580000D03*
X134391400Y-81508600D03*
X133834000Y-80957296D03*
X134162800Y-68148200D03*
X143383000Y-79375000D03*
X144018000Y-79375000D03*
X144653000Y-79375000D03*
X145288000Y-79375000D03*
X145923000Y-79375000D03*
X146558000Y-79375000D03*
X147193000Y-79375000D03*
X147828000Y-79375000D03*
X142113000Y-80010000D03*
X142748000Y-80010000D03*
X143383000Y-80010000D03*
X144018000Y-80010000D03*
X144653000Y-80010000D03*
X145288000Y-80010000D03*
X145923000Y-80010000D03*
X146558000Y-80010000D03*
X147193000Y-80010000D03*
X147828000Y-80010000D03*
X155448000Y-79375000D03*
X156083000Y-79375000D03*
X156718000Y-79375000D03*
X157353000Y-79375000D03*
X157988000Y-79375000D03*
X158623000Y-79375000D03*
X159258000Y-79375000D03*
X159893000Y-79375000D03*
X160528000Y-79375000D03*
X154813000Y-80010000D03*
X155448000Y-80010000D03*
X156083000Y-80010000D03*
X156718000Y-80010000D03*
X157353000Y-80010000D03*
X157988000Y-80010000D03*
X158623000Y-80010000D03*
X159258000Y-80010000D03*
X159893000Y-80010000D03*
X160528000Y-80010000D03*
X168148000Y-79375000D03*
X168783000Y-79375000D03*
X169418000Y-79375000D03*
X170053000Y-79375000D03*
X170688000Y-79375000D03*
X171323000Y-79375000D03*
X171958000Y-79375000D03*
X167513000Y-80010000D03*
X168148000Y-80010000D03*
X168783000Y-80010000D03*
X169418000Y-80010000D03*
X170053000Y-80010000D03*
X170688000Y-80010000D03*
X171323000Y-80010000D03*
X171958000Y-80010000D03*
X172593000Y-80010000D03*
X173228000Y-80010000D03*
X154813000Y-79375000D03*
X135382000Y-85344000D03*
X134077066Y-85268411D03*
X130429000Y-85268430D03*
X140334994Y-79883000D03*
X135153776Y-84627036D03*
X124470635Y-83577501D03*
X129413000Y-83947000D03*
X129485668Y-85236022D03*
X123954848Y-92506426D03*
X130860906Y-99656566D03*
X125222000Y-58674000D03*
X131699000Y-99440996D03*
X125222000Y-56261000D03*
X120696010Y-65670151D03*
X130114793Y-99559412D03*
X121920000Y-56388002D03*
X122809000Y-55527400D03*
X121285000Y-92710000D03*
X121483410Y-91051407D03*
X121365990Y-91948000D03*
X136398006Y-98806000D03*
X138637990Y-96801922D03*
X133857998Y-96901000D03*
X132969000Y-99314000D03*
X128971964Y-102509268D03*
X127863596Y-102717600D03*
X128863403Y-105790264D03*
X121873990Y-68326000D03*
X129921000Y-68453000D03*
X130193612Y-88450131D03*
X126517011Y-85621990D03*
X127050803Y-86152263D03*
X127640348Y-86619768D03*
X147039000Y-58647000D03*
X146404000Y-58647000D03*
X145769000Y-58647000D03*
X145134000Y-58647000D03*
X144499000Y-58647000D03*
X143864000Y-58647000D03*
X143229000Y-58647000D03*
X147039000Y-58012000D03*
X146404000Y-58012000D03*
X145769000Y-58012000D03*
X145134000Y-58012000D03*
X144499000Y-58012000D03*
X143864000Y-58012000D03*
X143229000Y-58012000D03*
X147039000Y-57377000D03*
X146404000Y-57377000D03*
X145769000Y-57377000D03*
X145134000Y-57377000D03*
X144499000Y-57377000D03*
X143864000Y-57377000D03*
X143229000Y-57377000D03*
X147039000Y-56742000D03*
X146404000Y-56742000D03*
X145769000Y-56742000D03*
X145134000Y-56742000D03*
X144499000Y-56742000D03*
X143864000Y-56742000D03*
X143229000Y-56742000D03*
X147039000Y-56107000D03*
X146404000Y-56107000D03*
X145769000Y-56107000D03*
X145134000Y-56107000D03*
X144499000Y-56107000D03*
X143864000Y-56107000D03*
X143229000Y-56107000D03*
X134859694Y-71406578D03*
X134983565Y-72918030D03*
X159639000Y-58647000D03*
X159004000Y-58647000D03*
X158369000Y-58647000D03*
X157734000Y-58647000D03*
X157099000Y-58647000D03*
X156464000Y-58647000D03*
X155829000Y-58647000D03*
X159639000Y-58012000D03*
X159004000Y-58012000D03*
X158369000Y-58012000D03*
X157734000Y-58012000D03*
X157099000Y-58012000D03*
X156464000Y-58012000D03*
X155829000Y-58012000D03*
X159639000Y-57377000D03*
X159004000Y-57377000D03*
X158369000Y-57377000D03*
X157734000Y-57377000D03*
X157099000Y-57377000D03*
X156464000Y-57377000D03*
X155829000Y-57377000D03*
X159639000Y-56742000D03*
X159004000Y-56742000D03*
X158369000Y-56742000D03*
X157734000Y-56742000D03*
X157099000Y-56742000D03*
X156464000Y-56742000D03*
X155829000Y-56742000D03*
X159639000Y-56107000D03*
X159004000Y-56107000D03*
X158369000Y-56107000D03*
X157734000Y-56107000D03*
X157099000Y-56107000D03*
X156464000Y-56107000D03*
X155829000Y-56107000D03*
X135081000Y-74119000D03*
X134981000Y-75719000D03*
X172339000Y-58647000D03*
X171704000Y-58647000D03*
X171069000Y-58647000D03*
X170434000Y-58647000D03*
X169799000Y-58647000D03*
X169164000Y-58647000D03*
X168529000Y-58647000D03*
X172339000Y-58012000D03*
X171704000Y-58012000D03*
X171069000Y-58012000D03*
X170434000Y-58012000D03*
X169799000Y-58012000D03*
X169164000Y-58012000D03*
X168529000Y-58012000D03*
X172339000Y-57377000D03*
X171704000Y-57377000D03*
X171069000Y-57377000D03*
X170434000Y-57377000D03*
X169799000Y-57377000D03*
X169164000Y-57377000D03*
X168529000Y-57377000D03*
X172339000Y-56742000D03*
X171704000Y-56742000D03*
X171069000Y-56742000D03*
X170434000Y-56742000D03*
X169799000Y-56742000D03*
X169164000Y-56742000D03*
X168529000Y-56742000D03*
X172339000Y-56107000D03*
X171704000Y-56107000D03*
X171069000Y-56107000D03*
X170434000Y-56107000D03*
X169799000Y-56107000D03*
X169164000Y-56107000D03*
X168529000Y-56107000D03*
X134860669Y-76981846D03*
X134889640Y-78537112D03*
X139953998Y-66848010D03*
X134239000Y-93980000D03*
X133858000Y-59182000D03*
X130810000Y-93853000D03*
X128285958Y-60513413D03*
X129098650Y-94052717D03*
X130081000Y-76019000D03*
X128293140Y-96967368D03*
X127127000Y-76453990D03*
X128574250Y-99568000D03*
X126478244Y-77346228D03*
X129326661Y-99568000D03*
X129794000Y-70866000D03*
X131516902Y-96464304D03*
X127235055Y-72768890D03*
X138637990Y-95511593D03*
X130048000Y-72517004D03*
X138637990Y-94750777D03*
X130048887Y-71633226D03*
X138637990Y-93970921D03*
X119587990Y-98715145D03*
X123698000Y-94742000D03*
X119507000Y-100457000D03*
X124497033Y-94325659D03*
X130040229Y-75242258D03*
X132162712Y-96850378D03*
X129901590Y-76826915D03*
X129476469Y-96185010D03*
X127230600Y-77355385D03*
X129858399Y-94911909D03*
X138625301Y-93092742D03*
X130048000Y-74422000D03*
X130048000Y-69723000D03*
X138546340Y-91152529D03*
X121742204Y-99648990D03*
X138935171Y-91796682D03*
X124475365Y-98881671D03*
X139472582Y-92329000D03*
X136017000Y-62865000D03*
X153416016Y-61595000D03*
X136271000Y-61849000D03*
X152527000Y-61849000D03*
X166116000Y-61595000D03*
X132310282Y-65970701D03*
X165227000Y-61849000D03*
X131699000Y-65532000D03*
X140335000Y-72842410D03*
X143510000Y-67691000D03*
X140589006Y-71247000D03*
X143510000Y-77017590D03*
X140600000Y-74500000D03*
X154635197Y-77165203D03*
X140300000Y-75300000D03*
X156083000Y-67691000D03*
X159766000Y-67691000D03*
X141224000Y-70612000D03*
X168783000Y-67691000D03*
X137904193Y-79451912D03*
X130826985Y-104255016D03*
X131079844Y-105980439D03*
X120570694Y-93259226D03*
X127392255Y-94762621D03*
X134874000Y-96439010D03*
X130175000Y-110108998D03*
X122174000Y-97917000D03*
X137033000Y-96901000D03*
X118994603Y-84331244D03*
X124907284Y-94956386D03*
X121623887Y-83654021D03*
X135001000Y-94996000D03*
M02*
