G04 #@! TF.GenerationSoftware,KiCad,Pcbnew,(5.1.5-0)*
G04 #@! TF.CreationDate,2019-12-18T14:52:24+08:00*
G04 #@! TF.ProjectId,VESC_6,56455343-5f36-42e6-9b69-6361645f7063,A*
G04 #@! TF.SameCoordinates,Original*
G04 #@! TF.FileFunction,Legend,Bot*
G04 #@! TF.FilePolarity,Positive*
%FSLAX46Y46*%
G04 Gerber Fmt 4.6, Leading zero omitted, Abs format (unit mm)*
G04 Created by KiCad (PCBNEW (5.1.5-0)) date 2019-12-18 14:52:24*
%MOMM*%
%LPD*%
G04 APERTURE LIST*
%ADD10C,0.101600*%
%ADD11C,0.203200*%
%ADD12C,0.254000*%
%ADD13C,0.120000*%
%ADD14C,0.150000*%
%ADD15C,0.381000*%
%ADD16R,1.500000X0.450000*%
%ADD17O,1.100000X1.800000*%
%ADD18O,1.100000X2.200000*%
%ADD19R,2.300000X2.700000*%
%ADD20R,0.600000X2.700000*%
%ADD21R,0.797560X0.797560*%
%ADD22R,1.060000X0.650000*%
%ADD23R,1.000000X0.800000*%
%ADD24R,0.700000X1.500000*%
%ADD25C,0.900000*%
%ADD26R,1.300000X0.700000*%
%ADD27R,1.950000X1.500000*%
%ADD28R,0.450000X1.450000*%
%ADD29R,2.500000X1.000000*%
%ADD30R,0.900000X0.500000*%
%ADD31R,0.500000X0.900000*%
%ADD32R,0.750000X0.800000*%
%ADD33R,0.800000X0.750000*%
%ADD34C,0.100000*%
%ADD35R,2.000000X1.300000*%
%ADD36C,1.600000*%
%ADD37R,1.699260X1.198880*%
%ADD38O,1.699260X1.198880*%
%ADD39C,3.000000*%
%ADD40R,1.198880X1.699260*%
%ADD41O,1.198880X1.699260*%
%ADD42R,5.000000X4.000000*%
%ADD43R,6.000000X5.000000*%
%ADD44C,0.600000*%
G04 APERTURE END LIST*
D10*
X123177904Y-56085619D02*
X123105333Y-56109809D01*
X122984380Y-56109809D01*
X122936000Y-56085619D01*
X122911809Y-56061428D01*
X122887619Y-56013047D01*
X122887619Y-55964666D01*
X122911809Y-55916285D01*
X122936000Y-55892095D01*
X122984380Y-55867904D01*
X123081142Y-55843714D01*
X123129523Y-55819523D01*
X123153714Y-55795333D01*
X123177904Y-55746952D01*
X123177904Y-55698571D01*
X123153714Y-55650190D01*
X123129523Y-55626000D01*
X123081142Y-55601809D01*
X122960190Y-55601809D01*
X122887619Y-55626000D01*
X122476380Y-56085619D02*
X122524761Y-56109809D01*
X122621523Y-56109809D01*
X122669904Y-56085619D01*
X122694095Y-56037238D01*
X122694095Y-55843714D01*
X122669904Y-55795333D01*
X122621523Y-55771142D01*
X122524761Y-55771142D01*
X122476380Y-55795333D01*
X122452190Y-55843714D01*
X122452190Y-55892095D01*
X122694095Y-55940476D01*
X122234476Y-55771142D02*
X122234476Y-56109809D01*
X122234476Y-55819523D02*
X122210285Y-55795333D01*
X122161904Y-55771142D01*
X122089333Y-55771142D01*
X122040952Y-55795333D01*
X122016761Y-55843714D01*
X122016761Y-56109809D01*
X121799047Y-56085619D02*
X121750666Y-56109809D01*
X121653904Y-56109809D01*
X121605523Y-56085619D01*
X121581333Y-56037238D01*
X121581333Y-56013047D01*
X121605523Y-55964666D01*
X121653904Y-55940476D01*
X121726476Y-55940476D01*
X121774857Y-55916285D01*
X121799047Y-55867904D01*
X121799047Y-55843714D01*
X121774857Y-55795333D01*
X121726476Y-55771142D01*
X121653904Y-55771142D01*
X121605523Y-55795333D01*
X121291047Y-56109809D02*
X121339428Y-56085619D01*
X121363619Y-56061428D01*
X121387809Y-56013047D01*
X121387809Y-55867904D01*
X121363619Y-55819523D01*
X121339428Y-55795333D01*
X121291047Y-55771142D01*
X121218476Y-55771142D01*
X121170095Y-55795333D01*
X121145904Y-55819523D01*
X121121714Y-55867904D01*
X121121714Y-56013047D01*
X121145904Y-56061428D01*
X121170095Y-56085619D01*
X121218476Y-56109809D01*
X121291047Y-56109809D01*
X120904000Y-56109809D02*
X120904000Y-55771142D01*
X120904000Y-55867904D02*
X120879809Y-55819523D01*
X120855619Y-55795333D01*
X120807238Y-55771142D01*
X120758857Y-55771142D01*
X120275047Y-55601809D02*
X120105714Y-56109809D01*
X119936380Y-55601809D01*
X119694476Y-56109809D02*
X119742857Y-56085619D01*
X119767047Y-56061428D01*
X119791238Y-56013047D01*
X119791238Y-55867904D01*
X119767047Y-55819523D01*
X119742857Y-55795333D01*
X119694476Y-55771142D01*
X119621904Y-55771142D01*
X119573523Y-55795333D01*
X119549333Y-55819523D01*
X119525142Y-55867904D01*
X119525142Y-56013047D01*
X119549333Y-56061428D01*
X119573523Y-56085619D01*
X119621904Y-56109809D01*
X119694476Y-56109809D01*
X119234857Y-56109809D02*
X119283238Y-56085619D01*
X119307428Y-56037238D01*
X119307428Y-55601809D01*
X119113904Y-55771142D02*
X118920380Y-55771142D01*
X119041333Y-55601809D02*
X119041333Y-56037238D01*
X119017142Y-56085619D01*
X118968761Y-56109809D01*
X118920380Y-56109809D01*
X118533333Y-56109809D02*
X118533333Y-55843714D01*
X118557523Y-55795333D01*
X118605904Y-55771142D01*
X118702666Y-55771142D01*
X118751047Y-55795333D01*
X118533333Y-56085619D02*
X118581714Y-56109809D01*
X118702666Y-56109809D01*
X118751047Y-56085619D01*
X118775238Y-56037238D01*
X118775238Y-55988857D01*
X118751047Y-55940476D01*
X118702666Y-55916285D01*
X118581714Y-55916285D01*
X118533333Y-55892095D01*
X118073714Y-55771142D02*
X118073714Y-56182380D01*
X118097904Y-56230761D01*
X118122095Y-56254952D01*
X118170476Y-56279142D01*
X118243047Y-56279142D01*
X118291428Y-56254952D01*
X118073714Y-56085619D02*
X118122095Y-56109809D01*
X118218857Y-56109809D01*
X118267238Y-56085619D01*
X118291428Y-56061428D01*
X118315619Y-56013047D01*
X118315619Y-55867904D01*
X118291428Y-55819523D01*
X118267238Y-55795333D01*
X118218857Y-55771142D01*
X118122095Y-55771142D01*
X118073714Y-55795333D01*
X117638285Y-56085619D02*
X117686666Y-56109809D01*
X117783428Y-56109809D01*
X117831809Y-56085619D01*
X117856000Y-56037238D01*
X117856000Y-55843714D01*
X117831809Y-55795333D01*
X117783428Y-55771142D01*
X117686666Y-55771142D01*
X117638285Y-55795333D01*
X117614095Y-55843714D01*
X117614095Y-55892095D01*
X117856000Y-55940476D01*
D11*
X150876000Y-82677000D02*
X151892000Y-82677000D01*
D10*
X126340809Y-69493190D02*
X125832809Y-69493190D01*
X126195666Y-69662523D01*
X125832809Y-69831857D01*
X126340809Y-69831857D01*
X126195666Y-70049571D02*
X126195666Y-70291476D01*
X126340809Y-70001190D02*
X125832809Y-70170523D01*
X126340809Y-70339857D01*
X126340809Y-70509190D02*
X125832809Y-70509190D01*
X125832809Y-70630142D01*
X125857000Y-70702714D01*
X125905380Y-70751095D01*
X125953761Y-70775285D01*
X126050523Y-70799476D01*
X126123095Y-70799476D01*
X126219857Y-70775285D01*
X126268238Y-70751095D01*
X126316619Y-70702714D01*
X126340809Y-70630142D01*
X126340809Y-70509190D01*
X126074714Y-71017190D02*
X126074714Y-71186523D01*
X126340809Y-71259095D02*
X126340809Y-71017190D01*
X125832809Y-71017190D01*
X125832809Y-71259095D01*
X126340809Y-71863857D02*
X125832809Y-71863857D01*
X126340809Y-72105761D02*
X125832809Y-72105761D01*
X126340809Y-72396047D01*
X125832809Y-72396047D01*
X126292428Y-73315285D02*
X126316619Y-73291095D01*
X126340809Y-73218523D01*
X126340809Y-73170142D01*
X126316619Y-73097571D01*
X126268238Y-73049190D01*
X126219857Y-73025000D01*
X126123095Y-73000809D01*
X126050523Y-73000809D01*
X125953761Y-73025000D01*
X125905380Y-73049190D01*
X125857000Y-73097571D01*
X125832809Y-73170142D01*
X125832809Y-73218523D01*
X125857000Y-73291095D01*
X125881190Y-73315285D01*
X126340809Y-73533000D02*
X125832809Y-73533000D01*
X126074714Y-73533000D02*
X126074714Y-73823285D01*
X126340809Y-73823285D02*
X125832809Y-73823285D01*
X126340809Y-74065190D02*
X125832809Y-74065190D01*
X126340809Y-74307095D02*
X125832809Y-74307095D01*
X126340809Y-74597380D01*
X125832809Y-74597380D01*
X126195666Y-74815095D02*
X126195666Y-75057000D01*
X126340809Y-74766714D02*
X125832809Y-74936047D01*
X126340809Y-75105380D01*
D12*
X124018523Y-68561857D02*
X124018523Y-69287571D01*
X125288523Y-68924714D02*
X124018523Y-68924714D01*
X124623285Y-69710904D02*
X124623285Y-70134238D01*
X125288523Y-70315666D02*
X125288523Y-69710904D01*
X124018523Y-69710904D01*
X124018523Y-70315666D01*
X125228047Y-70799476D02*
X125288523Y-70980904D01*
X125288523Y-71283285D01*
X125228047Y-71404238D01*
X125167571Y-71464714D01*
X125046619Y-71525190D01*
X124925666Y-71525190D01*
X124804714Y-71464714D01*
X124744238Y-71404238D01*
X124683761Y-71283285D01*
X124623285Y-71041380D01*
X124562809Y-70920428D01*
X124502333Y-70859952D01*
X124381380Y-70799476D01*
X124260428Y-70799476D01*
X124139476Y-70859952D01*
X124079000Y-70920428D01*
X124018523Y-71041380D01*
X124018523Y-71343761D01*
X124079000Y-71525190D01*
X125167571Y-72795190D02*
X125228047Y-72734714D01*
X125288523Y-72553285D01*
X125288523Y-72432333D01*
X125228047Y-72250904D01*
X125107095Y-72129952D01*
X124986142Y-72069476D01*
X124744238Y-72009000D01*
X124562809Y-72009000D01*
X124320904Y-72069476D01*
X124199952Y-72129952D01*
X124079000Y-72250904D01*
X124018523Y-72432333D01*
X124018523Y-72553285D01*
X124079000Y-72734714D01*
X124139476Y-72795190D01*
D10*
X117843904Y-56998809D02*
X117529428Y-56998809D01*
X117698761Y-57192333D01*
X117626190Y-57192333D01*
X117577809Y-57216523D01*
X117553619Y-57240714D01*
X117529428Y-57289095D01*
X117529428Y-57410047D01*
X117553619Y-57458428D01*
X117577809Y-57482619D01*
X117626190Y-57506809D01*
X117771333Y-57506809D01*
X117819714Y-57482619D01*
X117843904Y-57458428D01*
X117311714Y-57458428D02*
X117287523Y-57482619D01*
X117311714Y-57506809D01*
X117335904Y-57482619D01*
X117311714Y-57458428D01*
X117311714Y-57506809D01*
X117118190Y-56998809D02*
X116803714Y-56998809D01*
X116973047Y-57192333D01*
X116900476Y-57192333D01*
X116852095Y-57216523D01*
X116827904Y-57240714D01*
X116803714Y-57289095D01*
X116803714Y-57410047D01*
X116827904Y-57458428D01*
X116852095Y-57482619D01*
X116900476Y-57506809D01*
X117045619Y-57506809D01*
X117094000Y-57482619D01*
X117118190Y-57458428D01*
X116658571Y-56998809D02*
X116489238Y-57506809D01*
X116319904Y-56998809D01*
X123540761Y-57125809D02*
X123782666Y-57125809D01*
X123806857Y-57367714D01*
X123782666Y-57343523D01*
X123734285Y-57319333D01*
X123613333Y-57319333D01*
X123564952Y-57343523D01*
X123540761Y-57367714D01*
X123516571Y-57416095D01*
X123516571Y-57537047D01*
X123540761Y-57585428D01*
X123564952Y-57609619D01*
X123613333Y-57633809D01*
X123734285Y-57633809D01*
X123782666Y-57609619D01*
X123806857Y-57585428D01*
X123371428Y-57125809D02*
X123202095Y-57633809D01*
X123032761Y-57125809D01*
D13*
X126750000Y-107400000D02*
X126000000Y-107400000D01*
X126000000Y-107400000D02*
X126000000Y-108000000D01*
X126000000Y-107100000D02*
X126000000Y-104950000D01*
X126000000Y-113250000D02*
X127825000Y-113250000D01*
X128925000Y-106000000D02*
X128925000Y-108100000D01*
X126000000Y-104950000D02*
X127825000Y-104950000D01*
X128925000Y-112200000D02*
X128925000Y-110100000D01*
X126000000Y-111100000D02*
X126000000Y-113250000D01*
X128925000Y-106000000D02*
X127825000Y-104950000D01*
X128925000Y-112200000D02*
X127825000Y-113250000D01*
D14*
X142516000Y-60532000D02*
X142516000Y-70532000D01*
X142516000Y-70532000D02*
X147716000Y-70532000D01*
X147716000Y-70532000D02*
X147716000Y-60532000D01*
X147716000Y-60532000D02*
X142516000Y-60532000D01*
X167834000Y-60532000D02*
X167834000Y-70532000D01*
X167834000Y-70532000D02*
X173034000Y-70532000D01*
X173034000Y-70532000D02*
X173034000Y-60532000D01*
X173034000Y-60532000D02*
X167834000Y-60532000D01*
X155134000Y-60532000D02*
X155134000Y-70532000D01*
X155134000Y-70532000D02*
X160334000Y-70532000D01*
X160334000Y-70532000D02*
X160334000Y-60532000D01*
X160334000Y-60532000D02*
X155134000Y-60532000D01*
X138692300Y-102406700D02*
X138942300Y-102656700D01*
X139192300Y-102406700D02*
X138692300Y-102406700D01*
X138942300Y-102656700D02*
X139192300Y-102406700D01*
X139192300Y-102656700D02*
X138692300Y-102656700D01*
X138942300Y-102606700D02*
X138942300Y-102156700D01*
X139492300Y-103506700D02*
X139492300Y-101606700D01*
X138392300Y-103506700D02*
X138392300Y-101606700D01*
X137164000Y-102438200D02*
X137414000Y-102688200D01*
X137664000Y-102438200D02*
X137164000Y-102438200D01*
X137414000Y-102688200D02*
X137664000Y-102438200D01*
X137664000Y-102688200D02*
X137164000Y-102688200D01*
X137414000Y-102638200D02*
X137414000Y-102188200D01*
X137964000Y-103538200D02*
X137964000Y-101638200D01*
X136864000Y-103538200D02*
X136864000Y-101638200D01*
X135640000Y-102438200D02*
X135890000Y-102688200D01*
X136140000Y-102438200D02*
X135640000Y-102438200D01*
X135890000Y-102688200D02*
X136140000Y-102438200D01*
X136140000Y-102688200D02*
X135640000Y-102688200D01*
X135890000Y-102638200D02*
X135890000Y-102188200D01*
X136440000Y-103538200D02*
X136440000Y-101638200D01*
X135340000Y-103538200D02*
X135340000Y-101638200D01*
D13*
X124335000Y-78386000D02*
X126785000Y-78386000D01*
X126135000Y-81606000D02*
X124335000Y-81606000D01*
D14*
X123619000Y-59092000D02*
X123619000Y-59892000D01*
X116919000Y-59892000D02*
X116919000Y-59092000D01*
X118669000Y-60792000D02*
X120369000Y-60792000D01*
X117419000Y-58192000D02*
X123119000Y-58192000D01*
X120169000Y-56892000D02*
X120169000Y-58192000D01*
X119069000Y-56692000D02*
X119969000Y-56692000D01*
X118869000Y-58192000D02*
X118869000Y-56892000D01*
X120169000Y-56892000D02*
X119969000Y-56692000D01*
X118869000Y-56892000D02*
X119069000Y-56692000D01*
X121669000Y-60792000D02*
X121869000Y-60792000D01*
X119519000Y-58492000D02*
X119519000Y-58192000D01*
X121019000Y-58492000D02*
X121019000Y-58192000D01*
D13*
X121738500Y-79396000D02*
X121738500Y-80596000D01*
X123498500Y-80596000D02*
X123498500Y-79396000D01*
X121832000Y-84997000D02*
X121832000Y-82897000D01*
X121832000Y-82897000D02*
X126082000Y-82897000D01*
X121832000Y-84997000D02*
X126082000Y-84997000D01*
D14*
X137565000Y-64111000D02*
X137565000Y-62861000D01*
X140740000Y-64111000D02*
X140740000Y-67461000D01*
X137390000Y-64111000D02*
X137390000Y-67461000D01*
X140740000Y-64111000D02*
X140490000Y-64111000D01*
X140740000Y-67461000D02*
X140490000Y-67461000D01*
X137390000Y-67461000D02*
X137640000Y-67461000D01*
X137390000Y-64111000D02*
X137565000Y-64111000D01*
X136043800Y-64870200D02*
X136043800Y-66120200D01*
X132868800Y-64870200D02*
X132868800Y-61520200D01*
X136218800Y-64870200D02*
X136218800Y-61520200D01*
X132868800Y-64870200D02*
X133118800Y-64870200D01*
X132868800Y-61520200D02*
X133118800Y-61520200D01*
X136218800Y-61520200D02*
X135968800Y-61520200D01*
X136218800Y-64870200D02*
X136043800Y-64870200D01*
X130265300Y-66013200D02*
X130265300Y-67263200D01*
X127090300Y-66013200D02*
X127090300Y-62663200D01*
X130440300Y-66013200D02*
X130440300Y-62663200D01*
X127090300Y-66013200D02*
X127340300Y-66013200D01*
X127090300Y-62663200D02*
X127340300Y-62663200D01*
X130440300Y-62663200D02*
X130190300Y-62663200D01*
X130440300Y-66013200D02*
X130265300Y-66013200D01*
X141908000Y-77898500D02*
X141908000Y-75898500D01*
X144858000Y-75898500D02*
X144858000Y-77898500D01*
X145210000Y-77898500D02*
X145210000Y-75898500D01*
X148160000Y-75898500D02*
X148160000Y-77898500D01*
X157910000Y-77898500D02*
X157910000Y-75898500D01*
X160860000Y-75898500D02*
X160860000Y-77898500D01*
X154608000Y-77898500D02*
X154608000Y-75898500D01*
X157558000Y-75898500D02*
X157558000Y-77898500D01*
X167308000Y-77898500D02*
X167308000Y-75898500D01*
X170258000Y-75898500D02*
X170258000Y-77898500D01*
X170483000Y-77898500D02*
X170483000Y-75898500D01*
X173433000Y-75898500D02*
X173433000Y-77898500D01*
X131231000Y-102989000D02*
X131231000Y-101989000D01*
X129881000Y-101989000D02*
X129881000Y-102989000D01*
X128103000Y-101989000D02*
X128103000Y-102989000D01*
X129453000Y-102989000D02*
X129453000Y-101989000D01*
X126329300Y-101977000D02*
X126329300Y-102977000D01*
X127679300Y-102977000D02*
X127679300Y-101977000D01*
X122166000Y-95908500D02*
X121166000Y-95908500D01*
X121166000Y-97258500D02*
X122166000Y-97258500D01*
X137676000Y-105450000D02*
X138676000Y-105450000D01*
X138676000Y-104100000D02*
X137676000Y-104100000D01*
X133281800Y-105018200D02*
X134281800Y-105018200D01*
X134281800Y-103668200D02*
X133281800Y-103668200D01*
X133281800Y-103418000D02*
X134281800Y-103418000D01*
X134281800Y-102068000D02*
X133281800Y-102068000D01*
X133956000Y-83869000D02*
X133956000Y-82869000D01*
X132606000Y-82869000D02*
X132606000Y-83869000D01*
X132359800Y-83880200D02*
X132359800Y-82880200D01*
X131009800Y-82880200D02*
X131009800Y-83880200D01*
X131716500Y-72176000D02*
X132716500Y-72176000D01*
X132716500Y-70826000D02*
X131716500Y-70826000D01*
X131716500Y-73636500D02*
X132716500Y-73636500D01*
X132716500Y-72286500D02*
X131716500Y-72286500D01*
X131716500Y-75160500D02*
X132716500Y-75160500D01*
X132716500Y-73810500D02*
X131716500Y-73810500D01*
X131716500Y-76684500D02*
X132716500Y-76684500D01*
X132716500Y-75334500D02*
X131716500Y-75334500D01*
X131716500Y-78208500D02*
X132716500Y-78208500D01*
X132716500Y-76858500D02*
X131716500Y-76858500D01*
X131716500Y-79732500D02*
X132716500Y-79732500D01*
X132716500Y-78382500D02*
X131716500Y-78382500D01*
X139172000Y-70254500D02*
X138172000Y-70254500D01*
X138172000Y-71604500D02*
X139172000Y-71604500D01*
X139171300Y-71791200D02*
X138171300Y-71791200D01*
X138171300Y-73141200D02*
X139171300Y-73141200D01*
X139184000Y-73302500D02*
X138184000Y-73302500D01*
X138184000Y-74652500D02*
X139184000Y-74652500D01*
X139184000Y-74826500D02*
X138184000Y-74826500D01*
X138184000Y-76176500D02*
X139184000Y-76176500D01*
X139184000Y-76350500D02*
X138184000Y-76350500D01*
X138184000Y-77700500D02*
X139184000Y-77700500D01*
X139184000Y-77874500D02*
X138184000Y-77874500D01*
X138184000Y-79224500D02*
X139184000Y-79224500D01*
X134914000Y-93032200D02*
X134914000Y-92032200D01*
X133564000Y-92032200D02*
X133564000Y-93032200D01*
X131866000Y-93032200D02*
X131866000Y-92032200D01*
X130516000Y-92032200D02*
X130516000Y-93032200D01*
X128818000Y-93032200D02*
X128818000Y-92032200D01*
X127468000Y-92032200D02*
X127468000Y-93032200D01*
X136179000Y-68103000D02*
X136179000Y-68803000D01*
X137379000Y-68803000D02*
X137379000Y-68103000D01*
X134905000Y-97374000D02*
X135605000Y-97374000D01*
X135605000Y-96174000D02*
X134905000Y-96174000D01*
X121303300Y-95735700D02*
X122003300Y-95735700D01*
X122003300Y-94535700D02*
X121303300Y-94535700D01*
X138388800Y-88245200D02*
X138388800Y-88945200D01*
X139588800Y-88945200D02*
X139588800Y-88245200D01*
X126523000Y-96612000D02*
X127223000Y-96612000D01*
X127223000Y-95412000D02*
X126523000Y-95412000D01*
X134077000Y-99295000D02*
X134077000Y-98595000D01*
X132877000Y-98595000D02*
X132877000Y-99295000D01*
X131537000Y-88869000D02*
X131537000Y-88169000D01*
X130337000Y-88169000D02*
X130337000Y-88869000D01*
X128235000Y-79598000D02*
X128235000Y-78898000D01*
X127035000Y-78898000D02*
X127035000Y-79598000D01*
X133315000Y-92882200D02*
X133315000Y-92182200D01*
X132115000Y-92182200D02*
X132115000Y-92882200D01*
X130267000Y-92882200D02*
X130267000Y-92182200D01*
X129067000Y-92182200D02*
X129067000Y-92882200D01*
X132553000Y-64231000D02*
X132553000Y-63531000D01*
X131353000Y-63531000D02*
X131353000Y-64231000D01*
X126774500Y-64687500D02*
X126774500Y-63987500D01*
X125574500Y-63987500D02*
X125574500Y-64687500D01*
X127219000Y-92882200D02*
X127219000Y-92182200D01*
X126019000Y-92182200D02*
X126019000Y-92882200D01*
X130011249Y-112190777D02*
X130506223Y-112685751D01*
X131354751Y-111837223D02*
X130859777Y-111342249D01*
X138847751Y-106757223D02*
X138352777Y-106262249D01*
X137504249Y-107110777D02*
X137999223Y-107605751D01*
X124810000Y-81696000D02*
X124110000Y-81696000D01*
X124110000Y-82896000D02*
X124810000Y-82896000D01*
X131928901Y-110612256D02*
X131433926Y-111107231D01*
X132211744Y-108208093D02*
X131858190Y-107854540D01*
X133203164Y-107216673D02*
X132211744Y-108208093D01*
X134615171Y-110612992D02*
X135606592Y-109621571D01*
X135605856Y-106935301D02*
X135888699Y-107218144D01*
X131928901Y-110612256D02*
X132211744Y-110895099D01*
X137506000Y-88739320D02*
X137506000Y-88339320D01*
X132306000Y-88739320D02*
X132306000Y-88339320D01*
X135607040Y-86839320D02*
X134204960Y-86839320D01*
X134203920Y-90239320D02*
X135606000Y-90239320D01*
X135606000Y-90239320D02*
X135606000Y-90739320D01*
X137506000Y-88739320D02*
X138206000Y-88739320D01*
D15*
X119699260Y-106202020D02*
X119699260Y-98201020D01*
X115698760Y-98701400D02*
X115698760Y-105701640D01*
X115200920Y-106202020D02*
X115200920Y-98201020D01*
X116199140Y-103103220D02*
X115698760Y-103103220D01*
X116199140Y-103301340D02*
X116199140Y-103103220D01*
X115698760Y-103301340D02*
X116199140Y-103301340D01*
X115698760Y-101302360D02*
X116199140Y-101302360D01*
X116199140Y-101302360D02*
X116199140Y-101104240D01*
X116199140Y-101104240D02*
X115698760Y-101104240D01*
X118500380Y-98201020D02*
X118500380Y-98701400D01*
X117199900Y-98701400D02*
X117199900Y-98201020D01*
X117199900Y-105701640D02*
X117199900Y-106202020D01*
X118500380Y-105701640D02*
X118500380Y-106202020D01*
X119699260Y-103702660D02*
X119198880Y-103702660D01*
X119198880Y-103702660D02*
X119198880Y-105701640D01*
X119198880Y-105701640D02*
X115698760Y-105701640D01*
X115698760Y-98701400D02*
X119198880Y-98701400D01*
X119198880Y-98701400D02*
X119198880Y-100700380D01*
X119198880Y-100700380D02*
X119699260Y-100700380D01*
X119699260Y-106202020D02*
X115200920Y-106202020D01*
X119699260Y-98201020D02*
X115200920Y-98201020D01*
X119699260Y-104502760D02*
X119899920Y-104502760D01*
X119899920Y-104502760D02*
X119899920Y-104802480D01*
X119899920Y-104802480D02*
X119699260Y-104802480D01*
X120083580Y-110258860D02*
X120083580Y-110759240D01*
X120281700Y-110258860D02*
X120083580Y-110258860D01*
X120281700Y-110759240D02*
X120281700Y-110258860D01*
X125183900Y-111257080D02*
X115181380Y-111257080D01*
X115681760Y-110759240D02*
X124683520Y-110759240D01*
X125183900Y-106758740D02*
X115181380Y-106758740D01*
X122085100Y-110258860D02*
X122085100Y-110759240D01*
X122283220Y-110258860D02*
X122085100Y-110258860D01*
X122283220Y-110759240D02*
X122283220Y-110258860D01*
X118282720Y-110759240D02*
X118282720Y-110258860D01*
X118282720Y-110258860D02*
X118084600Y-110258860D01*
X118084600Y-110258860D02*
X118084600Y-110759240D01*
X115181380Y-107957620D02*
X115681760Y-107957620D01*
X115681760Y-109258100D02*
X115181380Y-109258100D01*
X124683520Y-109258100D02*
X125183900Y-109258100D01*
X124683520Y-107957620D02*
X125183900Y-107957620D01*
X122684540Y-106758740D02*
X122684540Y-107259120D01*
X122684540Y-107259120D02*
X124683520Y-107259120D01*
X124683520Y-107259120D02*
X124683520Y-110759240D01*
X115681760Y-110759240D02*
X115681760Y-107259120D01*
X115681760Y-107259120D02*
X117680740Y-107259120D01*
X117680740Y-107259120D02*
X117680740Y-106758740D01*
X125183900Y-106758740D02*
X125183900Y-111257080D01*
X115181380Y-106758740D02*
X115181380Y-111257080D01*
X123484640Y-106758740D02*
X123484640Y-106558080D01*
X123484640Y-106558080D02*
X123784360Y-106558080D01*
X123784360Y-106558080D02*
X123784360Y-106758740D01*
X138850240Y-59699260D02*
X124849760Y-59699260D01*
X124849760Y-55200920D02*
X138850240Y-55200920D01*
X138349860Y-55698760D02*
X125350140Y-55698760D01*
X133747380Y-55698760D02*
X133747380Y-56199140D01*
X133747380Y-56199140D02*
X133945500Y-56199140D01*
X133945500Y-56199140D02*
X133945500Y-55698760D01*
X135947020Y-56199140D02*
X135947020Y-55698760D01*
X135748900Y-56199140D02*
X135947020Y-56199140D01*
X135748900Y-55698760D02*
X135748900Y-56199140D01*
X129947540Y-56199140D02*
X129947540Y-55698760D01*
X129749420Y-56199140D02*
X129947540Y-56199140D01*
X129749420Y-55698760D02*
X129749420Y-56199140D01*
X127946020Y-56199140D02*
X127946020Y-55698760D01*
X127747900Y-56199140D02*
X127946020Y-56199140D01*
X127747900Y-55698760D02*
X127747900Y-56199140D01*
X131748400Y-55698760D02*
X131748400Y-56199140D01*
X131748400Y-56199140D02*
X131946520Y-56199140D01*
X131946520Y-56199140D02*
X131946520Y-55698760D01*
X138850240Y-58500380D02*
X138349860Y-58500380D01*
X138349860Y-57199900D02*
X138850240Y-57199900D01*
X125347600Y-57199900D02*
X124847220Y-57199900D01*
X125347600Y-58500380D02*
X124847220Y-58500380D01*
X127346580Y-59699260D02*
X127346580Y-59198880D01*
X127346580Y-59198880D02*
X125347600Y-59198880D01*
X125347600Y-59198880D02*
X125347600Y-55698760D01*
X138349860Y-55698760D02*
X138349860Y-59198880D01*
X138349860Y-59198880D02*
X136350880Y-59198880D01*
X136350880Y-59198880D02*
X136350880Y-59699260D01*
X124847220Y-59699260D02*
X124847220Y-55200920D01*
X138850240Y-59699260D02*
X138850240Y-55200920D01*
X126546480Y-59699260D02*
X126546480Y-59899920D01*
X126546480Y-59899920D02*
X126246760Y-59899920D01*
X126246760Y-59899920D02*
X126246760Y-59699260D01*
X115183920Y-93299220D02*
X115183920Y-75300780D01*
X115681760Y-75801160D02*
X115681760Y-92798840D01*
X119682260Y-93299220D02*
X119682260Y-75300780D01*
X115681760Y-82400080D02*
X116182140Y-82400080D01*
X116182140Y-82400080D02*
X116182140Y-82201960D01*
X116182140Y-82201960D02*
X115681760Y-82201960D01*
X115681760Y-78402120D02*
X116182140Y-78402120D01*
X116182140Y-78402120D02*
X116182140Y-78204000D01*
X116182140Y-78204000D02*
X115681760Y-78204000D01*
X115681760Y-84404140D02*
X116182140Y-84404140D01*
X116182140Y-84404140D02*
X116182140Y-84206020D01*
X116182140Y-84206020D02*
X115681760Y-84206020D01*
X116182140Y-80202980D02*
X115681760Y-80202980D01*
X116182140Y-80401100D02*
X116182140Y-80202980D01*
X115681760Y-80401100D02*
X116182140Y-80401100D01*
X116182140Y-88203980D02*
X115681760Y-88203980D01*
X116182140Y-88402100D02*
X116182140Y-88203980D01*
X115681760Y-88402100D02*
X116182140Y-88402100D01*
X116182140Y-90205500D02*
X115681760Y-90205500D01*
X116182140Y-90403620D02*
X116182140Y-90205500D01*
X115681760Y-90403620D02*
X116182140Y-90403620D01*
X115681760Y-86403120D02*
X116182140Y-86403120D01*
X116182140Y-86403120D02*
X116182140Y-86205000D01*
X116182140Y-86205000D02*
X115681760Y-86205000D01*
X118483380Y-75300780D02*
X118483380Y-75801160D01*
X117182900Y-75801160D02*
X117182900Y-75300780D01*
X117182900Y-92803920D02*
X117182900Y-93304300D01*
X118483380Y-92803920D02*
X118483380Y-93304300D01*
X119682260Y-90804940D02*
X119181880Y-90804940D01*
X119181880Y-90804940D02*
X119181880Y-92803920D01*
X119181880Y-92803920D02*
X115681760Y-92803920D01*
X115681760Y-75801160D02*
X119181880Y-75801160D01*
X119181880Y-75801160D02*
X119181880Y-77800140D01*
X119181880Y-77800140D02*
X119682260Y-77800140D01*
X119682260Y-93304300D02*
X115183920Y-93304300D01*
X119682260Y-75300780D02*
X115183920Y-75300780D01*
X119682260Y-91605040D02*
X119882920Y-91605040D01*
X119882920Y-91605040D02*
X119882920Y-91904760D01*
X119882920Y-91904760D02*
X119682260Y-91904760D01*
X119682260Y-62800520D02*
X119682260Y-74799480D01*
X115681760Y-74299100D02*
X115681760Y-63300900D01*
X115183920Y-62800520D02*
X115183920Y-74799480D01*
X116182140Y-65703740D02*
X115681760Y-65703740D01*
X116182140Y-65901860D02*
X116182140Y-65703740D01*
X115681760Y-65901860D02*
X116182140Y-65901860D01*
X116182140Y-69701700D02*
X115681760Y-69701700D01*
X116182140Y-69899820D02*
X116182140Y-69701700D01*
X115681760Y-69899820D02*
X116182140Y-69899820D01*
X116182140Y-71703220D02*
X115681760Y-71703220D01*
X116182140Y-71901340D02*
X116182140Y-71703220D01*
X115681760Y-71901340D02*
X116182140Y-71901340D01*
X115681760Y-67900840D02*
X116182140Y-67900840D01*
X116182140Y-67900840D02*
X116182140Y-67702720D01*
X116182140Y-67702720D02*
X115681760Y-67702720D01*
X118483380Y-62800520D02*
X118483380Y-63300900D01*
X117182900Y-63300900D02*
X117182900Y-62800520D01*
X117182900Y-74301640D02*
X117182900Y-74802020D01*
X118483380Y-74301640D02*
X118483380Y-74802020D01*
X119682260Y-72302660D02*
X119181880Y-72302660D01*
X119181880Y-72302660D02*
X119181880Y-74301640D01*
X119181880Y-74301640D02*
X115681760Y-74301640D01*
X115681760Y-63300900D02*
X119181880Y-63300900D01*
X119181880Y-63300900D02*
X119181880Y-65299880D01*
X119181880Y-65299880D02*
X119682260Y-65299880D01*
X119682260Y-74802020D02*
X115183920Y-74802020D01*
X119682260Y-62800520D02*
X115183920Y-62800520D01*
X119682260Y-73102760D02*
X119882920Y-73102760D01*
X119882920Y-73102760D02*
X119882920Y-73402480D01*
X119882920Y-73402480D02*
X119682260Y-73402480D01*
D13*
X137579053Y-109507865D02*
X135669865Y-111417053D01*
X139085191Y-111848388D02*
X139530668Y-112293866D01*
X137557840Y-113375739D02*
X138010388Y-112923191D01*
X139537739Y-111395840D02*
X139085191Y-111848388D01*
D14*
X142314500Y-55231000D02*
X142314500Y-59831000D01*
X142314500Y-59831000D02*
X147914500Y-59831000D01*
X147914500Y-59831000D02*
X147914500Y-55231000D01*
X147914500Y-55231000D02*
X142314500Y-55231000D01*
X154934000Y-55231000D02*
X154934000Y-59831000D01*
X154934000Y-59831000D02*
X160534000Y-59831000D01*
X160534000Y-59831000D02*
X160534000Y-55231000D01*
X160534000Y-55231000D02*
X154934000Y-55231000D01*
X167634000Y-55231000D02*
X167634000Y-59831000D01*
X167634000Y-59831000D02*
X173234000Y-59831000D01*
X173234000Y-59831000D02*
X173234000Y-55231000D01*
X173234000Y-55231000D02*
X167634000Y-55231000D01*
X154434000Y-89600000D02*
X161034000Y-89600000D01*
X161034000Y-89600000D02*
X161034000Y-84000000D01*
X161034000Y-84000000D02*
X154434000Y-84000000D01*
X154434000Y-84000000D02*
X154434000Y-89600000D01*
X122946800Y-88539700D02*
X122946800Y-89539700D01*
X124296800Y-89539700D02*
X124296800Y-88539700D01*
X120644650Y-87563244D02*
X121351756Y-88270350D01*
X122306350Y-87315756D02*
X121599244Y-86608650D01*
D10*
X128630809Y-106318047D02*
X128122809Y-106318047D01*
X128122809Y-106511571D01*
X128147000Y-106559952D01*
X128171190Y-106584142D01*
X128219571Y-106608333D01*
X128292142Y-106608333D01*
X128340523Y-106584142D01*
X128364714Y-106559952D01*
X128388904Y-106511571D01*
X128388904Y-106318047D01*
X128630809Y-107092142D02*
X128630809Y-106801857D01*
X128630809Y-106947000D02*
X128122809Y-106947000D01*
X128195380Y-106898619D01*
X128243761Y-106850238D01*
X128267952Y-106801857D01*
X145390809Y-65205428D02*
X145148904Y-65036095D01*
X145390809Y-64915142D02*
X144882809Y-64915142D01*
X144882809Y-65108666D01*
X144907000Y-65157047D01*
X144931190Y-65181238D01*
X144979571Y-65205428D01*
X145052142Y-65205428D01*
X145100523Y-65181238D01*
X145124714Y-65157047D01*
X145148904Y-65108666D01*
X145148904Y-64915142D01*
X144931190Y-65398952D02*
X144907000Y-65423142D01*
X144882809Y-65471523D01*
X144882809Y-65592476D01*
X144907000Y-65640857D01*
X144931190Y-65665047D01*
X144979571Y-65689238D01*
X145027952Y-65689238D01*
X145100523Y-65665047D01*
X145390809Y-65374761D01*
X145390809Y-65689238D01*
X145052142Y-66124666D02*
X145390809Y-66124666D01*
X144858619Y-66003714D02*
X145221476Y-65882761D01*
X145221476Y-66197238D01*
X170663809Y-65205428D02*
X170421904Y-65036095D01*
X170663809Y-64915142D02*
X170155809Y-64915142D01*
X170155809Y-65108666D01*
X170180000Y-65157047D01*
X170204190Y-65181238D01*
X170252571Y-65205428D01*
X170325142Y-65205428D01*
X170373523Y-65181238D01*
X170397714Y-65157047D01*
X170421904Y-65108666D01*
X170421904Y-64915142D01*
X170155809Y-65374761D02*
X170155809Y-65689238D01*
X170349333Y-65519904D01*
X170349333Y-65592476D01*
X170373523Y-65640857D01*
X170397714Y-65665047D01*
X170446095Y-65689238D01*
X170567047Y-65689238D01*
X170615428Y-65665047D01*
X170639619Y-65640857D01*
X170663809Y-65592476D01*
X170663809Y-65447333D01*
X170639619Y-65398952D01*
X170615428Y-65374761D01*
X170204190Y-65882761D02*
X170180000Y-65906952D01*
X170155809Y-65955333D01*
X170155809Y-66076285D01*
X170180000Y-66124666D01*
X170204190Y-66148857D01*
X170252571Y-66173047D01*
X170300952Y-66173047D01*
X170373523Y-66148857D01*
X170663809Y-65858571D01*
X170663809Y-66173047D01*
X157963809Y-65078428D02*
X157721904Y-64909095D01*
X157963809Y-64788142D02*
X157455809Y-64788142D01*
X157455809Y-64981666D01*
X157480000Y-65030047D01*
X157504190Y-65054238D01*
X157552571Y-65078428D01*
X157625142Y-65078428D01*
X157673523Y-65054238D01*
X157697714Y-65030047D01*
X157721904Y-64981666D01*
X157721904Y-64788142D01*
X157504190Y-65271952D02*
X157480000Y-65296142D01*
X157455809Y-65344523D01*
X157455809Y-65465476D01*
X157480000Y-65513857D01*
X157504190Y-65538047D01*
X157552571Y-65562238D01*
X157600952Y-65562238D01*
X157673523Y-65538047D01*
X157963809Y-65247761D01*
X157963809Y-65562238D01*
X157963809Y-65804142D02*
X157963809Y-65900904D01*
X157939619Y-65949285D01*
X157915428Y-65973476D01*
X157842857Y-66021857D01*
X157746095Y-66046047D01*
X157552571Y-66046047D01*
X157504190Y-66021857D01*
X157480000Y-65997666D01*
X157455809Y-65949285D01*
X157455809Y-65852523D01*
X157480000Y-65804142D01*
X157504190Y-65779952D01*
X157552571Y-65755761D01*
X157673523Y-65755761D01*
X157721904Y-65779952D01*
X157746095Y-65804142D01*
X157770285Y-65852523D01*
X157770285Y-65949285D01*
X157746095Y-65997666D01*
X157721904Y-66021857D01*
X157673523Y-66046047D01*
X139167809Y-99955047D02*
X138659809Y-99955047D01*
X138659809Y-100076000D01*
X138684000Y-100148571D01*
X138732380Y-100196952D01*
X138780761Y-100221142D01*
X138877523Y-100245333D01*
X138950095Y-100245333D01*
X139046857Y-100221142D01*
X139095238Y-100196952D01*
X139143619Y-100148571D01*
X139167809Y-100076000D01*
X139167809Y-99955047D01*
X139167809Y-100729142D02*
X139167809Y-100438857D01*
X139167809Y-100584000D02*
X138659809Y-100584000D01*
X138732380Y-100535619D01*
X138780761Y-100487238D01*
X138804952Y-100438857D01*
X137690309Y-99935747D02*
X137182309Y-99935747D01*
X137182309Y-100056700D01*
X137206500Y-100129271D01*
X137254880Y-100177652D01*
X137303261Y-100201842D01*
X137400023Y-100226033D01*
X137472595Y-100226033D01*
X137569357Y-100201842D01*
X137617738Y-100177652D01*
X137666119Y-100129271D01*
X137690309Y-100056700D01*
X137690309Y-99935747D01*
X137230690Y-100419557D02*
X137206500Y-100443747D01*
X137182309Y-100492128D01*
X137182309Y-100613080D01*
X137206500Y-100661461D01*
X137230690Y-100685652D01*
X137279071Y-100709842D01*
X137327452Y-100709842D01*
X137400023Y-100685652D01*
X137690309Y-100395366D01*
X137690309Y-100709842D01*
X136166309Y-99935747D02*
X135658309Y-99935747D01*
X135658309Y-100056700D01*
X135682500Y-100129271D01*
X135730880Y-100177652D01*
X135779261Y-100201842D01*
X135876023Y-100226033D01*
X135948595Y-100226033D01*
X136045357Y-100201842D01*
X136093738Y-100177652D01*
X136142119Y-100129271D01*
X136166309Y-100056700D01*
X136166309Y-99935747D01*
X135658309Y-100395366D02*
X135658309Y-100709842D01*
X135851833Y-100540509D01*
X135851833Y-100613080D01*
X135876023Y-100661461D01*
X135900214Y-100685652D01*
X135948595Y-100709842D01*
X136069547Y-100709842D01*
X136117928Y-100685652D01*
X136142119Y-100661461D01*
X136166309Y-100613080D01*
X136166309Y-100467938D01*
X136142119Y-100419557D01*
X136117928Y-100395366D01*
X125622047Y-77699809D02*
X125622047Y-78111047D01*
X125597857Y-78159428D01*
X125573666Y-78183619D01*
X125525285Y-78207809D01*
X125428523Y-78207809D01*
X125380142Y-78183619D01*
X125355952Y-78159428D01*
X125331761Y-78111047D01*
X125331761Y-77699809D01*
X125114047Y-77748190D02*
X125089857Y-77724000D01*
X125041476Y-77699809D01*
X124920523Y-77699809D01*
X124872142Y-77724000D01*
X124847952Y-77748190D01*
X124823761Y-77796571D01*
X124823761Y-77844952D01*
X124847952Y-77917523D01*
X125138238Y-78207809D01*
X124823761Y-78207809D01*
X120897952Y-59157809D02*
X120897952Y-59569047D01*
X120873761Y-59617428D01*
X120849571Y-59641619D01*
X120801190Y-59665809D01*
X120704428Y-59665809D01*
X120656047Y-59641619D01*
X120631857Y-59617428D01*
X120607666Y-59569047D01*
X120607666Y-59157809D01*
X120099666Y-59665809D02*
X120389952Y-59665809D01*
X120244809Y-59665809D02*
X120244809Y-59157809D01*
X120293190Y-59230380D01*
X120341571Y-59278761D01*
X120389952Y-59302952D01*
X119615857Y-59665809D02*
X119906142Y-59665809D01*
X119761000Y-59665809D02*
X119761000Y-59157809D01*
X119809380Y-59230380D01*
X119857761Y-59278761D01*
X119906142Y-59302952D01*
X122742166Y-78334809D02*
X122984071Y-78334809D01*
X122984071Y-77826809D01*
X122306738Y-78334809D02*
X122597023Y-78334809D01*
X122451880Y-78334809D02*
X122451880Y-77826809D01*
X122500261Y-77899380D01*
X122548642Y-77947761D01*
X122597023Y-77971952D01*
X125485071Y-85691428D02*
X125509261Y-85715619D01*
X125581833Y-85739809D01*
X125630214Y-85739809D01*
X125702785Y-85715619D01*
X125751166Y-85667238D01*
X125775357Y-85618857D01*
X125799547Y-85522095D01*
X125799547Y-85449523D01*
X125775357Y-85352761D01*
X125751166Y-85304380D01*
X125702785Y-85256000D01*
X125630214Y-85231809D01*
X125581833Y-85231809D01*
X125509261Y-85256000D01*
X125485071Y-85280190D01*
X125291547Y-85280190D02*
X125267357Y-85256000D01*
X125218976Y-85231809D01*
X125098023Y-85231809D01*
X125049642Y-85256000D01*
X125025452Y-85280190D01*
X125001261Y-85328571D01*
X125001261Y-85376952D01*
X125025452Y-85449523D01*
X125315738Y-85739809D01*
X125001261Y-85739809D01*
X124517452Y-85739809D02*
X124807738Y-85739809D01*
X124662595Y-85739809D02*
X124662595Y-85231809D01*
X124710976Y-85304380D01*
X124759357Y-85352761D01*
X124807738Y-85376952D01*
X138786809Y-65398952D02*
X139198047Y-65398952D01*
X139246428Y-65423142D01*
X139270619Y-65447333D01*
X139294809Y-65495714D01*
X139294809Y-65592476D01*
X139270619Y-65640857D01*
X139246428Y-65665047D01*
X139198047Y-65689238D01*
X138786809Y-65689238D01*
X138786809Y-66173047D02*
X138786809Y-65931142D01*
X139028714Y-65906952D01*
X139004523Y-65931142D01*
X138980333Y-65979523D01*
X138980333Y-66100476D01*
X139004523Y-66148857D01*
X139028714Y-66173047D01*
X139077095Y-66197238D01*
X139198047Y-66197238D01*
X139246428Y-66173047D01*
X139270619Y-66148857D01*
X139294809Y-66100476D01*
X139294809Y-65979523D01*
X139270619Y-65931142D01*
X139246428Y-65906952D01*
X134341809Y-62808152D02*
X134753047Y-62808152D01*
X134801428Y-62832342D01*
X134825619Y-62856533D01*
X134849809Y-62904914D01*
X134849809Y-63001676D01*
X134825619Y-63050057D01*
X134801428Y-63074247D01*
X134753047Y-63098438D01*
X134341809Y-63098438D01*
X134341809Y-63558057D02*
X134341809Y-63461295D01*
X134366000Y-63412914D01*
X134390190Y-63388723D01*
X134462761Y-63340342D01*
X134559523Y-63316152D01*
X134753047Y-63316152D01*
X134801428Y-63340342D01*
X134825619Y-63364533D01*
X134849809Y-63412914D01*
X134849809Y-63509676D01*
X134825619Y-63558057D01*
X134801428Y-63582247D01*
X134753047Y-63606438D01*
X134632095Y-63606438D01*
X134583714Y-63582247D01*
X134559523Y-63558057D01*
X134535333Y-63509676D01*
X134535333Y-63412914D01*
X134559523Y-63364533D01*
X134583714Y-63340342D01*
X134632095Y-63316152D01*
X128499809Y-63951152D02*
X128911047Y-63951152D01*
X128959428Y-63975342D01*
X128983619Y-63999533D01*
X129007809Y-64047914D01*
X129007809Y-64144676D01*
X128983619Y-64193057D01*
X128959428Y-64217247D01*
X128911047Y-64241438D01*
X128499809Y-64241438D01*
X128499809Y-64434961D02*
X128499809Y-64773628D01*
X129007809Y-64555914D01*
X143709571Y-77079928D02*
X143733761Y-77104119D01*
X143806333Y-77128309D01*
X143854714Y-77128309D01*
X143927285Y-77104119D01*
X143975666Y-77055738D01*
X143999857Y-77007357D01*
X144024047Y-76910595D01*
X144024047Y-76838023D01*
X143999857Y-76741261D01*
X143975666Y-76692880D01*
X143927285Y-76644500D01*
X143854714Y-76620309D01*
X143806333Y-76620309D01*
X143733761Y-76644500D01*
X143709571Y-76668690D01*
X143540238Y-76620309D02*
X143225761Y-76620309D01*
X143395095Y-76813833D01*
X143322523Y-76813833D01*
X143274142Y-76838023D01*
X143249952Y-76862214D01*
X143225761Y-76910595D01*
X143225761Y-77031547D01*
X143249952Y-77079928D01*
X143274142Y-77104119D01*
X143322523Y-77128309D01*
X143467666Y-77128309D01*
X143516047Y-77104119D01*
X143540238Y-77079928D01*
X143056428Y-76620309D02*
X142717761Y-76620309D01*
X142935476Y-77128309D01*
X147011571Y-77055928D02*
X147035761Y-77080119D01*
X147108333Y-77104309D01*
X147156714Y-77104309D01*
X147229285Y-77080119D01*
X147277666Y-77031738D01*
X147301857Y-76983357D01*
X147326047Y-76886595D01*
X147326047Y-76814023D01*
X147301857Y-76717261D01*
X147277666Y-76668880D01*
X147229285Y-76620500D01*
X147156714Y-76596309D01*
X147108333Y-76596309D01*
X147035761Y-76620500D01*
X147011571Y-76644690D01*
X146842238Y-76596309D02*
X146527761Y-76596309D01*
X146697095Y-76789833D01*
X146624523Y-76789833D01*
X146576142Y-76814023D01*
X146551952Y-76838214D01*
X146527761Y-76886595D01*
X146527761Y-77007547D01*
X146551952Y-77055928D01*
X146576142Y-77080119D01*
X146624523Y-77104309D01*
X146769666Y-77104309D01*
X146818047Y-77080119D01*
X146842238Y-77055928D01*
X146285857Y-77104309D02*
X146189095Y-77104309D01*
X146140714Y-77080119D01*
X146116523Y-77055928D01*
X146068142Y-76983357D01*
X146043952Y-76886595D01*
X146043952Y-76693071D01*
X146068142Y-76644690D01*
X146092333Y-76620500D01*
X146140714Y-76596309D01*
X146237476Y-76596309D01*
X146285857Y-76620500D01*
X146310047Y-76644690D01*
X146334238Y-76693071D01*
X146334238Y-76814023D01*
X146310047Y-76862404D01*
X146285857Y-76886595D01*
X146237476Y-76910785D01*
X146140714Y-76910785D01*
X146092333Y-76886595D01*
X146068142Y-76862404D01*
X146043952Y-76814023D01*
X159711571Y-77079928D02*
X159735761Y-77104119D01*
X159808333Y-77128309D01*
X159856714Y-77128309D01*
X159929285Y-77104119D01*
X159977666Y-77055738D01*
X160001857Y-77007357D01*
X160026047Y-76910595D01*
X160026047Y-76838023D01*
X160001857Y-76741261D01*
X159977666Y-76692880D01*
X159929285Y-76644500D01*
X159856714Y-76620309D01*
X159808333Y-76620309D01*
X159735761Y-76644500D01*
X159711571Y-76668690D01*
X159276142Y-76789642D02*
X159276142Y-77128309D01*
X159397095Y-76596119D02*
X159518047Y-76958976D01*
X159203571Y-76958976D01*
X158913285Y-76620309D02*
X158864904Y-76620309D01*
X158816523Y-76644500D01*
X158792333Y-76668690D01*
X158768142Y-76717071D01*
X158743952Y-76813833D01*
X158743952Y-76934785D01*
X158768142Y-77031547D01*
X158792333Y-77079928D01*
X158816523Y-77104119D01*
X158864904Y-77128309D01*
X158913285Y-77128309D01*
X158961666Y-77104119D01*
X158985857Y-77079928D01*
X159010047Y-77031547D01*
X159034238Y-76934785D01*
X159034238Y-76813833D01*
X159010047Y-76717071D01*
X158985857Y-76668690D01*
X158961666Y-76644500D01*
X158913285Y-76620309D01*
X156536571Y-77079928D02*
X156560761Y-77104119D01*
X156633333Y-77128309D01*
X156681714Y-77128309D01*
X156754285Y-77104119D01*
X156802666Y-77055738D01*
X156826857Y-77007357D01*
X156851047Y-76910595D01*
X156851047Y-76838023D01*
X156826857Y-76741261D01*
X156802666Y-76692880D01*
X156754285Y-76644500D01*
X156681714Y-76620309D01*
X156633333Y-76620309D01*
X156560761Y-76644500D01*
X156536571Y-76668690D01*
X156101142Y-76789642D02*
X156101142Y-77128309D01*
X156222095Y-76596119D02*
X156343047Y-76958976D01*
X156028571Y-76958976D01*
X155568952Y-77128309D02*
X155859238Y-77128309D01*
X155714095Y-77128309D02*
X155714095Y-76620309D01*
X155762476Y-76692880D01*
X155810857Y-76741261D01*
X155859238Y-76765452D01*
X169109571Y-77079928D02*
X169133761Y-77104119D01*
X169206333Y-77128309D01*
X169254714Y-77128309D01*
X169327285Y-77104119D01*
X169375666Y-77055738D01*
X169399857Y-77007357D01*
X169424047Y-76910595D01*
X169424047Y-76838023D01*
X169399857Y-76741261D01*
X169375666Y-76692880D01*
X169327285Y-76644500D01*
X169254714Y-76620309D01*
X169206333Y-76620309D01*
X169133761Y-76644500D01*
X169109571Y-76668690D01*
X168674142Y-76789642D02*
X168674142Y-77128309D01*
X168795095Y-76596119D02*
X168916047Y-76958976D01*
X168601571Y-76958976D01*
X168456428Y-76620309D02*
X168141952Y-76620309D01*
X168311285Y-76813833D01*
X168238714Y-76813833D01*
X168190333Y-76838023D01*
X168166142Y-76862214D01*
X168141952Y-76910595D01*
X168141952Y-77031547D01*
X168166142Y-77079928D01*
X168190333Y-77104119D01*
X168238714Y-77128309D01*
X168383857Y-77128309D01*
X168432238Y-77104119D01*
X168456428Y-77079928D01*
X172284571Y-77079928D02*
X172308761Y-77104119D01*
X172381333Y-77128309D01*
X172429714Y-77128309D01*
X172502285Y-77104119D01*
X172550666Y-77055738D01*
X172574857Y-77007357D01*
X172599047Y-76910595D01*
X172599047Y-76838023D01*
X172574857Y-76741261D01*
X172550666Y-76692880D01*
X172502285Y-76644500D01*
X172429714Y-76620309D01*
X172381333Y-76620309D01*
X172308761Y-76644500D01*
X172284571Y-76668690D01*
X171849142Y-76789642D02*
X171849142Y-77128309D01*
X171970095Y-76596119D02*
X172091047Y-76958976D01*
X171776571Y-76958976D01*
X171365333Y-76789642D02*
X171365333Y-77128309D01*
X171486285Y-76596119D02*
X171607238Y-76958976D01*
X171292761Y-76958976D01*
X130735009Y-100550133D02*
X130493104Y-100380800D01*
X130735009Y-100259847D02*
X130227009Y-100259847D01*
X130227009Y-100453371D01*
X130251200Y-100501752D01*
X130275390Y-100525942D01*
X130323771Y-100550133D01*
X130396342Y-100550133D01*
X130444723Y-100525942D01*
X130468914Y-100501752D01*
X130493104Y-100453371D01*
X130493104Y-100259847D01*
X130735009Y-101033942D02*
X130735009Y-100743657D01*
X130735009Y-100888800D02*
X130227009Y-100888800D01*
X130299580Y-100840419D01*
X130347961Y-100792038D01*
X130372152Y-100743657D01*
X129003509Y-100581633D02*
X128761604Y-100412300D01*
X129003509Y-100291347D02*
X128495509Y-100291347D01*
X128495509Y-100484871D01*
X128519700Y-100533252D01*
X128543890Y-100557442D01*
X128592271Y-100581633D01*
X128664842Y-100581633D01*
X128713223Y-100557442D01*
X128737414Y-100533252D01*
X128761604Y-100484871D01*
X128761604Y-100291347D01*
X128543890Y-100775157D02*
X128519700Y-100799347D01*
X128495509Y-100847728D01*
X128495509Y-100968680D01*
X128519700Y-101017061D01*
X128543890Y-101041252D01*
X128592271Y-101065442D01*
X128640652Y-101065442D01*
X128713223Y-101041252D01*
X129003509Y-100750966D01*
X129003509Y-101065442D01*
X127229809Y-100569633D02*
X126987904Y-100400300D01*
X127229809Y-100279347D02*
X126721809Y-100279347D01*
X126721809Y-100472871D01*
X126746000Y-100521252D01*
X126770190Y-100545442D01*
X126818571Y-100569633D01*
X126891142Y-100569633D01*
X126939523Y-100545442D01*
X126963714Y-100521252D01*
X126987904Y-100472871D01*
X126987904Y-100279347D01*
X126721809Y-100738966D02*
X126721809Y-101053442D01*
X126915333Y-100884109D01*
X126915333Y-100956680D01*
X126939523Y-101005061D01*
X126963714Y-101029252D01*
X127012095Y-101053442D01*
X127133047Y-101053442D01*
X127181428Y-101029252D01*
X127205619Y-101005061D01*
X127229809Y-100956680D01*
X127229809Y-100811538D01*
X127205619Y-100763157D01*
X127181428Y-100738966D01*
X123350866Y-96800609D02*
X123520200Y-96558704D01*
X123641152Y-96800609D02*
X123641152Y-96292609D01*
X123447628Y-96292609D01*
X123399247Y-96316800D01*
X123375057Y-96340990D01*
X123350866Y-96389371D01*
X123350866Y-96461942D01*
X123375057Y-96510323D01*
X123399247Y-96534514D01*
X123447628Y-96558704D01*
X123641152Y-96558704D01*
X122915438Y-96292609D02*
X123012200Y-96292609D01*
X123060580Y-96316800D01*
X123084771Y-96340990D01*
X123133152Y-96413561D01*
X123157342Y-96510323D01*
X123157342Y-96703847D01*
X123133152Y-96752228D01*
X123108961Y-96776419D01*
X123060580Y-96800609D01*
X122963819Y-96800609D01*
X122915438Y-96776419D01*
X122891247Y-96752228D01*
X122867057Y-96703847D01*
X122867057Y-96582895D01*
X122891247Y-96534514D01*
X122915438Y-96510323D01*
X122963819Y-96486133D01*
X123060580Y-96486133D01*
X123108961Y-96510323D01*
X123133152Y-96534514D01*
X123157342Y-96582895D01*
X136609666Y-105004809D02*
X136779000Y-104762904D01*
X136899952Y-105004809D02*
X136899952Y-104496809D01*
X136706428Y-104496809D01*
X136658047Y-104521000D01*
X136633857Y-104545190D01*
X136609666Y-104593571D01*
X136609666Y-104666142D01*
X136633857Y-104714523D01*
X136658047Y-104738714D01*
X136706428Y-104762904D01*
X136899952Y-104762904D01*
X136440333Y-104496809D02*
X136101666Y-104496809D01*
X136319380Y-105004809D01*
X133866466Y-105766809D02*
X134035800Y-105524904D01*
X134156752Y-105766809D02*
X134156752Y-105258809D01*
X133963228Y-105258809D01*
X133914847Y-105283000D01*
X133890657Y-105307190D01*
X133866466Y-105355571D01*
X133866466Y-105428142D01*
X133890657Y-105476523D01*
X133914847Y-105500714D01*
X133963228Y-105524904D01*
X134156752Y-105524904D01*
X133576180Y-105476523D02*
X133624561Y-105452333D01*
X133648752Y-105428142D01*
X133672942Y-105379761D01*
X133672942Y-105355571D01*
X133648752Y-105307190D01*
X133624561Y-105283000D01*
X133576180Y-105258809D01*
X133479419Y-105258809D01*
X133431038Y-105283000D01*
X133406847Y-105307190D01*
X133382657Y-105355571D01*
X133382657Y-105379761D01*
X133406847Y-105428142D01*
X133431038Y-105452333D01*
X133479419Y-105476523D01*
X133576180Y-105476523D01*
X133624561Y-105500714D01*
X133648752Y-105524904D01*
X133672942Y-105573285D01*
X133672942Y-105670047D01*
X133648752Y-105718428D01*
X133624561Y-105742619D01*
X133576180Y-105766809D01*
X133479419Y-105766809D01*
X133431038Y-105742619D01*
X133406847Y-105718428D01*
X133382657Y-105670047D01*
X133382657Y-105573285D01*
X133406847Y-105524904D01*
X133431038Y-105500714D01*
X133479419Y-105476523D01*
X134069666Y-101702809D02*
X134239000Y-101460904D01*
X134359952Y-101702809D02*
X134359952Y-101194809D01*
X134166428Y-101194809D01*
X134118047Y-101219000D01*
X134093857Y-101243190D01*
X134069666Y-101291571D01*
X134069666Y-101364142D01*
X134093857Y-101412523D01*
X134118047Y-101436714D01*
X134166428Y-101460904D01*
X134359952Y-101460904D01*
X133827761Y-101702809D02*
X133731000Y-101702809D01*
X133682619Y-101678619D01*
X133658428Y-101654428D01*
X133610047Y-101581857D01*
X133585857Y-101485095D01*
X133585857Y-101291571D01*
X133610047Y-101243190D01*
X133634238Y-101219000D01*
X133682619Y-101194809D01*
X133779380Y-101194809D01*
X133827761Y-101219000D01*
X133851952Y-101243190D01*
X133876142Y-101291571D01*
X133876142Y-101412523D01*
X133851952Y-101460904D01*
X133827761Y-101485095D01*
X133779380Y-101509285D01*
X133682619Y-101509285D01*
X133634238Y-101485095D01*
X133610047Y-101460904D01*
X133585857Y-101412523D01*
X134722809Y-83042428D02*
X134480904Y-82873095D01*
X134722809Y-82752142D02*
X134214809Y-82752142D01*
X134214809Y-82945666D01*
X134239000Y-82994047D01*
X134263190Y-83018238D01*
X134311571Y-83042428D01*
X134384142Y-83042428D01*
X134432523Y-83018238D01*
X134456714Y-82994047D01*
X134480904Y-82945666D01*
X134480904Y-82752142D01*
X134722809Y-83526238D02*
X134722809Y-83235952D01*
X134722809Y-83381095D02*
X134214809Y-83381095D01*
X134287380Y-83332714D01*
X134335761Y-83284333D01*
X134359952Y-83235952D01*
X134214809Y-83985857D02*
X134214809Y-83743952D01*
X134456714Y-83719761D01*
X134432523Y-83743952D01*
X134408333Y-83792333D01*
X134408333Y-83913285D01*
X134432523Y-83961666D01*
X134456714Y-83985857D01*
X134505095Y-84010047D01*
X134626047Y-84010047D01*
X134674428Y-83985857D01*
X134698619Y-83961666D01*
X134722809Y-83913285D01*
X134722809Y-83792333D01*
X134698619Y-83743952D01*
X134674428Y-83719761D01*
X130785809Y-83112428D02*
X130543904Y-82943095D01*
X130785809Y-82822142D02*
X130277809Y-82822142D01*
X130277809Y-83015666D01*
X130302000Y-83064047D01*
X130326190Y-83088238D01*
X130374571Y-83112428D01*
X130447142Y-83112428D01*
X130495523Y-83088238D01*
X130519714Y-83064047D01*
X130543904Y-83015666D01*
X130543904Y-82822142D01*
X130785809Y-83596238D02*
X130785809Y-83305952D01*
X130785809Y-83451095D02*
X130277809Y-83451095D01*
X130350380Y-83402714D01*
X130398761Y-83354333D01*
X130422952Y-83305952D01*
X130277809Y-84031666D02*
X130277809Y-83934904D01*
X130302000Y-83886523D01*
X130326190Y-83862333D01*
X130398761Y-83813952D01*
X130495523Y-83789761D01*
X130689047Y-83789761D01*
X130737428Y-83813952D01*
X130761619Y-83838142D01*
X130785809Y-83886523D01*
X130785809Y-83983285D01*
X130761619Y-84031666D01*
X130737428Y-84055857D01*
X130689047Y-84080047D01*
X130568095Y-84080047D01*
X130519714Y-84055857D01*
X130495523Y-84031666D01*
X130471333Y-83983285D01*
X130471333Y-83886523D01*
X130495523Y-83838142D01*
X130519714Y-83813952D01*
X130568095Y-83789761D01*
X133919509Y-71098228D02*
X133677604Y-70928895D01*
X133919509Y-70807942D02*
X133411509Y-70807942D01*
X133411509Y-71001466D01*
X133435700Y-71049847D01*
X133459890Y-71074038D01*
X133508271Y-71098228D01*
X133580842Y-71098228D01*
X133629223Y-71074038D01*
X133653414Y-71049847D01*
X133677604Y-71001466D01*
X133677604Y-70807942D01*
X133919509Y-71582038D02*
X133919509Y-71291752D01*
X133919509Y-71436895D02*
X133411509Y-71436895D01*
X133484080Y-71388514D01*
X133532461Y-71340133D01*
X133556652Y-71291752D01*
X133411509Y-71751371D02*
X133411509Y-72090038D01*
X133919509Y-71872323D01*
X133919509Y-72622228D02*
X133677604Y-72452895D01*
X133919509Y-72331942D02*
X133411509Y-72331942D01*
X133411509Y-72525466D01*
X133435700Y-72573847D01*
X133459890Y-72598038D01*
X133508271Y-72622228D01*
X133580842Y-72622228D01*
X133629223Y-72598038D01*
X133653414Y-72573847D01*
X133677604Y-72525466D01*
X133677604Y-72331942D01*
X133919509Y-73106038D02*
X133919509Y-72815752D01*
X133919509Y-72960895D02*
X133411509Y-72960895D01*
X133484080Y-72912514D01*
X133532461Y-72864133D01*
X133556652Y-72815752D01*
X133629223Y-73396323D02*
X133605033Y-73347942D01*
X133580842Y-73323752D01*
X133532461Y-73299561D01*
X133508271Y-73299561D01*
X133459890Y-73323752D01*
X133435700Y-73347942D01*
X133411509Y-73396323D01*
X133411509Y-73493085D01*
X133435700Y-73541466D01*
X133459890Y-73565657D01*
X133508271Y-73589847D01*
X133532461Y-73589847D01*
X133580842Y-73565657D01*
X133605033Y-73541466D01*
X133629223Y-73493085D01*
X133629223Y-73396323D01*
X133653414Y-73347942D01*
X133677604Y-73323752D01*
X133725985Y-73299561D01*
X133822747Y-73299561D01*
X133871128Y-73323752D01*
X133895319Y-73347942D01*
X133919509Y-73396323D01*
X133919509Y-73493085D01*
X133895319Y-73541466D01*
X133871128Y-73565657D01*
X133822747Y-73589847D01*
X133725985Y-73589847D01*
X133677604Y-73565657D01*
X133653414Y-73541466D01*
X133629223Y-73493085D01*
X133919509Y-74146228D02*
X133677604Y-73976895D01*
X133919509Y-73855942D02*
X133411509Y-73855942D01*
X133411509Y-74049466D01*
X133435700Y-74097847D01*
X133459890Y-74122038D01*
X133508271Y-74146228D01*
X133580842Y-74146228D01*
X133629223Y-74122038D01*
X133653414Y-74097847D01*
X133677604Y-74049466D01*
X133677604Y-73855942D01*
X133919509Y-74630038D02*
X133919509Y-74339752D01*
X133919509Y-74484895D02*
X133411509Y-74484895D01*
X133484080Y-74436514D01*
X133532461Y-74388133D01*
X133556652Y-74339752D01*
X133919509Y-74871942D02*
X133919509Y-74968704D01*
X133895319Y-75017085D01*
X133871128Y-75041276D01*
X133798557Y-75089657D01*
X133701795Y-75113847D01*
X133508271Y-75113847D01*
X133459890Y-75089657D01*
X133435700Y-75065466D01*
X133411509Y-75017085D01*
X133411509Y-74920323D01*
X133435700Y-74871942D01*
X133459890Y-74847752D01*
X133508271Y-74823561D01*
X133629223Y-74823561D01*
X133677604Y-74847752D01*
X133701795Y-74871942D01*
X133725985Y-74920323D01*
X133725985Y-75017085D01*
X133701795Y-75065466D01*
X133677604Y-75089657D01*
X133629223Y-75113847D01*
X133919509Y-75670228D02*
X133677604Y-75500895D01*
X133919509Y-75379942D02*
X133411509Y-75379942D01*
X133411509Y-75573466D01*
X133435700Y-75621847D01*
X133459890Y-75646038D01*
X133508271Y-75670228D01*
X133580842Y-75670228D01*
X133629223Y-75646038D01*
X133653414Y-75621847D01*
X133677604Y-75573466D01*
X133677604Y-75379942D01*
X133459890Y-75863752D02*
X133435700Y-75887942D01*
X133411509Y-75936323D01*
X133411509Y-76057276D01*
X133435700Y-76105657D01*
X133459890Y-76129847D01*
X133508271Y-76154038D01*
X133556652Y-76154038D01*
X133629223Y-76129847D01*
X133919509Y-75839561D01*
X133919509Y-76154038D01*
X133411509Y-76468514D02*
X133411509Y-76516895D01*
X133435700Y-76565276D01*
X133459890Y-76589466D01*
X133508271Y-76613657D01*
X133605033Y-76637847D01*
X133725985Y-76637847D01*
X133822747Y-76613657D01*
X133871128Y-76589466D01*
X133895319Y-76565276D01*
X133919509Y-76516895D01*
X133919509Y-76468514D01*
X133895319Y-76420133D01*
X133871128Y-76395942D01*
X133822747Y-76371752D01*
X133725985Y-76347561D01*
X133605033Y-76347561D01*
X133508271Y-76371752D01*
X133459890Y-76395942D01*
X133435700Y-76420133D01*
X133411509Y-76468514D01*
X133919509Y-77143428D02*
X133677604Y-76974095D01*
X133919509Y-76853142D02*
X133411509Y-76853142D01*
X133411509Y-77046666D01*
X133435700Y-77095047D01*
X133459890Y-77119238D01*
X133508271Y-77143428D01*
X133580842Y-77143428D01*
X133629223Y-77119238D01*
X133653414Y-77095047D01*
X133677604Y-77046666D01*
X133677604Y-76853142D01*
X133459890Y-77336952D02*
X133435700Y-77361142D01*
X133411509Y-77409523D01*
X133411509Y-77530476D01*
X133435700Y-77578857D01*
X133459890Y-77603047D01*
X133508271Y-77627238D01*
X133556652Y-77627238D01*
X133629223Y-77603047D01*
X133919509Y-77312761D01*
X133919509Y-77627238D01*
X133919509Y-78111047D02*
X133919509Y-77820761D01*
X133919509Y-77965904D02*
X133411509Y-77965904D01*
X133484080Y-77917523D01*
X133532461Y-77869142D01*
X133556652Y-77820761D01*
X134311571Y-78842809D02*
X134480904Y-78600904D01*
X134601857Y-78842809D02*
X134601857Y-78334809D01*
X134408333Y-78334809D01*
X134359952Y-78359000D01*
X134335761Y-78383190D01*
X134311571Y-78431571D01*
X134311571Y-78504142D01*
X134335761Y-78552523D01*
X134359952Y-78576714D01*
X134408333Y-78600904D01*
X134601857Y-78600904D01*
X134118047Y-78383190D02*
X134093857Y-78359000D01*
X134045476Y-78334809D01*
X133924523Y-78334809D01*
X133876142Y-78359000D01*
X133851952Y-78383190D01*
X133827761Y-78431571D01*
X133827761Y-78479952D01*
X133851952Y-78552523D01*
X134142238Y-78842809D01*
X133827761Y-78842809D01*
X133634238Y-78383190D02*
X133610047Y-78359000D01*
X133561666Y-78334809D01*
X133440714Y-78334809D01*
X133392333Y-78359000D01*
X133368142Y-78383190D01*
X133343952Y-78431571D01*
X133343952Y-78479952D01*
X133368142Y-78552523D01*
X133658428Y-78842809D01*
X133343952Y-78842809D01*
X136788771Y-71083109D02*
X136958104Y-70841204D01*
X137079057Y-71083109D02*
X137079057Y-70575109D01*
X136885533Y-70575109D01*
X136837152Y-70599300D01*
X136812961Y-70623490D01*
X136788771Y-70671871D01*
X136788771Y-70744442D01*
X136812961Y-70792823D01*
X136837152Y-70817014D01*
X136885533Y-70841204D01*
X137079057Y-70841204D01*
X136595247Y-70623490D02*
X136571057Y-70599300D01*
X136522676Y-70575109D01*
X136401723Y-70575109D01*
X136353342Y-70599300D01*
X136329152Y-70623490D01*
X136304961Y-70671871D01*
X136304961Y-70720252D01*
X136329152Y-70792823D01*
X136619438Y-71083109D01*
X136304961Y-71083109D01*
X135845342Y-70575109D02*
X136087247Y-70575109D01*
X136111438Y-70817014D01*
X136087247Y-70792823D01*
X136038866Y-70768633D01*
X135917914Y-70768633D01*
X135869533Y-70792823D01*
X135845342Y-70817014D01*
X135821152Y-70865395D01*
X135821152Y-70986347D01*
X135845342Y-71034728D01*
X135869533Y-71058919D01*
X135917914Y-71083109D01*
X136038866Y-71083109D01*
X136087247Y-71058919D01*
X136111438Y-71034728D01*
X136788071Y-72619809D02*
X136957404Y-72377904D01*
X137078357Y-72619809D02*
X137078357Y-72111809D01*
X136884833Y-72111809D01*
X136836452Y-72136000D01*
X136812261Y-72160190D01*
X136788071Y-72208571D01*
X136788071Y-72281142D01*
X136812261Y-72329523D01*
X136836452Y-72353714D01*
X136884833Y-72377904D01*
X137078357Y-72377904D01*
X136594547Y-72160190D02*
X136570357Y-72136000D01*
X136521976Y-72111809D01*
X136401023Y-72111809D01*
X136352642Y-72136000D01*
X136328452Y-72160190D01*
X136304261Y-72208571D01*
X136304261Y-72256952D01*
X136328452Y-72329523D01*
X136618738Y-72619809D01*
X136304261Y-72619809D01*
X135868833Y-72111809D02*
X135965595Y-72111809D01*
X136013976Y-72136000D01*
X136038166Y-72160190D01*
X136086547Y-72232761D01*
X136110738Y-72329523D01*
X136110738Y-72523047D01*
X136086547Y-72571428D01*
X136062357Y-72595619D01*
X136013976Y-72619809D01*
X135917214Y-72619809D01*
X135868833Y-72595619D01*
X135844642Y-72571428D01*
X135820452Y-72523047D01*
X135820452Y-72402095D01*
X135844642Y-72353714D01*
X135868833Y-72329523D01*
X135917214Y-72305333D01*
X136013976Y-72305333D01*
X136062357Y-72329523D01*
X136086547Y-72353714D01*
X136110738Y-72402095D01*
X136800771Y-74131109D02*
X136970104Y-73889204D01*
X137091057Y-74131109D02*
X137091057Y-73623109D01*
X136897533Y-73623109D01*
X136849152Y-73647300D01*
X136824961Y-73671490D01*
X136800771Y-73719871D01*
X136800771Y-73792442D01*
X136824961Y-73840823D01*
X136849152Y-73865014D01*
X136897533Y-73889204D01*
X137091057Y-73889204D01*
X136631438Y-73623109D02*
X136316961Y-73623109D01*
X136486295Y-73816633D01*
X136413723Y-73816633D01*
X136365342Y-73840823D01*
X136341152Y-73865014D01*
X136316961Y-73913395D01*
X136316961Y-74034347D01*
X136341152Y-74082728D01*
X136365342Y-74106919D01*
X136413723Y-74131109D01*
X136558866Y-74131109D01*
X136607247Y-74106919D01*
X136631438Y-74082728D01*
X136002485Y-73623109D02*
X135954104Y-73623109D01*
X135905723Y-73647300D01*
X135881533Y-73671490D01*
X135857342Y-73719871D01*
X135833152Y-73816633D01*
X135833152Y-73937585D01*
X135857342Y-74034347D01*
X135881533Y-74082728D01*
X135905723Y-74106919D01*
X135954104Y-74131109D01*
X136002485Y-74131109D01*
X136050866Y-74106919D01*
X136075057Y-74082728D01*
X136099247Y-74034347D01*
X136123438Y-73937585D01*
X136123438Y-73816633D01*
X136099247Y-73719871D01*
X136075057Y-73671490D01*
X136050866Y-73647300D01*
X136002485Y-73623109D01*
X136800771Y-75782109D02*
X136970104Y-75540204D01*
X137091057Y-75782109D02*
X137091057Y-75274109D01*
X136897533Y-75274109D01*
X136849152Y-75298300D01*
X136824961Y-75322490D01*
X136800771Y-75370871D01*
X136800771Y-75443442D01*
X136824961Y-75491823D01*
X136849152Y-75516014D01*
X136897533Y-75540204D01*
X137091057Y-75540204D01*
X136631438Y-75274109D02*
X136316961Y-75274109D01*
X136486295Y-75467633D01*
X136413723Y-75467633D01*
X136365342Y-75491823D01*
X136341152Y-75516014D01*
X136316961Y-75564395D01*
X136316961Y-75685347D01*
X136341152Y-75733728D01*
X136365342Y-75757919D01*
X136413723Y-75782109D01*
X136558866Y-75782109D01*
X136607247Y-75757919D01*
X136631438Y-75733728D01*
X135833152Y-75782109D02*
X136123438Y-75782109D01*
X135978295Y-75782109D02*
X135978295Y-75274109D01*
X136026676Y-75346680D01*
X136075057Y-75395061D01*
X136123438Y-75419252D01*
X136800771Y-77179109D02*
X136970104Y-76937204D01*
X137091057Y-77179109D02*
X137091057Y-76671109D01*
X136897533Y-76671109D01*
X136849152Y-76695300D01*
X136824961Y-76719490D01*
X136800771Y-76767871D01*
X136800771Y-76840442D01*
X136824961Y-76888823D01*
X136849152Y-76913014D01*
X136897533Y-76937204D01*
X137091057Y-76937204D01*
X136631438Y-76671109D02*
X136316961Y-76671109D01*
X136486295Y-76864633D01*
X136413723Y-76864633D01*
X136365342Y-76888823D01*
X136341152Y-76913014D01*
X136316961Y-76961395D01*
X136316961Y-77082347D01*
X136341152Y-77130728D01*
X136365342Y-77154919D01*
X136413723Y-77179109D01*
X136558866Y-77179109D01*
X136607247Y-77154919D01*
X136631438Y-77130728D01*
X136147628Y-76671109D02*
X135833152Y-76671109D01*
X136002485Y-76864633D01*
X135929914Y-76864633D01*
X135881533Y-76888823D01*
X135857342Y-76913014D01*
X135833152Y-76961395D01*
X135833152Y-77082347D01*
X135857342Y-77130728D01*
X135881533Y-77154919D01*
X135929914Y-77179109D01*
X136075057Y-77179109D01*
X136123438Y-77154919D01*
X136147628Y-77130728D01*
X136800771Y-78703109D02*
X136970104Y-78461204D01*
X137091057Y-78703109D02*
X137091057Y-78195109D01*
X136897533Y-78195109D01*
X136849152Y-78219300D01*
X136824961Y-78243490D01*
X136800771Y-78291871D01*
X136800771Y-78364442D01*
X136824961Y-78412823D01*
X136849152Y-78437014D01*
X136897533Y-78461204D01*
X137091057Y-78461204D01*
X136631438Y-78195109D02*
X136316961Y-78195109D01*
X136486295Y-78388633D01*
X136413723Y-78388633D01*
X136365342Y-78412823D01*
X136341152Y-78437014D01*
X136316961Y-78485395D01*
X136316961Y-78606347D01*
X136341152Y-78654728D01*
X136365342Y-78678919D01*
X136413723Y-78703109D01*
X136558866Y-78703109D01*
X136607247Y-78678919D01*
X136631438Y-78654728D01*
X135881533Y-78364442D02*
X135881533Y-78703109D01*
X136002485Y-78170919D02*
X136123438Y-78533776D01*
X135808961Y-78533776D01*
X134565571Y-94336809D02*
X134734904Y-94094904D01*
X134855857Y-94336809D02*
X134855857Y-93828809D01*
X134662333Y-93828809D01*
X134613952Y-93853000D01*
X134589761Y-93877190D01*
X134565571Y-93925571D01*
X134565571Y-93998142D01*
X134589761Y-94046523D01*
X134613952Y-94070714D01*
X134662333Y-94094904D01*
X134855857Y-94094904D01*
X134396238Y-93828809D02*
X134081761Y-93828809D01*
X134251095Y-94022333D01*
X134178523Y-94022333D01*
X134130142Y-94046523D01*
X134105952Y-94070714D01*
X134081761Y-94119095D01*
X134081761Y-94240047D01*
X134105952Y-94288428D01*
X134130142Y-94312619D01*
X134178523Y-94336809D01*
X134323666Y-94336809D01*
X134372047Y-94312619D01*
X134396238Y-94288428D01*
X133622142Y-93828809D02*
X133864047Y-93828809D01*
X133888238Y-94070714D01*
X133864047Y-94046523D01*
X133815666Y-94022333D01*
X133694714Y-94022333D01*
X133646333Y-94046523D01*
X133622142Y-94070714D01*
X133597952Y-94119095D01*
X133597952Y-94240047D01*
X133622142Y-94288428D01*
X133646333Y-94312619D01*
X133694714Y-94336809D01*
X133815666Y-94336809D01*
X133864047Y-94312619D01*
X133888238Y-94288428D01*
X131517571Y-94336809D02*
X131686904Y-94094904D01*
X131807857Y-94336809D02*
X131807857Y-93828809D01*
X131614333Y-93828809D01*
X131565952Y-93853000D01*
X131541761Y-93877190D01*
X131517571Y-93925571D01*
X131517571Y-93998142D01*
X131541761Y-94046523D01*
X131565952Y-94070714D01*
X131614333Y-94094904D01*
X131807857Y-94094904D01*
X131348238Y-93828809D02*
X131033761Y-93828809D01*
X131203095Y-94022333D01*
X131130523Y-94022333D01*
X131082142Y-94046523D01*
X131057952Y-94070714D01*
X131033761Y-94119095D01*
X131033761Y-94240047D01*
X131057952Y-94288428D01*
X131082142Y-94312619D01*
X131130523Y-94336809D01*
X131275666Y-94336809D01*
X131324047Y-94312619D01*
X131348238Y-94288428D01*
X130598333Y-93828809D02*
X130695095Y-93828809D01*
X130743476Y-93853000D01*
X130767666Y-93877190D01*
X130816047Y-93949761D01*
X130840238Y-94046523D01*
X130840238Y-94240047D01*
X130816047Y-94288428D01*
X130791857Y-94312619D01*
X130743476Y-94336809D01*
X130646714Y-94336809D01*
X130598333Y-94312619D01*
X130574142Y-94288428D01*
X130549952Y-94240047D01*
X130549952Y-94119095D01*
X130574142Y-94070714D01*
X130598333Y-94046523D01*
X130646714Y-94022333D01*
X130743476Y-94022333D01*
X130791857Y-94046523D01*
X130816047Y-94070714D01*
X130840238Y-94119095D01*
X128469571Y-91161809D02*
X128638904Y-90919904D01*
X128759857Y-91161809D02*
X128759857Y-90653809D01*
X128566333Y-90653809D01*
X128517952Y-90678000D01*
X128493761Y-90702190D01*
X128469571Y-90750571D01*
X128469571Y-90823142D01*
X128493761Y-90871523D01*
X128517952Y-90895714D01*
X128566333Y-90919904D01*
X128759857Y-90919904D01*
X128300238Y-90653809D02*
X127985761Y-90653809D01*
X128155095Y-90847333D01*
X128082523Y-90847333D01*
X128034142Y-90871523D01*
X128009952Y-90895714D01*
X127985761Y-90944095D01*
X127985761Y-91065047D01*
X128009952Y-91113428D01*
X128034142Y-91137619D01*
X128082523Y-91161809D01*
X128227666Y-91161809D01*
X128276047Y-91137619D01*
X128300238Y-91113428D01*
X127816428Y-90653809D02*
X127477761Y-90653809D01*
X127695476Y-91161809D01*
X136960428Y-66094428D02*
X136984619Y-66070238D01*
X137008809Y-65997666D01*
X137008809Y-65949285D01*
X136984619Y-65876714D01*
X136936238Y-65828333D01*
X136887857Y-65804142D01*
X136791095Y-65779952D01*
X136718523Y-65779952D01*
X136621761Y-65804142D01*
X136573380Y-65828333D01*
X136525000Y-65876714D01*
X136500809Y-65949285D01*
X136500809Y-65997666D01*
X136525000Y-66070238D01*
X136549190Y-66094428D01*
X136500809Y-66263761D02*
X136500809Y-66578238D01*
X136694333Y-66408904D01*
X136694333Y-66481476D01*
X136718523Y-66529857D01*
X136742714Y-66554047D01*
X136791095Y-66578238D01*
X136912047Y-66578238D01*
X136960428Y-66554047D01*
X136984619Y-66529857D01*
X137008809Y-66481476D01*
X137008809Y-66336333D01*
X136984619Y-66287952D01*
X136960428Y-66263761D01*
X136500809Y-67037857D02*
X136500809Y-66795952D01*
X136742714Y-66771761D01*
X136718523Y-66795952D01*
X136694333Y-66844333D01*
X136694333Y-66965285D01*
X136718523Y-67013666D01*
X136742714Y-67037857D01*
X136791095Y-67062047D01*
X136912047Y-67062047D01*
X136960428Y-67037857D01*
X136984619Y-67013666D01*
X137008809Y-66965285D01*
X137008809Y-66844333D01*
X136984619Y-66795952D01*
X136960428Y-66771761D01*
X135708571Y-95621928D02*
X135732761Y-95646119D01*
X135805333Y-95670309D01*
X135853714Y-95670309D01*
X135926285Y-95646119D01*
X135974666Y-95597738D01*
X135998857Y-95549357D01*
X136023047Y-95452595D01*
X136023047Y-95380023D01*
X135998857Y-95283261D01*
X135974666Y-95234880D01*
X135926285Y-95186500D01*
X135853714Y-95162309D01*
X135805333Y-95162309D01*
X135732761Y-95186500D01*
X135708571Y-95210690D01*
X135224761Y-95670309D02*
X135515047Y-95670309D01*
X135369904Y-95670309D02*
X135369904Y-95162309D01*
X135418285Y-95234880D01*
X135466666Y-95283261D01*
X135515047Y-95307452D01*
X134910285Y-95162309D02*
X134861904Y-95162309D01*
X134813523Y-95186500D01*
X134789333Y-95210690D01*
X134765142Y-95259071D01*
X134740952Y-95355833D01*
X134740952Y-95476785D01*
X134765142Y-95573547D01*
X134789333Y-95621928D01*
X134813523Y-95646119D01*
X134861904Y-95670309D01*
X134910285Y-95670309D01*
X134958666Y-95646119D01*
X134982857Y-95621928D01*
X135007047Y-95573547D01*
X135031238Y-95476785D01*
X135031238Y-95355833D01*
X135007047Y-95259071D01*
X134982857Y-95210690D01*
X134958666Y-95186500D01*
X134910285Y-95162309D01*
X123465166Y-95304428D02*
X123489357Y-95328619D01*
X123561928Y-95352809D01*
X123610309Y-95352809D01*
X123682880Y-95328619D01*
X123731261Y-95280238D01*
X123755452Y-95231857D01*
X123779642Y-95135095D01*
X123779642Y-95062523D01*
X123755452Y-94965761D01*
X123731261Y-94917380D01*
X123682880Y-94869000D01*
X123610309Y-94844809D01*
X123561928Y-94844809D01*
X123489357Y-94869000D01*
X123465166Y-94893190D01*
X122981357Y-95352809D02*
X123271642Y-95352809D01*
X123126500Y-95352809D02*
X123126500Y-94844809D01*
X123174880Y-94917380D01*
X123223261Y-94965761D01*
X123271642Y-94989952D01*
X139246428Y-90212333D02*
X139270619Y-90188142D01*
X139294809Y-90115571D01*
X139294809Y-90067190D01*
X139270619Y-89994619D01*
X139222238Y-89946238D01*
X139173857Y-89922047D01*
X139077095Y-89897857D01*
X139004523Y-89897857D01*
X138907761Y-89922047D01*
X138859380Y-89946238D01*
X138811000Y-89994619D01*
X138786809Y-90067190D01*
X138786809Y-90115571D01*
X138811000Y-90188142D01*
X138835190Y-90212333D01*
X138835190Y-90405857D02*
X138811000Y-90430047D01*
X138786809Y-90478428D01*
X138786809Y-90599380D01*
X138811000Y-90647761D01*
X138835190Y-90671952D01*
X138883571Y-90696142D01*
X138931952Y-90696142D01*
X139004523Y-90671952D01*
X139294809Y-90381666D01*
X139294809Y-90696142D01*
X126957666Y-95113928D02*
X126981857Y-95138119D01*
X127054428Y-95162309D01*
X127102809Y-95162309D01*
X127175380Y-95138119D01*
X127223761Y-95089738D01*
X127247952Y-95041357D01*
X127272142Y-94944595D01*
X127272142Y-94872023D01*
X127247952Y-94775261D01*
X127223761Y-94726880D01*
X127175380Y-94678500D01*
X127102809Y-94654309D01*
X127054428Y-94654309D01*
X126981857Y-94678500D01*
X126957666Y-94702690D01*
X126788333Y-94654309D02*
X126473857Y-94654309D01*
X126643190Y-94847833D01*
X126570619Y-94847833D01*
X126522238Y-94872023D01*
X126498047Y-94896214D01*
X126473857Y-94944595D01*
X126473857Y-95065547D01*
X126498047Y-95113928D01*
X126522238Y-95138119D01*
X126570619Y-95162309D01*
X126715761Y-95162309D01*
X126764142Y-95138119D01*
X126788333Y-95113928D01*
X132515428Y-98860333D02*
X132539619Y-98836142D01*
X132563809Y-98763571D01*
X132563809Y-98715190D01*
X132539619Y-98642619D01*
X132491238Y-98594238D01*
X132442857Y-98570047D01*
X132346095Y-98545857D01*
X132273523Y-98545857D01*
X132176761Y-98570047D01*
X132128380Y-98594238D01*
X132080000Y-98642619D01*
X132055809Y-98715190D01*
X132055809Y-98763571D01*
X132080000Y-98836142D01*
X132104190Y-98860333D01*
X132055809Y-99029666D02*
X132055809Y-99368333D01*
X132563809Y-99150619D01*
X130102428Y-88434333D02*
X130126619Y-88410142D01*
X130150809Y-88337571D01*
X130150809Y-88289190D01*
X130126619Y-88216619D01*
X130078238Y-88168238D01*
X130029857Y-88144047D01*
X129933095Y-88119857D01*
X129860523Y-88119857D01*
X129763761Y-88144047D01*
X129715380Y-88168238D01*
X129667000Y-88216619D01*
X129642809Y-88289190D01*
X129642809Y-88337571D01*
X129667000Y-88410142D01*
X129691190Y-88434333D01*
X129860523Y-88724619D02*
X129836333Y-88676238D01*
X129812142Y-88652047D01*
X129763761Y-88627857D01*
X129739571Y-88627857D01*
X129691190Y-88652047D01*
X129667000Y-88676238D01*
X129642809Y-88724619D01*
X129642809Y-88821380D01*
X129667000Y-88869761D01*
X129691190Y-88893952D01*
X129739571Y-88918142D01*
X129763761Y-88918142D01*
X129812142Y-88893952D01*
X129836333Y-88869761D01*
X129860523Y-88821380D01*
X129860523Y-88724619D01*
X129884714Y-88676238D01*
X129908904Y-88652047D01*
X129957285Y-88627857D01*
X130054047Y-88627857D01*
X130102428Y-88652047D01*
X130126619Y-88676238D01*
X130150809Y-88724619D01*
X130150809Y-88821380D01*
X130126619Y-88869761D01*
X130102428Y-88893952D01*
X130054047Y-88918142D01*
X129957285Y-88918142D01*
X129908904Y-88893952D01*
X129884714Y-88869761D01*
X129860523Y-88821380D01*
X128959428Y-78921428D02*
X128983619Y-78897238D01*
X129007809Y-78824666D01*
X129007809Y-78776285D01*
X128983619Y-78703714D01*
X128935238Y-78655333D01*
X128886857Y-78631142D01*
X128790095Y-78606952D01*
X128717523Y-78606952D01*
X128620761Y-78631142D01*
X128572380Y-78655333D01*
X128524000Y-78703714D01*
X128499809Y-78776285D01*
X128499809Y-78824666D01*
X128524000Y-78897238D01*
X128548190Y-78921428D01*
X129007809Y-79405238D02*
X129007809Y-79114952D01*
X129007809Y-79260095D02*
X128499809Y-79260095D01*
X128572380Y-79211714D01*
X128620761Y-79163333D01*
X128644952Y-79114952D01*
X128499809Y-79574571D02*
X128499809Y-79889047D01*
X128693333Y-79719714D01*
X128693333Y-79792285D01*
X128717523Y-79840666D01*
X128741714Y-79864857D01*
X128790095Y-79889047D01*
X128911047Y-79889047D01*
X128959428Y-79864857D01*
X128983619Y-79840666D01*
X129007809Y-79792285D01*
X129007809Y-79647142D01*
X128983619Y-79598761D01*
X128959428Y-79574571D01*
X133041571Y-94288428D02*
X133065761Y-94312619D01*
X133138333Y-94336809D01*
X133186714Y-94336809D01*
X133259285Y-94312619D01*
X133307666Y-94264238D01*
X133331857Y-94215857D01*
X133356047Y-94119095D01*
X133356047Y-94046523D01*
X133331857Y-93949761D01*
X133307666Y-93901380D01*
X133259285Y-93853000D01*
X133186714Y-93828809D01*
X133138333Y-93828809D01*
X133065761Y-93853000D01*
X133041571Y-93877190D01*
X132848047Y-93877190D02*
X132823857Y-93853000D01*
X132775476Y-93828809D01*
X132654523Y-93828809D01*
X132606142Y-93853000D01*
X132581952Y-93877190D01*
X132557761Y-93925571D01*
X132557761Y-93973952D01*
X132581952Y-94046523D01*
X132872238Y-94336809D01*
X132557761Y-94336809D01*
X132315857Y-94336809D02*
X132219095Y-94336809D01*
X132170714Y-94312619D01*
X132146523Y-94288428D01*
X132098142Y-94215857D01*
X132073952Y-94119095D01*
X132073952Y-93925571D01*
X132098142Y-93877190D01*
X132122333Y-93853000D01*
X132170714Y-93828809D01*
X132267476Y-93828809D01*
X132315857Y-93853000D01*
X132340047Y-93877190D01*
X132364238Y-93925571D01*
X132364238Y-94046523D01*
X132340047Y-94094904D01*
X132315857Y-94119095D01*
X132267476Y-94143285D01*
X132170714Y-94143285D01*
X132122333Y-94119095D01*
X132098142Y-94094904D01*
X132073952Y-94046523D01*
X129993571Y-90986428D02*
X130017761Y-91010619D01*
X130090333Y-91034809D01*
X130138714Y-91034809D01*
X130211285Y-91010619D01*
X130259666Y-90962238D01*
X130283857Y-90913857D01*
X130308047Y-90817095D01*
X130308047Y-90744523D01*
X130283857Y-90647761D01*
X130259666Y-90599380D01*
X130211285Y-90551000D01*
X130138714Y-90526809D01*
X130090333Y-90526809D01*
X130017761Y-90551000D01*
X129993571Y-90575190D01*
X129824238Y-90526809D02*
X129509761Y-90526809D01*
X129679095Y-90720333D01*
X129606523Y-90720333D01*
X129558142Y-90744523D01*
X129533952Y-90768714D01*
X129509761Y-90817095D01*
X129509761Y-90938047D01*
X129533952Y-90986428D01*
X129558142Y-91010619D01*
X129606523Y-91034809D01*
X129751666Y-91034809D01*
X129800047Y-91010619D01*
X129824238Y-90986428D01*
X129195285Y-90526809D02*
X129146904Y-90526809D01*
X129098523Y-90551000D01*
X129074333Y-90575190D01*
X129050142Y-90623571D01*
X129025952Y-90720333D01*
X129025952Y-90841285D01*
X129050142Y-90938047D01*
X129074333Y-90986428D01*
X129098523Y-91010619D01*
X129146904Y-91034809D01*
X129195285Y-91034809D01*
X129243666Y-91010619D01*
X129267857Y-90986428D01*
X129292047Y-90938047D01*
X129316238Y-90841285D01*
X129316238Y-90720333D01*
X129292047Y-90623571D01*
X129267857Y-90575190D01*
X129243666Y-90551000D01*
X129195285Y-90526809D01*
X131245428Y-61470928D02*
X131269619Y-61446738D01*
X131293809Y-61374166D01*
X131293809Y-61325785D01*
X131269619Y-61253214D01*
X131221238Y-61204833D01*
X131172857Y-61180642D01*
X131076095Y-61156452D01*
X131003523Y-61156452D01*
X130906761Y-61180642D01*
X130858380Y-61204833D01*
X130810000Y-61253214D01*
X130785809Y-61325785D01*
X130785809Y-61374166D01*
X130810000Y-61446738D01*
X130834190Y-61470928D01*
X130785809Y-61640261D02*
X130785809Y-61954738D01*
X130979333Y-61785404D01*
X130979333Y-61857976D01*
X131003523Y-61906357D01*
X131027714Y-61930547D01*
X131076095Y-61954738D01*
X131197047Y-61954738D01*
X131245428Y-61930547D01*
X131269619Y-61906357D01*
X131293809Y-61857976D01*
X131293809Y-61712833D01*
X131269619Y-61664452D01*
X131245428Y-61640261D01*
X131003523Y-62245023D02*
X130979333Y-62196642D01*
X130955142Y-62172452D01*
X130906761Y-62148261D01*
X130882571Y-62148261D01*
X130834190Y-62172452D01*
X130810000Y-62196642D01*
X130785809Y-62245023D01*
X130785809Y-62341785D01*
X130810000Y-62390166D01*
X130834190Y-62414357D01*
X130882571Y-62438547D01*
X130906761Y-62438547D01*
X130955142Y-62414357D01*
X130979333Y-62390166D01*
X131003523Y-62341785D01*
X131003523Y-62245023D01*
X131027714Y-62196642D01*
X131051904Y-62172452D01*
X131100285Y-62148261D01*
X131197047Y-62148261D01*
X131245428Y-62172452D01*
X131269619Y-62196642D01*
X131293809Y-62245023D01*
X131293809Y-62341785D01*
X131269619Y-62390166D01*
X131245428Y-62414357D01*
X131197047Y-62438547D01*
X131100285Y-62438547D01*
X131051904Y-62414357D01*
X131027714Y-62390166D01*
X131003523Y-62341785D01*
X126355928Y-61903428D02*
X126380119Y-61879238D01*
X126404309Y-61806666D01*
X126404309Y-61758285D01*
X126380119Y-61685714D01*
X126331738Y-61637333D01*
X126283357Y-61613142D01*
X126186595Y-61588952D01*
X126114023Y-61588952D01*
X126017261Y-61613142D01*
X125968880Y-61637333D01*
X125920500Y-61685714D01*
X125896309Y-61758285D01*
X125896309Y-61806666D01*
X125920500Y-61879238D01*
X125944690Y-61903428D01*
X126065642Y-62338857D02*
X126404309Y-62338857D01*
X125872119Y-62217904D02*
X126234976Y-62096952D01*
X126234976Y-62411428D01*
X125944690Y-62580761D02*
X125920500Y-62604952D01*
X125896309Y-62653333D01*
X125896309Y-62774285D01*
X125920500Y-62822666D01*
X125944690Y-62846857D01*
X125993071Y-62871047D01*
X126041452Y-62871047D01*
X126114023Y-62846857D01*
X126404309Y-62556571D01*
X126404309Y-62871047D01*
X126945571Y-90986428D02*
X126969761Y-91010619D01*
X127042333Y-91034809D01*
X127090714Y-91034809D01*
X127163285Y-91010619D01*
X127211666Y-90962238D01*
X127235857Y-90913857D01*
X127260047Y-90817095D01*
X127260047Y-90744523D01*
X127235857Y-90647761D01*
X127211666Y-90599380D01*
X127163285Y-90551000D01*
X127090714Y-90526809D01*
X127042333Y-90526809D01*
X126969761Y-90551000D01*
X126945571Y-90575190D01*
X126510142Y-90696142D02*
X126510142Y-91034809D01*
X126631095Y-90502619D02*
X126752047Y-90865476D01*
X126437571Y-90865476D01*
X126002142Y-90526809D02*
X126244047Y-90526809D01*
X126268238Y-90768714D01*
X126244047Y-90744523D01*
X126195666Y-90720333D01*
X126074714Y-90720333D01*
X126026333Y-90744523D01*
X126002142Y-90768714D01*
X125977952Y-90817095D01*
X125977952Y-90938047D01*
X126002142Y-90986428D01*
X126026333Y-91010619D01*
X126074714Y-91034809D01*
X126195666Y-91034809D01*
X126244047Y-91010619D01*
X126268238Y-90986428D01*
X130023632Y-113262210D02*
X130023632Y-113296420D01*
X130057842Y-113364841D01*
X130092053Y-113399052D01*
X130160474Y-113433262D01*
X130228895Y-113433262D01*
X130280211Y-113416157D01*
X130365737Y-113364841D01*
X130417053Y-113313525D01*
X130468368Y-113227999D01*
X130485474Y-113176683D01*
X130485474Y-113108262D01*
X130451263Y-113039841D01*
X130417053Y-113005631D01*
X130348632Y-112971420D01*
X130314421Y-112971420D01*
X130023632Y-112612210D02*
X130194684Y-112783263D01*
X130040737Y-112971420D01*
X130040737Y-112937210D01*
X130023632Y-112885894D01*
X129938106Y-112800368D01*
X129886790Y-112783263D01*
X129852580Y-112783263D01*
X129801264Y-112800368D01*
X129715738Y-112885894D01*
X129698632Y-112937210D01*
X129698632Y-112971420D01*
X129715738Y-113022736D01*
X129801264Y-113108262D01*
X129852580Y-113125368D01*
X129886790Y-113125368D01*
X129305212Y-112612210D02*
X129510475Y-112817473D01*
X129407843Y-112714842D02*
X129767053Y-112355632D01*
X129749948Y-112441158D01*
X129749948Y-112509579D01*
X129767053Y-112560895D01*
X139040631Y-106531210D02*
X139040631Y-106565420D01*
X139074841Y-106633841D01*
X139109052Y-106668052D01*
X139177473Y-106702262D01*
X139245894Y-106702262D01*
X139297210Y-106685157D01*
X139382736Y-106633841D01*
X139434052Y-106582525D01*
X139485367Y-106496999D01*
X139502473Y-106445683D01*
X139502473Y-106377262D01*
X139468262Y-106308841D01*
X139434052Y-106274631D01*
X139365631Y-106240420D01*
X139331420Y-106240420D01*
X139040631Y-105881210D02*
X139211683Y-106052263D01*
X139057736Y-106240420D01*
X139057736Y-106206210D01*
X139040631Y-106154894D01*
X138955105Y-106069368D01*
X138903789Y-106052263D01*
X138869579Y-106052263D01*
X138818263Y-106069368D01*
X138732737Y-106154894D01*
X138715631Y-106206210D01*
X138715631Y-106240420D01*
X138732737Y-106291736D01*
X138818263Y-106377262D01*
X138869579Y-106394368D01*
X138903789Y-106394368D01*
X138852473Y-105761474D02*
X138852473Y-105727263D01*
X138835368Y-105675947D01*
X138749842Y-105590421D01*
X138698526Y-105573316D01*
X138664316Y-105573316D01*
X138613000Y-105590421D01*
X138578789Y-105624632D01*
X138544579Y-105693053D01*
X138544579Y-106103579D01*
X138322211Y-105881210D01*
X126945571Y-82477428D02*
X126969761Y-82501619D01*
X127042333Y-82525809D01*
X127090714Y-82525809D01*
X127163285Y-82501619D01*
X127211666Y-82453238D01*
X127235857Y-82404857D01*
X127260047Y-82308095D01*
X127260047Y-82235523D01*
X127235857Y-82138761D01*
X127211666Y-82090380D01*
X127163285Y-82042000D01*
X127090714Y-82017809D01*
X127042333Y-82017809D01*
X126969761Y-82042000D01*
X126945571Y-82066190D01*
X126510142Y-82017809D02*
X126606904Y-82017809D01*
X126655285Y-82042000D01*
X126679476Y-82066190D01*
X126727857Y-82138761D01*
X126752047Y-82235523D01*
X126752047Y-82429047D01*
X126727857Y-82477428D01*
X126703666Y-82501619D01*
X126655285Y-82525809D01*
X126558523Y-82525809D01*
X126510142Y-82501619D01*
X126485952Y-82477428D01*
X126461761Y-82429047D01*
X126461761Y-82308095D01*
X126485952Y-82259714D01*
X126510142Y-82235523D01*
X126558523Y-82211333D01*
X126655285Y-82211333D01*
X126703666Y-82235523D01*
X126727857Y-82259714D01*
X126752047Y-82308095D01*
X126026333Y-82187142D02*
X126026333Y-82525809D01*
X126147285Y-81993619D02*
X126268238Y-82356476D01*
X125953761Y-82356476D01*
X134079079Y-108478500D02*
X134198816Y-109077184D01*
X133839606Y-108717973D02*
X134438290Y-108837710D01*
X133754080Y-108871921D02*
X133719869Y-108871921D01*
X133668553Y-108889026D01*
X133583027Y-108974552D01*
X133565922Y-109025868D01*
X133565922Y-109060078D01*
X133583027Y-109111394D01*
X133617238Y-109145605D01*
X133685659Y-109179815D01*
X134096185Y-109179815D01*
X133873816Y-109402183D01*
X135317238Y-86081809D02*
X134978571Y-86589809D01*
X134978571Y-86081809D02*
X135317238Y-86589809D01*
X134518952Y-86589809D02*
X134809238Y-86589809D01*
X134664095Y-86589809D02*
X134664095Y-86081809D01*
X134712476Y-86154380D01*
X134760857Y-86202761D01*
X134809238Y-86226952D01*
X116832809Y-101857047D02*
X116324809Y-101857047D01*
X116324809Y-102050571D01*
X116349000Y-102098952D01*
X116373190Y-102123142D01*
X116421571Y-102147333D01*
X116494142Y-102147333D01*
X116542523Y-102123142D01*
X116566714Y-102098952D01*
X116590904Y-102050571D01*
X116590904Y-101857047D01*
X116324809Y-102582761D02*
X116324809Y-102486000D01*
X116349000Y-102437619D01*
X116373190Y-102413428D01*
X116445761Y-102365047D01*
X116542523Y-102340857D01*
X116736047Y-102340857D01*
X116784428Y-102365047D01*
X116808619Y-102389238D01*
X116832809Y-102437619D01*
X116832809Y-102534380D01*
X116808619Y-102582761D01*
X116784428Y-102606952D01*
X116736047Y-102631142D01*
X116615095Y-102631142D01*
X116566714Y-102606952D01*
X116542523Y-102582761D01*
X116518333Y-102534380D01*
X116518333Y-102437619D01*
X116542523Y-102389238D01*
X116566714Y-102365047D01*
X116615095Y-102340857D01*
X123620832Y-110211809D02*
X123620832Y-109703809D01*
X123427308Y-109703809D01*
X123378927Y-109728000D01*
X123354737Y-109752190D01*
X123330546Y-109800571D01*
X123330546Y-109873142D01*
X123354737Y-109921523D01*
X123378927Y-109945714D01*
X123427308Y-109969904D01*
X123620832Y-109969904D01*
X123137022Y-109752190D02*
X123112832Y-109728000D01*
X123064451Y-109703809D01*
X122943499Y-109703809D01*
X122895118Y-109728000D01*
X122870927Y-109752190D01*
X122846737Y-109800571D01*
X122846737Y-109848952D01*
X122870927Y-109921523D01*
X123161213Y-110211809D01*
X122846737Y-110211809D01*
X137287172Y-56832809D02*
X137287172Y-56324809D01*
X137093648Y-56324809D01*
X137045267Y-56349000D01*
X137021077Y-56373190D01*
X136996886Y-56421571D01*
X136996886Y-56494142D01*
X137021077Y-56542523D01*
X137045267Y-56566714D01*
X137093648Y-56590904D01*
X137287172Y-56590904D01*
X136561458Y-56494142D02*
X136561458Y-56832809D01*
X136682410Y-56300619D02*
X136803362Y-56663476D01*
X136488886Y-56663476D01*
X116815809Y-82935347D02*
X116307809Y-82935347D01*
X116307809Y-83128871D01*
X116332000Y-83177252D01*
X116356190Y-83201442D01*
X116404571Y-83225633D01*
X116477142Y-83225633D01*
X116525523Y-83201442D01*
X116549714Y-83177252D01*
X116573904Y-83128871D01*
X116573904Y-82935347D01*
X116307809Y-83685252D02*
X116307809Y-83443347D01*
X116549714Y-83419157D01*
X116525523Y-83443347D01*
X116501333Y-83491728D01*
X116501333Y-83612680D01*
X116525523Y-83661061D01*
X116549714Y-83685252D01*
X116598095Y-83709442D01*
X116719047Y-83709442D01*
X116767428Y-83685252D01*
X116791619Y-83661061D01*
X116815809Y-83612680D01*
X116815809Y-83491728D01*
X116791619Y-83443347D01*
X116767428Y-83419157D01*
X116815809Y-68425047D02*
X116307809Y-68425047D01*
X116307809Y-68618571D01*
X116332000Y-68666952D01*
X116356190Y-68691142D01*
X116404571Y-68715333D01*
X116477142Y-68715333D01*
X116525523Y-68691142D01*
X116549714Y-68666952D01*
X116573904Y-68618571D01*
X116573904Y-68425047D01*
X116307809Y-68884666D02*
X116307809Y-69223333D01*
X116815809Y-69005619D01*
X135604115Y-110345712D02*
X135894904Y-110636501D01*
X135912010Y-110687817D01*
X135912010Y-110722028D01*
X135894904Y-110773343D01*
X135826483Y-110841764D01*
X135775168Y-110858870D01*
X135740957Y-110858870D01*
X135689641Y-110841764D01*
X135398852Y-110550975D01*
X135569905Y-111098343D02*
X135501484Y-111166764D01*
X135450168Y-111183869D01*
X135415957Y-111183869D01*
X135330431Y-111166764D01*
X135244905Y-111115448D01*
X135108063Y-110978606D01*
X135090958Y-110927291D01*
X135090958Y-110893080D01*
X135108063Y-110841764D01*
X135176484Y-110773343D01*
X135227800Y-110756238D01*
X135262010Y-110756238D01*
X135313326Y-110773343D01*
X135398852Y-110858870D01*
X135415957Y-110910185D01*
X135415957Y-110944396D01*
X135398852Y-110995712D01*
X135330431Y-111064133D01*
X135279115Y-111081238D01*
X135244905Y-111081238D01*
X135193589Y-111064133D01*
X149091952Y-57633809D02*
X149091952Y-57125809D01*
X148898428Y-57125809D01*
X148850047Y-57150000D01*
X148825857Y-57174190D01*
X148801666Y-57222571D01*
X148801666Y-57295142D01*
X148825857Y-57343523D01*
X148850047Y-57367714D01*
X148898428Y-57391904D01*
X149091952Y-57391904D01*
X148511380Y-57343523D02*
X148559761Y-57319333D01*
X148583952Y-57295142D01*
X148608142Y-57246761D01*
X148608142Y-57222571D01*
X148583952Y-57174190D01*
X148559761Y-57150000D01*
X148511380Y-57125809D01*
X148414619Y-57125809D01*
X148366238Y-57150000D01*
X148342047Y-57174190D01*
X148317857Y-57222571D01*
X148317857Y-57246761D01*
X148342047Y-57295142D01*
X148366238Y-57319333D01*
X148414619Y-57343523D01*
X148511380Y-57343523D01*
X148559761Y-57367714D01*
X148583952Y-57391904D01*
X148608142Y-57440285D01*
X148608142Y-57537047D01*
X148583952Y-57585428D01*
X148559761Y-57609619D01*
X148511380Y-57633809D01*
X148414619Y-57633809D01*
X148366238Y-57609619D01*
X148342047Y-57585428D01*
X148317857Y-57537047D01*
X148317857Y-57440285D01*
X148342047Y-57391904D01*
X148366238Y-57367714D01*
X148414619Y-57343523D01*
X154472452Y-57633809D02*
X154472452Y-57125809D01*
X154278928Y-57125809D01*
X154230547Y-57150000D01*
X154206357Y-57174190D01*
X154182166Y-57222571D01*
X154182166Y-57295142D01*
X154206357Y-57343523D01*
X154230547Y-57367714D01*
X154278928Y-57391904D01*
X154472452Y-57391904D01*
X153940261Y-57633809D02*
X153843500Y-57633809D01*
X153795119Y-57609619D01*
X153770928Y-57585428D01*
X153722547Y-57512857D01*
X153698357Y-57416095D01*
X153698357Y-57222571D01*
X153722547Y-57174190D01*
X153746738Y-57150000D01*
X153795119Y-57125809D01*
X153891880Y-57125809D01*
X153940261Y-57150000D01*
X153964452Y-57174190D01*
X153988642Y-57222571D01*
X153988642Y-57343523D01*
X153964452Y-57391904D01*
X153940261Y-57416095D01*
X153891880Y-57440285D01*
X153795119Y-57440285D01*
X153746738Y-57416095D01*
X153722547Y-57391904D01*
X153698357Y-57343523D01*
X167160357Y-57633809D02*
X167160357Y-57125809D01*
X166966833Y-57125809D01*
X166918452Y-57150000D01*
X166894261Y-57174190D01*
X166870071Y-57222571D01*
X166870071Y-57295142D01*
X166894261Y-57343523D01*
X166918452Y-57367714D01*
X166966833Y-57391904D01*
X167160357Y-57391904D01*
X166386261Y-57633809D02*
X166676547Y-57633809D01*
X166531404Y-57633809D02*
X166531404Y-57125809D01*
X166579785Y-57198380D01*
X166628166Y-57246761D01*
X166676547Y-57270952D01*
X166071785Y-57125809D02*
X166023404Y-57125809D01*
X165975023Y-57150000D01*
X165950833Y-57174190D01*
X165926642Y-57222571D01*
X165902452Y-57319333D01*
X165902452Y-57440285D01*
X165926642Y-57537047D01*
X165950833Y-57585428D01*
X165975023Y-57609619D01*
X166023404Y-57633809D01*
X166071785Y-57633809D01*
X166120166Y-57609619D01*
X166144357Y-57585428D01*
X166168547Y-57537047D01*
X166192738Y-57440285D01*
X166192738Y-57319333D01*
X166168547Y-57222571D01*
X166144357Y-57174190D01*
X166120166Y-57150000D01*
X166071785Y-57125809D01*
X164809683Y-82276316D02*
X164450473Y-81917105D01*
X164313631Y-82053947D01*
X164296526Y-82105263D01*
X164296526Y-82139474D01*
X164313631Y-82190789D01*
X164364947Y-82242105D01*
X164416262Y-82259210D01*
X164450473Y-82259210D01*
X164501789Y-82242105D01*
X164638631Y-82105263D01*
X164262315Y-82823683D02*
X164467578Y-82618420D01*
X164364947Y-82721052D02*
X164005737Y-82361842D01*
X164091263Y-82378947D01*
X164159684Y-82378947D01*
X164211000Y-82361842D01*
X163800474Y-82635526D02*
X163766263Y-82635526D01*
X163714947Y-82652631D01*
X163629421Y-82738157D01*
X163612316Y-82789473D01*
X163612316Y-82823683D01*
X163629421Y-82874999D01*
X163663632Y-82909210D01*
X163732053Y-82943420D01*
X164142579Y-82943420D01*
X163920210Y-83165788D01*
X125121609Y-88713128D02*
X124879704Y-88543795D01*
X125121609Y-88422842D02*
X124613609Y-88422842D01*
X124613609Y-88616366D01*
X124637800Y-88664747D01*
X124661990Y-88688938D01*
X124710371Y-88713128D01*
X124782942Y-88713128D01*
X124831323Y-88688938D01*
X124855514Y-88664747D01*
X124879704Y-88616366D01*
X124879704Y-88422842D01*
X124782942Y-89148557D02*
X125121609Y-89148557D01*
X124589419Y-89027604D02*
X124952276Y-88906652D01*
X124952276Y-89221128D01*
X124613609Y-89511414D02*
X124613609Y-89559795D01*
X124637800Y-89608176D01*
X124661990Y-89632366D01*
X124710371Y-89656557D01*
X124807133Y-89680747D01*
X124928085Y-89680747D01*
X125024847Y-89656557D01*
X125073228Y-89632366D01*
X125097419Y-89608176D01*
X125121609Y-89559795D01*
X125121609Y-89511414D01*
X125097419Y-89463033D01*
X125073228Y-89438842D01*
X125024847Y-89414652D01*
X124928085Y-89390461D01*
X124807133Y-89390461D01*
X124710371Y-89414652D01*
X124661990Y-89438842D01*
X124637800Y-89463033D01*
X124613609Y-89511414D01*
X122352143Y-87024697D02*
X122642933Y-86973381D01*
X122557406Y-87229960D02*
X122916617Y-86870750D01*
X122779775Y-86733908D01*
X122728459Y-86716803D01*
X122694248Y-86716803D01*
X122642933Y-86733908D01*
X122591617Y-86785224D01*
X122574512Y-86836539D01*
X122574512Y-86870750D01*
X122591617Y-86922066D01*
X122728459Y-87058908D01*
X122283723Y-86477329D02*
X122044249Y-86716803D01*
X122506091Y-86426014D02*
X122335038Y-86768118D01*
X122112670Y-86545750D01*
X121667934Y-86340487D02*
X121873197Y-86545750D01*
X121770565Y-86443119D02*
X122129775Y-86083909D01*
X122112670Y-86169435D01*
X122112670Y-86237856D01*
X122129775Y-86289172D01*
%LPC*%
D16*
X127000000Y-109100000D03*
X127000000Y-109750000D03*
X127000000Y-108450000D03*
X127000000Y-110400000D03*
X127000000Y-107800000D03*
D17*
X126750000Y-106300000D03*
X126750000Y-111900000D03*
D18*
X128900000Y-109100000D03*
D19*
X143166000Y-61382000D03*
X147066000Y-69682000D03*
X147066000Y-61382000D03*
X143166000Y-69682000D03*
D20*
X145116000Y-61382000D03*
X145116000Y-69682000D03*
D19*
X168484000Y-61382000D03*
X172384000Y-69682000D03*
X172384000Y-61382000D03*
X168484000Y-69682000D03*
D20*
X170434000Y-61382000D03*
X170434000Y-69682000D03*
D19*
X155784000Y-61382000D03*
X159684000Y-69682000D03*
X159684000Y-61382000D03*
X155784000Y-69682000D03*
D20*
X157734000Y-61382000D03*
X157734000Y-69682000D03*
D21*
X138942300Y-103156000D03*
X138942300Y-101657400D03*
X137414000Y-103187500D03*
X137414000Y-101688900D03*
X135890000Y-103187500D03*
X135890000Y-101688900D03*
D22*
X124135000Y-79046000D03*
X124135000Y-80946000D03*
X126335000Y-80946000D03*
X126335000Y-79996000D03*
X126335000Y-79046000D03*
D23*
X116619000Y-60592000D03*
X123919000Y-60592000D03*
X123919000Y-58392000D03*
X116619000Y-58392000D03*
D24*
X122519000Y-61242000D03*
X121019000Y-61242000D03*
X118019000Y-61242000D03*
D25*
X121769000Y-59492000D03*
X118769000Y-59492000D03*
D26*
X122618500Y-80946000D03*
X122618500Y-79046000D03*
D27*
X125857000Y-83947000D03*
X123107000Y-83947000D03*
D28*
X138090000Y-67986000D03*
X138740000Y-67986000D03*
X139390000Y-67986000D03*
X140040000Y-67986000D03*
X140040000Y-63586000D03*
X139390000Y-63586000D03*
X138740000Y-63586000D03*
X138090000Y-63586000D03*
X135518800Y-60995200D03*
X134868800Y-60995200D03*
X134218800Y-60995200D03*
X133568800Y-60995200D03*
X133568800Y-65395200D03*
X134218800Y-65395200D03*
X134868800Y-65395200D03*
X135518800Y-65395200D03*
X129740300Y-62138200D03*
X129090300Y-62138200D03*
X128440300Y-62138200D03*
X127790300Y-62138200D03*
X127790300Y-66538200D03*
X128440300Y-66538200D03*
X129090300Y-66538200D03*
X129740300Y-66538200D03*
D29*
X143383000Y-75398500D03*
X143383000Y-78398500D03*
X146685000Y-75398500D03*
X146685000Y-78398500D03*
X159385000Y-75398500D03*
X159385000Y-78398500D03*
X156083000Y-75398500D03*
X156083000Y-78398500D03*
X168783000Y-75398500D03*
X168783000Y-78398500D03*
X171958000Y-75398500D03*
X171958000Y-78398500D03*
D30*
X130556000Y-101739000D03*
X130556000Y-103239000D03*
X128778000Y-103239000D03*
X128778000Y-101739000D03*
X127004300Y-103227000D03*
X127004300Y-101727000D03*
D31*
X120916000Y-96583500D03*
X122416000Y-96583500D03*
X138926000Y-104775000D03*
X137426000Y-104775000D03*
X134531800Y-104343200D03*
X133031800Y-104343200D03*
X134531800Y-102743000D03*
X133031800Y-102743000D03*
D30*
X133281000Y-82619000D03*
X133281000Y-84119000D03*
X131684800Y-82630200D03*
X131684800Y-84130200D03*
D31*
X132966500Y-71501000D03*
X131466500Y-71501000D03*
X132966500Y-72961500D03*
X131466500Y-72961500D03*
X132966500Y-74485500D03*
X131466500Y-74485500D03*
X132966500Y-76009500D03*
X131466500Y-76009500D03*
X132966500Y-77533500D03*
X131466500Y-77533500D03*
X132966500Y-79057500D03*
X131466500Y-79057500D03*
X137922000Y-70929500D03*
X139422000Y-70929500D03*
X137921300Y-72466200D03*
X139421300Y-72466200D03*
X137934000Y-73977500D03*
X139434000Y-73977500D03*
X137934000Y-75501500D03*
X139434000Y-75501500D03*
X137934000Y-77025500D03*
X139434000Y-77025500D03*
X137934000Y-78549500D03*
X139434000Y-78549500D03*
D30*
X134239000Y-91782200D03*
X134239000Y-93282200D03*
X131191000Y-91782200D03*
X131191000Y-93282200D03*
X128143000Y-91782200D03*
X128143000Y-93282200D03*
D32*
X136779000Y-67703000D03*
X136779000Y-69203000D03*
D33*
X134505000Y-96774000D03*
X136005000Y-96774000D03*
X120903300Y-95135700D03*
X122403300Y-95135700D03*
D32*
X138988800Y-87845200D03*
X138988800Y-89345200D03*
D33*
X126123000Y-96012000D03*
X127623000Y-96012000D03*
D32*
X133477000Y-99695000D03*
X133477000Y-98195000D03*
X130937000Y-89269000D03*
X130937000Y-87769000D03*
X127635000Y-79998000D03*
X127635000Y-78498000D03*
X132715000Y-93282200D03*
X132715000Y-91782200D03*
X129667000Y-93282200D03*
X129667000Y-91782200D03*
X131953000Y-64631000D03*
X131953000Y-63131000D03*
X126174500Y-65087500D03*
X126174500Y-63587500D03*
X126619000Y-93282200D03*
X126619000Y-91782200D03*
D34*
G36*
X130700678Y-111501348D02*
G01*
X130170348Y-112031678D01*
X129604662Y-111465992D01*
X130134992Y-110935662D01*
X130700678Y-111501348D01*
G37*
G36*
X131761338Y-112562008D02*
G01*
X131231008Y-113092338D01*
X130665322Y-112526652D01*
X131195652Y-111996322D01*
X131761338Y-112562008D01*
G37*
G36*
X138158322Y-107446652D02*
G01*
X138688652Y-106916322D01*
X139254338Y-107482008D01*
X138724008Y-108012338D01*
X138158322Y-107446652D01*
G37*
G36*
X137097662Y-106385992D02*
G01*
X137627992Y-105855662D01*
X138193678Y-106421348D01*
X137663348Y-106951678D01*
X137097662Y-106385992D01*
G37*
D33*
X125210000Y-82296000D03*
X123710000Y-82296000D03*
D34*
G36*
X131398571Y-110647611D02*
G01*
X130479332Y-109728372D01*
X131893545Y-108314159D01*
X132812784Y-109233398D01*
X131398571Y-110647611D01*
G37*
G36*
X134226998Y-107819184D02*
G01*
X133307759Y-106899945D01*
X134721972Y-105485732D01*
X135641211Y-106404971D01*
X134226998Y-107819184D01*
G37*
G36*
X135924055Y-109516241D02*
G01*
X135004816Y-108597002D01*
X136419029Y-107182789D01*
X137338268Y-108102028D01*
X135924055Y-109516241D01*
G37*
G36*
X133095628Y-112344668D02*
G01*
X132176389Y-111425429D01*
X133590602Y-110011216D01*
X134509841Y-110930455D01*
X133095628Y-112344668D01*
G37*
D35*
X136906000Y-87339320D03*
X132906000Y-87339320D03*
X132906000Y-89739320D03*
X136906000Y-89739320D03*
D36*
X149726000Y-81788000D03*
X144726000Y-81788000D03*
X165842000Y-81788000D03*
X170842000Y-81788000D03*
D37*
X118000000Y-104203040D03*
D38*
X118000000Y-100200000D03*
X118000000Y-102201520D03*
D39*
X151384000Y-58166000D03*
X164084000Y-58166000D03*
D40*
X123184920Y-108458000D03*
D41*
X119181880Y-108458000D03*
X121183400Y-108458000D03*
X117182900Y-108458000D03*
D40*
X126846200Y-58000000D03*
D41*
X130849240Y-58000000D03*
X128847720Y-58000000D03*
X132848220Y-58000000D03*
X134849740Y-58000000D03*
X136851260Y-58000000D03*
D38*
X117983000Y-79298740D03*
X117983000Y-81297720D03*
X117983000Y-83299240D03*
D37*
X117983000Y-91305320D03*
D38*
X117983000Y-87302280D03*
X117983000Y-89303800D03*
X117983000Y-85303300D03*
X117983000Y-77299760D03*
D37*
X117983000Y-72803040D03*
D38*
X117983000Y-68800000D03*
X117983000Y-70801520D03*
X117983000Y-66801020D03*
X117983000Y-64799500D03*
D34*
G36*
X137692191Y-112873693D02*
G01*
X136949728Y-113616156D01*
X135394093Y-112060521D01*
X136136556Y-111318058D01*
X137692191Y-112873693D01*
G37*
G36*
X139389246Y-112520140D02*
G01*
X138682140Y-113227246D01*
X137939678Y-112484784D01*
X138646784Y-111777678D01*
X139389246Y-112520140D01*
G37*
G36*
X139778156Y-110787728D02*
G01*
X139035693Y-111530191D01*
X137480058Y-109974556D01*
X138222521Y-109232093D01*
X139778156Y-110787728D01*
G37*
D42*
X145114500Y-57531000D03*
X157734000Y-57531000D03*
X170434000Y-57531000D03*
D43*
X157734000Y-86800000D03*
D30*
X123621800Y-89789700D03*
X123621800Y-88289700D03*
D34*
G36*
X122500805Y-87828409D02*
G01*
X121864409Y-88464805D01*
X121510855Y-88111251D01*
X122147251Y-87474855D01*
X122500805Y-87828409D01*
G37*
G36*
X121440145Y-86767749D02*
G01*
X120803749Y-87404145D01*
X120450195Y-87050591D01*
X121086591Y-86414195D01*
X121440145Y-86767749D01*
G37*
D44*
X138962702Y-92304292D03*
X132842000Y-99822000D03*
X124206000Y-77978000D03*
X122809000Y-75565008D03*
X127254000Y-83947000D03*
X129285998Y-96418400D03*
X127508000Y-89027000D03*
X126746000Y-60198000D03*
X126111000Y-60198000D03*
X125476000Y-60197994D03*
X136144000Y-113538000D03*
X135636000Y-113030000D03*
X135153400Y-112572800D03*
X131318000Y-111252000D03*
X130759803Y-105862686D03*
X131064000Y-69977000D03*
X137541000Y-108966000D03*
X138607800Y-109016800D03*
X135365271Y-90879140D03*
X138067817Y-104043011D03*
X138430000Y-86741000D03*
X132455883Y-105791000D03*
X131572000Y-106674883D03*
X131572000Y-104907117D03*
X132969000Y-113157000D03*
X139065000Y-109474000D03*
X134874000Y-66800000D03*
X127232128Y-69342000D03*
X131699000Y-69977000D03*
X131699000Y-69342000D03*
X131064000Y-69342000D03*
X134239000Y-66800000D03*
X133604000Y-66802000D03*
X166471600Y-67640200D03*
X165887400Y-67640200D03*
X165303200Y-67640200D03*
X164719000Y-67640200D03*
X164134800Y-67640200D03*
X163550600Y-67640200D03*
X162966400Y-67640200D03*
X162382200Y-67640200D03*
X161798000Y-67640200D03*
X166471600Y-67056000D03*
X165887400Y-67056000D03*
X165303200Y-67056000D03*
X164719000Y-67056000D03*
X164134800Y-67056000D03*
X163550600Y-67056000D03*
X162966400Y-67056000D03*
X162382200Y-67056000D03*
X161798000Y-67056000D03*
X166471600Y-66471800D03*
X165887400Y-66471800D03*
X165303200Y-66471800D03*
X164719000Y-66471800D03*
X164134800Y-66471800D03*
X163550600Y-66471800D03*
X162966400Y-66471800D03*
X162382200Y-66471800D03*
X161798000Y-66471800D03*
X166471600Y-65887600D03*
X165887400Y-65887600D03*
X165303200Y-65887600D03*
X164719000Y-65887600D03*
X164134800Y-65887600D03*
X163550600Y-65887600D03*
X162966400Y-65887600D03*
X162382200Y-65887600D03*
X161798000Y-65887600D03*
X166471600Y-65303400D03*
X165887400Y-65303400D03*
X165303200Y-65303400D03*
X164719000Y-65303400D03*
X164134800Y-65303400D03*
X163550600Y-65303400D03*
X162966400Y-65303400D03*
X162382200Y-65303400D03*
X161798000Y-65303400D03*
X166471600Y-64719200D03*
X165887400Y-64719200D03*
X165303200Y-64719200D03*
X164719000Y-64719200D03*
X164134800Y-64719200D03*
X163550600Y-64719200D03*
X162966400Y-64719200D03*
X162382200Y-64719200D03*
X161798000Y-64719200D03*
X166471600Y-64135000D03*
X165887400Y-64135000D03*
X165303200Y-64135000D03*
X164719000Y-64135000D03*
X164134800Y-64135000D03*
X163550600Y-64135000D03*
X162966400Y-64135000D03*
X162382200Y-64135000D03*
X153644600Y-67640200D03*
X153060400Y-67640200D03*
X152476200Y-67640200D03*
X151892000Y-67640200D03*
X151307800Y-67640200D03*
X150723600Y-67640200D03*
X150139400Y-67640200D03*
X149555200Y-67640200D03*
X148971000Y-67640200D03*
X153644600Y-67056000D03*
X153060400Y-67056000D03*
X152476200Y-67056000D03*
X151892000Y-67056000D03*
X151307800Y-67056000D03*
X150723600Y-67056000D03*
X150139400Y-67056000D03*
X149555200Y-67056000D03*
X148971000Y-67056000D03*
X153644600Y-66471800D03*
X153060400Y-66471800D03*
X152476200Y-66471800D03*
X151892000Y-66471800D03*
X151307800Y-66471800D03*
X150723600Y-66471800D03*
X150139400Y-66471800D03*
X149555200Y-66471800D03*
X148971000Y-66471800D03*
X153644600Y-65887600D03*
X153060400Y-65887600D03*
X152476200Y-65887600D03*
X151892000Y-65887600D03*
X151307800Y-65887600D03*
X150723600Y-65887600D03*
X150139400Y-65887600D03*
X149555200Y-65887600D03*
X148971000Y-65887600D03*
X153644600Y-65303400D03*
X153060400Y-65303400D03*
X152476200Y-65303400D03*
X151892000Y-65303400D03*
X151307800Y-65303400D03*
X150723600Y-65303400D03*
X150139400Y-65303400D03*
X149555200Y-65303400D03*
X148971000Y-65303400D03*
X153644600Y-64719200D03*
X153060400Y-64719200D03*
X152476200Y-64719200D03*
X151892000Y-64719200D03*
X151307800Y-64719200D03*
X150723600Y-64719200D03*
X150139400Y-64719200D03*
X149555200Y-64719200D03*
X148971000Y-64719200D03*
X153644600Y-64135000D03*
X153060400Y-64135000D03*
X152476200Y-64135000D03*
X151892000Y-64135000D03*
X151307800Y-64135000D03*
X150723600Y-64135000D03*
X150139400Y-64135000D03*
X149555200Y-64135000D03*
X161798000Y-64135000D03*
X148971000Y-64135000D03*
X130175000Y-110363000D03*
X137795000Y-113284000D03*
X135635992Y-107061000D03*
X131560403Y-103483196D03*
X139472588Y-109982000D03*
X136574791Y-102438201D03*
X134620000Y-79756000D03*
X135128000Y-80264000D03*
X134112000Y-79248000D03*
X138430000Y-105664000D03*
X124841000Y-97155000D03*
X129595590Y-88392000D03*
X127825500Y-82042000D03*
X119564577Y-85539885D03*
X120804392Y-81253533D03*
X120707500Y-77285500D03*
X124015504Y-85344000D03*
X122865203Y-81838342D03*
X136906000Y-64516000D03*
X135073207Y-89012203D03*
X124460008Y-95891686D03*
X123698002Y-99233010D03*
X138557000Y-100203000D03*
X132080000Y-101473000D03*
X135043559Y-70650810D03*
X122228895Y-89123113D03*
X136144000Y-97917000D03*
X128016000Y-105663998D03*
X119500000Y-102000000D03*
X122936000Y-77343000D03*
X122555000Y-85471000D03*
X131826000Y-59690000D03*
X129332010Y-81915000D03*
X133477000Y-95631000D03*
X134423040Y-89928550D03*
X133832658Y-88565010D03*
X122047000Y-67310000D03*
X122174000Y-72136000D03*
X122174000Y-71374000D03*
X117000000Y-97500000D03*
X131572000Y-61214000D03*
X131554155Y-61889155D03*
X122110498Y-63309500D03*
X134801900Y-72182240D03*
X143000000Y-71500000D03*
X143624840Y-71500000D03*
X144249680Y-71500000D03*
X146124200Y-71500000D03*
X146749040Y-71500000D03*
X147373880Y-71500000D03*
X147998720Y-71500000D03*
X143000000Y-72124840D03*
X143624840Y-72124840D03*
X144249680Y-72124840D03*
X144874520Y-72124840D03*
X145499360Y-72124840D03*
X146124200Y-72124840D03*
X146749040Y-72124840D03*
X147373880Y-72124840D03*
X147998720Y-72124840D03*
X143624840Y-72749680D03*
X144249680Y-72749680D03*
X144874520Y-72749680D03*
X145499360Y-72749680D03*
X146124200Y-72749680D03*
X146749040Y-72749680D03*
X147373880Y-72749680D03*
X147998720Y-72749680D03*
X143624840Y-73374520D03*
X144249680Y-73374520D03*
X144874520Y-73374520D03*
X145499360Y-73374520D03*
X146124200Y-73374520D03*
X146749040Y-73374520D03*
X147373880Y-73374520D03*
X147998720Y-73374520D03*
X143002000Y-72771000D03*
X155575000Y-71501000D03*
X140843000Y-73660000D03*
X134981000Y-74919000D03*
X156197300Y-71501000D03*
X156819600Y-71501000D03*
X158686500Y-71501000D03*
X159308800Y-71501000D03*
X159931100Y-71501000D03*
X160553400Y-71501000D03*
X155575000Y-72123300D03*
X156197300Y-72123300D03*
X156819600Y-72123300D03*
X157441900Y-72123300D03*
X158064200Y-72123300D03*
X158686500Y-72123300D03*
X159308800Y-72123300D03*
X159931100Y-72123300D03*
X160553400Y-72123300D03*
X155575000Y-72745600D03*
X156197300Y-72745600D03*
X156819600Y-72745600D03*
X157441900Y-72745600D03*
X158064200Y-72745600D03*
X158686500Y-72745600D03*
X159308800Y-72745600D03*
X159931100Y-72745600D03*
X160553400Y-72745600D03*
X155575000Y-73367900D03*
X156197300Y-73367900D03*
X156819600Y-73367900D03*
X157441900Y-73367900D03*
X158064200Y-73367900D03*
X158686500Y-73367900D03*
X159308800Y-73367900D03*
X159931100Y-73367900D03*
X160553400Y-73367900D03*
X168275000Y-71501000D03*
X134866829Y-77759634D03*
X168897300Y-71501000D03*
X169519600Y-71501000D03*
X171386500Y-71501000D03*
X172008800Y-71501000D03*
X172631100Y-71501000D03*
X173253400Y-71501000D03*
X168275000Y-72123300D03*
X168897300Y-72123300D03*
X169519600Y-72123300D03*
X170141900Y-72123300D03*
X170764200Y-72123300D03*
X171386500Y-72123300D03*
X172008800Y-72123300D03*
X172631100Y-72123300D03*
X173253400Y-72123300D03*
X168275000Y-72745600D03*
X168897300Y-72745600D03*
X169519600Y-72745600D03*
X170141900Y-72745600D03*
X170764200Y-72745600D03*
X171386500Y-72745600D03*
X172008800Y-72745600D03*
X172631100Y-72745600D03*
X173253400Y-72745600D03*
X168275000Y-73367900D03*
X168897300Y-73367900D03*
X169519600Y-73367900D03*
X170141900Y-73367900D03*
X170764200Y-73367900D03*
X171386500Y-73367900D03*
X172008800Y-73367900D03*
X138176000Y-80264016D03*
X167513000Y-79375000D03*
X133731000Y-68580000D03*
X134391400Y-81508600D03*
X133834000Y-80957296D03*
X134162800Y-68148200D03*
X143383000Y-79375000D03*
X144018000Y-79375000D03*
X144653000Y-79375000D03*
X145288000Y-79375000D03*
X145923000Y-79375000D03*
X146558000Y-79375000D03*
X147193000Y-79375000D03*
X147828000Y-79375000D03*
X142113000Y-80010000D03*
X142748000Y-80010000D03*
X143383000Y-80010000D03*
X144018000Y-80010000D03*
X144653000Y-80010000D03*
X145288000Y-80010000D03*
X145923000Y-80010000D03*
X146558000Y-80010000D03*
X147193000Y-80010000D03*
X147828000Y-80010000D03*
X155448000Y-79375000D03*
X156083000Y-79375000D03*
X156718000Y-79375000D03*
X157353000Y-79375000D03*
X157988000Y-79375000D03*
X158623000Y-79375000D03*
X159258000Y-79375000D03*
X159893000Y-79375000D03*
X160528000Y-79375000D03*
X154813000Y-80010000D03*
X155448000Y-80010000D03*
X156083000Y-80010000D03*
X156718000Y-80010000D03*
X157353000Y-80010000D03*
X157988000Y-80010000D03*
X158623000Y-80010000D03*
X159258000Y-80010000D03*
X159893000Y-80010000D03*
X160528000Y-80010000D03*
X168148000Y-79375000D03*
X168783000Y-79375000D03*
X169418000Y-79375000D03*
X170053000Y-79375000D03*
X170688000Y-79375000D03*
X171323000Y-79375000D03*
X171958000Y-79375000D03*
X167513000Y-80010000D03*
X168148000Y-80010000D03*
X168783000Y-80010000D03*
X169418000Y-80010000D03*
X170053000Y-80010000D03*
X170688000Y-80010000D03*
X171323000Y-80010000D03*
X171958000Y-80010000D03*
X172593000Y-80010000D03*
X173228000Y-80010000D03*
X154813000Y-79375000D03*
X133413500Y-85661500D03*
X130175000Y-85343992D03*
X125222020Y-86233000D03*
X129541903Y-84702447D03*
X134874000Y-84201000D03*
X140334994Y-79883000D03*
X129332010Y-85424990D03*
X130556000Y-108839000D03*
X130047129Y-108198771D03*
X138049000Y-111887000D03*
X124154259Y-92800500D03*
X131058287Y-99840668D03*
X131953000Y-99822000D03*
X125222000Y-58674000D03*
X130175000Y-99822000D03*
X125222000Y-56261000D03*
X120523000Y-65659000D03*
X121920000Y-56388002D03*
X122809000Y-55527400D03*
X122430288Y-91512540D03*
X122463692Y-89894282D03*
X122415622Y-90734866D03*
X136398006Y-99060000D03*
X138674492Y-97052553D03*
X134366010Y-95631000D03*
X135254999Y-96073726D03*
X121873990Y-68326000D03*
X129921000Y-68453000D03*
X129681000Y-89646000D03*
X126225423Y-86284710D03*
X127001590Y-86234157D03*
X127309579Y-86995000D03*
X147039000Y-58647000D03*
X146404000Y-58647000D03*
X145769000Y-58647000D03*
X145134000Y-58647000D03*
X144499000Y-58647000D03*
X143864000Y-58647000D03*
X143229000Y-58647000D03*
X147039000Y-58012000D03*
X146404000Y-58012000D03*
X145769000Y-58012000D03*
X145134000Y-58012000D03*
X144499000Y-58012000D03*
X143864000Y-58012000D03*
X143229000Y-58012000D03*
X147039000Y-57377000D03*
X146404000Y-57377000D03*
X145769000Y-57377000D03*
X145134000Y-57377000D03*
X144499000Y-57377000D03*
X143864000Y-57377000D03*
X143229000Y-57377000D03*
X147039000Y-56742000D03*
X146404000Y-56742000D03*
X145769000Y-56742000D03*
X145134000Y-56742000D03*
X144499000Y-56742000D03*
X143864000Y-56742000D03*
X143229000Y-56742000D03*
X147039000Y-56107000D03*
X146404000Y-56107000D03*
X145769000Y-56107000D03*
X145134000Y-56107000D03*
X144499000Y-56107000D03*
X143864000Y-56107000D03*
X143229000Y-56107000D03*
X134859694Y-71406578D03*
X134983565Y-72918030D03*
X159639000Y-58647000D03*
X159004000Y-58647000D03*
X158369000Y-58647000D03*
X157734000Y-58647000D03*
X157099000Y-58647000D03*
X156464000Y-58647000D03*
X155829000Y-58647000D03*
X159639000Y-58012000D03*
X159004000Y-58012000D03*
X158369000Y-58012000D03*
X157734000Y-58012000D03*
X157099000Y-58012000D03*
X156464000Y-58012000D03*
X155829000Y-58012000D03*
X159639000Y-57377000D03*
X159004000Y-57377000D03*
X158369000Y-57377000D03*
X157734000Y-57377000D03*
X157099000Y-57377000D03*
X156464000Y-57377000D03*
X155829000Y-57377000D03*
X159639000Y-56742000D03*
X159004000Y-56742000D03*
X158369000Y-56742000D03*
X157734000Y-56742000D03*
X157099000Y-56742000D03*
X156464000Y-56742000D03*
X155829000Y-56742000D03*
X159639000Y-56107000D03*
X159004000Y-56107000D03*
X158369000Y-56107000D03*
X157734000Y-56107000D03*
X157099000Y-56107000D03*
X156464000Y-56107000D03*
X155829000Y-56107000D03*
X135081000Y-74119000D03*
X134981000Y-75719000D03*
X172339000Y-58647000D03*
X171704000Y-58647000D03*
X171069000Y-58647000D03*
X170434000Y-58647000D03*
X169799000Y-58647000D03*
X169164000Y-58647000D03*
X168529000Y-58647000D03*
X172339000Y-58012000D03*
X171704000Y-58012000D03*
X171069000Y-58012000D03*
X170434000Y-58012000D03*
X169799000Y-58012000D03*
X169164000Y-58012000D03*
X168529000Y-58012000D03*
X172339000Y-57377000D03*
X171704000Y-57377000D03*
X171069000Y-57377000D03*
X170434000Y-57377000D03*
X169799000Y-57377000D03*
X169164000Y-57377000D03*
X168529000Y-57377000D03*
X172339000Y-56742000D03*
X171704000Y-56742000D03*
X171069000Y-56742000D03*
X170434000Y-56742000D03*
X169799000Y-56742000D03*
X169164000Y-56742000D03*
X168529000Y-56742000D03*
X172339000Y-56107000D03*
X171704000Y-56107000D03*
X171069000Y-56107000D03*
X170434000Y-56107000D03*
X169799000Y-56107000D03*
X169164000Y-56107000D03*
X168529000Y-56107000D03*
X134860669Y-76981846D03*
X134889640Y-78537112D03*
X133538673Y-94492042D03*
X139953998Y-66848010D03*
X132786454Y-94474981D03*
X133858000Y-59182000D03*
X128142989Y-93980000D03*
X128285958Y-60513413D03*
X128642410Y-97102622D03*
X130081000Y-76019000D03*
X127127000Y-76453990D03*
X128397000Y-99822000D03*
X129307004Y-99825571D03*
X126478244Y-77346228D03*
X131435153Y-96637145D03*
X129794000Y-70866000D03*
X127235055Y-72768890D03*
X138938000Y-95758000D03*
X130048000Y-72517004D03*
X138953108Y-94972476D03*
X130048887Y-71633226D03*
X138937532Y-94194820D03*
X135509000Y-92582988D03*
X124413996Y-104775000D03*
X135682010Y-91686407D03*
X125222000Y-104140000D03*
X136419649Y-91538037D03*
X125857000Y-103251000D03*
X123825000Y-94234000D03*
X133350000Y-101473004D03*
X124714000Y-94488000D03*
X137805745Y-100594745D03*
X132088514Y-97059176D03*
X130040229Y-75242258D03*
X130699209Y-95223794D03*
X129901590Y-76826915D03*
X129286000Y-94996000D03*
X127230600Y-77355385D03*
X130081000Y-74319000D03*
X138938000Y-93091000D03*
X130048000Y-69723000D03*
X138938002Y-91424189D03*
X138707856Y-98047010D03*
X121920000Y-99060000D03*
X124841000Y-99233010D03*
X139065000Y-98933000D03*
X139449746Y-90260402D03*
X136017000Y-62865000D03*
X153416016Y-61595000D03*
X136271000Y-61849000D03*
X152527000Y-61849000D03*
X166116000Y-61595000D03*
X132310282Y-65970701D03*
X165227000Y-61849000D03*
X131699000Y-65532000D03*
X140335000Y-72842410D03*
X143510000Y-67691000D03*
X140589006Y-71247000D03*
X143510000Y-77089000D03*
X140600000Y-74500000D03*
X154635196Y-77165200D03*
X140300000Y-75300000D03*
X156083000Y-67691000D03*
X159766000Y-67691000D03*
X141224000Y-70612000D03*
X168783000Y-67691000D03*
X137904193Y-79451912D03*
X122491500Y-92329000D03*
D12*
G36*
X153162000Y-80010000D02*
G01*
X153164440Y-80034776D01*
X153171667Y-80058601D01*
X153183403Y-80080557D01*
X153199197Y-80099803D01*
X154215197Y-81115803D01*
X154234443Y-81131597D01*
X154256399Y-81143333D01*
X154280224Y-81150560D01*
X154305000Y-81153000D01*
X161163000Y-81153000D01*
X161187776Y-81150560D01*
X161211601Y-81143333D01*
X161233557Y-81131597D01*
X161252803Y-81115803D01*
X162268803Y-80099803D01*
X162284597Y-80080557D01*
X162296333Y-80058601D01*
X162303560Y-80034776D01*
X162306000Y-80010000D01*
X162306000Y-63881000D01*
X165989000Y-63881000D01*
X165989000Y-80192152D01*
X160665783Y-83391144D01*
X160645803Y-83405998D01*
X160629105Y-83424464D01*
X160616331Y-83445833D01*
X160607970Y-83469284D01*
X160604200Y-83500000D01*
X160604200Y-84455000D01*
X154863800Y-84455000D01*
X154863800Y-83500000D01*
X154861360Y-83475224D01*
X154854133Y-83451399D01*
X154842397Y-83429443D01*
X154826603Y-83410197D01*
X154802217Y-83391144D01*
X149479000Y-80192152D01*
X149479000Y-63881000D01*
X153162000Y-63881000D01*
X153162000Y-80010000D01*
G37*
X153162000Y-80010000D02*
X153164440Y-80034776D01*
X153171667Y-80058601D01*
X153183403Y-80080557D01*
X153199197Y-80099803D01*
X154215197Y-81115803D01*
X154234443Y-81131597D01*
X154256399Y-81143333D01*
X154280224Y-81150560D01*
X154305000Y-81153000D01*
X161163000Y-81153000D01*
X161187776Y-81150560D01*
X161211601Y-81143333D01*
X161233557Y-81131597D01*
X161252803Y-81115803D01*
X162268803Y-80099803D01*
X162284597Y-80080557D01*
X162296333Y-80058601D01*
X162303560Y-80034776D01*
X162306000Y-80010000D01*
X162306000Y-63881000D01*
X165989000Y-63881000D01*
X165989000Y-80192152D01*
X160665783Y-83391144D01*
X160645803Y-83405998D01*
X160629105Y-83424464D01*
X160616331Y-83445833D01*
X160607970Y-83469284D01*
X160604200Y-83500000D01*
X160604200Y-84455000D01*
X154863800Y-84455000D01*
X154863800Y-83500000D01*
X154861360Y-83475224D01*
X154854133Y-83451399D01*
X154842397Y-83429443D01*
X154826603Y-83410197D01*
X154802217Y-83391144D01*
X149479000Y-80192152D01*
X149479000Y-63881000D01*
X153162000Y-63881000D01*
X153162000Y-80010000D01*
M02*
