M48
; DRILL file {KiCad (5.1.5-0)} date Wednesday, 18 December 2019 at 14:52:28
; FORMAT={-:-/ absolute / inch / decimal}
; #@! TF.CreationDate,2019-12-18T14:52:28+08:00
; #@! TF.GenerationSoftware,Kicad,Pcbnew,(5.1.5-0)
; #@! TF.FileFunction,Plated,1,4,PTH
FMAT,2
INCH
T1C0.0118
T2C0.0197
T3C0.0276
T4C0.0315
%
G90
G05
T1
X4.6063Y-3.8386
X4.7047Y-4.0157
X4.7073Y-3.3677
X4.745Y-2.585
X4.7523Y-3.0427
X4.7561Y-3.199
X4.7982Y-2.69
X4.8Y-2.22
X4.8Y-3.9
X4.805Y-2.65
X4.8075Y-2.4925
X4.81Y-2.81
X4.81Y-2.84
X4.8122Y-3.5088
X4.8195Y-3.5722
X4.8201Y-3.6029
X4.8214Y-3.5391
X4.8225Y-3.635
X4.825Y-3.365
X4.835Y-2.1861
X4.835Y-2.975
X4.8372Y-3.222
X4.84Y-3.045
X4.87Y-3.9068
X4.875Y-3.71
X4.8825Y-3.36
X4.888Y-3.6536
X4.89Y-3.07
X4.8982Y-4.125
X4.9Y-3.7753
X4.91Y-3.72
X4.915Y-3.825
X4.915Y-3.9068
X4.93Y-2.215
X4.93Y-2.31
X4.93Y-4.1
X4.93Y-3.395
X4.94Y-2.37
X4.955Y-4.065
X4.965Y-2.37
X4.9695Y-3.397
X4.9795Y-3.0451
X4.99Y-2.37
X5.0001Y-3.395
X5.005Y-3.01
X5.0091Y-3.0455
X5.0091Y-2.73
X5.0093Y-2.8649
X5.01Y-3.305
X5.0122Y-3.425
X5.02Y-3.505
X5.0325Y-3.23
X5.04Y-4.16
X5.045Y-3.7
X5.0506Y-2.3824
X5.055Y-3.93
X5.0647Y-3.8229
X5.09Y-3.796
X5.09Y-3.74
X5.0908Y-3.9301
X5.0918Y-3.225
X5.0918Y-3.3632
X5.1001Y-3.3347
X5.1022Y-3.48
X5.1056Y-3.5294
X5.11Y-2.79
X5.1142Y-3.0247
X5.115Y-2.695
X5.1197Y-2.9623
X5.12Y-4.2598
X5.12Y-2.745
X5.12Y-2.855
X5.12Y-2.8202
X5.1213Y-2.9259
X5.1213Y-2.9929
X5.125Y-3.36
X5.125Y-3.93
X5.125Y-4.345
X5.14Y-4.285
X5.1456Y-3.749
X5.148Y-4.1678
X5.1598Y-3.9307
X5.16Y-2.73
X5.16Y-2.755
X5.17Y-4.38
X5.1746Y-3.8046
X5.1793Y-2.4366
X5.1795Y-4.0741
X5.18Y-2.41
X5.18Y-4.1302
X5.18Y-4.1998
X5.185Y-2.58
X5.185Y-2.73
X5.185Y-2.755
X5.19Y-2.35
X5.195Y-3.93
X5.2Y-3.995
X5.2003Y-3.8212
X5.2091Y-2.5973
X5.2148Y-4.165
X5.2278Y-3.7195
X5.23Y-3.93
X5.235Y-4.455
X5.25Y-3.995
X5.2525Y-3.3725
X5.255Y-3.765
X5.2574Y-3.7202
X5.26Y-2.63
X5.265Y-2.7
X5.269Y-3.4868
X5.2691Y-3.1873
X5.27Y-2.33
X5.28Y-3.12
X5.282Y-2.683
X5.285Y-2.6299
X5.29Y-3.765
X5.291Y-3.209
X5.2922Y-3.5405
X5.3Y-3.14
X5.3072Y-2.8418
X5.3094Y-2.8113
X5.3095Y-3.0308
X5.3097Y-3.0614
X5.31Y-2.6299
X5.31Y-3.315
X5.3106Y-3.092
X5.3142Y-2.9496
X5.3142Y-2.9811
X5.3143Y-2.8708
X5.3167Y-2.7815
X5.3178Y-3.5044
X5.3181Y-2.9181
X5.32Y-3.16
X5.321Y-4.432
X5.325Y-3.7824
X5.3293Y-3.5779
X5.335Y-3.645
X5.34Y-4.215
X5.34Y-4.45
X5.3418Y-3.6097
X5.355Y-2.475
X5.36Y-3.855
X5.36Y-4.47
X5.365Y-2.435
X5.37Y-3.9
X5.3709Y-3.6039
X5.377Y-4.033
X5.39Y-2.54
X5.415Y-4.29
X5.425Y-4.46
X5.4254Y-3.9604
X5.4293Y-3.128
X5.435Y-4.405
X5.4357Y-4.0962
X5.44Y-3.16
X5.45Y-3.415
X5.45Y-4.16
X5.455Y-3.945
X5.457Y-4.292
X5.4596Y-3.821
X5.4609Y-3.8601
X5.47Y-3.7085
X5.47Y-3.665
X5.47Y-3.77
X5.47Y-3.5994
X5.4706Y-3.7391
X5.471Y-3.634
X5.475Y-3.895
X5.475Y-4.31
X5.4901Y-3.5536
X5.491Y-4.33
X5.51Y-2.6318
X5.5236Y-2.9646
X5.525Y-3.145
X5.525Y-2.8678
X5.535Y-2.805
X5.5354Y-2.9331
X5.545Y-2.9
X5.56Y-2.78
X5.595Y-3.15
X5.62Y-3.15
X5.6299Y-2.815
X5.6299Y-2.8396
X5.63Y-2.865
X5.6389Y-2.2089
X5.6389Y-2.2339
X5.6389Y-2.2589
X5.6389Y-2.2839
X5.6389Y-2.3089
X5.645Y-3.125
X5.645Y-3.15
X5.65Y-2.665
X5.65Y-3.035
X5.6545Y-2.815
X5.6545Y-2.8396
X5.6545Y-2.8642
X5.6545Y-2.8888
X5.6639Y-2.2089
X5.6639Y-2.2339
X5.6639Y-2.2589
X5.6639Y-2.2839
X5.6639Y-2.3089
X5.67Y-3.125
X5.67Y-3.15
X5.6791Y-2.815
X5.6791Y-2.8396
X5.6791Y-2.8642
X5.6791Y-2.8888
X5.6889Y-2.2089
X5.6889Y-2.2339
X5.6889Y-2.2589
X5.6889Y-2.2839
X5.6889Y-2.3089
X5.695Y-3.125
X5.695Y-3.15
X5.7037Y-2.8396
X5.7037Y-2.8642
X5.7037Y-2.8888
X5.7139Y-2.2089
X5.7139Y-2.2339
X5.7139Y-2.2589
X5.7139Y-2.2839
X5.7139Y-2.3089
X5.72Y-3.125
X5.72Y-3.15
X5.7283Y-2.8396
X5.7283Y-2.8642
X5.7283Y-2.8888
X5.7389Y-2.2089
X5.7389Y-2.2339
X5.7389Y-2.2589
X5.7389Y-2.2839
X5.7389Y-2.3089
X5.745Y-3.125
X5.745Y-3.15
X5.7529Y-2.815
X5.7529Y-2.8396
X5.7529Y-2.8642
X5.7529Y-2.8888
X5.7639Y-2.2089
X5.7639Y-2.2339
X5.7639Y-2.2589
X5.7639Y-2.2839
X5.7639Y-2.3089
X5.77Y-3.125
X5.77Y-3.15
X5.7775Y-2.815
X5.7775Y-2.8396
X5.7775Y-2.8642
X5.7775Y-2.8888
X5.7889Y-2.2089
X5.7889Y-2.2339
X5.7889Y-2.2589
X5.7889Y-2.2839
X5.7889Y-2.3089
X5.795Y-3.125
X5.795Y-3.15
X5.8021Y-2.815
X5.8021Y-2.8396
X5.8021Y-2.8642
X5.8021Y-2.8888
X5.82Y-3.125
X5.82Y-3.15
X5.8267Y-2.815
X5.8267Y-2.8396
X5.8267Y-2.8642
X5.8267Y-2.8888
X5.865Y-2.525
X5.865Y-2.548
X5.865Y-2.571
X5.865Y-2.594
X5.865Y-2.617
X5.865Y-2.64
X5.865Y-2.663
X5.888Y-2.525
X5.888Y-2.548
X5.888Y-2.571
X5.888Y-2.594
X5.888Y-2.617
X5.888Y-2.64
X5.888Y-2.663
X5.911Y-2.525
X5.911Y-2.548
X5.911Y-2.571
X5.911Y-2.594
X5.911Y-2.617
X5.911Y-2.64
X5.911Y-2.663
X5.934Y-2.525
X5.934Y-2.548
X5.934Y-2.571
X5.934Y-2.594
X5.934Y-2.617
X5.934Y-2.64
X5.934Y-2.663
X5.957Y-2.525
X5.957Y-2.548
X5.957Y-2.571
X5.957Y-2.594
X5.957Y-2.617
X5.957Y-2.64
X5.957Y-2.663
X5.98Y-2.525
X5.98Y-2.548
X5.98Y-2.571
X5.98Y-2.594
X5.98Y-2.617
X5.98Y-2.64
X5.98Y-2.663
X6.003Y-2.525
X6.003Y-2.548
X6.003Y-2.571
X6.003Y-2.594
X6.003Y-2.617
X6.003Y-2.64
X6.003Y-2.663
X6.005Y-2.435
X6.026Y-2.525
X6.026Y-2.548
X6.026Y-2.571
X6.026Y-2.594
X6.026Y-2.617
X6.026Y-2.64
X6.026Y-2.663
X6.04Y-2.425
X6.049Y-2.525
X6.049Y-2.548
X6.049Y-2.571
X6.049Y-2.594
X6.049Y-2.617
X6.049Y-2.64
X6.049Y-2.663
X6.088Y-3.038
X6.095Y-3.125
X6.095Y-3.15
X6.12Y-3.125
X6.12Y-3.15
X6.125Y-2.815
X6.125Y-2.8395
X6.125Y-2.864
X6.125Y-2.8885
X6.135Y-2.2089
X6.135Y-2.2339
X6.135Y-2.2589
X6.135Y-2.2839
X6.135Y-2.3089
X6.145Y-2.665
X6.145Y-3.125
X6.145Y-3.15
X6.1495Y-2.815
X6.1495Y-2.8395
X6.1495Y-2.864
X6.1495Y-2.8885
X6.16Y-2.2089
X6.16Y-2.2339
X6.16Y-2.2589
X6.16Y-2.2839
X6.16Y-2.3089
X6.17Y-3.125
X6.17Y-3.15
X6.174Y-2.815
X6.174Y-2.8395
X6.174Y-2.864
X6.174Y-2.8885
X6.185Y-2.2089
X6.185Y-2.2339
X6.185Y-2.2589
X6.185Y-2.2839
X6.185Y-2.3089
X6.195Y-3.125
X6.195Y-3.15
X6.1985Y-2.8395
X6.1985Y-2.864
X6.1985Y-2.8885
X6.21Y-2.2089
X6.21Y-2.2339
X6.21Y-2.2589
X6.21Y-2.2839
X6.21Y-2.3089
X6.22Y-3.125
X6.22Y-3.15
X6.223Y-2.8395
X6.223Y-2.864
X6.223Y-2.8885
X6.235Y-2.2089
X6.235Y-2.2339
X6.235Y-2.2589
X6.235Y-2.2839
X6.235Y-2.3089
X6.245Y-3.125
X6.245Y-3.15
X6.2475Y-2.815
X6.2475Y-2.8395
X6.2475Y-2.864
X6.2475Y-2.8885
X6.26Y-2.2089
X6.26Y-2.2339
X6.26Y-2.2589
X6.26Y-2.2839
X6.26Y-2.3089
X6.27Y-3.125
X6.27Y-3.15
X6.272Y-2.815
X6.272Y-2.8395
X6.272Y-2.864
X6.272Y-2.8885
X6.285Y-2.2089
X6.285Y-2.2339
X6.285Y-2.2589
X6.285Y-2.2839
X6.285Y-2.3089
X6.29Y-2.665
X6.295Y-3.125
X6.295Y-3.15
X6.2965Y-2.815
X6.2965Y-2.8395
X6.2965Y-2.864
X6.2965Y-2.8885
X6.32Y-3.125
X6.32Y-3.15
X6.321Y-2.815
X6.321Y-2.8395
X6.321Y-2.864
X6.321Y-2.8885
X6.37Y-2.525
X6.37Y-2.548
X6.37Y-2.571
X6.37Y-2.594
X6.37Y-2.617
X6.37Y-2.64
X6.37Y-2.663
X6.393Y-2.525
X6.393Y-2.548
X6.393Y-2.571
X6.393Y-2.594
X6.393Y-2.617
X6.393Y-2.64
X6.393Y-2.663
X6.416Y-2.525
X6.416Y-2.548
X6.416Y-2.571
X6.416Y-2.594
X6.416Y-2.617
X6.416Y-2.64
X6.416Y-2.663
X6.439Y-2.525
X6.439Y-2.548
X6.439Y-2.571
X6.439Y-2.594
X6.439Y-2.617
X6.439Y-2.64
X6.439Y-2.663
X6.462Y-2.525
X6.462Y-2.548
X6.462Y-2.571
X6.462Y-2.594
X6.462Y-2.617
X6.462Y-2.64
X6.462Y-2.663
X6.485Y-2.525
X6.485Y-2.548
X6.485Y-2.571
X6.485Y-2.594
X6.485Y-2.617
X6.485Y-2.64
X6.485Y-2.663
X6.505Y-2.435
X6.508Y-2.525
X6.508Y-2.548
X6.508Y-2.571
X6.508Y-2.594
X6.508Y-2.617
X6.508Y-2.64
X6.508Y-2.663
X6.531Y-2.525
X6.531Y-2.548
X6.531Y-2.571
X6.531Y-2.594
X6.531Y-2.617
X6.531Y-2.64
X6.531Y-2.663
X6.54Y-2.425
X6.554Y-2.525
X6.554Y-2.548
X6.554Y-2.571
X6.554Y-2.594
X6.554Y-2.617
X6.554Y-2.64
X6.554Y-2.663
X6.595Y-3.125
X6.595Y-3.15
X6.62Y-3.125
X6.62Y-3.15
X6.625Y-2.815
X6.625Y-2.8395
X6.625Y-2.864
X6.625Y-2.8885
X6.635Y-2.2089
X6.635Y-2.2339
X6.635Y-2.2589
X6.635Y-2.2839
X6.635Y-2.3089
X6.645Y-2.665
X6.645Y-3.125
X6.645Y-3.15
X6.6495Y-2.815
X6.6495Y-2.8395
X6.6495Y-2.864
X6.6495Y-2.8885
X6.66Y-2.2089
X6.66Y-2.2339
X6.66Y-2.2589
X6.66Y-2.2839
X6.66Y-2.3089
X6.67Y-3.125
X6.67Y-3.15
X6.674Y-2.815
X6.674Y-2.8395
X6.674Y-2.864
X6.674Y-2.8885
X6.685Y-2.2089
X6.685Y-2.2339
X6.685Y-2.2589
X6.685Y-2.2839
X6.685Y-2.3089
X6.695Y-3.125
X6.695Y-3.15
X6.6985Y-2.8395
X6.6985Y-2.864
X6.6985Y-2.8885
X6.71Y-2.2089
X6.71Y-2.2339
X6.71Y-2.2589
X6.71Y-2.2839
X6.71Y-2.3089
X6.72Y-3.125
X6.72Y-3.15
X6.723Y-2.8395
X6.723Y-2.864
X6.723Y-2.8885
X6.735Y-2.2089
X6.735Y-2.2339
X6.735Y-2.2589
X6.735Y-2.2839
X6.735Y-2.3089
X6.745Y-3.125
X6.745Y-3.15
X6.7475Y-2.815
X6.7475Y-2.8395
X6.7475Y-2.864
X6.7475Y-2.8885
X6.76Y-2.2089
X6.76Y-2.2339
X6.76Y-2.2589
X6.76Y-2.2839
X6.76Y-2.3089
X6.77Y-3.125
X6.77Y-3.15
X6.772Y-2.815
X6.772Y-2.8395
X6.772Y-2.864
X6.772Y-2.8885
X6.785Y-2.2089
X6.785Y-2.2339
X6.785Y-2.2589
X6.785Y-2.2839
X6.785Y-2.3089
X6.795Y-3.15
X6.7965Y-2.815
X6.7965Y-2.8395
X6.7965Y-2.864
X6.82Y-3.15
X6.821Y-2.815
X6.821Y-2.8395
X6.821Y-2.864
T3
X4.9939Y-2.2835
X5.0727Y-2.2835
X5.1515Y-2.2835
X5.2302Y-2.2835
X5.309Y-2.2835
X5.3878Y-2.2835
X4.6457Y-3.9449
X4.6457Y-4.0237
X4.6457Y-4.1025
X4.6135Y-4.27
X4.6922Y-4.27
X4.771Y-4.27
X4.8498Y-4.27
X4.645Y-2.5512
X4.645Y-2.63
X4.645Y-2.7087
X4.645Y-2.7875
X4.645Y-2.8663
X4.645Y-3.0433
X4.645Y-3.122
X4.645Y-3.2007
X4.645Y-3.2795
X4.645Y-3.3584
X4.645Y-3.4371
X4.645Y-3.5159
X4.645Y-3.5947
T4
X6.5292Y-3.22
X6.7261Y-3.22
X5.6979Y-3.22
X5.8947Y-3.22
T2
G00X4.9902Y-4.1713
M15
G01X4.9902Y-4.1988
M16
G05
G00X4.9902Y-4.3917
M15
G01X4.9902Y-4.4193
M16
G05
G00X5.0748Y-4.2736
M15
G01X5.0748Y-4.3169
M16
G05
T0
M30
