G04 #@! TF.GenerationSoftware,KiCad,Pcbnew,(5.1.5-0)*
G04 #@! TF.CreationDate,2019-12-18T14:52:24+08:00*
G04 #@! TF.ProjectId,VESC_6,56455343-5f36-42e6-9b69-6361645f7063,A*
G04 #@! TF.SameCoordinates,Original*
G04 #@! TF.FileFunction,Soldermask,Top*
G04 #@! TF.FilePolarity,Negative*
%FSLAX46Y46*%
G04 Gerber Fmt 4.6, Leading zero omitted, Abs format (unit mm)*
G04 Created by KiCad (PCBNEW (5.1.5-0)) date 2019-12-18 14:52:24*
%MOMM*%
%LPD*%
G04 APERTURE LIST*
%ADD10R,2.500000X1.800000*%
%ADD11O,1.100000X1.800000*%
%ADD12O,1.100000X2.200000*%
%ADD13O,0.300000X0.850000*%
%ADD14O,0.850000X0.300000*%
%ADD15R,0.800000X0.750000*%
%ADD16R,1.180000X4.700000*%
%ADD17R,3.599180X7.000240*%
%ADD18R,1.501140X0.299720*%
%ADD19R,1.193800X0.304800*%
%ADD20R,0.304800X1.193800*%
%ADD21C,0.900000*%
%ADD22C,0.100000*%
%ADD23R,1.200000X0.775000*%
%ADD24R,0.350000X0.650000*%
%ADD25R,1.950000X1.500000*%
%ADD26R,1.000000X2.500000*%
%ADD27R,2.500000X1.000000*%
%ADD28R,0.900000X0.500000*%
%ADD29R,0.500000X0.900000*%
%ADD30R,0.750000X0.800000*%
%ADD31C,1.600000*%
%ADD32R,1.699260X1.198880*%
%ADD33O,1.699260X1.198880*%
%ADD34R,0.700000X1.300000*%
%ADD35R,1.100000X0.850000*%
%ADD36R,1.100000X1.700000*%
%ADD37R,1.300000X0.700000*%
%ADD38R,0.850000X1.100000*%
%ADD39R,1.700000X1.100000*%
%ADD40C,3.000000*%
%ADD41R,1.198880X1.699260*%
%ADD42O,1.198880X1.699260*%
%ADD43R,6.000000X5.000000*%
%ADD44C,0.600000*%
G04 APERTURE END LIST*
D10*
X121825000Y-61849000D03*
X125825000Y-61849000D03*
D11*
X126750000Y-106300000D03*
X126750000Y-111900000D03*
D12*
X128900000Y-109100000D03*
D13*
X120670000Y-83230000D03*
X121170000Y-83230000D03*
X121670000Y-83230000D03*
X122170000Y-83230000D03*
X122670000Y-83230000D03*
X123170000Y-83230000D03*
D14*
X123870000Y-82530000D03*
X123870000Y-82030000D03*
X123870000Y-81530000D03*
X123870000Y-81030000D03*
X123870000Y-80530000D03*
X123870000Y-80030000D03*
D13*
X123170000Y-79330000D03*
X122670000Y-79330000D03*
X122170000Y-79330000D03*
X121670000Y-79330000D03*
X121170000Y-79330000D03*
X120670000Y-79330000D03*
D14*
X119970000Y-80030000D03*
X119970000Y-80530000D03*
X119970000Y-81030000D03*
X119970000Y-81530000D03*
X119970000Y-82030000D03*
X119970000Y-82530000D03*
D15*
X121400000Y-84709000D03*
X119900000Y-84709000D03*
D16*
X133100000Y-62600000D03*
X129790000Y-62600000D03*
D17*
X132461000Y-74168000D03*
D18*
X136461500Y-67472560D03*
X136461500Y-67970400D03*
X136461500Y-68470780D03*
X136461500Y-68971160D03*
X136461500Y-69471540D03*
X136461500Y-69971920D03*
X136461500Y-70472300D03*
X136461500Y-70970140D03*
X128460500Y-80970120D03*
X128460500Y-80472280D03*
X128460500Y-79971900D03*
X128460500Y-79471520D03*
X128460500Y-72471280D03*
X128460500Y-71970900D03*
X128460500Y-71470520D03*
X128460500Y-70970140D03*
X128460500Y-70472300D03*
X128460500Y-69971920D03*
X128460500Y-69471540D03*
X128460500Y-68971160D03*
X128460500Y-68470780D03*
X128460500Y-67970400D03*
X128460500Y-67472560D03*
X128460500Y-78971140D03*
X128460500Y-78470760D03*
X128460500Y-77970380D03*
X128460500Y-77472540D03*
X128460500Y-76972160D03*
X128460500Y-76471780D03*
X128460500Y-75971400D03*
X136461500Y-79471520D03*
X128460500Y-74970640D03*
X128460500Y-74470260D03*
X128460500Y-73972420D03*
X128460500Y-73472040D03*
X128460500Y-72971660D03*
X136461500Y-76972160D03*
X136461500Y-77472540D03*
X136461500Y-77970380D03*
X136461500Y-78470760D03*
X136461500Y-78971140D03*
X128460500Y-75471020D03*
X136461500Y-79971900D03*
X136461500Y-80472280D03*
X136461500Y-80970120D03*
X136461500Y-71470520D03*
X136461500Y-71970900D03*
X136461500Y-72471280D03*
X136461500Y-72971660D03*
X136461500Y-73472040D03*
X136461500Y-73972420D03*
X136461500Y-74470260D03*
X136461500Y-74970640D03*
X136461500Y-75471020D03*
X136461500Y-75971400D03*
X136461500Y-76471780D03*
D19*
X137575999Y-88960000D03*
X137575999Y-89459999D03*
X137575999Y-89960000D03*
X137575999Y-90459999D03*
X137575999Y-90960001D03*
X137575999Y-91460000D03*
X137575999Y-91959999D03*
X137575999Y-92460000D03*
X137575999Y-92960000D03*
X137575999Y-93460001D03*
X137575999Y-93960000D03*
X137575999Y-94459999D03*
X137575999Y-94960001D03*
X137575999Y-95460000D03*
X137575999Y-95960001D03*
X137575999Y-96460000D03*
D20*
X135576000Y-98459999D03*
X135076001Y-98459999D03*
X134576000Y-98459999D03*
X134076001Y-98459999D03*
X133575999Y-98459999D03*
X133076000Y-98459999D03*
X132576001Y-98459999D03*
X132076000Y-98459999D03*
X131576000Y-98459999D03*
X131075999Y-98459999D03*
X130576000Y-98459999D03*
X130076001Y-98459999D03*
X129575999Y-98459999D03*
X129076000Y-98459999D03*
X128575999Y-98459999D03*
X128076000Y-98459999D03*
D19*
X126076001Y-96460000D03*
X126076001Y-95960001D03*
X126076001Y-95460000D03*
X126076001Y-94960001D03*
X126076001Y-94459999D03*
X126076001Y-93960000D03*
X126076001Y-93460001D03*
X126076001Y-92960000D03*
X126076001Y-92460000D03*
X126076001Y-91959999D03*
X126076001Y-91460000D03*
X126076001Y-90960001D03*
X126076001Y-90459999D03*
X126076001Y-89960000D03*
X126076001Y-89459999D03*
X126076001Y-88960000D03*
D20*
X128076000Y-86960001D03*
X128575999Y-86960001D03*
X129076000Y-86960001D03*
X129575999Y-86960001D03*
X130076001Y-86960001D03*
X130576000Y-86960001D03*
X131075999Y-86960001D03*
X131576000Y-86960001D03*
X132076000Y-86960001D03*
X132576001Y-86960001D03*
X133076000Y-86960001D03*
X133575999Y-86960001D03*
X134076001Y-86960001D03*
X134576000Y-86960001D03*
X135076001Y-86960001D03*
X135576000Y-86960001D03*
D21*
X121769000Y-59492000D03*
X118769000Y-59492000D03*
D22*
G36*
X119911727Y-59669066D02*
G01*
X118638934Y-58396273D01*
X120406701Y-56628506D01*
X121679494Y-57901299D01*
X119911727Y-59669066D01*
G37*
G36*
X117083299Y-62497494D02*
G01*
X115810506Y-61224701D01*
X117578273Y-59456934D01*
X118851066Y-60729727D01*
X117083299Y-62497494D01*
G37*
G36*
X130688117Y-104907117D02*
G01*
X131572000Y-104023234D01*
X132455883Y-104907117D01*
X131572000Y-105791000D01*
X130688117Y-104907117D01*
G37*
G36*
X129804234Y-105791000D02*
G01*
X130688117Y-104907117D01*
X131572000Y-105791000D01*
X130688117Y-106674883D01*
X129804234Y-105791000D01*
G37*
G36*
X131572000Y-105791000D02*
G01*
X132455883Y-104907117D01*
X133339766Y-105791000D01*
X132455883Y-106674883D01*
X131572000Y-105791000D01*
G37*
G36*
X130688117Y-106674883D02*
G01*
X131572000Y-105791000D01*
X132455883Y-106674883D01*
X131572000Y-107558766D01*
X130688117Y-106674883D01*
G37*
G36*
X132102330Y-104058588D02*
G01*
X131890198Y-103846456D01*
X132406386Y-103330268D01*
X132618518Y-103542400D01*
X132102330Y-104058588D01*
G37*
G36*
X132455883Y-104412142D02*
G01*
X132243751Y-104200010D01*
X132759939Y-103683822D01*
X132972071Y-103895954D01*
X132455883Y-104412142D01*
G37*
G36*
X132809437Y-104765695D02*
G01*
X132597305Y-104553563D01*
X133113493Y-104037375D01*
X133325625Y-104249507D01*
X132809437Y-104765695D01*
G37*
G36*
X133162990Y-105119249D02*
G01*
X132950858Y-104907117D01*
X133467046Y-104390929D01*
X133679178Y-104603061D01*
X133162990Y-105119249D01*
G37*
G36*
X133516544Y-105472802D02*
G01*
X133304412Y-105260670D01*
X133820600Y-104744482D01*
X134032732Y-104956614D01*
X133516544Y-105472802D01*
G37*
G36*
X133304412Y-106321330D02*
G01*
X133516544Y-106109198D01*
X134032732Y-106625386D01*
X133820600Y-106837518D01*
X133304412Y-106321330D01*
G37*
G36*
X132950858Y-106674883D02*
G01*
X133162990Y-106462751D01*
X133679178Y-106978939D01*
X133467046Y-107191071D01*
X132950858Y-106674883D01*
G37*
G36*
X132597305Y-107028437D02*
G01*
X132809437Y-106816305D01*
X133325625Y-107332493D01*
X133113493Y-107544625D01*
X132597305Y-107028437D01*
G37*
G36*
X132243751Y-107381990D02*
G01*
X132455883Y-107169858D01*
X132972071Y-107686046D01*
X132759939Y-107898178D01*
X132243751Y-107381990D01*
G37*
G36*
X131890198Y-107735544D02*
G01*
X132102330Y-107523412D01*
X132618518Y-108039600D01*
X132406386Y-108251732D01*
X131890198Y-107735544D01*
G37*
G36*
X130737614Y-108251732D02*
G01*
X130525482Y-108039600D01*
X131041670Y-107523412D01*
X131253802Y-107735544D01*
X130737614Y-108251732D01*
G37*
G36*
X130384061Y-107898178D02*
G01*
X130171929Y-107686046D01*
X130688117Y-107169858D01*
X130900249Y-107381990D01*
X130384061Y-107898178D01*
G37*
G36*
X130030507Y-107544625D02*
G01*
X129818375Y-107332493D01*
X130334563Y-106816305D01*
X130546695Y-107028437D01*
X130030507Y-107544625D01*
G37*
G36*
X129676954Y-107191071D02*
G01*
X129464822Y-106978939D01*
X129981010Y-106462751D01*
X130193142Y-106674883D01*
X129676954Y-107191071D01*
G37*
G36*
X129323400Y-106837518D02*
G01*
X129111268Y-106625386D01*
X129627456Y-106109198D01*
X129839588Y-106321330D01*
X129323400Y-106837518D01*
G37*
G36*
X129111268Y-104956614D02*
G01*
X129323400Y-104744482D01*
X129839588Y-105260670D01*
X129627456Y-105472802D01*
X129111268Y-104956614D01*
G37*
G36*
X129464822Y-104603061D02*
G01*
X129676954Y-104390929D01*
X130193142Y-104907117D01*
X129981010Y-105119249D01*
X129464822Y-104603061D01*
G37*
G36*
X129818375Y-104249507D02*
G01*
X130030507Y-104037375D01*
X130546695Y-104553563D01*
X130334563Y-104765695D01*
X129818375Y-104249507D01*
G37*
G36*
X130171929Y-103895954D02*
G01*
X130384061Y-103683822D01*
X130900249Y-104200010D01*
X130688117Y-104412142D01*
X130171929Y-103895954D01*
G37*
G36*
X130525482Y-103542400D02*
G01*
X130737614Y-103330268D01*
X131253802Y-103846456D01*
X131041670Y-104058588D01*
X130525482Y-103542400D01*
G37*
D23*
X123825000Y-101333000D03*
X122625000Y-101333000D03*
X123825000Y-102108000D03*
X122625000Y-102108000D03*
D24*
X124200000Y-103270500D03*
X123550000Y-103270500D03*
X122900000Y-103270500D03*
X122250000Y-103270500D03*
X122250000Y-100170500D03*
X122900000Y-100170500D03*
X123550000Y-100170500D03*
X124200000Y-100170500D03*
D25*
X139551000Y-60198000D03*
X136801000Y-60198000D03*
D26*
X130834000Y-83566000D03*
X133834000Y-83566000D03*
D27*
X139192000Y-65175000D03*
X139192000Y-68175000D03*
D22*
G36*
X134909355Y-108323091D02*
G01*
X134485091Y-108747355D01*
X134202249Y-108464513D01*
X134626513Y-108040249D01*
X134909355Y-108323091D01*
G37*
G36*
X135545751Y-108959487D02*
G01*
X135121487Y-109383751D01*
X134838645Y-109100909D01*
X135262909Y-108676645D01*
X135545751Y-108959487D01*
G37*
G36*
X133865909Y-109509355D02*
G01*
X133441645Y-109085091D01*
X133724487Y-108802249D01*
X134148751Y-109226513D01*
X133865909Y-109509355D01*
G37*
G36*
X133229513Y-110145751D02*
G01*
X132805249Y-109721487D01*
X133088091Y-109438645D01*
X133512355Y-109862909D01*
X133229513Y-110145751D01*
G37*
G36*
X133088091Y-108041645D02*
G01*
X133512355Y-108465909D01*
X133229513Y-108748751D01*
X132805249Y-108324487D01*
X133088091Y-108041645D01*
G37*
G36*
X133724487Y-107405249D02*
G01*
X134148751Y-107829513D01*
X133865909Y-108112355D01*
X133441645Y-107688091D01*
X133724487Y-107405249D01*
G37*
G36*
X133477000Y-112113554D02*
G01*
X133830554Y-111760000D01*
X134254818Y-112184264D01*
X133901264Y-112537818D01*
X133477000Y-112113554D01*
G37*
G36*
X132699182Y-111335736D02*
G01*
X133052736Y-110982182D01*
X133477000Y-111406446D01*
X133123446Y-111760000D01*
X132699182Y-111335736D01*
G37*
G36*
X134239000Y-111351554D02*
G01*
X134592554Y-110998000D01*
X135016818Y-111422264D01*
X134663264Y-111775818D01*
X134239000Y-111351554D01*
G37*
G36*
X133461182Y-110573736D02*
G01*
X133814736Y-110220182D01*
X134239000Y-110644446D01*
X133885446Y-110998000D01*
X133461182Y-110573736D01*
G37*
G36*
X136271000Y-109755446D02*
G01*
X135917446Y-110109000D01*
X135493182Y-109684736D01*
X135846736Y-109331182D01*
X136271000Y-109755446D01*
G37*
G36*
X137048818Y-110533264D02*
G01*
X136695264Y-110886818D01*
X136271000Y-110462554D01*
X136624554Y-110109000D01*
X137048818Y-110533264D01*
G37*
G36*
X138021554Y-110744000D02*
G01*
X137668000Y-110390446D01*
X138092264Y-109966182D01*
X138445818Y-110319736D01*
X138021554Y-110744000D01*
G37*
G36*
X137243736Y-111521818D02*
G01*
X136890182Y-111168264D01*
X137314446Y-110744000D01*
X137668000Y-111097554D01*
X137243736Y-111521818D01*
G37*
G36*
X135472249Y-104810355D02*
G01*
X136108645Y-105446751D01*
X135755091Y-105800305D01*
X135118695Y-105163909D01*
X135472249Y-104810355D01*
G37*
G36*
X136532909Y-103749695D02*
G01*
X137169305Y-104386091D01*
X136815751Y-104739645D01*
X136179355Y-104103249D01*
X136532909Y-103749695D01*
G37*
D28*
X123113800Y-69227000D03*
X123113800Y-70727000D03*
X123113800Y-66636200D03*
X123113800Y-68136200D03*
D29*
X126251400Y-68249800D03*
X124751400Y-68249800D03*
X126251400Y-71196200D03*
X124751400Y-71196200D03*
X126226000Y-65354200D03*
X124726000Y-65354200D03*
X121019000Y-106315000D03*
X119519000Y-106315000D03*
X132219000Y-56134000D03*
X133719000Y-56134000D03*
X122821000Y-56261000D03*
X124321000Y-56261000D03*
X122821000Y-57785000D03*
X124321000Y-57785000D03*
X122821000Y-59309000D03*
X124321000Y-59309000D03*
D28*
X140335000Y-77839000D03*
X140335000Y-76339000D03*
X140335000Y-80633000D03*
X140335000Y-79133000D03*
D22*
G36*
X127249348Y-107600169D02*
G01*
X127779678Y-108130499D01*
X127213992Y-108696185D01*
X126683662Y-108165855D01*
X127249348Y-107600169D01*
G37*
G36*
X128310008Y-106539509D02*
G01*
X128840338Y-107069839D01*
X128274652Y-107635525D01*
X127744322Y-107105195D01*
X128310008Y-106539509D01*
G37*
D30*
X120205500Y-89420000D03*
X120205500Y-90920000D03*
D22*
G36*
X137672652Y-105808678D02*
G01*
X137142322Y-105278348D01*
X137708008Y-104712662D01*
X138238338Y-105242992D01*
X137672652Y-105808678D01*
G37*
G36*
X136611992Y-106869338D02*
G01*
X136081662Y-106339008D01*
X136647348Y-105773322D01*
X137177678Y-106303652D01*
X136611992Y-106869338D01*
G37*
G36*
X133472348Y-102598322D02*
G01*
X134002678Y-103128652D01*
X133436992Y-103694338D01*
X132906662Y-103164008D01*
X133472348Y-102598322D01*
G37*
G36*
X134533008Y-101537662D02*
G01*
X135063338Y-102067992D01*
X134497652Y-102633678D01*
X133967322Y-102103348D01*
X134533008Y-101537662D01*
G37*
D15*
X135243000Y-100076000D03*
X133743000Y-100076000D03*
D30*
X124269500Y-88531000D03*
X124269500Y-90031000D03*
X128143000Y-83959000D03*
X128143000Y-85459000D03*
D15*
X125146500Y-98000000D03*
X123646500Y-98000000D03*
D30*
X139192000Y-89408000D03*
X139192000Y-87908000D03*
D15*
X123125800Y-72593200D03*
X124625800Y-72593200D03*
X123125800Y-74041000D03*
X124625800Y-74041000D03*
X124751400Y-69723000D03*
X126251400Y-69723000D03*
D30*
X125349000Y-76847000D03*
X125349000Y-78347000D03*
D15*
X126226000Y-66802000D03*
X124726000Y-66802000D03*
D30*
X126365000Y-75680000D03*
X126365000Y-74180000D03*
X127000000Y-82030000D03*
X127000000Y-80530000D03*
D15*
X138823000Y-63754000D03*
X140323000Y-63754000D03*
D30*
X138303000Y-72505000D03*
X138303000Y-71005000D03*
X138303000Y-75299000D03*
X138303000Y-73799000D03*
X138303000Y-78093000D03*
X138303000Y-76593000D03*
D15*
X138823000Y-69850000D03*
X140323000Y-69850000D03*
X138799000Y-62230000D03*
X137299000Y-62230000D03*
D30*
X120650000Y-99429000D03*
X120650000Y-97929000D03*
X120650000Y-100977000D03*
X120650000Y-102477000D03*
D15*
X123011500Y-87122000D03*
X124511500Y-87122000D03*
D22*
G36*
X135513652Y-103776678D02*
G01*
X134983322Y-103246348D01*
X135549008Y-102680662D01*
X136079338Y-103210992D01*
X135513652Y-103776678D01*
G37*
G36*
X134452992Y-104837338D02*
G01*
X133922662Y-104307008D01*
X134488348Y-103741322D01*
X135018678Y-104271652D01*
X134452992Y-104837338D01*
G37*
D15*
X136436800Y-56083200D03*
X134936800Y-56083200D03*
D30*
X119761000Y-78093000D03*
X119761000Y-76593000D03*
X125095000Y-84316000D03*
X125095000Y-82816000D03*
D31*
X149726000Y-81788000D03*
X144726000Y-81788000D03*
X165842000Y-81788000D03*
X170842000Y-81788000D03*
D32*
X118000000Y-104203040D03*
D33*
X118000000Y-100200000D03*
X118000000Y-102201520D03*
D34*
X166334000Y-76454000D03*
D35*
X167734000Y-75879000D03*
X167734000Y-77029000D03*
X170534000Y-77029000D03*
X170534000Y-75879000D03*
X167734000Y-74729000D03*
X170534000Y-74729000D03*
X167734000Y-78179000D03*
X170534000Y-78179000D03*
D36*
X164084000Y-76454000D03*
X164084000Y-74254000D03*
X164084000Y-78654000D03*
X173384000Y-76454000D03*
X173384000Y-78654000D03*
X173384000Y-74254000D03*
D37*
X170393000Y-67694000D03*
D38*
X169818000Y-66294000D03*
X170968000Y-66294000D03*
X170968000Y-63494000D03*
X169818000Y-63494000D03*
X168668000Y-66294000D03*
X168668000Y-63494000D03*
X172118000Y-66294000D03*
X172118000Y-63494000D03*
D39*
X170393000Y-69944000D03*
X168193000Y-69944000D03*
X172593000Y-69944000D03*
X170393000Y-60644000D03*
X172593000Y-60644000D03*
X168193000Y-60644000D03*
D34*
X144334000Y-76454000D03*
D35*
X145734000Y-75879000D03*
X145734000Y-77029000D03*
X148534000Y-77029000D03*
X148534000Y-75879000D03*
X145734000Y-74729000D03*
X148534000Y-74729000D03*
X145734000Y-78179000D03*
X148534000Y-78179000D03*
D36*
X142084000Y-76454000D03*
X142084000Y-74254000D03*
X142084000Y-78654000D03*
X151384000Y-76454000D03*
X151384000Y-78654000D03*
X151384000Y-74254000D03*
D40*
X151384000Y-58166000D03*
X164084000Y-58166000D03*
D41*
X123184920Y-108458000D03*
D42*
X119181880Y-108458000D03*
X121183400Y-108458000D03*
X117182900Y-108458000D03*
D41*
X126846200Y-58000000D03*
D42*
X130849240Y-58000000D03*
X128847720Y-58000000D03*
X132848220Y-58000000D03*
X134849740Y-58000000D03*
X136851260Y-58000000D03*
D33*
X117983000Y-79298740D03*
X117983000Y-81297720D03*
X117983000Y-83299240D03*
D32*
X117983000Y-91305320D03*
D33*
X117983000Y-87302280D03*
X117983000Y-89303800D03*
X117983000Y-85303300D03*
X117983000Y-77299760D03*
D32*
X117983000Y-72803040D03*
D33*
X117983000Y-68800000D03*
X117983000Y-70801520D03*
X117983000Y-66801020D03*
X117983000Y-64799500D03*
D37*
X145087000Y-67678000D03*
D38*
X144512000Y-66278000D03*
X145662000Y-66278000D03*
X145662000Y-63478000D03*
X144512000Y-63478000D03*
X143362000Y-66278000D03*
X143362000Y-63478000D03*
X146812000Y-66278000D03*
X146812000Y-63478000D03*
D39*
X145087000Y-69928000D03*
X142887000Y-69928000D03*
X147287000Y-69928000D03*
X145087000Y-60628000D03*
X147287000Y-60628000D03*
X142887000Y-60628000D03*
D34*
X155321000Y-76454000D03*
D35*
X156721000Y-75879000D03*
X156721000Y-77029000D03*
X159521000Y-77029000D03*
X159521000Y-75879000D03*
X156721000Y-74729000D03*
X159521000Y-74729000D03*
X156721000Y-78179000D03*
X159521000Y-78179000D03*
D36*
X153071000Y-76454000D03*
X153071000Y-74254000D03*
X153071000Y-78654000D03*
X162371000Y-76454000D03*
X162371000Y-78654000D03*
X162371000Y-74254000D03*
D37*
X157734000Y-67678000D03*
D38*
X157159000Y-66278000D03*
X158309000Y-66278000D03*
X158309000Y-63478000D03*
X157159000Y-63478000D03*
X156009000Y-66278000D03*
X156009000Y-63478000D03*
X159459000Y-66278000D03*
X159459000Y-63478000D03*
D39*
X157734000Y-69928000D03*
X155534000Y-69928000D03*
X159934000Y-69928000D03*
X157734000Y-60628000D03*
X159934000Y-60628000D03*
X155534000Y-60628000D03*
D43*
X157734000Y-86800000D03*
D30*
X125095000Y-81649000D03*
X125095000Y-80149000D03*
D15*
X121043000Y-78105000D03*
X122543000Y-78105000D03*
D44*
X138962702Y-92304292D03*
X132842000Y-99822000D03*
X124206000Y-77978000D03*
X122809000Y-75565008D03*
X127254000Y-83947000D03*
X129285998Y-96418400D03*
X127508000Y-89027000D03*
X126746000Y-60198000D03*
X126111000Y-60198000D03*
X125476000Y-60197994D03*
X136144000Y-113538000D03*
X135636000Y-113030000D03*
X135153400Y-112572800D03*
X131318000Y-111252000D03*
X130759803Y-105862686D03*
X131064000Y-69977000D03*
X137541000Y-108966000D03*
X138607800Y-109016800D03*
X135365271Y-90879140D03*
X138067817Y-104043011D03*
X138430000Y-86741000D03*
X132455883Y-105791000D03*
X131572000Y-106674883D03*
X131572000Y-104907117D03*
X132969000Y-113157000D03*
X139065000Y-109474000D03*
X134874000Y-66800000D03*
X127232128Y-69342000D03*
X131699000Y-69977000D03*
X131699000Y-69342000D03*
X131064000Y-69342000D03*
X134239000Y-66800000D03*
X133604000Y-66802000D03*
X166471600Y-67640200D03*
X165887400Y-67640200D03*
X165303200Y-67640200D03*
X164719000Y-67640200D03*
X164134800Y-67640200D03*
X163550600Y-67640200D03*
X162966400Y-67640200D03*
X162382200Y-67640200D03*
X161798000Y-67640200D03*
X166471600Y-67056000D03*
X165887400Y-67056000D03*
X165303200Y-67056000D03*
X164719000Y-67056000D03*
X164134800Y-67056000D03*
X163550600Y-67056000D03*
X162966400Y-67056000D03*
X162382200Y-67056000D03*
X161798000Y-67056000D03*
X166471600Y-66471800D03*
X165887400Y-66471800D03*
X165303200Y-66471800D03*
X164719000Y-66471800D03*
X164134800Y-66471800D03*
X163550600Y-66471800D03*
X162966400Y-66471800D03*
X162382200Y-66471800D03*
X161798000Y-66471800D03*
X166471600Y-65887600D03*
X165887400Y-65887600D03*
X165303200Y-65887600D03*
X164719000Y-65887600D03*
X164134800Y-65887600D03*
X163550600Y-65887600D03*
X162966400Y-65887600D03*
X162382200Y-65887600D03*
X161798000Y-65887600D03*
X166471600Y-65303400D03*
X165887400Y-65303400D03*
X165303200Y-65303400D03*
X164719000Y-65303400D03*
X164134800Y-65303400D03*
X163550600Y-65303400D03*
X162966400Y-65303400D03*
X162382200Y-65303400D03*
X161798000Y-65303400D03*
X166471600Y-64719200D03*
X165887400Y-64719200D03*
X165303200Y-64719200D03*
X164719000Y-64719200D03*
X164134800Y-64719200D03*
X163550600Y-64719200D03*
X162966400Y-64719200D03*
X162382200Y-64719200D03*
X161798000Y-64719200D03*
X166471600Y-64135000D03*
X165887400Y-64135000D03*
X165303200Y-64135000D03*
X164719000Y-64135000D03*
X164134800Y-64135000D03*
X163550600Y-64135000D03*
X162966400Y-64135000D03*
X162382200Y-64135000D03*
X153644600Y-67640200D03*
X153060400Y-67640200D03*
X152476200Y-67640200D03*
X151892000Y-67640200D03*
X151307800Y-67640200D03*
X150723600Y-67640200D03*
X150139400Y-67640200D03*
X149555200Y-67640200D03*
X148971000Y-67640200D03*
X153644600Y-67056000D03*
X153060400Y-67056000D03*
X152476200Y-67056000D03*
X151892000Y-67056000D03*
X151307800Y-67056000D03*
X150723600Y-67056000D03*
X150139400Y-67056000D03*
X149555200Y-67056000D03*
X148971000Y-67056000D03*
X153644600Y-66471800D03*
X153060400Y-66471800D03*
X152476200Y-66471800D03*
X151892000Y-66471800D03*
X151307800Y-66471800D03*
X150723600Y-66471800D03*
X150139400Y-66471800D03*
X149555200Y-66471800D03*
X148971000Y-66471800D03*
X153644600Y-65887600D03*
X153060400Y-65887600D03*
X152476200Y-65887600D03*
X151892000Y-65887600D03*
X151307800Y-65887600D03*
X150723600Y-65887600D03*
X150139400Y-65887600D03*
X149555200Y-65887600D03*
X148971000Y-65887600D03*
X153644600Y-65303400D03*
X153060400Y-65303400D03*
X152476200Y-65303400D03*
X151892000Y-65303400D03*
X151307800Y-65303400D03*
X150723600Y-65303400D03*
X150139400Y-65303400D03*
X149555200Y-65303400D03*
X148971000Y-65303400D03*
X153644600Y-64719200D03*
X153060400Y-64719200D03*
X152476200Y-64719200D03*
X151892000Y-64719200D03*
X151307800Y-64719200D03*
X150723600Y-64719200D03*
X150139400Y-64719200D03*
X149555200Y-64719200D03*
X148971000Y-64719200D03*
X153644600Y-64135000D03*
X153060400Y-64135000D03*
X152476200Y-64135000D03*
X151892000Y-64135000D03*
X151307800Y-64135000D03*
X150723600Y-64135000D03*
X150139400Y-64135000D03*
X149555200Y-64135000D03*
X161798000Y-64135000D03*
X148971000Y-64135000D03*
X130175000Y-110363000D03*
X137795000Y-113284000D03*
X135635992Y-107061000D03*
X131560403Y-103483196D03*
X139472588Y-109982000D03*
X136574791Y-102438201D03*
X134620000Y-79756000D03*
X135128000Y-80264000D03*
X134112000Y-79248000D03*
X138430000Y-105664000D03*
X124841000Y-97155000D03*
X129595590Y-88392000D03*
X127825500Y-82042000D03*
X119564577Y-85539885D03*
X120804392Y-81253533D03*
X120707500Y-77285500D03*
X124015504Y-85344000D03*
X122865203Y-81838342D03*
X136906000Y-64516000D03*
X135073207Y-89012203D03*
X124460008Y-95891686D03*
X123698002Y-99233010D03*
X138557000Y-100203000D03*
X132080000Y-101473000D03*
X135043559Y-70650810D03*
X122228895Y-89123113D03*
X136144000Y-97917000D03*
X128016000Y-105663998D03*
X119500000Y-102000000D03*
X122936000Y-77343000D03*
X122555000Y-85471000D03*
X131826000Y-59690000D03*
X129332010Y-81915000D03*
X133477000Y-95631000D03*
X134423040Y-89928550D03*
X133832658Y-88565010D03*
X122047000Y-67310000D03*
X122174000Y-72136000D03*
X122174000Y-71374000D03*
X117000000Y-97500000D03*
X131572000Y-61214000D03*
X131554155Y-61889155D03*
X122110498Y-63309500D03*
X134801900Y-72182240D03*
X143000000Y-71500000D03*
X143624840Y-71500000D03*
X144249680Y-71500000D03*
X146124200Y-71500000D03*
X146749040Y-71500000D03*
X147373880Y-71500000D03*
X147998720Y-71500000D03*
X143000000Y-72124840D03*
X143624840Y-72124840D03*
X144249680Y-72124840D03*
X144874520Y-72124840D03*
X145499360Y-72124840D03*
X146124200Y-72124840D03*
X146749040Y-72124840D03*
X147373880Y-72124840D03*
X147998720Y-72124840D03*
X143624840Y-72749680D03*
X144249680Y-72749680D03*
X144874520Y-72749680D03*
X145499360Y-72749680D03*
X146124200Y-72749680D03*
X146749040Y-72749680D03*
X147373880Y-72749680D03*
X147998720Y-72749680D03*
X143624840Y-73374520D03*
X144249680Y-73374520D03*
X144874520Y-73374520D03*
X145499360Y-73374520D03*
X146124200Y-73374520D03*
X146749040Y-73374520D03*
X147373880Y-73374520D03*
X147998720Y-73374520D03*
X143002000Y-72771000D03*
X155575000Y-71501000D03*
X140843000Y-73660000D03*
X134981000Y-74919000D03*
X156197300Y-71501000D03*
X156819600Y-71501000D03*
X158686500Y-71501000D03*
X159308800Y-71501000D03*
X159931100Y-71501000D03*
X160553400Y-71501000D03*
X155575000Y-72123300D03*
X156197300Y-72123300D03*
X156819600Y-72123300D03*
X157441900Y-72123300D03*
X158064200Y-72123300D03*
X158686500Y-72123300D03*
X159308800Y-72123300D03*
X159931100Y-72123300D03*
X160553400Y-72123300D03*
X155575000Y-72745600D03*
X156197300Y-72745600D03*
X156819600Y-72745600D03*
X157441900Y-72745600D03*
X158064200Y-72745600D03*
X158686500Y-72745600D03*
X159308800Y-72745600D03*
X159931100Y-72745600D03*
X160553400Y-72745600D03*
X155575000Y-73367900D03*
X156197300Y-73367900D03*
X156819600Y-73367900D03*
X157441900Y-73367900D03*
X158064200Y-73367900D03*
X158686500Y-73367900D03*
X159308800Y-73367900D03*
X159931100Y-73367900D03*
X160553400Y-73367900D03*
X168275000Y-71501000D03*
X134866829Y-77759634D03*
X168897300Y-71501000D03*
X169519600Y-71501000D03*
X171386500Y-71501000D03*
X172008800Y-71501000D03*
X172631100Y-71501000D03*
X173253400Y-71501000D03*
X168275000Y-72123300D03*
X168897300Y-72123300D03*
X169519600Y-72123300D03*
X170141900Y-72123300D03*
X170764200Y-72123300D03*
X171386500Y-72123300D03*
X172008800Y-72123300D03*
X172631100Y-72123300D03*
X173253400Y-72123300D03*
X168275000Y-72745600D03*
X168897300Y-72745600D03*
X169519600Y-72745600D03*
X170141900Y-72745600D03*
X170764200Y-72745600D03*
X171386500Y-72745600D03*
X172008800Y-72745600D03*
X172631100Y-72745600D03*
X173253400Y-72745600D03*
X168275000Y-73367900D03*
X168897300Y-73367900D03*
X169519600Y-73367900D03*
X170141900Y-73367900D03*
X170764200Y-73367900D03*
X171386500Y-73367900D03*
X172008800Y-73367900D03*
X138176000Y-80264016D03*
X167513000Y-79375000D03*
X133731000Y-68580000D03*
X134391400Y-81508600D03*
X133834000Y-80957296D03*
X134162800Y-68148200D03*
X143383000Y-79375000D03*
X144018000Y-79375000D03*
X144653000Y-79375000D03*
X145288000Y-79375000D03*
X145923000Y-79375000D03*
X146558000Y-79375000D03*
X147193000Y-79375000D03*
X147828000Y-79375000D03*
X142113000Y-80010000D03*
X142748000Y-80010000D03*
X143383000Y-80010000D03*
X144018000Y-80010000D03*
X144653000Y-80010000D03*
X145288000Y-80010000D03*
X145923000Y-80010000D03*
X146558000Y-80010000D03*
X147193000Y-80010000D03*
X147828000Y-80010000D03*
X155448000Y-79375000D03*
X156083000Y-79375000D03*
X156718000Y-79375000D03*
X157353000Y-79375000D03*
X157988000Y-79375000D03*
X158623000Y-79375000D03*
X159258000Y-79375000D03*
X159893000Y-79375000D03*
X160528000Y-79375000D03*
X154813000Y-80010000D03*
X155448000Y-80010000D03*
X156083000Y-80010000D03*
X156718000Y-80010000D03*
X157353000Y-80010000D03*
X157988000Y-80010000D03*
X158623000Y-80010000D03*
X159258000Y-80010000D03*
X159893000Y-80010000D03*
X160528000Y-80010000D03*
X168148000Y-79375000D03*
X168783000Y-79375000D03*
X169418000Y-79375000D03*
X170053000Y-79375000D03*
X170688000Y-79375000D03*
X171323000Y-79375000D03*
X171958000Y-79375000D03*
X167513000Y-80010000D03*
X168148000Y-80010000D03*
X168783000Y-80010000D03*
X169418000Y-80010000D03*
X170053000Y-80010000D03*
X170688000Y-80010000D03*
X171323000Y-80010000D03*
X171958000Y-80010000D03*
X172593000Y-80010000D03*
X173228000Y-80010000D03*
X154813000Y-79375000D03*
X133413500Y-85661500D03*
X130175000Y-85343992D03*
X125222020Y-86233000D03*
X129541903Y-84702447D03*
X134874000Y-84201000D03*
X140334994Y-79883000D03*
X129332010Y-85424990D03*
X130556000Y-108839000D03*
X130047129Y-108198771D03*
X138049000Y-111887000D03*
X124154259Y-92800500D03*
X131058287Y-99840668D03*
X131953000Y-99822000D03*
X125222000Y-58674000D03*
X130175000Y-99822000D03*
X125222000Y-56261000D03*
X120523000Y-65659000D03*
X121920000Y-56388002D03*
X122809000Y-55527400D03*
X122430288Y-91512540D03*
X122463692Y-89894282D03*
X122415622Y-90734866D03*
X136398006Y-99060000D03*
X138674492Y-97052553D03*
X134366010Y-95631000D03*
X135254999Y-96073726D03*
X121873990Y-68326000D03*
X129921000Y-68453000D03*
X129681000Y-89646000D03*
X126225423Y-86284710D03*
X127001590Y-86234157D03*
X127309579Y-86995000D03*
X147039000Y-58647000D03*
X146404000Y-58647000D03*
X145769000Y-58647000D03*
X145134000Y-58647000D03*
X144499000Y-58647000D03*
X143864000Y-58647000D03*
X143229000Y-58647000D03*
X147039000Y-58012000D03*
X146404000Y-58012000D03*
X145769000Y-58012000D03*
X145134000Y-58012000D03*
X144499000Y-58012000D03*
X143864000Y-58012000D03*
X143229000Y-58012000D03*
X147039000Y-57377000D03*
X146404000Y-57377000D03*
X145769000Y-57377000D03*
X145134000Y-57377000D03*
X144499000Y-57377000D03*
X143864000Y-57377000D03*
X143229000Y-57377000D03*
X147039000Y-56742000D03*
X146404000Y-56742000D03*
X145769000Y-56742000D03*
X145134000Y-56742000D03*
X144499000Y-56742000D03*
X143864000Y-56742000D03*
X143229000Y-56742000D03*
X147039000Y-56107000D03*
X146404000Y-56107000D03*
X145769000Y-56107000D03*
X145134000Y-56107000D03*
X144499000Y-56107000D03*
X143864000Y-56107000D03*
X143229000Y-56107000D03*
X134859694Y-71406578D03*
X134983565Y-72918030D03*
X159639000Y-58647000D03*
X159004000Y-58647000D03*
X158369000Y-58647000D03*
X157734000Y-58647000D03*
X157099000Y-58647000D03*
X156464000Y-58647000D03*
X155829000Y-58647000D03*
X159639000Y-58012000D03*
X159004000Y-58012000D03*
X158369000Y-58012000D03*
X157734000Y-58012000D03*
X157099000Y-58012000D03*
X156464000Y-58012000D03*
X155829000Y-58012000D03*
X159639000Y-57377000D03*
X159004000Y-57377000D03*
X158369000Y-57377000D03*
X157734000Y-57377000D03*
X157099000Y-57377000D03*
X156464000Y-57377000D03*
X155829000Y-57377000D03*
X159639000Y-56742000D03*
X159004000Y-56742000D03*
X158369000Y-56742000D03*
X157734000Y-56742000D03*
X157099000Y-56742000D03*
X156464000Y-56742000D03*
X155829000Y-56742000D03*
X159639000Y-56107000D03*
X159004000Y-56107000D03*
X158369000Y-56107000D03*
X157734000Y-56107000D03*
X157099000Y-56107000D03*
X156464000Y-56107000D03*
X155829000Y-56107000D03*
X135081000Y-74119000D03*
X134981000Y-75719000D03*
X172339000Y-58647000D03*
X171704000Y-58647000D03*
X171069000Y-58647000D03*
X170434000Y-58647000D03*
X169799000Y-58647000D03*
X169164000Y-58647000D03*
X168529000Y-58647000D03*
X172339000Y-58012000D03*
X171704000Y-58012000D03*
X171069000Y-58012000D03*
X170434000Y-58012000D03*
X169799000Y-58012000D03*
X169164000Y-58012000D03*
X168529000Y-58012000D03*
X172339000Y-57377000D03*
X171704000Y-57377000D03*
X171069000Y-57377000D03*
X170434000Y-57377000D03*
X169799000Y-57377000D03*
X169164000Y-57377000D03*
X168529000Y-57377000D03*
X172339000Y-56742000D03*
X171704000Y-56742000D03*
X171069000Y-56742000D03*
X170434000Y-56742000D03*
X169799000Y-56742000D03*
X169164000Y-56742000D03*
X168529000Y-56742000D03*
X172339000Y-56107000D03*
X171704000Y-56107000D03*
X171069000Y-56107000D03*
X170434000Y-56107000D03*
X169799000Y-56107000D03*
X169164000Y-56107000D03*
X168529000Y-56107000D03*
X134860669Y-76981846D03*
X134889640Y-78537112D03*
X133538673Y-94492042D03*
X139953998Y-66848010D03*
X132786454Y-94474981D03*
X133858000Y-59182000D03*
X128142989Y-93980000D03*
X128285958Y-60513413D03*
X128642410Y-97102622D03*
X130081000Y-76019000D03*
X127127000Y-76453990D03*
X128397000Y-99822000D03*
X129307004Y-99825571D03*
X126478244Y-77346228D03*
X131435153Y-96637145D03*
X129794000Y-70866000D03*
X127235055Y-72768890D03*
X138938000Y-95758000D03*
X130048000Y-72517004D03*
X138953108Y-94972476D03*
X130048887Y-71633226D03*
X138937532Y-94194820D03*
X135509000Y-92582988D03*
X124413996Y-104775000D03*
X135682010Y-91686407D03*
X125222000Y-104140000D03*
X136419649Y-91538037D03*
X125857000Y-103251000D03*
X123825000Y-94234000D03*
X133350000Y-101473004D03*
X124714000Y-94488000D03*
X137805745Y-100594745D03*
X132088514Y-97059176D03*
X130040229Y-75242258D03*
X130699209Y-95223794D03*
X129901590Y-76826915D03*
X129286000Y-94996000D03*
X127230600Y-77355385D03*
X130081000Y-74319000D03*
X138938000Y-93091000D03*
X130048000Y-69723000D03*
X138938002Y-91424189D03*
X138707856Y-98047010D03*
X121920000Y-99060000D03*
X124841000Y-99233010D03*
X139065000Y-98933000D03*
X139449746Y-90260402D03*
X136017000Y-62865000D03*
X153416016Y-61595000D03*
X136271000Y-61849000D03*
X152527000Y-61849000D03*
X166116000Y-61595000D03*
X132310282Y-65970701D03*
X165227000Y-61849000D03*
X131699000Y-65532000D03*
X140335000Y-72842410D03*
X143510000Y-67691000D03*
X140589006Y-71247000D03*
X143510000Y-77089000D03*
X140600000Y-74500000D03*
X154635196Y-77165200D03*
X140300000Y-75300000D03*
X156083000Y-67691000D03*
X159766000Y-67691000D03*
X141224000Y-70612000D03*
X168783000Y-67691000D03*
X137904193Y-79451912D03*
X122491500Y-92329000D03*
M02*
