G04 #@! TF.GenerationSoftware,KiCad,Pcbnew,(5.1.5-0)*
G04 #@! TF.CreationDate,2019-12-28T20:18:40+08:00*
G04 #@! TF.ProjectId,VESC_6,56455343-5f36-42e6-9b69-6361645f7063,A*
G04 #@! TF.SameCoordinates,Original*
G04 #@! TF.FileFunction,Legend,Top*
G04 #@! TF.FilePolarity,Positive*
%FSLAX46Y46*%
G04 Gerber Fmt 4.6, Leading zero omitted, Abs format (unit mm)*
G04 Created by KiCad (PCBNEW (5.1.5-0)) date 2019-12-28 20:18:40*
%MOMM*%
%LPD*%
G04 APERTURE LIST*
%ADD10C,0.100000*%
%ADD11C,0.203200*%
%ADD12C,0.101600*%
%ADD13C,0.200000*%
%ADD14C,0.120000*%
%ADD15C,0.150000*%
%ADD16C,0.300000*%
%ADD17C,0.127000*%
%ADD18C,0.152400*%
%ADD19R,2.500000X1.800000*%
%ADD20O,1.100000X1.800000*%
%ADD21O,1.100000X2.200000*%
%ADD22O,0.300000X0.850000*%
%ADD23O,0.850000X0.300000*%
%ADD24R,0.800000X0.750000*%
%ADD25R,1.180000X4.700000*%
%ADD26R,3.599180X7.000240*%
%ADD27R,1.501140X0.299720*%
%ADD28R,1.193800X0.304800*%
%ADD29R,0.304800X1.193800*%
%ADD30C,0.900000*%
%ADD31R,1.200000X0.775000*%
%ADD32R,0.350000X0.650000*%
%ADD33R,1.950000X1.500000*%
%ADD34R,1.000000X2.500000*%
%ADD35R,2.500000X1.000000*%
%ADD36R,0.900000X0.500000*%
%ADD37R,0.500000X0.900000*%
%ADD38R,0.750000X0.800000*%
%ADD39C,1.600000*%
%ADD40R,1.699260X1.198880*%
%ADD41O,1.699260X1.198880*%
%ADD42R,0.700000X1.300000*%
%ADD43R,1.100000X0.850000*%
%ADD44R,1.100000X1.700000*%
%ADD45R,1.300000X0.700000*%
%ADD46R,0.850000X1.100000*%
%ADD47R,1.700000X1.100000*%
%ADD48C,3.000000*%
%ADD49R,1.198880X1.699260*%
%ADD50O,1.198880X1.699260*%
%ADD51R,6.000000X5.000000*%
G04 APERTURE END LIST*
D10*
X167032000Y-81800000D02*
X167540000Y-81800000D01*
X148028000Y-81800000D02*
X148536000Y-81800000D01*
D11*
X170842000Y-85217000D02*
X170842000Y-86233000D01*
X170334000Y-85725000D02*
X171350000Y-85725000D01*
X144726000Y-85217000D02*
X144726000Y-86233000D01*
X144218000Y-85725000D02*
X145234000Y-85725000D01*
D10*
X165825500Y-82600000D02*
X165825500Y-84455000D01*
X170842000Y-82600000D02*
X170842000Y-84455000D01*
X149742500Y-82600000D02*
X149742500Y-84455000D01*
X144726000Y-82600000D02*
X144726000Y-84455000D01*
D11*
X153543000Y-81788000D02*
X153543000Y-82804000D01*
X153035000Y-82296000D02*
X154051000Y-82296000D01*
D12*
X138584000Y-58039000D02*
X140997000Y-58039000D01*
X139473000Y-58039000D02*
X139473000Y-57531000D01*
X140235000Y-58039000D02*
X140235000Y-57531000D01*
X138711000Y-58039000D02*
X138711000Y-57531000D01*
X137949000Y-58039000D02*
X138711000Y-58039000D01*
X138711000Y-58039000D02*
X137949000Y-58039000D01*
X140997000Y-58039000D02*
X140997000Y-57531000D01*
X140718809Y-56744809D02*
X141226809Y-56575476D01*
X140718809Y-56406142D01*
X141033285Y-56236809D02*
X141033285Y-55849761D01*
X141226809Y-56043285D02*
X140839761Y-56043285D01*
X139956809Y-57180238D02*
X139956809Y-56889952D01*
X140464809Y-57035095D02*
X139956809Y-57035095D01*
X140198714Y-56720619D02*
X140198714Y-56551285D01*
X140464809Y-56478714D02*
X140464809Y-56720619D01*
X139956809Y-56720619D01*
X139956809Y-56478714D01*
X140464809Y-56261000D02*
X139956809Y-56261000D01*
X140319666Y-56091666D01*
X139956809Y-55922333D01*
X140464809Y-55922333D01*
X140464809Y-55680428D02*
X139956809Y-55680428D01*
X139956809Y-55486904D01*
X139981000Y-55438523D01*
X140005190Y-55414333D01*
X140053571Y-55390142D01*
X140126142Y-55390142D01*
X140174523Y-55414333D01*
X140198714Y-55438523D01*
X140222904Y-55486904D01*
X140222904Y-55680428D01*
X139702809Y-56648047D02*
X139194809Y-56648047D01*
X139436714Y-56648047D02*
X139436714Y-56357761D01*
X139702809Y-56357761D02*
X139194809Y-56357761D01*
X139702809Y-55849761D02*
X139702809Y-56140047D01*
X139702809Y-55994904D02*
X139194809Y-55994904D01*
X139267380Y-56043285D01*
X139315761Y-56091666D01*
X139339952Y-56140047D01*
X138940809Y-56648047D02*
X138432809Y-56648047D01*
X138674714Y-56648047D02*
X138674714Y-56357761D01*
X138940809Y-56357761D02*
X138432809Y-56357761D01*
X138481190Y-56140047D02*
X138457000Y-56115857D01*
X138432809Y-56067476D01*
X138432809Y-55946523D01*
X138457000Y-55898142D01*
X138481190Y-55873952D01*
X138529571Y-55849761D01*
X138577952Y-55849761D01*
X138650523Y-55873952D01*
X138940809Y-56164238D01*
X138940809Y-55849761D01*
X129161809Y-56394047D02*
X128653809Y-56394047D01*
X128895714Y-56394047D02*
X128895714Y-56103761D01*
X129161809Y-56103761D02*
X128653809Y-56103761D01*
X128653809Y-55910238D02*
X128653809Y-55595761D01*
X128847333Y-55765095D01*
X128847333Y-55692523D01*
X128871523Y-55644142D01*
X128895714Y-55619952D01*
X128944095Y-55595761D01*
X129065047Y-55595761D01*
X129113428Y-55619952D01*
X129137619Y-55644142D01*
X129161809Y-55692523D01*
X129161809Y-55837666D01*
X129137619Y-55886047D01*
X129113428Y-55910238D01*
X126646000Y-56394047D02*
X126621809Y-56442428D01*
X126621809Y-56515000D01*
X126646000Y-56587571D01*
X126694380Y-56635952D01*
X126742761Y-56660142D01*
X126839523Y-56684333D01*
X126912095Y-56684333D01*
X127008857Y-56660142D01*
X127057238Y-56635952D01*
X127105619Y-56587571D01*
X127129809Y-56515000D01*
X127129809Y-56466619D01*
X127105619Y-56394047D01*
X127081428Y-56369857D01*
X126912095Y-56369857D01*
X126912095Y-56466619D01*
X127129809Y-56152142D02*
X126621809Y-56152142D01*
X127129809Y-55861857D01*
X126621809Y-55861857D01*
X127129809Y-55619952D02*
X126621809Y-55619952D01*
X126621809Y-55499000D01*
X126646000Y-55426428D01*
X126694380Y-55378047D01*
X126742761Y-55353857D01*
X126839523Y-55329666D01*
X126912095Y-55329666D01*
X127008857Y-55353857D01*
X127057238Y-55378047D01*
X127105619Y-55426428D01*
X127129809Y-55499000D01*
X127129809Y-55619952D01*
X115424857Y-85803619D02*
X115497428Y-85827809D01*
X115618380Y-85827809D01*
X115666761Y-85803619D01*
X115690952Y-85779428D01*
X115715142Y-85731047D01*
X115715142Y-85682666D01*
X115690952Y-85634285D01*
X115666761Y-85610095D01*
X115618380Y-85585904D01*
X115521619Y-85561714D01*
X115473238Y-85537523D01*
X115449047Y-85513333D01*
X115424857Y-85464952D01*
X115424857Y-85416571D01*
X115449047Y-85368190D01*
X115473238Y-85344000D01*
X115521619Y-85319809D01*
X115642571Y-85319809D01*
X115715142Y-85344000D01*
X116223142Y-85779428D02*
X116198952Y-85803619D01*
X116126380Y-85827809D01*
X116078000Y-85827809D01*
X116005428Y-85803619D01*
X115957047Y-85755238D01*
X115932857Y-85706857D01*
X115908666Y-85610095D01*
X115908666Y-85537523D01*
X115932857Y-85440761D01*
X115957047Y-85392380D01*
X116005428Y-85344000D01*
X116078000Y-85319809D01*
X116126380Y-85319809D01*
X116198952Y-85344000D01*
X116223142Y-85368190D01*
X116440857Y-85827809D02*
X116440857Y-85319809D01*
X116731142Y-85827809D02*
X116513428Y-85537523D01*
X116731142Y-85319809D02*
X116440857Y-85610095D01*
X115461142Y-84152619D02*
X115533714Y-84176809D01*
X115654666Y-84176809D01*
X115703047Y-84152619D01*
X115727238Y-84128428D01*
X115751428Y-84080047D01*
X115751428Y-84031666D01*
X115727238Y-83983285D01*
X115703047Y-83959095D01*
X115654666Y-83934904D01*
X115557904Y-83910714D01*
X115509523Y-83886523D01*
X115485333Y-83862333D01*
X115461142Y-83813952D01*
X115461142Y-83765571D01*
X115485333Y-83717190D01*
X115509523Y-83693000D01*
X115557904Y-83668809D01*
X115678857Y-83668809D01*
X115751428Y-83693000D01*
X115969142Y-84176809D02*
X115969142Y-83668809D01*
X116090095Y-83668809D01*
X116162666Y-83693000D01*
X116211047Y-83741380D01*
X116235238Y-83789761D01*
X116259428Y-83886523D01*
X116259428Y-83959095D01*
X116235238Y-84055857D01*
X116211047Y-84104238D01*
X116162666Y-84152619D01*
X116090095Y-84176809D01*
X115969142Y-84176809D01*
X116452952Y-84031666D02*
X116694857Y-84031666D01*
X116404571Y-84176809D02*
X116573904Y-83668809D01*
X116743238Y-84176809D01*
X115449047Y-82906809D02*
X115449047Y-82398809D01*
X115739333Y-82906809D01*
X115739333Y-82398809D01*
X115957047Y-82882619D02*
X116029619Y-82906809D01*
X116150571Y-82906809D01*
X116198952Y-82882619D01*
X116223142Y-82858428D01*
X116247333Y-82810047D01*
X116247333Y-82761666D01*
X116223142Y-82713285D01*
X116198952Y-82689095D01*
X116150571Y-82664904D01*
X116053809Y-82640714D01*
X116005428Y-82616523D01*
X115981238Y-82592333D01*
X115957047Y-82543952D01*
X115957047Y-82495571D01*
X115981238Y-82447190D01*
X116005428Y-82423000D01*
X116053809Y-82398809D01*
X116174761Y-82398809D01*
X116247333Y-82423000D01*
X116440857Y-82882619D02*
X116513428Y-82906809D01*
X116634380Y-82906809D01*
X116682761Y-82882619D01*
X116706952Y-82858428D01*
X116731142Y-82810047D01*
X116731142Y-82761666D01*
X116706952Y-82713285D01*
X116682761Y-82689095D01*
X116634380Y-82664904D01*
X116537619Y-82640714D01*
X116489238Y-82616523D01*
X116465047Y-82592333D01*
X116440857Y-82543952D01*
X116440857Y-82495571D01*
X116465047Y-82447190D01*
X116489238Y-82423000D01*
X116537619Y-82398809D01*
X116658571Y-82398809D01*
X116731142Y-82423000D01*
X115600238Y-82120619D02*
X115672809Y-82144809D01*
X115793761Y-82144809D01*
X115842142Y-82120619D01*
X115866333Y-82096428D01*
X115890523Y-82048047D01*
X115890523Y-81999666D01*
X115866333Y-81951285D01*
X115842142Y-81927095D01*
X115793761Y-81902904D01*
X115697000Y-81878714D01*
X115648619Y-81854523D01*
X115624428Y-81830333D01*
X115600238Y-81781952D01*
X115600238Y-81733571D01*
X115624428Y-81685190D01*
X115648619Y-81661000D01*
X115697000Y-81636809D01*
X115817952Y-81636809D01*
X115890523Y-81661000D01*
X116398523Y-82096428D02*
X116374333Y-82120619D01*
X116301761Y-82144809D01*
X116253380Y-82144809D01*
X116180809Y-82120619D01*
X116132428Y-82072238D01*
X116108238Y-82023857D01*
X116084047Y-81927095D01*
X116084047Y-81854523D01*
X116108238Y-81757761D01*
X116132428Y-81709380D01*
X116180809Y-81661000D01*
X116253380Y-81636809D01*
X116301761Y-81636809D01*
X116374333Y-81661000D01*
X116398523Y-81685190D01*
X116858142Y-82144809D02*
X116616238Y-82144809D01*
X116616238Y-81636809D01*
X115993333Y-81509809D02*
X115824000Y-81267904D01*
X115703047Y-81509809D02*
X115703047Y-81001809D01*
X115896571Y-81001809D01*
X115944952Y-81026000D01*
X115969142Y-81050190D01*
X115993333Y-81098571D01*
X115993333Y-81171142D01*
X115969142Y-81219523D01*
X115944952Y-81243714D01*
X115896571Y-81267904D01*
X115703047Y-81267904D01*
X116162666Y-81001809D02*
X116501333Y-81509809D01*
X116501333Y-81001809D02*
X116162666Y-81509809D01*
X115461142Y-79586666D02*
X115703047Y-79586666D01*
X115412761Y-79731809D02*
X115582095Y-79223809D01*
X115751428Y-79731809D01*
X115920761Y-79731809D02*
X115920761Y-79223809D01*
X116041714Y-79223809D01*
X116114285Y-79248000D01*
X116162666Y-79296380D01*
X116186857Y-79344761D01*
X116211047Y-79441523D01*
X116211047Y-79514095D01*
X116186857Y-79610857D01*
X116162666Y-79659238D01*
X116114285Y-79707619D01*
X116041714Y-79731809D01*
X115920761Y-79731809D01*
X116404571Y-79272190D02*
X116428761Y-79248000D01*
X116477142Y-79223809D01*
X116598095Y-79223809D01*
X116646476Y-79248000D01*
X116670666Y-79272190D01*
X116694857Y-79320571D01*
X116694857Y-79368952D01*
X116670666Y-79441523D01*
X116380380Y-79731809D01*
X116694857Y-79731809D01*
D13*
X140993500Y-84474500D02*
X153493500Y-84474500D01*
X153493500Y-114474500D02*
X140993500Y-114474500D01*
X140993500Y-114474500D02*
X140993500Y-84474500D01*
X153493500Y-84474500D02*
X153493500Y-114474500D01*
D12*
X127864809Y-111766047D02*
X128276047Y-111766047D01*
X128324428Y-111741857D01*
X128348619Y-111717666D01*
X128372809Y-111669285D01*
X128372809Y-111572523D01*
X128348619Y-111524142D01*
X128324428Y-111499952D01*
X128276047Y-111475761D01*
X127864809Y-111475761D01*
X128348619Y-111258047D02*
X128372809Y-111185476D01*
X128372809Y-111064523D01*
X128348619Y-111016142D01*
X128324428Y-110991952D01*
X128276047Y-110967761D01*
X128227666Y-110967761D01*
X128179285Y-110991952D01*
X128155095Y-111016142D01*
X128130904Y-111064523D01*
X128106714Y-111161285D01*
X128082523Y-111209666D01*
X128058333Y-111233857D01*
X128009952Y-111258047D01*
X127961571Y-111258047D01*
X127913190Y-111233857D01*
X127889000Y-111209666D01*
X127864809Y-111161285D01*
X127864809Y-111040333D01*
X127889000Y-110967761D01*
X128106714Y-110580714D02*
X128130904Y-110508142D01*
X128155095Y-110483952D01*
X128203476Y-110459761D01*
X128276047Y-110459761D01*
X128324428Y-110483952D01*
X128348619Y-110508142D01*
X128372809Y-110556523D01*
X128372809Y-110750047D01*
X127864809Y-110750047D01*
X127864809Y-110580714D01*
X127889000Y-110532333D01*
X127913190Y-110508142D01*
X127961571Y-110483952D01*
X128009952Y-110483952D01*
X128058333Y-110508142D01*
X128082523Y-110532333D01*
X128106714Y-110580714D01*
X128106714Y-110750047D01*
X123063000Y-111131047D02*
X123038809Y-111179428D01*
X123038809Y-111252000D01*
X123063000Y-111324571D01*
X123111380Y-111372952D01*
X123159761Y-111397142D01*
X123256523Y-111421333D01*
X123329095Y-111421333D01*
X123425857Y-111397142D01*
X123474238Y-111372952D01*
X123522619Y-111324571D01*
X123546809Y-111252000D01*
X123546809Y-111203619D01*
X123522619Y-111131047D01*
X123498428Y-111106857D01*
X123329095Y-111106857D01*
X123329095Y-111203619D01*
X123546809Y-110889142D02*
X123038809Y-110889142D01*
X123546809Y-110598857D01*
X123038809Y-110598857D01*
X123546809Y-110356952D02*
X123038809Y-110356952D01*
X123038809Y-110236000D01*
X123063000Y-110163428D01*
X123111380Y-110115047D01*
X123159761Y-110090857D01*
X123256523Y-110066666D01*
X123329095Y-110066666D01*
X123425857Y-110090857D01*
X123474238Y-110115047D01*
X123522619Y-110163428D01*
X123546809Y-110236000D01*
X123546809Y-110356952D01*
X121466428Y-111276190D02*
X121490619Y-111300380D01*
X121514809Y-111372952D01*
X121514809Y-111421333D01*
X121490619Y-111493904D01*
X121442238Y-111542285D01*
X121393857Y-111566476D01*
X121297095Y-111590666D01*
X121224523Y-111590666D01*
X121127761Y-111566476D01*
X121079380Y-111542285D01*
X121031000Y-111493904D01*
X121006809Y-111421333D01*
X121006809Y-111372952D01*
X121031000Y-111300380D01*
X121055190Y-111276190D01*
X121369666Y-111082666D02*
X121369666Y-110840761D01*
X121514809Y-111131047D02*
X121006809Y-110961714D01*
X121514809Y-110792380D01*
X121514809Y-110623047D02*
X121006809Y-110623047D01*
X121514809Y-110332761D01*
X121006809Y-110332761D01*
X121514809Y-109848952D02*
X121514809Y-110090857D01*
X121006809Y-110090857D01*
X119434428Y-111336666D02*
X119458619Y-111360857D01*
X119482809Y-111433428D01*
X119482809Y-111481809D01*
X119458619Y-111554380D01*
X119410238Y-111602761D01*
X119361857Y-111626952D01*
X119265095Y-111651142D01*
X119192523Y-111651142D01*
X119095761Y-111626952D01*
X119047380Y-111602761D01*
X118999000Y-111554380D01*
X118974809Y-111481809D01*
X118974809Y-111433428D01*
X118999000Y-111360857D01*
X119023190Y-111336666D01*
X119337666Y-111143142D02*
X119337666Y-110901238D01*
X119482809Y-111191523D02*
X118974809Y-111022190D01*
X119482809Y-110852857D01*
X119482809Y-110683523D02*
X118974809Y-110683523D01*
X119482809Y-110393238D01*
X118974809Y-110393238D01*
X119482809Y-110151333D02*
X118974809Y-110151333D01*
X119216714Y-110151333D02*
X119216714Y-109861047D01*
X119482809Y-109861047D02*
X118974809Y-109861047D01*
X116942809Y-110840761D02*
X116942809Y-111082666D01*
X117184714Y-111106857D01*
X117160523Y-111082666D01*
X117136333Y-111034285D01*
X117136333Y-110913333D01*
X117160523Y-110864952D01*
X117184714Y-110840761D01*
X117233095Y-110816571D01*
X117354047Y-110816571D01*
X117402428Y-110840761D01*
X117426619Y-110864952D01*
X117450809Y-110913333D01*
X117450809Y-111034285D01*
X117426619Y-111082666D01*
X117402428Y-111106857D01*
X116942809Y-110671428D02*
X117450809Y-110502095D01*
X116942809Y-110332761D01*
X115690952Y-104013000D02*
X115642571Y-103988809D01*
X115570000Y-103988809D01*
X115497428Y-104013000D01*
X115449047Y-104061380D01*
X115424857Y-104109761D01*
X115400666Y-104206523D01*
X115400666Y-104279095D01*
X115424857Y-104375857D01*
X115449047Y-104424238D01*
X115497428Y-104472619D01*
X115570000Y-104496809D01*
X115618380Y-104496809D01*
X115690952Y-104472619D01*
X115715142Y-104448428D01*
X115715142Y-104279095D01*
X115618380Y-104279095D01*
X115932857Y-104496809D02*
X115932857Y-103988809D01*
X116223142Y-104496809D01*
X116223142Y-103988809D01*
X116465047Y-104496809D02*
X116465047Y-103988809D01*
X116586000Y-103988809D01*
X116658571Y-104013000D01*
X116706952Y-104061380D01*
X116731142Y-104109761D01*
X116755333Y-104206523D01*
X116755333Y-104279095D01*
X116731142Y-104375857D01*
X116706952Y-104424238D01*
X116658571Y-104472619D01*
X116586000Y-104496809D01*
X116465047Y-104496809D01*
X115461142Y-100408619D02*
X115533714Y-100432809D01*
X115654666Y-100432809D01*
X115703047Y-100408619D01*
X115727238Y-100384428D01*
X115751428Y-100336047D01*
X115751428Y-100287666D01*
X115727238Y-100239285D01*
X115703047Y-100215095D01*
X115654666Y-100190904D01*
X115557904Y-100166714D01*
X115509523Y-100142523D01*
X115485333Y-100118333D01*
X115461142Y-100069952D01*
X115461142Y-100021571D01*
X115485333Y-99973190D01*
X115509523Y-99949000D01*
X115557904Y-99924809D01*
X115678857Y-99924809D01*
X115751428Y-99949000D01*
X116259428Y-100432809D02*
X116090095Y-100190904D01*
X115969142Y-100432809D02*
X115969142Y-99924809D01*
X116162666Y-99924809D01*
X116211047Y-99949000D01*
X116235238Y-99973190D01*
X116259428Y-100021571D01*
X116259428Y-100094142D01*
X116235238Y-100142523D01*
X116211047Y-100166714D01*
X116162666Y-100190904D01*
X115969142Y-100190904D01*
X116404571Y-99924809D02*
X116573904Y-100432809D01*
X116743238Y-99924809D01*
X115981238Y-101956809D02*
X115739333Y-101956809D01*
X115715142Y-102198714D01*
X115739333Y-102174523D01*
X115787714Y-102150333D01*
X115908666Y-102150333D01*
X115957047Y-102174523D01*
X115981238Y-102198714D01*
X116005428Y-102247095D01*
X116005428Y-102368047D01*
X115981238Y-102416428D01*
X115957047Y-102440619D01*
X115908666Y-102464809D01*
X115787714Y-102464809D01*
X115739333Y-102440619D01*
X115715142Y-102416428D01*
X116150571Y-101956809D02*
X116319904Y-102464809D01*
X116489238Y-101956809D01*
X115981238Y-91034809D02*
X115739333Y-91034809D01*
X115715142Y-91276714D01*
X115739333Y-91252523D01*
X115787714Y-91228333D01*
X115908666Y-91228333D01*
X115957047Y-91252523D01*
X115981238Y-91276714D01*
X116005428Y-91325095D01*
X116005428Y-91446047D01*
X115981238Y-91494428D01*
X115957047Y-91518619D01*
X115908666Y-91542809D01*
X115787714Y-91542809D01*
X115739333Y-91518619D01*
X115715142Y-91494428D01*
X116150571Y-91034809D02*
X116319904Y-91542809D01*
X116489238Y-91034809D01*
X115328095Y-89002809D02*
X115642571Y-89002809D01*
X115473238Y-89196333D01*
X115545809Y-89196333D01*
X115594190Y-89220523D01*
X115618380Y-89244714D01*
X115642571Y-89293095D01*
X115642571Y-89414047D01*
X115618380Y-89462428D01*
X115594190Y-89486619D01*
X115545809Y-89510809D01*
X115400666Y-89510809D01*
X115352285Y-89486619D01*
X115328095Y-89462428D01*
X115860285Y-89462428D02*
X115884476Y-89486619D01*
X115860285Y-89510809D01*
X115836095Y-89486619D01*
X115860285Y-89462428D01*
X115860285Y-89510809D01*
X116053809Y-89002809D02*
X116368285Y-89002809D01*
X116198952Y-89196333D01*
X116271523Y-89196333D01*
X116319904Y-89220523D01*
X116344095Y-89244714D01*
X116368285Y-89293095D01*
X116368285Y-89414047D01*
X116344095Y-89462428D01*
X116319904Y-89486619D01*
X116271523Y-89510809D01*
X116126380Y-89510809D01*
X116078000Y-89486619D01*
X116053809Y-89462428D01*
X116513428Y-89002809D02*
X116682761Y-89510809D01*
X116852095Y-89002809D01*
X115690952Y-86995000D02*
X115642571Y-86970809D01*
X115570000Y-86970809D01*
X115497428Y-86995000D01*
X115449047Y-87043380D01*
X115424857Y-87091761D01*
X115400666Y-87188523D01*
X115400666Y-87261095D01*
X115424857Y-87357857D01*
X115449047Y-87406238D01*
X115497428Y-87454619D01*
X115570000Y-87478809D01*
X115618380Y-87478809D01*
X115690952Y-87454619D01*
X115715142Y-87430428D01*
X115715142Y-87261095D01*
X115618380Y-87261095D01*
X115932857Y-87478809D02*
X115932857Y-86970809D01*
X116223142Y-87478809D01*
X116223142Y-86970809D01*
X116465047Y-87478809D02*
X116465047Y-86970809D01*
X116586000Y-86970809D01*
X116658571Y-86995000D01*
X116706952Y-87043380D01*
X116731142Y-87091761D01*
X116755333Y-87188523D01*
X116755333Y-87261095D01*
X116731142Y-87357857D01*
X116706952Y-87406238D01*
X116658571Y-87454619D01*
X116586000Y-87478809D01*
X116465047Y-87478809D01*
X115449047Y-85047666D02*
X115690952Y-85047666D01*
X115400666Y-85192809D02*
X115570000Y-84684809D01*
X115739333Y-85192809D01*
X115908666Y-85192809D02*
X115908666Y-84684809D01*
X116029619Y-84684809D01*
X116102190Y-84709000D01*
X116150571Y-84757380D01*
X116174761Y-84805761D01*
X116198952Y-84902523D01*
X116198952Y-84975095D01*
X116174761Y-85071857D01*
X116150571Y-85120238D01*
X116102190Y-85168619D01*
X116029619Y-85192809D01*
X115908666Y-85192809D01*
X116706952Y-85144428D02*
X116682761Y-85168619D01*
X116610190Y-85192809D01*
X116561809Y-85192809D01*
X116489238Y-85168619D01*
X116440857Y-85120238D01*
X116416666Y-85071857D01*
X116392476Y-84975095D01*
X116392476Y-84902523D01*
X116416666Y-84805761D01*
X116440857Y-84757380D01*
X116489238Y-84709000D01*
X116561809Y-84684809D01*
X116610190Y-84684809D01*
X116682761Y-84709000D01*
X116706952Y-84733190D01*
X115690952Y-83033809D02*
X115981238Y-83033809D01*
X115836095Y-83541809D02*
X115836095Y-83033809D01*
X116102190Y-83033809D02*
X116440857Y-83541809D01*
X116440857Y-83033809D02*
X116102190Y-83541809D01*
X115406714Y-80874809D02*
X115406714Y-80366809D01*
X115576047Y-80729666D01*
X115745380Y-80366809D01*
X115745380Y-80874809D01*
X116084047Y-80366809D02*
X116180809Y-80366809D01*
X116229190Y-80391000D01*
X116277571Y-80439380D01*
X116301761Y-80536142D01*
X116301761Y-80705476D01*
X116277571Y-80802238D01*
X116229190Y-80850619D01*
X116180809Y-80874809D01*
X116084047Y-80874809D01*
X116035666Y-80850619D01*
X115987285Y-80802238D01*
X115963095Y-80705476D01*
X115963095Y-80536142D01*
X115987285Y-80439380D01*
X116035666Y-80391000D01*
X116084047Y-80366809D01*
X116495285Y-80850619D02*
X116567857Y-80874809D01*
X116688809Y-80874809D01*
X116737190Y-80850619D01*
X116761380Y-80826428D01*
X116785571Y-80778047D01*
X116785571Y-80729666D01*
X116761380Y-80681285D01*
X116737190Y-80657095D01*
X116688809Y-80632904D01*
X116592047Y-80608714D01*
X116543666Y-80584523D01*
X116519476Y-80560333D01*
X116495285Y-80511952D01*
X116495285Y-80463571D01*
X116519476Y-80415190D01*
X116543666Y-80391000D01*
X116592047Y-80366809D01*
X116713000Y-80366809D01*
X116785571Y-80391000D01*
X117003285Y-80874809D02*
X117003285Y-80366809D01*
X115406714Y-79096809D02*
X115406714Y-78588809D01*
X115576047Y-78951666D01*
X115745380Y-78588809D01*
X115745380Y-79096809D01*
X115987285Y-79096809D02*
X115987285Y-78588809D01*
X116205000Y-79072619D02*
X116277571Y-79096809D01*
X116398523Y-79096809D01*
X116446904Y-79072619D01*
X116471095Y-79048428D01*
X116495285Y-79000047D01*
X116495285Y-78951666D01*
X116471095Y-78903285D01*
X116446904Y-78879095D01*
X116398523Y-78854904D01*
X116301761Y-78830714D01*
X116253380Y-78806523D01*
X116229190Y-78782333D01*
X116205000Y-78733952D01*
X116205000Y-78685571D01*
X116229190Y-78637190D01*
X116253380Y-78613000D01*
X116301761Y-78588809D01*
X116422714Y-78588809D01*
X116495285Y-78613000D01*
X116809761Y-78588809D02*
X116906523Y-78588809D01*
X116954904Y-78613000D01*
X117003285Y-78661380D01*
X117027476Y-78758142D01*
X117027476Y-78927476D01*
X117003285Y-79024238D01*
X116954904Y-79072619D01*
X116906523Y-79096809D01*
X116809761Y-79096809D01*
X116761380Y-79072619D01*
X116713000Y-79024238D01*
X116688809Y-78927476D01*
X116688809Y-78758142D01*
X116713000Y-78661380D01*
X116761380Y-78613000D01*
X116809761Y-78588809D01*
X115461142Y-77300666D02*
X115703047Y-77300666D01*
X115412761Y-77445809D02*
X115582095Y-76937809D01*
X115751428Y-77445809D01*
X115920761Y-77445809D02*
X115920761Y-76937809D01*
X116041714Y-76937809D01*
X116114285Y-76962000D01*
X116162666Y-77010380D01*
X116186857Y-77058761D01*
X116211047Y-77155523D01*
X116211047Y-77228095D01*
X116186857Y-77324857D01*
X116162666Y-77373238D01*
X116114285Y-77421619D01*
X116041714Y-77445809D01*
X115920761Y-77445809D01*
X116380380Y-76937809D02*
X116694857Y-76937809D01*
X116525523Y-77131333D01*
X116598095Y-77131333D01*
X116646476Y-77155523D01*
X116670666Y-77179714D01*
X116694857Y-77228095D01*
X116694857Y-77349047D01*
X116670666Y-77397428D01*
X116646476Y-77421619D01*
X116598095Y-77445809D01*
X116452952Y-77445809D01*
X116404571Y-77421619D01*
X116380380Y-77397428D01*
X115799809Y-73127809D02*
X115630476Y-72885904D01*
X115509523Y-73127809D02*
X115509523Y-72619809D01*
X115703047Y-72619809D01*
X115751428Y-72644000D01*
X115775619Y-72668190D01*
X115799809Y-72716571D01*
X115799809Y-72789142D01*
X115775619Y-72837523D01*
X115751428Y-72861714D01*
X115703047Y-72885904D01*
X115509523Y-72885904D01*
X115993333Y-73103619D02*
X116065904Y-73127809D01*
X116186857Y-73127809D01*
X116235238Y-73103619D01*
X116259428Y-73079428D01*
X116283619Y-73031047D01*
X116283619Y-72982666D01*
X116259428Y-72934285D01*
X116235238Y-72910095D01*
X116186857Y-72885904D01*
X116090095Y-72861714D01*
X116041714Y-72837523D01*
X116017523Y-72813333D01*
X115993333Y-72764952D01*
X115993333Y-72716571D01*
X116017523Y-72668190D01*
X116041714Y-72644000D01*
X116090095Y-72619809D01*
X116211047Y-72619809D01*
X116283619Y-72644000D01*
X116428761Y-72619809D02*
X116719047Y-72619809D01*
X116573904Y-73127809D02*
X116573904Y-72619809D01*
X115938904Y-71095809D02*
X115938904Y-70587809D01*
X116277571Y-70587809D02*
X116374333Y-70587809D01*
X116422714Y-70612000D01*
X116471095Y-70660380D01*
X116495285Y-70757142D01*
X116495285Y-70926476D01*
X116471095Y-71023238D01*
X116422714Y-71071619D01*
X116374333Y-71095809D01*
X116277571Y-71095809D01*
X116229190Y-71071619D01*
X116180809Y-71023238D01*
X116156619Y-70926476D01*
X116156619Y-70757142D01*
X116180809Y-70660380D01*
X116229190Y-70612000D01*
X116277571Y-70587809D01*
X115817952Y-68580000D02*
X115769571Y-68555809D01*
X115697000Y-68555809D01*
X115624428Y-68580000D01*
X115576047Y-68628380D01*
X115551857Y-68676761D01*
X115527666Y-68773523D01*
X115527666Y-68846095D01*
X115551857Y-68942857D01*
X115576047Y-68991238D01*
X115624428Y-69039619D01*
X115697000Y-69063809D01*
X115745380Y-69063809D01*
X115817952Y-69039619D01*
X115842142Y-69015428D01*
X115842142Y-68846095D01*
X115745380Y-68846095D01*
X116059857Y-69063809D02*
X116059857Y-68555809D01*
X116350142Y-69063809D01*
X116350142Y-68555809D01*
X116592047Y-69063809D02*
X116592047Y-68555809D01*
X116713000Y-68555809D01*
X116785571Y-68580000D01*
X116833952Y-68628380D01*
X116858142Y-68676761D01*
X116882333Y-68773523D01*
X116882333Y-68846095D01*
X116858142Y-68942857D01*
X116833952Y-68991238D01*
X116785571Y-69039619D01*
X116713000Y-69063809D01*
X116592047Y-69063809D01*
X115902619Y-66983428D02*
X115878428Y-67007619D01*
X115805857Y-67031809D01*
X115757476Y-67031809D01*
X115684904Y-67007619D01*
X115636523Y-66959238D01*
X115612333Y-66910857D01*
X115588142Y-66814095D01*
X115588142Y-66741523D01*
X115612333Y-66644761D01*
X115636523Y-66596380D01*
X115684904Y-66548000D01*
X115757476Y-66523809D01*
X115805857Y-66523809D01*
X115878428Y-66548000D01*
X115902619Y-66572190D01*
X116362238Y-67031809D02*
X116120333Y-67031809D01*
X116120333Y-66523809D01*
X116531571Y-67031809D02*
X116531571Y-66523809D01*
X116821857Y-67031809D02*
X116604142Y-66741523D01*
X116821857Y-66523809D02*
X116531571Y-66814095D01*
X115527666Y-64491809D02*
X115697000Y-64999809D01*
X115866333Y-64491809D01*
X116325952Y-64951428D02*
X116301761Y-64975619D01*
X116229190Y-64999809D01*
X116180809Y-64999809D01*
X116108238Y-64975619D01*
X116059857Y-64927238D01*
X116035666Y-64878857D01*
X116011476Y-64782095D01*
X116011476Y-64709523D01*
X116035666Y-64612761D01*
X116059857Y-64564380D01*
X116108238Y-64516000D01*
X116180809Y-64491809D01*
X116229190Y-64491809D01*
X116301761Y-64516000D01*
X116325952Y-64540190D01*
X116833952Y-64951428D02*
X116809761Y-64975619D01*
X116737190Y-64999809D01*
X116688809Y-64999809D01*
X116616238Y-64975619D01*
X116567857Y-64927238D01*
X116543666Y-64878857D01*
X116519476Y-64782095D01*
X116519476Y-64709523D01*
X116543666Y-64612761D01*
X116567857Y-64564380D01*
X116616238Y-64516000D01*
X116688809Y-64491809D01*
X116737190Y-64491809D01*
X116809761Y-64516000D01*
X116833952Y-64540190D01*
D13*
X174585500Y-84474500D02*
X174585500Y-114474500D01*
X174585500Y-114474500D02*
X162085500Y-114474500D01*
X162085500Y-114474500D02*
X162085500Y-84474500D01*
X162085500Y-84474500D02*
X174585500Y-84474500D01*
D14*
X127225000Y-63499000D02*
X121825000Y-63499000D01*
X127225000Y-60199000D02*
X121825000Y-60199000D01*
X127225000Y-63499000D02*
X127225000Y-60199000D01*
D15*
X119770000Y-79130000D02*
X120295000Y-79130000D01*
X124070000Y-83430000D02*
X123545000Y-83430000D01*
X124070000Y-79130000D02*
X123545000Y-79130000D01*
X119770000Y-83430000D02*
X119770000Y-82905000D01*
X124070000Y-83430000D02*
X124070000Y-82905000D01*
X124070000Y-79130000D02*
X124070000Y-79655000D01*
X119770000Y-79130000D02*
X119770000Y-79655000D01*
X121000000Y-85309000D02*
X120300000Y-85309000D01*
X120300000Y-84109000D02*
X121000000Y-84109000D01*
D16*
X128445000Y-59600000D02*
X128445000Y-65600000D01*
X134445000Y-65600000D02*
X134445000Y-59600000D01*
X128445000Y-59600000D02*
X129445000Y-59600000D01*
X134445000Y-59600000D02*
X133445000Y-59600000D01*
X128445000Y-65600000D02*
X129445000Y-65600000D01*
X134445000Y-65600000D02*
X133445000Y-65600000D01*
D15*
X128705000Y-59760000D02*
X134185000Y-59760000D01*
X134185000Y-59760000D02*
X134185000Y-65440000D01*
X134185000Y-65440000D02*
X128705000Y-65440000D01*
X128705000Y-65440000D02*
X128705000Y-59760000D01*
D17*
X130510478Y-67287140D02*
G75*
G03X130510478Y-67287140I-406598J0D01*
G01*
X129461260Y-66771520D02*
X135460740Y-66771520D01*
X135460740Y-81770220D02*
X129461260Y-81770220D01*
X135460740Y-81770220D02*
X135460740Y-66771520D01*
X129461260Y-66771520D02*
X129461260Y-81770220D01*
D18*
X136017000Y-87503000D02*
X136017000Y-86347464D01*
X136956800Y-88734736D02*
X136956800Y-87579200D01*
X135801264Y-97840800D02*
X136956800Y-97840800D01*
X126695200Y-96685264D02*
X126695200Y-97840800D01*
X127850736Y-87579200D02*
X126695200Y-87579200D01*
X136956800Y-87579200D02*
X135801264Y-87579200D01*
X136956800Y-97840800D02*
X136956800Y-96685264D01*
X126695200Y-97840800D02*
X127850736Y-97840800D01*
X126695200Y-87579200D02*
X126695200Y-88734736D01*
D14*
X115174111Y-60800437D02*
X118992487Y-56982060D01*
X117507563Y-63133889D02*
X121325940Y-59315513D01*
X115174111Y-60800437D02*
X117507563Y-63133889D01*
D15*
X134612559Y-105791000D02*
X134064551Y-105242992D01*
X131572000Y-108831559D02*
X131023992Y-108283551D01*
X128531441Y-105791000D02*
X129079449Y-106339008D01*
X131572000Y-102750441D02*
X132120008Y-103298449D01*
X131572000Y-108831559D02*
X132120008Y-108283551D01*
X128531441Y-105791000D02*
X129079449Y-105242992D01*
X134612559Y-105791000D02*
X134064551Y-106339008D01*
X124850000Y-99770500D02*
X124850000Y-102945500D01*
X121600000Y-100495500D02*
X121600000Y-102945500D01*
D14*
X135526000Y-59148000D02*
X135526000Y-61248000D01*
X135526000Y-61248000D02*
X139776000Y-61248000D01*
X135526000Y-59148000D02*
X139776000Y-59148000D01*
D15*
X133334000Y-82091000D02*
X131334000Y-82091000D01*
X131334000Y-85041000D02*
X133334000Y-85041000D01*
X140667000Y-67675000D02*
X140667000Y-65675000D01*
X137717000Y-65675000D02*
X137717000Y-67675000D01*
D14*
X135425543Y-108514010D02*
X135071990Y-108160457D01*
X134322457Y-108909990D02*
X134676010Y-109263543D01*
X133674990Y-110025543D02*
X134028543Y-109671990D01*
X133279010Y-108922457D02*
X132925457Y-109276010D01*
X133279010Y-107525457D02*
X132925457Y-107879010D01*
X133674990Y-108628543D02*
X134028543Y-108274990D01*
D15*
X132964348Y-111919099D02*
X133317901Y-112272652D01*
X133989652Y-111600901D02*
X133636099Y-111247348D01*
X133726348Y-111157099D02*
X134079901Y-111510652D01*
X134751652Y-110838901D02*
X134398099Y-110485348D01*
X136783652Y-109949901D02*
X136430099Y-109596348D01*
X135758348Y-110268099D02*
X136111901Y-110621652D01*
X137827099Y-111256652D02*
X138180652Y-110903099D01*
X137508901Y-110231348D02*
X137155348Y-110584901D01*
X136974850Y-104898744D02*
X136267744Y-105605850D01*
X135313150Y-104651256D02*
X136020256Y-103944150D01*
X122438800Y-70477000D02*
X122438800Y-69477000D01*
X123788800Y-69477000D02*
X123788800Y-70477000D01*
X122438800Y-67886200D02*
X122438800Y-66886200D01*
X123788800Y-66886200D02*
X123788800Y-67886200D01*
X125001400Y-67574800D02*
X126001400Y-67574800D01*
X126001400Y-68924800D02*
X125001400Y-68924800D01*
X125001400Y-70521200D02*
X126001400Y-70521200D01*
X126001400Y-71871200D02*
X125001400Y-71871200D01*
X124976000Y-64679200D02*
X125976000Y-64679200D01*
X125976000Y-66029200D02*
X124976000Y-66029200D01*
X119769000Y-105640000D02*
X120769000Y-105640000D01*
X120769000Y-106990000D02*
X119769000Y-106990000D01*
X133469000Y-56809000D02*
X132469000Y-56809000D01*
X132469000Y-55459000D02*
X133469000Y-55459000D01*
X124071000Y-56936000D02*
X123071000Y-56936000D01*
X123071000Y-55586000D02*
X124071000Y-55586000D01*
X124071000Y-58460000D02*
X123071000Y-58460000D01*
X123071000Y-57110000D02*
X124071000Y-57110000D01*
X124071000Y-59984000D02*
X123071000Y-59984000D01*
X123071000Y-58634000D02*
X124071000Y-58634000D01*
X141010000Y-76589000D02*
X141010000Y-77589000D01*
X139660000Y-77589000D02*
X139660000Y-76589000D01*
X141010000Y-79383000D02*
X141010000Y-80383000D01*
X139660000Y-80383000D02*
X139660000Y-79383000D01*
X127090249Y-107441070D02*
X127585223Y-106946096D01*
X128433751Y-107794624D02*
X127938777Y-108289598D01*
X120805500Y-89820000D02*
X120805500Y-90520000D01*
X119605500Y-90520000D02*
X119605500Y-89820000D01*
X137831751Y-105967777D02*
X137336777Y-106462751D01*
X136488249Y-105614223D02*
X136983223Y-105119249D01*
X133313249Y-102439223D02*
X133808223Y-101944249D01*
X134656751Y-102792777D02*
X134161777Y-103287751D01*
X134843000Y-100676000D02*
X134143000Y-100676000D01*
X134143000Y-99476000D02*
X134843000Y-99476000D01*
X124869500Y-88931000D02*
X124869500Y-89631000D01*
X123669500Y-89631000D02*
X123669500Y-88931000D01*
X128743000Y-84359000D02*
X128743000Y-85059000D01*
X127543000Y-85059000D02*
X127543000Y-84359000D01*
X124746500Y-98600000D02*
X124046500Y-98600000D01*
X124046500Y-97400000D02*
X124746500Y-97400000D01*
X138592000Y-89008000D02*
X138592000Y-88308000D01*
X139792000Y-88308000D02*
X139792000Y-89008000D01*
X123525800Y-71993200D02*
X124225800Y-71993200D01*
X124225800Y-73193200D02*
X123525800Y-73193200D01*
X123525800Y-73441000D02*
X124225800Y-73441000D01*
X124225800Y-74641000D02*
X123525800Y-74641000D01*
X125151400Y-69123000D02*
X125851400Y-69123000D01*
X125851400Y-70323000D02*
X125151400Y-70323000D01*
X125949000Y-77247000D02*
X125949000Y-77947000D01*
X124749000Y-77947000D02*
X124749000Y-77247000D01*
X125826000Y-67402000D02*
X125126000Y-67402000D01*
X125126000Y-66202000D02*
X125826000Y-66202000D01*
X125765000Y-75280000D02*
X125765000Y-74580000D01*
X126965000Y-74580000D02*
X126965000Y-75280000D01*
X126400000Y-81630000D02*
X126400000Y-80930000D01*
X127600000Y-80930000D02*
X127600000Y-81630000D01*
X139223000Y-63154000D02*
X139923000Y-63154000D01*
X139923000Y-64354000D02*
X139223000Y-64354000D01*
X137703000Y-72105000D02*
X137703000Y-71405000D01*
X138903000Y-71405000D02*
X138903000Y-72105000D01*
X137703000Y-74899000D02*
X137703000Y-74199000D01*
X138903000Y-74199000D02*
X138903000Y-74899000D01*
X137703000Y-77693000D02*
X137703000Y-76993000D01*
X138903000Y-76993000D02*
X138903000Y-77693000D01*
X139223000Y-69250000D02*
X139923000Y-69250000D01*
X139923000Y-70450000D02*
X139223000Y-70450000D01*
X138399000Y-62830000D02*
X137699000Y-62830000D01*
X137699000Y-61630000D02*
X138399000Y-61630000D01*
X120050000Y-99029000D02*
X120050000Y-98329000D01*
X121250000Y-98329000D02*
X121250000Y-99029000D01*
X121250000Y-101377000D02*
X121250000Y-102077000D01*
X120050000Y-102077000D02*
X120050000Y-101377000D01*
X123411500Y-86522000D02*
X124111500Y-86522000D01*
X124111500Y-87722000D02*
X123411500Y-87722000D01*
X135672751Y-103935777D02*
X135177777Y-104430751D01*
X134329249Y-103582223D02*
X134824223Y-103087249D01*
X136036800Y-56683200D02*
X135336800Y-56683200D01*
X135336800Y-55483200D02*
X136036800Y-55483200D01*
X119161000Y-77693000D02*
X119161000Y-76993000D01*
X120361000Y-76993000D02*
X120361000Y-77693000D01*
X124495000Y-83916000D02*
X124495000Y-83216000D01*
X125695000Y-83216000D02*
X125695000Y-83916000D01*
D14*
X163587960Y-73141840D02*
X164710640Y-73141840D01*
X172534000Y-72919000D02*
X164934000Y-72919000D01*
X172757360Y-73141840D02*
X172534000Y-72919000D01*
X164710640Y-73141840D02*
X164934000Y-72919000D01*
X172534000Y-79989000D02*
X164934000Y-79989000D01*
X172757360Y-79766160D02*
X172534000Y-79989000D01*
X164710640Y-79766160D02*
X164934000Y-79989000D01*
X167080840Y-70440040D02*
X167080840Y-69317360D01*
X166858000Y-61494000D02*
X166858000Y-69094000D01*
X167080840Y-61270640D02*
X166858000Y-61494000D01*
X167080840Y-69317360D02*
X166858000Y-69094000D01*
X173928000Y-61494000D02*
X173928000Y-69094000D01*
X173705160Y-61270640D02*
X173928000Y-61494000D01*
X173705160Y-69317360D02*
X173928000Y-69094000D01*
X141587960Y-73141840D02*
X142710640Y-73141840D01*
X150534000Y-72919000D02*
X142934000Y-72919000D01*
X150757360Y-73141840D02*
X150534000Y-72919000D01*
X142710640Y-73141840D02*
X142934000Y-72919000D01*
X150534000Y-79989000D02*
X142934000Y-79989000D01*
X150757360Y-79766160D02*
X150534000Y-79989000D01*
X142710640Y-79766160D02*
X142934000Y-79989000D01*
X141774840Y-70424040D02*
X141774840Y-69301360D01*
X141552000Y-61478000D02*
X141552000Y-69078000D01*
X141774840Y-61254640D02*
X141552000Y-61478000D01*
X141774840Y-69301360D02*
X141552000Y-69078000D01*
X148622000Y-61478000D02*
X148622000Y-69078000D01*
X148399160Y-61254640D02*
X148622000Y-61478000D01*
X148399160Y-69301360D02*
X148622000Y-69078000D01*
X152574960Y-73141840D02*
X153697640Y-73141840D01*
X161521000Y-72919000D02*
X153921000Y-72919000D01*
X161744360Y-73141840D02*
X161521000Y-72919000D01*
X153697640Y-73141840D02*
X153921000Y-72919000D01*
X161521000Y-79989000D02*
X153921000Y-79989000D01*
X161744360Y-79766160D02*
X161521000Y-79989000D01*
X153697640Y-79766160D02*
X153921000Y-79989000D01*
X154421840Y-70424040D02*
X154421840Y-69301360D01*
X154199000Y-61478000D02*
X154199000Y-69078000D01*
X154421840Y-61254640D02*
X154199000Y-61478000D01*
X154421840Y-69301360D02*
X154199000Y-69078000D01*
X161269000Y-61478000D02*
X161269000Y-69078000D01*
X161046160Y-61254640D02*
X161269000Y-61478000D01*
X161046160Y-69301360D02*
X161269000Y-69078000D01*
D15*
X154434000Y-84000000D02*
X161034000Y-84000000D01*
X161034000Y-84000000D02*
X161034000Y-89600000D01*
X161034000Y-89600000D02*
X154434000Y-89600000D01*
X154434000Y-89600000D02*
X154434000Y-84000000D01*
X124495000Y-81249000D02*
X124495000Y-80549000D01*
X125695000Y-80549000D02*
X125695000Y-81249000D01*
X121443000Y-77505000D02*
X122143000Y-77505000D01*
X122143000Y-78705000D02*
X121443000Y-78705000D01*
D12*
X120402047Y-64237809D02*
X120402047Y-63729809D01*
X120523000Y-63729809D01*
X120595571Y-63754000D01*
X120643952Y-63802380D01*
X120668142Y-63850761D01*
X120692333Y-63947523D01*
X120692333Y-64020095D01*
X120668142Y-64116857D01*
X120643952Y-64165238D01*
X120595571Y-64213619D01*
X120523000Y-64237809D01*
X120402047Y-64237809D01*
X121127761Y-63899142D02*
X121127761Y-64237809D01*
X121006809Y-63705619D02*
X120885857Y-64068476D01*
X121200333Y-64068476D01*
X121596809Y-81908952D02*
X122008047Y-81908952D01*
X122056428Y-81884761D01*
X122080619Y-81860571D01*
X122104809Y-81812190D01*
X122104809Y-81715428D01*
X122080619Y-81667047D01*
X122056428Y-81642857D01*
X122008047Y-81618666D01*
X121596809Y-81618666D01*
X122104809Y-81110666D02*
X122104809Y-81400952D01*
X122104809Y-81255809D02*
X121596809Y-81255809D01*
X121669380Y-81304190D01*
X121717761Y-81352571D01*
X121741952Y-81400952D01*
X121596809Y-80796190D02*
X121596809Y-80747809D01*
X121621000Y-80699428D01*
X121645190Y-80675238D01*
X121693571Y-80651047D01*
X121790333Y-80626857D01*
X121911285Y-80626857D01*
X122008047Y-80651047D01*
X122056428Y-80675238D01*
X122080619Y-80699428D01*
X122104809Y-80747809D01*
X122104809Y-80796190D01*
X122080619Y-80844571D01*
X122056428Y-80868761D01*
X122008047Y-80892952D01*
X121911285Y-80917142D01*
X121790333Y-80917142D01*
X121693571Y-80892952D01*
X121645190Y-80868761D01*
X121621000Y-80844571D01*
X121596809Y-80796190D01*
X120323428Y-85969928D02*
X120299238Y-85994119D01*
X120226666Y-86018309D01*
X120178285Y-86018309D01*
X120105714Y-85994119D01*
X120057333Y-85945738D01*
X120033142Y-85897357D01*
X120008952Y-85800595D01*
X120008952Y-85728023D01*
X120033142Y-85631261D01*
X120057333Y-85582880D01*
X120105714Y-85534500D01*
X120178285Y-85510309D01*
X120226666Y-85510309D01*
X120299238Y-85534500D01*
X120323428Y-85558690D01*
X120758857Y-85510309D02*
X120662095Y-85510309D01*
X120613714Y-85534500D01*
X120589523Y-85558690D01*
X120541142Y-85631261D01*
X120516952Y-85728023D01*
X120516952Y-85921547D01*
X120541142Y-85969928D01*
X120565333Y-85994119D01*
X120613714Y-86018309D01*
X120710476Y-86018309D01*
X120758857Y-85994119D01*
X120783047Y-85969928D01*
X120807238Y-85921547D01*
X120807238Y-85800595D01*
X120783047Y-85752214D01*
X120758857Y-85728023D01*
X120710476Y-85703833D01*
X120613714Y-85703833D01*
X120565333Y-85728023D01*
X120541142Y-85752214D01*
X120516952Y-85800595D01*
X121000761Y-85558690D02*
X121024952Y-85534500D01*
X121073333Y-85510309D01*
X121194285Y-85510309D01*
X121242666Y-85534500D01*
X121266857Y-85558690D01*
X121291047Y-85607071D01*
X121291047Y-85655452D01*
X121266857Y-85728023D01*
X120976571Y-86018309D01*
X121291047Y-86018309D01*
X131364333Y-62829809D02*
X131122428Y-62829809D01*
X131122428Y-62321809D01*
X131509476Y-62370190D02*
X131533666Y-62346000D01*
X131582047Y-62321809D01*
X131703000Y-62321809D01*
X131751380Y-62346000D01*
X131775571Y-62370190D01*
X131799761Y-62418571D01*
X131799761Y-62466952D01*
X131775571Y-62539523D01*
X131485285Y-62829809D01*
X131799761Y-62829809D01*
X132073952Y-79223809D02*
X132073952Y-79635047D01*
X132098142Y-79683428D01*
X132122333Y-79707619D01*
X132170714Y-79731809D01*
X132267476Y-79731809D01*
X132315857Y-79707619D01*
X132340047Y-79683428D01*
X132364238Y-79635047D01*
X132364238Y-79223809D01*
X132557761Y-79223809D02*
X132872238Y-79223809D01*
X132702904Y-79417333D01*
X132775476Y-79417333D01*
X132823857Y-79441523D01*
X132848047Y-79465714D01*
X132872238Y-79514095D01*
X132872238Y-79635047D01*
X132848047Y-79683428D01*
X132823857Y-79707619D01*
X132775476Y-79731809D01*
X132630333Y-79731809D01*
X132581952Y-79707619D01*
X132557761Y-79683428D01*
X131547809Y-93097047D02*
X131959047Y-93097047D01*
X132007428Y-93072857D01*
X132031619Y-93048666D01*
X132055809Y-93000285D01*
X132055809Y-92903523D01*
X132031619Y-92855142D01*
X132007428Y-92830952D01*
X131959047Y-92806761D01*
X131547809Y-92806761D01*
X132055809Y-92298761D02*
X132055809Y-92589047D01*
X132055809Y-92443904D02*
X131547809Y-92443904D01*
X131620380Y-92492285D01*
X131668761Y-92540666D01*
X131692952Y-92589047D01*
X117118368Y-58466631D02*
X116759158Y-58107420D01*
X116844684Y-58021894D01*
X116913105Y-57987684D01*
X116981526Y-57987684D01*
X117032842Y-58004789D01*
X117118368Y-58056105D01*
X117169684Y-58107420D01*
X117221000Y-58192947D01*
X117238105Y-58244262D01*
X117238105Y-58312683D01*
X117203894Y-58381104D01*
X117118368Y-58466631D01*
X117289420Y-57577158D02*
X117118368Y-57748210D01*
X117272315Y-57936368D01*
X117272315Y-57902158D01*
X117289420Y-57850842D01*
X117374947Y-57765316D01*
X117426262Y-57748210D01*
X117460473Y-57748210D01*
X117511789Y-57765316D01*
X117597315Y-57850842D01*
X117614420Y-57902158D01*
X117614420Y-57936368D01*
X117597315Y-57987684D01*
X117511789Y-58073210D01*
X117460473Y-58090315D01*
X117426262Y-58090315D01*
X129056605Y-103887973D02*
X129347394Y-104178762D01*
X129398710Y-104195868D01*
X129432921Y-104195868D01*
X129484236Y-104178762D01*
X129552657Y-104110341D01*
X129569763Y-104059026D01*
X129569763Y-104024815D01*
X129552657Y-103973499D01*
X129261868Y-103682710D01*
X129638184Y-103614289D02*
X129586868Y-103631394D01*
X129552657Y-103631394D01*
X129501342Y-103614289D01*
X129484236Y-103597184D01*
X129467131Y-103545868D01*
X129467131Y-103511658D01*
X129484236Y-103460342D01*
X129552657Y-103391921D01*
X129603973Y-103374816D01*
X129638184Y-103374816D01*
X129689499Y-103391921D01*
X129706605Y-103409026D01*
X129723710Y-103460342D01*
X129723710Y-103494552D01*
X129706605Y-103545868D01*
X129638184Y-103614289D01*
X129621078Y-103665605D01*
X129621078Y-103699815D01*
X129638184Y-103751131D01*
X129706605Y-103819552D01*
X129757920Y-103836657D01*
X129792131Y-103836657D01*
X129843447Y-103819552D01*
X129911868Y-103751131D01*
X129928973Y-103699815D01*
X129928973Y-103665605D01*
X129911868Y-103614289D01*
X129843447Y-103545868D01*
X129792131Y-103528763D01*
X129757920Y-103528763D01*
X129706605Y-103545868D01*
X125197809Y-102107547D02*
X125609047Y-102107547D01*
X125657428Y-102083357D01*
X125681619Y-102059166D01*
X125705809Y-102010785D01*
X125705809Y-101914023D01*
X125681619Y-101865642D01*
X125657428Y-101841452D01*
X125609047Y-101817261D01*
X125197809Y-101817261D01*
X125367142Y-101357642D02*
X125705809Y-101357642D01*
X125173619Y-101478595D02*
X125536476Y-101599547D01*
X125536476Y-101285071D01*
X138103428Y-58855428D02*
X138079238Y-58879619D01*
X138006666Y-58903809D01*
X137958285Y-58903809D01*
X137885714Y-58879619D01*
X137837333Y-58831238D01*
X137813142Y-58782857D01*
X137788952Y-58686095D01*
X137788952Y-58613523D01*
X137813142Y-58516761D01*
X137837333Y-58468380D01*
X137885714Y-58420000D01*
X137958285Y-58395809D01*
X138006666Y-58395809D01*
X138079238Y-58420000D01*
X138103428Y-58444190D01*
X138272761Y-58395809D02*
X138587238Y-58395809D01*
X138417904Y-58589333D01*
X138490476Y-58589333D01*
X138538857Y-58613523D01*
X138563047Y-58637714D01*
X138587238Y-58686095D01*
X138587238Y-58807047D01*
X138563047Y-58855428D01*
X138538857Y-58879619D01*
X138490476Y-58903809D01*
X138345333Y-58903809D01*
X138296952Y-58879619D01*
X138272761Y-58855428D01*
X138780761Y-58444190D02*
X138804952Y-58420000D01*
X138853333Y-58395809D01*
X138974285Y-58395809D01*
X139022666Y-58420000D01*
X139046857Y-58444190D01*
X139071047Y-58492571D01*
X139071047Y-58540952D01*
X139046857Y-58613523D01*
X138756571Y-58903809D01*
X139071047Y-58903809D01*
X132007428Y-83747428D02*
X131983238Y-83771619D01*
X131910666Y-83795809D01*
X131862285Y-83795809D01*
X131789714Y-83771619D01*
X131741333Y-83723238D01*
X131717142Y-83674857D01*
X131692952Y-83578095D01*
X131692952Y-83505523D01*
X131717142Y-83408761D01*
X131741333Y-83360380D01*
X131789714Y-83312000D01*
X131862285Y-83287809D01*
X131910666Y-83287809D01*
X131983238Y-83312000D01*
X132007428Y-83336190D01*
X132200952Y-83336190D02*
X132225142Y-83312000D01*
X132273523Y-83287809D01*
X132394476Y-83287809D01*
X132442857Y-83312000D01*
X132467047Y-83336190D01*
X132491238Y-83384571D01*
X132491238Y-83432952D01*
X132467047Y-83505523D01*
X132176761Y-83795809D01*
X132491238Y-83795809D01*
X132926666Y-83287809D02*
X132829904Y-83287809D01*
X132781523Y-83312000D01*
X132757333Y-83336190D01*
X132708952Y-83408761D01*
X132684761Y-83505523D01*
X132684761Y-83699047D01*
X132708952Y-83747428D01*
X132733142Y-83771619D01*
X132781523Y-83795809D01*
X132878285Y-83795809D01*
X132926666Y-83771619D01*
X132950857Y-83747428D01*
X132975047Y-83699047D01*
X132975047Y-83578095D01*
X132950857Y-83529714D01*
X132926666Y-83505523D01*
X132878285Y-83481333D01*
X132781523Y-83481333D01*
X132733142Y-83505523D01*
X132708952Y-83529714D01*
X132684761Y-83578095D01*
X139373428Y-67001571D02*
X139397619Y-67025761D01*
X139421809Y-67098333D01*
X139421809Y-67146714D01*
X139397619Y-67219285D01*
X139349238Y-67267666D01*
X139300857Y-67291857D01*
X139204095Y-67316047D01*
X139131523Y-67316047D01*
X139034761Y-67291857D01*
X138986380Y-67267666D01*
X138938000Y-67219285D01*
X138913809Y-67146714D01*
X138913809Y-67098333D01*
X138938000Y-67025761D01*
X138962190Y-67001571D01*
X138962190Y-66808047D02*
X138938000Y-66783857D01*
X138913809Y-66735476D01*
X138913809Y-66614523D01*
X138938000Y-66566142D01*
X138962190Y-66541952D01*
X139010571Y-66517761D01*
X139058952Y-66517761D01*
X139131523Y-66541952D01*
X139421809Y-66832238D01*
X139421809Y-66517761D01*
X138913809Y-66348428D02*
X138913809Y-66009761D01*
X139421809Y-66227476D01*
X135413631Y-108052631D02*
X135242579Y-107881579D01*
X135601789Y-107522368D01*
X135926789Y-108086841D02*
X135687315Y-108326315D01*
X135978104Y-107864473D02*
X135636000Y-108035526D01*
X135858368Y-108257894D01*
X132563632Y-110737768D02*
X132392580Y-110908820D01*
X132033369Y-110549610D01*
X132495211Y-110087768D02*
X132324159Y-110258821D01*
X132478106Y-110446979D01*
X132478106Y-110412768D01*
X132495211Y-110361452D01*
X132580737Y-110275926D01*
X132632053Y-110258821D01*
X132666263Y-110258821D01*
X132717579Y-110275926D01*
X132803105Y-110361452D01*
X132820211Y-110412768D01*
X132820211Y-110446979D01*
X132803105Y-110498294D01*
X132717579Y-110583820D01*
X132666263Y-110600926D01*
X132632053Y-110600926D01*
X134595631Y-107283368D02*
X134424579Y-107454420D01*
X134065368Y-107095210D01*
X134321947Y-106838631D02*
X134544315Y-106616263D01*
X134561420Y-106872842D01*
X134612736Y-106821526D01*
X134664052Y-106804421D01*
X134698262Y-106804421D01*
X134749578Y-106821526D01*
X134835104Y-106907052D01*
X134852210Y-106958368D01*
X134852210Y-106992579D01*
X134835104Y-107043894D01*
X134732473Y-107146526D01*
X134681157Y-107163631D01*
X134646947Y-107163631D01*
X131847788Y-111784368D02*
X131813578Y-111784368D01*
X131745157Y-111750158D01*
X131710946Y-111715947D01*
X131676736Y-111647526D01*
X131676736Y-111579105D01*
X131693841Y-111527789D01*
X131745157Y-111442263D01*
X131796473Y-111390947D01*
X131881999Y-111339632D01*
X131933315Y-111322526D01*
X132001736Y-111322526D01*
X132070157Y-111356737D01*
X132104367Y-111390947D01*
X132138578Y-111459368D01*
X132138578Y-111493579D01*
X132497788Y-111784368D02*
X132326735Y-111613316D01*
X132138578Y-111767263D01*
X132172788Y-111767263D01*
X132224104Y-111784368D01*
X132309630Y-111869894D01*
X132326735Y-111921210D01*
X132326735Y-111955420D01*
X132309630Y-112006736D01*
X132224104Y-112092262D01*
X132172788Y-112109368D01*
X132138578Y-112109368D01*
X132087262Y-112092262D01*
X132001736Y-112006736D01*
X131984630Y-111955420D01*
X131984630Y-111921210D01*
X132839893Y-112126473D02*
X132668840Y-111955420D01*
X132480682Y-112109368D01*
X132514893Y-112109368D01*
X132566209Y-112126473D01*
X132651735Y-112211999D01*
X132668840Y-112263315D01*
X132668840Y-112297525D01*
X132651735Y-112348841D01*
X132566209Y-112434367D01*
X132514893Y-112451473D01*
X132480682Y-112451473D01*
X132429367Y-112434367D01*
X132343840Y-112348841D01*
X132326735Y-112297525D01*
X132326735Y-112263315D01*
X135149789Y-111911368D02*
X135115579Y-111911368D01*
X135047158Y-111877158D01*
X135012947Y-111842947D01*
X134978737Y-111774526D01*
X134978737Y-111706105D01*
X134995842Y-111654789D01*
X135047158Y-111569263D01*
X135098474Y-111517947D01*
X135184000Y-111466632D01*
X135235316Y-111449526D01*
X135303737Y-111449526D01*
X135372158Y-111483737D01*
X135406368Y-111517947D01*
X135440579Y-111586368D01*
X135440579Y-111620579D01*
X135799789Y-111911368D02*
X135628736Y-111740316D01*
X135440579Y-111894263D01*
X135474789Y-111894263D01*
X135526105Y-111911368D01*
X135611631Y-111996894D01*
X135628736Y-112048210D01*
X135628736Y-112082420D01*
X135611631Y-112133736D01*
X135526105Y-112219262D01*
X135474789Y-112236368D01*
X135440579Y-112236368D01*
X135389263Y-112219262D01*
X135303737Y-112133736D01*
X135286631Y-112082420D01*
X135286631Y-112048210D01*
X136005052Y-112356104D02*
X135765578Y-112595578D01*
X136056367Y-112133736D02*
X135714262Y-112304789D01*
X135936631Y-112527157D01*
X136546789Y-109371368D02*
X136512579Y-109371368D01*
X136444158Y-109337158D01*
X136409947Y-109302947D01*
X136375737Y-109234526D01*
X136375737Y-109166105D01*
X136392842Y-109114789D01*
X136444158Y-109029263D01*
X136495474Y-108977947D01*
X136581000Y-108926632D01*
X136632316Y-108909526D01*
X136700737Y-108909526D01*
X136769158Y-108943737D01*
X136803368Y-108977947D01*
X136837579Y-109046368D01*
X136837579Y-109080579D01*
X137196789Y-109371368D02*
X137025736Y-109200316D01*
X136837579Y-109354263D01*
X136871789Y-109354263D01*
X136923105Y-109371368D01*
X137008631Y-109456894D01*
X137025736Y-109508210D01*
X137025736Y-109542420D01*
X137008631Y-109593736D01*
X136923105Y-109679262D01*
X136871789Y-109696368D01*
X136837579Y-109696368D01*
X136786263Y-109679262D01*
X136700737Y-109593736D01*
X136683631Y-109542420D01*
X136683631Y-109508210D01*
X137521788Y-109696368D02*
X137453367Y-109627947D01*
X137402052Y-109610841D01*
X137367841Y-109610841D01*
X137282315Y-109627947D01*
X137196789Y-109679262D01*
X137059947Y-109816104D01*
X137042841Y-109867420D01*
X137042841Y-109901631D01*
X137059947Y-109952946D01*
X137128368Y-110021367D01*
X137179683Y-110038473D01*
X137213894Y-110038473D01*
X137265210Y-110021367D01*
X137350736Y-109935841D01*
X137367841Y-109884525D01*
X137367841Y-109850315D01*
X137350736Y-109798999D01*
X137282315Y-109730578D01*
X137230999Y-109713473D01*
X137196789Y-109713473D01*
X137145473Y-109730578D01*
X138581368Y-111484210D02*
X138581368Y-111518420D01*
X138547158Y-111586841D01*
X138512947Y-111621052D01*
X138444526Y-111655262D01*
X138376105Y-111655262D01*
X138324789Y-111638157D01*
X138239263Y-111586841D01*
X138187947Y-111535525D01*
X138136632Y-111449999D01*
X138119526Y-111398683D01*
X138119526Y-111330262D01*
X138153737Y-111261841D01*
X138187947Y-111227631D01*
X138256368Y-111193420D01*
X138290579Y-111193420D01*
X138581368Y-110834210D02*
X138410316Y-111005263D01*
X138564263Y-111193420D01*
X138564263Y-111159210D01*
X138581368Y-111107894D01*
X138666894Y-111022368D01*
X138718210Y-111005263D01*
X138752420Y-111005263D01*
X138803736Y-111022368D01*
X138889262Y-111107894D01*
X138906368Y-111159210D01*
X138906368Y-111193420D01*
X138889262Y-111244736D01*
X138803736Y-111330262D01*
X138752420Y-111347368D01*
X138718210Y-111347368D01*
X138718210Y-110697368D02*
X138957683Y-110457895D01*
X139162946Y-110971052D01*
X137599579Y-103644420D02*
X137308789Y-103593104D01*
X137394316Y-103849683D02*
X137035105Y-103490473D01*
X137171947Y-103353631D01*
X137223263Y-103336526D01*
X137257474Y-103336526D01*
X137308789Y-103353631D01*
X137360105Y-103404947D01*
X137377210Y-103456262D01*
X137377210Y-103490473D01*
X137360105Y-103541789D01*
X137223263Y-103678631D01*
X137360105Y-103165473D02*
X137582473Y-102943105D01*
X137599579Y-103199684D01*
X137650894Y-103148368D01*
X137702210Y-103131263D01*
X137736420Y-103131263D01*
X137787736Y-103148368D01*
X137873262Y-103233894D01*
X137890368Y-103285210D01*
X137890368Y-103319420D01*
X137873262Y-103370736D01*
X137770631Y-103473368D01*
X137719315Y-103490473D01*
X137685105Y-103490473D01*
X137941683Y-102891789D02*
X137890368Y-102908895D01*
X137856157Y-102908895D01*
X137804841Y-102891789D01*
X137787736Y-102874684D01*
X137770631Y-102823368D01*
X137770631Y-102789158D01*
X137787736Y-102737842D01*
X137856157Y-102669421D01*
X137907473Y-102652316D01*
X137941683Y-102652316D01*
X137992999Y-102669421D01*
X138010104Y-102686526D01*
X138027210Y-102737842D01*
X138027210Y-102772053D01*
X138010104Y-102823368D01*
X137941683Y-102891789D01*
X137924578Y-102943105D01*
X137924578Y-102977316D01*
X137941683Y-103028631D01*
X138010104Y-103097052D01*
X138061420Y-103114158D01*
X138095631Y-103114158D01*
X138146946Y-103097052D01*
X138215367Y-103028631D01*
X138232473Y-102977316D01*
X138232473Y-102943105D01*
X138215367Y-102891789D01*
X138146946Y-102823368D01*
X138095631Y-102806263D01*
X138061420Y-102806263D01*
X138010104Y-102823368D01*
X122149809Y-70303571D02*
X121907904Y-70472904D01*
X122149809Y-70593857D02*
X121641809Y-70593857D01*
X121641809Y-70400333D01*
X121666000Y-70351952D01*
X121690190Y-70327761D01*
X121738571Y-70303571D01*
X121811142Y-70303571D01*
X121859523Y-70327761D01*
X121883714Y-70351952D01*
X121907904Y-70400333D01*
X121907904Y-70593857D01*
X122149809Y-69819761D02*
X122149809Y-70110047D01*
X122149809Y-69964904D02*
X121641809Y-69964904D01*
X121714380Y-70013285D01*
X121762761Y-70061666D01*
X121786952Y-70110047D01*
X121641809Y-69505285D02*
X121641809Y-69456904D01*
X121666000Y-69408523D01*
X121690190Y-69384333D01*
X121738571Y-69360142D01*
X121835333Y-69335952D01*
X121956285Y-69335952D01*
X122053047Y-69360142D01*
X122101428Y-69384333D01*
X122125619Y-69408523D01*
X122149809Y-69456904D01*
X122149809Y-69505285D01*
X122125619Y-69553666D01*
X122101428Y-69577857D01*
X122053047Y-69602047D01*
X121956285Y-69626238D01*
X121835333Y-69626238D01*
X121738571Y-69602047D01*
X121690190Y-69577857D01*
X121666000Y-69553666D01*
X121641809Y-69505285D01*
X122149809Y-67763571D02*
X121907904Y-67932904D01*
X122149809Y-68053857D02*
X121641809Y-68053857D01*
X121641809Y-67860333D01*
X121666000Y-67811952D01*
X121690190Y-67787761D01*
X121738571Y-67763571D01*
X121811142Y-67763571D01*
X121859523Y-67787761D01*
X121883714Y-67811952D01*
X121907904Y-67860333D01*
X121907904Y-68053857D01*
X122149809Y-67279761D02*
X122149809Y-67570047D01*
X122149809Y-67424904D02*
X121641809Y-67424904D01*
X121714380Y-67473285D01*
X121762761Y-67521666D01*
X121786952Y-67570047D01*
X122149809Y-66795952D02*
X122149809Y-67086238D01*
X122149809Y-66941095D02*
X121641809Y-66941095D01*
X121714380Y-66989476D01*
X121762761Y-67037857D01*
X121786952Y-67086238D01*
X119942428Y-68530409D02*
X119773095Y-68288504D01*
X119652142Y-68530409D02*
X119652142Y-68022409D01*
X119845666Y-68022409D01*
X119894047Y-68046600D01*
X119918238Y-68070790D01*
X119942428Y-68119171D01*
X119942428Y-68191742D01*
X119918238Y-68240123D01*
X119894047Y-68264314D01*
X119845666Y-68288504D01*
X119652142Y-68288504D01*
X120426238Y-68530409D02*
X120135952Y-68530409D01*
X120281095Y-68530409D02*
X120281095Y-68022409D01*
X120232714Y-68094980D01*
X120184333Y-68143361D01*
X120135952Y-68167552D01*
X120619761Y-68070790D02*
X120643952Y-68046600D01*
X120692333Y-68022409D01*
X120813285Y-68022409D01*
X120861666Y-68046600D01*
X120885857Y-68070790D01*
X120910047Y-68119171D01*
X120910047Y-68167552D01*
X120885857Y-68240123D01*
X120595571Y-68530409D01*
X120910047Y-68530409D01*
X119942428Y-71476809D02*
X119773095Y-71234904D01*
X119652142Y-71476809D02*
X119652142Y-70968809D01*
X119845666Y-70968809D01*
X119894047Y-70993000D01*
X119918238Y-71017190D01*
X119942428Y-71065571D01*
X119942428Y-71138142D01*
X119918238Y-71186523D01*
X119894047Y-71210714D01*
X119845666Y-71234904D01*
X119652142Y-71234904D01*
X120426238Y-71476809D02*
X120135952Y-71476809D01*
X120281095Y-71476809D02*
X120281095Y-70968809D01*
X120232714Y-71041380D01*
X120184333Y-71089761D01*
X120135952Y-71113952D01*
X120595571Y-70968809D02*
X120910047Y-70968809D01*
X120740714Y-71162333D01*
X120813285Y-71162333D01*
X120861666Y-71186523D01*
X120885857Y-71210714D01*
X120910047Y-71259095D01*
X120910047Y-71380047D01*
X120885857Y-71428428D01*
X120861666Y-71452619D01*
X120813285Y-71476809D01*
X120668142Y-71476809D01*
X120619761Y-71452619D01*
X120595571Y-71428428D01*
X123193628Y-65634809D02*
X123024295Y-65392904D01*
X122903342Y-65634809D02*
X122903342Y-65126809D01*
X123096866Y-65126809D01*
X123145247Y-65151000D01*
X123169438Y-65175190D01*
X123193628Y-65223571D01*
X123193628Y-65296142D01*
X123169438Y-65344523D01*
X123145247Y-65368714D01*
X123096866Y-65392904D01*
X122903342Y-65392904D01*
X123677438Y-65634809D02*
X123387152Y-65634809D01*
X123532295Y-65634809D02*
X123532295Y-65126809D01*
X123483914Y-65199380D01*
X123435533Y-65247761D01*
X123387152Y-65271952D01*
X124112866Y-65296142D02*
X124112866Y-65634809D01*
X123991914Y-65102619D02*
X123870961Y-65465476D01*
X124185438Y-65465476D01*
X117910428Y-106528809D02*
X117741095Y-106286904D01*
X117620142Y-106528809D02*
X117620142Y-106020809D01*
X117813666Y-106020809D01*
X117862047Y-106045000D01*
X117886238Y-106069190D01*
X117910428Y-106117571D01*
X117910428Y-106190142D01*
X117886238Y-106238523D01*
X117862047Y-106262714D01*
X117813666Y-106286904D01*
X117620142Y-106286904D01*
X118103952Y-106069190D02*
X118128142Y-106045000D01*
X118176523Y-106020809D01*
X118297476Y-106020809D01*
X118345857Y-106045000D01*
X118370047Y-106069190D01*
X118394238Y-106117571D01*
X118394238Y-106165952D01*
X118370047Y-106238523D01*
X118079761Y-106528809D01*
X118394238Y-106528809D01*
X118563571Y-106020809D02*
X118878047Y-106020809D01*
X118708714Y-106214333D01*
X118781285Y-106214333D01*
X118829666Y-106238523D01*
X118853857Y-106262714D01*
X118878047Y-106311095D01*
X118878047Y-106432047D01*
X118853857Y-106480428D01*
X118829666Y-106504619D01*
X118781285Y-106528809D01*
X118636142Y-106528809D01*
X118587761Y-106504619D01*
X118563571Y-106480428D01*
X130686628Y-56414609D02*
X130517295Y-56172704D01*
X130396342Y-56414609D02*
X130396342Y-55906609D01*
X130589866Y-55906609D01*
X130638247Y-55930800D01*
X130662438Y-55954990D01*
X130686628Y-56003371D01*
X130686628Y-56075942D01*
X130662438Y-56124323D01*
X130638247Y-56148514D01*
X130589866Y-56172704D01*
X130396342Y-56172704D01*
X130855961Y-55906609D02*
X131170438Y-55906609D01*
X131001104Y-56100133D01*
X131073676Y-56100133D01*
X131122057Y-56124323D01*
X131146247Y-56148514D01*
X131170438Y-56196895D01*
X131170438Y-56317847D01*
X131146247Y-56366228D01*
X131122057Y-56390419D01*
X131073676Y-56414609D01*
X130928533Y-56414609D01*
X130880152Y-56390419D01*
X130855961Y-56366228D01*
X131412342Y-56414609D02*
X131509104Y-56414609D01*
X131557485Y-56390419D01*
X131581676Y-56366228D01*
X131630057Y-56293657D01*
X131654247Y-56196895D01*
X131654247Y-56003371D01*
X131630057Y-55954990D01*
X131605866Y-55930800D01*
X131557485Y-55906609D01*
X131460723Y-55906609D01*
X131412342Y-55930800D01*
X131388152Y-55954990D01*
X131363961Y-56003371D01*
X131363961Y-56124323D01*
X131388152Y-56172704D01*
X131412342Y-56196895D01*
X131460723Y-56221085D01*
X131557485Y-56221085D01*
X131605866Y-56196895D01*
X131630057Y-56172704D01*
X131654247Y-56124323D01*
X122272509Y-56669871D02*
X122030604Y-56839204D01*
X122272509Y-56960157D02*
X121764509Y-56960157D01*
X121764509Y-56766633D01*
X121788700Y-56718252D01*
X121812890Y-56694061D01*
X121861271Y-56669871D01*
X121933842Y-56669871D01*
X121982223Y-56694061D01*
X122006414Y-56718252D01*
X122030604Y-56766633D01*
X122030604Y-56960157D01*
X121933842Y-56234442D02*
X122272509Y-56234442D01*
X121740319Y-56355395D02*
X122103176Y-56476347D01*
X122103176Y-56161871D01*
X121812890Y-55992538D02*
X121788700Y-55968347D01*
X121764509Y-55919966D01*
X121764509Y-55799014D01*
X121788700Y-55750633D01*
X121812890Y-55726442D01*
X121861271Y-55702252D01*
X121909652Y-55702252D01*
X121982223Y-55726442D01*
X122272509Y-56016728D01*
X122272509Y-55702252D01*
X122272509Y-58066871D02*
X122030604Y-58236204D01*
X122272509Y-58357157D02*
X121764509Y-58357157D01*
X121764509Y-58163633D01*
X121788700Y-58115252D01*
X121812890Y-58091061D01*
X121861271Y-58066871D01*
X121933842Y-58066871D01*
X121982223Y-58091061D01*
X122006414Y-58115252D01*
X122030604Y-58163633D01*
X122030604Y-58357157D01*
X121933842Y-57631442D02*
X122272509Y-57631442D01*
X121740319Y-57752395D02*
X122103176Y-57873347D01*
X122103176Y-57558871D01*
X121764509Y-57413728D02*
X121764509Y-57099252D01*
X121958033Y-57268585D01*
X121958033Y-57196014D01*
X121982223Y-57147633D01*
X122006414Y-57123442D01*
X122054795Y-57099252D01*
X122175747Y-57099252D01*
X122224128Y-57123442D01*
X122248319Y-57147633D01*
X122272509Y-57196014D01*
X122272509Y-57341157D01*
X122248319Y-57389538D01*
X122224128Y-57413728D01*
X125324809Y-59635571D02*
X125082904Y-59804904D01*
X125324809Y-59925857D02*
X124816809Y-59925857D01*
X124816809Y-59732333D01*
X124841000Y-59683952D01*
X124865190Y-59659761D01*
X124913571Y-59635571D01*
X124986142Y-59635571D01*
X125034523Y-59659761D01*
X125058714Y-59683952D01*
X125082904Y-59732333D01*
X125082904Y-59925857D01*
X124986142Y-59200142D02*
X125324809Y-59200142D01*
X124792619Y-59321095D02*
X125155476Y-59442047D01*
X125155476Y-59127571D01*
X124986142Y-58716333D02*
X125324809Y-58716333D01*
X124792619Y-58837285D02*
X125155476Y-58958238D01*
X125155476Y-58643761D01*
X140945809Y-75510571D02*
X140703904Y-75679904D01*
X140945809Y-75800857D02*
X140437809Y-75800857D01*
X140437809Y-75607333D01*
X140462000Y-75558952D01*
X140486190Y-75534761D01*
X140534571Y-75510571D01*
X140607142Y-75510571D01*
X140655523Y-75534761D01*
X140679714Y-75558952D01*
X140703904Y-75607333D01*
X140703904Y-75800857D01*
X140486190Y-75317047D02*
X140462000Y-75292857D01*
X140437809Y-75244476D01*
X140437809Y-75123523D01*
X140462000Y-75075142D01*
X140486190Y-75050952D01*
X140534571Y-75026761D01*
X140582952Y-75026761D01*
X140655523Y-75050952D01*
X140945809Y-75341238D01*
X140945809Y-75026761D01*
X140437809Y-74857428D02*
X140437809Y-74518761D01*
X140945809Y-74736476D01*
X140564809Y-82114571D02*
X140322904Y-82283904D01*
X140564809Y-82404857D02*
X140056809Y-82404857D01*
X140056809Y-82211333D01*
X140081000Y-82162952D01*
X140105190Y-82138761D01*
X140153571Y-82114571D01*
X140226142Y-82114571D01*
X140274523Y-82138761D01*
X140298714Y-82162952D01*
X140322904Y-82211333D01*
X140322904Y-82404857D01*
X140105190Y-81921047D02*
X140081000Y-81896857D01*
X140056809Y-81848476D01*
X140056809Y-81727523D01*
X140081000Y-81679142D01*
X140105190Y-81654952D01*
X140153571Y-81630761D01*
X140201952Y-81630761D01*
X140274523Y-81654952D01*
X140564809Y-81945238D01*
X140564809Y-81630761D01*
X140274523Y-81340476D02*
X140250333Y-81388857D01*
X140226142Y-81413047D01*
X140177761Y-81437238D01*
X140153571Y-81437238D01*
X140105190Y-81413047D01*
X140081000Y-81388857D01*
X140056809Y-81340476D01*
X140056809Y-81243714D01*
X140081000Y-81195333D01*
X140105190Y-81171142D01*
X140153571Y-81146952D01*
X140177761Y-81146952D01*
X140226142Y-81171142D01*
X140250333Y-81195333D01*
X140274523Y-81243714D01*
X140274523Y-81340476D01*
X140298714Y-81388857D01*
X140322904Y-81413047D01*
X140371285Y-81437238D01*
X140468047Y-81437238D01*
X140516428Y-81413047D01*
X140540619Y-81388857D01*
X140564809Y-81340476D01*
X140564809Y-81243714D01*
X140540619Y-81195333D01*
X140516428Y-81171142D01*
X140468047Y-81146952D01*
X140371285Y-81146952D01*
X140322904Y-81171142D01*
X140298714Y-81195333D01*
X140274523Y-81243714D01*
X126135368Y-109628057D02*
X126135368Y-109662267D01*
X126101158Y-109730688D01*
X126066947Y-109764899D01*
X125998526Y-109799109D01*
X125930105Y-109799109D01*
X125878789Y-109782004D01*
X125793263Y-109730688D01*
X125741947Y-109679372D01*
X125690632Y-109593846D01*
X125673526Y-109542530D01*
X125673526Y-109474109D01*
X125707737Y-109405688D01*
X125741947Y-109371478D01*
X125810368Y-109337267D01*
X125844579Y-109337267D01*
X126238000Y-109114899D02*
X126477473Y-109354373D01*
X126015631Y-109063584D02*
X126186684Y-109405688D01*
X126409052Y-109183320D01*
X126511683Y-108909636D02*
X126460368Y-108926742D01*
X126426157Y-108926742D01*
X126374841Y-108909636D01*
X126357736Y-108892531D01*
X126340631Y-108841215D01*
X126340631Y-108807005D01*
X126357736Y-108755689D01*
X126426157Y-108687268D01*
X126477473Y-108670163D01*
X126511683Y-108670163D01*
X126562999Y-108687268D01*
X126580104Y-108704373D01*
X126597210Y-108755689D01*
X126597210Y-108789900D01*
X126580104Y-108841215D01*
X126511683Y-108909636D01*
X126494578Y-108960952D01*
X126494578Y-108995163D01*
X126511683Y-109046478D01*
X126580104Y-109114899D01*
X126631420Y-109132005D01*
X126665631Y-109132005D01*
X126716946Y-109114899D01*
X126785367Y-109046478D01*
X126802473Y-108995163D01*
X126802473Y-108960952D01*
X126785367Y-108909636D01*
X126716946Y-108841215D01*
X126665631Y-108824110D01*
X126631420Y-108824110D01*
X126580104Y-108841215D01*
X120386928Y-92032666D02*
X120411119Y-92056857D01*
X120435309Y-92129428D01*
X120435309Y-92177809D01*
X120411119Y-92250380D01*
X120362738Y-92298761D01*
X120314357Y-92322952D01*
X120217595Y-92347142D01*
X120145023Y-92347142D01*
X120048261Y-92322952D01*
X119999880Y-92298761D01*
X119951500Y-92250380D01*
X119927309Y-92177809D01*
X119927309Y-92129428D01*
X119951500Y-92056857D01*
X119975690Y-92032666D01*
X120435309Y-91790761D02*
X120435309Y-91694000D01*
X120411119Y-91645619D01*
X120386928Y-91621428D01*
X120314357Y-91573047D01*
X120217595Y-91548857D01*
X120024071Y-91548857D01*
X119975690Y-91573047D01*
X119951500Y-91597238D01*
X119927309Y-91645619D01*
X119927309Y-91742380D01*
X119951500Y-91790761D01*
X119975690Y-91814952D01*
X120024071Y-91839142D01*
X120145023Y-91839142D01*
X120193404Y-91814952D01*
X120217595Y-91790761D01*
X120241785Y-91742380D01*
X120241785Y-91645619D01*
X120217595Y-91597238D01*
X120193404Y-91573047D01*
X120145023Y-91548857D01*
X138581368Y-104626210D02*
X138581368Y-104660420D01*
X138547158Y-104728841D01*
X138512947Y-104763052D01*
X138444526Y-104797262D01*
X138376105Y-104797262D01*
X138324789Y-104780157D01*
X138239263Y-104728841D01*
X138187947Y-104677525D01*
X138136632Y-104591999D01*
X138119526Y-104540683D01*
X138119526Y-104472262D01*
X138153737Y-104403841D01*
X138187947Y-104369631D01*
X138256368Y-104335420D01*
X138290579Y-104335420D01*
X138581368Y-103976210D02*
X138410316Y-104147263D01*
X138564263Y-104335420D01*
X138564263Y-104301210D01*
X138581368Y-104249894D01*
X138666894Y-104164368D01*
X138718210Y-104147263D01*
X138752420Y-104147263D01*
X138803736Y-104164368D01*
X138889262Y-104249894D01*
X138906368Y-104301210D01*
X138906368Y-104335420D01*
X138889262Y-104386736D01*
X138803736Y-104472262D01*
X138752420Y-104489368D01*
X138718210Y-104489368D01*
X138718210Y-103839368D02*
X138940578Y-103617000D01*
X138957683Y-103873579D01*
X139008999Y-103822263D01*
X139060315Y-103805158D01*
X139094525Y-103805158D01*
X139145841Y-103822263D01*
X139231367Y-103907789D01*
X139248473Y-103959105D01*
X139248473Y-103993316D01*
X139231367Y-104044631D01*
X139128736Y-104147263D01*
X139077420Y-104164368D01*
X139043210Y-104164368D01*
X135406368Y-101451210D02*
X135406368Y-101485420D01*
X135372158Y-101553841D01*
X135337947Y-101588052D01*
X135269526Y-101622262D01*
X135201105Y-101622262D01*
X135149789Y-101605157D01*
X135064263Y-101553841D01*
X135012947Y-101502525D01*
X134961632Y-101416999D01*
X134944526Y-101365683D01*
X134944526Y-101297262D01*
X134978737Y-101228841D01*
X135012947Y-101194631D01*
X135081368Y-101160420D01*
X135115579Y-101160420D01*
X135509000Y-100938052D02*
X135748473Y-101177526D01*
X135286631Y-100886737D02*
X135457684Y-101228841D01*
X135680052Y-101006473D01*
X135953736Y-100972263D02*
X136022157Y-100903842D01*
X136039262Y-100852526D01*
X136039262Y-100818316D01*
X136022157Y-100732789D01*
X135970841Y-100647263D01*
X135833999Y-100510421D01*
X135782683Y-100493316D01*
X135748473Y-100493316D01*
X135697157Y-100510421D01*
X135628736Y-100578842D01*
X135611631Y-100630158D01*
X135611631Y-100664368D01*
X135628736Y-100715684D01*
X135714262Y-100801210D01*
X135765578Y-100818316D01*
X135799789Y-100818316D01*
X135851104Y-100801210D01*
X135919525Y-100732789D01*
X135936631Y-100681474D01*
X135936631Y-100647263D01*
X135919525Y-100595947D01*
X136186333Y-100257428D02*
X136162142Y-100281619D01*
X136089571Y-100305809D01*
X136041190Y-100305809D01*
X135968619Y-100281619D01*
X135920238Y-100233238D01*
X135896047Y-100184857D01*
X135871857Y-100088095D01*
X135871857Y-100015523D01*
X135896047Y-99918761D01*
X135920238Y-99870380D01*
X135968619Y-99822000D01*
X136041190Y-99797809D01*
X136089571Y-99797809D01*
X136162142Y-99822000D01*
X136186333Y-99846190D01*
X136621761Y-99967142D02*
X136621761Y-100305809D01*
X136500809Y-99773619D02*
X136379857Y-100136476D01*
X136694333Y-100136476D01*
X123434928Y-89365666D02*
X123459119Y-89389857D01*
X123483309Y-89462428D01*
X123483309Y-89510809D01*
X123459119Y-89583380D01*
X123410738Y-89631761D01*
X123362357Y-89655952D01*
X123265595Y-89680142D01*
X123193023Y-89680142D01*
X123096261Y-89655952D01*
X123047880Y-89631761D01*
X122999500Y-89583380D01*
X122975309Y-89510809D01*
X122975309Y-89462428D01*
X122999500Y-89389857D01*
X123023690Y-89365666D01*
X122975309Y-88906047D02*
X122975309Y-89147952D01*
X123217214Y-89172142D01*
X123193023Y-89147952D01*
X123168833Y-89099571D01*
X123168833Y-88978619D01*
X123193023Y-88930238D01*
X123217214Y-88906047D01*
X123265595Y-88881857D01*
X123386547Y-88881857D01*
X123434928Y-88906047D01*
X123459119Y-88930238D01*
X123483309Y-88978619D01*
X123483309Y-89099571D01*
X123459119Y-89147952D01*
X123434928Y-89172142D01*
X127308428Y-85047666D02*
X127332619Y-85071857D01*
X127356809Y-85144428D01*
X127356809Y-85192809D01*
X127332619Y-85265380D01*
X127284238Y-85313761D01*
X127235857Y-85337952D01*
X127139095Y-85362142D01*
X127066523Y-85362142D01*
X126969761Y-85337952D01*
X126921380Y-85313761D01*
X126873000Y-85265380D01*
X126848809Y-85192809D01*
X126848809Y-85144428D01*
X126873000Y-85071857D01*
X126897190Y-85047666D01*
X126848809Y-84612238D02*
X126848809Y-84709000D01*
X126873000Y-84757380D01*
X126897190Y-84781571D01*
X126969761Y-84829952D01*
X127066523Y-84854142D01*
X127260047Y-84854142D01*
X127308428Y-84829952D01*
X127332619Y-84805761D01*
X127356809Y-84757380D01*
X127356809Y-84660619D01*
X127332619Y-84612238D01*
X127308428Y-84588047D01*
X127260047Y-84563857D01*
X127139095Y-84563857D01*
X127090714Y-84588047D01*
X127066523Y-84612238D01*
X127042333Y-84660619D01*
X127042333Y-84757380D01*
X127066523Y-84805761D01*
X127090714Y-84829952D01*
X127139095Y-84854142D01*
X123625428Y-97038428D02*
X123601238Y-97062619D01*
X123528666Y-97086809D01*
X123480285Y-97086809D01*
X123407714Y-97062619D01*
X123359333Y-97014238D01*
X123335142Y-96965857D01*
X123310952Y-96869095D01*
X123310952Y-96796523D01*
X123335142Y-96699761D01*
X123359333Y-96651380D01*
X123407714Y-96603000D01*
X123480285Y-96578809D01*
X123528666Y-96578809D01*
X123601238Y-96603000D01*
X123625428Y-96627190D01*
X124109238Y-97086809D02*
X123818952Y-97086809D01*
X123964095Y-97086809D02*
X123964095Y-96578809D01*
X123915714Y-96651380D01*
X123867333Y-96699761D01*
X123818952Y-96723952D01*
X124593047Y-97086809D02*
X124302761Y-97086809D01*
X124447904Y-97086809D02*
X124447904Y-96578809D01*
X124399523Y-96651380D01*
X124351142Y-96699761D01*
X124302761Y-96723952D01*
X138865428Y-87188428D02*
X138841238Y-87212619D01*
X138768666Y-87236809D01*
X138720285Y-87236809D01*
X138647714Y-87212619D01*
X138599333Y-87164238D01*
X138575142Y-87115857D01*
X138550952Y-87019095D01*
X138550952Y-86946523D01*
X138575142Y-86849761D01*
X138599333Y-86801380D01*
X138647714Y-86753000D01*
X138720285Y-86728809D01*
X138768666Y-86728809D01*
X138841238Y-86753000D01*
X138865428Y-86777190D01*
X139349238Y-87236809D02*
X139058952Y-87236809D01*
X139204095Y-87236809D02*
X139204095Y-86728809D01*
X139155714Y-86801380D01*
X139107333Y-86849761D01*
X139058952Y-86873952D01*
X139542761Y-86777190D02*
X139566952Y-86753000D01*
X139615333Y-86728809D01*
X139736285Y-86728809D01*
X139784666Y-86753000D01*
X139808857Y-86777190D01*
X139833047Y-86825571D01*
X139833047Y-86873952D01*
X139808857Y-86946523D01*
X139518571Y-87236809D01*
X139833047Y-87236809D01*
X121466428Y-72698428D02*
X121442238Y-72722619D01*
X121369666Y-72746809D01*
X121321285Y-72746809D01*
X121248714Y-72722619D01*
X121200333Y-72674238D01*
X121176142Y-72625857D01*
X121151952Y-72529095D01*
X121151952Y-72456523D01*
X121176142Y-72359761D01*
X121200333Y-72311380D01*
X121248714Y-72263000D01*
X121321285Y-72238809D01*
X121369666Y-72238809D01*
X121442238Y-72263000D01*
X121466428Y-72287190D01*
X121950238Y-72746809D02*
X121659952Y-72746809D01*
X121805095Y-72746809D02*
X121805095Y-72238809D01*
X121756714Y-72311380D01*
X121708333Y-72359761D01*
X121659952Y-72383952D01*
X122385666Y-72408142D02*
X122385666Y-72746809D01*
X122264714Y-72214619D02*
X122143761Y-72577476D01*
X122458238Y-72577476D01*
X121466428Y-74273228D02*
X121442238Y-74297419D01*
X121369666Y-74321609D01*
X121321285Y-74321609D01*
X121248714Y-74297419D01*
X121200333Y-74249038D01*
X121176142Y-74200657D01*
X121151952Y-74103895D01*
X121151952Y-74031323D01*
X121176142Y-73934561D01*
X121200333Y-73886180D01*
X121248714Y-73837800D01*
X121321285Y-73813609D01*
X121369666Y-73813609D01*
X121442238Y-73837800D01*
X121466428Y-73861990D01*
X121950238Y-74321609D02*
X121659952Y-74321609D01*
X121805095Y-74321609D02*
X121805095Y-73813609D01*
X121756714Y-73886180D01*
X121708333Y-73934561D01*
X121659952Y-73958752D01*
X122409857Y-73813609D02*
X122167952Y-73813609D01*
X122143761Y-74055514D01*
X122167952Y-74031323D01*
X122216333Y-74007133D01*
X122337285Y-74007133D01*
X122385666Y-74031323D01*
X122409857Y-74055514D01*
X122434047Y-74103895D01*
X122434047Y-74224847D01*
X122409857Y-74273228D01*
X122385666Y-74297419D01*
X122337285Y-74321609D01*
X122216333Y-74321609D01*
X122167952Y-74297419D01*
X122143761Y-74273228D01*
X119942428Y-69904428D02*
X119918238Y-69928619D01*
X119845666Y-69952809D01*
X119797285Y-69952809D01*
X119724714Y-69928619D01*
X119676333Y-69880238D01*
X119652142Y-69831857D01*
X119627952Y-69735095D01*
X119627952Y-69662523D01*
X119652142Y-69565761D01*
X119676333Y-69517380D01*
X119724714Y-69469000D01*
X119797285Y-69444809D01*
X119845666Y-69444809D01*
X119918238Y-69469000D01*
X119942428Y-69493190D01*
X120426238Y-69952809D02*
X120135952Y-69952809D01*
X120281095Y-69952809D02*
X120281095Y-69444809D01*
X120232714Y-69517380D01*
X120184333Y-69565761D01*
X120135952Y-69589952D01*
X120861666Y-69444809D02*
X120764904Y-69444809D01*
X120716523Y-69469000D01*
X120692333Y-69493190D01*
X120643952Y-69565761D01*
X120619761Y-69662523D01*
X120619761Y-69856047D01*
X120643952Y-69904428D01*
X120668142Y-69928619D01*
X120716523Y-69952809D01*
X120813285Y-69952809D01*
X120861666Y-69928619D01*
X120885857Y-69904428D01*
X120910047Y-69856047D01*
X120910047Y-69735095D01*
X120885857Y-69686714D01*
X120861666Y-69662523D01*
X120813285Y-69638333D01*
X120716523Y-69638333D01*
X120668142Y-69662523D01*
X120643952Y-69686714D01*
X120619761Y-69735095D01*
X124387428Y-77034571D02*
X124411619Y-77058761D01*
X124435809Y-77131333D01*
X124435809Y-77179714D01*
X124411619Y-77252285D01*
X124363238Y-77300666D01*
X124314857Y-77324857D01*
X124218095Y-77349047D01*
X124145523Y-77349047D01*
X124048761Y-77324857D01*
X124000380Y-77300666D01*
X123952000Y-77252285D01*
X123927809Y-77179714D01*
X123927809Y-77131333D01*
X123952000Y-77058761D01*
X123976190Y-77034571D01*
X124435809Y-76550761D02*
X124435809Y-76841047D01*
X124435809Y-76695904D02*
X123927809Y-76695904D01*
X124000380Y-76744285D01*
X124048761Y-76792666D01*
X124072952Y-76841047D01*
X123927809Y-76381428D02*
X123927809Y-76042761D01*
X124435809Y-76260476D01*
X119942428Y-66983428D02*
X119918238Y-67007619D01*
X119845666Y-67031809D01*
X119797285Y-67031809D01*
X119724714Y-67007619D01*
X119676333Y-66959238D01*
X119652142Y-66910857D01*
X119627952Y-66814095D01*
X119627952Y-66741523D01*
X119652142Y-66644761D01*
X119676333Y-66596380D01*
X119724714Y-66548000D01*
X119797285Y-66523809D01*
X119845666Y-66523809D01*
X119918238Y-66548000D01*
X119942428Y-66572190D01*
X120426238Y-67031809D02*
X120135952Y-67031809D01*
X120281095Y-67031809D02*
X120281095Y-66523809D01*
X120232714Y-66596380D01*
X120184333Y-66644761D01*
X120135952Y-66668952D01*
X120716523Y-66741523D02*
X120668142Y-66717333D01*
X120643952Y-66693142D01*
X120619761Y-66644761D01*
X120619761Y-66620571D01*
X120643952Y-66572190D01*
X120668142Y-66548000D01*
X120716523Y-66523809D01*
X120813285Y-66523809D01*
X120861666Y-66548000D01*
X120885857Y-66572190D01*
X120910047Y-66620571D01*
X120910047Y-66644761D01*
X120885857Y-66693142D01*
X120861666Y-66717333D01*
X120813285Y-66741523D01*
X120716523Y-66741523D01*
X120668142Y-66765714D01*
X120643952Y-66789904D01*
X120619761Y-66838285D01*
X120619761Y-66935047D01*
X120643952Y-66983428D01*
X120668142Y-67007619D01*
X120716523Y-67031809D01*
X120813285Y-67031809D01*
X120861666Y-67007619D01*
X120885857Y-66983428D01*
X120910047Y-66935047D01*
X120910047Y-66838285D01*
X120885857Y-66789904D01*
X120861666Y-66765714D01*
X120813285Y-66741523D01*
X120513928Y-75256571D02*
X120538119Y-75280761D01*
X120562309Y-75353333D01*
X120562309Y-75401714D01*
X120538119Y-75474285D01*
X120489738Y-75522666D01*
X120441357Y-75546857D01*
X120344595Y-75571047D01*
X120272023Y-75571047D01*
X120175261Y-75546857D01*
X120126880Y-75522666D01*
X120078500Y-75474285D01*
X120054309Y-75401714D01*
X120054309Y-75353333D01*
X120078500Y-75280761D01*
X120102690Y-75256571D01*
X120562309Y-74772761D02*
X120562309Y-75063047D01*
X120562309Y-74917904D02*
X120054309Y-74917904D01*
X120126880Y-74966285D01*
X120175261Y-75014666D01*
X120199452Y-75063047D01*
X120562309Y-74530857D02*
X120562309Y-74434095D01*
X120538119Y-74385714D01*
X120513928Y-74361523D01*
X120441357Y-74313142D01*
X120344595Y-74288952D01*
X120151071Y-74288952D01*
X120102690Y-74313142D01*
X120078500Y-74337333D01*
X120054309Y-74385714D01*
X120054309Y-74482476D01*
X120078500Y-74530857D01*
X120102690Y-74555047D01*
X120151071Y-74579238D01*
X120272023Y-74579238D01*
X120320404Y-74555047D01*
X120344595Y-74530857D01*
X120368785Y-74482476D01*
X120368785Y-74385714D01*
X120344595Y-74337333D01*
X120320404Y-74313142D01*
X120272023Y-74288952D01*
X126673428Y-79671428D02*
X126649238Y-79695619D01*
X126576666Y-79719809D01*
X126528285Y-79719809D01*
X126455714Y-79695619D01*
X126407333Y-79647238D01*
X126383142Y-79598857D01*
X126358952Y-79502095D01*
X126358952Y-79429523D01*
X126383142Y-79332761D01*
X126407333Y-79284380D01*
X126455714Y-79236000D01*
X126528285Y-79211809D01*
X126576666Y-79211809D01*
X126649238Y-79236000D01*
X126673428Y-79260190D01*
X126866952Y-79260190D02*
X126891142Y-79236000D01*
X126939523Y-79211809D01*
X127060476Y-79211809D01*
X127108857Y-79236000D01*
X127133047Y-79260190D01*
X127157238Y-79308571D01*
X127157238Y-79356952D01*
X127133047Y-79429523D01*
X126842761Y-79719809D01*
X127157238Y-79719809D01*
X127471714Y-79211809D02*
X127520095Y-79211809D01*
X127568476Y-79236000D01*
X127592666Y-79260190D01*
X127616857Y-79308571D01*
X127641047Y-79405333D01*
X127641047Y-79526285D01*
X127616857Y-79623047D01*
X127592666Y-79671428D01*
X127568476Y-79695619D01*
X127520095Y-79719809D01*
X127471714Y-79719809D01*
X127423333Y-79695619D01*
X127399142Y-79671428D01*
X127374952Y-79623047D01*
X127350761Y-79526285D01*
X127350761Y-79405333D01*
X127374952Y-79308571D01*
X127399142Y-79260190D01*
X127423333Y-79236000D01*
X127471714Y-79211809D01*
X136960428Y-63935428D02*
X136936238Y-63959619D01*
X136863666Y-63983809D01*
X136815285Y-63983809D01*
X136742714Y-63959619D01*
X136694333Y-63911238D01*
X136670142Y-63862857D01*
X136645952Y-63766095D01*
X136645952Y-63693523D01*
X136670142Y-63596761D01*
X136694333Y-63548380D01*
X136742714Y-63500000D01*
X136815285Y-63475809D01*
X136863666Y-63475809D01*
X136936238Y-63500000D01*
X136960428Y-63524190D01*
X137153952Y-63524190D02*
X137178142Y-63500000D01*
X137226523Y-63475809D01*
X137347476Y-63475809D01*
X137395857Y-63500000D01*
X137420047Y-63524190D01*
X137444238Y-63572571D01*
X137444238Y-63620952D01*
X137420047Y-63693523D01*
X137129761Y-63983809D01*
X137444238Y-63983809D01*
X137637761Y-63524190D02*
X137661952Y-63500000D01*
X137710333Y-63475809D01*
X137831285Y-63475809D01*
X137879666Y-63500000D01*
X137903857Y-63524190D01*
X137928047Y-63572571D01*
X137928047Y-63620952D01*
X137903857Y-63693523D01*
X137613571Y-63983809D01*
X137928047Y-63983809D01*
X139627428Y-72589571D02*
X139651619Y-72613761D01*
X139675809Y-72686333D01*
X139675809Y-72734714D01*
X139651619Y-72807285D01*
X139603238Y-72855666D01*
X139554857Y-72879857D01*
X139458095Y-72904047D01*
X139385523Y-72904047D01*
X139288761Y-72879857D01*
X139240380Y-72855666D01*
X139192000Y-72807285D01*
X139167809Y-72734714D01*
X139167809Y-72686333D01*
X139192000Y-72613761D01*
X139216190Y-72589571D01*
X139216190Y-72396047D02*
X139192000Y-72371857D01*
X139167809Y-72323476D01*
X139167809Y-72202523D01*
X139192000Y-72154142D01*
X139216190Y-72129952D01*
X139264571Y-72105761D01*
X139312952Y-72105761D01*
X139385523Y-72129952D01*
X139675809Y-72420238D01*
X139675809Y-72105761D01*
X139167809Y-71936428D02*
X139167809Y-71621952D01*
X139361333Y-71791285D01*
X139361333Y-71718714D01*
X139385523Y-71670333D01*
X139409714Y-71646142D01*
X139458095Y-71621952D01*
X139579047Y-71621952D01*
X139627428Y-71646142D01*
X139651619Y-71670333D01*
X139675809Y-71718714D01*
X139675809Y-71863857D01*
X139651619Y-71912238D01*
X139627428Y-71936428D01*
X139627428Y-74875571D02*
X139651619Y-74899761D01*
X139675809Y-74972333D01*
X139675809Y-75020714D01*
X139651619Y-75093285D01*
X139603238Y-75141666D01*
X139554857Y-75165857D01*
X139458095Y-75190047D01*
X139385523Y-75190047D01*
X139288761Y-75165857D01*
X139240380Y-75141666D01*
X139192000Y-75093285D01*
X139167809Y-75020714D01*
X139167809Y-74972333D01*
X139192000Y-74899761D01*
X139216190Y-74875571D01*
X139216190Y-74682047D02*
X139192000Y-74657857D01*
X139167809Y-74609476D01*
X139167809Y-74488523D01*
X139192000Y-74440142D01*
X139216190Y-74415952D01*
X139264571Y-74391761D01*
X139312952Y-74391761D01*
X139385523Y-74415952D01*
X139675809Y-74706238D01*
X139675809Y-74391761D01*
X139337142Y-73956333D02*
X139675809Y-73956333D01*
X139143619Y-74077285D02*
X139506476Y-74198238D01*
X139506476Y-73883761D01*
X138865428Y-79752371D02*
X138889619Y-79776561D01*
X138913809Y-79849133D01*
X138913809Y-79897514D01*
X138889619Y-79970085D01*
X138841238Y-80018466D01*
X138792857Y-80042657D01*
X138696095Y-80066847D01*
X138623523Y-80066847D01*
X138526761Y-80042657D01*
X138478380Y-80018466D01*
X138430000Y-79970085D01*
X138405809Y-79897514D01*
X138405809Y-79849133D01*
X138430000Y-79776561D01*
X138454190Y-79752371D01*
X138454190Y-79558847D02*
X138430000Y-79534657D01*
X138405809Y-79486276D01*
X138405809Y-79365323D01*
X138430000Y-79316942D01*
X138454190Y-79292752D01*
X138502571Y-79268561D01*
X138550952Y-79268561D01*
X138623523Y-79292752D01*
X138913809Y-79583038D01*
X138913809Y-79268561D01*
X138405809Y-78808942D02*
X138405809Y-79050847D01*
X138647714Y-79075038D01*
X138623523Y-79050847D01*
X138599333Y-79002466D01*
X138599333Y-78881514D01*
X138623523Y-78833133D01*
X138647714Y-78808942D01*
X138696095Y-78784752D01*
X138817047Y-78784752D01*
X138865428Y-78808942D01*
X138889619Y-78833133D01*
X138913809Y-78881514D01*
X138913809Y-79002466D01*
X138889619Y-79050847D01*
X138865428Y-79075038D01*
X139246428Y-71174428D02*
X139222238Y-71198619D01*
X139149666Y-71222809D01*
X139101285Y-71222809D01*
X139028714Y-71198619D01*
X138980333Y-71150238D01*
X138956142Y-71101857D01*
X138931952Y-71005095D01*
X138931952Y-70932523D01*
X138956142Y-70835761D01*
X138980333Y-70787380D01*
X139028714Y-70739000D01*
X139101285Y-70714809D01*
X139149666Y-70714809D01*
X139222238Y-70739000D01*
X139246428Y-70763190D01*
X139439952Y-70763190D02*
X139464142Y-70739000D01*
X139512523Y-70714809D01*
X139633476Y-70714809D01*
X139681857Y-70739000D01*
X139706047Y-70763190D01*
X139730238Y-70811571D01*
X139730238Y-70859952D01*
X139706047Y-70932523D01*
X139415761Y-71222809D01*
X139730238Y-71222809D01*
X140020523Y-70932523D02*
X139972142Y-70908333D01*
X139947952Y-70884142D01*
X139923761Y-70835761D01*
X139923761Y-70811571D01*
X139947952Y-70763190D01*
X139972142Y-70739000D01*
X140020523Y-70714809D01*
X140117285Y-70714809D01*
X140165666Y-70739000D01*
X140189857Y-70763190D01*
X140214047Y-70811571D01*
X140214047Y-70835761D01*
X140189857Y-70884142D01*
X140165666Y-70908333D01*
X140117285Y-70932523D01*
X140020523Y-70932523D01*
X139972142Y-70956714D01*
X139947952Y-70980904D01*
X139923761Y-71029285D01*
X139923761Y-71126047D01*
X139947952Y-71174428D01*
X139972142Y-71198619D01*
X140020523Y-71222809D01*
X140117285Y-71222809D01*
X140165666Y-71198619D01*
X140189857Y-71174428D01*
X140214047Y-71126047D01*
X140214047Y-71029285D01*
X140189857Y-70980904D01*
X140165666Y-70956714D01*
X140117285Y-70932523D01*
X135690428Y-62411428D02*
X135666238Y-62435619D01*
X135593666Y-62459809D01*
X135545285Y-62459809D01*
X135472714Y-62435619D01*
X135424333Y-62387238D01*
X135400142Y-62338857D01*
X135375952Y-62242095D01*
X135375952Y-62169523D01*
X135400142Y-62072761D01*
X135424333Y-62024380D01*
X135472714Y-61976000D01*
X135545285Y-61951809D01*
X135593666Y-61951809D01*
X135666238Y-61976000D01*
X135690428Y-62000190D01*
X135859761Y-61951809D02*
X136174238Y-61951809D01*
X136004904Y-62145333D01*
X136077476Y-62145333D01*
X136125857Y-62169523D01*
X136150047Y-62193714D01*
X136174238Y-62242095D01*
X136174238Y-62363047D01*
X136150047Y-62411428D01*
X136125857Y-62435619D01*
X136077476Y-62459809D01*
X135932333Y-62459809D01*
X135883952Y-62435619D01*
X135859761Y-62411428D01*
X136658047Y-62459809D02*
X136367761Y-62459809D01*
X136512904Y-62459809D02*
X136512904Y-61951809D01*
X136464523Y-62024380D01*
X136416142Y-62072761D01*
X136367761Y-62096952D01*
X120831428Y-96973571D02*
X120855619Y-96997761D01*
X120879809Y-97070333D01*
X120879809Y-97118714D01*
X120855619Y-97191285D01*
X120807238Y-97239666D01*
X120758857Y-97263857D01*
X120662095Y-97288047D01*
X120589523Y-97288047D01*
X120492761Y-97263857D01*
X120444380Y-97239666D01*
X120396000Y-97191285D01*
X120371809Y-97118714D01*
X120371809Y-97070333D01*
X120396000Y-96997761D01*
X120420190Y-96973571D01*
X120371809Y-96804238D02*
X120371809Y-96489761D01*
X120565333Y-96659095D01*
X120565333Y-96586523D01*
X120589523Y-96538142D01*
X120613714Y-96513952D01*
X120662095Y-96489761D01*
X120783047Y-96489761D01*
X120831428Y-96513952D01*
X120855619Y-96538142D01*
X120879809Y-96586523D01*
X120879809Y-96731666D01*
X120855619Y-96780047D01*
X120831428Y-96804238D01*
X120371809Y-96320428D02*
X120371809Y-96005952D01*
X120565333Y-96175285D01*
X120565333Y-96102714D01*
X120589523Y-96054333D01*
X120613714Y-96030142D01*
X120662095Y-96005952D01*
X120783047Y-96005952D01*
X120831428Y-96030142D01*
X120855619Y-96054333D01*
X120879809Y-96102714D01*
X120879809Y-96247857D01*
X120855619Y-96296238D01*
X120831428Y-96320428D01*
X119764628Y-101326571D02*
X119788819Y-101350761D01*
X119813009Y-101423333D01*
X119813009Y-101471714D01*
X119788819Y-101544285D01*
X119740438Y-101592666D01*
X119692057Y-101616857D01*
X119595295Y-101641047D01*
X119522723Y-101641047D01*
X119425961Y-101616857D01*
X119377580Y-101592666D01*
X119329200Y-101544285D01*
X119305009Y-101471714D01*
X119305009Y-101423333D01*
X119329200Y-101350761D01*
X119353390Y-101326571D01*
X119305009Y-101157238D02*
X119305009Y-100842761D01*
X119498533Y-101012095D01*
X119498533Y-100939523D01*
X119522723Y-100891142D01*
X119546914Y-100866952D01*
X119595295Y-100842761D01*
X119716247Y-100842761D01*
X119764628Y-100866952D01*
X119788819Y-100891142D01*
X119813009Y-100939523D01*
X119813009Y-101084666D01*
X119788819Y-101133047D01*
X119764628Y-101157238D01*
X119474342Y-100407333D02*
X119813009Y-100407333D01*
X119280819Y-100528285D02*
X119643676Y-100649238D01*
X119643676Y-100334761D01*
X122863428Y-86287428D02*
X122839238Y-86311619D01*
X122766666Y-86335809D01*
X122718285Y-86335809D01*
X122645714Y-86311619D01*
X122597333Y-86263238D01*
X122573142Y-86214857D01*
X122548952Y-86118095D01*
X122548952Y-86045523D01*
X122573142Y-85948761D01*
X122597333Y-85900380D01*
X122645714Y-85852000D01*
X122718285Y-85827809D01*
X122766666Y-85827809D01*
X122839238Y-85852000D01*
X122863428Y-85876190D01*
X123032761Y-85827809D02*
X123347238Y-85827809D01*
X123177904Y-86021333D01*
X123250476Y-86021333D01*
X123298857Y-86045523D01*
X123323047Y-86069714D01*
X123347238Y-86118095D01*
X123347238Y-86239047D01*
X123323047Y-86287428D01*
X123298857Y-86311619D01*
X123250476Y-86335809D01*
X123105333Y-86335809D01*
X123056952Y-86311619D01*
X123032761Y-86287428D01*
X123782666Y-85827809D02*
X123685904Y-85827809D01*
X123637523Y-85852000D01*
X123613333Y-85876190D01*
X123564952Y-85948761D01*
X123540761Y-86045523D01*
X123540761Y-86239047D01*
X123564952Y-86287428D01*
X123589142Y-86311619D01*
X123637523Y-86335809D01*
X123734285Y-86335809D01*
X123782666Y-86311619D01*
X123806857Y-86287428D01*
X123831047Y-86239047D01*
X123831047Y-86118095D01*
X123806857Y-86069714D01*
X123782666Y-86045523D01*
X123734285Y-86021333D01*
X123637523Y-86021333D01*
X123589142Y-86045523D01*
X123564952Y-86069714D01*
X123540761Y-86118095D01*
X136549368Y-102467210D02*
X136549368Y-102501420D01*
X136515158Y-102569841D01*
X136480947Y-102604052D01*
X136412526Y-102638262D01*
X136344105Y-102638262D01*
X136292789Y-102621157D01*
X136207263Y-102569841D01*
X136155947Y-102518525D01*
X136104632Y-102432999D01*
X136087526Y-102381683D01*
X136087526Y-102313262D01*
X136121737Y-102244841D01*
X136155947Y-102210631D01*
X136224368Y-102176420D01*
X136258579Y-102176420D01*
X136549368Y-101817210D02*
X136378316Y-101988263D01*
X136532263Y-102176420D01*
X136532263Y-102142210D01*
X136549368Y-102090894D01*
X136634894Y-102005368D01*
X136686210Y-101988263D01*
X136720420Y-101988263D01*
X136771736Y-102005368D01*
X136857262Y-102090894D01*
X136874368Y-102142210D01*
X136874368Y-102176420D01*
X136857262Y-102227736D01*
X136771736Y-102313262D01*
X136720420Y-102330368D01*
X136686210Y-102330368D01*
X136788841Y-101577737D02*
X136823052Y-101543526D01*
X136874368Y-101526421D01*
X136908578Y-101526421D01*
X136959894Y-101543526D01*
X137045420Y-101594842D01*
X137130946Y-101680368D01*
X137182262Y-101765895D01*
X137199367Y-101817210D01*
X137199367Y-101851421D01*
X137182262Y-101902737D01*
X137148052Y-101936947D01*
X137096736Y-101954052D01*
X137062525Y-101954052D01*
X137011210Y-101936947D01*
X136925683Y-101885631D01*
X136840157Y-101800105D01*
X136788841Y-101714579D01*
X136771736Y-101663263D01*
X136771736Y-101629053D01*
X136788841Y-101577737D01*
X137595428Y-56460571D02*
X137619619Y-56484761D01*
X137643809Y-56557333D01*
X137643809Y-56605714D01*
X137619619Y-56678285D01*
X137571238Y-56726666D01*
X137522857Y-56750857D01*
X137426095Y-56775047D01*
X137353523Y-56775047D01*
X137256761Y-56750857D01*
X137208380Y-56726666D01*
X137160000Y-56678285D01*
X137135809Y-56605714D01*
X137135809Y-56557333D01*
X137160000Y-56484761D01*
X137184190Y-56460571D01*
X137135809Y-56000952D02*
X137135809Y-56242857D01*
X137377714Y-56267047D01*
X137353523Y-56242857D01*
X137329333Y-56194476D01*
X137329333Y-56073523D01*
X137353523Y-56025142D01*
X137377714Y-56000952D01*
X137426095Y-55976761D01*
X137547047Y-55976761D01*
X137595428Y-56000952D01*
X137619619Y-56025142D01*
X137643809Y-56073523D01*
X137643809Y-56194476D01*
X137619619Y-56242857D01*
X137595428Y-56267047D01*
X137353523Y-55686476D02*
X137329333Y-55734857D01*
X137305142Y-55759047D01*
X137256761Y-55783238D01*
X137232571Y-55783238D01*
X137184190Y-55759047D01*
X137160000Y-55734857D01*
X137135809Y-55686476D01*
X137135809Y-55589714D01*
X137160000Y-55541333D01*
X137184190Y-55517142D01*
X137232571Y-55492952D01*
X137256761Y-55492952D01*
X137305142Y-55517142D01*
X137329333Y-55541333D01*
X137353523Y-55589714D01*
X137353523Y-55686476D01*
X137377714Y-55734857D01*
X137401904Y-55759047D01*
X137450285Y-55783238D01*
X137547047Y-55783238D01*
X137595428Y-55759047D01*
X137619619Y-55734857D01*
X137643809Y-55686476D01*
X137643809Y-55589714D01*
X137619619Y-55541333D01*
X137595428Y-55517142D01*
X137547047Y-55492952D01*
X137450285Y-55492952D01*
X137401904Y-55517142D01*
X137377714Y-55541333D01*
X137353523Y-55589714D01*
X118862928Y-76209071D02*
X118887119Y-76233261D01*
X118911309Y-76305833D01*
X118911309Y-76354214D01*
X118887119Y-76426785D01*
X118838738Y-76475166D01*
X118790357Y-76499357D01*
X118693595Y-76523547D01*
X118621023Y-76523547D01*
X118524261Y-76499357D01*
X118475880Y-76475166D01*
X118427500Y-76426785D01*
X118403309Y-76354214D01*
X118403309Y-76305833D01*
X118427500Y-76233261D01*
X118451690Y-76209071D01*
X118403309Y-75773642D02*
X118403309Y-75870404D01*
X118427500Y-75918785D01*
X118451690Y-75942976D01*
X118524261Y-75991357D01*
X118621023Y-76015547D01*
X118814547Y-76015547D01*
X118862928Y-75991357D01*
X118887119Y-75967166D01*
X118911309Y-75918785D01*
X118911309Y-75822023D01*
X118887119Y-75773642D01*
X118862928Y-75749452D01*
X118814547Y-75725261D01*
X118693595Y-75725261D01*
X118645214Y-75749452D01*
X118621023Y-75773642D01*
X118596833Y-75822023D01*
X118596833Y-75918785D01*
X118621023Y-75967166D01*
X118645214Y-75991357D01*
X118693595Y-76015547D01*
X118403309Y-75410785D02*
X118403309Y-75362404D01*
X118427500Y-75314023D01*
X118451690Y-75289833D01*
X118500071Y-75265642D01*
X118596833Y-75241452D01*
X118717785Y-75241452D01*
X118814547Y-75265642D01*
X118862928Y-75289833D01*
X118887119Y-75314023D01*
X118911309Y-75362404D01*
X118911309Y-75410785D01*
X118887119Y-75459166D01*
X118862928Y-75483357D01*
X118814547Y-75507547D01*
X118717785Y-75531738D01*
X118596833Y-75531738D01*
X118500071Y-75507547D01*
X118451690Y-75483357D01*
X118427500Y-75459166D01*
X118403309Y-75410785D01*
X126419428Y-83892571D02*
X126443619Y-83916761D01*
X126467809Y-83989333D01*
X126467809Y-84037714D01*
X126443619Y-84110285D01*
X126395238Y-84158666D01*
X126346857Y-84182857D01*
X126250095Y-84207047D01*
X126177523Y-84207047D01*
X126080761Y-84182857D01*
X126032380Y-84158666D01*
X125984000Y-84110285D01*
X125959809Y-84037714D01*
X125959809Y-83989333D01*
X125984000Y-83916761D01*
X126008190Y-83892571D01*
X125959809Y-83457142D02*
X125959809Y-83553904D01*
X125984000Y-83602285D01*
X126008190Y-83626476D01*
X126080761Y-83674857D01*
X126177523Y-83699047D01*
X126371047Y-83699047D01*
X126419428Y-83674857D01*
X126443619Y-83650666D01*
X126467809Y-83602285D01*
X126467809Y-83505523D01*
X126443619Y-83457142D01*
X126419428Y-83432952D01*
X126371047Y-83408761D01*
X126250095Y-83408761D01*
X126201714Y-83432952D01*
X126177523Y-83457142D01*
X126153333Y-83505523D01*
X126153333Y-83602285D01*
X126177523Y-83650666D01*
X126201714Y-83674857D01*
X126250095Y-83699047D01*
X125959809Y-83239428D02*
X125959809Y-82924952D01*
X126153333Y-83094285D01*
X126153333Y-83021714D01*
X126177523Y-82973333D01*
X126201714Y-82949142D01*
X126250095Y-82924952D01*
X126371047Y-82924952D01*
X126419428Y-82949142D01*
X126443619Y-82973333D01*
X126467809Y-83021714D01*
X126467809Y-83166857D01*
X126443619Y-83215238D01*
X126419428Y-83239428D01*
X147193428Y-113465428D02*
X147169238Y-113489619D01*
X147096666Y-113513809D01*
X147048285Y-113513809D01*
X146975714Y-113489619D01*
X146927333Y-113441238D01*
X146903142Y-113392857D01*
X146878952Y-113296095D01*
X146878952Y-113223523D01*
X146903142Y-113126761D01*
X146927333Y-113078380D01*
X146975714Y-113030000D01*
X147048285Y-113005809D01*
X147096666Y-113005809D01*
X147169238Y-113030000D01*
X147193428Y-113054190D01*
X147628857Y-113175142D02*
X147628857Y-113513809D01*
X147507904Y-112981619D02*
X147386952Y-113344476D01*
X147701428Y-113344476D01*
X148112666Y-113005809D02*
X148015904Y-113005809D01*
X147967523Y-113030000D01*
X147943333Y-113054190D01*
X147894952Y-113126761D01*
X147870761Y-113223523D01*
X147870761Y-113417047D01*
X147894952Y-113465428D01*
X147919142Y-113489619D01*
X147967523Y-113513809D01*
X148064285Y-113513809D01*
X148112666Y-113489619D01*
X148136857Y-113465428D01*
X148161047Y-113417047D01*
X148161047Y-113296095D01*
X148136857Y-113247714D01*
X148112666Y-113223523D01*
X148064285Y-113199333D01*
X147967523Y-113199333D01*
X147919142Y-113223523D01*
X147894952Y-113247714D01*
X147870761Y-113296095D01*
X167848428Y-113465428D02*
X167824238Y-113489619D01*
X167751666Y-113513809D01*
X167703285Y-113513809D01*
X167630714Y-113489619D01*
X167582333Y-113441238D01*
X167558142Y-113392857D01*
X167533952Y-113296095D01*
X167533952Y-113223523D01*
X167558142Y-113126761D01*
X167582333Y-113078380D01*
X167630714Y-113030000D01*
X167703285Y-113005809D01*
X167751666Y-113005809D01*
X167824238Y-113030000D01*
X167848428Y-113054190D01*
X168283857Y-113175142D02*
X168283857Y-113513809D01*
X168162904Y-112981619D02*
X168041952Y-113344476D01*
X168356428Y-113344476D01*
X168501571Y-113005809D02*
X168840238Y-113005809D01*
X168622523Y-113513809D01*
X168734619Y-81390190D02*
X168686238Y-81366000D01*
X168637857Y-81317619D01*
X168565285Y-81245047D01*
X168516904Y-81220857D01*
X168468523Y-81220857D01*
X168492714Y-81341809D02*
X168444333Y-81317619D01*
X168395952Y-81269238D01*
X168371761Y-81172476D01*
X168371761Y-81003142D01*
X168395952Y-80906380D01*
X168444333Y-80858000D01*
X168492714Y-80833809D01*
X168589476Y-80833809D01*
X168637857Y-80858000D01*
X168686238Y-80906380D01*
X168710428Y-81003142D01*
X168710428Y-81172476D01*
X168686238Y-81269238D01*
X168637857Y-81317619D01*
X168589476Y-81341809D01*
X168492714Y-81341809D01*
X169170047Y-80833809D02*
X168928142Y-80833809D01*
X168903952Y-81075714D01*
X168928142Y-81051523D01*
X168976523Y-81027333D01*
X169097476Y-81027333D01*
X169145857Y-81051523D01*
X169170047Y-81075714D01*
X169194238Y-81124095D01*
X169194238Y-81245047D01*
X169170047Y-81293428D01*
X169145857Y-81317619D01*
X169097476Y-81341809D01*
X168976523Y-81341809D01*
X168928142Y-81317619D01*
X168903952Y-81293428D01*
X174776190Y-62040380D02*
X174752000Y-62088761D01*
X174703619Y-62137142D01*
X174631047Y-62209714D01*
X174606857Y-62258095D01*
X174606857Y-62306476D01*
X174727809Y-62282285D02*
X174703619Y-62330666D01*
X174655238Y-62379047D01*
X174558476Y-62403238D01*
X174389142Y-62403238D01*
X174292380Y-62379047D01*
X174244000Y-62330666D01*
X174219809Y-62282285D01*
X174219809Y-62185523D01*
X174244000Y-62137142D01*
X174292380Y-62088761D01*
X174389142Y-62064571D01*
X174558476Y-62064571D01*
X174655238Y-62088761D01*
X174703619Y-62137142D01*
X174727809Y-62185523D01*
X174727809Y-62282285D01*
X174219809Y-61629142D02*
X174219809Y-61725904D01*
X174244000Y-61774285D01*
X174268190Y-61798476D01*
X174340761Y-61846857D01*
X174437523Y-61871047D01*
X174631047Y-61871047D01*
X174679428Y-61846857D01*
X174703619Y-61822666D01*
X174727809Y-61774285D01*
X174727809Y-61677523D01*
X174703619Y-61629142D01*
X174679428Y-61604952D01*
X174631047Y-61580761D01*
X174510095Y-61580761D01*
X174461714Y-61604952D01*
X174437523Y-61629142D01*
X174413333Y-61677523D01*
X174413333Y-61774285D01*
X174437523Y-61822666D01*
X174461714Y-61846857D01*
X174510095Y-61871047D01*
X146763619Y-81431190D02*
X146715238Y-81407000D01*
X146666857Y-81358619D01*
X146594285Y-81286047D01*
X146545904Y-81261857D01*
X146497523Y-81261857D01*
X146521714Y-81382809D02*
X146473333Y-81358619D01*
X146424952Y-81310238D01*
X146400761Y-81213476D01*
X146400761Y-81044142D01*
X146424952Y-80947380D01*
X146473333Y-80899000D01*
X146521714Y-80874809D01*
X146618476Y-80874809D01*
X146666857Y-80899000D01*
X146715238Y-80947380D01*
X146739428Y-81044142D01*
X146739428Y-81213476D01*
X146715238Y-81310238D01*
X146666857Y-81358619D01*
X146618476Y-81382809D01*
X146521714Y-81382809D01*
X147223238Y-81382809D02*
X146932952Y-81382809D01*
X147078095Y-81382809D02*
X147078095Y-80874809D01*
X147029714Y-80947380D01*
X146981333Y-80995761D01*
X146932952Y-81019952D01*
X149503190Y-62087880D02*
X149479000Y-62136261D01*
X149430619Y-62184642D01*
X149358047Y-62257214D01*
X149333857Y-62305595D01*
X149333857Y-62353976D01*
X149454809Y-62329785D02*
X149430619Y-62378166D01*
X149382238Y-62426547D01*
X149285476Y-62450738D01*
X149116142Y-62450738D01*
X149019380Y-62426547D01*
X148971000Y-62378166D01*
X148946809Y-62329785D01*
X148946809Y-62233023D01*
X148971000Y-62184642D01*
X149019380Y-62136261D01*
X149116142Y-62112071D01*
X149285476Y-62112071D01*
X149382238Y-62136261D01*
X149430619Y-62184642D01*
X149454809Y-62233023D01*
X149454809Y-62329785D01*
X148995190Y-61918547D02*
X148971000Y-61894357D01*
X148946809Y-61845976D01*
X148946809Y-61725023D01*
X148971000Y-61676642D01*
X148995190Y-61652452D01*
X149043571Y-61628261D01*
X149091952Y-61628261D01*
X149164523Y-61652452D01*
X149454809Y-61942738D01*
X149454809Y-61628261D01*
X153494619Y-81431190D02*
X153446238Y-81407000D01*
X153397857Y-81358619D01*
X153325285Y-81286047D01*
X153276904Y-81261857D01*
X153228523Y-81261857D01*
X153252714Y-81382809D02*
X153204333Y-81358619D01*
X153155952Y-81310238D01*
X153131761Y-81213476D01*
X153131761Y-81044142D01*
X153155952Y-80947380D01*
X153204333Y-80899000D01*
X153252714Y-80874809D01*
X153349476Y-80874809D01*
X153397857Y-80899000D01*
X153446238Y-80947380D01*
X153470428Y-81044142D01*
X153470428Y-81213476D01*
X153446238Y-81310238D01*
X153397857Y-81358619D01*
X153349476Y-81382809D01*
X153252714Y-81382809D01*
X153639761Y-80874809D02*
X153954238Y-80874809D01*
X153784904Y-81068333D01*
X153857476Y-81068333D01*
X153905857Y-81092523D01*
X153930047Y-81116714D01*
X153954238Y-81165095D01*
X153954238Y-81286047D01*
X153930047Y-81334428D01*
X153905857Y-81358619D01*
X153857476Y-81382809D01*
X153712333Y-81382809D01*
X153663952Y-81358619D01*
X153639761Y-81334428D01*
X162150190Y-62087880D02*
X162126000Y-62136261D01*
X162077619Y-62184642D01*
X162005047Y-62257214D01*
X161980857Y-62305595D01*
X161980857Y-62353976D01*
X162101809Y-62329785D02*
X162077619Y-62378166D01*
X162029238Y-62426547D01*
X161932476Y-62450738D01*
X161763142Y-62450738D01*
X161666380Y-62426547D01*
X161618000Y-62378166D01*
X161593809Y-62329785D01*
X161593809Y-62233023D01*
X161618000Y-62184642D01*
X161666380Y-62136261D01*
X161763142Y-62112071D01*
X161932476Y-62112071D01*
X162029238Y-62136261D01*
X162077619Y-62184642D01*
X162101809Y-62233023D01*
X162101809Y-62329785D01*
X161763142Y-61676642D02*
X162101809Y-61676642D01*
X161569619Y-61797595D02*
X161932476Y-61918547D01*
X161932476Y-61604071D01*
X124768428Y-79556428D02*
X124744238Y-79580619D01*
X124671666Y-79604809D01*
X124623285Y-79604809D01*
X124550714Y-79580619D01*
X124502333Y-79532238D01*
X124478142Y-79483857D01*
X124453952Y-79387095D01*
X124453952Y-79314523D01*
X124478142Y-79217761D01*
X124502333Y-79169380D01*
X124550714Y-79121000D01*
X124623285Y-79096809D01*
X124671666Y-79096809D01*
X124744238Y-79121000D01*
X124768428Y-79145190D01*
X125228047Y-79096809D02*
X124986142Y-79096809D01*
X124961952Y-79338714D01*
X124986142Y-79314523D01*
X125034523Y-79290333D01*
X125155476Y-79290333D01*
X125203857Y-79314523D01*
X125228047Y-79338714D01*
X125252238Y-79387095D01*
X125252238Y-79508047D01*
X125228047Y-79556428D01*
X125203857Y-79580619D01*
X125155476Y-79604809D01*
X125034523Y-79604809D01*
X124986142Y-79580619D01*
X124961952Y-79556428D01*
X125494142Y-79604809D02*
X125590904Y-79604809D01*
X125639285Y-79580619D01*
X125663476Y-79556428D01*
X125711857Y-79483857D01*
X125736047Y-79387095D01*
X125736047Y-79193571D01*
X125711857Y-79145190D01*
X125687666Y-79121000D01*
X125639285Y-79096809D01*
X125542523Y-79096809D01*
X125494142Y-79121000D01*
X125469952Y-79145190D01*
X125445761Y-79193571D01*
X125445761Y-79314523D01*
X125469952Y-79362904D01*
X125494142Y-79387095D01*
X125542523Y-79411285D01*
X125639285Y-79411285D01*
X125687666Y-79387095D01*
X125711857Y-79362904D01*
X125736047Y-79314523D01*
X121466428Y-77270428D02*
X121442238Y-77294619D01*
X121369666Y-77318809D01*
X121321285Y-77318809D01*
X121248714Y-77294619D01*
X121200333Y-77246238D01*
X121176142Y-77197857D01*
X121151952Y-77101095D01*
X121151952Y-77028523D01*
X121176142Y-76931761D01*
X121200333Y-76883380D01*
X121248714Y-76835000D01*
X121321285Y-76810809D01*
X121369666Y-76810809D01*
X121442238Y-76835000D01*
X121466428Y-76859190D01*
X121901857Y-76810809D02*
X121805095Y-76810809D01*
X121756714Y-76835000D01*
X121732523Y-76859190D01*
X121684142Y-76931761D01*
X121659952Y-77028523D01*
X121659952Y-77222047D01*
X121684142Y-77270428D01*
X121708333Y-77294619D01*
X121756714Y-77318809D01*
X121853476Y-77318809D01*
X121901857Y-77294619D01*
X121926047Y-77270428D01*
X121950238Y-77222047D01*
X121950238Y-77101095D01*
X121926047Y-77052714D01*
X121901857Y-77028523D01*
X121853476Y-77004333D01*
X121756714Y-77004333D01*
X121708333Y-77028523D01*
X121684142Y-77052714D01*
X121659952Y-77101095D01*
X122434047Y-77318809D02*
X122143761Y-77318809D01*
X122288904Y-77318809D02*
X122288904Y-76810809D01*
X122240523Y-76883380D01*
X122192142Y-76931761D01*
X122143761Y-76955952D01*
%LPC*%
D19*
X121825000Y-61849000D03*
X125825000Y-61849000D03*
D20*
X126750000Y-106300000D03*
X126750000Y-111900000D03*
D21*
X128900000Y-109100000D03*
D22*
X120670000Y-83230000D03*
X121170000Y-83230000D03*
X121670000Y-83230000D03*
X122170000Y-83230000D03*
X122670000Y-83230000D03*
X123170000Y-83230000D03*
D23*
X123870000Y-82530000D03*
X123870000Y-82030000D03*
X123870000Y-81530000D03*
X123870000Y-81030000D03*
X123870000Y-80530000D03*
X123870000Y-80030000D03*
D22*
X123170000Y-79330000D03*
X122670000Y-79330000D03*
X122170000Y-79330000D03*
X121670000Y-79330000D03*
X121170000Y-79330000D03*
X120670000Y-79330000D03*
D23*
X119970000Y-80030000D03*
X119970000Y-80530000D03*
X119970000Y-81030000D03*
X119970000Y-81530000D03*
X119970000Y-82030000D03*
X119970000Y-82530000D03*
D24*
X121400000Y-84709000D03*
X119900000Y-84709000D03*
D25*
X133100000Y-62600000D03*
X129790000Y-62600000D03*
D26*
X132461000Y-74168000D03*
D27*
X136461500Y-67472560D03*
X136461500Y-67970400D03*
X136461500Y-68470780D03*
X136461500Y-68971160D03*
X136461500Y-69471540D03*
X136461500Y-69971920D03*
X136461500Y-70472300D03*
X136461500Y-70970140D03*
X128460500Y-80970120D03*
X128460500Y-80472280D03*
X128460500Y-79971900D03*
X128460500Y-79471520D03*
X128460500Y-72471280D03*
X128460500Y-71970900D03*
X128460500Y-71470520D03*
X128460500Y-70970140D03*
X128460500Y-70472300D03*
X128460500Y-69971920D03*
X128460500Y-69471540D03*
X128460500Y-68971160D03*
X128460500Y-68470780D03*
X128460500Y-67970400D03*
X128460500Y-67472560D03*
X128460500Y-78971140D03*
X128460500Y-78470760D03*
X128460500Y-77970380D03*
X128460500Y-77472540D03*
X128460500Y-76972160D03*
X128460500Y-76471780D03*
X128460500Y-75971400D03*
X136461500Y-79471520D03*
X128460500Y-74970640D03*
X128460500Y-74470260D03*
X128460500Y-73972420D03*
X128460500Y-73472040D03*
X128460500Y-72971660D03*
X136461500Y-76972160D03*
X136461500Y-77472540D03*
X136461500Y-77970380D03*
X136461500Y-78470760D03*
X136461500Y-78971140D03*
X128460500Y-75471020D03*
X136461500Y-79971900D03*
X136461500Y-80472280D03*
X136461500Y-80970120D03*
X136461500Y-71470520D03*
X136461500Y-71970900D03*
X136461500Y-72471280D03*
X136461500Y-72971660D03*
X136461500Y-73472040D03*
X136461500Y-73972420D03*
X136461500Y-74470260D03*
X136461500Y-74970640D03*
X136461500Y-75471020D03*
X136461500Y-75971400D03*
X136461500Y-76471780D03*
D28*
X137575999Y-88960000D03*
X137575999Y-89459999D03*
X137575999Y-89960000D03*
X137575999Y-90459999D03*
X137575999Y-90960001D03*
X137575999Y-91460000D03*
X137575999Y-91959999D03*
X137575999Y-92460000D03*
X137575999Y-92960000D03*
X137575999Y-93460001D03*
X137575999Y-93960000D03*
X137575999Y-94459999D03*
X137575999Y-94960001D03*
X137575999Y-95460000D03*
X137575999Y-95960001D03*
X137575999Y-96460000D03*
D29*
X135576000Y-98459999D03*
X135076001Y-98459999D03*
X134576000Y-98459999D03*
X134076001Y-98459999D03*
X133575999Y-98459999D03*
X133076000Y-98459999D03*
X132576001Y-98459999D03*
X132076000Y-98459999D03*
X131576000Y-98459999D03*
X131075999Y-98459999D03*
X130576000Y-98459999D03*
X130076001Y-98459999D03*
X129575999Y-98459999D03*
X129076000Y-98459999D03*
X128575999Y-98459999D03*
X128076000Y-98459999D03*
D28*
X126076001Y-96460000D03*
X126076001Y-95960001D03*
X126076001Y-95460000D03*
X126076001Y-94960001D03*
X126076001Y-94459999D03*
X126076001Y-93960000D03*
X126076001Y-93460001D03*
X126076001Y-92960000D03*
X126076001Y-92460000D03*
X126076001Y-91959999D03*
X126076001Y-91460000D03*
X126076001Y-90960001D03*
X126076001Y-90459999D03*
X126076001Y-89960000D03*
X126076001Y-89459999D03*
X126076001Y-88960000D03*
D29*
X128076000Y-86960001D03*
X128575999Y-86960001D03*
X129076000Y-86960001D03*
X129575999Y-86960001D03*
X130076001Y-86960001D03*
X130576000Y-86960001D03*
X131075999Y-86960001D03*
X131576000Y-86960001D03*
X132076000Y-86960001D03*
X132576001Y-86960001D03*
X133076000Y-86960001D03*
X133575999Y-86960001D03*
X134076001Y-86960001D03*
X134576000Y-86960001D03*
X135076001Y-86960001D03*
X135576000Y-86960001D03*
D30*
X121769000Y-59492000D03*
X118769000Y-59492000D03*
D10*
G36*
X119911727Y-59669066D02*
G01*
X118638934Y-58396273D01*
X120406701Y-56628506D01*
X121679494Y-57901299D01*
X119911727Y-59669066D01*
G37*
G36*
X117083299Y-62497494D02*
G01*
X115810506Y-61224701D01*
X117578273Y-59456934D01*
X118851066Y-60729727D01*
X117083299Y-62497494D01*
G37*
G36*
X130688117Y-104907117D02*
G01*
X131572000Y-104023234D01*
X132455883Y-104907117D01*
X131572000Y-105791000D01*
X130688117Y-104907117D01*
G37*
G36*
X129804234Y-105791000D02*
G01*
X130688117Y-104907117D01*
X131572000Y-105791000D01*
X130688117Y-106674883D01*
X129804234Y-105791000D01*
G37*
G36*
X131572000Y-105791000D02*
G01*
X132455883Y-104907117D01*
X133339766Y-105791000D01*
X132455883Y-106674883D01*
X131572000Y-105791000D01*
G37*
G36*
X130688117Y-106674883D02*
G01*
X131572000Y-105791000D01*
X132455883Y-106674883D01*
X131572000Y-107558766D01*
X130688117Y-106674883D01*
G37*
G36*
X132102330Y-104058588D02*
G01*
X131890198Y-103846456D01*
X132406386Y-103330268D01*
X132618518Y-103542400D01*
X132102330Y-104058588D01*
G37*
G36*
X132455883Y-104412142D02*
G01*
X132243751Y-104200010D01*
X132759939Y-103683822D01*
X132972071Y-103895954D01*
X132455883Y-104412142D01*
G37*
G36*
X132809437Y-104765695D02*
G01*
X132597305Y-104553563D01*
X133113493Y-104037375D01*
X133325625Y-104249507D01*
X132809437Y-104765695D01*
G37*
G36*
X133162990Y-105119249D02*
G01*
X132950858Y-104907117D01*
X133467046Y-104390929D01*
X133679178Y-104603061D01*
X133162990Y-105119249D01*
G37*
G36*
X133516544Y-105472802D02*
G01*
X133304412Y-105260670D01*
X133820600Y-104744482D01*
X134032732Y-104956614D01*
X133516544Y-105472802D01*
G37*
G36*
X133304412Y-106321330D02*
G01*
X133516544Y-106109198D01*
X134032732Y-106625386D01*
X133820600Y-106837518D01*
X133304412Y-106321330D01*
G37*
G36*
X132950858Y-106674883D02*
G01*
X133162990Y-106462751D01*
X133679178Y-106978939D01*
X133467046Y-107191071D01*
X132950858Y-106674883D01*
G37*
G36*
X132597305Y-107028437D02*
G01*
X132809437Y-106816305D01*
X133325625Y-107332493D01*
X133113493Y-107544625D01*
X132597305Y-107028437D01*
G37*
G36*
X132243751Y-107381990D02*
G01*
X132455883Y-107169858D01*
X132972071Y-107686046D01*
X132759939Y-107898178D01*
X132243751Y-107381990D01*
G37*
G36*
X131890198Y-107735544D02*
G01*
X132102330Y-107523412D01*
X132618518Y-108039600D01*
X132406386Y-108251732D01*
X131890198Y-107735544D01*
G37*
G36*
X130737614Y-108251732D02*
G01*
X130525482Y-108039600D01*
X131041670Y-107523412D01*
X131253802Y-107735544D01*
X130737614Y-108251732D01*
G37*
G36*
X130384061Y-107898178D02*
G01*
X130171929Y-107686046D01*
X130688117Y-107169858D01*
X130900249Y-107381990D01*
X130384061Y-107898178D01*
G37*
G36*
X130030507Y-107544625D02*
G01*
X129818375Y-107332493D01*
X130334563Y-106816305D01*
X130546695Y-107028437D01*
X130030507Y-107544625D01*
G37*
G36*
X129676954Y-107191071D02*
G01*
X129464822Y-106978939D01*
X129981010Y-106462751D01*
X130193142Y-106674883D01*
X129676954Y-107191071D01*
G37*
G36*
X129323400Y-106837518D02*
G01*
X129111268Y-106625386D01*
X129627456Y-106109198D01*
X129839588Y-106321330D01*
X129323400Y-106837518D01*
G37*
G36*
X129111268Y-104956614D02*
G01*
X129323400Y-104744482D01*
X129839588Y-105260670D01*
X129627456Y-105472802D01*
X129111268Y-104956614D01*
G37*
G36*
X129464822Y-104603061D02*
G01*
X129676954Y-104390929D01*
X130193142Y-104907117D01*
X129981010Y-105119249D01*
X129464822Y-104603061D01*
G37*
G36*
X129818375Y-104249507D02*
G01*
X130030507Y-104037375D01*
X130546695Y-104553563D01*
X130334563Y-104765695D01*
X129818375Y-104249507D01*
G37*
G36*
X130171929Y-103895954D02*
G01*
X130384061Y-103683822D01*
X130900249Y-104200010D01*
X130688117Y-104412142D01*
X130171929Y-103895954D01*
G37*
G36*
X130525482Y-103542400D02*
G01*
X130737614Y-103330268D01*
X131253802Y-103846456D01*
X131041670Y-104058588D01*
X130525482Y-103542400D01*
G37*
D31*
X123825000Y-101333000D03*
X122625000Y-101333000D03*
X123825000Y-102108000D03*
X122625000Y-102108000D03*
D32*
X124200000Y-103270500D03*
X123550000Y-103270500D03*
X122900000Y-103270500D03*
X122250000Y-103270500D03*
X122250000Y-100170500D03*
X122900000Y-100170500D03*
X123550000Y-100170500D03*
X124200000Y-100170500D03*
D33*
X139551000Y-60198000D03*
X136801000Y-60198000D03*
D34*
X130834000Y-83566000D03*
X133834000Y-83566000D03*
D35*
X139192000Y-65175000D03*
X139192000Y-68175000D03*
D10*
G36*
X134909355Y-108323091D02*
G01*
X134485091Y-108747355D01*
X134202249Y-108464513D01*
X134626513Y-108040249D01*
X134909355Y-108323091D01*
G37*
G36*
X135545751Y-108959487D02*
G01*
X135121487Y-109383751D01*
X134838645Y-109100909D01*
X135262909Y-108676645D01*
X135545751Y-108959487D01*
G37*
G36*
X133865909Y-109509355D02*
G01*
X133441645Y-109085091D01*
X133724487Y-108802249D01*
X134148751Y-109226513D01*
X133865909Y-109509355D01*
G37*
G36*
X133229513Y-110145751D02*
G01*
X132805249Y-109721487D01*
X133088091Y-109438645D01*
X133512355Y-109862909D01*
X133229513Y-110145751D01*
G37*
G36*
X133088091Y-108041645D02*
G01*
X133512355Y-108465909D01*
X133229513Y-108748751D01*
X132805249Y-108324487D01*
X133088091Y-108041645D01*
G37*
G36*
X133724487Y-107405249D02*
G01*
X134148751Y-107829513D01*
X133865909Y-108112355D01*
X133441645Y-107688091D01*
X133724487Y-107405249D01*
G37*
G36*
X133477000Y-112113554D02*
G01*
X133830554Y-111760000D01*
X134254818Y-112184264D01*
X133901264Y-112537818D01*
X133477000Y-112113554D01*
G37*
G36*
X132699182Y-111335736D02*
G01*
X133052736Y-110982182D01*
X133477000Y-111406446D01*
X133123446Y-111760000D01*
X132699182Y-111335736D01*
G37*
G36*
X134239000Y-111351554D02*
G01*
X134592554Y-110998000D01*
X135016818Y-111422264D01*
X134663264Y-111775818D01*
X134239000Y-111351554D01*
G37*
G36*
X133461182Y-110573736D02*
G01*
X133814736Y-110220182D01*
X134239000Y-110644446D01*
X133885446Y-110998000D01*
X133461182Y-110573736D01*
G37*
G36*
X136271000Y-109755446D02*
G01*
X135917446Y-110109000D01*
X135493182Y-109684736D01*
X135846736Y-109331182D01*
X136271000Y-109755446D01*
G37*
G36*
X137048818Y-110533264D02*
G01*
X136695264Y-110886818D01*
X136271000Y-110462554D01*
X136624554Y-110109000D01*
X137048818Y-110533264D01*
G37*
G36*
X138021554Y-110744000D02*
G01*
X137668000Y-110390446D01*
X138092264Y-109966182D01*
X138445818Y-110319736D01*
X138021554Y-110744000D01*
G37*
G36*
X137243736Y-111521818D02*
G01*
X136890182Y-111168264D01*
X137314446Y-110744000D01*
X137668000Y-111097554D01*
X137243736Y-111521818D01*
G37*
G36*
X135472249Y-104810355D02*
G01*
X136108645Y-105446751D01*
X135755091Y-105800305D01*
X135118695Y-105163909D01*
X135472249Y-104810355D01*
G37*
G36*
X136532909Y-103749695D02*
G01*
X137169305Y-104386091D01*
X136815751Y-104739645D01*
X136179355Y-104103249D01*
X136532909Y-103749695D01*
G37*
D36*
X123113800Y-69227000D03*
X123113800Y-70727000D03*
X123113800Y-66636200D03*
X123113800Y-68136200D03*
D37*
X126251400Y-68249800D03*
X124751400Y-68249800D03*
X126251400Y-71196200D03*
X124751400Y-71196200D03*
X126226000Y-65354200D03*
X124726000Y-65354200D03*
X121019000Y-106315000D03*
X119519000Y-106315000D03*
X132219000Y-56134000D03*
X133719000Y-56134000D03*
X122821000Y-56261000D03*
X124321000Y-56261000D03*
X122821000Y-57785000D03*
X124321000Y-57785000D03*
X122821000Y-59309000D03*
X124321000Y-59309000D03*
D36*
X140335000Y-77839000D03*
X140335000Y-76339000D03*
X140335000Y-80633000D03*
X140335000Y-79133000D03*
D10*
G36*
X127249348Y-107600169D02*
G01*
X127779678Y-108130499D01*
X127213992Y-108696185D01*
X126683662Y-108165855D01*
X127249348Y-107600169D01*
G37*
G36*
X128310008Y-106539509D02*
G01*
X128840338Y-107069839D01*
X128274652Y-107635525D01*
X127744322Y-107105195D01*
X128310008Y-106539509D01*
G37*
D38*
X120205500Y-89420000D03*
X120205500Y-90920000D03*
D10*
G36*
X137672652Y-105808678D02*
G01*
X137142322Y-105278348D01*
X137708008Y-104712662D01*
X138238338Y-105242992D01*
X137672652Y-105808678D01*
G37*
G36*
X136611992Y-106869338D02*
G01*
X136081662Y-106339008D01*
X136647348Y-105773322D01*
X137177678Y-106303652D01*
X136611992Y-106869338D01*
G37*
G36*
X133472348Y-102598322D02*
G01*
X134002678Y-103128652D01*
X133436992Y-103694338D01*
X132906662Y-103164008D01*
X133472348Y-102598322D01*
G37*
G36*
X134533008Y-101537662D02*
G01*
X135063338Y-102067992D01*
X134497652Y-102633678D01*
X133967322Y-102103348D01*
X134533008Y-101537662D01*
G37*
D24*
X135243000Y-100076000D03*
X133743000Y-100076000D03*
D38*
X124269500Y-88531000D03*
X124269500Y-90031000D03*
X128143000Y-83959000D03*
X128143000Y-85459000D03*
D24*
X125146500Y-98000000D03*
X123646500Y-98000000D03*
D38*
X139192000Y-89408000D03*
X139192000Y-87908000D03*
D24*
X123125800Y-72593200D03*
X124625800Y-72593200D03*
X123125800Y-74041000D03*
X124625800Y-74041000D03*
X124751400Y-69723000D03*
X126251400Y-69723000D03*
D38*
X125349000Y-76847000D03*
X125349000Y-78347000D03*
D24*
X126226000Y-66802000D03*
X124726000Y-66802000D03*
D38*
X126365000Y-75680000D03*
X126365000Y-74180000D03*
X127000000Y-82030000D03*
X127000000Y-80530000D03*
D24*
X138823000Y-63754000D03*
X140323000Y-63754000D03*
D38*
X138303000Y-72505000D03*
X138303000Y-71005000D03*
X138303000Y-75299000D03*
X138303000Y-73799000D03*
X138303000Y-78093000D03*
X138303000Y-76593000D03*
D24*
X138823000Y-69850000D03*
X140323000Y-69850000D03*
X138799000Y-62230000D03*
X137299000Y-62230000D03*
D38*
X120650000Y-99429000D03*
X120650000Y-97929000D03*
X120650000Y-100977000D03*
X120650000Y-102477000D03*
D24*
X123011500Y-87122000D03*
X124511500Y-87122000D03*
D10*
G36*
X135513652Y-103776678D02*
G01*
X134983322Y-103246348D01*
X135549008Y-102680662D01*
X136079338Y-103210992D01*
X135513652Y-103776678D01*
G37*
G36*
X134452992Y-104837338D02*
G01*
X133922662Y-104307008D01*
X134488348Y-103741322D01*
X135018678Y-104271652D01*
X134452992Y-104837338D01*
G37*
D24*
X136436800Y-56083200D03*
X134936800Y-56083200D03*
D38*
X119761000Y-78093000D03*
X119761000Y-76593000D03*
X125095000Y-84316000D03*
X125095000Y-82816000D03*
D39*
X149726000Y-81788000D03*
X144726000Y-81788000D03*
X165842000Y-81788000D03*
X170842000Y-81788000D03*
D40*
X118000000Y-104203040D03*
D41*
X118000000Y-100200000D03*
X118000000Y-102201520D03*
D42*
X166334000Y-76454000D03*
D43*
X167734000Y-75879000D03*
X167734000Y-77029000D03*
X170534000Y-77029000D03*
X170534000Y-75879000D03*
X167734000Y-74729000D03*
X170534000Y-74729000D03*
X167734000Y-78179000D03*
X170534000Y-78179000D03*
D44*
X164084000Y-76454000D03*
X164084000Y-74254000D03*
X164084000Y-78654000D03*
X173384000Y-76454000D03*
X173384000Y-78654000D03*
X173384000Y-74254000D03*
D45*
X170393000Y-67694000D03*
D46*
X169818000Y-66294000D03*
X170968000Y-66294000D03*
X170968000Y-63494000D03*
X169818000Y-63494000D03*
X168668000Y-66294000D03*
X168668000Y-63494000D03*
X172118000Y-66294000D03*
X172118000Y-63494000D03*
D47*
X170393000Y-69944000D03*
X168193000Y-69944000D03*
X172593000Y-69944000D03*
X170393000Y-60644000D03*
X172593000Y-60644000D03*
X168193000Y-60644000D03*
D42*
X144334000Y-76454000D03*
D43*
X145734000Y-75879000D03*
X145734000Y-77029000D03*
X148534000Y-77029000D03*
X148534000Y-75879000D03*
X145734000Y-74729000D03*
X148534000Y-74729000D03*
X145734000Y-78179000D03*
X148534000Y-78179000D03*
D44*
X142084000Y-76454000D03*
X142084000Y-74254000D03*
X142084000Y-78654000D03*
X151384000Y-76454000D03*
X151384000Y-78654000D03*
X151384000Y-74254000D03*
D48*
X151384000Y-58166000D03*
X164084000Y-58166000D03*
D49*
X123184920Y-108458000D03*
D50*
X119181880Y-108458000D03*
X121183400Y-108458000D03*
X117182900Y-108458000D03*
D49*
X126846200Y-58000000D03*
D50*
X130849240Y-58000000D03*
X128847720Y-58000000D03*
X132848220Y-58000000D03*
X134849740Y-58000000D03*
X136851260Y-58000000D03*
D41*
X117983000Y-79298740D03*
X117983000Y-81297720D03*
X117983000Y-83299240D03*
D40*
X117983000Y-91305320D03*
D41*
X117983000Y-87302280D03*
X117983000Y-89303800D03*
X117983000Y-85303300D03*
X117983000Y-77299760D03*
D40*
X117983000Y-72803040D03*
D41*
X117983000Y-68800000D03*
X117983000Y-70801520D03*
X117983000Y-66801020D03*
X117983000Y-64799500D03*
D45*
X145087000Y-67678000D03*
D46*
X144512000Y-66278000D03*
X145662000Y-66278000D03*
X145662000Y-63478000D03*
X144512000Y-63478000D03*
X143362000Y-66278000D03*
X143362000Y-63478000D03*
X146812000Y-66278000D03*
X146812000Y-63478000D03*
D47*
X145087000Y-69928000D03*
X142887000Y-69928000D03*
X147287000Y-69928000D03*
X145087000Y-60628000D03*
X147287000Y-60628000D03*
X142887000Y-60628000D03*
D42*
X155321000Y-76454000D03*
D43*
X156721000Y-75879000D03*
X156721000Y-77029000D03*
X159521000Y-77029000D03*
X159521000Y-75879000D03*
X156721000Y-74729000D03*
X159521000Y-74729000D03*
X156721000Y-78179000D03*
X159521000Y-78179000D03*
D44*
X153071000Y-76454000D03*
X153071000Y-74254000D03*
X153071000Y-78654000D03*
X162371000Y-76454000D03*
X162371000Y-78654000D03*
X162371000Y-74254000D03*
D45*
X157734000Y-67678000D03*
D46*
X157159000Y-66278000D03*
X158309000Y-66278000D03*
X158309000Y-63478000D03*
X157159000Y-63478000D03*
X156009000Y-66278000D03*
X156009000Y-63478000D03*
X159459000Y-66278000D03*
X159459000Y-63478000D03*
D47*
X157734000Y-69928000D03*
X155534000Y-69928000D03*
X159934000Y-69928000D03*
X157734000Y-60628000D03*
X159934000Y-60628000D03*
X155534000Y-60628000D03*
D51*
X157734000Y-86800000D03*
D38*
X125095000Y-81649000D03*
X125095000Y-80149000D03*
D24*
X121043000Y-78105000D03*
X122543000Y-78105000D03*
M02*
