G04 #@! TF.GenerationSoftware,KiCad,Pcbnew,(5.1.5-0)*
G04 #@! TF.CreationDate,2019-12-28T20:18:40+08:00*
G04 #@! TF.ProjectId,VESC_6,56455343-5f36-42e6-9b69-6361645f7063,A*
G04 #@! TF.SameCoordinates,Original*
G04 #@! TF.FileFunction,Soldermask,Bot*
G04 #@! TF.FilePolarity,Negative*
%FSLAX46Y46*%
G04 Gerber Fmt 4.6, Leading zero omitted, Abs format (unit mm)*
G04 Created by KiCad (PCBNEW (5.1.5-0)) date 2019-12-28 20:18:40*
%MOMM*%
%LPD*%
G04 APERTURE LIST*
%ADD10R,1.500000X0.450000*%
%ADD11O,1.100000X1.800000*%
%ADD12O,1.100000X2.200000*%
%ADD13R,2.300000X2.700000*%
%ADD14R,0.600000X2.700000*%
%ADD15R,0.797560X0.797560*%
%ADD16R,1.060000X0.650000*%
%ADD17R,1.000000X0.800000*%
%ADD18R,0.700000X1.500000*%
%ADD19C,0.900000*%
%ADD20R,1.300000X0.700000*%
%ADD21R,1.950000X1.500000*%
%ADD22R,0.450000X1.450000*%
%ADD23R,2.500000X1.000000*%
%ADD24R,0.900000X0.500000*%
%ADD25R,0.500000X0.900000*%
%ADD26R,0.750000X0.800000*%
%ADD27R,0.800000X0.750000*%
%ADD28C,0.100000*%
%ADD29R,2.000000X1.300000*%
%ADD30C,1.600000*%
%ADD31R,1.699260X1.198880*%
%ADD32O,1.699260X1.198880*%
%ADD33C,3.000000*%
%ADD34R,1.198880X1.699260*%
%ADD35O,1.198880X1.699260*%
%ADD36R,5.000000X4.000000*%
%ADD37R,6.000000X5.000000*%
%ADD38C,0.254000*%
G04 APERTURE END LIST*
D10*
X127000000Y-109100000D03*
X127000000Y-109750000D03*
X127000000Y-108450000D03*
X127000000Y-110400000D03*
X127000000Y-107800000D03*
D11*
X126750000Y-106300000D03*
X126750000Y-111900000D03*
D12*
X128900000Y-109100000D03*
D13*
X143166000Y-61382000D03*
X147066000Y-69682000D03*
X147066000Y-61382000D03*
X143166000Y-69682000D03*
D14*
X145116000Y-61382000D03*
X145116000Y-69682000D03*
D13*
X168484000Y-61382000D03*
X172384000Y-69682000D03*
X172384000Y-61382000D03*
X168484000Y-69682000D03*
D14*
X170434000Y-61382000D03*
X170434000Y-69682000D03*
D13*
X155784000Y-61382000D03*
X159684000Y-69682000D03*
X159684000Y-61382000D03*
X155784000Y-69682000D03*
D14*
X157734000Y-61382000D03*
X157734000Y-69682000D03*
D15*
X138942300Y-103156000D03*
X138942300Y-101657400D03*
X137414000Y-103187500D03*
X137414000Y-101688900D03*
X135890000Y-103187500D03*
X135890000Y-101688900D03*
D16*
X124135000Y-79046000D03*
X124135000Y-80946000D03*
X126335000Y-80946000D03*
X126335000Y-79996000D03*
X126335000Y-79046000D03*
D17*
X116619000Y-60592000D03*
X123919000Y-60592000D03*
X123919000Y-58392000D03*
X116619000Y-58392000D03*
D18*
X122519000Y-61242000D03*
X121019000Y-61242000D03*
X118019000Y-61242000D03*
D19*
X121769000Y-59492000D03*
X118769000Y-59492000D03*
D20*
X122618500Y-80946000D03*
X122618500Y-79046000D03*
D21*
X125857000Y-83947000D03*
X123107000Y-83947000D03*
D22*
X138090000Y-67986000D03*
X138740000Y-67986000D03*
X139390000Y-67986000D03*
X140040000Y-67986000D03*
X140040000Y-63586000D03*
X139390000Y-63586000D03*
X138740000Y-63586000D03*
X138090000Y-63586000D03*
X135518800Y-60995200D03*
X134868800Y-60995200D03*
X134218800Y-60995200D03*
X133568800Y-60995200D03*
X133568800Y-65395200D03*
X134218800Y-65395200D03*
X134868800Y-65395200D03*
X135518800Y-65395200D03*
X129740300Y-62138200D03*
X129090300Y-62138200D03*
X128440300Y-62138200D03*
X127790300Y-62138200D03*
X127790300Y-66538200D03*
X128440300Y-66538200D03*
X129090300Y-66538200D03*
X129740300Y-66538200D03*
D23*
X143383000Y-75398500D03*
X143383000Y-78398500D03*
X146685000Y-75398500D03*
X146685000Y-78398500D03*
X159385000Y-75398500D03*
X159385000Y-78398500D03*
X156083000Y-75398500D03*
X156083000Y-78398500D03*
X168783000Y-75398500D03*
X168783000Y-78398500D03*
X171958000Y-75398500D03*
X171958000Y-78398500D03*
D24*
X130556000Y-101739000D03*
X130556000Y-103239000D03*
X128778000Y-103239000D03*
X128778000Y-101739000D03*
X127004300Y-103227000D03*
X127004300Y-101727000D03*
D25*
X120916000Y-96583500D03*
X122416000Y-96583500D03*
X138926000Y-104775000D03*
X137426000Y-104775000D03*
X134531800Y-104343200D03*
X133031800Y-104343200D03*
X134531800Y-102743000D03*
X133031800Y-102743000D03*
D24*
X133281000Y-82619000D03*
X133281000Y-84119000D03*
X131684800Y-82630200D03*
X131684800Y-84130200D03*
D25*
X132966500Y-71501000D03*
X131466500Y-71501000D03*
X132966500Y-72961500D03*
X131466500Y-72961500D03*
X132966500Y-74485500D03*
X131466500Y-74485500D03*
X132966500Y-76009500D03*
X131466500Y-76009500D03*
X132966500Y-77533500D03*
X131466500Y-77533500D03*
X132966500Y-79057500D03*
X131466500Y-79057500D03*
X137922000Y-70929500D03*
X139422000Y-70929500D03*
X137921300Y-72466200D03*
X139421300Y-72466200D03*
X137934000Y-73977500D03*
X139434000Y-73977500D03*
X137934000Y-75501500D03*
X139434000Y-75501500D03*
X137934000Y-77025500D03*
X139434000Y-77025500D03*
X137934000Y-78549500D03*
X139434000Y-78549500D03*
D24*
X134239000Y-91782200D03*
X134239000Y-93282200D03*
X131191000Y-91782200D03*
X131191000Y-93282200D03*
X128143000Y-91782200D03*
X128143000Y-93282200D03*
D26*
X136779000Y-67703000D03*
X136779000Y-69203000D03*
D27*
X134505000Y-96774000D03*
X136005000Y-96774000D03*
X120903300Y-95135700D03*
X122403300Y-95135700D03*
D26*
X138988800Y-87845200D03*
X138988800Y-89345200D03*
D27*
X126123000Y-96012000D03*
X127623000Y-96012000D03*
D26*
X133477000Y-99695000D03*
X133477000Y-98195000D03*
X130937000Y-89269000D03*
X130937000Y-87769000D03*
X127635000Y-79998000D03*
X127635000Y-78498000D03*
X132715000Y-93282200D03*
X132715000Y-91782200D03*
X129667000Y-93282200D03*
X129667000Y-91782200D03*
X131953000Y-64631000D03*
X131953000Y-63131000D03*
X126174500Y-65087500D03*
X126174500Y-63587500D03*
X126619000Y-93282200D03*
X126619000Y-91782200D03*
D28*
G36*
X130700678Y-111501348D02*
G01*
X130170348Y-112031678D01*
X129604662Y-111465992D01*
X130134992Y-110935662D01*
X130700678Y-111501348D01*
G37*
G36*
X131761338Y-112562008D02*
G01*
X131231008Y-113092338D01*
X130665322Y-112526652D01*
X131195652Y-111996322D01*
X131761338Y-112562008D01*
G37*
G36*
X138158322Y-107446652D02*
G01*
X138688652Y-106916322D01*
X139254338Y-107482008D01*
X138724008Y-108012338D01*
X138158322Y-107446652D01*
G37*
G36*
X137097662Y-106385992D02*
G01*
X137627992Y-105855662D01*
X138193678Y-106421348D01*
X137663348Y-106951678D01*
X137097662Y-106385992D01*
G37*
D27*
X125210000Y-82296000D03*
X123710000Y-82296000D03*
D28*
G36*
X131398571Y-110647611D02*
G01*
X130479332Y-109728372D01*
X131893545Y-108314159D01*
X132812784Y-109233398D01*
X131398571Y-110647611D01*
G37*
G36*
X134226998Y-107819184D02*
G01*
X133307759Y-106899945D01*
X134721972Y-105485732D01*
X135641211Y-106404971D01*
X134226998Y-107819184D01*
G37*
G36*
X135924055Y-109516241D02*
G01*
X135004816Y-108597002D01*
X136419029Y-107182789D01*
X137338268Y-108102028D01*
X135924055Y-109516241D01*
G37*
G36*
X133095628Y-112344668D02*
G01*
X132176389Y-111425429D01*
X133590602Y-110011216D01*
X134509841Y-110930455D01*
X133095628Y-112344668D01*
G37*
D29*
X136906000Y-87339320D03*
X132906000Y-87339320D03*
X132906000Y-89739320D03*
X136906000Y-89739320D03*
D30*
X149726000Y-81788000D03*
X144726000Y-81788000D03*
X165842000Y-81788000D03*
X170842000Y-81788000D03*
D31*
X118000000Y-104203040D03*
D32*
X118000000Y-100200000D03*
X118000000Y-102201520D03*
D33*
X151384000Y-58166000D03*
X164084000Y-58166000D03*
D34*
X123184920Y-108458000D03*
D35*
X119181880Y-108458000D03*
X121183400Y-108458000D03*
X117182900Y-108458000D03*
D34*
X126846200Y-58000000D03*
D35*
X130849240Y-58000000D03*
X128847720Y-58000000D03*
X132848220Y-58000000D03*
X134849740Y-58000000D03*
X136851260Y-58000000D03*
D32*
X117983000Y-79298740D03*
X117983000Y-81297720D03*
X117983000Y-83299240D03*
D31*
X117983000Y-91305320D03*
D32*
X117983000Y-87302280D03*
X117983000Y-89303800D03*
X117983000Y-85303300D03*
X117983000Y-77299760D03*
D31*
X117983000Y-72803040D03*
D32*
X117983000Y-68800000D03*
X117983000Y-70801520D03*
X117983000Y-66801020D03*
X117983000Y-64799500D03*
D28*
G36*
X137692191Y-112873693D02*
G01*
X136949728Y-113616156D01*
X135394093Y-112060521D01*
X136136556Y-111318058D01*
X137692191Y-112873693D01*
G37*
G36*
X139389246Y-112520140D02*
G01*
X138682140Y-113227246D01*
X137939678Y-112484784D01*
X138646784Y-111777678D01*
X139389246Y-112520140D01*
G37*
G36*
X139778156Y-110787728D02*
G01*
X139035693Y-111530191D01*
X137480058Y-109974556D01*
X138222521Y-109232093D01*
X139778156Y-110787728D01*
G37*
D36*
X145114500Y-57531000D03*
X157734000Y-57531000D03*
X170434000Y-57531000D03*
D37*
X157734000Y-86800000D03*
D24*
X123621800Y-89789700D03*
X123621800Y-88289700D03*
D28*
G36*
X122500805Y-87828409D02*
G01*
X121864409Y-88464805D01*
X121510855Y-88111251D01*
X122147251Y-87474855D01*
X122500805Y-87828409D01*
G37*
G36*
X121440145Y-86767749D02*
G01*
X120803749Y-87404145D01*
X120450195Y-87050591D01*
X121086591Y-86414195D01*
X121440145Y-86767749D01*
G37*
D38*
G36*
X153162000Y-80010000D02*
G01*
X153164440Y-80034776D01*
X153171667Y-80058601D01*
X153183403Y-80080557D01*
X153199197Y-80099803D01*
X154215197Y-81115803D01*
X154234443Y-81131597D01*
X154256399Y-81143333D01*
X154280224Y-81150560D01*
X154305000Y-81153000D01*
X161163000Y-81153000D01*
X161187776Y-81150560D01*
X161211601Y-81143333D01*
X161233557Y-81131597D01*
X161252803Y-81115803D01*
X162268803Y-80099803D01*
X162284597Y-80080557D01*
X162296333Y-80058601D01*
X162303560Y-80034776D01*
X162306000Y-80010000D01*
X162306000Y-63881000D01*
X165989000Y-63881000D01*
X165989000Y-80192152D01*
X160665783Y-83391144D01*
X160645803Y-83405998D01*
X160629105Y-83424464D01*
X160616331Y-83445833D01*
X160607970Y-83469284D01*
X160604200Y-83500000D01*
X160604200Y-84455000D01*
X154863800Y-84455000D01*
X154863800Y-83500000D01*
X154861360Y-83475224D01*
X154854133Y-83451399D01*
X154842397Y-83429443D01*
X154826603Y-83410197D01*
X154802217Y-83391144D01*
X149479000Y-80192152D01*
X149479000Y-63881000D01*
X153162000Y-63881000D01*
X153162000Y-80010000D01*
G37*
X153162000Y-80010000D02*
X153164440Y-80034776D01*
X153171667Y-80058601D01*
X153183403Y-80080557D01*
X153199197Y-80099803D01*
X154215197Y-81115803D01*
X154234443Y-81131597D01*
X154256399Y-81143333D01*
X154280224Y-81150560D01*
X154305000Y-81153000D01*
X161163000Y-81153000D01*
X161187776Y-81150560D01*
X161211601Y-81143333D01*
X161233557Y-81131597D01*
X161252803Y-81115803D01*
X162268803Y-80099803D01*
X162284597Y-80080557D01*
X162296333Y-80058601D01*
X162303560Y-80034776D01*
X162306000Y-80010000D01*
X162306000Y-63881000D01*
X165989000Y-63881000D01*
X165989000Y-80192152D01*
X160665783Y-83391144D01*
X160645803Y-83405998D01*
X160629105Y-83424464D01*
X160616331Y-83445833D01*
X160607970Y-83469284D01*
X160604200Y-83500000D01*
X160604200Y-84455000D01*
X154863800Y-84455000D01*
X154863800Y-83500000D01*
X154861360Y-83475224D01*
X154854133Y-83451399D01*
X154842397Y-83429443D01*
X154826603Y-83410197D01*
X154802217Y-83391144D01*
X149479000Y-80192152D01*
X149479000Y-63881000D01*
X153162000Y-63881000D01*
X153162000Y-80010000D01*
M02*
